<?xml version="1.0" encoding="UTF-8" standalone="no"?>
<!DOCTYPE svg PUBLIC "-//W3C//DTD SVG 1.1//EN"
 "http://www.w3.org/Graphics/SVG/1.1/DTD/svg11.dtd">
<!-- Generated by graphviz version 2.40.1 (20161225.0304)
 -->
<!-- Title: oneDegreeRelationshipsDiagram Pages: 1 -->
<svg width="251pt" height="360pt"
 viewBox="0.00 0.00 251.00 360.20" xmlns="http://www.w3.org/2000/svg" xmlns:xlink="http://www.w3.org/1999/xlink">
<g id="graph0" class="graph" transform="scale(1 1) rotate(0) translate(4 356.2)">
<title>oneDegreeRelationshipsDiagram</title>
<polygon fill="#ffffff" stroke="transparent" points="-4,4 -4,-356.2 247,-356.2 247,4 -4,4"/>
<text text-anchor="middle" x="72.4936" y="-7.3" font-family="Helvetica,sans-Serif" font-size="11.00" fill="#000000">Generated by SchemaSpy</text>
<!-- admin_event_entity -->
<g id="node1" class="node">
<title>admin_event_entity</title>
<g id="a_node1"><a xlink:href="../../tables/admin_event_entity.html" xlink:title="admin_event_entity" target="_top">
<polygon fill="#ffffff" stroke="transparent" points="8,-38.2 8,-348.2 235,-348.2 235,-38.2 8,-38.2"/>
<polygon fill="#f5f5f5" stroke="transparent" points="10.5,-323.2 10.5,-346.2 233.5,-346.2 233.5,-323.2 10.5,-323.2"/>
<polygon fill="none" stroke="#000000" points="10.5,-323.2 10.5,-346.2 233.5,-346.2 233.5,-323.2 10.5,-323.2"/>
<text text-anchor="start" x="15.5" y="-332.3" font-family="Helvetica,sans-Serif" font-weight="bold" font-size="11.00" fill="#000000">admin_event_entity</text>
<text text-anchor="start" x="198.5437" y="-331.3" font-family="Helvetica,sans-Serif" font-size="11.00" fill="#000000">[table]</text>
<polygon fill="none" stroke="#000000" points="10.5,-301.2 10.5,-323.2 143.5,-323.2 143.5,-301.2 10.5,-301.2"/>
<image xlink:href="../../images/primaryKeys.png" width="11px" height="12px" preserveAspectRatio="xMinYMin meet" x="15.5" y="-318.2"/>
<text text-anchor="start" x="30.5" y="-308.3" font-family="Helvetica,sans-Serif" font-size="11.00" fill="#000000">id</text>
<polygon fill="none" stroke="#000000" points="143.5,-301.2 143.5,-323.2 233.5,-323.2 233.5,-301.2 143.5,-301.2"/>
<text text-anchor="start" x="146.5" y="-308.9" font-family="Helvetica,sans-Serif" font-size="11.00" fill="#000000">varchar[36]</text>
<polygon fill="none" stroke="#000000" points="10.5,-279.2 10.5,-301.2 143.5,-301.2 143.5,-279.2 10.5,-279.2"/>
<text text-anchor="start" x="30.5" y="-286.3" font-family="Helvetica,sans-Serif" font-size="11.00" fill="#000000">admin_event_time</text>
<polygon fill="none" stroke="#000000" points="143.5,-279.2 143.5,-301.2 233.5,-301.2 233.5,-279.2 143.5,-279.2"/>
<text text-anchor="start" x="146.5" y="-286.9" font-family="Helvetica,sans-Serif" font-size="11.00" fill="#000000">int8[19]</text>
<polygon fill="none" stroke="#000000" points="10.5,-257.2 10.5,-279.2 143.5,-279.2 143.5,-257.2 10.5,-257.2"/>
<image xlink:href="../../images/foreignKeys.png" width="11px" height="12px" preserveAspectRatio="xMinYMin meet" x="15.5" y="-274.2"/>
<text text-anchor="start" x="30.5" y="-264.3" font-family="Helvetica,sans-Serif" font-size="11.00" fill="#000000">realm_id</text>
<polygon fill="none" stroke="#000000" points="143.5,-257.2 143.5,-279.2 233.5,-279.2 233.5,-257.2 143.5,-257.2"/>
<text text-anchor="start" x="146.5" y="-264.9" font-family="Helvetica,sans-Serif" font-size="11.00" fill="#000000">varchar[255]</text>
<polygon fill="none" stroke="#000000" points="10.5,-235.2 10.5,-257.2 143.5,-257.2 143.5,-235.2 10.5,-235.2"/>
<text text-anchor="start" x="30.5" y="-242.3" font-family="Helvetica,sans-Serif" font-size="11.00" fill="#000000">operation_type</text>
<polygon fill="none" stroke="#000000" points="143.5,-235.2 143.5,-257.2 233.5,-257.2 233.5,-235.2 143.5,-235.2"/>
<text text-anchor="start" x="146.5" y="-242.9" font-family="Helvetica,sans-Serif" font-size="11.00" fill="#000000">varchar[255]</text>
<polygon fill="none" stroke="#000000" points="10.5,-213.2 10.5,-235.2 143.5,-235.2 143.5,-213.2 10.5,-213.2"/>
<image xlink:href="../../images/foreignKeys.png" width="11px" height="12px" preserveAspectRatio="xMinYMin meet" x="15.5" y="-230.2"/>
<text text-anchor="start" x="30.5" y="-220.3" font-family="Helvetica,sans-Serif" font-size="11.00" fill="#000000">auth_realm_id</text>
<polygon fill="none" stroke="#000000" points="143.5,-213.2 143.5,-235.2 233.5,-235.2 233.5,-213.2 143.5,-213.2"/>
<text text-anchor="start" x="146.5" y="-220.9" font-family="Helvetica,sans-Serif" font-size="11.00" fill="#000000">varchar[255]</text>
<polygon fill="none" stroke="#000000" points="10.5,-191.2 10.5,-213.2 143.5,-213.2 143.5,-191.2 10.5,-191.2"/>
<image xlink:href="../../images/foreignKeys.png" width="11px" height="12px" preserveAspectRatio="xMinYMin meet" x="15.5" y="-208.2"/>
<text text-anchor="start" x="30.5" y="-198.3" font-family="Helvetica,sans-Serif" font-size="11.00" fill="#000000">auth_client_id</text>
<polygon fill="none" stroke="#000000" points="143.5,-191.2 143.5,-213.2 233.5,-213.2 233.5,-191.2 143.5,-191.2"/>
<text text-anchor="start" x="146.5" y="-198.9" font-family="Helvetica,sans-Serif" font-size="11.00" fill="#000000">varchar[255]</text>
<polygon fill="none" stroke="#000000" points="10.5,-169.2 10.5,-191.2 143.5,-191.2 143.5,-169.2 10.5,-169.2"/>
<image xlink:href="../../images/foreignKeys.png" width="11px" height="12px" preserveAspectRatio="xMinYMin meet" x="15.5" y="-186.2"/>
<text text-anchor="start" x="30.5" y="-176.3" font-family="Helvetica,sans-Serif" font-size="11.00" fill="#000000">auth_user_id</text>
<polygon fill="none" stroke="#000000" points="143.5,-169.2 143.5,-191.2 233.5,-191.2 233.5,-169.2 143.5,-169.2"/>
<text text-anchor="start" x="146.5" y="-176.9" font-family="Helvetica,sans-Serif" font-size="11.00" fill="#000000">varchar[255]</text>
<polygon fill="none" stroke="#000000" points="10.5,-147.2 10.5,-169.2 143.5,-169.2 143.5,-147.2 10.5,-147.2"/>
<text text-anchor="start" x="30.5" y="-154.3" font-family="Helvetica,sans-Serif" font-size="11.00" fill="#000000">ip_address</text>
<polygon fill="none" stroke="#000000" points="143.5,-147.2 143.5,-169.2 233.5,-169.2 233.5,-147.2 143.5,-147.2"/>
<text text-anchor="start" x="146.5" y="-154.9" font-family="Helvetica,sans-Serif" font-size="11.00" fill="#000000">varchar[255]</text>
<polygon fill="none" stroke="#000000" points="10.5,-125.2 10.5,-147.2 143.5,-147.2 143.5,-125.2 10.5,-125.2"/>
<text text-anchor="start" x="30.5" y="-132.3" font-family="Helvetica,sans-Serif" font-size="11.00" fill="#000000">resource_path</text>
<polygon fill="none" stroke="#000000" points="143.5,-125.2 143.5,-147.2 233.5,-147.2 233.5,-125.2 143.5,-125.2"/>
<text text-anchor="start" x="146.5" y="-132.9" font-family="Helvetica,sans-Serif" font-size="11.00" fill="#000000">varchar[2550]</text>
<polygon fill="none" stroke="#000000" points="10.5,-103.2 10.5,-125.2 143.5,-125.2 143.5,-103.2 10.5,-103.2"/>
<text text-anchor="start" x="30.5" y="-110.3" font-family="Helvetica,sans-Serif" font-size="11.00" fill="#000000">representation</text>
<polygon fill="none" stroke="#000000" points="143.5,-103.2 143.5,-125.2 233.5,-125.2 233.5,-103.2 143.5,-103.2"/>
<text text-anchor="start" x="146.0042" y="-110.9" font-family="Helvetica,sans-Serif" font-size="11.00" fill="#000000">text[2147483647]</text>
<polygon fill="none" stroke="#000000" points="10.5,-81.2 10.5,-103.2 143.5,-103.2 143.5,-81.2 10.5,-81.2"/>
<text text-anchor="start" x="30.5" y="-88.3" font-family="Helvetica,sans-Serif" font-size="11.00" fill="#000000">error</text>
<polygon fill="none" stroke="#000000" points="143.5,-81.2 143.5,-103.2 233.5,-103.2 233.5,-81.2 143.5,-81.2"/>
<text text-anchor="start" x="146.5" y="-88.9" font-family="Helvetica,sans-Serif" font-size="11.00" fill="#000000">varchar[255]</text>
<polygon fill="none" stroke="#000000" points="10.5,-59.2 10.5,-81.2 143.5,-81.2 143.5,-59.2 10.5,-59.2"/>
<text text-anchor="start" x="30.5" y="-66.3" font-family="Helvetica,sans-Serif" font-size="11.00" fill="#000000">resource_type</text>
<polygon fill="none" stroke="#000000" points="143.5,-59.2 143.5,-81.2 233.5,-81.2 233.5,-59.2 143.5,-59.2"/>
<text text-anchor="start" x="146.5" y="-66.9" font-family="Helvetica,sans-Serif" font-size="11.00" fill="#000000">varchar[64]</text>
<polygon fill="#ffffff" stroke="transparent" points="10.5,-40.2 10.5,-59.2 68.5,-59.2 68.5,-40.2 10.5,-40.2"/>
<polygon fill="none" stroke="#000000" points="10.5,-40.2 10.5,-59.2 68.5,-59.2 68.5,-40.2 10.5,-40.2"/>
<text text-anchor="start" x="13.5" y="-46.3" font-family="Helvetica,sans-Serif" font-size="11.00" fill="#000000">&lt; 0</text>
<polygon fill="#ffffff" stroke="transparent" points="68.5,-40.2 68.5,-59.2 143.5,-59.2 143.5,-40.2 68.5,-40.2"/>
<polygon fill="none" stroke="#000000" points="68.5,-40.2 68.5,-59.2 143.5,-59.2 143.5,-40.2 68.5,-40.2"/>
<text text-anchor="start" x="108.1105" y="-46.3" font-family="Helvetica,sans-Serif" font-size="11.00" fill="#000000">0 rows</text>
<polygon fill="#ffffff" stroke="transparent" points="143.5,-40.2 143.5,-59.2 233.5,-59.2 233.5,-40.2 143.5,-40.2"/>
<polygon fill="none" stroke="#000000" points="143.5,-40.2 143.5,-59.2 233.5,-59.2 233.5,-40.2 143.5,-40.2"/>
<text text-anchor="start" x="214.9053" y="-46.3" font-family="Helvetica,sans-Serif" font-size="11.00" fill="#000000">0 &gt;</text>
<polygon fill="none" stroke="#000000" stroke-width="2" points="9,-39.2 9,-347.2 234,-347.2 234,-39.2 9,-39.2"/>
</a>
</g>
</g>
</g>
</svg>
