<?xml version="1.0" encoding="UTF-8" standalone="no"?>
<!DOCTYPE svg PUBLIC "-//W3C//DTD SVG 1.1//EN"
 "http://www.w3.org/Graphics/SVG/1.1/DTD/svg11.dtd">
<!-- Generated by graphviz version 2.40.1 (20161225.0304)
 -->
<!-- Title: oneDegreeRelationshipsDiagramImplied Pages: 1 -->
<svg width="436pt" height="360pt"
 viewBox="0.00 0.00 436.00 360.20" xmlns="http://www.w3.org/2000/svg" xmlns:xlink="http://www.w3.org/1999/xlink">
<g id="graph0" class="graph" transform="scale(1 1) rotate(0) translate(4 356.2)">
<title>oneDegreeRelationshipsDiagramImplied</title>
<polygon fill="#ffffff" stroke="transparent" points="-4,4 -4,-356.2 432,-356.2 432,4 -4,4"/>
<text text-anchor="middle" x="72.4936" y="-7.3" font-family="Helvetica,sans-Serif" font-size="11.00" fill="#000000">Generated by SchemaSpy</text>
<!-- admin_event_entity -->
<g id="node1" class="node">
<title>admin_event_entity</title>
<g id="a_node1"><a xlink:href="../../tables/admin_event_entity.html" xlink:title="admin_event_entity" target="_top">
<polygon fill="#ffffff" stroke="transparent" points="193,-38.2 193,-348.2 420,-348.2 420,-38.2 193,-38.2"/>
<polygon fill="#f5f5f5" stroke="transparent" points="195.5,-323.2 195.5,-346.2 418.5,-346.2 418.5,-323.2 195.5,-323.2"/>
<polygon fill="none" stroke="#000000" points="195.5,-323.2 195.5,-346.2 418.5,-346.2 418.5,-323.2 195.5,-323.2"/>
<text text-anchor="start" x="200.5" y="-332.3" font-family="Helvetica,sans-Serif" font-weight="bold" font-size="11.00" fill="#000000">admin_event_entity</text>
<text text-anchor="start" x="383.5437" y="-331.3" font-family="Helvetica,sans-Serif" font-size="11.00" fill="#000000">[table]</text>
<polygon fill="none" stroke="#000000" points="195.5,-301.2 195.5,-323.2 328.5,-323.2 328.5,-301.2 195.5,-301.2"/>
<image xlink:href="../../images/primaryKeys.png" width="11px" height="12px" preserveAspectRatio="xMinYMin meet" x="200.5" y="-318.2"/>
<text text-anchor="start" x="215.5" y="-308.3" font-family="Helvetica,sans-Serif" font-size="11.00" fill="#000000">id</text>
<polygon fill="none" stroke="#000000" points="328.5,-301.2 328.5,-323.2 418.5,-323.2 418.5,-301.2 328.5,-301.2"/>
<text text-anchor="start" x="331.5" y="-308.9" font-family="Helvetica,sans-Serif" font-size="11.00" fill="#000000">varchar[36]</text>
<polygon fill="none" stroke="#000000" points="195.5,-279.2 195.5,-301.2 328.5,-301.2 328.5,-279.2 195.5,-279.2"/>
<text text-anchor="start" x="215.5" y="-286.3" font-family="Helvetica,sans-Serif" font-size="11.00" fill="#000000">admin_event_time</text>
<polygon fill="none" stroke="#000000" points="328.5,-279.2 328.5,-301.2 418.5,-301.2 418.5,-279.2 328.5,-279.2"/>
<text text-anchor="start" x="331.5" y="-286.9" font-family="Helvetica,sans-Serif" font-size="11.00" fill="#000000">int8[19]</text>
<polygon fill="none" stroke="#000000" points="195.5,-257.2 195.5,-279.2 328.5,-279.2 328.5,-257.2 195.5,-257.2"/>
<image xlink:href="../../images/foreignKeys.png" width="11px" height="12px" preserveAspectRatio="xMinYMin meet" x="200.5" y="-274.2"/>
<text text-anchor="start" x="215.5" y="-264.3" font-family="Helvetica,sans-Serif" font-size="11.00" fill="#000000">realm_id</text>
<polygon fill="none" stroke="#000000" points="328.5,-257.2 328.5,-279.2 418.5,-279.2 418.5,-257.2 328.5,-257.2"/>
<text text-anchor="start" x="331.5" y="-264.9" font-family="Helvetica,sans-Serif" font-size="11.00" fill="#000000">varchar[255]</text>
<polygon fill="none" stroke="#000000" points="195.5,-235.2 195.5,-257.2 328.5,-257.2 328.5,-235.2 195.5,-235.2"/>
<text text-anchor="start" x="215.5" y="-242.3" font-family="Helvetica,sans-Serif" font-size="11.00" fill="#000000">operation_type</text>
<polygon fill="none" stroke="#000000" points="328.5,-235.2 328.5,-257.2 418.5,-257.2 418.5,-235.2 328.5,-235.2"/>
<text text-anchor="start" x="331.5" y="-242.9" font-family="Helvetica,sans-Serif" font-size="11.00" fill="#000000">varchar[255]</text>
<polygon fill="none" stroke="#000000" points="195.5,-213.2 195.5,-235.2 328.5,-235.2 328.5,-213.2 195.5,-213.2"/>
<image xlink:href="../../images/foreignKeys.png" width="11px" height="12px" preserveAspectRatio="xMinYMin meet" x="200.5" y="-230.2"/>
<text text-anchor="start" x="215.5" y="-220.3" font-family="Helvetica,sans-Serif" font-size="11.00" fill="#000000">auth_realm_id</text>
<polygon fill="none" stroke="#000000" points="328.5,-213.2 328.5,-235.2 418.5,-235.2 418.5,-213.2 328.5,-213.2"/>
<text text-anchor="start" x="331.5" y="-220.9" font-family="Helvetica,sans-Serif" font-size="11.00" fill="#000000">varchar[255]</text>
<polygon fill="none" stroke="#000000" points="195.5,-191.2 195.5,-213.2 328.5,-213.2 328.5,-191.2 195.5,-191.2"/>
<image xlink:href="../../images/foreignKeys.png" width="11px" height="12px" preserveAspectRatio="xMinYMin meet" x="200.5" y="-208.2"/>
<text text-anchor="start" x="215.5" y="-198.3" font-family="Helvetica,sans-Serif" font-size="11.00" fill="#000000">auth_client_id</text>
<polygon fill="none" stroke="#000000" points="328.5,-191.2 328.5,-213.2 418.5,-213.2 418.5,-191.2 328.5,-191.2"/>
<text text-anchor="start" x="331.5" y="-198.9" font-family="Helvetica,sans-Serif" font-size="11.00" fill="#000000">varchar[255]</text>
<polygon fill="none" stroke="#000000" points="195.5,-169.2 195.5,-191.2 328.5,-191.2 328.5,-169.2 195.5,-169.2"/>
<image xlink:href="../../images/foreignKeys.png" width="11px" height="12px" preserveAspectRatio="xMinYMin meet" x="200.5" y="-186.2"/>
<text text-anchor="start" x="215.5" y="-176.3" font-family="Helvetica,sans-Serif" font-size="11.00" fill="#000000">auth_user_id</text>
<polygon fill="none" stroke="#000000" points="328.5,-169.2 328.5,-191.2 418.5,-191.2 418.5,-169.2 328.5,-169.2"/>
<text text-anchor="start" x="331.5" y="-176.9" font-family="Helvetica,sans-Serif" font-size="11.00" fill="#000000">varchar[255]</text>
<polygon fill="none" stroke="#000000" points="195.5,-147.2 195.5,-169.2 328.5,-169.2 328.5,-147.2 195.5,-147.2"/>
<text text-anchor="start" x="215.5" y="-154.3" font-family="Helvetica,sans-Serif" font-size="11.00" fill="#000000">ip_address</text>
<polygon fill="none" stroke="#000000" points="328.5,-147.2 328.5,-169.2 418.5,-169.2 418.5,-147.2 328.5,-147.2"/>
<text text-anchor="start" x="331.5" y="-154.9" font-family="Helvetica,sans-Serif" font-size="11.00" fill="#000000">varchar[255]</text>
<polygon fill="none" stroke="#000000" points="195.5,-125.2 195.5,-147.2 328.5,-147.2 328.5,-125.2 195.5,-125.2"/>
<text text-anchor="start" x="215.5" y="-132.3" font-family="Helvetica,sans-Serif" font-size="11.00" fill="#000000">resource_path</text>
<polygon fill="none" stroke="#000000" points="328.5,-125.2 328.5,-147.2 418.5,-147.2 418.5,-125.2 328.5,-125.2"/>
<text text-anchor="start" x="331.5" y="-132.9" font-family="Helvetica,sans-Serif" font-size="11.00" fill="#000000">varchar[2550]</text>
<polygon fill="none" stroke="#000000" points="195.5,-103.2 195.5,-125.2 328.5,-125.2 328.5,-103.2 195.5,-103.2"/>
<text text-anchor="start" x="215.5" y="-110.3" font-family="Helvetica,sans-Serif" font-size="11.00" fill="#000000">representation</text>
<polygon fill="none" stroke="#000000" points="328.5,-103.2 328.5,-125.2 418.5,-125.2 418.5,-103.2 328.5,-103.2"/>
<text text-anchor="start" x="331.0043" y="-110.9" font-family="Helvetica,sans-Serif" font-size="11.00" fill="#000000">text[2147483647]</text>
<polygon fill="none" stroke="#000000" points="195.5,-81.2 195.5,-103.2 328.5,-103.2 328.5,-81.2 195.5,-81.2"/>
<text text-anchor="start" x="215.5" y="-88.3" font-family="Helvetica,sans-Serif" font-size="11.00" fill="#000000">error</text>
<polygon fill="none" stroke="#000000" points="328.5,-81.2 328.5,-103.2 418.5,-103.2 418.5,-81.2 328.5,-81.2"/>
<text text-anchor="start" x="331.5" y="-88.9" font-family="Helvetica,sans-Serif" font-size="11.00" fill="#000000">varchar[255]</text>
<polygon fill="none" stroke="#000000" points="195.5,-59.2 195.5,-81.2 328.5,-81.2 328.5,-59.2 195.5,-59.2"/>
<text text-anchor="start" x="215.5" y="-66.3" font-family="Helvetica,sans-Serif" font-size="11.00" fill="#000000">resource_type</text>
<polygon fill="none" stroke="#000000" points="328.5,-59.2 328.5,-81.2 418.5,-81.2 418.5,-59.2 328.5,-59.2"/>
<text text-anchor="start" x="331.5" y="-66.9" font-family="Helvetica,sans-Serif" font-size="11.00" fill="#000000">varchar[64]</text>
<polygon fill="#ffffff" stroke="transparent" points="195.5,-40.2 195.5,-59.2 253.5,-59.2 253.5,-40.2 195.5,-40.2"/>
<polygon fill="none" stroke="#000000" points="195.5,-40.2 195.5,-59.2 253.5,-59.2 253.5,-40.2 195.5,-40.2"/>
<text text-anchor="start" x="198.5" y="-46.3" font-family="Helvetica,sans-Serif" font-size="11.00" fill="#000000">&lt; 4</text>
<polygon fill="#ffffff" stroke="transparent" points="253.5,-40.2 253.5,-59.2 328.5,-59.2 328.5,-40.2 253.5,-40.2"/>
<polygon fill="none" stroke="#000000" points="253.5,-40.2 253.5,-59.2 328.5,-59.2 328.5,-40.2 253.5,-40.2"/>
<text text-anchor="start" x="293.1105" y="-46.3" font-family="Helvetica,sans-Serif" font-size="11.00" fill="#000000">0 rows</text>
<polygon fill="#ffffff" stroke="transparent" points="328.5,-40.2 328.5,-59.2 418.5,-59.2 418.5,-40.2 328.5,-40.2"/>
<polygon fill="none" stroke="#000000" points="328.5,-40.2 328.5,-59.2 418.5,-59.2 418.5,-40.2 328.5,-40.2"/>
<text text-anchor="start" x="399.9053" y="-46.3" font-family="Helvetica,sans-Serif" font-size="11.00" fill="#000000">0 &gt;</text>
<polygon fill="none" stroke="#000000" stroke-width="2" points="194,-39.2 194,-347.2 419,-347.2 419,-39.2 194,-39.2"/>
</a>
</g>
</g>
<!-- federated_user -->
<g id="node2" class="node">
<title>federated_user</title>
<g id="a_node2"><a xlink:href="../../tables/federated_user.html" xlink:title="federated_user" target="_top">
<polygon fill="#ffffff" stroke="transparent" points="8,-164.7 8,-247.7 144,-247.7 144,-164.7 8,-164.7"/>
<polygon fill="#f5f5f5" stroke="transparent" points="8,-224.2 8,-247.2 144,-247.2 144,-224.2 8,-224.2"/>
<polygon fill="none" stroke="#000000" points="8,-224.2 8,-247.2 144,-247.2 144,-224.2 8,-224.2"/>
<text text-anchor="start" x="13" y="-233.3" font-family="Helvetica,sans-Serif" font-weight="bold" font-size="11.00" fill="#000000">federated_user</text>
<text text-anchor="start" x="109.0437" y="-232.3" font-family="Helvetica,sans-Serif" font-size="11.00" fill="#000000">[table]</text>
<polygon fill="none" stroke="#000000" points="8,-202.2 8,-224.2 144,-224.2 144,-202.2 8,-202.2"/>
<image xlink:href="../../images/primaryKeys.png" width="11px" height="12px" preserveAspectRatio="xMinYMin meet" x="13" y="-219.2"/>
<text text-anchor="start" x="28" y="-209.3" font-family="Helvetica,sans-Serif" font-size="11.00" fill="#000000">id</text>
<polygon fill="none" stroke="#000000" points="8,-183.2 8,-202.2 144,-202.2 144,-183.2 8,-183.2"/>
<text text-anchor="start" x="11" y="-189.3" font-family="Helvetica,sans-Serif" font-size="11.00" fill="#000000">...</text>
<polygon fill="#ffffff" stroke="transparent" points="8,-164.2 8,-183.2 49,-183.2 49,-164.2 8,-164.2"/>
<polygon fill="none" stroke="#000000" points="8,-164.2 8,-183.2 49,-183.2 49,-164.2 8,-164.2"/>
<text text-anchor="start" x="11" y="-170.3" font-family="Helvetica,sans-Serif" font-size="11.00" fill="#000000"> &#160;</text>
<polygon fill="#ffffff" stroke="transparent" points="49,-164.2 49,-183.2 102,-183.2 102,-164.2 49,-164.2"/>
<polygon fill="none" stroke="#000000" points="49,-164.2 49,-183.2 102,-183.2 102,-164.2 49,-164.2"/>
<text text-anchor="start" x="66.6105" y="-170.3" font-family="Helvetica,sans-Serif" font-size="11.00" fill="#000000">0 rows</text>
<polygon fill="#ffffff" stroke="transparent" points="102,-164.2 102,-183.2 144,-183.2 144,-164.2 102,-164.2"/>
<polygon fill="none" stroke="#000000" points="102,-164.2 102,-183.2 144,-183.2 144,-164.2 102,-164.2"/>
<text text-anchor="start" x="119.2904" y="-170.3" font-family="Helvetica,sans-Serif" font-size="11.00" fill="#000000">30 &gt;</text>
</a>
</g>
</g>
<!-- admin_event_entity&#45;&gt;federated_user -->
<g id="edge1" class="edge">
<title>admin_event_entity:w&#45;&gt;federated_user:e</title>
<path fill="none" stroke="#000000" stroke-dasharray="5,2" d="M180.8704,-203.9188C168.5803,-207.0125 161.5539,-213.2 144,-213.2"/>
<polygon fill="#000000" stroke="#000000" points="187.5546,-203.1335 195.9201,-205.7754 191.5273,-202.6668 195.5,-202.2 195.5,-202.2 195.5,-202.2 191.5273,-202.6668 195.0799,-198.6246 187.5546,-203.1335 187.5546,-203.1335"/>
<ellipse fill="none" stroke="#000000" cx="184.3765" cy="-203.5069" rx="3.2" ry="3.2"/>
</g>
<!-- admin_event_entity&#45;&gt;federated_user -->
<g id="edge2" class="edge">
<title>admin_event_entity:w&#45;&gt;federated_user:e</title>
<path fill="none" stroke="#000000" stroke-dasharray="5,2" d="M180.8704,-222.4813C168.5803,-219.3875 161.5539,-213.2 144,-213.2"/>
<polygon fill="#000000" stroke="#000000" points="187.5546,-223.2665 195.0799,-227.7754 191.5273,-223.7332 195.5,-224.2 195.5,-224.2 195.5,-224.2 191.5273,-223.7332 195.9201,-220.6246 187.5546,-223.2665 187.5546,-223.2665"/>
<ellipse fill="none" stroke="#000000" cx="184.3765" cy="-222.8931" rx="3.2" ry="3.2"/>
</g>
<!-- admin_event_entity&#45;&gt;federated_user -->
<g id="edge3" class="edge">
<title>admin_event_entity:w&#45;&gt;federated_user:e</title>
<path fill="none" stroke="#000000" stroke-dasharray="5,2" d="M181.3452,-184.2464C168.1325,-193.0584 165.2381,-213.2 144,-213.2"/>
<polygon fill="#000000" stroke="#000000" points="187.8081,-182.3989 196.4895,-183.6613 191.6541,-181.2995 195.5,-180.2 195.5,-180.2 195.5,-180.2 191.6541,-181.2995 194.5105,-176.7387 187.8081,-182.3989 187.8081,-182.3989"/>
<ellipse fill="none" stroke="#000000" cx="184.7314" cy="-183.2785" rx="3.2" ry="3.2"/>
</g>
<!-- admin_event_entity&#45;&gt;federated_user -->
<g id="edge4" class="edge">
<title>admin_event_entity:w&#45;&gt;federated_user:e</title>
<path fill="none" stroke="#000000" stroke-dasharray="5,2" d="M181.6226,-263.5107C165.9928,-250.2102 171.4705,-213.2 144,-213.2"/>
<polygon fill="#000000" stroke="#000000" points="187.921,-265.639 194.3475,-271.6106 191.7105,-266.9195 195.5,-268.2 195.5,-268.2 195.5,-268.2 191.7105,-266.9195 196.6525,-264.7894 187.921,-265.639 187.921,-265.639"/>
<ellipse fill="none" stroke="#000000" cx="184.8894" cy="-264.6146" rx="3.2" ry="3.2"/>
</g>
</g>
</svg>
