<?xml version="1.0" encoding="UTF-8" standalone="no"?>
<!DOCTYPE svg PUBLIC "-//W3C//DTD SVG 1.1//EN"
 "http://www.w3.org/Graphics/SVG/1.1/DTD/svg11.dtd">
<!-- Generated by graphviz version 2.40.1 (20161225.0304)
 -->
<!-- Title: twoDegreesRelationshipsDiagram Pages: 1 -->
<svg width="606pt" height="469pt"
 viewBox="0.00 0.00 606.00 468.70" xmlns="http://www.w3.org/2000/svg" xmlns:xlink="http://www.w3.org/1999/xlink">
<g id="graph0" class="graph" transform="scale(1 1) rotate(0) translate(4 464.7)">
<title>twoDegreesRelationshipsDiagram</title>
<polygon fill="#ffffff" stroke="transparent" points="-4,4 -4,-464.7 602,-464.7 602,4 -4,4"/>
<text text-anchor="middle" x="72.4936" y="-7.3" font-family="Helvetica,sans-Serif" font-size="11.00" fill="#000000">Generated by SchemaSpy</text>
<!-- associated_policy -->
<g id="node1" class="node">
<title>associated_policy</title>
<g id="a_node1"><a xlink:href="../../tables/associated_policy.html" xlink:title="associated_policy" target="_top">
<polygon fill="#ffffff" stroke="transparent" points="384,-366.7 384,-456.7 590,-456.7 590,-366.7 384,-366.7"/>
<polygon fill="#f5f5f5" stroke="transparent" points="386,-431.7 386,-454.7 588,-454.7 588,-431.7 386,-431.7"/>
<polygon fill="none" stroke="#000000" points="386,-431.7 386,-454.7 588,-454.7 588,-431.7 386,-431.7"/>
<text text-anchor="start" x="391" y="-440.8" font-family="Helvetica,sans-Serif" font-weight="bold" font-size="11.00" fill="#000000">associated_policy</text>
<text text-anchor="start" x="553.0437" y="-439.8" font-family="Helvetica,sans-Serif" font-size="11.00" fill="#000000">[table]</text>
<polygon fill="none" stroke="#000000" points="386,-409.7 386,-431.7 527,-431.7 527,-409.7 386,-409.7"/>
<image xlink:href="../../images/primaryKeys.png" width="11px" height="12px" preserveAspectRatio="xMinYMin meet" x="391" y="-426.7"/>
<text text-anchor="start" x="406" y="-416.8" font-family="Helvetica,sans-Serif" font-size="11.00" fill="#000000">policy_id</text>
<polygon fill="none" stroke="#000000" points="527,-409.7 527,-431.7 588,-431.7 588,-409.7 527,-409.7"/>
<text text-anchor="start" x="529.994" y="-417.4" font-family="Helvetica,sans-Serif" font-size="11.00" fill="#000000">varchar[36]</text>
<polygon fill="none" stroke="#000000" points="386,-387.7 386,-409.7 527,-409.7 527,-387.7 386,-387.7"/>
<image xlink:href="../../images/primaryKeys.png" width="11px" height="12px" preserveAspectRatio="xMinYMin meet" x="391" y="-404.7"/>
<text text-anchor="start" x="406" y="-394.8" font-family="Helvetica,sans-Serif" font-size="11.00" fill="#000000">associated_policy_id</text>
<polygon fill="none" stroke="#000000" points="527,-387.7 527,-409.7 588,-409.7 588,-387.7 527,-387.7"/>
<text text-anchor="start" x="529.994" y="-395.4" font-family="Helvetica,sans-Serif" font-size="11.00" fill="#000000">varchar[36]</text>
<polygon fill="#ffffff" stroke="transparent" points="386,-368.7 386,-387.7 448,-387.7 448,-368.7 386,-368.7"/>
<polygon fill="none" stroke="#000000" points="386,-368.7 386,-387.7 448,-387.7 448,-368.7 386,-368.7"/>
<text text-anchor="start" x="389" y="-374.8" font-family="Helvetica,sans-Serif" font-size="11.00" fill="#000000">&lt; 2</text>
<polygon fill="#ffffff" stroke="transparent" points="448,-368.7 448,-387.7 527,-387.7 527,-368.7 448,-368.7"/>
<polygon fill="none" stroke="#000000" points="448,-368.7 448,-387.7 527,-387.7 527,-368.7 448,-368.7"/>
<text text-anchor="start" x="491.6105" y="-374.8" font-family="Helvetica,sans-Serif" font-size="11.00" fill="#000000">0 rows</text>
<polygon fill="#ffffff" stroke="transparent" points="527,-368.7 527,-387.7 588,-387.7 588,-368.7 527,-368.7"/>
<polygon fill="none" stroke="#000000" points="527,-368.7 527,-387.7 588,-387.7 588,-368.7 527,-368.7"/>
<text text-anchor="start" x="569.4053" y="-374.8" font-family="Helvetica,sans-Serif" font-size="11.00" fill="#000000">0 &gt;</text>
<polygon fill="none" stroke="#000000" stroke-width="2" points="385,-367.7 385,-455.7 589,-455.7 589,-367.7 385,-367.7"/>
</a>
</g>
</g>
<!-- resource_server_policy -->
<g id="node2" class="node">
<title>resource_server_policy</title>
<g id="a_node2"><a xlink:href="../../tables/resource_server_policy.html" xlink:title="resource_server_policy" target="_top">
<polygon fill="#ffffff" stroke="transparent" points="179,-137.2 179,-264.2 335,-264.2 335,-137.2 179,-137.2"/>
<polygon fill="#f5f5f5" stroke="transparent" points="179,-240.7 179,-263.7 335,-263.7 335,-240.7 179,-240.7"/>
<polygon fill="none" stroke="#000000" points="179,-240.7 179,-263.7 335,-263.7 335,-240.7 179,-240.7"/>
<text text-anchor="start" x="183.6608" y="-249.8" font-family="Helvetica,sans-Serif" font-weight="bold" font-size="11.00" fill="#000000">resource_server_policy</text>
<text text-anchor="start" x="300.5219" y="-248.8" font-family="Helvetica,sans-Serif" font-size="11.00" fill="#000000">[table]</text>
<polygon fill="none" stroke="#000000" points="179,-218.7 179,-240.7 335,-240.7 335,-218.7 179,-218.7"/>
<image xlink:href="../../images/primaryKeys.png" width="11px" height="12px" preserveAspectRatio="xMinYMin meet" x="184" y="-235.7"/>
<text text-anchor="start" x="200" y="-225.8" font-family="Helvetica,sans-Serif" font-size="11.00" fill="#000000">id</text>
<polygon fill="#ffffff" stroke="transparent" points="179,-196.7 179,-218.7 335,-218.7 335,-196.7 179,-196.7"/>
<polygon fill="none" stroke="#000000" points="179,-196.7 179,-218.7 335,-218.7 335,-196.7 179,-196.7"/>
<text text-anchor="start" x="200" y="-203.8" font-family="Helvetica,sans-Serif" font-size="11.00" fill="#000000">name</text>
<polygon fill="#ffffff" stroke="transparent" points="179,-174.7 179,-196.7 335,-196.7 335,-174.7 179,-174.7"/>
<polygon fill="none" stroke="#000000" points="179,-174.7 179,-196.7 335,-196.7 335,-174.7 179,-174.7"/>
<image xlink:href="../../images/foreignKeys.png" width="11px" height="12px" preserveAspectRatio="xMinYMin meet" x="184" y="-191.7"/>
<text text-anchor="start" x="200" y="-181.8" font-family="Helvetica,sans-Serif" font-size="11.00" fill="#000000">resource_server_id</text>
<polygon fill="none" stroke="#000000" points="179,-155.7 179,-174.7 335,-174.7 335,-155.7 179,-155.7"/>
<text text-anchor="start" x="182" y="-161.8" font-family="Helvetica,sans-Serif" font-size="11.00" fill="#000000">...</text>
<polygon fill="#ffffff" stroke="transparent" points="179,-136.7 179,-155.7 238,-155.7 238,-136.7 179,-136.7"/>
<polygon fill="none" stroke="#000000" points="179,-136.7 179,-155.7 238,-155.7 238,-136.7 179,-136.7"/>
<text text-anchor="start" x="182" y="-142.8" font-family="Helvetica,sans-Serif" font-size="11.00" fill="#000000">&lt; 1</text>
<polygon fill="#ffffff" stroke="transparent" points="238,-136.7 238,-155.7 295,-155.7 295,-136.7 238,-136.7"/>
<polygon fill="none" stroke="#000000" points="238,-136.7 238,-155.7 295,-155.7 295,-136.7 238,-136.7"/>
<text text-anchor="start" x="259.6105" y="-142.8" font-family="Helvetica,sans-Serif" font-size="11.00" fill="#000000">0 rows</text>
<polygon fill="#ffffff" stroke="transparent" points="295,-136.7 295,-155.7 335,-155.7 335,-136.7 295,-136.7"/>
<polygon fill="none" stroke="#000000" points="295,-136.7 295,-155.7 335,-155.7 335,-136.7 295,-136.7"/>
<text text-anchor="start" x="316.4053" y="-142.8" font-family="Helvetica,sans-Serif" font-size="11.00" fill="#000000">6 &gt;</text>
</a>
</g>
</g>
<!-- associated_policy&#45;&gt;resource_server_policy -->
<g id="edge1" class="edge">
<title>associated_policy:w&#45;&gt;resource_server_policy:e</title>
<path fill="none" stroke="#000000" d="M371.7402,-396.1798C321.8882,-375.1568 407.787,-229.7 335,-229.7"/>
<polygon fill="#000000" stroke="#000000" points="378.1221,-397.3077 385.3735,-402.2451 382.061,-398.0038 386,-398.7 386,-398.7 386,-398.7 382.061,-398.0038 386.6265,-395.1549 378.1221,-397.3077 378.1221,-397.3077"/>
<ellipse fill="none" stroke="#000000" cx="374.9709" cy="-396.7508" rx="3.2" ry="3.2"/>
</g>
<!-- associated_policy&#45;&gt;resource_server_policy -->
<g id="edge2" class="edge">
<title>associated_policy:w&#45;&gt;resource_server_policy:e</title>
<path fill="none" stroke="#000000" d="M371.5464,-418.4219C313.3318,-396.8724 417.1999,-229.7 335,-229.7"/>
<polygon fill="#000000" stroke="#000000" points="378.0976,-419.4544 385.4395,-424.2561 382.0488,-420.0772 386,-420.7 386,-420.7 386,-420.7 382.0488,-420.0772 386.5605,-417.1439 378.0976,-419.4544 378.0976,-419.4544"/>
<ellipse fill="none" stroke="#000000" cx="374.9366" cy="-418.9562" rx="3.2" ry="3.2"/>
</g>
<!-- resource_server -->
<g id="node6" class="node">
<title>resource_server</title>
<g id="a_node6"><a xlink:href="../../tables/resource_server.html" xlink:title="resource_server" target="_top">
<polygon fill="#ffffff" stroke="transparent" points="8,-98.2 8,-159.2 130,-159.2 130,-98.2 8,-98.2"/>
<polygon fill="#f5f5f5" stroke="transparent" points="8,-135.7 8,-158.7 130,-158.7 130,-135.7 8,-135.7"/>
<polygon fill="none" stroke="#000000" points="8,-135.7 8,-158.7 130,-158.7 130,-135.7 8,-135.7"/>
<text text-anchor="start" x="12.7741" y="-144.8" font-family="Helvetica,sans-Serif" font-weight="bold" font-size="11.00" fill="#000000">resource_server</text>
<text text-anchor="start" x="95.5219" y="-143.8" font-family="Helvetica,sans-Serif" font-size="11.00" fill="#000000">[table]</text>
<polygon fill="none" stroke="#000000" points="8,-116.7 8,-135.7 130,-135.7 130,-116.7 8,-116.7"/>
<text text-anchor="start" x="11" y="-122.8" font-family="Helvetica,sans-Serif" font-size="11.00" fill="#000000">...</text>
<polygon fill="#ffffff" stroke="transparent" points="8,-97.7 8,-116.7 45,-116.7 45,-97.7 8,-97.7"/>
<polygon fill="none" stroke="#000000" points="8,-97.7 8,-116.7 45,-116.7 45,-97.7 8,-97.7"/>
<text text-anchor="start" x="11" y="-103.8" font-family="Helvetica,sans-Serif" font-size="11.00" fill="#000000"> &#160;</text>
<polygon fill="#ffffff" stroke="transparent" points="45,-97.7 45,-116.7 96,-116.7 96,-97.7 45,-97.7"/>
<polygon fill="none" stroke="#000000" points="45,-97.7 45,-116.7 96,-116.7 96,-97.7 45,-97.7"/>
<text text-anchor="start" x="60.6105" y="-103.8" font-family="Helvetica,sans-Serif" font-size="11.00" fill="#000000">0 rows</text>
<polygon fill="#ffffff" stroke="transparent" points="96,-97.7 96,-116.7 130,-116.7 130,-97.7 96,-97.7"/>
<polygon fill="none" stroke="#000000" points="96,-97.7 96,-116.7 130,-116.7 130,-97.7 96,-97.7"/>
<text text-anchor="start" x="111.4053" y="-103.8" font-family="Helvetica,sans-Serif" font-size="11.00" fill="#000000">4 &gt;</text>
</a>
</g>
</g>
<!-- resource_server_policy&#45;&gt;resource_server -->
<g id="edge7" class="edge">
<title>resource_server_policy:w&#45;&gt;resource_server:e</title>
<path fill="none" stroke="#000000" d="M165.069,-180.5844C149.9545,-166.0748 158.2429,-125.7 130,-125.7"/>
<polygon fill="#000000" stroke="#000000" points="171.4903,-182.9424 177.7591,-189.0794 175.2451,-184.3212 179,-185.7 179,-185.7 179,-185.7 175.2451,-184.3212 180.2409,-182.3206 171.4903,-182.9424 171.4903,-182.9424"/>
<ellipse fill="none" stroke="#000000" cx="168.4864" cy="-181.8393" rx="3.2" ry="3.2"/>
</g>
<!-- policy_config -->
<g id="node3" class="node">
<title>policy_config</title>
<g id="a_node3"><a xlink:href="../../tables/policy_config.html" xlink:title="policy_config" target="_top">
<polygon fill="#ffffff" stroke="transparent" points="434,-284.2 434,-345.2 540,-345.2 540,-284.2 434,-284.2"/>
<polygon fill="#f5f5f5" stroke="transparent" points="434,-321.7 434,-344.7 540,-344.7 540,-321.7 434,-321.7"/>
<polygon fill="none" stroke="#000000" points="434,-321.7 434,-344.7 540,-344.7 540,-321.7 434,-321.7"/>
<text text-anchor="start" x="438.7155" y="-330.8" font-family="Helvetica,sans-Serif" font-weight="bold" font-size="11.00" fill="#000000">policy_config</text>
<text text-anchor="start" x="505.5219" y="-329.8" font-family="Helvetica,sans-Serif" font-size="11.00" fill="#000000">[table]</text>
<polygon fill="none" stroke="#000000" points="434,-302.7 434,-321.7 540,-321.7 540,-302.7 434,-302.7"/>
<text text-anchor="start" x="437" y="-308.8" font-family="Helvetica,sans-Serif" font-size="11.00" fill="#000000">...</text>
<polygon fill="#ffffff" stroke="transparent" points="434,-283.7 434,-302.7 472,-302.7 472,-283.7 434,-283.7"/>
<polygon fill="none" stroke="#000000" points="434,-283.7 434,-302.7 472,-302.7 472,-283.7 434,-283.7"/>
<text text-anchor="start" x="437" y="-289.8" font-family="Helvetica,sans-Serif" font-size="11.00" fill="#000000">&lt; 1</text>
<polygon fill="#ffffff" stroke="transparent" points="472,-283.7 472,-302.7 519,-302.7 519,-283.7 472,-283.7"/>
<polygon fill="none" stroke="#000000" points="472,-283.7 472,-302.7 519,-302.7 519,-283.7 472,-283.7"/>
<text text-anchor="start" x="483.6105" y="-289.8" font-family="Helvetica,sans-Serif" font-size="11.00" fill="#000000">0 rows</text>
<polygon fill="#ffffff" stroke="transparent" points="519,-283.7 519,-302.7 540,-302.7 540,-283.7 519,-283.7"/>
<polygon fill="none" stroke="#000000" points="519,-283.7 519,-302.7 540,-302.7 540,-283.7 519,-283.7"/>
<text text-anchor="start" x="530.8862" y="-289.8" font-family="Helvetica,sans-Serif" font-size="11.00" fill="#000000"> &#160;</text>
</a>
</g>
</g>
<!-- policy_config&#45;&gt;resource_server_policy -->
<g id="edge3" class="edge">
<title>policy_config:w&#45;&gt;resource_server_policy:e</title>
<path fill="none" stroke="#000000" d="M419.4848,-309.9674C401.1814,-304.9816 395.2377,-289.9149 376,-273.7 355.562,-256.4734 361.7296,-229.7 335,-229.7"/>
<polygon fill="#000000" stroke="#000000" points="426.0564,-310.7518 433.5733,-315.2746 430.0282,-311.2259 434,-311.7 434,-311.7 434,-311.7 430.0282,-311.2259 434.4267,-308.1254 426.0564,-310.7518 426.0564,-310.7518"/>
<ellipse fill="none" stroke="#000000" cx="422.8789" cy="-310.3725" rx="3.2" ry="3.2"/>
</g>
<!-- resource_policy -->
<g id="node4" class="node">
<title>resource_policy</title>
<g id="a_node4"><a xlink:href="../../tables/resource_policy.html" xlink:title="resource_policy" target="_top">
<polygon fill="#ffffff" stroke="transparent" points="427,-202.2 427,-263.2 547,-263.2 547,-202.2 427,-202.2"/>
<polygon fill="#f5f5f5" stroke="transparent" points="427,-239.7 427,-262.7 547,-262.7 547,-239.7 427,-239.7"/>
<polygon fill="none" stroke="#000000" points="427,-239.7 427,-262.7 547,-262.7 547,-239.7 427,-239.7"/>
<text text-anchor="start" x="431.9951" y="-248.8" font-family="Helvetica,sans-Serif" font-weight="bold" font-size="11.00" fill="#000000">resource_policy</text>
<text text-anchor="start" x="512.5219" y="-247.8" font-family="Helvetica,sans-Serif" font-size="11.00" fill="#000000">[table]</text>
<polygon fill="none" stroke="#000000" points="427,-220.7 427,-239.7 547,-239.7 547,-220.7 427,-220.7"/>
<text text-anchor="start" x="430" y="-226.8" font-family="Helvetica,sans-Serif" font-size="11.00" fill="#000000">...</text>
<polygon fill="#ffffff" stroke="transparent" points="427,-201.7 427,-220.7 472,-220.7 472,-201.7 427,-201.7"/>
<polygon fill="none" stroke="#000000" points="427,-201.7 427,-220.7 472,-220.7 472,-201.7 427,-201.7"/>
<text text-anchor="start" x="430" y="-207.8" font-family="Helvetica,sans-Serif" font-size="11.00" fill="#000000">&lt; 2</text>
<polygon fill="#ffffff" stroke="transparent" points="472,-201.7 472,-220.7 522,-220.7 522,-201.7 472,-201.7"/>
<polygon fill="none" stroke="#000000" points="472,-201.7 472,-220.7 522,-220.7 522,-201.7 472,-201.7"/>
<text text-anchor="start" x="486.6105" y="-207.8" font-family="Helvetica,sans-Serif" font-size="11.00" fill="#000000">0 rows</text>
<polygon fill="#ffffff" stroke="transparent" points="522,-201.7 522,-220.7 547,-220.7 547,-201.7 522,-201.7"/>
<polygon fill="none" stroke="#000000" points="522,-201.7 522,-220.7 547,-220.7 547,-201.7 522,-201.7"/>
<text text-anchor="start" x="537.8862" y="-207.8" font-family="Helvetica,sans-Serif" font-size="11.00" fill="#000000"> &#160;</text>
</a>
</g>
</g>
<!-- resource_policy&#45;&gt;resource_server_policy -->
<g id="edge4" class="edge">
<title>resource_policy:w&#45;&gt;resource_server_policy:e</title>
<path fill="none" stroke="#000000" d="M412.5849,-229.7C382.9661,-229.7 370.6181,-229.7 335,-229.7"/>
<polygon fill="#000000" stroke="#000000" points="419,-229.7001 427,-233.3 423,-229.7 427,-229.7 427,-229.7 427,-229.7 423,-229.7 427,-226.1 419,-229.7001 419,-229.7001"/>
<ellipse fill="none" stroke="#000000" cx="415.8" cy="-229.7001" rx="3.2" ry="3.2"/>
</g>
<!-- resource_server_perm_ticket -->
<g id="node5" class="node">
<title>resource_server_perm_ticket</title>
<g id="a_node5"><a xlink:href="../../tables/resource_server_perm_ticket.html" xlink:title="resource_server_perm_ticket" target="_top">
<polygon fill="#ffffff" stroke="transparent" points="394.5,-38.2 394.5,-99.2 579.5,-99.2 579.5,-38.2 394.5,-38.2"/>
<polygon fill="#f5f5f5" stroke="transparent" points="395,-75.7 395,-98.7 580,-98.7 580,-75.7 395,-75.7"/>
<polygon fill="none" stroke="#000000" points="395,-75.7 395,-98.7 580,-98.7 580,-75.7 395,-75.7"/>
<text text-anchor="start" x="399.7976" y="-84.8" font-family="Helvetica,sans-Serif" font-weight="bold" font-size="11.00" fill="#000000">resource_server_perm_ticket</text>
<text text-anchor="start" x="545.5219" y="-83.8" font-family="Helvetica,sans-Serif" font-size="11.00" fill="#000000">[table]</text>
<polygon fill="none" stroke="#000000" points="395,-56.7 395,-75.7 580,-75.7 580,-56.7 395,-56.7"/>
<text text-anchor="start" x="398" y="-62.8" font-family="Helvetica,sans-Serif" font-size="11.00" fill="#000000">...</text>
<polygon fill="#ffffff" stroke="transparent" points="395,-37.7 395,-56.7 473,-56.7 473,-37.7 395,-37.7"/>
<polygon fill="none" stroke="#000000" points="395,-37.7 395,-56.7 473,-56.7 473,-37.7 395,-37.7"/>
<text text-anchor="start" x="398" y="-43.8" font-family="Helvetica,sans-Serif" font-size="11.00" fill="#000000">&lt; 4</text>
<polygon fill="#ffffff" stroke="transparent" points="473,-37.7 473,-56.7 539,-56.7 539,-37.7 473,-37.7"/>
<polygon fill="none" stroke="#000000" points="473,-37.7 473,-56.7 539,-56.7 539,-37.7 473,-37.7"/>
<text text-anchor="start" x="503.6105" y="-43.8" font-family="Helvetica,sans-Serif" font-size="11.00" fill="#000000">0 rows</text>
<polygon fill="#ffffff" stroke="transparent" points="539,-37.7 539,-56.7 580,-56.7 580,-37.7 539,-37.7"/>
<polygon fill="none" stroke="#000000" points="539,-37.7 539,-56.7 580,-56.7 580,-37.7 539,-37.7"/>
<text text-anchor="start" x="570.8862" y="-43.8" font-family="Helvetica,sans-Serif" font-size="11.00" fill="#000000"> &#160;</text>
</a>
</g>
</g>
<!-- resource_server_perm_ticket&#45;&gt;resource_server_policy -->
<g id="edge5" class="edge">
<title>resource_server_perm_ticket:w&#45;&gt;resource_server_policy:e</title>
<path fill="none" stroke="#000000" d="M380.751,-68.1456C330.2469,-88.5467 407.005,-229.7 335,-229.7"/>
<polygon fill="#000000" stroke="#000000" points="387.1153,-67.0533 395.609,-69.2481 391.0576,-66.3767 395,-65.7 395,-65.7 395,-65.7 391.0576,-66.3767 394.391,-62.1519 387.1153,-67.0533 387.1153,-67.0533"/>
<ellipse fill="none" stroke="#000000" cx="383.9614" cy="-67.5947" rx="3.2" ry="3.2"/>
</g>
<!-- resource_server_perm_ticket&#45;&gt;resource_server -->
<g id="edge6" class="edge">
<title>resource_server_perm_ticket:w&#45;&gt;resource_server:e</title>
<path fill="none" stroke="#000000" d="M380.2874,-66.0085C272.0974,-70.6333 245.688,-125.7 130,-125.7"/>
<polygon fill="#000000" stroke="#000000" points="387.0018,-65.8678 395.0755,-69.2992 391.0009,-65.7839 395,-65.7 395,-65.7 395,-65.7 391.0009,-65.7839 394.9245,-62.1008 387.0018,-65.8678 387.0018,-65.8678"/>
<ellipse fill="none" stroke="#000000" cx="383.8025" cy="-65.9349" rx="3.2" ry="3.2"/>
</g>
<!-- scope_policy -->
<g id="node7" class="node">
<title>scope_policy</title>
<g id="a_node7"><a xlink:href="../../tables/scope_policy.html" xlink:title="scope_policy" target="_top">
<polygon fill="#ffffff" stroke="transparent" points="434,-120.2 434,-181.2 540,-181.2 540,-120.2 434,-120.2"/>
<polygon fill="#f5f5f5" stroke="transparent" points="434,-157.7 434,-180.7 540,-180.7 540,-157.7 434,-157.7"/>
<polygon fill="none" stroke="#000000" points="434,-157.7 434,-180.7 540,-180.7 540,-157.7 434,-157.7"/>
<text text-anchor="start" x="438.7144" y="-166.8" font-family="Helvetica,sans-Serif" font-weight="bold" font-size="11.00" fill="#000000">scope_policy</text>
<text text-anchor="start" x="505.5219" y="-165.8" font-family="Helvetica,sans-Serif" font-size="11.00" fill="#000000">[table]</text>
<polygon fill="none" stroke="#000000" points="434,-138.7 434,-157.7 540,-157.7 540,-138.7 434,-138.7"/>
<text text-anchor="start" x="437" y="-144.8" font-family="Helvetica,sans-Serif" font-size="11.00" fill="#000000">...</text>
<polygon fill="#ffffff" stroke="transparent" points="434,-119.7 434,-138.7 472,-138.7 472,-119.7 434,-119.7"/>
<polygon fill="none" stroke="#000000" points="434,-119.7 434,-138.7 472,-138.7 472,-119.7 434,-119.7"/>
<text text-anchor="start" x="437" y="-125.8" font-family="Helvetica,sans-Serif" font-size="11.00" fill="#000000">&lt; 2</text>
<polygon fill="#ffffff" stroke="transparent" points="472,-119.7 472,-138.7 519,-138.7 519,-119.7 472,-119.7"/>
<polygon fill="none" stroke="#000000" points="472,-119.7 472,-138.7 519,-138.7 519,-119.7 472,-119.7"/>
<text text-anchor="start" x="483.6105" y="-125.8" font-family="Helvetica,sans-Serif" font-size="11.00" fill="#000000">0 rows</text>
<polygon fill="#ffffff" stroke="transparent" points="519,-119.7 519,-138.7 540,-138.7 540,-119.7 519,-119.7"/>
<polygon fill="none" stroke="#000000" points="519,-119.7 519,-138.7 540,-138.7 540,-119.7 519,-119.7"/>
<text text-anchor="start" x="530.8862" y="-125.8" font-family="Helvetica,sans-Serif" font-size="11.00" fill="#000000"> &#160;</text>
</a>
</g>
</g>
<!-- scope_policy&#45;&gt;resource_server_policy -->
<g id="edge8" class="edge">
<title>scope_policy:w&#45;&gt;resource_server_policy:e</title>
<path fill="none" stroke="#000000" d="M419.5559,-149.7115C400.6025,-155.782 396.4277,-174.5561 376,-191.7 356.9689,-207.6718 359.8452,-229.7 335,-229.7"/>
<polygon fill="#000000" stroke="#000000" points="426.0765,-148.8035 434.4966,-151.2656 430.0382,-148.2517 434,-147.7 434,-147.7 434,-147.7 430.0382,-148.2517 433.5034,-144.1344 426.0765,-148.8035 426.0765,-148.8035"/>
<ellipse fill="none" stroke="#000000" cx="422.907" cy="-149.2449" rx="3.2" ry="3.2"/>
</g>
</g>
</svg>
