<?xml version="1.0" encoding="UTF-8" standalone="no"?>
<!DOCTYPE svg PUBLIC "-//W3C//DTD SVG 1.1//EN"
 "http://www.w3.org/Graphics/SVG/1.1/DTD/svg11.dtd">
<!-- Generated by graphviz version 2.40.1 (20161225.0304)
 -->
<!-- Title: oneDegreeRelationshipsDiagram Pages: 1 -->
<svg width="704pt" height="312pt"
 viewBox="0.00 0.00 704.00 311.70" xmlns="http://www.w3.org/2000/svg" xmlns:xlink="http://www.w3.org/1999/xlink">
<g id="graph0" class="graph" transform="scale(1 1) rotate(0) translate(4 307.7)">
<title>oneDegreeRelationshipsDiagram</title>
<polygon fill="#ffffff" stroke="transparent" points="-4,4 -4,-307.7 700,-307.7 700,4 -4,4"/>
<text text-anchor="middle" x="72.4936" y="-7.3" font-family="Helvetica,sans-Serif" font-size="11.00" fill="#000000">Generated by SchemaSpy</text>
<!-- authentication_execution -->
<g id="node1" class="node">
<title>authentication_execution</title>
<g id="a_node1"><a xlink:href="../../tables/authentication_execution.html" xlink:title="authentication_execution" target="_top">
<polygon fill="#ffffff" stroke="transparent" points="523,-172.7 523,-299.7 688,-299.7 688,-172.7 523,-172.7"/>
<polygon fill="#f5f5f5" stroke="transparent" points="523.5,-276.2 523.5,-299.2 688.5,-299.2 688.5,-276.2 523.5,-276.2"/>
<polygon fill="none" stroke="#000000" points="523.5,-276.2 523.5,-299.2 688.5,-299.2 688.5,-276.2 523.5,-276.2"/>
<text text-anchor="start" x="528.5" y="-285.3" font-family="Helvetica,sans-Serif" font-weight="bold" font-size="11.00" fill="#000000">authentication_execution</text>
<text text-anchor="start" x="654.0219" y="-284.3" font-family="Helvetica,sans-Serif" font-size="11.00" fill="#000000">[table]</text>
<polygon fill="none" stroke="#000000" points="523.5,-254.2 523.5,-276.2 688.5,-276.2 688.5,-254.2 523.5,-254.2"/>
<image xlink:href="../../images/primaryKeys.png" width="11px" height="12px" preserveAspectRatio="xMinYMin meet" x="528.5" y="-271.2"/>
<text text-anchor="start" x="543.5" y="-261.3" font-family="Helvetica,sans-Serif" font-size="11.00" fill="#000000">id</text>
<polygon fill="#ffffff" stroke="transparent" points="523.5,-232.2 523.5,-254.2 688.5,-254.2 688.5,-232.2 523.5,-232.2"/>
<polygon fill="none" stroke="#000000" points="523.5,-232.2 523.5,-254.2 688.5,-254.2 688.5,-232.2 523.5,-232.2"/>
<image xlink:href="../../images/foreignKeys.png" width="11px" height="12px" preserveAspectRatio="xMinYMin meet" x="528.5" y="-249.2"/>
<text text-anchor="start" x="543.5" y="-239.3" font-family="Helvetica,sans-Serif" font-size="11.00" fill="#000000">realm_id</text>
<polygon fill="#ffffff" stroke="transparent" points="523.5,-210.2 523.5,-232.2 688.5,-232.2 688.5,-210.2 523.5,-210.2"/>
<polygon fill="none" stroke="#000000" points="523.5,-210.2 523.5,-232.2 688.5,-232.2 688.5,-210.2 523.5,-210.2"/>
<image xlink:href="../../images/foreignKeys.png" width="11px" height="12px" preserveAspectRatio="xMinYMin meet" x="528.5" y="-227.2"/>
<text text-anchor="start" x="543.5" y="-217.3" font-family="Helvetica,sans-Serif" font-size="11.00" fill="#000000">flow_id</text>
<polygon fill="none" stroke="#000000" points="523.5,-191.2 523.5,-210.2 688.5,-210.2 688.5,-191.2 523.5,-191.2"/>
<text text-anchor="start" x="526.5" y="-197.3" font-family="Helvetica,sans-Serif" font-size="11.00" fill="#000000">...</text>
<polygon fill="#ffffff" stroke="transparent" points="523.5,-172.2 523.5,-191.2 588.5,-191.2 588.5,-172.2 523.5,-172.2"/>
<polygon fill="none" stroke="#000000" points="523.5,-172.2 523.5,-191.2 588.5,-191.2 588.5,-172.2 523.5,-172.2"/>
<text text-anchor="start" x="526.5" y="-178.3" font-family="Helvetica,sans-Serif" font-size="11.00" fill="#000000">&lt; 2</text>
<polygon fill="#ffffff" stroke="transparent" points="588.5,-172.2 588.5,-191.2 654.5,-191.2 654.5,-172.2 588.5,-172.2"/>
<polygon fill="none" stroke="#000000" points="588.5,-172.2 588.5,-191.2 654.5,-191.2 654.5,-172.2 588.5,-172.2"/>
<text text-anchor="start" x="612.9956" y="-178.3" font-family="Helvetica,sans-Serif" font-size="11.00" fill="#000000">47 rows</text>
<polygon fill="#ffffff" stroke="transparent" points="654.5,-172.2 654.5,-191.2 688.5,-191.2 688.5,-172.2 654.5,-172.2"/>
<polygon fill="none" stroke="#000000" points="654.5,-172.2 654.5,-191.2 688.5,-191.2 688.5,-172.2 654.5,-172.2"/>
<text text-anchor="start" x="679.3862" y="-178.3" font-family="Helvetica,sans-Serif" font-size="11.00" fill="#000000"> &#160;</text>
</a>
</g>
</g>
<!-- authentication_flow -->
<g id="node2" class="node">
<title>authentication_flow</title>
<g id="a_node2"><a xlink:href="../../tables/authentication_flow.html" xlink:title="authentication_flow" target="_top">
<polygon fill="#ffffff" stroke="transparent" points="270,-38.2 270,-238.2 474,-238.2 474,-38.2 270,-38.2"/>
<polygon fill="#f5f5f5" stroke="transparent" points="272,-213.2 272,-236.2 472,-236.2 472,-213.2 272,-213.2"/>
<polygon fill="none" stroke="#000000" points="272,-213.2 272,-236.2 472,-236.2 472,-213.2 272,-213.2"/>
<text text-anchor="start" x="277" y="-222.3" font-family="Helvetica,sans-Serif" font-weight="bold" font-size="11.00" fill="#000000">authentication_flow</text>
<text text-anchor="start" x="437.0437" y="-221.3" font-family="Helvetica,sans-Serif" font-size="11.00" fill="#000000">[table]</text>
<polygon fill="none" stroke="#000000" points="272,-191.2 272,-213.2 405,-213.2 405,-191.2 272,-191.2"/>
<image xlink:href="../../images/primaryKeys.png" width="11px" height="12px" preserveAspectRatio="xMinYMin meet" x="277" y="-208.2"/>
<text text-anchor="start" x="292" y="-198.3" font-family="Helvetica,sans-Serif" font-size="11.00" fill="#000000">id</text>
<polygon fill="none" stroke="#000000" points="405,-191.2 405,-213.2 472,-213.2 472,-191.2 405,-191.2"/>
<text text-anchor="start" x="408" y="-198.9" font-family="Helvetica,sans-Serif" font-size="11.00" fill="#000000">varchar[36]</text>
<polygon fill="none" stroke="#000000" points="272,-169.2 272,-191.2 405,-191.2 405,-169.2 272,-169.2"/>
<text text-anchor="start" x="292" y="-176.3" font-family="Helvetica,sans-Serif" font-size="11.00" fill="#000000">alias</text>
<polygon fill="none" stroke="#000000" points="405,-169.2 405,-191.2 472,-191.2 472,-169.2 405,-169.2"/>
<text text-anchor="start" x="407.9365" y="-176.9" font-family="Helvetica,sans-Serif" font-size="11.00" fill="#000000">varchar[255]</text>
<polygon fill="none" stroke="#000000" points="272,-147.2 272,-169.2 405,-169.2 405,-147.2 272,-147.2"/>
<text text-anchor="start" x="292" y="-154.3" font-family="Helvetica,sans-Serif" font-size="11.00" fill="#000000">description</text>
<polygon fill="none" stroke="#000000" points="405,-147.2 405,-169.2 472,-169.2 472,-147.2 405,-147.2"/>
<text text-anchor="start" x="407.9365" y="-154.9" font-family="Helvetica,sans-Serif" font-size="11.00" fill="#000000">varchar[255]</text>
<polygon fill="#ffffff" stroke="transparent" points="272,-125.2 272,-147.2 405,-147.2 405,-125.2 272,-125.2"/>
<polygon fill="none" stroke="#000000" points="272,-125.2 272,-147.2 405,-147.2 405,-125.2 272,-125.2"/>
<image xlink:href="../../images/foreignKeys.png" width="11px" height="12px" preserveAspectRatio="xMinYMin meet" x="277" y="-142.2"/>
<text text-anchor="start" x="292" y="-132.3" font-family="Helvetica,sans-Serif" font-size="11.00" fill="#000000">realm_id</text>
<polygon fill="none" stroke="#000000" points="405,-125.2 405,-147.2 472,-147.2 472,-125.2 405,-125.2"/>
<text text-anchor="start" x="408" y="-132.9" font-family="Helvetica,sans-Serif" font-size="11.00" fill="#000000">varchar[36]</text>
<polygon fill="none" stroke="#000000" points="272,-103.2 272,-125.2 405,-125.2 405,-103.2 272,-103.2"/>
<text text-anchor="start" x="292" y="-110.3" font-family="Helvetica,sans-Serif" font-size="11.00" fill="#000000">provider_id</text>
<polygon fill="none" stroke="#000000" points="405,-103.2 405,-125.2 472,-125.2 472,-103.2 405,-103.2"/>
<text text-anchor="start" x="408" y="-110.9" font-family="Helvetica,sans-Serif" font-size="11.00" fill="#000000">varchar[36]</text>
<polygon fill="none" stroke="#000000" points="272,-81.2 272,-103.2 405,-103.2 405,-81.2 272,-81.2"/>
<text text-anchor="start" x="292" y="-88.3" font-family="Helvetica,sans-Serif" font-size="11.00" fill="#000000">top_level</text>
<polygon fill="none" stroke="#000000" points="405,-81.2 405,-103.2 472,-103.2 472,-81.2 405,-81.2"/>
<text text-anchor="start" x="408" y="-88.9" font-family="Helvetica,sans-Serif" font-size="11.00" fill="#000000">bool[1]</text>
<polygon fill="none" stroke="#000000" points="272,-59.2 272,-81.2 405,-81.2 405,-59.2 272,-59.2"/>
<text text-anchor="start" x="292" y="-66.3" font-family="Helvetica,sans-Serif" font-size="11.00" fill="#000000">built_in</text>
<polygon fill="none" stroke="#000000" points="405,-59.2 405,-81.2 472,-81.2 472,-59.2 405,-59.2"/>
<text text-anchor="start" x="408" y="-66.9" font-family="Helvetica,sans-Serif" font-size="11.00" fill="#000000">bool[1]</text>
<polygon fill="#ffffff" stroke="transparent" points="272,-40.2 272,-59.2 327,-59.2 327,-40.2 272,-40.2"/>
<polygon fill="none" stroke="#000000" points="272,-40.2 272,-59.2 327,-59.2 327,-40.2 272,-40.2"/>
<text text-anchor="start" x="275" y="-46.3" font-family="Helvetica,sans-Serif" font-size="11.00" fill="#000000">&lt; 1</text>
<polygon fill="#ffffff" stroke="transparent" points="327,-40.2 327,-59.2 405,-59.2 405,-40.2 327,-40.2"/>
<polygon fill="none" stroke="#000000" points="327,-40.2 327,-59.2 405,-59.2 405,-40.2 327,-40.2"/>
<text text-anchor="start" x="363.4956" y="-46.3" font-family="Helvetica,sans-Serif" font-size="11.00" fill="#000000">20 rows</text>
<polygon fill="#ffffff" stroke="transparent" points="405,-40.2 405,-59.2 472,-59.2 472,-40.2 405,-40.2"/>
<polygon fill="none" stroke="#000000" points="405,-40.2 405,-59.2 472,-59.2 472,-40.2 405,-40.2"/>
<text text-anchor="start" x="453.4053" y="-46.3" font-family="Helvetica,sans-Serif" font-size="11.00" fill="#000000">1 &gt;</text>
<polygon fill="none" stroke="#000000" stroke-width="2" points="271,-39.2 271,-237.2 473,-237.2 473,-39.2 271,-39.2"/>
</a>
</g>
</g>
<!-- authentication_execution&#45;&gt;authentication_flow -->
<g id="edge1" class="edge">
<title>authentication_execution:w&#45;&gt;authentication_flow:e</title>
<path fill="none" stroke="#000000" d="M508.9747,-218.3965C496.52,-213.1113 490.4883,-202.2 472,-202.2"/>
<polygon fill="#000000" stroke="#000000" points="515.645,-219.6839 522.8177,-224.7348 519.5725,-220.4419 523.5,-221.2 523.5,-221.2 523.5,-221.2 519.5725,-220.4419 524.1823,-217.6652 515.645,-219.6839 515.645,-219.6839"/>
<ellipse fill="none" stroke="#000000" cx="512.503" cy="-219.0774" rx="3.2" ry="3.2"/>
</g>
<!-- realm -->
<g id="node3" class="node">
<title>realm</title>
<g id="a_node3"><a xlink:href="../../tables/realm.html" xlink:title="realm" target="_top">
<polygon fill="#ffffff" stroke="transparent" points="8,-106.7 8,-233.7 221,-233.7 221,-106.7 8,-106.7"/>
<polygon fill="#f5f5f5" stroke="transparent" points="8.5,-210.2 8.5,-233.2 221.5,-233.2 221.5,-210.2 8.5,-210.2"/>
<polygon fill="none" stroke="#000000" points="8.5,-210.2 8.5,-233.2 221.5,-233.2 221.5,-210.2 8.5,-210.2"/>
<text text-anchor="start" x="13.5" y="-219.3" font-family="Helvetica,sans-Serif" font-weight="bold" font-size="11.00" fill="#000000">realm</text>
<text text-anchor="start" x="186.5437" y="-218.3" font-family="Helvetica,sans-Serif" font-size="11.00" fill="#000000">[table]</text>
<polygon fill="none" stroke="#000000" points="8.5,-188.2 8.5,-210.2 221.5,-210.2 221.5,-188.2 8.5,-188.2"/>
<image xlink:href="../../images/primaryKeys.png" width="11px" height="12px" preserveAspectRatio="xMinYMin meet" x="13.5" y="-205.2"/>
<text text-anchor="start" x="28.5" y="-195.3" font-family="Helvetica,sans-Serif" font-size="11.00" fill="#000000">id</text>
<polygon fill="#ffffff" stroke="transparent" points="8.5,-166.2 8.5,-188.2 221.5,-188.2 221.5,-166.2 8.5,-166.2"/>
<polygon fill="none" stroke="#000000" points="8.5,-166.2 8.5,-188.2 221.5,-188.2 221.5,-166.2 8.5,-166.2"/>
<text text-anchor="start" x="28.5" y="-173.3" font-family="Helvetica,sans-Serif" font-size="11.00" fill="#000000">name</text>
<polygon fill="#ffffff" stroke="transparent" points="8.5,-144.2 8.5,-166.2 221.5,-166.2 221.5,-144.2 8.5,-144.2"/>
<polygon fill="none" stroke="#000000" points="8.5,-144.2 8.5,-166.2 221.5,-166.2 221.5,-144.2 8.5,-144.2"/>
<text text-anchor="start" x="28.5" y="-151.3" font-family="Helvetica,sans-Serif" font-size="11.00" fill="#000000">master_admin_client</text>
<polygon fill="none" stroke="#000000" points="8.5,-125.2 8.5,-144.2 221.5,-144.2 221.5,-125.2 8.5,-125.2"/>
<text text-anchor="start" x="11.5" y="-131.3" font-family="Helvetica,sans-Serif" font-size="11.00" fill="#000000">...</text>
<polygon fill="#ffffff" stroke="transparent" points="8.5,-106.2 8.5,-125.2 91.5,-125.2 91.5,-106.2 8.5,-106.2"/>
<polygon fill="none" stroke="#000000" points="8.5,-106.2 8.5,-125.2 91.5,-125.2 91.5,-106.2 8.5,-106.2"/>
<text text-anchor="start" x="11.5" y="-112.3" font-family="Helvetica,sans-Serif" font-size="11.00" fill="#000000"> &#160;</text>
<polygon fill="#ffffff" stroke="transparent" points="91.5,-106.2 91.5,-125.2 158.5,-125.2 158.5,-106.2 91.5,-106.2"/>
<polygon fill="none" stroke="#000000" points="91.5,-106.2 91.5,-125.2 158.5,-125.2 158.5,-106.2 91.5,-106.2"/>
<text text-anchor="start" x="128.6105" y="-112.3" font-family="Helvetica,sans-Serif" font-size="11.00" fill="#000000">1 row</text>
<polygon fill="#ffffff" stroke="transparent" points="158.5,-106.2 158.5,-125.2 221.5,-125.2 221.5,-106.2 158.5,-106.2"/>
<polygon fill="none" stroke="#000000" points="158.5,-106.2 158.5,-125.2 221.5,-125.2 221.5,-106.2 158.5,-106.2"/>
<text text-anchor="start" x="196.7904" y="-112.3" font-family="Helvetica,sans-Serif" font-size="11.00" fill="#000000">23 &gt;</text>
</a>
</g>
</g>
<!-- authentication_execution&#45;&gt;realm -->
<g id="edge2" class="edge">
<title>authentication_execution:w&#45;&gt;realm:e</title>
<path fill="none" stroke="#000000" d="M509.0696,-244.3728C500.6563,-245.8461 494.6342,-248.2914 482,-249.2 384.4741,-256.2136 350.2555,-291.2887 262,-249.2 236.1874,-236.8901 250.0977,-199.2 221.5,-199.2"/>
<polygon fill="#000000" stroke="#000000" points="515.5263,-243.8481 523.7916,-246.7882 519.5131,-243.524 523.5,-243.2 523.5,-243.2 523.5,-243.2 519.5131,-243.524 523.2084,-239.6118 515.5263,-243.8481 515.5263,-243.8481"/>
<ellipse fill="none" stroke="#000000" cx="512.3368" cy="-244.1073" rx="3.2" ry="3.2"/>
</g>
<!-- authentication_flow&#45;&gt;realm -->
<g id="edge3" class="edge">
<title>authentication_flow:w&#45;&gt;realm:e</title>
<path fill="none" stroke="#000000" d="M257.9816,-141.1435C241.738,-155.9952 251.2175,-199.2 221.5,-199.2"/>
<polygon fill="#000000" stroke="#000000" points="264.4554,-138.8606 273.1973,-139.5951 268.2277,-137.5303 272,-136.2 272,-136.2 272,-136.2 268.2277,-137.5303 270.8027,-132.8049 264.4554,-138.8606 264.4554,-138.8606"/>
<ellipse fill="none" stroke="#000000" cx="261.4375" cy="-139.9248" rx="3.2" ry="3.2"/>
</g>
</g>
</svg>
