<?xml version="1.0" encoding="UTF-8" standalone="no"?>
<!DOCTYPE svg PUBLIC "-//W3C//DTD SVG 1.1//EN"
 "http://www.w3.org/Graphics/SVG/1.1/DTD/svg11.dtd">
<!-- Generated by graphviz version 2.40.1 (20161225.0304)
 -->
<!-- Title: twoDegreesRelationshipsDiagram Pages: 1 -->
<svg width="541pt" height="469pt"
 viewBox="0.00 0.00 541.00 469.20" xmlns="http://www.w3.org/2000/svg" xmlns:xlink="http://www.w3.org/1999/xlink">
<g id="graph0" class="graph" transform="scale(1 1) rotate(0) translate(4 465.2)">
<title>twoDegreesRelationshipsDiagram</title>
<polygon fill="#ffffff" stroke="transparent" points="-4,4 -4,-465.2 537,-465.2 537,4 -4,4"/>
<text text-anchor="middle" x="72.4936" y="-7.3" font-family="Helvetica,sans-Serif" font-size="11.00" fill="#000000">Generated by SchemaSpy</text>
<!-- client_scope -->
<g id="node1" class="node">
<title>client_scope</title>
<g id="a_node1"><a xlink:href="../../tables/client_scope.html" xlink:title="client_scope" target="_top">
<polygon fill="#ffffff" stroke="transparent" points="128,-193.2 128,-320.2 232,-320.2 232,-193.2 128,-193.2"/>
<polygon fill="#f5f5f5" stroke="transparent" points="128,-296.7 128,-319.7 232,-319.7 232,-296.7 128,-296.7"/>
<polygon fill="none" stroke="#000000" points="128,-296.7 128,-319.7 232,-319.7 232,-296.7 128,-296.7"/>
<text text-anchor="start" x="132.936" y="-305.8" font-family="Helvetica,sans-Serif" font-weight="bold" font-size="11.00" fill="#000000">client_scope</text>
<text text-anchor="start" x="197.5219" y="-304.8" font-family="Helvetica,sans-Serif" font-size="11.00" fill="#000000">[table]</text>
<polygon fill="none" stroke="#000000" points="128,-274.7 128,-296.7 232,-296.7 232,-274.7 128,-274.7"/>
<image xlink:href="../../images/primaryKeys.png" width="11px" height="12px" preserveAspectRatio="xMinYMin meet" x="133" y="-291.7"/>
<text text-anchor="start" x="154" y="-281.8" font-family="Helvetica,sans-Serif" font-size="11.00" fill="#000000">id</text>
<polygon fill="#ffffff" stroke="transparent" points="128,-252.7 128,-274.7 232,-274.7 232,-252.7 128,-252.7"/>
<polygon fill="none" stroke="#000000" points="128,-252.7 128,-274.7 232,-274.7 232,-252.7 128,-252.7"/>
<text text-anchor="start" x="154" y="-259.8" font-family="Helvetica,sans-Serif" font-size="11.00" fill="#000000">name</text>
<polygon fill="#ffffff" stroke="transparent" points="128,-230.7 128,-252.7 232,-252.7 232,-230.7 128,-230.7"/>
<polygon fill="none" stroke="#000000" points="128,-230.7 128,-252.7 232,-252.7 232,-230.7 128,-230.7"/>
<image xlink:href="../../images/foreignKeys.png" width="11px" height="12px" preserveAspectRatio="xMinYMin meet" x="133" y="-247.7"/>
<text text-anchor="start" x="154" y="-237.8" font-family="Helvetica,sans-Serif" font-size="11.00" fill="#000000">realm_id</text>
<polygon fill="none" stroke="#000000" points="128,-211.7 128,-230.7 232,-230.7 232,-211.7 128,-211.7"/>
<text text-anchor="start" x="131" y="-217.8" font-family="Helvetica,sans-Serif" font-size="11.00" fill="#000000">...</text>
<polygon fill="#ffffff" stroke="transparent" points="128,-192.7 128,-211.7 161,-211.7 161,-192.7 128,-192.7"/>
<polygon fill="none" stroke="#000000" points="128,-192.7 128,-211.7 161,-211.7 161,-192.7 128,-192.7"/>
<text text-anchor="start" x="131" y="-198.8" font-family="Helvetica,sans-Serif" font-size="11.00" fill="#000000">&lt; 1</text>
<polygon fill="#ffffff" stroke="transparent" points="161,-192.7 161,-211.7 205,-211.7 205,-192.7 161,-192.7"/>
<polygon fill="none" stroke="#000000" points="161,-192.7 161,-211.7 205,-211.7 205,-192.7 161,-192.7"/>
<text text-anchor="start" x="169.6105" y="-198.8" font-family="Helvetica,sans-Serif" font-size="11.00" fill="#000000">9 rows</text>
<polygon fill="#ffffff" stroke="transparent" points="205,-192.7 205,-211.7 232,-211.7 232,-192.7 205,-192.7"/>
<polygon fill="none" stroke="#000000" points="205,-192.7 205,-211.7 232,-211.7 232,-192.7 205,-192.7"/>
<text text-anchor="start" x="213.4053" y="-198.8" font-family="Helvetica,sans-Serif" font-size="11.00" fill="#000000">5 &gt;</text>
</a>
</g>
</g>
<!-- realm -->
<g id="node2" class="node">
<title>realm</title>
<g id="a_node2"><a xlink:href="../../tables/realm.html" xlink:title="realm" target="_top">
<polygon fill="#ffffff" stroke="transparent" points="8,-291.2 8,-352.2 79,-352.2 79,-291.2 8,-291.2"/>
<polygon fill="#f5f5f5" stroke="transparent" points="8.5,-328.7 8.5,-351.7 79.5,-351.7 79.5,-328.7 8.5,-328.7"/>
<polygon fill="none" stroke="#000000" points="8.5,-328.7 8.5,-351.7 79.5,-351.7 79.5,-328.7 8.5,-328.7"/>
<text text-anchor="start" x="13.5" y="-337.8" font-family="Helvetica,sans-Serif" font-weight="bold" font-size="11.00" fill="#000000">realm</text>
<text text-anchor="start" x="45.0219" y="-336.8" font-family="Helvetica,sans-Serif" font-size="11.00" fill="#000000">[table]</text>
<polygon fill="none" stroke="#000000" points="8.5,-309.7 8.5,-328.7 79.5,-328.7 79.5,-309.7 8.5,-309.7"/>
<text text-anchor="start" x="11.5" y="-315.8" font-family="Helvetica,sans-Serif" font-size="11.00" fill="#000000">...</text>
<polygon fill="#ffffff" stroke="transparent" points="8.5,-290.7 8.5,-309.7 20.5,-309.7 20.5,-290.7 8.5,-290.7"/>
<polygon fill="none" stroke="#000000" points="8.5,-290.7 8.5,-309.7 20.5,-309.7 20.5,-290.7 8.5,-290.7"/>
<text text-anchor="start" x="11.4431" y="-296.8" font-family="Helvetica,sans-Serif" font-size="11.00" fill="#000000"> &#160;</text>
<polygon fill="#ffffff" stroke="transparent" points="20.5,-290.7 20.5,-309.7 52.5,-309.7 52.5,-290.7 20.5,-290.7"/>
<polygon fill="none" stroke="#000000" points="20.5,-290.7 20.5,-309.7 52.5,-309.7 52.5,-290.7 20.5,-290.7"/>
<text text-anchor="start" x="23.0553" y="-296.8" font-family="Helvetica,sans-Serif" font-size="11.00" fill="#000000">1 row</text>
<polygon fill="#ffffff" stroke="transparent" points="52.5,-290.7 52.5,-309.7 79.5,-309.7 79.5,-290.7 52.5,-290.7"/>
<polygon fill="none" stroke="#000000" points="52.5,-290.7 52.5,-309.7 79.5,-309.7 79.5,-290.7 52.5,-290.7"/>
<text text-anchor="start" x="55.1452" y="-296.8" font-family="Helvetica,sans-Serif" font-size="11.00" fill="#000000">23 &gt;</text>
</a>
</g>
</g>
<!-- client_scope&#45;&gt;realm -->
<g id="edge1" class="edge">
<title>client_scope:w&#45;&gt;realm:e</title>
<path fill="none" stroke="#000000" d="M114.3274,-246.2861C95.5659,-262.8628 113.9415,-318.7 79.5,-318.7"/>
<polygon fill="#000000" stroke="#000000" points="120.4153,-244.2441 129.1449,-245.1131 124.2076,-242.9721 128,-241.7 128,-241.7 128,-241.7 124.2076,-242.9721 126.8551,-238.2869 120.4153,-244.2441 120.4153,-244.2441"/>
<ellipse fill="none" stroke="#000000" cx="117.3814" cy="-245.2618" rx="3.2" ry="3.2"/>
</g>
<!-- client_scope_attributes -->
<g id="node3" class="node">
<title>client_scope_attributes</title>
<g id="a_node3"><a xlink:href="../../tables/client_scope_attributes.html" xlink:title="client_scope_attributes" target="_top">
<polygon fill="#ffffff" stroke="transparent" points="325.5,-314.2 325.5,-375.2 480.5,-375.2 480.5,-314.2 325.5,-314.2"/>
<polygon fill="#f5f5f5" stroke="transparent" points="326,-351.7 326,-374.7 481,-374.7 481,-351.7 326,-351.7"/>
<polygon fill="none" stroke="#000000" points="326,-351.7 326,-374.7 481,-374.7 481,-351.7 326,-351.7"/>
<text text-anchor="start" x="330.762" y="-360.8" font-family="Helvetica,sans-Serif" font-weight="bold" font-size="11.00" fill="#000000">client_scope_attributes</text>
<text text-anchor="start" x="446.5219" y="-359.8" font-family="Helvetica,sans-Serif" font-size="11.00" fill="#000000">[table]</text>
<polygon fill="none" stroke="#000000" points="326,-332.7 326,-351.7 481,-351.7 481,-332.7 326,-332.7"/>
<text text-anchor="start" x="329" y="-338.8" font-family="Helvetica,sans-Serif" font-size="11.00" fill="#000000">...</text>
<polygon fill="#ffffff" stroke="transparent" points="326,-313.7 326,-332.7 386,-332.7 386,-313.7 326,-313.7"/>
<polygon fill="none" stroke="#000000" points="326,-313.7 326,-332.7 386,-332.7 386,-313.7 326,-313.7"/>
<text text-anchor="start" x="329" y="-319.8" font-family="Helvetica,sans-Serif" font-size="11.00" fill="#000000">&lt; 1</text>
<polygon fill="#ffffff" stroke="transparent" points="386,-313.7 386,-332.7 449,-332.7 449,-313.7 386,-313.7"/>
<polygon fill="none" stroke="#000000" points="386,-313.7 386,-332.7 449,-332.7 449,-313.7 386,-313.7"/>
<text text-anchor="start" x="407.4956" y="-319.8" font-family="Helvetica,sans-Serif" font-size="11.00" fill="#000000">24 rows</text>
<polygon fill="#ffffff" stroke="transparent" points="449,-313.7 449,-332.7 481,-332.7 481,-313.7 449,-313.7"/>
<polygon fill="none" stroke="#000000" points="449,-313.7 449,-332.7 481,-332.7 481,-313.7 449,-313.7"/>
<text text-anchor="start" x="471.8862" y="-319.8" font-family="Helvetica,sans-Serif" font-size="11.00" fill="#000000"> &#160;</text>
</a>
</g>
</g>
<!-- client_scope_attributes&#45;&gt;client_scope -->
<g id="edge2" class="edge">
<title>client_scope_attributes:w&#45;&gt;client_scope:e</title>
<path fill="none" stroke="#000000" d="M311.3203,-339.7069C277.4429,-329.7311 275.1208,-285.7 232,-285.7"/>
<polygon fill="#000000" stroke="#000000" points="318.0727,-340.6237 325.5156,-345.2673 322.0364,-341.1618 326,-341.7 326,-341.7 326,-341.7 322.0364,-341.1618 326.4844,-338.1327 318.0727,-340.6237 318.0727,-340.6237"/>
<ellipse fill="none" stroke="#000000" cx="314.9018" cy="-340.1931" rx="3.2" ry="3.2"/>
</g>
<!-- client_scope_client -->
<g id="node4" class="node">
<title>client_scope_client</title>
<g id="a_node4"><a xlink:href="../../tables/client_scope_client.html" xlink:title="client_scope_client" target="_top">
<polygon fill="#ffffff" stroke="transparent" points="335.5,-232.2 335.5,-293.2 470.5,-293.2 470.5,-232.2 335.5,-232.2"/>
<polygon fill="#f5f5f5" stroke="transparent" points="336,-269.7 336,-292.7 471,-292.7 471,-269.7 336,-269.7"/>
<polygon fill="none" stroke="#000000" points="336,-269.7 336,-292.7 471,-292.7 471,-269.7 336,-269.7"/>
<text text-anchor="start" x="340.5443" y="-278.8" font-family="Helvetica,sans-Serif" font-weight="bold" font-size="11.00" fill="#000000">client_scope_client</text>
<text text-anchor="start" x="436.5219" y="-277.8" font-family="Helvetica,sans-Serif" font-size="11.00" fill="#000000">[table]</text>
<polygon fill="none" stroke="#000000" points="336,-250.7 336,-269.7 471,-269.7 471,-250.7 336,-250.7"/>
<text text-anchor="start" x="339" y="-256.8" font-family="Helvetica,sans-Serif" font-size="11.00" fill="#000000">...</text>
<polygon fill="#ffffff" stroke="transparent" points="336,-231.7 336,-250.7 386,-250.7 386,-231.7 336,-231.7"/>
<polygon fill="none" stroke="#000000" points="336,-231.7 336,-250.7 386,-250.7 386,-231.7 336,-231.7"/>
<text text-anchor="start" x="339" y="-237.8" font-family="Helvetica,sans-Serif" font-size="11.00" fill="#000000">&lt; 2</text>
<polygon fill="#ffffff" stroke="transparent" points="386,-231.7 386,-250.7 444,-250.7 444,-231.7 386,-231.7"/>
<polygon fill="none" stroke="#000000" points="386,-231.7 386,-250.7 444,-250.7 444,-231.7 386,-231.7"/>
<text text-anchor="start" x="402.4956" y="-237.8" font-family="Helvetica,sans-Serif" font-size="11.00" fill="#000000">54 rows</text>
<polygon fill="#ffffff" stroke="transparent" points="444,-231.7 444,-250.7 471,-250.7 471,-231.7 444,-231.7"/>
<polygon fill="none" stroke="#000000" points="444,-231.7 444,-250.7 471,-250.7 471,-231.7 444,-231.7"/>
<text text-anchor="start" x="461.8862" y="-237.8" font-family="Helvetica,sans-Serif" font-size="11.00" fill="#000000"> &#160;</text>
</a>
</g>
</g>
<!-- client_scope_client&#45;&gt;client_scope -->
<g id="edge3" class="edge">
<title>client_scope_client:w&#45;&gt;client_scope:e</title>
<path fill="none" stroke="#000000" d="M321.1939,-260.6254C285.8821,-265.257 274.2475,-285.7 232,-285.7"/>
<polygon fill="#000000" stroke="#000000" points="328.0156,-260.1991 336.2246,-263.293 332.0078,-259.9495 336,-259.7 336,-259.7 336,-259.7 332.0078,-259.9495 335.7754,-256.107 328.0156,-260.1991 328.0156,-260.1991"/>
<ellipse fill="none" stroke="#000000" cx="324.8218" cy="-260.3987" rx="3.2" ry="3.2"/>
</g>
<!-- client_scope_role_mapping -->
<g id="node5" class="node">
<title>client_scope_role_mapping</title>
<g id="a_node5"><a xlink:href="../../tables/client_scope_role_mapping.html" xlink:title="client_scope_role_mapping" target="_top">
<polygon fill="#ffffff" stroke="transparent" points="281,-120.7 281,-210.7 525,-210.7 525,-120.7 281,-120.7"/>
<polygon fill="#f5f5f5" stroke="transparent" points="283,-185.7 283,-208.7 523,-208.7 523,-185.7 283,-185.7"/>
<polygon fill="none" stroke="#000000" points="283,-185.7 283,-208.7 523,-208.7 523,-185.7 283,-185.7"/>
<text text-anchor="start" x="288" y="-194.8" font-family="Helvetica,sans-Serif" font-weight="bold" font-size="11.00" fill="#000000">client_scope_role_mapping</text>
<text text-anchor="start" x="488.0437" y="-193.8" font-family="Helvetica,sans-Serif" font-size="11.00" fill="#000000">[table]</text>
<polygon fill="none" stroke="#000000" points="283,-163.7 283,-185.7 462,-185.7 462,-163.7 283,-163.7"/>
<image xlink:href="../../images/primaryKeys.png" width="11px" height="12px" preserveAspectRatio="xMinYMin meet" x="288" y="-180.7"/>
<text text-anchor="start" x="303" y="-170.8" font-family="Helvetica,sans-Serif" font-size="11.00" fill="#000000">scope_id</text>
<polygon fill="none" stroke="#000000" points="462,-163.7 462,-185.7 523,-185.7 523,-163.7 462,-163.7"/>
<text text-anchor="start" x="464.994" y="-171.4" font-family="Helvetica,sans-Serif" font-size="11.00" fill="#000000">varchar[36]</text>
<polygon fill="none" stroke="#000000" points="283,-141.7 283,-163.7 462,-163.7 462,-141.7 283,-141.7"/>
<image xlink:href="../../images/primaryKeys.png" width="11px" height="12px" preserveAspectRatio="xMinYMin meet" x="288" y="-158.7"/>
<text text-anchor="start" x="303" y="-148.8" font-family="Helvetica,sans-Serif" font-size="11.00" fill="#000000">role_id</text>
<polygon fill="none" stroke="#000000" points="462,-141.7 462,-163.7 523,-163.7 523,-141.7 462,-141.7"/>
<text text-anchor="start" x="464.994" y="-149.4" font-family="Helvetica,sans-Serif" font-size="11.00" fill="#000000">varchar[36]</text>
<polygon fill="#ffffff" stroke="transparent" points="283,-122.7 283,-141.7 367,-141.7 367,-122.7 283,-122.7"/>
<polygon fill="none" stroke="#000000" points="283,-122.7 283,-141.7 367,-141.7 367,-122.7 283,-122.7"/>
<text text-anchor="start" x="286" y="-128.8" font-family="Helvetica,sans-Serif" font-size="11.00" fill="#000000">&lt; 1</text>
<polygon fill="#ffffff" stroke="transparent" points="367,-122.7 367,-141.7 462,-141.7 462,-122.7 367,-122.7"/>
<polygon fill="none" stroke="#000000" points="367,-122.7 367,-141.7 462,-141.7 462,-122.7 367,-122.7"/>
<text text-anchor="start" x="432.1105" y="-128.8" font-family="Helvetica,sans-Serif" font-size="11.00" fill="#000000">1 row</text>
<polygon fill="#ffffff" stroke="transparent" points="462,-122.7 462,-141.7 523,-141.7 523,-122.7 462,-122.7"/>
<polygon fill="none" stroke="#000000" points="462,-122.7 462,-141.7 523,-141.7 523,-122.7 462,-122.7"/>
<text text-anchor="start" x="504.4053" y="-128.8" font-family="Helvetica,sans-Serif" font-size="11.00" fill="#000000">0 &gt;</text>
<polygon fill="none" stroke="#000000" stroke-width="2" points="282,-121.7 282,-209.7 524,-209.7 524,-121.7 282,-121.7"/>
</a>
</g>
</g>
<!-- client_scope_role_mapping&#45;&gt;client_scope -->
<g id="edge4" class="edge">
<title>client_scope_role_mapping:w&#45;&gt;client_scope:e</title>
<path fill="none" stroke="#000000" d="M268.9079,-178.3932C239.9665,-197.6534 280.3533,-285.7 232,-285.7"/>
<polygon fill="#000000" stroke="#000000" points="275.2613,-176.7281 283.9127,-178.1824 279.1307,-175.7141 283,-174.7 283,-174.7 283,-174.7 279.1307,-175.7141 282.0873,-171.2176 275.2613,-176.7281 275.2613,-176.7281"/>
<ellipse fill="none" stroke="#000000" cx="272.1659" cy="-177.5394" rx="3.2" ry="3.2"/>
</g>
<!-- default_client_scope -->
<g id="node6" class="node">
<title>default_client_scope</title>
<g id="a_node6"><a xlink:href="../../tables/default_client_scope.html" xlink:title="default_client_scope" target="_top">
<polygon fill="#ffffff" stroke="transparent" points="331.5,-396.2 331.5,-457.2 474.5,-457.2 474.5,-396.2 331.5,-396.2"/>
<polygon fill="#f5f5f5" stroke="transparent" points="332,-433.7 332,-456.7 475,-456.7 475,-433.7 332,-433.7"/>
<polygon fill="none" stroke="#000000" points="332,-433.7 332,-456.7 475,-456.7 475,-433.7 332,-433.7"/>
<text text-anchor="start" x="336.8714" y="-442.8" font-family="Helvetica,sans-Serif" font-weight="bold" font-size="11.00" fill="#000000">default_client_scope</text>
<text text-anchor="start" x="440.5219" y="-441.8" font-family="Helvetica,sans-Serif" font-size="11.00" fill="#000000">[table]</text>
<polygon fill="none" stroke="#000000" points="332,-414.7 332,-433.7 475,-433.7 475,-414.7 332,-414.7"/>
<text text-anchor="start" x="335" y="-420.8" font-family="Helvetica,sans-Serif" font-size="11.00" fill="#000000">...</text>
<polygon fill="#ffffff" stroke="transparent" points="332,-395.7 332,-414.7 389,-414.7 389,-395.7 332,-395.7"/>
<polygon fill="none" stroke="#000000" points="332,-395.7 332,-414.7 389,-414.7 389,-395.7 332,-395.7"/>
<text text-anchor="start" x="335" y="-401.8" font-family="Helvetica,sans-Serif" font-size="11.00" fill="#000000">&lt; 2</text>
<polygon fill="#ffffff" stroke="transparent" points="389,-395.7 389,-414.7 445,-414.7 445,-395.7 389,-395.7"/>
<polygon fill="none" stroke="#000000" points="389,-395.7 389,-414.7 445,-414.7 445,-395.7 389,-395.7"/>
<text text-anchor="start" x="409.6105" y="-401.8" font-family="Helvetica,sans-Serif" font-size="11.00" fill="#000000">9 rows</text>
<polygon fill="#ffffff" stroke="transparent" points="445,-395.7 445,-414.7 475,-414.7 475,-395.7 445,-395.7"/>
<polygon fill="none" stroke="#000000" points="445,-395.7 445,-414.7 475,-414.7 475,-395.7 445,-395.7"/>
<text text-anchor="start" x="465.8862" y="-401.8" font-family="Helvetica,sans-Serif" font-size="11.00" fill="#000000"> &#160;</text>
</a>
</g>
</g>
<!-- default_client_scope&#45;&gt;client_scope -->
<g id="edge6" class="edge">
<title>default_client_scope:w&#45;&gt;client_scope:e</title>
<path fill="none" stroke="#000000" d="M317.522,-422.4223C297.6718,-418.463 289.4401,-405.4638 273,-385.7 242.2816,-348.7712 280.035,-285.7 232,-285.7"/>
<polygon fill="#000000" stroke="#000000" points="324.031,-422.9967 331.6835,-427.2861 328.0155,-423.3484 332,-423.7 332,-423.7 332,-423.7 328.0155,-423.3484 332.3165,-420.1139 324.031,-422.9967 324.031,-422.9967"/>
<ellipse fill="none" stroke="#000000" cx="320.8434" cy="-422.7154" rx="3.2" ry="3.2"/>
</g>
<!-- default_client_scope&#45;&gt;realm -->
<g id="edge5" class="edge">
<title>default_client_scope:w&#45;&gt;realm:e</title>
<path fill="none" stroke="#000000" d="M317.7354,-420.5576C263.65,-403.0868 106.7393,-318.7 79.5,-318.7"/>
<polygon fill="#000000" stroke="#000000" points="324.1873,-421.9789 331.2255,-427.2157 328.0937,-422.8394 332,-423.7 332,-423.7 332,-423.7 328.0937,-422.8394 332.7745,-420.1843 324.1873,-421.9789 324.1873,-421.9789"/>
<ellipse fill="none" stroke="#000000" cx="321.0623" cy="-421.2904" rx="3.2" ry="3.2"/>
</g>
<!-- protocol_mapper -->
<g id="node7" class="node">
<title>protocol_mapper</title>
<g id="a_node7"><a xlink:href="../../tables/protocol_mapper.html" xlink:title="protocol_mapper" target="_top">
<polygon fill="#ffffff" stroke="transparent" points="340.5,-38.2 340.5,-99.2 465.5,-99.2 465.5,-38.2 340.5,-38.2"/>
<polygon fill="#f5f5f5" stroke="transparent" points="341,-75.7 341,-98.7 466,-98.7 466,-75.7 341,-75.7"/>
<polygon fill="none" stroke="#000000" points="341,-75.7 341,-98.7 466,-98.7 466,-75.7 341,-75.7"/>
<text text-anchor="start" x="345.7412" y="-84.8" font-family="Helvetica,sans-Serif" font-weight="bold" font-size="11.00" fill="#000000">protocol_mapper</text>
<text text-anchor="start" x="431.5219" y="-83.8" font-family="Helvetica,sans-Serif" font-size="11.00" fill="#000000">[table]</text>
<polygon fill="none" stroke="#000000" points="341,-56.7 341,-75.7 466,-75.7 466,-56.7 341,-56.7"/>
<text text-anchor="start" x="344" y="-62.8" font-family="Helvetica,sans-Serif" font-size="11.00" fill="#000000">...</text>
<polygon fill="#ffffff" stroke="transparent" points="341,-37.7 341,-56.7 381,-56.7 381,-37.7 341,-37.7"/>
<polygon fill="none" stroke="#000000" points="341,-37.7 341,-56.7 381,-56.7 381,-37.7 341,-37.7"/>
<text text-anchor="start" x="344" y="-43.8" font-family="Helvetica,sans-Serif" font-size="11.00" fill="#000000">&lt; 2</text>
<polygon fill="#ffffff" stroke="transparent" points="381,-37.7 381,-56.7 435,-56.7 435,-37.7 381,-37.7"/>
<polygon fill="none" stroke="#000000" points="381,-37.7 381,-56.7 435,-56.7 435,-37.7 381,-37.7"/>
<text text-anchor="start" x="393.4956" y="-43.8" font-family="Helvetica,sans-Serif" font-size="11.00" fill="#000000">28 rows</text>
<polygon fill="#ffffff" stroke="transparent" points="435,-37.7 435,-56.7 466,-56.7 466,-37.7 435,-37.7"/>
<polygon fill="none" stroke="#000000" points="435,-37.7 435,-56.7 466,-56.7 466,-37.7 435,-37.7"/>
<text text-anchor="start" x="447.4053" y="-43.8" font-family="Helvetica,sans-Serif" font-size="11.00" fill="#000000">1 &gt;</text>
</a>
</g>
</g>
<!-- protocol_mapper&#45;&gt;client_scope -->
<g id="edge7" class="edge">
<title>protocol_mapper:w&#45;&gt;client_scope:e</title>
<path fill="none" stroke="#000000" d="M326.4126,-66.706C301.2654,-70.5487 290.6329,-85.3723 273,-110.7 227.3574,-176.2605 311.8839,-285.7 232,-285.7"/>
<polygon fill="#000000" stroke="#000000" points="333.019,-66.2505 341.2477,-69.2915 337.0095,-65.9752 341,-65.7 341,-65.7 341,-65.7 337.0095,-65.9752 340.7523,-62.1085 333.019,-66.2505 333.019,-66.2505"/>
<ellipse fill="none" stroke="#000000" cx="329.8265" cy="-66.4706" rx="3.2" ry="3.2"/>
</g>
</g>
</svg>
