<?xml version="1.0" encoding="UTF-8" standalone="no"?>
<!DOCTYPE svg PUBLIC "-//W3C//DTD SVG 1.1//EN"
 "http://www.w3.org/Graphics/SVG/1.1/DTD/svg11.dtd">
<!-- Generated by graphviz version 2.40.1 (20161225.0304)
 -->
<!-- Title: oneDegreeRelationshipsDiagram Pages: 1 -->
<svg width="466pt" height="179pt"
 viewBox="0.00 0.00 466.00 178.70" xmlns="http://www.w3.org/2000/svg" xmlns:xlink="http://www.w3.org/1999/xlink">
<g id="graph0" class="graph" transform="scale(1 1) rotate(0) translate(4 174.7)">
<title>oneDegreeRelationshipsDiagram</title>
<polygon fill="#ffffff" stroke="transparent" points="-4,4 -4,-174.7 462,-174.7 462,4 -4,4"/>
<text text-anchor="middle" x="72.4936" y="-7.3" font-family="Helvetica,sans-Serif" font-size="11.00" fill="#000000">Generated by SchemaSpy</text>
<!-- client_default_roles -->
<g id="node1" class="node">
<title>client_default_roles</title>
<g id="a_node1"><a xlink:href="../../tables/client_default_roles.html" xlink:title="client_default_roles" target="_top">
<polygon fill="#ffffff" stroke="transparent" points="252,-76.7 252,-166.7 450,-166.7 450,-76.7 252,-76.7"/>
<polygon fill="#f5f5f5" stroke="transparent" points="254,-141.7 254,-164.7 448,-164.7 448,-141.7 254,-141.7"/>
<polygon fill="none" stroke="#000000" points="254,-141.7 254,-164.7 448,-164.7 448,-141.7 254,-141.7"/>
<text text-anchor="start" x="259" y="-150.8" font-family="Helvetica,sans-Serif" font-weight="bold" font-size="11.00" fill="#000000">client_default_roles</text>
<text text-anchor="start" x="413.0437" y="-149.8" font-family="Helvetica,sans-Serif" font-size="11.00" fill="#000000">[table]</text>
<polygon fill="none" stroke="#000000" points="254,-119.7 254,-141.7 387,-141.7 387,-119.7 254,-119.7"/>
<image xlink:href="../../images/primaryKeys.png" width="11px" height="12px" preserveAspectRatio="xMinYMin meet" x="259" y="-136.7"/>
<text text-anchor="start" x="274" y="-126.8" font-family="Helvetica,sans-Serif" font-size="11.00" fill="#000000">client_id</text>
<polygon fill="none" stroke="#000000" points="387,-119.7 387,-141.7 448,-141.7 448,-119.7 387,-119.7"/>
<text text-anchor="start" x="389.994" y="-127.4" font-family="Helvetica,sans-Serif" font-size="11.00" fill="#000000">varchar[36]</text>
<polygon fill="none" stroke="#000000" points="254,-97.7 254,-119.7 387,-119.7 387,-97.7 254,-97.7"/>
<image xlink:href="../../images/primaryKeys.png" width="11px" height="12px" preserveAspectRatio="xMinYMin meet" x="259" y="-114.7"/>
<text text-anchor="start" x="274" y="-104.8" font-family="Helvetica,sans-Serif" font-size="11.00" fill="#000000">role_id</text>
<polygon fill="none" stroke="#000000" points="387,-97.7 387,-119.7 448,-119.7 448,-97.7 387,-97.7"/>
<text text-anchor="start" x="389.994" y="-105.4" font-family="Helvetica,sans-Serif" font-size="11.00" fill="#000000">varchar[36]</text>
<polygon fill="#ffffff" stroke="transparent" points="254,-78.7 254,-97.7 312,-97.7 312,-78.7 254,-78.7"/>
<polygon fill="none" stroke="#000000" points="254,-78.7 254,-97.7 312,-97.7 312,-78.7 254,-78.7"/>
<text text-anchor="start" x="257" y="-84.8" font-family="Helvetica,sans-Serif" font-size="11.00" fill="#000000">&lt; 1</text>
<polygon fill="#ffffff" stroke="transparent" points="312,-78.7 312,-97.7 387,-97.7 387,-78.7 312,-78.7"/>
<polygon fill="none" stroke="#000000" points="312,-78.7 312,-97.7 387,-97.7 387,-78.7 312,-78.7"/>
<text text-anchor="start" x="351.6105" y="-84.8" font-family="Helvetica,sans-Serif" font-size="11.00" fill="#000000">2 rows</text>
<polygon fill="#ffffff" stroke="transparent" points="387,-78.7 387,-97.7 448,-97.7 448,-78.7 387,-78.7"/>
<polygon fill="none" stroke="#000000" points="387,-78.7 387,-97.7 448,-97.7 448,-78.7 387,-78.7"/>
<text text-anchor="start" x="429.4053" y="-84.8" font-family="Helvetica,sans-Serif" font-size="11.00" fill="#000000">0 &gt;</text>
<polygon fill="none" stroke="#000000" stroke-width="2" points="253,-77.7 253,-165.7 449,-165.7 449,-77.7 253,-77.7"/>
</a>
</g>
</g>
<!-- client -->
<g id="node2" class="node">
<title>client</title>
<g id="a_node2"><a xlink:href="../../tables/client.html" xlink:title="client" target="_top">
<polygon fill="#ffffff" stroke="transparent" points="8,-38.2 8,-165.2 203,-165.2 203,-38.2 8,-38.2"/>
<polygon fill="#f5f5f5" stroke="transparent" points="8.5,-141.7 8.5,-164.7 203.5,-164.7 203.5,-141.7 8.5,-141.7"/>
<polygon fill="none" stroke="#000000" points="8.5,-141.7 8.5,-164.7 203.5,-164.7 203.5,-141.7 8.5,-141.7"/>
<text text-anchor="start" x="13.5" y="-150.8" font-family="Helvetica,sans-Serif" font-weight="bold" font-size="11.00" fill="#000000">client</text>
<text text-anchor="start" x="168.5437" y="-149.8" font-family="Helvetica,sans-Serif" font-size="11.00" fill="#000000">[table]</text>
<polygon fill="none" stroke="#000000" points="8.5,-119.7 8.5,-141.7 203.5,-141.7 203.5,-119.7 8.5,-119.7"/>
<image xlink:href="../../images/primaryKeys.png" width="11px" height="12px" preserveAspectRatio="xMinYMin meet" x="13.5" y="-136.7"/>
<text text-anchor="start" x="28.5" y="-126.8" font-family="Helvetica,sans-Serif" font-size="11.00" fill="#000000">id</text>
<polygon fill="#ffffff" stroke="transparent" points="8.5,-97.7 8.5,-119.7 203.5,-119.7 203.5,-97.7 8.5,-97.7"/>
<polygon fill="none" stroke="#000000" points="8.5,-97.7 8.5,-119.7 203.5,-119.7 203.5,-97.7 8.5,-97.7"/>
<image xlink:href="../../images/foreignKeys.png" width="11px" height="12px" preserveAspectRatio="xMinYMin meet" x="13.5" y="-114.7"/>
<text text-anchor="start" x="28.5" y="-104.8" font-family="Helvetica,sans-Serif" font-size="11.00" fill="#000000">client_id</text>
<polygon fill="#ffffff" stroke="transparent" points="8.5,-75.7 8.5,-97.7 203.5,-97.7 203.5,-75.7 8.5,-75.7"/>
<polygon fill="none" stroke="#000000" points="8.5,-75.7 8.5,-97.7 203.5,-97.7 203.5,-75.7 8.5,-75.7"/>
<image xlink:href="../../images/foreignKeys.png" width="11px" height="12px" preserveAspectRatio="xMinYMin meet" x="13.5" y="-92.7"/>
<text text-anchor="start" x="28.5" y="-82.8" font-family="Helvetica,sans-Serif" font-size="11.00" fill="#000000">realm_id</text>
<polygon fill="none" stroke="#000000" points="8.5,-56.7 8.5,-75.7 203.5,-75.7 203.5,-56.7 8.5,-56.7"/>
<text text-anchor="start" x="11.5" y="-62.8" font-family="Helvetica,sans-Serif" font-size="11.00" fill="#000000">...</text>
<polygon fill="#ffffff" stroke="transparent" points="8.5,-37.7 8.5,-56.7 86.5,-56.7 86.5,-37.7 8.5,-37.7"/>
<polygon fill="none" stroke="#000000" points="8.5,-37.7 8.5,-56.7 86.5,-56.7 86.5,-37.7 8.5,-37.7"/>
<text text-anchor="start" x="11.5" y="-43.8" font-family="Helvetica,sans-Serif" font-size="11.00" fill="#000000">&lt; 1</text>
<polygon fill="#ffffff" stroke="transparent" points="86.5,-37.7 86.5,-56.7 153.5,-56.7 153.5,-37.7 86.5,-37.7"/>
<polygon fill="none" stroke="#000000" points="86.5,-37.7 86.5,-56.7 153.5,-56.7 153.5,-37.7 86.5,-37.7"/>
<text text-anchor="start" x="118.1105" y="-43.8" font-family="Helvetica,sans-Serif" font-size="11.00" fill="#000000">6 rows</text>
<polygon fill="#ffffff" stroke="transparent" points="153.5,-37.7 153.5,-56.7 203.5,-56.7 203.5,-37.7 153.5,-37.7"/>
<polygon fill="none" stroke="#000000" points="153.5,-37.7 153.5,-56.7 203.5,-56.7 203.5,-37.7 153.5,-37.7"/>
<text text-anchor="start" x="184.9053" y="-43.8" font-family="Helvetica,sans-Serif" font-size="11.00" fill="#000000">8 &gt;</text>
</a>
</g>
</g>
<!-- client_default_roles&#45;&gt;client -->
<g id="edge1" class="edge">
<title>client_default_roles:w&#45;&gt;client:e</title>
<path fill="none" stroke="#000000" d="M239.4203,-130.7C227.5435,-130.7 220.158,-130.7 203.5,-130.7"/>
<polygon fill="#000000" stroke="#000000" points="246,-130.7001 254,-134.3 250,-130.7 254,-130.7 254,-130.7 254,-130.7 250,-130.7 254,-127.1 246,-130.7001 246,-130.7001"/>
<ellipse fill="none" stroke="#000000" cx="242.8" cy="-130.7001" rx="3.2" ry="3.2"/>
</g>
</g>
</svg>
