<?xml version="1.0" encoding="UTF-8" standalone="no"?>
<!DOCTYPE svg PUBLIC "-//W3C//DTD SVG 1.1//EN"
 "http://www.w3.org/Graphics/SVG/1.1/DTD/svg11.dtd">
<!-- Generated by graphviz version 2.40.1 (20161225.0304)
 -->
<!-- Title: twoDegreesRelationshipsDiagram Pages: 1 -->
<svg width="529pt" height="491pt"
 viewBox="0.00 0.00 529.00 491.20" xmlns="http://www.w3.org/2000/svg" xmlns:xlink="http://www.w3.org/1999/xlink">
<g id="graph0" class="graph" transform="scale(1 1) rotate(0) translate(4 487.2)">
<title>twoDegreesRelationshipsDiagram</title>
<polygon fill="#ffffff" stroke="transparent" points="-4,4 -4,-487.2 525,-487.2 525,4 -4,4"/>
<text text-anchor="middle" x="72.4936" y="-7.3" font-family="Helvetica,sans-Serif" font-size="11.00" fill="#000000">Generated by SchemaSpy</text>
<!-- client_scope -->
<g id="node1" class="node">
<title>client_scope</title>
<g id="a_node1"><a xlink:href="../../tables/client_scope.html" xlink:title="client_scope" target="_top">
<polygon fill="#ffffff" stroke="transparent" points="128,-176.2 128,-303.2 232,-303.2 232,-176.2 128,-176.2"/>
<polygon fill="#f5f5f5" stroke="transparent" points="128,-279.7 128,-302.7 232,-302.7 232,-279.7 128,-279.7"/>
<polygon fill="none" stroke="#000000" points="128,-279.7 128,-302.7 232,-302.7 232,-279.7 128,-279.7"/>
<text text-anchor="start" x="132.936" y="-288.8" font-family="Helvetica,sans-Serif" font-weight="bold" font-size="11.00" fill="#000000">client_scope</text>
<text text-anchor="start" x="197.5219" y="-287.8" font-family="Helvetica,sans-Serif" font-size="11.00" fill="#000000">[table]</text>
<polygon fill="none" stroke="#000000" points="128,-257.7 128,-279.7 232,-279.7 232,-257.7 128,-257.7"/>
<image xlink:href="../../images/primaryKeys.png" width="11px" height="12px" preserveAspectRatio="xMinYMin meet" x="133" y="-274.7"/>
<text text-anchor="start" x="154" y="-264.8" font-family="Helvetica,sans-Serif" font-size="11.00" fill="#000000">id</text>
<polygon fill="#ffffff" stroke="transparent" points="128,-235.7 128,-257.7 232,-257.7 232,-235.7 128,-235.7"/>
<polygon fill="none" stroke="#000000" points="128,-235.7 128,-257.7 232,-257.7 232,-235.7 128,-235.7"/>
<text text-anchor="start" x="154" y="-242.8" font-family="Helvetica,sans-Serif" font-size="11.00" fill="#000000">name</text>
<polygon fill="#ffffff" stroke="transparent" points="128,-213.7 128,-235.7 232,-235.7 232,-213.7 128,-213.7"/>
<polygon fill="none" stroke="#000000" points="128,-213.7 128,-235.7 232,-235.7 232,-213.7 128,-213.7"/>
<image xlink:href="../../images/foreignKeys.png" width="11px" height="12px" preserveAspectRatio="xMinYMin meet" x="133" y="-230.7"/>
<text text-anchor="start" x="154" y="-220.8" font-family="Helvetica,sans-Serif" font-size="11.00" fill="#000000">realm_id</text>
<polygon fill="none" stroke="#000000" points="128,-194.7 128,-213.7 232,-213.7 232,-194.7 128,-194.7"/>
<text text-anchor="start" x="131" y="-200.8" font-family="Helvetica,sans-Serif" font-size="11.00" fill="#000000">...</text>
<polygon fill="#ffffff" stroke="transparent" points="128,-175.7 128,-194.7 161,-194.7 161,-175.7 128,-175.7"/>
<polygon fill="none" stroke="#000000" points="128,-175.7 128,-194.7 161,-194.7 161,-175.7 128,-175.7"/>
<text text-anchor="start" x="131" y="-181.8" font-family="Helvetica,sans-Serif" font-size="11.00" fill="#000000">&lt; 1</text>
<polygon fill="#ffffff" stroke="transparent" points="161,-175.7 161,-194.7 205,-194.7 205,-175.7 161,-175.7"/>
<polygon fill="none" stroke="#000000" points="161,-175.7 161,-194.7 205,-194.7 205,-175.7 161,-175.7"/>
<text text-anchor="start" x="169.6105" y="-181.8" font-family="Helvetica,sans-Serif" font-size="11.00" fill="#000000">9 rows</text>
<polygon fill="#ffffff" stroke="transparent" points="205,-175.7 205,-194.7 232,-194.7 232,-175.7 205,-175.7"/>
<polygon fill="none" stroke="#000000" points="205,-175.7 205,-194.7 232,-194.7 232,-175.7 205,-175.7"/>
<text text-anchor="start" x="213.4053" y="-181.8" font-family="Helvetica,sans-Serif" font-size="11.00" fill="#000000">5 &gt;</text>
</a>
</g>
</g>
<!-- realm -->
<g id="node2" class="node">
<title>realm</title>
<g id="a_node2"><a xlink:href="../../tables/realm.html" xlink:title="realm" target="_top">
<polygon fill="#ffffff" stroke="transparent" points="8,-287.2 8,-348.2 79,-348.2 79,-287.2 8,-287.2"/>
<polygon fill="#f5f5f5" stroke="transparent" points="8.5,-324.7 8.5,-347.7 79.5,-347.7 79.5,-324.7 8.5,-324.7"/>
<polygon fill="none" stroke="#000000" points="8.5,-324.7 8.5,-347.7 79.5,-347.7 79.5,-324.7 8.5,-324.7"/>
<text text-anchor="start" x="13.5" y="-333.8" font-family="Helvetica,sans-Serif" font-weight="bold" font-size="11.00" fill="#000000">realm</text>
<text text-anchor="start" x="45.0219" y="-332.8" font-family="Helvetica,sans-Serif" font-size="11.00" fill="#000000">[table]</text>
<polygon fill="none" stroke="#000000" points="8.5,-305.7 8.5,-324.7 79.5,-324.7 79.5,-305.7 8.5,-305.7"/>
<text text-anchor="start" x="11.5" y="-311.8" font-family="Helvetica,sans-Serif" font-size="11.00" fill="#000000">...</text>
<polygon fill="#ffffff" stroke="transparent" points="8.5,-286.7 8.5,-305.7 20.5,-305.7 20.5,-286.7 8.5,-286.7"/>
<polygon fill="none" stroke="#000000" points="8.5,-286.7 8.5,-305.7 20.5,-305.7 20.5,-286.7 8.5,-286.7"/>
<text text-anchor="start" x="11.4431" y="-292.8" font-family="Helvetica,sans-Serif" font-size="11.00" fill="#000000"> &#160;</text>
<polygon fill="#ffffff" stroke="transparent" points="20.5,-286.7 20.5,-305.7 52.5,-305.7 52.5,-286.7 20.5,-286.7"/>
<polygon fill="none" stroke="#000000" points="20.5,-286.7 20.5,-305.7 52.5,-305.7 52.5,-286.7 20.5,-286.7"/>
<text text-anchor="start" x="23.0553" y="-292.8" font-family="Helvetica,sans-Serif" font-size="11.00" fill="#000000">1 row</text>
<polygon fill="#ffffff" stroke="transparent" points="52.5,-286.7 52.5,-305.7 79.5,-305.7 79.5,-286.7 52.5,-286.7"/>
<polygon fill="none" stroke="#000000" points="52.5,-286.7 52.5,-305.7 79.5,-305.7 79.5,-286.7 52.5,-286.7"/>
<text text-anchor="start" x="55.1452" y="-292.8" font-family="Helvetica,sans-Serif" font-size="11.00" fill="#000000">23 &gt;</text>
</a>
</g>
</g>
<!-- client_scope&#45;&gt;realm -->
<g id="edge1" class="edge">
<title>client_scope:w&#45;&gt;realm:e</title>
<path fill="none" stroke="#000000" d="M114.1312,-229.0409C92.269,-247.0187 118.9036,-314.7 79.5,-314.7"/>
<polygon fill="#000000" stroke="#000000" points="120.3652,-227.0897 129.0754,-228.1356 124.1826,-225.8948 128,-224.7 128,-224.7 128,-224.7 124.1826,-225.8948 126.9246,-221.2644 120.3652,-227.0897 120.3652,-227.0897"/>
<ellipse fill="none" stroke="#000000" cx="117.3113" cy="-228.0456" rx="3.2" ry="3.2"/>
</g>
<!-- client_scope_attributes -->
<g id="node3" class="node">
<title>client_scope_attributes</title>
<g id="a_node3"><a xlink:href="../../tables/client_scope_attributes.html" xlink:title="client_scope_attributes" target="_top">
<polygon fill="#ffffff" stroke="transparent" points="281,-284.7 281,-396.7 513,-396.7 513,-284.7 281,-284.7"/>
<polygon fill="#f5f5f5" stroke="transparent" points="283,-371.7 283,-394.7 511,-394.7 511,-371.7 283,-371.7"/>
<polygon fill="none" stroke="#000000" points="283,-371.7 283,-394.7 511,-394.7 511,-371.7 283,-371.7"/>
<text text-anchor="start" x="288" y="-380.8" font-family="Helvetica,sans-Serif" font-weight="bold" font-size="11.00" fill="#000000">client_scope_attributes</text>
<text text-anchor="start" x="476.0437" y="-379.8" font-family="Helvetica,sans-Serif" font-size="11.00" fill="#000000">[table]</text>
<polygon fill="none" stroke="#000000" points="283,-349.7 283,-371.7 438,-371.7 438,-349.7 283,-349.7"/>
<image xlink:href="../../images/primaryKeys.png" width="11px" height="12px" preserveAspectRatio="xMinYMin meet" x="288" y="-366.7"/>
<text text-anchor="start" x="303" y="-356.8" font-family="Helvetica,sans-Serif" font-size="11.00" fill="#000000">scope_id</text>
<polygon fill="none" stroke="#000000" points="438,-349.7 438,-371.7 511,-371.7 511,-349.7 438,-349.7"/>
<text text-anchor="start" x="441" y="-357.4" font-family="Helvetica,sans-Serif" font-size="11.00" fill="#000000">varchar[36]</text>
<polygon fill="none" stroke="#000000" points="283,-327.7 283,-349.7 438,-349.7 438,-327.7 283,-327.7"/>
<text text-anchor="start" x="303" y="-334.8" font-family="Helvetica,sans-Serif" font-size="11.00" fill="#000000">value</text>
<polygon fill="none" stroke="#000000" points="438,-327.7 438,-349.7 511,-349.7 511,-327.7 438,-327.7"/>
<text text-anchor="start" x="440.8791" y="-335.4" font-family="Helvetica,sans-Serif" font-size="11.00" fill="#000000">varchar[2048]</text>
<polygon fill="none" stroke="#000000" points="283,-305.7 283,-327.7 438,-327.7 438,-305.7 283,-305.7"/>
<image xlink:href="../../images/primaryKeys.png" width="11px" height="12px" preserveAspectRatio="xMinYMin meet" x="288" y="-322.7"/>
<text text-anchor="start" x="303" y="-312.8" font-family="Helvetica,sans-Serif" font-size="11.00" fill="#000000">name</text>
<polygon fill="none" stroke="#000000" points="438,-305.7 438,-327.7 511,-327.7 511,-305.7 438,-305.7"/>
<text text-anchor="start" x="441" y="-313.4" font-family="Helvetica,sans-Serif" font-size="11.00" fill="#000000">varchar[255]</text>
<polygon fill="#ffffff" stroke="transparent" points="283,-286.7 283,-305.7 349,-305.7 349,-286.7 283,-286.7"/>
<polygon fill="none" stroke="#000000" points="283,-286.7 283,-305.7 349,-305.7 349,-286.7 283,-286.7"/>
<text text-anchor="start" x="286" y="-292.8" font-family="Helvetica,sans-Serif" font-size="11.00" fill="#000000">&lt; 1</text>
<polygon fill="#ffffff" stroke="transparent" points="349,-286.7 349,-305.7 438,-305.7 438,-286.7 349,-286.7"/>
<polygon fill="none" stroke="#000000" points="349,-286.7 349,-305.7 438,-305.7 438,-286.7 349,-286.7"/>
<text text-anchor="start" x="396.4956" y="-292.8" font-family="Helvetica,sans-Serif" font-size="11.00" fill="#000000">24 rows</text>
<polygon fill="#ffffff" stroke="transparent" points="438,-286.7 438,-305.7 511,-305.7 511,-286.7 438,-286.7"/>
<polygon fill="none" stroke="#000000" points="438,-286.7 438,-305.7 511,-305.7 511,-286.7 438,-286.7"/>
<text text-anchor="start" x="492.4053" y="-292.8" font-family="Helvetica,sans-Serif" font-size="11.00" fill="#000000">0 &gt;</text>
<polygon fill="none" stroke="#000000" stroke-width="2" points="282,-285.7 282,-395.7 512,-395.7 512,-285.7 282,-285.7"/>
</a>
</g>
</g>
<!-- client_scope_attributes&#45;&gt;client_scope -->
<g id="edge2" class="edge">
<title>client_scope_attributes:w&#45;&gt;client_scope:e</title>
<path fill="none" stroke="#000000" d="M268.9874,-356.5079C245.7233,-338.51 272.7247,-268.7 232,-268.7"/>
<polygon fill="#000000" stroke="#000000" points="275.3356,-358.407 281.9682,-364.149 279.1678,-359.5535 283,-360.7 283,-360.7 283,-360.7 279.1678,-359.5535 284.0318,-357.251 275.3356,-358.407 275.3356,-358.407"/>
<ellipse fill="none" stroke="#000000" cx="272.2699" cy="-357.4898" rx="3.2" ry="3.2"/>
</g>
<!-- client_scope_client -->
<g id="node4" class="node">
<title>client_scope_client</title>
<g id="a_node4"><a xlink:href="../../tables/client_scope_client.html" xlink:title="client_scope_client" target="_top">
<polygon fill="#ffffff" stroke="transparent" points="329.5,-202.2 329.5,-263.2 464.5,-263.2 464.5,-202.2 329.5,-202.2"/>
<polygon fill="#f5f5f5" stroke="transparent" points="330,-239.7 330,-262.7 465,-262.7 465,-239.7 330,-239.7"/>
<polygon fill="none" stroke="#000000" points="330,-239.7 330,-262.7 465,-262.7 465,-239.7 330,-239.7"/>
<text text-anchor="start" x="334.5443" y="-248.8" font-family="Helvetica,sans-Serif" font-weight="bold" font-size="11.00" fill="#000000">client_scope_client</text>
<text text-anchor="start" x="430.5219" y="-247.8" font-family="Helvetica,sans-Serif" font-size="11.00" fill="#000000">[table]</text>
<polygon fill="none" stroke="#000000" points="330,-220.7 330,-239.7 465,-239.7 465,-220.7 330,-220.7"/>
<text text-anchor="start" x="333" y="-226.8" font-family="Helvetica,sans-Serif" font-size="11.00" fill="#000000">...</text>
<polygon fill="#ffffff" stroke="transparent" points="330,-201.7 330,-220.7 380,-220.7 380,-201.7 330,-201.7"/>
<polygon fill="none" stroke="#000000" points="330,-201.7 330,-220.7 380,-220.7 380,-201.7 330,-201.7"/>
<text text-anchor="start" x="333" y="-207.8" font-family="Helvetica,sans-Serif" font-size="11.00" fill="#000000">&lt; 2</text>
<polygon fill="#ffffff" stroke="transparent" points="380,-201.7 380,-220.7 438,-220.7 438,-201.7 380,-201.7"/>
<polygon fill="none" stroke="#000000" points="380,-201.7 380,-220.7 438,-220.7 438,-201.7 380,-201.7"/>
<text text-anchor="start" x="396.4956" y="-207.8" font-family="Helvetica,sans-Serif" font-size="11.00" fill="#000000">54 rows</text>
<polygon fill="#ffffff" stroke="transparent" points="438,-201.7 438,-220.7 465,-220.7 465,-201.7 438,-201.7"/>
<polygon fill="none" stroke="#000000" points="438,-201.7 438,-220.7 465,-220.7 465,-201.7 438,-201.7"/>
<text text-anchor="start" x="455.8862" y="-207.8" font-family="Helvetica,sans-Serif" font-size="11.00" fill="#000000"> &#160;</text>
</a>
</g>
</g>
<!-- client_scope_client&#45;&gt;client_scope -->
<g id="edge3" class="edge">
<title>client_scope_client:w&#45;&gt;client_scope:e</title>
<path fill="none" stroke="#000000" d="M315.5862,-231.088C281.6135,-238.0355 273.5675,-268.7 232,-268.7"/>
<polygon fill="#000000" stroke="#000000" points="322.0368,-230.4669 330.3451,-233.2834 326.0184,-230.0834 330,-229.7 330,-229.7 330,-229.7 326.0184,-230.0834 329.6549,-226.1166 322.0368,-230.4669 322.0368,-230.4669"/>
<ellipse fill="none" stroke="#000000" cx="318.8516" cy="-230.7737" rx="3.2" ry="3.2"/>
</g>
<!-- client_scope_role_mapping -->
<g id="node5" class="node">
<title>client_scope_role_mapping</title>
<g id="a_node5"><a xlink:href="../../tables/client_scope_role_mapping.html" xlink:title="client_scope_role_mapping" target="_top">
<polygon fill="#ffffff" stroke="transparent" points="309,-120.2 309,-181.2 485,-181.2 485,-120.2 309,-120.2"/>
<polygon fill="#f5f5f5" stroke="transparent" points="309,-157.7 309,-180.7 485,-180.7 485,-157.7 309,-157.7"/>
<polygon fill="none" stroke="#000000" points="309,-157.7 309,-180.7 485,-180.7 485,-157.7 309,-157.7"/>
<text text-anchor="start" x="313.5661" y="-166.8" font-family="Helvetica,sans-Serif" font-weight="bold" font-size="11.00" fill="#000000">client_scope_role_mapping</text>
<text text-anchor="start" x="450.5219" y="-165.8" font-family="Helvetica,sans-Serif" font-size="11.00" fill="#000000">[table]</text>
<polygon fill="none" stroke="#000000" points="309,-138.7 309,-157.7 485,-157.7 485,-138.7 309,-138.7"/>
<text text-anchor="start" x="312" y="-144.8" font-family="Helvetica,sans-Serif" font-size="11.00" fill="#000000">...</text>
<polygon fill="#ffffff" stroke="transparent" points="309,-119.7 309,-138.7 385,-138.7 385,-119.7 309,-119.7"/>
<polygon fill="none" stroke="#000000" points="309,-119.7 309,-138.7 385,-138.7 385,-119.7 309,-119.7"/>
<text text-anchor="start" x="312" y="-125.8" font-family="Helvetica,sans-Serif" font-size="11.00" fill="#000000">&lt; 1</text>
<polygon fill="#ffffff" stroke="transparent" points="385,-119.7 385,-138.7 445,-138.7 445,-119.7 385,-119.7"/>
<polygon fill="none" stroke="#000000" points="385,-119.7 385,-138.7 445,-138.7 445,-119.7 385,-119.7"/>
<text text-anchor="start" x="415.1105" y="-125.8" font-family="Helvetica,sans-Serif" font-size="11.00" fill="#000000">1 row</text>
<polygon fill="#ffffff" stroke="transparent" points="445,-119.7 445,-138.7 485,-138.7 485,-119.7 445,-119.7"/>
<polygon fill="none" stroke="#000000" points="445,-119.7 445,-138.7 485,-138.7 485,-119.7 445,-119.7"/>
<text text-anchor="start" x="475.8862" y="-125.8" font-family="Helvetica,sans-Serif" font-size="11.00" fill="#000000"> &#160;</text>
</a>
</g>
</g>
<!-- client_scope_role_mapping&#45;&gt;client_scope -->
<g id="edge4" class="edge">
<title>client_scope_role_mapping:w&#45;&gt;client_scope:e</title>
<path fill="none" stroke="#000000" d="M294.6848,-150.3398C253.2489,-168.0348 290.1409,-268.7 232,-268.7"/>
<polygon fill="#000000" stroke="#000000" points="301.1326,-149.1508 309.6529,-151.2403 305.0663,-148.4254 309,-147.7 309,-147.7 309,-147.7 305.0663,-148.4254 308.3471,-144.1597 301.1326,-149.1508 301.1326,-149.1508"/>
<ellipse fill="none" stroke="#000000" cx="297.9857" cy="-149.7311" rx="3.2" ry="3.2"/>
</g>
<!-- default_client_scope -->
<g id="node6" class="node">
<title>default_client_scope</title>
<g id="a_node6"><a xlink:href="../../tables/default_client_scope.html" xlink:title="default_client_scope" target="_top">
<polygon fill="#ffffff" stroke="transparent" points="325.5,-418.2 325.5,-479.2 468.5,-479.2 468.5,-418.2 325.5,-418.2"/>
<polygon fill="#f5f5f5" stroke="transparent" points="326,-455.7 326,-478.7 469,-478.7 469,-455.7 326,-455.7"/>
<polygon fill="none" stroke="#000000" points="326,-455.7 326,-478.7 469,-478.7 469,-455.7 326,-455.7"/>
<text text-anchor="start" x="330.8714" y="-464.8" font-family="Helvetica,sans-Serif" font-weight="bold" font-size="11.00" fill="#000000">default_client_scope</text>
<text text-anchor="start" x="434.5219" y="-463.8" font-family="Helvetica,sans-Serif" font-size="11.00" fill="#000000">[table]</text>
<polygon fill="none" stroke="#000000" points="326,-436.7 326,-455.7 469,-455.7 469,-436.7 326,-436.7"/>
<text text-anchor="start" x="329" y="-442.8" font-family="Helvetica,sans-Serif" font-size="11.00" fill="#000000">...</text>
<polygon fill="#ffffff" stroke="transparent" points="326,-417.7 326,-436.7 383,-436.7 383,-417.7 326,-417.7"/>
<polygon fill="none" stroke="#000000" points="326,-417.7 326,-436.7 383,-436.7 383,-417.7 326,-417.7"/>
<text text-anchor="start" x="329" y="-423.8" font-family="Helvetica,sans-Serif" font-size="11.00" fill="#000000">&lt; 2</text>
<polygon fill="#ffffff" stroke="transparent" points="383,-417.7 383,-436.7 439,-436.7 439,-417.7 383,-417.7"/>
<polygon fill="none" stroke="#000000" points="383,-417.7 383,-436.7 439,-436.7 439,-417.7 383,-417.7"/>
<text text-anchor="start" x="403.6105" y="-423.8" font-family="Helvetica,sans-Serif" font-size="11.00" fill="#000000">9 rows</text>
<polygon fill="#ffffff" stroke="transparent" points="439,-417.7 439,-436.7 469,-436.7 469,-417.7 439,-417.7"/>
<polygon fill="none" stroke="#000000" points="439,-417.7 439,-436.7 469,-436.7 469,-417.7 439,-417.7"/>
<text text-anchor="start" x="459.8862" y="-423.8" font-family="Helvetica,sans-Serif" font-size="11.00" fill="#000000"> &#160;</text>
</a>
</g>
</g>
<!-- default_client_scope&#45;&gt;client_scope -->
<g id="edge6" class="edge">
<title>default_client_scope:w&#45;&gt;client_scope:e</title>
<path fill="none" stroke="#000000" d="M311.5283,-444.1562C293.8988,-439.8588 286.5755,-426.8045 273,-407.7 235.6916,-355.1964 296.4092,-268.7 232,-268.7"/>
<polygon fill="#000000" stroke="#000000" points="318.0451,-444.8513 325.6181,-449.2797 322.0226,-445.2757 326,-445.7 326,-445.7 326,-445.7 322.0226,-445.2757 326.3819,-442.1203 318.0451,-444.8513 318.0451,-444.8513"/>
<ellipse fill="none" stroke="#000000" cx="314.8632" cy="-444.5119" rx="3.2" ry="3.2"/>
</g>
<!-- default_client_scope&#45;&gt;realm -->
<g id="edge5" class="edge">
<title>default_client_scope:w&#45;&gt;realm:e</title>
<path fill="none" stroke="#000000" d="M311.3512,-445.0569C201.8568,-435.1743 198.4769,-314.7 79.5,-314.7"/>
<polygon fill="#000000" stroke="#000000" points="318.0077,-445.3491 325.8421,-449.2965 322.0038,-445.5245 326,-445.7 326,-445.7 326,-445.7 322.0038,-445.5245 326.1579,-442.1035 318.0077,-445.3491 318.0077,-445.3491"/>
<ellipse fill="none" stroke="#000000" cx="314.8108" cy="-445.2087" rx="3.2" ry="3.2"/>
</g>
<!-- protocol_mapper -->
<g id="node7" class="node">
<title>protocol_mapper</title>
<g id="a_node7"><a xlink:href="../../tables/protocol_mapper.html" xlink:title="protocol_mapper" target="_top">
<polygon fill="#ffffff" stroke="transparent" points="334.5,-38.2 334.5,-99.2 459.5,-99.2 459.5,-38.2 334.5,-38.2"/>
<polygon fill="#f5f5f5" stroke="transparent" points="335,-75.7 335,-98.7 460,-98.7 460,-75.7 335,-75.7"/>
<polygon fill="none" stroke="#000000" points="335,-75.7 335,-98.7 460,-98.7 460,-75.7 335,-75.7"/>
<text text-anchor="start" x="339.7412" y="-84.8" font-family="Helvetica,sans-Serif" font-weight="bold" font-size="11.00" fill="#000000">protocol_mapper</text>
<text text-anchor="start" x="425.5219" y="-83.8" font-family="Helvetica,sans-Serif" font-size="11.00" fill="#000000">[table]</text>
<polygon fill="none" stroke="#000000" points="335,-56.7 335,-75.7 460,-75.7 460,-56.7 335,-56.7"/>
<text text-anchor="start" x="338" y="-62.8" font-family="Helvetica,sans-Serif" font-size="11.00" fill="#000000">...</text>
<polygon fill="#ffffff" stroke="transparent" points="335,-37.7 335,-56.7 375,-56.7 375,-37.7 335,-37.7"/>
<polygon fill="none" stroke="#000000" points="335,-37.7 335,-56.7 375,-56.7 375,-37.7 335,-37.7"/>
<text text-anchor="start" x="338" y="-43.8" font-family="Helvetica,sans-Serif" font-size="11.00" fill="#000000">&lt; 2</text>
<polygon fill="#ffffff" stroke="transparent" points="375,-37.7 375,-56.7 429,-56.7 429,-37.7 375,-37.7"/>
<polygon fill="none" stroke="#000000" points="375,-37.7 375,-56.7 429,-56.7 429,-37.7 375,-37.7"/>
<text text-anchor="start" x="387.4956" y="-43.8" font-family="Helvetica,sans-Serif" font-size="11.00" fill="#000000">28 rows</text>
<polygon fill="#ffffff" stroke="transparent" points="429,-37.7 429,-56.7 460,-56.7 460,-37.7 429,-37.7"/>
<polygon fill="none" stroke="#000000" points="429,-37.7 429,-56.7 460,-56.7 460,-37.7 429,-37.7"/>
<text text-anchor="start" x="441.4053" y="-43.8" font-family="Helvetica,sans-Serif" font-size="11.00" fill="#000000">1 &gt;</text>
</a>
</g>
</g>
<!-- protocol_mapper&#45;&gt;client_scope -->
<g id="edge7" class="edge">
<title>protocol_mapper:w&#45;&gt;client_scope:e</title>
<path fill="none" stroke="#000000" d="M320.5259,-66.9257C298.0528,-71.1784 289.0932,-86.3267 273,-109.7 231.6138,-169.8083 304.9783,-268.7 232,-268.7"/>
<polygon fill="#000000" stroke="#000000" points="327.0285,-66.3751 335.3038,-69.2872 331.0143,-66.0376 335,-65.7 335,-65.7 335,-65.7 331.0143,-66.0376 334.6962,-62.1128 327.0285,-66.3751 327.0285,-66.3751"/>
<ellipse fill="none" stroke="#000000" cx="323.8399" cy="-66.6451" rx="3.2" ry="3.2"/>
</g>
</g>
</svg>
