<?xml version="1.0" encoding="UTF-8" standalone="no"?>
<!DOCTYPE svg PUBLIC "-//W3C//DTD SVG 1.1//EN"
 "http://www.w3.org/Graphics/SVG/1.1/DTD/svg11.dtd">
<!-- Generated by graphviz version 2.40.1 (20161225.0304)
 -->
<!-- Title: twoDegreesRelationshipsDiagram Pages: 1 -->
<svg width="584pt" height="983pt"
 viewBox="0.00 0.00 584.00 983.20" xmlns="http://www.w3.org/2000/svg" xmlns:xlink="http://www.w3.org/1999/xlink">
<g id="graph0" class="graph" transform="scale(1 1) rotate(0) translate(4 979.2)">
<title>twoDegreesRelationshipsDiagram</title>
<polygon fill="#ffffff" stroke="transparent" points="-4,4 -4,-979.2 580,-979.2 580,4 -4,4"/>
<text text-anchor="middle" x="72.4936" y="-7.3" font-family="Helvetica,sans-Serif" font-size="11.00" fill="#000000">Generated by SchemaSpy</text>
<!-- client -->
<g id="node1" class="node">
<title>client</title>
<g id="a_node1"><a xlink:href="../../tables/client.html" xlink:title="client" target="_top">
<polygon fill="#ffffff" stroke="transparent" points="128,-517.2 128,-644.2 323,-644.2 323,-517.2 128,-517.2"/>
<polygon fill="#f5f5f5" stroke="transparent" points="128.5,-620.7 128.5,-643.7 323.5,-643.7 323.5,-620.7 128.5,-620.7"/>
<polygon fill="none" stroke="#000000" points="128.5,-620.7 128.5,-643.7 323.5,-643.7 323.5,-620.7 128.5,-620.7"/>
<text text-anchor="start" x="133.5" y="-629.8" font-family="Helvetica,sans-Serif" font-weight="bold" font-size="11.00" fill="#000000">client</text>
<text text-anchor="start" x="288.5437" y="-628.8" font-family="Helvetica,sans-Serif" font-size="11.00" fill="#000000">[table]</text>
<polygon fill="none" stroke="#000000" points="128.5,-598.7 128.5,-620.7 323.5,-620.7 323.5,-598.7 128.5,-598.7"/>
<image xlink:href="../../images/primaryKeys.png" width="11px" height="12px" preserveAspectRatio="xMinYMin meet" x="133.5" y="-615.7"/>
<text text-anchor="start" x="148.5" y="-605.8" font-family="Helvetica,sans-Serif" font-size="11.00" fill="#000000">id</text>
<polygon fill="#ffffff" stroke="transparent" points="128.5,-576.7 128.5,-598.7 323.5,-598.7 323.5,-576.7 128.5,-576.7"/>
<polygon fill="none" stroke="#000000" points="128.5,-576.7 128.5,-598.7 323.5,-598.7 323.5,-576.7 128.5,-576.7"/>
<image xlink:href="../../images/foreignKeys.png" width="11px" height="12px" preserveAspectRatio="xMinYMin meet" x="133.5" y="-593.7"/>
<text text-anchor="start" x="148.5" y="-583.8" font-family="Helvetica,sans-Serif" font-size="11.00" fill="#000000">client_id</text>
<polygon fill="#ffffff" stroke="transparent" points="128.5,-554.7 128.5,-576.7 323.5,-576.7 323.5,-554.7 128.5,-554.7"/>
<polygon fill="none" stroke="#000000" points="128.5,-554.7 128.5,-576.7 323.5,-576.7 323.5,-554.7 128.5,-554.7"/>
<image xlink:href="../../images/foreignKeys.png" width="11px" height="12px" preserveAspectRatio="xMinYMin meet" x="133.5" y="-571.7"/>
<text text-anchor="start" x="148.5" y="-561.8" font-family="Helvetica,sans-Serif" font-size="11.00" fill="#000000">realm_id</text>
<polygon fill="none" stroke="#000000" points="128.5,-535.7 128.5,-554.7 323.5,-554.7 323.5,-535.7 128.5,-535.7"/>
<text text-anchor="start" x="131.5" y="-541.8" font-family="Helvetica,sans-Serif" font-size="11.00" fill="#000000">...</text>
<polygon fill="#ffffff" stroke="transparent" points="128.5,-516.7 128.5,-535.7 206.5,-535.7 206.5,-516.7 128.5,-516.7"/>
<polygon fill="none" stroke="#000000" points="128.5,-516.7 128.5,-535.7 206.5,-535.7 206.5,-516.7 128.5,-516.7"/>
<text text-anchor="start" x="131.5" y="-522.8" font-family="Helvetica,sans-Serif" font-size="11.00" fill="#000000">&lt; 1</text>
<polygon fill="#ffffff" stroke="transparent" points="206.5,-516.7 206.5,-535.7 273.5,-535.7 273.5,-516.7 206.5,-516.7"/>
<polygon fill="none" stroke="#000000" points="206.5,-516.7 206.5,-535.7 273.5,-535.7 273.5,-516.7 206.5,-516.7"/>
<text text-anchor="start" x="238.1105" y="-522.8" font-family="Helvetica,sans-Serif" font-size="11.00" fill="#000000">6 rows</text>
<polygon fill="#ffffff" stroke="transparent" points="273.5,-516.7 273.5,-535.7 323.5,-535.7 323.5,-516.7 273.5,-516.7"/>
<polygon fill="none" stroke="#000000" points="273.5,-516.7 273.5,-535.7 323.5,-535.7 323.5,-516.7 273.5,-516.7"/>
<text text-anchor="start" x="304.9053" y="-522.8" font-family="Helvetica,sans-Serif" font-size="11.00" fill="#000000">8 &gt;</text>
</a>
</g>
</g>
<!-- realm -->
<g id="node2" class="node">
<title>realm</title>
<g id="a_node2"><a xlink:href="../../tables/realm.html" xlink:title="realm" target="_top">
<polygon fill="#ffffff" stroke="transparent" points="8,-158.2 8,-219.2 79,-219.2 79,-158.2 8,-158.2"/>
<polygon fill="#f5f5f5" stroke="transparent" points="8.5,-195.7 8.5,-218.7 79.5,-218.7 79.5,-195.7 8.5,-195.7"/>
<polygon fill="none" stroke="#000000" points="8.5,-195.7 8.5,-218.7 79.5,-218.7 79.5,-195.7 8.5,-195.7"/>
<text text-anchor="start" x="13.5" y="-204.8" font-family="Helvetica,sans-Serif" font-weight="bold" font-size="11.00" fill="#000000">realm</text>
<text text-anchor="start" x="45.0219" y="-203.8" font-family="Helvetica,sans-Serif" font-size="11.00" fill="#000000">[table]</text>
<polygon fill="none" stroke="#000000" points="8.5,-176.7 8.5,-195.7 79.5,-195.7 79.5,-176.7 8.5,-176.7"/>
<text text-anchor="start" x="11.5" y="-182.8" font-family="Helvetica,sans-Serif" font-size="11.00" fill="#000000">...</text>
<polygon fill="#ffffff" stroke="transparent" points="8.5,-157.7 8.5,-176.7 20.5,-176.7 20.5,-157.7 8.5,-157.7"/>
<polygon fill="none" stroke="#000000" points="8.5,-157.7 8.5,-176.7 20.5,-176.7 20.5,-157.7 8.5,-157.7"/>
<text text-anchor="start" x="11.4431" y="-163.8" font-family="Helvetica,sans-Serif" font-size="11.00" fill="#000000"> &#160;</text>
<polygon fill="#ffffff" stroke="transparent" points="20.5,-157.7 20.5,-176.7 52.5,-176.7 52.5,-157.7 20.5,-157.7"/>
<polygon fill="none" stroke="#000000" points="20.5,-157.7 20.5,-176.7 52.5,-176.7 52.5,-157.7 20.5,-157.7"/>
<text text-anchor="start" x="23.0553" y="-163.8" font-family="Helvetica,sans-Serif" font-size="11.00" fill="#000000">1 row</text>
<polygon fill="#ffffff" stroke="transparent" points="52.5,-157.7 52.5,-176.7 79.5,-176.7 79.5,-157.7 52.5,-157.7"/>
<polygon fill="none" stroke="#000000" points="52.5,-157.7 52.5,-176.7 79.5,-176.7 79.5,-157.7 52.5,-157.7"/>
<text text-anchor="start" x="55.1452" y="-163.8" font-family="Helvetica,sans-Serif" font-size="11.00" fill="#000000">23 &gt;</text>
</a>
</g>
</g>
<!-- client&#45;&gt;realm -->
<g id="edge1" class="edge">
<title>client:w&#45;&gt;realm:e</title>
<path fill="none" stroke="#000000" d="M114.4988,-561.1677C58.1335,-518.2942 159.1558,-185.7 79.5,-185.7"/>
<polygon fill="#000000" stroke="#000000" points="120.8888,-563.2362 127.3913,-569.125 124.6944,-564.4681 128.5,-565.7 128.5,-565.7 128.5,-565.7 124.6944,-564.4681 129.6087,-562.275 120.8888,-563.2362 120.8888,-563.2362"/>
<ellipse fill="none" stroke="#000000" cx="117.8444" cy="-562.2506" rx="3.2" ry="3.2"/>
</g>
<!-- client_attributes -->
<g id="node3" class="node">
<title>client_attributes</title>
<g id="a_node3"><a xlink:href="../../tables/client_attributes.html" xlink:title="client_attributes" target="_top">
<polygon fill="#ffffff" stroke="transparent" points="410,-664.2 410,-725.2 530,-725.2 530,-664.2 410,-664.2"/>
<polygon fill="#f5f5f5" stroke="transparent" points="410,-701.7 410,-724.7 530,-724.7 530,-701.7 410,-701.7"/>
<polygon fill="none" stroke="#000000" points="410,-701.7 410,-724.7 530,-724.7 530,-701.7 410,-701.7"/>
<text text-anchor="start" x="414.9918" y="-710.8" font-family="Helvetica,sans-Serif" font-weight="bold" font-size="11.00" fill="#000000">client_attributes</text>
<text text-anchor="start" x="495.5219" y="-709.8" font-family="Helvetica,sans-Serif" font-size="11.00" fill="#000000">[table]</text>
<polygon fill="none" stroke="#000000" points="410,-682.7 410,-701.7 530,-701.7 530,-682.7 410,-682.7"/>
<text text-anchor="start" x="413" y="-688.8" font-family="Helvetica,sans-Serif" font-size="11.00" fill="#000000">...</text>
<polygon fill="#ffffff" stroke="transparent" points="410,-663.7 410,-682.7 455,-682.7 455,-663.7 410,-663.7"/>
<polygon fill="none" stroke="#000000" points="410,-663.7 410,-682.7 455,-682.7 455,-663.7 410,-663.7"/>
<text text-anchor="start" x="413" y="-669.8" font-family="Helvetica,sans-Serif" font-size="11.00" fill="#000000">&lt; 1</text>
<polygon fill="#ffffff" stroke="transparent" points="455,-663.7 455,-682.7 505,-682.7 505,-663.7 455,-663.7"/>
<polygon fill="none" stroke="#000000" points="455,-663.7 455,-682.7 505,-682.7 505,-663.7 455,-663.7"/>
<text text-anchor="start" x="469.6105" y="-669.8" font-family="Helvetica,sans-Serif" font-size="11.00" fill="#000000">2 rows</text>
<polygon fill="#ffffff" stroke="transparent" points="505,-663.7 505,-682.7 530,-682.7 530,-663.7 505,-663.7"/>
<polygon fill="none" stroke="#000000" points="505,-663.7 505,-682.7 530,-682.7 530,-663.7 505,-663.7"/>
<text text-anchor="start" x="520.8862" y="-669.8" font-family="Helvetica,sans-Serif" font-size="11.00" fill="#000000"> &#160;</text>
</a>
</g>
</g>
<!-- client_attributes&#45;&gt;client -->
<g id="edge2" class="edge">
<title>client_attributes:w&#45;&gt;client:e</title>
<path fill="none" stroke="#000000" d="M395.4965,-688.9049C382.3994,-682.8251 378.8859,-667.8093 364,-653.7 344.7097,-635.4161 350.0786,-609.7 323.5,-609.7"/>
<polygon fill="#000000" stroke="#000000" points="402.1445,-690.186 409.3187,-695.235 406.0723,-690.943 410,-691.7 410,-691.7 410,-691.7 406.0723,-690.943 410.6813,-688.165 402.1445,-690.186 402.1445,-690.186"/>
<ellipse fill="none" stroke="#000000" cx="399.0024" cy="-689.5805" rx="3.2" ry="3.2"/>
</g>
<!-- client_default_roles -->
<g id="node4" class="node">
<title>client_default_roles</title>
<g id="a_node4"><a xlink:href="../../tables/client_default_roles.html" xlink:title="client_default_roles" target="_top">
<polygon fill="#ffffff" stroke="transparent" points="401.5,-582.2 401.5,-643.2 538.5,-643.2 538.5,-582.2 401.5,-582.2"/>
<polygon fill="#f5f5f5" stroke="transparent" points="402,-619.7 402,-642.7 539,-642.7 539,-619.7 402,-619.7"/>
<polygon fill="none" stroke="#000000" points="402,-619.7 402,-642.7 539,-642.7 539,-619.7 402,-619.7"/>
<text text-anchor="start" x="406.6274" y="-628.8" font-family="Helvetica,sans-Serif" font-weight="bold" font-size="11.00" fill="#000000">client_default_roles</text>
<text text-anchor="start" x="504.5219" y="-627.8" font-family="Helvetica,sans-Serif" font-size="11.00" fill="#000000">[table]</text>
<polygon fill="none" stroke="#000000" points="402,-600.7 402,-619.7 539,-619.7 539,-600.7 402,-600.7"/>
<text text-anchor="start" x="405" y="-606.8" font-family="Helvetica,sans-Serif" font-size="11.00" fill="#000000">...</text>
<polygon fill="#ffffff" stroke="transparent" points="402,-581.7 402,-600.7 456,-600.7 456,-581.7 402,-581.7"/>
<polygon fill="none" stroke="#000000" points="402,-581.7 402,-600.7 456,-600.7 456,-581.7 402,-581.7"/>
<text text-anchor="start" x="405" y="-587.8" font-family="Helvetica,sans-Serif" font-size="11.00" fill="#000000">&lt; 1</text>
<polygon fill="#ffffff" stroke="transparent" points="456,-581.7 456,-600.7 510,-600.7 510,-581.7 456,-581.7"/>
<polygon fill="none" stroke="#000000" points="456,-581.7 456,-600.7 510,-600.7 510,-581.7 456,-581.7"/>
<text text-anchor="start" x="474.6105" y="-587.8" font-family="Helvetica,sans-Serif" font-size="11.00" fill="#000000">2 rows</text>
<polygon fill="#ffffff" stroke="transparent" points="510,-581.7 510,-600.7 539,-600.7 539,-581.7 510,-581.7"/>
<polygon fill="none" stroke="#000000" points="510,-581.7 510,-600.7 539,-600.7 539,-581.7 510,-581.7"/>
<text text-anchor="start" x="529.8862" y="-587.8" font-family="Helvetica,sans-Serif" font-size="11.00" fill="#000000"> &#160;</text>
</a>
</g>
</g>
<!-- client_default_roles&#45;&gt;client -->
<g id="edge3" class="edge">
<title>client_default_roles:w&#45;&gt;client:e</title>
<path fill="none" stroke="#000000" d="M387.3627,-609.7C363.7466,-609.7 352.9375,-609.7 323.5,-609.7"/>
<polygon fill="#000000" stroke="#000000" points="394,-609.7001 402,-613.3 398,-609.7 402,-609.7 402,-609.7 402,-609.7 398,-609.7 402,-606.1 394,-609.7001 394,-609.7001"/>
<ellipse fill="none" stroke="#000000" cx="390.8" cy="-609.7001" rx="3.2" ry="3.2"/>
</g>
<!-- client_node_registrations -->
<g id="node5" class="node">
<title>client_node_registrations</title>
<g id="a_node5"><a xlink:href="../../tables/client_node_registrations.html" xlink:title="client_node_registrations" target="_top">
<polygon fill="#ffffff" stroke="transparent" points="387.5,-500.2 387.5,-561.2 552.5,-561.2 552.5,-500.2 387.5,-500.2"/>
<polygon fill="#f5f5f5" stroke="transparent" points="388,-537.7 388,-560.7 553,-560.7 553,-537.7 388,-537.7"/>
<polygon fill="none" stroke="#000000" points="388,-537.7 388,-560.7 553,-560.7 553,-537.7 388,-537.7"/>
<text text-anchor="start" x="392.8741" y="-546.8" font-family="Helvetica,sans-Serif" font-weight="bold" font-size="11.00" fill="#000000">client_node_registrations</text>
<text text-anchor="start" x="518.5219" y="-545.8" font-family="Helvetica,sans-Serif" font-size="11.00" fill="#000000">[table]</text>
<polygon fill="none" stroke="#000000" points="388,-518.7 388,-537.7 553,-537.7 553,-518.7 388,-518.7"/>
<text text-anchor="start" x="391" y="-524.8" font-family="Helvetica,sans-Serif" font-size="11.00" fill="#000000">...</text>
<polygon fill="#ffffff" stroke="transparent" points="388,-499.7 388,-518.7 456,-518.7 456,-499.7 388,-499.7"/>
<polygon fill="none" stroke="#000000" points="388,-499.7 388,-518.7 456,-518.7 456,-499.7 388,-499.7"/>
<text text-anchor="start" x="391" y="-505.8" font-family="Helvetica,sans-Serif" font-size="11.00" fill="#000000">&lt; 1</text>
<polygon fill="#ffffff" stroke="transparent" points="456,-499.7 456,-518.7 517,-518.7 517,-499.7 456,-499.7"/>
<polygon fill="none" stroke="#000000" points="456,-499.7 456,-518.7 517,-518.7 517,-499.7 456,-499.7"/>
<text text-anchor="start" x="481.6105" y="-505.8" font-family="Helvetica,sans-Serif" font-size="11.00" fill="#000000">0 rows</text>
<polygon fill="#ffffff" stroke="transparent" points="517,-499.7 517,-518.7 553,-518.7 553,-499.7 517,-499.7"/>
<polygon fill="none" stroke="#000000" points="517,-499.7 517,-518.7 553,-518.7 553,-499.7 517,-499.7"/>
<text text-anchor="start" x="543.8862" y="-505.8" font-family="Helvetica,sans-Serif" font-size="11.00" fill="#000000"> &#160;</text>
</a>
</g>
</g>
<!-- client_node_registrations&#45;&gt;client -->
<g id="edge4" class="edge">
<title>client_node_registrations:w&#45;&gt;client:e</title>
<path fill="none" stroke="#000000" d="M373.8177,-531.2234C347.5254,-546.9188 364.0718,-609.7 323.5,-609.7"/>
<polygon fill="#000000" stroke="#000000" points="380.236,-529.6289 388.868,-531.1938 384.118,-528.6645 388,-527.7 388,-527.7 388,-527.7 384.118,-528.6645 387.132,-524.2062 380.236,-529.6289 380.236,-529.6289"/>
<ellipse fill="none" stroke="#000000" cx="377.1304" cy="-530.4005" rx="3.2" ry="3.2"/>
</g>
<!-- client_scope -->
<g id="node6" class="node">
<title>client_scope</title>
<g id="a_node6"><a xlink:href="../../tables/client_scope.html" xlink:title="client_scope" target="_top">
<polygon fill="#ffffff" stroke="transparent" points="173.5,-137.2 173.5,-264.2 277.5,-264.2 277.5,-137.2 173.5,-137.2"/>
<polygon fill="#f5f5f5" stroke="transparent" points="173.5,-240.7 173.5,-263.7 277.5,-263.7 277.5,-240.7 173.5,-240.7"/>
<polygon fill="none" stroke="#000000" points="173.5,-240.7 173.5,-263.7 277.5,-263.7 277.5,-240.7 173.5,-240.7"/>
<text text-anchor="start" x="178.436" y="-249.8" font-family="Helvetica,sans-Serif" font-weight="bold" font-size="11.00" fill="#000000">client_scope</text>
<text text-anchor="start" x="243.0219" y="-248.8" font-family="Helvetica,sans-Serif" font-size="11.00" fill="#000000">[table]</text>
<polygon fill="none" stroke="#000000" points="173.5,-218.7 173.5,-240.7 277.5,-240.7 277.5,-218.7 173.5,-218.7"/>
<image xlink:href="../../images/primaryKeys.png" width="11px" height="12px" preserveAspectRatio="xMinYMin meet" x="178.5" y="-235.7"/>
<text text-anchor="start" x="199.5" y="-225.8" font-family="Helvetica,sans-Serif" font-size="11.00" fill="#000000">id</text>
<polygon fill="#ffffff" stroke="transparent" points="173.5,-196.7 173.5,-218.7 277.5,-218.7 277.5,-196.7 173.5,-196.7"/>
<polygon fill="none" stroke="#000000" points="173.5,-196.7 173.5,-218.7 277.5,-218.7 277.5,-196.7 173.5,-196.7"/>
<text text-anchor="start" x="199.5" y="-203.8" font-family="Helvetica,sans-Serif" font-size="11.00" fill="#000000">name</text>
<polygon fill="#ffffff" stroke="transparent" points="173.5,-174.7 173.5,-196.7 277.5,-196.7 277.5,-174.7 173.5,-174.7"/>
<polygon fill="none" stroke="#000000" points="173.5,-174.7 173.5,-196.7 277.5,-196.7 277.5,-174.7 173.5,-174.7"/>
<image xlink:href="../../images/foreignKeys.png" width="11px" height="12px" preserveAspectRatio="xMinYMin meet" x="178.5" y="-191.7"/>
<text text-anchor="start" x="199.5" y="-181.8" font-family="Helvetica,sans-Serif" font-size="11.00" fill="#000000">realm_id</text>
<polygon fill="none" stroke="#000000" points="173.5,-155.7 173.5,-174.7 277.5,-174.7 277.5,-155.7 173.5,-155.7"/>
<text text-anchor="start" x="176.5" y="-161.8" font-family="Helvetica,sans-Serif" font-size="11.00" fill="#000000">...</text>
<polygon fill="#ffffff" stroke="transparent" points="173.5,-136.7 173.5,-155.7 206.5,-155.7 206.5,-136.7 173.5,-136.7"/>
<polygon fill="none" stroke="#000000" points="173.5,-136.7 173.5,-155.7 206.5,-155.7 206.5,-136.7 173.5,-136.7"/>
<text text-anchor="start" x="176.5" y="-142.8" font-family="Helvetica,sans-Serif" font-size="11.00" fill="#000000">&lt; 1</text>
<polygon fill="#ffffff" stroke="transparent" points="206.5,-136.7 206.5,-155.7 250.5,-155.7 250.5,-136.7 206.5,-136.7"/>
<polygon fill="none" stroke="#000000" points="206.5,-136.7 206.5,-155.7 250.5,-155.7 250.5,-136.7 206.5,-136.7"/>
<text text-anchor="start" x="215.1105" y="-142.8" font-family="Helvetica,sans-Serif" font-size="11.00" fill="#000000">9 rows</text>
<polygon fill="#ffffff" stroke="transparent" points="250.5,-136.7 250.5,-155.7 277.5,-155.7 277.5,-136.7 250.5,-136.7"/>
<polygon fill="none" stroke="#000000" points="250.5,-136.7 250.5,-155.7 277.5,-155.7 277.5,-136.7 250.5,-136.7"/>
<text text-anchor="start" x="258.9053" y="-142.8" font-family="Helvetica,sans-Serif" font-size="11.00" fill="#000000">5 &gt;</text>
</a>
</g>
</g>
<!-- client_scope&#45;&gt;realm -->
<g id="edge5" class="edge">
<title>client_scope:w&#45;&gt;realm:e</title>
<path fill="none" stroke="#000000" d="M158.7715,-185.7C128.5089,-185.7 115.8924,-185.7 79.5,-185.7"/>
<polygon fill="#000000" stroke="#000000" points="165.5,-185.7001 173.5,-189.3 169.5,-185.7 173.5,-185.7 173.5,-185.7 173.5,-185.7 169.5,-185.7 173.5,-182.1 165.5,-185.7001 165.5,-185.7001"/>
<ellipse fill="none" stroke="#000000" cx="162.3" cy="-185.7001" rx="3.2" ry="3.2"/>
</g>
<!-- client_scope_attributes -->
<g id="node7" class="node">
<title>client_scope_attributes</title>
<g id="a_node7"><a xlink:href="../../tables/client_scope_attributes.html" xlink:title="client_scope_attributes" target="_top">
<polygon fill="#ffffff" stroke="transparent" points="392.5,-120.2 392.5,-181.2 547.5,-181.2 547.5,-120.2 392.5,-120.2"/>
<polygon fill="#f5f5f5" stroke="transparent" points="393,-157.7 393,-180.7 548,-180.7 548,-157.7 393,-157.7"/>
<polygon fill="none" stroke="#000000" points="393,-157.7 393,-180.7 548,-180.7 548,-157.7 393,-157.7"/>
<text text-anchor="start" x="397.762" y="-166.8" font-family="Helvetica,sans-Serif" font-weight="bold" font-size="11.00" fill="#000000">client_scope_attributes</text>
<text text-anchor="start" x="513.5219" y="-165.8" font-family="Helvetica,sans-Serif" font-size="11.00" fill="#000000">[table]</text>
<polygon fill="none" stroke="#000000" points="393,-138.7 393,-157.7 548,-157.7 548,-138.7 393,-138.7"/>
<text text-anchor="start" x="396" y="-144.8" font-family="Helvetica,sans-Serif" font-size="11.00" fill="#000000">...</text>
<polygon fill="#ffffff" stroke="transparent" points="393,-119.7 393,-138.7 453,-138.7 453,-119.7 393,-119.7"/>
<polygon fill="none" stroke="#000000" points="393,-119.7 393,-138.7 453,-138.7 453,-119.7 393,-119.7"/>
<text text-anchor="start" x="396" y="-125.8" font-family="Helvetica,sans-Serif" font-size="11.00" fill="#000000">&lt; 1</text>
<polygon fill="#ffffff" stroke="transparent" points="453,-119.7 453,-138.7 516,-138.7 516,-119.7 453,-119.7"/>
<polygon fill="none" stroke="#000000" points="453,-119.7 453,-138.7 516,-138.7 516,-119.7 453,-119.7"/>
<text text-anchor="start" x="474.4956" y="-125.8" font-family="Helvetica,sans-Serif" font-size="11.00" fill="#000000">24 rows</text>
<polygon fill="#ffffff" stroke="transparent" points="516,-119.7 516,-138.7 548,-138.7 548,-119.7 516,-119.7"/>
<polygon fill="none" stroke="#000000" points="516,-119.7 516,-138.7 548,-138.7 548,-119.7 516,-119.7"/>
<text text-anchor="start" x="538.8862" y="-125.8" font-family="Helvetica,sans-Serif" font-size="11.00" fill="#000000"> &#160;</text>
</a>
</g>
</g>
<!-- client_scope_attributes&#45;&gt;client_scope -->
<g id="edge6" class="edge">
<title>client_scope_attributes:w&#45;&gt;client_scope:e</title>
<path fill="none" stroke="#000000" d="M378.6038,-149.338C331.2762,-160.8951 335.1676,-229.7 277.5,-229.7"/>
<polygon fill="#000000" stroke="#000000" points="385.0513,-148.6044 393.407,-151.2769 389.0256,-148.1522 393,-147.7 393,-147.7 393,-147.7 389.0256,-148.1522 392.593,-144.1231 385.0513,-148.6044 385.0513,-148.6044"/>
<ellipse fill="none" stroke="#000000" cx="381.8718" cy="-148.9662" rx="3.2" ry="3.2"/>
</g>
<!-- client_scope_client -->
<g id="node8" class="node">
<title>client_scope_client</title>
<g id="a_node8"><a xlink:href="../../tables/client_scope_client.html" xlink:title="client_scope_client" target="_top">
<polygon fill="#ffffff" stroke="transparent" points="372,-284.7 372,-396.7 568,-396.7 568,-284.7 372,-284.7"/>
<polygon fill="#f5f5f5" stroke="transparent" points="374,-371.7 374,-394.7 566,-394.7 566,-371.7 374,-371.7"/>
<polygon fill="none" stroke="#000000" points="374,-371.7 374,-394.7 566,-394.7 566,-371.7 374,-371.7"/>
<text text-anchor="start" x="379" y="-380.8" font-family="Helvetica,sans-Serif" font-weight="bold" font-size="11.00" fill="#000000">client_scope_client</text>
<text text-anchor="start" x="531.0437" y="-379.8" font-family="Helvetica,sans-Serif" font-size="11.00" fill="#000000">[table]</text>
<polygon fill="none" stroke="#000000" points="374,-349.7 374,-371.7 505,-371.7 505,-349.7 374,-349.7"/>
<image xlink:href="../../images/primaryKeys.png" width="11px" height="12px" preserveAspectRatio="xMinYMin meet" x="379" y="-366.7"/>
<text text-anchor="start" x="394" y="-356.8" font-family="Helvetica,sans-Serif" font-size="11.00" fill="#000000">client_id</text>
<polygon fill="none" stroke="#000000" points="505,-349.7 505,-371.7 566,-371.7 566,-349.7 505,-349.7"/>
<text text-anchor="start" x="507.994" y="-357.4" font-family="Helvetica,sans-Serif" font-size="11.00" fill="#000000">varchar[36]</text>
<polygon fill="none" stroke="#000000" points="374,-327.7 374,-349.7 505,-349.7 505,-327.7 374,-327.7"/>
<image xlink:href="../../images/primaryKeys.png" width="11px" height="12px" preserveAspectRatio="xMinYMin meet" x="379" y="-344.7"/>
<text text-anchor="start" x="394" y="-334.8" font-family="Helvetica,sans-Serif" font-size="11.00" fill="#000000">scope_id</text>
<polygon fill="none" stroke="#000000" points="505,-327.7 505,-349.7 566,-349.7 566,-327.7 505,-327.7"/>
<text text-anchor="start" x="507.994" y="-335.4" font-family="Helvetica,sans-Serif" font-size="11.00" fill="#000000">varchar[36]</text>
<polygon fill="none" stroke="#000000" points="374,-305.7 374,-327.7 505,-327.7 505,-305.7 374,-305.7"/>
<text text-anchor="start" x="394" y="-312.8" font-family="Helvetica,sans-Serif" font-size="11.00" fill="#000000">default_scope</text>
<polygon fill="none" stroke="#000000" points="505,-305.7 505,-327.7 566,-327.7 566,-305.7 505,-305.7"/>
<text text-anchor="start" x="508" y="-313.4" font-family="Helvetica,sans-Serif" font-size="11.00" fill="#000000">bool[1]</text>
<polygon fill="#ffffff" stroke="transparent" points="374,-286.7 374,-305.7 428,-305.7 428,-286.7 374,-286.7"/>
<polygon fill="none" stroke="#000000" points="374,-286.7 374,-305.7 428,-305.7 428,-286.7 374,-286.7"/>
<text text-anchor="start" x="377" y="-292.8" font-family="Helvetica,sans-Serif" font-size="11.00" fill="#000000">&lt; 2</text>
<polygon fill="#ffffff" stroke="transparent" points="428,-286.7 428,-305.7 505,-305.7 505,-286.7 428,-286.7"/>
<polygon fill="none" stroke="#000000" points="428,-286.7 428,-305.7 505,-305.7 505,-286.7 428,-286.7"/>
<text text-anchor="start" x="463.4956" y="-292.8" font-family="Helvetica,sans-Serif" font-size="11.00" fill="#000000">54 rows</text>
<polygon fill="#ffffff" stroke="transparent" points="505,-286.7 505,-305.7 566,-305.7 566,-286.7 505,-286.7"/>
<polygon fill="none" stroke="#000000" points="505,-286.7 505,-305.7 566,-305.7 566,-286.7 505,-286.7"/>
<text text-anchor="start" x="547.4053" y="-292.8" font-family="Helvetica,sans-Serif" font-size="11.00" fill="#000000">0 &gt;</text>
<polygon fill="none" stroke="#000000" stroke-width="2" points="373,-285.7 373,-395.7 567,-395.7 567,-285.7 373,-285.7"/>
</a>
</g>
</g>
<!-- client_scope_client&#45;&gt;client -->
<g id="edge7" class="edge">
<title>client_scope_client:w&#45;&gt;client:e</title>
<path fill="none" stroke="#000000" d="M359.4537,-362.423C277.516,-384.4227 430.9061,-609.7 323.5,-609.7"/>
<polygon fill="#000000" stroke="#000000" points="366.0555,-361.6411 374.4235,-364.275 370.0278,-361.1705 374,-360.7 374,-360.7 374,-360.7 370.0278,-361.1705 373.5765,-357.125 366.0555,-361.6411 366.0555,-361.6411"/>
<ellipse fill="none" stroke="#000000" cx="362.8778" cy="-362.0175" rx="3.2" ry="3.2"/>
</g>
<!-- client_scope_client&#45;&gt;client_scope -->
<g id="edge8" class="edge">
<title>client_scope_client:w&#45;&gt;client_scope:e</title>
<path fill="none" stroke="#000000" d="M359.6479,-336.5227C314.1365,-321.1602 336.7678,-229.7 277.5,-229.7"/>
<polygon fill="#000000" stroke="#000000" points="366.0905,-337.5 373.46,-342.2593 370.0453,-338.1 374,-338.7 374,-338.7 374,-338.7 370.0453,-338.1 374.54,-335.1407 366.0905,-337.5 366.0905,-337.5"/>
<ellipse fill="none" stroke="#000000" cx="362.9267" cy="-337.02" rx="3.2" ry="3.2"/>
</g>
<!-- client_scope_role_mapping -->
<g id="node9" class="node">
<title>client_scope_role_mapping</title>
<g id="a_node9"><a xlink:href="../../tables/client_scope_role_mapping.html" xlink:title="client_scope_role_mapping" target="_top">
<polygon fill="#ffffff" stroke="transparent" points="382,-202.2 382,-263.2 558,-263.2 558,-202.2 382,-202.2"/>
<polygon fill="#f5f5f5" stroke="transparent" points="382,-239.7 382,-262.7 558,-262.7 558,-239.7 382,-239.7"/>
<polygon fill="none" stroke="#000000" points="382,-239.7 382,-262.7 558,-262.7 558,-239.7 382,-239.7"/>
<text text-anchor="start" x="386.5661" y="-248.8" font-family="Helvetica,sans-Serif" font-weight="bold" font-size="11.00" fill="#000000">client_scope_role_mapping</text>
<text text-anchor="start" x="523.5219" y="-247.8" font-family="Helvetica,sans-Serif" font-size="11.00" fill="#000000">[table]</text>
<polygon fill="none" stroke="#000000" points="382,-220.7 382,-239.7 558,-239.7 558,-220.7 382,-220.7"/>
<text text-anchor="start" x="385" y="-226.8" font-family="Helvetica,sans-Serif" font-size="11.00" fill="#000000">...</text>
<polygon fill="#ffffff" stroke="transparent" points="382,-201.7 382,-220.7 458,-220.7 458,-201.7 382,-201.7"/>
<polygon fill="none" stroke="#000000" points="382,-201.7 382,-220.7 458,-220.7 458,-201.7 382,-201.7"/>
<text text-anchor="start" x="385" y="-207.8" font-family="Helvetica,sans-Serif" font-size="11.00" fill="#000000">&lt; 1</text>
<polygon fill="#ffffff" stroke="transparent" points="458,-201.7 458,-220.7 518,-220.7 518,-201.7 458,-201.7"/>
<polygon fill="none" stroke="#000000" points="458,-201.7 458,-220.7 518,-220.7 518,-201.7 458,-201.7"/>
<text text-anchor="start" x="488.1105" y="-207.8" font-family="Helvetica,sans-Serif" font-size="11.00" fill="#000000">1 row</text>
<polygon fill="#ffffff" stroke="transparent" points="518,-201.7 518,-220.7 558,-220.7 558,-201.7 518,-201.7"/>
<polygon fill="none" stroke="#000000" points="518,-201.7 518,-220.7 558,-220.7 558,-201.7 518,-201.7"/>
<text text-anchor="start" x="548.8862" y="-207.8" font-family="Helvetica,sans-Serif" font-size="11.00" fill="#000000"> &#160;</text>
</a>
</g>
</g>
<!-- client_scope_role_mapping&#45;&gt;client_scope -->
<g id="edge9" class="edge">
<title>client_scope_role_mapping:w&#45;&gt;client_scope:e</title>
<path fill="none" stroke="#000000" d="M367.4559,-229.7C332.4779,-229.7 318.6832,-229.7 277.5,-229.7"/>
<polygon fill="#000000" stroke="#000000" points="374,-229.7001 382,-233.3 378,-229.7 382,-229.7 382,-229.7 382,-229.7 378,-229.7 382,-226.1 374,-229.7001 374,-229.7001"/>
<ellipse fill="none" stroke="#000000" cx="370.8" cy="-229.7001" rx="3.2" ry="3.2"/>
</g>
<!-- default_client_scope -->
<g id="node10" class="node">
<title>default_client_scope</title>
<g id="a_node10"><a xlink:href="../../tables/default_client_scope.html" xlink:title="default_client_scope" target="_top">
<polygon fill="#ffffff" stroke="transparent" points="398.5,-38.2 398.5,-99.2 541.5,-99.2 541.5,-38.2 398.5,-38.2"/>
<polygon fill="#f5f5f5" stroke="transparent" points="399,-75.7 399,-98.7 542,-98.7 542,-75.7 399,-75.7"/>
<polygon fill="none" stroke="#000000" points="399,-75.7 399,-98.7 542,-98.7 542,-75.7 399,-75.7"/>
<text text-anchor="start" x="403.8714" y="-84.8" font-family="Helvetica,sans-Serif" font-weight="bold" font-size="11.00" fill="#000000">default_client_scope</text>
<text text-anchor="start" x="507.5219" y="-83.8" font-family="Helvetica,sans-Serif" font-size="11.00" fill="#000000">[table]</text>
<polygon fill="none" stroke="#000000" points="399,-56.7 399,-75.7 542,-75.7 542,-56.7 399,-56.7"/>
<text text-anchor="start" x="402" y="-62.8" font-family="Helvetica,sans-Serif" font-size="11.00" fill="#000000">...</text>
<polygon fill="#ffffff" stroke="transparent" points="399,-37.7 399,-56.7 456,-56.7 456,-37.7 399,-37.7"/>
<polygon fill="none" stroke="#000000" points="399,-37.7 399,-56.7 456,-56.7 456,-37.7 399,-37.7"/>
<text text-anchor="start" x="402" y="-43.8" font-family="Helvetica,sans-Serif" font-size="11.00" fill="#000000">&lt; 2</text>
<polygon fill="#ffffff" stroke="transparent" points="456,-37.7 456,-56.7 512,-56.7 512,-37.7 456,-37.7"/>
<polygon fill="none" stroke="#000000" points="456,-37.7 456,-56.7 512,-56.7 512,-37.7 456,-37.7"/>
<text text-anchor="start" x="476.6105" y="-43.8" font-family="Helvetica,sans-Serif" font-size="11.00" fill="#000000">9 rows</text>
<polygon fill="#ffffff" stroke="transparent" points="512,-37.7 512,-56.7 542,-56.7 542,-37.7 512,-37.7"/>
<polygon fill="none" stroke="#000000" points="512,-37.7 512,-56.7 542,-56.7 542,-37.7 512,-37.7"/>
<text text-anchor="start" x="532.8862" y="-43.8" font-family="Helvetica,sans-Serif" font-size="11.00" fill="#000000"> &#160;</text>
</a>
</g>
</g>
<!-- default_client_scope&#45;&gt;realm -->
<g id="edge10" class="edge">
<title>default_client_scope:w&#45;&gt;realm:e</title>
<path fill="none" stroke="#000000" d="M384.4842,-65.6603C268.3285,-65.0533 221.1984,-58.6133 120,-126.7 93.611,-144.4546 111.3057,-185.7 79.5,-185.7"/>
<polygon fill="#000000" stroke="#000000" points="391,-65.6781 398.9901,-69.3 395,-65.689 399,-65.7 399,-65.7 399,-65.7 395,-65.689 399.0099,-62.1 391,-65.6781 391,-65.6781"/>
<ellipse fill="none" stroke="#000000" cx="387.8" cy="-65.6693" rx="3.2" ry="3.2"/>
</g>
<!-- default_client_scope&#45;&gt;client_scope -->
<g id="edge11" class="edge">
<title>default_client_scope:w&#45;&gt;client_scope:e</title>
<path fill="none" stroke="#000000" d="M384.5453,-67.3232C314.7926,-84.3557 362.8975,-229.7 277.5,-229.7"/>
<polygon fill="#000000" stroke="#000000" points="391.05,-66.5928 399.4018,-69.2775 395.025,-66.1464 399,-65.7 399,-65.7 399,-65.7 395.025,-66.1464 398.5982,-62.1225 391.05,-66.5928 391.05,-66.5928"/>
<ellipse fill="none" stroke="#000000" cx="387.87" cy="-66.9499" rx="3.2" ry="3.2"/>
</g>
<!-- protocol_mapper -->
<g id="node11" class="node">
<title>protocol_mapper</title>
<g id="a_node11"><a xlink:href="../../tables/protocol_mapper.html" xlink:title="protocol_mapper" target="_top">
<polygon fill="#ffffff" stroke="transparent" points="407.5,-418.2 407.5,-479.2 532.5,-479.2 532.5,-418.2 407.5,-418.2"/>
<polygon fill="#f5f5f5" stroke="transparent" points="408,-455.7 408,-478.7 533,-478.7 533,-455.7 408,-455.7"/>
<polygon fill="none" stroke="#000000" points="408,-455.7 408,-478.7 533,-478.7 533,-455.7 408,-455.7"/>
<text text-anchor="start" x="412.7412" y="-464.8" font-family="Helvetica,sans-Serif" font-weight="bold" font-size="11.00" fill="#000000">protocol_mapper</text>
<text text-anchor="start" x="498.5219" y="-463.8" font-family="Helvetica,sans-Serif" font-size="11.00" fill="#000000">[table]</text>
<polygon fill="none" stroke="#000000" points="408,-436.7 408,-455.7 533,-455.7 533,-436.7 408,-436.7"/>
<text text-anchor="start" x="411" y="-442.8" font-family="Helvetica,sans-Serif" font-size="11.00" fill="#000000">...</text>
<polygon fill="#ffffff" stroke="transparent" points="408,-417.7 408,-436.7 448,-436.7 448,-417.7 408,-417.7"/>
<polygon fill="none" stroke="#000000" points="408,-417.7 408,-436.7 448,-436.7 448,-417.7 408,-417.7"/>
<text text-anchor="start" x="411" y="-423.8" font-family="Helvetica,sans-Serif" font-size="11.00" fill="#000000">&lt; 2</text>
<polygon fill="#ffffff" stroke="transparent" points="448,-417.7 448,-436.7 502,-436.7 502,-417.7 448,-417.7"/>
<polygon fill="none" stroke="#000000" points="448,-417.7 448,-436.7 502,-436.7 502,-417.7 448,-417.7"/>
<text text-anchor="start" x="460.4956" y="-423.8" font-family="Helvetica,sans-Serif" font-size="11.00" fill="#000000">28 rows</text>
<polygon fill="#ffffff" stroke="transparent" points="502,-417.7 502,-436.7 533,-436.7 533,-417.7 502,-417.7"/>
<polygon fill="none" stroke="#000000" points="502,-417.7 502,-436.7 533,-436.7 533,-417.7 502,-417.7"/>
<text text-anchor="start" x="514.4053" y="-423.8" font-family="Helvetica,sans-Serif" font-size="11.00" fill="#000000">1 &gt;</text>
</a>
</g>
</g>
<!-- protocol_mapper&#45;&gt;client -->
<g id="edge12" class="edge">
<title>protocol_mapper:w&#45;&gt;client:e</title>
<path fill="none" stroke="#000000" d="M393.5923,-448.2724C379.0309,-454.4826 375.5073,-471.1585 364,-489.7 334.3175,-537.5267 379.7889,-609.7 323.5,-609.7"/>
<polygon fill="#000000" stroke="#000000" points="400.1245,-447.1061 408.6328,-449.244 404.0623,-446.4031 408,-445.7 408,-445.7 408,-445.7 404.0623,-446.4031 407.3672,-442.156 400.1245,-447.1061 400.1245,-447.1061"/>
<ellipse fill="none" stroke="#000000" cx="396.9744" cy="-447.6686" rx="3.2" ry="3.2"/>
</g>
<!-- protocol_mapper&#45;&gt;client_scope -->
<g id="edge13" class="edge">
<title>protocol_mapper:w&#45;&gt;client_scope:e</title>
<path fill="none" stroke="#000000" d="M393.5428,-444.3207C304.1825,-425.9246 384.4031,-229.7 277.5,-229.7"/>
<polygon fill="#000000" stroke="#000000" points="400.0362,-444.9401 407.6581,-449.2837 404.0181,-445.3201 408,-445.7 408,-445.7 408,-445.7 404.0181,-445.3201 408.3419,-442.1163 400.0362,-444.9401 400.0362,-444.9401"/>
<ellipse fill="none" stroke="#000000" cx="396.8506" cy="-444.6362" rx="3.2" ry="3.2"/>
</g>
<!-- redirect_uris -->
<g id="node12" class="node">
<title>redirect_uris</title>
<g id="a_node12"><a xlink:href="../../tables/redirect_uris.html" xlink:title="redirect_uris" target="_top">
<polygon fill="#ffffff" stroke="transparent" points="418.5,-910.2 418.5,-971.2 521.5,-971.2 521.5,-910.2 418.5,-910.2"/>
<polygon fill="#f5f5f5" stroke="transparent" points="419,-947.7 419,-970.7 522,-970.7 522,-947.7 419,-947.7"/>
<polygon fill="none" stroke="#000000" points="419,-947.7 419,-970.7 522,-970.7 522,-947.7 419,-947.7"/>
<text text-anchor="start" x="423.7506" y="-956.8" font-family="Helvetica,sans-Serif" font-weight="bold" font-size="11.00" fill="#000000">redirect_uris</text>
<text text-anchor="start" x="487.5219" y="-955.8" font-family="Helvetica,sans-Serif" font-size="11.00" fill="#000000">[table]</text>
<polygon fill="none" stroke="#000000" points="419,-928.7 419,-947.7 522,-947.7 522,-928.7 419,-928.7"/>
<text text-anchor="start" x="422" y="-934.8" font-family="Helvetica,sans-Serif" font-size="11.00" fill="#000000">...</text>
<polygon fill="#ffffff" stroke="transparent" points="419,-909.7 419,-928.7 456,-928.7 456,-909.7 419,-909.7"/>
<polygon fill="none" stroke="#000000" points="419,-909.7 419,-928.7 456,-928.7 456,-909.7 419,-909.7"/>
<text text-anchor="start" x="422" y="-915.8" font-family="Helvetica,sans-Serif" font-size="11.00" fill="#000000">&lt; 1</text>
<polygon fill="#ffffff" stroke="transparent" points="456,-909.7 456,-928.7 502,-928.7 502,-909.7 456,-909.7"/>
<polygon fill="none" stroke="#000000" points="456,-909.7 456,-928.7 502,-928.7 502,-909.7 456,-909.7"/>
<text text-anchor="start" x="466.6105" y="-915.8" font-family="Helvetica,sans-Serif" font-size="11.00" fill="#000000">3 rows</text>
<polygon fill="#ffffff" stroke="transparent" points="502,-909.7 502,-928.7 522,-928.7 522,-909.7 502,-909.7"/>
<polygon fill="none" stroke="#000000" points="502,-909.7 502,-928.7 522,-928.7 522,-909.7 502,-909.7"/>
<text text-anchor="start" x="512.8862" y="-915.8" font-family="Helvetica,sans-Serif" font-size="11.00" fill="#000000"> &#160;</text>
</a>
</g>
</g>
<!-- redirect_uris&#45;&gt;client -->
<g id="edge14" class="edge">
<title>redirect_uris:w&#45;&gt;client:e</title>
<path fill="none" stroke="#000000" d="M404.4991,-936.4157C385.5296,-932.6094 376.7298,-920.3478 364,-899.7 329.8515,-844.3108 388.5699,-609.7 323.5,-609.7"/>
<polygon fill="#000000" stroke="#000000" points="411.0312,-936.9942 418.6824,-941.286 415.0156,-937.3471 419,-937.7 419,-937.7 419,-937.7 415.0156,-937.3471 419.3176,-934.114 411.0312,-936.9942 411.0312,-936.9942"/>
<ellipse fill="none" stroke="#000000" cx="407.8437" cy="-936.7118" rx="3.2" ry="3.2"/>
</g>
<!-- scope_mapping -->
<g id="node13" class="node">
<title>scope_mapping</title>
<g id="a_node13"><a xlink:href="../../tables/scope_mapping.html" xlink:title="scope_mapping" target="_top">
<polygon fill="#ffffff" stroke="transparent" points="410,-828.2 410,-889.2 530,-889.2 530,-828.2 410,-828.2"/>
<polygon fill="#f5f5f5" stroke="transparent" points="410,-865.7 410,-888.7 530,-888.7 530,-865.7 410,-865.7"/>
<polygon fill="none" stroke="#000000" points="410,-865.7 410,-888.7 530,-888.7 530,-865.7 410,-865.7"/>
<text text-anchor="start" x="414.6816" y="-874.8" font-family="Helvetica,sans-Serif" font-weight="bold" font-size="11.00" fill="#000000">scope_mapping</text>
<text text-anchor="start" x="495.5219" y="-873.8" font-family="Helvetica,sans-Serif" font-size="11.00" fill="#000000">[table]</text>
<polygon fill="none" stroke="#000000" points="410,-846.7 410,-865.7 530,-865.7 530,-846.7 410,-846.7"/>
<text text-anchor="start" x="413" y="-852.8" font-family="Helvetica,sans-Serif" font-size="11.00" fill="#000000">...</text>
<polygon fill="#ffffff" stroke="transparent" points="410,-827.7 410,-846.7 458,-846.7 458,-827.7 410,-827.7"/>
<polygon fill="none" stroke="#000000" points="410,-827.7 410,-846.7 458,-846.7 458,-827.7 410,-827.7"/>
<text text-anchor="start" x="413" y="-833.8" font-family="Helvetica,sans-Serif" font-size="11.00" fill="#000000">&lt; 1</text>
<polygon fill="#ffffff" stroke="transparent" points="458,-827.7 458,-846.7 504,-846.7 504,-827.7 458,-827.7"/>
<polygon fill="none" stroke="#000000" points="458,-827.7 458,-846.7 504,-846.7 504,-827.7 458,-827.7"/>
<text text-anchor="start" x="474.1105" y="-833.8" font-family="Helvetica,sans-Serif" font-size="11.00" fill="#000000">1 row</text>
<polygon fill="#ffffff" stroke="transparent" points="504,-827.7 504,-846.7 530,-846.7 530,-827.7 504,-827.7"/>
<polygon fill="none" stroke="#000000" points="504,-827.7 504,-846.7 530,-846.7 530,-827.7 504,-827.7"/>
<text text-anchor="start" x="520.8862" y="-833.8" font-family="Helvetica,sans-Serif" font-size="11.00" fill="#000000"> &#160;</text>
</a>
</g>
</g>
<!-- scope_mapping&#45;&gt;client -->
<g id="edge15" class="edge">
<title>scope_mapping:w&#45;&gt;client:e</title>
<path fill="none" stroke="#000000" d="M395.7023,-853.7418C380.6405,-848.9476 374.692,-835.6865 364,-817.7 339.9377,-777.2216 370.5903,-609.7 323.5,-609.7"/>
<polygon fill="#000000" stroke="#000000" points="402.074,-854.6144 409.5115,-859.2667 406.037,-855.1572 410,-855.7 410,-855.7 410,-855.7 406.037,-855.1572 410.4885,-852.1333 402.074,-854.6144 402.074,-854.6144"/>
<ellipse fill="none" stroke="#000000" cx="398.9036" cy="-854.1802" rx="3.2" ry="3.2"/>
</g>
<!-- web_origins -->
<g id="node14" class="node">
<title>web_origins</title>
<g id="a_node14"><a xlink:href="../../tables/web_origins.html" xlink:title="web_origins" target="_top">
<polygon fill="#ffffff" stroke="transparent" points="419.5,-746.2 419.5,-807.2 520.5,-807.2 520.5,-746.2 419.5,-746.2"/>
<polygon fill="#f5f5f5" stroke="transparent" points="420,-783.7 420,-806.7 521,-806.7 521,-783.7 420,-783.7"/>
<polygon fill="none" stroke="#000000" points="420,-783.7 420,-806.7 521,-806.7 521,-783.7 420,-783.7"/>
<text text-anchor="start" x="424.663" y="-792.8" font-family="Helvetica,sans-Serif" font-weight="bold" font-size="11.00" fill="#000000">web_origins</text>
<text text-anchor="start" x="486.5219" y="-791.8" font-family="Helvetica,sans-Serif" font-size="11.00" fill="#000000">[table]</text>
<polygon fill="none" stroke="#000000" points="420,-764.7 420,-783.7 521,-783.7 521,-764.7 420,-764.7"/>
<text text-anchor="start" x="423" y="-770.8" font-family="Helvetica,sans-Serif" font-size="11.00" fill="#000000">...</text>
<polygon fill="#ffffff" stroke="transparent" points="420,-745.7 420,-764.7 459,-764.7 459,-745.7 420,-745.7"/>
<polygon fill="none" stroke="#000000" points="420,-745.7 420,-764.7 459,-764.7 459,-745.7 420,-745.7"/>
<text text-anchor="start" x="423" y="-751.8" font-family="Helvetica,sans-Serif" font-size="11.00" fill="#000000">&lt; 1</text>
<polygon fill="#ffffff" stroke="transparent" points="459,-745.7 459,-764.7 500,-764.7 500,-745.7 459,-745.7"/>
<polygon fill="none" stroke="#000000" points="459,-745.7 459,-764.7 500,-764.7 500,-745.7 459,-745.7"/>
<text text-anchor="start" x="470.1105" y="-751.8" font-family="Helvetica,sans-Serif" font-size="11.00" fill="#000000">1 row</text>
<polygon fill="#ffffff" stroke="transparent" points="500,-745.7 500,-764.7 521,-764.7 521,-745.7 500,-745.7"/>
<polygon fill="none" stroke="#000000" points="500,-745.7 500,-764.7 521,-764.7 521,-745.7 500,-745.7"/>
<text text-anchor="start" x="511.8862" y="-751.8" font-family="Helvetica,sans-Serif" font-size="11.00" fill="#000000"> &#160;</text>
</a>
</g>
</g>
<!-- web_origins&#45;&gt;client -->
<g id="edge16" class="edge">
<title>web_origins:w&#45;&gt;client:e</title>
<path fill="none" stroke="#000000" d="M405.477,-772.3153C386.6824,-768.2448 378.7197,-755.3551 364,-735.7 328.74,-688.6178 382.3218,-609.7 323.5,-609.7"/>
<polygon fill="#000000" stroke="#000000" points="412.0361,-772.9406 419.6583,-777.2837 416.0181,-773.3203 420,-773.7 420,-773.7 420,-773.7 416.0181,-773.3203 420.3417,-770.1163 412.0361,-772.9406 412.0361,-772.9406"/>
<ellipse fill="none" stroke="#000000" cx="408.8506" cy="-772.6369" rx="3.2" ry="3.2"/>
</g>
</g>
</svg>
