<?xml version="1.0" encoding="UTF-8" standalone="no"?>
<!DOCTYPE svg PUBLIC "-//W3C//DTD SVG 1.1//EN"
 "http://www.w3.org/Graphics/SVG/1.1/DTD/svg11.dtd">
<!-- Generated by graphviz version 2.40.1 (20161225.0304)
 -->
<!-- Title: oneDegreeRelationshipsDiagram Pages: 1 -->
<svg width="768pt" height="1101pt"
 viewBox="0.00 0.00 768.00 1100.70" xmlns="http://www.w3.org/2000/svg" xmlns:xlink="http://www.w3.org/1999/xlink">
<g id="graph0" class="graph" transform="scale(1 1) rotate(0) translate(4 1096.7)">
<title>oneDegreeRelationshipsDiagram</title>
<polygon fill="#ffffff" stroke="transparent" points="-4,4 -4,-1096.7 764,-1096.7 764,4 -4,4"/>
<text text-anchor="middle" x="72.4936" y="-7.3" font-family="Helvetica,sans-Serif" font-size="11.00" fill="#000000">Generated by SchemaSpy</text>
<!-- client -->
<g id="node1" class="node">
<title>client</title>
<g id="a_node1"><a xlink:href="../../tables/client.html" xlink:title="client" target="_top">
<polygon fill="#ffffff" stroke="transparent" points="270,-38.2 270,-656.2 536,-656.2 536,-38.2 270,-38.2"/>
<polygon fill="#f5f5f5" stroke="transparent" points="272,-631.2 272,-654.2 534,-654.2 534,-631.2 272,-631.2"/>
<polygon fill="none" stroke="#000000" points="272,-631.2 272,-654.2 534,-654.2 534,-631.2 272,-631.2"/>
<text text-anchor="start" x="277" y="-640.3" font-family="Helvetica,sans-Serif" font-weight="bold" font-size="11.00" fill="#000000">client</text>
<text text-anchor="start" x="499.0437" y="-639.3" font-family="Helvetica,sans-Serif" font-size="11.00" fill="#000000">[table]</text>
<polygon fill="none" stroke="#000000" points="272,-609.2 272,-631.2 467,-631.2 467,-609.2 272,-609.2"/>
<image xlink:href="../../images/primaryKeys.png" width="11px" height="12px" preserveAspectRatio="xMinYMin meet" x="277" y="-626.2"/>
<text text-anchor="start" x="292" y="-616.3" font-family="Helvetica,sans-Serif" font-size="11.00" fill="#000000">id</text>
<polygon fill="none" stroke="#000000" points="467,-609.2 467,-631.2 534,-631.2 534,-609.2 467,-609.2"/>
<text text-anchor="start" x="470" y="-616.9" font-family="Helvetica,sans-Serif" font-size="11.00" fill="#000000">varchar[36]</text>
<polygon fill="none" stroke="#000000" points="272,-587.2 272,-609.2 467,-609.2 467,-587.2 272,-587.2"/>
<text text-anchor="start" x="292" y="-594.3" font-family="Helvetica,sans-Serif" font-size="11.00" fill="#000000">enabled</text>
<polygon fill="none" stroke="#000000" points="467,-587.2 467,-609.2 534,-609.2 534,-587.2 467,-587.2"/>
<text text-anchor="start" x="470" y="-594.9" font-family="Helvetica,sans-Serif" font-size="11.00" fill="#000000">bool[1]</text>
<polygon fill="none" stroke="#000000" points="272,-565.2 272,-587.2 467,-587.2 467,-565.2 272,-565.2"/>
<text text-anchor="start" x="292" y="-572.3" font-family="Helvetica,sans-Serif" font-size="11.00" fill="#000000">full_scope_allowed</text>
<polygon fill="none" stroke="#000000" points="467,-565.2 467,-587.2 534,-587.2 534,-565.2 467,-565.2"/>
<text text-anchor="start" x="470" y="-572.9" font-family="Helvetica,sans-Serif" font-size="11.00" fill="#000000">bool[1]</text>
<polygon fill="#ffffff" stroke="transparent" points="272,-543.2 272,-565.2 467,-565.2 467,-543.2 272,-543.2"/>
<polygon fill="none" stroke="#000000" points="272,-543.2 272,-565.2 467,-565.2 467,-543.2 272,-543.2"/>
<image xlink:href="../../images/foreignKeys.png" width="11px" height="12px" preserveAspectRatio="xMinYMin meet" x="277" y="-560.2"/>
<text text-anchor="start" x="292" y="-550.3" font-family="Helvetica,sans-Serif" font-size="11.00" fill="#000000">client_id</text>
<polygon fill="none" stroke="#000000" points="467,-543.2 467,-565.2 534,-565.2 534,-543.2 467,-543.2"/>
<text text-anchor="start" x="469.9365" y="-550.9" font-family="Helvetica,sans-Serif" font-size="11.00" fill="#000000">varchar[255]</text>
<polygon fill="none" stroke="#000000" points="272,-521.2 272,-543.2 467,-543.2 467,-521.2 272,-521.2"/>
<text text-anchor="start" x="292" y="-528.3" font-family="Helvetica,sans-Serif" font-size="11.00" fill="#000000">not_before</text>
<polygon fill="none" stroke="#000000" points="467,-521.2 467,-543.2 534,-543.2 534,-521.2 467,-521.2"/>
<text text-anchor="start" x="470" y="-528.9" font-family="Helvetica,sans-Serif" font-size="11.00" fill="#000000">int4[10]</text>
<polygon fill="none" stroke="#000000" points="272,-499.2 272,-521.2 467,-521.2 467,-499.2 272,-499.2"/>
<text text-anchor="start" x="292" y="-506.3" font-family="Helvetica,sans-Serif" font-size="11.00" fill="#000000">public_client</text>
<polygon fill="none" stroke="#000000" points="467,-499.2 467,-521.2 534,-521.2 534,-499.2 467,-499.2"/>
<text text-anchor="start" x="470" y="-506.9" font-family="Helvetica,sans-Serif" font-size="11.00" fill="#000000">bool[1]</text>
<polygon fill="none" stroke="#000000" points="272,-477.2 272,-499.2 467,-499.2 467,-477.2 272,-477.2"/>
<text text-anchor="start" x="292" y="-484.3" font-family="Helvetica,sans-Serif" font-size="11.00" fill="#000000">secret</text>
<polygon fill="none" stroke="#000000" points="467,-477.2 467,-499.2 534,-499.2 534,-477.2 467,-477.2"/>
<text text-anchor="start" x="469.9365" y="-484.9" font-family="Helvetica,sans-Serif" font-size="11.00" fill="#000000">varchar[255]</text>
<polygon fill="none" stroke="#000000" points="272,-455.2 272,-477.2 467,-477.2 467,-455.2 272,-455.2"/>
<text text-anchor="start" x="292" y="-462.3" font-family="Helvetica,sans-Serif" font-size="11.00" fill="#000000">base_url</text>
<polygon fill="none" stroke="#000000" points="467,-455.2 467,-477.2 534,-477.2 534,-455.2 467,-455.2"/>
<text text-anchor="start" x="469.9365" y="-462.9" font-family="Helvetica,sans-Serif" font-size="11.00" fill="#000000">varchar[255]</text>
<polygon fill="none" stroke="#000000" points="272,-433.2 272,-455.2 467,-455.2 467,-433.2 272,-433.2"/>
<text text-anchor="start" x="292" y="-440.3" font-family="Helvetica,sans-Serif" font-size="11.00" fill="#000000">bearer_only</text>
<polygon fill="none" stroke="#000000" points="467,-433.2 467,-455.2 534,-455.2 534,-433.2 467,-433.2"/>
<text text-anchor="start" x="470" y="-440.9" font-family="Helvetica,sans-Serif" font-size="11.00" fill="#000000">bool[1]</text>
<polygon fill="none" stroke="#000000" points="272,-411.2 272,-433.2 467,-433.2 467,-411.2 272,-411.2"/>
<text text-anchor="start" x="292" y="-418.3" font-family="Helvetica,sans-Serif" font-size="11.00" fill="#000000">management_url</text>
<polygon fill="none" stroke="#000000" points="467,-411.2 467,-433.2 534,-433.2 534,-411.2 467,-411.2"/>
<text text-anchor="start" x="469.9365" y="-418.9" font-family="Helvetica,sans-Serif" font-size="11.00" fill="#000000">varchar[255]</text>
<polygon fill="none" stroke="#000000" points="272,-389.2 272,-411.2 467,-411.2 467,-389.2 272,-389.2"/>
<text text-anchor="start" x="292" y="-396.3" font-family="Helvetica,sans-Serif" font-size="11.00" fill="#000000">surrogate_auth_required</text>
<polygon fill="none" stroke="#000000" points="467,-389.2 467,-411.2 534,-411.2 534,-389.2 467,-389.2"/>
<text text-anchor="start" x="470" y="-396.9" font-family="Helvetica,sans-Serif" font-size="11.00" fill="#000000">bool[1]</text>
<polygon fill="#ffffff" stroke="transparent" points="272,-367.2 272,-389.2 467,-389.2 467,-367.2 272,-367.2"/>
<polygon fill="none" stroke="#000000" points="272,-367.2 272,-389.2 467,-389.2 467,-367.2 272,-367.2"/>
<image xlink:href="../../images/foreignKeys.png" width="11px" height="12px" preserveAspectRatio="xMinYMin meet" x="277" y="-384.2"/>
<text text-anchor="start" x="292" y="-374.3" font-family="Helvetica,sans-Serif" font-size="11.00" fill="#000000">realm_id</text>
<polygon fill="none" stroke="#000000" points="467,-367.2 467,-389.2 534,-389.2 534,-367.2 467,-367.2"/>
<text text-anchor="start" x="470" y="-374.9" font-family="Helvetica,sans-Serif" font-size="11.00" fill="#000000">varchar[36]</text>
<polygon fill="none" stroke="#000000" points="272,-345.2 272,-367.2 467,-367.2 467,-345.2 272,-345.2"/>
<text text-anchor="start" x="292" y="-352.3" font-family="Helvetica,sans-Serif" font-size="11.00" fill="#000000">protocol</text>
<polygon fill="none" stroke="#000000" points="467,-345.2 467,-367.2 534,-367.2 534,-345.2 467,-345.2"/>
<text text-anchor="start" x="469.9365" y="-352.9" font-family="Helvetica,sans-Serif" font-size="11.00" fill="#000000">varchar[255]</text>
<polygon fill="none" stroke="#000000" points="272,-323.2 272,-345.2 467,-345.2 467,-323.2 272,-323.2"/>
<text text-anchor="start" x="292" y="-330.3" font-family="Helvetica,sans-Serif" font-size="11.00" fill="#000000">node_rereg_timeout</text>
<polygon fill="none" stroke="#000000" points="467,-323.2 467,-345.2 534,-345.2 534,-323.2 467,-323.2"/>
<text text-anchor="start" x="470" y="-330.9" font-family="Helvetica,sans-Serif" font-size="11.00" fill="#000000">int4[10]</text>
<polygon fill="none" stroke="#000000" points="272,-301.2 272,-323.2 467,-323.2 467,-301.2 272,-301.2"/>
<text text-anchor="start" x="292" y="-308.3" font-family="Helvetica,sans-Serif" font-size="11.00" fill="#000000">frontchannel_logout</text>
<polygon fill="none" stroke="#000000" points="467,-301.2 467,-323.2 534,-323.2 534,-301.2 467,-301.2"/>
<text text-anchor="start" x="470" y="-308.9" font-family="Helvetica,sans-Serif" font-size="11.00" fill="#000000">bool[1]</text>
<polygon fill="none" stroke="#000000" points="272,-279.2 272,-301.2 467,-301.2 467,-279.2 272,-279.2"/>
<text text-anchor="start" x="292" y="-286.3" font-family="Helvetica,sans-Serif" font-size="11.00" fill="#000000">consent_required</text>
<polygon fill="none" stroke="#000000" points="467,-279.2 467,-301.2 534,-301.2 534,-279.2 467,-279.2"/>
<text text-anchor="start" x="470" y="-286.9" font-family="Helvetica,sans-Serif" font-size="11.00" fill="#000000">bool[1]</text>
<polygon fill="none" stroke="#000000" points="272,-257.2 272,-279.2 467,-279.2 467,-257.2 272,-257.2"/>
<text text-anchor="start" x="292" y="-264.3" font-family="Helvetica,sans-Serif" font-size="11.00" fill="#000000">name</text>
<polygon fill="none" stroke="#000000" points="467,-257.2 467,-279.2 534,-279.2 534,-257.2 467,-257.2"/>
<text text-anchor="start" x="469.9365" y="-264.9" font-family="Helvetica,sans-Serif" font-size="11.00" fill="#000000">varchar[255]</text>
<polygon fill="none" stroke="#000000" points="272,-235.2 272,-257.2 467,-257.2 467,-235.2 272,-235.2"/>
<text text-anchor="start" x="292" y="-242.3" font-family="Helvetica,sans-Serif" font-size="11.00" fill="#000000">service_accounts_enabled</text>
<polygon fill="none" stroke="#000000" points="467,-235.2 467,-257.2 534,-257.2 534,-235.2 467,-235.2"/>
<text text-anchor="start" x="470" y="-242.9" font-family="Helvetica,sans-Serif" font-size="11.00" fill="#000000">bool[1]</text>
<polygon fill="none" stroke="#000000" points="272,-213.2 272,-235.2 467,-235.2 467,-213.2 272,-213.2"/>
<text text-anchor="start" x="292" y="-220.3" font-family="Helvetica,sans-Serif" font-size="11.00" fill="#000000">client_authenticator_type</text>
<polygon fill="none" stroke="#000000" points="467,-213.2 467,-235.2 534,-235.2 534,-213.2 467,-213.2"/>
<text text-anchor="start" x="469.9365" y="-220.9" font-family="Helvetica,sans-Serif" font-size="11.00" fill="#000000">varchar[255]</text>
<polygon fill="none" stroke="#000000" points="272,-191.2 272,-213.2 467,-213.2 467,-191.2 272,-191.2"/>
<text text-anchor="start" x="292" y="-198.3" font-family="Helvetica,sans-Serif" font-size="11.00" fill="#000000">root_url</text>
<polygon fill="none" stroke="#000000" points="467,-191.2 467,-213.2 534,-213.2 534,-191.2 467,-191.2"/>
<text text-anchor="start" x="469.9365" y="-198.9" font-family="Helvetica,sans-Serif" font-size="11.00" fill="#000000">varchar[255]</text>
<polygon fill="none" stroke="#000000" points="272,-169.2 272,-191.2 467,-191.2 467,-169.2 272,-169.2"/>
<text text-anchor="start" x="292" y="-176.3" font-family="Helvetica,sans-Serif" font-size="11.00" fill="#000000">description</text>
<polygon fill="none" stroke="#000000" points="467,-169.2 467,-191.2 534,-191.2 534,-169.2 467,-169.2"/>
<text text-anchor="start" x="469.9365" y="-176.9" font-family="Helvetica,sans-Serif" font-size="11.00" fill="#000000">varchar[255]</text>
<polygon fill="none" stroke="#000000" points="272,-147.2 272,-169.2 467,-169.2 467,-147.2 272,-147.2"/>
<text text-anchor="start" x="292" y="-154.3" font-family="Helvetica,sans-Serif" font-size="11.00" fill="#000000">registration_token</text>
<polygon fill="none" stroke="#000000" points="467,-147.2 467,-169.2 534,-169.2 534,-147.2 467,-147.2"/>
<text text-anchor="start" x="469.9365" y="-154.9" font-family="Helvetica,sans-Serif" font-size="11.00" fill="#000000">varchar[255]</text>
<polygon fill="none" stroke="#000000" points="272,-125.2 272,-147.2 467,-147.2 467,-125.2 272,-125.2"/>
<text text-anchor="start" x="292" y="-132.3" font-family="Helvetica,sans-Serif" font-size="11.00" fill="#000000">standard_flow_enabled</text>
<polygon fill="none" stroke="#000000" points="467,-125.2 467,-147.2 534,-147.2 534,-125.2 467,-125.2"/>
<text text-anchor="start" x="470" y="-132.9" font-family="Helvetica,sans-Serif" font-size="11.00" fill="#000000">bool[1]</text>
<polygon fill="none" stroke="#000000" points="272,-103.2 272,-125.2 467,-125.2 467,-103.2 272,-103.2"/>
<text text-anchor="start" x="292" y="-110.3" font-family="Helvetica,sans-Serif" font-size="11.00" fill="#000000">implicit_flow_enabled</text>
<polygon fill="none" stroke="#000000" points="467,-103.2 467,-125.2 534,-125.2 534,-103.2 467,-103.2"/>
<text text-anchor="start" x="470" y="-110.9" font-family="Helvetica,sans-Serif" font-size="11.00" fill="#000000">bool[1]</text>
<polygon fill="none" stroke="#000000" points="272,-81.2 272,-103.2 467,-103.2 467,-81.2 272,-81.2"/>
<text text-anchor="start" x="292" y="-88.3" font-family="Helvetica,sans-Serif" font-size="11.00" fill="#000000">direct_access_grants_enabled</text>
<polygon fill="none" stroke="#000000" points="467,-81.2 467,-103.2 534,-103.2 534,-81.2 467,-81.2"/>
<text text-anchor="start" x="470" y="-88.9" font-family="Helvetica,sans-Serif" font-size="11.00" fill="#000000">bool[1]</text>
<polygon fill="none" stroke="#000000" points="272,-59.2 272,-81.2 467,-81.2 467,-59.2 272,-59.2"/>
<text text-anchor="start" x="292" y="-66.3" font-family="Helvetica,sans-Serif" font-size="11.00" fill="#000000">always_display_in_console</text>
<polygon fill="none" stroke="#000000" points="467,-59.2 467,-81.2 534,-81.2 534,-59.2 467,-59.2"/>
<text text-anchor="start" x="470" y="-66.9" font-family="Helvetica,sans-Serif" font-size="11.00" fill="#000000">bool[1]</text>
<polygon fill="#ffffff" stroke="transparent" points="272,-40.2 272,-59.2 361,-59.2 361,-40.2 272,-40.2"/>
<polygon fill="none" stroke="#000000" points="272,-40.2 272,-59.2 361,-59.2 361,-40.2 272,-40.2"/>
<text text-anchor="start" x="275" y="-46.3" font-family="Helvetica,sans-Serif" font-size="11.00" fill="#000000">&lt; 1</text>
<polygon fill="#ffffff" stroke="transparent" points="361,-40.2 361,-59.2 467,-59.2 467,-40.2 361,-40.2"/>
<polygon fill="none" stroke="#000000" points="361,-40.2 361,-59.2 467,-59.2 467,-40.2 361,-40.2"/>
<text text-anchor="start" x="431.6105" y="-46.3" font-family="Helvetica,sans-Serif" font-size="11.00" fill="#000000">6 rows</text>
<polygon fill="#ffffff" stroke="transparent" points="467,-40.2 467,-59.2 534,-59.2 534,-40.2 467,-40.2"/>
<polygon fill="none" stroke="#000000" points="467,-40.2 467,-59.2 534,-59.2 534,-40.2 467,-40.2"/>
<text text-anchor="start" x="515.4053" y="-46.3" font-family="Helvetica,sans-Serif" font-size="11.00" fill="#000000">8 &gt;</text>
<polygon fill="none" stroke="#000000" stroke-width="2" points="271,-39.2 271,-655.2 535,-655.2 535,-39.2 271,-39.2"/>
</a>
</g>
</g>
<!-- realm -->
<g id="node2" class="node">
<title>realm</title>
<g id="a_node2"><a xlink:href="../../tables/realm.html" xlink:title="realm" target="_top">
<polygon fill="#ffffff" stroke="transparent" points="8,-285.7 8,-412.7 221,-412.7 221,-285.7 8,-285.7"/>
<polygon fill="#f5f5f5" stroke="transparent" points="8.5,-389.2 8.5,-412.2 221.5,-412.2 221.5,-389.2 8.5,-389.2"/>
<polygon fill="none" stroke="#000000" points="8.5,-389.2 8.5,-412.2 221.5,-412.2 221.5,-389.2 8.5,-389.2"/>
<text text-anchor="start" x="13.5" y="-398.3" font-family="Helvetica,sans-Serif" font-weight="bold" font-size="11.00" fill="#000000">realm</text>
<text text-anchor="start" x="186.5437" y="-397.3" font-family="Helvetica,sans-Serif" font-size="11.00" fill="#000000">[table]</text>
<polygon fill="none" stroke="#000000" points="8.5,-367.2 8.5,-389.2 221.5,-389.2 221.5,-367.2 8.5,-367.2"/>
<image xlink:href="../../images/primaryKeys.png" width="11px" height="12px" preserveAspectRatio="xMinYMin meet" x="13.5" y="-384.2"/>
<text text-anchor="start" x="28.5" y="-374.3" font-family="Helvetica,sans-Serif" font-size="11.00" fill="#000000">id</text>
<polygon fill="#ffffff" stroke="transparent" points="8.5,-345.2 8.5,-367.2 221.5,-367.2 221.5,-345.2 8.5,-345.2"/>
<polygon fill="none" stroke="#000000" points="8.5,-345.2 8.5,-367.2 221.5,-367.2 221.5,-345.2 8.5,-345.2"/>
<text text-anchor="start" x="28.5" y="-352.3" font-family="Helvetica,sans-Serif" font-size="11.00" fill="#000000">name</text>
<polygon fill="#ffffff" stroke="transparent" points="8.5,-323.2 8.5,-345.2 221.5,-345.2 221.5,-323.2 8.5,-323.2"/>
<polygon fill="none" stroke="#000000" points="8.5,-323.2 8.5,-345.2 221.5,-345.2 221.5,-323.2 8.5,-323.2"/>
<text text-anchor="start" x="28.5" y="-330.3" font-family="Helvetica,sans-Serif" font-size="11.00" fill="#000000">master_admin_client</text>
<polygon fill="none" stroke="#000000" points="8.5,-304.2 8.5,-323.2 221.5,-323.2 221.5,-304.2 8.5,-304.2"/>
<text text-anchor="start" x="11.5" y="-310.3" font-family="Helvetica,sans-Serif" font-size="11.00" fill="#000000">...</text>
<polygon fill="#ffffff" stroke="transparent" points="8.5,-285.2 8.5,-304.2 91.5,-304.2 91.5,-285.2 8.5,-285.2"/>
<polygon fill="none" stroke="#000000" points="8.5,-285.2 8.5,-304.2 91.5,-304.2 91.5,-285.2 8.5,-285.2"/>
<text text-anchor="start" x="11.5" y="-291.3" font-family="Helvetica,sans-Serif" font-size="11.00" fill="#000000"> &#160;</text>
<polygon fill="#ffffff" stroke="transparent" points="91.5,-285.2 91.5,-304.2 158.5,-304.2 158.5,-285.2 91.5,-285.2"/>
<polygon fill="none" stroke="#000000" points="91.5,-285.2 91.5,-304.2 158.5,-304.2 158.5,-285.2 91.5,-285.2"/>
<text text-anchor="start" x="128.6105" y="-291.3" font-family="Helvetica,sans-Serif" font-size="11.00" fill="#000000">1 row</text>
<polygon fill="#ffffff" stroke="transparent" points="158.5,-285.2 158.5,-304.2 221.5,-304.2 221.5,-285.2 158.5,-285.2"/>
<polygon fill="none" stroke="#000000" points="158.5,-285.2 158.5,-304.2 221.5,-304.2 221.5,-285.2 158.5,-285.2"/>
<text text-anchor="start" x="196.7904" y="-291.3" font-family="Helvetica,sans-Serif" font-size="11.00" fill="#000000">23 &gt;</text>
</a>
</g>
</g>
<!-- client&#45;&gt;realm -->
<g id="edge1" class="edge">
<title>client:w&#45;&gt;realm:e</title>
<path fill="none" stroke="#000000" d="M257.4203,-378.2C245.5435,-378.2 238.158,-378.2 221.5,-378.2"/>
<polygon fill="#000000" stroke="#000000" points="264,-378.2001 272,-381.8 268,-378.2 272,-378.2 272,-378.2 272,-378.2 268,-378.2 272,-374.6 264,-378.2001 264,-378.2001"/>
<ellipse fill="none" stroke="#000000" cx="260.8" cy="-378.2001" rx="3.2" ry="3.2"/>
</g>
<!-- client_attributes -->
<g id="node3" class="node">
<title>client_attributes</title>
<g id="a_node3"><a xlink:href="../../tables/client_attributes.html" xlink:title="client_attributes" target="_top">
<polygon fill="#ffffff" stroke="transparent" points="608.5,-983.7 608.5,-1088.7 728.5,-1088.7 728.5,-983.7 608.5,-983.7"/>
<polygon fill="#f5f5f5" stroke="transparent" points="608.5,-1065.2 608.5,-1088.2 728.5,-1088.2 728.5,-1065.2 608.5,-1065.2"/>
<polygon fill="none" stroke="#000000" points="608.5,-1065.2 608.5,-1088.2 728.5,-1088.2 728.5,-1065.2 608.5,-1065.2"/>
<text text-anchor="start" x="613.4918" y="-1074.3" font-family="Helvetica,sans-Serif" font-weight="bold" font-size="11.00" fill="#000000">client_attributes</text>
<text text-anchor="start" x="694.0219" y="-1073.3" font-family="Helvetica,sans-Serif" font-size="11.00" fill="#000000">[table]</text>
<polygon fill="none" stroke="#000000" points="608.5,-1043.2 608.5,-1065.2 728.5,-1065.2 728.5,-1043.2 608.5,-1043.2"/>
<image xlink:href="../../images/primaryKeys.png" width="11px" height="12px" preserveAspectRatio="xMinYMin meet" x="613.5" y="-1060.2"/>
<text text-anchor="start" x="632.5" y="-1050.3" font-family="Helvetica,sans-Serif" font-size="11.00" fill="#000000">client_id</text>
<polygon fill="none" stroke="#000000" points="608.5,-1021.2 608.5,-1043.2 728.5,-1043.2 728.5,-1021.2 608.5,-1021.2"/>
<image xlink:href="../../images/primaryKeys.png" width="11px" height="12px" preserveAspectRatio="xMinYMin meet" x="613.5" y="-1038.2"/>
<text text-anchor="start" x="632.5" y="-1028.3" font-family="Helvetica,sans-Serif" font-size="11.00" fill="#000000">name</text>
<polygon fill="none" stroke="#000000" points="608.5,-1002.2 608.5,-1021.2 728.5,-1021.2 728.5,-1002.2 608.5,-1002.2"/>
<text text-anchor="start" x="611.5" y="-1008.3" font-family="Helvetica,sans-Serif" font-size="11.00" fill="#000000">...</text>
<polygon fill="#ffffff" stroke="transparent" points="608.5,-983.2 608.5,-1002.2 653.5,-1002.2 653.5,-983.2 608.5,-983.2"/>
<polygon fill="none" stroke="#000000" points="608.5,-983.2 608.5,-1002.2 653.5,-1002.2 653.5,-983.2 608.5,-983.2"/>
<text text-anchor="start" x="611.5" y="-989.3" font-family="Helvetica,sans-Serif" font-size="11.00" fill="#000000">&lt; 1</text>
<polygon fill="#ffffff" stroke="transparent" points="653.5,-983.2 653.5,-1002.2 703.5,-1002.2 703.5,-983.2 653.5,-983.2"/>
<polygon fill="none" stroke="#000000" points="653.5,-983.2 653.5,-1002.2 703.5,-1002.2 703.5,-983.2 653.5,-983.2"/>
<text text-anchor="start" x="668.1105" y="-989.3" font-family="Helvetica,sans-Serif" font-size="11.00" fill="#000000">2 rows</text>
<polygon fill="#ffffff" stroke="transparent" points="703.5,-983.2 703.5,-1002.2 728.5,-1002.2 728.5,-983.2 703.5,-983.2"/>
<polygon fill="none" stroke="#000000" points="703.5,-983.2 703.5,-1002.2 728.5,-1002.2 728.5,-983.2 703.5,-983.2"/>
<text text-anchor="start" x="719.3862" y="-989.3" font-family="Helvetica,sans-Serif" font-size="11.00" fill="#000000"> &#160;</text>
</a>
</g>
</g>
<!-- client_attributes&#45;&gt;client -->
<g id="edge2" class="edge">
<title>client_attributes:w&#45;&gt;client:e</title>
<path fill="none" stroke="#000000" d="M594.3395,-1050.448C523.2471,-1008.0292 626.5036,-620.2 534,-620.2"/>
<polygon fill="#000000" stroke="#000000" points="600.7668,-1052.151 607.5779,-1057.6799 604.6334,-1053.1755 608.5,-1054.2 608.5,-1054.2 608.5,-1054.2 604.6334,-1053.1755 609.4221,-1050.7201 600.7668,-1052.151 600.7668,-1052.151"/>
<ellipse fill="none" stroke="#000000" cx="597.6736" cy="-1051.3314" rx="3.2" ry="3.2"/>
</g>
<!-- client_default_roles -->
<g id="node4" class="node">
<title>client_default_roles</title>
<g id="a_node4"><a xlink:href="../../tables/client_default_roles.html" xlink:title="client_default_roles" target="_top">
<polygon fill="#ffffff" stroke="transparent" points="600,-876.2 600,-962.2 737,-962.2 737,-876.2 600,-876.2"/>
<polygon fill="#f5f5f5" stroke="transparent" points="600.5,-939.2 600.5,-962.2 737.5,-962.2 737.5,-939.2 600.5,-939.2"/>
<polygon fill="none" stroke="#000000" points="600.5,-939.2 600.5,-962.2 737.5,-962.2 737.5,-939.2 600.5,-939.2"/>
<text text-anchor="start" x="605.1274" y="-948.3" font-family="Helvetica,sans-Serif" font-weight="bold" font-size="11.00" fill="#000000">client_default_roles</text>
<text text-anchor="start" x="703.0219" y="-947.3" font-family="Helvetica,sans-Serif" font-size="11.00" fill="#000000">[table]</text>
<polygon fill="none" stroke="#000000" points="600.5,-917.2 600.5,-939.2 737.5,-939.2 737.5,-917.2 600.5,-917.2"/>
<image xlink:href="../../images/primaryKeys.png" width="11px" height="12px" preserveAspectRatio="xMinYMin meet" x="605.5" y="-934.2"/>
<text text-anchor="start" x="622.5" y="-924.3" font-family="Helvetica,sans-Serif" font-size="11.00" fill="#000000">client_id</text>
<polygon fill="none" stroke="#000000" points="600.5,-895.2 600.5,-917.2 737.5,-917.2 737.5,-895.2 600.5,-895.2"/>
<image xlink:href="../../images/primaryKeys.png" width="11px" height="12px" preserveAspectRatio="xMinYMin meet" x="605.5" y="-912.2"/>
<text text-anchor="start" x="622.5" y="-902.3" font-family="Helvetica,sans-Serif" font-size="11.00" fill="#000000">role_id</text>
<polygon fill="#ffffff" stroke="transparent" points="600.5,-876.2 600.5,-895.2 654.5,-895.2 654.5,-876.2 600.5,-876.2"/>
<polygon fill="none" stroke="#000000" points="600.5,-876.2 600.5,-895.2 654.5,-895.2 654.5,-876.2 600.5,-876.2"/>
<text text-anchor="start" x="603.5" y="-882.3" font-family="Helvetica,sans-Serif" font-size="11.00" fill="#000000">&lt; 1</text>
<polygon fill="#ffffff" stroke="transparent" points="654.5,-876.2 654.5,-895.2 708.5,-895.2 708.5,-876.2 654.5,-876.2"/>
<polygon fill="none" stroke="#000000" points="654.5,-876.2 654.5,-895.2 708.5,-895.2 708.5,-876.2 654.5,-876.2"/>
<text text-anchor="start" x="673.1105" y="-882.3" font-family="Helvetica,sans-Serif" font-size="11.00" fill="#000000">2 rows</text>
<polygon fill="#ffffff" stroke="transparent" points="708.5,-876.2 708.5,-895.2 737.5,-895.2 737.5,-876.2 708.5,-876.2"/>
<polygon fill="none" stroke="#000000" points="708.5,-876.2 708.5,-895.2 737.5,-895.2 737.5,-876.2 708.5,-876.2"/>
<text text-anchor="start" x="728.3862" y="-882.3" font-family="Helvetica,sans-Serif" font-size="11.00" fill="#000000"> &#160;</text>
</a>
</g>
</g>
<!-- client_default_roles&#45;&gt;client -->
<g id="edge3" class="edge">
<title>client_default_roles:w&#45;&gt;client:e</title>
<path fill="none" stroke="#000000" d="M586.871,-923.1111C540.8493,-883.0652 598.6879,-620.2 534,-620.2"/>
<polygon fill="#000000" stroke="#000000" points="593.0054,-925.4015 599.2407,-931.5726 596.7527,-926.8008 600.5,-928.2 600.5,-928.2 600.5,-928.2 596.7527,-926.8008 601.7593,-924.8274 593.0054,-925.4015 593.0054,-925.4015"/>
<ellipse fill="none" stroke="#000000" cx="590.0076" cy="-924.2822" rx="3.2" ry="3.2"/>
</g>
<!-- client_node_registrations -->
<g id="node5" class="node">
<title>client_node_registrations</title>
<g id="a_node5"><a xlink:href="../../tables/client_node_registrations.html" xlink:title="client_node_registrations" target="_top">
<polygon fill="#ffffff" stroke="transparent" points="585,-749.7 585,-854.7 752,-854.7 752,-749.7 585,-749.7"/>
<polygon fill="#f5f5f5" stroke="transparent" points="585.5,-831.2 585.5,-854.2 752.5,-854.2 752.5,-831.2 585.5,-831.2"/>
<polygon fill="none" stroke="#000000" points="585.5,-831.2 585.5,-854.2 752.5,-854.2 752.5,-831.2 585.5,-831.2"/>
<text text-anchor="start" x="590.5" y="-840.3" font-family="Helvetica,sans-Serif" font-weight="bold" font-size="11.00" fill="#000000">client_node_registrations</text>
<text text-anchor="start" x="717.5437" y="-839.3" font-family="Helvetica,sans-Serif" font-size="11.00" fill="#000000">[table]</text>
<polygon fill="none" stroke="#000000" points="585.5,-809.2 585.5,-831.2 752.5,-831.2 752.5,-809.2 585.5,-809.2"/>
<image xlink:href="../../images/primaryKeys.png" width="11px" height="12px" preserveAspectRatio="xMinYMin meet" x="590.5" y="-826.2"/>
<text text-anchor="start" x="605.5" y="-816.3" font-family="Helvetica,sans-Serif" font-size="11.00" fill="#000000">client_id</text>
<polygon fill="none" stroke="#000000" points="585.5,-787.2 585.5,-809.2 752.5,-809.2 752.5,-787.2 585.5,-787.2"/>
<image xlink:href="../../images/primaryKeys.png" width="11px" height="12px" preserveAspectRatio="xMinYMin meet" x="590.5" y="-804.2"/>
<text text-anchor="start" x="605.5" y="-794.3" font-family="Helvetica,sans-Serif" font-size="11.00" fill="#000000">name</text>
<polygon fill="none" stroke="#000000" points="585.5,-768.2 585.5,-787.2 752.5,-787.2 752.5,-768.2 585.5,-768.2"/>
<text text-anchor="start" x="588.5" y="-774.3" font-family="Helvetica,sans-Serif" font-size="11.00" fill="#000000">...</text>
<polygon fill="#ffffff" stroke="transparent" points="585.5,-749.2 585.5,-768.2 654.5,-768.2 654.5,-749.2 585.5,-749.2"/>
<polygon fill="none" stroke="#000000" points="585.5,-749.2 585.5,-768.2 654.5,-768.2 654.5,-749.2 585.5,-749.2"/>
<text text-anchor="start" x="588.5" y="-755.3" font-family="Helvetica,sans-Serif" font-size="11.00" fill="#000000">&lt; 1</text>
<polygon fill="#ffffff" stroke="transparent" points="654.5,-749.2 654.5,-768.2 716.5,-768.2 716.5,-749.2 654.5,-749.2"/>
<polygon fill="none" stroke="#000000" points="654.5,-749.2 654.5,-768.2 716.5,-768.2 716.5,-749.2 654.5,-749.2"/>
<text text-anchor="start" x="681.1105" y="-755.3" font-family="Helvetica,sans-Serif" font-size="11.00" fill="#000000">0 rows</text>
<polygon fill="#ffffff" stroke="transparent" points="716.5,-749.2 716.5,-768.2 752.5,-768.2 752.5,-749.2 716.5,-749.2"/>
<polygon fill="none" stroke="#000000" points="716.5,-749.2 716.5,-768.2 752.5,-768.2 752.5,-749.2 716.5,-749.2"/>
<text text-anchor="start" x="743.3862" y="-755.3" font-family="Helvetica,sans-Serif" font-size="11.00" fill="#000000"> &#160;</text>
</a>
</g>
</g>
<!-- client_node_registrations&#45;&gt;client -->
<g id="edge4" class="edge">
<title>client_node_registrations:w&#45;&gt;client:e</title>
<path fill="none" stroke="#000000" d="M571.1901,-818.0892C508.8845,-796.7144 620.231,-620.2 534,-620.2"/>
<polygon fill="#000000" stroke="#000000" points="577.5856,-819.0325 584.9746,-823.7615 581.5428,-819.6163 585.5,-820.2 585.5,-820.2 585.5,-820.2 581.5428,-819.6163 586.0254,-816.6385 577.5856,-819.0325 577.5856,-819.0325"/>
<ellipse fill="none" stroke="#000000" cx="574.4199" cy="-818.5656" rx="3.2" ry="3.2"/>
</g>
<!-- client_scope_client -->
<g id="node6" class="node">
<title>client_scope_client</title>
<g id="a_node6"><a xlink:href="../../tables/client_scope_client.html" xlink:title="client_scope_client" target="_top">
<polygon fill="#ffffff" stroke="transparent" points="601,-623.7 601,-728.7 736,-728.7 736,-623.7 601,-623.7"/>
<polygon fill="#f5f5f5" stroke="transparent" points="601.5,-705.2 601.5,-728.2 736.5,-728.2 736.5,-705.2 601.5,-705.2"/>
<polygon fill="none" stroke="#000000" points="601.5,-705.2 601.5,-728.2 736.5,-728.2 736.5,-705.2 601.5,-705.2"/>
<text text-anchor="start" x="606.0443" y="-714.3" font-family="Helvetica,sans-Serif" font-weight="bold" font-size="11.00" fill="#000000">client_scope_client</text>
<text text-anchor="start" x="702.0219" y="-713.3" font-family="Helvetica,sans-Serif" font-size="11.00" fill="#000000">[table]</text>
<polygon fill="none" stroke="#000000" points="601.5,-683.2 601.5,-705.2 736.5,-705.2 736.5,-683.2 601.5,-683.2"/>
<image xlink:href="../../images/primaryKeys.png" width="11px" height="12px" preserveAspectRatio="xMinYMin meet" x="606.5" y="-700.2"/>
<text text-anchor="start" x="623.5" y="-690.3" font-family="Helvetica,sans-Serif" font-size="11.00" fill="#000000">client_id</text>
<polygon fill="none" stroke="#000000" points="601.5,-661.2 601.5,-683.2 736.5,-683.2 736.5,-661.2 601.5,-661.2"/>
<image xlink:href="../../images/primaryKeys.png" width="11px" height="12px" preserveAspectRatio="xMinYMin meet" x="606.5" y="-678.2"/>
<text text-anchor="start" x="623.5" y="-668.3" font-family="Helvetica,sans-Serif" font-size="11.00" fill="#000000">scope_id</text>
<polygon fill="none" stroke="#000000" points="601.5,-642.2 601.5,-661.2 736.5,-661.2 736.5,-642.2 601.5,-642.2"/>
<text text-anchor="start" x="604.5" y="-648.3" font-family="Helvetica,sans-Serif" font-size="11.00" fill="#000000">...</text>
<polygon fill="#ffffff" stroke="transparent" points="601.5,-623.2 601.5,-642.2 651.5,-642.2 651.5,-623.2 601.5,-623.2"/>
<polygon fill="none" stroke="#000000" points="601.5,-623.2 601.5,-642.2 651.5,-642.2 651.5,-623.2 601.5,-623.2"/>
<text text-anchor="start" x="604.5" y="-629.3" font-family="Helvetica,sans-Serif" font-size="11.00" fill="#000000">&lt; 2</text>
<polygon fill="#ffffff" stroke="transparent" points="651.5,-623.2 651.5,-642.2 709.5,-642.2 709.5,-623.2 651.5,-623.2"/>
<polygon fill="none" stroke="#000000" points="651.5,-623.2 651.5,-642.2 709.5,-642.2 709.5,-623.2 651.5,-623.2"/>
<text text-anchor="start" x="667.9956" y="-629.3" font-family="Helvetica,sans-Serif" font-size="11.00" fill="#000000">54 rows</text>
<polygon fill="#ffffff" stroke="transparent" points="709.5,-623.2 709.5,-642.2 736.5,-642.2 736.5,-623.2 709.5,-623.2"/>
<polygon fill="none" stroke="#000000" points="709.5,-623.2 709.5,-642.2 736.5,-642.2 736.5,-623.2 709.5,-623.2"/>
<text text-anchor="start" x="727.3862" y="-629.3" font-family="Helvetica,sans-Serif" font-size="11.00" fill="#000000"> &#160;</text>
</a>
</g>
</g>
<!-- client_scope_client&#45;&gt;client -->
<g id="edge5" class="edge">
<title>client_scope_client:w&#45;&gt;client:e</title>
<path fill="none" stroke="#000000" d="M587.2944,-690.8281C561.4377,-676.3515 572.7777,-620.2 534,-620.2"/>
<polygon fill="#000000" stroke="#000000" points="593.7163,-692.3524 600.6686,-697.7027 597.6081,-693.2762 601.5,-694.2 601.5,-694.2 601.5,-694.2 597.6081,-693.2762 602.3314,-690.6973 593.7163,-692.3524 593.7163,-692.3524"/>
<ellipse fill="none" stroke="#000000" cx="590.6028" cy="-691.6133" rx="3.2" ry="3.2"/>
</g>
<!-- protocol_mapper -->
<g id="node7" class="node">
<title>protocol_mapper</title>
<g id="a_node7"><a xlink:href="../../tables/protocol_mapper.html" xlink:title="protocol_mapper" target="_top">
<polygon fill="#ffffff" stroke="transparent" points="590,-475.7 590,-602.7 747,-602.7 747,-475.7 590,-475.7"/>
<polygon fill="#f5f5f5" stroke="transparent" points="590.5,-579.2 590.5,-602.2 747.5,-602.2 747.5,-579.2 590.5,-579.2"/>
<polygon fill="none" stroke="#000000" points="590.5,-579.2 590.5,-602.2 747.5,-602.2 747.5,-579.2 590.5,-579.2"/>
<text text-anchor="start" x="595.5" y="-588.3" font-family="Helvetica,sans-Serif" font-weight="bold" font-size="11.00" fill="#000000">protocol_mapper</text>
<text text-anchor="start" x="712.5437" y="-587.3" font-family="Helvetica,sans-Serif" font-size="11.00" fill="#000000">[table]</text>
<polygon fill="none" stroke="#000000" points="590.5,-557.2 590.5,-579.2 747.5,-579.2 747.5,-557.2 590.5,-557.2"/>
<image xlink:href="../../images/primaryKeys.png" width="11px" height="12px" preserveAspectRatio="xMinYMin meet" x="595.5" y="-574.2"/>
<text text-anchor="start" x="610.5" y="-564.3" font-family="Helvetica,sans-Serif" font-size="11.00" fill="#000000">id</text>
<polygon fill="#ffffff" stroke="transparent" points="590.5,-535.2 590.5,-557.2 747.5,-557.2 747.5,-535.2 590.5,-535.2"/>
<polygon fill="none" stroke="#000000" points="590.5,-535.2 590.5,-557.2 747.5,-557.2 747.5,-535.2 590.5,-535.2"/>
<image xlink:href="../../images/foreignKeys.png" width="11px" height="12px" preserveAspectRatio="xMinYMin meet" x="595.5" y="-552.2"/>
<text text-anchor="start" x="610.5" y="-542.3" font-family="Helvetica,sans-Serif" font-size="11.00" fill="#000000">client_id</text>
<polygon fill="#ffffff" stroke="transparent" points="590.5,-513.2 590.5,-535.2 747.5,-535.2 747.5,-513.2 590.5,-513.2"/>
<polygon fill="none" stroke="#000000" points="590.5,-513.2 590.5,-535.2 747.5,-535.2 747.5,-513.2 590.5,-513.2"/>
<image xlink:href="../../images/foreignKeys.png" width="11px" height="12px" preserveAspectRatio="xMinYMin meet" x="595.5" y="-530.2"/>
<text text-anchor="start" x="610.5" y="-520.3" font-family="Helvetica,sans-Serif" font-size="11.00" fill="#000000">client_scope_id</text>
<polygon fill="none" stroke="#000000" points="590.5,-494.2 590.5,-513.2 747.5,-513.2 747.5,-494.2 590.5,-494.2"/>
<text text-anchor="start" x="593.5" y="-500.3" font-family="Helvetica,sans-Serif" font-size="11.00" fill="#000000">...</text>
<polygon fill="#ffffff" stroke="transparent" points="590.5,-475.2 590.5,-494.2 646.5,-494.2 646.5,-475.2 590.5,-475.2"/>
<polygon fill="none" stroke="#000000" points="590.5,-475.2 590.5,-494.2 646.5,-494.2 646.5,-475.2 590.5,-475.2"/>
<text text-anchor="start" x="593.5" y="-481.3" font-family="Helvetica,sans-Serif" font-size="11.00" fill="#000000">&lt; 2</text>
<polygon fill="#ffffff" stroke="transparent" points="646.5,-475.2 646.5,-494.2 708.5,-494.2 708.5,-475.2 646.5,-475.2"/>
<polygon fill="none" stroke="#000000" points="646.5,-475.2 646.5,-494.2 708.5,-494.2 708.5,-475.2 646.5,-475.2"/>
<text text-anchor="start" x="666.9956" y="-481.3" font-family="Helvetica,sans-Serif" font-size="11.00" fill="#000000">28 rows</text>
<polygon fill="#ffffff" stroke="transparent" points="708.5,-475.2 708.5,-494.2 747.5,-494.2 747.5,-475.2 708.5,-475.2"/>
<polygon fill="none" stroke="#000000" points="708.5,-475.2 708.5,-494.2 747.5,-494.2 747.5,-475.2 708.5,-475.2"/>
<text text-anchor="start" x="728.9053" y="-481.3" font-family="Helvetica,sans-Serif" font-size="11.00" fill="#000000">1 &gt;</text>
</a>
</g>
</g>
<!-- protocol_mapper&#45;&gt;client -->
<g id="edge6" class="edge">
<title>protocol_mapper:w&#45;&gt;client:e</title>
<path fill="none" stroke="#000000" d="M576.3885,-550.3906C555.2982,-566.0448 569.3987,-620.2 534,-620.2"/>
<polygon fill="#000000" stroke="#000000" points="582.831,-548.4774 591.5248,-549.651 586.6655,-547.3387 590.5,-546.2 590.5,-546.2 590.5,-546.2 586.6655,-547.3387 589.4752,-542.749 582.831,-548.4774 582.831,-548.4774"/>
<ellipse fill="none" stroke="#000000" cx="579.7634" cy="-549.3884" rx="3.2" ry="3.2"/>
</g>
<!-- redirect_uris -->
<g id="node8" class="node">
<title>redirect_uris</title>
<g id="a_node8"><a xlink:href="../../tables/redirect_uris.html" xlink:title="redirect_uris" target="_top">
<polygon fill="#ffffff" stroke="transparent" points="617,-368.2 617,-454.2 720,-454.2 720,-368.2 617,-368.2"/>
<polygon fill="#f5f5f5" stroke="transparent" points="617.5,-431.2 617.5,-454.2 720.5,-454.2 720.5,-431.2 617.5,-431.2"/>
<polygon fill="none" stroke="#000000" points="617.5,-431.2 617.5,-454.2 720.5,-454.2 720.5,-431.2 617.5,-431.2"/>
<text text-anchor="start" x="622.2506" y="-440.3" font-family="Helvetica,sans-Serif" font-weight="bold" font-size="11.00" fill="#000000">redirect_uris</text>
<text text-anchor="start" x="686.0219" y="-439.3" font-family="Helvetica,sans-Serif" font-size="11.00" fill="#000000">[table]</text>
<polygon fill="none" stroke="#000000" points="617.5,-409.2 617.5,-431.2 720.5,-431.2 720.5,-409.2 617.5,-409.2"/>
<image xlink:href="../../images/primaryKeys.png" width="11px" height="12px" preserveAspectRatio="xMinYMin meet" x="622.5" y="-426.2"/>
<text text-anchor="start" x="642.5" y="-416.3" font-family="Helvetica,sans-Serif" font-size="11.00" fill="#000000">client_id</text>
<polygon fill="none" stroke="#000000" points="617.5,-387.2 617.5,-409.2 720.5,-409.2 720.5,-387.2 617.5,-387.2"/>
<image xlink:href="../../images/primaryKeys.png" width="11px" height="12px" preserveAspectRatio="xMinYMin meet" x="622.5" y="-404.2"/>
<text text-anchor="start" x="642.5" y="-394.3" font-family="Helvetica,sans-Serif" font-size="11.00" fill="#000000">value</text>
<polygon fill="#ffffff" stroke="transparent" points="617.5,-368.2 617.5,-387.2 654.5,-387.2 654.5,-368.2 617.5,-368.2"/>
<polygon fill="none" stroke="#000000" points="617.5,-368.2 617.5,-387.2 654.5,-387.2 654.5,-368.2 617.5,-368.2"/>
<text text-anchor="start" x="620.5" y="-374.3" font-family="Helvetica,sans-Serif" font-size="11.00" fill="#000000">&lt; 1</text>
<polygon fill="#ffffff" stroke="transparent" points="654.5,-368.2 654.5,-387.2 700.5,-387.2 700.5,-368.2 654.5,-368.2"/>
<polygon fill="none" stroke="#000000" points="654.5,-368.2 654.5,-387.2 700.5,-387.2 700.5,-368.2 654.5,-368.2"/>
<text text-anchor="start" x="665.1105" y="-374.3" font-family="Helvetica,sans-Serif" font-size="11.00" fill="#000000">3 rows</text>
<polygon fill="#ffffff" stroke="transparent" points="700.5,-368.2 700.5,-387.2 720.5,-387.2 720.5,-368.2 700.5,-368.2"/>
<polygon fill="none" stroke="#000000" points="700.5,-368.2 700.5,-387.2 720.5,-387.2 720.5,-368.2 700.5,-368.2"/>
<text text-anchor="start" x="711.3862" y="-374.3" font-family="Helvetica,sans-Serif" font-size="11.00" fill="#000000"> &#160;</text>
</a>
</g>
</g>
<!-- redirect_uris&#45;&gt;client -->
<g id="edge7" class="edge">
<title>redirect_uris:w&#45;&gt;client:e</title>
<path fill="none" stroke="#000000" d="M603.2077,-423.0721C589.7194,-429.6708 587.1098,-446.7694 577,-465.2 542.618,-527.8801 605.4907,-620.2 534,-620.2"/>
<polygon fill="#000000" stroke="#000000" points="609.6568,-421.7762 618.2093,-423.7294 613.5784,-420.9881 617.5,-420.2 617.5,-420.2 617.5,-420.2 613.5784,-420.9881 616.7907,-416.6706 609.6568,-421.7762 609.6568,-421.7762"/>
<ellipse fill="none" stroke="#000000" cx="606.5195" cy="-422.4066" rx="3.2" ry="3.2"/>
</g>
<!-- scope_mapping -->
<g id="node9" class="node">
<title>scope_mapping</title>
<g id="a_node9"><a xlink:href="../../tables/scope_mapping.html" xlink:title="scope_mapping" target="_top">
<polygon fill="#ffffff" stroke="transparent" points="608.5,-261.2 608.5,-347.2 728.5,-347.2 728.5,-261.2 608.5,-261.2"/>
<polygon fill="#f5f5f5" stroke="transparent" points="608.5,-324.2 608.5,-347.2 728.5,-347.2 728.5,-324.2 608.5,-324.2"/>
<polygon fill="none" stroke="#000000" points="608.5,-324.2 608.5,-347.2 728.5,-347.2 728.5,-324.2 608.5,-324.2"/>
<text text-anchor="start" x="613.1816" y="-333.3" font-family="Helvetica,sans-Serif" font-weight="bold" font-size="11.00" fill="#000000">scope_mapping</text>
<text text-anchor="start" x="694.0219" y="-332.3" font-family="Helvetica,sans-Serif" font-size="11.00" fill="#000000">[table]</text>
<polygon fill="none" stroke="#000000" points="608.5,-302.2 608.5,-324.2 728.5,-324.2 728.5,-302.2 608.5,-302.2"/>
<image xlink:href="../../images/primaryKeys.png" width="11px" height="12px" preserveAspectRatio="xMinYMin meet" x="613.5" y="-319.2"/>
<text text-anchor="start" x="632.5" y="-309.3" font-family="Helvetica,sans-Serif" font-size="11.00" fill="#000000">client_id</text>
<polygon fill="none" stroke="#000000" points="608.5,-280.2 608.5,-302.2 728.5,-302.2 728.5,-280.2 608.5,-280.2"/>
<image xlink:href="../../images/primaryKeys.png" width="11px" height="12px" preserveAspectRatio="xMinYMin meet" x="613.5" y="-297.2"/>
<text text-anchor="start" x="632.5" y="-287.3" font-family="Helvetica,sans-Serif" font-size="11.00" fill="#000000">role_id</text>
<polygon fill="#ffffff" stroke="transparent" points="608.5,-261.2 608.5,-280.2 656.5,-280.2 656.5,-261.2 608.5,-261.2"/>
<polygon fill="none" stroke="#000000" points="608.5,-261.2 608.5,-280.2 656.5,-280.2 656.5,-261.2 608.5,-261.2"/>
<text text-anchor="start" x="611.5" y="-267.3" font-family="Helvetica,sans-Serif" font-size="11.00" fill="#000000">&lt; 1</text>
<polygon fill="#ffffff" stroke="transparent" points="656.5,-261.2 656.5,-280.2 702.5,-280.2 702.5,-261.2 656.5,-261.2"/>
<polygon fill="none" stroke="#000000" points="656.5,-261.2 656.5,-280.2 702.5,-280.2 702.5,-261.2 656.5,-261.2"/>
<text text-anchor="start" x="672.6105" y="-267.3" font-family="Helvetica,sans-Serif" font-size="11.00" fill="#000000">1 row</text>
<polygon fill="#ffffff" stroke="transparent" points="702.5,-261.2 702.5,-280.2 728.5,-280.2 728.5,-261.2 702.5,-261.2"/>
<polygon fill="none" stroke="#000000" points="702.5,-261.2 702.5,-280.2 728.5,-280.2 728.5,-261.2 702.5,-261.2"/>
<text text-anchor="start" x="719.3862" y="-267.3" font-family="Helvetica,sans-Serif" font-size="11.00" fill="#000000"> &#160;</text>
</a>
</g>
</g>
<!-- scope_mapping&#45;&gt;client -->
<g id="edge8" class="edge">
<title>scope_mapping:w&#45;&gt;client:e</title>
<path fill="none" stroke="#000000" d="M594.5736,-317.0517C584.439,-324.4086 583.9052,-341.2422 577,-358.2 554.7487,-412.8444 593.0012,-620.2 534,-620.2"/>
<polygon fill="#000000" stroke="#000000" points="600.7895,-315.3326 609.4597,-316.6697 604.6447,-314.2663 608.5,-313.2 608.5,-313.2 608.5,-313.2 604.6447,-314.2663 607.5403,-309.7303 600.7895,-315.3326 600.7895,-315.3326"/>
<ellipse fill="none" stroke="#000000" cx="597.7052" cy="-316.1856" rx="3.2" ry="3.2"/>
</g>
<!-- web_origins -->
<g id="node10" class="node">
<title>web_origins</title>
<g id="a_node10"><a xlink:href="../../tables/web_origins.html" xlink:title="web_origins" target="_top">
<polygon fill="#ffffff" stroke="transparent" points="618,-154.2 618,-240.2 719,-240.2 719,-154.2 618,-154.2"/>
<polygon fill="#f5f5f5" stroke="transparent" points="618.5,-217.2 618.5,-240.2 719.5,-240.2 719.5,-217.2 618.5,-217.2"/>
<polygon fill="none" stroke="#000000" points="618.5,-217.2 618.5,-240.2 719.5,-240.2 719.5,-217.2 618.5,-217.2"/>
<text text-anchor="start" x="623.163" y="-226.3" font-family="Helvetica,sans-Serif" font-weight="bold" font-size="11.00" fill="#000000">web_origins</text>
<text text-anchor="start" x="685.0219" y="-225.3" font-family="Helvetica,sans-Serif" font-size="11.00" fill="#000000">[table]</text>
<polygon fill="none" stroke="#000000" points="618.5,-195.2 618.5,-217.2 719.5,-217.2 719.5,-195.2 618.5,-195.2"/>
<image xlink:href="../../images/primaryKeys.png" width="11px" height="12px" preserveAspectRatio="xMinYMin meet" x="623.5" y="-212.2"/>
<text text-anchor="start" x="643.5" y="-202.3" font-family="Helvetica,sans-Serif" font-size="11.00" fill="#000000">client_id</text>
<polygon fill="none" stroke="#000000" points="618.5,-173.2 618.5,-195.2 719.5,-195.2 719.5,-173.2 618.5,-173.2"/>
<image xlink:href="../../images/primaryKeys.png" width="11px" height="12px" preserveAspectRatio="xMinYMin meet" x="623.5" y="-190.2"/>
<text text-anchor="start" x="643.5" y="-180.3" font-family="Helvetica,sans-Serif" font-size="11.00" fill="#000000">value</text>
<polygon fill="#ffffff" stroke="transparent" points="618.5,-154.2 618.5,-173.2 657.5,-173.2 657.5,-154.2 618.5,-154.2"/>
<polygon fill="none" stroke="#000000" points="618.5,-154.2 618.5,-173.2 657.5,-173.2 657.5,-154.2 618.5,-154.2"/>
<text text-anchor="start" x="621.5" y="-160.3" font-family="Helvetica,sans-Serif" font-size="11.00" fill="#000000">&lt; 1</text>
<polygon fill="#ffffff" stroke="transparent" points="657.5,-154.2 657.5,-173.2 698.5,-173.2 698.5,-154.2 657.5,-154.2"/>
<polygon fill="none" stroke="#000000" points="657.5,-154.2 657.5,-173.2 698.5,-173.2 698.5,-154.2 657.5,-154.2"/>
<text text-anchor="start" x="668.6105" y="-160.3" font-family="Helvetica,sans-Serif" font-size="11.00" fill="#000000">1 row</text>
<polygon fill="#ffffff" stroke="transparent" points="698.5,-154.2 698.5,-173.2 719.5,-173.2 719.5,-154.2 698.5,-154.2"/>
<polygon fill="none" stroke="#000000" points="698.5,-154.2 698.5,-173.2 719.5,-173.2 719.5,-154.2 698.5,-154.2"/>
<text text-anchor="start" x="710.3862" y="-160.3" font-family="Helvetica,sans-Serif" font-size="11.00" fill="#000000"> &#160;</text>
</a>
</g>
</g>
<!-- web_origins&#45;&gt;client -->
<g id="edge9" class="edge">
<title>web_origins:w&#45;&gt;client:e</title>
<path fill="none" stroke="#000000" d="M604.2158,-208.7579C589.6788,-214.9517 585.9587,-231.6909 577,-251.2 542.549,-326.2229 616.5549,-620.2 534,-620.2"/>
<polygon fill="#000000" stroke="#000000" points="610.6253,-207.6102 619.1346,-209.7436 614.5626,-206.9051 618.5,-206.2 618.5,-206.2 618.5,-206.2 614.5626,-206.9051 617.8654,-202.6564 610.6253,-207.6102 610.6253,-207.6102"/>
<ellipse fill="none" stroke="#000000" cx="607.4754" cy="-208.1743" rx="3.2" ry="3.2"/>
</g>
</g>
</svg>
