<?xml version="1.0" encoding="UTF-8" standalone="no"?>
<!DOCTYPE svg PUBLIC "-//W3C//DTD SVG 1.1//EN"
 "http://www.w3.org/Graphics/SVG/1.1/DTD/svg11.dtd">
<!-- Generated by graphviz version 2.40.1 (20161225.0304)
 -->
<!-- Title: twoDegreesRelationshipsDiagramImplied Pages: 1 -->
<svg width="631pt" height="715pt"
 viewBox="0.00 0.00 631.00 715.20" xmlns="http://www.w3.org/2000/svg" xmlns:xlink="http://www.w3.org/1999/xlink">
<g id="graph0" class="graph" transform="scale(1 1) rotate(0) translate(4 711.2)">
<title>twoDegreesRelationshipsDiagramImplied</title>
<polygon fill="#ffffff" stroke="transparent" points="-4,4 -4,-711.2 627,-711.2 627,4 -4,4"/>
<text text-anchor="middle" x="72.4936" y="-7.3" font-family="Helvetica,sans-Serif" font-size="11.00" fill="#000000">Generated by SchemaSpy</text>
<!-- client -->
<g id="node1" class="node">
<title>client</title>
<g id="a_node1"><a xlink:href="../../tables/client.html" xlink:title="client" target="_top">
<polygon fill="#ffffff" stroke="transparent" points="173,-260.2 173,-387.2 368,-387.2 368,-260.2 173,-260.2"/>
<polygon fill="#f5f5f5" stroke="transparent" points="173.5,-363.7 173.5,-386.7 368.5,-386.7 368.5,-363.7 173.5,-363.7"/>
<polygon fill="none" stroke="#000000" points="173.5,-363.7 173.5,-386.7 368.5,-386.7 368.5,-363.7 173.5,-363.7"/>
<text text-anchor="start" x="178.5" y="-372.8" font-family="Helvetica,sans-Serif" font-weight="bold" font-size="11.00" fill="#000000">client</text>
<text text-anchor="start" x="333.5437" y="-371.8" font-family="Helvetica,sans-Serif" font-size="11.00" fill="#000000">[table]</text>
<polygon fill="none" stroke="#000000" points="173.5,-341.7 173.5,-363.7 368.5,-363.7 368.5,-341.7 173.5,-341.7"/>
<image xlink:href="../../images/primaryKeys.png" width="11px" height="12px" preserveAspectRatio="xMinYMin meet" x="178.5" y="-358.7"/>
<text text-anchor="start" x="193.5" y="-348.8" font-family="Helvetica,sans-Serif" font-size="11.00" fill="#000000">id</text>
<polygon fill="#ffffff" stroke="transparent" points="173.5,-319.7 173.5,-341.7 368.5,-341.7 368.5,-319.7 173.5,-319.7"/>
<polygon fill="none" stroke="#000000" points="173.5,-319.7 173.5,-341.7 368.5,-341.7 368.5,-319.7 173.5,-319.7"/>
<image xlink:href="../../images/foreignKeys.png" width="11px" height="12px" preserveAspectRatio="xMinYMin meet" x="178.5" y="-336.7"/>
<text text-anchor="start" x="193.5" y="-326.8" font-family="Helvetica,sans-Serif" font-size="11.00" fill="#000000">client_id</text>
<polygon fill="#ffffff" stroke="transparent" points="173.5,-297.7 173.5,-319.7 368.5,-319.7 368.5,-297.7 173.5,-297.7"/>
<polygon fill="none" stroke="#000000" points="173.5,-297.7 173.5,-319.7 368.5,-319.7 368.5,-297.7 173.5,-297.7"/>
<image xlink:href="../../images/foreignKeys.png" width="11px" height="12px" preserveAspectRatio="xMinYMin meet" x="178.5" y="-314.7"/>
<text text-anchor="start" x="193.5" y="-304.8" font-family="Helvetica,sans-Serif" font-size="11.00" fill="#000000">realm_id</text>
<polygon fill="none" stroke="#000000" points="173.5,-278.7 173.5,-297.7 368.5,-297.7 368.5,-278.7 173.5,-278.7"/>
<text text-anchor="start" x="176.5" y="-284.8" font-family="Helvetica,sans-Serif" font-size="11.00" fill="#000000">...</text>
<polygon fill="#ffffff" stroke="transparent" points="173.5,-259.7 173.5,-278.7 251.5,-278.7 251.5,-259.7 173.5,-259.7"/>
<polygon fill="none" stroke="#000000" points="173.5,-259.7 173.5,-278.7 251.5,-278.7 251.5,-259.7 173.5,-259.7"/>
<text text-anchor="start" x="176.5" y="-265.8" font-family="Helvetica,sans-Serif" font-size="11.00" fill="#000000">&lt; 2</text>
<polygon fill="#ffffff" stroke="transparent" points="251.5,-259.7 251.5,-278.7 318.5,-278.7 318.5,-259.7 251.5,-259.7"/>
<polygon fill="none" stroke="#000000" points="251.5,-259.7 251.5,-278.7 318.5,-278.7 318.5,-259.7 251.5,-259.7"/>
<text text-anchor="start" x="283.1105" y="-265.8" font-family="Helvetica,sans-Serif" font-size="11.00" fill="#000000">6 rows</text>
<polygon fill="#ffffff" stroke="transparent" points="318.5,-259.7 318.5,-278.7 368.5,-278.7 368.5,-259.7 318.5,-259.7"/>
<polygon fill="none" stroke="#000000" points="318.5,-259.7 318.5,-278.7 368.5,-278.7 368.5,-259.7 318.5,-259.7"/>
<text text-anchor="start" x="349.9053" y="-265.8" font-family="Helvetica,sans-Serif" font-size="11.00" fill="#000000">8 &gt;</text>
</a>
</g>
</g>
<!-- federated_user -->
<g id="node2" class="node">
<title>federated_user</title>
<g id="a_node2"><a xlink:href="../../tables/federated_user.html" xlink:title="federated_user" target="_top">
<polygon fill="#ffffff" stroke="transparent" points="8,-333.2 8,-394.2 124,-394.2 124,-333.2 8,-333.2"/>
<polygon fill="#f5f5f5" stroke="transparent" points="8,-370.7 8,-393.7 124,-393.7 124,-370.7 8,-370.7"/>
<polygon fill="none" stroke="#000000" points="8,-370.7 8,-393.7 124,-393.7 124,-370.7 8,-370.7"/>
<text text-anchor="start" x="12.5142" y="-379.8" font-family="Helvetica,sans-Serif" font-weight="bold" font-size="11.00" fill="#000000">federated_user</text>
<text text-anchor="start" x="89.5219" y="-378.8" font-family="Helvetica,sans-Serif" font-size="11.00" fill="#000000">[table]</text>
<polygon fill="none" stroke="#000000" points="8,-351.7 8,-370.7 124,-370.7 124,-351.7 8,-351.7"/>
<text text-anchor="start" x="11" y="-357.8" font-family="Helvetica,sans-Serif" font-size="11.00" fill="#000000">...</text>
<polygon fill="#ffffff" stroke="transparent" points="8,-332.7 8,-351.7 39,-351.7 39,-332.7 8,-332.7"/>
<polygon fill="none" stroke="#000000" points="8,-332.7 8,-351.7 39,-351.7 39,-332.7 8,-332.7"/>
<text text-anchor="start" x="11" y="-338.8" font-family="Helvetica,sans-Serif" font-size="11.00" fill="#000000"> &#160;</text>
<polygon fill="#ffffff" stroke="transparent" points="39,-332.7 39,-351.7 87,-351.7 87,-332.7 39,-332.7"/>
<polygon fill="none" stroke="#000000" points="39,-332.7 39,-351.7 87,-351.7 87,-332.7 39,-332.7"/>
<text text-anchor="start" x="51.6105" y="-338.8" font-family="Helvetica,sans-Serif" font-size="11.00" fill="#000000">0 rows</text>
<polygon fill="#ffffff" stroke="transparent" points="87,-332.7 87,-351.7 124,-351.7 124,-332.7 87,-332.7"/>
<polygon fill="none" stroke="#000000" points="87,-332.7 87,-351.7 124,-351.7 124,-332.7 87,-332.7"/>
<text text-anchor="start" x="99.2904" y="-338.8" font-family="Helvetica,sans-Serif" font-size="11.00" fill="#000000">30 &gt;</text>
</a>
</g>
</g>
<!-- client&#45;&gt;federated_user -->
<g id="edge1" class="edge">
<title>client:w&#45;&gt;federated_user:e</title>
<path fill="none" stroke="#000000" stroke-dasharray="5,2" d="M159.633,-334.622C147.238,-342.7538 143.8967,-360.7 124,-360.7"/>
<polygon fill="#000000" stroke="#000000" points="165.802,-332.8773 174.4798,-334.1641 169.651,-331.7886 173.5,-330.7 173.5,-330.7 173.5,-330.7 169.651,-331.7886 172.5202,-327.2359 165.802,-332.8773 165.802,-332.8773"/>
<ellipse fill="none" stroke="#000000" cx="162.7228" cy="-333.7482" rx="3.2" ry="3.2"/>
</g>
<!-- realm -->
<g id="node3" class="node">
<title>realm</title>
<g id="a_node3"><a xlink:href="../../tables/realm.html" xlink:title="realm" target="_top">
<polygon fill="#ffffff" stroke="transparent" points="30.5,-251.2 30.5,-312.2 101.5,-312.2 101.5,-251.2 30.5,-251.2"/>
<polygon fill="#f5f5f5" stroke="transparent" points="31,-288.7 31,-311.7 102,-311.7 102,-288.7 31,-288.7"/>
<polygon fill="none" stroke="#000000" points="31,-288.7 31,-311.7 102,-311.7 102,-288.7 31,-288.7"/>
<text text-anchor="start" x="36" y="-297.8" font-family="Helvetica,sans-Serif" font-weight="bold" font-size="11.00" fill="#000000">realm</text>
<text text-anchor="start" x="67.5219" y="-296.8" font-family="Helvetica,sans-Serif" font-size="11.00" fill="#000000">[table]</text>
<polygon fill="none" stroke="#000000" points="31,-269.7 31,-288.7 102,-288.7 102,-269.7 31,-269.7"/>
<text text-anchor="start" x="34" y="-275.8" font-family="Helvetica,sans-Serif" font-size="11.00" fill="#000000">...</text>
<polygon fill="#ffffff" stroke="transparent" points="31,-250.7 31,-269.7 43,-269.7 43,-250.7 31,-250.7"/>
<polygon fill="none" stroke="#000000" points="31,-250.7 31,-269.7 43,-269.7 43,-250.7 31,-250.7"/>
<text text-anchor="start" x="33.9431" y="-256.8" font-family="Helvetica,sans-Serif" font-size="11.00" fill="#000000"> &#160;</text>
<polygon fill="#ffffff" stroke="transparent" points="43,-250.7 43,-269.7 75,-269.7 75,-250.7 43,-250.7"/>
<polygon fill="none" stroke="#000000" points="43,-250.7 43,-269.7 75,-269.7 75,-250.7 43,-250.7"/>
<text text-anchor="start" x="45.5553" y="-256.8" font-family="Helvetica,sans-Serif" font-size="11.00" fill="#000000">1 row</text>
<polygon fill="#ffffff" stroke="transparent" points="75,-250.7 75,-269.7 102,-269.7 102,-250.7 75,-250.7"/>
<polygon fill="none" stroke="#000000" points="75,-250.7 75,-269.7 102,-269.7 102,-250.7 75,-250.7"/>
<text text-anchor="start" x="77.6452" y="-256.8" font-family="Helvetica,sans-Serif" font-size="11.00" fill="#000000">23 &gt;</text>
</a>
</g>
</g>
<!-- client&#45;&gt;realm -->
<g id="edge2" class="edge">
<title>client:w&#45;&gt;realm:e</title>
<path fill="none" stroke="#000000" d="M159.1338,-306.638C137.3952,-299.8601 130.9424,-278.7 102,-278.7"/>
<polygon fill="#000000" stroke="#000000" points="165.5812,-307.5633 172.9885,-312.2635 169.5406,-308.1317 173.5,-308.7 173.5,-308.7 173.5,-308.7 169.5406,-308.1317 174.0115,-305.1365 165.5812,-307.5633 165.5812,-307.5633"/>
<ellipse fill="none" stroke="#000000" cx="162.4136" cy="-307.1087" rx="3.2" ry="3.2"/>
</g>
<!-- client_attributes -->
<g id="node4" class="node">
<title>client_attributes</title>
<g id="a_node4"><a xlink:href="../../tables/client_attributes.html" xlink:title="client_attributes" target="_top">
<polygon fill="#ffffff" stroke="transparent" points="456,-642.2 456,-703.2 576,-703.2 576,-642.2 456,-642.2"/>
<polygon fill="#f5f5f5" stroke="transparent" points="456,-679.7 456,-702.7 576,-702.7 576,-679.7 456,-679.7"/>
<polygon fill="none" stroke="#000000" points="456,-679.7 456,-702.7 576,-702.7 576,-679.7 456,-679.7"/>
<text text-anchor="start" x="460.9918" y="-688.8" font-family="Helvetica,sans-Serif" font-weight="bold" font-size="11.00" fill="#000000">client_attributes</text>
<text text-anchor="start" x="541.5219" y="-687.8" font-family="Helvetica,sans-Serif" font-size="11.00" fill="#000000">[table]</text>
<polygon fill="none" stroke="#000000" points="456,-660.7 456,-679.7 576,-679.7 576,-660.7 456,-660.7"/>
<text text-anchor="start" x="459" y="-666.8" font-family="Helvetica,sans-Serif" font-size="11.00" fill="#000000">...</text>
<polygon fill="#ffffff" stroke="transparent" points="456,-641.7 456,-660.7 501,-660.7 501,-641.7 456,-641.7"/>
<polygon fill="none" stroke="#000000" points="456,-641.7 456,-660.7 501,-660.7 501,-641.7 456,-641.7"/>
<text text-anchor="start" x="459" y="-647.8" font-family="Helvetica,sans-Serif" font-size="11.00" fill="#000000">&lt; 1</text>
<polygon fill="#ffffff" stroke="transparent" points="501,-641.7 501,-660.7 551,-660.7 551,-641.7 501,-641.7"/>
<polygon fill="none" stroke="#000000" points="501,-641.7 501,-660.7 551,-660.7 551,-641.7 501,-641.7"/>
<text text-anchor="start" x="515.6105" y="-647.8" font-family="Helvetica,sans-Serif" font-size="11.00" fill="#000000">2 rows</text>
<polygon fill="#ffffff" stroke="transparent" points="551,-641.7 551,-660.7 576,-660.7 576,-641.7 551,-641.7"/>
<polygon fill="none" stroke="#000000" points="551,-641.7 551,-660.7 576,-660.7 576,-641.7 551,-641.7"/>
<text text-anchor="start" x="566.8862" y="-647.8" font-family="Helvetica,sans-Serif" font-size="11.00" fill="#000000"> &#160;</text>
</a>
</g>
</g>
<!-- client_attributes&#45;&gt;client -->
<g id="edge3" class="edge">
<title>client_attributes:w&#45;&gt;client:e</title>
<path fill="none" stroke="#000000" d="M441.4245,-667.7997C425.962,-663.1306 419.4862,-650.1203 409,-631.7 378.0054,-577.2543 431.1498,-352.7 368.5,-352.7"/>
<polygon fill="#000000" stroke="#000000" points="448.0671,-668.6657 455.5346,-673.2698 452.0336,-669.1829 456,-669.7 456,-669.7 456,-669.7 452.0336,-669.1829 456.4654,-666.1302 448.0671,-668.6657 448.0671,-668.6657"/>
<ellipse fill="none" stroke="#000000" cx="444.894" cy="-668.252" rx="3.2" ry="3.2"/>
</g>
<!-- client_default_roles -->
<g id="node5" class="node">
<title>client_default_roles</title>
<g id="a_node5"><a xlink:href="../../tables/client_default_roles.html" xlink:title="client_default_roles" target="_top">
<polygon fill="#ffffff" stroke="transparent" points="417,-530.7 417,-620.7 615,-620.7 615,-530.7 417,-530.7"/>
<polygon fill="#f5f5f5" stroke="transparent" points="419,-595.7 419,-618.7 613,-618.7 613,-595.7 419,-595.7"/>
<polygon fill="none" stroke="#000000" points="419,-595.7 419,-618.7 613,-618.7 613,-595.7 419,-595.7"/>
<text text-anchor="start" x="424" y="-604.8" font-family="Helvetica,sans-Serif" font-weight="bold" font-size="11.00" fill="#000000">client_default_roles</text>
<text text-anchor="start" x="578.0437" y="-603.8" font-family="Helvetica,sans-Serif" font-size="11.00" fill="#000000">[table]</text>
<polygon fill="none" stroke="#000000" points="419,-573.7 419,-595.7 552,-595.7 552,-573.7 419,-573.7"/>
<image xlink:href="../../images/primaryKeys.png" width="11px" height="12px" preserveAspectRatio="xMinYMin meet" x="424" y="-590.7"/>
<text text-anchor="start" x="439" y="-580.8" font-family="Helvetica,sans-Serif" font-size="11.00" fill="#000000">client_id</text>
<polygon fill="none" stroke="#000000" points="552,-573.7 552,-595.7 613,-595.7 613,-573.7 552,-573.7"/>
<text text-anchor="start" x="554.994" y="-581.4" font-family="Helvetica,sans-Serif" font-size="11.00" fill="#000000">varchar[36]</text>
<polygon fill="none" stroke="#000000" points="419,-551.7 419,-573.7 552,-573.7 552,-551.7 419,-551.7"/>
<image xlink:href="../../images/primaryKeys.png" width="11px" height="12px" preserveAspectRatio="xMinYMin meet" x="424" y="-568.7"/>
<text text-anchor="start" x="439" y="-558.8" font-family="Helvetica,sans-Serif" font-size="11.00" fill="#000000">role_id</text>
<polygon fill="none" stroke="#000000" points="552,-551.7 552,-573.7 613,-573.7 613,-551.7 552,-551.7"/>
<text text-anchor="start" x="554.994" y="-559.4" font-family="Helvetica,sans-Serif" font-size="11.00" fill="#000000">varchar[36]</text>
<polygon fill="#ffffff" stroke="transparent" points="419,-532.7 419,-551.7 477,-551.7 477,-532.7 419,-532.7"/>
<polygon fill="none" stroke="#000000" points="419,-532.7 419,-551.7 477,-551.7 477,-532.7 419,-532.7"/>
<text text-anchor="start" x="422" y="-538.8" font-family="Helvetica,sans-Serif" font-size="11.00" fill="#000000">&lt; 1</text>
<polygon fill="#ffffff" stroke="transparent" points="477,-532.7 477,-551.7 552,-551.7 552,-532.7 477,-532.7"/>
<polygon fill="none" stroke="#000000" points="477,-532.7 477,-551.7 552,-551.7 552,-532.7 477,-532.7"/>
<text text-anchor="start" x="516.6105" y="-538.8" font-family="Helvetica,sans-Serif" font-size="11.00" fill="#000000">2 rows</text>
<polygon fill="#ffffff" stroke="transparent" points="552,-532.7 552,-551.7 613,-551.7 613,-532.7 552,-532.7"/>
<polygon fill="none" stroke="#000000" points="552,-532.7 552,-551.7 613,-551.7 613,-532.7 552,-532.7"/>
<text text-anchor="start" x="594.4053" y="-538.8" font-family="Helvetica,sans-Serif" font-size="11.00" fill="#000000">0 &gt;</text>
<polygon fill="none" stroke="#000000" stroke-width="2" points="418,-531.7 418,-619.7 614,-619.7 614,-531.7 418,-531.7"/>
</a>
</g>
</g>
<!-- client_default_roles&#45;&gt;client -->
<g id="edge4" class="edge">
<title>client_default_roles:w&#45;&gt;client:e</title>
<path fill="none" stroke="#000000" d="M404.4473,-582.8325C329.6676,-560.8764 468.4608,-352.7 368.5,-352.7"/>
<polygon fill="#000000" stroke="#000000" points="411.0651,-583.6817 418.5418,-588.2707 415.0325,-584.1909 419,-584.7 419,-584.7 419,-584.7 415.0325,-584.1909 419.4582,-581.1293 411.0651,-583.6817 411.0651,-583.6817"/>
<ellipse fill="none" stroke="#000000" cx="407.8911" cy="-583.2744" rx="3.2" ry="3.2"/>
</g>
<!-- client_node_registrations -->
<g id="node6" class="node">
<title>client_node_registrations</title>
<g id="a_node6"><a xlink:href="../../tables/client_node_registrations.html" xlink:title="client_node_registrations" target="_top">
<polygon fill="#ffffff" stroke="transparent" points="433.5,-448.2 433.5,-509.2 598.5,-509.2 598.5,-448.2 433.5,-448.2"/>
<polygon fill="#f5f5f5" stroke="transparent" points="434,-485.7 434,-508.7 599,-508.7 599,-485.7 434,-485.7"/>
<polygon fill="none" stroke="#000000" points="434,-485.7 434,-508.7 599,-508.7 599,-485.7 434,-485.7"/>
<text text-anchor="start" x="438.8741" y="-494.8" font-family="Helvetica,sans-Serif" font-weight="bold" font-size="11.00" fill="#000000">client_node_registrations</text>
<text text-anchor="start" x="564.5219" y="-493.8" font-family="Helvetica,sans-Serif" font-size="11.00" fill="#000000">[table]</text>
<polygon fill="none" stroke="#000000" points="434,-466.7 434,-485.7 599,-485.7 599,-466.7 434,-466.7"/>
<text text-anchor="start" x="437" y="-472.8" font-family="Helvetica,sans-Serif" font-size="11.00" fill="#000000">...</text>
<polygon fill="#ffffff" stroke="transparent" points="434,-447.7 434,-466.7 502,-466.7 502,-447.7 434,-447.7"/>
<polygon fill="none" stroke="#000000" points="434,-447.7 434,-466.7 502,-466.7 502,-447.7 434,-447.7"/>
<text text-anchor="start" x="437" y="-453.8" font-family="Helvetica,sans-Serif" font-size="11.00" fill="#000000">&lt; 1</text>
<polygon fill="#ffffff" stroke="transparent" points="502,-447.7 502,-466.7 563,-466.7 563,-447.7 502,-447.7"/>
<polygon fill="none" stroke="#000000" points="502,-447.7 502,-466.7 563,-466.7 563,-447.7 502,-447.7"/>
<text text-anchor="start" x="527.6105" y="-453.8" font-family="Helvetica,sans-Serif" font-size="11.00" fill="#000000">0 rows</text>
<polygon fill="#ffffff" stroke="transparent" points="563,-447.7 563,-466.7 599,-466.7 599,-447.7 563,-447.7"/>
<polygon fill="none" stroke="#000000" points="563,-447.7 563,-466.7 599,-466.7 599,-447.7 563,-447.7"/>
<text text-anchor="start" x="589.8862" y="-453.8" font-family="Helvetica,sans-Serif" font-size="11.00" fill="#000000"> &#160;</text>
</a>
</g>
</g>
<!-- client_node_registrations&#45;&gt;client -->
<g id="edge5" class="edge">
<title>client_node_registrations:w&#45;&gt;client:e</title>
<path fill="none" stroke="#000000" d="M419.5547,-472.6595C381.9522,-453.7186 424.6283,-352.7 368.5,-352.7"/>
<polygon fill="#000000" stroke="#000000" points="426.1715,-474.0522 433.2585,-479.2228 430.0858,-474.8761 434,-475.7 434,-475.7 434,-475.7 430.0858,-474.8761 434.7415,-472.1772 426.1715,-474.0522 426.1715,-474.0522"/>
<ellipse fill="none" stroke="#000000" cx="423.0401" cy="-473.3931" rx="3.2" ry="3.2"/>
</g>
<!-- client_scope_client -->
<g id="node7" class="node">
<title>client_scope_client</title>
<g id="a_node7"><a xlink:href="../../tables/client_scope_client.html" xlink:title="client_scope_client" target="_top">
<polygon fill="#ffffff" stroke="transparent" points="448.5,-366.2 448.5,-427.2 583.5,-427.2 583.5,-366.2 448.5,-366.2"/>
<polygon fill="#f5f5f5" stroke="transparent" points="449,-403.7 449,-426.7 584,-426.7 584,-403.7 449,-403.7"/>
<polygon fill="none" stroke="#000000" points="449,-403.7 449,-426.7 584,-426.7 584,-403.7 449,-403.7"/>
<text text-anchor="start" x="453.5443" y="-412.8" font-family="Helvetica,sans-Serif" font-weight="bold" font-size="11.00" fill="#000000">client_scope_client</text>
<text text-anchor="start" x="549.5219" y="-411.8" font-family="Helvetica,sans-Serif" font-size="11.00" fill="#000000">[table]</text>
<polygon fill="none" stroke="#000000" points="449,-384.7 449,-403.7 584,-403.7 584,-384.7 449,-384.7"/>
<text text-anchor="start" x="452" y="-390.8" font-family="Helvetica,sans-Serif" font-size="11.00" fill="#000000">...</text>
<polygon fill="#ffffff" stroke="transparent" points="449,-365.7 449,-384.7 499,-384.7 499,-365.7 449,-365.7"/>
<polygon fill="none" stroke="#000000" points="449,-365.7 449,-384.7 499,-384.7 499,-365.7 449,-365.7"/>
<text text-anchor="start" x="452" y="-371.8" font-family="Helvetica,sans-Serif" font-size="11.00" fill="#000000">&lt; 2</text>
<polygon fill="#ffffff" stroke="transparent" points="499,-365.7 499,-384.7 557,-384.7 557,-365.7 499,-365.7"/>
<polygon fill="none" stroke="#000000" points="499,-365.7 499,-384.7 557,-384.7 557,-365.7 499,-365.7"/>
<text text-anchor="start" x="515.4956" y="-371.8" font-family="Helvetica,sans-Serif" font-size="11.00" fill="#000000">54 rows</text>
<polygon fill="#ffffff" stroke="transparent" points="557,-365.7 557,-384.7 584,-384.7 584,-365.7 557,-365.7"/>
<polygon fill="none" stroke="#000000" points="557,-365.7 557,-384.7 584,-384.7 584,-365.7 557,-365.7"/>
<text text-anchor="start" x="574.8862" y="-371.8" font-family="Helvetica,sans-Serif" font-size="11.00" fill="#000000"> &#160;</text>
</a>
</g>
</g>
<!-- client_scope_client&#45;&gt;client -->
<g id="edge6" class="edge">
<title>client_scope_client:w&#45;&gt;client:e</title>
<path fill="none" stroke="#000000" d="M434.568,-391.6104C408.0481,-383.2554 403.1616,-352.7 368.5,-352.7"/>
<polygon fill="#000000" stroke="#000000" points="441.0826,-392.5536 448.4841,-397.2628 445.0413,-393.1268 449,-393.7 449,-393.7 449,-393.7 445.0413,-393.1268 449.5159,-390.1372 441.0826,-392.5536 441.0826,-392.5536"/>
<ellipse fill="none" stroke="#000000" cx="437.9156" cy="-392.0951" rx="3.2" ry="3.2"/>
</g>
<!-- protocol_mapper -->
<g id="node8" class="node">
<title>protocol_mapper</title>
<g id="a_node8"><a xlink:href="../../tables/protocol_mapper.html" xlink:title="protocol_mapper" target="_top">
<polygon fill="#ffffff" stroke="transparent" points="453.5,-284.2 453.5,-345.2 578.5,-345.2 578.5,-284.2 453.5,-284.2"/>
<polygon fill="#f5f5f5" stroke="transparent" points="454,-321.7 454,-344.7 579,-344.7 579,-321.7 454,-321.7"/>
<polygon fill="none" stroke="#000000" points="454,-321.7 454,-344.7 579,-344.7 579,-321.7 454,-321.7"/>
<text text-anchor="start" x="458.7412" y="-330.8" font-family="Helvetica,sans-Serif" font-weight="bold" font-size="11.00" fill="#000000">protocol_mapper</text>
<text text-anchor="start" x="544.5219" y="-329.8" font-family="Helvetica,sans-Serif" font-size="11.00" fill="#000000">[table]</text>
<polygon fill="none" stroke="#000000" points="454,-302.7 454,-321.7 579,-321.7 579,-302.7 454,-302.7"/>
<text text-anchor="start" x="457" y="-308.8" font-family="Helvetica,sans-Serif" font-size="11.00" fill="#000000">...</text>
<polygon fill="#ffffff" stroke="transparent" points="454,-283.7 454,-302.7 494,-302.7 494,-283.7 454,-283.7"/>
<polygon fill="none" stroke="#000000" points="454,-283.7 454,-302.7 494,-302.7 494,-283.7 454,-283.7"/>
<text text-anchor="start" x="457" y="-289.8" font-family="Helvetica,sans-Serif" font-size="11.00" fill="#000000">&lt; 2</text>
<polygon fill="#ffffff" stroke="transparent" points="494,-283.7 494,-302.7 548,-302.7 548,-283.7 494,-283.7"/>
<polygon fill="none" stroke="#000000" points="494,-283.7 494,-302.7 548,-302.7 548,-283.7 494,-283.7"/>
<text text-anchor="start" x="506.4956" y="-289.8" font-family="Helvetica,sans-Serif" font-size="11.00" fill="#000000">28 rows</text>
<polygon fill="#ffffff" stroke="transparent" points="548,-283.7 548,-302.7 579,-302.7 579,-283.7 548,-283.7"/>
<polygon fill="none" stroke="#000000" points="548,-283.7 548,-302.7 579,-302.7 579,-283.7 548,-283.7"/>
<text text-anchor="start" x="560.4053" y="-289.8" font-family="Helvetica,sans-Serif" font-size="11.00" fill="#000000">1 &gt;</text>
</a>
</g>
</g>
<!-- protocol_mapper&#45;&gt;client -->
<g id="edge7" class="edge">
<title>protocol_mapper:w&#45;&gt;client:e</title>
<path fill="none" stroke="#000000" d="M439.5675,-313.5682C410.8638,-321.589 405.2107,-352.7 368.5,-352.7"/>
<polygon fill="#000000" stroke="#000000" points="446.0662,-312.727 454.4622,-315.2702 450.0331,-312.2135 454,-311.7 454,-311.7 454,-311.7 450.0331,-312.2135 453.5378,-308.1298 446.0662,-312.727 446.0662,-312.727"/>
<ellipse fill="none" stroke="#000000" cx="442.8927" cy="-313.1379" rx="3.2" ry="3.2"/>
</g>
<!-- redirect_uris -->
<g id="node9" class="node">
<title>redirect_uris</title>
<g id="a_node9"><a xlink:href="../../tables/redirect_uris.html" xlink:title="redirect_uris" target="_top">
<polygon fill="#ffffff" stroke="transparent" points="464.5,-202.2 464.5,-263.2 567.5,-263.2 567.5,-202.2 464.5,-202.2"/>
<polygon fill="#f5f5f5" stroke="transparent" points="465,-239.7 465,-262.7 568,-262.7 568,-239.7 465,-239.7"/>
<polygon fill="none" stroke="#000000" points="465,-239.7 465,-262.7 568,-262.7 568,-239.7 465,-239.7"/>
<text text-anchor="start" x="469.7506" y="-248.8" font-family="Helvetica,sans-Serif" font-weight="bold" font-size="11.00" fill="#000000">redirect_uris</text>
<text text-anchor="start" x="533.5219" y="-247.8" font-family="Helvetica,sans-Serif" font-size="11.00" fill="#000000">[table]</text>
<polygon fill="none" stroke="#000000" points="465,-220.7 465,-239.7 568,-239.7 568,-220.7 465,-220.7"/>
<text text-anchor="start" x="468" y="-226.8" font-family="Helvetica,sans-Serif" font-size="11.00" fill="#000000">...</text>
<polygon fill="#ffffff" stroke="transparent" points="465,-201.7 465,-220.7 502,-220.7 502,-201.7 465,-201.7"/>
<polygon fill="none" stroke="#000000" points="465,-201.7 465,-220.7 502,-220.7 502,-201.7 465,-201.7"/>
<text text-anchor="start" x="468" y="-207.8" font-family="Helvetica,sans-Serif" font-size="11.00" fill="#000000">&lt; 1</text>
<polygon fill="#ffffff" stroke="transparent" points="502,-201.7 502,-220.7 548,-220.7 548,-201.7 502,-201.7"/>
<polygon fill="none" stroke="#000000" points="502,-201.7 502,-220.7 548,-220.7 548,-201.7 502,-201.7"/>
<text text-anchor="start" x="512.6105" y="-207.8" font-family="Helvetica,sans-Serif" font-size="11.00" fill="#000000">3 rows</text>
<polygon fill="#ffffff" stroke="transparent" points="548,-201.7 548,-220.7 568,-220.7 568,-201.7 548,-201.7"/>
<polygon fill="none" stroke="#000000" points="548,-201.7 548,-220.7 568,-220.7 568,-201.7 548,-201.7"/>
<text text-anchor="start" x="558.8862" y="-207.8" font-family="Helvetica,sans-Serif" font-size="11.00" fill="#000000"> &#160;</text>
</a>
</g>
</g>
<!-- redirect_uris&#45;&gt;client -->
<g id="edge8" class="edge">
<title>redirect_uris:w&#45;&gt;client:e</title>
<path fill="none" stroke="#000000" d="M450.616,-231.4345C431.3732,-236.7313 425.5917,-253.5673 409,-273.7 383.9067,-304.1486 407.9562,-352.7 368.5,-352.7"/>
<polygon fill="#000000" stroke="#000000" points="457.0575,-230.6578 465.431,-233.2741 461.0288,-230.1789 465,-229.7 465,-229.7 465,-229.7 461.0288,-230.1789 464.569,-226.1259 457.0575,-230.6578 457.0575,-230.6578"/>
<ellipse fill="none" stroke="#000000" cx="453.8805" cy="-231.0409" rx="3.2" ry="3.2"/>
</g>
<!-- scope_mapping -->
<g id="node10" class="node">
<title>scope_mapping</title>
<g id="a_node10"><a xlink:href="../../tables/scope_mapping.html" xlink:title="scope_mapping" target="_top">
<polygon fill="#ffffff" stroke="transparent" points="456,-120.2 456,-181.2 576,-181.2 576,-120.2 456,-120.2"/>
<polygon fill="#f5f5f5" stroke="transparent" points="456,-157.7 456,-180.7 576,-180.7 576,-157.7 456,-157.7"/>
<polygon fill="none" stroke="#000000" points="456,-157.7 456,-180.7 576,-180.7 576,-157.7 456,-157.7"/>
<text text-anchor="start" x="460.6816" y="-166.8" font-family="Helvetica,sans-Serif" font-weight="bold" font-size="11.00" fill="#000000">scope_mapping</text>
<text text-anchor="start" x="541.5219" y="-165.8" font-family="Helvetica,sans-Serif" font-size="11.00" fill="#000000">[table]</text>
<polygon fill="none" stroke="#000000" points="456,-138.7 456,-157.7 576,-157.7 576,-138.7 456,-138.7"/>
<text text-anchor="start" x="459" y="-144.8" font-family="Helvetica,sans-Serif" font-size="11.00" fill="#000000">...</text>
<polygon fill="#ffffff" stroke="transparent" points="456,-119.7 456,-138.7 504,-138.7 504,-119.7 456,-119.7"/>
<polygon fill="none" stroke="#000000" points="456,-119.7 456,-138.7 504,-138.7 504,-119.7 456,-119.7"/>
<text text-anchor="start" x="459" y="-125.8" font-family="Helvetica,sans-Serif" font-size="11.00" fill="#000000">&lt; 1</text>
<polygon fill="#ffffff" stroke="transparent" points="504,-119.7 504,-138.7 550,-138.7 550,-119.7 504,-119.7"/>
<polygon fill="none" stroke="#000000" points="504,-119.7 504,-138.7 550,-138.7 550,-119.7 504,-119.7"/>
<text text-anchor="start" x="520.1105" y="-125.8" font-family="Helvetica,sans-Serif" font-size="11.00" fill="#000000">1 row</text>
<polygon fill="#ffffff" stroke="transparent" points="550,-119.7 550,-138.7 576,-138.7 576,-119.7 550,-119.7"/>
<polygon fill="none" stroke="#000000" points="550,-119.7 550,-138.7 576,-138.7 576,-119.7 550,-119.7"/>
<text text-anchor="start" x="566.8862" y="-125.8" font-family="Helvetica,sans-Serif" font-size="11.00" fill="#000000"> &#160;</text>
</a>
</g>
</g>
<!-- scope_mapping&#45;&gt;client -->
<g id="edge9" class="edge">
<title>scope_mapping:w&#45;&gt;client:e</title>
<path fill="none" stroke="#000000" d="M441.3303,-149.977C425.3773,-155.7784 420.5742,-172.0541 409,-191.7 371.5469,-255.2725 442.2848,-352.7 368.5,-352.7"/>
<polygon fill="#000000" stroke="#000000" points="448.0947,-148.9271 456.5522,-151.2574 452.0473,-148.3136 456,-147.7 456,-147.7 456,-147.7 452.0473,-148.3136 455.4478,-144.1426 448.0947,-148.9271 448.0947,-148.9271"/>
<ellipse fill="none" stroke="#000000" cx="444.9325" cy="-149.4179" rx="3.2" ry="3.2"/>
</g>
<!-- web_origins -->
<g id="node11" class="node">
<title>web_origins</title>
<g id="a_node11"><a xlink:href="../../tables/web_origins.html" xlink:title="web_origins" target="_top">
<polygon fill="#ffffff" stroke="transparent" points="465.5,-38.2 465.5,-99.2 566.5,-99.2 566.5,-38.2 465.5,-38.2"/>
<polygon fill="#f5f5f5" stroke="transparent" points="466,-75.7 466,-98.7 567,-98.7 567,-75.7 466,-75.7"/>
<polygon fill="none" stroke="#000000" points="466,-75.7 466,-98.7 567,-98.7 567,-75.7 466,-75.7"/>
<text text-anchor="start" x="470.663" y="-84.8" font-family="Helvetica,sans-Serif" font-weight="bold" font-size="11.00" fill="#000000">web_origins</text>
<text text-anchor="start" x="532.5219" y="-83.8" font-family="Helvetica,sans-Serif" font-size="11.00" fill="#000000">[table]</text>
<polygon fill="none" stroke="#000000" points="466,-56.7 466,-75.7 567,-75.7 567,-56.7 466,-56.7"/>
<text text-anchor="start" x="469" y="-62.8" font-family="Helvetica,sans-Serif" font-size="11.00" fill="#000000">...</text>
<polygon fill="#ffffff" stroke="transparent" points="466,-37.7 466,-56.7 505,-56.7 505,-37.7 466,-37.7"/>
<polygon fill="none" stroke="#000000" points="466,-37.7 466,-56.7 505,-56.7 505,-37.7 466,-37.7"/>
<text text-anchor="start" x="469" y="-43.8" font-family="Helvetica,sans-Serif" font-size="11.00" fill="#000000">&lt; 1</text>
<polygon fill="#ffffff" stroke="transparent" points="505,-37.7 505,-56.7 546,-56.7 546,-37.7 505,-37.7"/>
<polygon fill="none" stroke="#000000" points="505,-37.7 505,-56.7 546,-56.7 546,-37.7 505,-37.7"/>
<text text-anchor="start" x="516.1105" y="-43.8" font-family="Helvetica,sans-Serif" font-size="11.00" fill="#000000">1 row</text>
<polygon fill="#ffffff" stroke="transparent" points="546,-37.7 546,-56.7 567,-56.7 567,-37.7 546,-37.7"/>
<polygon fill="none" stroke="#000000" points="546,-37.7 546,-56.7 567,-56.7 567,-37.7 546,-37.7"/>
<text text-anchor="start" x="557.8862" y="-43.8" font-family="Helvetica,sans-Serif" font-size="11.00" fill="#000000"> &#160;</text>
</a>
</g>
</g>
<!-- web_origins&#45;&gt;client -->
<g id="edge10" class="edge">
<title>web_origins:w&#45;&gt;client:e</title>
<path fill="none" stroke="#000000" d="M451.4168,-67.1372C430.8209,-71.7079 422.6095,-86.9587 409,-109.7 380.8876,-156.6755 423.2449,-352.7 368.5,-352.7"/>
<polygon fill="#000000" stroke="#000000" points="458.0386,-66.4847 466.3531,-69.2826 462.0193,-66.0923 466,-65.7 466,-65.7 466,-65.7 462.0193,-66.0923 465.6469,-62.1174 458.0386,-66.4847 458.0386,-66.4847"/>
<ellipse fill="none" stroke="#000000" cx="454.854" cy="-66.7985" rx="3.2" ry="3.2"/>
</g>
</g>
</svg>
