<?xml version="1.0" encoding="UTF-8" standalone="no"?>
<!DOCTYPE svg PUBLIC "-//W3C//DTD SVG 1.1//EN"
 "http://www.w3.org/Graphics/SVG/1.1/DTD/svg11.dtd">
<!-- Generated by graphviz version 2.40.1 (20161225.0304)
 -->
<!-- Title: twoDegreesRelationshipsDiagram Pages: 1 -->
<svg width="544pt" height="469pt"
 viewBox="0.00 0.00 544.00 469.20" xmlns="http://www.w3.org/2000/svg" xmlns:xlink="http://www.w3.org/1999/xlink">
<g id="graph0" class="graph" transform="scale(1 1) rotate(0) translate(4 465.2)">
<title>twoDegreesRelationshipsDiagram</title>
<polygon fill="#ffffff" stroke="transparent" points="-4,4 -4,-465.2 540,-465.2 540,4 -4,4"/>
<text text-anchor="middle" x="72.4936" y="-7.3" font-family="Helvetica,sans-Serif" font-size="11.00" fill="#000000">Generated by SchemaSpy</text>
<!-- client_session -->
<g id="node1" class="node">
<title>client_session</title>
<g id="a_node1"><a xlink:href="../../tables/client_session.html" xlink:title="client_session" target="_top">
<polygon fill="#ffffff" stroke="transparent" points="164,-167.2 164,-294.2 276,-294.2 276,-167.2 164,-167.2"/>
<polygon fill="#f5f5f5" stroke="transparent" points="164,-270.7 164,-293.7 276,-293.7 276,-270.7 164,-270.7"/>
<polygon fill="none" stroke="#000000" points="164,-270.7 164,-293.7 276,-293.7 276,-270.7 164,-270.7"/>
<text text-anchor="start" x="168.9655" y="-279.8" font-family="Helvetica,sans-Serif" font-weight="bold" font-size="11.00" fill="#000000">client_session</text>
<text text-anchor="start" x="241.5219" y="-278.8" font-family="Helvetica,sans-Serif" font-size="11.00" fill="#000000">[table]</text>
<polygon fill="none" stroke="#000000" points="164,-248.7 164,-270.7 276,-270.7 276,-248.7 164,-248.7"/>
<image xlink:href="../../images/primaryKeys.png" width="11px" height="12px" preserveAspectRatio="xMinYMin meet" x="169" y="-265.7"/>
<text text-anchor="start" x="188" y="-255.8" font-family="Helvetica,sans-Serif" font-size="11.00" fill="#000000">id</text>
<polygon fill="#ffffff" stroke="transparent" points="164,-226.7 164,-248.7 276,-248.7 276,-226.7 164,-226.7"/>
<polygon fill="none" stroke="#000000" points="164,-226.7 164,-248.7 276,-248.7 276,-226.7 164,-226.7"/>
<image xlink:href="../../images/foreignKeys.png" width="11px" height="12px" preserveAspectRatio="xMinYMin meet" x="169" y="-243.7"/>
<text text-anchor="start" x="188" y="-233.8" font-family="Helvetica,sans-Serif" font-size="11.00" fill="#000000">session_id</text>
<polygon fill="none" stroke="#000000" points="164,-204.7 164,-226.7 276,-226.7 276,-204.7 164,-204.7"/>
<image xlink:href="../../images/foreignKeys.png" width="11px" height="12px" preserveAspectRatio="xMinYMin meet" x="169" y="-221.7"/>
<text text-anchor="start" x="188" y="-211.8" font-family="Helvetica,sans-Serif" font-size="11.00" fill="#000000">realm_id</text>
<polygon fill="none" stroke="#000000" points="164,-185.7 164,-204.7 276,-204.7 276,-185.7 164,-185.7"/>
<text text-anchor="start" x="167" y="-191.8" font-family="Helvetica,sans-Serif" font-size="11.00" fill="#000000">...</text>
<polygon fill="#ffffff" stroke="transparent" points="164,-166.7 164,-185.7 201,-185.7 201,-166.7 164,-166.7"/>
<polygon fill="none" stroke="#000000" points="164,-166.7 164,-185.7 201,-185.7 201,-166.7 164,-166.7"/>
<text text-anchor="start" x="167" y="-172.8" font-family="Helvetica,sans-Serif" font-size="11.00" fill="#000000">&lt; 1</text>
<polygon fill="#ffffff" stroke="transparent" points="201,-166.7 201,-185.7 247,-185.7 247,-166.7 201,-166.7"/>
<polygon fill="none" stroke="#000000" points="201,-166.7 201,-185.7 247,-185.7 247,-166.7 201,-166.7"/>
<text text-anchor="start" x="211.6105" y="-172.8" font-family="Helvetica,sans-Serif" font-size="11.00" fill="#000000">0 rows</text>
<polygon fill="#ffffff" stroke="transparent" points="247,-166.7 247,-185.7 276,-185.7 276,-166.7 247,-166.7"/>
<polygon fill="none" stroke="#000000" points="247,-166.7 247,-185.7 276,-185.7 276,-166.7 247,-166.7"/>
<text text-anchor="start" x="257.4053" y="-172.8" font-family="Helvetica,sans-Serif" font-size="11.00" fill="#000000">5 &gt;</text>
</a>
</g>
</g>
<!-- user_session -->
<g id="node2" class="node">
<title>user_session</title>
<g id="a_node2"><a xlink:href="../../tables/user_session.html" xlink:title="user_session" target="_top">
<polygon fill="#ffffff" stroke="transparent" points="8,-210.2 8,-271.2 115,-271.2 115,-210.2 8,-210.2"/>
<polygon fill="#f5f5f5" stroke="transparent" points="8.5,-247.7 8.5,-270.7 115.5,-270.7 115.5,-247.7 8.5,-247.7"/>
<polygon fill="none" stroke="#000000" points="8.5,-247.7 8.5,-270.7 115.5,-270.7 115.5,-247.7 8.5,-247.7"/>
<text text-anchor="start" x="13.1039" y="-256.8" font-family="Helvetica,sans-Serif" font-weight="bold" font-size="11.00" fill="#000000">user_session</text>
<text text-anchor="start" x="81.0219" y="-255.8" font-family="Helvetica,sans-Serif" font-size="11.00" fill="#000000">[table]</text>
<polygon fill="none" stroke="#000000" points="8.5,-228.7 8.5,-247.7 115.5,-247.7 115.5,-228.7 8.5,-228.7"/>
<text text-anchor="start" x="11.5" y="-234.8" font-family="Helvetica,sans-Serif" font-size="11.00" fill="#000000">...</text>
<polygon fill="#ffffff" stroke="transparent" points="8.5,-209.7 8.5,-228.7 38.5,-228.7 38.5,-209.7 8.5,-209.7"/>
<polygon fill="none" stroke="#000000" points="8.5,-209.7 8.5,-228.7 38.5,-228.7 38.5,-209.7 8.5,-209.7"/>
<text text-anchor="start" x="11.5" y="-215.8" font-family="Helvetica,sans-Serif" font-size="11.00" fill="#000000"> &#160;</text>
<polygon fill="#ffffff" stroke="transparent" points="38.5,-209.7 38.5,-228.7 85.5,-228.7 85.5,-209.7 38.5,-209.7"/>
<polygon fill="none" stroke="#000000" points="38.5,-209.7 38.5,-228.7 85.5,-228.7 85.5,-209.7 38.5,-209.7"/>
<text text-anchor="start" x="50.1105" y="-215.8" font-family="Helvetica,sans-Serif" font-size="11.00" fill="#000000">0 rows</text>
<polygon fill="#ffffff" stroke="transparent" points="85.5,-209.7 85.5,-228.7 115.5,-228.7 115.5,-209.7 85.5,-209.7"/>
<polygon fill="none" stroke="#000000" points="85.5,-209.7 85.5,-228.7 115.5,-228.7 115.5,-209.7 85.5,-209.7"/>
<text text-anchor="start" x="96.9053" y="-215.8" font-family="Helvetica,sans-Serif" font-size="11.00" fill="#000000">2 &gt;</text>
</a>
</g>
</g>
<!-- client_session&#45;&gt;user_session -->
<g id="edge1" class="edge">
<title>client_session:w&#45;&gt;user_session:e</title>
<path fill="none" stroke="#000000" d="M149.2829,-237.7C138.2886,-237.7 131.1615,-237.7 115.5,-237.7"/>
<polygon fill="#000000" stroke="#000000" points="156,-237.7001 164,-241.3 160,-237.7 164,-237.7 164,-237.7 164,-237.7 160,-237.7 164,-234.1 156,-237.7001 156,-237.7001"/>
<ellipse fill="none" stroke="#000000" cx="152.8" cy="-237.7001" rx="3.2" ry="3.2"/>
</g>
<!-- client_session_auth_status -->
<g id="node3" class="node">
<title>client_session_auth_status</title>
<g id="a_node3"><a xlink:href="../../tables/client_session_auth_status.html" xlink:title="client_session_auth_status" target="_top">
<polygon fill="#ffffff" stroke="transparent" points="339,-396.2 339,-457.2 514,-457.2 514,-396.2 339,-396.2"/>
<polygon fill="#f5f5f5" stroke="transparent" points="339.5,-433.7 339.5,-456.7 514.5,-456.7 514.5,-433.7 339.5,-433.7"/>
<polygon fill="none" stroke="#000000" points="339.5,-433.7 339.5,-456.7 514.5,-456.7 514.5,-433.7 339.5,-433.7"/>
<text text-anchor="start" x="344.478" y="-442.8" font-family="Helvetica,sans-Serif" font-weight="bold" font-size="11.00" fill="#000000">client_session_auth_status</text>
<text text-anchor="start" x="480.0219" y="-441.8" font-family="Helvetica,sans-Serif" font-size="11.00" fill="#000000">[table]</text>
<polygon fill="none" stroke="#000000" points="339.5,-414.7 339.5,-433.7 514.5,-433.7 514.5,-414.7 339.5,-414.7"/>
<text text-anchor="start" x="342.5" y="-420.8" font-family="Helvetica,sans-Serif" font-size="11.00" fill="#000000">...</text>
<polygon fill="#ffffff" stroke="transparent" points="339.5,-395.7 339.5,-414.7 412.5,-414.7 412.5,-395.7 339.5,-395.7"/>
<polygon fill="none" stroke="#000000" points="339.5,-395.7 339.5,-414.7 412.5,-414.7 412.5,-395.7 339.5,-395.7"/>
<text text-anchor="start" x="342.5" y="-401.8" font-family="Helvetica,sans-Serif" font-size="11.00" fill="#000000">&lt; 1</text>
<polygon fill="#ffffff" stroke="transparent" points="412.5,-395.7 412.5,-414.7 476.5,-414.7 476.5,-395.7 412.5,-395.7"/>
<polygon fill="none" stroke="#000000" points="412.5,-395.7 412.5,-414.7 476.5,-414.7 476.5,-395.7 412.5,-395.7"/>
<text text-anchor="start" x="441.1105" y="-401.8" font-family="Helvetica,sans-Serif" font-size="11.00" fill="#000000">0 rows</text>
<polygon fill="#ffffff" stroke="transparent" points="476.5,-395.7 476.5,-414.7 514.5,-414.7 514.5,-395.7 476.5,-395.7"/>
<polygon fill="none" stroke="#000000" points="476.5,-395.7 476.5,-414.7 514.5,-414.7 514.5,-395.7 476.5,-395.7"/>
<text text-anchor="start" x="505.3862" y="-401.8" font-family="Helvetica,sans-Serif" font-size="11.00" fill="#000000"> &#160;</text>
</a>
</g>
</g>
<!-- client_session_auth_status&#45;&gt;client_session -->
<g id="edge2" class="edge">
<title>client_session_auth_status:w&#45;&gt;client_session:e</title>
<path fill="none" stroke="#000000" d="M325.1045,-421.2544C273.8611,-400.8533 348.5135,-259.7 276,-259.7"/>
<polygon fill="#000000" stroke="#000000" points="331.613,-422.3601 338.897,-427.2491 335.5565,-423.03 339.5,-423.7 339.5,-423.7 339.5,-423.7 335.5565,-423.03 340.103,-420.1509 331.613,-422.3601 331.613,-422.3601"/>
<ellipse fill="none" stroke="#000000" cx="328.4582" cy="-421.8241" rx="3.2" ry="3.2"/>
</g>
<!-- client_session_note -->
<g id="node4" class="node">
<title>client_session_note</title>
<g id="a_node4"><a xlink:href="../../tables/client_session_note.html" xlink:title="client_session_note" target="_top">
<polygon fill="#ffffff" stroke="transparent" points="357,-314.2 357,-375.2 496,-375.2 496,-314.2 357,-314.2"/>
<polygon fill="#f5f5f5" stroke="transparent" points="357.5,-351.7 357.5,-374.7 496.5,-374.7 496.5,-351.7 357.5,-351.7"/>
<polygon fill="none" stroke="#000000" points="357.5,-351.7 357.5,-374.7 496.5,-374.7 496.5,-351.7 357.5,-351.7"/>
<text text-anchor="start" x="362.2073" y="-360.8" font-family="Helvetica,sans-Serif" font-weight="bold" font-size="11.00" fill="#000000">client_session_note</text>
<text text-anchor="start" x="462.0219" y="-359.8" font-family="Helvetica,sans-Serif" font-size="11.00" fill="#000000">[table]</text>
<polygon fill="none" stroke="#000000" points="357.5,-332.7 357.5,-351.7 496.5,-351.7 496.5,-332.7 357.5,-332.7"/>
<text text-anchor="start" x="360.5" y="-338.8" font-family="Helvetica,sans-Serif" font-size="11.00" fill="#000000">...</text>
<polygon fill="#ffffff" stroke="transparent" points="357.5,-313.7 357.5,-332.7 412.5,-332.7 412.5,-313.7 357.5,-313.7"/>
<polygon fill="none" stroke="#000000" points="357.5,-313.7 357.5,-332.7 412.5,-332.7 412.5,-313.7 357.5,-313.7"/>
<text text-anchor="start" x="360.5" y="-319.8" font-family="Helvetica,sans-Serif" font-size="11.00" fill="#000000">&lt; 1</text>
<polygon fill="#ffffff" stroke="transparent" points="412.5,-313.7 412.5,-332.7 467.5,-332.7 467.5,-313.7 412.5,-313.7"/>
<polygon fill="none" stroke="#000000" points="412.5,-313.7 412.5,-332.7 467.5,-332.7 467.5,-313.7 412.5,-313.7"/>
<text text-anchor="start" x="432.1105" y="-319.8" font-family="Helvetica,sans-Serif" font-size="11.00" fill="#000000">0 rows</text>
<polygon fill="#ffffff" stroke="transparent" points="467.5,-313.7 467.5,-332.7 496.5,-332.7 496.5,-313.7 467.5,-313.7"/>
<polygon fill="none" stroke="#000000" points="467.5,-313.7 467.5,-332.7 496.5,-332.7 496.5,-313.7 467.5,-313.7"/>
<text text-anchor="start" x="487.3862" y="-319.8" font-family="Helvetica,sans-Serif" font-size="11.00" fill="#000000"> &#160;</text>
</a>
</g>
</g>
<!-- client_session_note&#45;&gt;client_session -->
<g id="edge3" class="edge">
<title>client_session_note:w&#45;&gt;client_session:e</title>
<path fill="none" stroke="#000000" d="M343.209,-338.2211C332.4309,-331.6312 330.0674,-316.8125 317,-303.7 298.1319,-284.7668 302.7296,-259.7 276,-259.7"/>
<polygon fill="#000000" stroke="#000000" points="349.727,-339.8077 356.6485,-345.1979 353.6135,-340.7539 357.5,-341.7 357.5,-341.7 357.5,-341.7 353.6135,-340.7539 358.3515,-338.2021 349.727,-339.8077 349.727,-339.8077"/>
<ellipse fill="none" stroke="#000000" cx="346.6178" cy="-339.0508" rx="3.2" ry="3.2"/>
</g>
<!-- client_session_prot_mapper -->
<g id="node5" class="node">
<title>client_session_prot_mapper</title>
<g id="a_node5"><a xlink:href="../../tables/client_session_prot_mapper.html" xlink:title="client_session_prot_mapper" target="_top">
<polygon fill="#ffffff" stroke="transparent" points="336.5,-232.2 336.5,-293.2 516.5,-293.2 516.5,-232.2 336.5,-232.2"/>
<polygon fill="#f5f5f5" stroke="transparent" points="336.5,-269.7 336.5,-292.7 516.5,-292.7 516.5,-269.7 336.5,-269.7"/>
<polygon fill="none" stroke="#000000" points="336.5,-269.7 336.5,-292.7 516.5,-292.7 516.5,-269.7 336.5,-269.7"/>
<text text-anchor="start" x="341.2346" y="-278.8" font-family="Helvetica,sans-Serif" font-weight="bold" font-size="11.00" fill="#000000">client_session_prot_mapper</text>
<text text-anchor="start" x="482.0219" y="-277.8" font-family="Helvetica,sans-Serif" font-size="11.00" fill="#000000">[table]</text>
<polygon fill="none" stroke="#000000" points="336.5,-250.7 336.5,-269.7 516.5,-269.7 516.5,-250.7 336.5,-250.7"/>
<text text-anchor="start" x="339.5" y="-256.8" font-family="Helvetica,sans-Serif" font-size="11.00" fill="#000000">...</text>
<polygon fill="#ffffff" stroke="transparent" points="336.5,-231.7 336.5,-250.7 411.5,-250.7 411.5,-231.7 336.5,-231.7"/>
<polygon fill="none" stroke="#000000" points="336.5,-231.7 336.5,-250.7 411.5,-250.7 411.5,-231.7 336.5,-231.7"/>
<text text-anchor="start" x="339.5" y="-237.8" font-family="Helvetica,sans-Serif" font-size="11.00" fill="#000000">&lt; 1</text>
<polygon fill="#ffffff" stroke="transparent" points="411.5,-231.7 411.5,-250.7 476.5,-250.7 476.5,-231.7 411.5,-231.7"/>
<polygon fill="none" stroke="#000000" points="411.5,-231.7 411.5,-250.7 476.5,-250.7 476.5,-231.7 411.5,-231.7"/>
<text text-anchor="start" x="441.1105" y="-237.8" font-family="Helvetica,sans-Serif" font-size="11.00" fill="#000000">0 rows</text>
<polygon fill="#ffffff" stroke="transparent" points="476.5,-231.7 476.5,-250.7 516.5,-250.7 516.5,-231.7 476.5,-231.7"/>
<polygon fill="none" stroke="#000000" points="476.5,-231.7 476.5,-250.7 516.5,-250.7 516.5,-231.7 476.5,-231.7"/>
<text text-anchor="start" x="507.3862" y="-237.8" font-family="Helvetica,sans-Serif" font-size="11.00" fill="#000000"> &#160;</text>
</a>
</g>
</g>
<!-- client_session_prot_mapper&#45;&gt;client_session -->
<g id="edge4" class="edge">
<title>client_session_prot_mapper:w&#45;&gt;client_session:e</title>
<path fill="none" stroke="#000000" d="M321.7977,-259.7C305.8779,-259.7 297.217,-259.7 276,-259.7"/>
<polygon fill="#000000" stroke="#000000" points="328.5,-259.7001 336.5,-263.3 332.5,-259.7 336.5,-259.7 336.5,-259.7 336.5,-259.7 332.5,-259.7 336.5,-256.1 328.5,-259.7001 328.5,-259.7001"/>
<ellipse fill="none" stroke="#000000" cx="325.3" cy="-259.7001" rx="3.2" ry="3.2"/>
</g>
<!-- client_session_role -->
<g id="node6" class="node">
<title>client_session_role</title>
<g id="a_node6"><a xlink:href="../../tables/client_session_role.html" xlink:title="client_session_role" target="_top">
<polygon fill="#ffffff" stroke="transparent" points="325,-120.7 325,-210.7 528,-210.7 528,-120.7 325,-120.7"/>
<polygon fill="#f5f5f5" stroke="transparent" points="327.5,-185.7 327.5,-208.7 526.5,-208.7 526.5,-185.7 327.5,-185.7"/>
<polygon fill="none" stroke="#000000" points="327.5,-185.7 327.5,-208.7 526.5,-208.7 526.5,-185.7 327.5,-185.7"/>
<text text-anchor="start" x="332.5" y="-194.8" font-family="Helvetica,sans-Serif" font-weight="bold" font-size="11.00" fill="#000000">client_session_role</text>
<text text-anchor="start" x="491.5437" y="-193.8" font-family="Helvetica,sans-Serif" font-size="11.00" fill="#000000">[table]</text>
<polygon fill="none" stroke="#000000" points="327.5,-163.7 327.5,-185.7 459.5,-185.7 459.5,-163.7 327.5,-163.7"/>
<image xlink:href="../../images/primaryKeys.png" width="11px" height="12px" preserveAspectRatio="xMinYMin meet" x="332.5" y="-180.7"/>
<text text-anchor="start" x="347.5" y="-170.8" font-family="Helvetica,sans-Serif" font-size="11.00" fill="#000000">role_id</text>
<polygon fill="none" stroke="#000000" points="459.5,-163.7 459.5,-185.7 526.5,-185.7 526.5,-163.7 459.5,-163.7"/>
<text text-anchor="start" x="462.4365" y="-171.4" font-family="Helvetica,sans-Serif" font-size="11.00" fill="#000000">varchar[255]</text>
<polygon fill="none" stroke="#000000" points="327.5,-141.7 327.5,-163.7 459.5,-163.7 459.5,-141.7 327.5,-141.7"/>
<image xlink:href="../../images/primaryKeys.png" width="11px" height="12px" preserveAspectRatio="xMinYMin meet" x="332.5" y="-158.7"/>
<text text-anchor="start" x="347.5" y="-148.8" font-family="Helvetica,sans-Serif" font-size="11.00" fill="#000000">client_session</text>
<polygon fill="none" stroke="#000000" points="459.5,-141.7 459.5,-163.7 526.5,-163.7 526.5,-141.7 459.5,-141.7"/>
<text text-anchor="start" x="462.5" y="-149.4" font-family="Helvetica,sans-Serif" font-size="11.00" fill="#000000">varchar[36]</text>
<polygon fill="#ffffff" stroke="transparent" points="327.5,-122.7 327.5,-141.7 384.5,-141.7 384.5,-122.7 327.5,-122.7"/>
<polygon fill="none" stroke="#000000" points="327.5,-122.7 327.5,-141.7 384.5,-141.7 384.5,-122.7 327.5,-122.7"/>
<text text-anchor="start" x="330.5" y="-128.8" font-family="Helvetica,sans-Serif" font-size="11.00" fill="#000000">&lt; 1</text>
<polygon fill="#ffffff" stroke="transparent" points="384.5,-122.7 384.5,-141.7 459.5,-141.7 459.5,-122.7 384.5,-122.7"/>
<polygon fill="none" stroke="#000000" points="384.5,-122.7 384.5,-141.7 459.5,-141.7 459.5,-122.7 384.5,-122.7"/>
<text text-anchor="start" x="424.1105" y="-128.8" font-family="Helvetica,sans-Serif" font-size="11.00" fill="#000000">0 rows</text>
<polygon fill="#ffffff" stroke="transparent" points="459.5,-122.7 459.5,-141.7 526.5,-141.7 526.5,-122.7 459.5,-122.7"/>
<polygon fill="none" stroke="#000000" points="459.5,-122.7 459.5,-141.7 526.5,-141.7 526.5,-122.7 459.5,-122.7"/>
<text text-anchor="start" x="507.9053" y="-128.8" font-family="Helvetica,sans-Serif" font-size="11.00" fill="#000000">0 &gt;</text>
<polygon fill="none" stroke="#000000" stroke-width="2" points="326,-121.7 326,-209.7 527,-209.7 527,-121.7 326,-121.7"/>
</a>
</g>
</g>
<!-- client_session_role&#45;&gt;client_session -->
<g id="edge5" class="edge">
<title>client_session_role:w&#45;&gt;client_session:e</title>
<path fill="none" stroke="#000000" d="M313.3662,-156.5082C285.5986,-175.5691 322.7985,-259.7 276,-259.7"/>
<polygon fill="#000000" stroke="#000000" points="319.7755,-154.7813 328.4366,-156.176 323.6377,-153.7407 327.5,-152.7 327.5,-152.7 327.5,-152.7 323.6377,-153.7407 326.5634,-149.224 319.7755,-154.7813 319.7755,-154.7813"/>
<ellipse fill="none" stroke="#000000" cx="316.6857" cy="-155.6139" rx="3.2" ry="3.2"/>
</g>
<!-- client_user_session_note -->
<g id="node7" class="node">
<title>client_user_session_note</title>
<g id="a_node7"><a xlink:href="../../tables/client_user_session_note.html" xlink:title="client_user_session_note" target="_top">
<polygon fill="#ffffff" stroke="transparent" points="343,-38.2 343,-99.2 510,-99.2 510,-38.2 343,-38.2"/>
<polygon fill="#f5f5f5" stroke="transparent" points="343.5,-75.7 343.5,-98.7 510.5,-98.7 510.5,-75.7 343.5,-75.7"/>
<polygon fill="none" stroke="#000000" points="343.5,-75.7 343.5,-98.7 510.5,-98.7 510.5,-75.7 343.5,-75.7"/>
<text text-anchor="start" x="348.454" y="-84.8" font-family="Helvetica,sans-Serif" font-weight="bold" font-size="11.00" fill="#000000">client_user_session_note</text>
<text text-anchor="start" x="476.0219" y="-83.8" font-family="Helvetica,sans-Serif" font-size="11.00" fill="#000000">[table]</text>
<polygon fill="none" stroke="#000000" points="343.5,-56.7 343.5,-75.7 510.5,-75.7 510.5,-56.7 343.5,-56.7"/>
<text text-anchor="start" x="346.5" y="-62.8" font-family="Helvetica,sans-Serif" font-size="11.00" fill="#000000">...</text>
<polygon fill="#ffffff" stroke="transparent" points="343.5,-37.7 343.5,-56.7 412.5,-56.7 412.5,-37.7 343.5,-37.7"/>
<polygon fill="none" stroke="#000000" points="343.5,-37.7 343.5,-56.7 412.5,-56.7 412.5,-37.7 343.5,-37.7"/>
<text text-anchor="start" x="346.5" y="-43.8" font-family="Helvetica,sans-Serif" font-size="11.00" fill="#000000">&lt; 1</text>
<polygon fill="#ffffff" stroke="transparent" points="412.5,-37.7 412.5,-56.7 474.5,-56.7 474.5,-37.7 412.5,-37.7"/>
<polygon fill="none" stroke="#000000" points="412.5,-37.7 412.5,-56.7 474.5,-56.7 474.5,-37.7 412.5,-37.7"/>
<text text-anchor="start" x="439.1105" y="-43.8" font-family="Helvetica,sans-Serif" font-size="11.00" fill="#000000">0 rows</text>
<polygon fill="#ffffff" stroke="transparent" points="474.5,-37.7 474.5,-56.7 510.5,-56.7 510.5,-37.7 474.5,-37.7"/>
<polygon fill="none" stroke="#000000" points="474.5,-37.7 474.5,-56.7 510.5,-56.7 510.5,-37.7 474.5,-37.7"/>
<text text-anchor="start" x="501.3862" y="-43.8" font-family="Helvetica,sans-Serif" font-size="11.00" fill="#000000"> &#160;</text>
</a>
</g>
</g>
<!-- client_user_session_note&#45;&gt;client_session -->
<g id="edge6" class="edge">
<title>client_user_session_note:w&#45;&gt;client_session:e</title>
<path fill="none" stroke="#000000" d="M329.0957,-67.7474C265.3872,-88.481 361.7648,-259.7 276,-259.7"/>
<polygon fill="#000000" stroke="#000000" points="335.5796,-66.8259 344.0066,-69.2642 339.5398,-66.2629 343.5,-65.7 343.5,-65.7 343.5,-65.7 339.5398,-66.2629 342.9934,-62.1358 335.5796,-66.8259 335.5796,-66.8259"/>
<ellipse fill="none" stroke="#000000" cx="332.4115" cy="-67.2762" rx="3.2" ry="3.2"/>
</g>
</g>
</svg>
