<?xml version="1.0" encoding="UTF-8" standalone="no"?>
<!DOCTYPE svg PUBLIC "-//W3C//DTD SVG 1.1//EN"
 "http://www.w3.org/Graphics/SVG/1.1/DTD/svg11.dtd">
<!-- Generated by graphviz version 2.40.1 (20161225.0304)
 -->
<!-- Title: twoDegreesRelationshipsDiagram Pages: 1 -->
<svg width="547pt" height="491pt"
 viewBox="0.00 0.00 547.00 491.20" xmlns="http://www.w3.org/2000/svg" xmlns:xlink="http://www.w3.org/1999/xlink">
<g id="graph0" class="graph" transform="scale(1 1) rotate(0) translate(4 487.2)">
<title>twoDegreesRelationshipsDiagram</title>
<polygon fill="#ffffff" stroke="transparent" points="-4,4 -4,-487.2 543,-487.2 543,4 -4,4"/>
<text text-anchor="middle" x="72.4936" y="-7.3" font-family="Helvetica,sans-Serif" font-size="11.00" fill="#000000">Generated by SchemaSpy</text>
<!-- client_session -->
<g id="node1" class="node">
<title>client_session</title>
<g id="a_node1"><a xlink:href="../../tables/client_session.html" xlink:title="client_session" target="_top">
<polygon fill="#ffffff" stroke="transparent" points="164,-137.2 164,-264.2 276,-264.2 276,-137.2 164,-137.2"/>
<polygon fill="#f5f5f5" stroke="transparent" points="164,-240.7 164,-263.7 276,-263.7 276,-240.7 164,-240.7"/>
<polygon fill="none" stroke="#000000" points="164,-240.7 164,-263.7 276,-263.7 276,-240.7 164,-240.7"/>
<text text-anchor="start" x="168.9655" y="-249.8" font-family="Helvetica,sans-Serif" font-weight="bold" font-size="11.00" fill="#000000">client_session</text>
<text text-anchor="start" x="241.5219" y="-248.8" font-family="Helvetica,sans-Serif" font-size="11.00" fill="#000000">[table]</text>
<polygon fill="none" stroke="#000000" points="164,-218.7 164,-240.7 276,-240.7 276,-218.7 164,-218.7"/>
<image xlink:href="../../images/primaryKeys.png" width="11px" height="12px" preserveAspectRatio="xMinYMin meet" x="169" y="-235.7"/>
<text text-anchor="start" x="188" y="-225.8" font-family="Helvetica,sans-Serif" font-size="11.00" fill="#000000">id</text>
<polygon fill="#ffffff" stroke="transparent" points="164,-196.7 164,-218.7 276,-218.7 276,-196.7 164,-196.7"/>
<polygon fill="none" stroke="#000000" points="164,-196.7 164,-218.7 276,-218.7 276,-196.7 164,-196.7"/>
<image xlink:href="../../images/foreignKeys.png" width="11px" height="12px" preserveAspectRatio="xMinYMin meet" x="169" y="-213.7"/>
<text text-anchor="start" x="188" y="-203.8" font-family="Helvetica,sans-Serif" font-size="11.00" fill="#000000">session_id</text>
<polygon fill="none" stroke="#000000" points="164,-174.7 164,-196.7 276,-196.7 276,-174.7 164,-174.7"/>
<image xlink:href="../../images/foreignKeys.png" width="11px" height="12px" preserveAspectRatio="xMinYMin meet" x="169" y="-191.7"/>
<text text-anchor="start" x="188" y="-181.8" font-family="Helvetica,sans-Serif" font-size="11.00" fill="#000000">realm_id</text>
<polygon fill="none" stroke="#000000" points="164,-155.7 164,-174.7 276,-174.7 276,-155.7 164,-155.7"/>
<text text-anchor="start" x="167" y="-161.8" font-family="Helvetica,sans-Serif" font-size="11.00" fill="#000000">...</text>
<polygon fill="#ffffff" stroke="transparent" points="164,-136.7 164,-155.7 201,-155.7 201,-136.7 164,-136.7"/>
<polygon fill="none" stroke="#000000" points="164,-136.7 164,-155.7 201,-155.7 201,-136.7 164,-136.7"/>
<text text-anchor="start" x="167" y="-142.8" font-family="Helvetica,sans-Serif" font-size="11.00" fill="#000000">&lt; 1</text>
<polygon fill="#ffffff" stroke="transparent" points="201,-136.7 201,-155.7 247,-155.7 247,-136.7 201,-136.7"/>
<polygon fill="none" stroke="#000000" points="201,-136.7 201,-155.7 247,-155.7 247,-136.7 201,-136.7"/>
<text text-anchor="start" x="211.6105" y="-142.8" font-family="Helvetica,sans-Serif" font-size="11.00" fill="#000000">0 rows</text>
<polygon fill="#ffffff" stroke="transparent" points="247,-136.7 247,-155.7 276,-155.7 276,-136.7 247,-136.7"/>
<polygon fill="none" stroke="#000000" points="247,-136.7 247,-155.7 276,-155.7 276,-136.7 247,-136.7"/>
<text text-anchor="start" x="257.4053" y="-142.8" font-family="Helvetica,sans-Serif" font-size="11.00" fill="#000000">5 &gt;</text>
</a>
</g>
</g>
<!-- user_session -->
<g id="node2" class="node">
<title>user_session</title>
<g id="a_node2"><a xlink:href="../../tables/user_session.html" xlink:title="user_session" target="_top">
<polygon fill="#ffffff" stroke="transparent" points="8,-180.2 8,-241.2 115,-241.2 115,-180.2 8,-180.2"/>
<polygon fill="#f5f5f5" stroke="transparent" points="8.5,-217.7 8.5,-240.7 115.5,-240.7 115.5,-217.7 8.5,-217.7"/>
<polygon fill="none" stroke="#000000" points="8.5,-217.7 8.5,-240.7 115.5,-240.7 115.5,-217.7 8.5,-217.7"/>
<text text-anchor="start" x="13.1039" y="-226.8" font-family="Helvetica,sans-Serif" font-weight="bold" font-size="11.00" fill="#000000">user_session</text>
<text text-anchor="start" x="81.0219" y="-225.8" font-family="Helvetica,sans-Serif" font-size="11.00" fill="#000000">[table]</text>
<polygon fill="none" stroke="#000000" points="8.5,-198.7 8.5,-217.7 115.5,-217.7 115.5,-198.7 8.5,-198.7"/>
<text text-anchor="start" x="11.5" y="-204.8" font-family="Helvetica,sans-Serif" font-size="11.00" fill="#000000">...</text>
<polygon fill="#ffffff" stroke="transparent" points="8.5,-179.7 8.5,-198.7 38.5,-198.7 38.5,-179.7 8.5,-179.7"/>
<polygon fill="none" stroke="#000000" points="8.5,-179.7 8.5,-198.7 38.5,-198.7 38.5,-179.7 8.5,-179.7"/>
<text text-anchor="start" x="11.5" y="-185.8" font-family="Helvetica,sans-Serif" font-size="11.00" fill="#000000"> &#160;</text>
<polygon fill="#ffffff" stroke="transparent" points="38.5,-179.7 38.5,-198.7 85.5,-198.7 85.5,-179.7 38.5,-179.7"/>
<polygon fill="none" stroke="#000000" points="38.5,-179.7 38.5,-198.7 85.5,-198.7 85.5,-179.7 38.5,-179.7"/>
<text text-anchor="start" x="50.1105" y="-185.8" font-family="Helvetica,sans-Serif" font-size="11.00" fill="#000000">0 rows</text>
<polygon fill="#ffffff" stroke="transparent" points="85.5,-179.7 85.5,-198.7 115.5,-198.7 115.5,-179.7 85.5,-179.7"/>
<polygon fill="none" stroke="#000000" points="85.5,-179.7 85.5,-198.7 115.5,-198.7 115.5,-179.7 85.5,-179.7"/>
<text text-anchor="start" x="96.9053" y="-185.8" font-family="Helvetica,sans-Serif" font-size="11.00" fill="#000000">2 &gt;</text>
</a>
</g>
</g>
<!-- client_session&#45;&gt;user_session -->
<g id="edge1" class="edge">
<title>client_session:w&#45;&gt;user_session:e</title>
<path fill="none" stroke="#000000" d="M149.2829,-207.7C138.2886,-207.7 131.1615,-207.7 115.5,-207.7"/>
<polygon fill="#000000" stroke="#000000" points="156,-207.7001 164,-211.3 160,-207.7 164,-207.7 164,-207.7 164,-207.7 160,-207.7 164,-204.1 156,-207.7001 156,-207.7001"/>
<ellipse fill="none" stroke="#000000" cx="152.8" cy="-207.7001" rx="3.2" ry="3.2"/>
</g>
<!-- client_session_auth_status -->
<g id="node3" class="node">
<title>client_session_auth_status</title>
<g id="a_node3"><a xlink:href="../../tables/client_session_auth_status.html" xlink:title="client_session_auth_status" target="_top">
<polygon fill="#ffffff" stroke="transparent" points="340.5,-418.2 340.5,-479.2 515.5,-479.2 515.5,-418.2 340.5,-418.2"/>
<polygon fill="#f5f5f5" stroke="transparent" points="341,-455.7 341,-478.7 516,-478.7 516,-455.7 341,-455.7"/>
<polygon fill="none" stroke="#000000" points="341,-455.7 341,-478.7 516,-478.7 516,-455.7 341,-455.7"/>
<text text-anchor="start" x="345.978" y="-464.8" font-family="Helvetica,sans-Serif" font-weight="bold" font-size="11.00" fill="#000000">client_session_auth_status</text>
<text text-anchor="start" x="481.5219" y="-463.8" font-family="Helvetica,sans-Serif" font-size="11.00" fill="#000000">[table]</text>
<polygon fill="none" stroke="#000000" points="341,-436.7 341,-455.7 516,-455.7 516,-436.7 341,-436.7"/>
<text text-anchor="start" x="344" y="-442.8" font-family="Helvetica,sans-Serif" font-size="11.00" fill="#000000">...</text>
<polygon fill="#ffffff" stroke="transparent" points="341,-417.7 341,-436.7 414,-436.7 414,-417.7 341,-417.7"/>
<polygon fill="none" stroke="#000000" points="341,-417.7 341,-436.7 414,-436.7 414,-417.7 341,-417.7"/>
<text text-anchor="start" x="344" y="-423.8" font-family="Helvetica,sans-Serif" font-size="11.00" fill="#000000">&lt; 1</text>
<polygon fill="#ffffff" stroke="transparent" points="414,-417.7 414,-436.7 478,-436.7 478,-417.7 414,-417.7"/>
<polygon fill="none" stroke="#000000" points="414,-417.7 414,-436.7 478,-436.7 478,-417.7 414,-417.7"/>
<text text-anchor="start" x="442.6105" y="-423.8" font-family="Helvetica,sans-Serif" font-size="11.00" fill="#000000">0 rows</text>
<polygon fill="#ffffff" stroke="transparent" points="478,-417.7 478,-436.7 516,-436.7 516,-417.7 478,-417.7"/>
<polygon fill="none" stroke="#000000" points="478,-417.7 478,-436.7 516,-436.7 516,-417.7 478,-417.7"/>
<text text-anchor="start" x="506.8862" y="-423.8" font-family="Helvetica,sans-Serif" font-size="11.00" fill="#000000"> &#160;</text>
</a>
</g>
</g>
<!-- client_session_auth_status&#45;&gt;client_session -->
<g id="edge2" class="edge">
<title>client_session_auth_status:w&#45;&gt;client_session:e</title>
<path fill="none" stroke="#000000" d="M326.5905,-443.8327C254.8633,-422.721 370.77,-229.7 276,-229.7"/>
<polygon fill="#000000" stroke="#000000" points="333.0663,-444.6718 340.5373,-449.2701 337.0332,-445.1859 341,-445.7 341,-445.7 341,-445.7 337.0332,-445.1859 341.4627,-442.1299 333.0663,-444.6718 333.0663,-444.6718"/>
<ellipse fill="none" stroke="#000000" cx="329.8929" cy="-444.2606" rx="3.2" ry="3.2"/>
</g>
<!-- client_session_note -->
<g id="node4" class="node">
<title>client_session_note</title>
<g id="a_node4"><a xlink:href="../../tables/client_session_note.html" xlink:title="client_session_note" target="_top">
<polygon fill="#ffffff" stroke="transparent" points="325,-284.7 325,-396.7 531,-396.7 531,-284.7 325,-284.7"/>
<polygon fill="#f5f5f5" stroke="transparent" points="327,-371.7 327,-394.7 529,-394.7 529,-371.7 327,-371.7"/>
<polygon fill="none" stroke="#000000" points="327,-371.7 327,-394.7 529,-394.7 529,-371.7 327,-371.7"/>
<text text-anchor="start" x="332" y="-380.8" font-family="Helvetica,sans-Serif" font-weight="bold" font-size="11.00" fill="#000000">client_session_note</text>
<text text-anchor="start" x="494.0437" y="-379.8" font-family="Helvetica,sans-Serif" font-size="11.00" fill="#000000">[table]</text>
<polygon fill="none" stroke="#000000" points="327,-349.7 327,-371.7 462,-371.7 462,-349.7 327,-349.7"/>
<image xlink:href="../../images/primaryKeys.png" width="11px" height="12px" preserveAspectRatio="xMinYMin meet" x="332" y="-366.7"/>
<text text-anchor="start" x="347" y="-356.8" font-family="Helvetica,sans-Serif" font-size="11.00" fill="#000000">name</text>
<polygon fill="none" stroke="#000000" points="462,-349.7 462,-371.7 529,-371.7 529,-349.7 462,-349.7"/>
<text text-anchor="start" x="464.9365" y="-357.4" font-family="Helvetica,sans-Serif" font-size="11.00" fill="#000000">varchar[255]</text>
<polygon fill="none" stroke="#000000" points="327,-327.7 327,-349.7 462,-349.7 462,-327.7 327,-327.7"/>
<text text-anchor="start" x="347" y="-334.8" font-family="Helvetica,sans-Serif" font-size="11.00" fill="#000000">value</text>
<polygon fill="none" stroke="#000000" points="462,-327.7 462,-349.7 529,-349.7 529,-327.7 462,-327.7"/>
<text text-anchor="start" x="464.9365" y="-335.4" font-family="Helvetica,sans-Serif" font-size="11.00" fill="#000000">varchar[255]</text>
<polygon fill="none" stroke="#000000" points="327,-305.7 327,-327.7 462,-327.7 462,-305.7 327,-305.7"/>
<image xlink:href="../../images/primaryKeys.png" width="11px" height="12px" preserveAspectRatio="xMinYMin meet" x="332" y="-322.7"/>
<text text-anchor="start" x="347" y="-312.8" font-family="Helvetica,sans-Serif" font-size="11.00" fill="#000000">client_session</text>
<polygon fill="none" stroke="#000000" points="462,-305.7 462,-327.7 529,-327.7 529,-305.7 462,-305.7"/>
<text text-anchor="start" x="465" y="-313.4" font-family="Helvetica,sans-Serif" font-size="11.00" fill="#000000">varchar[36]</text>
<polygon fill="#ffffff" stroke="transparent" points="327,-286.7 327,-305.7 386,-305.7 386,-286.7 327,-286.7"/>
<polygon fill="none" stroke="#000000" points="327,-286.7 327,-305.7 386,-305.7 386,-286.7 327,-286.7"/>
<text text-anchor="start" x="330" y="-292.8" font-family="Helvetica,sans-Serif" font-size="11.00" fill="#000000">&lt; 1</text>
<polygon fill="#ffffff" stroke="transparent" points="386,-286.7 386,-305.7 462,-305.7 462,-286.7 386,-286.7"/>
<polygon fill="none" stroke="#000000" points="386,-286.7 386,-305.7 462,-305.7 462,-286.7 386,-286.7"/>
<text text-anchor="start" x="426.6105" y="-292.8" font-family="Helvetica,sans-Serif" font-size="11.00" fill="#000000">0 rows</text>
<polygon fill="#ffffff" stroke="transparent" points="462,-286.7 462,-305.7 529,-305.7 529,-286.7 462,-286.7"/>
<polygon fill="none" stroke="#000000" points="462,-286.7 462,-305.7 529,-305.7 529,-286.7 462,-286.7"/>
<text text-anchor="start" x="510.4053" y="-292.8" font-family="Helvetica,sans-Serif" font-size="11.00" fill="#000000">0 &gt;</text>
<polygon fill="none" stroke="#000000" stroke-width="2" points="326,-285.7 326,-395.7 530,-395.7 530,-285.7 326,-285.7"/>
</a>
</g>
</g>
<!-- client_session_note&#45;&gt;client_session -->
<g id="edge3" class="edge">
<title>client_session_note:w&#45;&gt;client_session:e</title>
<path fill="none" stroke="#000000" d="M313.1673,-312.5038C290.9713,-295.1252 314.8679,-229.7 276,-229.7"/>
<polygon fill="#000000" stroke="#000000" points="319.3445,-314.3776 325.9549,-320.145 323.1722,-315.5388 327,-316.7 327,-316.7 327,-316.7 323.1722,-315.5388 328.0451,-313.255 319.3445,-314.3776 319.3445,-314.3776"/>
<ellipse fill="none" stroke="#000000" cx="316.2823" cy="-313.4487" rx="3.2" ry="3.2"/>
</g>
<!-- client_session_prot_mapper -->
<g id="node5" class="node">
<title>client_session_prot_mapper</title>
<g id="a_node5"><a xlink:href="../../tables/client_session_prot_mapper.html" xlink:title="client_session_prot_mapper" target="_top">
<polygon fill="#ffffff" stroke="transparent" points="338,-202.2 338,-263.2 518,-263.2 518,-202.2 338,-202.2"/>
<polygon fill="#f5f5f5" stroke="transparent" points="338,-239.7 338,-262.7 518,-262.7 518,-239.7 338,-239.7"/>
<polygon fill="none" stroke="#000000" points="338,-239.7 338,-262.7 518,-262.7 518,-239.7 338,-239.7"/>
<text text-anchor="start" x="342.7346" y="-248.8" font-family="Helvetica,sans-Serif" font-weight="bold" font-size="11.00" fill="#000000">client_session_prot_mapper</text>
<text text-anchor="start" x="483.5219" y="-247.8" font-family="Helvetica,sans-Serif" font-size="11.00" fill="#000000">[table]</text>
<polygon fill="none" stroke="#000000" points="338,-220.7 338,-239.7 518,-239.7 518,-220.7 338,-220.7"/>
<text text-anchor="start" x="341" y="-226.8" font-family="Helvetica,sans-Serif" font-size="11.00" fill="#000000">...</text>
<polygon fill="#ffffff" stroke="transparent" points="338,-201.7 338,-220.7 413,-220.7 413,-201.7 338,-201.7"/>
<polygon fill="none" stroke="#000000" points="338,-201.7 338,-220.7 413,-220.7 413,-201.7 338,-201.7"/>
<text text-anchor="start" x="341" y="-207.8" font-family="Helvetica,sans-Serif" font-size="11.00" fill="#000000">&lt; 1</text>
<polygon fill="#ffffff" stroke="transparent" points="413,-201.7 413,-220.7 478,-220.7 478,-201.7 413,-201.7"/>
<polygon fill="none" stroke="#000000" points="413,-201.7 413,-220.7 478,-220.7 478,-201.7 413,-201.7"/>
<text text-anchor="start" x="442.6105" y="-207.8" font-family="Helvetica,sans-Serif" font-size="11.00" fill="#000000">0 rows</text>
<polygon fill="#ffffff" stroke="transparent" points="478,-201.7 478,-220.7 518,-220.7 518,-201.7 478,-201.7"/>
<polygon fill="none" stroke="#000000" points="478,-201.7 478,-220.7 518,-220.7 518,-201.7 478,-201.7"/>
<text text-anchor="start" x="508.8862" y="-207.8" font-family="Helvetica,sans-Serif" font-size="11.00" fill="#000000"> &#160;</text>
</a>
</g>
</g>
<!-- client_session_prot_mapper&#45;&gt;client_session -->
<g id="edge4" class="edge">
<title>client_session_prot_mapper:w&#45;&gt;client_session:e</title>
<path fill="none" stroke="#000000" d="M323.42,-229.7C306.7931,-229.7 297.9583,-229.7 276,-229.7"/>
<polygon fill="#000000" stroke="#000000" points="330,-229.7001 338,-233.3 334,-229.7 338,-229.7 338,-229.7 338,-229.7 334,-229.7 338,-226.1 330,-229.7001 330,-229.7001"/>
<ellipse fill="none" stroke="#000000" cx="326.8" cy="-229.7001" rx="3.2" ry="3.2"/>
</g>
<!-- client_session_role -->
<g id="node6" class="node">
<title>client_session_role</title>
<g id="a_node6"><a xlink:href="../../tables/client_session_role.html" xlink:title="client_session_role" target="_top">
<polygon fill="#ffffff" stroke="transparent" points="360,-120.2 360,-181.2 496,-181.2 496,-120.2 360,-120.2"/>
<polygon fill="#f5f5f5" stroke="transparent" points="360,-157.7 360,-180.7 496,-180.7 496,-157.7 360,-157.7"/>
<polygon fill="none" stroke="#000000" points="360,-157.7 360,-180.7 496,-180.7 496,-157.7 360,-157.7"/>
<text text-anchor="start" x="364.7418" y="-166.8" font-family="Helvetica,sans-Serif" font-weight="bold" font-size="11.00" fill="#000000">client_session_role</text>
<text text-anchor="start" x="461.5219" y="-165.8" font-family="Helvetica,sans-Serif" font-size="11.00" fill="#000000">[table]</text>
<polygon fill="none" stroke="#000000" points="360,-138.7 360,-157.7 496,-157.7 496,-138.7 360,-138.7"/>
<text text-anchor="start" x="363" y="-144.8" font-family="Helvetica,sans-Serif" font-size="11.00" fill="#000000">...</text>
<polygon fill="#ffffff" stroke="transparent" points="360,-119.7 360,-138.7 413,-138.7 413,-119.7 360,-119.7"/>
<polygon fill="none" stroke="#000000" points="360,-119.7 360,-138.7 413,-138.7 413,-119.7 360,-119.7"/>
<text text-anchor="start" x="363" y="-125.8" font-family="Helvetica,sans-Serif" font-size="11.00" fill="#000000">&lt; 1</text>
<polygon fill="#ffffff" stroke="transparent" points="413,-119.7 413,-138.7 467,-138.7 467,-119.7 413,-119.7"/>
<polygon fill="none" stroke="#000000" points="413,-119.7 413,-138.7 467,-138.7 467,-119.7 413,-119.7"/>
<text text-anchor="start" x="431.6105" y="-125.8" font-family="Helvetica,sans-Serif" font-size="11.00" fill="#000000">0 rows</text>
<polygon fill="#ffffff" stroke="transparent" points="467,-119.7 467,-138.7 496,-138.7 496,-119.7 467,-119.7"/>
<polygon fill="none" stroke="#000000" points="467,-119.7 467,-138.7 496,-138.7 496,-119.7 467,-119.7"/>
<text text-anchor="start" x="486.8862" y="-125.8" font-family="Helvetica,sans-Serif" font-size="11.00" fill="#000000"> &#160;</text>
</a>
</g>
</g>
<!-- client_session_role&#45;&gt;client_session -->
<g id="edge5" class="edge">
<title>client_session_role:w&#45;&gt;client_session:e</title>
<path fill="none" stroke="#000000" d="M345.7421,-150.244C311.3123,-164.0847 322.67,-229.7 276,-229.7"/>
<polygon fill="#000000" stroke="#000000" points="352.1244,-149.1053 360.6324,-151.244 356.0622,-148.4026 360,-147.7 360,-147.7 360,-147.7 356.0622,-148.4026 359.3676,-144.156 352.1244,-149.1053 352.1244,-149.1053"/>
<ellipse fill="none" stroke="#000000" cx="348.9741" cy="-149.6674" rx="3.2" ry="3.2"/>
</g>
<!-- client_user_session_note -->
<g id="node7" class="node">
<title>client_user_session_note</title>
<g id="a_node7"><a xlink:href="../../tables/client_user_session_note.html" xlink:title="client_user_session_note" target="_top">
<polygon fill="#ffffff" stroke="transparent" points="344.5,-38.2 344.5,-99.2 511.5,-99.2 511.5,-38.2 344.5,-38.2"/>
<polygon fill="#f5f5f5" stroke="transparent" points="345,-75.7 345,-98.7 512,-98.7 512,-75.7 345,-75.7"/>
<polygon fill="none" stroke="#000000" points="345,-75.7 345,-98.7 512,-98.7 512,-75.7 345,-75.7"/>
<text text-anchor="start" x="349.954" y="-84.8" font-family="Helvetica,sans-Serif" font-weight="bold" font-size="11.00" fill="#000000">client_user_session_note</text>
<text text-anchor="start" x="477.5219" y="-83.8" font-family="Helvetica,sans-Serif" font-size="11.00" fill="#000000">[table]</text>
<polygon fill="none" stroke="#000000" points="345,-56.7 345,-75.7 512,-75.7 512,-56.7 345,-56.7"/>
<text text-anchor="start" x="348" y="-62.8" font-family="Helvetica,sans-Serif" font-size="11.00" fill="#000000">...</text>
<polygon fill="#ffffff" stroke="transparent" points="345,-37.7 345,-56.7 414,-56.7 414,-37.7 345,-37.7"/>
<polygon fill="none" stroke="#000000" points="345,-37.7 345,-56.7 414,-56.7 414,-37.7 345,-37.7"/>
<text text-anchor="start" x="348" y="-43.8" font-family="Helvetica,sans-Serif" font-size="11.00" fill="#000000">&lt; 1</text>
<polygon fill="#ffffff" stroke="transparent" points="414,-37.7 414,-56.7 476,-56.7 476,-37.7 414,-37.7"/>
<polygon fill="none" stroke="#000000" points="414,-37.7 414,-56.7 476,-56.7 476,-37.7 414,-37.7"/>
<text text-anchor="start" x="440.6105" y="-43.8" font-family="Helvetica,sans-Serif" font-size="11.00" fill="#000000">0 rows</text>
<polygon fill="#ffffff" stroke="transparent" points="476,-37.7 476,-56.7 512,-56.7 512,-37.7 476,-37.7"/>
<polygon fill="none" stroke="#000000" points="476,-37.7 476,-56.7 512,-56.7 512,-37.7 476,-37.7"/>
<text text-anchor="start" x="502.8862" y="-43.8" font-family="Helvetica,sans-Serif" font-size="11.00" fill="#000000"> &#160;</text>
</a>
</g>
</g>
<!-- client_user_session_note&#45;&gt;client_session -->
<g id="edge6" class="edge">
<title>client_user_session_note:w&#45;&gt;client_session:e</title>
<path fill="none" stroke="#000000" d="M330.6978,-68.0184C277.6283,-87.9517 349.5173,-229.7 276,-229.7"/>
<polygon fill="#000000" stroke="#000000" points="337.1031,-66.9801 345.5761,-69.2536 341.0515,-66.3401 345,-65.7 345,-65.7 345,-65.7 341.0515,-66.3401 344.4239,-62.1464 337.1031,-66.9801 337.1031,-66.9801"/>
<ellipse fill="none" stroke="#000000" cx="333.9443" cy="-67.4922" rx="3.2" ry="3.2"/>
</g>
</g>
</svg>
