<?xml version="1.0" encoding="UTF-8" standalone="no"?>
<!DOCTYPE svg PUBLIC "-//W3C//DTD SVG 1.1//EN"
 "http://www.w3.org/Graphics/SVG/1.1/DTD/svg11.dtd">
<!-- Generated by graphviz version 2.40.1 (20161225.0304)
 -->
<!-- Title: twoDegreesRelationshipsDiagram Pages: 1 -->
<svg width="626pt" height="737pt"
 viewBox="0.00 0.00 626.00 737.20" xmlns="http://www.w3.org/2000/svg" xmlns:xlink="http://www.w3.org/1999/xlink">
<g id="graph0" class="graph" transform="scale(1 1) rotate(0) translate(4 733.2)">
<title>twoDegreesRelationshipsDiagram</title>
<polygon fill="#ffffff" stroke="transparent" points="-4,4 -4,-733.2 622,-733.2 622,4 -4,4"/>
<text text-anchor="middle" x="72.4936" y="-7.3" font-family="Helvetica,sans-Serif" font-size="11.00" fill="#000000">Generated by SchemaSpy</text>
<!-- client -->
<g id="node1" class="node">
<title>client</title>
<g id="a_node1"><a xlink:href="../../tables/client.html" xlink:title="client" target="_top">
<polygon fill="#ffffff" stroke="transparent" points="128,-260.2 128,-387.2 323,-387.2 323,-260.2 128,-260.2"/>
<polygon fill="#f5f5f5" stroke="transparent" points="128.5,-363.7 128.5,-386.7 323.5,-386.7 323.5,-363.7 128.5,-363.7"/>
<polygon fill="none" stroke="#000000" points="128.5,-363.7 128.5,-386.7 323.5,-386.7 323.5,-363.7 128.5,-363.7"/>
<text text-anchor="start" x="133.5" y="-372.8" font-family="Helvetica,sans-Serif" font-weight="bold" font-size="11.00" fill="#000000">client</text>
<text text-anchor="start" x="288.5437" y="-371.8" font-family="Helvetica,sans-Serif" font-size="11.00" fill="#000000">[table]</text>
<polygon fill="none" stroke="#000000" points="128.5,-341.7 128.5,-363.7 323.5,-363.7 323.5,-341.7 128.5,-341.7"/>
<image xlink:href="../../images/primaryKeys.png" width="11px" height="12px" preserveAspectRatio="xMinYMin meet" x="133.5" y="-358.7"/>
<text text-anchor="start" x="148.5" y="-348.8" font-family="Helvetica,sans-Serif" font-size="11.00" fill="#000000">id</text>
<polygon fill="#ffffff" stroke="transparent" points="128.5,-319.7 128.5,-341.7 323.5,-341.7 323.5,-319.7 128.5,-319.7"/>
<polygon fill="none" stroke="#000000" points="128.5,-319.7 128.5,-341.7 323.5,-341.7 323.5,-319.7 128.5,-319.7"/>
<image xlink:href="../../images/foreignKeys.png" width="11px" height="12px" preserveAspectRatio="xMinYMin meet" x="133.5" y="-336.7"/>
<text text-anchor="start" x="148.5" y="-326.8" font-family="Helvetica,sans-Serif" font-size="11.00" fill="#000000">client_id</text>
<polygon fill="#ffffff" stroke="transparent" points="128.5,-297.7 128.5,-319.7 323.5,-319.7 323.5,-297.7 128.5,-297.7"/>
<polygon fill="none" stroke="#000000" points="128.5,-297.7 128.5,-319.7 323.5,-319.7 323.5,-297.7 128.5,-297.7"/>
<image xlink:href="../../images/foreignKeys.png" width="11px" height="12px" preserveAspectRatio="xMinYMin meet" x="133.5" y="-314.7"/>
<text text-anchor="start" x="148.5" y="-304.8" font-family="Helvetica,sans-Serif" font-size="11.00" fill="#000000">realm_id</text>
<polygon fill="none" stroke="#000000" points="128.5,-278.7 128.5,-297.7 323.5,-297.7 323.5,-278.7 128.5,-278.7"/>
<text text-anchor="start" x="131.5" y="-284.8" font-family="Helvetica,sans-Serif" font-size="11.00" fill="#000000">...</text>
<polygon fill="#ffffff" stroke="transparent" points="128.5,-259.7 128.5,-278.7 206.5,-278.7 206.5,-259.7 128.5,-259.7"/>
<polygon fill="none" stroke="#000000" points="128.5,-259.7 128.5,-278.7 206.5,-278.7 206.5,-259.7 128.5,-259.7"/>
<text text-anchor="start" x="131.5" y="-265.8" font-family="Helvetica,sans-Serif" font-size="11.00" fill="#000000">&lt; 1</text>
<polygon fill="#ffffff" stroke="transparent" points="206.5,-259.7 206.5,-278.7 273.5,-278.7 273.5,-259.7 206.5,-259.7"/>
<polygon fill="none" stroke="#000000" points="206.5,-259.7 206.5,-278.7 273.5,-278.7 273.5,-259.7 206.5,-259.7"/>
<text text-anchor="start" x="238.1105" y="-265.8" font-family="Helvetica,sans-Serif" font-size="11.00" fill="#000000">6 rows</text>
<polygon fill="#ffffff" stroke="transparent" points="273.5,-259.7 273.5,-278.7 323.5,-278.7 323.5,-259.7 273.5,-259.7"/>
<polygon fill="none" stroke="#000000" points="273.5,-259.7 273.5,-278.7 323.5,-278.7 323.5,-259.7 273.5,-259.7"/>
<text text-anchor="start" x="304.9053" y="-265.8" font-family="Helvetica,sans-Serif" font-size="11.00" fill="#000000">8 &gt;</text>
</a>
</g>
</g>
<!-- realm -->
<g id="node2" class="node">
<title>realm</title>
<g id="a_node2"><a xlink:href="../../tables/realm.html" xlink:title="realm" target="_top">
<polygon fill="#ffffff" stroke="transparent" points="8,-281.2 8,-342.2 79,-342.2 79,-281.2 8,-281.2"/>
<polygon fill="#f5f5f5" stroke="transparent" points="8.5,-318.7 8.5,-341.7 79.5,-341.7 79.5,-318.7 8.5,-318.7"/>
<polygon fill="none" stroke="#000000" points="8.5,-318.7 8.5,-341.7 79.5,-341.7 79.5,-318.7 8.5,-318.7"/>
<text text-anchor="start" x="13.5" y="-327.8" font-family="Helvetica,sans-Serif" font-weight="bold" font-size="11.00" fill="#000000">realm</text>
<text text-anchor="start" x="45.0219" y="-326.8" font-family="Helvetica,sans-Serif" font-size="11.00" fill="#000000">[table]</text>
<polygon fill="none" stroke="#000000" points="8.5,-299.7 8.5,-318.7 79.5,-318.7 79.5,-299.7 8.5,-299.7"/>
<text text-anchor="start" x="11.5" y="-305.8" font-family="Helvetica,sans-Serif" font-size="11.00" fill="#000000">...</text>
<polygon fill="#ffffff" stroke="transparent" points="8.5,-280.7 8.5,-299.7 20.5,-299.7 20.5,-280.7 8.5,-280.7"/>
<polygon fill="none" stroke="#000000" points="8.5,-280.7 8.5,-299.7 20.5,-299.7 20.5,-280.7 8.5,-280.7"/>
<text text-anchor="start" x="11.4431" y="-286.8" font-family="Helvetica,sans-Serif" font-size="11.00" fill="#000000"> &#160;</text>
<polygon fill="#ffffff" stroke="transparent" points="20.5,-280.7 20.5,-299.7 52.5,-299.7 52.5,-280.7 20.5,-280.7"/>
<polygon fill="none" stroke="#000000" points="20.5,-280.7 20.5,-299.7 52.5,-299.7 52.5,-280.7 20.5,-280.7"/>
<text text-anchor="start" x="23.0553" y="-286.8" font-family="Helvetica,sans-Serif" font-size="11.00" fill="#000000">1 row</text>
<polygon fill="#ffffff" stroke="transparent" points="52.5,-280.7 52.5,-299.7 79.5,-299.7 79.5,-280.7 52.5,-280.7"/>
<polygon fill="none" stroke="#000000" points="52.5,-280.7 52.5,-299.7 79.5,-299.7 79.5,-280.7 52.5,-280.7"/>
<text text-anchor="start" x="55.1452" y="-286.8" font-family="Helvetica,sans-Serif" font-size="11.00" fill="#000000">23 &gt;</text>
</a>
</g>
</g>
<!-- client&#45;&gt;realm -->
<g id="edge1" class="edge">
<title>client:w&#45;&gt;realm:e</title>
<path fill="none" stroke="#000000" d="M113.9909,-308.7C102.6774,-308.7 95.4931,-308.7 79.5,-308.7"/>
<polygon fill="#000000" stroke="#000000" points="120.5,-308.7001 128.5,-312.3 124.5,-308.7 128.5,-308.7 128.5,-308.7 128.5,-308.7 124.5,-308.7 128.5,-305.1 120.5,-308.7001 120.5,-308.7001"/>
<ellipse fill="none" stroke="#000000" cx="117.3" cy="-308.7001" rx="3.2" ry="3.2"/>
</g>
<!-- client_attributes -->
<g id="node3" class="node">
<title>client_attributes</title>
<g id="a_node3"><a xlink:href="../../tables/client_attributes.html" xlink:title="client_attributes" target="_top">
<polygon fill="#ffffff" stroke="transparent" points="431,-664.2 431,-725.2 551,-725.2 551,-664.2 431,-664.2"/>
<polygon fill="#f5f5f5" stroke="transparent" points="431,-701.7 431,-724.7 551,-724.7 551,-701.7 431,-701.7"/>
<polygon fill="none" stroke="#000000" points="431,-701.7 431,-724.7 551,-724.7 551,-701.7 431,-701.7"/>
<text text-anchor="start" x="435.9918" y="-710.8" font-family="Helvetica,sans-Serif" font-weight="bold" font-size="11.00" fill="#000000">client_attributes</text>
<text text-anchor="start" x="516.5219" y="-709.8" font-family="Helvetica,sans-Serif" font-size="11.00" fill="#000000">[table]</text>
<polygon fill="none" stroke="#000000" points="431,-682.7 431,-701.7 551,-701.7 551,-682.7 431,-682.7"/>
<text text-anchor="start" x="434" y="-688.8" font-family="Helvetica,sans-Serif" font-size="11.00" fill="#000000">...</text>
<polygon fill="#ffffff" stroke="transparent" points="431,-663.7 431,-682.7 476,-682.7 476,-663.7 431,-663.7"/>
<polygon fill="none" stroke="#000000" points="431,-663.7 431,-682.7 476,-682.7 476,-663.7 431,-663.7"/>
<text text-anchor="start" x="434" y="-669.8" font-family="Helvetica,sans-Serif" font-size="11.00" fill="#000000">&lt; 1</text>
<polygon fill="#ffffff" stroke="transparent" points="476,-663.7 476,-682.7 526,-682.7 526,-663.7 476,-663.7"/>
<polygon fill="none" stroke="#000000" points="476,-663.7 476,-682.7 526,-682.7 526,-663.7 476,-663.7"/>
<text text-anchor="start" x="490.6105" y="-669.8" font-family="Helvetica,sans-Serif" font-size="11.00" fill="#000000">2 rows</text>
<polygon fill="#ffffff" stroke="transparent" points="526,-663.7 526,-682.7 551,-682.7 551,-663.7 526,-663.7"/>
<polygon fill="none" stroke="#000000" points="526,-663.7 526,-682.7 551,-682.7 551,-663.7 526,-663.7"/>
<text text-anchor="start" x="541.8862" y="-669.8" font-family="Helvetica,sans-Serif" font-size="11.00" fill="#000000"> &#160;</text>
</a>
</g>
</g>
<!-- client_attributes&#45;&gt;client -->
<g id="edge2" class="edge">
<title>client_attributes:w&#45;&gt;client:e</title>
<path fill="none" stroke="#000000" d="M416.3644,-690.9595C392.381,-688.2315 380.1736,-677.632 364,-653.7 326.2089,-597.7808 390.9917,-352.7 323.5,-352.7"/>
<polygon fill="#000000" stroke="#000000" points="423.0102,-691.2957 430.8181,-695.2954 427.0051,-691.4979 431,-691.7 431,-691.7 431,-691.7 427.0051,-691.4979 431.1819,-688.1046 423.0102,-691.2957 423.0102,-691.2957"/>
<ellipse fill="none" stroke="#000000" cx="419.8143" cy="-691.134" rx="3.2" ry="3.2"/>
</g>
<!-- client_default_roles -->
<g id="node4" class="node">
<title>client_default_roles</title>
<g id="a_node4"><a xlink:href="../../tables/client_default_roles.html" xlink:title="client_default_roles" target="_top">
<polygon fill="#ffffff" stroke="transparent" points="422.5,-582.2 422.5,-643.2 559.5,-643.2 559.5,-582.2 422.5,-582.2"/>
<polygon fill="#f5f5f5" stroke="transparent" points="423,-619.7 423,-642.7 560,-642.7 560,-619.7 423,-619.7"/>
<polygon fill="none" stroke="#000000" points="423,-619.7 423,-642.7 560,-642.7 560,-619.7 423,-619.7"/>
<text text-anchor="start" x="427.6274" y="-628.8" font-family="Helvetica,sans-Serif" font-weight="bold" font-size="11.00" fill="#000000">client_default_roles</text>
<text text-anchor="start" x="525.5219" y="-627.8" font-family="Helvetica,sans-Serif" font-size="11.00" fill="#000000">[table]</text>
<polygon fill="none" stroke="#000000" points="423,-600.7 423,-619.7 560,-619.7 560,-600.7 423,-600.7"/>
<text text-anchor="start" x="426" y="-606.8" font-family="Helvetica,sans-Serif" font-size="11.00" fill="#000000">...</text>
<polygon fill="#ffffff" stroke="transparent" points="423,-581.7 423,-600.7 477,-600.7 477,-581.7 423,-581.7"/>
<polygon fill="none" stroke="#000000" points="423,-581.7 423,-600.7 477,-600.7 477,-581.7 423,-581.7"/>
<text text-anchor="start" x="426" y="-587.8" font-family="Helvetica,sans-Serif" font-size="11.00" fill="#000000">&lt; 1</text>
<polygon fill="#ffffff" stroke="transparent" points="477,-581.7 477,-600.7 531,-600.7 531,-581.7 477,-581.7"/>
<polygon fill="none" stroke="#000000" points="477,-581.7 477,-600.7 531,-600.7 531,-581.7 477,-581.7"/>
<text text-anchor="start" x="495.6105" y="-587.8" font-family="Helvetica,sans-Serif" font-size="11.00" fill="#000000">2 rows</text>
<polygon fill="#ffffff" stroke="transparent" points="531,-581.7 531,-600.7 560,-600.7 560,-581.7 531,-581.7"/>
<polygon fill="none" stroke="#000000" points="531,-581.7 531,-600.7 560,-600.7 560,-581.7 531,-581.7"/>
<text text-anchor="start" x="550.8862" y="-587.8" font-family="Helvetica,sans-Serif" font-size="11.00" fill="#000000"> &#160;</text>
</a>
</g>
</g>
<!-- client_default_roles&#45;&gt;client -->
<g id="edge3" class="edge">
<title>client_default_roles:w&#45;&gt;client:e</title>
<path fill="none" stroke="#000000" d="M408.6161,-608.6194C388.0169,-605.1343 378.3863,-593.1523 364,-571.7 336.4345,-530.5954 372.9919,-352.7 323.5,-352.7"/>
<polygon fill="#000000" stroke="#000000" points="415.0225,-609.1006 422.7303,-613.2899 419.0112,-609.4003 423,-609.7 423,-609.7 423,-609.7 419.0112,-609.4003 423.2697,-606.1101 415.0225,-609.1006 415.0225,-609.1006"/>
<ellipse fill="none" stroke="#000000" cx="411.8315" cy="-608.8609" rx="3.2" ry="3.2"/>
</g>
<!-- client_node_registrations -->
<g id="node5" class="node">
<title>client_node_registrations</title>
<g id="a_node5"><a xlink:href="../../tables/client_node_registrations.html" xlink:title="client_node_registrations" target="_top">
<polygon fill="#ffffff" stroke="transparent" points="372,-448.7 372,-560.7 610,-560.7 610,-448.7 372,-448.7"/>
<polygon fill="#f5f5f5" stroke="transparent" points="374,-535.7 374,-558.7 608,-558.7 608,-535.7 374,-535.7"/>
<polygon fill="none" stroke="#000000" points="374,-535.7 374,-558.7 608,-558.7 608,-535.7 374,-535.7"/>
<text text-anchor="start" x="379" y="-544.8" font-family="Helvetica,sans-Serif" font-weight="bold" font-size="11.00" fill="#000000">client_node_registrations</text>
<text text-anchor="start" x="573.0437" y="-543.8" font-family="Helvetica,sans-Serif" font-size="11.00" fill="#000000">[table]</text>
<polygon fill="none" stroke="#000000" points="374,-513.7 374,-535.7 541,-535.7 541,-513.7 374,-513.7"/>
<image xlink:href="../../images/primaryKeys.png" width="11px" height="12px" preserveAspectRatio="xMinYMin meet" x="379" y="-530.7"/>
<text text-anchor="start" x="394" y="-520.8" font-family="Helvetica,sans-Serif" font-size="11.00" fill="#000000">client_id</text>
<polygon fill="none" stroke="#000000" points="541,-513.7 541,-535.7 608,-535.7 608,-513.7 541,-513.7"/>
<text text-anchor="start" x="544" y="-521.4" font-family="Helvetica,sans-Serif" font-size="11.00" fill="#000000">varchar[36]</text>
<polygon fill="none" stroke="#000000" points="374,-491.7 374,-513.7 541,-513.7 541,-491.7 374,-491.7"/>
<text text-anchor="start" x="394" y="-498.8" font-family="Helvetica,sans-Serif" font-size="11.00" fill="#000000">value</text>
<polygon fill="none" stroke="#000000" points="541,-491.7 541,-513.7 608,-513.7 608,-491.7 541,-491.7"/>
<text text-anchor="start" x="544" y="-499.4" font-family="Helvetica,sans-Serif" font-size="11.00" fill="#000000">int4[10]</text>
<polygon fill="none" stroke="#000000" points="374,-469.7 374,-491.7 541,-491.7 541,-469.7 374,-469.7"/>
<image xlink:href="../../images/primaryKeys.png" width="11px" height="12px" preserveAspectRatio="xMinYMin meet" x="379" y="-486.7"/>
<text text-anchor="start" x="394" y="-476.8" font-family="Helvetica,sans-Serif" font-size="11.00" fill="#000000">name</text>
<polygon fill="none" stroke="#000000" points="541,-469.7 541,-491.7 608,-491.7 608,-469.7 541,-469.7"/>
<text text-anchor="start" x="543.9365" y="-477.4" font-family="Helvetica,sans-Serif" font-size="11.00" fill="#000000">varchar[255]</text>
<polygon fill="#ffffff" stroke="transparent" points="374,-450.7 374,-469.7 449,-469.7 449,-450.7 374,-450.7"/>
<polygon fill="none" stroke="#000000" points="374,-450.7 374,-469.7 449,-469.7 449,-450.7 374,-450.7"/>
<text text-anchor="start" x="377" y="-456.8" font-family="Helvetica,sans-Serif" font-size="11.00" fill="#000000">&lt; 1</text>
<polygon fill="#ffffff" stroke="transparent" points="449,-450.7 449,-469.7 541,-469.7 541,-450.7 449,-450.7"/>
<polygon fill="none" stroke="#000000" points="449,-450.7 449,-469.7 541,-469.7 541,-450.7 449,-450.7"/>
<text text-anchor="start" x="505.6105" y="-456.8" font-family="Helvetica,sans-Serif" font-size="11.00" fill="#000000">0 rows</text>
<polygon fill="#ffffff" stroke="transparent" points="541,-450.7 541,-469.7 608,-469.7 608,-450.7 541,-450.7"/>
<polygon fill="none" stroke="#000000" points="541,-450.7 541,-469.7 608,-469.7 608,-450.7 541,-450.7"/>
<text text-anchor="start" x="589.4053" y="-456.8" font-family="Helvetica,sans-Serif" font-size="11.00" fill="#000000">0 &gt;</text>
<polygon fill="none" stroke="#000000" stroke-width="2" points="373,-449.7 373,-559.7 609,-559.7 609,-449.7 373,-449.7"/>
</a>
</g>
</g>
<!-- client_node_registrations&#45;&gt;client -->
<g id="edge4" class="edge">
<title>client_node_registrations:w&#45;&gt;client:e</title>
<path fill="none" stroke="#000000" d="M359.5387,-522.1351C309.0754,-500.7389 397.4137,-352.7 323.5,-352.7"/>
<polygon fill="#000000" stroke="#000000" points="366.1229,-523.3029 373.3713,-528.2447 370.0615,-524.0014 374,-524.7 374,-524.7 374,-524.7 370.0615,-524.0014 374.6287,-521.1553 366.1229,-523.3029 366.1229,-523.3029"/>
<ellipse fill="none" stroke="#000000" cx="362.9721" cy="-522.744" rx="3.2" ry="3.2"/>
</g>
<!-- client_scope_client -->
<g id="node6" class="node">
<title>client_scope_client</title>
<g id="a_node6"><a xlink:href="../../tables/client_scope_client.html" xlink:title="client_scope_client" target="_top">
<polygon fill="#ffffff" stroke="transparent" points="423.5,-366.2 423.5,-427.2 558.5,-427.2 558.5,-366.2 423.5,-366.2"/>
<polygon fill="#f5f5f5" stroke="transparent" points="424,-403.7 424,-426.7 559,-426.7 559,-403.7 424,-403.7"/>
<polygon fill="none" stroke="#000000" points="424,-403.7 424,-426.7 559,-426.7 559,-403.7 424,-403.7"/>
<text text-anchor="start" x="428.5443" y="-412.8" font-family="Helvetica,sans-Serif" font-weight="bold" font-size="11.00" fill="#000000">client_scope_client</text>
<text text-anchor="start" x="524.5219" y="-411.8" font-family="Helvetica,sans-Serif" font-size="11.00" fill="#000000">[table]</text>
<polygon fill="none" stroke="#000000" points="424,-384.7 424,-403.7 559,-403.7 559,-384.7 424,-384.7"/>
<text text-anchor="start" x="427" y="-390.8" font-family="Helvetica,sans-Serif" font-size="11.00" fill="#000000">...</text>
<polygon fill="#ffffff" stroke="transparent" points="424,-365.7 424,-384.7 474,-384.7 474,-365.7 424,-365.7"/>
<polygon fill="none" stroke="#000000" points="424,-365.7 424,-384.7 474,-384.7 474,-365.7 424,-365.7"/>
<text text-anchor="start" x="427" y="-371.8" font-family="Helvetica,sans-Serif" font-size="11.00" fill="#000000">&lt; 2</text>
<polygon fill="#ffffff" stroke="transparent" points="474,-365.7 474,-384.7 532,-384.7 532,-365.7 474,-365.7"/>
<polygon fill="none" stroke="#000000" points="474,-365.7 474,-384.7 532,-384.7 532,-365.7 474,-365.7"/>
<text text-anchor="start" x="490.4956" y="-371.8" font-family="Helvetica,sans-Serif" font-size="11.00" fill="#000000">54 rows</text>
<polygon fill="#ffffff" stroke="transparent" points="532,-365.7 532,-384.7 559,-384.7 559,-365.7 532,-365.7"/>
<polygon fill="none" stroke="#000000" points="532,-365.7 532,-384.7 559,-384.7 559,-365.7 532,-365.7"/>
<text text-anchor="start" x="549.8862" y="-371.8" font-family="Helvetica,sans-Serif" font-size="11.00" fill="#000000"> &#160;</text>
</a>
</g>
</g>
<!-- client_scope_client&#45;&gt;client -->
<g id="edge5" class="edge">
<title>client_scope_client:w&#45;&gt;client:e</title>
<path fill="none" stroke="#000000" d="M409.6424,-392.3359C374.3512,-385.2217 366.4643,-352.7 323.5,-352.7"/>
<polygon fill="#000000" stroke="#000000" points="416.0359,-392.9433 423.6595,-397.2839 420.0179,-393.3216 424,-393.7 424,-393.7 424,-393.7 420.0179,-393.3216 424.3405,-390.1161 416.0359,-392.9433 416.0359,-392.9433"/>
<ellipse fill="none" stroke="#000000" cx="412.8502" cy="-392.6406" rx="3.2" ry="3.2"/>
</g>
<!-- protocol_mapper -->
<g id="node7" class="node">
<title>protocol_mapper</title>
<g id="a_node7"><a xlink:href="../../tables/protocol_mapper.html" xlink:title="protocol_mapper" target="_top">
<polygon fill="#ffffff" stroke="transparent" points="428.5,-284.2 428.5,-345.2 553.5,-345.2 553.5,-284.2 428.5,-284.2"/>
<polygon fill="#f5f5f5" stroke="transparent" points="429,-321.7 429,-344.7 554,-344.7 554,-321.7 429,-321.7"/>
<polygon fill="none" stroke="#000000" points="429,-321.7 429,-344.7 554,-344.7 554,-321.7 429,-321.7"/>
<text text-anchor="start" x="433.7412" y="-330.8" font-family="Helvetica,sans-Serif" font-weight="bold" font-size="11.00" fill="#000000">protocol_mapper</text>
<text text-anchor="start" x="519.5219" y="-329.8" font-family="Helvetica,sans-Serif" font-size="11.00" fill="#000000">[table]</text>
<polygon fill="none" stroke="#000000" points="429,-302.7 429,-321.7 554,-321.7 554,-302.7 429,-302.7"/>
<text text-anchor="start" x="432" y="-308.8" font-family="Helvetica,sans-Serif" font-size="11.00" fill="#000000">...</text>
<polygon fill="#ffffff" stroke="transparent" points="429,-283.7 429,-302.7 469,-302.7 469,-283.7 429,-283.7"/>
<polygon fill="none" stroke="#000000" points="429,-283.7 429,-302.7 469,-302.7 469,-283.7 429,-283.7"/>
<text text-anchor="start" x="432" y="-289.8" font-family="Helvetica,sans-Serif" font-size="11.00" fill="#000000">&lt; 2</text>
<polygon fill="#ffffff" stroke="transparent" points="469,-283.7 469,-302.7 523,-302.7 523,-283.7 469,-283.7"/>
<polygon fill="none" stroke="#000000" points="469,-283.7 469,-302.7 523,-302.7 523,-283.7 469,-283.7"/>
<text text-anchor="start" x="481.4956" y="-289.8" font-family="Helvetica,sans-Serif" font-size="11.00" fill="#000000">28 rows</text>
<polygon fill="#ffffff" stroke="transparent" points="523,-283.7 523,-302.7 554,-302.7 554,-283.7 523,-283.7"/>
<polygon fill="none" stroke="#000000" points="523,-283.7 523,-302.7 554,-302.7 554,-283.7 523,-283.7"/>
<text text-anchor="start" x="535.4053" y="-289.8" font-family="Helvetica,sans-Serif" font-size="11.00" fill="#000000">1 &gt;</text>
</a>
</g>
</g>
<!-- protocol_mapper&#45;&gt;client -->
<g id="edge6" class="edge">
<title>protocol_mapper:w&#45;&gt;client:e</title>
<path fill="none" stroke="#000000" d="M414.4921,-312.972C377.1582,-319.8924 368.4996,-352.7 323.5,-352.7"/>
<polygon fill="#000000" stroke="#000000" points="421.0306,-312.3988 429.3145,-315.2862 425.0153,-312.0494 429,-311.7 429,-311.7 429,-311.7 425.0153,-312.0494 428.6855,-308.1138 421.0306,-312.3988 421.0306,-312.3988"/>
<ellipse fill="none" stroke="#000000" cx="417.8428" cy="-312.6783" rx="3.2" ry="3.2"/>
</g>
<!-- redirect_uris -->
<g id="node8" class="node">
<title>redirect_uris</title>
<g id="a_node8"><a xlink:href="../../tables/redirect_uris.html" xlink:title="redirect_uris" target="_top">
<polygon fill="#ffffff" stroke="transparent" points="439.5,-202.2 439.5,-263.2 542.5,-263.2 542.5,-202.2 439.5,-202.2"/>
<polygon fill="#f5f5f5" stroke="transparent" points="440,-239.7 440,-262.7 543,-262.7 543,-239.7 440,-239.7"/>
<polygon fill="none" stroke="#000000" points="440,-239.7 440,-262.7 543,-262.7 543,-239.7 440,-239.7"/>
<text text-anchor="start" x="444.7506" y="-248.8" font-family="Helvetica,sans-Serif" font-weight="bold" font-size="11.00" fill="#000000">redirect_uris</text>
<text text-anchor="start" x="508.5219" y="-247.8" font-family="Helvetica,sans-Serif" font-size="11.00" fill="#000000">[table]</text>
<polygon fill="none" stroke="#000000" points="440,-220.7 440,-239.7 543,-239.7 543,-220.7 440,-220.7"/>
<text text-anchor="start" x="443" y="-226.8" font-family="Helvetica,sans-Serif" font-size="11.00" fill="#000000">...</text>
<polygon fill="#ffffff" stroke="transparent" points="440,-201.7 440,-220.7 477,-220.7 477,-201.7 440,-201.7"/>
<polygon fill="none" stroke="#000000" points="440,-201.7 440,-220.7 477,-220.7 477,-201.7 440,-201.7"/>
<text text-anchor="start" x="443" y="-207.8" font-family="Helvetica,sans-Serif" font-size="11.00" fill="#000000">&lt; 1</text>
<polygon fill="#ffffff" stroke="transparent" points="477,-201.7 477,-220.7 523,-220.7 523,-201.7 477,-201.7"/>
<polygon fill="none" stroke="#000000" points="477,-201.7 477,-220.7 523,-220.7 523,-201.7 477,-201.7"/>
<text text-anchor="start" x="487.6105" y="-207.8" font-family="Helvetica,sans-Serif" font-size="11.00" fill="#000000">3 rows</text>
<polygon fill="#ffffff" stroke="transparent" points="523,-201.7 523,-220.7 543,-220.7 543,-201.7 523,-201.7"/>
<polygon fill="none" stroke="#000000" points="523,-201.7 523,-220.7 543,-220.7 543,-201.7 523,-201.7"/>
<text text-anchor="start" x="533.8862" y="-207.8" font-family="Helvetica,sans-Serif" font-size="11.00" fill="#000000"> &#160;</text>
</a>
</g>
</g>
<!-- redirect_uris&#45;&gt;client -->
<g id="edge7" class="edge">
<title>redirect_uris:w&#45;&gt;client:e</title>
<path fill="none" stroke="#000000" d="M425.4977,-230.5728C397.8982,-234.2299 387.2092,-249.2741 364,-273.7 336.8217,-302.303 362.9562,-352.7 323.5,-352.7"/>
<polygon fill="#000000" stroke="#000000" points="432.0144,-230.1806 440.2163,-233.2935 436.0072,-229.9403 440,-229.7 440,-229.7 440,-229.7 436.0072,-229.9403 439.7837,-226.1065 432.0144,-230.1806 432.0144,-230.1806"/>
<ellipse fill="none" stroke="#000000" cx="428.8202" cy="-230.3729" rx="3.2" ry="3.2"/>
</g>
<!-- scope_mapping -->
<g id="node9" class="node">
<title>scope_mapping</title>
<g id="a_node9"><a xlink:href="../../tables/scope_mapping.html" xlink:title="scope_mapping" target="_top">
<polygon fill="#ffffff" stroke="transparent" points="431,-120.2 431,-181.2 551,-181.2 551,-120.2 431,-120.2"/>
<polygon fill="#f5f5f5" stroke="transparent" points="431,-157.7 431,-180.7 551,-180.7 551,-157.7 431,-157.7"/>
<polygon fill="none" stroke="#000000" points="431,-157.7 431,-180.7 551,-180.7 551,-157.7 431,-157.7"/>
<text text-anchor="start" x="435.6816" y="-166.8" font-family="Helvetica,sans-Serif" font-weight="bold" font-size="11.00" fill="#000000">scope_mapping</text>
<text text-anchor="start" x="516.5219" y="-165.8" font-family="Helvetica,sans-Serif" font-size="11.00" fill="#000000">[table]</text>
<polygon fill="none" stroke="#000000" points="431,-138.7 431,-157.7 551,-157.7 551,-138.7 431,-138.7"/>
<text text-anchor="start" x="434" y="-144.8" font-family="Helvetica,sans-Serif" font-size="11.00" fill="#000000">...</text>
<polygon fill="#ffffff" stroke="transparent" points="431,-119.7 431,-138.7 479,-138.7 479,-119.7 431,-119.7"/>
<polygon fill="none" stroke="#000000" points="431,-119.7 431,-138.7 479,-138.7 479,-119.7 431,-119.7"/>
<text text-anchor="start" x="434" y="-125.8" font-family="Helvetica,sans-Serif" font-size="11.00" fill="#000000">&lt; 1</text>
<polygon fill="#ffffff" stroke="transparent" points="479,-119.7 479,-138.7 525,-138.7 525,-119.7 479,-119.7"/>
<polygon fill="none" stroke="#000000" points="479,-119.7 479,-138.7 525,-138.7 525,-119.7 479,-119.7"/>
<text text-anchor="start" x="495.1105" y="-125.8" font-family="Helvetica,sans-Serif" font-size="11.00" fill="#000000">1 row</text>
<polygon fill="#ffffff" stroke="transparent" points="525,-119.7 525,-138.7 551,-138.7 551,-119.7 525,-119.7"/>
<polygon fill="none" stroke="#000000" points="525,-119.7 525,-138.7 551,-138.7 551,-119.7 525,-119.7"/>
<text text-anchor="start" x="541.8862" y="-125.8" font-family="Helvetica,sans-Serif" font-size="11.00" fill="#000000"> &#160;</text>
</a>
</g>
</g>
<!-- scope_mapping&#45;&gt;client -->
<g id="edge8" class="edge">
<title>scope_mapping:w&#45;&gt;client:e</title>
<path fill="none" stroke="#000000" d="M416.3285,-148.7388C391.8753,-152.5864 381.4986,-167.089 364,-191.7 321.244,-251.8342 397.2848,-352.7 323.5,-352.7"/>
<polygon fill="#000000" stroke="#000000" points="423.02,-148.2651 431.2543,-151.291 427.01,-147.9825 431,-147.7 431,-147.7 431,-147.7 427.01,-147.9825 430.7457,-144.109 423.02,-148.2651 423.02,-148.2651"/>
<ellipse fill="none" stroke="#000000" cx="419.828" cy="-148.4911" rx="3.2" ry="3.2"/>
</g>
<!-- web_origins -->
<g id="node10" class="node">
<title>web_origins</title>
<g id="a_node10"><a xlink:href="../../tables/web_origins.html" xlink:title="web_origins" target="_top">
<polygon fill="#ffffff" stroke="transparent" points="440.5,-38.2 440.5,-99.2 541.5,-99.2 541.5,-38.2 440.5,-38.2"/>
<polygon fill="#f5f5f5" stroke="transparent" points="441,-75.7 441,-98.7 542,-98.7 542,-75.7 441,-75.7"/>
<polygon fill="none" stroke="#000000" points="441,-75.7 441,-98.7 542,-98.7 542,-75.7 441,-75.7"/>
<text text-anchor="start" x="445.663" y="-84.8" font-family="Helvetica,sans-Serif" font-weight="bold" font-size="11.00" fill="#000000">web_origins</text>
<text text-anchor="start" x="507.5219" y="-83.8" font-family="Helvetica,sans-Serif" font-size="11.00" fill="#000000">[table]</text>
<polygon fill="none" stroke="#000000" points="441,-56.7 441,-75.7 542,-75.7 542,-56.7 441,-56.7"/>
<text text-anchor="start" x="444" y="-62.8" font-family="Helvetica,sans-Serif" font-size="11.00" fill="#000000">...</text>
<polygon fill="#ffffff" stroke="transparent" points="441,-37.7 441,-56.7 480,-56.7 480,-37.7 441,-37.7"/>
<polygon fill="none" stroke="#000000" points="441,-37.7 441,-56.7 480,-56.7 480,-37.7 441,-37.7"/>
<text text-anchor="start" x="444" y="-43.8" font-family="Helvetica,sans-Serif" font-size="11.00" fill="#000000">&lt; 1</text>
<polygon fill="#ffffff" stroke="transparent" points="480,-37.7 480,-56.7 521,-56.7 521,-37.7 480,-37.7"/>
<polygon fill="none" stroke="#000000" points="480,-37.7 480,-56.7 521,-56.7 521,-37.7 480,-37.7"/>
<text text-anchor="start" x="491.1105" y="-43.8" font-family="Helvetica,sans-Serif" font-size="11.00" fill="#000000">1 row</text>
<polygon fill="#ffffff" stroke="transparent" points="521,-37.7 521,-56.7 542,-56.7 542,-37.7 521,-37.7"/>
<polygon fill="none" stroke="#000000" points="521,-37.7 521,-56.7 542,-56.7 542,-37.7 521,-37.7"/>
<text text-anchor="start" x="532.8862" y="-43.8" font-family="Helvetica,sans-Serif" font-size="11.00" fill="#000000"> &#160;</text>
</a>
</g>
</g>
<!-- web_origins&#45;&gt;client -->
<g id="edge9" class="edge">
<title>web_origins:w&#45;&gt;client:e</title>
<path fill="none" stroke="#000000" d="M426.5098,-66.338C397.4534,-69.1613 383.5361,-81.6526 364,-109.7 332.7103,-154.6217 378.2449,-352.7 323.5,-352.7"/>
<polygon fill="#000000" stroke="#000000" points="433.0077,-66.052 441.1584,-69.2965 437.0039,-65.876 441,-65.7 441,-65.7 441,-65.7 437.0039,-65.876 440.8416,-62.1035 433.0077,-66.052 433.0077,-66.052"/>
<ellipse fill="none" stroke="#000000" cx="429.8108" cy="-66.1927" rx="3.2" ry="3.2"/>
</g>
</g>
</svg>
