<?xml version="1.0" encoding="UTF-8" standalone="no"?>
<!DOCTYPE svg PUBLIC "-//W3C//DTD SVG 1.1//EN"
 "http://www.w3.org/Graphics/SVG/1.1/DTD/svg11.dtd">
<!-- Generated by graphviz version 2.40.1 (20161225.0304)
 -->
<!-- Title: twoDegreesRelationshipsDiagramImplied Pages: 1 -->
<svg width="748pt" height="491pt"
 viewBox="0.00 0.00 748.00 490.70" xmlns="http://www.w3.org/2000/svg" xmlns:xlink="http://www.w3.org/1999/xlink">
<g id="graph0" class="graph" transform="scale(1 1) rotate(0) translate(4 486.7)">
<title>twoDegreesRelationshipsDiagramImplied</title>
<polygon fill="#ffffff" stroke="transparent" points="-4,4 -4,-486.7 744,-486.7 744,4 -4,4"/>
<text text-anchor="middle" x="72.4936" y="-7.3" font-family="Helvetica,sans-Serif" font-size="11.00" fill="#000000">Generated by SchemaSpy</text>
<!-- client_session -->
<g id="node1" class="node">
<title>client_session</title>
<g id="a_node1"><a xlink:href="../../tables/client_session.html" xlink:title="client_session" target="_top">
<polygon fill="#ffffff" stroke="transparent" points="329,-137.2 329,-264.2 441,-264.2 441,-137.2 329,-137.2"/>
<polygon fill="#f5f5f5" stroke="transparent" points="329,-240.7 329,-263.7 441,-263.7 441,-240.7 329,-240.7"/>
<polygon fill="none" stroke="#000000" points="329,-240.7 329,-263.7 441,-263.7 441,-240.7 329,-240.7"/>
<text text-anchor="start" x="333.9655" y="-249.8" font-family="Helvetica,sans-Serif" font-weight="bold" font-size="11.00" fill="#000000">client_session</text>
<text text-anchor="start" x="406.5219" y="-248.8" font-family="Helvetica,sans-Serif" font-size="11.00" fill="#000000">[table]</text>
<polygon fill="none" stroke="#000000" points="329,-218.7 329,-240.7 441,-240.7 441,-218.7 329,-218.7"/>
<image xlink:href="../../images/primaryKeys.png" width="11px" height="12px" preserveAspectRatio="xMinYMin meet" x="334" y="-235.7"/>
<text text-anchor="start" x="353" y="-225.8" font-family="Helvetica,sans-Serif" font-size="11.00" fill="#000000">id</text>
<polygon fill="#ffffff" stroke="transparent" points="329,-196.7 329,-218.7 441,-218.7 441,-196.7 329,-196.7"/>
<polygon fill="none" stroke="#000000" points="329,-196.7 329,-218.7 441,-218.7 441,-196.7 329,-196.7"/>
<image xlink:href="../../images/foreignKeys.png" width="11px" height="12px" preserveAspectRatio="xMinYMin meet" x="334" y="-213.7"/>
<text text-anchor="start" x="353" y="-203.8" font-family="Helvetica,sans-Serif" font-size="11.00" fill="#000000">session_id</text>
<polygon fill="none" stroke="#000000" points="329,-174.7 329,-196.7 441,-196.7 441,-174.7 329,-174.7"/>
<image xlink:href="../../images/foreignKeys.png" width="11px" height="12px" preserveAspectRatio="xMinYMin meet" x="334" y="-191.7"/>
<text text-anchor="start" x="353" y="-181.8" font-family="Helvetica,sans-Serif" font-size="11.00" fill="#000000">realm_id</text>
<polygon fill="none" stroke="#000000" points="329,-155.7 329,-174.7 441,-174.7 441,-155.7 329,-155.7"/>
<text text-anchor="start" x="332" y="-161.8" font-family="Helvetica,sans-Serif" font-size="11.00" fill="#000000">...</text>
<polygon fill="#ffffff" stroke="transparent" points="329,-136.7 329,-155.7 366,-155.7 366,-136.7 329,-136.7"/>
<polygon fill="none" stroke="#000000" points="329,-136.7 329,-155.7 366,-155.7 366,-136.7 329,-136.7"/>
<text text-anchor="start" x="332" y="-142.8" font-family="Helvetica,sans-Serif" font-size="11.00" fill="#000000">&lt; 2</text>
<polygon fill="#ffffff" stroke="transparent" points="366,-136.7 366,-155.7 412,-155.7 412,-136.7 366,-136.7"/>
<polygon fill="none" stroke="#000000" points="366,-136.7 366,-155.7 412,-155.7 412,-136.7 366,-136.7"/>
<text text-anchor="start" x="376.6105" y="-142.8" font-family="Helvetica,sans-Serif" font-size="11.00" fill="#000000">0 rows</text>
<polygon fill="#ffffff" stroke="transparent" points="412,-136.7 412,-155.7 441,-155.7 441,-136.7 412,-136.7"/>
<polygon fill="none" stroke="#000000" points="412,-136.7 412,-155.7 441,-155.7 441,-136.7 412,-136.7"/>
<text text-anchor="start" x="422.4053" y="-142.8" font-family="Helvetica,sans-Serif" font-size="11.00" fill="#000000">5 &gt;</text>
</a>
</g>
</g>
<!-- federated_user -->
<g id="node2" class="node">
<title>federated_user</title>
<g id="a_node2"><a xlink:href="../../tables/federated_user.html" xlink:title="federated_user" target="_top">
<polygon fill="#ffffff" stroke="transparent" points="8,-195.2 8,-256.2 124,-256.2 124,-195.2 8,-195.2"/>
<polygon fill="#f5f5f5" stroke="transparent" points="8,-232.7 8,-255.7 124,-255.7 124,-232.7 8,-232.7"/>
<polygon fill="none" stroke="#000000" points="8,-232.7 8,-255.7 124,-255.7 124,-232.7 8,-232.7"/>
<text text-anchor="start" x="12.5142" y="-241.8" font-family="Helvetica,sans-Serif" font-weight="bold" font-size="11.00" fill="#000000">federated_user</text>
<text text-anchor="start" x="89.5219" y="-240.8" font-family="Helvetica,sans-Serif" font-size="11.00" fill="#000000">[table]</text>
<polygon fill="none" stroke="#000000" points="8,-213.7 8,-232.7 124,-232.7 124,-213.7 8,-213.7"/>
<text text-anchor="start" x="11" y="-219.8" font-family="Helvetica,sans-Serif" font-size="11.00" fill="#000000">...</text>
<polygon fill="#ffffff" stroke="transparent" points="8,-194.7 8,-213.7 39,-213.7 39,-194.7 8,-194.7"/>
<polygon fill="none" stroke="#000000" points="8,-194.7 8,-213.7 39,-213.7 39,-194.7 8,-194.7"/>
<text text-anchor="start" x="11" y="-200.8" font-family="Helvetica,sans-Serif" font-size="11.00" fill="#000000"> &#160;</text>
<polygon fill="#ffffff" stroke="transparent" points="39,-194.7 39,-213.7 87,-213.7 87,-194.7 39,-194.7"/>
<polygon fill="none" stroke="#000000" points="39,-194.7 39,-213.7 87,-213.7 87,-194.7 39,-194.7"/>
<text text-anchor="start" x="51.6105" y="-200.8" font-family="Helvetica,sans-Serif" font-size="11.00" fill="#000000">0 rows</text>
<polygon fill="#ffffff" stroke="transparent" points="87,-194.7 87,-213.7 124,-213.7 124,-194.7 87,-194.7"/>
<polygon fill="none" stroke="#000000" points="87,-194.7 87,-213.7 124,-213.7 124,-194.7 87,-194.7"/>
<text text-anchor="start" x="99.2904" y="-200.8" font-family="Helvetica,sans-Serif" font-size="11.00" fill="#000000">30 &gt;</text>
</a>
</g>
</g>
<!-- client_session&#45;&gt;federated_user -->
<g id="edge1" class="edge">
<title>client_session:w&#45;&gt;federated_user:e</title>
<path fill="none" stroke="#000000" stroke-dasharray="5,2" d="M314.3282,-185.3189C252.6196,-182.0853 228.0877,-159.9602 165,-184.7 141.8697,-193.7705 148.8452,-222.7 124,-222.7"/>
<polygon fill="#000000" stroke="#000000" points="321.0027,-185.4922 328.9065,-189.2988 325.0013,-185.5961 329,-185.7 329,-185.7 329,-185.7 325.0013,-185.5961 329.0935,-182.1012 321.0027,-185.4922 321.0027,-185.4922"/>
<ellipse fill="none" stroke="#000000" cx="317.8038" cy="-185.4091" rx="3.2" ry="3.2"/>
</g>
<!-- user_session -->
<g id="node3" class="node">
<title>user_session</title>
<g id="a_node3"><a xlink:href="../../tables/user_session.html" xlink:title="user_session" target="_top">
<polygon fill="#ffffff" stroke="transparent" points="173,-195.2 173,-256.2 280,-256.2 280,-195.2 173,-195.2"/>
<polygon fill="#f5f5f5" stroke="transparent" points="173.5,-232.7 173.5,-255.7 280.5,-255.7 280.5,-232.7 173.5,-232.7"/>
<polygon fill="none" stroke="#000000" points="173.5,-232.7 173.5,-255.7 280.5,-255.7 280.5,-232.7 173.5,-232.7"/>
<text text-anchor="start" x="178.1039" y="-241.8" font-family="Helvetica,sans-Serif" font-weight="bold" font-size="11.00" fill="#000000">user_session</text>
<text text-anchor="start" x="246.0219" y="-240.8" font-family="Helvetica,sans-Serif" font-size="11.00" fill="#000000">[table]</text>
<polygon fill="none" stroke="#000000" points="173.5,-213.7 173.5,-232.7 280.5,-232.7 280.5,-213.7 173.5,-213.7"/>
<text text-anchor="start" x="176.5" y="-219.8" font-family="Helvetica,sans-Serif" font-size="11.00" fill="#000000">...</text>
<polygon fill="#ffffff" stroke="transparent" points="173.5,-194.7 173.5,-213.7 207.5,-213.7 207.5,-194.7 173.5,-194.7"/>
<polygon fill="none" stroke="#000000" points="173.5,-194.7 173.5,-213.7 207.5,-213.7 207.5,-194.7 173.5,-194.7"/>
<text text-anchor="start" x="176.5" y="-200.8" font-family="Helvetica,sans-Serif" font-size="11.00" fill="#000000">&lt; 4</text>
<polygon fill="#ffffff" stroke="transparent" points="207.5,-194.7 207.5,-213.7 252.5,-213.7 252.5,-194.7 207.5,-194.7"/>
<polygon fill="none" stroke="#000000" points="207.5,-194.7 207.5,-213.7 252.5,-213.7 252.5,-194.7 207.5,-194.7"/>
<text text-anchor="start" x="217.1105" y="-200.8" font-family="Helvetica,sans-Serif" font-size="11.00" fill="#000000">0 rows</text>
<polygon fill="#ffffff" stroke="transparent" points="252.5,-194.7 252.5,-213.7 280.5,-213.7 280.5,-194.7 252.5,-194.7"/>
<polygon fill="none" stroke="#000000" points="252.5,-194.7 252.5,-213.7 280.5,-213.7 280.5,-194.7 252.5,-194.7"/>
<text text-anchor="start" x="261.9053" y="-200.8" font-family="Helvetica,sans-Serif" font-size="11.00" fill="#000000">2 &gt;</text>
</a>
</g>
</g>
<!-- client_session&#45;&gt;user_session -->
<g id="edge2" class="edge">
<title>client_session:w&#45;&gt;user_session:e</title>
<path fill="none" stroke="#000000" d="M314.7176,-210.1769C303.4219,-214.4374 297.2459,-222.7 280.5,-222.7"/>
<polygon fill="#000000" stroke="#000000" points="321.1177,-209.0671 329.6152,-211.2471 325.0588,-208.3835 329,-207.7 329,-207.7 329,-207.7 325.0588,-208.3835 328.3848,-204.1529 321.1177,-209.0671 321.1177,-209.0671"/>
<ellipse fill="none" stroke="#000000" cx="317.9647" cy="-209.6139" rx="3.2" ry="3.2"/>
</g>
<!-- user_session&#45;&gt;federated_user -->
<g id="edge8" class="edge">
<title>user_session:w&#45;&gt;federated_user:e</title>
<path fill="none" stroke="#000000" stroke-dasharray="5,2" d="M161.8595,-213.4737C148.5848,-204.4839 141.5313,-207.5594 124,-222.7"/>
<polygon fill="#000000" stroke="#000000" points="167.2305,-217.7307 171.2638,-225.5213 170.3652,-220.2154 173.5,-222.7 173.5,-222.7 173.5,-222.7 170.3652,-220.2154 175.7362,-219.8787 167.2305,-217.7307 167.2305,-217.7307"/>
<ellipse fill="none" stroke="#000000" cx="164.7227" cy="-215.743" rx="3.2" ry="3.2"/>
</g>
<!-- user_session&#45;&gt;federated_user -->
<g id="edge9" class="edge">
<title>user_session:w&#45;&gt;federated_user:e</title>
<path fill="none" stroke="#000000" stroke-dasharray="5,2" d="M159.209,-219.2558C147.5674,-217.0988 140.3281,-218.2469 124,-222.7"/>
<polygon fill="#000000" stroke="#000000" points="165.7227,-220.8256 172.6565,-226.1998 169.6113,-221.7628 173.5,-222.7 173.5,-222.7 173.5,-222.7 169.6113,-221.7628 174.3435,-219.2002 165.7227,-220.8256 165.7227,-220.8256"/>
<ellipse fill="none" stroke="#000000" cx="162.6118" cy="-220.0758" rx="3.2" ry="3.2"/>
</g>
<!-- user_session&#45;&gt;federated_user -->
<g id="edge10" class="edge">
<title>user_session:w&#45;&gt;federated_user:e</title>
<path fill="none" stroke="#000000" stroke-dasharray="5,2" d="M159.5781,-226.6375C147.7188,-229.2625 140.5,-227.95 124,-222.7"/>
<polygon fill="#000000" stroke="#000000" points="165.802,-224.8773 174.4798,-226.1641 169.651,-223.7886 173.5,-222.7 173.5,-222.7 173.5,-222.7 169.651,-223.7886 172.5202,-219.2359 165.802,-224.8773 165.802,-224.8773"/>
<ellipse fill="none" stroke="#000000" cx="162.7228" cy="-225.7482" rx="3.2" ry="3.2"/>
</g>
<!-- user_session&#45;&gt;federated_user -->
<g id="edge11" class="edge">
<title>user_session:w&#45;&gt;federated_user:e</title>
<path fill="none" stroke="#000000" stroke-dasharray="5,2" d="M162.2518,-232.1299C148.7221,-241.9371 141.7031,-238.7938 124,-222.7"/>
<polygon fill="#000000" stroke="#000000" points="167.3694,-227.8396 175.8128,-225.4588 170.4347,-225.2698 173.5,-222.7 173.5,-222.7 173.5,-222.7 170.4347,-225.2698 171.1872,-219.9412 167.3694,-227.8396 167.3694,-227.8396"/>
<ellipse fill="none" stroke="#000000" cx="164.9171" cy="-229.8955" rx="3.2" ry="3.2"/>
</g>
<!-- client_session_auth_status -->
<g id="node4" class="node">
<title>client_session_auth_status</title>
<g id="a_node4"><a xlink:href="../../tables/client_session_auth_status.html" xlink:title="client_session_auth_status" target="_top">
<polygon fill="#ffffff" stroke="transparent" points="490,-366.7 490,-478.7 732,-478.7 732,-366.7 490,-366.7"/>
<polygon fill="#f5f5f5" stroke="transparent" points="492,-453.7 492,-476.7 730,-476.7 730,-453.7 492,-453.7"/>
<polygon fill="none" stroke="#000000" points="492,-453.7 492,-476.7 730,-476.7 730,-453.7 492,-453.7"/>
<text text-anchor="start" x="497" y="-462.8" font-family="Helvetica,sans-Serif" font-weight="bold" font-size="11.00" fill="#000000">client_session_auth_status</text>
<text text-anchor="start" x="695.0437" y="-461.8" font-family="Helvetica,sans-Serif" font-size="11.00" fill="#000000">[table]</text>
<polygon fill="none" stroke="#000000" points="492,-431.7 492,-453.7 669,-453.7 669,-431.7 492,-431.7"/>
<image xlink:href="../../images/primaryKeys.png" width="11px" height="12px" preserveAspectRatio="xMinYMin meet" x="497" y="-448.7"/>
<text text-anchor="start" x="512" y="-438.8" font-family="Helvetica,sans-Serif" font-size="11.00" fill="#000000">authenticator</text>
<polygon fill="none" stroke="#000000" points="669,-431.7 669,-453.7 730,-453.7 730,-431.7 669,-431.7"/>
<text text-anchor="start" x="671.994" y="-439.4" font-family="Helvetica,sans-Serif" font-size="11.00" fill="#000000">varchar[36]</text>
<polygon fill="none" stroke="#000000" points="492,-409.7 492,-431.7 669,-431.7 669,-409.7 492,-409.7"/>
<text text-anchor="start" x="512" y="-416.8" font-family="Helvetica,sans-Serif" font-size="11.00" fill="#000000">status</text>
<polygon fill="none" stroke="#000000" points="669,-409.7 669,-431.7 730,-431.7 730,-409.7 669,-409.7"/>
<text text-anchor="start" x="672" y="-417.4" font-family="Helvetica,sans-Serif" font-size="11.00" fill="#000000">int4[10]</text>
<polygon fill="none" stroke="#000000" points="492,-387.7 492,-409.7 669,-409.7 669,-387.7 492,-387.7"/>
<image xlink:href="../../images/primaryKeys.png" width="11px" height="12px" preserveAspectRatio="xMinYMin meet" x="497" y="-404.7"/>
<text text-anchor="start" x="512" y="-394.8" font-family="Helvetica,sans-Serif" font-size="11.00" fill="#000000">client_session</text>
<polygon fill="none" stroke="#000000" points="669,-387.7 669,-409.7 730,-409.7 730,-387.7 669,-387.7"/>
<text text-anchor="start" x="671.994" y="-395.4" font-family="Helvetica,sans-Serif" font-size="11.00" fill="#000000">varchar[36]</text>
<polygon fill="#ffffff" stroke="transparent" points="492,-368.7 492,-387.7 572,-387.7 572,-368.7 492,-368.7"/>
<polygon fill="none" stroke="#000000" points="492,-368.7 492,-387.7 572,-387.7 572,-368.7 492,-368.7"/>
<text text-anchor="start" x="495" y="-374.8" font-family="Helvetica,sans-Serif" font-size="11.00" fill="#000000">&lt; 1</text>
<polygon fill="#ffffff" stroke="transparent" points="572,-368.7 572,-387.7 669,-387.7 669,-368.7 572,-368.7"/>
<polygon fill="none" stroke="#000000" points="572,-368.7 572,-387.7 669,-387.7 669,-368.7 572,-368.7"/>
<text text-anchor="start" x="633.6105" y="-374.8" font-family="Helvetica,sans-Serif" font-size="11.00" fill="#000000">0 rows</text>
<polygon fill="#ffffff" stroke="transparent" points="669,-368.7 669,-387.7 730,-387.7 730,-368.7 669,-368.7"/>
<polygon fill="none" stroke="#000000" points="669,-368.7 669,-387.7 730,-387.7 730,-368.7 669,-368.7"/>
<text text-anchor="start" x="711.4053" y="-374.8" font-family="Helvetica,sans-Serif" font-size="11.00" fill="#000000">0 &gt;</text>
<polygon fill="none" stroke="#000000" stroke-width="2" points="491,-367.7 491,-477.7 731,-477.7 731,-367.7 491,-367.7"/>
</a>
</g>
</g>
<!-- client_session_auth_status&#45;&gt;client_session -->
<g id="edge3" class="edge">
<title>client_session_auth_status:w&#45;&gt;client_session:e</title>
<path fill="none" stroke="#000000" d="M477.7402,-396.1798C427.8882,-375.1568 513.787,-229.7 441,-229.7"/>
<polygon fill="#000000" stroke="#000000" points="484.1221,-397.3077 491.3735,-402.2451 488.061,-398.0038 492,-398.7 492,-398.7 492,-398.7 488.061,-398.0038 492.6265,-395.1549 484.1221,-397.3077 484.1221,-397.3077"/>
<ellipse fill="none" stroke="#000000" cx="480.9709" cy="-396.7508" rx="3.2" ry="3.2"/>
</g>
<!-- client_session_note -->
<g id="node5" class="node">
<title>client_session_note</title>
<g id="a_node5"><a xlink:href="../../tables/client_session_note.html" xlink:title="client_session_note" target="_top">
<polygon fill="#ffffff" stroke="transparent" points="541.5,-284.2 541.5,-345.2 680.5,-345.2 680.5,-284.2 541.5,-284.2"/>
<polygon fill="#f5f5f5" stroke="transparent" points="542,-321.7 542,-344.7 681,-344.7 681,-321.7 542,-321.7"/>
<polygon fill="none" stroke="#000000" points="542,-321.7 542,-344.7 681,-344.7 681,-321.7 542,-321.7"/>
<text text-anchor="start" x="546.7073" y="-330.8" font-family="Helvetica,sans-Serif" font-weight="bold" font-size="11.00" fill="#000000">client_session_note</text>
<text text-anchor="start" x="646.5219" y="-329.8" font-family="Helvetica,sans-Serif" font-size="11.00" fill="#000000">[table]</text>
<polygon fill="none" stroke="#000000" points="542,-302.7 542,-321.7 681,-321.7 681,-302.7 542,-302.7"/>
<text text-anchor="start" x="545" y="-308.8" font-family="Helvetica,sans-Serif" font-size="11.00" fill="#000000">...</text>
<polygon fill="#ffffff" stroke="transparent" points="542,-283.7 542,-302.7 597,-302.7 597,-283.7 542,-283.7"/>
<polygon fill="none" stroke="#000000" points="542,-283.7 542,-302.7 597,-302.7 597,-283.7 542,-283.7"/>
<text text-anchor="start" x="545" y="-289.8" font-family="Helvetica,sans-Serif" font-size="11.00" fill="#000000">&lt; 1</text>
<polygon fill="#ffffff" stroke="transparent" points="597,-283.7 597,-302.7 652,-302.7 652,-283.7 597,-283.7"/>
<polygon fill="none" stroke="#000000" points="597,-283.7 597,-302.7 652,-302.7 652,-283.7 597,-283.7"/>
<text text-anchor="start" x="616.6105" y="-289.8" font-family="Helvetica,sans-Serif" font-size="11.00" fill="#000000">0 rows</text>
<polygon fill="#ffffff" stroke="transparent" points="652,-283.7 652,-302.7 681,-302.7 681,-283.7 652,-283.7"/>
<polygon fill="none" stroke="#000000" points="652,-283.7 652,-302.7 681,-302.7 681,-283.7 652,-283.7"/>
<text text-anchor="start" x="671.8862" y="-289.8" font-family="Helvetica,sans-Serif" font-size="11.00" fill="#000000"> &#160;</text>
</a>
</g>
</g>
<!-- client_session_note&#45;&gt;client_session -->
<g id="edge4" class="edge">
<title>client_session_note:w&#45;&gt;client_session:e</title>
<path fill="none" stroke="#000000" d="M527.6379,-310.1303C508.3558,-305.3553 502.0215,-290.313 482,-273.7 461.4296,-256.6316 467.7296,-229.7 441,-229.7"/>
<polygon fill="#000000" stroke="#000000" points="534.0474,-310.8308 541.6088,-315.2787 538.0237,-311.2654 542,-311.7 542,-311.7 542,-311.7 538.0237,-311.2654 542.3912,-308.1213 534.0474,-310.8308 534.0474,-310.8308"/>
<ellipse fill="none" stroke="#000000" cx="530.8663" cy="-310.4831" rx="3.2" ry="3.2"/>
</g>
<!-- client_session_prot_mapper -->
<g id="node6" class="node">
<title>client_session_prot_mapper</title>
<g id="a_node6"><a xlink:href="../../tables/client_session_prot_mapper.html" xlink:title="client_session_prot_mapper" target="_top">
<polygon fill="#ffffff" stroke="transparent" points="521,-202.2 521,-263.2 701,-263.2 701,-202.2 521,-202.2"/>
<polygon fill="#f5f5f5" stroke="transparent" points="521,-239.7 521,-262.7 701,-262.7 701,-239.7 521,-239.7"/>
<polygon fill="none" stroke="#000000" points="521,-239.7 521,-262.7 701,-262.7 701,-239.7 521,-239.7"/>
<text text-anchor="start" x="525.7346" y="-248.8" font-family="Helvetica,sans-Serif" font-weight="bold" font-size="11.00" fill="#000000">client_session_prot_mapper</text>
<text text-anchor="start" x="666.5219" y="-247.8" font-family="Helvetica,sans-Serif" font-size="11.00" fill="#000000">[table]</text>
<polygon fill="none" stroke="#000000" points="521,-220.7 521,-239.7 701,-239.7 701,-220.7 521,-220.7"/>
<text text-anchor="start" x="524" y="-226.8" font-family="Helvetica,sans-Serif" font-size="11.00" fill="#000000">...</text>
<polygon fill="#ffffff" stroke="transparent" points="521,-201.7 521,-220.7 596,-220.7 596,-201.7 521,-201.7"/>
<polygon fill="none" stroke="#000000" points="521,-201.7 521,-220.7 596,-220.7 596,-201.7 521,-201.7"/>
<text text-anchor="start" x="524" y="-207.8" font-family="Helvetica,sans-Serif" font-size="11.00" fill="#000000">&lt; 1</text>
<polygon fill="#ffffff" stroke="transparent" points="596,-201.7 596,-220.7 661,-220.7 661,-201.7 596,-201.7"/>
<polygon fill="none" stroke="#000000" points="596,-201.7 596,-220.7 661,-220.7 661,-201.7 596,-201.7"/>
<text text-anchor="start" x="625.6105" y="-207.8" font-family="Helvetica,sans-Serif" font-size="11.00" fill="#000000">0 rows</text>
<polygon fill="#ffffff" stroke="transparent" points="661,-201.7 661,-220.7 701,-220.7 701,-201.7 661,-201.7"/>
<polygon fill="none" stroke="#000000" points="661,-201.7 661,-220.7 701,-220.7 701,-201.7 661,-201.7"/>
<text text-anchor="start" x="691.8862" y="-207.8" font-family="Helvetica,sans-Serif" font-size="11.00" fill="#000000"> &#160;</text>
</a>
</g>
</g>
<!-- client_session_prot_mapper&#45;&gt;client_session -->
<g id="edge5" class="edge">
<title>client_session_prot_mapper:w&#45;&gt;client_session:e</title>
<path fill="none" stroke="#000000" d="M506.4181,-229.7C482.1172,-229.7 471.1389,-229.7 441,-229.7"/>
<polygon fill="#000000" stroke="#000000" points="513,-229.7001 521,-233.3 517,-229.7 521,-229.7 521,-229.7 521,-229.7 517,-229.7 521,-226.1 513,-229.7001 513,-229.7001"/>
<ellipse fill="none" stroke="#000000" cx="509.8" cy="-229.7001" rx="3.2" ry="3.2"/>
</g>
<!-- client_session_role -->
<g id="node7" class="node">
<title>client_session_role</title>
<g id="a_node7"><a xlink:href="../../tables/client_session_role.html" xlink:title="client_session_role" target="_top">
<polygon fill="#ffffff" stroke="transparent" points="543,-120.2 543,-181.2 679,-181.2 679,-120.2 543,-120.2"/>
<polygon fill="#f5f5f5" stroke="transparent" points="543,-157.7 543,-180.7 679,-180.7 679,-157.7 543,-157.7"/>
<polygon fill="none" stroke="#000000" points="543,-157.7 543,-180.7 679,-180.7 679,-157.7 543,-157.7"/>
<text text-anchor="start" x="547.7418" y="-166.8" font-family="Helvetica,sans-Serif" font-weight="bold" font-size="11.00" fill="#000000">client_session_role</text>
<text text-anchor="start" x="644.5219" y="-165.8" font-family="Helvetica,sans-Serif" font-size="11.00" fill="#000000">[table]</text>
<polygon fill="none" stroke="#000000" points="543,-138.7 543,-157.7 679,-157.7 679,-138.7 543,-138.7"/>
<text text-anchor="start" x="546" y="-144.8" font-family="Helvetica,sans-Serif" font-size="11.00" fill="#000000">...</text>
<polygon fill="#ffffff" stroke="transparent" points="543,-119.7 543,-138.7 596,-138.7 596,-119.7 543,-119.7"/>
<polygon fill="none" stroke="#000000" points="543,-119.7 543,-138.7 596,-138.7 596,-119.7 543,-119.7"/>
<text text-anchor="start" x="546" y="-125.8" font-family="Helvetica,sans-Serif" font-size="11.00" fill="#000000">&lt; 1</text>
<polygon fill="#ffffff" stroke="transparent" points="596,-119.7 596,-138.7 650,-138.7 650,-119.7 596,-119.7"/>
<polygon fill="none" stroke="#000000" points="596,-119.7 596,-138.7 650,-138.7 650,-119.7 596,-119.7"/>
<text text-anchor="start" x="614.6105" y="-125.8" font-family="Helvetica,sans-Serif" font-size="11.00" fill="#000000">0 rows</text>
<polygon fill="#ffffff" stroke="transparent" points="650,-119.7 650,-138.7 679,-138.7 679,-119.7 650,-119.7"/>
<polygon fill="none" stroke="#000000" points="650,-119.7 650,-138.7 679,-138.7 679,-119.7 650,-119.7"/>
<text text-anchor="start" x="669.8862" y="-125.8" font-family="Helvetica,sans-Serif" font-size="11.00" fill="#000000"> &#160;</text>
</a>
</g>
</g>
<!-- client_session_role&#45;&gt;client_session -->
<g id="edge6" class="edge">
<title>client_session_role:w&#45;&gt;client_session:e</title>
<path fill="none" stroke="#000000" d="M528.5753,-149.5156C508.3163,-155.3201 503.5185,-174.0783 482,-191.7 462.7777,-207.4413 465.8452,-229.7 441,-229.7"/>
<polygon fill="#000000" stroke="#000000" points="535.0626,-148.6991 543.4496,-151.2718 539.0313,-148.1996 543,-147.7 543,-147.7 543,-147.7 539.0313,-148.1996 542.5504,-144.1282 535.0626,-148.6991 535.0626,-148.6991"/>
<ellipse fill="none" stroke="#000000" cx="531.8877" cy="-149.0988" rx="3.2" ry="3.2"/>
</g>
<!-- client_user_session_note -->
<g id="node8" class="node">
<title>client_user_session_note</title>
<g id="a_node8"><a xlink:href="../../tables/client_user_session_note.html" xlink:title="client_user_session_note" target="_top">
<polygon fill="#ffffff" stroke="transparent" points="527.5,-38.2 527.5,-99.2 694.5,-99.2 694.5,-38.2 527.5,-38.2"/>
<polygon fill="#f5f5f5" stroke="transparent" points="528,-75.7 528,-98.7 695,-98.7 695,-75.7 528,-75.7"/>
<polygon fill="none" stroke="#000000" points="528,-75.7 528,-98.7 695,-98.7 695,-75.7 528,-75.7"/>
<text text-anchor="start" x="532.954" y="-84.8" font-family="Helvetica,sans-Serif" font-weight="bold" font-size="11.00" fill="#000000">client_user_session_note</text>
<text text-anchor="start" x="660.5219" y="-83.8" font-family="Helvetica,sans-Serif" font-size="11.00" fill="#000000">[table]</text>
<polygon fill="none" stroke="#000000" points="528,-56.7 528,-75.7 695,-75.7 695,-56.7 528,-56.7"/>
<text text-anchor="start" x="531" y="-62.8" font-family="Helvetica,sans-Serif" font-size="11.00" fill="#000000">...</text>
<polygon fill="#ffffff" stroke="transparent" points="528,-37.7 528,-56.7 597,-56.7 597,-37.7 528,-37.7"/>
<polygon fill="none" stroke="#000000" points="528,-37.7 528,-56.7 597,-56.7 597,-37.7 528,-37.7"/>
<text text-anchor="start" x="531" y="-43.8" font-family="Helvetica,sans-Serif" font-size="11.00" fill="#000000">&lt; 1</text>
<polygon fill="#ffffff" stroke="transparent" points="597,-37.7 597,-56.7 659,-56.7 659,-37.7 597,-37.7"/>
<polygon fill="none" stroke="#000000" points="597,-37.7 597,-56.7 659,-56.7 659,-37.7 597,-37.7"/>
<text text-anchor="start" x="623.6105" y="-43.8" font-family="Helvetica,sans-Serif" font-size="11.00" fill="#000000">0 rows</text>
<polygon fill="#ffffff" stroke="transparent" points="659,-37.7 659,-56.7 695,-56.7 695,-37.7 659,-37.7"/>
<polygon fill="none" stroke="#000000" points="659,-37.7 659,-56.7 695,-56.7 695,-37.7 659,-37.7"/>
<text text-anchor="start" x="685.8862" y="-43.8" font-family="Helvetica,sans-Serif" font-size="11.00" fill="#000000"> &#160;</text>
</a>
</g>
</g>
<!-- client_user_session_note&#45;&gt;client_session -->
<g id="edge7" class="edge">
<title>client_user_session_note:w&#45;&gt;client_session:e</title>
<path fill="none" stroke="#000000" d="M513.6318,-68.057C498.1754,-74.041 494.1359,-90.7005 482,-109.7 451.6609,-157.1977 497.3604,-229.7 441,-229.7"/>
<polygon fill="#000000" stroke="#000000" points="520.1055,-66.9951 528.5828,-69.2525 524.0528,-66.3475 528,-65.7 528,-65.7 528,-65.7 524.0528,-66.3475 527.4172,-62.1475 520.1055,-66.9951 520.1055,-66.9951"/>
<ellipse fill="none" stroke="#000000" cx="516.9477" cy="-67.5131" rx="3.2" ry="3.2"/>
</g>
</g>
</svg>
