<?xml version="1.0" encoding="UTF-8" standalone="no"?>
<!DOCTYPE svg PUBLIC "-//W3C//DTD SVG 1.1//EN"
 "http://www.w3.org/Graphics/SVG/1.1/DTD/svg11.dtd">
<!-- Generated by graphviz version 2.40.1 (20161225.0304)
 -->
<!-- Title: twoDegreesRelationshipsDiagramImplied Pages: 1 -->
<svg width="754pt" height="469pt"
 viewBox="0.00 0.00 754.00 469.20" xmlns="http://www.w3.org/2000/svg" xmlns:xlink="http://www.w3.org/1999/xlink">
<g id="graph0" class="graph" transform="scale(1 1) rotate(0) translate(4 465.2)">
<title>twoDegreesRelationshipsDiagramImplied</title>
<polygon fill="#ffffff" stroke="transparent" points="-4,4 -4,-465.2 750,-465.2 750,4 -4,4"/>
<text text-anchor="middle" x="72.4936" y="-7.3" font-family="Helvetica,sans-Serif" font-size="11.00" fill="#000000">Generated by SchemaSpy</text>
<!-- client_session -->
<g id="node1" class="node">
<title>client_session</title>
<g id="a_node1"><a xlink:href="../../tables/client_session.html" xlink:title="client_session" target="_top">
<polygon fill="#ffffff" stroke="transparent" points="329,-142.2 329,-269.2 441,-269.2 441,-142.2 329,-142.2"/>
<polygon fill="#f5f5f5" stroke="transparent" points="329,-245.7 329,-268.7 441,-268.7 441,-245.7 329,-245.7"/>
<polygon fill="none" stroke="#000000" points="329,-245.7 329,-268.7 441,-268.7 441,-245.7 329,-245.7"/>
<text text-anchor="start" x="333.9655" y="-254.8" font-family="Helvetica,sans-Serif" font-weight="bold" font-size="11.00" fill="#000000">client_session</text>
<text text-anchor="start" x="406.5219" y="-253.8" font-family="Helvetica,sans-Serif" font-size="11.00" fill="#000000">[table]</text>
<polygon fill="none" stroke="#000000" points="329,-223.7 329,-245.7 441,-245.7 441,-223.7 329,-223.7"/>
<image xlink:href="../../images/primaryKeys.png" width="11px" height="12px" preserveAspectRatio="xMinYMin meet" x="334" y="-240.7"/>
<text text-anchor="start" x="353" y="-230.8" font-family="Helvetica,sans-Serif" font-size="11.00" fill="#000000">id</text>
<polygon fill="#ffffff" stroke="transparent" points="329,-201.7 329,-223.7 441,-223.7 441,-201.7 329,-201.7"/>
<polygon fill="none" stroke="#000000" points="329,-201.7 329,-223.7 441,-223.7 441,-201.7 329,-201.7"/>
<image xlink:href="../../images/foreignKeys.png" width="11px" height="12px" preserveAspectRatio="xMinYMin meet" x="334" y="-218.7"/>
<text text-anchor="start" x="353" y="-208.8" font-family="Helvetica,sans-Serif" font-size="11.00" fill="#000000">session_id</text>
<polygon fill="none" stroke="#000000" points="329,-179.7 329,-201.7 441,-201.7 441,-179.7 329,-179.7"/>
<image xlink:href="../../images/foreignKeys.png" width="11px" height="12px" preserveAspectRatio="xMinYMin meet" x="334" y="-196.7"/>
<text text-anchor="start" x="353" y="-186.8" font-family="Helvetica,sans-Serif" font-size="11.00" fill="#000000">realm_id</text>
<polygon fill="none" stroke="#000000" points="329,-160.7 329,-179.7 441,-179.7 441,-160.7 329,-160.7"/>
<text text-anchor="start" x="332" y="-166.8" font-family="Helvetica,sans-Serif" font-size="11.00" fill="#000000">...</text>
<polygon fill="#ffffff" stroke="transparent" points="329,-141.7 329,-160.7 366,-160.7 366,-141.7 329,-141.7"/>
<polygon fill="none" stroke="#000000" points="329,-141.7 329,-160.7 366,-160.7 366,-141.7 329,-141.7"/>
<text text-anchor="start" x="332" y="-147.8" font-family="Helvetica,sans-Serif" font-size="11.00" fill="#000000">&lt; 2</text>
<polygon fill="#ffffff" stroke="transparent" points="366,-141.7 366,-160.7 412,-160.7 412,-141.7 366,-141.7"/>
<polygon fill="none" stroke="#000000" points="366,-141.7 366,-160.7 412,-160.7 412,-141.7 366,-141.7"/>
<text text-anchor="start" x="376.6105" y="-147.8" font-family="Helvetica,sans-Serif" font-size="11.00" fill="#000000">0 rows</text>
<polygon fill="#ffffff" stroke="transparent" points="412,-141.7 412,-160.7 441,-160.7 441,-141.7 412,-141.7"/>
<polygon fill="none" stroke="#000000" points="412,-141.7 412,-160.7 441,-160.7 441,-141.7 412,-141.7"/>
<text text-anchor="start" x="422.4053" y="-147.8" font-family="Helvetica,sans-Serif" font-size="11.00" fill="#000000">5 &gt;</text>
</a>
</g>
</g>
<!-- federated_user -->
<g id="node2" class="node">
<title>federated_user</title>
<g id="a_node2"><a xlink:href="../../tables/federated_user.html" xlink:title="federated_user" target="_top">
<polygon fill="#ffffff" stroke="transparent" points="8,-200.2 8,-261.2 124,-261.2 124,-200.2 8,-200.2"/>
<polygon fill="#f5f5f5" stroke="transparent" points="8,-237.7 8,-260.7 124,-260.7 124,-237.7 8,-237.7"/>
<polygon fill="none" stroke="#000000" points="8,-237.7 8,-260.7 124,-260.7 124,-237.7 8,-237.7"/>
<text text-anchor="start" x="12.5142" y="-246.8" font-family="Helvetica,sans-Serif" font-weight="bold" font-size="11.00" fill="#000000">federated_user</text>
<text text-anchor="start" x="89.5219" y="-245.8" font-family="Helvetica,sans-Serif" font-size="11.00" fill="#000000">[table]</text>
<polygon fill="none" stroke="#000000" points="8,-218.7 8,-237.7 124,-237.7 124,-218.7 8,-218.7"/>
<text text-anchor="start" x="11" y="-224.8" font-family="Helvetica,sans-Serif" font-size="11.00" fill="#000000">...</text>
<polygon fill="#ffffff" stroke="transparent" points="8,-199.7 8,-218.7 39,-218.7 39,-199.7 8,-199.7"/>
<polygon fill="none" stroke="#000000" points="8,-199.7 8,-218.7 39,-218.7 39,-199.7 8,-199.7"/>
<text text-anchor="start" x="11" y="-205.8" font-family="Helvetica,sans-Serif" font-size="11.00" fill="#000000"> &#160;</text>
<polygon fill="#ffffff" stroke="transparent" points="39,-199.7 39,-218.7 87,-218.7 87,-199.7 39,-199.7"/>
<polygon fill="none" stroke="#000000" points="39,-199.7 39,-218.7 87,-218.7 87,-199.7 39,-199.7"/>
<text text-anchor="start" x="51.6105" y="-205.8" font-family="Helvetica,sans-Serif" font-size="11.00" fill="#000000">0 rows</text>
<polygon fill="#ffffff" stroke="transparent" points="87,-199.7 87,-218.7 124,-218.7 124,-199.7 87,-199.7"/>
<polygon fill="none" stroke="#000000" points="87,-199.7 87,-218.7 124,-218.7 124,-199.7 87,-199.7"/>
<text text-anchor="start" x="99.2904" y="-205.8" font-family="Helvetica,sans-Serif" font-size="11.00" fill="#000000">30 &gt;</text>
</a>
</g>
</g>
<!-- client_session&#45;&gt;federated_user -->
<g id="edge1" class="edge">
<title>client_session:w&#45;&gt;federated_user:e</title>
<path fill="none" stroke="#000000" stroke-dasharray="5,2" d="M314.3282,-190.3189C252.6196,-187.0853 228.0877,-164.9602 165,-189.7 141.8697,-198.7705 148.8452,-227.7 124,-227.7"/>
<polygon fill="#000000" stroke="#000000" points="321.0027,-190.4922 328.9065,-194.2988 325.0013,-190.5961 329,-190.7 329,-190.7 329,-190.7 325.0013,-190.5961 329.0935,-187.1012 321.0027,-190.4922 321.0027,-190.4922"/>
<ellipse fill="none" stroke="#000000" cx="317.8038" cy="-190.4091" rx="3.2" ry="3.2"/>
</g>
<!-- user_session -->
<g id="node3" class="node">
<title>user_session</title>
<g id="a_node3"><a xlink:href="../../tables/user_session.html" xlink:title="user_session" target="_top">
<polygon fill="#ffffff" stroke="transparent" points="173,-200.2 173,-261.2 280,-261.2 280,-200.2 173,-200.2"/>
<polygon fill="#f5f5f5" stroke="transparent" points="173.5,-237.7 173.5,-260.7 280.5,-260.7 280.5,-237.7 173.5,-237.7"/>
<polygon fill="none" stroke="#000000" points="173.5,-237.7 173.5,-260.7 280.5,-260.7 280.5,-237.7 173.5,-237.7"/>
<text text-anchor="start" x="178.1039" y="-246.8" font-family="Helvetica,sans-Serif" font-weight="bold" font-size="11.00" fill="#000000">user_session</text>
<text text-anchor="start" x="246.0219" y="-245.8" font-family="Helvetica,sans-Serif" font-size="11.00" fill="#000000">[table]</text>
<polygon fill="none" stroke="#000000" points="173.5,-218.7 173.5,-237.7 280.5,-237.7 280.5,-218.7 173.5,-218.7"/>
<text text-anchor="start" x="176.5" y="-224.8" font-family="Helvetica,sans-Serif" font-size="11.00" fill="#000000">...</text>
<polygon fill="#ffffff" stroke="transparent" points="173.5,-199.7 173.5,-218.7 207.5,-218.7 207.5,-199.7 173.5,-199.7"/>
<polygon fill="none" stroke="#000000" points="173.5,-199.7 173.5,-218.7 207.5,-218.7 207.5,-199.7 173.5,-199.7"/>
<text text-anchor="start" x="176.5" y="-205.8" font-family="Helvetica,sans-Serif" font-size="11.00" fill="#000000">&lt; 4</text>
<polygon fill="#ffffff" stroke="transparent" points="207.5,-199.7 207.5,-218.7 252.5,-218.7 252.5,-199.7 207.5,-199.7"/>
<polygon fill="none" stroke="#000000" points="207.5,-199.7 207.5,-218.7 252.5,-218.7 252.5,-199.7 207.5,-199.7"/>
<text text-anchor="start" x="217.1105" y="-205.8" font-family="Helvetica,sans-Serif" font-size="11.00" fill="#000000">0 rows</text>
<polygon fill="#ffffff" stroke="transparent" points="252.5,-199.7 252.5,-218.7 280.5,-218.7 280.5,-199.7 252.5,-199.7"/>
<polygon fill="none" stroke="#000000" points="252.5,-199.7 252.5,-218.7 280.5,-218.7 280.5,-199.7 252.5,-199.7"/>
<text text-anchor="start" x="261.9053" y="-205.8" font-family="Helvetica,sans-Serif" font-size="11.00" fill="#000000">2 &gt;</text>
</a>
</g>
</g>
<!-- client_session&#45;&gt;user_session -->
<g id="edge2" class="edge">
<title>client_session:w&#45;&gt;user_session:e</title>
<path fill="none" stroke="#000000" d="M314.7176,-215.1769C303.4219,-219.4374 297.2459,-227.7 280.5,-227.7"/>
<polygon fill="#000000" stroke="#000000" points="321.1177,-214.0671 329.6152,-216.2471 325.0588,-213.3835 329,-212.7 329,-212.7 329,-212.7 325.0588,-213.3835 328.3848,-209.1529 321.1177,-214.0671 321.1177,-214.0671"/>
<ellipse fill="none" stroke="#000000" cx="317.9647" cy="-214.6139" rx="3.2" ry="3.2"/>
</g>
<!-- user_session&#45;&gt;federated_user -->
<g id="edge8" class="edge">
<title>user_session:w&#45;&gt;federated_user:e</title>
<path fill="none" stroke="#000000" stroke-dasharray="5,2" d="M161.8595,-218.4737C148.5848,-209.4839 141.5313,-212.5594 124,-227.7"/>
<polygon fill="#000000" stroke="#000000" points="167.2305,-222.7307 171.2638,-230.5213 170.3652,-225.2154 173.5,-227.7 173.5,-227.7 173.5,-227.7 170.3652,-225.2154 175.7362,-224.8787 167.2305,-222.7307 167.2305,-222.7307"/>
<ellipse fill="none" stroke="#000000" cx="164.7227" cy="-220.743" rx="3.2" ry="3.2"/>
</g>
<!-- user_session&#45;&gt;federated_user -->
<g id="edge9" class="edge">
<title>user_session:w&#45;&gt;federated_user:e</title>
<path fill="none" stroke="#000000" stroke-dasharray="5,2" d="M159.209,-224.2558C147.5674,-222.0988 140.3281,-223.2469 124,-227.7"/>
<polygon fill="#000000" stroke="#000000" points="165.7227,-225.8256 172.6565,-231.1998 169.6113,-226.7628 173.5,-227.7 173.5,-227.7 173.5,-227.7 169.6113,-226.7628 174.3435,-224.2002 165.7227,-225.8256 165.7227,-225.8256"/>
<ellipse fill="none" stroke="#000000" cx="162.6118" cy="-225.0758" rx="3.2" ry="3.2"/>
</g>
<!-- user_session&#45;&gt;federated_user -->
<g id="edge10" class="edge">
<title>user_session:w&#45;&gt;federated_user:e</title>
<path fill="none" stroke="#000000" stroke-dasharray="5,2" d="M159.5781,-231.6375C147.7188,-234.2625 140.5,-232.95 124,-227.7"/>
<polygon fill="#000000" stroke="#000000" points="165.802,-229.8773 174.4798,-231.1641 169.651,-228.7886 173.5,-227.7 173.5,-227.7 173.5,-227.7 169.651,-228.7886 172.5202,-224.2359 165.802,-229.8773 165.802,-229.8773"/>
<ellipse fill="none" stroke="#000000" cx="162.7228" cy="-230.7482" rx="3.2" ry="3.2"/>
</g>
<!-- user_session&#45;&gt;federated_user -->
<g id="edge11" class="edge">
<title>user_session:w&#45;&gt;federated_user:e</title>
<path fill="none" stroke="#000000" stroke-dasharray="5,2" d="M162.2518,-237.1299C148.7221,-246.9371 141.7031,-243.7938 124,-227.7"/>
<polygon fill="#000000" stroke="#000000" points="167.3694,-232.8396 175.8128,-230.4588 170.4347,-230.2698 173.5,-227.7 173.5,-227.7 173.5,-227.7 170.4347,-230.2698 171.1872,-224.9412 167.3694,-232.8396 167.3694,-232.8396"/>
<ellipse fill="none" stroke="#000000" cx="164.9171" cy="-234.8955" rx="3.2" ry="3.2"/>
</g>
<!-- client_session_auth_status -->
<g id="node4" class="node">
<title>client_session_auth_status</title>
<g id="a_node4"><a xlink:href="../../tables/client_session_auth_status.html" xlink:title="client_session_auth_status" target="_top">
<polygon fill="#ffffff" stroke="transparent" points="526.5,-396.2 526.5,-457.2 701.5,-457.2 701.5,-396.2 526.5,-396.2"/>
<polygon fill="#f5f5f5" stroke="transparent" points="527,-433.7 527,-456.7 702,-456.7 702,-433.7 527,-433.7"/>
<polygon fill="none" stroke="#000000" points="527,-433.7 527,-456.7 702,-456.7 702,-433.7 527,-433.7"/>
<text text-anchor="start" x="531.978" y="-442.8" font-family="Helvetica,sans-Serif" font-weight="bold" font-size="11.00" fill="#000000">client_session_auth_status</text>
<text text-anchor="start" x="667.5219" y="-441.8" font-family="Helvetica,sans-Serif" font-size="11.00" fill="#000000">[table]</text>
<polygon fill="none" stroke="#000000" points="527,-414.7 527,-433.7 702,-433.7 702,-414.7 527,-414.7"/>
<text text-anchor="start" x="530" y="-420.8" font-family="Helvetica,sans-Serif" font-size="11.00" fill="#000000">...</text>
<polygon fill="#ffffff" stroke="transparent" points="527,-395.7 527,-414.7 600,-414.7 600,-395.7 527,-395.7"/>
<polygon fill="none" stroke="#000000" points="527,-395.7 527,-414.7 600,-414.7 600,-395.7 527,-395.7"/>
<text text-anchor="start" x="530" y="-401.8" font-family="Helvetica,sans-Serif" font-size="11.00" fill="#000000">&lt; 1</text>
<polygon fill="#ffffff" stroke="transparent" points="600,-395.7 600,-414.7 664,-414.7 664,-395.7 600,-395.7"/>
<polygon fill="none" stroke="#000000" points="600,-395.7 600,-414.7 664,-414.7 664,-395.7 600,-395.7"/>
<text text-anchor="start" x="628.6105" y="-401.8" font-family="Helvetica,sans-Serif" font-size="11.00" fill="#000000">0 rows</text>
<polygon fill="#ffffff" stroke="transparent" points="664,-395.7 664,-414.7 702,-414.7 702,-395.7 664,-395.7"/>
<polygon fill="none" stroke="#000000" points="664,-395.7 664,-414.7 702,-414.7 702,-395.7 664,-395.7"/>
<text text-anchor="start" x="692.8862" y="-401.8" font-family="Helvetica,sans-Serif" font-size="11.00" fill="#000000"> &#160;</text>
</a>
</g>
</g>
<!-- client_session_auth_status&#45;&gt;client_session -->
<g id="edge3" class="edge">
<title>client_session_auth_status:w&#45;&gt;client_session:e</title>
<path fill="none" stroke="#000000" d="M512.5748,-421.5163C498.2968,-416.4389 492.9899,-402.9469 482,-385.7 444.6297,-327.0535 510.541,-234.7 441,-234.7"/>
<polygon fill="#000000" stroke="#000000" points="519.0901,-422.5026 526.4612,-427.2594 523.0451,-423.1013 527,-423.7 527,-423.7 527,-423.7 523.0451,-423.1013 527.5388,-420.1406 519.0901,-422.5026 519.0901,-422.5026"/>
<ellipse fill="none" stroke="#000000" cx="515.9262" cy="-422.0236" rx="3.2" ry="3.2"/>
</g>
<!-- client_session_note -->
<g id="node5" class="node">
<title>client_session_note</title>
<g id="a_node5"><a xlink:href="../../tables/client_session_note.html" xlink:title="client_session_note" target="_top">
<polygon fill="#ffffff" stroke="transparent" points="544.5,-314.2 544.5,-375.2 683.5,-375.2 683.5,-314.2 544.5,-314.2"/>
<polygon fill="#f5f5f5" stroke="transparent" points="545,-351.7 545,-374.7 684,-374.7 684,-351.7 545,-351.7"/>
<polygon fill="none" stroke="#000000" points="545,-351.7 545,-374.7 684,-374.7 684,-351.7 545,-351.7"/>
<text text-anchor="start" x="549.7073" y="-360.8" font-family="Helvetica,sans-Serif" font-weight="bold" font-size="11.00" fill="#000000">client_session_note</text>
<text text-anchor="start" x="649.5219" y="-359.8" font-family="Helvetica,sans-Serif" font-size="11.00" fill="#000000">[table]</text>
<polygon fill="none" stroke="#000000" points="545,-332.7 545,-351.7 684,-351.7 684,-332.7 545,-332.7"/>
<text text-anchor="start" x="548" y="-338.8" font-family="Helvetica,sans-Serif" font-size="11.00" fill="#000000">...</text>
<polygon fill="#ffffff" stroke="transparent" points="545,-313.7 545,-332.7 600,-332.7 600,-313.7 545,-313.7"/>
<polygon fill="none" stroke="#000000" points="545,-313.7 545,-332.7 600,-332.7 600,-313.7 545,-313.7"/>
<text text-anchor="start" x="548" y="-319.8" font-family="Helvetica,sans-Serif" font-size="11.00" fill="#000000">&lt; 1</text>
<polygon fill="#ffffff" stroke="transparent" points="600,-313.7 600,-332.7 655,-332.7 655,-313.7 600,-313.7"/>
<polygon fill="none" stroke="#000000" points="600,-313.7 600,-332.7 655,-332.7 655,-313.7 600,-313.7"/>
<text text-anchor="start" x="619.6105" y="-319.8" font-family="Helvetica,sans-Serif" font-size="11.00" fill="#000000">0 rows</text>
<polygon fill="#ffffff" stroke="transparent" points="655,-313.7 655,-332.7 684,-332.7 684,-313.7 655,-313.7"/>
<polygon fill="none" stroke="#000000" points="655,-313.7 655,-332.7 684,-332.7 684,-313.7 655,-313.7"/>
<text text-anchor="start" x="674.8862" y="-319.8" font-family="Helvetica,sans-Serif" font-size="11.00" fill="#000000"> &#160;</text>
</a>
</g>
</g>
<!-- client_session_note&#45;&gt;client_session -->
<g id="edge4" class="edge">
<title>client_session_note:w&#45;&gt;client_session:e</title>
<path fill="none" stroke="#000000" d="M530.4808,-340.4775C509.418,-336.4906 501.1744,-323.0015 482,-303.7 456.8595,-278.3929 476.672,-234.7 441,-234.7"/>
<polygon fill="#000000" stroke="#000000" points="537.0282,-341.0287 544.6979,-345.2873 541.0141,-341.3644 545,-341.7 545,-341.7 545,-341.7 541.0141,-341.3644 545.3021,-338.1127 537.0282,-341.0287 537.0282,-341.0287"/>
<ellipse fill="none" stroke="#000000" cx="533.8395" cy="-340.7602" rx="3.2" ry="3.2"/>
</g>
<!-- client_session_prot_mapper -->
<g id="node6" class="node">
<title>client_session_prot_mapper</title>
<g id="a_node6"><a xlink:href="../../tables/client_session_prot_mapper.html" xlink:title="client_session_prot_mapper" target="_top">
<polygon fill="#ffffff" stroke="transparent" points="490,-202.7 490,-292.7 738,-292.7 738,-202.7 490,-202.7"/>
<polygon fill="#f5f5f5" stroke="transparent" points="492,-267.7 492,-290.7 736,-290.7 736,-267.7 492,-267.7"/>
<polygon fill="none" stroke="#000000" points="492,-267.7 492,-290.7 736,-290.7 736,-267.7 492,-267.7"/>
<text text-anchor="start" x="497" y="-276.8" font-family="Helvetica,sans-Serif" font-weight="bold" font-size="11.00" fill="#000000">client_session_prot_mapper</text>
<text text-anchor="start" x="701.0437" y="-275.8" font-family="Helvetica,sans-Serif" font-size="11.00" fill="#000000">[table]</text>
<polygon fill="none" stroke="#000000" points="492,-245.7 492,-267.7 675,-267.7 675,-245.7 492,-245.7"/>
<image xlink:href="../../images/primaryKeys.png" width="11px" height="12px" preserveAspectRatio="xMinYMin meet" x="497" y="-262.7"/>
<text text-anchor="start" x="512" y="-252.8" font-family="Helvetica,sans-Serif" font-size="11.00" fill="#000000">protocol_mapper_id</text>
<polygon fill="none" stroke="#000000" points="675,-245.7 675,-267.7 736,-267.7 736,-245.7 675,-245.7"/>
<text text-anchor="start" x="677.994" y="-253.4" font-family="Helvetica,sans-Serif" font-size="11.00" fill="#000000">varchar[36]</text>
<polygon fill="none" stroke="#000000" points="492,-223.7 492,-245.7 675,-245.7 675,-223.7 492,-223.7"/>
<image xlink:href="../../images/primaryKeys.png" width="11px" height="12px" preserveAspectRatio="xMinYMin meet" x="497" y="-240.7"/>
<text text-anchor="start" x="512" y="-230.8" font-family="Helvetica,sans-Serif" font-size="11.00" fill="#000000">client_session</text>
<polygon fill="none" stroke="#000000" points="675,-223.7 675,-245.7 736,-245.7 736,-223.7 675,-223.7"/>
<text text-anchor="start" x="677.994" y="-231.4" font-family="Helvetica,sans-Serif" font-size="11.00" fill="#000000">varchar[36]</text>
<polygon fill="#ffffff" stroke="transparent" points="492,-204.7 492,-223.7 575,-223.7 575,-204.7 492,-204.7"/>
<polygon fill="none" stroke="#000000" points="492,-204.7 492,-223.7 575,-223.7 575,-204.7 492,-204.7"/>
<text text-anchor="start" x="495" y="-210.8" font-family="Helvetica,sans-Serif" font-size="11.00" fill="#000000">&lt; 1</text>
<polygon fill="#ffffff" stroke="transparent" points="575,-204.7 575,-223.7 675,-223.7 675,-204.7 575,-204.7"/>
<polygon fill="none" stroke="#000000" points="575,-204.7 575,-223.7 675,-223.7 675,-204.7 575,-204.7"/>
<text text-anchor="start" x="639.6105" y="-210.8" font-family="Helvetica,sans-Serif" font-size="11.00" fill="#000000">0 rows</text>
<polygon fill="#ffffff" stroke="transparent" points="675,-204.7 675,-223.7 736,-223.7 736,-204.7 675,-204.7"/>
<polygon fill="none" stroke="#000000" points="675,-204.7 675,-223.7 736,-223.7 736,-204.7 675,-204.7"/>
<text text-anchor="start" x="717.4053" y="-210.8" font-family="Helvetica,sans-Serif" font-size="11.00" fill="#000000">0 &gt;</text>
<polygon fill="none" stroke="#000000" stroke-width="2" points="491,-203.7 491,-291.7 737,-291.7 737,-203.7 491,-203.7"/>
</a>
</g>
</g>
<!-- client_session_prot_mapper&#45;&gt;client_session -->
<g id="edge5" class="edge">
<title>client_session_prot_mapper:w&#45;&gt;client_session:e</title>
<path fill="none" stroke="#000000" d="M477.276,-234.7C465.2815,-234.7 457.8229,-234.7 441,-234.7"/>
<polygon fill="#000000" stroke="#000000" points="484,-234.7001 492,-238.3 488,-234.7 492,-234.7 492,-234.7 492,-234.7 488,-234.7 492,-231.1 484,-234.7001 484,-234.7001"/>
<ellipse fill="none" stroke="#000000" cx="480.8" cy="-234.7001" rx="3.2" ry="3.2"/>
</g>
<!-- client_session_role -->
<g id="node7" class="node">
<title>client_session_role</title>
<g id="a_node7"><a xlink:href="../../tables/client_session_role.html" xlink:title="client_session_role" target="_top">
<polygon fill="#ffffff" stroke="transparent" points="546,-120.2 546,-181.2 682,-181.2 682,-120.2 546,-120.2"/>
<polygon fill="#f5f5f5" stroke="transparent" points="546,-157.7 546,-180.7 682,-180.7 682,-157.7 546,-157.7"/>
<polygon fill="none" stroke="#000000" points="546,-157.7 546,-180.7 682,-180.7 682,-157.7 546,-157.7"/>
<text text-anchor="start" x="550.7418" y="-166.8" font-family="Helvetica,sans-Serif" font-weight="bold" font-size="11.00" fill="#000000">client_session_role</text>
<text text-anchor="start" x="647.5219" y="-165.8" font-family="Helvetica,sans-Serif" font-size="11.00" fill="#000000">[table]</text>
<polygon fill="none" stroke="#000000" points="546,-138.7 546,-157.7 682,-157.7 682,-138.7 546,-138.7"/>
<text text-anchor="start" x="549" y="-144.8" font-family="Helvetica,sans-Serif" font-size="11.00" fill="#000000">...</text>
<polygon fill="#ffffff" stroke="transparent" points="546,-119.7 546,-138.7 599,-138.7 599,-119.7 546,-119.7"/>
<polygon fill="none" stroke="#000000" points="546,-119.7 546,-138.7 599,-138.7 599,-119.7 546,-119.7"/>
<text text-anchor="start" x="549" y="-125.8" font-family="Helvetica,sans-Serif" font-size="11.00" fill="#000000">&lt; 1</text>
<polygon fill="#ffffff" stroke="transparent" points="599,-119.7 599,-138.7 653,-138.7 653,-119.7 599,-119.7"/>
<polygon fill="none" stroke="#000000" points="599,-119.7 599,-138.7 653,-138.7 653,-119.7 599,-119.7"/>
<text text-anchor="start" x="617.6105" y="-125.8" font-family="Helvetica,sans-Serif" font-size="11.00" fill="#000000">0 rows</text>
<polygon fill="#ffffff" stroke="transparent" points="653,-119.7 653,-138.7 682,-138.7 682,-119.7 653,-119.7"/>
<polygon fill="none" stroke="#000000" points="653,-119.7 653,-138.7 682,-138.7 682,-119.7 653,-119.7"/>
<text text-anchor="start" x="672.8862" y="-125.8" font-family="Helvetica,sans-Serif" font-size="11.00" fill="#000000"> &#160;</text>
</a>
</g>
</g>
<!-- client_session_role&#45;&gt;client_session -->
<g id="edge6" class="edge">
<title>client_session_role:w&#45;&gt;client_session:e</title>
<path fill="none" stroke="#000000" d="M531.5284,-149.3366C509.739,-154.8971 504.2388,-173.7725 482,-192.7 462.1346,-209.6074 467.0863,-234.7 441,-234.7"/>
<polygon fill="#000000" stroke="#000000" points="538.0507,-148.599 546.4046,-151.2772 542.0253,-148.1495 546,-147.7 546,-147.7 546,-147.7 542.0253,-148.1495 545.5954,-144.1228 538.0507,-148.599 538.0507,-148.599"/>
<ellipse fill="none" stroke="#000000" cx="534.8709" cy="-148.9586" rx="3.2" ry="3.2"/>
</g>
<!-- client_user_session_note -->
<g id="node8" class="node">
<title>client_user_session_note</title>
<g id="a_node8"><a xlink:href="../../tables/client_user_session_note.html" xlink:title="client_user_session_note" target="_top">
<polygon fill="#ffffff" stroke="transparent" points="530.5,-38.2 530.5,-99.2 697.5,-99.2 697.5,-38.2 530.5,-38.2"/>
<polygon fill="#f5f5f5" stroke="transparent" points="531,-75.7 531,-98.7 698,-98.7 698,-75.7 531,-75.7"/>
<polygon fill="none" stroke="#000000" points="531,-75.7 531,-98.7 698,-98.7 698,-75.7 531,-75.7"/>
<text text-anchor="start" x="535.954" y="-84.8" font-family="Helvetica,sans-Serif" font-weight="bold" font-size="11.00" fill="#000000">client_user_session_note</text>
<text text-anchor="start" x="663.5219" y="-83.8" font-family="Helvetica,sans-Serif" font-size="11.00" fill="#000000">[table]</text>
<polygon fill="none" stroke="#000000" points="531,-56.7 531,-75.7 698,-75.7 698,-56.7 531,-56.7"/>
<text text-anchor="start" x="534" y="-62.8" font-family="Helvetica,sans-Serif" font-size="11.00" fill="#000000">...</text>
<polygon fill="#ffffff" stroke="transparent" points="531,-37.7 531,-56.7 600,-56.7 600,-37.7 531,-37.7"/>
<polygon fill="none" stroke="#000000" points="531,-37.7 531,-56.7 600,-56.7 600,-37.7 531,-37.7"/>
<text text-anchor="start" x="534" y="-43.8" font-family="Helvetica,sans-Serif" font-size="11.00" fill="#000000">&lt; 1</text>
<polygon fill="#ffffff" stroke="transparent" points="600,-37.7 600,-56.7 662,-56.7 662,-37.7 600,-37.7"/>
<polygon fill="none" stroke="#000000" points="600,-37.7 600,-56.7 662,-56.7 662,-37.7 600,-37.7"/>
<text text-anchor="start" x="626.6105" y="-43.8" font-family="Helvetica,sans-Serif" font-size="11.00" fill="#000000">0 rows</text>
<polygon fill="#ffffff" stroke="transparent" points="662,-37.7 662,-56.7 698,-56.7 698,-37.7 662,-37.7"/>
<polygon fill="none" stroke="#000000" points="662,-37.7 662,-56.7 698,-56.7 698,-37.7 662,-37.7"/>
<text text-anchor="start" x="688.8862" y="-43.8" font-family="Helvetica,sans-Serif" font-size="11.00" fill="#000000"> &#160;</text>
</a>
</g>
</g>
<!-- client_user_session_note&#45;&gt;client_session -->
<g id="edge7" class="edge">
<title>client_user_session_note:w&#45;&gt;client_session:e</title>
<path fill="none" stroke="#000000" d="M516.4902,-67.8222C499.8028,-73.5034 494.8685,-89.9737 482,-109.7 450.0549,-158.6692 499.4677,-234.7 441,-234.7"/>
<polygon fill="#000000" stroke="#000000" points="523.0842,-66.8578 531.521,-69.2621 527.0421,-66.2789 531,-65.7 531,-65.7 531,-65.7 527.0421,-66.2789 530.479,-62.1379 523.0842,-66.8578 523.0842,-66.8578"/>
<ellipse fill="none" stroke="#000000" cx="519.9179" cy="-67.321" rx="3.2" ry="3.2"/>
</g>
</g>
</svg>
