<?xml version="1.0" encoding="UTF-8" standalone="no"?>
<!DOCTYPE svg PUBLIC "-//W3C//DTD SVG 1.1//EN"
 "http://www.w3.org/Graphics/SVG/1.1/DTD/svg11.dtd">
<!-- Generated by graphviz version 2.40.1 (20161225.0304)
 -->
<!-- Title: twoDegreesRelationshipsDiagramImplied Pages: 1 -->
<svg width="709pt" height="469pt"
 viewBox="0.00 0.00 709.00 469.20" xmlns="http://www.w3.org/2000/svg" xmlns:xlink="http://www.w3.org/1999/xlink">
<g id="graph0" class="graph" transform="scale(1 1) rotate(0) translate(4 465.2)">
<title>twoDegreesRelationshipsDiagramImplied</title>
<polygon fill="#ffffff" stroke="transparent" points="-4,4 -4,-465.2 705,-465.2 705,4 -4,4"/>
<text text-anchor="middle" x="72.4936" y="-7.3" font-family="Helvetica,sans-Serif" font-size="11.00" fill="#000000">Generated by SchemaSpy</text>
<!-- client_session -->
<g id="node1" class="node">
<title>client_session</title>
<g id="a_node1"><a xlink:href="../../tables/client_session.html" xlink:title="client_session" target="_top">
<polygon fill="#ffffff" stroke="transparent" points="329,-167.2 329,-294.2 441,-294.2 441,-167.2 329,-167.2"/>
<polygon fill="#f5f5f5" stroke="transparent" points="329,-270.7 329,-293.7 441,-293.7 441,-270.7 329,-270.7"/>
<polygon fill="none" stroke="#000000" points="329,-270.7 329,-293.7 441,-293.7 441,-270.7 329,-270.7"/>
<text text-anchor="start" x="333.9655" y="-279.8" font-family="Helvetica,sans-Serif" font-weight="bold" font-size="11.00" fill="#000000">client_session</text>
<text text-anchor="start" x="406.5219" y="-278.8" font-family="Helvetica,sans-Serif" font-size="11.00" fill="#000000">[table]</text>
<polygon fill="none" stroke="#000000" points="329,-248.7 329,-270.7 441,-270.7 441,-248.7 329,-248.7"/>
<image xlink:href="../../images/primaryKeys.png" width="11px" height="12px" preserveAspectRatio="xMinYMin meet" x="334" y="-265.7"/>
<text text-anchor="start" x="353" y="-255.8" font-family="Helvetica,sans-Serif" font-size="11.00" fill="#000000">id</text>
<polygon fill="#ffffff" stroke="transparent" points="329,-226.7 329,-248.7 441,-248.7 441,-226.7 329,-226.7"/>
<polygon fill="none" stroke="#000000" points="329,-226.7 329,-248.7 441,-248.7 441,-226.7 329,-226.7"/>
<image xlink:href="../../images/foreignKeys.png" width="11px" height="12px" preserveAspectRatio="xMinYMin meet" x="334" y="-243.7"/>
<text text-anchor="start" x="353" y="-233.8" font-family="Helvetica,sans-Serif" font-size="11.00" fill="#000000">session_id</text>
<polygon fill="none" stroke="#000000" points="329,-204.7 329,-226.7 441,-226.7 441,-204.7 329,-204.7"/>
<image xlink:href="../../images/foreignKeys.png" width="11px" height="12px" preserveAspectRatio="xMinYMin meet" x="334" y="-221.7"/>
<text text-anchor="start" x="353" y="-211.8" font-family="Helvetica,sans-Serif" font-size="11.00" fill="#000000">realm_id</text>
<polygon fill="none" stroke="#000000" points="329,-185.7 329,-204.7 441,-204.7 441,-185.7 329,-185.7"/>
<text text-anchor="start" x="332" y="-191.8" font-family="Helvetica,sans-Serif" font-size="11.00" fill="#000000">...</text>
<polygon fill="#ffffff" stroke="transparent" points="329,-166.7 329,-185.7 366,-185.7 366,-166.7 329,-166.7"/>
<polygon fill="none" stroke="#000000" points="329,-166.7 329,-185.7 366,-185.7 366,-166.7 329,-166.7"/>
<text text-anchor="start" x="332" y="-172.8" font-family="Helvetica,sans-Serif" font-size="11.00" fill="#000000">&lt; 2</text>
<polygon fill="#ffffff" stroke="transparent" points="366,-166.7 366,-185.7 412,-185.7 412,-166.7 366,-166.7"/>
<polygon fill="none" stroke="#000000" points="366,-166.7 366,-185.7 412,-185.7 412,-166.7 366,-166.7"/>
<text text-anchor="start" x="376.6105" y="-172.8" font-family="Helvetica,sans-Serif" font-size="11.00" fill="#000000">0 rows</text>
<polygon fill="#ffffff" stroke="transparent" points="412,-166.7 412,-185.7 441,-185.7 441,-166.7 412,-166.7"/>
<polygon fill="none" stroke="#000000" points="412,-166.7 412,-185.7 441,-185.7 441,-166.7 412,-166.7"/>
<text text-anchor="start" x="422.4053" y="-172.8" font-family="Helvetica,sans-Serif" font-size="11.00" fill="#000000">5 &gt;</text>
</a>
</g>
</g>
<!-- federated_user -->
<g id="node2" class="node">
<title>federated_user</title>
<g id="a_node2"><a xlink:href="../../tables/federated_user.html" xlink:title="federated_user" target="_top">
<polygon fill="#ffffff" stroke="transparent" points="8,-225.2 8,-286.2 124,-286.2 124,-225.2 8,-225.2"/>
<polygon fill="#f5f5f5" stroke="transparent" points="8,-262.7 8,-285.7 124,-285.7 124,-262.7 8,-262.7"/>
<polygon fill="none" stroke="#000000" points="8,-262.7 8,-285.7 124,-285.7 124,-262.7 8,-262.7"/>
<text text-anchor="start" x="12.5142" y="-271.8" font-family="Helvetica,sans-Serif" font-weight="bold" font-size="11.00" fill="#000000">federated_user</text>
<text text-anchor="start" x="89.5219" y="-270.8" font-family="Helvetica,sans-Serif" font-size="11.00" fill="#000000">[table]</text>
<polygon fill="none" stroke="#000000" points="8,-243.7 8,-262.7 124,-262.7 124,-243.7 8,-243.7"/>
<text text-anchor="start" x="11" y="-249.8" font-family="Helvetica,sans-Serif" font-size="11.00" fill="#000000">...</text>
<polygon fill="#ffffff" stroke="transparent" points="8,-224.7 8,-243.7 39,-243.7 39,-224.7 8,-224.7"/>
<polygon fill="none" stroke="#000000" points="8,-224.7 8,-243.7 39,-243.7 39,-224.7 8,-224.7"/>
<text text-anchor="start" x="11" y="-230.8" font-family="Helvetica,sans-Serif" font-size="11.00" fill="#000000"> &#160;</text>
<polygon fill="#ffffff" stroke="transparent" points="39,-224.7 39,-243.7 87,-243.7 87,-224.7 39,-224.7"/>
<polygon fill="none" stroke="#000000" points="39,-224.7 39,-243.7 87,-243.7 87,-224.7 39,-224.7"/>
<text text-anchor="start" x="51.6105" y="-230.8" font-family="Helvetica,sans-Serif" font-size="11.00" fill="#000000">0 rows</text>
<polygon fill="#ffffff" stroke="transparent" points="87,-224.7 87,-243.7 124,-243.7 124,-224.7 87,-224.7"/>
<polygon fill="none" stroke="#000000" points="87,-224.7 87,-243.7 124,-243.7 124,-224.7 87,-224.7"/>
<text text-anchor="start" x="99.2904" y="-230.8" font-family="Helvetica,sans-Serif" font-size="11.00" fill="#000000">30 &gt;</text>
</a>
</g>
</g>
<!-- client_session&#45;&gt;federated_user -->
<g id="edge1" class="edge">
<title>client_session:w&#45;&gt;federated_user:e</title>
<path fill="none" stroke="#000000" stroke-dasharray="5,2" d="M314.3282,-215.3189C252.6196,-212.0853 228.0877,-189.9602 165,-214.7 141.8697,-223.7705 148.8452,-252.7 124,-252.7"/>
<polygon fill="#000000" stroke="#000000" points="321.0027,-215.4922 328.9065,-219.2988 325.0013,-215.5961 329,-215.7 329,-215.7 329,-215.7 325.0013,-215.5961 329.0935,-212.1012 321.0027,-215.4922 321.0027,-215.4922"/>
<ellipse fill="none" stroke="#000000" cx="317.8038" cy="-215.4091" rx="3.2" ry="3.2"/>
</g>
<!-- user_session -->
<g id="node3" class="node">
<title>user_session</title>
<g id="a_node3"><a xlink:href="../../tables/user_session.html" xlink:title="user_session" target="_top">
<polygon fill="#ffffff" stroke="transparent" points="173,-225.2 173,-286.2 280,-286.2 280,-225.2 173,-225.2"/>
<polygon fill="#f5f5f5" stroke="transparent" points="173.5,-262.7 173.5,-285.7 280.5,-285.7 280.5,-262.7 173.5,-262.7"/>
<polygon fill="none" stroke="#000000" points="173.5,-262.7 173.5,-285.7 280.5,-285.7 280.5,-262.7 173.5,-262.7"/>
<text text-anchor="start" x="178.1039" y="-271.8" font-family="Helvetica,sans-Serif" font-weight="bold" font-size="11.00" fill="#000000">user_session</text>
<text text-anchor="start" x="246.0219" y="-270.8" font-family="Helvetica,sans-Serif" font-size="11.00" fill="#000000">[table]</text>
<polygon fill="none" stroke="#000000" points="173.5,-243.7 173.5,-262.7 280.5,-262.7 280.5,-243.7 173.5,-243.7"/>
<text text-anchor="start" x="176.5" y="-249.8" font-family="Helvetica,sans-Serif" font-size="11.00" fill="#000000">...</text>
<polygon fill="#ffffff" stroke="transparent" points="173.5,-224.7 173.5,-243.7 207.5,-243.7 207.5,-224.7 173.5,-224.7"/>
<polygon fill="none" stroke="#000000" points="173.5,-224.7 173.5,-243.7 207.5,-243.7 207.5,-224.7 173.5,-224.7"/>
<text text-anchor="start" x="176.5" y="-230.8" font-family="Helvetica,sans-Serif" font-size="11.00" fill="#000000">&lt; 4</text>
<polygon fill="#ffffff" stroke="transparent" points="207.5,-224.7 207.5,-243.7 252.5,-243.7 252.5,-224.7 207.5,-224.7"/>
<polygon fill="none" stroke="#000000" points="207.5,-224.7 207.5,-243.7 252.5,-243.7 252.5,-224.7 207.5,-224.7"/>
<text text-anchor="start" x="217.1105" y="-230.8" font-family="Helvetica,sans-Serif" font-size="11.00" fill="#000000">0 rows</text>
<polygon fill="#ffffff" stroke="transparent" points="252.5,-224.7 252.5,-243.7 280.5,-243.7 280.5,-224.7 252.5,-224.7"/>
<polygon fill="none" stroke="#000000" points="252.5,-224.7 252.5,-243.7 280.5,-243.7 280.5,-224.7 252.5,-224.7"/>
<text text-anchor="start" x="261.9053" y="-230.8" font-family="Helvetica,sans-Serif" font-size="11.00" fill="#000000">2 &gt;</text>
</a>
</g>
</g>
<!-- client_session&#45;&gt;user_session -->
<g id="edge2" class="edge">
<title>client_session:w&#45;&gt;user_session:e</title>
<path fill="none" stroke="#000000" d="M314.7176,-240.1769C303.4219,-244.4374 297.2459,-252.7 280.5,-252.7"/>
<polygon fill="#000000" stroke="#000000" points="321.1177,-239.0671 329.6152,-241.2471 325.0588,-238.3835 329,-237.7 329,-237.7 329,-237.7 325.0588,-238.3835 328.3848,-234.1529 321.1177,-239.0671 321.1177,-239.0671"/>
<ellipse fill="none" stroke="#000000" cx="317.9647" cy="-239.6139" rx="3.2" ry="3.2"/>
</g>
<!-- user_session&#45;&gt;federated_user -->
<g id="edge8" class="edge">
<title>user_session:w&#45;&gt;federated_user:e</title>
<path fill="none" stroke="#000000" stroke-dasharray="5,2" d="M161.8595,-243.4737C148.5848,-234.4839 141.5313,-237.5594 124,-252.7"/>
<polygon fill="#000000" stroke="#000000" points="167.2305,-247.7307 171.2638,-255.5213 170.3652,-250.2154 173.5,-252.7 173.5,-252.7 173.5,-252.7 170.3652,-250.2154 175.7362,-249.8787 167.2305,-247.7307 167.2305,-247.7307"/>
<ellipse fill="none" stroke="#000000" cx="164.7227" cy="-245.743" rx="3.2" ry="3.2"/>
</g>
<!-- user_session&#45;&gt;federated_user -->
<g id="edge9" class="edge">
<title>user_session:w&#45;&gt;federated_user:e</title>
<path fill="none" stroke="#000000" stroke-dasharray="5,2" d="M159.209,-249.2558C147.5674,-247.0988 140.3281,-248.2469 124,-252.7"/>
<polygon fill="#000000" stroke="#000000" points="165.7227,-250.8256 172.6565,-256.1998 169.6113,-251.7628 173.5,-252.7 173.5,-252.7 173.5,-252.7 169.6113,-251.7628 174.3435,-249.2002 165.7227,-250.8256 165.7227,-250.8256"/>
<ellipse fill="none" stroke="#000000" cx="162.6118" cy="-250.0758" rx="3.2" ry="3.2"/>
</g>
<!-- user_session&#45;&gt;federated_user -->
<g id="edge10" class="edge">
<title>user_session:w&#45;&gt;federated_user:e</title>
<path fill="none" stroke="#000000" stroke-dasharray="5,2" d="M159.5781,-256.6375C147.7188,-259.2625 140.5,-257.95 124,-252.7"/>
<polygon fill="#000000" stroke="#000000" points="165.802,-254.8773 174.4798,-256.1641 169.651,-253.7886 173.5,-252.7 173.5,-252.7 173.5,-252.7 169.651,-253.7886 172.5202,-249.2359 165.802,-254.8773 165.802,-254.8773"/>
<ellipse fill="none" stroke="#000000" cx="162.7228" cy="-255.7482" rx="3.2" ry="3.2"/>
</g>
<!-- user_session&#45;&gt;federated_user -->
<g id="edge11" class="edge">
<title>user_session:w&#45;&gt;federated_user:e</title>
<path fill="none" stroke="#000000" stroke-dasharray="5,2" d="M162.2518,-262.1299C148.7221,-271.9371 141.7031,-268.7938 124,-252.7"/>
<polygon fill="#000000" stroke="#000000" points="167.3694,-257.8396 175.8128,-255.4588 170.4347,-255.2698 173.5,-252.7 173.5,-252.7 173.5,-252.7 170.4347,-255.2698 171.1872,-249.9412 167.3694,-257.8396 167.3694,-257.8396"/>
<ellipse fill="none" stroke="#000000" cx="164.9171" cy="-259.8955" rx="3.2" ry="3.2"/>
</g>
<!-- client_session_auth_status -->
<g id="node4" class="node">
<title>client_session_auth_status</title>
<g id="a_node4"><a xlink:href="../../tables/client_session_auth_status.html" xlink:title="client_session_auth_status" target="_top">
<polygon fill="#ffffff" stroke="transparent" points="504,-396.2 504,-457.2 679,-457.2 679,-396.2 504,-396.2"/>
<polygon fill="#f5f5f5" stroke="transparent" points="504.5,-433.7 504.5,-456.7 679.5,-456.7 679.5,-433.7 504.5,-433.7"/>
<polygon fill="none" stroke="#000000" points="504.5,-433.7 504.5,-456.7 679.5,-456.7 679.5,-433.7 504.5,-433.7"/>
<text text-anchor="start" x="509.478" y="-442.8" font-family="Helvetica,sans-Serif" font-weight="bold" font-size="11.00" fill="#000000">client_session_auth_status</text>
<text text-anchor="start" x="645.0219" y="-441.8" font-family="Helvetica,sans-Serif" font-size="11.00" fill="#000000">[table]</text>
<polygon fill="none" stroke="#000000" points="504.5,-414.7 504.5,-433.7 679.5,-433.7 679.5,-414.7 504.5,-414.7"/>
<text text-anchor="start" x="507.5" y="-420.8" font-family="Helvetica,sans-Serif" font-size="11.00" fill="#000000">...</text>
<polygon fill="#ffffff" stroke="transparent" points="504.5,-395.7 504.5,-414.7 577.5,-414.7 577.5,-395.7 504.5,-395.7"/>
<polygon fill="none" stroke="#000000" points="504.5,-395.7 504.5,-414.7 577.5,-414.7 577.5,-395.7 504.5,-395.7"/>
<text text-anchor="start" x="507.5" y="-401.8" font-family="Helvetica,sans-Serif" font-size="11.00" fill="#000000">&lt; 1</text>
<polygon fill="#ffffff" stroke="transparent" points="577.5,-395.7 577.5,-414.7 641.5,-414.7 641.5,-395.7 577.5,-395.7"/>
<polygon fill="none" stroke="#000000" points="577.5,-395.7 577.5,-414.7 641.5,-414.7 641.5,-395.7 577.5,-395.7"/>
<text text-anchor="start" x="606.1105" y="-401.8" font-family="Helvetica,sans-Serif" font-size="11.00" fill="#000000">0 rows</text>
<polygon fill="#ffffff" stroke="transparent" points="641.5,-395.7 641.5,-414.7 679.5,-414.7 679.5,-395.7 641.5,-395.7"/>
<polygon fill="none" stroke="#000000" points="641.5,-395.7 641.5,-414.7 679.5,-414.7 679.5,-395.7 641.5,-395.7"/>
<text text-anchor="start" x="670.3862" y="-401.8" font-family="Helvetica,sans-Serif" font-size="11.00" fill="#000000"> &#160;</text>
</a>
</g>
</g>
<!-- client_session_auth_status&#45;&gt;client_session -->
<g id="edge3" class="edge">
<title>client_session_auth_status:w&#45;&gt;client_session:e</title>
<path fill="none" stroke="#000000" d="M490.1045,-421.2544C438.8611,-400.8533 513.5135,-259.7 441,-259.7"/>
<polygon fill="#000000" stroke="#000000" points="496.613,-422.3601 503.897,-427.2491 500.5565,-423.03 504.5,-423.7 504.5,-423.7 504.5,-423.7 500.5565,-423.03 505.103,-420.1509 496.613,-422.3601 496.613,-422.3601"/>
<ellipse fill="none" stroke="#000000" cx="493.4582" cy="-421.8241" rx="3.2" ry="3.2"/>
</g>
<!-- client_session_note -->
<g id="node5" class="node">
<title>client_session_note</title>
<g id="a_node5"><a xlink:href="../../tables/client_session_note.html" xlink:title="client_session_note" target="_top">
<polygon fill="#ffffff" stroke="transparent" points="522,-314.2 522,-375.2 661,-375.2 661,-314.2 522,-314.2"/>
<polygon fill="#f5f5f5" stroke="transparent" points="522.5,-351.7 522.5,-374.7 661.5,-374.7 661.5,-351.7 522.5,-351.7"/>
<polygon fill="none" stroke="#000000" points="522.5,-351.7 522.5,-374.7 661.5,-374.7 661.5,-351.7 522.5,-351.7"/>
<text text-anchor="start" x="527.2073" y="-360.8" font-family="Helvetica,sans-Serif" font-weight="bold" font-size="11.00" fill="#000000">client_session_note</text>
<text text-anchor="start" x="627.0219" y="-359.8" font-family="Helvetica,sans-Serif" font-size="11.00" fill="#000000">[table]</text>
<polygon fill="none" stroke="#000000" points="522.5,-332.7 522.5,-351.7 661.5,-351.7 661.5,-332.7 522.5,-332.7"/>
<text text-anchor="start" x="525.5" y="-338.8" font-family="Helvetica,sans-Serif" font-size="11.00" fill="#000000">...</text>
<polygon fill="#ffffff" stroke="transparent" points="522.5,-313.7 522.5,-332.7 577.5,-332.7 577.5,-313.7 522.5,-313.7"/>
<polygon fill="none" stroke="#000000" points="522.5,-313.7 522.5,-332.7 577.5,-332.7 577.5,-313.7 522.5,-313.7"/>
<text text-anchor="start" x="525.5" y="-319.8" font-family="Helvetica,sans-Serif" font-size="11.00" fill="#000000">&lt; 1</text>
<polygon fill="#ffffff" stroke="transparent" points="577.5,-313.7 577.5,-332.7 632.5,-332.7 632.5,-313.7 577.5,-313.7"/>
<polygon fill="none" stroke="#000000" points="577.5,-313.7 577.5,-332.7 632.5,-332.7 632.5,-313.7 577.5,-313.7"/>
<text text-anchor="start" x="597.1105" y="-319.8" font-family="Helvetica,sans-Serif" font-size="11.00" fill="#000000">0 rows</text>
<polygon fill="#ffffff" stroke="transparent" points="632.5,-313.7 632.5,-332.7 661.5,-332.7 661.5,-313.7 632.5,-313.7"/>
<polygon fill="none" stroke="#000000" points="632.5,-313.7 632.5,-332.7 661.5,-332.7 661.5,-313.7 632.5,-313.7"/>
<text text-anchor="start" x="652.3862" y="-319.8" font-family="Helvetica,sans-Serif" font-size="11.00" fill="#000000"> &#160;</text>
</a>
</g>
</g>
<!-- client_session_note&#45;&gt;client_session -->
<g id="edge4" class="edge">
<title>client_session_note:w&#45;&gt;client_session:e</title>
<path fill="none" stroke="#000000" d="M508.209,-338.2211C497.4309,-331.6312 495.0674,-316.8125 482,-303.7 463.1319,-284.7668 467.7296,-259.7 441,-259.7"/>
<polygon fill="#000000" stroke="#000000" points="514.727,-339.8077 521.6485,-345.1979 518.6135,-340.7539 522.5,-341.7 522.5,-341.7 522.5,-341.7 518.6135,-340.7539 523.3515,-338.2021 514.727,-339.8077 514.727,-339.8077"/>
<ellipse fill="none" stroke="#000000" cx="511.6178" cy="-339.0508" rx="3.2" ry="3.2"/>
</g>
<!-- client_session_prot_mapper -->
<g id="node6" class="node">
<title>client_session_prot_mapper</title>
<g id="a_node6"><a xlink:href="../../tables/client_session_prot_mapper.html" xlink:title="client_session_prot_mapper" target="_top">
<polygon fill="#ffffff" stroke="transparent" points="501.5,-232.2 501.5,-293.2 681.5,-293.2 681.5,-232.2 501.5,-232.2"/>
<polygon fill="#f5f5f5" stroke="transparent" points="501.5,-269.7 501.5,-292.7 681.5,-292.7 681.5,-269.7 501.5,-269.7"/>
<polygon fill="none" stroke="#000000" points="501.5,-269.7 501.5,-292.7 681.5,-292.7 681.5,-269.7 501.5,-269.7"/>
<text text-anchor="start" x="506.2346" y="-278.8" font-family="Helvetica,sans-Serif" font-weight="bold" font-size="11.00" fill="#000000">client_session_prot_mapper</text>
<text text-anchor="start" x="647.0219" y="-277.8" font-family="Helvetica,sans-Serif" font-size="11.00" fill="#000000">[table]</text>
<polygon fill="none" stroke="#000000" points="501.5,-250.7 501.5,-269.7 681.5,-269.7 681.5,-250.7 501.5,-250.7"/>
<text text-anchor="start" x="504.5" y="-256.8" font-family="Helvetica,sans-Serif" font-size="11.00" fill="#000000">...</text>
<polygon fill="#ffffff" stroke="transparent" points="501.5,-231.7 501.5,-250.7 576.5,-250.7 576.5,-231.7 501.5,-231.7"/>
<polygon fill="none" stroke="#000000" points="501.5,-231.7 501.5,-250.7 576.5,-250.7 576.5,-231.7 501.5,-231.7"/>
<text text-anchor="start" x="504.5" y="-237.8" font-family="Helvetica,sans-Serif" font-size="11.00" fill="#000000">&lt; 1</text>
<polygon fill="#ffffff" stroke="transparent" points="576.5,-231.7 576.5,-250.7 641.5,-250.7 641.5,-231.7 576.5,-231.7"/>
<polygon fill="none" stroke="#000000" points="576.5,-231.7 576.5,-250.7 641.5,-250.7 641.5,-231.7 576.5,-231.7"/>
<text text-anchor="start" x="606.1105" y="-237.8" font-family="Helvetica,sans-Serif" font-size="11.00" fill="#000000">0 rows</text>
<polygon fill="#ffffff" stroke="transparent" points="641.5,-231.7 641.5,-250.7 681.5,-250.7 681.5,-231.7 641.5,-231.7"/>
<polygon fill="none" stroke="#000000" points="641.5,-231.7 641.5,-250.7 681.5,-250.7 681.5,-231.7 641.5,-231.7"/>
<text text-anchor="start" x="672.3862" y="-237.8" font-family="Helvetica,sans-Serif" font-size="11.00" fill="#000000"> &#160;</text>
</a>
</g>
</g>
<!-- client_session_prot_mapper&#45;&gt;client_session -->
<g id="edge5" class="edge">
<title>client_session_prot_mapper:w&#45;&gt;client_session:e</title>
<path fill="none" stroke="#000000" d="M486.7977,-259.7C470.8779,-259.7 462.217,-259.7 441,-259.7"/>
<polygon fill="#000000" stroke="#000000" points="493.5,-259.7001 501.5,-263.3 497.5,-259.7 501.5,-259.7 501.5,-259.7 501.5,-259.7 497.5,-259.7 501.5,-256.1 493.5,-259.7001 493.5,-259.7001"/>
<ellipse fill="none" stroke="#000000" cx="490.3" cy="-259.7001" rx="3.2" ry="3.2"/>
</g>
<!-- client_session_role -->
<g id="node7" class="node">
<title>client_session_role</title>
<g id="a_node7"><a xlink:href="../../tables/client_session_role.html" xlink:title="client_session_role" target="_top">
<polygon fill="#ffffff" stroke="transparent" points="490,-120.7 490,-210.7 693,-210.7 693,-120.7 490,-120.7"/>
<polygon fill="#f5f5f5" stroke="transparent" points="492.5,-185.7 492.5,-208.7 691.5,-208.7 691.5,-185.7 492.5,-185.7"/>
<polygon fill="none" stroke="#000000" points="492.5,-185.7 492.5,-208.7 691.5,-208.7 691.5,-185.7 492.5,-185.7"/>
<text text-anchor="start" x="497.5" y="-194.8" font-family="Helvetica,sans-Serif" font-weight="bold" font-size="11.00" fill="#000000">client_session_role</text>
<text text-anchor="start" x="656.5437" y="-193.8" font-family="Helvetica,sans-Serif" font-size="11.00" fill="#000000">[table]</text>
<polygon fill="none" stroke="#000000" points="492.5,-163.7 492.5,-185.7 624.5,-185.7 624.5,-163.7 492.5,-163.7"/>
<image xlink:href="../../images/primaryKeys.png" width="11px" height="12px" preserveAspectRatio="xMinYMin meet" x="497.5" y="-180.7"/>
<text text-anchor="start" x="512.5" y="-170.8" font-family="Helvetica,sans-Serif" font-size="11.00" fill="#000000">role_id</text>
<polygon fill="none" stroke="#000000" points="624.5,-163.7 624.5,-185.7 691.5,-185.7 691.5,-163.7 624.5,-163.7"/>
<text text-anchor="start" x="627.4365" y="-171.4" font-family="Helvetica,sans-Serif" font-size="11.00" fill="#000000">varchar[255]</text>
<polygon fill="none" stroke="#000000" points="492.5,-141.7 492.5,-163.7 624.5,-163.7 624.5,-141.7 492.5,-141.7"/>
<image xlink:href="../../images/primaryKeys.png" width="11px" height="12px" preserveAspectRatio="xMinYMin meet" x="497.5" y="-158.7"/>
<text text-anchor="start" x="512.5" y="-148.8" font-family="Helvetica,sans-Serif" font-size="11.00" fill="#000000">client_session</text>
<polygon fill="none" stroke="#000000" points="624.5,-141.7 624.5,-163.7 691.5,-163.7 691.5,-141.7 624.5,-141.7"/>
<text text-anchor="start" x="627.5" y="-149.4" font-family="Helvetica,sans-Serif" font-size="11.00" fill="#000000">varchar[36]</text>
<polygon fill="#ffffff" stroke="transparent" points="492.5,-122.7 492.5,-141.7 549.5,-141.7 549.5,-122.7 492.5,-122.7"/>
<polygon fill="none" stroke="#000000" points="492.5,-122.7 492.5,-141.7 549.5,-141.7 549.5,-122.7 492.5,-122.7"/>
<text text-anchor="start" x="495.5" y="-128.8" font-family="Helvetica,sans-Serif" font-size="11.00" fill="#000000">&lt; 1</text>
<polygon fill="#ffffff" stroke="transparent" points="549.5,-122.7 549.5,-141.7 624.5,-141.7 624.5,-122.7 549.5,-122.7"/>
<polygon fill="none" stroke="#000000" points="549.5,-122.7 549.5,-141.7 624.5,-141.7 624.5,-122.7 549.5,-122.7"/>
<text text-anchor="start" x="589.1105" y="-128.8" font-family="Helvetica,sans-Serif" font-size="11.00" fill="#000000">0 rows</text>
<polygon fill="#ffffff" stroke="transparent" points="624.5,-122.7 624.5,-141.7 691.5,-141.7 691.5,-122.7 624.5,-122.7"/>
<polygon fill="none" stroke="#000000" points="624.5,-122.7 624.5,-141.7 691.5,-141.7 691.5,-122.7 624.5,-122.7"/>
<text text-anchor="start" x="672.9053" y="-128.8" font-family="Helvetica,sans-Serif" font-size="11.00" fill="#000000">0 &gt;</text>
<polygon fill="none" stroke="#000000" stroke-width="2" points="491,-121.7 491,-209.7 692,-209.7 692,-121.7 491,-121.7"/>
</a>
</g>
</g>
<!-- client_session_role&#45;&gt;client_session -->
<g id="edge6" class="edge">
<title>client_session_role:w&#45;&gt;client_session:e</title>
<path fill="none" stroke="#000000" d="M478.3662,-156.5082C450.5986,-175.5691 487.7985,-259.7 441,-259.7"/>
<polygon fill="#000000" stroke="#000000" points="484.7755,-154.7813 493.4366,-156.176 488.6377,-153.7407 492.5,-152.7 492.5,-152.7 492.5,-152.7 488.6377,-153.7407 491.5634,-149.224 484.7755,-154.7813 484.7755,-154.7813"/>
<ellipse fill="none" stroke="#000000" cx="481.6857" cy="-155.6139" rx="3.2" ry="3.2"/>
</g>
<!-- client_user_session_note -->
<g id="node8" class="node">
<title>client_user_session_note</title>
<g id="a_node8"><a xlink:href="../../tables/client_user_session_note.html" xlink:title="client_user_session_note" target="_top">
<polygon fill="#ffffff" stroke="transparent" points="508,-38.2 508,-99.2 675,-99.2 675,-38.2 508,-38.2"/>
<polygon fill="#f5f5f5" stroke="transparent" points="508.5,-75.7 508.5,-98.7 675.5,-98.7 675.5,-75.7 508.5,-75.7"/>
<polygon fill="none" stroke="#000000" points="508.5,-75.7 508.5,-98.7 675.5,-98.7 675.5,-75.7 508.5,-75.7"/>
<text text-anchor="start" x="513.454" y="-84.8" font-family="Helvetica,sans-Serif" font-weight="bold" font-size="11.00" fill="#000000">client_user_session_note</text>
<text text-anchor="start" x="641.0219" y="-83.8" font-family="Helvetica,sans-Serif" font-size="11.00" fill="#000000">[table]</text>
<polygon fill="none" stroke="#000000" points="508.5,-56.7 508.5,-75.7 675.5,-75.7 675.5,-56.7 508.5,-56.7"/>
<text text-anchor="start" x="511.5" y="-62.8" font-family="Helvetica,sans-Serif" font-size="11.00" fill="#000000">...</text>
<polygon fill="#ffffff" stroke="transparent" points="508.5,-37.7 508.5,-56.7 577.5,-56.7 577.5,-37.7 508.5,-37.7"/>
<polygon fill="none" stroke="#000000" points="508.5,-37.7 508.5,-56.7 577.5,-56.7 577.5,-37.7 508.5,-37.7"/>
<text text-anchor="start" x="511.5" y="-43.8" font-family="Helvetica,sans-Serif" font-size="11.00" fill="#000000">&lt; 1</text>
<polygon fill="#ffffff" stroke="transparent" points="577.5,-37.7 577.5,-56.7 639.5,-56.7 639.5,-37.7 577.5,-37.7"/>
<polygon fill="none" stroke="#000000" points="577.5,-37.7 577.5,-56.7 639.5,-56.7 639.5,-37.7 577.5,-37.7"/>
<text text-anchor="start" x="604.1105" y="-43.8" font-family="Helvetica,sans-Serif" font-size="11.00" fill="#000000">0 rows</text>
<polygon fill="#ffffff" stroke="transparent" points="639.5,-37.7 639.5,-56.7 675.5,-56.7 675.5,-37.7 639.5,-37.7"/>
<polygon fill="none" stroke="#000000" points="639.5,-37.7 639.5,-56.7 675.5,-56.7 675.5,-37.7 639.5,-37.7"/>
<text text-anchor="start" x="666.3862" y="-43.8" font-family="Helvetica,sans-Serif" font-size="11.00" fill="#000000"> &#160;</text>
</a>
</g>
</g>
<!-- client_user_session_note&#45;&gt;client_session -->
<g id="edge7" class="edge">
<title>client_user_session_note:w&#45;&gt;client_session:e</title>
<path fill="none" stroke="#000000" d="M494.0957,-67.7474C430.3872,-88.481 526.7648,-259.7 441,-259.7"/>
<polygon fill="#000000" stroke="#000000" points="500.5796,-66.8259 509.0066,-69.2642 504.5398,-66.2629 508.5,-65.7 508.5,-65.7 508.5,-65.7 504.5398,-66.2629 507.9934,-62.1358 500.5796,-66.8259 500.5796,-66.8259"/>
<ellipse fill="none" stroke="#000000" cx="497.4115" cy="-67.2762" rx="3.2" ry="3.2"/>
</g>
</g>
</svg>
