<?xml version="1.0" encoding="UTF-8" standalone="no"?>
<!DOCTYPE svg PUBLIC "-//W3C//DTD SVG 1.1//EN"
 "http://www.w3.org/Graphics/SVG/1.1/DTD/svg11.dtd">
<!-- Generated by graphviz version 2.40.1 (20161225.0304)
 -->
<!-- Title: twoDegreesRelationshipsDiagramImplied Pages: 1 -->
<svg width="629pt" height="983pt"
 viewBox="0.00 0.00 629.00 983.20" xmlns="http://www.w3.org/2000/svg" xmlns:xlink="http://www.w3.org/1999/xlink">
<g id="graph0" class="graph" transform="scale(1 1) rotate(0) translate(4 979.2)">
<title>twoDegreesRelationshipsDiagramImplied</title>
<polygon fill="#ffffff" stroke="transparent" points="-4,4 -4,-979.2 625,-979.2 625,4 -4,4"/>
<text text-anchor="middle" x="72.4936" y="-7.3" font-family="Helvetica,sans-Serif" font-size="11.00" fill="#000000">Generated by SchemaSpy</text>
<!-- client -->
<g id="node1" class="node">
<title>client</title>
<g id="a_node1"><a xlink:href="../../tables/client.html" xlink:title="client" target="_top">
<polygon fill="#ffffff" stroke="transparent" points="173,-517.2 173,-644.2 368,-644.2 368,-517.2 173,-517.2"/>
<polygon fill="#f5f5f5" stroke="transparent" points="173.5,-620.7 173.5,-643.7 368.5,-643.7 368.5,-620.7 173.5,-620.7"/>
<polygon fill="none" stroke="#000000" points="173.5,-620.7 173.5,-643.7 368.5,-643.7 368.5,-620.7 173.5,-620.7"/>
<text text-anchor="start" x="178.5" y="-629.8" font-family="Helvetica,sans-Serif" font-weight="bold" font-size="11.00" fill="#000000">client</text>
<text text-anchor="start" x="333.5437" y="-628.8" font-family="Helvetica,sans-Serif" font-size="11.00" fill="#000000">[table]</text>
<polygon fill="none" stroke="#000000" points="173.5,-598.7 173.5,-620.7 368.5,-620.7 368.5,-598.7 173.5,-598.7"/>
<image xlink:href="../../images/primaryKeys.png" width="11px" height="12px" preserveAspectRatio="xMinYMin meet" x="178.5" y="-615.7"/>
<text text-anchor="start" x="193.5" y="-605.8" font-family="Helvetica,sans-Serif" font-size="11.00" fill="#000000">id</text>
<polygon fill="#ffffff" stroke="transparent" points="173.5,-576.7 173.5,-598.7 368.5,-598.7 368.5,-576.7 173.5,-576.7"/>
<polygon fill="none" stroke="#000000" points="173.5,-576.7 173.5,-598.7 368.5,-598.7 368.5,-576.7 173.5,-576.7"/>
<image xlink:href="../../images/foreignKeys.png" width="11px" height="12px" preserveAspectRatio="xMinYMin meet" x="178.5" y="-593.7"/>
<text text-anchor="start" x="193.5" y="-583.8" font-family="Helvetica,sans-Serif" font-size="11.00" fill="#000000">client_id</text>
<polygon fill="#ffffff" stroke="transparent" points="173.5,-554.7 173.5,-576.7 368.5,-576.7 368.5,-554.7 173.5,-554.7"/>
<polygon fill="none" stroke="#000000" points="173.5,-554.7 173.5,-576.7 368.5,-576.7 368.5,-554.7 173.5,-554.7"/>
<image xlink:href="../../images/foreignKeys.png" width="11px" height="12px" preserveAspectRatio="xMinYMin meet" x="178.5" y="-571.7"/>
<text text-anchor="start" x="193.5" y="-561.8" font-family="Helvetica,sans-Serif" font-size="11.00" fill="#000000">realm_id</text>
<polygon fill="none" stroke="#000000" points="173.5,-535.7 173.5,-554.7 368.5,-554.7 368.5,-535.7 173.5,-535.7"/>
<text text-anchor="start" x="176.5" y="-541.8" font-family="Helvetica,sans-Serif" font-size="11.00" fill="#000000">...</text>
<polygon fill="#ffffff" stroke="transparent" points="173.5,-516.7 173.5,-535.7 251.5,-535.7 251.5,-516.7 173.5,-516.7"/>
<polygon fill="none" stroke="#000000" points="173.5,-516.7 173.5,-535.7 251.5,-535.7 251.5,-516.7 173.5,-516.7"/>
<text text-anchor="start" x="176.5" y="-522.8" font-family="Helvetica,sans-Serif" font-size="11.00" fill="#000000">&lt; 2</text>
<polygon fill="#ffffff" stroke="transparent" points="251.5,-516.7 251.5,-535.7 318.5,-535.7 318.5,-516.7 251.5,-516.7"/>
<polygon fill="none" stroke="#000000" points="251.5,-516.7 251.5,-535.7 318.5,-535.7 318.5,-516.7 251.5,-516.7"/>
<text text-anchor="start" x="283.1105" y="-522.8" font-family="Helvetica,sans-Serif" font-size="11.00" fill="#000000">6 rows</text>
<polygon fill="#ffffff" stroke="transparent" points="318.5,-516.7 318.5,-535.7 368.5,-535.7 368.5,-516.7 318.5,-516.7"/>
<polygon fill="none" stroke="#000000" points="318.5,-516.7 318.5,-535.7 368.5,-535.7 368.5,-516.7 318.5,-516.7"/>
<text text-anchor="start" x="349.9053" y="-522.8" font-family="Helvetica,sans-Serif" font-size="11.00" fill="#000000">8 &gt;</text>
</a>
</g>
</g>
<!-- federated_user -->
<g id="node2" class="node">
<title>federated_user</title>
<g id="a_node2"><a xlink:href="../../tables/federated_user.html" xlink:title="federated_user" target="_top">
<polygon fill="#ffffff" stroke="transparent" points="8,-560.2 8,-621.2 124,-621.2 124,-560.2 8,-560.2"/>
<polygon fill="#f5f5f5" stroke="transparent" points="8,-597.7 8,-620.7 124,-620.7 124,-597.7 8,-597.7"/>
<polygon fill="none" stroke="#000000" points="8,-597.7 8,-620.7 124,-620.7 124,-597.7 8,-597.7"/>
<text text-anchor="start" x="12.5142" y="-606.8" font-family="Helvetica,sans-Serif" font-weight="bold" font-size="11.00" fill="#000000">federated_user</text>
<text text-anchor="start" x="89.5219" y="-605.8" font-family="Helvetica,sans-Serif" font-size="11.00" fill="#000000">[table]</text>
<polygon fill="none" stroke="#000000" points="8,-578.7 8,-597.7 124,-597.7 124,-578.7 8,-578.7"/>
<text text-anchor="start" x="11" y="-584.8" font-family="Helvetica,sans-Serif" font-size="11.00" fill="#000000">...</text>
<polygon fill="#ffffff" stroke="transparent" points="8,-559.7 8,-578.7 39,-578.7 39,-559.7 8,-559.7"/>
<polygon fill="none" stroke="#000000" points="8,-559.7 8,-578.7 39,-578.7 39,-559.7 8,-559.7"/>
<text text-anchor="start" x="11" y="-565.8" font-family="Helvetica,sans-Serif" font-size="11.00" fill="#000000"> &#160;</text>
<polygon fill="#ffffff" stroke="transparent" points="39,-559.7 39,-578.7 87,-578.7 87,-559.7 39,-559.7"/>
<polygon fill="none" stroke="#000000" points="39,-559.7 39,-578.7 87,-578.7 87,-559.7 39,-559.7"/>
<text text-anchor="start" x="51.6105" y="-565.8" font-family="Helvetica,sans-Serif" font-size="11.00" fill="#000000">0 rows</text>
<polygon fill="#ffffff" stroke="transparent" points="87,-559.7 87,-578.7 124,-578.7 124,-559.7 87,-559.7"/>
<polygon fill="none" stroke="#000000" points="87,-559.7 87,-578.7 124,-578.7 124,-559.7 87,-559.7"/>
<text text-anchor="start" x="99.2904" y="-565.8" font-family="Helvetica,sans-Serif" font-size="11.00" fill="#000000">30 &gt;</text>
</a>
</g>
</g>
<!-- client&#45;&gt;federated_user -->
<g id="edge1" class="edge">
<title>client:w&#45;&gt;federated_user:e</title>
<path fill="none" stroke="#000000" stroke-dasharray="5,2" d="M158.8428,-587.7C147.4139,-587.7 140.1563,-587.7 124,-587.7"/>
<polygon fill="#000000" stroke="#000000" points="165.5,-587.7001 173.5,-591.3 169.5,-587.7 173.5,-587.7 173.5,-587.7 173.5,-587.7 169.5,-587.7 173.5,-584.1 165.5,-587.7001 165.5,-587.7001"/>
<ellipse fill="none" stroke="#000000" cx="162.3" cy="-587.7001" rx="3.2" ry="3.2"/>
</g>
<!-- realm -->
<g id="node3" class="node">
<title>realm</title>
<g id="a_node3"><a xlink:href="../../tables/realm.html" xlink:title="realm" target="_top">
<polygon fill="#ffffff" stroke="transparent" points="30.5,-158.2 30.5,-219.2 101.5,-219.2 101.5,-158.2 30.5,-158.2"/>
<polygon fill="#f5f5f5" stroke="transparent" points="31,-195.7 31,-218.7 102,-218.7 102,-195.7 31,-195.7"/>
<polygon fill="none" stroke="#000000" points="31,-195.7 31,-218.7 102,-218.7 102,-195.7 31,-195.7"/>
<text text-anchor="start" x="36" y="-204.8" font-family="Helvetica,sans-Serif" font-weight="bold" font-size="11.00" fill="#000000">realm</text>
<text text-anchor="start" x="67.5219" y="-203.8" font-family="Helvetica,sans-Serif" font-size="11.00" fill="#000000">[table]</text>
<polygon fill="none" stroke="#000000" points="31,-176.7 31,-195.7 102,-195.7 102,-176.7 31,-176.7"/>
<text text-anchor="start" x="34" y="-182.8" font-family="Helvetica,sans-Serif" font-size="11.00" fill="#000000">...</text>
<polygon fill="#ffffff" stroke="transparent" points="31,-157.7 31,-176.7 43,-176.7 43,-157.7 31,-157.7"/>
<polygon fill="none" stroke="#000000" points="31,-157.7 31,-176.7 43,-176.7 43,-157.7 31,-157.7"/>
<text text-anchor="start" x="33.9431" y="-163.8" font-family="Helvetica,sans-Serif" font-size="11.00" fill="#000000"> &#160;</text>
<polygon fill="#ffffff" stroke="transparent" points="43,-157.7 43,-176.7 75,-176.7 75,-157.7 43,-157.7"/>
<polygon fill="none" stroke="#000000" points="43,-157.7 43,-176.7 75,-176.7 75,-157.7 43,-157.7"/>
<text text-anchor="start" x="45.5553" y="-163.8" font-family="Helvetica,sans-Serif" font-size="11.00" fill="#000000">1 row</text>
<polygon fill="#ffffff" stroke="transparent" points="75,-157.7 75,-176.7 102,-176.7 102,-157.7 75,-157.7"/>
<polygon fill="none" stroke="#000000" points="75,-157.7 75,-176.7 102,-176.7 102,-157.7 75,-157.7"/>
<text text-anchor="start" x="77.6452" y="-163.8" font-family="Helvetica,sans-Serif" font-size="11.00" fill="#000000">23 &gt;</text>
</a>
</g>
</g>
<!-- client&#45;&gt;realm -->
<g id="edge2" class="edge">
<title>client:w&#45;&gt;realm:e</title>
<path fill="none" stroke="#000000" d="M159.4808,-561.4324C99.3902,-519.6844 182.5559,-185.7 102,-185.7"/>
<polygon fill="#000000" stroke="#000000" points="165.8467,-563.3702 172.4516,-569.144 169.6734,-564.5351 173.5,-565.7 173.5,-565.7 173.5,-565.7 169.6734,-564.5351 174.5484,-562.256 165.8467,-563.3702 165.8467,-563.3702"/>
<ellipse fill="none" stroke="#000000" cx="162.7854" cy="-562.4383" rx="3.2" ry="3.2"/>
</g>
<!-- client_attributes -->
<g id="node4" class="node">
<title>client_attributes</title>
<g id="a_node4"><a xlink:href="../../tables/client_attributes.html" xlink:title="client_attributes" target="_top">
<polygon fill="#ffffff" stroke="transparent" points="455,-664.2 455,-725.2 575,-725.2 575,-664.2 455,-664.2"/>
<polygon fill="#f5f5f5" stroke="transparent" points="455,-701.7 455,-724.7 575,-724.7 575,-701.7 455,-701.7"/>
<polygon fill="none" stroke="#000000" points="455,-701.7 455,-724.7 575,-724.7 575,-701.7 455,-701.7"/>
<text text-anchor="start" x="459.9918" y="-710.8" font-family="Helvetica,sans-Serif" font-weight="bold" font-size="11.00" fill="#000000">client_attributes</text>
<text text-anchor="start" x="540.5219" y="-709.8" font-family="Helvetica,sans-Serif" font-size="11.00" fill="#000000">[table]</text>
<polygon fill="none" stroke="#000000" points="455,-682.7 455,-701.7 575,-701.7 575,-682.7 455,-682.7"/>
<text text-anchor="start" x="458" y="-688.8" font-family="Helvetica,sans-Serif" font-size="11.00" fill="#000000">...</text>
<polygon fill="#ffffff" stroke="transparent" points="455,-663.7 455,-682.7 500,-682.7 500,-663.7 455,-663.7"/>
<polygon fill="none" stroke="#000000" points="455,-663.7 455,-682.7 500,-682.7 500,-663.7 455,-663.7"/>
<text text-anchor="start" x="458" y="-669.8" font-family="Helvetica,sans-Serif" font-size="11.00" fill="#000000">&lt; 1</text>
<polygon fill="#ffffff" stroke="transparent" points="500,-663.7 500,-682.7 550,-682.7 550,-663.7 500,-663.7"/>
<polygon fill="none" stroke="#000000" points="500,-663.7 500,-682.7 550,-682.7 550,-663.7 500,-663.7"/>
<text text-anchor="start" x="514.6105" y="-669.8" font-family="Helvetica,sans-Serif" font-size="11.00" fill="#000000">2 rows</text>
<polygon fill="#ffffff" stroke="transparent" points="550,-663.7 550,-682.7 575,-682.7 575,-663.7 550,-663.7"/>
<polygon fill="none" stroke="#000000" points="550,-663.7 550,-682.7 575,-682.7 575,-663.7 550,-663.7"/>
<text text-anchor="start" x="565.8862" y="-669.8" font-family="Helvetica,sans-Serif" font-size="11.00" fill="#000000"> &#160;</text>
</a>
</g>
</g>
<!-- client_attributes&#45;&gt;client -->
<g id="edge3" class="edge">
<title>client_attributes:w&#45;&gt;client:e</title>
<path fill="none" stroke="#000000" d="M440.4965,-688.9049C427.3994,-682.8251 423.8859,-667.8093 409,-653.7 389.7097,-635.4161 395.0786,-609.7 368.5,-609.7"/>
<polygon fill="#000000" stroke="#000000" points="447.1445,-690.186 454.3187,-695.235 451.0723,-690.943 455,-691.7 455,-691.7 455,-691.7 451.0723,-690.943 455.6813,-688.165 447.1445,-690.186 447.1445,-690.186"/>
<ellipse fill="none" stroke="#000000" cx="444.0024" cy="-689.5805" rx="3.2" ry="3.2"/>
</g>
<!-- client_default_roles -->
<g id="node5" class="node">
<title>client_default_roles</title>
<g id="a_node5"><a xlink:href="../../tables/client_default_roles.html" xlink:title="client_default_roles" target="_top">
<polygon fill="#ffffff" stroke="transparent" points="446.5,-582.2 446.5,-643.2 583.5,-643.2 583.5,-582.2 446.5,-582.2"/>
<polygon fill="#f5f5f5" stroke="transparent" points="447,-619.7 447,-642.7 584,-642.7 584,-619.7 447,-619.7"/>
<polygon fill="none" stroke="#000000" points="447,-619.7 447,-642.7 584,-642.7 584,-619.7 447,-619.7"/>
<text text-anchor="start" x="451.6274" y="-628.8" font-family="Helvetica,sans-Serif" font-weight="bold" font-size="11.00" fill="#000000">client_default_roles</text>
<text text-anchor="start" x="549.5219" y="-627.8" font-family="Helvetica,sans-Serif" font-size="11.00" fill="#000000">[table]</text>
<polygon fill="none" stroke="#000000" points="447,-600.7 447,-619.7 584,-619.7 584,-600.7 447,-600.7"/>
<text text-anchor="start" x="450" y="-606.8" font-family="Helvetica,sans-Serif" font-size="11.00" fill="#000000">...</text>
<polygon fill="#ffffff" stroke="transparent" points="447,-581.7 447,-600.7 501,-600.7 501,-581.7 447,-581.7"/>
<polygon fill="none" stroke="#000000" points="447,-581.7 447,-600.7 501,-600.7 501,-581.7 447,-581.7"/>
<text text-anchor="start" x="450" y="-587.8" font-family="Helvetica,sans-Serif" font-size="11.00" fill="#000000">&lt; 1</text>
<polygon fill="#ffffff" stroke="transparent" points="501,-581.7 501,-600.7 555,-600.7 555,-581.7 501,-581.7"/>
<polygon fill="none" stroke="#000000" points="501,-581.7 501,-600.7 555,-600.7 555,-581.7 501,-581.7"/>
<text text-anchor="start" x="519.6105" y="-587.8" font-family="Helvetica,sans-Serif" font-size="11.00" fill="#000000">2 rows</text>
<polygon fill="#ffffff" stroke="transparent" points="555,-581.7 555,-600.7 584,-600.7 584,-581.7 555,-581.7"/>
<polygon fill="none" stroke="#000000" points="555,-581.7 555,-600.7 584,-600.7 584,-581.7 555,-581.7"/>
<text text-anchor="start" x="574.8862" y="-587.8" font-family="Helvetica,sans-Serif" font-size="11.00" fill="#000000"> &#160;</text>
</a>
</g>
</g>
<!-- client_default_roles&#45;&gt;client -->
<g id="edge4" class="edge">
<title>client_default_roles:w&#45;&gt;client:e</title>
<path fill="none" stroke="#000000" d="M432.3627,-609.7C408.7466,-609.7 397.9375,-609.7 368.5,-609.7"/>
<polygon fill="#000000" stroke="#000000" points="439,-609.7001 447,-613.3 443,-609.7 447,-609.7 447,-609.7 447,-609.7 443,-609.7 447,-606.1 439,-609.7001 439,-609.7001"/>
<ellipse fill="none" stroke="#000000" cx="435.8" cy="-609.7001" rx="3.2" ry="3.2"/>
</g>
<!-- client_node_registrations -->
<g id="node6" class="node">
<title>client_node_registrations</title>
<g id="a_node6"><a xlink:href="../../tables/client_node_registrations.html" xlink:title="client_node_registrations" target="_top">
<polygon fill="#ffffff" stroke="transparent" points="432.5,-500.2 432.5,-561.2 597.5,-561.2 597.5,-500.2 432.5,-500.2"/>
<polygon fill="#f5f5f5" stroke="transparent" points="433,-537.7 433,-560.7 598,-560.7 598,-537.7 433,-537.7"/>
<polygon fill="none" stroke="#000000" points="433,-537.7 433,-560.7 598,-560.7 598,-537.7 433,-537.7"/>
<text text-anchor="start" x="437.8741" y="-546.8" font-family="Helvetica,sans-Serif" font-weight="bold" font-size="11.00" fill="#000000">client_node_registrations</text>
<text text-anchor="start" x="563.5219" y="-545.8" font-family="Helvetica,sans-Serif" font-size="11.00" fill="#000000">[table]</text>
<polygon fill="none" stroke="#000000" points="433,-518.7 433,-537.7 598,-537.7 598,-518.7 433,-518.7"/>
<text text-anchor="start" x="436" y="-524.8" font-family="Helvetica,sans-Serif" font-size="11.00" fill="#000000">...</text>
<polygon fill="#ffffff" stroke="transparent" points="433,-499.7 433,-518.7 501,-518.7 501,-499.7 433,-499.7"/>
<polygon fill="none" stroke="#000000" points="433,-499.7 433,-518.7 501,-518.7 501,-499.7 433,-499.7"/>
<text text-anchor="start" x="436" y="-505.8" font-family="Helvetica,sans-Serif" font-size="11.00" fill="#000000">&lt; 1</text>
<polygon fill="#ffffff" stroke="transparent" points="501,-499.7 501,-518.7 562,-518.7 562,-499.7 501,-499.7"/>
<polygon fill="none" stroke="#000000" points="501,-499.7 501,-518.7 562,-518.7 562,-499.7 501,-499.7"/>
<text text-anchor="start" x="526.6105" y="-505.8" font-family="Helvetica,sans-Serif" font-size="11.00" fill="#000000">0 rows</text>
<polygon fill="#ffffff" stroke="transparent" points="562,-499.7 562,-518.7 598,-518.7 598,-499.7 562,-499.7"/>
<polygon fill="none" stroke="#000000" points="562,-499.7 562,-518.7 598,-518.7 598,-499.7 562,-499.7"/>
<text text-anchor="start" x="588.8862" y="-505.8" font-family="Helvetica,sans-Serif" font-size="11.00" fill="#000000"> &#160;</text>
</a>
</g>
</g>
<!-- client_node_registrations&#45;&gt;client -->
<g id="edge5" class="edge">
<title>client_node_registrations:w&#45;&gt;client:e</title>
<path fill="none" stroke="#000000" d="M418.8177,-531.2234C392.5254,-546.9188 409.0718,-609.7 368.5,-609.7"/>
<polygon fill="#000000" stroke="#000000" points="425.236,-529.6289 433.868,-531.1938 429.118,-528.6645 433,-527.7 433,-527.7 433,-527.7 429.118,-528.6645 432.132,-524.2062 425.236,-529.6289 425.236,-529.6289"/>
<ellipse fill="none" stroke="#000000" cx="422.1304" cy="-530.4005" rx="3.2" ry="3.2"/>
</g>
<!-- client_scope -->
<g id="node7" class="node">
<title>client_scope</title>
<g id="a_node7"><a xlink:href="../../tables/client_scope.html" xlink:title="client_scope" target="_top">
<polygon fill="#ffffff" stroke="transparent" points="218.5,-137.2 218.5,-264.2 322.5,-264.2 322.5,-137.2 218.5,-137.2"/>
<polygon fill="#f5f5f5" stroke="transparent" points="218.5,-240.7 218.5,-263.7 322.5,-263.7 322.5,-240.7 218.5,-240.7"/>
<polygon fill="none" stroke="#000000" points="218.5,-240.7 218.5,-263.7 322.5,-263.7 322.5,-240.7 218.5,-240.7"/>
<text text-anchor="start" x="223.436" y="-249.8" font-family="Helvetica,sans-Serif" font-weight="bold" font-size="11.00" fill="#000000">client_scope</text>
<text text-anchor="start" x="288.0219" y="-248.8" font-family="Helvetica,sans-Serif" font-size="11.00" fill="#000000">[table]</text>
<polygon fill="none" stroke="#000000" points="218.5,-218.7 218.5,-240.7 322.5,-240.7 322.5,-218.7 218.5,-218.7"/>
<image xlink:href="../../images/primaryKeys.png" width="11px" height="12px" preserveAspectRatio="xMinYMin meet" x="223.5" y="-235.7"/>
<text text-anchor="start" x="244.5" y="-225.8" font-family="Helvetica,sans-Serif" font-size="11.00" fill="#000000">id</text>
<polygon fill="#ffffff" stroke="transparent" points="218.5,-196.7 218.5,-218.7 322.5,-218.7 322.5,-196.7 218.5,-196.7"/>
<polygon fill="none" stroke="#000000" points="218.5,-196.7 218.5,-218.7 322.5,-218.7 322.5,-196.7 218.5,-196.7"/>
<text text-anchor="start" x="244.5" y="-203.8" font-family="Helvetica,sans-Serif" font-size="11.00" fill="#000000">name</text>
<polygon fill="#ffffff" stroke="transparent" points="218.5,-174.7 218.5,-196.7 322.5,-196.7 322.5,-174.7 218.5,-174.7"/>
<polygon fill="none" stroke="#000000" points="218.5,-174.7 218.5,-196.7 322.5,-196.7 322.5,-174.7 218.5,-174.7"/>
<image xlink:href="../../images/foreignKeys.png" width="11px" height="12px" preserveAspectRatio="xMinYMin meet" x="223.5" y="-191.7"/>
<text text-anchor="start" x="244.5" y="-181.8" font-family="Helvetica,sans-Serif" font-size="11.00" fill="#000000">realm_id</text>
<polygon fill="none" stroke="#000000" points="218.5,-155.7 218.5,-174.7 322.5,-174.7 322.5,-155.7 218.5,-155.7"/>
<text text-anchor="start" x="221.5" y="-161.8" font-family="Helvetica,sans-Serif" font-size="11.00" fill="#000000">...</text>
<polygon fill="#ffffff" stroke="transparent" points="218.5,-136.7 218.5,-155.7 251.5,-155.7 251.5,-136.7 218.5,-136.7"/>
<polygon fill="none" stroke="#000000" points="218.5,-136.7 218.5,-155.7 251.5,-155.7 251.5,-136.7 218.5,-136.7"/>
<text text-anchor="start" x="221.5" y="-142.8" font-family="Helvetica,sans-Serif" font-size="11.00" fill="#000000">&lt; 1</text>
<polygon fill="#ffffff" stroke="transparent" points="251.5,-136.7 251.5,-155.7 295.5,-155.7 295.5,-136.7 251.5,-136.7"/>
<polygon fill="none" stroke="#000000" points="251.5,-136.7 251.5,-155.7 295.5,-155.7 295.5,-136.7 251.5,-136.7"/>
<text text-anchor="start" x="260.1105" y="-142.8" font-family="Helvetica,sans-Serif" font-size="11.00" fill="#000000">9 rows</text>
<polygon fill="#ffffff" stroke="transparent" points="295.5,-136.7 295.5,-155.7 322.5,-155.7 322.5,-136.7 295.5,-136.7"/>
<polygon fill="none" stroke="#000000" points="295.5,-136.7 295.5,-155.7 322.5,-155.7 322.5,-136.7 295.5,-136.7"/>
<text text-anchor="start" x="303.9053" y="-142.8" font-family="Helvetica,sans-Serif" font-size="11.00" fill="#000000">5 &gt;</text>
</a>
</g>
</g>
<!-- client_scope&#45;&gt;realm -->
<g id="edge6" class="edge">
<title>client_scope:w&#45;&gt;realm:e</title>
<path fill="none" stroke="#000000" d="M203.8443,-185.7C163.6923,-185.7 148.5191,-185.7 102,-185.7"/>
<polygon fill="#000000" stroke="#000000" points="210.5,-185.7001 218.5,-189.3 214.5,-185.7 218.5,-185.7 218.5,-185.7 218.5,-185.7 214.5,-185.7 218.5,-182.1 210.5,-185.7001 210.5,-185.7001"/>
<ellipse fill="none" stroke="#000000" cx="207.3" cy="-185.7001" rx="3.2" ry="3.2"/>
</g>
<!-- client_scope_attributes -->
<g id="node8" class="node">
<title>client_scope_attributes</title>
<g id="a_node8"><a xlink:href="../../tables/client_scope_attributes.html" xlink:title="client_scope_attributes" target="_top">
<polygon fill="#ffffff" stroke="transparent" points="437.5,-202.2 437.5,-263.2 592.5,-263.2 592.5,-202.2 437.5,-202.2"/>
<polygon fill="#f5f5f5" stroke="transparent" points="438,-239.7 438,-262.7 593,-262.7 593,-239.7 438,-239.7"/>
<polygon fill="none" stroke="#000000" points="438,-239.7 438,-262.7 593,-262.7 593,-239.7 438,-239.7"/>
<text text-anchor="start" x="442.762" y="-248.8" font-family="Helvetica,sans-Serif" font-weight="bold" font-size="11.00" fill="#000000">client_scope_attributes</text>
<text text-anchor="start" x="558.5219" y="-247.8" font-family="Helvetica,sans-Serif" font-size="11.00" fill="#000000">[table]</text>
<polygon fill="none" stroke="#000000" points="438,-220.7 438,-239.7 593,-239.7 593,-220.7 438,-220.7"/>
<text text-anchor="start" x="441" y="-226.8" font-family="Helvetica,sans-Serif" font-size="11.00" fill="#000000">...</text>
<polygon fill="#ffffff" stroke="transparent" points="438,-201.7 438,-220.7 498,-220.7 498,-201.7 438,-201.7"/>
<polygon fill="none" stroke="#000000" points="438,-201.7 438,-220.7 498,-220.7 498,-201.7 438,-201.7"/>
<text text-anchor="start" x="441" y="-207.8" font-family="Helvetica,sans-Serif" font-size="11.00" fill="#000000">&lt; 1</text>
<polygon fill="#ffffff" stroke="transparent" points="498,-201.7 498,-220.7 561,-220.7 561,-201.7 498,-201.7"/>
<polygon fill="none" stroke="#000000" points="498,-201.7 498,-220.7 561,-220.7 561,-201.7 498,-201.7"/>
<text text-anchor="start" x="519.4956" y="-207.8" font-family="Helvetica,sans-Serif" font-size="11.00" fill="#000000">24 rows</text>
<polygon fill="#ffffff" stroke="transparent" points="561,-201.7 561,-220.7 593,-220.7 593,-201.7 561,-201.7"/>
<polygon fill="none" stroke="#000000" points="561,-201.7 561,-220.7 593,-220.7 593,-201.7 561,-201.7"/>
<text text-anchor="start" x="583.8862" y="-207.8" font-family="Helvetica,sans-Serif" font-size="11.00" fill="#000000"> &#160;</text>
</a>
</g>
</g>
<!-- client_scope_attributes&#45;&gt;client_scope -->
<g id="edge7" class="edge">
<title>client_scope_attributes:w&#45;&gt;client_scope:e</title>
<path fill="none" stroke="#000000" d="M423.4701,-229.7C383.6628,-229.7 368.6198,-229.7 322.5,-229.7"/>
<polygon fill="#000000" stroke="#000000" points="430,-229.7001 438,-233.3 434,-229.7 438,-229.7 438,-229.7 438,-229.7 434,-229.7 438,-226.1 430,-229.7001 430,-229.7001"/>
<ellipse fill="none" stroke="#000000" cx="426.8" cy="-229.7001" rx="3.2" ry="3.2"/>
</g>
<!-- client_scope_client -->
<g id="node9" class="node">
<title>client_scope_client</title>
<g id="a_node9"><a xlink:href="../../tables/client_scope_client.html" xlink:title="client_scope_client" target="_top">
<polygon fill="#ffffff" stroke="transparent" points="417,-284.7 417,-396.7 613,-396.7 613,-284.7 417,-284.7"/>
<polygon fill="#f5f5f5" stroke="transparent" points="419,-371.7 419,-394.7 611,-394.7 611,-371.7 419,-371.7"/>
<polygon fill="none" stroke="#000000" points="419,-371.7 419,-394.7 611,-394.7 611,-371.7 419,-371.7"/>
<text text-anchor="start" x="424" y="-380.8" font-family="Helvetica,sans-Serif" font-weight="bold" font-size="11.00" fill="#000000">client_scope_client</text>
<text text-anchor="start" x="576.0437" y="-379.8" font-family="Helvetica,sans-Serif" font-size="11.00" fill="#000000">[table]</text>
<polygon fill="none" stroke="#000000" points="419,-349.7 419,-371.7 550,-371.7 550,-349.7 419,-349.7"/>
<image xlink:href="../../images/primaryKeys.png" width="11px" height="12px" preserveAspectRatio="xMinYMin meet" x="424" y="-366.7"/>
<text text-anchor="start" x="439" y="-356.8" font-family="Helvetica,sans-Serif" font-size="11.00" fill="#000000">client_id</text>
<polygon fill="none" stroke="#000000" points="550,-349.7 550,-371.7 611,-371.7 611,-349.7 550,-349.7"/>
<text text-anchor="start" x="552.994" y="-357.4" font-family="Helvetica,sans-Serif" font-size="11.00" fill="#000000">varchar[36]</text>
<polygon fill="none" stroke="#000000" points="419,-327.7 419,-349.7 550,-349.7 550,-327.7 419,-327.7"/>
<image xlink:href="../../images/primaryKeys.png" width="11px" height="12px" preserveAspectRatio="xMinYMin meet" x="424" y="-344.7"/>
<text text-anchor="start" x="439" y="-334.8" font-family="Helvetica,sans-Serif" font-size="11.00" fill="#000000">scope_id</text>
<polygon fill="none" stroke="#000000" points="550,-327.7 550,-349.7 611,-349.7 611,-327.7 550,-327.7"/>
<text text-anchor="start" x="552.994" y="-335.4" font-family="Helvetica,sans-Serif" font-size="11.00" fill="#000000">varchar[36]</text>
<polygon fill="none" stroke="#000000" points="419,-305.7 419,-327.7 550,-327.7 550,-305.7 419,-305.7"/>
<text text-anchor="start" x="439" y="-312.8" font-family="Helvetica,sans-Serif" font-size="11.00" fill="#000000">default_scope</text>
<polygon fill="none" stroke="#000000" points="550,-305.7 550,-327.7 611,-327.7 611,-305.7 550,-305.7"/>
<text text-anchor="start" x="553" y="-313.4" font-family="Helvetica,sans-Serif" font-size="11.00" fill="#000000">bool[1]</text>
<polygon fill="#ffffff" stroke="transparent" points="419,-286.7 419,-305.7 473,-305.7 473,-286.7 419,-286.7"/>
<polygon fill="none" stroke="#000000" points="419,-286.7 419,-305.7 473,-305.7 473,-286.7 419,-286.7"/>
<text text-anchor="start" x="422" y="-292.8" font-family="Helvetica,sans-Serif" font-size="11.00" fill="#000000">&lt; 2</text>
<polygon fill="#ffffff" stroke="transparent" points="473,-286.7 473,-305.7 550,-305.7 550,-286.7 473,-286.7"/>
<polygon fill="none" stroke="#000000" points="473,-286.7 473,-305.7 550,-305.7 550,-286.7 473,-286.7"/>
<text text-anchor="start" x="508.4956" y="-292.8" font-family="Helvetica,sans-Serif" font-size="11.00" fill="#000000">54 rows</text>
<polygon fill="#ffffff" stroke="transparent" points="550,-286.7 550,-305.7 611,-305.7 611,-286.7 550,-286.7"/>
<polygon fill="none" stroke="#000000" points="550,-286.7 550,-305.7 611,-305.7 611,-286.7 550,-286.7"/>
<text text-anchor="start" x="592.4053" y="-292.8" font-family="Helvetica,sans-Serif" font-size="11.00" fill="#000000">0 &gt;</text>
<polygon fill="none" stroke="#000000" stroke-width="2" points="418,-285.7 418,-395.7 612,-395.7 612,-285.7 418,-285.7"/>
</a>
</g>
</g>
<!-- client_scope_client&#45;&gt;client -->
<g id="edge8" class="edge">
<title>client_scope_client:w&#45;&gt;client:e</title>
<path fill="none" stroke="#000000" d="M404.4537,-362.423C322.516,-384.4227 475.9061,-609.7 368.5,-609.7"/>
<polygon fill="#000000" stroke="#000000" points="411.0555,-361.6411 419.4235,-364.275 415.0278,-361.1705 419,-360.7 419,-360.7 419,-360.7 415.0278,-361.1705 418.5765,-357.125 411.0555,-361.6411 411.0555,-361.6411"/>
<ellipse fill="none" stroke="#000000" cx="407.8778" cy="-362.0175" rx="3.2" ry="3.2"/>
</g>
<!-- client_scope_client&#45;&gt;client_scope -->
<g id="edge9" class="edge">
<title>client_scope_client:w&#45;&gt;client_scope:e</title>
<path fill="none" stroke="#000000" d="M404.6479,-336.5227C359.1365,-321.1602 381.7678,-229.7 322.5,-229.7"/>
<polygon fill="#000000" stroke="#000000" points="411.0905,-337.5 418.46,-342.2593 415.0453,-338.1 419,-338.7 419,-338.7 419,-338.7 415.0453,-338.1 419.54,-335.1407 411.0905,-337.5 411.0905,-337.5"/>
<ellipse fill="none" stroke="#000000" cx="407.9267" cy="-337.02" rx="3.2" ry="3.2"/>
</g>
<!-- client_scope_role_mapping -->
<g id="node10" class="node">
<title>client_scope_role_mapping</title>
<g id="a_node10"><a xlink:href="../../tables/client_scope_role_mapping.html" xlink:title="client_scope_role_mapping" target="_top">
<polygon fill="#ffffff" stroke="transparent" points="427,-120.2 427,-181.2 603,-181.2 603,-120.2 427,-120.2"/>
<polygon fill="#f5f5f5" stroke="transparent" points="427,-157.7 427,-180.7 603,-180.7 603,-157.7 427,-157.7"/>
<polygon fill="none" stroke="#000000" points="427,-157.7 427,-180.7 603,-180.7 603,-157.7 427,-157.7"/>
<text text-anchor="start" x="431.5661" y="-166.8" font-family="Helvetica,sans-Serif" font-weight="bold" font-size="11.00" fill="#000000">client_scope_role_mapping</text>
<text text-anchor="start" x="568.5219" y="-165.8" font-family="Helvetica,sans-Serif" font-size="11.00" fill="#000000">[table]</text>
<polygon fill="none" stroke="#000000" points="427,-138.7 427,-157.7 603,-157.7 603,-138.7 427,-138.7"/>
<text text-anchor="start" x="430" y="-144.8" font-family="Helvetica,sans-Serif" font-size="11.00" fill="#000000">...</text>
<polygon fill="#ffffff" stroke="transparent" points="427,-119.7 427,-138.7 503,-138.7 503,-119.7 427,-119.7"/>
<polygon fill="none" stroke="#000000" points="427,-119.7 427,-138.7 503,-138.7 503,-119.7 427,-119.7"/>
<text text-anchor="start" x="430" y="-125.8" font-family="Helvetica,sans-Serif" font-size="11.00" fill="#000000">&lt; 1</text>
<polygon fill="#ffffff" stroke="transparent" points="503,-119.7 503,-138.7 563,-138.7 563,-119.7 503,-119.7"/>
<polygon fill="none" stroke="#000000" points="503,-119.7 503,-138.7 563,-138.7 563,-119.7 503,-119.7"/>
<text text-anchor="start" x="533.1105" y="-125.8" font-family="Helvetica,sans-Serif" font-size="11.00" fill="#000000">1 row</text>
<polygon fill="#ffffff" stroke="transparent" points="563,-119.7 563,-138.7 603,-138.7 603,-119.7 563,-119.7"/>
<polygon fill="none" stroke="#000000" points="563,-119.7 563,-138.7 603,-138.7 603,-119.7 563,-119.7"/>
<text text-anchor="start" x="593.8862" y="-125.8" font-family="Helvetica,sans-Serif" font-size="11.00" fill="#000000"> &#160;</text>
</a>
</g>
</g>
<!-- client_scope_role_mapping&#45;&gt;client_scope -->
<g id="edge10" class="edge">
<title>client_scope_role_mapping:w&#45;&gt;client_scope:e</title>
<path fill="none" stroke="#000000" d="M412.4652,-149.6461C369.8437,-162.0637 376.1169,-229.7 322.5,-229.7"/>
<polygon fill="#000000" stroke="#000000" points="419.0708,-148.7617 427.4778,-151.2682 423.0354,-148.2309 427,-147.7 427,-147.7 427,-147.7 423.0354,-148.2309 426.5222,-144.1318 419.0708,-148.7617 419.0708,-148.7617"/>
<ellipse fill="none" stroke="#000000" cx="415.8991" cy="-149.1864" rx="3.2" ry="3.2"/>
</g>
<!-- default_client_scope -->
<g id="node11" class="node">
<title>default_client_scope</title>
<g id="a_node11"><a xlink:href="../../tables/default_client_scope.html" xlink:title="default_client_scope" target="_top">
<polygon fill="#ffffff" stroke="transparent" points="443.5,-38.2 443.5,-99.2 586.5,-99.2 586.5,-38.2 443.5,-38.2"/>
<polygon fill="#f5f5f5" stroke="transparent" points="444,-75.7 444,-98.7 587,-98.7 587,-75.7 444,-75.7"/>
<polygon fill="none" stroke="#000000" points="444,-75.7 444,-98.7 587,-98.7 587,-75.7 444,-75.7"/>
<text text-anchor="start" x="448.8714" y="-84.8" font-family="Helvetica,sans-Serif" font-weight="bold" font-size="11.00" fill="#000000">default_client_scope</text>
<text text-anchor="start" x="552.5219" y="-83.8" font-family="Helvetica,sans-Serif" font-size="11.00" fill="#000000">[table]</text>
<polygon fill="none" stroke="#000000" points="444,-56.7 444,-75.7 587,-75.7 587,-56.7 444,-56.7"/>
<text text-anchor="start" x="447" y="-62.8" font-family="Helvetica,sans-Serif" font-size="11.00" fill="#000000">...</text>
<polygon fill="#ffffff" stroke="transparent" points="444,-37.7 444,-56.7 501,-56.7 501,-37.7 444,-37.7"/>
<polygon fill="none" stroke="#000000" points="444,-37.7 444,-56.7 501,-56.7 501,-37.7 444,-37.7"/>
<text text-anchor="start" x="447" y="-43.8" font-family="Helvetica,sans-Serif" font-size="11.00" fill="#000000">&lt; 2</text>
<polygon fill="#ffffff" stroke="transparent" points="501,-37.7 501,-56.7 557,-56.7 557,-37.7 501,-37.7"/>
<polygon fill="none" stroke="#000000" points="501,-37.7 501,-56.7 557,-56.7 557,-37.7 501,-37.7"/>
<text text-anchor="start" x="521.6105" y="-43.8" font-family="Helvetica,sans-Serif" font-size="11.00" fill="#000000">9 rows</text>
<polygon fill="#ffffff" stroke="transparent" points="557,-37.7 557,-56.7 587,-56.7 587,-37.7 557,-37.7"/>
<polygon fill="none" stroke="#000000" points="557,-37.7 557,-56.7 587,-56.7 587,-37.7 557,-37.7"/>
<text text-anchor="start" x="577.8862" y="-43.8" font-family="Helvetica,sans-Serif" font-size="11.00" fill="#000000"> &#160;</text>
</a>
</g>
</g>
<!-- default_client_scope&#45;&gt;realm -->
<g id="edge11" class="edge">
<title>default_client_scope:w&#45;&gt;realm:e</title>
<path fill="none" stroke="#000000" d="M429.5152,-65.7122C313.8571,-65.939 272.9651,-69.9508 165,-126.7 131.0435,-144.5484 140.3615,-185.7 102,-185.7"/>
<polygon fill="#000000" stroke="#000000" points="436,-65.7068 444.0031,-69.3 440,-65.7034 444,-65.7 444,-65.7 444,-65.7 440,-65.7034 443.9969,-62.1 436,-65.7068 436,-65.7068"/>
<ellipse fill="none" stroke="#000000" cx="432.8" cy="-65.7095" rx="3.2" ry="3.2"/>
</g>
<!-- default_client_scope&#45;&gt;client_scope -->
<g id="edge12" class="edge">
<title>default_client_scope:w&#45;&gt;client_scope:e</title>
<path fill="none" stroke="#000000" d="M429.5453,-67.3232C359.7926,-84.3557 407.8975,-229.7 322.5,-229.7"/>
<polygon fill="#000000" stroke="#000000" points="436.05,-66.5928 444.4018,-69.2775 440.025,-66.1464 444,-65.7 444,-65.7 444,-65.7 440.025,-66.1464 443.5982,-62.1225 436.05,-66.5928 436.05,-66.5928"/>
<ellipse fill="none" stroke="#000000" cx="432.87" cy="-66.9499" rx="3.2" ry="3.2"/>
</g>
<!-- protocol_mapper -->
<g id="node12" class="node">
<title>protocol_mapper</title>
<g id="a_node12"><a xlink:href="../../tables/protocol_mapper.html" xlink:title="protocol_mapper" target="_top">
<polygon fill="#ffffff" stroke="transparent" points="452.5,-418.2 452.5,-479.2 577.5,-479.2 577.5,-418.2 452.5,-418.2"/>
<polygon fill="#f5f5f5" stroke="transparent" points="453,-455.7 453,-478.7 578,-478.7 578,-455.7 453,-455.7"/>
<polygon fill="none" stroke="#000000" points="453,-455.7 453,-478.7 578,-478.7 578,-455.7 453,-455.7"/>
<text text-anchor="start" x="457.7412" y="-464.8" font-family="Helvetica,sans-Serif" font-weight="bold" font-size="11.00" fill="#000000">protocol_mapper</text>
<text text-anchor="start" x="543.5219" y="-463.8" font-family="Helvetica,sans-Serif" font-size="11.00" fill="#000000">[table]</text>
<polygon fill="none" stroke="#000000" points="453,-436.7 453,-455.7 578,-455.7 578,-436.7 453,-436.7"/>
<text text-anchor="start" x="456" y="-442.8" font-family="Helvetica,sans-Serif" font-size="11.00" fill="#000000">...</text>
<polygon fill="#ffffff" stroke="transparent" points="453,-417.7 453,-436.7 493,-436.7 493,-417.7 453,-417.7"/>
<polygon fill="none" stroke="#000000" points="453,-417.7 453,-436.7 493,-436.7 493,-417.7 453,-417.7"/>
<text text-anchor="start" x="456" y="-423.8" font-family="Helvetica,sans-Serif" font-size="11.00" fill="#000000">&lt; 2</text>
<polygon fill="#ffffff" stroke="transparent" points="493,-417.7 493,-436.7 547,-436.7 547,-417.7 493,-417.7"/>
<polygon fill="none" stroke="#000000" points="493,-417.7 493,-436.7 547,-436.7 547,-417.7 493,-417.7"/>
<text text-anchor="start" x="505.4956" y="-423.8" font-family="Helvetica,sans-Serif" font-size="11.00" fill="#000000">28 rows</text>
<polygon fill="#ffffff" stroke="transparent" points="547,-417.7 547,-436.7 578,-436.7 578,-417.7 547,-417.7"/>
<polygon fill="none" stroke="#000000" points="547,-417.7 547,-436.7 578,-436.7 578,-417.7 547,-417.7"/>
<text text-anchor="start" x="559.4053" y="-423.8" font-family="Helvetica,sans-Serif" font-size="11.00" fill="#000000">1 &gt;</text>
</a>
</g>
</g>
<!-- protocol_mapper&#45;&gt;client -->
<g id="edge13" class="edge">
<title>protocol_mapper:w&#45;&gt;client:e</title>
<path fill="none" stroke="#000000" d="M438.5923,-448.2724C424.0309,-454.4826 420.5073,-471.1585 409,-489.7 379.3175,-537.5267 424.7889,-609.7 368.5,-609.7"/>
<polygon fill="#000000" stroke="#000000" points="445.1245,-447.1061 453.6328,-449.244 449.0623,-446.4031 453,-445.7 453,-445.7 453,-445.7 449.0623,-446.4031 452.3672,-442.156 445.1245,-447.1061 445.1245,-447.1061"/>
<ellipse fill="none" stroke="#000000" cx="441.9744" cy="-447.6686" rx="3.2" ry="3.2"/>
</g>
<!-- protocol_mapper&#45;&gt;client_scope -->
<g id="edge14" class="edge">
<title>protocol_mapper:w&#45;&gt;client_scope:e</title>
<path fill="none" stroke="#000000" d="M438.5428,-444.3207C349.1825,-425.9246 429.4031,-229.7 322.5,-229.7"/>
<polygon fill="#000000" stroke="#000000" points="445.0362,-444.9401 452.6581,-449.2837 449.0181,-445.3201 453,-445.7 453,-445.7 453,-445.7 449.0181,-445.3201 453.3419,-442.1163 445.0362,-444.9401 445.0362,-444.9401"/>
<ellipse fill="none" stroke="#000000" cx="441.8506" cy="-444.6362" rx="3.2" ry="3.2"/>
</g>
<!-- redirect_uris -->
<g id="node13" class="node">
<title>redirect_uris</title>
<g id="a_node13"><a xlink:href="../../tables/redirect_uris.html" xlink:title="redirect_uris" target="_top">
<polygon fill="#ffffff" stroke="transparent" points="463.5,-910.2 463.5,-971.2 566.5,-971.2 566.5,-910.2 463.5,-910.2"/>
<polygon fill="#f5f5f5" stroke="transparent" points="464,-947.7 464,-970.7 567,-970.7 567,-947.7 464,-947.7"/>
<polygon fill="none" stroke="#000000" points="464,-947.7 464,-970.7 567,-970.7 567,-947.7 464,-947.7"/>
<text text-anchor="start" x="468.7506" y="-956.8" font-family="Helvetica,sans-Serif" font-weight="bold" font-size="11.00" fill="#000000">redirect_uris</text>
<text text-anchor="start" x="532.5219" y="-955.8" font-family="Helvetica,sans-Serif" font-size="11.00" fill="#000000">[table]</text>
<polygon fill="none" stroke="#000000" points="464,-928.7 464,-947.7 567,-947.7 567,-928.7 464,-928.7"/>
<text text-anchor="start" x="467" y="-934.8" font-family="Helvetica,sans-Serif" font-size="11.00" fill="#000000">...</text>
<polygon fill="#ffffff" stroke="transparent" points="464,-909.7 464,-928.7 501,-928.7 501,-909.7 464,-909.7"/>
<polygon fill="none" stroke="#000000" points="464,-909.7 464,-928.7 501,-928.7 501,-909.7 464,-909.7"/>
<text text-anchor="start" x="467" y="-915.8" font-family="Helvetica,sans-Serif" font-size="11.00" fill="#000000">&lt; 1</text>
<polygon fill="#ffffff" stroke="transparent" points="501,-909.7 501,-928.7 547,-928.7 547,-909.7 501,-909.7"/>
<polygon fill="none" stroke="#000000" points="501,-909.7 501,-928.7 547,-928.7 547,-909.7 501,-909.7"/>
<text text-anchor="start" x="511.6105" y="-915.8" font-family="Helvetica,sans-Serif" font-size="11.00" fill="#000000">3 rows</text>
<polygon fill="#ffffff" stroke="transparent" points="547,-909.7 547,-928.7 567,-928.7 567,-909.7 547,-909.7"/>
<polygon fill="none" stroke="#000000" points="547,-909.7 547,-928.7 567,-928.7 567,-909.7 547,-909.7"/>
<text text-anchor="start" x="557.8862" y="-915.8" font-family="Helvetica,sans-Serif" font-size="11.00" fill="#000000"> &#160;</text>
</a>
</g>
</g>
<!-- redirect_uris&#45;&gt;client -->
<g id="edge15" class="edge">
<title>redirect_uris:w&#45;&gt;client:e</title>
<path fill="none" stroke="#000000" d="M449.4991,-936.4157C430.5296,-932.6094 421.7298,-920.3478 409,-899.7 374.8515,-844.3108 433.5699,-609.7 368.5,-609.7"/>
<polygon fill="#000000" stroke="#000000" points="456.0312,-936.9942 463.6824,-941.286 460.0156,-937.3471 464,-937.7 464,-937.7 464,-937.7 460.0156,-937.3471 464.3176,-934.114 456.0312,-936.9942 456.0312,-936.9942"/>
<ellipse fill="none" stroke="#000000" cx="452.8437" cy="-936.7118" rx="3.2" ry="3.2"/>
</g>
<!-- scope_mapping -->
<g id="node14" class="node">
<title>scope_mapping</title>
<g id="a_node14"><a xlink:href="../../tables/scope_mapping.html" xlink:title="scope_mapping" target="_top">
<polygon fill="#ffffff" stroke="transparent" points="455,-828.2 455,-889.2 575,-889.2 575,-828.2 455,-828.2"/>
<polygon fill="#f5f5f5" stroke="transparent" points="455,-865.7 455,-888.7 575,-888.7 575,-865.7 455,-865.7"/>
<polygon fill="none" stroke="#000000" points="455,-865.7 455,-888.7 575,-888.7 575,-865.7 455,-865.7"/>
<text text-anchor="start" x="459.6816" y="-874.8" font-family="Helvetica,sans-Serif" font-weight="bold" font-size="11.00" fill="#000000">scope_mapping</text>
<text text-anchor="start" x="540.5219" y="-873.8" font-family="Helvetica,sans-Serif" font-size="11.00" fill="#000000">[table]</text>
<polygon fill="none" stroke="#000000" points="455,-846.7 455,-865.7 575,-865.7 575,-846.7 455,-846.7"/>
<text text-anchor="start" x="458" y="-852.8" font-family="Helvetica,sans-Serif" font-size="11.00" fill="#000000">...</text>
<polygon fill="#ffffff" stroke="transparent" points="455,-827.7 455,-846.7 503,-846.7 503,-827.7 455,-827.7"/>
<polygon fill="none" stroke="#000000" points="455,-827.7 455,-846.7 503,-846.7 503,-827.7 455,-827.7"/>
<text text-anchor="start" x="458" y="-833.8" font-family="Helvetica,sans-Serif" font-size="11.00" fill="#000000">&lt; 1</text>
<polygon fill="#ffffff" stroke="transparent" points="503,-827.7 503,-846.7 549,-846.7 549,-827.7 503,-827.7"/>
<polygon fill="none" stroke="#000000" points="503,-827.7 503,-846.7 549,-846.7 549,-827.7 503,-827.7"/>
<text text-anchor="start" x="519.1105" y="-833.8" font-family="Helvetica,sans-Serif" font-size="11.00" fill="#000000">1 row</text>
<polygon fill="#ffffff" stroke="transparent" points="549,-827.7 549,-846.7 575,-846.7 575,-827.7 549,-827.7"/>
<polygon fill="none" stroke="#000000" points="549,-827.7 549,-846.7 575,-846.7 575,-827.7 549,-827.7"/>
<text text-anchor="start" x="565.8862" y="-833.8" font-family="Helvetica,sans-Serif" font-size="11.00" fill="#000000"> &#160;</text>
</a>
</g>
</g>
<!-- scope_mapping&#45;&gt;client -->
<g id="edge16" class="edge">
<title>scope_mapping:w&#45;&gt;client:e</title>
<path fill="none" stroke="#000000" d="M440.7023,-853.7418C425.6405,-848.9476 419.692,-835.6865 409,-817.7 384.9377,-777.2216 415.5903,-609.7 368.5,-609.7"/>
<polygon fill="#000000" stroke="#000000" points="447.074,-854.6144 454.5115,-859.2667 451.037,-855.1572 455,-855.7 455,-855.7 455,-855.7 451.037,-855.1572 455.4885,-852.1333 447.074,-854.6144 447.074,-854.6144"/>
<ellipse fill="none" stroke="#000000" cx="443.9036" cy="-854.1802" rx="3.2" ry="3.2"/>
</g>
<!-- web_origins -->
<g id="node15" class="node">
<title>web_origins</title>
<g id="a_node15"><a xlink:href="../../tables/web_origins.html" xlink:title="web_origins" target="_top">
<polygon fill="#ffffff" stroke="transparent" points="464.5,-746.2 464.5,-807.2 565.5,-807.2 565.5,-746.2 464.5,-746.2"/>
<polygon fill="#f5f5f5" stroke="transparent" points="465,-783.7 465,-806.7 566,-806.7 566,-783.7 465,-783.7"/>
<polygon fill="none" stroke="#000000" points="465,-783.7 465,-806.7 566,-806.7 566,-783.7 465,-783.7"/>
<text text-anchor="start" x="469.663" y="-792.8" font-family="Helvetica,sans-Serif" font-weight="bold" font-size="11.00" fill="#000000">web_origins</text>
<text text-anchor="start" x="531.5219" y="-791.8" font-family="Helvetica,sans-Serif" font-size="11.00" fill="#000000">[table]</text>
<polygon fill="none" stroke="#000000" points="465,-764.7 465,-783.7 566,-783.7 566,-764.7 465,-764.7"/>
<text text-anchor="start" x="468" y="-770.8" font-family="Helvetica,sans-Serif" font-size="11.00" fill="#000000">...</text>
<polygon fill="#ffffff" stroke="transparent" points="465,-745.7 465,-764.7 504,-764.7 504,-745.7 465,-745.7"/>
<polygon fill="none" stroke="#000000" points="465,-745.7 465,-764.7 504,-764.7 504,-745.7 465,-745.7"/>
<text text-anchor="start" x="468" y="-751.8" font-family="Helvetica,sans-Serif" font-size="11.00" fill="#000000">&lt; 1</text>
<polygon fill="#ffffff" stroke="transparent" points="504,-745.7 504,-764.7 545,-764.7 545,-745.7 504,-745.7"/>
<polygon fill="none" stroke="#000000" points="504,-745.7 504,-764.7 545,-764.7 545,-745.7 504,-745.7"/>
<text text-anchor="start" x="515.1105" y="-751.8" font-family="Helvetica,sans-Serif" font-size="11.00" fill="#000000">1 row</text>
<polygon fill="#ffffff" stroke="transparent" points="545,-745.7 545,-764.7 566,-764.7 566,-745.7 545,-745.7"/>
<polygon fill="none" stroke="#000000" points="545,-745.7 545,-764.7 566,-764.7 566,-745.7 545,-745.7"/>
<text text-anchor="start" x="556.8862" y="-751.8" font-family="Helvetica,sans-Serif" font-size="11.00" fill="#000000"> &#160;</text>
</a>
</g>
</g>
<!-- web_origins&#45;&gt;client -->
<g id="edge17" class="edge">
<title>web_origins:w&#45;&gt;client:e</title>
<path fill="none" stroke="#000000" d="M450.477,-772.3153C431.6824,-768.2448 423.7197,-755.3551 409,-735.7 373.74,-688.6178 427.3218,-609.7 368.5,-609.7"/>
<polygon fill="#000000" stroke="#000000" points="457.0361,-772.9406 464.6583,-777.2837 461.0181,-773.3203 465,-773.7 465,-773.7 465,-773.7 461.0181,-773.3203 465.3417,-770.1163 457.0361,-772.9406 457.0361,-772.9406"/>
<ellipse fill="none" stroke="#000000" cx="453.8506" cy="-772.6369" rx="3.2" ry="3.2"/>
</g>
</g>
</svg>
