<?xml version="1.0" encoding="UTF-8" standalone="no"?>
<!DOCTYPE svg PUBLIC "-//W3C//DTD SVG 1.1//EN"
 "http://www.w3.org/Graphics/SVG/1.1/DTD/svg11.dtd">
<!-- Generated by graphviz version 2.40.1 (20161225.0304)
 -->
<!-- Title: twoDegreesRelationshipsDiagram Pages: 1 -->
<svg width="522pt" height="267pt"
 viewBox="0.00 0.00 522.00 266.70" xmlns="http://www.w3.org/2000/svg" xmlns:xlink="http://www.w3.org/1999/xlink">
<g id="graph0" class="graph" transform="scale(1 1) rotate(0) translate(4 262.7)">
<title>twoDegreesRelationshipsDiagram</title>
<polygon fill="#ffffff" stroke="transparent" points="-4,4 -4,-262.7 518,-262.7 518,4 -4,4"/>
<text text-anchor="middle" x="72.4936" y="-7.3" font-family="Helvetica,sans-Serif" font-size="11.00" fill="#000000">Generated by SchemaSpy</text>
<!-- composite_role -->
<g id="node1" class="node">
<title>composite_role</title>
<g id="a_node1"><a xlink:href="../../tables/composite_role.html" xlink:title="composite_role" target="_top">
<polygon fill="#ffffff" stroke="transparent" points="332,-164.7 332,-254.7 506,-254.7 506,-164.7 332,-164.7"/>
<polygon fill="#f5f5f5" stroke="transparent" points="334,-229.7 334,-252.7 504,-252.7 504,-229.7 334,-229.7"/>
<polygon fill="none" stroke="#000000" points="334,-229.7 334,-252.7 504,-252.7 504,-229.7 334,-229.7"/>
<text text-anchor="start" x="339" y="-238.8" font-family="Helvetica,sans-Serif" font-weight="bold" font-size="11.00" fill="#000000">composite_role</text>
<text text-anchor="start" x="469.0437" y="-237.8" font-family="Helvetica,sans-Serif" font-size="11.00" fill="#000000">[table]</text>
<polygon fill="none" stroke="#000000" points="334,-207.7 334,-229.7 443,-229.7 443,-207.7 334,-207.7"/>
<image xlink:href="../../images/primaryKeys.png" width="11px" height="12px" preserveAspectRatio="xMinYMin meet" x="339" y="-224.7"/>
<text text-anchor="start" x="354" y="-214.8" font-family="Helvetica,sans-Serif" font-size="11.00" fill="#000000">composite</text>
<polygon fill="none" stroke="#000000" points="443,-207.7 443,-229.7 504,-229.7 504,-207.7 443,-207.7"/>
<text text-anchor="start" x="445.994" y="-215.4" font-family="Helvetica,sans-Serif" font-size="11.00" fill="#000000">varchar[36]</text>
<polygon fill="none" stroke="#000000" points="334,-185.7 334,-207.7 443,-207.7 443,-185.7 334,-185.7"/>
<image xlink:href="../../images/primaryKeys.png" width="11px" height="12px" preserveAspectRatio="xMinYMin meet" x="339" y="-202.7"/>
<text text-anchor="start" x="354" y="-192.8" font-family="Helvetica,sans-Serif" font-size="11.00" fill="#000000">child_role</text>
<polygon fill="none" stroke="#000000" points="443,-185.7 443,-207.7 504,-207.7 504,-185.7 443,-185.7"/>
<text text-anchor="start" x="445.994" y="-193.4" font-family="Helvetica,sans-Serif" font-size="11.00" fill="#000000">varchar[36]</text>
<polygon fill="#ffffff" stroke="transparent" points="334,-166.7 334,-185.7 377,-185.7 377,-166.7 334,-166.7"/>
<polygon fill="none" stroke="#000000" points="334,-166.7 334,-185.7 377,-185.7 377,-166.7 334,-166.7"/>
<text text-anchor="start" x="337" y="-172.8" font-family="Helvetica,sans-Serif" font-size="11.00" fill="#000000">&lt; 2</text>
<polygon fill="#ffffff" stroke="transparent" points="377,-166.7 377,-185.7 443,-185.7 443,-166.7 377,-166.7"/>
<polygon fill="none" stroke="#000000" points="377,-166.7 377,-185.7 443,-185.7 443,-166.7 377,-166.7"/>
<text text-anchor="start" x="401.4956" y="-172.8" font-family="Helvetica,sans-Serif" font-size="11.00" fill="#000000">24 rows</text>
<polygon fill="#ffffff" stroke="transparent" points="443,-166.7 443,-185.7 504,-185.7 504,-166.7 443,-166.7"/>
<polygon fill="none" stroke="#000000" points="443,-166.7 443,-185.7 504,-185.7 504,-166.7 443,-166.7"/>
<text text-anchor="start" x="485.4053" y="-172.8" font-family="Helvetica,sans-Serif" font-size="11.00" fill="#000000">0 &gt;</text>
<polygon fill="none" stroke="#000000" stroke-width="2" points="333,-165.7 333,-253.7 505,-253.7 505,-165.7 333,-165.7"/>
</a>
</g>
</g>
<!-- keycloak_role -->
<g id="node2" class="node">
<title>keycloak_role</title>
<g id="a_node2"><a xlink:href="../../tables/keycloak_role.html" xlink:title="keycloak_role" target="_top">
<polygon fill="#ffffff" stroke="transparent" points="128,-38.2 128,-231.2 283,-231.2 283,-38.2 128,-38.2"/>
<polygon fill="#f5f5f5" stroke="transparent" points="128.5,-207.7 128.5,-230.7 283.5,-230.7 283.5,-207.7 128.5,-207.7"/>
<polygon fill="none" stroke="#000000" points="128.5,-207.7 128.5,-230.7 283.5,-230.7 283.5,-207.7 128.5,-207.7"/>
<text text-anchor="start" x="133.5" y="-216.8" font-family="Helvetica,sans-Serif" font-weight="bold" font-size="11.00" fill="#000000">keycloak_role</text>
<text text-anchor="start" x="248.5437" y="-215.8" font-family="Helvetica,sans-Serif" font-size="11.00" fill="#000000">[table]</text>
<polygon fill="none" stroke="#000000" points="128.5,-185.7 128.5,-207.7 283.5,-207.7 283.5,-185.7 128.5,-185.7"/>
<image xlink:href="../../images/primaryKeys.png" width="11px" height="12px" preserveAspectRatio="xMinYMin meet" x="133.5" y="-202.7"/>
<text text-anchor="start" x="148.5" y="-192.8" font-family="Helvetica,sans-Serif" font-size="11.00" fill="#000000">id</text>
<polygon fill="#ffffff" stroke="transparent" points="128.5,-163.7 128.5,-185.7 283.5,-185.7 283.5,-163.7 128.5,-163.7"/>
<polygon fill="none" stroke="#000000" points="128.5,-163.7 128.5,-185.7 283.5,-185.7 283.5,-163.7 128.5,-163.7"/>
<text text-anchor="start" x="148.5" y="-170.8" font-family="Helvetica,sans-Serif" font-size="11.00" fill="#000000">client_realm_constraint</text>
<polygon fill="#ffffff" stroke="transparent" points="128.5,-141.7 128.5,-163.7 283.5,-163.7 283.5,-141.7 128.5,-141.7"/>
<polygon fill="none" stroke="#000000" points="128.5,-141.7 128.5,-163.7 283.5,-163.7 283.5,-141.7 128.5,-141.7"/>
<text text-anchor="start" x="148.5" y="-148.8" font-family="Helvetica,sans-Serif" font-size="11.00" fill="#000000">name</text>
<polygon fill="none" stroke="#000000" points="128.5,-119.7 128.5,-141.7 283.5,-141.7 283.5,-119.7 128.5,-119.7"/>
<image xlink:href="../../images/foreignKeys.png" width="11px" height="12px" preserveAspectRatio="xMinYMin meet" x="133.5" y="-136.7"/>
<text text-anchor="start" x="148.5" y="-126.8" font-family="Helvetica,sans-Serif" font-size="11.00" fill="#000000">realm_id</text>
<polygon fill="#ffffff" stroke="transparent" points="128.5,-97.7 128.5,-119.7 283.5,-119.7 283.5,-97.7 128.5,-97.7"/>
<polygon fill="none" stroke="#000000" points="128.5,-97.7 128.5,-119.7 283.5,-119.7 283.5,-97.7 128.5,-97.7"/>
<text text-anchor="start" x="148.5" y="-104.8" font-family="Helvetica,sans-Serif" font-size="11.00" fill="#000000">client</text>
<polygon fill="#ffffff" stroke="transparent" points="128.5,-75.7 128.5,-97.7 283.5,-97.7 283.5,-75.7 128.5,-75.7"/>
<polygon fill="none" stroke="#000000" points="128.5,-75.7 128.5,-97.7 283.5,-97.7 283.5,-75.7 128.5,-75.7"/>
<image xlink:href="../../images/foreignKeys.png" width="11px" height="12px" preserveAspectRatio="xMinYMin meet" x="133.5" y="-92.7"/>
<text text-anchor="start" x="148.5" y="-82.8" font-family="Helvetica,sans-Serif" font-size="11.00" fill="#000000">realm</text>
<polygon fill="none" stroke="#000000" points="128.5,-56.7 128.5,-75.7 283.5,-75.7 283.5,-56.7 128.5,-56.7"/>
<text text-anchor="start" x="131.5" y="-62.8" font-family="Helvetica,sans-Serif" font-size="11.00" fill="#000000">...</text>
<polygon fill="#ffffff" stroke="transparent" points="128.5,-37.7 128.5,-56.7 183.5,-56.7 183.5,-37.7 128.5,-37.7"/>
<polygon fill="none" stroke="#000000" points="128.5,-37.7 128.5,-56.7 183.5,-56.7 183.5,-37.7 128.5,-37.7"/>
<text text-anchor="start" x="131.5" y="-43.8" font-family="Helvetica,sans-Serif" font-size="11.00" fill="#000000">&lt; 1</text>
<polygon fill="#ffffff" stroke="transparent" points="183.5,-37.7 183.5,-56.7 244.5,-56.7 244.5,-37.7 183.5,-37.7"/>
<polygon fill="none" stroke="#000000" points="183.5,-37.7 183.5,-56.7 244.5,-56.7 244.5,-37.7 183.5,-37.7"/>
<text text-anchor="start" x="202.9956" y="-43.8" font-family="Helvetica,sans-Serif" font-size="11.00" fill="#000000">30 rows</text>
<polygon fill="#ffffff" stroke="transparent" points="244.5,-37.7 244.5,-56.7 283.5,-56.7 283.5,-37.7 244.5,-37.7"/>
<polygon fill="none" stroke="#000000" points="244.5,-37.7 244.5,-56.7 283.5,-56.7 283.5,-37.7 244.5,-37.7"/>
<text text-anchor="start" x="264.9053" y="-43.8" font-family="Helvetica,sans-Serif" font-size="11.00" fill="#000000">3 &gt;</text>
</a>
</g>
</g>
<!-- composite_role&#45;&gt;keycloak_role -->
<g id="edge1" class="edge">
<title>composite_role:w&#45;&gt;keycloak_role:e</title>
<path fill="none" stroke="#000000" d="M319.4203,-196.7C307.5435,-196.7 300.158,-196.7 283.5,-196.7"/>
<polygon fill="#000000" stroke="#000000" points="326,-196.7001 334,-200.3 330,-196.7 334,-196.7 334,-196.7 334,-196.7 330,-196.7 334,-193.1 326,-196.7001 326,-196.7001"/>
<ellipse fill="none" stroke="#000000" cx="322.8" cy="-196.7001" rx="3.2" ry="3.2"/>
</g>
<!-- composite_role&#45;&gt;keycloak_role -->
<g id="edge2" class="edge">
<title>composite_role:w&#45;&gt;keycloak_role:e</title>
<path fill="none" stroke="#000000" d="M319.5981,-215.4538C307.4282,-209.3342 302.0526,-196.7 283.5,-196.7"/>
<polygon fill="#000000" stroke="#000000" points="326.1958,-216.9409 333.2084,-222.2119 330.0979,-217.8204 334,-218.7 334,-218.7 334,-218.7 330.0979,-217.8204 334.7916,-215.1881 326.1958,-216.9409 326.1958,-216.9409"/>
<ellipse fill="none" stroke="#000000" cx="323.0741" cy="-216.2373" rx="3.2" ry="3.2"/>
</g>
<!-- realm -->
<g id="node3" class="node">
<title>realm</title>
<g id="a_node3"><a xlink:href="../../tables/realm.html" xlink:title="realm" target="_top">
<polygon fill="#ffffff" stroke="transparent" points="8,-59.2 8,-120.2 79,-120.2 79,-59.2 8,-59.2"/>
<polygon fill="#f5f5f5" stroke="transparent" points="8.5,-96.7 8.5,-119.7 79.5,-119.7 79.5,-96.7 8.5,-96.7"/>
<polygon fill="none" stroke="#000000" points="8.5,-96.7 8.5,-119.7 79.5,-119.7 79.5,-96.7 8.5,-96.7"/>
<text text-anchor="start" x="13.5" y="-105.8" font-family="Helvetica,sans-Serif" font-weight="bold" font-size="11.00" fill="#000000">realm</text>
<text text-anchor="start" x="45.0219" y="-104.8" font-family="Helvetica,sans-Serif" font-size="11.00" fill="#000000">[table]</text>
<polygon fill="none" stroke="#000000" points="8.5,-77.7 8.5,-96.7 79.5,-96.7 79.5,-77.7 8.5,-77.7"/>
<text text-anchor="start" x="11.5" y="-83.8" font-family="Helvetica,sans-Serif" font-size="11.00" fill="#000000">...</text>
<polygon fill="#ffffff" stroke="transparent" points="8.5,-58.7 8.5,-77.7 20.5,-77.7 20.5,-58.7 8.5,-58.7"/>
<polygon fill="none" stroke="#000000" points="8.5,-58.7 8.5,-77.7 20.5,-77.7 20.5,-58.7 8.5,-58.7"/>
<text text-anchor="start" x="11.4431" y="-64.8" font-family="Helvetica,sans-Serif" font-size="11.00" fill="#000000"> &#160;</text>
<polygon fill="#ffffff" stroke="transparent" points="20.5,-58.7 20.5,-77.7 52.5,-77.7 52.5,-58.7 20.5,-58.7"/>
<polygon fill="none" stroke="#000000" points="20.5,-58.7 20.5,-77.7 52.5,-77.7 52.5,-58.7 20.5,-58.7"/>
<text text-anchor="start" x="23.0553" y="-64.8" font-family="Helvetica,sans-Serif" font-size="11.00" fill="#000000">1 row</text>
<polygon fill="#ffffff" stroke="transparent" points="52.5,-58.7 52.5,-77.7 79.5,-77.7 79.5,-58.7 52.5,-58.7"/>
<polygon fill="none" stroke="#000000" points="52.5,-58.7 52.5,-77.7 79.5,-77.7 79.5,-58.7 52.5,-58.7"/>
<text text-anchor="start" x="55.1452" y="-64.8" font-family="Helvetica,sans-Serif" font-size="11.00" fill="#000000">23 &gt;</text>
</a>
</g>
</g>
<!-- keycloak_role&#45;&gt;realm -->
<g id="edge3" class="edge">
<title>keycloak_role:w&#45;&gt;realm:e</title>
<path fill="none" stroke="#000000" d="M113.9909,-86.7C102.6774,-86.7 95.4931,-86.7 79.5,-86.7"/>
<polygon fill="#000000" stroke="#000000" points="120.5,-86.7001 128.5,-90.3 124.5,-86.7 128.5,-86.7 128.5,-86.7 128.5,-86.7 124.5,-86.7 128.5,-83.1 120.5,-86.7001 120.5,-86.7001"/>
<ellipse fill="none" stroke="#000000" cx="117.3" cy="-86.7001" rx="3.2" ry="3.2"/>
</g>
<!-- role_attribute -->
<g id="node4" class="node">
<title>role_attribute</title>
<g id="a_node4"><a xlink:href="../../tables/role_attribute.html" xlink:title="role_attribute" target="_top">
<polygon fill="#ffffff" stroke="transparent" points="365.5,-82.2 365.5,-143.2 472.5,-143.2 472.5,-82.2 365.5,-82.2"/>
<polygon fill="#f5f5f5" stroke="transparent" points="366,-119.7 366,-142.7 473,-142.7 473,-119.7 366,-119.7"/>
<polygon fill="none" stroke="#000000" points="366,-119.7 366,-142.7 473,-142.7 473,-119.7 366,-119.7"/>
<text text-anchor="start" x="370.9097" y="-128.8" font-family="Helvetica,sans-Serif" font-weight="bold" font-size="11.00" fill="#000000">role_attribute</text>
<text text-anchor="start" x="438.5219" y="-127.8" font-family="Helvetica,sans-Serif" font-size="11.00" fill="#000000">[table]</text>
<polygon fill="none" stroke="#000000" points="366,-100.7 366,-119.7 473,-119.7 473,-100.7 366,-100.7"/>
<text text-anchor="start" x="369" y="-106.8" font-family="Helvetica,sans-Serif" font-size="11.00" fill="#000000">...</text>
<polygon fill="#ffffff" stroke="transparent" points="366,-81.7 366,-100.7 405,-100.7 405,-81.7 366,-81.7"/>
<polygon fill="none" stroke="#000000" points="366,-81.7 366,-100.7 405,-100.7 405,-81.7 366,-81.7"/>
<text text-anchor="start" x="369" y="-87.8" font-family="Helvetica,sans-Serif" font-size="11.00" fill="#000000">&lt; 1</text>
<polygon fill="#ffffff" stroke="transparent" points="405,-81.7 405,-100.7 452,-100.7 452,-81.7 405,-81.7"/>
<polygon fill="none" stroke="#000000" points="405,-81.7 405,-100.7 452,-100.7 452,-81.7 405,-81.7"/>
<text text-anchor="start" x="416.6105" y="-87.8" font-family="Helvetica,sans-Serif" font-size="11.00" fill="#000000">0 rows</text>
<polygon fill="#ffffff" stroke="transparent" points="452,-81.7 452,-100.7 473,-100.7 473,-81.7 452,-81.7"/>
<polygon fill="none" stroke="#000000" points="452,-81.7 452,-100.7 473,-100.7 473,-81.7 452,-81.7"/>
<text text-anchor="start" x="463.8862" y="-87.8" font-family="Helvetica,sans-Serif" font-size="11.00" fill="#000000"> &#160;</text>
</a>
</g>
</g>
<!-- role_attribute&#45;&gt;keycloak_role -->
<g id="edge4" class="edge">
<title>role_attribute:w&#45;&gt;keycloak_role:e</title>
<path fill="none" stroke="#000000" d="M352.7015,-115.9568C329.84,-135.9051 305.7725,-196.7 283.5,-196.7"/>
<polygon fill="#000000" stroke="#000000" points="358.7612,-113.1058 367.5326,-112.9575 362.3806,-111.4029 366,-109.7 366,-109.7 366,-109.7 362.3806,-111.4029 364.4674,-106.4425 358.7612,-113.1058 358.7612,-113.1058"/>
<ellipse fill="none" stroke="#000000" cx="355.8656" cy="-114.4682" rx="3.2" ry="3.2"/>
</g>
</g>
</svg>
