<?xml version="1.0" encoding="UTF-8" standalone="no"?>
<!DOCTYPE svg PUBLIC "-//W3C//DTD SVG 1.1//EN"
 "http://www.w3.org/Graphics/SVG/1.1/DTD/svg11.dtd">
<!-- Generated by graphviz version 2.40.1 (20161225.0304)
 -->
<!-- Title: twoDegreesRelationshipsDiagram Pages: 1 -->
<svg width="498pt" height="201pt"
 viewBox="0.00 0.00 498.00 200.70" xmlns="http://www.w3.org/2000/svg" xmlns:xlink="http://www.w3.org/1999/xlink">
<g id="graph0" class="graph" transform="scale(1 1) rotate(0) translate(4 196.7)">
<title>twoDegreesRelationshipsDiagram</title>
<polygon fill="#ffffff" stroke="transparent" points="-4,4 -4,-196.7 494,-196.7 494,4 -4,4"/>
<text text-anchor="middle" x="72.4936" y="-7.3" font-family="Helvetica,sans-Serif" font-size="11.00" fill="#000000">Generated by SchemaSpy</text>
<!-- component -->
<g id="node1" class="node">
<title>component</title>
<g id="a_node1"><a xlink:href="../../tables/component.html" xlink:title="component" target="_top">
<polygon fill="#ffffff" stroke="transparent" points="128,-38.2 128,-165.2 228,-165.2 228,-38.2 128,-38.2"/>
<polygon fill="#f5f5f5" stroke="transparent" points="128,-141.7 128,-164.7 228,-164.7 228,-141.7 128,-141.7"/>
<polygon fill="none" stroke="#000000" points="128,-141.7 128,-164.7 228,-164.7 228,-141.7 128,-141.7"/>
<text text-anchor="start" x="133" y="-150.8" font-family="Helvetica,sans-Serif" font-weight="bold" font-size="11.00" fill="#000000">component</text>
<text text-anchor="start" x="193.0437" y="-149.8" font-family="Helvetica,sans-Serif" font-size="11.00" fill="#000000">[table]</text>
<polygon fill="none" stroke="#000000" points="128,-119.7 128,-141.7 228,-141.7 228,-119.7 128,-119.7"/>
<image xlink:href="../../images/primaryKeys.png" width="11px" height="12px" preserveAspectRatio="xMinYMin meet" x="133" y="-136.7"/>
<text text-anchor="start" x="148" y="-126.8" font-family="Helvetica,sans-Serif" font-size="11.00" fill="#000000">id</text>
<polygon fill="#ffffff" stroke="transparent" points="128,-97.7 128,-119.7 228,-119.7 228,-97.7 128,-97.7"/>
<polygon fill="none" stroke="#000000" points="128,-97.7 128,-119.7 228,-119.7 228,-97.7 128,-97.7"/>
<text text-anchor="start" x="148" y="-104.8" font-family="Helvetica,sans-Serif" font-size="11.00" fill="#000000">provider_type</text>
<polygon fill="#ffffff" stroke="transparent" points="128,-75.7 128,-97.7 228,-97.7 228,-75.7 128,-75.7"/>
<polygon fill="none" stroke="#000000" points="128,-75.7 128,-97.7 228,-97.7 228,-75.7 128,-75.7"/>
<image xlink:href="../../images/foreignKeys.png" width="11px" height="12px" preserveAspectRatio="xMinYMin meet" x="133" y="-92.7"/>
<text text-anchor="start" x="148" y="-82.8" font-family="Helvetica,sans-Serif" font-size="11.00" fill="#000000">realm_id</text>
<polygon fill="none" stroke="#000000" points="128,-56.7 128,-75.7 228,-75.7 228,-56.7 128,-56.7"/>
<text text-anchor="start" x="131" y="-62.8" font-family="Helvetica,sans-Serif" font-size="11.00" fill="#000000">...</text>
<polygon fill="#ffffff" stroke="transparent" points="128,-37.7 128,-56.7 159,-56.7 159,-37.7 128,-37.7"/>
<polygon fill="none" stroke="#000000" points="128,-37.7 128,-56.7 159,-56.7 159,-37.7 128,-37.7"/>
<text text-anchor="start" x="131" y="-43.8" font-family="Helvetica,sans-Serif" font-size="11.00" fill="#000000">&lt; 1</text>
<polygon fill="#ffffff" stroke="transparent" points="159,-37.7 159,-56.7 202,-56.7 202,-37.7 159,-37.7"/>
<polygon fill="none" stroke="#000000" points="159,-37.7 159,-56.7 202,-56.7 202,-37.7 159,-37.7"/>
<text text-anchor="start" x="166.6105" y="-43.8" font-family="Helvetica,sans-Serif" font-size="11.00" fill="#000000">9 rows</text>
<polygon fill="#ffffff" stroke="transparent" points="202,-37.7 202,-56.7 228,-56.7 228,-37.7 202,-37.7"/>
<polygon fill="none" stroke="#000000" points="202,-37.7 202,-56.7 228,-56.7 228,-37.7 202,-37.7"/>
<text text-anchor="start" x="209.4053" y="-43.8" font-family="Helvetica,sans-Serif" font-size="11.00" fill="#000000">1 &gt;</text>
</a>
</g>
</g>
<!-- realm -->
<g id="node2" class="node">
<title>realm</title>
<g id="a_node2"><a xlink:href="../../tables/realm.html" xlink:title="realm" target="_top">
<polygon fill="#ffffff" stroke="transparent" points="8,-59.2 8,-120.2 79,-120.2 79,-59.2 8,-59.2"/>
<polygon fill="#f5f5f5" stroke="transparent" points="8.5,-96.7 8.5,-119.7 79.5,-119.7 79.5,-96.7 8.5,-96.7"/>
<polygon fill="none" stroke="#000000" points="8.5,-96.7 8.5,-119.7 79.5,-119.7 79.5,-96.7 8.5,-96.7"/>
<text text-anchor="start" x="13.5" y="-105.8" font-family="Helvetica,sans-Serif" font-weight="bold" font-size="11.00" fill="#000000">realm</text>
<text text-anchor="start" x="45.0219" y="-104.8" font-family="Helvetica,sans-Serif" font-size="11.00" fill="#000000">[table]</text>
<polygon fill="none" stroke="#000000" points="8.5,-77.7 8.5,-96.7 79.5,-96.7 79.5,-77.7 8.5,-77.7"/>
<text text-anchor="start" x="11.5" y="-83.8" font-family="Helvetica,sans-Serif" font-size="11.00" fill="#000000">...</text>
<polygon fill="#ffffff" stroke="transparent" points="8.5,-58.7 8.5,-77.7 20.5,-77.7 20.5,-58.7 8.5,-58.7"/>
<polygon fill="none" stroke="#000000" points="8.5,-58.7 8.5,-77.7 20.5,-77.7 20.5,-58.7 8.5,-58.7"/>
<text text-anchor="start" x="11.4431" y="-64.8" font-family="Helvetica,sans-Serif" font-size="11.00" fill="#000000"> &#160;</text>
<polygon fill="#ffffff" stroke="transparent" points="20.5,-58.7 20.5,-77.7 52.5,-77.7 52.5,-58.7 20.5,-58.7"/>
<polygon fill="none" stroke="#000000" points="20.5,-58.7 20.5,-77.7 52.5,-77.7 52.5,-58.7 20.5,-58.7"/>
<text text-anchor="start" x="23.0553" y="-64.8" font-family="Helvetica,sans-Serif" font-size="11.00" fill="#000000">1 row</text>
<polygon fill="#ffffff" stroke="transparent" points="52.5,-58.7 52.5,-77.7 79.5,-77.7 79.5,-58.7 52.5,-58.7"/>
<polygon fill="none" stroke="#000000" points="52.5,-58.7 52.5,-77.7 79.5,-77.7 79.5,-58.7 52.5,-58.7"/>
<text text-anchor="start" x="55.1452" y="-64.8" font-family="Helvetica,sans-Serif" font-size="11.00" fill="#000000">23 &gt;</text>
</a>
</g>
</g>
<!-- component&#45;&gt;realm -->
<g id="edge1" class="edge">
<title>component:w&#45;&gt;realm:e</title>
<path fill="none" stroke="#000000" d="M113.2829,-86.7C102.2886,-86.7 95.1615,-86.7 79.5,-86.7"/>
<polygon fill="#000000" stroke="#000000" points="120,-86.7001 128,-90.3 124,-86.7 128,-86.7 128,-86.7 128,-86.7 124,-86.7 128,-83.1 120,-86.7001 120,-86.7001"/>
<ellipse fill="none" stroke="#000000" cx="116.8" cy="-86.7001" rx="3.2" ry="3.2"/>
</g>
<!-- component_config -->
<g id="node3" class="node">
<title>component_config</title>
<g id="a_node3"><a xlink:href="../../tables/component_config.html" xlink:title="component_config" target="_top">
<polygon fill="#ffffff" stroke="transparent" points="277,-54.7 277,-188.7 482,-188.7 482,-54.7 277,-54.7"/>
<polygon fill="#f5f5f5" stroke="transparent" points="279.5,-163.7 279.5,-186.7 480.5,-186.7 480.5,-163.7 279.5,-163.7"/>
<polygon fill="none" stroke="#000000" points="279.5,-163.7 279.5,-186.7 480.5,-186.7 480.5,-163.7 279.5,-163.7"/>
<text text-anchor="start" x="284.5" y="-172.8" font-family="Helvetica,sans-Serif" font-weight="bold" font-size="11.00" fill="#000000">component_config</text>
<text text-anchor="start" x="445.5437" y="-171.8" font-family="Helvetica,sans-Serif" font-size="11.00" fill="#000000">[table]</text>
<polygon fill="none" stroke="#000000" points="279.5,-141.7 279.5,-163.7 407.5,-163.7 407.5,-141.7 279.5,-141.7"/>
<image xlink:href="../../images/primaryKeys.png" width="11px" height="12px" preserveAspectRatio="xMinYMin meet" x="284.5" y="-158.7"/>
<text text-anchor="start" x="299.5" y="-148.8" font-family="Helvetica,sans-Serif" font-size="11.00" fill="#000000">id</text>
<polygon fill="none" stroke="#000000" points="407.5,-141.7 407.5,-163.7 480.5,-163.7 480.5,-141.7 407.5,-141.7"/>
<text text-anchor="start" x="410.5" y="-149.4" font-family="Helvetica,sans-Serif" font-size="11.00" fill="#000000">varchar[36]</text>
<polygon fill="#ffffff" stroke="transparent" points="279.5,-119.7 279.5,-141.7 407.5,-141.7 407.5,-119.7 279.5,-119.7"/>
<polygon fill="none" stroke="#000000" points="279.5,-119.7 279.5,-141.7 407.5,-141.7 407.5,-119.7 279.5,-119.7"/>
<image xlink:href="../../images/foreignKeys.png" width="11px" height="12px" preserveAspectRatio="xMinYMin meet" x="284.5" y="-136.7"/>
<text text-anchor="start" x="299.5" y="-126.8" font-family="Helvetica,sans-Serif" font-size="11.00" fill="#000000">component_id</text>
<polygon fill="none" stroke="#000000" points="407.5,-119.7 407.5,-141.7 480.5,-141.7 480.5,-119.7 407.5,-119.7"/>
<text text-anchor="start" x="410.5" y="-127.4" font-family="Helvetica,sans-Serif" font-size="11.00" fill="#000000">varchar[36]</text>
<polygon fill="none" stroke="#000000" points="279.5,-97.7 279.5,-119.7 407.5,-119.7 407.5,-97.7 279.5,-97.7"/>
<text text-anchor="start" x="299.5" y="-104.8" font-family="Helvetica,sans-Serif" font-size="11.00" fill="#000000">name</text>
<polygon fill="none" stroke="#000000" points="407.5,-97.7 407.5,-119.7 480.5,-119.7 480.5,-97.7 407.5,-97.7"/>
<text text-anchor="start" x="410.5" y="-105.4" font-family="Helvetica,sans-Serif" font-size="11.00" fill="#000000">varchar[255]</text>
<polygon fill="none" stroke="#000000" points="279.5,-75.7 279.5,-97.7 407.5,-97.7 407.5,-75.7 279.5,-75.7"/>
<text text-anchor="start" x="299.5" y="-82.8" font-family="Helvetica,sans-Serif" font-size="11.00" fill="#000000">value</text>
<polygon fill="none" stroke="#000000" points="407.5,-75.7 407.5,-97.7 480.5,-97.7 480.5,-75.7 407.5,-75.7"/>
<text text-anchor="start" x="410.3791" y="-83.4" font-family="Helvetica,sans-Serif" font-size="11.00" fill="#000000">varchar[4000]</text>
<polygon fill="#ffffff" stroke="transparent" points="279.5,-56.7 279.5,-75.7 331.5,-75.7 331.5,-56.7 279.5,-56.7"/>
<polygon fill="none" stroke="#000000" points="279.5,-56.7 279.5,-75.7 331.5,-75.7 331.5,-56.7 279.5,-56.7"/>
<text text-anchor="start" x="282.5" y="-62.8" font-family="Helvetica,sans-Serif" font-size="11.00" fill="#000000">&lt; 1</text>
<polygon fill="#ffffff" stroke="transparent" points="331.5,-56.7 331.5,-75.7 407.5,-75.7 407.5,-56.7 331.5,-56.7"/>
<polygon fill="none" stroke="#000000" points="331.5,-56.7 331.5,-75.7 407.5,-75.7 407.5,-56.7 331.5,-56.7"/>
<text text-anchor="start" x="365.9956" y="-62.8" font-family="Helvetica,sans-Serif" font-size="11.00" fill="#000000">25 rows</text>
<polygon fill="#ffffff" stroke="transparent" points="407.5,-56.7 407.5,-75.7 480.5,-75.7 480.5,-56.7 407.5,-56.7"/>
<polygon fill="none" stroke="#000000" points="407.5,-56.7 407.5,-75.7 480.5,-75.7 480.5,-56.7 407.5,-56.7"/>
<text text-anchor="start" x="461.9053" y="-62.8" font-family="Helvetica,sans-Serif" font-size="11.00" fill="#000000">0 &gt;</text>
<polygon fill="none" stroke="#000000" stroke-width="2" points="278,-55.7 278,-187.7 481,-187.7 481,-55.7 278,-55.7"/>
</a>
</g>
</g>
<!-- component_config&#45;&gt;component -->
<g id="edge2" class="edge">
<title>component_config:w&#45;&gt;component:e</title>
<path fill="none" stroke="#000000" d="M265.0156,-130.7C252.6771,-130.7 245.1667,-130.7 228,-130.7"/>
<polygon fill="#000000" stroke="#000000" points="271.5,-130.7001 279.5,-134.3 275.5,-130.7 279.5,-130.7 279.5,-130.7 279.5,-130.7 275.5,-130.7 279.5,-127.1 271.5,-130.7001 271.5,-130.7001"/>
<ellipse fill="none" stroke="#000000" cx="268.3" cy="-130.7001" rx="3.2" ry="3.2"/>
</g>
</g>
</svg>
