<?xml version="1.0" encoding="UTF-8" standalone="no"?>
<!DOCTYPE svg PUBLIC "-//W3C//DTD SVG 1.1//EN"
 "http://www.w3.org/Graphics/SVG/1.1/DTD/svg11.dtd">
<!-- Generated by graphviz version 2.40.1 (20161225.0304)
 -->
<!-- Title: oneDegreeRelationshipsDiagram Pages: 1 -->
<svg width="378pt" height="201pt"
 viewBox="0.00 0.00 378.00 200.70" xmlns="http://www.w3.org/2000/svg" xmlns:xlink="http://www.w3.org/1999/xlink">
<g id="graph0" class="graph" transform="scale(1 1) rotate(0) translate(4 196.7)">
<title>oneDegreeRelationshipsDiagram</title>
<polygon fill="#ffffff" stroke="transparent" points="-4,4 -4,-196.7 374,-196.7 374,4 -4,4"/>
<text text-anchor="middle" x="72.4936" y="-7.3" font-family="Helvetica,sans-Serif" font-size="11.00" fill="#000000">Generated by SchemaSpy</text>
<!-- component_config -->
<g id="node1" class="node">
<title>component_config</title>
<g id="a_node1"><a xlink:href="../../tables/component_config.html" xlink:title="component_config" target="_top">
<polygon fill="#ffffff" stroke="transparent" points="157,-54.7 157,-188.7 362,-188.7 362,-54.7 157,-54.7"/>
<polygon fill="#f5f5f5" stroke="transparent" points="159.5,-163.7 159.5,-186.7 360.5,-186.7 360.5,-163.7 159.5,-163.7"/>
<polygon fill="none" stroke="#000000" points="159.5,-163.7 159.5,-186.7 360.5,-186.7 360.5,-163.7 159.5,-163.7"/>
<text text-anchor="start" x="164.5" y="-172.8" font-family="Helvetica,sans-Serif" font-weight="bold" font-size="11.00" fill="#000000">component_config</text>
<text text-anchor="start" x="325.5437" y="-171.8" font-family="Helvetica,sans-Serif" font-size="11.00" fill="#000000">[table]</text>
<polygon fill="none" stroke="#000000" points="159.5,-141.7 159.5,-163.7 287.5,-163.7 287.5,-141.7 159.5,-141.7"/>
<image xlink:href="../../images/primaryKeys.png" width="11px" height="12px" preserveAspectRatio="xMinYMin meet" x="164.5" y="-158.7"/>
<text text-anchor="start" x="179.5" y="-148.8" font-family="Helvetica,sans-Serif" font-size="11.00" fill="#000000">id</text>
<polygon fill="none" stroke="#000000" points="287.5,-141.7 287.5,-163.7 360.5,-163.7 360.5,-141.7 287.5,-141.7"/>
<text text-anchor="start" x="290.5" y="-149.4" font-family="Helvetica,sans-Serif" font-size="11.00" fill="#000000">varchar[36]</text>
<polygon fill="#ffffff" stroke="transparent" points="159.5,-119.7 159.5,-141.7 287.5,-141.7 287.5,-119.7 159.5,-119.7"/>
<polygon fill="none" stroke="#000000" points="159.5,-119.7 159.5,-141.7 287.5,-141.7 287.5,-119.7 159.5,-119.7"/>
<image xlink:href="../../images/foreignKeys.png" width="11px" height="12px" preserveAspectRatio="xMinYMin meet" x="164.5" y="-136.7"/>
<text text-anchor="start" x="179.5" y="-126.8" font-family="Helvetica,sans-Serif" font-size="11.00" fill="#000000">component_id</text>
<polygon fill="none" stroke="#000000" points="287.5,-119.7 287.5,-141.7 360.5,-141.7 360.5,-119.7 287.5,-119.7"/>
<text text-anchor="start" x="290.5" y="-127.4" font-family="Helvetica,sans-Serif" font-size="11.00" fill="#000000">varchar[36]</text>
<polygon fill="none" stroke="#000000" points="159.5,-97.7 159.5,-119.7 287.5,-119.7 287.5,-97.7 159.5,-97.7"/>
<text text-anchor="start" x="179.5" y="-104.8" font-family="Helvetica,sans-Serif" font-size="11.00" fill="#000000">name</text>
<polygon fill="none" stroke="#000000" points="287.5,-97.7 287.5,-119.7 360.5,-119.7 360.5,-97.7 287.5,-97.7"/>
<text text-anchor="start" x="290.5" y="-105.4" font-family="Helvetica,sans-Serif" font-size="11.00" fill="#000000">varchar[255]</text>
<polygon fill="none" stroke="#000000" points="159.5,-75.7 159.5,-97.7 287.5,-97.7 287.5,-75.7 159.5,-75.7"/>
<text text-anchor="start" x="179.5" y="-82.8" font-family="Helvetica,sans-Serif" font-size="11.00" fill="#000000">value</text>
<polygon fill="none" stroke="#000000" points="287.5,-75.7 287.5,-97.7 360.5,-97.7 360.5,-75.7 287.5,-75.7"/>
<text text-anchor="start" x="290.3791" y="-83.4" font-family="Helvetica,sans-Serif" font-size="11.00" fill="#000000">varchar[4000]</text>
<polygon fill="#ffffff" stroke="transparent" points="159.5,-56.7 159.5,-75.7 211.5,-75.7 211.5,-56.7 159.5,-56.7"/>
<polygon fill="none" stroke="#000000" points="159.5,-56.7 159.5,-75.7 211.5,-75.7 211.5,-56.7 159.5,-56.7"/>
<text text-anchor="start" x="162.5" y="-62.8" font-family="Helvetica,sans-Serif" font-size="11.00" fill="#000000">&lt; 1</text>
<polygon fill="#ffffff" stroke="transparent" points="211.5,-56.7 211.5,-75.7 287.5,-75.7 287.5,-56.7 211.5,-56.7"/>
<polygon fill="none" stroke="#000000" points="211.5,-56.7 211.5,-75.7 287.5,-75.7 287.5,-56.7 211.5,-56.7"/>
<text text-anchor="start" x="245.9956" y="-62.8" font-family="Helvetica,sans-Serif" font-size="11.00" fill="#000000">25 rows</text>
<polygon fill="#ffffff" stroke="transparent" points="287.5,-56.7 287.5,-75.7 360.5,-75.7 360.5,-56.7 287.5,-56.7"/>
<polygon fill="none" stroke="#000000" points="287.5,-56.7 287.5,-75.7 360.5,-75.7 360.5,-56.7 287.5,-56.7"/>
<text text-anchor="start" x="341.9053" y="-62.8" font-family="Helvetica,sans-Serif" font-size="11.00" fill="#000000">0 &gt;</text>
<polygon fill="none" stroke="#000000" stroke-width="2" points="158,-55.7 158,-187.7 361,-187.7 361,-55.7 158,-55.7"/>
</a>
</g>
</g>
<!-- component -->
<g id="node2" class="node">
<title>component</title>
<g id="a_node2"><a xlink:href="../../tables/component.html" xlink:title="component" target="_top">
<polygon fill="#ffffff" stroke="transparent" points="8,-38.2 8,-165.2 108,-165.2 108,-38.2 8,-38.2"/>
<polygon fill="#f5f5f5" stroke="transparent" points="8,-141.7 8,-164.7 108,-164.7 108,-141.7 8,-141.7"/>
<polygon fill="none" stroke="#000000" points="8,-141.7 8,-164.7 108,-164.7 108,-141.7 8,-141.7"/>
<text text-anchor="start" x="13" y="-150.8" font-family="Helvetica,sans-Serif" font-weight="bold" font-size="11.00" fill="#000000">component</text>
<text text-anchor="start" x="73.0437" y="-149.8" font-family="Helvetica,sans-Serif" font-size="11.00" fill="#000000">[table]</text>
<polygon fill="none" stroke="#000000" points="8,-119.7 8,-141.7 108,-141.7 108,-119.7 8,-119.7"/>
<image xlink:href="../../images/primaryKeys.png" width="11px" height="12px" preserveAspectRatio="xMinYMin meet" x="13" y="-136.7"/>
<text text-anchor="start" x="28" y="-126.8" font-family="Helvetica,sans-Serif" font-size="11.00" fill="#000000">id</text>
<polygon fill="#ffffff" stroke="transparent" points="8,-97.7 8,-119.7 108,-119.7 108,-97.7 8,-97.7"/>
<polygon fill="none" stroke="#000000" points="8,-97.7 8,-119.7 108,-119.7 108,-97.7 8,-97.7"/>
<text text-anchor="start" x="28" y="-104.8" font-family="Helvetica,sans-Serif" font-size="11.00" fill="#000000">provider_type</text>
<polygon fill="#ffffff" stroke="transparent" points="8,-75.7 8,-97.7 108,-97.7 108,-75.7 8,-75.7"/>
<polygon fill="none" stroke="#000000" points="8,-75.7 8,-97.7 108,-97.7 108,-75.7 8,-75.7"/>
<image xlink:href="../../images/foreignKeys.png" width="11px" height="12px" preserveAspectRatio="xMinYMin meet" x="13" y="-92.7"/>
<text text-anchor="start" x="28" y="-82.8" font-family="Helvetica,sans-Serif" font-size="11.00" fill="#000000">realm_id</text>
<polygon fill="none" stroke="#000000" points="8,-56.7 8,-75.7 108,-75.7 108,-56.7 8,-56.7"/>
<text text-anchor="start" x="11" y="-62.8" font-family="Helvetica,sans-Serif" font-size="11.00" fill="#000000">...</text>
<polygon fill="#ffffff" stroke="transparent" points="8,-37.7 8,-56.7 39,-56.7 39,-37.7 8,-37.7"/>
<polygon fill="none" stroke="#000000" points="8,-37.7 8,-56.7 39,-56.7 39,-37.7 8,-37.7"/>
<text text-anchor="start" x="11" y="-43.8" font-family="Helvetica,sans-Serif" font-size="11.00" fill="#000000">&lt; 1</text>
<polygon fill="#ffffff" stroke="transparent" points="39,-37.7 39,-56.7 82,-56.7 82,-37.7 39,-37.7"/>
<polygon fill="none" stroke="#000000" points="39,-37.7 39,-56.7 82,-56.7 82,-37.7 39,-37.7"/>
<text text-anchor="start" x="46.6105" y="-43.8" font-family="Helvetica,sans-Serif" font-size="11.00" fill="#000000">9 rows</text>
<polygon fill="#ffffff" stroke="transparent" points="82,-37.7 82,-56.7 108,-56.7 108,-37.7 82,-37.7"/>
<polygon fill="none" stroke="#000000" points="82,-37.7 82,-56.7 108,-56.7 108,-37.7 82,-37.7"/>
<text text-anchor="start" x="89.4053" y="-43.8" font-family="Helvetica,sans-Serif" font-size="11.00" fill="#000000">1 &gt;</text>
</a>
</g>
</g>
<!-- component_config&#45;&gt;component -->
<g id="edge1" class="edge">
<title>component_config:w&#45;&gt;component:e</title>
<path fill="none" stroke="#000000" d="M145.0156,-130.7C132.6771,-130.7 125.1667,-130.7 108,-130.7"/>
<polygon fill="#000000" stroke="#000000" points="151.5,-130.7001 159.5,-134.3 155.5,-130.7 159.5,-130.7 159.5,-130.7 159.5,-130.7 155.5,-130.7 159.5,-127.1 151.5,-130.7001 151.5,-130.7001"/>
<ellipse fill="none" stroke="#000000" cx="148.3" cy="-130.7001" rx="3.2" ry="3.2"/>
</g>
</g>
</svg>
