<?xml version="1.0" encoding="UTF-8" standalone="no"?>
<!DOCTYPE svg PUBLIC "-//W3C//DTD SVG 1.1//EN"
 "http://www.w3.org/Graphics/SVG/1.1/DTD/svg11.dtd">
<!-- Generated by graphviz version 2.40.1 (20161225.0304)
 -->
<!-- Title: oneDegreeRelationshipsDiagramImplied Pages: 1 -->
<svg width="466pt" height="294pt"
 viewBox="0.00 0.00 466.00 294.20" xmlns="http://www.w3.org/2000/svg" xmlns:xlink="http://www.w3.org/1999/xlink">
<g id="graph0" class="graph" transform="scale(1 1) rotate(0) translate(4 290.2)">
<title>oneDegreeRelationshipsDiagramImplied</title>
<polygon fill="#ffffff" stroke="transparent" points="-4,4 -4,-290.2 462,-290.2 462,4 -4,4"/>
<text text-anchor="middle" x="72.4936" y="-7.3" font-family="Helvetica,sans-Serif" font-size="11.00" fill="#000000">Generated by SchemaSpy</text>
<!-- credential -->
<g id="node1" class="node">
<title>credential</title>
<g id="a_node1"><a xlink:href="../../tables/credential.html" xlink:title="credential" target="_top">
<polygon fill="#ffffff" stroke="transparent" points="237,-38.2 237,-282.2 450,-282.2 450,-38.2 237,-38.2"/>
<polygon fill="#f5f5f5" stroke="transparent" points="239.5,-257.2 239.5,-280.2 448.5,-280.2 448.5,-257.2 239.5,-257.2"/>
<polygon fill="none" stroke="#000000" points="239.5,-257.2 239.5,-280.2 448.5,-280.2 448.5,-257.2 239.5,-257.2"/>
<text text-anchor="start" x="244.5" y="-266.3" font-family="Helvetica,sans-Serif" font-weight="bold" font-size="11.00" fill="#000000">credential</text>
<text text-anchor="start" x="413.5437" y="-265.3" font-family="Helvetica,sans-Serif" font-size="11.00" fill="#000000">[table]</text>
<polygon fill="none" stroke="#000000" points="239.5,-235.2 239.5,-257.2 348.5,-257.2 348.5,-235.2 239.5,-235.2"/>
<image xlink:href="../../images/primaryKeys.png" width="11px" height="12px" preserveAspectRatio="xMinYMin meet" x="244.5" y="-252.2"/>
<text text-anchor="start" x="259.5" y="-242.3" font-family="Helvetica,sans-Serif" font-size="11.00" fill="#000000">id</text>
<polygon fill="none" stroke="#000000" points="348.5,-235.2 348.5,-257.2 448.5,-257.2 448.5,-235.2 348.5,-235.2"/>
<text text-anchor="start" x="351.5" y="-242.9" font-family="Helvetica,sans-Serif" font-size="11.00" fill="#000000">varchar[36]</text>
<polygon fill="none" stroke="#000000" points="239.5,-213.2 239.5,-235.2 348.5,-235.2 348.5,-213.2 239.5,-213.2"/>
<text text-anchor="start" x="259.5" y="-220.3" font-family="Helvetica,sans-Serif" font-size="11.00" fill="#000000">salt</text>
<polygon fill="none" stroke="#000000" points="348.5,-213.2 348.5,-235.2 448.5,-235.2 448.5,-213.2 348.5,-213.2"/>
<text text-anchor="start" x="351.4178" y="-220.9" font-family="Helvetica,sans-Serif" font-size="11.00" fill="#000000">bytea[2147483647]</text>
<polygon fill="none" stroke="#000000" points="239.5,-191.2 239.5,-213.2 348.5,-213.2 348.5,-191.2 239.5,-191.2"/>
<text text-anchor="start" x="259.5" y="-198.3" font-family="Helvetica,sans-Serif" font-size="11.00" fill="#000000">type</text>
<polygon fill="none" stroke="#000000" points="348.5,-191.2 348.5,-213.2 448.5,-213.2 448.5,-191.2 348.5,-191.2"/>
<text text-anchor="start" x="351.5" y="-198.9" font-family="Helvetica,sans-Serif" font-size="11.00" fill="#000000">varchar[255]</text>
<polygon fill="#ffffff" stroke="transparent" points="239.5,-169.2 239.5,-191.2 348.5,-191.2 348.5,-169.2 239.5,-169.2"/>
<polygon fill="none" stroke="#000000" points="239.5,-169.2 239.5,-191.2 348.5,-191.2 348.5,-169.2 239.5,-169.2"/>
<image xlink:href="../../images/foreignKeys.png" width="11px" height="12px" preserveAspectRatio="xMinYMin meet" x="244.5" y="-186.2"/>
<text text-anchor="start" x="259.5" y="-176.3" font-family="Helvetica,sans-Serif" font-size="11.00" fill="#000000">user_id</text>
<polygon fill="none" stroke="#000000" points="348.5,-169.2 348.5,-191.2 448.5,-191.2 448.5,-169.2 348.5,-169.2"/>
<text text-anchor="start" x="351.5" y="-176.9" font-family="Helvetica,sans-Serif" font-size="11.00" fill="#000000">varchar[36]</text>
<polygon fill="none" stroke="#000000" points="239.5,-147.2 239.5,-169.2 348.5,-169.2 348.5,-147.2 239.5,-147.2"/>
<text text-anchor="start" x="259.5" y="-154.3" font-family="Helvetica,sans-Serif" font-size="11.00" fill="#000000">created_date</text>
<polygon fill="none" stroke="#000000" points="348.5,-147.2 348.5,-169.2 448.5,-169.2 448.5,-147.2 348.5,-147.2"/>
<text text-anchor="start" x="351.5" y="-154.9" font-family="Helvetica,sans-Serif" font-size="11.00" fill="#000000">int8[19]</text>
<polygon fill="none" stroke="#000000" points="239.5,-125.2 239.5,-147.2 348.5,-147.2 348.5,-125.2 239.5,-125.2"/>
<text text-anchor="start" x="259.5" y="-132.3" font-family="Helvetica,sans-Serif" font-size="11.00" fill="#000000">user_label</text>
<polygon fill="none" stroke="#000000" points="348.5,-125.2 348.5,-147.2 448.5,-147.2 448.5,-125.2 348.5,-125.2"/>
<text text-anchor="start" x="351.5" y="-132.9" font-family="Helvetica,sans-Serif" font-size="11.00" fill="#000000">varchar[255]</text>
<polygon fill="none" stroke="#000000" points="239.5,-103.2 239.5,-125.2 348.5,-125.2 348.5,-103.2 239.5,-103.2"/>
<text text-anchor="start" x="259.5" y="-110.3" font-family="Helvetica,sans-Serif" font-size="11.00" fill="#000000">secret_data</text>
<polygon fill="none" stroke="#000000" points="348.5,-103.2 348.5,-125.2 448.5,-125.2 448.5,-103.2 348.5,-103.2"/>
<text text-anchor="start" x="351.5" y="-110.9" font-family="Helvetica,sans-Serif" font-size="11.00" fill="#000000">text[2147483647]</text>
<polygon fill="none" stroke="#000000" points="239.5,-81.2 239.5,-103.2 348.5,-103.2 348.5,-81.2 239.5,-81.2"/>
<text text-anchor="start" x="259.5" y="-88.3" font-family="Helvetica,sans-Serif" font-size="11.00" fill="#000000">credential_data</text>
<polygon fill="none" stroke="#000000" points="348.5,-81.2 348.5,-103.2 448.5,-103.2 448.5,-81.2 348.5,-81.2"/>
<text text-anchor="start" x="351.5" y="-88.9" font-family="Helvetica,sans-Serif" font-size="11.00" fill="#000000">text[2147483647]</text>
<polygon fill="none" stroke="#000000" points="239.5,-59.2 239.5,-81.2 348.5,-81.2 348.5,-59.2 239.5,-59.2"/>
<text text-anchor="start" x="259.5" y="-66.3" font-family="Helvetica,sans-Serif" font-size="11.00" fill="#000000">priority</text>
<polygon fill="none" stroke="#000000" points="348.5,-59.2 348.5,-81.2 448.5,-81.2 448.5,-59.2 348.5,-59.2"/>
<text text-anchor="start" x="351.5" y="-66.9" font-family="Helvetica,sans-Serif" font-size="11.00" fill="#000000">int4[10]</text>
<polygon fill="#ffffff" stroke="transparent" points="239.5,-40.2 239.5,-59.2 288.5,-59.2 288.5,-40.2 239.5,-40.2"/>
<polygon fill="none" stroke="#000000" points="239.5,-40.2 239.5,-59.2 288.5,-59.2 288.5,-40.2 239.5,-40.2"/>
<text text-anchor="start" x="242.5" y="-46.3" font-family="Helvetica,sans-Serif" font-size="11.00" fill="#000000">&lt; 1</text>
<polygon fill="#ffffff" stroke="transparent" points="288.5,-40.2 288.5,-59.2 348.5,-59.2 348.5,-40.2 288.5,-40.2"/>
<polygon fill="none" stroke="#000000" points="288.5,-40.2 288.5,-59.2 348.5,-59.2 348.5,-40.2 288.5,-40.2"/>
<text text-anchor="start" x="318.6105" y="-46.3" font-family="Helvetica,sans-Serif" font-size="11.00" fill="#000000">1 row</text>
<polygon fill="#ffffff" stroke="transparent" points="348.5,-40.2 348.5,-59.2 448.5,-59.2 448.5,-40.2 348.5,-40.2"/>
<polygon fill="none" stroke="#000000" points="348.5,-40.2 348.5,-59.2 448.5,-59.2 448.5,-40.2 348.5,-40.2"/>
<text text-anchor="start" x="429.9053" y="-46.3" font-family="Helvetica,sans-Serif" font-size="11.00" fill="#000000">0 &gt;</text>
<polygon fill="none" stroke="#000000" stroke-width="2" points="238,-39.2 238,-281.2 449,-281.2 449,-39.2 238,-39.2"/>
</a>
</g>
</g>
<!-- user_entity -->
<g id="node2" class="node">
<title>user_entity</title>
<g id="a_node2"><a xlink:href="../../tables/user_entity.html" xlink:title="user_entity" target="_top">
<polygon fill="#ffffff" stroke="transparent" points="8,-43.7 8,-214.7 188,-214.7 188,-43.7 8,-43.7"/>
<polygon fill="#f5f5f5" stroke="transparent" points="8,-191.2 8,-214.2 188,-214.2 188,-191.2 8,-191.2"/>
<polygon fill="none" stroke="#000000" points="8,-191.2 8,-214.2 188,-214.2 188,-191.2 8,-191.2"/>
<text text-anchor="start" x="13" y="-200.3" font-family="Helvetica,sans-Serif" font-weight="bold" font-size="11.00" fill="#000000">user_entity</text>
<text text-anchor="start" x="153.0437" y="-199.3" font-family="Helvetica,sans-Serif" font-size="11.00" fill="#000000">[table]</text>
<polygon fill="none" stroke="#000000" points="8,-169.2 8,-191.2 188,-191.2 188,-169.2 8,-169.2"/>
<image xlink:href="../../images/primaryKeys.png" width="11px" height="12px" preserveAspectRatio="xMinYMin meet" x="13" y="-186.2"/>
<text text-anchor="start" x="28" y="-176.3" font-family="Helvetica,sans-Serif" font-size="11.00" fill="#000000">id</text>
<polygon fill="#ffffff" stroke="transparent" points="8,-147.2 8,-169.2 188,-169.2 188,-147.2 8,-147.2"/>
<polygon fill="none" stroke="#000000" points="8,-147.2 8,-169.2 188,-169.2 188,-147.2 8,-147.2"/>
<text text-anchor="start" x="28" y="-154.3" font-family="Helvetica,sans-Serif" font-size="11.00" fill="#000000">email</text>
<polygon fill="#ffffff" stroke="transparent" points="8,-125.2 8,-147.2 188,-147.2 188,-125.2 8,-125.2"/>
<polygon fill="none" stroke="#000000" points="8,-125.2 8,-147.2 188,-147.2 188,-125.2 8,-125.2"/>
<text text-anchor="start" x="28" y="-132.3" font-family="Helvetica,sans-Serif" font-size="11.00" fill="#000000">email_constraint</text>
<polygon fill="#ffffff" stroke="transparent" points="8,-103.2 8,-125.2 188,-125.2 188,-103.2 8,-103.2"/>
<polygon fill="none" stroke="#000000" points="8,-103.2 8,-125.2 188,-125.2 188,-103.2 8,-103.2"/>
<image xlink:href="../../images/foreignKeys.png" width="11px" height="12px" preserveAspectRatio="xMinYMin meet" x="13" y="-120.2"/>
<text text-anchor="start" x="28" y="-110.3" font-family="Helvetica,sans-Serif" font-size="11.00" fill="#000000">realm_id</text>
<polygon fill="#ffffff" stroke="transparent" points="8,-81.2 8,-103.2 188,-103.2 188,-81.2 8,-81.2"/>
<polygon fill="none" stroke="#000000" points="8,-81.2 8,-103.2 188,-103.2 188,-81.2 8,-81.2"/>
<text text-anchor="start" x="28" y="-88.3" font-family="Helvetica,sans-Serif" font-size="11.00" fill="#000000">username</text>
<polygon fill="none" stroke="#000000" points="8,-62.2 8,-81.2 188,-81.2 188,-62.2 8,-62.2"/>
<text text-anchor="start" x="11" y="-68.3" font-family="Helvetica,sans-Serif" font-size="11.00" fill="#000000">...</text>
<polygon fill="#ffffff" stroke="transparent" points="8,-43.2 8,-62.2 77,-62.2 77,-43.2 8,-43.2"/>
<polygon fill="none" stroke="#000000" points="8,-43.2 8,-62.2 77,-62.2 77,-43.2 8,-43.2"/>
<text text-anchor="start" x="11" y="-49.3" font-family="Helvetica,sans-Serif" font-size="11.00" fill="#000000"> &#160;</text>
<polygon fill="#ffffff" stroke="transparent" points="77,-43.2 77,-62.2 138,-62.2 138,-43.2 77,-43.2"/>
<polygon fill="none" stroke="#000000" points="77,-43.2 77,-62.2 138,-62.2 138,-43.2 77,-43.2"/>
<text text-anchor="start" x="108.1105" y="-49.3" font-family="Helvetica,sans-Serif" font-size="11.00" fill="#000000">1 row</text>
<polygon fill="#ffffff" stroke="transparent" points="138,-43.2 138,-62.2 188,-62.2 188,-43.2 138,-43.2"/>
<polygon fill="none" stroke="#000000" points="138,-43.2 138,-62.2 188,-62.2 188,-43.2 138,-43.2"/>
<text text-anchor="start" x="169.4053" y="-49.3" font-family="Helvetica,sans-Serif" font-size="11.00" fill="#000000">7 &gt;</text>
</a>
</g>
</g>
<!-- credential&#45;&gt;user_entity -->
<g id="edge1" class="edge">
<title>credential:w&#45;&gt;user_entity:e</title>
<path fill="none" stroke="#000000" d="M225.0156,-180.2C212.6771,-180.2 205.1667,-180.2 188,-180.2"/>
<polygon fill="#000000" stroke="#000000" points="231.5,-180.2001 239.5,-183.8 235.5,-180.2 239.5,-180.2 239.5,-180.2 239.5,-180.2 235.5,-180.2 239.5,-176.6 231.5,-180.2001 231.5,-180.2001"/>
<ellipse fill="none" stroke="#000000" cx="228.3" cy="-180.2001" rx="3.2" ry="3.2"/>
</g>
</g>
</svg>
