<?xml version="1.0" encoding="UTF-8" standalone="no"?>
<!DOCTYPE svg PUBLIC "-//W3C//DTD SVG 1.1//EN"
 "http://www.w3.org/Graphics/SVG/1.1/DTD/svg11.dtd">
<!-- Generated by graphviz version 2.40.1 (20161225.0304)
 -->
<!-- Title: oneDegreeRelationshipsDiagram Pages: 1 -->
<svg width="245pt" height="404pt"
 viewBox="0.00 0.00 245.00 404.20" xmlns="http://www.w3.org/2000/svg" xmlns:xlink="http://www.w3.org/1999/xlink">
<g id="graph0" class="graph" transform="scale(1 1) rotate(0) translate(4 400.2)">
<title>oneDegreeRelationshipsDiagram</title>
<polygon fill="#ffffff" stroke="transparent" points="-4,4 -4,-400.2 241,-400.2 241,4 -4,4"/>
<text text-anchor="middle" x="72.4936" y="-7.3" font-family="Helvetica,sans-Serif" font-size="11.00" fill="#000000">Generated by SchemaSpy</text>
<!-- databasechangelog -->
<g id="node1" class="node">
<title>databasechangelog</title>
<g id="a_node1"><a xlink:href="../../tables/databasechangelog.html" xlink:title="databasechangelog" target="_top">
<polygon fill="#ffffff" stroke="transparent" points="8,-38.2 8,-392.2 229,-392.2 229,-38.2 8,-38.2"/>
<polygon fill="#f5f5f5" stroke="transparent" points="10.5,-367.2 10.5,-390.2 227.5,-390.2 227.5,-367.2 10.5,-367.2"/>
<polygon fill="none" stroke="#000000" points="10.5,-367.2 10.5,-390.2 227.5,-390.2 227.5,-367.2 10.5,-367.2"/>
<text text-anchor="start" x="15.5" y="-376.3" font-family="Helvetica,sans-Serif" font-weight="bold" font-size="11.00" fill="#000000">databasechangelog</text>
<text text-anchor="start" x="192.5437" y="-375.3" font-family="Helvetica,sans-Serif" font-size="11.00" fill="#000000">[table]</text>
<polygon fill="none" stroke="#000000" points="10.5,-345.2 10.5,-367.2 143.5,-367.2 143.5,-345.2 10.5,-345.2"/>
<image xlink:href="../../images/foreignKeys.png" width="11px" height="12px" preserveAspectRatio="xMinYMin meet" x="15.5" y="-362.2"/>
<text text-anchor="start" x="30.5" y="-352.3" font-family="Helvetica,sans-Serif" font-size="11.00" fill="#000000">id</text>
<polygon fill="none" stroke="#000000" points="143.5,-345.2 143.5,-367.2 227.5,-367.2 227.5,-345.2 143.5,-345.2"/>
<text text-anchor="start" x="146.5" y="-352.9" font-family="Helvetica,sans-Serif" font-size="11.00" fill="#000000">varchar[255]</text>
<polygon fill="none" stroke="#000000" points="10.5,-323.2 10.5,-345.2 143.5,-345.2 143.5,-323.2 10.5,-323.2"/>
<text text-anchor="start" x="30.5" y="-330.3" font-family="Helvetica,sans-Serif" font-size="11.00" fill="#000000">author</text>
<polygon fill="none" stroke="#000000" points="143.5,-323.2 143.5,-345.2 227.5,-345.2 227.5,-323.2 143.5,-323.2"/>
<text text-anchor="start" x="146.5" y="-330.9" font-family="Helvetica,sans-Serif" font-size="11.00" fill="#000000">varchar[255]</text>
<polygon fill="none" stroke="#000000" points="10.5,-301.2 10.5,-323.2 143.5,-323.2 143.5,-301.2 10.5,-301.2"/>
<text text-anchor="start" x="30.5" y="-308.3" font-family="Helvetica,sans-Serif" font-size="11.00" fill="#000000">filename</text>
<polygon fill="none" stroke="#000000" points="143.5,-301.2 143.5,-323.2 227.5,-323.2 227.5,-301.2 143.5,-301.2"/>
<text text-anchor="start" x="146.5" y="-308.9" font-family="Helvetica,sans-Serif" font-size="11.00" fill="#000000">varchar[255]</text>
<polygon fill="none" stroke="#000000" points="10.5,-279.2 10.5,-301.2 143.5,-301.2 143.5,-279.2 10.5,-279.2"/>
<text text-anchor="start" x="30.5" y="-286.3" font-family="Helvetica,sans-Serif" font-size="11.00" fill="#000000">dateexecuted</text>
<polygon fill="none" stroke="#000000" points="143.5,-279.2 143.5,-301.2 227.5,-301.2 227.5,-279.2 143.5,-279.2"/>
<text text-anchor="start" x="146.3807" y="-286.9" font-family="Helvetica,sans-Serif" font-size="11.00" fill="#000000">timestamp[29,6]</text>
<polygon fill="none" stroke="#000000" points="10.5,-257.2 10.5,-279.2 143.5,-279.2 143.5,-257.2 10.5,-257.2"/>
<text text-anchor="start" x="30.5" y="-264.3" font-family="Helvetica,sans-Serif" font-size="11.00" fill="#000000">orderexecuted</text>
<polygon fill="none" stroke="#000000" points="143.5,-257.2 143.5,-279.2 227.5,-279.2 227.5,-257.2 143.5,-257.2"/>
<text text-anchor="start" x="146.5" y="-264.9" font-family="Helvetica,sans-Serif" font-size="11.00" fill="#000000">int4[10]</text>
<polygon fill="none" stroke="#000000" points="10.5,-235.2 10.5,-257.2 143.5,-257.2 143.5,-235.2 10.5,-235.2"/>
<text text-anchor="start" x="30.5" y="-242.3" font-family="Helvetica,sans-Serif" font-size="11.00" fill="#000000">exectype</text>
<polygon fill="none" stroke="#000000" points="143.5,-235.2 143.5,-257.2 227.5,-257.2 227.5,-235.2 143.5,-235.2"/>
<text text-anchor="start" x="146.5" y="-242.9" font-family="Helvetica,sans-Serif" font-size="11.00" fill="#000000">varchar[10]</text>
<polygon fill="none" stroke="#000000" points="10.5,-213.2 10.5,-235.2 143.5,-235.2 143.5,-213.2 10.5,-213.2"/>
<text text-anchor="start" x="30.5" y="-220.3" font-family="Helvetica,sans-Serif" font-size="11.00" fill="#000000">md5sum</text>
<polygon fill="none" stroke="#000000" points="143.5,-213.2 143.5,-235.2 227.5,-235.2 227.5,-213.2 143.5,-213.2"/>
<text text-anchor="start" x="146.5" y="-220.9" font-family="Helvetica,sans-Serif" font-size="11.00" fill="#000000">varchar[35]</text>
<polygon fill="none" stroke="#000000" points="10.5,-191.2 10.5,-213.2 143.5,-213.2 143.5,-191.2 10.5,-191.2"/>
<text text-anchor="start" x="30.5" y="-198.3" font-family="Helvetica,sans-Serif" font-size="11.00" fill="#000000">description</text>
<polygon fill="none" stroke="#000000" points="143.5,-191.2 143.5,-213.2 227.5,-213.2 227.5,-191.2 143.5,-191.2"/>
<text text-anchor="start" x="146.5" y="-198.9" font-family="Helvetica,sans-Serif" font-size="11.00" fill="#000000">varchar[255]</text>
<polygon fill="none" stroke="#000000" points="10.5,-169.2 10.5,-191.2 143.5,-191.2 143.5,-169.2 10.5,-169.2"/>
<text text-anchor="start" x="30.5" y="-176.3" font-family="Helvetica,sans-Serif" font-size="11.00" fill="#000000">comments</text>
<polygon fill="none" stroke="#000000" points="143.5,-169.2 143.5,-191.2 227.5,-191.2 227.5,-169.2 143.5,-169.2"/>
<text text-anchor="start" x="146.5" y="-176.9" font-family="Helvetica,sans-Serif" font-size="11.00" fill="#000000">varchar[255]</text>
<polygon fill="none" stroke="#000000" points="10.5,-147.2 10.5,-169.2 143.5,-169.2 143.5,-147.2 10.5,-147.2"/>
<text text-anchor="start" x="30.5" y="-154.3" font-family="Helvetica,sans-Serif" font-size="11.00" fill="#000000">tag</text>
<polygon fill="none" stroke="#000000" points="143.5,-147.2 143.5,-169.2 227.5,-169.2 227.5,-147.2 143.5,-147.2"/>
<text text-anchor="start" x="146.5" y="-154.9" font-family="Helvetica,sans-Serif" font-size="11.00" fill="#000000">varchar[255]</text>
<polygon fill="none" stroke="#000000" points="10.5,-125.2 10.5,-147.2 143.5,-147.2 143.5,-125.2 10.5,-125.2"/>
<text text-anchor="start" x="30.5" y="-132.3" font-family="Helvetica,sans-Serif" font-size="11.00" fill="#000000">liquibase</text>
<polygon fill="none" stroke="#000000" points="143.5,-125.2 143.5,-147.2 227.5,-147.2 227.5,-125.2 143.5,-125.2"/>
<text text-anchor="start" x="146.5" y="-132.9" font-family="Helvetica,sans-Serif" font-size="11.00" fill="#000000">varchar[20]</text>
<polygon fill="none" stroke="#000000" points="10.5,-103.2 10.5,-125.2 143.5,-125.2 143.5,-103.2 10.5,-103.2"/>
<text text-anchor="start" x="30.5" y="-110.3" font-family="Helvetica,sans-Serif" font-size="11.00" fill="#000000">contexts</text>
<polygon fill="none" stroke="#000000" points="143.5,-103.2 143.5,-125.2 227.5,-125.2 227.5,-103.2 143.5,-103.2"/>
<text text-anchor="start" x="146.5" y="-110.9" font-family="Helvetica,sans-Serif" font-size="11.00" fill="#000000">varchar[255]</text>
<polygon fill="none" stroke="#000000" points="10.5,-81.2 10.5,-103.2 143.5,-103.2 143.5,-81.2 10.5,-81.2"/>
<text text-anchor="start" x="30.5" y="-88.3" font-family="Helvetica,sans-Serif" font-size="11.00" fill="#000000">labels</text>
<polygon fill="none" stroke="#000000" points="143.5,-81.2 143.5,-103.2 227.5,-103.2 227.5,-81.2 143.5,-81.2"/>
<text text-anchor="start" x="146.5" y="-88.9" font-family="Helvetica,sans-Serif" font-size="11.00" fill="#000000">varchar[255]</text>
<polygon fill="none" stroke="#000000" points="10.5,-59.2 10.5,-81.2 143.5,-81.2 143.5,-59.2 10.5,-59.2"/>
<text text-anchor="start" x="30.5" y="-66.3" font-family="Helvetica,sans-Serif" font-size="11.00" fill="#000000">deployment_id</text>
<polygon fill="none" stroke="#000000" points="143.5,-59.2 143.5,-81.2 227.5,-81.2 227.5,-59.2 143.5,-59.2"/>
<text text-anchor="start" x="146.5" y="-66.9" font-family="Helvetica,sans-Serif" font-size="11.00" fill="#000000">varchar[10]</text>
<polygon fill="#ffffff" stroke="transparent" points="10.5,-40.2 10.5,-59.2 65.5,-59.2 65.5,-40.2 10.5,-40.2"/>
<polygon fill="none" stroke="#000000" points="10.5,-40.2 10.5,-59.2 65.5,-59.2 65.5,-40.2 10.5,-40.2"/>
<text text-anchor="start" x="13.5" y="-46.3" font-family="Helvetica,sans-Serif" font-size="11.00" fill="#000000">&lt; 0</text>
<polygon fill="#ffffff" stroke="transparent" points="65.5,-40.2 65.5,-59.2 143.5,-59.2 143.5,-40.2 65.5,-40.2"/>
<polygon fill="none" stroke="#000000" points="65.5,-40.2 65.5,-59.2 143.5,-59.2 143.5,-40.2 65.5,-40.2"/>
<text text-anchor="start" x="101.9956" y="-46.3" font-family="Helvetica,sans-Serif" font-size="11.00" fill="#000000">88 rows</text>
<polygon fill="#ffffff" stroke="transparent" points="143.5,-40.2 143.5,-59.2 227.5,-59.2 227.5,-40.2 143.5,-40.2"/>
<polygon fill="none" stroke="#000000" points="143.5,-40.2 143.5,-59.2 227.5,-59.2 227.5,-40.2 143.5,-40.2"/>
<text text-anchor="start" x="208.9053" y="-46.3" font-family="Helvetica,sans-Serif" font-size="11.00" fill="#000000">0 &gt;</text>
<polygon fill="none" stroke="#000000" stroke-width="2" points="9,-39.2 9,-391.2 228,-391.2 228,-39.2 9,-39.2"/>
</a>
</g>
</g>
</g>
</svg>
