<?xml version="1.0" encoding="UTF-8" standalone="no"?>
<!DOCTYPE svg PUBLIC "-//W3C//DTD SVG 1.1//EN"
 "http://www.w3.org/Graphics/SVG/1.1/DTD/svg11.dtd">
<!-- Generated by graphviz version 2.40.1 (20161225.0304)
 -->
<!-- Title: oneDegreeRelationshipsDiagram Pages: 1 -->
<svg width="643pt" height="219pt"
 viewBox="0.00 0.00 643.00 218.70" xmlns="http://www.w3.org/2000/svg" xmlns:xlink="http://www.w3.org/1999/xlink">
<g id="graph0" class="graph" transform="scale(1 1) rotate(0) translate(4 214.7)">
<title>oneDegreeRelationshipsDiagram</title>
<polygon fill="#ffffff" stroke="transparent" points="-4,4 -4,-214.7 639,-214.7 639,4 -4,4"/>
<text text-anchor="middle" x="72.4936" y="-7.3" font-family="Helvetica,sans-Serif" font-size="11.00" fill="#000000">Generated by SchemaSpy</text>
<!-- client_scope -->
<g id="node1" class="node">
<title>client_scope</title>
<g id="a_node1"><a xlink:href="../../tables/client_scope.html" xlink:title="client_scope" target="_top">
<polygon fill="#ffffff" stroke="transparent" points="270,-38.2 270,-165.2 374,-165.2 374,-38.2 270,-38.2"/>
<polygon fill="#f5f5f5" stroke="transparent" points="270,-141.7 270,-164.7 374,-164.7 374,-141.7 270,-141.7"/>
<polygon fill="none" stroke="#000000" points="270,-141.7 270,-164.7 374,-164.7 374,-141.7 270,-141.7"/>
<text text-anchor="start" x="274.936" y="-150.8" font-family="Helvetica,sans-Serif" font-weight="bold" font-size="11.00" fill="#000000">client_scope</text>
<text text-anchor="start" x="339.5219" y="-149.8" font-family="Helvetica,sans-Serif" font-size="11.00" fill="#000000">[table]</text>
<polygon fill="none" stroke="#000000" points="270,-119.7 270,-141.7 374,-141.7 374,-119.7 270,-119.7"/>
<image xlink:href="../../images/primaryKeys.png" width="11px" height="12px" preserveAspectRatio="xMinYMin meet" x="275" y="-136.7"/>
<text text-anchor="start" x="296" y="-126.8" font-family="Helvetica,sans-Serif" font-size="11.00" fill="#000000">id</text>
<polygon fill="#ffffff" stroke="transparent" points="270,-97.7 270,-119.7 374,-119.7 374,-97.7 270,-97.7"/>
<polygon fill="none" stroke="#000000" points="270,-97.7 270,-119.7 374,-119.7 374,-97.7 270,-97.7"/>
<text text-anchor="start" x="296" y="-104.8" font-family="Helvetica,sans-Serif" font-size="11.00" fill="#000000">name</text>
<polygon fill="#ffffff" stroke="transparent" points="270,-75.7 270,-97.7 374,-97.7 374,-75.7 270,-75.7"/>
<polygon fill="none" stroke="#000000" points="270,-75.7 270,-97.7 374,-97.7 374,-75.7 270,-75.7"/>
<image xlink:href="../../images/foreignKeys.png" width="11px" height="12px" preserveAspectRatio="xMinYMin meet" x="275" y="-92.7"/>
<text text-anchor="start" x="296" y="-82.8" font-family="Helvetica,sans-Serif" font-size="11.00" fill="#000000">realm_id</text>
<polygon fill="none" stroke="#000000" points="270,-56.7 270,-75.7 374,-75.7 374,-56.7 270,-56.7"/>
<text text-anchor="start" x="273" y="-62.8" font-family="Helvetica,sans-Serif" font-size="11.00" fill="#000000">...</text>
<polygon fill="#ffffff" stroke="transparent" points="270,-37.7 270,-56.7 303,-56.7 303,-37.7 270,-37.7"/>
<polygon fill="none" stroke="#000000" points="270,-37.7 270,-56.7 303,-56.7 303,-37.7 270,-37.7"/>
<text text-anchor="start" x="273" y="-43.8" font-family="Helvetica,sans-Serif" font-size="11.00" fill="#000000">&lt; 1</text>
<polygon fill="#ffffff" stroke="transparent" points="303,-37.7 303,-56.7 347,-56.7 347,-37.7 303,-37.7"/>
<polygon fill="none" stroke="#000000" points="303,-37.7 303,-56.7 347,-56.7 347,-37.7 303,-37.7"/>
<text text-anchor="start" x="311.6105" y="-43.8" font-family="Helvetica,sans-Serif" font-size="11.00" fill="#000000">9 rows</text>
<polygon fill="#ffffff" stroke="transparent" points="347,-37.7 347,-56.7 374,-56.7 374,-37.7 347,-37.7"/>
<polygon fill="none" stroke="#000000" points="347,-37.7 347,-56.7 374,-56.7 374,-37.7 347,-37.7"/>
<text text-anchor="start" x="355.4053" y="-43.8" font-family="Helvetica,sans-Serif" font-size="11.00" fill="#000000">5 &gt;</text>
</a>
</g>
</g>
<!-- realm -->
<g id="node2" class="node">
<title>realm</title>
<g id="a_node2"><a xlink:href="../../tables/realm.html" xlink:title="realm" target="_top">
<polygon fill="#ffffff" stroke="transparent" points="8,-45.2 8,-172.2 221,-172.2 221,-45.2 8,-45.2"/>
<polygon fill="#f5f5f5" stroke="transparent" points="8.5,-148.7 8.5,-171.7 221.5,-171.7 221.5,-148.7 8.5,-148.7"/>
<polygon fill="none" stroke="#000000" points="8.5,-148.7 8.5,-171.7 221.5,-171.7 221.5,-148.7 8.5,-148.7"/>
<text text-anchor="start" x="13.5" y="-157.8" font-family="Helvetica,sans-Serif" font-weight="bold" font-size="11.00" fill="#000000">realm</text>
<text text-anchor="start" x="186.5437" y="-156.8" font-family="Helvetica,sans-Serif" font-size="11.00" fill="#000000">[table]</text>
<polygon fill="none" stroke="#000000" points="8.5,-126.7 8.5,-148.7 221.5,-148.7 221.5,-126.7 8.5,-126.7"/>
<image xlink:href="../../images/primaryKeys.png" width="11px" height="12px" preserveAspectRatio="xMinYMin meet" x="13.5" y="-143.7"/>
<text text-anchor="start" x="28.5" y="-133.8" font-family="Helvetica,sans-Serif" font-size="11.00" fill="#000000">id</text>
<polygon fill="#ffffff" stroke="transparent" points="8.5,-104.7 8.5,-126.7 221.5,-126.7 221.5,-104.7 8.5,-104.7"/>
<polygon fill="none" stroke="#000000" points="8.5,-104.7 8.5,-126.7 221.5,-126.7 221.5,-104.7 8.5,-104.7"/>
<text text-anchor="start" x="28.5" y="-111.8" font-family="Helvetica,sans-Serif" font-size="11.00" fill="#000000">name</text>
<polygon fill="#ffffff" stroke="transparent" points="8.5,-82.7 8.5,-104.7 221.5,-104.7 221.5,-82.7 8.5,-82.7"/>
<polygon fill="none" stroke="#000000" points="8.5,-82.7 8.5,-104.7 221.5,-104.7 221.5,-82.7 8.5,-82.7"/>
<text text-anchor="start" x="28.5" y="-89.8" font-family="Helvetica,sans-Serif" font-size="11.00" fill="#000000">master_admin_client</text>
<polygon fill="none" stroke="#000000" points="8.5,-63.7 8.5,-82.7 221.5,-82.7 221.5,-63.7 8.5,-63.7"/>
<text text-anchor="start" x="11.5" y="-69.8" font-family="Helvetica,sans-Serif" font-size="11.00" fill="#000000">...</text>
<polygon fill="#ffffff" stroke="transparent" points="8.5,-44.7 8.5,-63.7 91.5,-63.7 91.5,-44.7 8.5,-44.7"/>
<polygon fill="none" stroke="#000000" points="8.5,-44.7 8.5,-63.7 91.5,-63.7 91.5,-44.7 8.5,-44.7"/>
<text text-anchor="start" x="11.5" y="-50.8" font-family="Helvetica,sans-Serif" font-size="11.00" fill="#000000"> &#160;</text>
<polygon fill="#ffffff" stroke="transparent" points="91.5,-44.7 91.5,-63.7 158.5,-63.7 158.5,-44.7 91.5,-44.7"/>
<polygon fill="none" stroke="#000000" points="91.5,-44.7 91.5,-63.7 158.5,-63.7 158.5,-44.7 91.5,-44.7"/>
<text text-anchor="start" x="128.6105" y="-50.8" font-family="Helvetica,sans-Serif" font-size="11.00" fill="#000000">1 row</text>
<polygon fill="#ffffff" stroke="transparent" points="158.5,-44.7 158.5,-63.7 221.5,-63.7 221.5,-44.7 158.5,-44.7"/>
<polygon fill="none" stroke="#000000" points="158.5,-44.7 158.5,-63.7 221.5,-63.7 221.5,-44.7 158.5,-44.7"/>
<text text-anchor="start" x="196.7904" y="-50.8" font-family="Helvetica,sans-Serif" font-size="11.00" fill="#000000">23 &gt;</text>
</a>
</g>
</g>
<!-- client_scope&#45;&gt;realm -->
<g id="edge1" class="edge">
<title>client_scope:w&#45;&gt;realm:e</title>
<path fill="none" stroke="#000000" d="M256.1851,-91.7765C242.4827,-104.6764 246.6704,-137.7 221.5,-137.7"/>
<polygon fill="#000000" stroke="#000000" points="262.4909,-89.4594 271.2417,-90.0791 266.2455,-88.0797 270,-86.7 270,-86.7 270,-86.7 266.2455,-88.0797 268.7583,-83.3209 262.4909,-89.4594 262.4909,-89.4594"/>
<ellipse fill="none" stroke="#000000" cx="259.4873" cy="-90.5631" rx="3.2" ry="3.2"/>
</g>
<!-- default_client_scope -->
<g id="node3" class="node">
<title>default_client_scope</title>
<g id="a_node3"><a xlink:href="../../tables/default_client_scope.html" xlink:title="default_client_scope" target="_top">
<polygon fill="#ffffff" stroke="transparent" points="423,-94.7 423,-206.7 627,-206.7 627,-94.7 423,-94.7"/>
<polygon fill="#f5f5f5" stroke="transparent" points="425,-181.7 425,-204.7 625,-204.7 625,-181.7 425,-181.7"/>
<polygon fill="none" stroke="#000000" points="425,-181.7 425,-204.7 625,-204.7 625,-181.7 425,-181.7"/>
<text text-anchor="start" x="430" y="-190.8" font-family="Helvetica,sans-Serif" font-weight="bold" font-size="11.00" fill="#000000">default_client_scope</text>
<text text-anchor="start" x="590.0437" y="-189.8" font-family="Helvetica,sans-Serif" font-size="11.00" fill="#000000">[table]</text>
<polygon fill="none" stroke="#000000" points="425,-159.7 425,-181.7 564,-181.7 564,-159.7 425,-159.7"/>
<image xlink:href="../../images/primaryKeys.png" width="11px" height="12px" preserveAspectRatio="xMinYMin meet" x="430" y="-176.7"/>
<text text-anchor="start" x="445" y="-166.8" font-family="Helvetica,sans-Serif" font-size="11.00" fill="#000000">realm_id</text>
<polygon fill="none" stroke="#000000" points="564,-159.7 564,-181.7 625,-181.7 625,-159.7 564,-159.7"/>
<text text-anchor="start" x="566.994" y="-167.4" font-family="Helvetica,sans-Serif" font-size="11.00" fill="#000000">varchar[36]</text>
<polygon fill="none" stroke="#000000" points="425,-137.7 425,-159.7 564,-159.7 564,-137.7 425,-137.7"/>
<image xlink:href="../../images/primaryKeys.png" width="11px" height="12px" preserveAspectRatio="xMinYMin meet" x="430" y="-154.7"/>
<text text-anchor="start" x="445" y="-144.8" font-family="Helvetica,sans-Serif" font-size="11.00" fill="#000000">scope_id</text>
<polygon fill="none" stroke="#000000" points="564,-137.7 564,-159.7 625,-159.7 625,-137.7 564,-137.7"/>
<text text-anchor="start" x="566.994" y="-145.4" font-family="Helvetica,sans-Serif" font-size="11.00" fill="#000000">varchar[36]</text>
<polygon fill="none" stroke="#000000" points="425,-115.7 425,-137.7 564,-137.7 564,-115.7 425,-115.7"/>
<text text-anchor="start" x="445" y="-122.8" font-family="Helvetica,sans-Serif" font-size="11.00" fill="#000000">default_scope</text>
<polygon fill="none" stroke="#000000" points="564,-115.7 564,-137.7 625,-137.7 625,-115.7 564,-115.7"/>
<text text-anchor="start" x="567" y="-123.4" font-family="Helvetica,sans-Serif" font-size="11.00" fill="#000000">bool[1]</text>
<polygon fill="#ffffff" stroke="transparent" points="425,-96.7 425,-115.7 486,-115.7 486,-96.7 425,-96.7"/>
<polygon fill="none" stroke="#000000" points="425,-96.7 425,-115.7 486,-115.7 486,-96.7 425,-96.7"/>
<text text-anchor="start" x="428" y="-102.8" font-family="Helvetica,sans-Serif" font-size="11.00" fill="#000000">&lt; 2</text>
<polygon fill="#ffffff" stroke="transparent" points="486,-96.7 486,-115.7 564,-115.7 564,-96.7 486,-96.7"/>
<polygon fill="none" stroke="#000000" points="486,-96.7 486,-115.7 564,-115.7 564,-96.7 486,-96.7"/>
<text text-anchor="start" x="528.6105" y="-102.8" font-family="Helvetica,sans-Serif" font-size="11.00" fill="#000000">9 rows</text>
<polygon fill="#ffffff" stroke="transparent" points="564,-96.7 564,-115.7 625,-115.7 625,-96.7 564,-96.7"/>
<polygon fill="none" stroke="#000000" points="564,-96.7 564,-115.7 625,-115.7 625,-96.7 564,-96.7"/>
<text text-anchor="start" x="606.4053" y="-102.8" font-family="Helvetica,sans-Serif" font-size="11.00" fill="#000000">0 &gt;</text>
<polygon fill="none" stroke="#000000" stroke-width="2" points="424,-95.7 424,-205.7 626,-205.7 626,-95.7 424,-95.7"/>
</a>
</g>
</g>
<!-- default_client_scope&#45;&gt;client_scope -->
<g id="edge3" class="edge">
<title>default_client_scope:w&#45;&gt;client_scope:e</title>
<path fill="none" stroke="#000000" d="M410.6506,-146.044C398.3075,-141.037 392.2155,-130.7 374,-130.7"/>
<polygon fill="#000000" stroke="#000000" points="417.1336,-147.2439 424.3448,-152.2399 421.0668,-147.972 425,-148.7 425,-148.7 425,-148.7 421.0668,-147.972 425.6552,-145.1601 417.1336,-147.2439 417.1336,-147.2439"/>
<ellipse fill="none" stroke="#000000" cx="413.9871" cy="-146.6615" rx="3.2" ry="3.2"/>
</g>
<!-- default_client_scope&#45;&gt;realm -->
<g id="edge2" class="edge">
<title>default_client_scope:w&#45;&gt;realm:e</title>
<path fill="none" stroke="#000000" d="M410.3701,-171.6355C401.4837,-172.8585 395.2053,-174.9348 382,-175.7 328.756,-178.7852 311.5922,-195.3229 262,-175.7 239.0487,-166.6185 246.1827,-137.7 221.5,-137.7"/>
<polygon fill="#000000" stroke="#000000" points="417.0163,-171.2106 425.2298,-174.2927 421.0082,-170.9553 425,-170.7 425,-170.7 425,-170.7 421.0082,-170.9553 424.7702,-167.1073 417.0163,-171.2106 417.0163,-171.2106"/>
<ellipse fill="none" stroke="#000000" cx="413.8228" cy="-171.4148" rx="3.2" ry="3.2"/>
</g>
</g>
</svg>
