<?xml version="1.0" encoding="UTF-8" standalone="no"?>
<!DOCTYPE svg PUBLIC "-//W3C//DTD SVG 1.1//EN"
 "http://www.w3.org/Graphics/SVG/1.1/DTD/svg11.dtd">
<!-- Generated by graphviz version 2.40.1 (20161225.0304)
 -->
<!-- Title: twoDegreesRelationshipsDiagram Pages: 1 -->
<svg width="720pt" height="1827pt"
 viewBox="0.00 0.00 720.00 1826.71" xmlns="http://www.w3.org/2000/svg" xmlns:xlink="http://www.w3.org/1999/xlink">
<g id="graph0" class="graph" transform="scale(1 1) rotate(0) translate(4 1822.7088)">
<title>twoDegreesRelationshipsDiagram</title>
<polygon fill="#ffffff" stroke="transparent" points="-4,4 -4,-1822.7088 716,-1822.7088 716,4 -4,4"/>
<text text-anchor="middle" x="72.4936" y="-7.3" font-family="Helvetica,sans-Serif" font-size="11.00" fill="#000000">Generated by SchemaSpy</text>
<!-- authentication_execution -->
<g id="node1" class="node">
<title>authentication_execution</title>
<g id="a_node1"><a xlink:href="../../tables/authentication_execution.html" xlink:title="authentication_execution" target="_top">
<polygon fill="#ffffff" stroke="transparent" points="520,-1727.7088 520,-1788.7088 684,-1788.7088 684,-1727.7088 520,-1727.7088"/>
<polygon fill="#f5f5f5" stroke="transparent" points="520,-1765.2088 520,-1788.2088 684,-1788.2088 684,-1765.2088 520,-1765.2088"/>
<polygon fill="none" stroke="#000000" points="520,-1765.2088 520,-1788.2088 684,-1788.2088 684,-1765.2088 520,-1765.2088"/>
<text text-anchor="start" x="524.6706" y="-1774.3088" font-family="Helvetica,sans-Serif" font-weight="bold" font-size="11.00" fill="#000000">authentication_execution</text>
<text text-anchor="start" x="649.5219" y="-1773.3088" font-family="Helvetica,sans-Serif" font-size="11.00" fill="#000000">[table]</text>
<polygon fill="none" stroke="#000000" points="520,-1746.2088 520,-1765.2088 684,-1765.2088 684,-1746.2088 520,-1746.2088"/>
<text text-anchor="start" x="523" y="-1752.3088" font-family="Helvetica,sans-Serif" font-size="11.00" fill="#000000">...</text>
<polygon fill="#ffffff" stroke="transparent" points="520,-1727.2088 520,-1746.2088 584,-1746.2088 584,-1727.2088 520,-1727.2088"/>
<polygon fill="none" stroke="#000000" points="520,-1727.2088 520,-1746.2088 584,-1746.2088 584,-1727.2088 520,-1727.2088"/>
<text text-anchor="start" x="523" y="-1733.3088" font-family="Helvetica,sans-Serif" font-size="11.00" fill="#000000">&lt; 2</text>
<polygon fill="#ffffff" stroke="transparent" points="584,-1727.2088 584,-1746.2088 650,-1746.2088 650,-1727.2088 584,-1727.2088"/>
<polygon fill="none" stroke="#000000" points="584,-1727.2088 584,-1746.2088 650,-1746.2088 650,-1727.2088 584,-1727.2088"/>
<text text-anchor="start" x="608.4956" y="-1733.3088" font-family="Helvetica,sans-Serif" font-size="11.00" fill="#000000">47 rows</text>
<polygon fill="#ffffff" stroke="transparent" points="650,-1727.2088 650,-1746.2088 684,-1746.2088 684,-1727.2088 650,-1727.2088"/>
<polygon fill="none" stroke="#000000" points="650,-1727.2088 650,-1746.2088 684,-1746.2088 684,-1727.2088 650,-1727.2088"/>
<text text-anchor="start" x="674.8862" y="-1733.3088" font-family="Helvetica,sans-Serif" font-size="11.00" fill="#000000"> &#160;</text>
</a>
</g>
</g>
<!-- authentication_flow -->
<g id="node2" class="node">
<title>authentication_flow</title>
<g id="a_node2"><a xlink:href="../../tables/authentication_flow.html" xlink:title="authentication_flow" target="_top">
<polygon fill="#ffffff" stroke="transparent" points="292,-1753.7088 292,-1814.7088 429,-1814.7088 429,-1753.7088 292,-1753.7088"/>
<polygon fill="#f5f5f5" stroke="transparent" points="292.5,-1791.2088 292.5,-1814.2088 429.5,-1814.2088 429.5,-1791.2088 292.5,-1791.2088"/>
<polygon fill="none" stroke="#000000" points="292.5,-1791.2088 292.5,-1814.2088 429.5,-1814.2088 429.5,-1791.2088 292.5,-1791.2088"/>
<text text-anchor="start" x="297.4299" y="-1800.3088" font-family="Helvetica,sans-Serif" font-weight="bold" font-size="11.00" fill="#000000">authentication_flow</text>
<text text-anchor="start" x="395.0219" y="-1799.3088" font-family="Helvetica,sans-Serif" font-size="11.00" fill="#000000">[table]</text>
<polygon fill="none" stroke="#000000" points="292.5,-1772.2088 292.5,-1791.2088 429.5,-1791.2088 429.5,-1772.2088 292.5,-1772.2088"/>
<text text-anchor="start" x="295.5" y="-1778.3088" font-family="Helvetica,sans-Serif" font-size="11.00" fill="#000000">...</text>
<polygon fill="#ffffff" stroke="transparent" points="292.5,-1753.2088 292.5,-1772.2088 338.5,-1772.2088 338.5,-1753.2088 292.5,-1753.2088"/>
<polygon fill="none" stroke="#000000" points="292.5,-1753.2088 292.5,-1772.2088 338.5,-1772.2088 338.5,-1753.2088 292.5,-1753.2088"/>
<text text-anchor="start" x="295.5" y="-1759.3088" font-family="Helvetica,sans-Serif" font-size="11.00" fill="#000000">&lt; 1</text>
<polygon fill="#ffffff" stroke="transparent" points="338.5,-1753.2088 338.5,-1772.2088 395.5,-1772.2088 395.5,-1753.2088 338.5,-1753.2088"/>
<polygon fill="none" stroke="#000000" points="338.5,-1753.2088 338.5,-1772.2088 395.5,-1772.2088 395.5,-1753.2088 338.5,-1753.2088"/>
<text text-anchor="start" x="353.9956" y="-1759.3088" font-family="Helvetica,sans-Serif" font-size="11.00" fill="#000000">20 rows</text>
<polygon fill="#ffffff" stroke="transparent" points="395.5,-1753.2088 395.5,-1772.2088 429.5,-1772.2088 429.5,-1753.2088 395.5,-1753.2088"/>
<polygon fill="none" stroke="#000000" points="395.5,-1753.2088 395.5,-1772.2088 429.5,-1772.2088 429.5,-1753.2088 395.5,-1753.2088"/>
<text text-anchor="start" x="410.9053" y="-1759.3088" font-family="Helvetica,sans-Serif" font-size="11.00" fill="#000000">1 &gt;</text>
</a>
</g>
</g>
<!-- authentication_execution&#45;&gt;authentication_flow -->
<g id="edge1" class="edge">
<title>authentication_execution:w&#45;&gt;authentication_flow:e</title>
<path fill="none" stroke="#000000" d="M505.4131,-1756.3935C475.8149,-1761.4799 465.9546,-1781.2088 429.5,-1781.2088"/>
<polygon fill="#000000" stroke="#000000" points="512.0263,-1755.8564 520.2915,-1758.797 516.0131,-1755.5326 520,-1755.2088 520,-1755.2088 520,-1755.2088 516.0131,-1755.5326 519.7085,-1751.6206 512.0263,-1755.8564 512.0263,-1755.8564"/>
<ellipse fill="none" stroke="#000000" cx="508.8368" cy="-1756.1155" rx="3.2" ry="3.2"/>
</g>
<!-- realm -->
<g id="node3" class="node">
<title>realm</title>
<g id="a_node3"><a xlink:href="../../tables/realm.html" xlink:title="realm" target="_top">
<polygon fill="#ffffff" stroke="transparent" points="8,-828.7088 8,-955.7088 221,-955.7088 221,-828.7088 8,-828.7088"/>
<polygon fill="#f5f5f5" stroke="transparent" points="8.5,-932.2088 8.5,-955.2088 221.5,-955.2088 221.5,-932.2088 8.5,-932.2088"/>
<polygon fill="none" stroke="#000000" points="8.5,-932.2088 8.5,-955.2088 221.5,-955.2088 221.5,-932.2088 8.5,-932.2088"/>
<text text-anchor="start" x="13.5" y="-941.3088" font-family="Helvetica,sans-Serif" font-weight="bold" font-size="11.00" fill="#000000">realm</text>
<text text-anchor="start" x="186.5437" y="-940.3088" font-family="Helvetica,sans-Serif" font-size="11.00" fill="#000000">[table]</text>
<polygon fill="none" stroke="#000000" points="8.5,-910.2088 8.5,-932.2088 221.5,-932.2088 221.5,-910.2088 8.5,-910.2088"/>
<image xlink:href="../../images/primaryKeys.png" width="11px" height="12px" preserveAspectRatio="xMinYMin meet" x="13.5" y="-927.209"/>
<text text-anchor="start" x="28.5" y="-917.3088" font-family="Helvetica,sans-Serif" font-size="11.00" fill="#000000">id</text>
<polygon fill="#ffffff" stroke="transparent" points="8.5,-888.2088 8.5,-910.2088 221.5,-910.2088 221.5,-888.2088 8.5,-888.2088"/>
<polygon fill="none" stroke="#000000" points="8.5,-888.2088 8.5,-910.2088 221.5,-910.2088 221.5,-888.2088 8.5,-888.2088"/>
<text text-anchor="start" x="28.5" y="-895.3088" font-family="Helvetica,sans-Serif" font-size="11.00" fill="#000000">name</text>
<polygon fill="#ffffff" stroke="transparent" points="8.5,-866.2088 8.5,-888.2088 221.5,-888.2088 221.5,-866.2088 8.5,-866.2088"/>
<polygon fill="none" stroke="#000000" points="8.5,-866.2088 8.5,-888.2088 221.5,-888.2088 221.5,-866.2088 8.5,-866.2088"/>
<text text-anchor="start" x="28.5" y="-873.3088" font-family="Helvetica,sans-Serif" font-size="11.00" fill="#000000">master_admin_client</text>
<polygon fill="none" stroke="#000000" points="8.5,-847.2088 8.5,-866.2088 221.5,-866.2088 221.5,-847.2088 8.5,-847.2088"/>
<text text-anchor="start" x="11.5" y="-853.3088" font-family="Helvetica,sans-Serif" font-size="11.00" fill="#000000">...</text>
<polygon fill="#ffffff" stroke="transparent" points="8.5,-828.2088 8.5,-847.2088 91.5,-847.2088 91.5,-828.2088 8.5,-828.2088"/>
<polygon fill="none" stroke="#000000" points="8.5,-828.2088 8.5,-847.2088 91.5,-847.2088 91.5,-828.2088 8.5,-828.2088"/>
<text text-anchor="start" x="11.5" y="-834.3088" font-family="Helvetica,sans-Serif" font-size="11.00" fill="#000000"> &#160;</text>
<polygon fill="#ffffff" stroke="transparent" points="91.5,-828.2088 91.5,-847.2088 158.5,-847.2088 158.5,-828.2088 91.5,-828.2088"/>
<polygon fill="none" stroke="#000000" points="91.5,-828.2088 91.5,-847.2088 158.5,-847.2088 158.5,-828.2088 91.5,-828.2088"/>
<text text-anchor="start" x="128.6105" y="-834.3088" font-family="Helvetica,sans-Serif" font-size="11.00" fill="#000000">1 row</text>
<polygon fill="#ffffff" stroke="transparent" points="158.5,-828.2088 158.5,-847.2088 221.5,-847.2088 221.5,-828.2088 158.5,-828.2088"/>
<polygon fill="none" stroke="#000000" points="158.5,-828.2088 158.5,-847.2088 221.5,-847.2088 221.5,-828.2088 158.5,-828.2088"/>
<text text-anchor="start" x="196.7904" y="-834.3088" font-family="Helvetica,sans-Serif" font-size="11.00" fill="#000000">23 &gt;</text>
</a>
</g>
</g>
<!-- authentication_execution&#45;&gt;realm -->
<g id="edge2" class="edge">
<title>authentication_execution:w&#45;&gt;realm:e</title>
<path fill="none" stroke="#000000" d="M505.4671,-1754.3795C489.0092,-1752.3221 480.7093,-1746.8842 459,-1743.2088 415.4027,-1735.8276 291.8249,-1747.8536 262,-1715.2088 202.4168,-1649.9918 309.8369,-921.2088 221.5,-921.2088"/>
<polygon fill="#000000" stroke="#000000" points="512.013,-1754.753 519.7949,-1758.8029 516.0065,-1754.9809 520,-1755.2088 520,-1755.2088 520,-1755.2088 516.0065,-1754.9809 520.2051,-1751.6146 512.013,-1754.753 512.013,-1754.753"/>
<ellipse fill="none" stroke="#000000" cx="508.8182" cy="-1754.5707" rx="3.2" ry="3.2"/>
</g>
<!-- authentication_flow&#45;&gt;realm -->
<g id="edge3" class="edge">
<title>authentication_flow:w&#45;&gt;realm:e</title>
<path fill="none" stroke="#000000" d="M278.4648,-1777.2751C268.9985,-1770.3483 267.6303,-1755.1874 262,-1739.2088 246.8787,-1696.2948 267.0001,-921.2088 221.5,-921.2088"/>
<polygon fill="#000000" stroke="#000000" points="284.7968,-1779.0498 291.5284,-1784.6752 288.6484,-1780.1293 292.5,-1781.2088 292.5,-1781.2088 292.5,-1781.2088 288.6484,-1780.1293 293.4716,-1777.7423 284.7968,-1779.0498 284.7968,-1779.0498"/>
<ellipse fill="none" stroke="#000000" cx="281.7156" cy="-1778.1862" rx="3.2" ry="3.2"/>
</g>
<!-- authenticator_config -->
<g id="node4" class="node">
<title>authenticator_config</title>
<g id="a_node4"><a xlink:href="../../tables/authenticator_config.html" xlink:title="authenticator_config" target="_top">
<polygon fill="#ffffff" stroke="transparent" points="289.5,-1643.7088 289.5,-1704.7088 431.5,-1704.7088 431.5,-1643.7088 289.5,-1643.7088"/>
<polygon fill="#f5f5f5" stroke="transparent" points="289.5,-1681.2088 289.5,-1704.2088 431.5,-1704.2088 431.5,-1681.2088 289.5,-1681.2088"/>
<polygon fill="none" stroke="#000000" points="289.5,-1681.2088 289.5,-1704.2088 431.5,-1704.2088 431.5,-1681.2088 289.5,-1681.2088"/>
<text text-anchor="start" x="294.4824" y="-1690.3088" font-family="Helvetica,sans-Serif" font-weight="bold" font-size="11.00" fill="#000000">authenticator_config</text>
<text text-anchor="start" x="397.0219" y="-1689.3088" font-family="Helvetica,sans-Serif" font-size="11.00" fill="#000000">[table]</text>
<polygon fill="none" stroke="#000000" points="289.5,-1662.2088 289.5,-1681.2088 431.5,-1681.2088 431.5,-1662.2088 289.5,-1662.2088"/>
<text text-anchor="start" x="292.5" y="-1668.3088" font-family="Helvetica,sans-Serif" font-size="11.00" fill="#000000">...</text>
<polygon fill="#ffffff" stroke="transparent" points="289.5,-1643.2088 289.5,-1662.2088 345.5,-1662.2088 345.5,-1643.2088 289.5,-1643.2088"/>
<polygon fill="none" stroke="#000000" points="289.5,-1643.2088 289.5,-1662.2088 345.5,-1662.2088 345.5,-1643.2088 289.5,-1643.2088"/>
<text text-anchor="start" x="292.5" y="-1649.3088" font-family="Helvetica,sans-Serif" font-size="11.00" fill="#000000">&lt; 1</text>
<polygon fill="#ffffff" stroke="transparent" points="345.5,-1643.2088 345.5,-1662.2088 401.5,-1662.2088 401.5,-1643.2088 345.5,-1643.2088"/>
<polygon fill="none" stroke="#000000" points="345.5,-1643.2088 345.5,-1662.2088 401.5,-1662.2088 401.5,-1643.2088 345.5,-1643.2088"/>
<text text-anchor="start" x="366.1105" y="-1649.3088" font-family="Helvetica,sans-Serif" font-size="11.00" fill="#000000">2 rows</text>
<polygon fill="#ffffff" stroke="transparent" points="401.5,-1643.2088 401.5,-1662.2088 431.5,-1662.2088 431.5,-1643.2088 401.5,-1643.2088"/>
<polygon fill="none" stroke="#000000" points="401.5,-1643.2088 401.5,-1662.2088 431.5,-1662.2088 431.5,-1643.2088 401.5,-1643.2088"/>
<text text-anchor="start" x="422.3862" y="-1649.3088" font-family="Helvetica,sans-Serif" font-size="11.00" fill="#000000"> &#160;</text>
</a>
</g>
</g>
<!-- authenticator_config&#45;&gt;realm -->
<g id="edge4" class="edge">
<title>authenticator_config:w&#45;&gt;realm:e</title>
<path fill="none" stroke="#000000" d="M275.787,-1666.8017C268.2048,-1660.1958 266.9109,-1647.02 262,-1633.2088 248.7264,-1595.8789 261.1195,-921.2088 221.5,-921.2088"/>
<polygon fill="#000000" stroke="#000000" points="281.8837,-1668.761 288.3985,-1674.6361 285.6918,-1669.9849 289.5,-1671.2088 289.5,-1671.2088 289.5,-1671.2088 285.6918,-1669.9849 290.6015,-1667.7814 281.8837,-1668.761 281.8837,-1668.761"/>
<ellipse fill="none" stroke="#000000" cx="278.8371" cy="-1667.7819" rx="3.2" ry="3.2"/>
</g>
<!-- client -->
<g id="node5" class="node">
<title>client</title>
<g id="a_node5"><a xlink:href="../../tables/client.html" xlink:title="client" target="_top">
<polygon fill="#ffffff" stroke="transparent" points="320.5,-1561.7088 320.5,-1622.7088 400.5,-1622.7088 400.5,-1561.7088 320.5,-1561.7088"/>
<polygon fill="#f5f5f5" stroke="transparent" points="320.5,-1599.2088 320.5,-1622.2088 400.5,-1622.2088 400.5,-1599.2088 320.5,-1599.2088"/>
<polygon fill="none" stroke="#000000" points="320.5,-1599.2088 320.5,-1622.2088 400.5,-1622.2088 400.5,-1599.2088 320.5,-1599.2088"/>
<text text-anchor="start" x="325.5" y="-1608.3088" font-family="Helvetica,sans-Serif" font-weight="bold" font-size="11.00" fill="#000000">client</text>
<text text-anchor="start" x="365.5437" y="-1607.3088" font-family="Helvetica,sans-Serif" font-size="11.00" fill="#000000">[table]</text>
<polygon fill="none" stroke="#000000" points="320.5,-1580.2088 320.5,-1599.2088 400.5,-1599.2088 400.5,-1580.2088 320.5,-1580.2088"/>
<text text-anchor="start" x="323.5" y="-1586.3088" font-family="Helvetica,sans-Serif" font-size="11.00" fill="#000000">...</text>
<polygon fill="#ffffff" stroke="transparent" points="320.5,-1561.2088 320.5,-1580.2088 341.5,-1580.2088 341.5,-1561.2088 320.5,-1561.2088"/>
<polygon fill="none" stroke="#000000" points="320.5,-1561.2088 320.5,-1580.2088 341.5,-1580.2088 341.5,-1561.2088 320.5,-1561.2088"/>
<text text-anchor="start" x="323.2027" y="-1567.3088" font-family="Helvetica,sans-Serif" font-size="11.00" fill="#000000">&lt; 1</text>
<polygon fill="#ffffff" stroke="transparent" points="341.5,-1561.2088 341.5,-1580.2088 379.5,-1580.2088 379.5,-1561.2088 341.5,-1561.2088"/>
<polygon fill="none" stroke="#000000" points="341.5,-1561.2088 341.5,-1580.2088 379.5,-1580.2088 379.5,-1561.2088 341.5,-1561.2088"/>
<text text-anchor="start" x="344.3053" y="-1567.3088" font-family="Helvetica,sans-Serif" font-size="11.00" fill="#000000">6 rows</text>
<polygon fill="#ffffff" stroke="transparent" points="379.5,-1561.2088 379.5,-1580.2088 400.5,-1580.2088 400.5,-1561.2088 379.5,-1561.2088"/>
<polygon fill="none" stroke="#000000" points="379.5,-1561.2088 379.5,-1580.2088 400.5,-1580.2088 400.5,-1561.2088 379.5,-1561.2088"/>
<text text-anchor="start" x="382.2027" y="-1567.3088" font-family="Helvetica,sans-Serif" font-size="11.00" fill="#000000">8 &gt;</text>
</a>
</g>
</g>
<!-- client&#45;&gt;realm -->
<g id="edge5" class="edge">
<title>client:w&#45;&gt;realm:e</title>
<path fill="none" stroke="#000000" d="M306.0956,-1588.1908C285.3143,-1584.8862 274.9676,-1573.3684 262,-1551.2088 226.5723,-1490.6684 291.6445,-921.2088 221.5,-921.2088"/>
<polygon fill="#000000" stroke="#000000" points="312.5199,-1588.6448 320.2462,-1592.7998 316.51,-1588.9268 320.5,-1589.2088 320.5,-1589.2088 320.5,-1589.2088 316.51,-1588.9268 320.7538,-1585.6177 312.5199,-1588.6448 312.5199,-1588.6448"/>
<ellipse fill="none" stroke="#000000" cx="309.3279" cy="-1588.4192" rx="3.2" ry="3.2"/>
</g>
<!-- client_initial_access -->
<g id="node6" class="node">
<title>client_initial_access</title>
<g id="a_node6"><a xlink:href="../../tables/client_initial_access.html" xlink:title="client_initial_access" target="_top">
<polygon fill="#ffffff" stroke="transparent" points="290.5,-1479.7088 290.5,-1540.7088 430.5,-1540.7088 430.5,-1479.7088 290.5,-1479.7088"/>
<polygon fill="#f5f5f5" stroke="transparent" points="290.5,-1517.2088 290.5,-1540.2088 430.5,-1540.2088 430.5,-1517.2088 290.5,-1517.2088"/>
<polygon fill="none" stroke="#000000" points="290.5,-1517.2088 290.5,-1540.2088 430.5,-1540.2088 430.5,-1517.2088 290.5,-1517.2088"/>
<text text-anchor="start" x="295.4108" y="-1526.3088" font-family="Helvetica,sans-Serif" font-weight="bold" font-size="11.00" fill="#000000">client_initial_access</text>
<text text-anchor="start" x="396.0219" y="-1525.3088" font-family="Helvetica,sans-Serif" font-size="11.00" fill="#000000">[table]</text>
<polygon fill="none" stroke="#000000" points="290.5,-1498.2088 290.5,-1517.2088 430.5,-1517.2088 430.5,-1498.2088 290.5,-1498.2088"/>
<text text-anchor="start" x="293.5" y="-1504.3088" font-family="Helvetica,sans-Serif" font-size="11.00" fill="#000000">...</text>
<polygon fill="#ffffff" stroke="transparent" points="290.5,-1479.2088 290.5,-1498.2088 345.5,-1498.2088 345.5,-1479.2088 290.5,-1479.2088"/>
<polygon fill="none" stroke="#000000" points="290.5,-1479.2088 290.5,-1498.2088 345.5,-1498.2088 345.5,-1479.2088 290.5,-1479.2088"/>
<text text-anchor="start" x="293.5" y="-1485.3088" font-family="Helvetica,sans-Serif" font-size="11.00" fill="#000000">&lt; 1</text>
<polygon fill="#ffffff" stroke="transparent" points="345.5,-1479.2088 345.5,-1498.2088 400.5,-1498.2088 400.5,-1479.2088 345.5,-1479.2088"/>
<polygon fill="none" stroke="#000000" points="345.5,-1479.2088 345.5,-1498.2088 400.5,-1498.2088 400.5,-1479.2088 345.5,-1479.2088"/>
<text text-anchor="start" x="365.1105" y="-1485.3088" font-family="Helvetica,sans-Serif" font-size="11.00" fill="#000000">0 rows</text>
<polygon fill="#ffffff" stroke="transparent" points="400.5,-1479.2088 400.5,-1498.2088 430.5,-1498.2088 430.5,-1479.2088 400.5,-1479.2088"/>
<polygon fill="none" stroke="#000000" points="400.5,-1479.2088 400.5,-1498.2088 430.5,-1498.2088 430.5,-1479.2088 400.5,-1479.2088"/>
<text text-anchor="start" x="421.3862" y="-1485.3088" font-family="Helvetica,sans-Serif" font-size="11.00" fill="#000000"> &#160;</text>
</a>
</g>
</g>
<!-- client_initial_access&#45;&gt;realm -->
<g id="edge6" class="edge">
<title>client_initial_access:w&#45;&gt;realm:e</title>
<path fill="none" stroke="#000000" d="M276.538,-1502.825C268.7465,-1496.2481 267.2101,-1483.1081 262,-1469.2088 240.5699,-1412.0384 282.5549,-921.2088 221.5,-921.2088"/>
<polygon fill="#000000" stroke="#000000" points="282.8674,-1504.8123 289.4216,-1510.6435 286.6837,-1506.0105 290.5,-1507.2088 290.5,-1507.2088 290.5,-1507.2088 286.6837,-1506.0105 291.5784,-1503.7741 282.8674,-1504.8123 282.8674,-1504.8123"/>
<ellipse fill="none" stroke="#000000" cx="279.8143" cy="-1503.8536" rx="3.2" ry="3.2"/>
</g>
<!-- client_scope -->
<g id="node7" class="node">
<title>client_scope</title>
<g id="a_node7"><a xlink:href="../../tables/client_scope.html" xlink:title="client_scope" target="_top">
<polygon fill="#ffffff" stroke="transparent" points="308.5,-1331.7088 308.5,-1458.7088 412.5,-1458.7088 412.5,-1331.7088 308.5,-1331.7088"/>
<polygon fill="#f5f5f5" stroke="transparent" points="308.5,-1435.2088 308.5,-1458.2088 412.5,-1458.2088 412.5,-1435.2088 308.5,-1435.2088"/>
<polygon fill="none" stroke="#000000" points="308.5,-1435.2088 308.5,-1458.2088 412.5,-1458.2088 412.5,-1435.2088 308.5,-1435.2088"/>
<text text-anchor="start" x="313.436" y="-1444.3088" font-family="Helvetica,sans-Serif" font-weight="bold" font-size="11.00" fill="#000000">client_scope</text>
<text text-anchor="start" x="378.0219" y="-1443.3088" font-family="Helvetica,sans-Serif" font-size="11.00" fill="#000000">[table]</text>
<polygon fill="none" stroke="#000000" points="308.5,-1413.2088 308.5,-1435.2088 412.5,-1435.2088 412.5,-1413.2088 308.5,-1413.2088"/>
<image xlink:href="../../images/primaryKeys.png" width="11px" height="12px" preserveAspectRatio="xMinYMin meet" x="313.5" y="-1430.21"/>
<text text-anchor="start" x="334.5" y="-1420.3088" font-family="Helvetica,sans-Serif" font-size="11.00" fill="#000000">id</text>
<polygon fill="#ffffff" stroke="transparent" points="308.5,-1391.2088 308.5,-1413.2088 412.5,-1413.2088 412.5,-1391.2088 308.5,-1391.2088"/>
<polygon fill="none" stroke="#000000" points="308.5,-1391.2088 308.5,-1413.2088 412.5,-1413.2088 412.5,-1391.2088 308.5,-1391.2088"/>
<text text-anchor="start" x="334.5" y="-1398.3088" font-family="Helvetica,sans-Serif" font-size="11.00" fill="#000000">name</text>
<polygon fill="#ffffff" stroke="transparent" points="308.5,-1369.2088 308.5,-1391.2088 412.5,-1391.2088 412.5,-1369.2088 308.5,-1369.2088"/>
<polygon fill="none" stroke="#000000" points="308.5,-1369.2088 308.5,-1391.2088 412.5,-1391.2088 412.5,-1369.2088 308.5,-1369.2088"/>
<image xlink:href="../../images/foreignKeys.png" width="11px" height="12px" preserveAspectRatio="xMinYMin meet" x="313.5" y="-1386.21"/>
<text text-anchor="start" x="334.5" y="-1376.3088" font-family="Helvetica,sans-Serif" font-size="11.00" fill="#000000">realm_id</text>
<polygon fill="none" stroke="#000000" points="308.5,-1350.2088 308.5,-1369.2088 412.5,-1369.2088 412.5,-1350.2088 308.5,-1350.2088"/>
<text text-anchor="start" x="311.5" y="-1356.3088" font-family="Helvetica,sans-Serif" font-size="11.00" fill="#000000">...</text>
<polygon fill="#ffffff" stroke="transparent" points="308.5,-1331.2088 308.5,-1350.2088 341.5,-1350.2088 341.5,-1331.2088 308.5,-1331.2088"/>
<polygon fill="none" stroke="#000000" points="308.5,-1331.2088 308.5,-1350.2088 341.5,-1350.2088 341.5,-1331.2088 308.5,-1331.2088"/>
<text text-anchor="start" x="311.5" y="-1337.3088" font-family="Helvetica,sans-Serif" font-size="11.00" fill="#000000">&lt; 1</text>
<polygon fill="#ffffff" stroke="transparent" points="341.5,-1331.2088 341.5,-1350.2088 385.5,-1350.2088 385.5,-1331.2088 341.5,-1331.2088"/>
<polygon fill="none" stroke="#000000" points="341.5,-1331.2088 341.5,-1350.2088 385.5,-1350.2088 385.5,-1331.2088 341.5,-1331.2088"/>
<text text-anchor="start" x="350.1105" y="-1337.3088" font-family="Helvetica,sans-Serif" font-size="11.00" fill="#000000">9 rows</text>
<polygon fill="#ffffff" stroke="transparent" points="385.5,-1331.2088 385.5,-1350.2088 412.5,-1350.2088 412.5,-1331.2088 385.5,-1331.2088"/>
<polygon fill="none" stroke="#000000" points="385.5,-1331.2088 385.5,-1350.2088 412.5,-1350.2088 412.5,-1331.2088 385.5,-1331.2088"/>
<text text-anchor="start" x="393.9053" y="-1337.3088" font-family="Helvetica,sans-Serif" font-size="11.00" fill="#000000">5 &gt;</text>
</a>
</g>
</g>
<!-- client_scope&#45;&gt;realm -->
<g id="edge7" class="edge">
<title>client_scope:w&#45;&gt;realm:e</title>
<path fill="none" stroke="#000000" d="M294.2393,-1377.954C274.5753,-1370.7049 272.4118,-1346.9631 262,-1321.2088 245.2569,-1279.7935 266.1717,-921.2088 221.5,-921.2088"/>
<polygon fill="#000000" stroke="#000000" points="300.5982,-1378.9594 307.9378,-1383.7646 304.5491,-1379.5841 308.5,-1380.2088 308.5,-1380.2088 308.5,-1380.2088 304.5491,-1379.5841 309.0622,-1376.6529 300.5982,-1378.9594 300.5982,-1378.9594"/>
<ellipse fill="none" stroke="#000000" cx="297.4374" cy="-1378.4596" rx="3.2" ry="3.2"/>
</g>
<!-- client_scope_attributes -->
<g id="node8" class="node">
<title>client_scope_attributes</title>
<g id="a_node8"><a xlink:href="../../tables/client_scope_attributes.html" xlink:title="client_scope_attributes" target="_top">
<polygon fill="#ffffff" stroke="transparent" points="524.5,-1314.7088 524.5,-1375.7088 679.5,-1375.7088 679.5,-1314.7088 524.5,-1314.7088"/>
<polygon fill="#f5f5f5" stroke="transparent" points="525,-1352.2088 525,-1375.2088 680,-1375.2088 680,-1352.2088 525,-1352.2088"/>
<polygon fill="none" stroke="#000000" points="525,-1352.2088 525,-1375.2088 680,-1375.2088 680,-1352.2088 525,-1352.2088"/>
<text text-anchor="start" x="529.762" y="-1361.3088" font-family="Helvetica,sans-Serif" font-weight="bold" font-size="11.00" fill="#000000">client_scope_attributes</text>
<text text-anchor="start" x="645.5219" y="-1360.3088" font-family="Helvetica,sans-Serif" font-size="11.00" fill="#000000">[table]</text>
<polygon fill="none" stroke="#000000" points="525,-1333.2088 525,-1352.2088 680,-1352.2088 680,-1333.2088 525,-1333.2088"/>
<text text-anchor="start" x="528" y="-1339.3088" font-family="Helvetica,sans-Serif" font-size="11.00" fill="#000000">...</text>
<polygon fill="#ffffff" stroke="transparent" points="525,-1314.2088 525,-1333.2088 585,-1333.2088 585,-1314.2088 525,-1314.2088"/>
<polygon fill="none" stroke="#000000" points="525,-1314.2088 525,-1333.2088 585,-1333.2088 585,-1314.2088 525,-1314.2088"/>
<text text-anchor="start" x="528" y="-1320.3088" font-family="Helvetica,sans-Serif" font-size="11.00" fill="#000000">&lt; 1</text>
<polygon fill="#ffffff" stroke="transparent" points="585,-1314.2088 585,-1333.2088 648,-1333.2088 648,-1314.2088 585,-1314.2088"/>
<polygon fill="none" stroke="#000000" points="585,-1314.2088 585,-1333.2088 648,-1333.2088 648,-1314.2088 585,-1314.2088"/>
<text text-anchor="start" x="606.4956" y="-1320.3088" font-family="Helvetica,sans-Serif" font-size="11.00" fill="#000000">24 rows</text>
<polygon fill="#ffffff" stroke="transparent" points="648,-1314.2088 648,-1333.2088 680,-1333.2088 680,-1314.2088 648,-1314.2088"/>
<polygon fill="none" stroke="#000000" points="648,-1314.2088 648,-1333.2088 680,-1333.2088 680,-1314.2088 648,-1314.2088"/>
<text text-anchor="start" x="670.8862" y="-1320.3088" font-family="Helvetica,sans-Serif" font-size="11.00" fill="#000000"> &#160;</text>
</a>
</g>
</g>
<!-- client_scope_attributes&#45;&gt;client_scope -->
<g id="edge8" class="edge">
<title>client_scope_attributes:w&#45;&gt;client_scope:e</title>
<path fill="none" stroke="#000000" d="M510.5757,-1343.9215C464.5203,-1355.6969 469.0553,-1424.2088 412.5,-1424.2088"/>
<polygon fill="#000000" stroke="#000000" points="517.0558,-1343.1521 525.4245,-1345.7837 521.0279,-1342.6804 525,-1342.2088 525,-1342.2088 525,-1342.2088 521.0279,-1342.6804 524.5755,-1338.6339 517.0558,-1343.1521 517.0558,-1343.1521"/>
<ellipse fill="none" stroke="#000000" cx="513.8781" cy="-1343.5294" rx="3.2" ry="3.2"/>
</g>
<!-- client_scope_client -->
<g id="node9" class="node">
<title>client_scope_client</title>
<g id="a_node9"><a xlink:href="../../tables/client_scope_client.html" xlink:title="client_scope_client" target="_top">
<polygon fill="#ffffff" stroke="transparent" points="534.5,-1479.7088 534.5,-1540.7088 669.5,-1540.7088 669.5,-1479.7088 534.5,-1479.7088"/>
<polygon fill="#f5f5f5" stroke="transparent" points="535,-1517.2088 535,-1540.2088 670,-1540.2088 670,-1517.2088 535,-1517.2088"/>
<polygon fill="none" stroke="#000000" points="535,-1517.2088 535,-1540.2088 670,-1540.2088 670,-1517.2088 535,-1517.2088"/>
<text text-anchor="start" x="539.5443" y="-1526.3088" font-family="Helvetica,sans-Serif" font-weight="bold" font-size="11.00" fill="#000000">client_scope_client</text>
<text text-anchor="start" x="635.5219" y="-1525.3088" font-family="Helvetica,sans-Serif" font-size="11.00" fill="#000000">[table]</text>
<polygon fill="none" stroke="#000000" points="535,-1498.2088 535,-1517.2088 670,-1517.2088 670,-1498.2088 535,-1498.2088"/>
<text text-anchor="start" x="538" y="-1504.3088" font-family="Helvetica,sans-Serif" font-size="11.00" fill="#000000">...</text>
<polygon fill="#ffffff" stroke="transparent" points="535,-1479.2088 535,-1498.2088 585,-1498.2088 585,-1479.2088 535,-1479.2088"/>
<polygon fill="none" stroke="#000000" points="535,-1479.2088 535,-1498.2088 585,-1498.2088 585,-1479.2088 535,-1479.2088"/>
<text text-anchor="start" x="538" y="-1485.3088" font-family="Helvetica,sans-Serif" font-size="11.00" fill="#000000">&lt; 2</text>
<polygon fill="#ffffff" stroke="transparent" points="585,-1479.2088 585,-1498.2088 643,-1498.2088 643,-1479.2088 585,-1479.2088"/>
<polygon fill="none" stroke="#000000" points="585,-1479.2088 585,-1498.2088 643,-1498.2088 643,-1479.2088 585,-1479.2088"/>
<text text-anchor="start" x="601.4956" y="-1485.3088" font-family="Helvetica,sans-Serif" font-size="11.00" fill="#000000">54 rows</text>
<polygon fill="#ffffff" stroke="transparent" points="643,-1479.2088 643,-1498.2088 670,-1498.2088 670,-1479.2088 643,-1479.2088"/>
<polygon fill="none" stroke="#000000" points="643,-1479.2088 643,-1498.2088 670,-1498.2088 670,-1479.2088 643,-1479.2088"/>
<text text-anchor="start" x="660.8862" y="-1485.3088" font-family="Helvetica,sans-Serif" font-size="11.00" fill="#000000"> &#160;</text>
</a>
</g>
</g>
<!-- client_scope_client&#45;&gt;client -->
<g id="edge9" class="edge">
<title>client_scope_client:w&#45;&gt;client:e</title>
<path fill="none" stroke="#000000" d="M520.598,-1508.4968C465.3924,-1518.929 465.3151,-1589.2088 400.5,-1589.2088"/>
<polygon fill="#000000" stroke="#000000" points="527.0318,-1507.9214 535.3207,-1510.7945 531.0159,-1507.5651 535,-1507.2088 535,-1507.2088 535,-1507.2088 531.0159,-1507.5651 534.6793,-1503.6231 527.0318,-1507.9214 527.0318,-1507.9214"/>
<ellipse fill="none" stroke="#000000" cx="523.8445" cy="-1508.2065" rx="3.2" ry="3.2"/>
</g>
<!-- client_scope_client&#45;&gt;client_scope -->
<g id="edge10" class="edge">
<title>client_scope_client:w&#45;&gt;client_scope:e</title>
<path fill="none" stroke="#000000" d="M520.5631,-1505.6973C470.2018,-1494.448 472.9983,-1424.2088 412.5,-1424.2088"/>
<polygon fill="#000000" stroke="#000000" points="527.0435,-1506.3757 534.6251,-1510.7892 531.0217,-1506.7922 535,-1507.2088 535,-1507.2088 535,-1507.2088 531.0217,-1506.7922 535.3749,-1503.6283 527.0435,-1506.3757 527.0435,-1506.3757"/>
<ellipse fill="none" stroke="#000000" cx="523.8609" cy="-1506.0425" rx="3.2" ry="3.2"/>
</g>
<!-- client_scope_role_mapping -->
<g id="node10" class="node">
<title>client_scope_role_mapping</title>
<g id="a_node10"><a xlink:href="../../tables/client_scope_role_mapping.html" xlink:title="client_scope_role_mapping" target="_top">
<polygon fill="#ffffff" stroke="transparent" points="514,-1396.7088 514,-1457.7088 690,-1457.7088 690,-1396.7088 514,-1396.7088"/>
<polygon fill="#f5f5f5" stroke="transparent" points="514,-1434.2088 514,-1457.2088 690,-1457.2088 690,-1434.2088 514,-1434.2088"/>
<polygon fill="none" stroke="#000000" points="514,-1434.2088 514,-1457.2088 690,-1457.2088 690,-1434.2088 514,-1434.2088"/>
<text text-anchor="start" x="518.5661" y="-1443.3088" font-family="Helvetica,sans-Serif" font-weight="bold" font-size="11.00" fill="#000000">client_scope_role_mapping</text>
<text text-anchor="start" x="655.5219" y="-1442.3088" font-family="Helvetica,sans-Serif" font-size="11.00" fill="#000000">[table]</text>
<polygon fill="none" stroke="#000000" points="514,-1415.2088 514,-1434.2088 690,-1434.2088 690,-1415.2088 514,-1415.2088"/>
<text text-anchor="start" x="517" y="-1421.3088" font-family="Helvetica,sans-Serif" font-size="11.00" fill="#000000">...</text>
<polygon fill="#ffffff" stroke="transparent" points="514,-1396.2088 514,-1415.2088 590,-1415.2088 590,-1396.2088 514,-1396.2088"/>
<polygon fill="none" stroke="#000000" points="514,-1396.2088 514,-1415.2088 590,-1415.2088 590,-1396.2088 514,-1396.2088"/>
<text text-anchor="start" x="517" y="-1402.3088" font-family="Helvetica,sans-Serif" font-size="11.00" fill="#000000">&lt; 1</text>
<polygon fill="#ffffff" stroke="transparent" points="590,-1396.2088 590,-1415.2088 650,-1415.2088 650,-1396.2088 590,-1396.2088"/>
<polygon fill="none" stroke="#000000" points="590,-1396.2088 590,-1415.2088 650,-1415.2088 650,-1396.2088 590,-1396.2088"/>
<text text-anchor="start" x="620.1105" y="-1402.3088" font-family="Helvetica,sans-Serif" font-size="11.00" fill="#000000">1 row</text>
<polygon fill="#ffffff" stroke="transparent" points="650,-1396.2088 650,-1415.2088 690,-1415.2088 690,-1396.2088 650,-1396.2088"/>
<polygon fill="none" stroke="#000000" points="650,-1396.2088 650,-1415.2088 690,-1415.2088 690,-1396.2088 650,-1396.2088"/>
<text text-anchor="start" x="680.8862" y="-1402.3088" font-family="Helvetica,sans-Serif" font-size="11.00" fill="#000000"> &#160;</text>
</a>
</g>
</g>
<!-- client_scope_role_mapping&#45;&gt;client_scope -->
<g id="edge11" class="edge">
<title>client_scope_role_mapping:w&#45;&gt;client_scope:e</title>
<path fill="none" stroke="#000000" d="M499.4256,-1424.2088C465.781,-1424.2088 452.3247,-1424.2088 412.5,-1424.2088"/>
<polygon fill="#000000" stroke="#000000" points="506,-1424.2088 514,-1427.8088 510,-1424.2088 514,-1424.2088 514,-1424.2088 514,-1424.2088 510,-1424.2088 514,-1420.6088 506,-1424.2088 506,-1424.2088"/>
<ellipse fill="none" stroke="#000000" cx="502.8" cy="-1424.2088" rx="3.2" ry="3.2"/>
</g>
<!-- component -->
<g id="node11" class="node">
<title>component</title>
<g id="a_node11"><a xlink:href="../../tables/component.html" xlink:title="component" target="_top">
<polygon fill="#ffffff" stroke="transparent" points="312,-1249.7088 312,-1310.7088 409,-1310.7088 409,-1249.7088 312,-1249.7088"/>
<polygon fill="#f5f5f5" stroke="transparent" points="312.5,-1287.2088 312.5,-1310.2088 409.5,-1310.2088 409.5,-1287.2088 312.5,-1287.2088"/>
<polygon fill="none" stroke="#000000" points="312.5,-1287.2088 312.5,-1310.2088 409.5,-1310.2088 409.5,-1287.2088 312.5,-1287.2088"/>
<text text-anchor="start" x="317.2959" y="-1296.3088" font-family="Helvetica,sans-Serif" font-weight="bold" font-size="11.00" fill="#000000">component</text>
<text text-anchor="start" x="375.0219" y="-1295.3088" font-family="Helvetica,sans-Serif" font-size="11.00" fill="#000000">[table]</text>
<polygon fill="none" stroke="#000000" points="312.5,-1268.2088 312.5,-1287.2088 409.5,-1287.2088 409.5,-1268.2088 312.5,-1268.2088"/>
<text text-anchor="start" x="315.5" y="-1274.3088" font-family="Helvetica,sans-Serif" font-size="11.00" fill="#000000">...</text>
<polygon fill="#ffffff" stroke="transparent" points="312.5,-1249.2088 312.5,-1268.2088 341.5,-1268.2088 341.5,-1249.2088 312.5,-1249.2088"/>
<polygon fill="none" stroke="#000000" points="312.5,-1249.2088 312.5,-1268.2088 341.5,-1268.2088 341.5,-1249.2088 312.5,-1249.2088"/>
<text text-anchor="start" x="315.5" y="-1255.3088" font-family="Helvetica,sans-Serif" font-size="11.00" fill="#000000">&lt; 1</text>
<polygon fill="#ffffff" stroke="transparent" points="341.5,-1249.2088 341.5,-1268.2088 383.5,-1268.2088 383.5,-1249.2088 341.5,-1249.2088"/>
<polygon fill="none" stroke="#000000" points="341.5,-1249.2088 341.5,-1268.2088 383.5,-1268.2088 383.5,-1249.2088 341.5,-1249.2088"/>
<text text-anchor="start" x="348.1105" y="-1255.3088" font-family="Helvetica,sans-Serif" font-size="11.00" fill="#000000">9 rows</text>
<polygon fill="#ffffff" stroke="transparent" points="383.5,-1249.2088 383.5,-1268.2088 409.5,-1268.2088 409.5,-1249.2088 383.5,-1249.2088"/>
<polygon fill="none" stroke="#000000" points="383.5,-1249.2088 383.5,-1268.2088 409.5,-1268.2088 409.5,-1249.2088 383.5,-1249.2088"/>
<text text-anchor="start" x="390.9053" y="-1255.3088" font-family="Helvetica,sans-Serif" font-size="11.00" fill="#000000">1 &gt;</text>
</a>
</g>
</g>
<!-- component&#45;&gt;realm -->
<g id="edge12" class="edge">
<title>component:w&#45;&gt;realm:e</title>
<path fill="none" stroke="#000000" d="M297.9478,-1275.4551C280.2846,-1270.5879 273.3717,-1255.8938 262,-1235.2088 228.106,-1173.5554 291.8558,-921.2088 221.5,-921.2088"/>
<polygon fill="#000000" stroke="#000000" points="304.5575,-1276.2516 312.0693,-1280.7829 308.5287,-1276.7302 312.5,-1277.2088 312.5,-1277.2088 312.5,-1277.2088 308.5287,-1276.7302 312.9307,-1273.6346 304.5575,-1276.2516 304.5575,-1276.2516"/>
<ellipse fill="none" stroke="#000000" cx="301.3804" cy="-1275.8687" rx="3.2" ry="3.2"/>
</g>
<!-- default_client_scope -->
<g id="node12" class="node">
<title>default_client_scope</title>
<g id="a_node12"><a xlink:href="../../tables/default_client_scope.html" xlink:title="default_client_scope" target="_top">
<polygon fill="#ffffff" stroke="transparent" points="500,-1165.2088 500,-1277.2088 704,-1277.2088 704,-1165.2088 500,-1165.2088"/>
<polygon fill="#f5f5f5" stroke="transparent" points="502,-1252.2088 502,-1275.2088 702,-1275.2088 702,-1252.2088 502,-1252.2088"/>
<polygon fill="none" stroke="#000000" points="502,-1252.2088 502,-1275.2088 702,-1275.2088 702,-1252.2088 502,-1252.2088"/>
<text text-anchor="start" x="507" y="-1261.3088" font-family="Helvetica,sans-Serif" font-weight="bold" font-size="11.00" fill="#000000">default_client_scope</text>
<text text-anchor="start" x="667.0437" y="-1260.3088" font-family="Helvetica,sans-Serif" font-size="11.00" fill="#000000">[table]</text>
<polygon fill="none" stroke="#000000" points="502,-1230.2088 502,-1252.2088 641,-1252.2088 641,-1230.2088 502,-1230.2088"/>
<image xlink:href="../../images/primaryKeys.png" width="11px" height="12px" preserveAspectRatio="xMinYMin meet" x="507" y="-1247.21"/>
<text text-anchor="start" x="522" y="-1237.3088" font-family="Helvetica,sans-Serif" font-size="11.00" fill="#000000">realm_id</text>
<polygon fill="none" stroke="#000000" points="641,-1230.2088 641,-1252.2088 702,-1252.2088 702,-1230.2088 641,-1230.2088"/>
<text text-anchor="start" x="643.994" y="-1237.9088" font-family="Helvetica,sans-Serif" font-size="11.00" fill="#000000">varchar[36]</text>
<polygon fill="none" stroke="#000000" points="502,-1208.2088 502,-1230.2088 641,-1230.2088 641,-1208.2088 502,-1208.2088"/>
<image xlink:href="../../images/primaryKeys.png" width="11px" height="12px" preserveAspectRatio="xMinYMin meet" x="507" y="-1225.21"/>
<text text-anchor="start" x="522" y="-1215.3088" font-family="Helvetica,sans-Serif" font-size="11.00" fill="#000000">scope_id</text>
<polygon fill="none" stroke="#000000" points="641,-1208.2088 641,-1230.2088 702,-1230.2088 702,-1208.2088 641,-1208.2088"/>
<text text-anchor="start" x="643.994" y="-1215.9088" font-family="Helvetica,sans-Serif" font-size="11.00" fill="#000000">varchar[36]</text>
<polygon fill="none" stroke="#000000" points="502,-1186.2088 502,-1208.2088 641,-1208.2088 641,-1186.2088 502,-1186.2088"/>
<text text-anchor="start" x="522" y="-1193.3088" font-family="Helvetica,sans-Serif" font-size="11.00" fill="#000000">default_scope</text>
<polygon fill="none" stroke="#000000" points="641,-1186.2088 641,-1208.2088 702,-1208.2088 702,-1186.2088 641,-1186.2088"/>
<text text-anchor="start" x="644" y="-1193.9088" font-family="Helvetica,sans-Serif" font-size="11.00" fill="#000000">bool[1]</text>
<polygon fill="#ffffff" stroke="transparent" points="502,-1167.2088 502,-1186.2088 563,-1186.2088 563,-1167.2088 502,-1167.2088"/>
<polygon fill="none" stroke="#000000" points="502,-1167.2088 502,-1186.2088 563,-1186.2088 563,-1167.2088 502,-1167.2088"/>
<text text-anchor="start" x="505" y="-1173.3088" font-family="Helvetica,sans-Serif" font-size="11.00" fill="#000000">&lt; 2</text>
<polygon fill="#ffffff" stroke="transparent" points="563,-1167.2088 563,-1186.2088 641,-1186.2088 641,-1167.2088 563,-1167.2088"/>
<polygon fill="none" stroke="#000000" points="563,-1167.2088 563,-1186.2088 641,-1186.2088 641,-1167.2088 563,-1167.2088"/>
<text text-anchor="start" x="605.6105" y="-1173.3088" font-family="Helvetica,sans-Serif" font-size="11.00" fill="#000000">9 rows</text>
<polygon fill="#ffffff" stroke="transparent" points="641,-1167.2088 641,-1186.2088 702,-1186.2088 702,-1167.2088 641,-1167.2088"/>
<polygon fill="none" stroke="#000000" points="641,-1167.2088 641,-1186.2088 702,-1186.2088 702,-1167.2088 641,-1167.2088"/>
<text text-anchor="start" x="683.4053" y="-1173.3088" font-family="Helvetica,sans-Serif" font-size="11.00" fill="#000000">0 &gt;</text>
<polygon fill="none" stroke="#000000" stroke-width="2" points="501,-1166.2088 501,-1276.2088 703,-1276.2088 703,-1166.2088 501,-1166.2088"/>
</a>
</g>
</g>
<!-- default_client_scope&#45;&gt;realm -->
<g id="edge13" class="edge">
<title>default_client_scope:w&#45;&gt;realm:e</title>
<path fill="none" stroke="#000000" d="M487.5366,-1240.2514C436.066,-1236.0913 270.3361,-1219.4256 262,-1211.2088 215.6585,-1165.53 286.5699,-921.2088 221.5,-921.2088"/>
<polygon fill="#000000" stroke="#000000" points="494.0175,-1240.6803 501.7622,-1244.8009 498.0087,-1240.9446 502,-1241.2088 502,-1241.2088 502,-1241.2088 498.0087,-1240.9446 502.2378,-1237.6166 494.0175,-1240.6803 494.0175,-1240.6803"/>
<ellipse fill="none" stroke="#000000" cx="490.8245" cy="-1240.469" rx="3.2" ry="3.2"/>
</g>
<!-- default_client_scope&#45;&gt;client_scope -->
<g id="edge14" class="edge">
<title>default_client_scope:w&#45;&gt;client_scope:e</title>
<path fill="none" stroke="#000000" d="M487.6029,-1221.4428C458.242,-1232.3848 476.3725,-1281.4029 459,-1321.2088 438.9095,-1367.2423 462.7266,-1424.2088 412.5,-1424.2088"/>
<polygon fill="#000000" stroke="#000000" points="494.0946,-1220.4355 502.552,-1222.7662 498.0473,-1219.8221 502,-1219.2088 502,-1219.2088 502,-1219.2088 498.0473,-1219.8221 501.448,-1215.6513 494.0946,-1220.4355 494.0946,-1220.4355"/>
<ellipse fill="none" stroke="#000000" cx="490.9325" cy="-1220.9262" rx="3.2" ry="3.2"/>
</g>
<!-- identity_provider -->
<g id="node13" class="node">
<title>identity_provider</title>
<g id="a_node13"><a xlink:href="../../tables/identity_provider.html" xlink:title="identity_provider" target="_top">
<polygon fill="#ffffff" stroke="transparent" points="299,-1139.7088 299,-1200.7088 422,-1200.7088 422,-1139.7088 299,-1139.7088"/>
<polygon fill="#f5f5f5" stroke="transparent" points="299.5,-1177.2088 299.5,-1200.2088 422.5,-1200.2088 422.5,-1177.2088 299.5,-1177.2088"/>
<polygon fill="none" stroke="#000000" points="299.5,-1177.2088 299.5,-1200.2088 422.5,-1200.2088 422.5,-1177.2088 299.5,-1177.2088"/>
<text text-anchor="start" x="304.1603" y="-1186.3088" font-family="Helvetica,sans-Serif" font-weight="bold" font-size="11.00" fill="#000000">identity_provider</text>
<text text-anchor="start" x="388.0219" y="-1185.3088" font-family="Helvetica,sans-Serif" font-size="11.00" fill="#000000">[table]</text>
<polygon fill="none" stroke="#000000" points="299.5,-1158.2088 299.5,-1177.2088 422.5,-1177.2088 422.5,-1158.2088 299.5,-1158.2088"/>
<text text-anchor="start" x="302.5" y="-1164.3088" font-family="Helvetica,sans-Serif" font-size="11.00" fill="#000000">...</text>
<polygon fill="#ffffff" stroke="transparent" points="299.5,-1139.2088 299.5,-1158.2088 341.5,-1158.2088 341.5,-1139.2088 299.5,-1139.2088"/>
<polygon fill="none" stroke="#000000" points="299.5,-1139.2088 299.5,-1158.2088 341.5,-1158.2088 341.5,-1139.2088 299.5,-1139.2088"/>
<text text-anchor="start" x="302.5" y="-1145.3088" font-family="Helvetica,sans-Serif" font-size="11.00" fill="#000000">&lt; 1</text>
<polygon fill="#ffffff" stroke="transparent" points="341.5,-1139.2088 341.5,-1158.2088 390.5,-1158.2088 390.5,-1139.2088 341.5,-1139.2088"/>
<polygon fill="none" stroke="#000000" points="341.5,-1139.2088 341.5,-1158.2088 390.5,-1158.2088 390.5,-1139.2088 341.5,-1139.2088"/>
<text text-anchor="start" x="355.1105" y="-1145.3088" font-family="Helvetica,sans-Serif" font-size="11.00" fill="#000000">0 rows</text>
<polygon fill="#ffffff" stroke="transparent" points="390.5,-1139.2088 390.5,-1158.2088 422.5,-1158.2088 422.5,-1139.2088 390.5,-1139.2088"/>
<polygon fill="none" stroke="#000000" points="390.5,-1139.2088 390.5,-1158.2088 422.5,-1158.2088 422.5,-1139.2088 390.5,-1139.2088"/>
<text text-anchor="start" x="403.9053" y="-1145.3088" font-family="Helvetica,sans-Serif" font-size="11.00" fill="#000000">1 &gt;</text>
</a>
</g>
</g>
<!-- identity_provider&#45;&gt;realm -->
<g id="edge15" class="edge">
<title>identity_provider:w&#45;&gt;realm:e</title>
<path fill="none" stroke="#000000" d="M285.1876,-1164.2224C273.8994,-1158.4533 270.3051,-1144.9479 262,-1129.2088 240.0236,-1087.5611 268.5903,-921.2088 221.5,-921.2088"/>
<polygon fill="#000000" stroke="#000000" points="291.6687,-1165.5746 298.7646,-1170.7329 295.5843,-1166.3917 299.5,-1167.2088 299.5,-1167.2088 299.5,-1167.2088 295.5843,-1166.3917 300.2354,-1163.6847 291.6687,-1165.5746 291.6687,-1165.5746"/>
<ellipse fill="none" stroke="#000000" cx="288.5361" cy="-1164.921" rx="3.2" ry="3.2"/>
</g>
<!-- identity_provider_mapper -->
<g id="node14" class="node">
<title>identity_provider_mapper</title>
<g id="a_node14"><a xlink:href="../../tables/identity_provider_mapper.html" xlink:title="identity_provider_mapper" target="_top">
<polygon fill="#ffffff" stroke="transparent" points="277,-1057.7088 277,-1118.7088 444,-1118.7088 444,-1057.7088 277,-1057.7088"/>
<polygon fill="#f5f5f5" stroke="transparent" points="277.5,-1095.2088 277.5,-1118.2088 444.5,-1118.2088 444.5,-1095.2088 277.5,-1095.2088"/>
<polygon fill="none" stroke="#000000" points="277.5,-1095.2088 277.5,-1118.2088 444.5,-1118.2088 444.5,-1095.2088 277.5,-1095.2088"/>
<text text-anchor="start" x="282.4611" y="-1104.3088" font-family="Helvetica,sans-Serif" font-weight="bold" font-size="11.00" fill="#000000">identity_provider_mapper</text>
<text text-anchor="start" x="410.0219" y="-1103.3088" font-family="Helvetica,sans-Serif" font-size="11.00" fill="#000000">[table]</text>
<polygon fill="none" stroke="#000000" points="277.5,-1076.2088 277.5,-1095.2088 444.5,-1095.2088 444.5,-1076.2088 277.5,-1076.2088"/>
<text text-anchor="start" x="280.5" y="-1082.3088" font-family="Helvetica,sans-Serif" font-size="11.00" fill="#000000">...</text>
<polygon fill="#ffffff" stroke="transparent" points="277.5,-1057.2088 277.5,-1076.2088 341.5,-1076.2088 341.5,-1057.2088 277.5,-1057.2088"/>
<polygon fill="none" stroke="#000000" points="277.5,-1057.2088 277.5,-1076.2088 341.5,-1076.2088 341.5,-1057.2088 277.5,-1057.2088"/>
<text text-anchor="start" x="280.5" y="-1063.3088" font-family="Helvetica,sans-Serif" font-size="11.00" fill="#000000">&lt; 1</text>
<polygon fill="#ffffff" stroke="transparent" points="341.5,-1057.2088 341.5,-1076.2088 401.5,-1076.2088 401.5,-1057.2088 341.5,-1057.2088"/>
<polygon fill="none" stroke="#000000" points="341.5,-1057.2088 341.5,-1076.2088 401.5,-1076.2088 401.5,-1057.2088 341.5,-1057.2088"/>
<text text-anchor="start" x="366.1105" y="-1063.3088" font-family="Helvetica,sans-Serif" font-size="11.00" fill="#000000">0 rows</text>
<polygon fill="#ffffff" stroke="transparent" points="401.5,-1057.2088 401.5,-1076.2088 444.5,-1076.2088 444.5,-1057.2088 401.5,-1057.2088"/>
<polygon fill="none" stroke="#000000" points="401.5,-1057.2088 401.5,-1076.2088 444.5,-1076.2088 444.5,-1057.2088 401.5,-1057.2088"/>
<text text-anchor="start" x="425.9053" y="-1063.3088" font-family="Helvetica,sans-Serif" font-size="11.00" fill="#000000">1 &gt;</text>
</a>
</g>
</g>
<!-- identity_provider_mapper&#45;&gt;realm -->
<g id="edge16" class="edge">
<title>identity_provider_mapper:w&#45;&gt;realm:e</title>
<path fill="none" stroke="#000000" d="M263.1006,-1082.6327C214.0677,-1061.7684 292.8047,-921.2088 221.5,-921.2088"/>
<polygon fill="#000000" stroke="#000000" points="269.625,-1083.7999 276.866,-1088.7525 273.5625,-1084.5043 277.5,-1085.2088 277.5,-1085.2088 277.5,-1085.2088 273.5625,-1084.5043 278.134,-1081.665 269.625,-1083.7999 269.625,-1083.7999"/>
<ellipse fill="none" stroke="#000000" cx="266.475" cy="-1083.2363" rx="3.2" ry="3.2"/>
</g>
<!-- keycloak_group -->
<g id="node15" class="node">
<title>keycloak_group</title>
<g id="a_node15"><a xlink:href="../../tables/keycloak_group.html" xlink:title="keycloak_group" target="_top">
<polygon fill="#ffffff" stroke="transparent" points="300.5,-975.7088 300.5,-1036.7088 420.5,-1036.7088 420.5,-975.7088 300.5,-975.7088"/>
<polygon fill="#f5f5f5" stroke="transparent" points="300.5,-1013.2088 300.5,-1036.2088 420.5,-1036.2088 420.5,-1013.2088 300.5,-1013.2088"/>
<polygon fill="none" stroke="#000000" points="300.5,-1013.2088 300.5,-1036.2088 420.5,-1036.2088 420.5,-1013.2088 300.5,-1013.2088"/>
<text text-anchor="start" x="305.489" y="-1022.3088" font-family="Helvetica,sans-Serif" font-weight="bold" font-size="11.00" fill="#000000">keycloak_group</text>
<text text-anchor="start" x="386.0219" y="-1021.3088" font-family="Helvetica,sans-Serif" font-size="11.00" fill="#000000">[table]</text>
<polygon fill="none" stroke="#000000" points="300.5,-994.2088 300.5,-1013.2088 420.5,-1013.2088 420.5,-994.2088 300.5,-994.2088"/>
<text text-anchor="start" x="303.5" y="-1000.3088" font-family="Helvetica,sans-Serif" font-size="11.00" fill="#000000">...</text>
<polygon fill="#ffffff" stroke="transparent" points="300.5,-975.2088 300.5,-994.2088 341.5,-994.2088 341.5,-975.2088 300.5,-975.2088"/>
<polygon fill="none" stroke="#000000" points="300.5,-975.2088 300.5,-994.2088 341.5,-994.2088 341.5,-975.2088 300.5,-975.2088"/>
<text text-anchor="start" x="303.5" y="-981.3088" font-family="Helvetica,sans-Serif" font-size="11.00" fill="#000000">&lt; 1</text>
<polygon fill="#ffffff" stroke="transparent" points="341.5,-975.2088 341.5,-994.2088 389.5,-994.2088 389.5,-975.2088 341.5,-975.2088"/>
<polygon fill="none" stroke="#000000" points="341.5,-975.2088 341.5,-994.2088 389.5,-994.2088 389.5,-975.2088 341.5,-975.2088"/>
<text text-anchor="start" x="354.1105" y="-981.3088" font-family="Helvetica,sans-Serif" font-size="11.00" fill="#000000">0 rows</text>
<polygon fill="#ffffff" stroke="transparent" points="389.5,-975.2088 389.5,-994.2088 420.5,-994.2088 420.5,-975.2088 389.5,-975.2088"/>
<polygon fill="none" stroke="#000000" points="389.5,-975.2088 389.5,-994.2088 420.5,-994.2088 420.5,-975.2088 389.5,-975.2088"/>
<text text-anchor="start" x="401.9053" y="-981.3088" font-family="Helvetica,sans-Serif" font-size="11.00" fill="#000000">2 &gt;</text>
</a>
</g>
</g>
<!-- keycloak_group&#45;&gt;realm -->
<g id="edge17" class="edge">
<title>keycloak_group:w&#45;&gt;realm:e</title>
<path fill="none" stroke="#000000" d="M286.3713,-999.4933C276.3555,-992.7591 274.3956,-978.0442 262,-965.2088 243.5365,-946.0902 248.0786,-921.2088 221.5,-921.2088"/>
<polygon fill="#000000" stroke="#000000" points="292.7631,-1001.1741 299.5844,-1006.6904 296.6315,-1002.1914 300.5,-1003.2088 300.5,-1003.2088 300.5,-1003.2088 296.6315,-1002.1914 301.4156,-999.7271 292.7631,-1001.1741 292.7631,-1001.1741"/>
<ellipse fill="none" stroke="#000000" cx="289.6683" cy="-1000.3602" rx="3.2" ry="3.2"/>
</g>
<!-- keycloak_role -->
<g id="node16" class="node">
<title>keycloak_role</title>
<g id="a_node16"><a xlink:href="../../tables/keycloak_role.html" xlink:title="keycloak_role" target="_top">
<polygon fill="#ffffff" stroke="transparent" points="305.5,-893.7088 305.5,-954.7088 415.5,-954.7088 415.5,-893.7088 305.5,-893.7088"/>
<polygon fill="#f5f5f5" stroke="transparent" points="305.5,-931.2088 305.5,-954.2088 415.5,-954.2088 415.5,-931.2088 305.5,-931.2088"/>
<polygon fill="none" stroke="#000000" points="305.5,-931.2088 305.5,-954.2088 415.5,-954.2088 415.5,-931.2088 305.5,-931.2088"/>
<text text-anchor="start" x="310.3835" y="-940.3088" font-family="Helvetica,sans-Serif" font-weight="bold" font-size="11.00" fill="#000000">keycloak_role</text>
<text text-anchor="start" x="381.0219" y="-939.3088" font-family="Helvetica,sans-Serif" font-size="11.00" fill="#000000">[table]</text>
<polygon fill="none" stroke="#000000" points="305.5,-912.2088 305.5,-931.2088 415.5,-931.2088 415.5,-912.2088 305.5,-912.2088"/>
<text text-anchor="start" x="308.5" y="-918.3088" font-family="Helvetica,sans-Serif" font-size="11.00" fill="#000000">...</text>
<polygon fill="#ffffff" stroke="transparent" points="305.5,-893.2088 305.5,-912.2088 338.5,-912.2088 338.5,-893.2088 305.5,-893.2088"/>
<polygon fill="none" stroke="#000000" points="305.5,-893.2088 305.5,-912.2088 338.5,-912.2088 338.5,-893.2088 305.5,-893.2088"/>
<text text-anchor="start" x="308.5" y="-899.3088" font-family="Helvetica,sans-Serif" font-size="11.00" fill="#000000">&lt; 1</text>
<polygon fill="#ffffff" stroke="transparent" points="338.5,-893.2088 338.5,-912.2088 388.5,-912.2088 388.5,-893.2088 338.5,-893.2088"/>
<polygon fill="none" stroke="#000000" points="338.5,-893.2088 338.5,-912.2088 388.5,-912.2088 388.5,-893.2088 338.5,-893.2088"/>
<text text-anchor="start" x="346.9956" y="-899.3088" font-family="Helvetica,sans-Serif" font-size="11.00" fill="#000000">30 rows</text>
<polygon fill="#ffffff" stroke="transparent" points="388.5,-893.2088 388.5,-912.2088 415.5,-912.2088 415.5,-893.2088 388.5,-893.2088"/>
<polygon fill="none" stroke="#000000" points="388.5,-893.2088 388.5,-912.2088 415.5,-912.2088 415.5,-893.2088 388.5,-893.2088"/>
<text text-anchor="start" x="396.9053" y="-899.3088" font-family="Helvetica,sans-Serif" font-size="11.00" fill="#000000">3 &gt;</text>
</a>
</g>
</g>
<!-- keycloak_role&#45;&gt;realm -->
<g id="edge18" class="edge">
<title>keycloak_role:w&#45;&gt;realm:e</title>
<path fill="none" stroke="#000000" d="M290.8981,-921.2088C264.8839,-921.2088 253.4375,-921.2088 221.5,-921.2088"/>
<polygon fill="#000000" stroke="#000000" points="297.5,-921.2088 305.5,-924.8088 301.5,-921.2088 305.5,-921.2088 305.5,-921.2088 305.5,-921.2088 301.5,-921.2088 305.5,-917.6088 297.5,-921.2088 297.5,-921.2088"/>
<ellipse fill="none" stroke="#000000" cx="294.3" cy="-921.2088" rx="3.2" ry="3.2"/>
</g>
<!-- protocol_mapper -->
<g id="node17" class="node">
<title>protocol_mapper</title>
<g id="a_node17"><a xlink:href="../../tables/protocol_mapper.html" xlink:title="protocol_mapper" target="_top">
<polygon fill="#ffffff" stroke="transparent" points="539.5,-1561.7088 539.5,-1622.7088 664.5,-1622.7088 664.5,-1561.7088 539.5,-1561.7088"/>
<polygon fill="#f5f5f5" stroke="transparent" points="540,-1599.2088 540,-1622.2088 665,-1622.2088 665,-1599.2088 540,-1599.2088"/>
<polygon fill="none" stroke="#000000" points="540,-1599.2088 540,-1622.2088 665,-1622.2088 665,-1599.2088 540,-1599.2088"/>
<text text-anchor="start" x="544.7412" y="-1608.3088" font-family="Helvetica,sans-Serif" font-weight="bold" font-size="11.00" fill="#000000">protocol_mapper</text>
<text text-anchor="start" x="630.5219" y="-1607.3088" font-family="Helvetica,sans-Serif" font-size="11.00" fill="#000000">[table]</text>
<polygon fill="none" stroke="#000000" points="540,-1580.2088 540,-1599.2088 665,-1599.2088 665,-1580.2088 540,-1580.2088"/>
<text text-anchor="start" x="543" y="-1586.3088" font-family="Helvetica,sans-Serif" font-size="11.00" fill="#000000">...</text>
<polygon fill="#ffffff" stroke="transparent" points="540,-1561.2088 540,-1580.2088 580,-1580.2088 580,-1561.2088 540,-1561.2088"/>
<polygon fill="none" stroke="#000000" points="540,-1561.2088 540,-1580.2088 580,-1580.2088 580,-1561.2088 540,-1561.2088"/>
<text text-anchor="start" x="543" y="-1567.3088" font-family="Helvetica,sans-Serif" font-size="11.00" fill="#000000">&lt; 2</text>
<polygon fill="#ffffff" stroke="transparent" points="580,-1561.2088 580,-1580.2088 634,-1580.2088 634,-1561.2088 580,-1561.2088"/>
<polygon fill="none" stroke="#000000" points="580,-1561.2088 580,-1580.2088 634,-1580.2088 634,-1561.2088 580,-1561.2088"/>
<text text-anchor="start" x="592.4956" y="-1567.3088" font-family="Helvetica,sans-Serif" font-size="11.00" fill="#000000">28 rows</text>
<polygon fill="#ffffff" stroke="transparent" points="634,-1561.2088 634,-1580.2088 665,-1580.2088 665,-1561.2088 634,-1561.2088"/>
<polygon fill="none" stroke="#000000" points="634,-1561.2088 634,-1580.2088 665,-1580.2088 665,-1561.2088 634,-1561.2088"/>
<text text-anchor="start" x="646.4053" y="-1567.3088" font-family="Helvetica,sans-Serif" font-size="11.00" fill="#000000">1 &gt;</text>
</a>
</g>
</g>
<!-- protocol_mapper&#45;&gt;client -->
<g id="edge19" class="edge">
<title>protocol_mapper:w&#45;&gt;client:e</title>
<path fill="none" stroke="#000000" d="M525.3078,-1589.2088C475.0685,-1589.2088 457.293,-1589.2088 400.5,-1589.2088"/>
<polygon fill="#000000" stroke="#000000" points="532,-1589.2088 540,-1592.8088 536,-1589.2088 540,-1589.2088 540,-1589.2088 540,-1589.2088 536,-1589.2088 540,-1585.6088 532,-1589.2088 532,-1589.2088"/>
<ellipse fill="none" stroke="#000000" cx="528.8" cy="-1589.2088" rx="3.2" ry="3.2"/>
</g>
<!-- protocol_mapper&#45;&gt;client_scope -->
<g id="edge20" class="edge">
<title>protocol_mapper:w&#45;&gt;client_scope:e</title>
<path fill="none" stroke="#000000" d="M525.6463,-1587.6807C453.3944,-1571.0467 499.927,-1424.2088 412.5,-1424.2088"/>
<polygon fill="#000000" stroke="#000000" points="532.045,-1588.3618 539.6189,-1592.7885 536.0225,-1588.7853 540,-1589.2088 540,-1589.2088 540,-1589.2088 536.0225,-1588.7853 540.3811,-1585.629 532.045,-1588.3618 532.045,-1588.3618"/>
<ellipse fill="none" stroke="#000000" cx="528.8629" cy="-1588.0231" rx="3.2" ry="3.2"/>
</g>
<!-- realm_attribute -->
<g id="node18" class="node">
<title>realm_attribute</title>
<g id="a_node18"><a xlink:href="../../tables/realm_attribute.html" xlink:title="realm_attribute" target="_top">
<polygon fill="#ffffff" stroke="transparent" points="302.5,-811.7088 302.5,-872.7088 418.5,-872.7088 418.5,-811.7088 302.5,-811.7088"/>
<polygon fill="#f5f5f5" stroke="transparent" points="302.5,-849.2088 302.5,-872.2088 418.5,-872.2088 418.5,-849.2088 302.5,-849.2088"/>
<polygon fill="none" stroke="#000000" points="302.5,-849.2088 302.5,-872.2088 418.5,-872.2088 418.5,-849.2088 302.5,-849.2088"/>
<text text-anchor="start" x="307.3288" y="-858.3088" font-family="Helvetica,sans-Serif" font-weight="bold" font-size="11.00" fill="#000000">realm_attribute</text>
<text text-anchor="start" x="384.0219" y="-857.3088" font-family="Helvetica,sans-Serif" font-size="11.00" fill="#000000">[table]</text>
<polygon fill="none" stroke="#000000" points="302.5,-830.2088 302.5,-849.2088 418.5,-849.2088 418.5,-830.2088 302.5,-830.2088"/>
<text text-anchor="start" x="305.5" y="-836.3088" font-family="Helvetica,sans-Serif" font-size="11.00" fill="#000000">...</text>
<polygon fill="#ffffff" stroke="transparent" points="302.5,-811.2088 302.5,-830.2088 342.5,-830.2088 342.5,-811.2088 302.5,-811.2088"/>
<polygon fill="none" stroke="#000000" points="302.5,-811.2088 302.5,-830.2088 342.5,-830.2088 342.5,-811.2088 302.5,-811.2088"/>
<text text-anchor="start" x="305.5" y="-817.3088" font-family="Helvetica,sans-Serif" font-size="11.00" fill="#000000">&lt; 1</text>
<polygon fill="#ffffff" stroke="transparent" points="342.5,-811.2088 342.5,-830.2088 396.5,-830.2088 396.5,-811.2088 342.5,-811.2088"/>
<polygon fill="none" stroke="#000000" points="342.5,-811.2088 342.5,-830.2088 396.5,-830.2088 396.5,-811.2088 342.5,-811.2088"/>
<text text-anchor="start" x="354.9956" y="-817.3088" font-family="Helvetica,sans-Serif" font-size="11.00" fill="#000000">19 rows</text>
<polygon fill="#ffffff" stroke="transparent" points="396.5,-811.2088 396.5,-830.2088 418.5,-830.2088 418.5,-811.2088 396.5,-811.2088"/>
<polygon fill="none" stroke="#000000" points="396.5,-811.2088 396.5,-830.2088 418.5,-830.2088 418.5,-811.2088 396.5,-811.2088"/>
<text text-anchor="start" x="409.3862" y="-817.3088" font-family="Helvetica,sans-Serif" font-size="11.00" fill="#000000"> &#160;</text>
</a>
</g>
</g>
<!-- realm_attribute&#45;&gt;realm -->
<g id="edge21" class="edge">
<title>realm_attribute:w&#45;&gt;realm:e</title>
<path fill="none" stroke="#000000" d="M288.1094,-841.9371C255.0966,-856.1653 267.124,-921.2088 221.5,-921.2088"/>
<polygon fill="#000000" stroke="#000000" points="294.64,-840.699 303.1706,-842.7458 298.57,-839.9539 302.5,-839.2088 302.5,-839.2088 302.5,-839.2088 298.57,-839.9539 301.8294,-835.6718 294.64,-840.699 294.64,-840.699"/>
<ellipse fill="none" stroke="#000000" cx="291.496" cy="-841.2951" rx="3.2" ry="3.2"/>
</g>
<!-- realm_default_groups -->
<g id="node19" class="node">
<title>realm_default_groups</title>
<g id="a_node19"><a xlink:href="../../tables/realm_default_groups.html" xlink:title="realm_default_groups" target="_top">
<polygon fill="#ffffff" stroke="transparent" points="286,-729.7088 286,-790.7088 435,-790.7088 435,-729.7088 286,-729.7088"/>
<polygon fill="#f5f5f5" stroke="transparent" points="286.5,-767.2088 286.5,-790.2088 435.5,-790.2088 435.5,-767.2088 286.5,-767.2088"/>
<polygon fill="none" stroke="#000000" points="286.5,-767.2088 286.5,-790.2088 435.5,-790.2088 435.5,-767.2088 286.5,-767.2088"/>
<text text-anchor="start" x="291.32" y="-776.3088" font-family="Helvetica,sans-Serif" font-weight="bold" font-size="11.00" fill="#000000">realm_default_groups</text>
<text text-anchor="start" x="401.0219" y="-775.3088" font-family="Helvetica,sans-Serif" font-size="11.00" fill="#000000">[table]</text>
<polygon fill="none" stroke="#000000" points="286.5,-748.2088 286.5,-767.2088 435.5,-767.2088 435.5,-748.2088 286.5,-748.2088"/>
<text text-anchor="start" x="289.5" y="-754.3088" font-family="Helvetica,sans-Serif" font-size="11.00" fill="#000000">...</text>
<polygon fill="#ffffff" stroke="transparent" points="286.5,-729.2088 286.5,-748.2088 346.5,-748.2088 346.5,-729.2088 286.5,-729.2088"/>
<polygon fill="none" stroke="#000000" points="286.5,-729.2088 286.5,-748.2088 346.5,-748.2088 346.5,-729.2088 286.5,-729.2088"/>
<text text-anchor="start" x="289.5" y="-735.3088" font-family="Helvetica,sans-Serif" font-size="11.00" fill="#000000">&lt; 1</text>
<polygon fill="#ffffff" stroke="transparent" points="346.5,-729.2088 346.5,-748.2088 403.5,-748.2088 403.5,-729.2088 346.5,-729.2088"/>
<polygon fill="none" stroke="#000000" points="346.5,-729.2088 346.5,-748.2088 403.5,-748.2088 403.5,-729.2088 346.5,-729.2088"/>
<text text-anchor="start" x="368.1105" y="-735.3088" font-family="Helvetica,sans-Serif" font-size="11.00" fill="#000000">0 rows</text>
<polygon fill="#ffffff" stroke="transparent" points="403.5,-729.2088 403.5,-748.2088 435.5,-748.2088 435.5,-729.2088 403.5,-729.2088"/>
<polygon fill="none" stroke="#000000" points="403.5,-729.2088 403.5,-748.2088 435.5,-748.2088 435.5,-729.2088 403.5,-729.2088"/>
<text text-anchor="start" x="426.3862" y="-735.3088" font-family="Helvetica,sans-Serif" font-size="11.00" fill="#000000"> &#160;</text>
</a>
</g>
</g>
<!-- realm_default_groups&#45;&gt;realm -->
<g id="edge22" class="edge">
<title>realm_default_groups:w&#45;&gt;realm:e</title>
<path fill="none" stroke="#000000" d="M272.0403,-759.6544C220.4754,-780.0554 294.2391,-921.2088 221.5,-921.2088"/>
<polygon fill="#000000" stroke="#000000" points="278.612,-758.5429 287.1004,-760.7584 282.556,-757.8758 286.5,-757.2088 286.5,-757.2088 286.5,-757.2088 282.556,-757.8758 285.8996,-753.6592 278.612,-758.5429 278.612,-758.5429"/>
<ellipse fill="none" stroke="#000000" cx="275.4568" cy="-759.0766" rx="3.2" ry="3.2"/>
</g>
<!-- realm_default_roles -->
<g id="node20" class="node">
<title>realm_default_roles</title>
<g id="a_node20"><a xlink:href="../../tables/realm_default_roles.html" xlink:title="realm_default_roles" target="_top">
<polygon fill="#ffffff" stroke="transparent" points="291,-647.7088 291,-708.7088 430,-708.7088 430,-647.7088 291,-647.7088"/>
<polygon fill="#f5f5f5" stroke="transparent" points="291.5,-685.2088 291.5,-708.2088 430.5,-708.2088 430.5,-685.2088 291.5,-685.2088"/>
<polygon fill="none" stroke="#000000" points="291.5,-685.2088 291.5,-708.2088 430.5,-708.2088 430.5,-685.2088 291.5,-685.2088"/>
<text text-anchor="start" x="296.2144" y="-694.3088" font-family="Helvetica,sans-Serif" font-weight="bold" font-size="11.00" fill="#000000">realm_default_roles</text>
<text text-anchor="start" x="396.0219" y="-693.3088" font-family="Helvetica,sans-Serif" font-size="11.00" fill="#000000">[table]</text>
<polygon fill="none" stroke="#000000" points="291.5,-666.2088 291.5,-685.2088 430.5,-685.2088 430.5,-666.2088 291.5,-666.2088"/>
<text text-anchor="start" x="294.5" y="-672.3088" font-family="Helvetica,sans-Serif" font-size="11.00" fill="#000000">...</text>
<polygon fill="#ffffff" stroke="transparent" points="291.5,-647.2088 291.5,-666.2088 346.5,-666.2088 346.5,-647.2088 291.5,-647.2088"/>
<polygon fill="none" stroke="#000000" points="291.5,-647.2088 291.5,-666.2088 346.5,-666.2088 346.5,-647.2088 291.5,-647.2088"/>
<text text-anchor="start" x="294.5" y="-653.3088" font-family="Helvetica,sans-Serif" font-size="11.00" fill="#000000">&lt; 1</text>
<polygon fill="#ffffff" stroke="transparent" points="346.5,-647.2088 346.5,-666.2088 401.5,-666.2088 401.5,-647.2088 346.5,-647.2088"/>
<polygon fill="none" stroke="#000000" points="346.5,-647.2088 346.5,-666.2088 401.5,-666.2088 401.5,-647.2088 346.5,-647.2088"/>
<text text-anchor="start" x="366.1105" y="-653.3088" font-family="Helvetica,sans-Serif" font-size="11.00" fill="#000000">2 rows</text>
<polygon fill="#ffffff" stroke="transparent" points="401.5,-647.2088 401.5,-666.2088 430.5,-666.2088 430.5,-647.2088 401.5,-647.2088"/>
<polygon fill="none" stroke="#000000" points="401.5,-647.2088 401.5,-666.2088 430.5,-666.2088 430.5,-647.2088 401.5,-647.2088"/>
<text text-anchor="start" x="421.3862" y="-653.3088" font-family="Helvetica,sans-Serif" font-size="11.00" fill="#000000"> &#160;</text>
</a>
</g>
</g>
<!-- realm_default_roles&#45;&gt;realm -->
<g id="edge23" class="edge">
<title>realm_default_roles:w&#45;&gt;realm:e</title>
<path fill="none" stroke="#000000" d="M277.649,-679.4939C268.7403,-686.9985 268.6414,-703.245 262,-719.2088 244.4145,-761.4789 267.2822,-921.2088 221.5,-921.2088"/>
<polygon fill="#000000" stroke="#000000" points="283.8574,-677.5732 292.564,-678.6479 287.6787,-676.391 291.5,-675.2088 291.5,-675.2088 291.5,-675.2088 287.6787,-676.391 290.436,-671.7696 283.8574,-677.5732 283.8574,-677.5732"/>
<ellipse fill="none" stroke="#000000" cx="280.8003" cy="-678.519" rx="3.2" ry="3.2"/>
</g>
<!-- realm_enabled_event_types -->
<g id="node21" class="node">
<title>realm_enabled_event_types</title>
<g id="a_node21"><a xlink:href="../../tables/realm_enabled_event_types.html" xlink:title="realm_enabled_event_types" target="_top">
<polygon fill="#ffffff" stroke="transparent" points="270,-565.7088 270,-626.7088 451,-626.7088 451,-565.7088 270,-565.7088"/>
<polygon fill="#f5f5f5" stroke="transparent" points="270.5,-603.2088 270.5,-626.2088 451.5,-626.2088 451.5,-603.2088 270.5,-603.2088"/>
<polygon fill="none" stroke="#000000" points="270.5,-603.2088 270.5,-626.2088 451.5,-626.2088 451.5,-603.2088 270.5,-603.2088"/>
<text text-anchor="start" x="275.4211" y="-612.3088" font-family="Helvetica,sans-Serif" font-weight="bold" font-size="11.00" fill="#000000">realm_enabled_event_types</text>
<text text-anchor="start" x="417.0219" y="-611.3088" font-family="Helvetica,sans-Serif" font-size="11.00" fill="#000000">[table]</text>
<polygon fill="none" stroke="#000000" points="270.5,-584.2088 270.5,-603.2088 451.5,-603.2088 451.5,-584.2088 270.5,-584.2088"/>
<text text-anchor="start" x="273.5" y="-590.3088" font-family="Helvetica,sans-Serif" font-size="11.00" fill="#000000">...</text>
<polygon fill="#ffffff" stroke="transparent" points="270.5,-565.2088 270.5,-584.2088 346.5,-584.2088 346.5,-565.2088 270.5,-565.2088"/>
<polygon fill="none" stroke="#000000" points="270.5,-565.2088 270.5,-584.2088 346.5,-584.2088 346.5,-565.2088 270.5,-565.2088"/>
<text text-anchor="start" x="273.5" y="-571.3088" font-family="Helvetica,sans-Serif" font-size="11.00" fill="#000000">&lt; 1</text>
<polygon fill="#ffffff" stroke="transparent" points="346.5,-565.2088 346.5,-584.2088 411.5,-584.2088 411.5,-565.2088 346.5,-565.2088"/>
<polygon fill="none" stroke="#000000" points="346.5,-565.2088 346.5,-584.2088 411.5,-584.2088 411.5,-565.2088 346.5,-565.2088"/>
<text text-anchor="start" x="376.1105" y="-571.3088" font-family="Helvetica,sans-Serif" font-size="11.00" fill="#000000">0 rows</text>
<polygon fill="#ffffff" stroke="transparent" points="411.5,-565.2088 411.5,-584.2088 451.5,-584.2088 451.5,-565.2088 411.5,-565.2088"/>
<polygon fill="none" stroke="#000000" points="411.5,-565.2088 411.5,-584.2088 451.5,-584.2088 451.5,-565.2088 411.5,-565.2088"/>
<text text-anchor="start" x="442.3862" y="-571.3088" font-family="Helvetica,sans-Serif" font-size="11.00" fill="#000000"> &#160;</text>
</a>
</g>
</g>
<!-- realm_enabled_event_types&#45;&gt;realm -->
<g id="edge24" class="edge">
<title>realm_enabled_event_types:w&#45;&gt;realm:e</title>
<path fill="none" stroke="#000000" d="M256.7939,-598.3609C210.4599,-640.0895 289.728,-921.2088 221.5,-921.2088"/>
<polygon fill="#000000" stroke="#000000" points="263.0116,-596.0237 271.7667,-596.5786 266.7558,-594.6162 270.5,-593.2088 270.5,-593.2088 270.5,-593.2088 266.7558,-594.6162 269.2333,-589.839 263.0116,-596.0237 263.0116,-596.0237"/>
<ellipse fill="none" stroke="#000000" cx="260.0162" cy="-597.1497" rx="3.2" ry="3.2"/>
</g>
<!-- realm_events_listeners -->
<g id="node22" class="node">
<title>realm_events_listeners</title>
<g id="a_node22"><a xlink:href="../../tables/realm_events_listeners.html" xlink:title="realm_events_listeners" target="_top">
<polygon fill="#ffffff" stroke="transparent" points="282.5,-483.7088 282.5,-544.7088 438.5,-544.7088 438.5,-483.7088 282.5,-483.7088"/>
<polygon fill="#f5f5f5" stroke="transparent" points="282.5,-521.2088 282.5,-544.2088 438.5,-544.2088 438.5,-521.2088 282.5,-521.2088"/>
<polygon fill="none" stroke="#000000" points="282.5,-521.2088 282.5,-544.2088 438.5,-544.2088 438.5,-521.2088 282.5,-521.2088"/>
<text text-anchor="start" x="287.4644" y="-530.3088" font-family="Helvetica,sans-Serif" font-weight="bold" font-size="11.00" fill="#000000">realm_events_listeners</text>
<text text-anchor="start" x="404.0219" y="-529.3088" font-family="Helvetica,sans-Serif" font-size="11.00" fill="#000000">[table]</text>
<polygon fill="none" stroke="#000000" points="282.5,-502.2088 282.5,-521.2088 438.5,-521.2088 438.5,-502.2088 282.5,-502.2088"/>
<text text-anchor="start" x="285.5" y="-508.3088" font-family="Helvetica,sans-Serif" font-size="11.00" fill="#000000">...</text>
<polygon fill="#ffffff" stroke="transparent" points="282.5,-483.2088 282.5,-502.2088 348.5,-502.2088 348.5,-483.2088 282.5,-483.2088"/>
<polygon fill="none" stroke="#000000" points="282.5,-483.2088 282.5,-502.2088 348.5,-502.2088 348.5,-483.2088 282.5,-483.2088"/>
<text text-anchor="start" x="285.5" y="-489.3088" font-family="Helvetica,sans-Serif" font-size="11.00" fill="#000000">&lt; 1</text>
<polygon fill="#ffffff" stroke="transparent" points="348.5,-483.2088 348.5,-502.2088 403.5,-502.2088 403.5,-483.2088 348.5,-483.2088"/>
<polygon fill="none" stroke="#000000" points="348.5,-483.2088 348.5,-502.2088 403.5,-502.2088 403.5,-483.2088 348.5,-483.2088"/>
<text text-anchor="start" x="373.6105" y="-489.3088" font-family="Helvetica,sans-Serif" font-size="11.00" fill="#000000">1 row</text>
<polygon fill="#ffffff" stroke="transparent" points="403.5,-483.2088 403.5,-502.2088 438.5,-502.2088 438.5,-483.2088 403.5,-483.2088"/>
<polygon fill="none" stroke="#000000" points="403.5,-483.2088 403.5,-502.2088 438.5,-502.2088 438.5,-483.2088 403.5,-483.2088"/>
<text text-anchor="start" x="429.3862" y="-489.3088" font-family="Helvetica,sans-Serif" font-size="11.00" fill="#000000"> &#160;</text>
</a>
</g>
</g>
<!-- realm_events_listeners&#45;&gt;realm -->
<g id="edge25" class="edge">
<title>realm_events_listeners:w&#45;&gt;realm:e</title>
<path fill="none" stroke="#000000" d="M268.4394,-515.2667C204.0875,-557.848 308.2167,-921.2088 221.5,-921.2088"/>
<polygon fill="#000000" stroke="#000000" points="274.8137,-513.4271 283.4982,-514.6676 278.6568,-512.3179 282.5,-511.2088 282.5,-511.2088 282.5,-511.2088 278.6568,-512.3179 281.5018,-507.7499 274.8137,-513.4271 274.8137,-513.4271"/>
<ellipse fill="none" stroke="#000000" cx="271.7392" cy="-514.3144" rx="3.2" ry="3.2"/>
</g>
<!-- realm_required_credential -->
<g id="node23" class="node">
<title>realm_required_credential</title>
<g id="a_node23"><a xlink:href="../../tables/realm_required_credential.html" xlink:title="realm_required_credential" target="_top">
<polygon fill="#ffffff" stroke="transparent" points="275.5,-401.7088 275.5,-462.7088 445.5,-462.7088 445.5,-401.7088 275.5,-401.7088"/>
<polygon fill="#f5f5f5" stroke="transparent" points="275.5,-439.2088 275.5,-462.2088 445.5,-462.2088 445.5,-439.2088 275.5,-439.2088"/>
<polygon fill="none" stroke="#000000" points="275.5,-439.2088 275.5,-462.2088 445.5,-462.2088 445.5,-439.2088 275.5,-439.2088"/>
<text text-anchor="start" x="280.1307" y="-448.3088" font-family="Helvetica,sans-Serif" font-weight="bold" font-size="11.00" fill="#000000">realm_required_credential</text>
<text text-anchor="start" x="411.0219" y="-447.3088" font-family="Helvetica,sans-Serif" font-size="11.00" fill="#000000">[table]</text>
<polygon fill="none" stroke="#000000" points="275.5,-420.2088 275.5,-439.2088 445.5,-439.2088 445.5,-420.2088 275.5,-420.2088"/>
<text text-anchor="start" x="278.5" y="-426.3088" font-family="Helvetica,sans-Serif" font-size="11.00" fill="#000000">...</text>
<polygon fill="#ffffff" stroke="transparent" points="275.5,-401.2088 275.5,-420.2088 348.5,-420.2088 348.5,-401.2088 275.5,-401.2088"/>
<polygon fill="none" stroke="#000000" points="275.5,-401.2088 275.5,-420.2088 348.5,-420.2088 348.5,-401.2088 275.5,-401.2088"/>
<text text-anchor="start" x="278.5" y="-407.3088" font-family="Helvetica,sans-Serif" font-size="11.00" fill="#000000">&lt; 1</text>
<polygon fill="#ffffff" stroke="transparent" points="348.5,-401.2088 348.5,-420.2088 406.5,-420.2088 406.5,-401.2088 348.5,-401.2088"/>
<polygon fill="none" stroke="#000000" points="348.5,-401.2088 348.5,-420.2088 406.5,-420.2088 406.5,-401.2088 348.5,-401.2088"/>
<text text-anchor="start" x="376.6105" y="-407.3088" font-family="Helvetica,sans-Serif" font-size="11.00" fill="#000000">1 row</text>
<polygon fill="#ffffff" stroke="transparent" points="406.5,-401.2088 406.5,-420.2088 445.5,-420.2088 445.5,-401.2088 406.5,-401.2088"/>
<polygon fill="none" stroke="#000000" points="406.5,-401.2088 406.5,-420.2088 445.5,-420.2088 445.5,-401.2088 406.5,-401.2088"/>
<text text-anchor="start" x="436.3862" y="-407.3088" font-family="Helvetica,sans-Serif" font-size="11.00" fill="#000000"> &#160;</text>
</a>
</g>
</g>
<!-- realm_required_credential&#45;&gt;realm -->
<g id="edge26" class="edge">
<title>realm_required_credential:w&#45;&gt;realm:e</title>
<path fill="none" stroke="#000000" d="M261.2978,-432.6133C181.0611,-476.0826 326.1193,-921.2088 221.5,-921.2088"/>
<polygon fill="#000000" stroke="#000000" points="267.7204,-431.0737 276.3392,-432.7096 271.6102,-430.1412 275.5,-429.2088 275.5,-429.2088 275.5,-429.2088 271.6102,-430.1412 274.6608,-425.708 267.7204,-431.0737 267.7204,-431.0737"/>
<ellipse fill="none" stroke="#000000" cx="264.6086" cy="-431.8197" rx="3.2" ry="3.2"/>
</g>
<!-- realm_smtp_config -->
<g id="node24" class="node">
<title>realm_smtp_config</title>
<g id="a_node24"><a xlink:href="../../tables/realm_smtp_config.html" xlink:title="realm_smtp_config" target="_top">
<polygon fill="#ffffff" stroke="transparent" points="293,-319.7088 293,-380.7088 428,-380.7088 428,-319.7088 293,-319.7088"/>
<polygon fill="#f5f5f5" stroke="transparent" points="293.5,-357.2088 293.5,-380.2088 428.5,-380.2088 428.5,-357.2088 293.5,-357.2088"/>
<polygon fill="none" stroke="#000000" points="293.5,-357.2088 293.5,-380.2088 428.5,-380.2088 428.5,-357.2088 293.5,-357.2088"/>
<text text-anchor="start" x="298.0498" y="-366.3088" font-family="Helvetica,sans-Serif" font-weight="bold" font-size="11.00" fill="#000000">realm_smtp_config</text>
<text text-anchor="start" x="394.0219" y="-365.3088" font-family="Helvetica,sans-Serif" font-size="11.00" fill="#000000">[table]</text>
<polygon fill="none" stroke="#000000" points="293.5,-338.2088 293.5,-357.2088 428.5,-357.2088 428.5,-338.2088 293.5,-338.2088"/>
<text text-anchor="start" x="296.5" y="-344.3088" font-family="Helvetica,sans-Serif" font-size="11.00" fill="#000000">...</text>
<polygon fill="#ffffff" stroke="transparent" points="293.5,-319.2088 293.5,-338.2088 346.5,-338.2088 346.5,-319.2088 293.5,-319.2088"/>
<polygon fill="none" stroke="#000000" points="293.5,-319.2088 293.5,-338.2088 346.5,-338.2088 346.5,-319.2088 293.5,-319.2088"/>
<text text-anchor="start" x="296.5" y="-325.3088" font-family="Helvetica,sans-Serif" font-size="11.00" fill="#000000">&lt; 1</text>
<polygon fill="#ffffff" stroke="transparent" points="346.5,-319.2088 346.5,-338.2088 400.5,-338.2088 400.5,-319.2088 346.5,-319.2088"/>
<polygon fill="none" stroke="#000000" points="346.5,-319.2088 346.5,-338.2088 400.5,-338.2088 400.5,-319.2088 346.5,-319.2088"/>
<text text-anchor="start" x="365.1105" y="-325.3088" font-family="Helvetica,sans-Serif" font-size="11.00" fill="#000000">0 rows</text>
<polygon fill="#ffffff" stroke="transparent" points="400.5,-319.2088 400.5,-338.2088 428.5,-338.2088 428.5,-319.2088 400.5,-319.2088"/>
<polygon fill="none" stroke="#000000" points="400.5,-319.2088 400.5,-338.2088 428.5,-338.2088 428.5,-319.2088 400.5,-319.2088"/>
<text text-anchor="start" x="419.3862" y="-325.3088" font-family="Helvetica,sans-Serif" font-size="11.00" fill="#000000"> &#160;</text>
</a>
</g>
</g>
<!-- realm_smtp_config&#45;&gt;realm -->
<g id="edge27" class="edge">
<title>realm_smtp_config:w&#45;&gt;realm:e</title>
<path fill="none" stroke="#000000" d="M279.2684,-351.1295C269.2491,-358.3221 268.1005,-374.4337 262,-391.2088 241.8151,-446.713 280.5606,-921.2088 221.5,-921.2088"/>
<polygon fill="#000000" stroke="#000000" points="285.7873,-349.3336 294.4562,-350.6795 289.6437,-348.2712 293.5,-347.2088 293.5,-347.2088 293.5,-347.2088 289.6437,-348.2712 292.5438,-343.7381 285.7873,-349.3336 285.7873,-349.3336"/>
<ellipse fill="none" stroke="#000000" cx="282.7023" cy="-350.1835" rx="3.2" ry="3.2"/>
</g>
<!-- realm_supported_locales -->
<g id="node25" class="node">
<title>realm_supported_locales</title>
<g id="a_node25"><a xlink:href="../../tables/realm_supported_locales.html" xlink:title="realm_supported_locales" target="_top">
<polygon fill="#ffffff" stroke="transparent" points="278,-237.7088 278,-298.7088 443,-298.7088 443,-237.7088 278,-237.7088"/>
<polygon fill="#f5f5f5" stroke="transparent" points="278.5,-275.2088 278.5,-298.2088 443.5,-298.2088 443.5,-275.2088 278.5,-275.2088"/>
<polygon fill="none" stroke="#000000" points="278.5,-275.2088 278.5,-298.2088 443.5,-298.2088 443.5,-275.2088 278.5,-275.2088"/>
<text text-anchor="start" x="283.0705" y="-284.3088" font-family="Helvetica,sans-Serif" font-weight="bold" font-size="11.00" fill="#000000">realm_supported_locales</text>
<text text-anchor="start" x="409.0219" y="-283.3088" font-family="Helvetica,sans-Serif" font-size="11.00" fill="#000000">[table]</text>
<polygon fill="none" stroke="#000000" points="278.5,-256.2088 278.5,-275.2088 443.5,-275.2088 443.5,-256.2088 278.5,-256.2088"/>
<text text-anchor="start" x="281.5" y="-262.3088" font-family="Helvetica,sans-Serif" font-size="11.00" fill="#000000">...</text>
<polygon fill="#ffffff" stroke="transparent" points="278.5,-237.2088 278.5,-256.2088 346.5,-256.2088 346.5,-237.2088 278.5,-237.2088"/>
<polygon fill="none" stroke="#000000" points="278.5,-237.2088 278.5,-256.2088 346.5,-256.2088 346.5,-237.2088 278.5,-237.2088"/>
<text text-anchor="start" x="281.5" y="-243.3088" font-family="Helvetica,sans-Serif" font-size="11.00" fill="#000000">&lt; 1</text>
<polygon fill="#ffffff" stroke="transparent" points="346.5,-237.2088 346.5,-256.2088 407.5,-256.2088 407.5,-237.2088 346.5,-237.2088"/>
<polygon fill="none" stroke="#000000" points="346.5,-237.2088 346.5,-256.2088 407.5,-256.2088 407.5,-237.2088 346.5,-237.2088"/>
<text text-anchor="start" x="372.1105" y="-243.3088" font-family="Helvetica,sans-Serif" font-size="11.00" fill="#000000">0 rows</text>
<polygon fill="#ffffff" stroke="transparent" points="407.5,-237.2088 407.5,-256.2088 443.5,-256.2088 443.5,-237.2088 407.5,-237.2088"/>
<polygon fill="none" stroke="#000000" points="407.5,-237.2088 407.5,-256.2088 443.5,-256.2088 443.5,-237.2088 407.5,-237.2088"/>
<text text-anchor="start" x="434.3862" y="-243.3088" font-family="Helvetica,sans-Serif" font-size="11.00" fill="#000000"> &#160;</text>
</a>
</g>
</g>
<!-- realm_supported_locales&#45;&gt;realm -->
<g id="edge28" class="edge">
<title>realm_supported_locales:w&#45;&gt;realm:e</title>
<path fill="none" stroke="#000000" d="M266.2912,-273.033C216.1763,-347.0461 289.9479,-921.2088 221.5,-921.2088"/>
<polygon fill="#000000" stroke="#000000" points="271.7645,-269.5254 280.4425,-268.2398 275.1322,-267.3671 278.5,-265.2088 278.5,-265.2088 278.5,-265.2088 275.1322,-267.3671 276.5575,-262.1778 271.7645,-269.5254 271.7645,-269.5254"/>
<ellipse fill="none" stroke="#000000" cx="269.0702" cy="-271.252" rx="3.2" ry="3.2"/>
</g>
<!-- required_action_provider -->
<g id="node26" class="node">
<title>required_action_provider</title>
<g id="a_node26"><a xlink:href="../../tables/required_action_provider.html" xlink:title="required_action_provider" target="_top">
<polygon fill="#ffffff" stroke="transparent" points="278.5,-155.7088 278.5,-216.7088 442.5,-216.7088 442.5,-155.7088 278.5,-155.7088"/>
<polygon fill="#f5f5f5" stroke="transparent" points="278.5,-193.2088 278.5,-216.2088 442.5,-216.2088 442.5,-193.2088 278.5,-193.2088"/>
<polygon fill="none" stroke="#000000" points="278.5,-193.2088 278.5,-216.2088 442.5,-216.2088 442.5,-193.2088 278.5,-193.2088"/>
<text text-anchor="start" x="283.1821" y="-202.3088" font-family="Helvetica,sans-Serif" font-weight="bold" font-size="11.00" fill="#000000">required_action_provider</text>
<text text-anchor="start" x="408.0219" y="-201.3088" font-family="Helvetica,sans-Serif" font-size="11.00" fill="#000000">[table]</text>
<polygon fill="none" stroke="#000000" points="278.5,-174.2088 278.5,-193.2088 442.5,-193.2088 442.5,-174.2088 278.5,-174.2088"/>
<text text-anchor="start" x="281.5" y="-180.3088" font-family="Helvetica,sans-Serif" font-size="11.00" fill="#000000">...</text>
<polygon fill="#ffffff" stroke="transparent" points="278.5,-155.2088 278.5,-174.2088 345.5,-174.2088 345.5,-155.2088 278.5,-155.2088"/>
<polygon fill="none" stroke="#000000" points="278.5,-155.2088 278.5,-174.2088 345.5,-174.2088 345.5,-155.2088 278.5,-155.2088"/>
<text text-anchor="start" x="281.5" y="-161.3088" font-family="Helvetica,sans-Serif" font-size="11.00" fill="#000000">&lt; 1</text>
<polygon fill="#ffffff" stroke="transparent" points="345.5,-155.2088 345.5,-174.2088 406.5,-174.2088 406.5,-155.2088 345.5,-155.2088"/>
<polygon fill="none" stroke="#000000" points="345.5,-155.2088 345.5,-174.2088 406.5,-174.2088 406.5,-155.2088 345.5,-155.2088"/>
<text text-anchor="start" x="371.1105" y="-161.3088" font-family="Helvetica,sans-Serif" font-size="11.00" fill="#000000">7 rows</text>
<polygon fill="#ffffff" stroke="transparent" points="406.5,-155.2088 406.5,-174.2088 442.5,-174.2088 442.5,-155.2088 406.5,-155.2088"/>
<polygon fill="none" stroke="#000000" points="406.5,-155.2088 406.5,-174.2088 442.5,-174.2088 442.5,-155.2088 406.5,-155.2088"/>
<text text-anchor="start" x="433.3862" y="-161.3088" font-family="Helvetica,sans-Serif" font-size="11.00" fill="#000000"> &#160;</text>
</a>
</g>
</g>
<!-- required_action_provider&#45;&gt;realm -->
<g id="edge29" class="edge">
<title>required_action_provider:w&#45;&gt;realm:e</title>
<path fill="none" stroke="#000000" d="M265.9209,-190.513C208.2007,-267.1594 298.9252,-921.2088 221.5,-921.2088"/>
<polygon fill="#000000" stroke="#000000" points="271.5817,-187.226 280.3077,-186.322 275.0409,-185.2174 278.5,-183.2088 278.5,-183.2088 278.5,-183.2088 275.0409,-185.2174 276.6923,-180.0956 271.5817,-187.226 271.5817,-187.226"/>
<ellipse fill="none" stroke="#000000" cx="268.8144" cy="-188.8329" rx="3.2" ry="3.2"/>
</g>
<!-- user_federation_mapper -->
<g id="node27" class="node">
<title>user_federation_mapper</title>
<g id="a_node27"><a xlink:href="../../tables/user_federation_mapper.html" xlink:title="user_federation_mapper" target="_top">
<polygon fill="#ffffff" stroke="transparent" points="521,-47.7088 521,-108.7088 683,-108.7088 683,-47.7088 521,-47.7088"/>
<polygon fill="#f5f5f5" stroke="transparent" points="521,-85.2088 521,-108.2088 683,-108.2088 683,-85.2088 521,-85.2088"/>
<polygon fill="none" stroke="#000000" points="521,-85.2088 521,-108.2088 683,-108.2088 683,-85.2088 521,-85.2088"/>
<text text-anchor="start" x="525.5946" y="-94.3088" font-family="Helvetica,sans-Serif" font-weight="bold" font-size="11.00" fill="#000000">user_federation_mapper</text>
<text text-anchor="start" x="648.5219" y="-93.3088" font-family="Helvetica,sans-Serif" font-size="11.00" fill="#000000">[table]</text>
<polygon fill="none" stroke="#000000" points="521,-66.2088 521,-85.2088 683,-85.2088 683,-66.2088 521,-66.2088"/>
<text text-anchor="start" x="524" y="-72.3088" font-family="Helvetica,sans-Serif" font-size="11.00" fill="#000000">...</text>
<polygon fill="#ffffff" stroke="transparent" points="521,-47.2088 521,-66.2088 583,-66.2088 583,-47.2088 521,-47.2088"/>
<polygon fill="none" stroke="#000000" points="521,-47.2088 521,-66.2088 583,-66.2088 583,-47.2088 521,-47.2088"/>
<text text-anchor="start" x="524" y="-53.3088" font-family="Helvetica,sans-Serif" font-size="11.00" fill="#000000">&lt; 2</text>
<polygon fill="#ffffff" stroke="transparent" points="583,-47.2088 583,-66.2088 641,-66.2088 641,-47.2088 583,-47.2088"/>
<polygon fill="none" stroke="#000000" points="583,-47.2088 583,-66.2088 641,-66.2088 641,-47.2088 583,-47.2088"/>
<text text-anchor="start" x="605.6105" y="-53.3088" font-family="Helvetica,sans-Serif" font-size="11.00" fill="#000000">0 rows</text>
<polygon fill="#ffffff" stroke="transparent" points="641,-47.2088 641,-66.2088 683,-66.2088 683,-47.2088 641,-47.2088"/>
<polygon fill="none" stroke="#000000" points="641,-47.2088 641,-66.2088 683,-66.2088 683,-47.2088 641,-47.2088"/>
<text text-anchor="start" x="664.4053" y="-53.3088" font-family="Helvetica,sans-Serif" font-size="11.00" fill="#000000">1 &gt;</text>
</a>
</g>
</g>
<!-- user_federation_mapper&#45;&gt;realm -->
<g id="edge31" class="edge">
<title>user_federation_mapper:w&#45;&gt;realm:e</title>
<path fill="none" stroke="#000000" d="M506.2599,-74.1888C489.5925,-71.6961 481.2637,-65.3435 459,-63.2088 371.8442,-54.8519 325.3539,-2.7748 262,-63.2088 192.9414,-129.0845 316.9395,-921.2088 221.5,-921.2088"/>
<polygon fill="#000000" stroke="#000000" points="513.0191,-74.6565 520.7515,-78.8002 517.0095,-74.9326 521,-75.2088 521,-75.2088 521,-75.2088 517.0095,-74.9326 521.2485,-71.6174 513.0191,-74.6565 513.0191,-74.6565"/>
<ellipse fill="none" stroke="#000000" cx="509.8267" cy="-74.4355" rx="3.2" ry="3.2"/>
</g>
<!-- user_federation_provider -->
<g id="node28" class="node">
<title>user_federation_provider</title>
<g id="a_node28"><a xlink:href="../../tables/user_federation_provider.html" xlink:title="user_federation_provider" target="_top">
<polygon fill="#ffffff" stroke="transparent" points="278,-73.7088 278,-134.7088 443,-134.7088 443,-73.7088 278,-73.7088"/>
<polygon fill="#f5f5f5" stroke="transparent" points="278.5,-111.2088 278.5,-134.2088 443.5,-134.2088 443.5,-111.2088 278.5,-111.2088"/>
<polygon fill="none" stroke="#000000" points="278.5,-111.2088 278.5,-134.2088 443.5,-134.2088 443.5,-111.2088 278.5,-111.2088"/>
<text text-anchor="start" x="283.3741" y="-120.3088" font-family="Helvetica,sans-Serif" font-weight="bold" font-size="11.00" fill="#000000">user_federation_provider</text>
<text text-anchor="start" x="409.0219" y="-119.3088" font-family="Helvetica,sans-Serif" font-size="11.00" fill="#000000">[table]</text>
<polygon fill="none" stroke="#000000" points="278.5,-92.2088 278.5,-111.2088 443.5,-111.2088 443.5,-92.2088 278.5,-92.2088"/>
<text text-anchor="start" x="281.5" y="-98.3088" font-family="Helvetica,sans-Serif" font-size="11.00" fill="#000000">...</text>
<polygon fill="#ffffff" stroke="transparent" points="278.5,-73.2088 278.5,-92.2088 341.5,-92.2088 341.5,-73.2088 278.5,-73.2088"/>
<polygon fill="none" stroke="#000000" points="278.5,-73.2088 278.5,-92.2088 341.5,-92.2088 341.5,-73.2088 278.5,-73.2088"/>
<text text-anchor="start" x="281.5" y="-79.3088" font-family="Helvetica,sans-Serif" font-size="11.00" fill="#000000">&lt; 1</text>
<polygon fill="#ffffff" stroke="transparent" points="341.5,-73.2088 341.5,-92.2088 400.5,-92.2088 400.5,-73.2088 341.5,-73.2088"/>
<polygon fill="none" stroke="#000000" points="341.5,-73.2088 341.5,-92.2088 400.5,-92.2088 400.5,-73.2088 341.5,-73.2088"/>
<text text-anchor="start" x="365.1105" y="-79.3088" font-family="Helvetica,sans-Serif" font-size="11.00" fill="#000000">0 rows</text>
<polygon fill="#ffffff" stroke="transparent" points="400.5,-73.2088 400.5,-92.2088 443.5,-92.2088 443.5,-73.2088 400.5,-73.2088"/>
<polygon fill="none" stroke="#000000" points="400.5,-73.2088 400.5,-92.2088 443.5,-92.2088 443.5,-73.2088 400.5,-73.2088"/>
<text text-anchor="start" x="424.9053" y="-79.3088" font-family="Helvetica,sans-Serif" font-size="11.00" fill="#000000">2 &gt;</text>
</a>
</g>
</g>
<!-- user_federation_mapper&#45;&gt;user_federation_provider -->
<g id="edge30" class="edge">
<title>user_federation_mapper:w&#45;&gt;user_federation_provider:e</title>
<path fill="none" stroke="#000000" d="M506.3656,-76.8352C482.464,-82.5272 474.2963,-101.2088 443.5,-101.2088"/>
<polygon fill="#000000" stroke="#000000" points="513.049,-76.0925 521.3977,-78.7867 517.0245,-75.6506 521,-75.2088 521,-75.2088 521,-75.2088 517.0245,-75.6506 520.6023,-71.6308 513.049,-76.0925 513.049,-76.0925"/>
<ellipse fill="none" stroke="#000000" cx="509.8685" cy="-76.446" rx="3.2" ry="3.2"/>
</g>
<!-- user_federation_provider&#45;&gt;realm -->
<g id="edge32" class="edge">
<title>user_federation_provider:w&#45;&gt;realm:e</title>
<path fill="none" stroke="#000000" d="M265.3919,-108.2977C200.2643,-188.4439 307.8363,-921.2088 221.5,-921.2088"/>
<polygon fill="#000000" stroke="#000000" points="271.4631,-105.0144 280.2125,-104.3754 274.9816,-103.1116 278.5,-101.2088 278.5,-101.2088 278.5,-101.2088 274.9816,-103.1116 276.7875,-98.0422 271.4631,-105.0144 271.4631,-105.0144"/>
<ellipse fill="none" stroke="#000000" cx="268.6484" cy="-106.5366" rx="3.2" ry="3.2"/>
</g>
</g>
</svg>
