<?xml version="1.0" encoding="UTF-8" standalone="no"?>
<!DOCTYPE svg PUBLIC "-//W3C//DTD SVG 1.1//EN"
 "http://www.w3.org/Graphics/SVG/1.1/DTD/svg11.dtd">
<!-- Generated by graphviz version 2.40.1 (20161225.0304)
 -->
<!-- Title: oneDegreeRelationshipsDiagramImplied Pages: 1 -->
<svg width="377pt" height="316pt"
 viewBox="0.00 0.00 377.00 316.20" xmlns="http://www.w3.org/2000/svg" xmlns:xlink="http://www.w3.org/1999/xlink">
<g id="graph0" class="graph" transform="scale(1 1) rotate(0) translate(4 312.2)">
<title>oneDegreeRelationshipsDiagramImplied</title>
<polygon fill="#ffffff" stroke="transparent" points="-4,4 -4,-312.2 373,-312.2 373,4 -4,4"/>
<text text-anchor="middle" x="72.4936" y="-7.3" font-family="Helvetica,sans-Serif" font-size="11.00" fill="#000000">Generated by SchemaSpy</text>
<!-- event_entity -->
<g id="node1" class="node">
<title>event_entity</title>
<g id="a_node1"><a xlink:href="../../tables/event_entity.html" xlink:title="event_entity" target="_top">
<polygon fill="#ffffff" stroke="transparent" points="193,-38.2 193,-304.2 361,-304.2 361,-38.2 193,-38.2"/>
<polygon fill="#f5f5f5" stroke="transparent" points="195,-279.2 195,-302.2 359,-302.2 359,-279.2 195,-279.2"/>
<polygon fill="none" stroke="#000000" points="195,-279.2 195,-302.2 359,-302.2 359,-279.2 195,-279.2"/>
<text text-anchor="start" x="200" y="-288.3" font-family="Helvetica,sans-Serif" font-weight="bold" font-size="11.00" fill="#000000">event_entity</text>
<text text-anchor="start" x="324.0437" y="-287.3" font-family="Helvetica,sans-Serif" font-size="11.00" fill="#000000">[table]</text>
<polygon fill="none" stroke="#000000" points="195,-257.2 195,-279.2 286,-279.2 286,-257.2 195,-257.2"/>
<image xlink:href="../../images/primaryKeys.png" width="11px" height="12px" preserveAspectRatio="xMinYMin meet" x="200" y="-274.2"/>
<text text-anchor="start" x="215" y="-264.3" font-family="Helvetica,sans-Serif" font-size="11.00" fill="#000000">id</text>
<polygon fill="none" stroke="#000000" points="286,-257.2 286,-279.2 359,-279.2 359,-257.2 286,-257.2"/>
<text text-anchor="start" x="289" y="-264.9" font-family="Helvetica,sans-Serif" font-size="11.00" fill="#000000">varchar[36]</text>
<polygon fill="none" stroke="#000000" points="195,-235.2 195,-257.2 286,-257.2 286,-235.2 195,-235.2"/>
<image xlink:href="../../images/foreignKeys.png" width="11px" height="12px" preserveAspectRatio="xMinYMin meet" x="200" y="-252.2"/>
<text text-anchor="start" x="215" y="-242.3" font-family="Helvetica,sans-Serif" font-size="11.00" fill="#000000">client_id</text>
<polygon fill="none" stroke="#000000" points="286,-235.2 286,-257.2 359,-257.2 359,-235.2 286,-235.2"/>
<text text-anchor="start" x="289" y="-242.9" font-family="Helvetica,sans-Serif" font-size="11.00" fill="#000000">varchar[255]</text>
<polygon fill="none" stroke="#000000" points="195,-213.2 195,-235.2 286,-235.2 286,-213.2 195,-213.2"/>
<text text-anchor="start" x="215" y="-220.3" font-family="Helvetica,sans-Serif" font-size="11.00" fill="#000000">details_json</text>
<polygon fill="none" stroke="#000000" points="286,-213.2 286,-235.2 359,-235.2 359,-213.2 286,-213.2"/>
<text text-anchor="start" x="288.8791" y="-220.9" font-family="Helvetica,sans-Serif" font-size="11.00" fill="#000000">varchar[2550]</text>
<polygon fill="none" stroke="#000000" points="195,-191.2 195,-213.2 286,-213.2 286,-191.2 195,-191.2"/>
<text text-anchor="start" x="215" y="-198.3" font-family="Helvetica,sans-Serif" font-size="11.00" fill="#000000">error</text>
<polygon fill="none" stroke="#000000" points="286,-191.2 286,-213.2 359,-213.2 359,-191.2 286,-191.2"/>
<text text-anchor="start" x="289" y="-198.9" font-family="Helvetica,sans-Serif" font-size="11.00" fill="#000000">varchar[255]</text>
<polygon fill="none" stroke="#000000" points="195,-169.2 195,-191.2 286,-191.2 286,-169.2 195,-169.2"/>
<text text-anchor="start" x="215" y="-176.3" font-family="Helvetica,sans-Serif" font-size="11.00" fill="#000000">ip_address</text>
<polygon fill="none" stroke="#000000" points="286,-169.2 286,-191.2 359,-191.2 359,-169.2 286,-169.2"/>
<text text-anchor="start" x="289" y="-176.9" font-family="Helvetica,sans-Serif" font-size="11.00" fill="#000000">varchar[255]</text>
<polygon fill="#ffffff" stroke="transparent" points="195,-147.2 195,-169.2 286,-169.2 286,-147.2 195,-147.2"/>
<polygon fill="none" stroke="#000000" points="195,-147.2 195,-169.2 286,-169.2 286,-147.2 195,-147.2"/>
<image xlink:href="../../images/foreignKeys.png" width="11px" height="12px" preserveAspectRatio="xMinYMin meet" x="200" y="-164.2"/>
<text text-anchor="start" x="215" y="-154.3" font-family="Helvetica,sans-Serif" font-size="11.00" fill="#000000">realm_id</text>
<polygon fill="none" stroke="#000000" points="286,-147.2 286,-169.2 359,-169.2 359,-147.2 286,-147.2"/>
<text text-anchor="start" x="289" y="-154.9" font-family="Helvetica,sans-Serif" font-size="11.00" fill="#000000">varchar[255]</text>
<polygon fill="none" stroke="#000000" points="195,-125.2 195,-147.2 286,-147.2 286,-125.2 195,-125.2"/>
<image xlink:href="../../images/foreignKeys.png" width="11px" height="12px" preserveAspectRatio="xMinYMin meet" x="200" y="-142.2"/>
<text text-anchor="start" x="215" y="-132.3" font-family="Helvetica,sans-Serif" font-size="11.00" fill="#000000">session_id</text>
<polygon fill="none" stroke="#000000" points="286,-125.2 286,-147.2 359,-147.2 359,-125.2 286,-125.2"/>
<text text-anchor="start" x="289" y="-132.9" font-family="Helvetica,sans-Serif" font-size="11.00" fill="#000000">varchar[255]</text>
<polygon fill="#ffffff" stroke="transparent" points="195,-103.2 195,-125.2 286,-125.2 286,-103.2 195,-103.2"/>
<polygon fill="none" stroke="#000000" points="195,-103.2 195,-125.2 286,-125.2 286,-103.2 195,-103.2"/>
<text text-anchor="start" x="215" y="-110.3" font-family="Helvetica,sans-Serif" font-size="11.00" fill="#000000">event_time</text>
<polygon fill="none" stroke="#000000" points="286,-103.2 286,-125.2 359,-125.2 359,-103.2 286,-103.2"/>
<text text-anchor="start" x="289" y="-110.9" font-family="Helvetica,sans-Serif" font-size="11.00" fill="#000000">int8[19]</text>
<polygon fill="none" stroke="#000000" points="195,-81.2 195,-103.2 286,-103.2 286,-81.2 195,-81.2"/>
<text text-anchor="start" x="215" y="-88.3" font-family="Helvetica,sans-Serif" font-size="11.00" fill="#000000">type</text>
<polygon fill="none" stroke="#000000" points="286,-81.2 286,-103.2 359,-103.2 359,-81.2 286,-81.2"/>
<text text-anchor="start" x="289" y="-88.9" font-family="Helvetica,sans-Serif" font-size="11.00" fill="#000000">varchar[255]</text>
<polygon fill="none" stroke="#000000" points="195,-59.2 195,-81.2 286,-81.2 286,-59.2 195,-59.2"/>
<image xlink:href="../../images/foreignKeys.png" width="11px" height="12px" preserveAspectRatio="xMinYMin meet" x="200" y="-76.2"/>
<text text-anchor="start" x="215" y="-66.3" font-family="Helvetica,sans-Serif" font-size="11.00" fill="#000000">user_id</text>
<polygon fill="none" stroke="#000000" points="286,-59.2 286,-81.2 359,-81.2 359,-59.2 286,-59.2"/>
<text text-anchor="start" x="289" y="-66.9" font-family="Helvetica,sans-Serif" font-size="11.00" fill="#000000">varchar[255]</text>
<polygon fill="#ffffff" stroke="transparent" points="195,-40.2 195,-59.2 232,-59.2 232,-40.2 195,-40.2"/>
<polygon fill="none" stroke="#000000" points="195,-40.2 195,-59.2 232,-59.2 232,-40.2 195,-40.2"/>
<text text-anchor="start" x="198" y="-46.3" font-family="Helvetica,sans-Serif" font-size="11.00" fill="#000000">&lt; 4</text>
<polygon fill="#ffffff" stroke="transparent" points="232,-40.2 232,-59.2 286,-59.2 286,-40.2 232,-40.2"/>
<polygon fill="none" stroke="#000000" points="232,-40.2 232,-59.2 286,-59.2 286,-40.2 232,-40.2"/>
<text text-anchor="start" x="250.6105" y="-46.3" font-family="Helvetica,sans-Serif" font-size="11.00" fill="#000000">0 rows</text>
<polygon fill="#ffffff" stroke="transparent" points="286,-40.2 286,-59.2 359,-59.2 359,-40.2 286,-40.2"/>
<polygon fill="none" stroke="#000000" points="286,-40.2 286,-59.2 359,-59.2 359,-40.2 286,-40.2"/>
<text text-anchor="start" x="340.4053" y="-46.3" font-family="Helvetica,sans-Serif" font-size="11.00" fill="#000000">0 &gt;</text>
<polygon fill="none" stroke="#000000" stroke-width="2" points="194,-39.2 194,-303.2 360,-303.2 360,-39.2 194,-39.2"/>
</a>
</g>
</g>
<!-- federated_user -->
<g id="node2" class="node">
<title>federated_user</title>
<g id="a_node2"><a xlink:href="../../tables/federated_user.html" xlink:title="federated_user" target="_top">
<polygon fill="#ffffff" stroke="transparent" points="8,-98.7 8,-181.7 144,-181.7 144,-98.7 8,-98.7"/>
<polygon fill="#f5f5f5" stroke="transparent" points="8,-158.2 8,-181.2 144,-181.2 144,-158.2 8,-158.2"/>
<polygon fill="none" stroke="#000000" points="8,-158.2 8,-181.2 144,-181.2 144,-158.2 8,-158.2"/>
<text text-anchor="start" x="13" y="-167.3" font-family="Helvetica,sans-Serif" font-weight="bold" font-size="11.00" fill="#000000">federated_user</text>
<text text-anchor="start" x="109.0437" y="-166.3" font-family="Helvetica,sans-Serif" font-size="11.00" fill="#000000">[table]</text>
<polygon fill="none" stroke="#000000" points="8,-136.2 8,-158.2 144,-158.2 144,-136.2 8,-136.2"/>
<image xlink:href="../../images/primaryKeys.png" width="11px" height="12px" preserveAspectRatio="xMinYMin meet" x="13" y="-153.2"/>
<text text-anchor="start" x="28" y="-143.3" font-family="Helvetica,sans-Serif" font-size="11.00" fill="#000000">id</text>
<polygon fill="none" stroke="#000000" points="8,-117.2 8,-136.2 144,-136.2 144,-117.2 8,-117.2"/>
<text text-anchor="start" x="11" y="-123.3" font-family="Helvetica,sans-Serif" font-size="11.00" fill="#000000">...</text>
<polygon fill="#ffffff" stroke="transparent" points="8,-98.2 8,-117.2 49,-117.2 49,-98.2 8,-98.2"/>
<polygon fill="none" stroke="#000000" points="8,-98.2 8,-117.2 49,-117.2 49,-98.2 8,-98.2"/>
<text text-anchor="start" x="11" y="-104.3" font-family="Helvetica,sans-Serif" font-size="11.00" fill="#000000"> &#160;</text>
<polygon fill="#ffffff" stroke="transparent" points="49,-98.2 49,-117.2 102,-117.2 102,-98.2 49,-98.2"/>
<polygon fill="none" stroke="#000000" points="49,-98.2 49,-117.2 102,-117.2 102,-98.2 49,-98.2"/>
<text text-anchor="start" x="66.6105" y="-104.3" font-family="Helvetica,sans-Serif" font-size="11.00" fill="#000000">0 rows</text>
<polygon fill="#ffffff" stroke="transparent" points="102,-98.2 102,-117.2 144,-117.2 144,-98.2 102,-98.2"/>
<polygon fill="none" stroke="#000000" points="102,-98.2 102,-117.2 144,-117.2 144,-98.2 102,-98.2"/>
<text text-anchor="start" x="119.2904" y="-104.3" font-family="Helvetica,sans-Serif" font-size="11.00" fill="#000000">30 &gt;</text>
</a>
</g>
</g>
<!-- event_entity&#45;&gt;federated_user -->
<g id="edge1" class="edge">
<title>event_entity:w&#45;&gt;federated_user:e</title>
<path fill="none" stroke="#000000" stroke-dasharray="5,2" d="M180.9616,-242.1965C155.698,-223.6751 187.5017,-147.2 144,-147.2"/>
<polygon fill="#000000" stroke="#000000" points="187.3067,-244.006 194.0127,-249.662 191.1534,-245.103 195,-246.2 195,-246.2 195,-246.2 191.1534,-245.103 195.9873,-242.738 187.3067,-244.006 187.3067,-244.006"/>
<ellipse fill="none" stroke="#000000" cx="184.2294" cy="-243.1283" rx="3.2" ry="3.2"/>
</g>
<!-- event_entity&#45;&gt;federated_user -->
<g id="edge2" class="edge">
<title>event_entity:w&#45;&gt;federated_user:e</title>
<path fill="none" stroke="#000000" stroke-dasharray="5,2" d="M180.5097,-156.4813C168.3398,-153.3875 161.3909,-147.2 144,-147.2"/>
<polygon fill="#000000" stroke="#000000" points="187.0557,-157.2576 194.5759,-161.7749 191.0278,-157.7288 195,-158.2 195,-158.2 195,-158.2 191.0278,-157.7288 195.4241,-154.6251 187.0557,-157.2576 187.0557,-157.2576"/>
<ellipse fill="none" stroke="#000000" cx="183.878" cy="-156.8807" rx="3.2" ry="3.2"/>
</g>
<!-- event_entity&#45;&gt;federated_user -->
<g id="edge3" class="edge">
<title>event_entity:w&#45;&gt;federated_user:e</title>
<path fill="none" stroke="#000000" stroke-dasharray="5,2" d="M180.5097,-137.9188C168.3398,-141.0125 161.3909,-147.2 144,-147.2"/>
<polygon fill="#000000" stroke="#000000" points="187.0557,-137.1424 195.4241,-139.7749 191.0278,-136.6712 195,-136.2 195,-136.2 195,-136.2 191.0278,-136.6712 194.5759,-132.6251 187.0557,-137.1424 187.0557,-137.1424"/>
<ellipse fill="none" stroke="#000000" cx="183.878" cy="-137.5193" rx="3.2" ry="3.2"/>
</g>
<!-- event_entity&#45;&gt;federated_user -->
<g id="edge4" class="edge">
<title>event_entity:w&#45;&gt;federated_user:e</title>
<path fill="none" stroke="#000000" stroke-dasharray="5,2" d="M181.0177,-74.7861C161.594,-91.3628 178.9549,-147.2 144,-147.2"/>
<polygon fill="#000000" stroke="#000000" points="187.3984,-72.6933 196.122,-73.6207 191.1992,-71.4466 195,-70.2 195,-70.2 195,-70.2 191.1992,-71.4466 193.878,-66.7793 187.3984,-72.6933 187.3984,-72.6933"/>
<ellipse fill="none" stroke="#000000" cx="184.3578" cy="-73.6906" rx="3.2" ry="3.2"/>
</g>
</g>
</svg>
