<?xml version="1.0" encoding="UTF-8" standalone="no"?>
<!DOCTYPE svg PUBLIC "-//W3C//DTD SVG 1.1//EN"
 "http://www.w3.org/Graphics/SVG/1.1/DTD/svg11.dtd">
<!-- Generated by graphviz version 2.40.1 (20161225.0304)
 -->
<!-- Title: oneDegreeRelationshipsDiagramImplied Pages: 1 -->
<svg width="449pt" height="338pt"
 viewBox="0.00 0.00 449.00 338.20" xmlns="http://www.w3.org/2000/svg" xmlns:xlink="http://www.w3.org/1999/xlink">
<g id="graph0" class="graph" transform="scale(1 1) rotate(0) translate(4 334.2)">
<title>oneDegreeRelationshipsDiagramImplied</title>
<polygon fill="#ffffff" stroke="transparent" points="-4,4 -4,-334.2 445,-334.2 445,4 -4,4"/>
<text text-anchor="middle" x="72.4936" y="-7.3" font-family="Helvetica,sans-Serif" font-size="11.00" fill="#000000">Generated by SchemaSpy</text>
<!-- fed_user_credential -->
<g id="node1" class="node">
<title>fed_user_credential</title>
<g id="a_node1"><a xlink:href="../../tables/fed_user_credential.html" xlink:title="fed_user_credential" target="_top">
<polygon fill="#ffffff" stroke="transparent" points="193,-38.2 193,-326.2 433,-326.2 433,-38.2 193,-38.2"/>
<polygon fill="#f5f5f5" stroke="transparent" points="195,-301.2 195,-324.2 431,-324.2 431,-301.2 195,-301.2"/>
<polygon fill="none" stroke="#000000" points="195,-301.2 195,-324.2 431,-324.2 431,-301.2 195,-301.2"/>
<text text-anchor="start" x="200" y="-310.3" font-family="Helvetica,sans-Serif" font-weight="bold" font-size="11.00" fill="#000000">fed_user_credential</text>
<text text-anchor="start" x="396.0437" y="-309.3" font-family="Helvetica,sans-Serif" font-size="11.00" fill="#000000">[table]</text>
<polygon fill="none" stroke="#000000" points="195,-279.2 195,-301.2 331,-301.2 331,-279.2 195,-279.2"/>
<image xlink:href="../../images/primaryKeys.png" width="11px" height="12px" preserveAspectRatio="xMinYMin meet" x="200" y="-296.2"/>
<text text-anchor="start" x="215" y="-286.3" font-family="Helvetica,sans-Serif" font-size="11.00" fill="#000000">id</text>
<polygon fill="none" stroke="#000000" points="331,-279.2 331,-301.2 431,-301.2 431,-279.2 331,-279.2"/>
<text text-anchor="start" x="334" y="-286.9" font-family="Helvetica,sans-Serif" font-size="11.00" fill="#000000">varchar[36]</text>
<polygon fill="none" stroke="#000000" points="195,-257.2 195,-279.2 331,-279.2 331,-257.2 195,-257.2"/>
<text text-anchor="start" x="215" y="-264.3" font-family="Helvetica,sans-Serif" font-size="11.00" fill="#000000">salt</text>
<polygon fill="none" stroke="#000000" points="331,-257.2 331,-279.2 431,-279.2 431,-257.2 331,-257.2"/>
<text text-anchor="start" x="333.9178" y="-264.9" font-family="Helvetica,sans-Serif" font-size="11.00" fill="#000000">bytea[2147483647]</text>
<polygon fill="#ffffff" stroke="transparent" points="195,-235.2 195,-257.2 331,-257.2 331,-235.2 195,-235.2"/>
<polygon fill="none" stroke="#000000" points="195,-235.2 195,-257.2 331,-257.2 331,-235.2 195,-235.2"/>
<text text-anchor="start" x="215" y="-242.3" font-family="Helvetica,sans-Serif" font-size="11.00" fill="#000000">type</text>
<polygon fill="none" stroke="#000000" points="331,-235.2 331,-257.2 431,-257.2 431,-235.2 331,-235.2"/>
<text text-anchor="start" x="334" y="-242.9" font-family="Helvetica,sans-Serif" font-size="11.00" fill="#000000">varchar[255]</text>
<polygon fill="none" stroke="#000000" points="195,-213.2 195,-235.2 331,-235.2 331,-213.2 195,-213.2"/>
<text text-anchor="start" x="215" y="-220.3" font-family="Helvetica,sans-Serif" font-size="11.00" fill="#000000">created_date</text>
<polygon fill="none" stroke="#000000" points="331,-213.2 331,-235.2 431,-235.2 431,-213.2 331,-213.2"/>
<text text-anchor="start" x="334" y="-220.9" font-family="Helvetica,sans-Serif" font-size="11.00" fill="#000000">int8[19]</text>
<polygon fill="#ffffff" stroke="transparent" points="195,-191.2 195,-213.2 331,-213.2 331,-191.2 195,-191.2"/>
<polygon fill="none" stroke="#000000" points="195,-191.2 195,-213.2 331,-213.2 331,-191.2 195,-191.2"/>
<image xlink:href="../../images/foreignKeys.png" width="11px" height="12px" preserveAspectRatio="xMinYMin meet" x="200" y="-208.2"/>
<text text-anchor="start" x="215" y="-198.3" font-family="Helvetica,sans-Serif" font-size="11.00" fill="#000000">user_id</text>
<polygon fill="none" stroke="#000000" points="331,-191.2 331,-213.2 431,-213.2 431,-191.2 331,-191.2"/>
<text text-anchor="start" x="334" y="-198.9" font-family="Helvetica,sans-Serif" font-size="11.00" fill="#000000">varchar[255]</text>
<polygon fill="#ffffff" stroke="transparent" points="195,-169.2 195,-191.2 331,-191.2 331,-169.2 195,-169.2"/>
<polygon fill="none" stroke="#000000" points="195,-169.2 195,-191.2 331,-191.2 331,-169.2 195,-169.2"/>
<text text-anchor="start" x="215" y="-176.3" font-family="Helvetica,sans-Serif" font-size="11.00" fill="#000000">realm_id</text>
<polygon fill="none" stroke="#000000" points="331,-169.2 331,-191.2 431,-191.2 431,-169.2 331,-169.2"/>
<text text-anchor="start" x="334" y="-176.9" font-family="Helvetica,sans-Serif" font-size="11.00" fill="#000000">varchar[36]</text>
<polygon fill="none" stroke="#000000" points="195,-147.2 195,-169.2 331,-169.2 331,-147.2 195,-147.2"/>
<text text-anchor="start" x="215" y="-154.3" font-family="Helvetica,sans-Serif" font-size="11.00" fill="#000000">storage_provider_id</text>
<polygon fill="none" stroke="#000000" points="331,-147.2 331,-169.2 431,-169.2 431,-147.2 331,-147.2"/>
<text text-anchor="start" x="334" y="-154.9" font-family="Helvetica,sans-Serif" font-size="11.00" fill="#000000">varchar[36]</text>
<polygon fill="none" stroke="#000000" points="195,-125.2 195,-147.2 331,-147.2 331,-125.2 195,-125.2"/>
<text text-anchor="start" x="215" y="-132.3" font-family="Helvetica,sans-Serif" font-size="11.00" fill="#000000">user_label</text>
<polygon fill="none" stroke="#000000" points="331,-125.2 331,-147.2 431,-147.2 431,-125.2 331,-125.2"/>
<text text-anchor="start" x="334" y="-132.9" font-family="Helvetica,sans-Serif" font-size="11.00" fill="#000000">varchar[255]</text>
<polygon fill="none" stroke="#000000" points="195,-103.2 195,-125.2 331,-125.2 331,-103.2 195,-103.2"/>
<text text-anchor="start" x="215" y="-110.3" font-family="Helvetica,sans-Serif" font-size="11.00" fill="#000000">secret_data</text>
<polygon fill="none" stroke="#000000" points="331,-103.2 331,-125.2 431,-125.2 431,-103.2 331,-103.2"/>
<text text-anchor="start" x="334" y="-110.9" font-family="Helvetica,sans-Serif" font-size="11.00" fill="#000000">text[2147483647]</text>
<polygon fill="none" stroke="#000000" points="195,-81.2 195,-103.2 331,-103.2 331,-81.2 195,-81.2"/>
<text text-anchor="start" x="215" y="-88.3" font-family="Helvetica,sans-Serif" font-size="11.00" fill="#000000">credential_data</text>
<polygon fill="none" stroke="#000000" points="331,-81.2 331,-103.2 431,-103.2 431,-81.2 331,-81.2"/>
<text text-anchor="start" x="334" y="-88.9" font-family="Helvetica,sans-Serif" font-size="11.00" fill="#000000">text[2147483647]</text>
<polygon fill="none" stroke="#000000" points="195,-59.2 195,-81.2 331,-81.2 331,-59.2 195,-59.2"/>
<text text-anchor="start" x="215" y="-66.3" font-family="Helvetica,sans-Serif" font-size="11.00" fill="#000000">priority</text>
<polygon fill="none" stroke="#000000" points="331,-59.2 331,-81.2 431,-81.2 431,-59.2 331,-59.2"/>
<text text-anchor="start" x="334" y="-66.9" font-family="Helvetica,sans-Serif" font-size="11.00" fill="#000000">int4[10]</text>
<polygon fill="#ffffff" stroke="transparent" points="195,-40.2 195,-59.2 254,-59.2 254,-40.2 195,-40.2"/>
<polygon fill="none" stroke="#000000" points="195,-40.2 195,-59.2 254,-59.2 254,-40.2 195,-40.2"/>
<text text-anchor="start" x="198" y="-46.3" font-family="Helvetica,sans-Serif" font-size="11.00" fill="#000000">&lt; 1</text>
<polygon fill="#ffffff" stroke="transparent" points="254,-40.2 254,-59.2 331,-59.2 331,-40.2 254,-40.2"/>
<polygon fill="none" stroke="#000000" points="254,-40.2 254,-59.2 331,-59.2 331,-40.2 254,-40.2"/>
<text text-anchor="start" x="295.6105" y="-46.3" font-family="Helvetica,sans-Serif" font-size="11.00" fill="#000000">0 rows</text>
<polygon fill="#ffffff" stroke="transparent" points="331,-40.2 331,-59.2 431,-59.2 431,-40.2 331,-40.2"/>
<polygon fill="none" stroke="#000000" points="331,-40.2 331,-59.2 431,-59.2 431,-40.2 331,-40.2"/>
<text text-anchor="start" x="412.4053" y="-46.3" font-family="Helvetica,sans-Serif" font-size="11.00" fill="#000000">0 &gt;</text>
<polygon fill="none" stroke="#000000" stroke-width="2" points="194,-39.2 194,-325.2 432,-325.2 432,-39.2 194,-39.2"/>
</a>
</g>
</g>
<!-- federated_user -->
<g id="node2" class="node">
<title>federated_user</title>
<g id="a_node2"><a xlink:href="../../tables/federated_user.html" xlink:title="federated_user" target="_top">
<polygon fill="#ffffff" stroke="transparent" points="8,-153.7 8,-236.7 144,-236.7 144,-153.7 8,-153.7"/>
<polygon fill="#f5f5f5" stroke="transparent" points="8,-213.2 8,-236.2 144,-236.2 144,-213.2 8,-213.2"/>
<polygon fill="none" stroke="#000000" points="8,-213.2 8,-236.2 144,-236.2 144,-213.2 8,-213.2"/>
<text text-anchor="start" x="13" y="-222.3" font-family="Helvetica,sans-Serif" font-weight="bold" font-size="11.00" fill="#000000">federated_user</text>
<text text-anchor="start" x="109.0437" y="-221.3" font-family="Helvetica,sans-Serif" font-size="11.00" fill="#000000">[table]</text>
<polygon fill="none" stroke="#000000" points="8,-191.2 8,-213.2 144,-213.2 144,-191.2 8,-191.2"/>
<image xlink:href="../../images/primaryKeys.png" width="11px" height="12px" preserveAspectRatio="xMinYMin meet" x="13" y="-208.2"/>
<text text-anchor="start" x="28" y="-198.3" font-family="Helvetica,sans-Serif" font-size="11.00" fill="#000000">id</text>
<polygon fill="none" stroke="#000000" points="8,-172.2 8,-191.2 144,-191.2 144,-172.2 8,-172.2"/>
<text text-anchor="start" x="11" y="-178.3" font-family="Helvetica,sans-Serif" font-size="11.00" fill="#000000">...</text>
<polygon fill="#ffffff" stroke="transparent" points="8,-153.2 8,-172.2 49,-172.2 49,-153.2 8,-153.2"/>
<polygon fill="none" stroke="#000000" points="8,-153.2 8,-172.2 49,-172.2 49,-153.2 8,-153.2"/>
<text text-anchor="start" x="11" y="-159.3" font-family="Helvetica,sans-Serif" font-size="11.00" fill="#000000"> &#160;</text>
<polygon fill="#ffffff" stroke="transparent" points="49,-153.2 49,-172.2 102,-172.2 102,-153.2 49,-153.2"/>
<polygon fill="none" stroke="#000000" points="49,-153.2 49,-172.2 102,-172.2 102,-153.2 49,-153.2"/>
<text text-anchor="start" x="66.6105" y="-159.3" font-family="Helvetica,sans-Serif" font-size="11.00" fill="#000000">0 rows</text>
<polygon fill="#ffffff" stroke="transparent" points="102,-153.2 102,-172.2 144,-172.2 144,-153.2 102,-153.2"/>
<polygon fill="none" stroke="#000000" points="102,-153.2 102,-172.2 144,-172.2 144,-153.2 102,-153.2"/>
<text text-anchor="start" x="119.2904" y="-159.3" font-family="Helvetica,sans-Serif" font-size="11.00" fill="#000000">30 &gt;</text>
</a>
</g>
</g>
<!-- fed_user_credential&#45;&gt;federated_user -->
<g id="edge1" class="edge">
<title>fed_user_credential:w&#45;&gt;federated_user:e</title>
<path fill="none" stroke="#000000" stroke-dasharray="5,2" d="M180.276,-202.2C168.2815,-202.2 160.8229,-202.2 144,-202.2"/>
<polygon fill="#000000" stroke="#000000" points="187,-202.2001 195,-205.8 191,-202.2 195,-202.2 195,-202.2 195,-202.2 191,-202.2 195,-198.6 187,-202.2001 187,-202.2001"/>
<ellipse fill="none" stroke="#000000" cx="183.8" cy="-202.2001" rx="3.2" ry="3.2"/>
</g>
</g>
</svg>
