<?xml version="1.0" encoding="UTF-8" standalone="no"?>
<!DOCTYPE svg PUBLIC "-//W3C//DTD SVG 1.1//EN"
 "http://www.w3.org/Graphics/SVG/1.1/DTD/svg11.dtd">
<!-- Generated by graphviz version 2.40.1 (20161225.0304)
 -->
<!-- Title: oneDegreeRelationshipsDiagram Pages: 1 -->
<svg width="485pt" height="333pt"
 viewBox="0.00 0.00 485.00 332.70" xmlns="http://www.w3.org/2000/svg" xmlns:xlink="http://www.w3.org/1999/xlink">
<g id="graph0" class="graph" transform="scale(1 1) rotate(0) translate(4 328.7)">
<title>oneDegreeRelationshipsDiagram</title>
<polygon fill="#ffffff" stroke="transparent" points="-4,4 -4,-328.7 481,-328.7 481,4 -4,4"/>
<text text-anchor="middle" x="72.4936" y="-7.3" font-family="Helvetica,sans-Serif" font-size="11.00" fill="#000000">Generated by SchemaSpy</text>
<!-- federated_identity -->
<g id="node1" class="node">
<title>federated_identity</title>
<g id="a_node1"><a xlink:href="../../tables/federated_identity.html" xlink:title="federated_identity" target="_top">
<polygon fill="#ffffff" stroke="transparent" points="237,-142.7 237,-320.7 469,-320.7 469,-142.7 237,-142.7"/>
<polygon fill="#f5f5f5" stroke="transparent" points="239,-295.7 239,-318.7 467,-318.7 467,-295.7 239,-295.7"/>
<polygon fill="none" stroke="#000000" points="239,-295.7 239,-318.7 467,-318.7 467,-295.7 239,-295.7"/>
<text text-anchor="start" x="244" y="-304.8" font-family="Helvetica,sans-Serif" font-weight="bold" font-size="11.00" fill="#000000">federated_identity</text>
<text text-anchor="start" x="432.0437" y="-303.8" font-family="Helvetica,sans-Serif" font-size="11.00" fill="#000000">[table]</text>
<polygon fill="none" stroke="#000000" points="239,-273.7 239,-295.7 377,-295.7 377,-273.7 239,-273.7"/>
<image xlink:href="../../images/primaryKeys.png" width="11px" height="12px" preserveAspectRatio="xMinYMin meet" x="244" y="-290.7"/>
<text text-anchor="start" x="259" y="-280.8" font-family="Helvetica,sans-Serif" font-size="11.00" fill="#000000">identity_provider</text>
<polygon fill="none" stroke="#000000" points="377,-273.7 377,-295.7 467,-295.7 467,-273.7 377,-273.7"/>
<text text-anchor="start" x="380" y="-281.4" font-family="Helvetica,sans-Serif" font-size="11.00" fill="#000000">varchar[255]</text>
<polygon fill="none" stroke="#000000" points="239,-251.7 239,-273.7 377,-273.7 377,-251.7 239,-251.7"/>
<text text-anchor="start" x="259" y="-258.8" font-family="Helvetica,sans-Serif" font-size="11.00" fill="#000000">realm_id</text>
<polygon fill="none" stroke="#000000" points="377,-251.7 377,-273.7 467,-273.7 467,-251.7 377,-251.7"/>
<text text-anchor="start" x="380" y="-259.4" font-family="Helvetica,sans-Serif" font-size="11.00" fill="#000000">varchar[36]</text>
<polygon fill="#ffffff" stroke="transparent" points="239,-229.7 239,-251.7 377,-251.7 377,-229.7 239,-229.7"/>
<polygon fill="none" stroke="#000000" points="239,-229.7 239,-251.7 377,-251.7 377,-229.7 239,-229.7"/>
<image xlink:href="../../images/foreignKeys.png" width="11px" height="12px" preserveAspectRatio="xMinYMin meet" x="244" y="-246.7"/>
<text text-anchor="start" x="259" y="-236.8" font-family="Helvetica,sans-Serif" font-size="11.00" fill="#000000">federated_user_id</text>
<polygon fill="none" stroke="#000000" points="377,-229.7 377,-251.7 467,-251.7 467,-229.7 377,-229.7"/>
<text text-anchor="start" x="380" y="-237.4" font-family="Helvetica,sans-Serif" font-size="11.00" fill="#000000">varchar[255]</text>
<polygon fill="none" stroke="#000000" points="239,-207.7 239,-229.7 377,-229.7 377,-207.7 239,-207.7"/>
<text text-anchor="start" x="259" y="-214.8" font-family="Helvetica,sans-Serif" font-size="11.00" fill="#000000">federated_username</text>
<polygon fill="none" stroke="#000000" points="377,-207.7 377,-229.7 467,-229.7 467,-207.7 377,-207.7"/>
<text text-anchor="start" x="380" y="-215.4" font-family="Helvetica,sans-Serif" font-size="11.00" fill="#000000">varchar[255]</text>
<polygon fill="none" stroke="#000000" points="239,-185.7 239,-207.7 377,-207.7 377,-185.7 239,-185.7"/>
<text text-anchor="start" x="259" y="-192.8" font-family="Helvetica,sans-Serif" font-size="11.00" fill="#000000">token</text>
<polygon fill="none" stroke="#000000" points="377,-185.7 377,-207.7 467,-207.7 467,-185.7 377,-185.7"/>
<text text-anchor="start" x="379.5043" y="-193.4" font-family="Helvetica,sans-Serif" font-size="11.00" fill="#000000">text[2147483647]</text>
<polygon fill="none" stroke="#000000" points="239,-163.7 239,-185.7 377,-185.7 377,-163.7 239,-163.7"/>
<image xlink:href="../../images/primaryKeys.png" width="11px" height="12px" preserveAspectRatio="xMinYMin meet" x="244" y="-180.7"/>
<text text-anchor="start" x="259" y="-170.8" font-family="Helvetica,sans-Serif" font-size="11.00" fill="#000000">user_id</text>
<polygon fill="none" stroke="#000000" points="377,-163.7 377,-185.7 467,-185.7 467,-163.7 377,-163.7"/>
<text text-anchor="start" x="380" y="-171.4" font-family="Helvetica,sans-Serif" font-size="11.00" fill="#000000">varchar[36]</text>
<polygon fill="#ffffff" stroke="transparent" points="239,-144.7 239,-163.7 299,-163.7 299,-144.7 239,-144.7"/>
<polygon fill="none" stroke="#000000" points="239,-144.7 239,-163.7 299,-163.7 299,-144.7 239,-144.7"/>
<text text-anchor="start" x="242" y="-150.8" font-family="Helvetica,sans-Serif" font-size="11.00" fill="#000000">&lt; 1</text>
<polygon fill="#ffffff" stroke="transparent" points="299,-144.7 299,-163.7 377,-163.7 377,-144.7 299,-144.7"/>
<polygon fill="none" stroke="#000000" points="299,-144.7 299,-163.7 377,-163.7 377,-144.7 299,-144.7"/>
<text text-anchor="start" x="341.6105" y="-150.8" font-family="Helvetica,sans-Serif" font-size="11.00" fill="#000000">0 rows</text>
<polygon fill="#ffffff" stroke="transparent" points="377,-144.7 377,-163.7 467,-163.7 467,-144.7 377,-144.7"/>
<polygon fill="none" stroke="#000000" points="377,-144.7 377,-163.7 467,-163.7 467,-144.7 377,-144.7"/>
<text text-anchor="start" x="448.4053" y="-150.8" font-family="Helvetica,sans-Serif" font-size="11.00" fill="#000000">0 &gt;</text>
<polygon fill="none" stroke="#000000" stroke-width="2" points="238,-143.7 238,-319.7 468,-319.7 468,-143.7 238,-143.7"/>
</a>
</g>
</g>
<!-- user_entity -->
<g id="node2" class="node">
<title>user_entity</title>
<g id="a_node2"><a xlink:href="../../tables/user_entity.html" xlink:title="user_entity" target="_top">
<polygon fill="#ffffff" stroke="transparent" points="8,-38.2 8,-209.2 188,-209.2 188,-38.2 8,-38.2"/>
<polygon fill="#f5f5f5" stroke="transparent" points="8,-185.7 8,-208.7 188,-208.7 188,-185.7 8,-185.7"/>
<polygon fill="none" stroke="#000000" points="8,-185.7 8,-208.7 188,-208.7 188,-185.7 8,-185.7"/>
<text text-anchor="start" x="13" y="-194.8" font-family="Helvetica,sans-Serif" font-weight="bold" font-size="11.00" fill="#000000">user_entity</text>
<text text-anchor="start" x="153.0437" y="-193.8" font-family="Helvetica,sans-Serif" font-size="11.00" fill="#000000">[table]</text>
<polygon fill="none" stroke="#000000" points="8,-163.7 8,-185.7 188,-185.7 188,-163.7 8,-163.7"/>
<image xlink:href="../../images/primaryKeys.png" width="11px" height="12px" preserveAspectRatio="xMinYMin meet" x="13" y="-180.7"/>
<text text-anchor="start" x="28" y="-170.8" font-family="Helvetica,sans-Serif" font-size="11.00" fill="#000000">id</text>
<polygon fill="#ffffff" stroke="transparent" points="8,-141.7 8,-163.7 188,-163.7 188,-141.7 8,-141.7"/>
<polygon fill="none" stroke="#000000" points="8,-141.7 8,-163.7 188,-163.7 188,-141.7 8,-141.7"/>
<text text-anchor="start" x="28" y="-148.8" font-family="Helvetica,sans-Serif" font-size="11.00" fill="#000000">email</text>
<polygon fill="#ffffff" stroke="transparent" points="8,-119.7 8,-141.7 188,-141.7 188,-119.7 8,-119.7"/>
<polygon fill="none" stroke="#000000" points="8,-119.7 8,-141.7 188,-141.7 188,-119.7 8,-119.7"/>
<text text-anchor="start" x="28" y="-126.8" font-family="Helvetica,sans-Serif" font-size="11.00" fill="#000000">email_constraint</text>
<polygon fill="#ffffff" stroke="transparent" points="8,-97.7 8,-119.7 188,-119.7 188,-97.7 8,-97.7"/>
<polygon fill="none" stroke="#000000" points="8,-97.7 8,-119.7 188,-119.7 188,-97.7 8,-97.7"/>
<image xlink:href="../../images/foreignKeys.png" width="11px" height="12px" preserveAspectRatio="xMinYMin meet" x="13" y="-114.7"/>
<text text-anchor="start" x="28" y="-104.8" font-family="Helvetica,sans-Serif" font-size="11.00" fill="#000000">realm_id</text>
<polygon fill="#ffffff" stroke="transparent" points="8,-75.7 8,-97.7 188,-97.7 188,-75.7 8,-75.7"/>
<polygon fill="none" stroke="#000000" points="8,-75.7 8,-97.7 188,-97.7 188,-75.7 8,-75.7"/>
<text text-anchor="start" x="28" y="-82.8" font-family="Helvetica,sans-Serif" font-size="11.00" fill="#000000">username</text>
<polygon fill="none" stroke="#000000" points="8,-56.7 8,-75.7 188,-75.7 188,-56.7 8,-56.7"/>
<text text-anchor="start" x="11" y="-62.8" font-family="Helvetica,sans-Serif" font-size="11.00" fill="#000000">...</text>
<polygon fill="#ffffff" stroke="transparent" points="8,-37.7 8,-56.7 77,-56.7 77,-37.7 8,-37.7"/>
<polygon fill="none" stroke="#000000" points="8,-37.7 8,-56.7 77,-56.7 77,-37.7 8,-37.7"/>
<text text-anchor="start" x="11" y="-43.8" font-family="Helvetica,sans-Serif" font-size="11.00" fill="#000000"> &#160;</text>
<polygon fill="#ffffff" stroke="transparent" points="77,-37.7 77,-56.7 138,-56.7 138,-37.7 77,-37.7"/>
<polygon fill="none" stroke="#000000" points="77,-37.7 77,-56.7 138,-56.7 138,-37.7 77,-37.7"/>
<text text-anchor="start" x="108.1105" y="-43.8" font-family="Helvetica,sans-Serif" font-size="11.00" fill="#000000">1 row</text>
<polygon fill="#ffffff" stroke="transparent" points="138,-37.7 138,-56.7 188,-56.7 188,-37.7 138,-37.7"/>
<polygon fill="none" stroke="#000000" points="138,-37.7 138,-56.7 188,-56.7 188,-37.7 138,-37.7"/>
<text text-anchor="start" x="169.4053" y="-43.8" font-family="Helvetica,sans-Serif" font-size="11.00" fill="#000000">7 &gt;</text>
</a>
</g>
</g>
<!-- federated_identity&#45;&gt;user_entity -->
<g id="edge1" class="edge">
<title>federated_identity:w&#45;&gt;user_entity:e</title>
<path fill="none" stroke="#000000" d="M224.276,-174.7C212.2815,-174.7 204.8229,-174.7 188,-174.7"/>
<polygon fill="#000000" stroke="#000000" points="231,-174.7001 239,-178.3 235,-174.7 239,-174.7 239,-174.7 239,-174.7 235,-174.7 239,-171.1 231,-174.7001 231,-174.7001"/>
<ellipse fill="none" stroke="#000000" cx="227.8" cy="-174.7001" rx="3.2" ry="3.2"/>
</g>
</g>
</svg>
