<?xml version="1.0" encoding="UTF-8" standalone="no"?>
<!DOCTYPE svg PUBLIC "-//W3C//DTD SVG 1.1//EN"
 "http://www.w3.org/Graphics/SVG/1.1/DTD/svg11.dtd">
<!-- Generated by graphviz version 2.40.1 (20161225.0304)
 -->
<!-- Title: twoDegreesRelationshipsDiagram Pages: 1 -->
<svg width="518pt" height="234pt"
 viewBox="0.00 0.00 518.00 233.70" xmlns="http://www.w3.org/2000/svg" xmlns:xlink="http://www.w3.org/1999/xlink">
<g id="graph0" class="graph" transform="scale(1 1) rotate(0) translate(4 229.7)">
<title>twoDegreesRelationshipsDiagram</title>
<polygon fill="#ffffff" stroke="transparent" points="-4,4 -4,-229.7 514,-229.7 514,4 -4,4"/>
<text text-anchor="middle" x="72.4936" y="-7.3" font-family="Helvetica,sans-Serif" font-size="11.00" fill="#000000">Generated by SchemaSpy</text>
<!-- group_attribute -->
<g id="node1" class="node">
<title>group_attribute</title>
<g id="a_node1"><a xlink:href="../../tables/group_attribute.html" xlink:title="group_attribute" target="_top">
<polygon fill="#ffffff" stroke="transparent" points="341.5,-160.7 341.5,-221.7 457.5,-221.7 457.5,-160.7 341.5,-160.7"/>
<polygon fill="#f5f5f5" stroke="transparent" points="341.5,-198.2 341.5,-221.2 457.5,-221.2 457.5,-198.2 341.5,-198.2"/>
<polygon fill="none" stroke="#000000" points="341.5,-198.2 341.5,-221.2 457.5,-221.2 457.5,-198.2 341.5,-198.2"/>
<text text-anchor="start" x="346.0153" y="-207.3" font-family="Helvetica,sans-Serif" font-weight="bold" font-size="11.00" fill="#000000">group_attribute</text>
<text text-anchor="start" x="423.0219" y="-206.3" font-family="Helvetica,sans-Serif" font-size="11.00" fill="#000000">[table]</text>
<polygon fill="none" stroke="#000000" points="341.5,-179.2 341.5,-198.2 457.5,-198.2 457.5,-179.2 341.5,-179.2"/>
<text text-anchor="start" x="344.5" y="-185.3" font-family="Helvetica,sans-Serif" font-size="11.00" fill="#000000">...</text>
<polygon fill="#ffffff" stroke="transparent" points="341.5,-160.2 341.5,-179.2 384.5,-179.2 384.5,-160.2 341.5,-160.2"/>
<polygon fill="none" stroke="#000000" points="341.5,-160.2 341.5,-179.2 384.5,-179.2 384.5,-160.2 341.5,-160.2"/>
<text text-anchor="start" x="344.5" y="-166.3" font-family="Helvetica,sans-Serif" font-size="11.00" fill="#000000">&lt; 1</text>
<polygon fill="#ffffff" stroke="transparent" points="384.5,-160.2 384.5,-179.2 433.5,-179.2 433.5,-160.2 384.5,-160.2"/>
<polygon fill="none" stroke="#000000" points="384.5,-160.2 384.5,-179.2 433.5,-179.2 433.5,-160.2 384.5,-160.2"/>
<text text-anchor="start" x="398.1105" y="-166.3" font-family="Helvetica,sans-Serif" font-size="11.00" fill="#000000">0 rows</text>
<polygon fill="#ffffff" stroke="transparent" points="433.5,-160.2 433.5,-179.2 457.5,-179.2 457.5,-160.2 433.5,-160.2"/>
<polygon fill="none" stroke="#000000" points="433.5,-160.2 433.5,-179.2 457.5,-179.2 457.5,-160.2 433.5,-160.2"/>
<text text-anchor="start" x="448.3862" y="-166.3" font-family="Helvetica,sans-Serif" font-size="11.00" fill="#000000"> &#160;</text>
</a>
</g>
</g>
<!-- keycloak_group -->
<g id="node2" class="node">
<title>keycloak_group</title>
<g id="a_node2"><a xlink:href="../../tables/keycloak_group.html" xlink:title="keycloak_group" target="_top">
<polygon fill="#ffffff" stroke="transparent" points="128,-38.2 128,-168.2 248,-168.2 248,-38.2 128,-38.2"/>
<polygon fill="#f5f5f5" stroke="transparent" points="128,-145.2 128,-168.2 248,-168.2 248,-145.2 128,-145.2"/>
<polygon fill="none" stroke="#000000" points="128,-145.2 128,-168.2 248,-168.2 248,-145.2 128,-145.2"/>
<text text-anchor="start" x="132.989" y="-154.3" font-family="Helvetica,sans-Serif" font-weight="bold" font-size="11.00" fill="#000000">keycloak_group</text>
<text text-anchor="start" x="213.5219" y="-153.3" font-family="Helvetica,sans-Serif" font-size="11.00" fill="#000000">[table]</text>
<polygon fill="none" stroke="#000000" points="128,-123.2 128,-145.2 248,-145.2 248,-123.2 128,-123.2"/>
<image xlink:href="../../images/primaryKeys.png" width="11px" height="12px" preserveAspectRatio="xMinYMin meet" x="133" y="-140.2"/>
<text text-anchor="start" x="152" y="-130.3" font-family="Helvetica,sans-Serif" font-size="11.00" fill="#000000">id</text>
<polygon fill="#ffffff" stroke="transparent" points="128,-101.2 128,-123.2 248,-123.2 248,-101.2 128,-101.2"/>
<polygon fill="none" stroke="#000000" points="128,-101.2 128,-123.2 248,-123.2 248,-101.2 128,-101.2"/>
<text text-anchor="start" x="152" y="-108.3" font-family="Helvetica,sans-Serif" font-size="11.00" fill="#000000">name</text>
<polygon fill="#ffffff" stroke="transparent" points="128,-79.2 128,-101.2 248,-101.2 248,-79.2 128,-79.2"/>
<polygon fill="none" stroke="#000000" points="128,-79.2 128,-101.2 248,-101.2 248,-79.2 128,-79.2"/>
<text text-anchor="start" x="152" y="-86.3" font-family="Helvetica,sans-Serif" font-size="11.00" fill="#000000">parent_group</text>
<polygon fill="#ffffff" stroke="transparent" points="128,-57.2 128,-79.2 248,-79.2 248,-57.2 128,-57.2"/>
<polygon fill="none" stroke="#000000" points="128,-57.2 128,-79.2 248,-79.2 248,-57.2 128,-57.2"/>
<image xlink:href="../../images/foreignKeys.png" width="11px" height="12px" preserveAspectRatio="xMinYMin meet" x="133" y="-74.2"/>
<text text-anchor="start" x="152" y="-64.3" font-family="Helvetica,sans-Serif" font-size="11.00" fill="#000000">realm_id</text>
<polygon fill="#ffffff" stroke="transparent" points="128,-38.2 128,-57.2 169,-57.2 169,-38.2 128,-38.2"/>
<polygon fill="none" stroke="#000000" points="128,-38.2 128,-57.2 169,-57.2 169,-38.2 128,-38.2"/>
<text text-anchor="start" x="131" y="-44.3" font-family="Helvetica,sans-Serif" font-size="11.00" fill="#000000">&lt; 1</text>
<polygon fill="#ffffff" stroke="transparent" points="169,-38.2 169,-57.2 217,-57.2 217,-38.2 169,-38.2"/>
<polygon fill="none" stroke="#000000" points="169,-38.2 169,-57.2 217,-57.2 217,-38.2 169,-38.2"/>
<text text-anchor="start" x="181.6105" y="-44.3" font-family="Helvetica,sans-Serif" font-size="11.00" fill="#000000">0 rows</text>
<polygon fill="#ffffff" stroke="transparent" points="217,-38.2 217,-57.2 248,-57.2 248,-38.2 217,-38.2"/>
<polygon fill="none" stroke="#000000" points="217,-38.2 217,-57.2 248,-57.2 248,-38.2 217,-38.2"/>
<text text-anchor="start" x="229.4053" y="-44.3" font-family="Helvetica,sans-Serif" font-size="11.00" fill="#000000">2 &gt;</text>
</a>
</g>
</g>
<!-- group_attribute&#45;&gt;keycloak_group -->
<g id="edge1" class="edge">
<title>group_attribute:w&#45;&gt;keycloak_group:e</title>
<path fill="none" stroke="#000000" d="M326.9876,-186.2781C293.4253,-176.6586 290.552,-134.2 248,-134.2"/>
<polygon fill="#000000" stroke="#000000" points="333.5692,-187.1497 341.0274,-191.7688 337.5346,-187.6748 341.5,-188.2 341.5,-188.2 341.5,-188.2 337.5346,-187.6748 341.9726,-184.6312 333.5692,-187.1497 333.5692,-187.1497"/>
<ellipse fill="none" stroke="#000000" cx="330.3969" cy="-186.7295" rx="3.2" ry="3.2"/>
</g>
<!-- realm -->
<g id="node4" class="node">
<title>realm</title>
<g id="a_node4"><a xlink:href="../../tables/realm.html" xlink:title="realm" target="_top">
<polygon fill="#ffffff" stroke="transparent" points="8,-40.7 8,-101.7 79,-101.7 79,-40.7 8,-40.7"/>
<polygon fill="#f5f5f5" stroke="transparent" points="8.5,-78.2 8.5,-101.2 79.5,-101.2 79.5,-78.2 8.5,-78.2"/>
<polygon fill="none" stroke="#000000" points="8.5,-78.2 8.5,-101.2 79.5,-101.2 79.5,-78.2 8.5,-78.2"/>
<text text-anchor="start" x="13.5" y="-87.3" font-family="Helvetica,sans-Serif" font-weight="bold" font-size="11.00" fill="#000000">realm</text>
<text text-anchor="start" x="45.0219" y="-86.3" font-family="Helvetica,sans-Serif" font-size="11.00" fill="#000000">[table]</text>
<polygon fill="none" stroke="#000000" points="8.5,-59.2 8.5,-78.2 79.5,-78.2 79.5,-59.2 8.5,-59.2"/>
<text text-anchor="start" x="11.5" y="-65.3" font-family="Helvetica,sans-Serif" font-size="11.00" fill="#000000">...</text>
<polygon fill="#ffffff" stroke="transparent" points="8.5,-40.2 8.5,-59.2 20.5,-59.2 20.5,-40.2 8.5,-40.2"/>
<polygon fill="none" stroke="#000000" points="8.5,-40.2 8.5,-59.2 20.5,-59.2 20.5,-40.2 8.5,-40.2"/>
<text text-anchor="start" x="11.4431" y="-46.3" font-family="Helvetica,sans-Serif" font-size="11.00" fill="#000000"> &#160;</text>
<polygon fill="#ffffff" stroke="transparent" points="20.5,-40.2 20.5,-59.2 52.5,-59.2 52.5,-40.2 20.5,-40.2"/>
<polygon fill="none" stroke="#000000" points="20.5,-40.2 20.5,-59.2 52.5,-59.2 52.5,-40.2 20.5,-40.2"/>
<text text-anchor="start" x="23.0553" y="-46.3" font-family="Helvetica,sans-Serif" font-size="11.00" fill="#000000">1 row</text>
<polygon fill="#ffffff" stroke="transparent" points="52.5,-40.2 52.5,-59.2 79.5,-59.2 79.5,-40.2 52.5,-40.2"/>
<polygon fill="none" stroke="#000000" points="52.5,-40.2 52.5,-59.2 79.5,-59.2 79.5,-40.2 52.5,-40.2"/>
<text text-anchor="start" x="55.1452" y="-46.3" font-family="Helvetica,sans-Serif" font-size="11.00" fill="#000000">23 &gt;</text>
</a>
</g>
</g>
<!-- keycloak_group&#45;&gt;realm -->
<g id="edge3" class="edge">
<title>keycloak_group:w&#45;&gt;realm:e</title>
<path fill="none" stroke="#000000" d="M113.2829,-68.2C102.2886,-68.2 95.1615,-68.2 79.5,-68.2"/>
<polygon fill="#000000" stroke="#000000" points="120,-68.2001 128,-71.8 124,-68.2 128,-68.2 128,-68.2 128,-68.2 124,-68.2 128,-64.6 120,-68.2001 120,-68.2001"/>
<ellipse fill="none" stroke="#000000" cx="116.8" cy="-68.2001" rx="3.2" ry="3.2"/>
</g>
<!-- group_role_mapping -->
<g id="node3" class="node">
<title>group_role_mapping</title>
<g id="a_node3"><a xlink:href="../../tables/group_role_mapping.html" xlink:title="group_role_mapping" target="_top">
<polygon fill="#ffffff" stroke="transparent" points="297,-49.2 297,-139.2 502,-139.2 502,-49.2 297,-49.2"/>
<polygon fill="#f5f5f5" stroke="transparent" points="299.5,-114.2 299.5,-137.2 500.5,-137.2 500.5,-114.2 299.5,-114.2"/>
<polygon fill="none" stroke="#000000" points="299.5,-114.2 299.5,-137.2 500.5,-137.2 500.5,-114.2 299.5,-114.2"/>
<text text-anchor="start" x="304.5" y="-123.3" font-family="Helvetica,sans-Serif" font-weight="bold" font-size="11.00" fill="#000000">group_role_mapping</text>
<text text-anchor="start" x="465.5437" y="-122.3" font-family="Helvetica,sans-Serif" font-size="11.00" fill="#000000">[table]</text>
<polygon fill="none" stroke="#000000" points="299.5,-92.2 299.5,-114.2 439.5,-114.2 439.5,-92.2 299.5,-92.2"/>
<image xlink:href="../../images/primaryKeys.png" width="11px" height="12px" preserveAspectRatio="xMinYMin meet" x="304.5" y="-109.2"/>
<text text-anchor="start" x="319.5" y="-99.3" font-family="Helvetica,sans-Serif" font-size="11.00" fill="#000000">role_id</text>
<polygon fill="none" stroke="#000000" points="439.5,-92.2 439.5,-114.2 500.5,-114.2 500.5,-92.2 439.5,-92.2"/>
<text text-anchor="start" x="442.494" y="-99.9" font-family="Helvetica,sans-Serif" font-size="11.00" fill="#000000">varchar[36]</text>
<polygon fill="none" stroke="#000000" points="299.5,-70.2 299.5,-92.2 439.5,-92.2 439.5,-70.2 299.5,-70.2"/>
<image xlink:href="../../images/primaryKeys.png" width="11px" height="12px" preserveAspectRatio="xMinYMin meet" x="304.5" y="-87.2"/>
<text text-anchor="start" x="319.5" y="-77.3" font-family="Helvetica,sans-Serif" font-size="11.00" fill="#000000">group_id</text>
<polygon fill="none" stroke="#000000" points="439.5,-70.2 439.5,-92.2 500.5,-92.2 500.5,-70.2 439.5,-70.2"/>
<text text-anchor="start" x="442.494" y="-77.9" font-family="Helvetica,sans-Serif" font-size="11.00" fill="#000000">varchar[36]</text>
<polygon fill="#ffffff" stroke="transparent" points="299.5,-51.2 299.5,-70.2 360.5,-70.2 360.5,-51.2 299.5,-51.2"/>
<polygon fill="none" stroke="#000000" points="299.5,-51.2 299.5,-70.2 360.5,-70.2 360.5,-51.2 299.5,-51.2"/>
<text text-anchor="start" x="302.5" y="-57.3" font-family="Helvetica,sans-Serif" font-size="11.00" fill="#000000">&lt; 1</text>
<polygon fill="#ffffff" stroke="transparent" points="360.5,-51.2 360.5,-70.2 439.5,-70.2 439.5,-51.2 360.5,-51.2"/>
<polygon fill="none" stroke="#000000" points="360.5,-51.2 360.5,-70.2 439.5,-70.2 439.5,-51.2 360.5,-51.2"/>
<text text-anchor="start" x="404.1105" y="-57.3" font-family="Helvetica,sans-Serif" font-size="11.00" fill="#000000">0 rows</text>
<polygon fill="#ffffff" stroke="transparent" points="439.5,-51.2 439.5,-70.2 500.5,-70.2 500.5,-51.2 439.5,-51.2"/>
<polygon fill="none" stroke="#000000" points="439.5,-51.2 439.5,-70.2 500.5,-70.2 500.5,-51.2 439.5,-51.2"/>
<text text-anchor="start" x="481.9053" y="-57.3" font-family="Helvetica,sans-Serif" font-size="11.00" fill="#000000">0 &gt;</text>
<polygon fill="none" stroke="#000000" stroke-width="2" points="298,-50.2 298,-138.2 501,-138.2 501,-50.2 298,-50.2"/>
</a>
</g>
</g>
<!-- group_role_mapping&#45;&gt;keycloak_group -->
<g id="edge2" class="edge">
<title>group_role_mapping:w&#45;&gt;keycloak_group:e</title>
<path fill="none" stroke="#000000" d="M285.8048,-85.7188C270.236,-98.5356 274.9428,-134.2 248,-134.2"/>
<polygon fill="#000000" stroke="#000000" points="291.9029,-83.7067 300.628,-84.6187 295.7014,-82.4534 299.5,-81.2 299.5,-81.2 299.5,-81.2 295.7014,-82.4534 298.372,-77.7813 291.9029,-83.7067 291.9029,-83.7067"/>
<ellipse fill="none" stroke="#000000" cx="288.864" cy="-84.7094" rx="3.2" ry="3.2"/>
</g>
</g>
</svg>
