<?xml version="1.0" encoding="UTF-8" standalone="no"?>
<!DOCTYPE svg PUBLIC "-//W3C//DTD SVG 1.1//EN"
 "http://www.w3.org/Graphics/SVG/1.1/DTD/svg11.dtd">
<!-- Generated by graphviz version 2.40.1 (20161225.0304)
 -->
<!-- Title: oneDegreeRelationshipsDiagram Pages: 1 -->
<svg width="398pt" height="204pt"
 viewBox="0.00 0.00 398.00 204.20" xmlns="http://www.w3.org/2000/svg" xmlns:xlink="http://www.w3.org/1999/xlink">
<g id="graph0" class="graph" transform="scale(1 1) rotate(0) translate(4 200.2)">
<title>oneDegreeRelationshipsDiagram</title>
<polygon fill="#ffffff" stroke="transparent" points="-4,4 -4,-200.2 394,-200.2 394,4 -4,4"/>
<text text-anchor="middle" x="72.4936" y="-7.3" font-family="Helvetica,sans-Serif" font-size="11.00" fill="#000000">Generated by SchemaSpy</text>
<!-- group_role_mapping -->
<g id="node1" class="node">
<title>group_role_mapping</title>
<g id="a_node1"><a xlink:href="../../tables/group_role_mapping.html" xlink:title="group_role_mapping" target="_top">
<polygon fill="#ffffff" stroke="transparent" points="177,-102.2 177,-192.2 382,-192.2 382,-102.2 177,-102.2"/>
<polygon fill="#f5f5f5" stroke="transparent" points="179.5,-167.2 179.5,-190.2 380.5,-190.2 380.5,-167.2 179.5,-167.2"/>
<polygon fill="none" stroke="#000000" points="179.5,-167.2 179.5,-190.2 380.5,-190.2 380.5,-167.2 179.5,-167.2"/>
<text text-anchor="start" x="184.5" y="-176.3" font-family="Helvetica,sans-Serif" font-weight="bold" font-size="11.00" fill="#000000">group_role_mapping</text>
<text text-anchor="start" x="345.5437" y="-175.3" font-family="Helvetica,sans-Serif" font-size="11.00" fill="#000000">[table]</text>
<polygon fill="none" stroke="#000000" points="179.5,-145.2 179.5,-167.2 319.5,-167.2 319.5,-145.2 179.5,-145.2"/>
<image xlink:href="../../images/primaryKeys.png" width="11px" height="12px" preserveAspectRatio="xMinYMin meet" x="184.5" y="-162.2"/>
<text text-anchor="start" x="199.5" y="-152.3" font-family="Helvetica,sans-Serif" font-size="11.00" fill="#000000">role_id</text>
<polygon fill="none" stroke="#000000" points="319.5,-145.2 319.5,-167.2 380.5,-167.2 380.5,-145.2 319.5,-145.2"/>
<text text-anchor="start" x="322.494" y="-152.9" font-family="Helvetica,sans-Serif" font-size="11.00" fill="#000000">varchar[36]</text>
<polygon fill="none" stroke="#000000" points="179.5,-123.2 179.5,-145.2 319.5,-145.2 319.5,-123.2 179.5,-123.2"/>
<image xlink:href="../../images/primaryKeys.png" width="11px" height="12px" preserveAspectRatio="xMinYMin meet" x="184.5" y="-140.2"/>
<text text-anchor="start" x="199.5" y="-130.3" font-family="Helvetica,sans-Serif" font-size="11.00" fill="#000000">group_id</text>
<polygon fill="none" stroke="#000000" points="319.5,-123.2 319.5,-145.2 380.5,-145.2 380.5,-123.2 319.5,-123.2"/>
<text text-anchor="start" x="322.494" y="-130.9" font-family="Helvetica,sans-Serif" font-size="11.00" fill="#000000">varchar[36]</text>
<polygon fill="#ffffff" stroke="transparent" points="179.5,-104.2 179.5,-123.2 240.5,-123.2 240.5,-104.2 179.5,-104.2"/>
<polygon fill="none" stroke="#000000" points="179.5,-104.2 179.5,-123.2 240.5,-123.2 240.5,-104.2 179.5,-104.2"/>
<text text-anchor="start" x="182.5" y="-110.3" font-family="Helvetica,sans-Serif" font-size="11.00" fill="#000000">&lt; 1</text>
<polygon fill="#ffffff" stroke="transparent" points="240.5,-104.2 240.5,-123.2 319.5,-123.2 319.5,-104.2 240.5,-104.2"/>
<polygon fill="none" stroke="#000000" points="240.5,-104.2 240.5,-123.2 319.5,-123.2 319.5,-104.2 240.5,-104.2"/>
<text text-anchor="start" x="284.1105" y="-110.3" font-family="Helvetica,sans-Serif" font-size="11.00" fill="#000000">0 rows</text>
<polygon fill="#ffffff" stroke="transparent" points="319.5,-104.2 319.5,-123.2 380.5,-123.2 380.5,-104.2 319.5,-104.2"/>
<polygon fill="none" stroke="#000000" points="319.5,-104.2 319.5,-123.2 380.5,-123.2 380.5,-104.2 319.5,-104.2"/>
<text text-anchor="start" x="361.9053" y="-110.3" font-family="Helvetica,sans-Serif" font-size="11.00" fill="#000000">0 &gt;</text>
<polygon fill="none" stroke="#000000" stroke-width="2" points="178,-103.2 178,-191.2 381,-191.2 381,-103.2 178,-103.2"/>
</a>
</g>
</g>
<!-- keycloak_group -->
<g id="node2" class="node">
<title>keycloak_group</title>
<g id="a_node2"><a xlink:href="../../tables/keycloak_group.html" xlink:title="keycloak_group" target="_top">
<polygon fill="#ffffff" stroke="transparent" points="8,-38.2 8,-168.2 128,-168.2 128,-38.2 8,-38.2"/>
<polygon fill="#f5f5f5" stroke="transparent" points="8,-145.2 8,-168.2 128,-168.2 128,-145.2 8,-145.2"/>
<polygon fill="none" stroke="#000000" points="8,-145.2 8,-168.2 128,-168.2 128,-145.2 8,-145.2"/>
<text text-anchor="start" x="12.989" y="-154.3" font-family="Helvetica,sans-Serif" font-weight="bold" font-size="11.00" fill="#000000">keycloak_group</text>
<text text-anchor="start" x="93.5219" y="-153.3" font-family="Helvetica,sans-Serif" font-size="11.00" fill="#000000">[table]</text>
<polygon fill="none" stroke="#000000" points="8,-123.2 8,-145.2 128,-145.2 128,-123.2 8,-123.2"/>
<image xlink:href="../../images/primaryKeys.png" width="11px" height="12px" preserveAspectRatio="xMinYMin meet" x="13" y="-140.2"/>
<text text-anchor="start" x="32" y="-130.3" font-family="Helvetica,sans-Serif" font-size="11.00" fill="#000000">id</text>
<polygon fill="#ffffff" stroke="transparent" points="8,-101.2 8,-123.2 128,-123.2 128,-101.2 8,-101.2"/>
<polygon fill="none" stroke="#000000" points="8,-101.2 8,-123.2 128,-123.2 128,-101.2 8,-101.2"/>
<text text-anchor="start" x="32" y="-108.3" font-family="Helvetica,sans-Serif" font-size="11.00" fill="#000000">name</text>
<polygon fill="#ffffff" stroke="transparent" points="8,-79.2 8,-101.2 128,-101.2 128,-79.2 8,-79.2"/>
<polygon fill="none" stroke="#000000" points="8,-79.2 8,-101.2 128,-101.2 128,-79.2 8,-79.2"/>
<text text-anchor="start" x="32" y="-86.3" font-family="Helvetica,sans-Serif" font-size="11.00" fill="#000000">parent_group</text>
<polygon fill="#ffffff" stroke="transparent" points="8,-57.2 8,-79.2 128,-79.2 128,-57.2 8,-57.2"/>
<polygon fill="none" stroke="#000000" points="8,-57.2 8,-79.2 128,-79.2 128,-57.2 8,-57.2"/>
<image xlink:href="../../images/foreignKeys.png" width="11px" height="12px" preserveAspectRatio="xMinYMin meet" x="13" y="-74.2"/>
<text text-anchor="start" x="32" y="-64.3" font-family="Helvetica,sans-Serif" font-size="11.00" fill="#000000">realm_id</text>
<polygon fill="#ffffff" stroke="transparent" points="8,-38.2 8,-57.2 49,-57.2 49,-38.2 8,-38.2"/>
<polygon fill="none" stroke="#000000" points="8,-38.2 8,-57.2 49,-57.2 49,-38.2 8,-38.2"/>
<text text-anchor="start" x="11" y="-44.3" font-family="Helvetica,sans-Serif" font-size="11.00" fill="#000000">&lt; 1</text>
<polygon fill="#ffffff" stroke="transparent" points="49,-38.2 49,-57.2 97,-57.2 97,-38.2 49,-38.2"/>
<polygon fill="none" stroke="#000000" points="49,-38.2 49,-57.2 97,-57.2 97,-38.2 49,-38.2"/>
<text text-anchor="start" x="61.6105" y="-44.3" font-family="Helvetica,sans-Serif" font-size="11.00" fill="#000000">0 rows</text>
<polygon fill="#ffffff" stroke="transparent" points="97,-38.2 97,-57.2 128,-57.2 128,-38.2 97,-38.2"/>
<polygon fill="none" stroke="#000000" points="97,-38.2 97,-57.2 128,-57.2 128,-38.2 97,-38.2"/>
<text text-anchor="start" x="109.4053" y="-44.3" font-family="Helvetica,sans-Serif" font-size="11.00" fill="#000000">2 &gt;</text>
</a>
</g>
</g>
<!-- group_role_mapping&#45;&gt;keycloak_group -->
<g id="edge1" class="edge">
<title>group_role_mapping:w&#45;&gt;keycloak_group:e</title>
<path fill="none" stroke="#000000" d="M165.0156,-134.2C152.6771,-134.2 145.1667,-134.2 128,-134.2"/>
<polygon fill="#000000" stroke="#000000" points="171.5,-134.2001 179.5,-137.8 175.5,-134.2 179.5,-134.2 179.5,-134.2 179.5,-134.2 175.5,-134.2 179.5,-130.6 171.5,-134.2001 171.5,-134.2001"/>
<ellipse fill="none" stroke="#000000" cx="168.3" cy="-134.2001" rx="3.2" ry="3.2"/>
</g>
</g>
</svg>
