<?xml version="1.0" encoding="UTF-8" standalone="no"?>
<!DOCTYPE svg PUBLIC "-//W3C//DTD SVG 1.1//EN"
 "http://www.w3.org/Graphics/SVG/1.1/DTD/svg11.dtd">
<!-- Generated by graphviz version 2.40.1 (20161225.0304)
 -->
<!-- Title: oneDegreeRelationshipsDiagramImplied Pages: 1 -->
<svg width="501pt" height="201pt"
 viewBox="0.00 0.00 501.00 200.70" xmlns="http://www.w3.org/2000/svg" xmlns:xlink="http://www.w3.org/1999/xlink">
<g id="graph0" class="graph" transform="scale(1 1) rotate(0) translate(4 196.7)">
<title>oneDegreeRelationshipsDiagramImplied</title>
<polygon fill="#ffffff" stroke="transparent" points="-4,4 -4,-196.7 497,-196.7 497,4 -4,4"/>
<text text-anchor="middle" x="72.4936" y="-7.3" font-family="Helvetica,sans-Serif" font-size="11.00" fill="#000000">Generated by SchemaSpy</text>
<!-- identity_provider_config -->
<g id="node1" class="node">
<title>identity_provider_config</title>
<g id="a_node1"><a xlink:href="../../tables/identity_provider_config.html" xlink:title="identity_provider_config" target="_top">
<polygon fill="#ffffff" stroke="transparent" points="230,-76.7 230,-188.7 485,-188.7 485,-76.7 230,-76.7"/>
<polygon fill="#f5f5f5" stroke="transparent" points="232.5,-163.7 232.5,-186.7 483.5,-186.7 483.5,-163.7 232.5,-163.7"/>
<polygon fill="none" stroke="#000000" points="232.5,-163.7 232.5,-186.7 483.5,-186.7 483.5,-163.7 232.5,-163.7"/>
<text text-anchor="start" x="237.5" y="-172.8" font-family="Helvetica,sans-Serif" font-weight="bold" font-size="11.00" fill="#000000">identity_provider_config</text>
<text text-anchor="start" x="448.5437" y="-171.8" font-family="Helvetica,sans-Serif" font-size="11.00" fill="#000000">[table]</text>
<polygon fill="none" stroke="#000000" points="232.5,-141.7 232.5,-163.7 393.5,-163.7 393.5,-141.7 232.5,-141.7"/>
<image xlink:href="../../images/primaryKeys.png" width="11px" height="12px" preserveAspectRatio="xMinYMin meet" x="237.5" y="-158.7"/>
<text text-anchor="start" x="252.5" y="-148.8" font-family="Helvetica,sans-Serif" font-size="11.00" fill="#000000">identity_provider_id</text>
<polygon fill="none" stroke="#000000" points="393.5,-141.7 393.5,-163.7 483.5,-163.7 483.5,-141.7 393.5,-141.7"/>
<text text-anchor="start" x="396.5" y="-149.4" font-family="Helvetica,sans-Serif" font-size="11.00" fill="#000000">varchar[36]</text>
<polygon fill="none" stroke="#000000" points="232.5,-119.7 232.5,-141.7 393.5,-141.7 393.5,-119.7 232.5,-119.7"/>
<text text-anchor="start" x="252.5" y="-126.8" font-family="Helvetica,sans-Serif" font-size="11.00" fill="#000000">value</text>
<polygon fill="none" stroke="#000000" points="393.5,-119.7 393.5,-141.7 483.5,-141.7 483.5,-119.7 393.5,-119.7"/>
<text text-anchor="start" x="396.0043" y="-127.4" font-family="Helvetica,sans-Serif" font-size="11.00" fill="#000000">text[2147483647]</text>
<polygon fill="none" stroke="#000000" points="232.5,-97.7 232.5,-119.7 393.5,-119.7 393.5,-97.7 232.5,-97.7"/>
<image xlink:href="../../images/primaryKeys.png" width="11px" height="12px" preserveAspectRatio="xMinYMin meet" x="237.5" y="-114.7"/>
<text text-anchor="start" x="252.5" y="-104.8" font-family="Helvetica,sans-Serif" font-size="11.00" fill="#000000">name</text>
<polygon fill="none" stroke="#000000" points="393.5,-97.7 393.5,-119.7 483.5,-119.7 483.5,-97.7 393.5,-97.7"/>
<text text-anchor="start" x="396.5" y="-105.4" font-family="Helvetica,sans-Serif" font-size="11.00" fill="#000000">varchar[255]</text>
<polygon fill="#ffffff" stroke="transparent" points="232.5,-78.7 232.5,-97.7 304.5,-97.7 304.5,-78.7 232.5,-78.7"/>
<polygon fill="none" stroke="#000000" points="232.5,-78.7 232.5,-97.7 304.5,-97.7 304.5,-78.7 232.5,-78.7"/>
<text text-anchor="start" x="235.5" y="-84.8" font-family="Helvetica,sans-Serif" font-size="11.00" fill="#000000">&lt; 1</text>
<polygon fill="#ffffff" stroke="transparent" points="304.5,-78.7 304.5,-97.7 393.5,-97.7 393.5,-78.7 304.5,-78.7"/>
<polygon fill="none" stroke="#000000" points="304.5,-78.7 304.5,-97.7 393.5,-97.7 393.5,-78.7 304.5,-78.7"/>
<text text-anchor="start" x="358.1105" y="-84.8" font-family="Helvetica,sans-Serif" font-size="11.00" fill="#000000">0 rows</text>
<polygon fill="#ffffff" stroke="transparent" points="393.5,-78.7 393.5,-97.7 483.5,-97.7 483.5,-78.7 393.5,-78.7"/>
<polygon fill="none" stroke="#000000" points="393.5,-78.7 393.5,-97.7 483.5,-97.7 483.5,-78.7 393.5,-78.7"/>
<text text-anchor="start" x="464.9053" y="-84.8" font-family="Helvetica,sans-Serif" font-size="11.00" fill="#000000">0 &gt;</text>
<polygon fill="none" stroke="#000000" stroke-width="2" points="231,-77.7 231,-187.7 484,-187.7 484,-77.7 231,-77.7"/>
</a>
</g>
</g>
<!-- identity_provider -->
<g id="node2" class="node">
<title>identity_provider</title>
<g id="a_node2"><a xlink:href="../../tables/identity_provider.html" xlink:title="identity_provider" target="_top">
<polygon fill="#ffffff" stroke="transparent" points="8,-38.2 8,-187.2 181,-187.2 181,-38.2 8,-38.2"/>
<polygon fill="#f5f5f5" stroke="transparent" points="8.5,-163.7 8.5,-186.7 181.5,-186.7 181.5,-163.7 8.5,-163.7"/>
<polygon fill="none" stroke="#000000" points="8.5,-163.7 8.5,-186.7 181.5,-186.7 181.5,-163.7 8.5,-163.7"/>
<text text-anchor="start" x="13.5" y="-172.8" font-family="Helvetica,sans-Serif" font-weight="bold" font-size="11.00" fill="#000000">identity_provider</text>
<text text-anchor="start" x="146.5437" y="-171.8" font-family="Helvetica,sans-Serif" font-size="11.00" fill="#000000">[table]</text>
<polygon fill="none" stroke="#000000" points="8.5,-141.7 8.5,-163.7 181.5,-163.7 181.5,-141.7 8.5,-141.7"/>
<image xlink:href="../../images/primaryKeys.png" width="11px" height="12px" preserveAspectRatio="xMinYMin meet" x="13.5" y="-158.7"/>
<text text-anchor="start" x="28.5" y="-148.8" font-family="Helvetica,sans-Serif" font-size="11.00" fill="#000000">internal_id</text>
<polygon fill="#ffffff" stroke="transparent" points="8.5,-119.7 8.5,-141.7 181.5,-141.7 181.5,-119.7 8.5,-119.7"/>
<polygon fill="none" stroke="#000000" points="8.5,-119.7 8.5,-141.7 181.5,-141.7 181.5,-119.7 8.5,-119.7"/>
<text text-anchor="start" x="28.5" y="-126.8" font-family="Helvetica,sans-Serif" font-size="11.00" fill="#000000">provider_alias</text>
<polygon fill="none" stroke="#000000" points="8.5,-97.7 8.5,-119.7 181.5,-119.7 181.5,-97.7 8.5,-97.7"/>
<image xlink:href="../../images/foreignKeys.png" width="11px" height="12px" preserveAspectRatio="xMinYMin meet" x="13.5" y="-114.7"/>
<text text-anchor="start" x="28.5" y="-104.8" font-family="Helvetica,sans-Serif" font-size="11.00" fill="#000000">provider_id</text>
<polygon fill="#ffffff" stroke="transparent" points="8.5,-75.7 8.5,-97.7 181.5,-97.7 181.5,-75.7 8.5,-75.7"/>
<polygon fill="none" stroke="#000000" points="8.5,-75.7 8.5,-97.7 181.5,-97.7 181.5,-75.7 8.5,-75.7"/>
<image xlink:href="../../images/foreignKeys.png" width="11px" height="12px" preserveAspectRatio="xMinYMin meet" x="13.5" y="-92.7"/>
<text text-anchor="start" x="28.5" y="-82.8" font-family="Helvetica,sans-Serif" font-size="11.00" fill="#000000">realm_id</text>
<polygon fill="none" stroke="#000000" points="8.5,-56.7 8.5,-75.7 181.5,-75.7 181.5,-56.7 8.5,-56.7"/>
<text text-anchor="start" x="11.5" y="-62.8" font-family="Helvetica,sans-Serif" font-size="11.00" fill="#000000">...</text>
<polygon fill="#ffffff" stroke="transparent" points="8.5,-37.7 8.5,-56.7 75.5,-56.7 75.5,-37.7 8.5,-37.7"/>
<polygon fill="none" stroke="#000000" points="8.5,-37.7 8.5,-56.7 75.5,-56.7 75.5,-37.7 8.5,-37.7"/>
<text text-anchor="start" x="11.5" y="-43.8" font-family="Helvetica,sans-Serif" font-size="11.00" fill="#000000">&lt; 1</text>
<polygon fill="#ffffff" stroke="transparent" points="75.5,-37.7 75.5,-56.7 136.5,-56.7 136.5,-37.7 75.5,-37.7"/>
<polygon fill="none" stroke="#000000" points="75.5,-37.7 75.5,-56.7 136.5,-56.7 136.5,-37.7 75.5,-37.7"/>
<text text-anchor="start" x="101.1105" y="-43.8" font-family="Helvetica,sans-Serif" font-size="11.00" fill="#000000">0 rows</text>
<polygon fill="#ffffff" stroke="transparent" points="136.5,-37.7 136.5,-56.7 181.5,-56.7 181.5,-37.7 136.5,-37.7"/>
<polygon fill="none" stroke="#000000" points="136.5,-37.7 136.5,-56.7 181.5,-56.7 181.5,-37.7 136.5,-37.7"/>
<text text-anchor="start" x="162.9053" y="-43.8" font-family="Helvetica,sans-Serif" font-size="11.00" fill="#000000">1 &gt;</text>
</a>
</g>
</g>
<!-- identity_provider_config&#45;&gt;identity_provider -->
<g id="edge1" class="edge">
<title>identity_provider_config:w&#45;&gt;identity_provider:e</title>
<path fill="none" stroke="#000000" d="M217.776,-152.7C205.7815,-152.7 198.3229,-152.7 181.5,-152.7"/>
<polygon fill="#000000" stroke="#000000" points="224.5,-152.7001 232.5,-156.3 228.5,-152.7 232.5,-152.7 232.5,-152.7 232.5,-152.7 228.5,-152.7 232.5,-149.1 224.5,-152.7001 224.5,-152.7001"/>
<ellipse fill="none" stroke="#000000" cx="221.3" cy="-152.7001" rx="3.2" ry="3.2"/>
</g>
</g>
</svg>
