<?xml version="1.0" encoding="UTF-8" standalone="no"?>
<!DOCTYPE svg PUBLIC "-//W3C//DTD SVG 1.1//EN"
 "http://www.w3.org/Graphics/SVG/1.1/DTD/svg11.dtd">
<!-- Generated by graphviz version 2.40.1 (20161225.0304)
 -->
<!-- Title: twoDegreesRelationshipsDiagramImplied Pages: 1 -->
<svg width="666pt" height="210pt"
 viewBox="0.00 0.00 666.00 209.70" xmlns="http://www.w3.org/2000/svg" xmlns:xlink="http://www.w3.org/1999/xlink">
<g id="graph0" class="graph" transform="scale(1 1) rotate(0) translate(4 205.7)">
<title>twoDegreesRelationshipsDiagramImplied</title>
<polygon fill="#ffffff" stroke="transparent" points="-4,4 -4,-205.7 662,-205.7 662,4 -4,4"/>
<text text-anchor="middle" x="72.4936" y="-7.3" font-family="Helvetica,sans-Serif" font-size="11.00" fill="#000000">Generated by SchemaSpy</text>
<!-- identity_provider -->
<g id="node1" class="node">
<title>identity_provider</title>
<g id="a_node1"><a xlink:href="../../tables/identity_provider.html" xlink:title="identity_provider" target="_top">
<polygon fill="#ffffff" stroke="transparent" points="173,-47.2 173,-196.2 346,-196.2 346,-47.2 173,-47.2"/>
<polygon fill="#f5f5f5" stroke="transparent" points="173.5,-172.7 173.5,-195.7 346.5,-195.7 346.5,-172.7 173.5,-172.7"/>
<polygon fill="none" stroke="#000000" points="173.5,-172.7 173.5,-195.7 346.5,-195.7 346.5,-172.7 173.5,-172.7"/>
<text text-anchor="start" x="178.5" y="-181.8" font-family="Helvetica,sans-Serif" font-weight="bold" font-size="11.00" fill="#000000">identity_provider</text>
<text text-anchor="start" x="311.5437" y="-180.8" font-family="Helvetica,sans-Serif" font-size="11.00" fill="#000000">[table]</text>
<polygon fill="none" stroke="#000000" points="173.5,-150.7 173.5,-172.7 346.5,-172.7 346.5,-150.7 173.5,-150.7"/>
<image xlink:href="../../images/primaryKeys.png" width="11px" height="12px" preserveAspectRatio="xMinYMin meet" x="178.5" y="-167.7"/>
<text text-anchor="start" x="193.5" y="-157.8" font-family="Helvetica,sans-Serif" font-size="11.00" fill="#000000">internal_id</text>
<polygon fill="#ffffff" stroke="transparent" points="173.5,-128.7 173.5,-150.7 346.5,-150.7 346.5,-128.7 173.5,-128.7"/>
<polygon fill="none" stroke="#000000" points="173.5,-128.7 173.5,-150.7 346.5,-150.7 346.5,-128.7 173.5,-128.7"/>
<text text-anchor="start" x="193.5" y="-135.8" font-family="Helvetica,sans-Serif" font-size="11.00" fill="#000000">provider_alias</text>
<polygon fill="none" stroke="#000000" points="173.5,-106.7 173.5,-128.7 346.5,-128.7 346.5,-106.7 173.5,-106.7"/>
<image xlink:href="../../images/foreignKeys.png" width="11px" height="12px" preserveAspectRatio="xMinYMin meet" x="178.5" y="-123.7"/>
<text text-anchor="start" x="193.5" y="-113.8" font-family="Helvetica,sans-Serif" font-size="11.00" fill="#000000">provider_id</text>
<polygon fill="#ffffff" stroke="transparent" points="173.5,-84.7 173.5,-106.7 346.5,-106.7 346.5,-84.7 173.5,-84.7"/>
<polygon fill="none" stroke="#000000" points="173.5,-84.7 173.5,-106.7 346.5,-106.7 346.5,-84.7 173.5,-84.7"/>
<image xlink:href="../../images/foreignKeys.png" width="11px" height="12px" preserveAspectRatio="xMinYMin meet" x="178.5" y="-101.7"/>
<text text-anchor="start" x="193.5" y="-91.8" font-family="Helvetica,sans-Serif" font-size="11.00" fill="#000000">realm_id</text>
<polygon fill="none" stroke="#000000" points="173.5,-65.7 173.5,-84.7 346.5,-84.7 346.5,-65.7 173.5,-65.7"/>
<text text-anchor="start" x="176.5" y="-71.8" font-family="Helvetica,sans-Serif" font-size="11.00" fill="#000000">...</text>
<polygon fill="#ffffff" stroke="transparent" points="173.5,-46.7 173.5,-65.7 240.5,-65.7 240.5,-46.7 173.5,-46.7"/>
<polygon fill="none" stroke="#000000" points="173.5,-46.7 173.5,-65.7 240.5,-65.7 240.5,-46.7 173.5,-46.7"/>
<text text-anchor="start" x="176.5" y="-52.8" font-family="Helvetica,sans-Serif" font-size="11.00" fill="#000000">&lt; 2</text>
<polygon fill="#ffffff" stroke="transparent" points="240.5,-46.7 240.5,-65.7 301.5,-65.7 301.5,-46.7 240.5,-46.7"/>
<polygon fill="none" stroke="#000000" points="240.5,-46.7 240.5,-65.7 301.5,-65.7 301.5,-46.7 240.5,-46.7"/>
<text text-anchor="start" x="266.1105" y="-52.8" font-family="Helvetica,sans-Serif" font-size="11.00" fill="#000000">0 rows</text>
<polygon fill="#ffffff" stroke="transparent" points="301.5,-46.7 301.5,-65.7 346.5,-65.7 346.5,-46.7 301.5,-46.7"/>
<polygon fill="none" stroke="#000000" points="301.5,-46.7 301.5,-65.7 346.5,-65.7 346.5,-46.7 301.5,-46.7"/>
<text text-anchor="start" x="327.9053" y="-52.8" font-family="Helvetica,sans-Serif" font-size="11.00" fill="#000000">1 &gt;</text>
</a>
</g>
</g>
<!-- federated_user -->
<g id="node2" class="node">
<title>federated_user</title>
<g id="a_node2"><a xlink:href="../../tables/federated_user.html" xlink:title="federated_user" target="_top">
<polygon fill="#ffffff" stroke="transparent" points="8,-120.2 8,-181.2 124,-181.2 124,-120.2 8,-120.2"/>
<polygon fill="#f5f5f5" stroke="transparent" points="8,-157.7 8,-180.7 124,-180.7 124,-157.7 8,-157.7"/>
<polygon fill="none" stroke="#000000" points="8,-157.7 8,-180.7 124,-180.7 124,-157.7 8,-157.7"/>
<text text-anchor="start" x="12.5142" y="-166.8" font-family="Helvetica,sans-Serif" font-weight="bold" font-size="11.00" fill="#000000">federated_user</text>
<text text-anchor="start" x="89.5219" y="-165.8" font-family="Helvetica,sans-Serif" font-size="11.00" fill="#000000">[table]</text>
<polygon fill="none" stroke="#000000" points="8,-138.7 8,-157.7 124,-157.7 124,-138.7 8,-138.7"/>
<text text-anchor="start" x="11" y="-144.8" font-family="Helvetica,sans-Serif" font-size="11.00" fill="#000000">...</text>
<polygon fill="#ffffff" stroke="transparent" points="8,-119.7 8,-138.7 39,-138.7 39,-119.7 8,-119.7"/>
<polygon fill="none" stroke="#000000" points="8,-119.7 8,-138.7 39,-138.7 39,-119.7 8,-119.7"/>
<text text-anchor="start" x="11" y="-125.8" font-family="Helvetica,sans-Serif" font-size="11.00" fill="#000000"> &#160;</text>
<polygon fill="#ffffff" stroke="transparent" points="39,-119.7 39,-138.7 87,-138.7 87,-119.7 39,-119.7"/>
<polygon fill="none" stroke="#000000" points="39,-119.7 39,-138.7 87,-138.7 87,-119.7 39,-119.7"/>
<text text-anchor="start" x="51.6105" y="-125.8" font-family="Helvetica,sans-Serif" font-size="11.00" fill="#000000">0 rows</text>
<polygon fill="#ffffff" stroke="transparent" points="87,-119.7 87,-138.7 124,-138.7 124,-119.7 87,-119.7"/>
<polygon fill="none" stroke="#000000" points="87,-119.7 87,-138.7 124,-138.7 124,-119.7 87,-119.7"/>
<text text-anchor="start" x="99.2904" y="-125.8" font-family="Helvetica,sans-Serif" font-size="11.00" fill="#000000">30 &gt;</text>
</a>
</g>
</g>
<!-- identity_provider&#45;&gt;federated_user -->
<g id="edge1" class="edge">
<title>identity_provider:w&#45;&gt;federated_user:e</title>
<path fill="none" stroke="#000000" stroke-dasharray="5,2" d="M159.633,-121.622C147.238,-129.7538 143.8967,-147.7 124,-147.7"/>
<polygon fill="#000000" stroke="#000000" points="165.802,-119.8773 174.4798,-121.1641 169.651,-118.7886 173.5,-117.7 173.5,-117.7 173.5,-117.7 169.651,-118.7886 172.5202,-114.2359 165.802,-119.8773 165.802,-119.8773"/>
<ellipse fill="none" stroke="#000000" cx="162.7228" cy="-120.7482" rx="3.2" ry="3.2"/>
</g>
<!-- realm -->
<g id="node3" class="node">
<title>realm</title>
<g id="a_node3"><a xlink:href="../../tables/realm.html" xlink:title="realm" target="_top">
<polygon fill="#ffffff" stroke="transparent" points="30.5,-38.2 30.5,-99.2 101.5,-99.2 101.5,-38.2 30.5,-38.2"/>
<polygon fill="#f5f5f5" stroke="transparent" points="31,-75.7 31,-98.7 102,-98.7 102,-75.7 31,-75.7"/>
<polygon fill="none" stroke="#000000" points="31,-75.7 31,-98.7 102,-98.7 102,-75.7 31,-75.7"/>
<text text-anchor="start" x="36" y="-84.8" font-family="Helvetica,sans-Serif" font-weight="bold" font-size="11.00" fill="#000000">realm</text>
<text text-anchor="start" x="67.5219" y="-83.8" font-family="Helvetica,sans-Serif" font-size="11.00" fill="#000000">[table]</text>
<polygon fill="none" stroke="#000000" points="31,-56.7 31,-75.7 102,-75.7 102,-56.7 31,-56.7"/>
<text text-anchor="start" x="34" y="-62.8" font-family="Helvetica,sans-Serif" font-size="11.00" fill="#000000">...</text>
<polygon fill="#ffffff" stroke="transparent" points="31,-37.7 31,-56.7 43,-56.7 43,-37.7 31,-37.7"/>
<polygon fill="none" stroke="#000000" points="31,-37.7 31,-56.7 43,-56.7 43,-37.7 31,-37.7"/>
<text text-anchor="start" x="33.9431" y="-43.8" font-family="Helvetica,sans-Serif" font-size="11.00" fill="#000000"> &#160;</text>
<polygon fill="#ffffff" stroke="transparent" points="43,-37.7 43,-56.7 75,-56.7 75,-37.7 43,-37.7"/>
<polygon fill="none" stroke="#000000" points="43,-37.7 43,-56.7 75,-56.7 75,-37.7 43,-37.7"/>
<text text-anchor="start" x="45.5553" y="-43.8" font-family="Helvetica,sans-Serif" font-size="11.00" fill="#000000">1 row</text>
<polygon fill="#ffffff" stroke="transparent" points="75,-37.7 75,-56.7 102,-56.7 102,-37.7 75,-37.7"/>
<polygon fill="none" stroke="#000000" points="75,-37.7 75,-56.7 102,-56.7 102,-37.7 75,-37.7"/>
<text text-anchor="start" x="77.6452" y="-43.8" font-family="Helvetica,sans-Serif" font-size="11.00" fill="#000000">23 &gt;</text>
</a>
</g>
</g>
<!-- identity_provider&#45;&gt;realm -->
<g id="edge2" class="edge">
<title>identity_provider:w&#45;&gt;realm:e</title>
<path fill="none" stroke="#000000" d="M159.1338,-93.638C137.3952,-86.8601 130.9424,-65.7 102,-65.7"/>
<polygon fill="#000000" stroke="#000000" points="165.5812,-94.5633 172.9885,-99.2635 169.5406,-95.1317 173.5,-95.7 173.5,-95.7 173.5,-95.7 169.5406,-95.1317 174.0115,-92.1365 165.5812,-94.5633 165.5812,-94.5633"/>
<ellipse fill="none" stroke="#000000" cx="162.4136" cy="-94.1087" rx="3.2" ry="3.2"/>
</g>
<!-- identity_provider_config -->
<g id="node4" class="node">
<title>identity_provider_config</title>
<g id="a_node4"><a xlink:href="../../tables/identity_provider_config.html" xlink:title="identity_provider_config" target="_top">
<polygon fill="#ffffff" stroke="transparent" points="395,-85.7 395,-197.7 650,-197.7 650,-85.7 395,-85.7"/>
<polygon fill="#f5f5f5" stroke="transparent" points="397.5,-172.7 397.5,-195.7 648.5,-195.7 648.5,-172.7 397.5,-172.7"/>
<polygon fill="none" stroke="#000000" points="397.5,-172.7 397.5,-195.7 648.5,-195.7 648.5,-172.7 397.5,-172.7"/>
<text text-anchor="start" x="402.5" y="-181.8" font-family="Helvetica,sans-Serif" font-weight="bold" font-size="11.00" fill="#000000">identity_provider_config</text>
<text text-anchor="start" x="613.5437" y="-180.8" font-family="Helvetica,sans-Serif" font-size="11.00" fill="#000000">[table]</text>
<polygon fill="none" stroke="#000000" points="397.5,-150.7 397.5,-172.7 558.5,-172.7 558.5,-150.7 397.5,-150.7"/>
<image xlink:href="../../images/primaryKeys.png" width="11px" height="12px" preserveAspectRatio="xMinYMin meet" x="402.5" y="-167.7"/>
<text text-anchor="start" x="417.5" y="-157.8" font-family="Helvetica,sans-Serif" font-size="11.00" fill="#000000">identity_provider_id</text>
<polygon fill="none" stroke="#000000" points="558.5,-150.7 558.5,-172.7 648.5,-172.7 648.5,-150.7 558.5,-150.7"/>
<text text-anchor="start" x="561.5" y="-158.4" font-family="Helvetica,sans-Serif" font-size="11.00" fill="#000000">varchar[36]</text>
<polygon fill="none" stroke="#000000" points="397.5,-128.7 397.5,-150.7 558.5,-150.7 558.5,-128.7 397.5,-128.7"/>
<text text-anchor="start" x="417.5" y="-135.8" font-family="Helvetica,sans-Serif" font-size="11.00" fill="#000000">value</text>
<polygon fill="none" stroke="#000000" points="558.5,-128.7 558.5,-150.7 648.5,-150.7 648.5,-128.7 558.5,-128.7"/>
<text text-anchor="start" x="561.0043" y="-136.4" font-family="Helvetica,sans-Serif" font-size="11.00" fill="#000000">text[2147483647]</text>
<polygon fill="none" stroke="#000000" points="397.5,-106.7 397.5,-128.7 558.5,-128.7 558.5,-106.7 397.5,-106.7"/>
<image xlink:href="../../images/primaryKeys.png" width="11px" height="12px" preserveAspectRatio="xMinYMin meet" x="402.5" y="-123.7"/>
<text text-anchor="start" x="417.5" y="-113.8" font-family="Helvetica,sans-Serif" font-size="11.00" fill="#000000">name</text>
<polygon fill="none" stroke="#000000" points="558.5,-106.7 558.5,-128.7 648.5,-128.7 648.5,-106.7 558.5,-106.7"/>
<text text-anchor="start" x="561.5" y="-114.4" font-family="Helvetica,sans-Serif" font-size="11.00" fill="#000000">varchar[255]</text>
<polygon fill="#ffffff" stroke="transparent" points="397.5,-87.7 397.5,-106.7 469.5,-106.7 469.5,-87.7 397.5,-87.7"/>
<polygon fill="none" stroke="#000000" points="397.5,-87.7 397.5,-106.7 469.5,-106.7 469.5,-87.7 397.5,-87.7"/>
<text text-anchor="start" x="400.5" y="-93.8" font-family="Helvetica,sans-Serif" font-size="11.00" fill="#000000">&lt; 1</text>
<polygon fill="#ffffff" stroke="transparent" points="469.5,-87.7 469.5,-106.7 558.5,-106.7 558.5,-87.7 469.5,-87.7"/>
<polygon fill="none" stroke="#000000" points="469.5,-87.7 469.5,-106.7 558.5,-106.7 558.5,-87.7 469.5,-87.7"/>
<text text-anchor="start" x="523.1105" y="-93.8" font-family="Helvetica,sans-Serif" font-size="11.00" fill="#000000">0 rows</text>
<polygon fill="#ffffff" stroke="transparent" points="558.5,-87.7 558.5,-106.7 648.5,-106.7 648.5,-87.7 558.5,-87.7"/>
<polygon fill="none" stroke="#000000" points="558.5,-87.7 558.5,-106.7 648.5,-106.7 648.5,-87.7 558.5,-87.7"/>
<text text-anchor="start" x="629.9053" y="-93.8" font-family="Helvetica,sans-Serif" font-size="11.00" fill="#000000">0 &gt;</text>
<polygon fill="none" stroke="#000000" stroke-width="2" points="396,-86.7 396,-196.7 649,-196.7 649,-86.7 396,-86.7"/>
</a>
</g>
</g>
<!-- identity_provider_config&#45;&gt;identity_provider -->
<g id="edge3" class="edge">
<title>identity_provider_config:w&#45;&gt;identity_provider:e</title>
<path fill="none" stroke="#000000" d="M382.776,-161.7C370.7815,-161.7 363.3229,-161.7 346.5,-161.7"/>
<polygon fill="#000000" stroke="#000000" points="389.5,-161.7001 397.5,-165.3 393.5,-161.7 397.5,-161.7 397.5,-161.7 397.5,-161.7 393.5,-161.7 397.5,-158.1 389.5,-161.7001 389.5,-161.7001"/>
<ellipse fill="none" stroke="#000000" cx="386.3" cy="-161.7001" rx="3.2" ry="3.2"/>
</g>
</g>
</svg>
