<?xml version="1.0" encoding="UTF-8" standalone="no"?>
<!DOCTYPE svg PUBLIC "-//W3C//DTD SVG 1.1//EN"
 "http://www.w3.org/Graphics/SVG/1.1/DTD/svg11.dtd">
<!-- Generated by graphviz version 2.40.1 (20161225.0304)
 -->
<!-- Title: oneDegreeRelationshipsDiagram Pages: 1 -->
<svg width="740pt" height="382pt"
 viewBox="0.00 0.00 740.00 382.20" xmlns="http://www.w3.org/2000/svg" xmlns:xlink="http://www.w3.org/1999/xlink">
<g id="graph0" class="graph" transform="scale(1 1) rotate(0) translate(4 378.2)">
<title>oneDegreeRelationshipsDiagram</title>
<polygon fill="#ffffff" stroke="transparent" points="-4,4 -4,-378.2 736,-378.2 736,4 -4,4"/>
<text text-anchor="middle" x="72.4936" y="-7.3" font-family="Helvetica,sans-Serif" font-size="11.00" fill="#000000">Generated by SchemaSpy</text>
<!-- identity_provider -->
<g id="node1" class="node">
<title>identity_provider</title>
<g id="a_node1"><a xlink:href="../../tables/identity_provider.html" xlink:title="identity_provider" target="_top">
<polygon fill="#ffffff" stroke="transparent" points="270,-38.2 270,-370.2 514,-370.2 514,-38.2 270,-38.2"/>
<polygon fill="#f5f5f5" stroke="transparent" points="272,-345.2 272,-368.2 512,-368.2 512,-345.2 272,-345.2"/>
<polygon fill="none" stroke="#000000" points="272,-345.2 272,-368.2 512,-368.2 512,-345.2 272,-345.2"/>
<text text-anchor="start" x="277" y="-354.3" font-family="Helvetica,sans-Serif" font-weight="bold" font-size="11.00" fill="#000000">identity_provider</text>
<text text-anchor="start" x="477.0437" y="-353.3" font-family="Helvetica,sans-Serif" font-size="11.00" fill="#000000">[table]</text>
<polygon fill="none" stroke="#000000" points="272,-323.2 272,-345.2 445,-345.2 445,-323.2 272,-323.2"/>
<image xlink:href="../../images/primaryKeys.png" width="11px" height="12px" preserveAspectRatio="xMinYMin meet" x="277" y="-340.2"/>
<text text-anchor="start" x="292" y="-330.3" font-family="Helvetica,sans-Serif" font-size="11.00" fill="#000000">internal_id</text>
<polygon fill="none" stroke="#000000" points="445,-323.2 445,-345.2 512,-345.2 512,-323.2 445,-323.2"/>
<text text-anchor="start" x="448" y="-330.9" font-family="Helvetica,sans-Serif" font-size="11.00" fill="#000000">varchar[36]</text>
<polygon fill="none" stroke="#000000" points="272,-301.2 272,-323.2 445,-323.2 445,-301.2 272,-301.2"/>
<text text-anchor="start" x="292" y="-308.3" font-family="Helvetica,sans-Serif" font-size="11.00" fill="#000000">enabled</text>
<polygon fill="none" stroke="#000000" points="445,-301.2 445,-323.2 512,-323.2 512,-301.2 445,-301.2"/>
<text text-anchor="start" x="448" y="-308.9" font-family="Helvetica,sans-Serif" font-size="11.00" fill="#000000">bool[1]</text>
<polygon fill="#ffffff" stroke="transparent" points="272,-279.2 272,-301.2 445,-301.2 445,-279.2 272,-279.2"/>
<polygon fill="none" stroke="#000000" points="272,-279.2 272,-301.2 445,-301.2 445,-279.2 272,-279.2"/>
<text text-anchor="start" x="292" y="-286.3" font-family="Helvetica,sans-Serif" font-size="11.00" fill="#000000">provider_alias</text>
<polygon fill="none" stroke="#000000" points="445,-279.2 445,-301.2 512,-301.2 512,-279.2 445,-279.2"/>
<text text-anchor="start" x="447.9365" y="-286.9" font-family="Helvetica,sans-Serif" font-size="11.00" fill="#000000">varchar[255]</text>
<polygon fill="none" stroke="#000000" points="272,-257.2 272,-279.2 445,-279.2 445,-257.2 272,-257.2"/>
<image xlink:href="../../images/foreignKeys.png" width="11px" height="12px" preserveAspectRatio="xMinYMin meet" x="277" y="-274.2"/>
<text text-anchor="start" x="292" y="-264.3" font-family="Helvetica,sans-Serif" font-size="11.00" fill="#000000">provider_id</text>
<polygon fill="none" stroke="#000000" points="445,-257.2 445,-279.2 512,-279.2 512,-257.2 445,-257.2"/>
<text text-anchor="start" x="447.9365" y="-264.9" font-family="Helvetica,sans-Serif" font-size="11.00" fill="#000000">varchar[255]</text>
<polygon fill="none" stroke="#000000" points="272,-235.2 272,-257.2 445,-257.2 445,-235.2 272,-235.2"/>
<text text-anchor="start" x="292" y="-242.3" font-family="Helvetica,sans-Serif" font-size="11.00" fill="#000000">store_token</text>
<polygon fill="none" stroke="#000000" points="445,-235.2 445,-257.2 512,-257.2 512,-235.2 445,-235.2"/>
<text text-anchor="start" x="448" y="-242.9" font-family="Helvetica,sans-Serif" font-size="11.00" fill="#000000">bool[1]</text>
<polygon fill="none" stroke="#000000" points="272,-213.2 272,-235.2 445,-235.2 445,-213.2 272,-213.2"/>
<text text-anchor="start" x="292" y="-220.3" font-family="Helvetica,sans-Serif" font-size="11.00" fill="#000000">authenticate_by_default</text>
<polygon fill="none" stroke="#000000" points="445,-213.2 445,-235.2 512,-235.2 512,-213.2 445,-213.2"/>
<text text-anchor="start" x="448" y="-220.9" font-family="Helvetica,sans-Serif" font-size="11.00" fill="#000000">bool[1]</text>
<polygon fill="#ffffff" stroke="transparent" points="272,-191.2 272,-213.2 445,-213.2 445,-191.2 272,-191.2"/>
<polygon fill="none" stroke="#000000" points="272,-191.2 272,-213.2 445,-213.2 445,-191.2 272,-191.2"/>
<image xlink:href="../../images/foreignKeys.png" width="11px" height="12px" preserveAspectRatio="xMinYMin meet" x="277" y="-208.2"/>
<text text-anchor="start" x="292" y="-198.3" font-family="Helvetica,sans-Serif" font-size="11.00" fill="#000000">realm_id</text>
<polygon fill="none" stroke="#000000" points="445,-191.2 445,-213.2 512,-213.2 512,-191.2 445,-191.2"/>
<text text-anchor="start" x="448" y="-198.9" font-family="Helvetica,sans-Serif" font-size="11.00" fill="#000000">varchar[36]</text>
<polygon fill="none" stroke="#000000" points="272,-169.2 272,-191.2 445,-191.2 445,-169.2 272,-169.2"/>
<text text-anchor="start" x="292" y="-176.3" font-family="Helvetica,sans-Serif" font-size="11.00" fill="#000000">add_token_role</text>
<polygon fill="none" stroke="#000000" points="445,-169.2 445,-191.2 512,-191.2 512,-169.2 445,-169.2"/>
<text text-anchor="start" x="448" y="-176.9" font-family="Helvetica,sans-Serif" font-size="11.00" fill="#000000">bool[1]</text>
<polygon fill="none" stroke="#000000" points="272,-147.2 272,-169.2 445,-169.2 445,-147.2 272,-147.2"/>
<text text-anchor="start" x="292" y="-154.3" font-family="Helvetica,sans-Serif" font-size="11.00" fill="#000000">trust_email</text>
<polygon fill="none" stroke="#000000" points="445,-147.2 445,-169.2 512,-169.2 512,-147.2 445,-147.2"/>
<text text-anchor="start" x="448" y="-154.9" font-family="Helvetica,sans-Serif" font-size="11.00" fill="#000000">bool[1]</text>
<polygon fill="none" stroke="#000000" points="272,-125.2 272,-147.2 445,-147.2 445,-125.2 272,-125.2"/>
<text text-anchor="start" x="292" y="-132.3" font-family="Helvetica,sans-Serif" font-size="11.00" fill="#000000">first_broker_login_flow_id</text>
<polygon fill="none" stroke="#000000" points="445,-125.2 445,-147.2 512,-147.2 512,-125.2 445,-125.2"/>
<text text-anchor="start" x="448" y="-132.9" font-family="Helvetica,sans-Serif" font-size="11.00" fill="#000000">varchar[36]</text>
<polygon fill="none" stroke="#000000" points="272,-103.2 272,-125.2 445,-125.2 445,-103.2 272,-103.2"/>
<text text-anchor="start" x="292" y="-110.3" font-family="Helvetica,sans-Serif" font-size="11.00" fill="#000000">post_broker_login_flow_id</text>
<polygon fill="none" stroke="#000000" points="445,-103.2 445,-125.2 512,-125.2 512,-103.2 445,-103.2"/>
<text text-anchor="start" x="448" y="-110.9" font-family="Helvetica,sans-Serif" font-size="11.00" fill="#000000">varchar[36]</text>
<polygon fill="none" stroke="#000000" points="272,-81.2 272,-103.2 445,-103.2 445,-81.2 272,-81.2"/>
<text text-anchor="start" x="292" y="-88.3" font-family="Helvetica,sans-Serif" font-size="11.00" fill="#000000">provider_display_name</text>
<polygon fill="none" stroke="#000000" points="445,-81.2 445,-103.2 512,-103.2 512,-81.2 445,-81.2"/>
<text text-anchor="start" x="447.9365" y="-88.9" font-family="Helvetica,sans-Serif" font-size="11.00" fill="#000000">varchar[255]</text>
<polygon fill="none" stroke="#000000" points="272,-59.2 272,-81.2 445,-81.2 445,-59.2 272,-59.2"/>
<text text-anchor="start" x="292" y="-66.3" font-family="Helvetica,sans-Serif" font-size="11.00" fill="#000000">link_only</text>
<polygon fill="none" stroke="#000000" points="445,-59.2 445,-81.2 512,-81.2 512,-59.2 445,-59.2"/>
<text text-anchor="start" x="448" y="-66.9" font-family="Helvetica,sans-Serif" font-size="11.00" fill="#000000">bool[1]</text>
<polygon fill="#ffffff" stroke="transparent" points="272,-40.2 272,-59.2 350,-59.2 350,-40.2 272,-40.2"/>
<polygon fill="none" stroke="#000000" points="272,-40.2 272,-59.2 350,-59.2 350,-40.2 272,-40.2"/>
<text text-anchor="start" x="275" y="-46.3" font-family="Helvetica,sans-Serif" font-size="11.00" fill="#000000">&lt; 1</text>
<polygon fill="#ffffff" stroke="transparent" points="350,-40.2 350,-59.2 445,-59.2 445,-40.2 350,-40.2"/>
<polygon fill="none" stroke="#000000" points="350,-40.2 350,-59.2 445,-59.2 445,-40.2 350,-40.2"/>
<text text-anchor="start" x="409.6105" y="-46.3" font-family="Helvetica,sans-Serif" font-size="11.00" fill="#000000">0 rows</text>
<polygon fill="#ffffff" stroke="transparent" points="445,-40.2 445,-59.2 512,-59.2 512,-40.2 445,-40.2"/>
<polygon fill="none" stroke="#000000" points="445,-40.2 445,-59.2 512,-59.2 512,-40.2 445,-40.2"/>
<text text-anchor="start" x="493.4053" y="-46.3" font-family="Helvetica,sans-Serif" font-size="11.00" fill="#000000">1 &gt;</text>
<polygon fill="none" stroke="#000000" stroke-width="2" points="271,-39.2 271,-369.2 513,-369.2 513,-39.2 271,-39.2"/>
</a>
</g>
</g>
<!-- realm -->
<g id="node2" class="node">
<title>realm</title>
<g id="a_node2"><a xlink:href="../../tables/realm.html" xlink:title="realm" target="_top">
<polygon fill="#ffffff" stroke="transparent" points="8,-109.7 8,-236.7 221,-236.7 221,-109.7 8,-109.7"/>
<polygon fill="#f5f5f5" stroke="transparent" points="8.5,-213.2 8.5,-236.2 221.5,-236.2 221.5,-213.2 8.5,-213.2"/>
<polygon fill="none" stroke="#000000" points="8.5,-213.2 8.5,-236.2 221.5,-236.2 221.5,-213.2 8.5,-213.2"/>
<text text-anchor="start" x="13.5" y="-222.3" font-family="Helvetica,sans-Serif" font-weight="bold" font-size="11.00" fill="#000000">realm</text>
<text text-anchor="start" x="186.5437" y="-221.3" font-family="Helvetica,sans-Serif" font-size="11.00" fill="#000000">[table]</text>
<polygon fill="none" stroke="#000000" points="8.5,-191.2 8.5,-213.2 221.5,-213.2 221.5,-191.2 8.5,-191.2"/>
<image xlink:href="../../images/primaryKeys.png" width="11px" height="12px" preserveAspectRatio="xMinYMin meet" x="13.5" y="-208.2"/>
<text text-anchor="start" x="28.5" y="-198.3" font-family="Helvetica,sans-Serif" font-size="11.00" fill="#000000">id</text>
<polygon fill="#ffffff" stroke="transparent" points="8.5,-169.2 8.5,-191.2 221.5,-191.2 221.5,-169.2 8.5,-169.2"/>
<polygon fill="none" stroke="#000000" points="8.5,-169.2 8.5,-191.2 221.5,-191.2 221.5,-169.2 8.5,-169.2"/>
<text text-anchor="start" x="28.5" y="-176.3" font-family="Helvetica,sans-Serif" font-size="11.00" fill="#000000">name</text>
<polygon fill="#ffffff" stroke="transparent" points="8.5,-147.2 8.5,-169.2 221.5,-169.2 221.5,-147.2 8.5,-147.2"/>
<polygon fill="none" stroke="#000000" points="8.5,-147.2 8.5,-169.2 221.5,-169.2 221.5,-147.2 8.5,-147.2"/>
<text text-anchor="start" x="28.5" y="-154.3" font-family="Helvetica,sans-Serif" font-size="11.00" fill="#000000">master_admin_client</text>
<polygon fill="none" stroke="#000000" points="8.5,-128.2 8.5,-147.2 221.5,-147.2 221.5,-128.2 8.5,-128.2"/>
<text text-anchor="start" x="11.5" y="-134.3" font-family="Helvetica,sans-Serif" font-size="11.00" fill="#000000">...</text>
<polygon fill="#ffffff" stroke="transparent" points="8.5,-109.2 8.5,-128.2 91.5,-128.2 91.5,-109.2 8.5,-109.2"/>
<polygon fill="none" stroke="#000000" points="8.5,-109.2 8.5,-128.2 91.5,-128.2 91.5,-109.2 8.5,-109.2"/>
<text text-anchor="start" x="11.5" y="-115.3" font-family="Helvetica,sans-Serif" font-size="11.00" fill="#000000"> &#160;</text>
<polygon fill="#ffffff" stroke="transparent" points="91.5,-109.2 91.5,-128.2 158.5,-128.2 158.5,-109.2 91.5,-109.2"/>
<polygon fill="none" stroke="#000000" points="91.5,-109.2 91.5,-128.2 158.5,-128.2 158.5,-109.2 91.5,-109.2"/>
<text text-anchor="start" x="128.6105" y="-115.3" font-family="Helvetica,sans-Serif" font-size="11.00" fill="#000000">1 row</text>
<polygon fill="#ffffff" stroke="transparent" points="158.5,-109.2 158.5,-128.2 221.5,-128.2 221.5,-109.2 158.5,-109.2"/>
<polygon fill="none" stroke="#000000" points="158.5,-109.2 158.5,-128.2 221.5,-128.2 221.5,-109.2 158.5,-109.2"/>
<text text-anchor="start" x="196.7904" y="-115.3" font-family="Helvetica,sans-Serif" font-size="11.00" fill="#000000">23 &gt;</text>
</a>
</g>
</g>
<!-- identity_provider&#45;&gt;realm -->
<g id="edge1" class="edge">
<title>identity_provider:w&#45;&gt;realm:e</title>
<path fill="none" stroke="#000000" d="M257.4203,-202.2C245.5435,-202.2 238.158,-202.2 221.5,-202.2"/>
<polygon fill="#000000" stroke="#000000" points="264,-202.2001 272,-205.8 268,-202.2 272,-202.2 272,-202.2 272,-202.2 268,-202.2 272,-198.6 264,-202.2001 264,-202.2001"/>
<ellipse fill="none" stroke="#000000" cx="260.8" cy="-202.2001" rx="3.2" ry="3.2"/>
</g>
<!-- identity_provider_config -->
<g id="node3" class="node">
<title>identity_provider_config</title>
<g id="a_node3"><a xlink:href="../../tables/identity_provider_config.html" xlink:title="identity_provider_config" target="_top">
<polygon fill="#ffffff" stroke="transparent" points="563,-263.7 563,-368.7 724,-368.7 724,-263.7 563,-263.7"/>
<polygon fill="#f5f5f5" stroke="transparent" points="563.5,-345.2 563.5,-368.2 724.5,-368.2 724.5,-345.2 563.5,-345.2"/>
<polygon fill="none" stroke="#000000" points="563.5,-345.2 563.5,-368.2 724.5,-368.2 724.5,-345.2 563.5,-345.2"/>
<text text-anchor="start" x="568.5" y="-354.3" font-family="Helvetica,sans-Serif" font-weight="bold" font-size="11.00" fill="#000000">identity_provider_config</text>
<text text-anchor="start" x="689.5437" y="-353.3" font-family="Helvetica,sans-Serif" font-size="11.00" fill="#000000">[table]</text>
<polygon fill="none" stroke="#000000" points="563.5,-323.2 563.5,-345.2 724.5,-345.2 724.5,-323.2 563.5,-323.2"/>
<image xlink:href="../../images/primaryKeys.png" width="11px" height="12px" preserveAspectRatio="xMinYMin meet" x="568.5" y="-340.2"/>
<text text-anchor="start" x="583.5" y="-330.3" font-family="Helvetica,sans-Serif" font-size="11.00" fill="#000000">identity_provider_id</text>
<polygon fill="none" stroke="#000000" points="563.5,-301.2 563.5,-323.2 724.5,-323.2 724.5,-301.2 563.5,-301.2"/>
<image xlink:href="../../images/primaryKeys.png" width="11px" height="12px" preserveAspectRatio="xMinYMin meet" x="568.5" y="-318.2"/>
<text text-anchor="start" x="583.5" y="-308.3" font-family="Helvetica,sans-Serif" font-size="11.00" fill="#000000">name</text>
<polygon fill="none" stroke="#000000" points="563.5,-282.2 563.5,-301.2 724.5,-301.2 724.5,-282.2 563.5,-282.2"/>
<text text-anchor="start" x="566.5" y="-288.3" font-family="Helvetica,sans-Serif" font-size="11.00" fill="#000000">...</text>
<polygon fill="#ffffff" stroke="transparent" points="563.5,-263.2 563.5,-282.2 629.5,-282.2 629.5,-263.2 563.5,-263.2"/>
<polygon fill="none" stroke="#000000" points="563.5,-263.2 563.5,-282.2 629.5,-282.2 629.5,-263.2 563.5,-263.2"/>
<text text-anchor="start" x="566.5" y="-269.3" font-family="Helvetica,sans-Serif" font-size="11.00" fill="#000000">&lt; 1</text>
<polygon fill="#ffffff" stroke="transparent" points="629.5,-263.2 629.5,-282.2 689.5,-282.2 689.5,-263.2 629.5,-263.2"/>
<polygon fill="none" stroke="#000000" points="629.5,-263.2 629.5,-282.2 689.5,-282.2 689.5,-263.2 629.5,-263.2"/>
<text text-anchor="start" x="654.1105" y="-269.3" font-family="Helvetica,sans-Serif" font-size="11.00" fill="#000000">0 rows</text>
<polygon fill="#ffffff" stroke="transparent" points="689.5,-263.2 689.5,-282.2 724.5,-282.2 724.5,-263.2 689.5,-263.2"/>
<polygon fill="none" stroke="#000000" points="689.5,-263.2 689.5,-282.2 724.5,-282.2 724.5,-263.2 689.5,-263.2"/>
<text text-anchor="start" x="715.3862" y="-269.3" font-family="Helvetica,sans-Serif" font-size="11.00" fill="#000000"> &#160;</text>
</a>
</g>
</g>
<!-- identity_provider_config&#45;&gt;identity_provider -->
<g id="edge2" class="edge">
<title>identity_provider_config:w&#45;&gt;identity_provider:e</title>
<path fill="none" stroke="#000000" d="M549.0156,-334.2C536.6771,-334.2 529.1667,-334.2 512,-334.2"/>
<polygon fill="#000000" stroke="#000000" points="555.5,-334.2001 563.5,-337.8 559.5,-334.2 563.5,-334.2 563.5,-334.2 563.5,-334.2 559.5,-334.2 563.5,-330.6 555.5,-334.2001 555.5,-334.2001"/>
<ellipse fill="none" stroke="#000000" cx="552.3" cy="-334.2001" rx="3.2" ry="3.2"/>
</g>
</g>
</svg>
