<?xml version="1.0" encoding="UTF-8" standalone="no"?>
<!DOCTYPE svg PUBLIC "-//W3C//DTD SVG 1.1//EN"
 "http://www.w3.org/Graphics/SVG/1.1/DTD/svg11.dtd">
<!-- Generated by graphviz version 2.40.1 (20161225.0304)
 -->
<!-- Title: twoDegreesRelationshipsDiagram Pages: 1 -->
<svg width="586pt" height="162pt"
 viewBox="0.00 0.00 586.00 162.20" xmlns="http://www.w3.org/2000/svg" xmlns:xlink="http://www.w3.org/1999/xlink">
<g id="graph0" class="graph" transform="scale(1 1) rotate(0) translate(4 158.2)">
<title>twoDegreesRelationshipsDiagram</title>
<polygon fill="#ffffff" stroke="transparent" points="-4,4 -4,-158.2 582,-158.2 582,4 -4,4"/>
<text text-anchor="middle" x="72.4936" y="-7.3" font-family="Helvetica,sans-Serif" font-size="11.00" fill="#000000">Generated by SchemaSpy</text>
<!-- identity_provider_mapper -->
<g id="node1" class="node">
<title>identity_provider_mapper</title>
<g id="a_node1"><a xlink:href="../../tables/identity_provider_mapper.html" xlink:title="identity_provider_mapper" target="_top">
<polygon fill="#ffffff" stroke="transparent" points="128,-43.7 128,-148.7 296,-148.7 296,-43.7 128,-43.7"/>
<polygon fill="#f5f5f5" stroke="transparent" points="128,-125.2 128,-148.2 296,-148.2 296,-125.2 128,-125.2"/>
<polygon fill="none" stroke="#000000" points="128,-125.2 128,-148.2 296,-148.2 296,-125.2 128,-125.2"/>
<text text-anchor="start" x="133" y="-134.3" font-family="Helvetica,sans-Serif" font-weight="bold" font-size="11.00" fill="#000000">identity_provider_mapper</text>
<text text-anchor="start" x="261.5219" y="-133.3" font-family="Helvetica,sans-Serif" font-size="11.00" fill="#000000">[table]</text>
<polygon fill="none" stroke="#000000" points="128,-103.2 128,-125.2 296,-125.2 296,-103.2 128,-103.2"/>
<image xlink:href="../../images/primaryKeys.png" width="11px" height="12px" preserveAspectRatio="xMinYMin meet" x="133" y="-120.2"/>
<text text-anchor="start" x="148" y="-110.3" font-family="Helvetica,sans-Serif" font-size="11.00" fill="#000000">id</text>
<polygon fill="#ffffff" stroke="transparent" points="128,-81.2 128,-103.2 296,-103.2 296,-81.2 128,-81.2"/>
<polygon fill="none" stroke="#000000" points="128,-81.2 128,-103.2 296,-103.2 296,-81.2 128,-81.2"/>
<image xlink:href="../../images/foreignKeys.png" width="11px" height="12px" preserveAspectRatio="xMinYMin meet" x="133" y="-98.2"/>
<text text-anchor="start" x="148" y="-88.3" font-family="Helvetica,sans-Serif" font-size="11.00" fill="#000000">realm_id</text>
<polygon fill="none" stroke="#000000" points="128,-62.2 128,-81.2 296,-81.2 296,-62.2 128,-62.2"/>
<text text-anchor="start" x="131" y="-68.3" font-family="Helvetica,sans-Serif" font-size="11.00" fill="#000000">...</text>
<polygon fill="#ffffff" stroke="transparent" points="128,-43.2 128,-62.2 193,-62.2 193,-43.2 128,-43.2"/>
<polygon fill="none" stroke="#000000" points="128,-43.2 128,-62.2 193,-62.2 193,-43.2 128,-43.2"/>
<text text-anchor="start" x="131" y="-49.3" font-family="Helvetica,sans-Serif" font-size="11.00" fill="#000000">&lt; 1</text>
<polygon fill="#ffffff" stroke="transparent" points="193,-43.2 193,-62.2 253,-62.2 253,-43.2 193,-43.2"/>
<polygon fill="none" stroke="#000000" points="193,-43.2 193,-62.2 253,-62.2 253,-43.2 193,-43.2"/>
<text text-anchor="start" x="217.6105" y="-49.3" font-family="Helvetica,sans-Serif" font-size="11.00" fill="#000000">0 rows</text>
<polygon fill="#ffffff" stroke="transparent" points="253,-43.2 253,-62.2 296,-62.2 296,-43.2 253,-43.2"/>
<polygon fill="none" stroke="#000000" points="253,-43.2 253,-62.2 296,-62.2 296,-43.2 253,-43.2"/>
<text text-anchor="start" x="277.4053" y="-49.3" font-family="Helvetica,sans-Serif" font-size="11.00" fill="#000000">1 &gt;</text>
</a>
</g>
</g>
<!-- realm -->
<g id="node2" class="node">
<title>realm</title>
<g id="a_node2"><a xlink:href="../../tables/realm.html" xlink:title="realm" target="_top">
<polygon fill="#ffffff" stroke="transparent" points="8,-64.7 8,-125.7 79,-125.7 79,-64.7 8,-64.7"/>
<polygon fill="#f5f5f5" stroke="transparent" points="8.5,-102.2 8.5,-125.2 79.5,-125.2 79.5,-102.2 8.5,-102.2"/>
<polygon fill="none" stroke="#000000" points="8.5,-102.2 8.5,-125.2 79.5,-125.2 79.5,-102.2 8.5,-102.2"/>
<text text-anchor="start" x="13.5" y="-111.3" font-family="Helvetica,sans-Serif" font-weight="bold" font-size="11.00" fill="#000000">realm</text>
<text text-anchor="start" x="45.0219" y="-110.3" font-family="Helvetica,sans-Serif" font-size="11.00" fill="#000000">[table]</text>
<polygon fill="none" stroke="#000000" points="8.5,-83.2 8.5,-102.2 79.5,-102.2 79.5,-83.2 8.5,-83.2"/>
<text text-anchor="start" x="11.5" y="-89.3" font-family="Helvetica,sans-Serif" font-size="11.00" fill="#000000">...</text>
<polygon fill="#ffffff" stroke="transparent" points="8.5,-64.2 8.5,-83.2 20.5,-83.2 20.5,-64.2 8.5,-64.2"/>
<polygon fill="none" stroke="#000000" points="8.5,-64.2 8.5,-83.2 20.5,-83.2 20.5,-64.2 8.5,-64.2"/>
<text text-anchor="start" x="11.4431" y="-70.3" font-family="Helvetica,sans-Serif" font-size="11.00" fill="#000000"> &#160;</text>
<polygon fill="#ffffff" stroke="transparent" points="20.5,-64.2 20.5,-83.2 52.5,-83.2 52.5,-64.2 20.5,-64.2"/>
<polygon fill="none" stroke="#000000" points="20.5,-64.2 20.5,-83.2 52.5,-83.2 52.5,-64.2 20.5,-64.2"/>
<text text-anchor="start" x="23.0553" y="-70.3" font-family="Helvetica,sans-Serif" font-size="11.00" fill="#000000">1 row</text>
<polygon fill="#ffffff" stroke="transparent" points="52.5,-64.2 52.5,-83.2 79.5,-83.2 79.5,-64.2 52.5,-64.2"/>
<polygon fill="none" stroke="#000000" points="52.5,-64.2 52.5,-83.2 79.5,-83.2 79.5,-64.2 52.5,-64.2"/>
<text text-anchor="start" x="55.1452" y="-70.3" font-family="Helvetica,sans-Serif" font-size="11.00" fill="#000000">23 &gt;</text>
</a>
</g>
</g>
<!-- identity_provider_mapper&#45;&gt;realm -->
<g id="edge1" class="edge">
<title>identity_provider_mapper:w&#45;&gt;realm:e</title>
<path fill="none" stroke="#000000" d="M113.2829,-92.2C102.2886,-92.2 95.1615,-92.2 79.5,-92.2"/>
<polygon fill="#000000" stroke="#000000" points="120,-92.2001 128,-95.8 124,-92.2 128,-92.2 128,-92.2 128,-92.2 124,-92.2 128,-88.6 120,-92.2001 120,-92.2001"/>
<ellipse fill="none" stroke="#000000" cx="116.8" cy="-92.2001" rx="3.2" ry="3.2"/>
</g>
<!-- idp_mapper_config -->
<g id="node3" class="node">
<title>idp_mapper_config</title>
<g id="a_node3"><a xlink:href="../../tables/idp_mapper_config.html" xlink:title="idp_mapper_config" target="_top">
<polygon fill="#ffffff" stroke="transparent" points="345,-38.2 345,-150.2 570,-150.2 570,-38.2 345,-38.2"/>
<polygon fill="#f5f5f5" stroke="transparent" points="347.5,-125.2 347.5,-148.2 568.5,-148.2 568.5,-125.2 347.5,-125.2"/>
<polygon fill="none" stroke="#000000" points="347.5,-125.2 347.5,-148.2 568.5,-148.2 568.5,-125.2 347.5,-125.2"/>
<text text-anchor="start" x="352.5" y="-134.3" font-family="Helvetica,sans-Serif" font-weight="bold" font-size="11.00" fill="#000000">idp_mapper_config</text>
<text text-anchor="start" x="533.5437" y="-133.3" font-family="Helvetica,sans-Serif" font-size="11.00" fill="#000000">[table]</text>
<polygon fill="none" stroke="#000000" points="347.5,-103.2 347.5,-125.2 478.5,-125.2 478.5,-103.2 347.5,-103.2"/>
<image xlink:href="../../images/primaryKeys.png" width="11px" height="12px" preserveAspectRatio="xMinYMin meet" x="352.5" y="-120.2"/>
<text text-anchor="start" x="367.5" y="-110.3" font-family="Helvetica,sans-Serif" font-size="11.00" fill="#000000">idp_mapper_id</text>
<polygon fill="none" stroke="#000000" points="478.5,-103.2 478.5,-125.2 568.5,-125.2 568.5,-103.2 478.5,-103.2"/>
<text text-anchor="start" x="481.5" y="-110.9" font-family="Helvetica,sans-Serif" font-size="11.00" fill="#000000">varchar[36]</text>
<polygon fill="none" stroke="#000000" points="347.5,-81.2 347.5,-103.2 478.5,-103.2 478.5,-81.2 347.5,-81.2"/>
<text text-anchor="start" x="367.5" y="-88.3" font-family="Helvetica,sans-Serif" font-size="11.00" fill="#000000">value</text>
<polygon fill="none" stroke="#000000" points="478.5,-81.2 478.5,-103.2 568.5,-103.2 568.5,-81.2 478.5,-81.2"/>
<text text-anchor="start" x="481.0043" y="-88.9" font-family="Helvetica,sans-Serif" font-size="11.00" fill="#000000">text[2147483647]</text>
<polygon fill="none" stroke="#000000" points="347.5,-59.2 347.5,-81.2 478.5,-81.2 478.5,-59.2 347.5,-59.2"/>
<image xlink:href="../../images/primaryKeys.png" width="11px" height="12px" preserveAspectRatio="xMinYMin meet" x="352.5" y="-76.2"/>
<text text-anchor="start" x="367.5" y="-66.3" font-family="Helvetica,sans-Serif" font-size="11.00" fill="#000000">name</text>
<polygon fill="none" stroke="#000000" points="478.5,-59.2 478.5,-81.2 568.5,-81.2 568.5,-59.2 478.5,-59.2"/>
<text text-anchor="start" x="481.5" y="-66.9" font-family="Helvetica,sans-Serif" font-size="11.00" fill="#000000">varchar[255]</text>
<polygon fill="#ffffff" stroke="transparent" points="347.5,-40.2 347.5,-59.2 404.5,-59.2 404.5,-40.2 347.5,-40.2"/>
<polygon fill="none" stroke="#000000" points="347.5,-40.2 347.5,-59.2 404.5,-59.2 404.5,-40.2 347.5,-40.2"/>
<text text-anchor="start" x="350.5" y="-46.3" font-family="Helvetica,sans-Serif" font-size="11.00" fill="#000000">&lt; 1</text>
<polygon fill="#ffffff" stroke="transparent" points="404.5,-40.2 404.5,-59.2 478.5,-59.2 478.5,-40.2 404.5,-40.2"/>
<polygon fill="none" stroke="#000000" points="404.5,-40.2 404.5,-59.2 478.5,-59.2 478.5,-40.2 404.5,-40.2"/>
<text text-anchor="start" x="443.1105" y="-46.3" font-family="Helvetica,sans-Serif" font-size="11.00" fill="#000000">0 rows</text>
<polygon fill="#ffffff" stroke="transparent" points="478.5,-40.2 478.5,-59.2 568.5,-59.2 568.5,-40.2 478.5,-40.2"/>
<polygon fill="none" stroke="#000000" points="478.5,-40.2 478.5,-59.2 568.5,-59.2 568.5,-40.2 478.5,-40.2"/>
<text text-anchor="start" x="549.9053" y="-46.3" font-family="Helvetica,sans-Serif" font-size="11.00" fill="#000000">0 &gt;</text>
<polygon fill="none" stroke="#000000" stroke-width="2" points="346,-39.2 346,-149.2 569,-149.2 569,-39.2 346,-39.2"/>
</a>
</g>
</g>
<!-- idp_mapper_config&#45;&gt;identity_provider_mapper -->
<g id="edge2" class="edge">
<title>idp_mapper_config:w&#45;&gt;identity_provider_mapper:e</title>
<path fill="none" stroke="#000000" d="M333.0156,-114.2C320.6771,-114.2 313.1667,-114.2 296,-114.2"/>
<polygon fill="#000000" stroke="#000000" points="339.5,-114.2001 347.5,-117.8 343.5,-114.2 347.5,-114.2 347.5,-114.2 347.5,-114.2 343.5,-114.2 347.5,-110.6 339.5,-114.2001 339.5,-114.2001"/>
<ellipse fill="none" stroke="#000000" cx="336.3" cy="-114.2001" rx="3.2" ry="3.2"/>
</g>
</g>
</svg>
