<?xml version="1.0" encoding="UTF-8" standalone="no"?>
<!DOCTYPE svg PUBLIC "-//W3C//DTD SVG 1.1//EN"
 "http://www.w3.org/Graphics/SVG/1.1/DTD/svg11.dtd">
<!-- Generated by graphviz version 2.40.1 (20161225.0304)
 -->
<!-- Title: oneDegreeRelationshipsDiagramImplied Pages: 1 -->
<svg width="443pt" height="250pt"
 viewBox="0.00 0.00 443.00 250.20" xmlns="http://www.w3.org/2000/svg" xmlns:xlink="http://www.w3.org/1999/xlink">
<g id="graph0" class="graph" transform="scale(1 1) rotate(0) translate(4 246.2)">
<title>oneDegreeRelationshipsDiagramImplied</title>
<polygon fill="#ffffff" stroke="transparent" points="-4,4 -4,-246.2 439,-246.2 439,4 -4,4"/>
<text text-anchor="middle" x="72.4936" y="-7.3" font-family="Helvetica,sans-Serif" font-size="11.00" fill="#000000">Generated by SchemaSpy</text>
<!-- offline_user_session -->
<g id="node1" class="node">
<title>offline_user_session</title>
<g id="a_node1"><a xlink:href="../../tables/offline_user_session.html" xlink:title="offline_user_session" target="_top">
<polygon fill="#ffffff" stroke="transparent" points="193,-38.2 193,-238.2 427,-238.2 427,-38.2 193,-38.2"/>
<polygon fill="#f5f5f5" stroke="transparent" points="195,-213.2 195,-236.2 425,-236.2 425,-213.2 195,-213.2"/>
<polygon fill="none" stroke="#000000" points="195,-213.2 195,-236.2 425,-236.2 425,-213.2 195,-213.2"/>
<text text-anchor="start" x="200" y="-222.3" font-family="Helvetica,sans-Serif" font-weight="bold" font-size="11.00" fill="#000000">offline_user_session</text>
<text text-anchor="start" x="390.0437" y="-221.3" font-family="Helvetica,sans-Serif" font-size="11.00" fill="#000000">[table]</text>
<polygon fill="none" stroke="#000000" points="195,-191.2 195,-213.2 335,-213.2 335,-191.2 195,-191.2"/>
<image xlink:href="../../images/primaryKeys.png" width="11px" height="12px" preserveAspectRatio="xMinYMin meet" x="200" y="-208.2"/>
<text text-anchor="start" x="215" y="-198.3" font-family="Helvetica,sans-Serif" font-size="11.00" fill="#000000">user_session_id</text>
<polygon fill="none" stroke="#000000" points="335,-191.2 335,-213.2 425,-213.2 425,-191.2 335,-191.2"/>
<text text-anchor="start" x="338" y="-198.9" font-family="Helvetica,sans-Serif" font-size="11.00" fill="#000000">varchar[36]</text>
<polygon fill="none" stroke="#000000" points="195,-169.2 195,-191.2 335,-191.2 335,-169.2 195,-169.2"/>
<image xlink:href="../../images/foreignKeys.png" width="11px" height="12px" preserveAspectRatio="xMinYMin meet" x="200" y="-186.2"/>
<text text-anchor="start" x="215" y="-176.3" font-family="Helvetica,sans-Serif" font-size="11.00" fill="#000000">user_id</text>
<polygon fill="none" stroke="#000000" points="335,-169.2 335,-191.2 425,-191.2 425,-169.2 335,-169.2"/>
<text text-anchor="start" x="338" y="-176.9" font-family="Helvetica,sans-Serif" font-size="11.00" fill="#000000">varchar[255]</text>
<polygon fill="none" stroke="#000000" points="195,-147.2 195,-169.2 335,-169.2 335,-147.2 195,-147.2"/>
<text text-anchor="start" x="215" y="-154.3" font-family="Helvetica,sans-Serif" font-size="11.00" fill="#000000">realm_id</text>
<polygon fill="none" stroke="#000000" points="335,-147.2 335,-169.2 425,-169.2 425,-147.2 335,-147.2"/>
<text text-anchor="start" x="338" y="-154.9" font-family="Helvetica,sans-Serif" font-size="11.00" fill="#000000">varchar[36]</text>
<polygon fill="#ffffff" stroke="transparent" points="195,-125.2 195,-147.2 335,-147.2 335,-125.2 195,-125.2"/>
<polygon fill="none" stroke="#000000" points="195,-125.2 195,-147.2 335,-147.2 335,-125.2 195,-125.2"/>
<text text-anchor="start" x="215" y="-132.3" font-family="Helvetica,sans-Serif" font-size="11.00" fill="#000000">created_on</text>
<polygon fill="none" stroke="#000000" points="335,-125.2 335,-147.2 425,-147.2 425,-125.2 335,-125.2"/>
<text text-anchor="start" x="338" y="-132.9" font-family="Helvetica,sans-Serif" font-size="11.00" fill="#000000">int4[10]</text>
<polygon fill="none" stroke="#000000" points="195,-103.2 195,-125.2 335,-125.2 335,-103.2 195,-103.2"/>
<image xlink:href="../../images/primaryKeys.png" width="11px" height="12px" preserveAspectRatio="xMinYMin meet" x="200" y="-120.2"/>
<text text-anchor="start" x="215" y="-110.3" font-family="Helvetica,sans-Serif" font-size="11.00" fill="#000000">offline_flag</text>
<polygon fill="none" stroke="#000000" points="335,-103.2 335,-125.2 425,-125.2 425,-103.2 335,-103.2"/>
<text text-anchor="start" x="338" y="-110.9" font-family="Helvetica,sans-Serif" font-size="11.00" fill="#000000">varchar[4]</text>
<polygon fill="none" stroke="#000000" points="195,-81.2 195,-103.2 335,-103.2 335,-81.2 195,-81.2"/>
<text text-anchor="start" x="215" y="-88.3" font-family="Helvetica,sans-Serif" font-size="11.00" fill="#000000">data</text>
<polygon fill="none" stroke="#000000" points="335,-81.2 335,-103.2 425,-103.2 425,-81.2 335,-81.2"/>
<text text-anchor="start" x="337.5043" y="-88.9" font-family="Helvetica,sans-Serif" font-size="11.00" fill="#000000">text[2147483647]</text>
<polygon fill="none" stroke="#000000" points="195,-59.2 195,-81.2 335,-81.2 335,-59.2 195,-59.2"/>
<text text-anchor="start" x="215" y="-66.3" font-family="Helvetica,sans-Serif" font-size="11.00" fill="#000000">last_session_refresh</text>
<polygon fill="none" stroke="#000000" points="335,-59.2 335,-81.2 425,-81.2 425,-59.2 335,-59.2"/>
<text text-anchor="start" x="338" y="-66.9" font-family="Helvetica,sans-Serif" font-size="11.00" fill="#000000">int4[10]</text>
<polygon fill="#ffffff" stroke="transparent" points="195,-40.2 195,-59.2 256,-59.2 256,-40.2 195,-40.2"/>
<polygon fill="none" stroke="#000000" points="195,-40.2 195,-59.2 256,-59.2 256,-40.2 195,-40.2"/>
<text text-anchor="start" x="198" y="-46.3" font-family="Helvetica,sans-Serif" font-size="11.00" fill="#000000">&lt; 1</text>
<polygon fill="#ffffff" stroke="transparent" points="256,-40.2 256,-59.2 335,-59.2 335,-40.2 256,-40.2"/>
<polygon fill="none" stroke="#000000" points="256,-40.2 256,-59.2 335,-59.2 335,-40.2 256,-40.2"/>
<text text-anchor="start" x="299.6105" y="-46.3" font-family="Helvetica,sans-Serif" font-size="11.00" fill="#000000">0 rows</text>
<polygon fill="#ffffff" stroke="transparent" points="335,-40.2 335,-59.2 425,-59.2 425,-40.2 335,-40.2"/>
<polygon fill="none" stroke="#000000" points="335,-40.2 335,-59.2 425,-59.2 425,-40.2 335,-40.2"/>
<text text-anchor="start" x="406.4053" y="-46.3" font-family="Helvetica,sans-Serif" font-size="11.00" fill="#000000">0 &gt;</text>
<polygon fill="none" stroke="#000000" stroke-width="2" points="194,-39.2 194,-237.2 426,-237.2 426,-39.2 194,-39.2"/>
</a>
</g>
</g>
<!-- federated_user -->
<g id="node2" class="node">
<title>federated_user</title>
<g id="a_node2"><a xlink:href="../../tables/federated_user.html" xlink:title="federated_user" target="_top">
<polygon fill="#ffffff" stroke="transparent" points="8,-131.7 8,-214.7 144,-214.7 144,-131.7 8,-131.7"/>
<polygon fill="#f5f5f5" stroke="transparent" points="8,-191.2 8,-214.2 144,-214.2 144,-191.2 8,-191.2"/>
<polygon fill="none" stroke="#000000" points="8,-191.2 8,-214.2 144,-214.2 144,-191.2 8,-191.2"/>
<text text-anchor="start" x="13" y="-200.3" font-family="Helvetica,sans-Serif" font-weight="bold" font-size="11.00" fill="#000000">federated_user</text>
<text text-anchor="start" x="109.0437" y="-199.3" font-family="Helvetica,sans-Serif" font-size="11.00" fill="#000000">[table]</text>
<polygon fill="none" stroke="#000000" points="8,-169.2 8,-191.2 144,-191.2 144,-169.2 8,-169.2"/>
<image xlink:href="../../images/primaryKeys.png" width="11px" height="12px" preserveAspectRatio="xMinYMin meet" x="13" y="-186.2"/>
<text text-anchor="start" x="28" y="-176.3" font-family="Helvetica,sans-Serif" font-size="11.00" fill="#000000">id</text>
<polygon fill="none" stroke="#000000" points="8,-150.2 8,-169.2 144,-169.2 144,-150.2 8,-150.2"/>
<text text-anchor="start" x="11" y="-156.3" font-family="Helvetica,sans-Serif" font-size="11.00" fill="#000000">...</text>
<polygon fill="#ffffff" stroke="transparent" points="8,-131.2 8,-150.2 49,-150.2 49,-131.2 8,-131.2"/>
<polygon fill="none" stroke="#000000" points="8,-131.2 8,-150.2 49,-150.2 49,-131.2 8,-131.2"/>
<text text-anchor="start" x="11" y="-137.3" font-family="Helvetica,sans-Serif" font-size="11.00" fill="#000000"> &#160;</text>
<polygon fill="#ffffff" stroke="transparent" points="49,-131.2 49,-150.2 102,-150.2 102,-131.2 49,-131.2"/>
<polygon fill="none" stroke="#000000" points="49,-131.2 49,-150.2 102,-150.2 102,-131.2 49,-131.2"/>
<text text-anchor="start" x="66.6105" y="-137.3" font-family="Helvetica,sans-Serif" font-size="11.00" fill="#000000">0 rows</text>
<polygon fill="#ffffff" stroke="transparent" points="102,-131.2 102,-150.2 144,-150.2 144,-131.2 102,-131.2"/>
<polygon fill="none" stroke="#000000" points="102,-131.2 102,-150.2 144,-150.2 144,-131.2 102,-131.2"/>
<text text-anchor="start" x="119.2904" y="-137.3" font-family="Helvetica,sans-Serif" font-size="11.00" fill="#000000">30 &gt;</text>
</a>
</g>
</g>
<!-- offline_user_session&#45;&gt;federated_user -->
<g id="edge1" class="edge">
<title>offline_user_session:w&#45;&gt;federated_user:e</title>
<path fill="none" stroke="#000000" stroke-dasharray="5,2" d="M180.276,-180.2C168.2815,-180.2 160.8229,-180.2 144,-180.2"/>
<polygon fill="#000000" stroke="#000000" points="187,-180.2001 195,-183.8 191,-180.2 195,-180.2 195,-180.2 195,-180.2 191,-180.2 195,-176.6 187,-180.2001 187,-180.2001"/>
<ellipse fill="none" stroke="#000000" cx="183.8" cy="-180.2001" rx="3.2" ry="3.2"/>
</g>
</g>
</svg>
