<?xml version="1.0" encoding="UTF-8" standalone="no"?>
<!DOCTYPE svg PUBLIC "-//W3C//DTD SVG 1.1//EN"
 "http://www.w3.org/Graphics/SVG/1.1/DTD/svg11.dtd">
<!-- Generated by graphviz version 2.40.1 (20161225.0304)
 -->
<!-- Title: oneDegreeRelationshipsDiagram Pages: 1 -->
<svg width="421pt" height="179pt"
 viewBox="0.00 0.00 421.00 178.70" xmlns="http://www.w3.org/2000/svg" xmlns:xlink="http://www.w3.org/1999/xlink">
<g id="graph0" class="graph" transform="scale(1 1) rotate(0) translate(4 174.7)">
<title>oneDegreeRelationshipsDiagram</title>
<polygon fill="#ffffff" stroke="transparent" points="-4,4 -4,-174.7 417,-174.7 417,4 -4,4"/>
<text text-anchor="middle" x="72.4936" y="-7.3" font-family="Helvetica,sans-Serif" font-size="11.00" fill="#000000">Generated by SchemaSpy</text>
<!-- policy_config -->
<g id="node1" class="node">
<title>policy_config</title>
<g id="a_node1"><a xlink:href="../../tables/policy_config.html" xlink:title="policy_config" target="_top">
<polygon fill="#ffffff" stroke="transparent" points="213,-54.7 213,-166.7 405,-166.7 405,-54.7 213,-54.7"/>
<polygon fill="#f5f5f5" stroke="transparent" points="215,-141.7 215,-164.7 403,-164.7 403,-141.7 215,-141.7"/>
<polygon fill="none" stroke="#000000" points="215,-141.7 215,-164.7 403,-164.7 403,-141.7 215,-141.7"/>
<text text-anchor="start" x="220" y="-150.8" font-family="Helvetica,sans-Serif" font-weight="bold" font-size="11.00" fill="#000000">policy_config</text>
<text text-anchor="start" x="368.0437" y="-149.8" font-family="Helvetica,sans-Serif" font-size="11.00" fill="#000000">[table]</text>
<polygon fill="none" stroke="#000000" points="215,-119.7 215,-141.7 313,-141.7 313,-119.7 215,-119.7"/>
<image xlink:href="../../images/primaryKeys.png" width="11px" height="12px" preserveAspectRatio="xMinYMin meet" x="220" y="-136.7"/>
<text text-anchor="start" x="235" y="-126.8" font-family="Helvetica,sans-Serif" font-size="11.00" fill="#000000">policy_id</text>
<polygon fill="none" stroke="#000000" points="313,-119.7 313,-141.7 403,-141.7 403,-119.7 313,-119.7"/>
<text text-anchor="start" x="316" y="-127.4" font-family="Helvetica,sans-Serif" font-size="11.00" fill="#000000">varchar[36]</text>
<polygon fill="none" stroke="#000000" points="215,-97.7 215,-119.7 313,-119.7 313,-97.7 215,-97.7"/>
<image xlink:href="../../images/primaryKeys.png" width="11px" height="12px" preserveAspectRatio="xMinYMin meet" x="220" y="-114.7"/>
<text text-anchor="start" x="235" y="-104.8" font-family="Helvetica,sans-Serif" font-size="11.00" fill="#000000">name</text>
<polygon fill="none" stroke="#000000" points="313,-97.7 313,-119.7 403,-119.7 403,-97.7 313,-97.7"/>
<text text-anchor="start" x="316" y="-105.4" font-family="Helvetica,sans-Serif" font-size="11.00" fill="#000000">varchar[255]</text>
<polygon fill="none" stroke="#000000" points="215,-75.7 215,-97.7 313,-97.7 313,-75.7 215,-75.7"/>
<text text-anchor="start" x="235" y="-82.8" font-family="Helvetica,sans-Serif" font-size="11.00" fill="#000000">value</text>
<polygon fill="none" stroke="#000000" points="313,-75.7 313,-97.7 403,-97.7 403,-75.7 313,-75.7"/>
<text text-anchor="start" x="315.5043" y="-83.4" font-family="Helvetica,sans-Serif" font-size="11.00" fill="#000000">text[2147483647]</text>
<polygon fill="#ffffff" stroke="transparent" points="215,-56.7 215,-75.7 255,-75.7 255,-56.7 215,-56.7"/>
<polygon fill="none" stroke="#000000" points="215,-56.7 215,-75.7 255,-75.7 255,-56.7 215,-56.7"/>
<text text-anchor="start" x="218" y="-62.8" font-family="Helvetica,sans-Serif" font-size="11.00" fill="#000000">&lt; 1</text>
<polygon fill="#ffffff" stroke="transparent" points="255,-56.7 255,-75.7 313,-75.7 313,-56.7 255,-56.7"/>
<polygon fill="none" stroke="#000000" points="255,-56.7 255,-75.7 313,-75.7 313,-56.7 255,-56.7"/>
<text text-anchor="start" x="277.6105" y="-62.8" font-family="Helvetica,sans-Serif" font-size="11.00" fill="#000000">0 rows</text>
<polygon fill="#ffffff" stroke="transparent" points="313,-56.7 313,-75.7 403,-75.7 403,-56.7 313,-56.7"/>
<polygon fill="none" stroke="#000000" points="313,-56.7 313,-75.7 403,-75.7 403,-56.7 313,-56.7"/>
<text text-anchor="start" x="384.4053" y="-62.8" font-family="Helvetica,sans-Serif" font-size="11.00" fill="#000000">0 &gt;</text>
<polygon fill="none" stroke="#000000" stroke-width="2" points="214,-55.7 214,-165.7 404,-165.7 404,-55.7 214,-55.7"/>
</a>
</g>
</g>
<!-- resource_server_policy -->
<g id="node2" class="node">
<title>resource_server_policy</title>
<g id="a_node2"><a xlink:href="../../tables/resource_server_policy.html" xlink:title="resource_server_policy" target="_top">
<polygon fill="#ffffff" stroke="transparent" points="8,-38.2 8,-165.2 164,-165.2 164,-38.2 8,-38.2"/>
<polygon fill="#f5f5f5" stroke="transparent" points="8,-141.7 8,-164.7 164,-164.7 164,-141.7 8,-141.7"/>
<polygon fill="none" stroke="#000000" points="8,-141.7 8,-164.7 164,-164.7 164,-141.7 8,-141.7"/>
<text text-anchor="start" x="12.6608" y="-150.8" font-family="Helvetica,sans-Serif" font-weight="bold" font-size="11.00" fill="#000000">resource_server_policy</text>
<text text-anchor="start" x="129.5219" y="-149.8" font-family="Helvetica,sans-Serif" font-size="11.00" fill="#000000">[table]</text>
<polygon fill="none" stroke="#000000" points="8,-119.7 8,-141.7 164,-141.7 164,-119.7 8,-119.7"/>
<image xlink:href="../../images/primaryKeys.png" width="11px" height="12px" preserveAspectRatio="xMinYMin meet" x="13" y="-136.7"/>
<text text-anchor="start" x="29" y="-126.8" font-family="Helvetica,sans-Serif" font-size="11.00" fill="#000000">id</text>
<polygon fill="#ffffff" stroke="transparent" points="8,-97.7 8,-119.7 164,-119.7 164,-97.7 8,-97.7"/>
<polygon fill="none" stroke="#000000" points="8,-97.7 8,-119.7 164,-119.7 164,-97.7 8,-97.7"/>
<text text-anchor="start" x="29" y="-104.8" font-family="Helvetica,sans-Serif" font-size="11.00" fill="#000000">name</text>
<polygon fill="#ffffff" stroke="transparent" points="8,-75.7 8,-97.7 164,-97.7 164,-75.7 8,-75.7"/>
<polygon fill="none" stroke="#000000" points="8,-75.7 8,-97.7 164,-97.7 164,-75.7 8,-75.7"/>
<image xlink:href="../../images/foreignKeys.png" width="11px" height="12px" preserveAspectRatio="xMinYMin meet" x="13" y="-92.7"/>
<text text-anchor="start" x="29" y="-82.8" font-family="Helvetica,sans-Serif" font-size="11.00" fill="#000000">resource_server_id</text>
<polygon fill="none" stroke="#000000" points="8,-56.7 8,-75.7 164,-75.7 164,-56.7 8,-56.7"/>
<text text-anchor="start" x="11" y="-62.8" font-family="Helvetica,sans-Serif" font-size="11.00" fill="#000000">...</text>
<polygon fill="#ffffff" stroke="transparent" points="8,-37.7 8,-56.7 67,-56.7 67,-37.7 8,-37.7"/>
<polygon fill="none" stroke="#000000" points="8,-37.7 8,-56.7 67,-56.7 67,-37.7 8,-37.7"/>
<text text-anchor="start" x="11" y="-43.8" font-family="Helvetica,sans-Serif" font-size="11.00" fill="#000000">&lt; 1</text>
<polygon fill="#ffffff" stroke="transparent" points="67,-37.7 67,-56.7 124,-56.7 124,-37.7 67,-37.7"/>
<polygon fill="none" stroke="#000000" points="67,-37.7 67,-56.7 124,-56.7 124,-37.7 67,-37.7"/>
<text text-anchor="start" x="88.6105" y="-43.8" font-family="Helvetica,sans-Serif" font-size="11.00" fill="#000000">0 rows</text>
<polygon fill="#ffffff" stroke="transparent" points="124,-37.7 124,-56.7 164,-56.7 164,-37.7 124,-37.7"/>
<polygon fill="none" stroke="#000000" points="124,-37.7 124,-56.7 164,-56.7 164,-37.7 124,-37.7"/>
<text text-anchor="start" x="145.4053" y="-43.8" font-family="Helvetica,sans-Serif" font-size="11.00" fill="#000000">6 &gt;</text>
</a>
</g>
</g>
<!-- policy_config&#45;&gt;resource_server_policy -->
<g id="edge1" class="edge">
<title>policy_config:w&#45;&gt;resource_server_policy:e</title>
<path fill="none" stroke="#000000" d="M200.276,-130.7C188.2815,-130.7 180.8229,-130.7 164,-130.7"/>
<polygon fill="#000000" stroke="#000000" points="207,-130.7001 215,-134.3 211,-130.7 215,-130.7 215,-130.7 215,-130.7 211,-130.7 215,-127.1 207,-130.7001 207,-130.7001"/>
<ellipse fill="none" stroke="#000000" cx="203.8" cy="-130.7001" rx="3.2" ry="3.2"/>
</g>
</g>
</svg>
