<?xml version="1.0" encoding="UTF-8" standalone="no"?>
<!DOCTYPE svg PUBLIC "-//W3C//DTD SVG 1.1//EN"
 "http://www.w3.org/Graphics/SVG/1.1/DTD/svg11.dtd">
<!-- Generated by graphviz version 2.40.1 (20161225.0304)
 -->
<!-- Title: twoDegreesRelationshipsDiagram Pages: 1 -->
<svg width="592pt" height="491pt"
 viewBox="0.00 0.00 592.00 491.20" xmlns="http://www.w3.org/2000/svg" xmlns:xlink="http://www.w3.org/1999/xlink">
<g id="graph0" class="graph" transform="scale(1 1) rotate(0) translate(4 487.2)">
<title>twoDegreesRelationshipsDiagram</title>
<polygon fill="#ffffff" stroke="transparent" points="-4,4 -4,-487.2 588,-487.2 588,4 -4,4"/>
<text text-anchor="middle" x="72.4936" y="-7.3" font-family="Helvetica,sans-Serif" font-size="11.00" fill="#000000">Generated by SchemaSpy</text>
<!-- associated_policy -->
<g id="node1" class="node">
<title>associated_policy</title>
<g id="a_node1"><a xlink:href="../../tables/associated_policy.html" xlink:title="associated_policy" target="_top">
<polygon fill="#ffffff" stroke="transparent" points="415.5,-418.2 415.5,-479.2 544.5,-479.2 544.5,-418.2 415.5,-418.2"/>
<polygon fill="#f5f5f5" stroke="transparent" points="416,-455.7 416,-478.7 545,-478.7 545,-455.7 416,-455.7"/>
<polygon fill="none" stroke="#000000" points="416,-455.7 416,-478.7 545,-478.7 545,-455.7 416,-455.7"/>
<text text-anchor="start" x="420.6006" y="-464.8" font-family="Helvetica,sans-Serif" font-weight="bold" font-size="11.00" fill="#000000">associated_policy</text>
<text text-anchor="start" x="510.5219" y="-463.8" font-family="Helvetica,sans-Serif" font-size="11.00" fill="#000000">[table]</text>
<polygon fill="none" stroke="#000000" points="416,-436.7 416,-455.7 545,-455.7 545,-436.7 416,-436.7"/>
<text text-anchor="start" x="419" y="-442.8" font-family="Helvetica,sans-Serif" font-size="11.00" fill="#000000">...</text>
<polygon fill="#ffffff" stroke="transparent" points="416,-417.7 416,-436.7 466,-436.7 466,-417.7 416,-417.7"/>
<polygon fill="none" stroke="#000000" points="416,-417.7 416,-436.7 466,-436.7 466,-417.7 416,-417.7"/>
<text text-anchor="start" x="419" y="-423.8" font-family="Helvetica,sans-Serif" font-size="11.00" fill="#000000">&lt; 2</text>
<polygon fill="#ffffff" stroke="transparent" points="466,-417.7 466,-436.7 518,-436.7 518,-417.7 466,-417.7"/>
<polygon fill="none" stroke="#000000" points="466,-417.7 466,-436.7 518,-436.7 518,-417.7 466,-417.7"/>
<text text-anchor="start" x="482.6105" y="-423.8" font-family="Helvetica,sans-Serif" font-size="11.00" fill="#000000">0 rows</text>
<polygon fill="#ffffff" stroke="transparent" points="518,-417.7 518,-436.7 545,-436.7 545,-417.7 518,-417.7"/>
<polygon fill="none" stroke="#000000" points="518,-417.7 518,-436.7 545,-436.7 545,-417.7 518,-417.7"/>
<text text-anchor="start" x="535.8862" y="-423.8" font-family="Helvetica,sans-Serif" font-size="11.00" fill="#000000"> &#160;</text>
</a>
</g>
</g>
<!-- resource_server_policy -->
<g id="node2" class="node">
<title>resource_server_policy</title>
<g id="a_node2"><a xlink:href="../../tables/resource_server_policy.html" xlink:title="resource_server_policy" target="_top">
<polygon fill="#ffffff" stroke="transparent" points="179,-137.2 179,-264.2 335,-264.2 335,-137.2 179,-137.2"/>
<polygon fill="#f5f5f5" stroke="transparent" points="179,-240.7 179,-263.7 335,-263.7 335,-240.7 179,-240.7"/>
<polygon fill="none" stroke="#000000" points="179,-240.7 179,-263.7 335,-263.7 335,-240.7 179,-240.7"/>
<text text-anchor="start" x="183.6608" y="-249.8" font-family="Helvetica,sans-Serif" font-weight="bold" font-size="11.00" fill="#000000">resource_server_policy</text>
<text text-anchor="start" x="300.5219" y="-248.8" font-family="Helvetica,sans-Serif" font-size="11.00" fill="#000000">[table]</text>
<polygon fill="none" stroke="#000000" points="179,-218.7 179,-240.7 335,-240.7 335,-218.7 179,-218.7"/>
<image xlink:href="../../images/primaryKeys.png" width="11px" height="12px" preserveAspectRatio="xMinYMin meet" x="184" y="-235.7"/>
<text text-anchor="start" x="200" y="-225.8" font-family="Helvetica,sans-Serif" font-size="11.00" fill="#000000">id</text>
<polygon fill="#ffffff" stroke="transparent" points="179,-196.7 179,-218.7 335,-218.7 335,-196.7 179,-196.7"/>
<polygon fill="none" stroke="#000000" points="179,-196.7 179,-218.7 335,-218.7 335,-196.7 179,-196.7"/>
<text text-anchor="start" x="200" y="-203.8" font-family="Helvetica,sans-Serif" font-size="11.00" fill="#000000">name</text>
<polygon fill="#ffffff" stroke="transparent" points="179,-174.7 179,-196.7 335,-196.7 335,-174.7 179,-174.7"/>
<polygon fill="none" stroke="#000000" points="179,-174.7 179,-196.7 335,-196.7 335,-174.7 179,-174.7"/>
<image xlink:href="../../images/foreignKeys.png" width="11px" height="12px" preserveAspectRatio="xMinYMin meet" x="184" y="-191.7"/>
<text text-anchor="start" x="200" y="-181.8" font-family="Helvetica,sans-Serif" font-size="11.00" fill="#000000">resource_server_id</text>
<polygon fill="none" stroke="#000000" points="179,-155.7 179,-174.7 335,-174.7 335,-155.7 179,-155.7"/>
<text text-anchor="start" x="182" y="-161.8" font-family="Helvetica,sans-Serif" font-size="11.00" fill="#000000">...</text>
<polygon fill="#ffffff" stroke="transparent" points="179,-136.7 179,-155.7 238,-155.7 238,-136.7 179,-136.7"/>
<polygon fill="none" stroke="#000000" points="179,-136.7 179,-155.7 238,-155.7 238,-136.7 179,-136.7"/>
<text text-anchor="start" x="182" y="-142.8" font-family="Helvetica,sans-Serif" font-size="11.00" fill="#000000">&lt; 1</text>
<polygon fill="#ffffff" stroke="transparent" points="238,-136.7 238,-155.7 295,-155.7 295,-136.7 238,-136.7"/>
<polygon fill="none" stroke="#000000" points="238,-136.7 238,-155.7 295,-155.7 295,-136.7 238,-136.7"/>
<text text-anchor="start" x="259.6105" y="-142.8" font-family="Helvetica,sans-Serif" font-size="11.00" fill="#000000">0 rows</text>
<polygon fill="#ffffff" stroke="transparent" points="295,-136.7 295,-155.7 335,-155.7 335,-136.7 295,-136.7"/>
<polygon fill="none" stroke="#000000" points="295,-136.7 295,-155.7 335,-155.7 335,-136.7 295,-136.7"/>
<text text-anchor="start" x="316.4053" y="-142.8" font-family="Helvetica,sans-Serif" font-size="11.00" fill="#000000">6 &gt;</text>
</a>
</g>
</g>
<!-- associated_policy&#45;&gt;resource_server_policy -->
<g id="edge1" class="edge">
<title>associated_policy:w&#45;&gt;resource_server_policy:e</title>
<path fill="none" stroke="#000000" d="M402.6368,-440.2898C389.6027,-432.1721 385.4973,-418.3372 376,-401.7 335.7528,-331.1962 416.1826,-223.7 335,-229.7"/>
<polygon fill="#000000" stroke="#000000" points="408.5847,-442.6978 414.649,-449.0369 412.2923,-444.1989 416,-445.7 416,-445.7 416,-445.7 412.2923,-444.1989 417.351,-442.3631 408.5847,-442.6978 408.5847,-442.6978"/>
<ellipse fill="none" stroke="#000000" cx="405.6185" cy="-441.4969" rx="3.2" ry="3.2"/>
</g>
<!-- associated_policy&#45;&gt;resource_server_policy -->
<g id="edge2" class="edge">
<title>associated_policy:w&#45;&gt;resource_server_policy:e</title>
<path fill="none" stroke="#000000" d="M401.4875,-446.8863C389.3515,-444.3395 385.2124,-430.838 376,-414.7 335.7528,-344.1962 416.1826,-236.7 335,-229.7"/>
<polygon fill="#000000" stroke="#000000" points="408.0266,-446.3518 416.2933,-449.288 412.0133,-446.0259 416,-445.7 416,-445.7 416,-445.7 412.0133,-446.0259 415.7067,-442.112 408.0266,-446.3518 408.0266,-446.3518"/>
<ellipse fill="none" stroke="#000000" cx="404.8372" cy="-446.6126" rx="3.2" ry="3.2"/>
</g>
<!-- resource_server -->
<g id="node6" class="node">
<title>resource_server</title>
<g id="a_node6"><a xlink:href="../../tables/resource_server.html" xlink:title="resource_server" target="_top">
<polygon fill="#ffffff" stroke="transparent" points="8,-98.2 8,-159.2 130,-159.2 130,-98.2 8,-98.2"/>
<polygon fill="#f5f5f5" stroke="transparent" points="8,-135.7 8,-158.7 130,-158.7 130,-135.7 8,-135.7"/>
<polygon fill="none" stroke="#000000" points="8,-135.7 8,-158.7 130,-158.7 130,-135.7 8,-135.7"/>
<text text-anchor="start" x="12.7741" y="-144.8" font-family="Helvetica,sans-Serif" font-weight="bold" font-size="11.00" fill="#000000">resource_server</text>
<text text-anchor="start" x="95.5219" y="-143.8" font-family="Helvetica,sans-Serif" font-size="11.00" fill="#000000">[table]</text>
<polygon fill="none" stroke="#000000" points="8,-116.7 8,-135.7 130,-135.7 130,-116.7 8,-116.7"/>
<text text-anchor="start" x="11" y="-122.8" font-family="Helvetica,sans-Serif" font-size="11.00" fill="#000000">...</text>
<polygon fill="#ffffff" stroke="transparent" points="8,-97.7 8,-116.7 45,-116.7 45,-97.7 8,-97.7"/>
<polygon fill="none" stroke="#000000" points="8,-97.7 8,-116.7 45,-116.7 45,-97.7 8,-97.7"/>
<text text-anchor="start" x="11" y="-103.8" font-family="Helvetica,sans-Serif" font-size="11.00" fill="#000000"> &#160;</text>
<polygon fill="#ffffff" stroke="transparent" points="45,-97.7 45,-116.7 96,-116.7 96,-97.7 45,-97.7"/>
<polygon fill="none" stroke="#000000" points="45,-97.7 45,-116.7 96,-116.7 96,-97.7 45,-97.7"/>
<text text-anchor="start" x="60.6105" y="-103.8" font-family="Helvetica,sans-Serif" font-size="11.00" fill="#000000">0 rows</text>
<polygon fill="#ffffff" stroke="transparent" points="96,-97.7 96,-116.7 130,-116.7 130,-97.7 96,-97.7"/>
<polygon fill="none" stroke="#000000" points="96,-97.7 96,-116.7 130,-116.7 130,-97.7 96,-97.7"/>
<text text-anchor="start" x="111.4053" y="-103.8" font-family="Helvetica,sans-Serif" font-size="11.00" fill="#000000">4 &gt;</text>
</a>
</g>
</g>
<!-- resource_server_policy&#45;&gt;resource_server -->
<g id="edge7" class="edge">
<title>resource_server_policy:w&#45;&gt;resource_server:e</title>
<path fill="none" stroke="#000000" d="M165.069,-180.5844C149.9545,-166.0748 158.2429,-125.7 130,-125.7"/>
<polygon fill="#000000" stroke="#000000" points="171.4903,-182.9424 177.7591,-189.0794 175.2451,-184.3212 179,-185.7 179,-185.7 179,-185.7 175.2451,-184.3212 180.2409,-182.3206 171.4903,-182.9424 171.4903,-182.9424"/>
<ellipse fill="none" stroke="#000000" cx="168.4864" cy="-181.8393" rx="3.2" ry="3.2"/>
</g>
<!-- policy_config -->
<g id="node3" class="node">
<title>policy_config</title>
<g id="a_node3"><a xlink:href="../../tables/policy_config.html" xlink:title="policy_config" target="_top">
<polygon fill="#ffffff" stroke="transparent" points="384,-284.7 384,-396.7 576,-396.7 576,-284.7 384,-284.7"/>
<polygon fill="#f5f5f5" stroke="transparent" points="386,-371.7 386,-394.7 574,-394.7 574,-371.7 386,-371.7"/>
<polygon fill="none" stroke="#000000" points="386,-371.7 386,-394.7 574,-394.7 574,-371.7 386,-371.7"/>
<text text-anchor="start" x="391" y="-380.8" font-family="Helvetica,sans-Serif" font-weight="bold" font-size="11.00" fill="#000000">policy_config</text>
<text text-anchor="start" x="539.0437" y="-379.8" font-family="Helvetica,sans-Serif" font-size="11.00" fill="#000000">[table]</text>
<polygon fill="none" stroke="#000000" points="386,-349.7 386,-371.7 484,-371.7 484,-349.7 386,-349.7"/>
<image xlink:href="../../images/primaryKeys.png" width="11px" height="12px" preserveAspectRatio="xMinYMin meet" x="391" y="-366.7"/>
<text text-anchor="start" x="406" y="-356.8" font-family="Helvetica,sans-Serif" font-size="11.00" fill="#000000">policy_id</text>
<polygon fill="none" stroke="#000000" points="484,-349.7 484,-371.7 574,-371.7 574,-349.7 484,-349.7"/>
<text text-anchor="start" x="487" y="-357.4" font-family="Helvetica,sans-Serif" font-size="11.00" fill="#000000">varchar[36]</text>
<polygon fill="none" stroke="#000000" points="386,-327.7 386,-349.7 484,-349.7 484,-327.7 386,-327.7"/>
<image xlink:href="../../images/primaryKeys.png" width="11px" height="12px" preserveAspectRatio="xMinYMin meet" x="391" y="-344.7"/>
<text text-anchor="start" x="406" y="-334.8" font-family="Helvetica,sans-Serif" font-size="11.00" fill="#000000">name</text>
<polygon fill="none" stroke="#000000" points="484,-327.7 484,-349.7 574,-349.7 574,-327.7 484,-327.7"/>
<text text-anchor="start" x="487" y="-335.4" font-family="Helvetica,sans-Serif" font-size="11.00" fill="#000000">varchar[255]</text>
<polygon fill="none" stroke="#000000" points="386,-305.7 386,-327.7 484,-327.7 484,-305.7 386,-305.7"/>
<text text-anchor="start" x="406" y="-312.8" font-family="Helvetica,sans-Serif" font-size="11.00" fill="#000000">value</text>
<polygon fill="none" stroke="#000000" points="484,-305.7 484,-327.7 574,-327.7 574,-305.7 484,-305.7"/>
<text text-anchor="start" x="486.5043" y="-313.4" font-family="Helvetica,sans-Serif" font-size="11.00" fill="#000000">text[2147483647]</text>
<polygon fill="#ffffff" stroke="transparent" points="386,-286.7 386,-305.7 426,-305.7 426,-286.7 386,-286.7"/>
<polygon fill="none" stroke="#000000" points="386,-286.7 386,-305.7 426,-305.7 426,-286.7 386,-286.7"/>
<text text-anchor="start" x="389" y="-292.8" font-family="Helvetica,sans-Serif" font-size="11.00" fill="#000000">&lt; 1</text>
<polygon fill="#ffffff" stroke="transparent" points="426,-286.7 426,-305.7 484,-305.7 484,-286.7 426,-286.7"/>
<polygon fill="none" stroke="#000000" points="426,-286.7 426,-305.7 484,-305.7 484,-286.7 426,-286.7"/>
<text text-anchor="start" x="448.6105" y="-292.8" font-family="Helvetica,sans-Serif" font-size="11.00" fill="#000000">0 rows</text>
<polygon fill="#ffffff" stroke="transparent" points="484,-286.7 484,-305.7 574,-305.7 574,-286.7 484,-286.7"/>
<polygon fill="none" stroke="#000000" points="484,-286.7 484,-305.7 574,-305.7 574,-286.7 484,-286.7"/>
<text text-anchor="start" x="555.4053" y="-292.8" font-family="Helvetica,sans-Serif" font-size="11.00" fill="#000000">0 &gt;</text>
<polygon fill="none" stroke="#000000" stroke-width="2" points="385,-285.7 385,-395.7 575,-395.7 575,-285.7 385,-285.7"/>
</a>
</g>
</g>
<!-- policy_config&#45;&gt;resource_server_policy -->
<g id="edge3" class="edge">
<title>policy_config:w&#45;&gt;resource_server_policy:e</title>
<path fill="none" stroke="#000000" d="M371.8004,-357.4618C336.1891,-337.2889 391.6214,-229.7 335,-229.7"/>
<polygon fill="#000000" stroke="#000000" points="378.2002,-358.9212 385.1995,-364.2099 382.1001,-359.8106 386,-360.7 386,-360.7 386,-360.7 382.1001,-359.8106 386.8005,-357.1901 378.2002,-358.9212 378.2002,-358.9212"/>
<ellipse fill="none" stroke="#000000" cx="375.0803" cy="-358.2097" rx="3.2" ry="3.2"/>
</g>
<!-- resource_policy -->
<g id="node4" class="node">
<title>resource_policy</title>
<g id="a_node4"><a xlink:href="../../tables/resource_policy.html" xlink:title="resource_policy" target="_top">
<polygon fill="#ffffff" stroke="transparent" points="420,-202.2 420,-263.2 540,-263.2 540,-202.2 420,-202.2"/>
<polygon fill="#f5f5f5" stroke="transparent" points="420,-239.7 420,-262.7 540,-262.7 540,-239.7 420,-239.7"/>
<polygon fill="none" stroke="#000000" points="420,-239.7 420,-262.7 540,-262.7 540,-239.7 420,-239.7"/>
<text text-anchor="start" x="424.9951" y="-248.8" font-family="Helvetica,sans-Serif" font-weight="bold" font-size="11.00" fill="#000000">resource_policy</text>
<text text-anchor="start" x="505.5219" y="-247.8" font-family="Helvetica,sans-Serif" font-size="11.00" fill="#000000">[table]</text>
<polygon fill="none" stroke="#000000" points="420,-220.7 420,-239.7 540,-239.7 540,-220.7 420,-220.7"/>
<text text-anchor="start" x="423" y="-226.8" font-family="Helvetica,sans-Serif" font-size="11.00" fill="#000000">...</text>
<polygon fill="#ffffff" stroke="transparent" points="420,-201.7 420,-220.7 465,-220.7 465,-201.7 420,-201.7"/>
<polygon fill="none" stroke="#000000" points="420,-201.7 420,-220.7 465,-220.7 465,-201.7 420,-201.7"/>
<text text-anchor="start" x="423" y="-207.8" font-family="Helvetica,sans-Serif" font-size="11.00" fill="#000000">&lt; 2</text>
<polygon fill="#ffffff" stroke="transparent" points="465,-201.7 465,-220.7 515,-220.7 515,-201.7 465,-201.7"/>
<polygon fill="none" stroke="#000000" points="465,-201.7 465,-220.7 515,-220.7 515,-201.7 465,-201.7"/>
<text text-anchor="start" x="479.6105" y="-207.8" font-family="Helvetica,sans-Serif" font-size="11.00" fill="#000000">0 rows</text>
<polygon fill="#ffffff" stroke="transparent" points="515,-201.7 515,-220.7 540,-220.7 540,-201.7 515,-201.7"/>
<polygon fill="none" stroke="#000000" points="515,-201.7 515,-220.7 540,-220.7 540,-201.7 515,-201.7"/>
<text text-anchor="start" x="530.8862" y="-207.8" font-family="Helvetica,sans-Serif" font-size="11.00" fill="#000000"> &#160;</text>
</a>
</g>
</g>
<!-- resource_policy&#45;&gt;resource_server_policy -->
<g id="edge4" class="edge">
<title>resource_policy:w&#45;&gt;resource_server_policy:e</title>
<path fill="none" stroke="#000000" d="M405.5858,-229.7C379.0057,-229.7 367.4653,-229.7 335,-229.7"/>
<polygon fill="#000000" stroke="#000000" points="412,-229.7001 420,-233.3 416,-229.7 420,-229.7 420,-229.7 420,-229.7 416,-229.7 420,-226.1 412,-229.7001 412,-229.7001"/>
<ellipse fill="none" stroke="#000000" cx="408.8" cy="-229.7001" rx="3.2" ry="3.2"/>
</g>
<!-- resource_server_perm_ticket -->
<g id="node5" class="node">
<title>resource_server_perm_ticket</title>
<g id="a_node5"><a xlink:href="../../tables/resource_server_perm_ticket.html" xlink:title="resource_server_perm_ticket" target="_top">
<polygon fill="#ffffff" stroke="transparent" points="387.5,-38.2 387.5,-99.2 572.5,-99.2 572.5,-38.2 387.5,-38.2"/>
<polygon fill="#f5f5f5" stroke="transparent" points="388,-75.7 388,-98.7 573,-98.7 573,-75.7 388,-75.7"/>
<polygon fill="none" stroke="#000000" points="388,-75.7 388,-98.7 573,-98.7 573,-75.7 388,-75.7"/>
<text text-anchor="start" x="392.7976" y="-84.8" font-family="Helvetica,sans-Serif" font-weight="bold" font-size="11.00" fill="#000000">resource_server_perm_ticket</text>
<text text-anchor="start" x="538.5219" y="-83.8" font-family="Helvetica,sans-Serif" font-size="11.00" fill="#000000">[table]</text>
<polygon fill="none" stroke="#000000" points="388,-56.7 388,-75.7 573,-75.7 573,-56.7 388,-56.7"/>
<text text-anchor="start" x="391" y="-62.8" font-family="Helvetica,sans-Serif" font-size="11.00" fill="#000000">...</text>
<polygon fill="#ffffff" stroke="transparent" points="388,-37.7 388,-56.7 466,-56.7 466,-37.7 388,-37.7"/>
<polygon fill="none" stroke="#000000" points="388,-37.7 388,-56.7 466,-56.7 466,-37.7 388,-37.7"/>
<text text-anchor="start" x="391" y="-43.8" font-family="Helvetica,sans-Serif" font-size="11.00" fill="#000000">&lt; 4</text>
<polygon fill="#ffffff" stroke="transparent" points="466,-37.7 466,-56.7 532,-56.7 532,-37.7 466,-37.7"/>
<polygon fill="none" stroke="#000000" points="466,-37.7 466,-56.7 532,-56.7 532,-37.7 466,-37.7"/>
<text text-anchor="start" x="496.6105" y="-43.8" font-family="Helvetica,sans-Serif" font-size="11.00" fill="#000000">0 rows</text>
<polygon fill="#ffffff" stroke="transparent" points="532,-37.7 532,-56.7 573,-56.7 573,-37.7 532,-37.7"/>
<polygon fill="none" stroke="#000000" points="532,-37.7 532,-56.7 573,-56.7 573,-37.7 532,-37.7"/>
<text text-anchor="start" x="563.8862" y="-43.8" font-family="Helvetica,sans-Serif" font-size="11.00" fill="#000000"> &#160;</text>
</a>
</g>
</g>
<!-- resource_server_perm_ticket&#45;&gt;resource_server_policy -->
<g id="edge5" class="edge">
<title>resource_server_perm_ticket:w&#45;&gt;resource_server_policy:e</title>
<path fill="none" stroke="#000000" d="M373.7215,-68.276C325.2991,-89.1404 405.9154,-229.7 335,-229.7"/>
<polygon fill="#000000" stroke="#000000" points="380.1271,-67.1204 388.6392,-69.2428 384.0636,-66.4102 388,-65.7 388,-65.7 388,-65.7 384.0636,-66.4102 387.3608,-62.1572 380.1271,-67.1204 380.1271,-67.1204"/>
<ellipse fill="none" stroke="#000000" cx="376.9779" cy="-67.6886" rx="3.2" ry="3.2"/>
</g>
<!-- resource_server_perm_ticket&#45;&gt;resource_server -->
<g id="edge6" class="edge">
<title>resource_server_perm_ticket:w&#45;&gt;resource_server:e</title>
<path fill="none" stroke="#000000" d="M373.3364,-66.0228C268.16,-70.7455 242.668,-125.7 130,-125.7"/>
<polygon fill="#000000" stroke="#000000" points="380.0019,-65.8761 388.0793,-69.2991 384.001,-65.7881 388,-65.7 388,-65.7 388,-65.7 384.001,-65.7881 387.9207,-62.1009 380.0019,-65.8761 380.0019,-65.8761"/>
<ellipse fill="none" stroke="#000000" cx="376.8027" cy="-65.9466" rx="3.2" ry="3.2"/>
</g>
<!-- scope_policy -->
<g id="node7" class="node">
<title>scope_policy</title>
<g id="a_node7"><a xlink:href="../../tables/scope_policy.html" xlink:title="scope_policy" target="_top">
<polygon fill="#ffffff" stroke="transparent" points="427,-120.2 427,-181.2 533,-181.2 533,-120.2 427,-120.2"/>
<polygon fill="#f5f5f5" stroke="transparent" points="427,-157.7 427,-180.7 533,-180.7 533,-157.7 427,-157.7"/>
<polygon fill="none" stroke="#000000" points="427,-157.7 427,-180.7 533,-180.7 533,-157.7 427,-157.7"/>
<text text-anchor="start" x="431.7144" y="-166.8" font-family="Helvetica,sans-Serif" font-weight="bold" font-size="11.00" fill="#000000">scope_policy</text>
<text text-anchor="start" x="498.5219" y="-165.8" font-family="Helvetica,sans-Serif" font-size="11.00" fill="#000000">[table]</text>
<polygon fill="none" stroke="#000000" points="427,-138.7 427,-157.7 533,-157.7 533,-138.7 427,-138.7"/>
<text text-anchor="start" x="430" y="-144.8" font-family="Helvetica,sans-Serif" font-size="11.00" fill="#000000">...</text>
<polygon fill="#ffffff" stroke="transparent" points="427,-119.7 427,-138.7 465,-138.7 465,-119.7 427,-119.7"/>
<polygon fill="none" stroke="#000000" points="427,-119.7 427,-138.7 465,-138.7 465,-119.7 427,-119.7"/>
<text text-anchor="start" x="430" y="-125.8" font-family="Helvetica,sans-Serif" font-size="11.00" fill="#000000">&lt; 2</text>
<polygon fill="#ffffff" stroke="transparent" points="465,-119.7 465,-138.7 512,-138.7 512,-119.7 465,-119.7"/>
<polygon fill="none" stroke="#000000" points="465,-119.7 465,-138.7 512,-138.7 512,-119.7 465,-119.7"/>
<text text-anchor="start" x="476.6105" y="-125.8" font-family="Helvetica,sans-Serif" font-size="11.00" fill="#000000">0 rows</text>
<polygon fill="#ffffff" stroke="transparent" points="512,-119.7 512,-138.7 533,-138.7 533,-119.7 512,-119.7"/>
<polygon fill="none" stroke="#000000" points="512,-119.7 512,-138.7 533,-138.7 533,-119.7 512,-119.7"/>
<text text-anchor="start" x="523.8862" y="-125.8" font-family="Helvetica,sans-Serif" font-size="11.00" fill="#000000"> &#160;</text>
</a>
</g>
</g>
<!-- scope_policy&#45;&gt;resource_server_policy -->
<g id="edge8" class="edge">
<title>scope_policy:w&#45;&gt;resource_server_policy:e</title>
<path fill="none" stroke="#000000" d="M412.6203,-150.242C396.6534,-156.9363 393.9566,-175.6418 376,-191.7 357.4801,-208.2619 359.8452,-229.7 335,-229.7"/>
<polygon fill="#000000" stroke="#000000" points="419.1221,-149.0927 427.6267,-151.245 423.0611,-148.3963 427,-147.7 427,-147.7 427,-147.7 423.0611,-148.3963 426.3733,-144.155 419.1221,-149.0927 419.1221,-149.0927"/>
<ellipse fill="none" stroke="#000000" cx="415.971" cy="-149.6498" rx="3.2" ry="3.2"/>
</g>
</g>
</svg>
