<?xml version="1.0" encoding="UTF-8" standalone="no"?>
<!DOCTYPE svg PUBLIC "-//W3C//DTD SVG 1.1//EN"
 "http://www.w3.org/Graphics/SVG/1.1/DTD/svg11.dtd">
<!-- Generated by graphviz version 2.40.1 (20161225.0304)
 -->
<!-- Title: twoDegreesRelationshipsDiagram Pages: 1 -->
<svg width="826pt" height="1049pt"
 viewBox="0.00 0.00 826.00 1049.20" xmlns="http://www.w3.org/2000/svg" xmlns:xlink="http://www.w3.org/1999/xlink">
<g id="graph0" class="graph" transform="scale(1 1) rotate(0) translate(4 1045.2)">
<title>twoDegreesRelationshipsDiagram</title>
<polygon fill="#ffffff" stroke="transparent" points="-4,4 -4,-1045.2 822,-1045.2 822,4 -4,4"/>
<text text-anchor="middle" x="72.4936" y="-7.3" font-family="Helvetica,sans-Serif" font-size="11.00" fill="#000000">Generated by SchemaSpy</text>
<!-- client -->
<g id="node1" class="node">
<title>client</title>
<g id="a_node1"><a xlink:href="../../tables/client.html" xlink:title="client" target="_top">
<polygon fill="#ffffff" stroke="transparent" points="128,-583.2 128,-710.2 323,-710.2 323,-583.2 128,-583.2"/>
<polygon fill="#f5f5f5" stroke="transparent" points="128.5,-686.7 128.5,-709.7 323.5,-709.7 323.5,-686.7 128.5,-686.7"/>
<polygon fill="none" stroke="#000000" points="128.5,-686.7 128.5,-709.7 323.5,-709.7 323.5,-686.7 128.5,-686.7"/>
<text text-anchor="start" x="133.5" y="-695.8" font-family="Helvetica,sans-Serif" font-weight="bold" font-size="11.00" fill="#000000">client</text>
<text text-anchor="start" x="288.5437" y="-694.8" font-family="Helvetica,sans-Serif" font-size="11.00" fill="#000000">[table]</text>
<polygon fill="none" stroke="#000000" points="128.5,-664.7 128.5,-686.7 323.5,-686.7 323.5,-664.7 128.5,-664.7"/>
<image xlink:href="../../images/primaryKeys.png" width="11px" height="12px" preserveAspectRatio="xMinYMin meet" x="133.5" y="-681.7"/>
<text text-anchor="start" x="148.5" y="-671.8" font-family="Helvetica,sans-Serif" font-size="11.00" fill="#000000">id</text>
<polygon fill="#ffffff" stroke="transparent" points="128.5,-642.7 128.5,-664.7 323.5,-664.7 323.5,-642.7 128.5,-642.7"/>
<polygon fill="none" stroke="#000000" points="128.5,-642.7 128.5,-664.7 323.5,-664.7 323.5,-642.7 128.5,-642.7"/>
<image xlink:href="../../images/foreignKeys.png" width="11px" height="12px" preserveAspectRatio="xMinYMin meet" x="133.5" y="-659.7"/>
<text text-anchor="start" x="148.5" y="-649.8" font-family="Helvetica,sans-Serif" font-size="11.00" fill="#000000">client_id</text>
<polygon fill="#ffffff" stroke="transparent" points="128.5,-620.7 128.5,-642.7 323.5,-642.7 323.5,-620.7 128.5,-620.7"/>
<polygon fill="none" stroke="#000000" points="128.5,-620.7 128.5,-642.7 323.5,-642.7 323.5,-620.7 128.5,-620.7"/>
<image xlink:href="../../images/foreignKeys.png" width="11px" height="12px" preserveAspectRatio="xMinYMin meet" x="133.5" y="-637.7"/>
<text text-anchor="start" x="148.5" y="-627.8" font-family="Helvetica,sans-Serif" font-size="11.00" fill="#000000">realm_id</text>
<polygon fill="none" stroke="#000000" points="128.5,-601.7 128.5,-620.7 323.5,-620.7 323.5,-601.7 128.5,-601.7"/>
<text text-anchor="start" x="131.5" y="-607.8" font-family="Helvetica,sans-Serif" font-size="11.00" fill="#000000">...</text>
<polygon fill="#ffffff" stroke="transparent" points="128.5,-582.7 128.5,-601.7 206.5,-601.7 206.5,-582.7 128.5,-582.7"/>
<polygon fill="none" stroke="#000000" points="128.5,-582.7 128.5,-601.7 206.5,-601.7 206.5,-582.7 128.5,-582.7"/>
<text text-anchor="start" x="131.5" y="-588.8" font-family="Helvetica,sans-Serif" font-size="11.00" fill="#000000">&lt; 1</text>
<polygon fill="#ffffff" stroke="transparent" points="206.5,-582.7 206.5,-601.7 273.5,-601.7 273.5,-582.7 206.5,-582.7"/>
<polygon fill="none" stroke="#000000" points="206.5,-582.7 206.5,-601.7 273.5,-601.7 273.5,-582.7 206.5,-582.7"/>
<text text-anchor="start" x="238.1105" y="-588.8" font-family="Helvetica,sans-Serif" font-size="11.00" fill="#000000">6 rows</text>
<polygon fill="#ffffff" stroke="transparent" points="273.5,-582.7 273.5,-601.7 323.5,-601.7 323.5,-582.7 273.5,-582.7"/>
<polygon fill="none" stroke="#000000" points="273.5,-582.7 273.5,-601.7 323.5,-601.7 323.5,-582.7 273.5,-582.7"/>
<text text-anchor="start" x="304.9053" y="-588.8" font-family="Helvetica,sans-Serif" font-size="11.00" fill="#000000">8 &gt;</text>
</a>
</g>
</g>
<!-- realm -->
<g id="node2" class="node">
<title>realm</title>
<g id="a_node2"><a xlink:href="../../tables/realm.html" xlink:title="realm" target="_top">
<polygon fill="#ffffff" stroke="transparent" points="8,-158.2 8,-219.2 79,-219.2 79,-158.2 8,-158.2"/>
<polygon fill="#f5f5f5" stroke="transparent" points="8.5,-195.7 8.5,-218.7 79.5,-218.7 79.5,-195.7 8.5,-195.7"/>
<polygon fill="none" stroke="#000000" points="8.5,-195.7 8.5,-218.7 79.5,-218.7 79.5,-195.7 8.5,-195.7"/>
<text text-anchor="start" x="13.5" y="-204.8" font-family="Helvetica,sans-Serif" font-weight="bold" font-size="11.00" fill="#000000">realm</text>
<text text-anchor="start" x="45.0219" y="-203.8" font-family="Helvetica,sans-Serif" font-size="11.00" fill="#000000">[table]</text>
<polygon fill="none" stroke="#000000" points="8.5,-176.7 8.5,-195.7 79.5,-195.7 79.5,-176.7 8.5,-176.7"/>
<text text-anchor="start" x="11.5" y="-182.8" font-family="Helvetica,sans-Serif" font-size="11.00" fill="#000000">...</text>
<polygon fill="#ffffff" stroke="transparent" points="8.5,-157.7 8.5,-176.7 20.5,-176.7 20.5,-157.7 8.5,-157.7"/>
<polygon fill="none" stroke="#000000" points="8.5,-157.7 8.5,-176.7 20.5,-176.7 20.5,-157.7 8.5,-157.7"/>
<text text-anchor="start" x="11.4431" y="-163.8" font-family="Helvetica,sans-Serif" font-size="11.00" fill="#000000"> &#160;</text>
<polygon fill="#ffffff" stroke="transparent" points="20.5,-157.7 20.5,-176.7 52.5,-176.7 52.5,-157.7 20.5,-157.7"/>
<polygon fill="none" stroke="#000000" points="20.5,-157.7 20.5,-176.7 52.5,-176.7 52.5,-157.7 20.5,-157.7"/>
<text text-anchor="start" x="23.0553" y="-163.8" font-family="Helvetica,sans-Serif" font-size="11.00" fill="#000000">1 row</text>
<polygon fill="#ffffff" stroke="transparent" points="52.5,-157.7 52.5,-176.7 79.5,-176.7 79.5,-157.7 52.5,-157.7"/>
<polygon fill="none" stroke="#000000" points="52.5,-157.7 52.5,-176.7 79.5,-176.7 79.5,-157.7 52.5,-157.7"/>
<text text-anchor="start" x="55.1452" y="-163.8" font-family="Helvetica,sans-Serif" font-size="11.00" fill="#000000">23 &gt;</text>
</a>
</g>
</g>
<!-- client&#45;&gt;realm -->
<g id="edge1" class="edge">
<title>client:w&#45;&gt;realm:e</title>
<path fill="none" stroke="#000000" d="M114.3041,-627.8443C44.4961,-584.2526 173.7547,-185.7 79.5,-185.7"/>
<polygon fill="#000000" stroke="#000000" points="120.7797,-629.6031 127.5564,-635.1741 124.6398,-630.6515 128.5,-631.7 128.5,-631.7 128.5,-631.7 124.6398,-630.6515 129.4436,-628.2259 120.7797,-629.6031 120.7797,-629.6031"/>
<ellipse fill="none" stroke="#000000" cx="117.6916" cy="-628.7643" rx="3.2" ry="3.2"/>
</g>
<!-- client_attributes -->
<g id="node3" class="node">
<title>client_attributes</title>
<g id="a_node3"><a xlink:href="../../tables/client_attributes.html" xlink:title="client_attributes" target="_top">
<polygon fill="#ffffff" stroke="transparent" points="426,-730.2 426,-791.2 546,-791.2 546,-730.2 426,-730.2"/>
<polygon fill="#f5f5f5" stroke="transparent" points="426,-767.7 426,-790.7 546,-790.7 546,-767.7 426,-767.7"/>
<polygon fill="none" stroke="#000000" points="426,-767.7 426,-790.7 546,-790.7 546,-767.7 426,-767.7"/>
<text text-anchor="start" x="430.9918" y="-776.8" font-family="Helvetica,sans-Serif" font-weight="bold" font-size="11.00" fill="#000000">client_attributes</text>
<text text-anchor="start" x="511.5219" y="-775.8" font-family="Helvetica,sans-Serif" font-size="11.00" fill="#000000">[table]</text>
<polygon fill="none" stroke="#000000" points="426,-748.7 426,-767.7 546,-767.7 546,-748.7 426,-748.7"/>
<text text-anchor="start" x="429" y="-754.8" font-family="Helvetica,sans-Serif" font-size="11.00" fill="#000000">...</text>
<polygon fill="#ffffff" stroke="transparent" points="426,-729.7 426,-748.7 471,-748.7 471,-729.7 426,-729.7"/>
<polygon fill="none" stroke="#000000" points="426,-729.7 426,-748.7 471,-748.7 471,-729.7 426,-729.7"/>
<text text-anchor="start" x="429" y="-735.8" font-family="Helvetica,sans-Serif" font-size="11.00" fill="#000000">&lt; 1</text>
<polygon fill="#ffffff" stroke="transparent" points="471,-729.7 471,-748.7 521,-748.7 521,-729.7 471,-729.7"/>
<polygon fill="none" stroke="#000000" points="471,-729.7 471,-748.7 521,-748.7 521,-729.7 471,-729.7"/>
<text text-anchor="start" x="485.6105" y="-735.8" font-family="Helvetica,sans-Serif" font-size="11.00" fill="#000000">2 rows</text>
<polygon fill="#ffffff" stroke="transparent" points="521,-729.7 521,-748.7 546,-748.7 546,-729.7 521,-729.7"/>
<polygon fill="none" stroke="#000000" points="521,-729.7 521,-748.7 546,-748.7 546,-729.7 521,-729.7"/>
<text text-anchor="start" x="536.8862" y="-735.8" font-family="Helvetica,sans-Serif" font-size="11.00" fill="#000000"> &#160;</text>
</a>
</g>
</g>
<!-- client_attributes&#45;&gt;client -->
<g id="edge2" class="edge">
<title>client_attributes:w&#45;&gt;client:e</title>
<path fill="none" stroke="#000000" d="M411.5384,-756.225C391.4602,-751.6045 384.6705,-736.702 364,-719.7 343.4731,-702.8161 350.0786,-675.7 323.5,-675.7"/>
<polygon fill="#000000" stroke="#000000" points="418.0413,-756.8882 425.6347,-761.2814 422.0206,-757.2941 426,-757.7 426,-757.7 426,-757.7 422.0206,-757.2941 426.3653,-754.1186 418.0413,-756.8882 418.0413,-756.8882"/>
<ellipse fill="none" stroke="#000000" cx="414.8578" cy="-756.5635" rx="3.2" ry="3.2"/>
</g>
<!-- client_default_roles -->
<g id="node4" class="node">
<title>client_default_roles</title>
<g id="a_node4"><a xlink:href="../../tables/client_default_roles.html" xlink:title="client_default_roles" target="_top">
<polygon fill="#ffffff" stroke="transparent" points="417.5,-648.2 417.5,-709.2 554.5,-709.2 554.5,-648.2 417.5,-648.2"/>
<polygon fill="#f5f5f5" stroke="transparent" points="418,-685.7 418,-708.7 555,-708.7 555,-685.7 418,-685.7"/>
<polygon fill="none" stroke="#000000" points="418,-685.7 418,-708.7 555,-708.7 555,-685.7 418,-685.7"/>
<text text-anchor="start" x="422.6274" y="-694.8" font-family="Helvetica,sans-Serif" font-weight="bold" font-size="11.00" fill="#000000">client_default_roles</text>
<text text-anchor="start" x="520.5219" y="-693.8" font-family="Helvetica,sans-Serif" font-size="11.00" fill="#000000">[table]</text>
<polygon fill="none" stroke="#000000" points="418,-666.7 418,-685.7 555,-685.7 555,-666.7 418,-666.7"/>
<text text-anchor="start" x="421" y="-672.8" font-family="Helvetica,sans-Serif" font-size="11.00" fill="#000000">...</text>
<polygon fill="#ffffff" stroke="transparent" points="418,-647.7 418,-666.7 472,-666.7 472,-647.7 418,-647.7"/>
<polygon fill="none" stroke="#000000" points="418,-647.7 418,-666.7 472,-666.7 472,-647.7 418,-647.7"/>
<text text-anchor="start" x="421" y="-653.8" font-family="Helvetica,sans-Serif" font-size="11.00" fill="#000000">&lt; 1</text>
<polygon fill="#ffffff" stroke="transparent" points="472,-647.7 472,-666.7 526,-666.7 526,-647.7 472,-647.7"/>
<polygon fill="none" stroke="#000000" points="472,-647.7 472,-666.7 526,-666.7 526,-647.7 472,-647.7"/>
<text text-anchor="start" x="490.6105" y="-653.8" font-family="Helvetica,sans-Serif" font-size="11.00" fill="#000000">2 rows</text>
<polygon fill="#ffffff" stroke="transparent" points="526,-647.7 526,-666.7 555,-666.7 555,-647.7 526,-647.7"/>
<polygon fill="none" stroke="#000000" points="526,-647.7 526,-666.7 555,-666.7 555,-647.7 526,-647.7"/>
<text text-anchor="start" x="545.8862" y="-653.8" font-family="Helvetica,sans-Serif" font-size="11.00" fill="#000000"> &#160;</text>
</a>
</g>
</g>
<!-- client_default_roles&#45;&gt;client -->
<g id="edge3" class="edge">
<title>client_default_roles:w&#45;&gt;client:e</title>
<path fill="none" stroke="#000000" d="M403.1932,-675.7C372.7695,-675.7 360.0859,-675.7 323.5,-675.7"/>
<polygon fill="#000000" stroke="#000000" points="410,-675.7001 418,-679.3 414,-675.7 418,-675.7 418,-675.7 418,-675.7 414,-675.7 418,-672.1 410,-675.7001 410,-675.7001"/>
<ellipse fill="none" stroke="#000000" cx="406.8" cy="-675.7001" rx="3.2" ry="3.2"/>
</g>
<!-- client_node_registrations -->
<g id="node5" class="node">
<title>client_node_registrations</title>
<g id="a_node5"><a xlink:href="../../tables/client_node_registrations.html" xlink:title="client_node_registrations" target="_top">
<polygon fill="#ffffff" stroke="transparent" points="403.5,-566.2 403.5,-627.2 568.5,-627.2 568.5,-566.2 403.5,-566.2"/>
<polygon fill="#f5f5f5" stroke="transparent" points="404,-603.7 404,-626.7 569,-626.7 569,-603.7 404,-603.7"/>
<polygon fill="none" stroke="#000000" points="404,-603.7 404,-626.7 569,-626.7 569,-603.7 404,-603.7"/>
<text text-anchor="start" x="408.8741" y="-612.8" font-family="Helvetica,sans-Serif" font-weight="bold" font-size="11.00" fill="#000000">client_node_registrations</text>
<text text-anchor="start" x="534.5219" y="-611.8" font-family="Helvetica,sans-Serif" font-size="11.00" fill="#000000">[table]</text>
<polygon fill="none" stroke="#000000" points="404,-584.7 404,-603.7 569,-603.7 569,-584.7 404,-584.7"/>
<text text-anchor="start" x="407" y="-590.8" font-family="Helvetica,sans-Serif" font-size="11.00" fill="#000000">...</text>
<polygon fill="#ffffff" stroke="transparent" points="404,-565.7 404,-584.7 472,-584.7 472,-565.7 404,-565.7"/>
<polygon fill="none" stroke="#000000" points="404,-565.7 404,-584.7 472,-584.7 472,-565.7 404,-565.7"/>
<text text-anchor="start" x="407" y="-571.8" font-family="Helvetica,sans-Serif" font-size="11.00" fill="#000000">&lt; 1</text>
<polygon fill="#ffffff" stroke="transparent" points="472,-565.7 472,-584.7 533,-584.7 533,-565.7 472,-565.7"/>
<polygon fill="none" stroke="#000000" points="472,-565.7 472,-584.7 533,-584.7 533,-565.7 472,-565.7"/>
<text text-anchor="start" x="497.6105" y="-571.8" font-family="Helvetica,sans-Serif" font-size="11.00" fill="#000000">0 rows</text>
<polygon fill="#ffffff" stroke="transparent" points="533,-565.7 533,-584.7 569,-584.7 569,-565.7 533,-565.7"/>
<polygon fill="none" stroke="#000000" points="533,-565.7 533,-584.7 569,-584.7 569,-565.7 533,-565.7"/>
<text text-anchor="start" x="559.8862" y="-571.8" font-family="Helvetica,sans-Serif" font-size="11.00" fill="#000000"> &#160;</text>
</a>
</g>
</g>
<!-- client_node_registrations&#45;&gt;client -->
<g id="edge4" class="edge">
<title>client_node_registrations:w&#45;&gt;client:e</title>
<path fill="none" stroke="#000000" d="M389.6616,-596.4283C356.7933,-610.6565 368.9851,-675.7 323.5,-675.7"/>
<polygon fill="#000000" stroke="#000000" points="396.141,-595.1954 404.6729,-597.2365 400.0705,-594.4477 404,-593.7 404,-593.7 404,-593.7 400.0705,-594.4477 403.3271,-590.1635 396.141,-595.1954 396.141,-595.1954"/>
<ellipse fill="none" stroke="#000000" cx="392.9974" cy="-595.7936" rx="3.2" ry="3.2"/>
</g>
<!-- client_scope -->
<g id="node6" class="node">
<title>client_scope</title>
<g id="a_node6"><a xlink:href="../../tables/client_scope.html" xlink:title="client_scope" target="_top">
<polygon fill="#ffffff" stroke="transparent" points="173.5,-137.2 173.5,-264.2 277.5,-264.2 277.5,-137.2 173.5,-137.2"/>
<polygon fill="#f5f5f5" stroke="transparent" points="173.5,-240.7 173.5,-263.7 277.5,-263.7 277.5,-240.7 173.5,-240.7"/>
<polygon fill="none" stroke="#000000" points="173.5,-240.7 173.5,-263.7 277.5,-263.7 277.5,-240.7 173.5,-240.7"/>
<text text-anchor="start" x="178.436" y="-249.8" font-family="Helvetica,sans-Serif" font-weight="bold" font-size="11.00" fill="#000000">client_scope</text>
<text text-anchor="start" x="243.0219" y="-248.8" font-family="Helvetica,sans-Serif" font-size="11.00" fill="#000000">[table]</text>
<polygon fill="none" stroke="#000000" points="173.5,-218.7 173.5,-240.7 277.5,-240.7 277.5,-218.7 173.5,-218.7"/>
<image xlink:href="../../images/primaryKeys.png" width="11px" height="12px" preserveAspectRatio="xMinYMin meet" x="178.5" y="-235.7"/>
<text text-anchor="start" x="199.5" y="-225.8" font-family="Helvetica,sans-Serif" font-size="11.00" fill="#000000">id</text>
<polygon fill="#ffffff" stroke="transparent" points="173.5,-196.7 173.5,-218.7 277.5,-218.7 277.5,-196.7 173.5,-196.7"/>
<polygon fill="none" stroke="#000000" points="173.5,-196.7 173.5,-218.7 277.5,-218.7 277.5,-196.7 173.5,-196.7"/>
<text text-anchor="start" x="199.5" y="-203.8" font-family="Helvetica,sans-Serif" font-size="11.00" fill="#000000">name</text>
<polygon fill="#ffffff" stroke="transparent" points="173.5,-174.7 173.5,-196.7 277.5,-196.7 277.5,-174.7 173.5,-174.7"/>
<polygon fill="none" stroke="#000000" points="173.5,-174.7 173.5,-196.7 277.5,-196.7 277.5,-174.7 173.5,-174.7"/>
<image xlink:href="../../images/foreignKeys.png" width="11px" height="12px" preserveAspectRatio="xMinYMin meet" x="178.5" y="-191.7"/>
<text text-anchor="start" x="199.5" y="-181.8" font-family="Helvetica,sans-Serif" font-size="11.00" fill="#000000">realm_id</text>
<polygon fill="none" stroke="#000000" points="173.5,-155.7 173.5,-174.7 277.5,-174.7 277.5,-155.7 173.5,-155.7"/>
<text text-anchor="start" x="176.5" y="-161.8" font-family="Helvetica,sans-Serif" font-size="11.00" fill="#000000">...</text>
<polygon fill="#ffffff" stroke="transparent" points="173.5,-136.7 173.5,-155.7 206.5,-155.7 206.5,-136.7 173.5,-136.7"/>
<polygon fill="none" stroke="#000000" points="173.5,-136.7 173.5,-155.7 206.5,-155.7 206.5,-136.7 173.5,-136.7"/>
<text text-anchor="start" x="176.5" y="-142.8" font-family="Helvetica,sans-Serif" font-size="11.00" fill="#000000">&lt; 1</text>
<polygon fill="#ffffff" stroke="transparent" points="206.5,-136.7 206.5,-155.7 250.5,-155.7 250.5,-136.7 206.5,-136.7"/>
<polygon fill="none" stroke="#000000" points="206.5,-136.7 206.5,-155.7 250.5,-155.7 250.5,-136.7 206.5,-136.7"/>
<text text-anchor="start" x="215.1105" y="-142.8" font-family="Helvetica,sans-Serif" font-size="11.00" fill="#000000">9 rows</text>
<polygon fill="#ffffff" stroke="transparent" points="250.5,-136.7 250.5,-155.7 277.5,-155.7 277.5,-136.7 250.5,-136.7"/>
<polygon fill="none" stroke="#000000" points="250.5,-136.7 250.5,-155.7 277.5,-155.7 277.5,-136.7 250.5,-136.7"/>
<text text-anchor="start" x="258.9053" y="-142.8" font-family="Helvetica,sans-Serif" font-size="11.00" fill="#000000">5 &gt;</text>
</a>
</g>
</g>
<!-- client_scope&#45;&gt;realm -->
<g id="edge5" class="edge">
<title>client_scope:w&#45;&gt;realm:e</title>
<path fill="none" stroke="#000000" d="M158.7715,-185.7C128.5089,-185.7 115.8924,-185.7 79.5,-185.7"/>
<polygon fill="#000000" stroke="#000000" points="165.5,-185.7001 173.5,-189.3 169.5,-185.7 173.5,-185.7 173.5,-185.7 173.5,-185.7 169.5,-185.7 173.5,-182.1 165.5,-185.7001 165.5,-185.7001"/>
<ellipse fill="none" stroke="#000000" cx="162.3" cy="-185.7001" rx="3.2" ry="3.2"/>
</g>
<!-- client_scope_attributes -->
<g id="node7" class="node">
<title>client_scope_attributes</title>
<g id="a_node7"><a xlink:href="../../tables/client_scope_attributes.html" xlink:title="client_scope_attributes" target="_top">
<polygon fill="#ffffff" stroke="transparent" points="408.5,-120.2 408.5,-181.2 563.5,-181.2 563.5,-120.2 408.5,-120.2"/>
<polygon fill="#f5f5f5" stroke="transparent" points="409,-157.7 409,-180.7 564,-180.7 564,-157.7 409,-157.7"/>
<polygon fill="none" stroke="#000000" points="409,-157.7 409,-180.7 564,-180.7 564,-157.7 409,-157.7"/>
<text text-anchor="start" x="413.762" y="-166.8" font-family="Helvetica,sans-Serif" font-weight="bold" font-size="11.00" fill="#000000">client_scope_attributes</text>
<text text-anchor="start" x="529.5219" y="-165.8" font-family="Helvetica,sans-Serif" font-size="11.00" fill="#000000">[table]</text>
<polygon fill="none" stroke="#000000" points="409,-138.7 409,-157.7 564,-157.7 564,-138.7 409,-138.7"/>
<text text-anchor="start" x="412" y="-144.8" font-family="Helvetica,sans-Serif" font-size="11.00" fill="#000000">...</text>
<polygon fill="#ffffff" stroke="transparent" points="409,-119.7 409,-138.7 469,-138.7 469,-119.7 409,-119.7"/>
<polygon fill="none" stroke="#000000" points="409,-119.7 409,-138.7 469,-138.7 469,-119.7 409,-119.7"/>
<text text-anchor="start" x="412" y="-125.8" font-family="Helvetica,sans-Serif" font-size="11.00" fill="#000000">&lt; 1</text>
<polygon fill="#ffffff" stroke="transparent" points="469,-119.7 469,-138.7 532,-138.7 532,-119.7 469,-119.7"/>
<polygon fill="none" stroke="#000000" points="469,-119.7 469,-138.7 532,-138.7 532,-119.7 469,-119.7"/>
<text text-anchor="start" x="490.4956" y="-125.8" font-family="Helvetica,sans-Serif" font-size="11.00" fill="#000000">24 rows</text>
<polygon fill="#ffffff" stroke="transparent" points="532,-119.7 532,-138.7 564,-138.7 564,-119.7 532,-119.7"/>
<polygon fill="none" stroke="#000000" points="532,-119.7 532,-138.7 564,-138.7 564,-119.7 532,-119.7"/>
<text text-anchor="start" x="554.8862" y="-125.8" font-family="Helvetica,sans-Serif" font-size="11.00" fill="#000000"> &#160;</text>
</a>
</g>
</g>
<!-- client_scope_attributes&#45;&gt;client_scope -->
<g id="edge6" class="edge">
<title>client_scope_attributes:w&#45;&gt;client_scope:e</title>
<path fill="none" stroke="#000000" d="M394.502,-149.0548C340.6403,-159.7164 341.1299,-229.7 277.5,-229.7"/>
<polygon fill="#000000" stroke="#000000" points="401.0347,-148.4444 409.335,-151.2844 405.0174,-148.0722 409,-147.7 409,-147.7 409,-147.7 405.0174,-148.0722 408.665,-144.1156 401.0347,-148.4444 401.0347,-148.4444"/>
<ellipse fill="none" stroke="#000000" cx="397.8486" cy="-148.7422" rx="3.2" ry="3.2"/>
</g>
<!-- client_scope_client -->
<g id="node8" class="node">
<title>client_scope_client</title>
<g id="a_node8"><a xlink:href="../../tables/client_scope_client.html" xlink:title="client_scope_client" target="_top">
<polygon fill="#ffffff" stroke="transparent" points="418.5,-284.2 418.5,-345.2 553.5,-345.2 553.5,-284.2 418.5,-284.2"/>
<polygon fill="#f5f5f5" stroke="transparent" points="419,-321.7 419,-344.7 554,-344.7 554,-321.7 419,-321.7"/>
<polygon fill="none" stroke="#000000" points="419,-321.7 419,-344.7 554,-344.7 554,-321.7 419,-321.7"/>
<text text-anchor="start" x="423.5443" y="-330.8" font-family="Helvetica,sans-Serif" font-weight="bold" font-size="11.00" fill="#000000">client_scope_client</text>
<text text-anchor="start" x="519.5219" y="-329.8" font-family="Helvetica,sans-Serif" font-size="11.00" fill="#000000">[table]</text>
<polygon fill="none" stroke="#000000" points="419,-302.7 419,-321.7 554,-321.7 554,-302.7 419,-302.7"/>
<text text-anchor="start" x="422" y="-308.8" font-family="Helvetica,sans-Serif" font-size="11.00" fill="#000000">...</text>
<polygon fill="#ffffff" stroke="transparent" points="419,-283.7 419,-302.7 469,-302.7 469,-283.7 419,-283.7"/>
<polygon fill="none" stroke="#000000" points="419,-283.7 419,-302.7 469,-302.7 469,-283.7 419,-283.7"/>
<text text-anchor="start" x="422" y="-289.8" font-family="Helvetica,sans-Serif" font-size="11.00" fill="#000000">&lt; 2</text>
<polygon fill="#ffffff" stroke="transparent" points="469,-283.7 469,-302.7 527,-302.7 527,-283.7 469,-283.7"/>
<polygon fill="none" stroke="#000000" points="469,-283.7 469,-302.7 527,-302.7 527,-283.7 469,-283.7"/>
<text text-anchor="start" x="485.4956" y="-289.8" font-family="Helvetica,sans-Serif" font-size="11.00" fill="#000000">54 rows</text>
<polygon fill="#ffffff" stroke="transparent" points="527,-283.7 527,-302.7 554,-302.7 554,-283.7 527,-283.7"/>
<polygon fill="none" stroke="#000000" points="527,-283.7 527,-302.7 554,-302.7 554,-283.7 527,-283.7"/>
<text text-anchor="start" x="544.8862" y="-289.8" font-family="Helvetica,sans-Serif" font-size="11.00" fill="#000000"> &#160;</text>
</a>
</g>
</g>
<!-- client_scope_client&#45;&gt;client -->
<g id="edge7" class="edge">
<title>client_scope_client:w&#45;&gt;client:e</title>
<path fill="none" stroke="#000000" d="M404.4542,-313.2145C384.5333,-317.897 376.6176,-333.1942 364,-355.7 328.9473,-418.2228 395.1784,-675.7 323.5,-675.7"/>
<polygon fill="#000000" stroke="#000000" points="411.043,-312.5285 419.3728,-315.2806 415.0215,-312.1143 419,-311.7 419,-311.7 419,-311.7 415.0215,-312.1143 418.6272,-308.1194 411.043,-312.5285 411.043,-312.5285"/>
<ellipse fill="none" stroke="#000000" cx="407.8602" cy="-312.8599" rx="3.2" ry="3.2"/>
</g>
<!-- client_scope_client&#45;&gt;client_scope -->
<g id="edge8" class="edge">
<title>client_scope_client:w&#45;&gt;client_scope:e</title>
<path fill="none" stroke="#000000" d="M404.3836,-310.4772C346.474,-300.2767 344.933,-229.7 277.5,-229.7"/>
<polygon fill="#000000" stroke="#000000" points="411.0278,-311.033 418.6999,-315.2875 415.0139,-311.3665 419,-311.7 419,-311.7 419,-311.7 415.0139,-311.3665 419.3001,-308.1125 411.0278,-311.033 411.0278,-311.033"/>
<ellipse fill="none" stroke="#000000" cx="407.839" cy="-310.7662" rx="3.2" ry="3.2"/>
</g>
<!-- client_scope_role_mapping -->
<g id="node9" class="node">
<title>client_scope_role_mapping</title>
<g id="a_node9"><a xlink:href="../../tables/client_scope_role_mapping.html" xlink:title="client_scope_role_mapping" target="_top">
<polygon fill="#ffffff" stroke="transparent" points="398,-202.2 398,-263.2 574,-263.2 574,-202.2 398,-202.2"/>
<polygon fill="#f5f5f5" stroke="transparent" points="398,-239.7 398,-262.7 574,-262.7 574,-239.7 398,-239.7"/>
<polygon fill="none" stroke="#000000" points="398,-239.7 398,-262.7 574,-262.7 574,-239.7 398,-239.7"/>
<text text-anchor="start" x="402.5661" y="-248.8" font-family="Helvetica,sans-Serif" font-weight="bold" font-size="11.00" fill="#000000">client_scope_role_mapping</text>
<text text-anchor="start" x="539.5219" y="-247.8" font-family="Helvetica,sans-Serif" font-size="11.00" fill="#000000">[table]</text>
<polygon fill="none" stroke="#000000" points="398,-220.7 398,-239.7 574,-239.7 574,-220.7 398,-220.7"/>
<text text-anchor="start" x="401" y="-226.8" font-family="Helvetica,sans-Serif" font-size="11.00" fill="#000000">...</text>
<polygon fill="#ffffff" stroke="transparent" points="398,-201.7 398,-220.7 474,-220.7 474,-201.7 398,-201.7"/>
<polygon fill="none" stroke="#000000" points="398,-201.7 398,-220.7 474,-220.7 474,-201.7 398,-201.7"/>
<text text-anchor="start" x="401" y="-207.8" font-family="Helvetica,sans-Serif" font-size="11.00" fill="#000000">&lt; 1</text>
<polygon fill="#ffffff" stroke="transparent" points="474,-201.7 474,-220.7 534,-220.7 534,-201.7 474,-201.7"/>
<polygon fill="none" stroke="#000000" points="474,-201.7 474,-220.7 534,-220.7 534,-201.7 474,-201.7"/>
<text text-anchor="start" x="504.1105" y="-207.8" font-family="Helvetica,sans-Serif" font-size="11.00" fill="#000000">1 row</text>
<polygon fill="#ffffff" stroke="transparent" points="534,-201.7 534,-220.7 574,-220.7 574,-201.7 534,-201.7"/>
<polygon fill="none" stroke="#000000" points="534,-201.7 534,-220.7 574,-220.7 574,-201.7 534,-201.7"/>
<text text-anchor="start" x="564.8862" y="-207.8" font-family="Helvetica,sans-Serif" font-size="11.00" fill="#000000"> &#160;</text>
</a>
</g>
</g>
<!-- client_scope_role_mapping&#45;&gt;client_scope -->
<g id="edge9" class="edge">
<title>client_scope_role_mapping:w&#45;&gt;client_scope:e</title>
<path fill="none" stroke="#000000" d="M383.3843,-229.7C341.4464,-229.7 325.8255,-229.7 277.5,-229.7"/>
<polygon fill="#000000" stroke="#000000" points="390,-229.7001 398,-233.3 394,-229.7 398,-229.7 398,-229.7 398,-229.7 394,-229.7 398,-226.1 390,-229.7001 390,-229.7001"/>
<ellipse fill="none" stroke="#000000" cx="386.8" cy="-229.7001" rx="3.2" ry="3.2"/>
</g>
<!-- default_client_scope -->
<g id="node10" class="node">
<title>default_client_scope</title>
<g id="a_node10"><a xlink:href="../../tables/default_client_scope.html" xlink:title="default_client_scope" target="_top">
<polygon fill="#ffffff" stroke="transparent" points="414.5,-38.2 414.5,-99.2 557.5,-99.2 557.5,-38.2 414.5,-38.2"/>
<polygon fill="#f5f5f5" stroke="transparent" points="415,-75.7 415,-98.7 558,-98.7 558,-75.7 415,-75.7"/>
<polygon fill="none" stroke="#000000" points="415,-75.7 415,-98.7 558,-98.7 558,-75.7 415,-75.7"/>
<text text-anchor="start" x="419.8714" y="-84.8" font-family="Helvetica,sans-Serif" font-weight="bold" font-size="11.00" fill="#000000">default_client_scope</text>
<text text-anchor="start" x="523.5219" y="-83.8" font-family="Helvetica,sans-Serif" font-size="11.00" fill="#000000">[table]</text>
<polygon fill="none" stroke="#000000" points="415,-56.7 415,-75.7 558,-75.7 558,-56.7 415,-56.7"/>
<text text-anchor="start" x="418" y="-62.8" font-family="Helvetica,sans-Serif" font-size="11.00" fill="#000000">...</text>
<polygon fill="#ffffff" stroke="transparent" points="415,-37.7 415,-56.7 472,-56.7 472,-37.7 415,-37.7"/>
<polygon fill="none" stroke="#000000" points="415,-37.7 415,-56.7 472,-56.7 472,-37.7 415,-37.7"/>
<text text-anchor="start" x="418" y="-43.8" font-family="Helvetica,sans-Serif" font-size="11.00" fill="#000000">&lt; 2</text>
<polygon fill="#ffffff" stroke="transparent" points="472,-37.7 472,-56.7 528,-56.7 528,-37.7 472,-37.7"/>
<polygon fill="none" stroke="#000000" points="472,-37.7 472,-56.7 528,-56.7 528,-37.7 472,-37.7"/>
<text text-anchor="start" x="492.6105" y="-43.8" font-family="Helvetica,sans-Serif" font-size="11.00" fill="#000000">9 rows</text>
<polygon fill="#ffffff" stroke="transparent" points="528,-37.7 528,-56.7 558,-56.7 558,-37.7 528,-37.7"/>
<polygon fill="none" stroke="#000000" points="528,-37.7 528,-56.7 558,-56.7 558,-37.7 528,-37.7"/>
<text text-anchor="start" x="548.8862" y="-43.8" font-family="Helvetica,sans-Serif" font-size="11.00" fill="#000000"> &#160;</text>
</a>
</g>
</g>
<!-- default_client_scope&#45;&gt;realm -->
<g id="edge10" class="edge">
<title>default_client_scope:w&#45;&gt;realm:e</title>
<path fill="none" stroke="#000000" d="M400.4356,-65.651C277.348,-64.8474 227.3675,-55.3441 120,-126.7 93.5107,-144.3046 111.3057,-185.7 79.5,-185.7"/>
<polygon fill="#000000" stroke="#000000" points="407,-65.673 414.9879,-69.3 411,-65.6865 415,-65.7 415,-65.7 415,-65.7 411,-65.6865 415.0121,-62.1 407,-65.673 407,-65.673"/>
<ellipse fill="none" stroke="#000000" cx="403.8001" cy="-65.6622" rx="3.2" ry="3.2"/>
</g>
<!-- default_client_scope&#45;&gt;client_scope -->
<g id="edge11" class="edge">
<title>default_client_scope:w&#45;&gt;client_scope:e</title>
<path fill="none" stroke="#000000" d="M400.2067,-67.2188C325.382,-83.752 367.2301,-229.7 277.5,-229.7"/>
<polygon fill="#000000" stroke="#000000" points="407.0418,-66.5171 415.3677,-69.2812 411.0209,-66.1086 415,-65.7 415,-65.7 415,-65.7 411.0209,-66.1086 414.6323,-62.1188 407.0418,-66.5171 407.0418,-66.5171"/>
<ellipse fill="none" stroke="#000000" cx="403.8586" cy="-66.8439" rx="3.2" ry="3.2"/>
</g>
<!-- protocol_mapper -->
<g id="node11" class="node">
<title>protocol_mapper</title>
<g id="a_node11"><a xlink:href="../../tables/protocol_mapper.html" xlink:title="protocol_mapper" target="_top">
<polygon fill="#ffffff" stroke="transparent" points="372,-366.7 372,-544.7 600,-544.7 600,-366.7 372,-366.7"/>
<polygon fill="#f5f5f5" stroke="transparent" points="374,-519.7 374,-542.7 598,-542.7 598,-519.7 374,-519.7"/>
<polygon fill="none" stroke="#000000" points="374,-519.7 374,-542.7 598,-542.7 598,-519.7 374,-519.7"/>
<text text-anchor="start" x="379" y="-528.8" font-family="Helvetica,sans-Serif" font-weight="bold" font-size="11.00" fill="#000000">protocol_mapper</text>
<text text-anchor="start" x="563.0437" y="-527.8" font-family="Helvetica,sans-Serif" font-size="11.00" fill="#000000">[table]</text>
<polygon fill="none" stroke="#000000" points="374,-497.7 374,-519.7 531,-519.7 531,-497.7 374,-497.7"/>
<image xlink:href="../../images/primaryKeys.png" width="11px" height="12px" preserveAspectRatio="xMinYMin meet" x="379" y="-514.7"/>
<text text-anchor="start" x="394" y="-504.8" font-family="Helvetica,sans-Serif" font-size="11.00" fill="#000000">id</text>
<polygon fill="none" stroke="#000000" points="531,-497.7 531,-519.7 598,-519.7 598,-497.7 531,-497.7"/>
<text text-anchor="start" x="534" y="-505.4" font-family="Helvetica,sans-Serif" font-size="11.00" fill="#000000">varchar[36]</text>
<polygon fill="none" stroke="#000000" points="374,-475.7 374,-497.7 531,-497.7 531,-475.7 374,-475.7"/>
<text text-anchor="start" x="394" y="-482.8" font-family="Helvetica,sans-Serif" font-size="11.00" fill="#000000">name</text>
<polygon fill="none" stroke="#000000" points="531,-475.7 531,-497.7 598,-497.7 598,-475.7 531,-475.7"/>
<text text-anchor="start" x="533.9365" y="-483.4" font-family="Helvetica,sans-Serif" font-size="11.00" fill="#000000">varchar[255]</text>
<polygon fill="none" stroke="#000000" points="374,-453.7 374,-475.7 531,-475.7 531,-453.7 374,-453.7"/>
<text text-anchor="start" x="394" y="-460.8" font-family="Helvetica,sans-Serif" font-size="11.00" fill="#000000">protocol</text>
<polygon fill="none" stroke="#000000" points="531,-453.7 531,-475.7 598,-475.7 598,-453.7 531,-453.7"/>
<text text-anchor="start" x="533.9365" y="-461.4" font-family="Helvetica,sans-Serif" font-size="11.00" fill="#000000">varchar[255]</text>
<polygon fill="none" stroke="#000000" points="374,-431.7 374,-453.7 531,-453.7 531,-431.7 374,-431.7"/>
<text text-anchor="start" x="394" y="-438.8" font-family="Helvetica,sans-Serif" font-size="11.00" fill="#000000">protocol_mapper_name</text>
<polygon fill="none" stroke="#000000" points="531,-431.7 531,-453.7 598,-453.7 598,-431.7 531,-431.7"/>
<text text-anchor="start" x="533.9365" y="-439.4" font-family="Helvetica,sans-Serif" font-size="11.00" fill="#000000">varchar[255]</text>
<polygon fill="#ffffff" stroke="transparent" points="374,-409.7 374,-431.7 531,-431.7 531,-409.7 374,-409.7"/>
<polygon fill="none" stroke="#000000" points="374,-409.7 374,-431.7 531,-431.7 531,-409.7 374,-409.7"/>
<image xlink:href="../../images/foreignKeys.png" width="11px" height="12px" preserveAspectRatio="xMinYMin meet" x="379" y="-426.7"/>
<text text-anchor="start" x="394" y="-416.8" font-family="Helvetica,sans-Serif" font-size="11.00" fill="#000000">client_id</text>
<polygon fill="none" stroke="#000000" points="531,-409.7 531,-431.7 598,-431.7 598,-409.7 531,-409.7"/>
<text text-anchor="start" x="534" y="-417.4" font-family="Helvetica,sans-Serif" font-size="11.00" fill="#000000">varchar[36]</text>
<polygon fill="#ffffff" stroke="transparent" points="374,-387.7 374,-409.7 531,-409.7 531,-387.7 374,-387.7"/>
<polygon fill="none" stroke="#000000" points="374,-387.7 374,-409.7 531,-409.7 531,-387.7 374,-387.7"/>
<image xlink:href="../../images/foreignKeys.png" width="11px" height="12px" preserveAspectRatio="xMinYMin meet" x="379" y="-404.7"/>
<text text-anchor="start" x="394" y="-394.8" font-family="Helvetica,sans-Serif" font-size="11.00" fill="#000000">client_scope_id</text>
<polygon fill="none" stroke="#000000" points="531,-387.7 531,-409.7 598,-409.7 598,-387.7 531,-387.7"/>
<text text-anchor="start" x="534" y="-395.4" font-family="Helvetica,sans-Serif" font-size="11.00" fill="#000000">varchar[36]</text>
<polygon fill="#ffffff" stroke="transparent" points="374,-368.7 374,-387.7 441,-387.7 441,-368.7 374,-368.7"/>
<polygon fill="none" stroke="#000000" points="374,-368.7 374,-387.7 441,-387.7 441,-368.7 374,-368.7"/>
<text text-anchor="start" x="377" y="-374.8" font-family="Helvetica,sans-Serif" font-size="11.00" fill="#000000">&lt; 2</text>
<polygon fill="#ffffff" stroke="transparent" points="441,-368.7 441,-387.7 531,-387.7 531,-368.7 441,-368.7"/>
<polygon fill="none" stroke="#000000" points="441,-368.7 441,-387.7 531,-387.7 531,-368.7 441,-368.7"/>
<text text-anchor="start" x="489.4956" y="-374.8" font-family="Helvetica,sans-Serif" font-size="11.00" fill="#000000">28 rows</text>
<polygon fill="#ffffff" stroke="transparent" points="531,-368.7 531,-387.7 598,-387.7 598,-368.7 531,-368.7"/>
<polygon fill="none" stroke="#000000" points="531,-368.7 531,-387.7 598,-387.7 598,-368.7 531,-368.7"/>
<text text-anchor="start" x="579.4053" y="-374.8" font-family="Helvetica,sans-Serif" font-size="11.00" fill="#000000">1 &gt;</text>
<polygon fill="none" stroke="#000000" stroke-width="2" points="373,-367.7 373,-543.7 599,-543.7 599,-367.7 373,-367.7"/>
</a>
</g>
</g>
<!-- protocol_mapper&#45;&gt;client -->
<g id="edge12" class="edge">
<title>protocol_mapper:w&#45;&gt;client:e</title>
<path fill="none" stroke="#000000" d="M359.6438,-422.3284C274.7433,-444.0459 433.6187,-675.7 323.5,-675.7"/>
<polygon fill="#000000" stroke="#000000" points="366.051,-421.6017 374.4058,-424.2771 370.0255,-421.1508 374,-420.7 374,-420.7 374,-420.7 370.0255,-421.1508 373.5942,-417.1229 366.051,-421.6017 366.051,-421.6017"/>
<ellipse fill="none" stroke="#000000" cx="362.8714" cy="-421.9624" rx="3.2" ry="3.2"/>
</g>
<!-- protocol_mapper&#45;&gt;client_scope -->
<g id="edge13" class="edge">
<title>protocol_mapper:w&#45;&gt;client_scope:e</title>
<path fill="none" stroke="#000000" d="M359.6128,-396.8021C296.4307,-378.2352 358.5877,-229.7 277.5,-229.7"/>
<polygon fill="#000000" stroke="#000000" points="366.0687,-397.6537 373.5291,-402.2691 370.0344,-398.1768 374,-398.7 374,-398.7 374,-398.7 370.0344,-398.1768 374.4709,-395.1309 366.0687,-397.6537 366.0687,-397.6537"/>
<ellipse fill="none" stroke="#000000" cx="362.8962" cy="-397.2351" rx="3.2" ry="3.2"/>
</g>
<!-- protocol_mapper_config -->
<g id="node12" class="node">
<title>protocol_mapper_config</title>
<g id="a_node12"><a xlink:href="../../tables/protocol_mapper_config.html" xlink:title="protocol_mapper_config" target="_top">
<polygon fill="#ffffff" stroke="transparent" points="649,-438.2 649,-543.2 810,-543.2 810,-438.2 649,-438.2"/>
<polygon fill="#f5f5f5" stroke="transparent" points="649.5,-519.7 649.5,-542.7 810.5,-542.7 810.5,-519.7 649.5,-519.7"/>
<polygon fill="none" stroke="#000000" points="649.5,-519.7 649.5,-542.7 810.5,-542.7 810.5,-519.7 649.5,-519.7"/>
<text text-anchor="start" x="654.5" y="-528.8" font-family="Helvetica,sans-Serif" font-weight="bold" font-size="11.00" fill="#000000">protocol_mapper_config</text>
<text text-anchor="start" x="776.0219" y="-527.8" font-family="Helvetica,sans-Serif" font-size="11.00" fill="#000000">[table]</text>
<polygon fill="none" stroke="#000000" points="649.5,-497.7 649.5,-519.7 810.5,-519.7 810.5,-497.7 649.5,-497.7"/>
<image xlink:href="../../images/primaryKeys.png" width="11px" height="12px" preserveAspectRatio="xMinYMin meet" x="654.5" y="-514.7"/>
<text text-anchor="start" x="669.5" y="-504.8" font-family="Helvetica,sans-Serif" font-size="11.00" fill="#000000">protocol_mapper_id</text>
<polygon fill="none" stroke="#000000" points="649.5,-475.7 649.5,-497.7 810.5,-497.7 810.5,-475.7 649.5,-475.7"/>
<image xlink:href="../../images/primaryKeys.png" width="11px" height="12px" preserveAspectRatio="xMinYMin meet" x="654.5" y="-492.7"/>
<text text-anchor="start" x="669.5" y="-482.8" font-family="Helvetica,sans-Serif" font-size="11.00" fill="#000000">name</text>
<polygon fill="none" stroke="#000000" points="649.5,-456.7 649.5,-475.7 810.5,-475.7 810.5,-456.7 649.5,-456.7"/>
<text text-anchor="start" x="652.5" y="-462.8" font-family="Helvetica,sans-Serif" font-size="11.00" fill="#000000">...</text>
<polygon fill="#ffffff" stroke="transparent" points="649.5,-437.7 649.5,-456.7 709.5,-456.7 709.5,-437.7 649.5,-437.7"/>
<polygon fill="none" stroke="#000000" points="649.5,-437.7 649.5,-456.7 709.5,-456.7 709.5,-437.7 649.5,-437.7"/>
<text text-anchor="start" x="652.5" y="-443.8" font-family="Helvetica,sans-Serif" font-size="11.00" fill="#000000">&lt; 1</text>
<polygon fill="#ffffff" stroke="transparent" points="709.5,-437.7 709.5,-456.7 778.5,-456.7 778.5,-437.7 709.5,-437.7"/>
<polygon fill="none" stroke="#000000" points="709.5,-437.7 709.5,-456.7 778.5,-456.7 778.5,-437.7 709.5,-437.7"/>
<text text-anchor="start" x="730.8807" y="-443.8" font-family="Helvetica,sans-Serif" font-size="11.00" fill="#000000">145 rows</text>
<polygon fill="#ffffff" stroke="transparent" points="778.5,-437.7 778.5,-456.7 810.5,-456.7 810.5,-437.7 778.5,-437.7"/>
<polygon fill="none" stroke="#000000" points="778.5,-437.7 778.5,-456.7 810.5,-456.7 810.5,-437.7 778.5,-437.7"/>
<text text-anchor="start" x="801.3862" y="-443.8" font-family="Helvetica,sans-Serif" font-size="11.00" fill="#000000"> &#160;</text>
</a>
</g>
</g>
<!-- protocol_mapper_config&#45;&gt;protocol_mapper -->
<g id="edge14" class="edge">
<title>protocol_mapper_config:w&#45;&gt;protocol_mapper:e</title>
<path fill="none" stroke="#000000" d="M635.0156,-508.7C622.6771,-508.7 615.1667,-508.7 598,-508.7"/>
<polygon fill="#000000" stroke="#000000" points="641.5,-508.7001 649.5,-512.3 645.5,-508.7 649.5,-508.7 649.5,-508.7 649.5,-508.7 645.5,-508.7 649.5,-505.1 641.5,-508.7001 641.5,-508.7001"/>
<ellipse fill="none" stroke="#000000" cx="638.3" cy="-508.7001" rx="3.2" ry="3.2"/>
</g>
<!-- redirect_uris -->
<g id="node13" class="node">
<title>redirect_uris</title>
<g id="a_node13"><a xlink:href="../../tables/redirect_uris.html" xlink:title="redirect_uris" target="_top">
<polygon fill="#ffffff" stroke="transparent" points="434.5,-976.2 434.5,-1037.2 537.5,-1037.2 537.5,-976.2 434.5,-976.2"/>
<polygon fill="#f5f5f5" stroke="transparent" points="435,-1013.7 435,-1036.7 538,-1036.7 538,-1013.7 435,-1013.7"/>
<polygon fill="none" stroke="#000000" points="435,-1013.7 435,-1036.7 538,-1036.7 538,-1013.7 435,-1013.7"/>
<text text-anchor="start" x="439.7506" y="-1022.8" font-family="Helvetica,sans-Serif" font-weight="bold" font-size="11.00" fill="#000000">redirect_uris</text>
<text text-anchor="start" x="503.5219" y="-1021.8" font-family="Helvetica,sans-Serif" font-size="11.00" fill="#000000">[table]</text>
<polygon fill="none" stroke="#000000" points="435,-994.7 435,-1013.7 538,-1013.7 538,-994.7 435,-994.7"/>
<text text-anchor="start" x="438" y="-1000.8" font-family="Helvetica,sans-Serif" font-size="11.00" fill="#000000">...</text>
<polygon fill="#ffffff" stroke="transparent" points="435,-975.7 435,-994.7 472,-994.7 472,-975.7 435,-975.7"/>
<polygon fill="none" stroke="#000000" points="435,-975.7 435,-994.7 472,-994.7 472,-975.7 435,-975.7"/>
<text text-anchor="start" x="438" y="-981.8" font-family="Helvetica,sans-Serif" font-size="11.00" fill="#000000">&lt; 1</text>
<polygon fill="#ffffff" stroke="transparent" points="472,-975.7 472,-994.7 518,-994.7 518,-975.7 472,-975.7"/>
<polygon fill="none" stroke="#000000" points="472,-975.7 472,-994.7 518,-994.7 518,-975.7 472,-975.7"/>
<text text-anchor="start" x="482.6105" y="-981.8" font-family="Helvetica,sans-Serif" font-size="11.00" fill="#000000">3 rows</text>
<polygon fill="#ffffff" stroke="transparent" points="518,-975.7 518,-994.7 538,-994.7 538,-975.7 518,-975.7"/>
<polygon fill="none" stroke="#000000" points="518,-975.7 518,-994.7 538,-994.7 538,-975.7 518,-975.7"/>
<text text-anchor="start" x="528.8862" y="-981.8" font-family="Helvetica,sans-Serif" font-size="11.00" fill="#000000"> &#160;</text>
</a>
</g>
</g>
<!-- redirect_uris&#45;&gt;client -->
<g id="edge15" class="edge">
<title>redirect_uris:w&#45;&gt;client:e</title>
<path fill="none" stroke="#000000" d="M420.3662,-1003.0891C394.7087,-1000.6772 381.4367,-990.6976 364,-965.7 326.7733,-912.3309 388.5699,-675.7 323.5,-675.7"/>
<polygon fill="#000000" stroke="#000000" points="427.007,-1003.3663 434.8498,-1007.2969 431.0035,-1003.5331 435,-1003.7 435,-1003.7 435,-1003.7 431.0035,-1003.5331 435.1502,-1000.1031 427.007,-1003.3663 427.007,-1003.3663"/>
<ellipse fill="none" stroke="#000000" cx="423.8097" cy="-1003.2328" rx="3.2" ry="3.2"/>
</g>
<!-- scope_mapping -->
<g id="node14" class="node">
<title>scope_mapping</title>
<g id="a_node14"><a xlink:href="../../tables/scope_mapping.html" xlink:title="scope_mapping" target="_top">
<polygon fill="#ffffff" stroke="transparent" points="426,-894.2 426,-955.2 546,-955.2 546,-894.2 426,-894.2"/>
<polygon fill="#f5f5f5" stroke="transparent" points="426,-931.7 426,-954.7 546,-954.7 546,-931.7 426,-931.7"/>
<polygon fill="none" stroke="#000000" points="426,-931.7 426,-954.7 546,-954.7 546,-931.7 426,-931.7"/>
<text text-anchor="start" x="430.6816" y="-940.8" font-family="Helvetica,sans-Serif" font-weight="bold" font-size="11.00" fill="#000000">scope_mapping</text>
<text text-anchor="start" x="511.5219" y="-939.8" font-family="Helvetica,sans-Serif" font-size="11.00" fill="#000000">[table]</text>
<polygon fill="none" stroke="#000000" points="426,-912.7 426,-931.7 546,-931.7 546,-912.7 426,-912.7"/>
<text text-anchor="start" x="429" y="-918.8" font-family="Helvetica,sans-Serif" font-size="11.00" fill="#000000">...</text>
<polygon fill="#ffffff" stroke="transparent" points="426,-893.7 426,-912.7 474,-912.7 474,-893.7 426,-893.7"/>
<polygon fill="none" stroke="#000000" points="426,-893.7 426,-912.7 474,-912.7 474,-893.7 426,-893.7"/>
<text text-anchor="start" x="429" y="-899.8" font-family="Helvetica,sans-Serif" font-size="11.00" fill="#000000">&lt; 1</text>
<polygon fill="#ffffff" stroke="transparent" points="474,-893.7 474,-912.7 520,-912.7 520,-893.7 474,-893.7"/>
<polygon fill="none" stroke="#000000" points="474,-893.7 474,-912.7 520,-912.7 520,-893.7 474,-893.7"/>
<text text-anchor="start" x="490.1105" y="-899.8" font-family="Helvetica,sans-Serif" font-size="11.00" fill="#000000">1 row</text>
<polygon fill="#ffffff" stroke="transparent" points="520,-893.7 520,-912.7 546,-912.7 546,-893.7 520,-893.7"/>
<polygon fill="none" stroke="#000000" points="520,-893.7 520,-912.7 546,-912.7 546,-893.7 520,-893.7"/>
<text text-anchor="start" x="536.8862" y="-899.8" font-family="Helvetica,sans-Serif" font-size="11.00" fill="#000000"> &#160;</text>
</a>
</g>
</g>
<!-- scope_mapping&#45;&gt;client -->
<g id="edge16" class="edge">
<title>scope_mapping:w&#45;&gt;client:e</title>
<path fill="none" stroke="#000000" d="M411.3631,-920.7138C389.6972,-917.4283 379.3303,-905.7928 364,-883.7 310.3079,-806.3234 417.6805,-675.7 323.5,-675.7"/>
<polygon fill="#000000" stroke="#000000" points="418.0181,-921.1621 425.758,-925.2919 422.009,-921.4311 426,-921.7 426,-921.7 426,-921.7 422.009,-921.4311 426.242,-918.1081 418.0181,-921.1621 418.0181,-921.1621"/>
<ellipse fill="none" stroke="#000000" cx="414.8253" cy="-920.947" rx="3.2" ry="3.2"/>
</g>
<!-- web_origins -->
<g id="node15" class="node">
<title>web_origins</title>
<g id="a_node15"><a xlink:href="../../tables/web_origins.html" xlink:title="web_origins" target="_top">
<polygon fill="#ffffff" stroke="transparent" points="435.5,-812.2 435.5,-873.2 536.5,-873.2 536.5,-812.2 435.5,-812.2"/>
<polygon fill="#f5f5f5" stroke="transparent" points="436,-849.7 436,-872.7 537,-872.7 537,-849.7 436,-849.7"/>
<polygon fill="none" stroke="#000000" points="436,-849.7 436,-872.7 537,-872.7 537,-849.7 436,-849.7"/>
<text text-anchor="start" x="440.663" y="-858.8" font-family="Helvetica,sans-Serif" font-weight="bold" font-size="11.00" fill="#000000">web_origins</text>
<text text-anchor="start" x="502.5219" y="-857.8" font-family="Helvetica,sans-Serif" font-size="11.00" fill="#000000">[table]</text>
<polygon fill="none" stroke="#000000" points="436,-830.7 436,-849.7 537,-849.7 537,-830.7 436,-830.7"/>
<text text-anchor="start" x="439" y="-836.8" font-family="Helvetica,sans-Serif" font-size="11.00" fill="#000000">...</text>
<polygon fill="#ffffff" stroke="transparent" points="436,-811.7 436,-830.7 475,-830.7 475,-811.7 436,-811.7"/>
<polygon fill="none" stroke="#000000" points="436,-811.7 436,-830.7 475,-830.7 475,-811.7 436,-811.7"/>
<text text-anchor="start" x="439" y="-817.8" font-family="Helvetica,sans-Serif" font-size="11.00" fill="#000000">&lt; 1</text>
<polygon fill="#ffffff" stroke="transparent" points="475,-811.7 475,-830.7 516,-830.7 516,-811.7 475,-811.7"/>
<polygon fill="none" stroke="#000000" points="475,-811.7 475,-830.7 516,-830.7 516,-811.7 475,-811.7"/>
<text text-anchor="start" x="486.1105" y="-817.8" font-family="Helvetica,sans-Serif" font-size="11.00" fill="#000000">1 row</text>
<polygon fill="#ffffff" stroke="transparent" points="516,-811.7 516,-830.7 537,-830.7 537,-811.7 516,-811.7"/>
<polygon fill="none" stroke="#000000" points="516,-811.7 516,-830.7 537,-830.7 537,-811.7 516,-811.7"/>
<text text-anchor="start" x="527.8862" y="-817.8" font-family="Helvetica,sans-Serif" font-size="11.00" fill="#000000"> &#160;</text>
</a>
</g>
</g>
<!-- web_origins&#45;&gt;client -->
<g id="edge17" class="edge">
<title>web_origins:w&#45;&gt;client:e</title>
<path fill="none" stroke="#000000" d="M421.3364,-838.997C395.8523,-836.2636 383.8047,-825.3046 364,-801.7 326.1921,-756.6382 382.3218,-675.7 323.5,-675.7"/>
<polygon fill="#000000" stroke="#000000" points="428.0092,-839.3169 435.8276,-843.2959 432.0046,-839.5084 436,-839.7 436,-839.7 436,-839.7 432.0046,-839.5084 436.1724,-836.1041 428.0092,-839.3169 428.0092,-839.3169"/>
<ellipse fill="none" stroke="#000000" cx="424.8128" cy="-839.1636" rx="3.2" ry="3.2"/>
</g>
</g>
</svg>
