<?xml version="1.0" encoding="UTF-8" standalone="no"?>
<!DOCTYPE svg PUBLIC "-//W3C//DTD SVG 1.1//EN"
 "http://www.w3.org/Graphics/SVG/1.1/DTD/svg11.dtd">
<!-- Generated by graphviz version 2.40.1 (20161225.0304)
 -->
<!-- Title: oneDegreeRelationshipsDiagram Pages: 1 -->
<svg width="706pt" height="352pt"
 viewBox="0.00 0.00 706.00 351.70" xmlns="http://www.w3.org/2000/svg" xmlns:xlink="http://www.w3.org/1999/xlink">
<g id="graph0" class="graph" transform="scale(1 1) rotate(0) translate(4 347.7)">
<title>oneDegreeRelationshipsDiagram</title>
<polygon fill="#ffffff" stroke="transparent" points="-4,4 -4,-347.7 702,-347.7 702,4 -4,4"/>
<text text-anchor="middle" x="72.4936" y="-7.3" font-family="Helvetica,sans-Serif" font-size="11.00" fill="#000000">Generated by SchemaSpy</text>
<!-- protocol_mapper -->
<g id="node1" class="node">
<title>protocol_mapper</title>
<g id="a_node1"><a xlink:href="../../tables/protocol_mapper.html" xlink:title="protocol_mapper" target="_top">
<polygon fill="#ffffff" stroke="transparent" points="252,-161.7 252,-339.7 480,-339.7 480,-161.7 252,-161.7"/>
<polygon fill="#f5f5f5" stroke="transparent" points="254,-314.7 254,-337.7 478,-337.7 478,-314.7 254,-314.7"/>
<polygon fill="none" stroke="#000000" points="254,-314.7 254,-337.7 478,-337.7 478,-314.7 254,-314.7"/>
<text text-anchor="start" x="259" y="-323.8" font-family="Helvetica,sans-Serif" font-weight="bold" font-size="11.00" fill="#000000">protocol_mapper</text>
<text text-anchor="start" x="443.0437" y="-322.8" font-family="Helvetica,sans-Serif" font-size="11.00" fill="#000000">[table]</text>
<polygon fill="none" stroke="#000000" points="254,-292.7 254,-314.7 411,-314.7 411,-292.7 254,-292.7"/>
<image xlink:href="../../images/primaryKeys.png" width="11px" height="12px" preserveAspectRatio="xMinYMin meet" x="259" y="-309.7"/>
<text text-anchor="start" x="274" y="-299.8" font-family="Helvetica,sans-Serif" font-size="11.00" fill="#000000">id</text>
<polygon fill="none" stroke="#000000" points="411,-292.7 411,-314.7 478,-314.7 478,-292.7 411,-292.7"/>
<text text-anchor="start" x="414" y="-300.4" font-family="Helvetica,sans-Serif" font-size="11.00" fill="#000000">varchar[36]</text>
<polygon fill="none" stroke="#000000" points="254,-270.7 254,-292.7 411,-292.7 411,-270.7 254,-270.7"/>
<text text-anchor="start" x="274" y="-277.8" font-family="Helvetica,sans-Serif" font-size="11.00" fill="#000000">name</text>
<polygon fill="none" stroke="#000000" points="411,-270.7 411,-292.7 478,-292.7 478,-270.7 411,-270.7"/>
<text text-anchor="start" x="413.9365" y="-278.4" font-family="Helvetica,sans-Serif" font-size="11.00" fill="#000000">varchar[255]</text>
<polygon fill="none" stroke="#000000" points="254,-248.7 254,-270.7 411,-270.7 411,-248.7 254,-248.7"/>
<text text-anchor="start" x="274" y="-255.8" font-family="Helvetica,sans-Serif" font-size="11.00" fill="#000000">protocol</text>
<polygon fill="none" stroke="#000000" points="411,-248.7 411,-270.7 478,-270.7 478,-248.7 411,-248.7"/>
<text text-anchor="start" x="413.9365" y="-256.4" font-family="Helvetica,sans-Serif" font-size="11.00" fill="#000000">varchar[255]</text>
<polygon fill="none" stroke="#000000" points="254,-226.7 254,-248.7 411,-248.7 411,-226.7 254,-226.7"/>
<text text-anchor="start" x="274" y="-233.8" font-family="Helvetica,sans-Serif" font-size="11.00" fill="#000000">protocol_mapper_name</text>
<polygon fill="none" stroke="#000000" points="411,-226.7 411,-248.7 478,-248.7 478,-226.7 411,-226.7"/>
<text text-anchor="start" x="413.9365" y="-234.4" font-family="Helvetica,sans-Serif" font-size="11.00" fill="#000000">varchar[255]</text>
<polygon fill="#ffffff" stroke="transparent" points="254,-204.7 254,-226.7 411,-226.7 411,-204.7 254,-204.7"/>
<polygon fill="none" stroke="#000000" points="254,-204.7 254,-226.7 411,-226.7 411,-204.7 254,-204.7"/>
<image xlink:href="../../images/foreignKeys.png" width="11px" height="12px" preserveAspectRatio="xMinYMin meet" x="259" y="-221.7"/>
<text text-anchor="start" x="274" y="-211.8" font-family="Helvetica,sans-Serif" font-size="11.00" fill="#000000">client_id</text>
<polygon fill="none" stroke="#000000" points="411,-204.7 411,-226.7 478,-226.7 478,-204.7 411,-204.7"/>
<text text-anchor="start" x="414" y="-212.4" font-family="Helvetica,sans-Serif" font-size="11.00" fill="#000000">varchar[36]</text>
<polygon fill="#ffffff" stroke="transparent" points="254,-182.7 254,-204.7 411,-204.7 411,-182.7 254,-182.7"/>
<polygon fill="none" stroke="#000000" points="254,-182.7 254,-204.7 411,-204.7 411,-182.7 254,-182.7"/>
<image xlink:href="../../images/foreignKeys.png" width="11px" height="12px" preserveAspectRatio="xMinYMin meet" x="259" y="-199.7"/>
<text text-anchor="start" x="274" y="-189.8" font-family="Helvetica,sans-Serif" font-size="11.00" fill="#000000">client_scope_id</text>
<polygon fill="none" stroke="#000000" points="411,-182.7 411,-204.7 478,-204.7 478,-182.7 411,-182.7"/>
<text text-anchor="start" x="414" y="-190.4" font-family="Helvetica,sans-Serif" font-size="11.00" fill="#000000">varchar[36]</text>
<polygon fill="#ffffff" stroke="transparent" points="254,-163.7 254,-182.7 321,-182.7 321,-163.7 254,-163.7"/>
<polygon fill="none" stroke="#000000" points="254,-163.7 254,-182.7 321,-182.7 321,-163.7 254,-163.7"/>
<text text-anchor="start" x="257" y="-169.8" font-family="Helvetica,sans-Serif" font-size="11.00" fill="#000000">&lt; 2</text>
<polygon fill="#ffffff" stroke="transparent" points="321,-163.7 321,-182.7 411,-182.7 411,-163.7 321,-163.7"/>
<polygon fill="none" stroke="#000000" points="321,-163.7 321,-182.7 411,-182.7 411,-163.7 321,-163.7"/>
<text text-anchor="start" x="369.4956" y="-169.8" font-family="Helvetica,sans-Serif" font-size="11.00" fill="#000000">28 rows</text>
<polygon fill="#ffffff" stroke="transparent" points="411,-163.7 411,-182.7 478,-182.7 478,-163.7 411,-163.7"/>
<polygon fill="none" stroke="#000000" points="411,-163.7 411,-182.7 478,-182.7 478,-163.7 411,-163.7"/>
<text text-anchor="start" x="459.4053" y="-169.8" font-family="Helvetica,sans-Serif" font-size="11.00" fill="#000000">1 &gt;</text>
<polygon fill="none" stroke="#000000" stroke-width="2" points="253,-162.7 253,-338.7 479,-338.7 479,-162.7 253,-162.7"/>
</a>
</g>
</g>
<!-- client -->
<g id="node2" class="node">
<title>client</title>
<g id="a_node2"><a xlink:href="../../tables/client.html" xlink:title="client" target="_top">
<polygon fill="#ffffff" stroke="transparent" points="8,-186.2 8,-313.2 203,-313.2 203,-186.2 8,-186.2"/>
<polygon fill="#f5f5f5" stroke="transparent" points="8.5,-289.7 8.5,-312.7 203.5,-312.7 203.5,-289.7 8.5,-289.7"/>
<polygon fill="none" stroke="#000000" points="8.5,-289.7 8.5,-312.7 203.5,-312.7 203.5,-289.7 8.5,-289.7"/>
<text text-anchor="start" x="13.5" y="-298.8" font-family="Helvetica,sans-Serif" font-weight="bold" font-size="11.00" fill="#000000">client</text>
<text text-anchor="start" x="168.5437" y="-297.8" font-family="Helvetica,sans-Serif" font-size="11.00" fill="#000000">[table]</text>
<polygon fill="none" stroke="#000000" points="8.5,-267.7 8.5,-289.7 203.5,-289.7 203.5,-267.7 8.5,-267.7"/>
<image xlink:href="../../images/primaryKeys.png" width="11px" height="12px" preserveAspectRatio="xMinYMin meet" x="13.5" y="-284.7"/>
<text text-anchor="start" x="28.5" y="-274.8" font-family="Helvetica,sans-Serif" font-size="11.00" fill="#000000">id</text>
<polygon fill="#ffffff" stroke="transparent" points="8.5,-245.7 8.5,-267.7 203.5,-267.7 203.5,-245.7 8.5,-245.7"/>
<polygon fill="none" stroke="#000000" points="8.5,-245.7 8.5,-267.7 203.5,-267.7 203.5,-245.7 8.5,-245.7"/>
<image xlink:href="../../images/foreignKeys.png" width="11px" height="12px" preserveAspectRatio="xMinYMin meet" x="13.5" y="-262.7"/>
<text text-anchor="start" x="28.5" y="-252.8" font-family="Helvetica,sans-Serif" font-size="11.00" fill="#000000">client_id</text>
<polygon fill="#ffffff" stroke="transparent" points="8.5,-223.7 8.5,-245.7 203.5,-245.7 203.5,-223.7 8.5,-223.7"/>
<polygon fill="none" stroke="#000000" points="8.5,-223.7 8.5,-245.7 203.5,-245.7 203.5,-223.7 8.5,-223.7"/>
<image xlink:href="../../images/foreignKeys.png" width="11px" height="12px" preserveAspectRatio="xMinYMin meet" x="13.5" y="-240.7"/>
<text text-anchor="start" x="28.5" y="-230.8" font-family="Helvetica,sans-Serif" font-size="11.00" fill="#000000">realm_id</text>
<polygon fill="none" stroke="#000000" points="8.5,-204.7 8.5,-223.7 203.5,-223.7 203.5,-204.7 8.5,-204.7"/>
<text text-anchor="start" x="11.5" y="-210.8" font-family="Helvetica,sans-Serif" font-size="11.00" fill="#000000">...</text>
<polygon fill="#ffffff" stroke="transparent" points="8.5,-185.7 8.5,-204.7 86.5,-204.7 86.5,-185.7 8.5,-185.7"/>
<polygon fill="none" stroke="#000000" points="8.5,-185.7 8.5,-204.7 86.5,-204.7 86.5,-185.7 8.5,-185.7"/>
<text text-anchor="start" x="11.5" y="-191.8" font-family="Helvetica,sans-Serif" font-size="11.00" fill="#000000">&lt; 1</text>
<polygon fill="#ffffff" stroke="transparent" points="86.5,-185.7 86.5,-204.7 153.5,-204.7 153.5,-185.7 86.5,-185.7"/>
<polygon fill="none" stroke="#000000" points="86.5,-185.7 86.5,-204.7 153.5,-204.7 153.5,-185.7 86.5,-185.7"/>
<text text-anchor="start" x="118.1105" y="-191.8" font-family="Helvetica,sans-Serif" font-size="11.00" fill="#000000">6 rows</text>
<polygon fill="#ffffff" stroke="transparent" points="153.5,-185.7 153.5,-204.7 203.5,-204.7 203.5,-185.7 153.5,-185.7"/>
<polygon fill="none" stroke="#000000" points="153.5,-185.7 153.5,-204.7 203.5,-204.7 203.5,-185.7 153.5,-185.7"/>
<text text-anchor="start" x="184.9053" y="-191.8" font-family="Helvetica,sans-Serif" font-size="11.00" fill="#000000">8 &gt;</text>
</a>
</g>
</g>
<!-- protocol_mapper&#45;&gt;client -->
<g id="edge1" class="edge">
<title>protocol_mapper:w&#45;&gt;client:e</title>
<path fill="none" stroke="#000000" d="M239.9816,-220.6435C223.738,-235.4952 233.2175,-278.7 203.5,-278.7"/>
<polygon fill="#000000" stroke="#000000" points="246.4554,-218.3606 255.1973,-219.0951 250.2277,-217.0303 254,-215.7 254,-215.7 254,-215.7 250.2277,-217.0303 252.8027,-212.3049 246.4554,-218.3606 246.4554,-218.3606"/>
<ellipse fill="none" stroke="#000000" cx="243.4375" cy="-219.4248" rx="3.2" ry="3.2"/>
</g>
<!-- client_scope -->
<g id="node3" class="node">
<title>client_scope</title>
<g id="a_node3"><a xlink:href="../../tables/client_scope.html" xlink:title="client_scope" target="_top">
<polygon fill="#ffffff" stroke="transparent" points="53.5,-38.2 53.5,-165.2 157.5,-165.2 157.5,-38.2 53.5,-38.2"/>
<polygon fill="#f5f5f5" stroke="transparent" points="53.5,-141.7 53.5,-164.7 157.5,-164.7 157.5,-141.7 53.5,-141.7"/>
<polygon fill="none" stroke="#000000" points="53.5,-141.7 53.5,-164.7 157.5,-164.7 157.5,-141.7 53.5,-141.7"/>
<text text-anchor="start" x="58.436" y="-150.8" font-family="Helvetica,sans-Serif" font-weight="bold" font-size="11.00" fill="#000000">client_scope</text>
<text text-anchor="start" x="123.0219" y="-149.8" font-family="Helvetica,sans-Serif" font-size="11.00" fill="#000000">[table]</text>
<polygon fill="none" stroke="#000000" points="53.5,-119.7 53.5,-141.7 157.5,-141.7 157.5,-119.7 53.5,-119.7"/>
<image xlink:href="../../images/primaryKeys.png" width="11px" height="12px" preserveAspectRatio="xMinYMin meet" x="58.5" y="-136.7"/>
<text text-anchor="start" x="79.5" y="-126.8" font-family="Helvetica,sans-Serif" font-size="11.00" fill="#000000">id</text>
<polygon fill="#ffffff" stroke="transparent" points="53.5,-97.7 53.5,-119.7 157.5,-119.7 157.5,-97.7 53.5,-97.7"/>
<polygon fill="none" stroke="#000000" points="53.5,-97.7 53.5,-119.7 157.5,-119.7 157.5,-97.7 53.5,-97.7"/>
<text text-anchor="start" x="79.5" y="-104.8" font-family="Helvetica,sans-Serif" font-size="11.00" fill="#000000">name</text>
<polygon fill="#ffffff" stroke="transparent" points="53.5,-75.7 53.5,-97.7 157.5,-97.7 157.5,-75.7 53.5,-75.7"/>
<polygon fill="none" stroke="#000000" points="53.5,-75.7 53.5,-97.7 157.5,-97.7 157.5,-75.7 53.5,-75.7"/>
<image xlink:href="../../images/foreignKeys.png" width="11px" height="12px" preserveAspectRatio="xMinYMin meet" x="58.5" y="-92.7"/>
<text text-anchor="start" x="79.5" y="-82.8" font-family="Helvetica,sans-Serif" font-size="11.00" fill="#000000">realm_id</text>
<polygon fill="none" stroke="#000000" points="53.5,-56.7 53.5,-75.7 157.5,-75.7 157.5,-56.7 53.5,-56.7"/>
<text text-anchor="start" x="56.5" y="-62.8" font-family="Helvetica,sans-Serif" font-size="11.00" fill="#000000">...</text>
<polygon fill="#ffffff" stroke="transparent" points="53.5,-37.7 53.5,-56.7 86.5,-56.7 86.5,-37.7 53.5,-37.7"/>
<polygon fill="none" stroke="#000000" points="53.5,-37.7 53.5,-56.7 86.5,-56.7 86.5,-37.7 53.5,-37.7"/>
<text text-anchor="start" x="56.5" y="-43.8" font-family="Helvetica,sans-Serif" font-size="11.00" fill="#000000">&lt; 1</text>
<polygon fill="#ffffff" stroke="transparent" points="86.5,-37.7 86.5,-56.7 130.5,-56.7 130.5,-37.7 86.5,-37.7"/>
<polygon fill="none" stroke="#000000" points="86.5,-37.7 86.5,-56.7 130.5,-56.7 130.5,-37.7 86.5,-37.7"/>
<text text-anchor="start" x="95.1105" y="-43.8" font-family="Helvetica,sans-Serif" font-size="11.00" fill="#000000">9 rows</text>
<polygon fill="#ffffff" stroke="transparent" points="130.5,-37.7 130.5,-56.7 157.5,-56.7 157.5,-37.7 130.5,-37.7"/>
<polygon fill="none" stroke="#000000" points="130.5,-37.7 130.5,-56.7 157.5,-56.7 157.5,-37.7 130.5,-37.7"/>
<text text-anchor="start" x="138.9053" y="-43.8" font-family="Helvetica,sans-Serif" font-size="11.00" fill="#000000">5 &gt;</text>
</a>
</g>
</g>
<!-- protocol_mapper&#45;&gt;client_scope -->
<g id="edge2" class="edge">
<title>protocol_mapper:w&#45;&gt;client_scope:e</title>
<path fill="none" stroke="#000000" d="M239.5671,-191.7455C203.3973,-181.1117 203.3176,-130.7 157.5,-130.7"/>
<polygon fill="#000000" stroke="#000000" points="246.0724,-192.6264 253.5169,-197.2674 250.0362,-193.1632 254,-193.7 254,-193.7 254,-193.7 250.0362,-193.1632 254.4831,-190.1326 246.0724,-192.6264 246.0724,-192.6264"/>
<ellipse fill="none" stroke="#000000" cx="242.9013" cy="-192.1969" rx="3.2" ry="3.2"/>
</g>
<!-- protocol_mapper_config -->
<g id="node4" class="node">
<title>protocol_mapper_config</title>
<g id="a_node4"><a xlink:href="../../tables/protocol_mapper_config.html" xlink:title="protocol_mapper_config" target="_top">
<polygon fill="#ffffff" stroke="transparent" points="529,-233.2 529,-338.2 690,-338.2 690,-233.2 529,-233.2"/>
<polygon fill="#f5f5f5" stroke="transparent" points="529.5,-314.7 529.5,-337.7 690.5,-337.7 690.5,-314.7 529.5,-314.7"/>
<polygon fill="none" stroke="#000000" points="529.5,-314.7 529.5,-337.7 690.5,-337.7 690.5,-314.7 529.5,-314.7"/>
<text text-anchor="start" x="534.5" y="-323.8" font-family="Helvetica,sans-Serif" font-weight="bold" font-size="11.00" fill="#000000">protocol_mapper_config</text>
<text text-anchor="start" x="656.0219" y="-322.8" font-family="Helvetica,sans-Serif" font-size="11.00" fill="#000000">[table]</text>
<polygon fill="none" stroke="#000000" points="529.5,-292.7 529.5,-314.7 690.5,-314.7 690.5,-292.7 529.5,-292.7"/>
<image xlink:href="../../images/primaryKeys.png" width="11px" height="12px" preserveAspectRatio="xMinYMin meet" x="534.5" y="-309.7"/>
<text text-anchor="start" x="549.5" y="-299.8" font-family="Helvetica,sans-Serif" font-size="11.00" fill="#000000">protocol_mapper_id</text>
<polygon fill="none" stroke="#000000" points="529.5,-270.7 529.5,-292.7 690.5,-292.7 690.5,-270.7 529.5,-270.7"/>
<image xlink:href="../../images/primaryKeys.png" width="11px" height="12px" preserveAspectRatio="xMinYMin meet" x="534.5" y="-287.7"/>
<text text-anchor="start" x="549.5" y="-277.8" font-family="Helvetica,sans-Serif" font-size="11.00" fill="#000000">name</text>
<polygon fill="none" stroke="#000000" points="529.5,-251.7 529.5,-270.7 690.5,-270.7 690.5,-251.7 529.5,-251.7"/>
<text text-anchor="start" x="532.5" y="-257.8" font-family="Helvetica,sans-Serif" font-size="11.00" fill="#000000">...</text>
<polygon fill="#ffffff" stroke="transparent" points="529.5,-232.7 529.5,-251.7 589.5,-251.7 589.5,-232.7 529.5,-232.7"/>
<polygon fill="none" stroke="#000000" points="529.5,-232.7 529.5,-251.7 589.5,-251.7 589.5,-232.7 529.5,-232.7"/>
<text text-anchor="start" x="532.5" y="-238.8" font-family="Helvetica,sans-Serif" font-size="11.00" fill="#000000">&lt; 1</text>
<polygon fill="#ffffff" stroke="transparent" points="589.5,-232.7 589.5,-251.7 658.5,-251.7 658.5,-232.7 589.5,-232.7"/>
<polygon fill="none" stroke="#000000" points="589.5,-232.7 589.5,-251.7 658.5,-251.7 658.5,-232.7 589.5,-232.7"/>
<text text-anchor="start" x="610.8807" y="-238.8" font-family="Helvetica,sans-Serif" font-size="11.00" fill="#000000">145 rows</text>
<polygon fill="#ffffff" stroke="transparent" points="658.5,-232.7 658.5,-251.7 690.5,-251.7 690.5,-232.7 658.5,-232.7"/>
<polygon fill="none" stroke="#000000" points="658.5,-232.7 658.5,-251.7 690.5,-251.7 690.5,-232.7 658.5,-232.7"/>
<text text-anchor="start" x="681.3862" y="-238.8" font-family="Helvetica,sans-Serif" font-size="11.00" fill="#000000"> &#160;</text>
</a>
</g>
</g>
<!-- protocol_mapper_config&#45;&gt;protocol_mapper -->
<g id="edge3" class="edge">
<title>protocol_mapper_config:w&#45;&gt;protocol_mapper:e</title>
<path fill="none" stroke="#000000" d="M515.0156,-303.7C502.6771,-303.7 495.1667,-303.7 478,-303.7"/>
<polygon fill="#000000" stroke="#000000" points="521.5,-303.7001 529.5,-307.3 525.5,-303.7 529.5,-303.7 529.5,-303.7 529.5,-303.7 525.5,-303.7 529.5,-300.1 521.5,-303.7001 521.5,-303.7001"/>
<ellipse fill="none" stroke="#000000" cx="518.3" cy="-303.7001" rx="3.2" ry="3.2"/>
</g>
</g>
</svg>
