<?xml version="1.0" encoding="UTF-8" standalone="no"?>
<!DOCTYPE svg PUBLIC "-//W3C//DTD SVG 1.1//EN"
 "http://www.w3.org/Graphics/SVG/1.1/DTD/svg11.dtd">
<!-- Generated by graphviz version 2.40.1 (20161225.0304)
 -->
<!-- Title: oneDegreeRelationshipsDiagram Pages: 1 -->
<svg width="485pt" height="179pt"
 viewBox="0.00 0.00 485.00 178.70" xmlns="http://www.w3.org/2000/svg" xmlns:xlink="http://www.w3.org/1999/xlink">
<g id="graph0" class="graph" transform="scale(1 1) rotate(0) translate(4 174.7)">
<title>oneDegreeRelationshipsDiagram</title>
<polygon fill="#ffffff" stroke="transparent" points="-4,4 -4,-174.7 481,-174.7 481,4 -4,4"/>
<text text-anchor="middle" x="72.4936" y="-7.3" font-family="Helvetica,sans-Serif" font-size="11.00" fill="#000000">Generated by SchemaSpy</text>
<!-- protocol_mapper_config -->
<g id="node1" class="node">
<title>protocol_mapper_config</title>
<g id="a_node1"><a xlink:href="../../tables/protocol_mapper_config.html" xlink:title="protocol_mapper_config" target="_top">
<polygon fill="#ffffff" stroke="transparent" points="214,-54.7 214,-166.7 469,-166.7 469,-54.7 214,-54.7"/>
<polygon fill="#f5f5f5" stroke="transparent" points="216.5,-141.7 216.5,-164.7 467.5,-164.7 467.5,-141.7 216.5,-141.7"/>
<polygon fill="none" stroke="#000000" points="216.5,-141.7 216.5,-164.7 467.5,-164.7 467.5,-141.7 216.5,-141.7"/>
<text text-anchor="start" x="221.5" y="-150.8" font-family="Helvetica,sans-Serif" font-weight="bold" font-size="11.00" fill="#000000">protocol_mapper_config</text>
<text text-anchor="start" x="432.5437" y="-149.8" font-family="Helvetica,sans-Serif" font-size="11.00" fill="#000000">[table]</text>
<polygon fill="none" stroke="#000000" points="216.5,-119.7 216.5,-141.7 377.5,-141.7 377.5,-119.7 216.5,-119.7"/>
<image xlink:href="../../images/primaryKeys.png" width="11px" height="12px" preserveAspectRatio="xMinYMin meet" x="221.5" y="-136.7"/>
<text text-anchor="start" x="236.5" y="-126.8" font-family="Helvetica,sans-Serif" font-size="11.00" fill="#000000">protocol_mapper_id</text>
<polygon fill="none" stroke="#000000" points="377.5,-119.7 377.5,-141.7 467.5,-141.7 467.5,-119.7 377.5,-119.7"/>
<text text-anchor="start" x="380.5" y="-127.4" font-family="Helvetica,sans-Serif" font-size="11.00" fill="#000000">varchar[36]</text>
<polygon fill="none" stroke="#000000" points="216.5,-97.7 216.5,-119.7 377.5,-119.7 377.5,-97.7 216.5,-97.7"/>
<text text-anchor="start" x="236.5" y="-104.8" font-family="Helvetica,sans-Serif" font-size="11.00" fill="#000000">value</text>
<polygon fill="none" stroke="#000000" points="377.5,-97.7 377.5,-119.7 467.5,-119.7 467.5,-97.7 377.5,-97.7"/>
<text text-anchor="start" x="380.0043" y="-105.4" font-family="Helvetica,sans-Serif" font-size="11.00" fill="#000000">text[2147483647]</text>
<polygon fill="none" stroke="#000000" points="216.5,-75.7 216.5,-97.7 377.5,-97.7 377.5,-75.7 216.5,-75.7"/>
<image xlink:href="../../images/primaryKeys.png" width="11px" height="12px" preserveAspectRatio="xMinYMin meet" x="221.5" y="-92.7"/>
<text text-anchor="start" x="236.5" y="-82.8" font-family="Helvetica,sans-Serif" font-size="11.00" fill="#000000">name</text>
<polygon fill="none" stroke="#000000" points="377.5,-75.7 377.5,-97.7 467.5,-97.7 467.5,-75.7 377.5,-75.7"/>
<text text-anchor="start" x="380.5" y="-83.4" font-family="Helvetica,sans-Serif" font-size="11.00" fill="#000000">varchar[255]</text>
<polygon fill="#ffffff" stroke="transparent" points="216.5,-56.7 216.5,-75.7 282.5,-75.7 282.5,-56.7 216.5,-56.7"/>
<polygon fill="none" stroke="#000000" points="216.5,-56.7 216.5,-75.7 282.5,-75.7 282.5,-56.7 216.5,-56.7"/>
<text text-anchor="start" x="219.5" y="-62.8" font-family="Helvetica,sans-Serif" font-size="11.00" fill="#000000">&lt; 1</text>
<polygon fill="#ffffff" stroke="transparent" points="282.5,-56.7 282.5,-75.7 377.5,-75.7 377.5,-56.7 282.5,-56.7"/>
<polygon fill="none" stroke="#000000" points="282.5,-56.7 282.5,-75.7 377.5,-75.7 377.5,-56.7 282.5,-56.7"/>
<text text-anchor="start" x="329.8807" y="-62.8" font-family="Helvetica,sans-Serif" font-size="11.00" fill="#000000">145 rows</text>
<polygon fill="#ffffff" stroke="transparent" points="377.5,-56.7 377.5,-75.7 467.5,-75.7 467.5,-56.7 377.5,-56.7"/>
<polygon fill="none" stroke="#000000" points="377.5,-56.7 377.5,-75.7 467.5,-75.7 467.5,-56.7 377.5,-56.7"/>
<text text-anchor="start" x="448.9053" y="-62.8" font-family="Helvetica,sans-Serif" font-size="11.00" fill="#000000">0 &gt;</text>
<polygon fill="none" stroke="#000000" stroke-width="2" points="215,-55.7 215,-165.7 468,-165.7 468,-55.7 215,-55.7"/>
</a>
</g>
</g>
<!-- protocol_mapper -->
<g id="node2" class="node">
<title>protocol_mapper</title>
<g id="a_node2"><a xlink:href="../../tables/protocol_mapper.html" xlink:title="protocol_mapper" target="_top">
<polygon fill="#ffffff" stroke="transparent" points="8,-38.2 8,-165.2 165,-165.2 165,-38.2 8,-38.2"/>
<polygon fill="#f5f5f5" stroke="transparent" points="8.5,-141.7 8.5,-164.7 165.5,-164.7 165.5,-141.7 8.5,-141.7"/>
<polygon fill="none" stroke="#000000" points="8.5,-141.7 8.5,-164.7 165.5,-164.7 165.5,-141.7 8.5,-141.7"/>
<text text-anchor="start" x="13.5" y="-150.8" font-family="Helvetica,sans-Serif" font-weight="bold" font-size="11.00" fill="#000000">protocol_mapper</text>
<text text-anchor="start" x="130.5437" y="-149.8" font-family="Helvetica,sans-Serif" font-size="11.00" fill="#000000">[table]</text>
<polygon fill="none" stroke="#000000" points="8.5,-119.7 8.5,-141.7 165.5,-141.7 165.5,-119.7 8.5,-119.7"/>
<image xlink:href="../../images/primaryKeys.png" width="11px" height="12px" preserveAspectRatio="xMinYMin meet" x="13.5" y="-136.7"/>
<text text-anchor="start" x="28.5" y="-126.8" font-family="Helvetica,sans-Serif" font-size="11.00" fill="#000000">id</text>
<polygon fill="#ffffff" stroke="transparent" points="8.5,-97.7 8.5,-119.7 165.5,-119.7 165.5,-97.7 8.5,-97.7"/>
<polygon fill="none" stroke="#000000" points="8.5,-97.7 8.5,-119.7 165.5,-119.7 165.5,-97.7 8.5,-97.7"/>
<image xlink:href="../../images/foreignKeys.png" width="11px" height="12px" preserveAspectRatio="xMinYMin meet" x="13.5" y="-114.7"/>
<text text-anchor="start" x="28.5" y="-104.8" font-family="Helvetica,sans-Serif" font-size="11.00" fill="#000000">client_id</text>
<polygon fill="#ffffff" stroke="transparent" points="8.5,-75.7 8.5,-97.7 165.5,-97.7 165.5,-75.7 8.5,-75.7"/>
<polygon fill="none" stroke="#000000" points="8.5,-75.7 8.5,-97.7 165.5,-97.7 165.5,-75.7 8.5,-75.7"/>
<image xlink:href="../../images/foreignKeys.png" width="11px" height="12px" preserveAspectRatio="xMinYMin meet" x="13.5" y="-92.7"/>
<text text-anchor="start" x="28.5" y="-82.8" font-family="Helvetica,sans-Serif" font-size="11.00" fill="#000000">client_scope_id</text>
<polygon fill="none" stroke="#000000" points="8.5,-56.7 8.5,-75.7 165.5,-75.7 165.5,-56.7 8.5,-56.7"/>
<text text-anchor="start" x="11.5" y="-62.8" font-family="Helvetica,sans-Serif" font-size="11.00" fill="#000000">...</text>
<polygon fill="#ffffff" stroke="transparent" points="8.5,-37.7 8.5,-56.7 64.5,-56.7 64.5,-37.7 8.5,-37.7"/>
<polygon fill="none" stroke="#000000" points="8.5,-37.7 8.5,-56.7 64.5,-56.7 64.5,-37.7 8.5,-37.7"/>
<text text-anchor="start" x="11.5" y="-43.8" font-family="Helvetica,sans-Serif" font-size="11.00" fill="#000000">&lt; 2</text>
<polygon fill="#ffffff" stroke="transparent" points="64.5,-37.7 64.5,-56.7 126.5,-56.7 126.5,-37.7 64.5,-37.7"/>
<polygon fill="none" stroke="#000000" points="64.5,-37.7 64.5,-56.7 126.5,-56.7 126.5,-37.7 64.5,-37.7"/>
<text text-anchor="start" x="84.9956" y="-43.8" font-family="Helvetica,sans-Serif" font-size="11.00" fill="#000000">28 rows</text>
<polygon fill="#ffffff" stroke="transparent" points="126.5,-37.7 126.5,-56.7 165.5,-56.7 165.5,-37.7 126.5,-37.7"/>
<polygon fill="none" stroke="#000000" points="126.5,-37.7 126.5,-56.7 165.5,-56.7 165.5,-37.7 126.5,-37.7"/>
<text text-anchor="start" x="146.9053" y="-43.8" font-family="Helvetica,sans-Serif" font-size="11.00" fill="#000000">1 &gt;</text>
</a>
</g>
</g>
<!-- protocol_mapper_config&#45;&gt;protocol_mapper -->
<g id="edge1" class="edge">
<title>protocol_mapper_config:w&#45;&gt;protocol_mapper:e</title>
<path fill="none" stroke="#000000" d="M201.776,-130.7C189.7815,-130.7 182.3229,-130.7 165.5,-130.7"/>
<polygon fill="#000000" stroke="#000000" points="208.5,-130.7001 216.5,-134.3 212.5,-130.7 216.5,-130.7 216.5,-130.7 216.5,-130.7 212.5,-130.7 216.5,-127.1 208.5,-130.7001 208.5,-130.7001"/>
<ellipse fill="none" stroke="#000000" cx="205.3" cy="-130.7001" rx="3.2" ry="3.2"/>
</g>
</g>
</svg>
