<?xml version="1.0" encoding="UTF-8" standalone="no"?>
<!DOCTYPE svg PUBLIC "-//W3C//DTD SVG 1.1//EN"
 "http://www.w3.org/Graphics/SVG/1.1/DTD/svg11.dtd">
<!-- Generated by graphviz version 2.40.1 (20161225.0304)
 -->
<!-- Title: twoDegreesRelationshipsDiagram Pages: 1 -->
<svg width="638pt" height="193pt"
 viewBox="0.00 0.00 638.00 193.20" xmlns="http://www.w3.org/2000/svg" xmlns:xlink="http://www.w3.org/1999/xlink">
<g id="graph0" class="graph" transform="scale(1 1) rotate(0) translate(4 189.2)">
<title>twoDegreesRelationshipsDiagram</title>
<polygon fill="#ffffff" stroke="transparent" points="-4,4 -4,-189.2 634,-189.2 634,4 -4,4"/>
<text text-anchor="middle" x="72.4936" y="-7.3" font-family="Helvetica,sans-Serif" font-size="11.00" fill="#000000">Generated by SchemaSpy</text>
<!-- protocol_mapper -->
<g id="node1" class="node">
<title>protocol_mapper</title>
<g id="a_node1"><a xlink:href="../../tables/protocol_mapper.html" xlink:title="protocol_mapper" target="_top">
<polygon fill="#ffffff" stroke="transparent" points="161,-47.2 161,-174.2 318,-174.2 318,-47.2 161,-47.2"/>
<polygon fill="#f5f5f5" stroke="transparent" points="161.5,-150.7 161.5,-173.7 318.5,-173.7 318.5,-150.7 161.5,-150.7"/>
<polygon fill="none" stroke="#000000" points="161.5,-150.7 161.5,-173.7 318.5,-173.7 318.5,-150.7 161.5,-150.7"/>
<text text-anchor="start" x="166.5" y="-159.8" font-family="Helvetica,sans-Serif" font-weight="bold" font-size="11.00" fill="#000000">protocol_mapper</text>
<text text-anchor="start" x="283.5437" y="-158.8" font-family="Helvetica,sans-Serif" font-size="11.00" fill="#000000">[table]</text>
<polygon fill="none" stroke="#000000" points="161.5,-128.7 161.5,-150.7 318.5,-150.7 318.5,-128.7 161.5,-128.7"/>
<image xlink:href="../../images/primaryKeys.png" width="11px" height="12px" preserveAspectRatio="xMinYMin meet" x="166.5" y="-145.7"/>
<text text-anchor="start" x="181.5" y="-135.8" font-family="Helvetica,sans-Serif" font-size="11.00" fill="#000000">id</text>
<polygon fill="#ffffff" stroke="transparent" points="161.5,-106.7 161.5,-128.7 318.5,-128.7 318.5,-106.7 161.5,-106.7"/>
<polygon fill="none" stroke="#000000" points="161.5,-106.7 161.5,-128.7 318.5,-128.7 318.5,-106.7 161.5,-106.7"/>
<image xlink:href="../../images/foreignKeys.png" width="11px" height="12px" preserveAspectRatio="xMinYMin meet" x="166.5" y="-123.7"/>
<text text-anchor="start" x="181.5" y="-113.8" font-family="Helvetica,sans-Serif" font-size="11.00" fill="#000000">client_id</text>
<polygon fill="#ffffff" stroke="transparent" points="161.5,-84.7 161.5,-106.7 318.5,-106.7 318.5,-84.7 161.5,-84.7"/>
<polygon fill="none" stroke="#000000" points="161.5,-84.7 161.5,-106.7 318.5,-106.7 318.5,-84.7 161.5,-84.7"/>
<image xlink:href="../../images/foreignKeys.png" width="11px" height="12px" preserveAspectRatio="xMinYMin meet" x="166.5" y="-101.7"/>
<text text-anchor="start" x="181.5" y="-91.8" font-family="Helvetica,sans-Serif" font-size="11.00" fill="#000000">client_scope_id</text>
<polygon fill="none" stroke="#000000" points="161.5,-65.7 161.5,-84.7 318.5,-84.7 318.5,-65.7 161.5,-65.7"/>
<text text-anchor="start" x="164.5" y="-71.8" font-family="Helvetica,sans-Serif" font-size="11.00" fill="#000000">...</text>
<polygon fill="#ffffff" stroke="transparent" points="161.5,-46.7 161.5,-65.7 217.5,-65.7 217.5,-46.7 161.5,-46.7"/>
<polygon fill="none" stroke="#000000" points="161.5,-46.7 161.5,-65.7 217.5,-65.7 217.5,-46.7 161.5,-46.7"/>
<text text-anchor="start" x="164.5" y="-52.8" font-family="Helvetica,sans-Serif" font-size="11.00" fill="#000000">&lt; 2</text>
<polygon fill="#ffffff" stroke="transparent" points="217.5,-46.7 217.5,-65.7 279.5,-65.7 279.5,-46.7 217.5,-46.7"/>
<polygon fill="none" stroke="#000000" points="217.5,-46.7 217.5,-65.7 279.5,-65.7 279.5,-46.7 217.5,-46.7"/>
<text text-anchor="start" x="237.9956" y="-52.8" font-family="Helvetica,sans-Serif" font-size="11.00" fill="#000000">28 rows</text>
<polygon fill="#ffffff" stroke="transparent" points="279.5,-46.7 279.5,-65.7 318.5,-65.7 318.5,-46.7 279.5,-46.7"/>
<polygon fill="none" stroke="#000000" points="279.5,-46.7 279.5,-65.7 318.5,-65.7 318.5,-46.7 279.5,-46.7"/>
<text text-anchor="start" x="299.9053" y="-52.8" font-family="Helvetica,sans-Serif" font-size="11.00" fill="#000000">1 &gt;</text>
</a>
</g>
</g>
<!-- client -->
<g id="node2" class="node">
<title>client</title>
<g id="a_node2"><a xlink:href="../../tables/client.html" xlink:title="client" target="_top">
<polygon fill="#ffffff" stroke="transparent" points="20,-120.2 20,-181.2 100,-181.2 100,-120.2 20,-120.2"/>
<polygon fill="#f5f5f5" stroke="transparent" points="20,-157.7 20,-180.7 100,-180.7 100,-157.7 20,-157.7"/>
<polygon fill="none" stroke="#000000" points="20,-157.7 20,-180.7 100,-180.7 100,-157.7 20,-157.7"/>
<text text-anchor="start" x="25" y="-166.8" font-family="Helvetica,sans-Serif" font-weight="bold" font-size="11.00" fill="#000000">client</text>
<text text-anchor="start" x="65.0437" y="-165.8" font-family="Helvetica,sans-Serif" font-size="11.00" fill="#000000">[table]</text>
<polygon fill="none" stroke="#000000" points="20,-138.7 20,-157.7 100,-157.7 100,-138.7 20,-138.7"/>
<text text-anchor="start" x="23" y="-144.8" font-family="Helvetica,sans-Serif" font-size="11.00" fill="#000000">...</text>
<polygon fill="#ffffff" stroke="transparent" points="20,-119.7 20,-138.7 41,-138.7 41,-119.7 20,-119.7"/>
<polygon fill="none" stroke="#000000" points="20,-119.7 20,-138.7 41,-138.7 41,-119.7 20,-119.7"/>
<text text-anchor="start" x="22.7026" y="-125.8" font-family="Helvetica,sans-Serif" font-size="11.00" fill="#000000">&lt; 1</text>
<polygon fill="#ffffff" stroke="transparent" points="41,-119.7 41,-138.7 79,-138.7 79,-119.7 41,-119.7"/>
<polygon fill="none" stroke="#000000" points="41,-119.7 41,-138.7 79,-138.7 79,-119.7 41,-119.7"/>
<text text-anchor="start" x="43.8053" y="-125.8" font-family="Helvetica,sans-Serif" font-size="11.00" fill="#000000">6 rows</text>
<polygon fill="#ffffff" stroke="transparent" points="79,-119.7 79,-138.7 100,-138.7 100,-119.7 79,-119.7"/>
<polygon fill="none" stroke="#000000" points="79,-119.7 79,-138.7 100,-138.7 100,-119.7 79,-119.7"/>
<text text-anchor="start" x="81.7027" y="-125.8" font-family="Helvetica,sans-Serif" font-size="11.00" fill="#000000">8 &gt;</text>
</a>
</g>
</g>
<!-- protocol_mapper&#45;&gt;client -->
<g id="edge1" class="edge">
<title>protocol_mapper:w&#45;&gt;client:e</title>
<path fill="none" stroke="#000000" d="M147.1374,-120.4686C129.7891,-127.8953 124.7097,-147.7 100,-147.7"/>
<polygon fill="#000000" stroke="#000000" points="153.6446,-119.2143 162.1814,-121.2349 157.5723,-118.4571 161.5,-117.7 161.5,-117.7 161.5,-117.7 157.5723,-118.4571 160.8186,-114.1651 153.6446,-119.2143 153.6446,-119.2143"/>
<ellipse fill="none" stroke="#000000" cx="150.5025" cy="-119.82" rx="3.2" ry="3.2"/>
</g>
<!-- client_scope -->
<g id="node3" class="node">
<title>client_scope</title>
<g id="a_node3"><a xlink:href="../../tables/client_scope.html" xlink:title="client_scope" target="_top">
<polygon fill="#ffffff" stroke="transparent" points="8,-38.2 8,-99.2 112,-99.2 112,-38.2 8,-38.2"/>
<polygon fill="#f5f5f5" stroke="transparent" points="8,-75.7 8,-98.7 112,-98.7 112,-75.7 8,-75.7"/>
<polygon fill="none" stroke="#000000" points="8,-75.7 8,-98.7 112,-98.7 112,-75.7 8,-75.7"/>
<text text-anchor="start" x="12.9359" y="-84.8" font-family="Helvetica,sans-Serif" font-weight="bold" font-size="11.00" fill="#000000">client_scope</text>
<text text-anchor="start" x="77.5219" y="-83.8" font-family="Helvetica,sans-Serif" font-size="11.00" fill="#000000">[table]</text>
<polygon fill="none" stroke="#000000" points="8,-56.7 8,-75.7 112,-75.7 112,-56.7 8,-56.7"/>
<text text-anchor="start" x="11" y="-62.8" font-family="Helvetica,sans-Serif" font-size="11.00" fill="#000000">...</text>
<polygon fill="#ffffff" stroke="transparent" points="8,-37.7 8,-56.7 41,-56.7 41,-37.7 8,-37.7"/>
<polygon fill="none" stroke="#000000" points="8,-37.7 8,-56.7 41,-56.7 41,-37.7 8,-37.7"/>
<text text-anchor="start" x="11" y="-43.8" font-family="Helvetica,sans-Serif" font-size="11.00" fill="#000000">&lt; 1</text>
<polygon fill="#ffffff" stroke="transparent" points="41,-37.7 41,-56.7 85,-56.7 85,-37.7 41,-37.7"/>
<polygon fill="none" stroke="#000000" points="41,-37.7 41,-56.7 85,-56.7 85,-37.7 41,-37.7"/>
<text text-anchor="start" x="49.6105" y="-43.8" font-family="Helvetica,sans-Serif" font-size="11.00" fill="#000000">9 rows</text>
<polygon fill="#ffffff" stroke="transparent" points="85,-37.7 85,-56.7 112,-56.7 112,-37.7 85,-37.7"/>
<polygon fill="none" stroke="#000000" points="85,-37.7 85,-56.7 112,-56.7 112,-37.7 85,-37.7"/>
<text text-anchor="start" x="93.4053" y="-43.8" font-family="Helvetica,sans-Serif" font-size="11.00" fill="#000000">5 &gt;</text>
</a>
</g>
</g>
<!-- protocol_mapper&#45;&gt;client_scope -->
<g id="edge2" class="edge">
<title>protocol_mapper:w&#45;&gt;client_scope:e</title>
<path fill="none" stroke="#000000" d="M147.633,-91.778C135.238,-83.6462 131.8967,-65.7 112,-65.7"/>
<polygon fill="#000000" stroke="#000000" points="153.802,-93.5227 160.5202,-99.1641 157.651,-94.6114 161.5,-95.7 161.5,-95.7 161.5,-95.7 157.651,-94.6114 162.4798,-92.2359 153.802,-93.5227 153.802,-93.5227"/>
<ellipse fill="none" stroke="#000000" cx="150.7228" cy="-92.6518" rx="3.2" ry="3.2"/>
</g>
<!-- protocol_mapper_config -->
<g id="node4" class="node">
<title>protocol_mapper_config</title>
<g id="a_node4"><a xlink:href="../../tables/protocol_mapper_config.html" xlink:title="protocol_mapper_config" target="_top">
<polygon fill="#ffffff" stroke="transparent" points="367,-63.7 367,-175.7 622,-175.7 622,-63.7 367,-63.7"/>
<polygon fill="#f5f5f5" stroke="transparent" points="369.5,-150.7 369.5,-173.7 620.5,-173.7 620.5,-150.7 369.5,-150.7"/>
<polygon fill="none" stroke="#000000" points="369.5,-150.7 369.5,-173.7 620.5,-173.7 620.5,-150.7 369.5,-150.7"/>
<text text-anchor="start" x="374.5" y="-159.8" font-family="Helvetica,sans-Serif" font-weight="bold" font-size="11.00" fill="#000000">protocol_mapper_config</text>
<text text-anchor="start" x="585.5437" y="-158.8" font-family="Helvetica,sans-Serif" font-size="11.00" fill="#000000">[table]</text>
<polygon fill="none" stroke="#000000" points="369.5,-128.7 369.5,-150.7 530.5,-150.7 530.5,-128.7 369.5,-128.7"/>
<image xlink:href="../../images/primaryKeys.png" width="11px" height="12px" preserveAspectRatio="xMinYMin meet" x="374.5" y="-145.7"/>
<text text-anchor="start" x="389.5" y="-135.8" font-family="Helvetica,sans-Serif" font-size="11.00" fill="#000000">protocol_mapper_id</text>
<polygon fill="none" stroke="#000000" points="530.5,-128.7 530.5,-150.7 620.5,-150.7 620.5,-128.7 530.5,-128.7"/>
<text text-anchor="start" x="533.5" y="-136.4" font-family="Helvetica,sans-Serif" font-size="11.00" fill="#000000">varchar[36]</text>
<polygon fill="none" stroke="#000000" points="369.5,-106.7 369.5,-128.7 530.5,-128.7 530.5,-106.7 369.5,-106.7"/>
<text text-anchor="start" x="389.5" y="-113.8" font-family="Helvetica,sans-Serif" font-size="11.00" fill="#000000">value</text>
<polygon fill="none" stroke="#000000" points="530.5,-106.7 530.5,-128.7 620.5,-128.7 620.5,-106.7 530.5,-106.7"/>
<text text-anchor="start" x="533.0043" y="-114.4" font-family="Helvetica,sans-Serif" font-size="11.00" fill="#000000">text[2147483647]</text>
<polygon fill="none" stroke="#000000" points="369.5,-84.7 369.5,-106.7 530.5,-106.7 530.5,-84.7 369.5,-84.7"/>
<image xlink:href="../../images/primaryKeys.png" width="11px" height="12px" preserveAspectRatio="xMinYMin meet" x="374.5" y="-101.7"/>
<text text-anchor="start" x="389.5" y="-91.8" font-family="Helvetica,sans-Serif" font-size="11.00" fill="#000000">name</text>
<polygon fill="none" stroke="#000000" points="530.5,-84.7 530.5,-106.7 620.5,-106.7 620.5,-84.7 530.5,-84.7"/>
<text text-anchor="start" x="533.5" y="-92.4" font-family="Helvetica,sans-Serif" font-size="11.00" fill="#000000">varchar[255]</text>
<polygon fill="#ffffff" stroke="transparent" points="369.5,-65.7 369.5,-84.7 435.5,-84.7 435.5,-65.7 369.5,-65.7"/>
<polygon fill="none" stroke="#000000" points="369.5,-65.7 369.5,-84.7 435.5,-84.7 435.5,-65.7 369.5,-65.7"/>
<text text-anchor="start" x="372.5" y="-71.8" font-family="Helvetica,sans-Serif" font-size="11.00" fill="#000000">&lt; 1</text>
<polygon fill="#ffffff" stroke="transparent" points="435.5,-65.7 435.5,-84.7 530.5,-84.7 530.5,-65.7 435.5,-65.7"/>
<polygon fill="none" stroke="#000000" points="435.5,-65.7 435.5,-84.7 530.5,-84.7 530.5,-65.7 435.5,-65.7"/>
<text text-anchor="start" x="482.8807" y="-71.8" font-family="Helvetica,sans-Serif" font-size="11.00" fill="#000000">145 rows</text>
<polygon fill="#ffffff" stroke="transparent" points="530.5,-65.7 530.5,-84.7 620.5,-84.7 620.5,-65.7 530.5,-65.7"/>
<polygon fill="none" stroke="#000000" points="530.5,-65.7 530.5,-84.7 620.5,-84.7 620.5,-65.7 530.5,-65.7"/>
<text text-anchor="start" x="601.9053" y="-71.8" font-family="Helvetica,sans-Serif" font-size="11.00" fill="#000000">0 &gt;</text>
<polygon fill="none" stroke="#000000" stroke-width="2" points="368,-64.7 368,-174.7 621,-174.7 621,-64.7 368,-64.7"/>
</a>
</g>
</g>
<!-- protocol_mapper_config&#45;&gt;protocol_mapper -->
<g id="edge3" class="edge">
<title>protocol_mapper_config:w&#45;&gt;protocol_mapper:e</title>
<path fill="none" stroke="#000000" d="M354.776,-139.7C342.7815,-139.7 335.3229,-139.7 318.5,-139.7"/>
<polygon fill="#000000" stroke="#000000" points="361.5,-139.7001 369.5,-143.3 365.5,-139.7 369.5,-139.7 369.5,-139.7 369.5,-139.7 365.5,-139.7 369.5,-136.1 361.5,-139.7001 361.5,-139.7001"/>
<ellipse fill="none" stroke="#000000" cx="358.3" cy="-139.7001" rx="3.2" ry="3.2"/>
</g>
</g>
</svg>
