<?xml version="1.0" encoding="UTF-8" standalone="no"?>
<!DOCTYPE svg PUBLIC "-//W3C//DTD SVG 1.1//EN"
 "http://www.w3.org/Graphics/SVG/1.1/DTD/svg11.dtd">
<!-- Generated by graphviz version 2.40.1 (20161225.0304)
 -->
<!-- Title: oneDegreeRelationshipsDiagram Pages: 1 -->
<svg width="497pt" height="179pt"
 viewBox="0.00 0.00 497.00 178.70" xmlns="http://www.w3.org/2000/svg" xmlns:xlink="http://www.w3.org/1999/xlink">
<g id="graph0" class="graph" transform="scale(1 1) rotate(0) translate(4 174.7)">
<title>oneDegreeRelationshipsDiagram</title>
<polygon fill="#ffffff" stroke="transparent" points="-4,4 -4,-174.7 493,-174.7 493,4 -4,4"/>
<text text-anchor="middle" x="72.4936" y="-7.3" font-family="Helvetica,sans-Serif" font-size="11.00" fill="#000000">Generated by SchemaSpy</text>
<!-- realm_default_groups -->
<g id="node1" class="node">
<title>realm_default_groups</title>
<g id="a_node1"><a xlink:href="../../tables/realm_default_groups.html" xlink:title="realm_default_groups" target="_top">
<polygon fill="#ffffff" stroke="transparent" points="270,-76.7 270,-166.7 481,-166.7 481,-76.7 270,-76.7"/>
<polygon fill="#f5f5f5" stroke="transparent" points="272.5,-141.7 272.5,-164.7 479.5,-164.7 479.5,-141.7 272.5,-141.7"/>
<polygon fill="none" stroke="#000000" points="272.5,-141.7 272.5,-164.7 479.5,-164.7 479.5,-141.7 272.5,-141.7"/>
<text text-anchor="start" x="277.5" y="-150.8" font-family="Helvetica,sans-Serif" font-weight="bold" font-size="11.00" fill="#000000">realm_default_groups</text>
<text text-anchor="start" x="444.5437" y="-149.8" font-family="Helvetica,sans-Serif" font-size="11.00" fill="#000000">[table]</text>
<polygon fill="none" stroke="#000000" points="272.5,-119.7 272.5,-141.7 418.5,-141.7 418.5,-119.7 272.5,-119.7"/>
<image xlink:href="../../images/primaryKeys.png" width="11px" height="12px" preserveAspectRatio="xMinYMin meet" x="277.5" y="-136.7"/>
<text text-anchor="start" x="292.5" y="-126.8" font-family="Helvetica,sans-Serif" font-size="11.00" fill="#000000">realm_id</text>
<polygon fill="none" stroke="#000000" points="418.5,-119.7 418.5,-141.7 479.5,-141.7 479.5,-119.7 418.5,-119.7"/>
<text text-anchor="start" x="421.494" y="-127.4" font-family="Helvetica,sans-Serif" font-size="11.00" fill="#000000">varchar[36]</text>
<polygon fill="none" stroke="#000000" points="272.5,-97.7 272.5,-119.7 418.5,-119.7 418.5,-97.7 272.5,-97.7"/>
<image xlink:href="../../images/primaryKeys.png" width="11px" height="12px" preserveAspectRatio="xMinYMin meet" x="277.5" y="-114.7"/>
<text text-anchor="start" x="292.5" y="-104.8" font-family="Helvetica,sans-Serif" font-size="11.00" fill="#000000">group_id</text>
<polygon fill="none" stroke="#000000" points="418.5,-97.7 418.5,-119.7 479.5,-119.7 479.5,-97.7 418.5,-97.7"/>
<text text-anchor="start" x="421.494" y="-105.4" font-family="Helvetica,sans-Serif" font-size="11.00" fill="#000000">varchar[36]</text>
<polygon fill="#ffffff" stroke="transparent" points="272.5,-78.7 272.5,-97.7 336.5,-97.7 336.5,-78.7 272.5,-78.7"/>
<polygon fill="none" stroke="#000000" points="272.5,-78.7 272.5,-97.7 336.5,-97.7 336.5,-78.7 272.5,-78.7"/>
<text text-anchor="start" x="275.5" y="-84.8" font-family="Helvetica,sans-Serif" font-size="11.00" fill="#000000">&lt; 1</text>
<polygon fill="#ffffff" stroke="transparent" points="336.5,-78.7 336.5,-97.7 418.5,-97.7 418.5,-78.7 336.5,-78.7"/>
<polygon fill="none" stroke="#000000" points="336.5,-78.7 336.5,-97.7 418.5,-97.7 418.5,-78.7 336.5,-78.7"/>
<text text-anchor="start" x="383.1105" y="-84.8" font-family="Helvetica,sans-Serif" font-size="11.00" fill="#000000">0 rows</text>
<polygon fill="#ffffff" stroke="transparent" points="418.5,-78.7 418.5,-97.7 479.5,-97.7 479.5,-78.7 418.5,-78.7"/>
<polygon fill="none" stroke="#000000" points="418.5,-78.7 418.5,-97.7 479.5,-97.7 479.5,-78.7 418.5,-78.7"/>
<text text-anchor="start" x="460.9053" y="-84.8" font-family="Helvetica,sans-Serif" font-size="11.00" fill="#000000">0 &gt;</text>
<polygon fill="none" stroke="#000000" stroke-width="2" points="271,-77.7 271,-165.7 480,-165.7 480,-77.7 271,-77.7"/>
</a>
</g>
</g>
<!-- realm -->
<g id="node2" class="node">
<title>realm</title>
<g id="a_node2"><a xlink:href="../../tables/realm.html" xlink:title="realm" target="_top">
<polygon fill="#ffffff" stroke="transparent" points="8,-38.2 8,-165.2 221,-165.2 221,-38.2 8,-38.2"/>
<polygon fill="#f5f5f5" stroke="transparent" points="8.5,-141.7 8.5,-164.7 221.5,-164.7 221.5,-141.7 8.5,-141.7"/>
<polygon fill="none" stroke="#000000" points="8.5,-141.7 8.5,-164.7 221.5,-164.7 221.5,-141.7 8.5,-141.7"/>
<text text-anchor="start" x="13.5" y="-150.8" font-family="Helvetica,sans-Serif" font-weight="bold" font-size="11.00" fill="#000000">realm</text>
<text text-anchor="start" x="186.5437" y="-149.8" font-family="Helvetica,sans-Serif" font-size="11.00" fill="#000000">[table]</text>
<polygon fill="none" stroke="#000000" points="8.5,-119.7 8.5,-141.7 221.5,-141.7 221.5,-119.7 8.5,-119.7"/>
<image xlink:href="../../images/primaryKeys.png" width="11px" height="12px" preserveAspectRatio="xMinYMin meet" x="13.5" y="-136.7"/>
<text text-anchor="start" x="28.5" y="-126.8" font-family="Helvetica,sans-Serif" font-size="11.00" fill="#000000">id</text>
<polygon fill="#ffffff" stroke="transparent" points="8.5,-97.7 8.5,-119.7 221.5,-119.7 221.5,-97.7 8.5,-97.7"/>
<polygon fill="none" stroke="#000000" points="8.5,-97.7 8.5,-119.7 221.5,-119.7 221.5,-97.7 8.5,-97.7"/>
<text text-anchor="start" x="28.5" y="-104.8" font-family="Helvetica,sans-Serif" font-size="11.00" fill="#000000">name</text>
<polygon fill="#ffffff" stroke="transparent" points="8.5,-75.7 8.5,-97.7 221.5,-97.7 221.5,-75.7 8.5,-75.7"/>
<polygon fill="none" stroke="#000000" points="8.5,-75.7 8.5,-97.7 221.5,-97.7 221.5,-75.7 8.5,-75.7"/>
<text text-anchor="start" x="28.5" y="-82.8" font-family="Helvetica,sans-Serif" font-size="11.00" fill="#000000">master_admin_client</text>
<polygon fill="none" stroke="#000000" points="8.5,-56.7 8.5,-75.7 221.5,-75.7 221.5,-56.7 8.5,-56.7"/>
<text text-anchor="start" x="11.5" y="-62.8" font-family="Helvetica,sans-Serif" font-size="11.00" fill="#000000">...</text>
<polygon fill="#ffffff" stroke="transparent" points="8.5,-37.7 8.5,-56.7 91.5,-56.7 91.5,-37.7 8.5,-37.7"/>
<polygon fill="none" stroke="#000000" points="8.5,-37.7 8.5,-56.7 91.5,-56.7 91.5,-37.7 8.5,-37.7"/>
<text text-anchor="start" x="11.5" y="-43.8" font-family="Helvetica,sans-Serif" font-size="11.00" fill="#000000"> &#160;</text>
<polygon fill="#ffffff" stroke="transparent" points="91.5,-37.7 91.5,-56.7 158.5,-56.7 158.5,-37.7 91.5,-37.7"/>
<polygon fill="none" stroke="#000000" points="91.5,-37.7 91.5,-56.7 158.5,-56.7 158.5,-37.7 91.5,-37.7"/>
<text text-anchor="start" x="128.6105" y="-43.8" font-family="Helvetica,sans-Serif" font-size="11.00" fill="#000000">1 row</text>
<polygon fill="#ffffff" stroke="transparent" points="158.5,-37.7 158.5,-56.7 221.5,-56.7 221.5,-37.7 158.5,-37.7"/>
<polygon fill="none" stroke="#000000" points="158.5,-37.7 158.5,-56.7 221.5,-56.7 221.5,-37.7 158.5,-37.7"/>
<text text-anchor="start" x="196.7904" y="-43.8" font-family="Helvetica,sans-Serif" font-size="11.00" fill="#000000">23 &gt;</text>
</a>
</g>
</g>
<!-- realm_default_groups&#45;&gt;realm -->
<g id="edge1" class="edge">
<title>realm_default_groups:w&#45;&gt;realm:e</title>
<path fill="none" stroke="#000000" d="M257.776,-130.7C245.7815,-130.7 238.3229,-130.7 221.5,-130.7"/>
<polygon fill="#000000" stroke="#000000" points="264.5,-130.7001 272.5,-134.3 268.5,-130.7 272.5,-130.7 272.5,-130.7 272.5,-130.7 268.5,-130.7 272.5,-127.1 264.5,-130.7001 264.5,-130.7001"/>
<ellipse fill="none" stroke="#000000" cx="261.3" cy="-130.7001" rx="3.2" ry="3.2"/>
</g>
</g>
</svg>
