<?xml version="1.0" encoding="UTF-8" standalone="no"?>
<!DOCTYPE svg PUBLIC "-//W3C//DTD SVG 1.1//EN"
 "http://www.w3.org/Graphics/SVG/1.1/DTD/svg11.dtd">
<!-- Generated by graphviz version 2.40.1 (20161225.0304)
 -->
<!-- Title: twoDegreesRelationshipsDiagramImplied Pages: 1 -->
<svg width="598pt" height="715pt"
 viewBox="0.00 0.00 598.00 715.20" xmlns="http://www.w3.org/2000/svg" xmlns:xlink="http://www.w3.org/1999/xlink">
<g id="graph0" class="graph" transform="scale(1 1) rotate(0) translate(4 711.2)">
<title>twoDegreesRelationshipsDiagramImplied</title>
<polygon fill="#ffffff" stroke="transparent" points="-4,4 -4,-711.2 594,-711.2 594,4 -4,4"/>
<text text-anchor="middle" x="72.4936" y="-7.3" font-family="Helvetica,sans-Serif" font-size="11.00" fill="#000000">Generated by SchemaSpy</text>
<!-- client -->
<g id="node1" class="node">
<title>client</title>
<g id="a_node1"><a xlink:href="../../tables/client.html" xlink:title="client" target="_top">
<polygon fill="#ffffff" stroke="transparent" points="173,-290.2 173,-417.2 368,-417.2 368,-290.2 173,-290.2"/>
<polygon fill="#f5f5f5" stroke="transparent" points="173.5,-393.7 173.5,-416.7 368.5,-416.7 368.5,-393.7 173.5,-393.7"/>
<polygon fill="none" stroke="#000000" points="173.5,-393.7 173.5,-416.7 368.5,-416.7 368.5,-393.7 173.5,-393.7"/>
<text text-anchor="start" x="178.5" y="-402.8" font-family="Helvetica,sans-Serif" font-weight="bold" font-size="11.00" fill="#000000">client</text>
<text text-anchor="start" x="333.5437" y="-401.8" font-family="Helvetica,sans-Serif" font-size="11.00" fill="#000000">[table]</text>
<polygon fill="none" stroke="#000000" points="173.5,-371.7 173.5,-393.7 368.5,-393.7 368.5,-371.7 173.5,-371.7"/>
<image xlink:href="../../images/primaryKeys.png" width="11px" height="12px" preserveAspectRatio="xMinYMin meet" x="178.5" y="-388.7"/>
<text text-anchor="start" x="193.5" y="-378.8" font-family="Helvetica,sans-Serif" font-size="11.00" fill="#000000">id</text>
<polygon fill="#ffffff" stroke="transparent" points="173.5,-349.7 173.5,-371.7 368.5,-371.7 368.5,-349.7 173.5,-349.7"/>
<polygon fill="none" stroke="#000000" points="173.5,-349.7 173.5,-371.7 368.5,-371.7 368.5,-349.7 173.5,-349.7"/>
<image xlink:href="../../images/foreignKeys.png" width="11px" height="12px" preserveAspectRatio="xMinYMin meet" x="178.5" y="-366.7"/>
<text text-anchor="start" x="193.5" y="-356.8" font-family="Helvetica,sans-Serif" font-size="11.00" fill="#000000">client_id</text>
<polygon fill="#ffffff" stroke="transparent" points="173.5,-327.7 173.5,-349.7 368.5,-349.7 368.5,-327.7 173.5,-327.7"/>
<polygon fill="none" stroke="#000000" points="173.5,-327.7 173.5,-349.7 368.5,-349.7 368.5,-327.7 173.5,-327.7"/>
<image xlink:href="../../images/foreignKeys.png" width="11px" height="12px" preserveAspectRatio="xMinYMin meet" x="178.5" y="-344.7"/>
<text text-anchor="start" x="193.5" y="-334.8" font-family="Helvetica,sans-Serif" font-size="11.00" fill="#000000">realm_id</text>
<polygon fill="none" stroke="#000000" points="173.5,-308.7 173.5,-327.7 368.5,-327.7 368.5,-308.7 173.5,-308.7"/>
<text text-anchor="start" x="176.5" y="-314.8" font-family="Helvetica,sans-Serif" font-size="11.00" fill="#000000">...</text>
<polygon fill="#ffffff" stroke="transparent" points="173.5,-289.7 173.5,-308.7 251.5,-308.7 251.5,-289.7 173.5,-289.7"/>
<polygon fill="none" stroke="#000000" points="173.5,-289.7 173.5,-308.7 251.5,-308.7 251.5,-289.7 173.5,-289.7"/>
<text text-anchor="start" x="176.5" y="-295.8" font-family="Helvetica,sans-Serif" font-size="11.00" fill="#000000">&lt; 2</text>
<polygon fill="#ffffff" stroke="transparent" points="251.5,-289.7 251.5,-308.7 318.5,-308.7 318.5,-289.7 251.5,-289.7"/>
<polygon fill="none" stroke="#000000" points="251.5,-289.7 251.5,-308.7 318.5,-308.7 318.5,-289.7 251.5,-289.7"/>
<text text-anchor="start" x="283.1105" y="-295.8" font-family="Helvetica,sans-Serif" font-size="11.00" fill="#000000">6 rows</text>
<polygon fill="#ffffff" stroke="transparent" points="318.5,-289.7 318.5,-308.7 368.5,-308.7 368.5,-289.7 318.5,-289.7"/>
<polygon fill="none" stroke="#000000" points="318.5,-289.7 318.5,-308.7 368.5,-308.7 368.5,-289.7 318.5,-289.7"/>
<text text-anchor="start" x="349.9053" y="-295.8" font-family="Helvetica,sans-Serif" font-size="11.00" fill="#000000">8 &gt;</text>
</a>
</g>
</g>
<!-- federated_user -->
<g id="node2" class="node">
<title>federated_user</title>
<g id="a_node2"><a xlink:href="../../tables/federated_user.html" xlink:title="federated_user" target="_top">
<polygon fill="#ffffff" stroke="transparent" points="8,-363.2 8,-424.2 124,-424.2 124,-363.2 8,-363.2"/>
<polygon fill="#f5f5f5" stroke="transparent" points="8,-400.7 8,-423.7 124,-423.7 124,-400.7 8,-400.7"/>
<polygon fill="none" stroke="#000000" points="8,-400.7 8,-423.7 124,-423.7 124,-400.7 8,-400.7"/>
<text text-anchor="start" x="12.5142" y="-409.8" font-family="Helvetica,sans-Serif" font-weight="bold" font-size="11.00" fill="#000000">federated_user</text>
<text text-anchor="start" x="89.5219" y="-408.8" font-family="Helvetica,sans-Serif" font-size="11.00" fill="#000000">[table]</text>
<polygon fill="none" stroke="#000000" points="8,-381.7 8,-400.7 124,-400.7 124,-381.7 8,-381.7"/>
<text text-anchor="start" x="11" y="-387.8" font-family="Helvetica,sans-Serif" font-size="11.00" fill="#000000">...</text>
<polygon fill="#ffffff" stroke="transparent" points="8,-362.7 8,-381.7 39,-381.7 39,-362.7 8,-362.7"/>
<polygon fill="none" stroke="#000000" points="8,-362.7 8,-381.7 39,-381.7 39,-362.7 8,-362.7"/>
<text text-anchor="start" x="11" y="-368.8" font-family="Helvetica,sans-Serif" font-size="11.00" fill="#000000"> &#160;</text>
<polygon fill="#ffffff" stroke="transparent" points="39,-362.7 39,-381.7 87,-381.7 87,-362.7 39,-362.7"/>
<polygon fill="none" stroke="#000000" points="39,-362.7 39,-381.7 87,-381.7 87,-362.7 39,-362.7"/>
<text text-anchor="start" x="51.6105" y="-368.8" font-family="Helvetica,sans-Serif" font-size="11.00" fill="#000000">0 rows</text>
<polygon fill="#ffffff" stroke="transparent" points="87,-362.7 87,-381.7 124,-381.7 124,-362.7 87,-362.7"/>
<polygon fill="none" stroke="#000000" points="87,-362.7 87,-381.7 124,-381.7 124,-362.7 87,-362.7"/>
<text text-anchor="start" x="99.2904" y="-368.8" font-family="Helvetica,sans-Serif" font-size="11.00" fill="#000000">30 &gt;</text>
</a>
</g>
</g>
<!-- client&#45;&gt;federated_user -->
<g id="edge1" class="edge">
<title>client:w&#45;&gt;federated_user:e</title>
<path fill="none" stroke="#000000" stroke-dasharray="5,2" d="M159.633,-364.622C147.238,-372.7538 143.8967,-390.7 124,-390.7"/>
<polygon fill="#000000" stroke="#000000" points="165.802,-362.8773 174.4798,-364.1641 169.651,-361.7886 173.5,-360.7 173.5,-360.7 173.5,-360.7 169.651,-361.7886 172.5202,-357.2359 165.802,-362.8773 165.802,-362.8773"/>
<ellipse fill="none" stroke="#000000" cx="162.7228" cy="-363.7482" rx="3.2" ry="3.2"/>
</g>
<!-- realm -->
<g id="node3" class="node">
<title>realm</title>
<g id="a_node3"><a xlink:href="../../tables/realm.html" xlink:title="realm" target="_top">
<polygon fill="#ffffff" stroke="transparent" points="30.5,-281.2 30.5,-342.2 101.5,-342.2 101.5,-281.2 30.5,-281.2"/>
<polygon fill="#f5f5f5" stroke="transparent" points="31,-318.7 31,-341.7 102,-341.7 102,-318.7 31,-318.7"/>
<polygon fill="none" stroke="#000000" points="31,-318.7 31,-341.7 102,-341.7 102,-318.7 31,-318.7"/>
<text text-anchor="start" x="36" y="-327.8" font-family="Helvetica,sans-Serif" font-weight="bold" font-size="11.00" fill="#000000">realm</text>
<text text-anchor="start" x="67.5219" y="-326.8" font-family="Helvetica,sans-Serif" font-size="11.00" fill="#000000">[table]</text>
<polygon fill="none" stroke="#000000" points="31,-299.7 31,-318.7 102,-318.7 102,-299.7 31,-299.7"/>
<text text-anchor="start" x="34" y="-305.8" font-family="Helvetica,sans-Serif" font-size="11.00" fill="#000000">...</text>
<polygon fill="#ffffff" stroke="transparent" points="31,-280.7 31,-299.7 43,-299.7 43,-280.7 31,-280.7"/>
<polygon fill="none" stroke="#000000" points="31,-280.7 31,-299.7 43,-299.7 43,-280.7 31,-280.7"/>
<text text-anchor="start" x="33.9431" y="-286.8" font-family="Helvetica,sans-Serif" font-size="11.00" fill="#000000"> &#160;</text>
<polygon fill="#ffffff" stroke="transparent" points="43,-280.7 43,-299.7 75,-299.7 75,-280.7 43,-280.7"/>
<polygon fill="none" stroke="#000000" points="43,-280.7 43,-299.7 75,-299.7 75,-280.7 43,-280.7"/>
<text text-anchor="start" x="45.5553" y="-286.8" font-family="Helvetica,sans-Serif" font-size="11.00" fill="#000000">1 row</text>
<polygon fill="#ffffff" stroke="transparent" points="75,-280.7 75,-299.7 102,-299.7 102,-280.7 75,-280.7"/>
<polygon fill="none" stroke="#000000" points="75,-280.7 75,-299.7 102,-299.7 102,-280.7 75,-280.7"/>
<text text-anchor="start" x="77.6452" y="-286.8" font-family="Helvetica,sans-Serif" font-size="11.00" fill="#000000">23 &gt;</text>
</a>
</g>
</g>
<!-- client&#45;&gt;realm -->
<g id="edge2" class="edge">
<title>client:w&#45;&gt;realm:e</title>
<path fill="none" stroke="#000000" d="M159.1338,-336.638C137.3952,-329.8601 130.9424,-308.7 102,-308.7"/>
<polygon fill="#000000" stroke="#000000" points="165.5812,-337.5633 172.9885,-342.2635 169.5406,-338.1317 173.5,-338.7 173.5,-338.7 173.5,-338.7 169.5406,-338.1317 174.0115,-335.1365 165.5812,-337.5633 165.5812,-337.5633"/>
<ellipse fill="none" stroke="#000000" cx="162.4136" cy="-337.1087" rx="3.2" ry="3.2"/>
</g>
<!-- client_attributes -->
<g id="node4" class="node">
<title>client_attributes</title>
<g id="a_node4"><a xlink:href="../../tables/client_attributes.html" xlink:title="client_attributes" target="_top">
<polygon fill="#ffffff" stroke="transparent" points="439.5,-642.2 439.5,-703.2 559.5,-703.2 559.5,-642.2 439.5,-642.2"/>
<polygon fill="#f5f5f5" stroke="transparent" points="439.5,-679.7 439.5,-702.7 559.5,-702.7 559.5,-679.7 439.5,-679.7"/>
<polygon fill="none" stroke="#000000" points="439.5,-679.7 439.5,-702.7 559.5,-702.7 559.5,-679.7 439.5,-679.7"/>
<text text-anchor="start" x="444.4918" y="-688.8" font-family="Helvetica,sans-Serif" font-weight="bold" font-size="11.00" fill="#000000">client_attributes</text>
<text text-anchor="start" x="525.0219" y="-687.8" font-family="Helvetica,sans-Serif" font-size="11.00" fill="#000000">[table]</text>
<polygon fill="none" stroke="#000000" points="439.5,-660.7 439.5,-679.7 559.5,-679.7 559.5,-660.7 439.5,-660.7"/>
<text text-anchor="start" x="442.5" y="-666.8" font-family="Helvetica,sans-Serif" font-size="11.00" fill="#000000">...</text>
<polygon fill="#ffffff" stroke="transparent" points="439.5,-641.7 439.5,-660.7 484.5,-660.7 484.5,-641.7 439.5,-641.7"/>
<polygon fill="none" stroke="#000000" points="439.5,-641.7 439.5,-660.7 484.5,-660.7 484.5,-641.7 439.5,-641.7"/>
<text text-anchor="start" x="442.5" y="-647.8" font-family="Helvetica,sans-Serif" font-size="11.00" fill="#000000">&lt; 1</text>
<polygon fill="#ffffff" stroke="transparent" points="484.5,-641.7 484.5,-660.7 534.5,-660.7 534.5,-641.7 484.5,-641.7"/>
<polygon fill="none" stroke="#000000" points="484.5,-641.7 484.5,-660.7 534.5,-660.7 534.5,-641.7 484.5,-641.7"/>
<text text-anchor="start" x="499.1105" y="-647.8" font-family="Helvetica,sans-Serif" font-size="11.00" fill="#000000">2 rows</text>
<polygon fill="#ffffff" stroke="transparent" points="534.5,-641.7 534.5,-660.7 559.5,-660.7 559.5,-641.7 534.5,-641.7"/>
<polygon fill="none" stroke="#000000" points="534.5,-641.7 534.5,-660.7 559.5,-660.7 559.5,-641.7 534.5,-641.7"/>
<text text-anchor="start" x="550.3862" y="-647.8" font-family="Helvetica,sans-Serif" font-size="11.00" fill="#000000"> &#160;</text>
</a>
</g>
</g>
<!-- client_attributes&#45;&gt;client -->
<g id="edge3" class="edge">
<title>client_attributes:w&#45;&gt;client:e</title>
<path fill="none" stroke="#000000" d="M425.4053,-665.536C417.0896,-659.0381 415.2609,-645.7656 409,-631.7 386.2027,-580.4842 424.5605,-382.7 368.5,-382.7"/>
<polygon fill="#000000" stroke="#000000" points="431.8278,-667.4334 438.48,-673.1525 435.6639,-668.5667 439.5,-669.7 439.5,-669.7 439.5,-669.7 435.6639,-668.5667 440.52,-666.2475 431.8278,-667.4334 431.8278,-667.4334"/>
<ellipse fill="none" stroke="#000000" cx="428.7589" cy="-666.5267" rx="3.2" ry="3.2"/>
</g>
<!-- client_default_roles -->
<g id="node5" class="node">
<title>client_default_roles</title>
<g id="a_node5"><a xlink:href="../../tables/client_default_roles.html" xlink:title="client_default_roles" target="_top">
<polygon fill="#ffffff" stroke="transparent" points="431,-560.2 431,-621.2 568,-621.2 568,-560.2 431,-560.2"/>
<polygon fill="#f5f5f5" stroke="transparent" points="431.5,-597.7 431.5,-620.7 568.5,-620.7 568.5,-597.7 431.5,-597.7"/>
<polygon fill="none" stroke="#000000" points="431.5,-597.7 431.5,-620.7 568.5,-620.7 568.5,-597.7 431.5,-597.7"/>
<text text-anchor="start" x="436.1274" y="-606.8" font-family="Helvetica,sans-Serif" font-weight="bold" font-size="11.00" fill="#000000">client_default_roles</text>
<text text-anchor="start" x="534.0219" y="-605.8" font-family="Helvetica,sans-Serif" font-size="11.00" fill="#000000">[table]</text>
<polygon fill="none" stroke="#000000" points="431.5,-578.7 431.5,-597.7 568.5,-597.7 568.5,-578.7 431.5,-578.7"/>
<text text-anchor="start" x="434.5" y="-584.8" font-family="Helvetica,sans-Serif" font-size="11.00" fill="#000000">...</text>
<polygon fill="#ffffff" stroke="transparent" points="431.5,-559.7 431.5,-578.7 485.5,-578.7 485.5,-559.7 431.5,-559.7"/>
<polygon fill="none" stroke="#000000" points="431.5,-559.7 431.5,-578.7 485.5,-578.7 485.5,-559.7 431.5,-559.7"/>
<text text-anchor="start" x="434.5" y="-565.8" font-family="Helvetica,sans-Serif" font-size="11.00" fill="#000000">&lt; 1</text>
<polygon fill="#ffffff" stroke="transparent" points="485.5,-559.7 485.5,-578.7 539.5,-578.7 539.5,-559.7 485.5,-559.7"/>
<polygon fill="none" stroke="#000000" points="485.5,-559.7 485.5,-578.7 539.5,-578.7 539.5,-559.7 485.5,-559.7"/>
<text text-anchor="start" x="504.1105" y="-565.8" font-family="Helvetica,sans-Serif" font-size="11.00" fill="#000000">2 rows</text>
<polygon fill="#ffffff" stroke="transparent" points="539.5,-559.7 539.5,-578.7 568.5,-578.7 568.5,-559.7 539.5,-559.7"/>
<polygon fill="none" stroke="#000000" points="539.5,-559.7 539.5,-578.7 568.5,-578.7 568.5,-559.7 539.5,-559.7"/>
<text text-anchor="start" x="559.3862" y="-565.8" font-family="Helvetica,sans-Serif" font-size="11.00" fill="#000000"> &#160;</text>
</a>
</g>
</g>
<!-- client_default_roles&#45;&gt;client -->
<g id="edge4" class="edge">
<title>client_default_roles:w&#45;&gt;client:e</title>
<path fill="none" stroke="#000000" d="M416.9518,-585.671C350.3751,-564.3804 458.2315,-382.7 368.5,-382.7"/>
<polygon fill="#000000" stroke="#000000" points="423.5767,-586.5949 431.0027,-591.2655 427.5383,-587.1475 431.5,-587.7 431.5,-587.7 431.5,-587.7 427.5383,-587.1475 431.9973,-584.1345 423.5767,-586.5949 423.5767,-586.5949"/>
<ellipse fill="none" stroke="#000000" cx="420.4074" cy="-586.1529" rx="3.2" ry="3.2"/>
</g>
<!-- client_node_registrations -->
<g id="node6" class="node">
<title>client_node_registrations</title>
<g id="a_node6"><a xlink:href="../../tables/client_node_registrations.html" xlink:title="client_node_registrations" target="_top">
<polygon fill="#ffffff" stroke="transparent" points="417,-478.2 417,-539.2 582,-539.2 582,-478.2 417,-478.2"/>
<polygon fill="#f5f5f5" stroke="transparent" points="417.5,-515.7 417.5,-538.7 582.5,-538.7 582.5,-515.7 417.5,-515.7"/>
<polygon fill="none" stroke="#000000" points="417.5,-515.7 417.5,-538.7 582.5,-538.7 582.5,-515.7 417.5,-515.7"/>
<text text-anchor="start" x="422.3741" y="-524.8" font-family="Helvetica,sans-Serif" font-weight="bold" font-size="11.00" fill="#000000">client_node_registrations</text>
<text text-anchor="start" x="548.0219" y="-523.8" font-family="Helvetica,sans-Serif" font-size="11.00" fill="#000000">[table]</text>
<polygon fill="none" stroke="#000000" points="417.5,-496.7 417.5,-515.7 582.5,-515.7 582.5,-496.7 417.5,-496.7"/>
<text text-anchor="start" x="420.5" y="-502.8" font-family="Helvetica,sans-Serif" font-size="11.00" fill="#000000">...</text>
<polygon fill="#ffffff" stroke="transparent" points="417.5,-477.7 417.5,-496.7 485.5,-496.7 485.5,-477.7 417.5,-477.7"/>
<polygon fill="none" stroke="#000000" points="417.5,-477.7 417.5,-496.7 485.5,-496.7 485.5,-477.7 417.5,-477.7"/>
<text text-anchor="start" x="420.5" y="-483.8" font-family="Helvetica,sans-Serif" font-size="11.00" fill="#000000">&lt; 1</text>
<polygon fill="#ffffff" stroke="transparent" points="485.5,-477.7 485.5,-496.7 546.5,-496.7 546.5,-477.7 485.5,-477.7"/>
<polygon fill="none" stroke="#000000" points="485.5,-477.7 485.5,-496.7 546.5,-496.7 546.5,-477.7 485.5,-477.7"/>
<text text-anchor="start" x="511.1105" y="-483.8" font-family="Helvetica,sans-Serif" font-size="11.00" fill="#000000">0 rows</text>
<polygon fill="#ffffff" stroke="transparent" points="546.5,-477.7 546.5,-496.7 582.5,-496.7 582.5,-477.7 546.5,-477.7"/>
<polygon fill="none" stroke="#000000" points="546.5,-477.7 546.5,-496.7 582.5,-496.7 582.5,-477.7 546.5,-477.7"/>
<text text-anchor="start" x="573.3862" y="-483.8" font-family="Helvetica,sans-Serif" font-size="11.00" fill="#000000"> &#160;</text>
</a>
</g>
</g>
<!-- client_node_registrations&#45;&gt;client -->
<g id="edge5" class="edge">
<title>client_node_registrations:w&#45;&gt;client:e</title>
<path fill="none" stroke="#000000" d="M403.25,-502.1515C371.2922,-481.9844 421.3684,-382.7 368.5,-382.7"/>
<polygon fill="#000000" stroke="#000000" points="409.7371,-503.7668 416.6301,-509.1933 413.6185,-504.7334 417.5,-505.7 417.5,-505.7 417.5,-505.7 413.6185,-504.7334 418.3699,-502.2067 409.7371,-503.7668 409.7371,-503.7668"/>
<ellipse fill="none" stroke="#000000" cx="406.6319" cy="-502.9936" rx="3.2" ry="3.2"/>
</g>
<!-- client_scope_client -->
<g id="node7" class="node">
<title>client_scope_client</title>
<g id="a_node7"><a xlink:href="../../tables/client_scope_client.html" xlink:title="client_scope_client" target="_top">
<polygon fill="#ffffff" stroke="transparent" points="432,-396.2 432,-457.2 567,-457.2 567,-396.2 432,-396.2"/>
<polygon fill="#f5f5f5" stroke="transparent" points="432.5,-433.7 432.5,-456.7 567.5,-456.7 567.5,-433.7 432.5,-433.7"/>
<polygon fill="none" stroke="#000000" points="432.5,-433.7 432.5,-456.7 567.5,-456.7 567.5,-433.7 432.5,-433.7"/>
<text text-anchor="start" x="437.0443" y="-442.8" font-family="Helvetica,sans-Serif" font-weight="bold" font-size="11.00" fill="#000000">client_scope_client</text>
<text text-anchor="start" x="533.0219" y="-441.8" font-family="Helvetica,sans-Serif" font-size="11.00" fill="#000000">[table]</text>
<polygon fill="none" stroke="#000000" points="432.5,-414.7 432.5,-433.7 567.5,-433.7 567.5,-414.7 432.5,-414.7"/>
<text text-anchor="start" x="435.5" y="-420.8" font-family="Helvetica,sans-Serif" font-size="11.00" fill="#000000">...</text>
<polygon fill="#ffffff" stroke="transparent" points="432.5,-395.7 432.5,-414.7 482.5,-414.7 482.5,-395.7 432.5,-395.7"/>
<polygon fill="none" stroke="#000000" points="432.5,-395.7 432.5,-414.7 482.5,-414.7 482.5,-395.7 432.5,-395.7"/>
<text text-anchor="start" x="435.5" y="-401.8" font-family="Helvetica,sans-Serif" font-size="11.00" fill="#000000">&lt; 2</text>
<polygon fill="#ffffff" stroke="transparent" points="482.5,-395.7 482.5,-414.7 540.5,-414.7 540.5,-395.7 482.5,-395.7"/>
<polygon fill="none" stroke="#000000" points="482.5,-395.7 482.5,-414.7 540.5,-414.7 540.5,-395.7 482.5,-395.7"/>
<text text-anchor="start" x="498.9956" y="-401.8" font-family="Helvetica,sans-Serif" font-size="11.00" fill="#000000">54 rows</text>
<polygon fill="#ffffff" stroke="transparent" points="540.5,-395.7 540.5,-414.7 567.5,-414.7 567.5,-395.7 540.5,-395.7"/>
<polygon fill="none" stroke="#000000" points="540.5,-395.7 540.5,-414.7 567.5,-414.7 567.5,-395.7 540.5,-395.7"/>
<text text-anchor="start" x="558.3862" y="-401.8" font-family="Helvetica,sans-Serif" font-size="11.00" fill="#000000"> &#160;</text>
</a>
</g>
</g>
<!-- client_scope_client&#45;&gt;client -->
<g id="edge6" class="edge">
<title>client_scope_client:w&#45;&gt;client:e</title>
<path fill="none" stroke="#000000" d="M418.2844,-420.6183C398.8622,-411.0833 396.6066,-382.7 368.5,-382.7"/>
<polygon fill="#000000" stroke="#000000" points="424.6816,-422.0051 431.7373,-427.2183 428.5908,-422.8525 432.5,-423.7 432.5,-423.7 432.5,-423.7 428.5908,-422.8525 433.2627,-420.1817 424.6816,-422.0051 424.6816,-422.0051"/>
<ellipse fill="none" stroke="#000000" cx="421.5542" cy="-421.3271" rx="3.2" ry="3.2"/>
</g>
<!-- protocol_mapper -->
<g id="node8" class="node">
<title>protocol_mapper</title>
<g id="a_node8"><a xlink:href="../../tables/protocol_mapper.html" xlink:title="protocol_mapper" target="_top">
<polygon fill="#ffffff" stroke="transparent" points="437,-314.2 437,-375.2 562,-375.2 562,-314.2 437,-314.2"/>
<polygon fill="#f5f5f5" stroke="transparent" points="437.5,-351.7 437.5,-374.7 562.5,-374.7 562.5,-351.7 437.5,-351.7"/>
<polygon fill="none" stroke="#000000" points="437.5,-351.7 437.5,-374.7 562.5,-374.7 562.5,-351.7 437.5,-351.7"/>
<text text-anchor="start" x="442.2412" y="-360.8" font-family="Helvetica,sans-Serif" font-weight="bold" font-size="11.00" fill="#000000">protocol_mapper</text>
<text text-anchor="start" x="528.0219" y="-359.8" font-family="Helvetica,sans-Serif" font-size="11.00" fill="#000000">[table]</text>
<polygon fill="none" stroke="#000000" points="437.5,-332.7 437.5,-351.7 562.5,-351.7 562.5,-332.7 437.5,-332.7"/>
<text text-anchor="start" x="440.5" y="-338.8" font-family="Helvetica,sans-Serif" font-size="11.00" fill="#000000">...</text>
<polygon fill="#ffffff" stroke="transparent" points="437.5,-313.7 437.5,-332.7 477.5,-332.7 477.5,-313.7 437.5,-313.7"/>
<polygon fill="none" stroke="#000000" points="437.5,-313.7 437.5,-332.7 477.5,-332.7 477.5,-313.7 437.5,-313.7"/>
<text text-anchor="start" x="440.5" y="-319.8" font-family="Helvetica,sans-Serif" font-size="11.00" fill="#000000">&lt; 2</text>
<polygon fill="#ffffff" stroke="transparent" points="477.5,-313.7 477.5,-332.7 531.5,-332.7 531.5,-313.7 477.5,-313.7"/>
<polygon fill="none" stroke="#000000" points="477.5,-313.7 477.5,-332.7 531.5,-332.7 531.5,-313.7 477.5,-313.7"/>
<text text-anchor="start" x="489.9956" y="-319.8" font-family="Helvetica,sans-Serif" font-size="11.00" fill="#000000">28 rows</text>
<polygon fill="#ffffff" stroke="transparent" points="531.5,-313.7 531.5,-332.7 562.5,-332.7 562.5,-313.7 531.5,-313.7"/>
<polygon fill="none" stroke="#000000" points="531.5,-313.7 531.5,-332.7 562.5,-332.7 562.5,-313.7 531.5,-313.7"/>
<text text-anchor="start" x="543.9053" y="-319.8" font-family="Helvetica,sans-Serif" font-size="11.00" fill="#000000">1 &gt;</text>
</a>
</g>
</g>
<!-- protocol_mapper&#45;&gt;client -->
<g id="edge7" class="edge">
<title>protocol_mapper:w&#45;&gt;client:e</title>
<path fill="none" stroke="#000000" d="M423.2731,-344.3901C401.6324,-353.5115 398.5983,-382.7 368.5,-382.7"/>
<polygon fill="#000000" stroke="#000000" points="429.6393,-343.1864 438.1689,-345.2373 433.5696,-342.4432 437.5,-341.7 437.5,-341.7 437.5,-341.7 433.5696,-342.4432 436.8311,-338.1627 429.6393,-343.1864 429.6393,-343.1864"/>
<ellipse fill="none" stroke="#000000" cx="426.495" cy="-343.781" rx="3.2" ry="3.2"/>
</g>
<!-- redirect_uris -->
<g id="node9" class="node">
<title>redirect_uris</title>
<g id="a_node9"><a xlink:href="../../tables/redirect_uris.html" xlink:title="redirect_uris" target="_top">
<polygon fill="#ffffff" stroke="transparent" points="417.5,-202.7 417.5,-292.7 581.5,-292.7 581.5,-202.7 417.5,-202.7"/>
<polygon fill="#f5f5f5" stroke="transparent" points="419.5,-267.7 419.5,-290.7 579.5,-290.7 579.5,-267.7 419.5,-267.7"/>
<polygon fill="none" stroke="#000000" points="419.5,-267.7 419.5,-290.7 579.5,-290.7 579.5,-267.7 419.5,-267.7"/>
<text text-anchor="start" x="424.5" y="-276.8" font-family="Helvetica,sans-Serif" font-weight="bold" font-size="11.00" fill="#000000">redirect_uris</text>
<text text-anchor="start" x="544.5437" y="-275.8" font-family="Helvetica,sans-Serif" font-size="11.00" fill="#000000">[table]</text>
<polygon fill="none" stroke="#000000" points="419.5,-245.7 419.5,-267.7 512.5,-267.7 512.5,-245.7 419.5,-245.7"/>
<image xlink:href="../../images/primaryKeys.png" width="11px" height="12px" preserveAspectRatio="xMinYMin meet" x="424.5" y="-262.7"/>
<text text-anchor="start" x="439.5" y="-252.8" font-family="Helvetica,sans-Serif" font-size="11.00" fill="#000000">client_id</text>
<polygon fill="none" stroke="#000000" points="512.5,-245.7 512.5,-267.7 579.5,-267.7 579.5,-245.7 512.5,-245.7"/>
<text text-anchor="start" x="515.5" y="-253.4" font-family="Helvetica,sans-Serif" font-size="11.00" fill="#000000">varchar[36]</text>
<polygon fill="none" stroke="#000000" points="419.5,-223.7 419.5,-245.7 512.5,-245.7 512.5,-223.7 419.5,-223.7"/>
<image xlink:href="../../images/primaryKeys.png" width="11px" height="12px" preserveAspectRatio="xMinYMin meet" x="424.5" y="-240.7"/>
<text text-anchor="start" x="439.5" y="-230.8" font-family="Helvetica,sans-Serif" font-size="11.00" fill="#000000">value</text>
<polygon fill="none" stroke="#000000" points="512.5,-223.7 512.5,-245.7 579.5,-245.7 579.5,-223.7 512.5,-223.7"/>
<text text-anchor="start" x="515.4365" y="-231.4" font-family="Helvetica,sans-Serif" font-size="11.00" fill="#000000">varchar[255]</text>
<polygon fill="#ffffff" stroke="transparent" points="419.5,-204.7 419.5,-223.7 457.5,-223.7 457.5,-204.7 419.5,-204.7"/>
<polygon fill="none" stroke="#000000" points="419.5,-204.7 419.5,-223.7 457.5,-223.7 457.5,-204.7 419.5,-204.7"/>
<text text-anchor="start" x="422.5" y="-210.8" font-family="Helvetica,sans-Serif" font-size="11.00" fill="#000000">&lt; 1</text>
<polygon fill="#ffffff" stroke="transparent" points="457.5,-204.7 457.5,-223.7 512.5,-223.7 512.5,-204.7 457.5,-204.7"/>
<polygon fill="none" stroke="#000000" points="457.5,-204.7 457.5,-223.7 512.5,-223.7 512.5,-204.7 457.5,-204.7"/>
<text text-anchor="start" x="477.1105" y="-210.8" font-family="Helvetica,sans-Serif" font-size="11.00" fill="#000000">3 rows</text>
<polygon fill="#ffffff" stroke="transparent" points="512.5,-204.7 512.5,-223.7 579.5,-223.7 579.5,-204.7 512.5,-204.7"/>
<polygon fill="none" stroke="#000000" points="512.5,-204.7 512.5,-223.7 579.5,-223.7 579.5,-204.7 512.5,-204.7"/>
<text text-anchor="start" x="560.9053" y="-210.8" font-family="Helvetica,sans-Serif" font-size="11.00" fill="#000000">0 &gt;</text>
<polygon fill="none" stroke="#000000" stroke-width="2" points="418.5,-203.7 418.5,-291.7 580.5,-291.7 580.5,-203.7 418.5,-203.7"/>
</a>
</g>
</g>
<!-- redirect_uris&#45;&gt;client -->
<g id="edge8" class="edge">
<title>redirect_uris:w&#45;&gt;client:e</title>
<path fill="none" stroke="#000000" d="M405.2844,-260.0702C371.4826,-280.1077 423.0136,-382.7 368.5,-382.7"/>
<polygon fill="#000000" stroke="#000000" points="411.7158,-258.5455 420.3305,-260.2029 415.6079,-257.6228 419.5,-256.7 419.5,-256.7 419.5,-256.7 415.6079,-257.6228 418.6695,-253.1971 411.7158,-258.5455 411.7158,-258.5455"/>
<ellipse fill="none" stroke="#000000" cx="408.6021" cy="-259.2837" rx="3.2" ry="3.2"/>
</g>
<!-- scope_mapping -->
<g id="node10" class="node">
<title>scope_mapping</title>
<g id="a_node10"><a xlink:href="../../tables/scope_mapping.html" xlink:title="scope_mapping" target="_top">
<polygon fill="#ffffff" stroke="transparent" points="439.5,-120.2 439.5,-181.2 559.5,-181.2 559.5,-120.2 439.5,-120.2"/>
<polygon fill="#f5f5f5" stroke="transparent" points="439.5,-157.7 439.5,-180.7 559.5,-180.7 559.5,-157.7 439.5,-157.7"/>
<polygon fill="none" stroke="#000000" points="439.5,-157.7 439.5,-180.7 559.5,-180.7 559.5,-157.7 439.5,-157.7"/>
<text text-anchor="start" x="444.1816" y="-166.8" font-family="Helvetica,sans-Serif" font-weight="bold" font-size="11.00" fill="#000000">scope_mapping</text>
<text text-anchor="start" x="525.0219" y="-165.8" font-family="Helvetica,sans-Serif" font-size="11.00" fill="#000000">[table]</text>
<polygon fill="none" stroke="#000000" points="439.5,-138.7 439.5,-157.7 559.5,-157.7 559.5,-138.7 439.5,-138.7"/>
<text text-anchor="start" x="442.5" y="-144.8" font-family="Helvetica,sans-Serif" font-size="11.00" fill="#000000">...</text>
<polygon fill="#ffffff" stroke="transparent" points="439.5,-119.7 439.5,-138.7 487.5,-138.7 487.5,-119.7 439.5,-119.7"/>
<polygon fill="none" stroke="#000000" points="439.5,-119.7 439.5,-138.7 487.5,-138.7 487.5,-119.7 439.5,-119.7"/>
<text text-anchor="start" x="442.5" y="-125.8" font-family="Helvetica,sans-Serif" font-size="11.00" fill="#000000">&lt; 1</text>
<polygon fill="#ffffff" stroke="transparent" points="487.5,-119.7 487.5,-138.7 533.5,-138.7 533.5,-119.7 487.5,-119.7"/>
<polygon fill="none" stroke="#000000" points="487.5,-119.7 487.5,-138.7 533.5,-138.7 533.5,-119.7 487.5,-119.7"/>
<text text-anchor="start" x="503.6105" y="-125.8" font-family="Helvetica,sans-Serif" font-size="11.00" fill="#000000">1 row</text>
<polygon fill="#ffffff" stroke="transparent" points="533.5,-119.7 533.5,-138.7 559.5,-138.7 559.5,-119.7 533.5,-119.7"/>
<polygon fill="none" stroke="#000000" points="533.5,-119.7 533.5,-138.7 559.5,-138.7 559.5,-119.7 533.5,-119.7"/>
<text text-anchor="start" x="550.3862" y="-125.8" font-family="Helvetica,sans-Serif" font-size="11.00" fill="#000000"> &#160;</text>
</a>
</g>
</g>
<!-- scope_mapping&#45;&gt;client -->
<g id="edge9" class="edge">
<title>scope_mapping:w&#45;&gt;client:e</title>
<path fill="none" stroke="#000000" d="M425.5717,-151.8414C416.1166,-159.406 416.0298,-176.2034 409,-192.7 392.0758,-232.4151 411.6708,-382.7 368.5,-382.7"/>
<polygon fill="#000000" stroke="#000000" points="431.8318,-149.9801 440.526,-151.1507 435.6659,-148.84 439.5,-147.7 439.5,-147.7 439.5,-147.7 435.6659,-148.84 438.474,-144.2493 431.8318,-149.9801 431.8318,-149.9801"/>
<ellipse fill="none" stroke="#000000" cx="428.7645" cy="-150.8921" rx="3.2" ry="3.2"/>
</g>
<!-- web_origins -->
<g id="node11" class="node">
<title>web_origins</title>
<g id="a_node11"><a xlink:href="../../tables/web_origins.html" xlink:title="web_origins" target="_top">
<polygon fill="#ffffff" stroke="transparent" points="449,-38.2 449,-99.2 550,-99.2 550,-38.2 449,-38.2"/>
<polygon fill="#f5f5f5" stroke="transparent" points="449.5,-75.7 449.5,-98.7 550.5,-98.7 550.5,-75.7 449.5,-75.7"/>
<polygon fill="none" stroke="#000000" points="449.5,-75.7 449.5,-98.7 550.5,-98.7 550.5,-75.7 449.5,-75.7"/>
<text text-anchor="start" x="454.163" y="-84.8" font-family="Helvetica,sans-Serif" font-weight="bold" font-size="11.00" fill="#000000">web_origins</text>
<text text-anchor="start" x="516.0219" y="-83.8" font-family="Helvetica,sans-Serif" font-size="11.00" fill="#000000">[table]</text>
<polygon fill="none" stroke="#000000" points="449.5,-56.7 449.5,-75.7 550.5,-75.7 550.5,-56.7 449.5,-56.7"/>
<text text-anchor="start" x="452.5" y="-62.8" font-family="Helvetica,sans-Serif" font-size="11.00" fill="#000000">...</text>
<polygon fill="#ffffff" stroke="transparent" points="449.5,-37.7 449.5,-56.7 488.5,-56.7 488.5,-37.7 449.5,-37.7"/>
<polygon fill="none" stroke="#000000" points="449.5,-37.7 449.5,-56.7 488.5,-56.7 488.5,-37.7 449.5,-37.7"/>
<text text-anchor="start" x="452.5" y="-43.8" font-family="Helvetica,sans-Serif" font-size="11.00" fill="#000000">&lt; 1</text>
<polygon fill="#ffffff" stroke="transparent" points="488.5,-37.7 488.5,-56.7 529.5,-56.7 529.5,-37.7 488.5,-37.7"/>
<polygon fill="none" stroke="#000000" points="488.5,-37.7 488.5,-56.7 529.5,-56.7 529.5,-37.7 488.5,-37.7"/>
<text text-anchor="start" x="499.6105" y="-43.8" font-family="Helvetica,sans-Serif" font-size="11.00" fill="#000000">1 row</text>
<polygon fill="#ffffff" stroke="transparent" points="529.5,-37.7 529.5,-56.7 550.5,-56.7 550.5,-37.7 529.5,-37.7"/>
<polygon fill="none" stroke="#000000" points="529.5,-37.7 529.5,-56.7 550.5,-56.7 550.5,-37.7 529.5,-37.7"/>
<text text-anchor="start" x="541.3862" y="-43.8" font-family="Helvetica,sans-Serif" font-size="11.00" fill="#000000"> &#160;</text>
</a>
</g>
</g>
<!-- web_origins&#45;&gt;client -->
<g id="edge10" class="edge">
<title>web_origins:w&#45;&gt;client:e</title>
<path fill="none" stroke="#000000" d="M435.1729,-68.4055C421.4127,-74.6473 417.9502,-90.9635 409,-109.7 382.5644,-165.0408 429.8306,-382.7 368.5,-382.7"/>
<polygon fill="#000000" stroke="#000000" points="441.6389,-67.1845 450.168,-69.2375 445.5695,-66.4423 449.5,-65.7 449.5,-65.7 449.5,-65.7 445.5695,-66.4423 448.832,-62.1625 441.6389,-67.1845 441.6389,-67.1845"/>
<ellipse fill="none" stroke="#000000" cx="438.4945" cy="-67.7783" rx="3.2" ry="3.2"/>
</g>
</g>
</svg>
