<?xml version="1.0" encoding="UTF-8" standalone="no"?>
<!DOCTYPE svg PUBLIC "-//W3C//DTD SVG 1.1//EN"
 "http://www.w3.org/Graphics/SVG/1.1/DTD/svg11.dtd">
<!-- Generated by graphviz version 2.40.1 (20161225.0304)
 -->
<!-- Title: twoDegreesRelationshipsDiagram Pages: 1 -->
<svg width="707pt" height="869pt"
 viewBox="0.00 0.00 707.00 868.70" xmlns="http://www.w3.org/2000/svg" xmlns:xlink="http://www.w3.org/1999/xlink">
<g id="graph0" class="graph" transform="scale(1 1) rotate(0) translate(4 864.7)">
<title>twoDegreesRelationshipsDiagram</title>
<polygon fill="#ffffff" stroke="transparent" points="-4,4 -4,-864.7 703,-864.7 703,4 -4,4"/>
<text text-anchor="middle" x="72.4936" y="-7.3" font-family="Helvetica,sans-Serif" font-size="11.00" fill="#000000">Generated by SchemaSpy</text>
<!-- associated_policy -->
<g id="node1" class="node">
<title>associated_policy</title>
<g id="a_node1"><a xlink:href="../../tables/associated_policy.html" xlink:title="associated_policy" target="_top">
<polygon fill="#ffffff" stroke="transparent" points="497,-795.7 497,-856.7 626,-856.7 626,-795.7 497,-795.7"/>
<polygon fill="#f5f5f5" stroke="transparent" points="497.5,-833.2 497.5,-856.2 626.5,-856.2 626.5,-833.2 497.5,-833.2"/>
<polygon fill="none" stroke="#000000" points="497.5,-833.2 497.5,-856.2 626.5,-856.2 626.5,-833.2 497.5,-833.2"/>
<text text-anchor="start" x="502.1006" y="-842.3" font-family="Helvetica,sans-Serif" font-weight="bold" font-size="11.00" fill="#000000">associated_policy</text>
<text text-anchor="start" x="592.0219" y="-841.3" font-family="Helvetica,sans-Serif" font-size="11.00" fill="#000000">[table]</text>
<polygon fill="none" stroke="#000000" points="497.5,-814.2 497.5,-833.2 626.5,-833.2 626.5,-814.2 497.5,-814.2"/>
<text text-anchor="start" x="500.5" y="-820.3" font-family="Helvetica,sans-Serif" font-size="11.00" fill="#000000">...</text>
<polygon fill="#ffffff" stroke="transparent" points="497.5,-795.2 497.5,-814.2 547.5,-814.2 547.5,-795.2 497.5,-795.2"/>
<polygon fill="none" stroke="#000000" points="497.5,-795.2 497.5,-814.2 547.5,-814.2 547.5,-795.2 497.5,-795.2"/>
<text text-anchor="start" x="500.5" y="-801.3" font-family="Helvetica,sans-Serif" font-size="11.00" fill="#000000">&lt; 2</text>
<polygon fill="#ffffff" stroke="transparent" points="547.5,-795.2 547.5,-814.2 599.5,-814.2 599.5,-795.2 547.5,-795.2"/>
<polygon fill="none" stroke="#000000" points="547.5,-795.2 547.5,-814.2 599.5,-814.2 599.5,-795.2 547.5,-795.2"/>
<text text-anchor="start" x="564.1105" y="-801.3" font-family="Helvetica,sans-Serif" font-size="11.00" fill="#000000">0 rows</text>
<polygon fill="#ffffff" stroke="transparent" points="599.5,-795.2 599.5,-814.2 626.5,-814.2 626.5,-795.2 599.5,-795.2"/>
<polygon fill="none" stroke="#000000" points="599.5,-795.2 599.5,-814.2 626.5,-814.2 626.5,-795.2 599.5,-795.2"/>
<text text-anchor="start" x="617.3862" y="-801.3" font-family="Helvetica,sans-Serif" font-size="11.00" fill="#000000"> &#160;</text>
</a>
</g>
</g>
<!-- resource_server_policy -->
<g id="node2" class="node">
<title>resource_server_policy</title>
<g id="a_node2"><a xlink:href="../../tables/resource_server_policy.html" xlink:title="resource_server_policy" target="_top">
<polygon fill="#ffffff" stroke="transparent" points="219.5,-566.7 219.5,-693.7 375.5,-693.7 375.5,-566.7 219.5,-566.7"/>
<polygon fill="#f5f5f5" stroke="transparent" points="219.5,-670.2 219.5,-693.2 375.5,-693.2 375.5,-670.2 219.5,-670.2"/>
<polygon fill="none" stroke="#000000" points="219.5,-670.2 219.5,-693.2 375.5,-693.2 375.5,-670.2 219.5,-670.2"/>
<text text-anchor="start" x="224.1608" y="-679.3" font-family="Helvetica,sans-Serif" font-weight="bold" font-size="11.00" fill="#000000">resource_server_policy</text>
<text text-anchor="start" x="341.0219" y="-678.3" font-family="Helvetica,sans-Serif" font-size="11.00" fill="#000000">[table]</text>
<polygon fill="none" stroke="#000000" points="219.5,-648.2 219.5,-670.2 375.5,-670.2 375.5,-648.2 219.5,-648.2"/>
<image xlink:href="../../images/primaryKeys.png" width="11px" height="12px" preserveAspectRatio="xMinYMin meet" x="224.5" y="-665.2"/>
<text text-anchor="start" x="240.5" y="-655.3" font-family="Helvetica,sans-Serif" font-size="11.00" fill="#000000">id</text>
<polygon fill="#ffffff" stroke="transparent" points="219.5,-626.2 219.5,-648.2 375.5,-648.2 375.5,-626.2 219.5,-626.2"/>
<polygon fill="none" stroke="#000000" points="219.5,-626.2 219.5,-648.2 375.5,-648.2 375.5,-626.2 219.5,-626.2"/>
<text text-anchor="start" x="240.5" y="-633.3" font-family="Helvetica,sans-Serif" font-size="11.00" fill="#000000">name</text>
<polygon fill="#ffffff" stroke="transparent" points="219.5,-604.2 219.5,-626.2 375.5,-626.2 375.5,-604.2 219.5,-604.2"/>
<polygon fill="none" stroke="#000000" points="219.5,-604.2 219.5,-626.2 375.5,-626.2 375.5,-604.2 219.5,-604.2"/>
<image xlink:href="../../images/foreignKeys.png" width="11px" height="12px" preserveAspectRatio="xMinYMin meet" x="224.5" y="-621.2"/>
<text text-anchor="start" x="240.5" y="-611.3" font-family="Helvetica,sans-Serif" font-size="11.00" fill="#000000">resource_server_id</text>
<polygon fill="none" stroke="#000000" points="219.5,-585.2 219.5,-604.2 375.5,-604.2 375.5,-585.2 219.5,-585.2"/>
<text text-anchor="start" x="222.5" y="-591.3" font-family="Helvetica,sans-Serif" font-size="11.00" fill="#000000">...</text>
<polygon fill="#ffffff" stroke="transparent" points="219.5,-566.2 219.5,-585.2 278.5,-585.2 278.5,-566.2 219.5,-566.2"/>
<polygon fill="none" stroke="#000000" points="219.5,-566.2 219.5,-585.2 278.5,-585.2 278.5,-566.2 219.5,-566.2"/>
<text text-anchor="start" x="222.5" y="-572.3" font-family="Helvetica,sans-Serif" font-size="11.00" fill="#000000">&lt; 1</text>
<polygon fill="#ffffff" stroke="transparent" points="278.5,-566.2 278.5,-585.2 335.5,-585.2 335.5,-566.2 278.5,-566.2"/>
<polygon fill="none" stroke="#000000" points="278.5,-566.2 278.5,-585.2 335.5,-585.2 335.5,-566.2 278.5,-566.2"/>
<text text-anchor="start" x="300.1105" y="-572.3" font-family="Helvetica,sans-Serif" font-size="11.00" fill="#000000">0 rows</text>
<polygon fill="#ffffff" stroke="transparent" points="335.5,-566.2 335.5,-585.2 375.5,-585.2 375.5,-566.2 335.5,-566.2"/>
<polygon fill="none" stroke="#000000" points="335.5,-566.2 335.5,-585.2 375.5,-585.2 375.5,-566.2 335.5,-566.2"/>
<text text-anchor="start" x="356.9053" y="-572.3" font-family="Helvetica,sans-Serif" font-size="11.00" fill="#000000">6 &gt;</text>
</a>
</g>
</g>
<!-- associated_policy&#45;&gt;resource_server_policy -->
<g id="edge1" class="edge">
<title>associated_policy:w&#45;&gt;resource_server_policy:e</title>
<path fill="none" stroke="#000000" d="M483.3418,-820.3614C457.0538,-813.8841 445.0877,-802.7383 424,-779.2 383.9602,-734.5071 435.5053,-653.2 375.5,-659.2"/>
<polygon fill="#000000" stroke="#000000" points="489.6561,-821.6273 496.7923,-826.7298 493.578,-822.4137 497.5,-823.2 497.5,-823.2 497.5,-823.2 493.578,-822.4137 498.2077,-819.6702 489.6561,-821.6273 489.6561,-821.6273"/>
<ellipse fill="none" stroke="#000000" cx="486.5185" cy="-820.9983" rx="3.2" ry="3.2"/>
</g>
<!-- associated_policy&#45;&gt;resource_server_policy -->
<g id="edge2" class="edge">
<title>associated_policy:w&#45;&gt;resource_server_policy:e</title>
<path fill="none" stroke="#000000" d="M482.9842,-825.1341C456.9448,-826.7825 444.9918,-815.6313 424,-792.2 383.9602,-747.5071 435.5053,-666.2 375.5,-659.2"/>
<polygon fill="#000000" stroke="#000000" points="489.5701,-824.2566 497.9755,-826.7685 493.535,-823.7283 497.5,-823.2 497.5,-823.2 497.5,-823.2 493.535,-823.7283 497.0245,-819.6315 489.5701,-824.2566 489.5701,-824.2566"/>
<ellipse fill="none" stroke="#000000" cx="486.3981" cy="-824.6793" rx="3.2" ry="3.2"/>
</g>
<!-- resource_server -->
<g id="node10" class="node">
<title>resource_server</title>
<g id="a_node10"><a xlink:href="../../tables/resource_server.html" xlink:title="resource_server" target="_top">
<polygon fill="#ffffff" stroke="transparent" points="8,-268.7 8,-351.7 163,-351.7 163,-268.7 8,-268.7"/>
<polygon fill="#f5f5f5" stroke="transparent" points="8.5,-328.2 8.5,-351.2 163.5,-351.2 163.5,-328.2 8.5,-328.2"/>
<polygon fill="none" stroke="#000000" points="8.5,-328.2 8.5,-351.2 163.5,-351.2 163.5,-328.2 8.5,-328.2"/>
<text text-anchor="start" x="13.5" y="-337.3" font-family="Helvetica,sans-Serif" font-weight="bold" font-size="11.00" fill="#000000">resource_server</text>
<text text-anchor="start" x="128.5437" y="-336.3" font-family="Helvetica,sans-Serif" font-size="11.00" fill="#000000">[table]</text>
<polygon fill="none" stroke="#000000" points="8.5,-306.2 8.5,-328.2 163.5,-328.2 163.5,-306.2 8.5,-306.2"/>
<image xlink:href="../../images/primaryKeys.png" width="11px" height="12px" preserveAspectRatio="xMinYMin meet" x="13.5" y="-323.2"/>
<text text-anchor="start" x="28.5" y="-313.3" font-family="Helvetica,sans-Serif" font-size="11.00" fill="#000000">id</text>
<polygon fill="none" stroke="#000000" points="8.5,-287.2 8.5,-306.2 163.5,-306.2 163.5,-287.2 8.5,-287.2"/>
<text text-anchor="start" x="11.5" y="-293.3" font-family="Helvetica,sans-Serif" font-size="11.00" fill="#000000">...</text>
<polygon fill="#ffffff" stroke="transparent" points="8.5,-268.2 8.5,-287.2 62.5,-287.2 62.5,-268.2 8.5,-268.2"/>
<polygon fill="none" stroke="#000000" points="8.5,-268.2 8.5,-287.2 62.5,-287.2 62.5,-268.2 8.5,-268.2"/>
<text text-anchor="start" x="11.5" y="-274.3" font-family="Helvetica,sans-Serif" font-size="11.00" fill="#000000"> &#160;</text>
<polygon fill="#ffffff" stroke="transparent" points="62.5,-268.2 62.5,-287.2 121.5,-287.2 121.5,-268.2 62.5,-268.2"/>
<polygon fill="none" stroke="#000000" points="62.5,-268.2 62.5,-287.2 121.5,-287.2 121.5,-268.2 62.5,-268.2"/>
<text text-anchor="start" x="86.1105" y="-274.3" font-family="Helvetica,sans-Serif" font-size="11.00" fill="#000000">0 rows</text>
<polygon fill="#ffffff" stroke="transparent" points="121.5,-268.2 121.5,-287.2 163.5,-287.2 163.5,-268.2 121.5,-268.2"/>
<polygon fill="none" stroke="#000000" points="121.5,-268.2 121.5,-287.2 163.5,-287.2 163.5,-268.2 121.5,-268.2"/>
<text text-anchor="start" x="144.9053" y="-274.3" font-family="Helvetica,sans-Serif" font-size="11.00" fill="#000000">4 &gt;</text>
</a>
</g>
</g>
<!-- resource_server_policy&#45;&gt;resource_server -->
<g id="edge13" class="edge">
<title>resource_server_policy:w&#45;&gt;resource_server:e</title>
<path fill="none" stroke="#000000" d="M205.974,-609.7733C163.7958,-569.3844 225.4856,-317.2 163.5,-317.2"/>
<polygon fill="#000000" stroke="#000000" points="212.0753,-612.2211 218.1595,-618.5411 215.7876,-613.7106 219.5,-615.2 219.5,-615.2 219.5,-615.2 215.7876,-613.7106 220.8405,-611.8589 212.0753,-612.2211 212.0753,-612.2211"/>
<ellipse fill="none" stroke="#000000" cx="209.1054" cy="-611.0295" rx="3.2" ry="3.2"/>
</g>
<!-- policy_config -->
<g id="node3" class="node">
<title>policy_config</title>
<g id="a_node3"><a xlink:href="../../tables/policy_config.html" xlink:title="policy_config" target="_top">
<polygon fill="#ffffff" stroke="transparent" points="508.5,-713.7 508.5,-774.7 614.5,-774.7 614.5,-713.7 508.5,-713.7"/>
<polygon fill="#f5f5f5" stroke="transparent" points="508.5,-751.2 508.5,-774.2 614.5,-774.2 614.5,-751.2 508.5,-751.2"/>
<polygon fill="none" stroke="#000000" points="508.5,-751.2 508.5,-774.2 614.5,-774.2 614.5,-751.2 508.5,-751.2"/>
<text text-anchor="start" x="513.2155" y="-760.3" font-family="Helvetica,sans-Serif" font-weight="bold" font-size="11.00" fill="#000000">policy_config</text>
<text text-anchor="start" x="580.0219" y="-759.3" font-family="Helvetica,sans-Serif" font-size="11.00" fill="#000000">[table]</text>
<polygon fill="none" stroke="#000000" points="508.5,-732.2 508.5,-751.2 614.5,-751.2 614.5,-732.2 508.5,-732.2"/>
<text text-anchor="start" x="511.5" y="-738.3" font-family="Helvetica,sans-Serif" font-size="11.00" fill="#000000">...</text>
<polygon fill="#ffffff" stroke="transparent" points="508.5,-713.2 508.5,-732.2 546.5,-732.2 546.5,-713.2 508.5,-713.2"/>
<polygon fill="none" stroke="#000000" points="508.5,-713.2 508.5,-732.2 546.5,-732.2 546.5,-713.2 508.5,-713.2"/>
<text text-anchor="start" x="511.5" y="-719.3" font-family="Helvetica,sans-Serif" font-size="11.00" fill="#000000">&lt; 1</text>
<polygon fill="#ffffff" stroke="transparent" points="546.5,-713.2 546.5,-732.2 593.5,-732.2 593.5,-713.2 546.5,-713.2"/>
<polygon fill="none" stroke="#000000" points="546.5,-713.2 546.5,-732.2 593.5,-732.2 593.5,-713.2 546.5,-713.2"/>
<text text-anchor="start" x="558.1105" y="-719.3" font-family="Helvetica,sans-Serif" font-size="11.00" fill="#000000">0 rows</text>
<polygon fill="#ffffff" stroke="transparent" points="593.5,-713.2 593.5,-732.2 614.5,-732.2 614.5,-713.2 593.5,-713.2"/>
<polygon fill="none" stroke="#000000" points="593.5,-713.2 593.5,-732.2 614.5,-732.2 614.5,-713.2 593.5,-713.2"/>
<text text-anchor="start" x="605.3862" y="-719.3" font-family="Helvetica,sans-Serif" font-size="11.00" fill="#000000"> &#160;</text>
</a>
</g>
</g>
<!-- policy_config&#45;&gt;resource_server_policy -->
<g id="edge3" class="edge">
<title>policy_config:w&#45;&gt;resource_server_policy:e</title>
<path fill="none" stroke="#000000" d="M494.0621,-740.448C464.6096,-737.1002 454.01,-722.8487 424,-703.2 399.6505,-687.2575 404.6043,-659.2 375.5,-659.2"/>
<polygon fill="#000000" stroke="#000000" points="500.5108,-740.7838 508.3127,-744.7951 504.5054,-740.9919 508.5,-741.2 508.5,-741.2 508.5,-741.2 504.5054,-740.9919 508.6873,-737.6049 500.5108,-740.7838 500.5108,-740.7838"/>
<ellipse fill="none" stroke="#000000" cx="497.3152" cy="-740.6173" rx="3.2" ry="3.2"/>
</g>
<!-- resource_attribute -->
<g id="node4" class="node">
<title>resource_attribute</title>
<g id="a_node4"><a xlink:href="../../tables/resource_attribute.html" xlink:title="resource_attribute" target="_top">
<polygon fill="#ffffff" stroke="transparent" points="496,-549.7 496,-610.7 627,-610.7 627,-549.7 496,-549.7"/>
<polygon fill="#f5f5f5" stroke="transparent" points="496.5,-587.2 496.5,-610.2 627.5,-610.2 627.5,-587.2 496.5,-587.2"/>
<polygon fill="none" stroke="#000000" points="496.5,-587.2 496.5,-610.2 627.5,-610.2 627.5,-587.2 496.5,-587.2"/>
<text text-anchor="start" x="501.1843" y="-596.3" font-family="Helvetica,sans-Serif" font-weight="bold" font-size="11.00" fill="#000000">resource_attribute</text>
<text text-anchor="start" x="593.0219" y="-595.3" font-family="Helvetica,sans-Serif" font-size="11.00" fill="#000000">[table]</text>
<polygon fill="none" stroke="#000000" points="496.5,-568.2 496.5,-587.2 627.5,-587.2 627.5,-568.2 496.5,-568.2"/>
<text text-anchor="start" x="499.5" y="-574.3" font-family="Helvetica,sans-Serif" font-size="11.00" fill="#000000">...</text>
<polygon fill="#ffffff" stroke="transparent" points="496.5,-549.2 496.5,-568.2 547.5,-568.2 547.5,-549.2 496.5,-549.2"/>
<polygon fill="none" stroke="#000000" points="496.5,-549.2 496.5,-568.2 547.5,-568.2 547.5,-549.2 496.5,-549.2"/>
<text text-anchor="start" x="499.5" y="-555.3" font-family="Helvetica,sans-Serif" font-size="11.00" fill="#000000">&lt; 1</text>
<polygon fill="#ffffff" stroke="transparent" points="547.5,-549.2 547.5,-568.2 600.5,-568.2 600.5,-549.2 547.5,-549.2"/>
<polygon fill="none" stroke="#000000" points="547.5,-549.2 547.5,-568.2 600.5,-568.2 600.5,-549.2 547.5,-549.2"/>
<text text-anchor="start" x="565.1105" y="-555.3" font-family="Helvetica,sans-Serif" font-size="11.00" fill="#000000">0 rows</text>
<polygon fill="#ffffff" stroke="transparent" points="600.5,-549.2 600.5,-568.2 627.5,-568.2 627.5,-549.2 600.5,-549.2"/>
<polygon fill="none" stroke="#000000" points="600.5,-549.2 600.5,-568.2 627.5,-568.2 627.5,-549.2 600.5,-549.2"/>
<text text-anchor="start" x="618.3862" y="-555.3" font-family="Helvetica,sans-Serif" font-size="11.00" fill="#000000"> &#160;</text>
</a>
</g>
</g>
<!-- resource_server_resource -->
<g id="node5" class="node">
<title>resource_server_resource</title>
<g id="a_node5"><a xlink:href="../../tables/resource_server_resource.html" xlink:title="resource_server_resource" target="_top">
<polygon fill="#ffffff" stroke="transparent" points="212,-342.7 212,-491.7 383,-491.7 383,-342.7 212,-342.7"/>
<polygon fill="#f5f5f5" stroke="transparent" points="212.5,-468.2 212.5,-491.2 383.5,-491.2 383.5,-468.2 212.5,-468.2"/>
<polygon fill="none" stroke="#000000" points="212.5,-468.2 212.5,-491.2 383.5,-491.2 383.5,-468.2 212.5,-468.2"/>
<text text-anchor="start" x="217.3249" y="-477.3" font-family="Helvetica,sans-Serif" font-weight="bold" font-size="11.00" fill="#000000">resource_server_resource</text>
<text text-anchor="start" x="349.0219" y="-476.3" font-family="Helvetica,sans-Serif" font-size="11.00" fill="#000000">[table]</text>
<polygon fill="none" stroke="#000000" points="212.5,-446.2 212.5,-468.2 383.5,-468.2 383.5,-446.2 212.5,-446.2"/>
<image xlink:href="../../images/primaryKeys.png" width="11px" height="12px" preserveAspectRatio="xMinYMin meet" x="217.5" y="-463.2"/>
<text text-anchor="start" x="232.5" y="-453.3" font-family="Helvetica,sans-Serif" font-size="11.00" fill="#000000">id</text>
<polygon fill="#ffffff" stroke="transparent" points="212.5,-424.2 212.5,-446.2 383.5,-446.2 383.5,-424.2 212.5,-424.2"/>
<polygon fill="none" stroke="#000000" points="212.5,-424.2 212.5,-446.2 383.5,-446.2 383.5,-424.2 212.5,-424.2"/>
<text text-anchor="start" x="232.5" y="-431.3" font-family="Helvetica,sans-Serif" font-size="11.00" fill="#000000">name</text>
<polygon fill="#ffffff" stroke="transparent" points="212.5,-402.2 212.5,-424.2 383.5,-424.2 383.5,-402.2 212.5,-402.2"/>
<polygon fill="none" stroke="#000000" points="212.5,-402.2 212.5,-424.2 383.5,-424.2 383.5,-402.2 212.5,-402.2"/>
<text text-anchor="start" x="232.5" y="-409.3" font-family="Helvetica,sans-Serif" font-size="11.00" fill="#000000">owner</text>
<polygon fill="#ffffff" stroke="transparent" points="212.5,-380.2 212.5,-402.2 383.5,-402.2 383.5,-380.2 212.5,-380.2"/>
<polygon fill="none" stroke="#000000" points="212.5,-380.2 212.5,-402.2 383.5,-402.2 383.5,-380.2 212.5,-380.2"/>
<image xlink:href="../../images/foreignKeys.png" width="11px" height="12px" preserveAspectRatio="xMinYMin meet" x="217.5" y="-397.2"/>
<text text-anchor="start" x="232.5" y="-387.3" font-family="Helvetica,sans-Serif" font-size="11.00" fill="#000000">resource_server_id</text>
<polygon fill="none" stroke="#000000" points="212.5,-361.2 212.5,-380.2 383.5,-380.2 383.5,-361.2 212.5,-361.2"/>
<text text-anchor="start" x="215.5" y="-367.3" font-family="Helvetica,sans-Serif" font-size="11.00" fill="#000000">...</text>
<polygon fill="#ffffff" stroke="transparent" points="212.5,-342.2 212.5,-361.2 278.5,-361.2 278.5,-342.2 212.5,-342.2"/>
<polygon fill="none" stroke="#000000" points="212.5,-342.2 212.5,-361.2 278.5,-361.2 278.5,-342.2 212.5,-342.2"/>
<text text-anchor="start" x="215.5" y="-348.3" font-family="Helvetica,sans-Serif" font-size="11.00" fill="#000000">&lt; 1</text>
<polygon fill="#ffffff" stroke="transparent" points="278.5,-342.2 278.5,-361.2 339.5,-361.2 339.5,-342.2 278.5,-342.2"/>
<polygon fill="none" stroke="#000000" points="278.5,-342.2 278.5,-361.2 339.5,-361.2 339.5,-342.2 278.5,-342.2"/>
<text text-anchor="start" x="304.1105" y="-348.3" font-family="Helvetica,sans-Serif" font-size="11.00" fill="#000000">0 rows</text>
<polygon fill="#ffffff" stroke="transparent" points="339.5,-342.2 339.5,-361.2 383.5,-361.2 383.5,-342.2 339.5,-342.2"/>
<polygon fill="none" stroke="#000000" points="339.5,-342.2 339.5,-361.2 383.5,-361.2 383.5,-342.2 339.5,-342.2"/>
<text text-anchor="start" x="364.9053" y="-348.3" font-family="Helvetica,sans-Serif" font-size="11.00" fill="#000000">5 &gt;</text>
</a>
</g>
</g>
<!-- resource_attribute&#45;&gt;resource_server_resource -->
<g id="edge4" class="edge">
<title>resource_attribute:w&#45;&gt;resource_server_resource:e</title>
<path fill="none" stroke="#000000" d="M481.8645,-576.402C456.6175,-573.337 445.6415,-561.3675 424,-539.2 395.6052,-510.1151 424.1472,-457.2 383.5,-457.2"/>
<polygon fill="#000000" stroke="#000000" points="488.5119,-576.7644 496.304,-580.7947 492.5059,-576.9822 496.5,-577.2 496.5,-577.2 496.5,-577.2 492.5059,-576.9822 496.696,-573.6053 488.5119,-576.7644 488.5119,-576.7644"/>
<ellipse fill="none" stroke="#000000" cx="485.3166" cy="-576.5902" rx="3.2" ry="3.2"/>
</g>
<!-- resource_server_resource&#45;&gt;resource_server -->
<g id="edge14" class="edge">
<title>resource_server_resource:w&#45;&gt;resource_server:e</title>
<path fill="none" stroke="#000000" d="M198.8095,-386.571C180.5527,-370.3706 196.9363,-317.2 163.5,-317.2"/>
<polygon fill="#000000" stroke="#000000" points="204.9215,-388.6375 211.3469,-394.6103 208.7107,-389.9188 212.5,-391.2 212.5,-391.2 212.5,-391.2 208.7107,-389.9188 213.6531,-387.7897 204.9215,-388.6375 204.9215,-388.6375"/>
<ellipse fill="none" stroke="#000000" cx="201.8901" cy="-387.6125" rx="3.2" ry="3.2"/>
</g>
<!-- resource_policy -->
<g id="node6" class="node">
<title>resource_policy</title>
<g id="a_node6"><a xlink:href="../../tables/resource_policy.html" xlink:title="resource_policy" target="_top">
<polygon fill="#ffffff" stroke="transparent" points="501.5,-631.7 501.5,-692.7 621.5,-692.7 621.5,-631.7 501.5,-631.7"/>
<polygon fill="#f5f5f5" stroke="transparent" points="501.5,-669.2 501.5,-692.2 621.5,-692.2 621.5,-669.2 501.5,-669.2"/>
<polygon fill="none" stroke="#000000" points="501.5,-669.2 501.5,-692.2 621.5,-692.2 621.5,-669.2 501.5,-669.2"/>
<text text-anchor="start" x="506.4951" y="-678.3" font-family="Helvetica,sans-Serif" font-weight="bold" font-size="11.00" fill="#000000">resource_policy</text>
<text text-anchor="start" x="587.0219" y="-677.3" font-family="Helvetica,sans-Serif" font-size="11.00" fill="#000000">[table]</text>
<polygon fill="none" stroke="#000000" points="501.5,-650.2 501.5,-669.2 621.5,-669.2 621.5,-650.2 501.5,-650.2"/>
<text text-anchor="start" x="504.5" y="-656.3" font-family="Helvetica,sans-Serif" font-size="11.00" fill="#000000">...</text>
<polygon fill="#ffffff" stroke="transparent" points="501.5,-631.2 501.5,-650.2 546.5,-650.2 546.5,-631.2 501.5,-631.2"/>
<polygon fill="none" stroke="#000000" points="501.5,-631.2 501.5,-650.2 546.5,-650.2 546.5,-631.2 501.5,-631.2"/>
<text text-anchor="start" x="504.5" y="-637.3" font-family="Helvetica,sans-Serif" font-size="11.00" fill="#000000">&lt; 2</text>
<polygon fill="#ffffff" stroke="transparent" points="546.5,-631.2 546.5,-650.2 596.5,-650.2 596.5,-631.2 546.5,-631.2"/>
<polygon fill="none" stroke="#000000" points="546.5,-631.2 546.5,-650.2 596.5,-650.2 596.5,-631.2 546.5,-631.2"/>
<text text-anchor="start" x="561.1105" y="-637.3" font-family="Helvetica,sans-Serif" font-size="11.00" fill="#000000">0 rows</text>
<polygon fill="#ffffff" stroke="transparent" points="596.5,-631.2 596.5,-650.2 621.5,-650.2 621.5,-631.2 596.5,-631.2"/>
<polygon fill="none" stroke="#000000" points="596.5,-631.2 596.5,-650.2 621.5,-650.2 621.5,-631.2 596.5,-631.2"/>
<text text-anchor="start" x="612.3862" y="-637.3" font-family="Helvetica,sans-Serif" font-size="11.00" fill="#000000"> &#160;</text>
</a>
</g>
</g>
<!-- resource_policy&#45;&gt;resource_server_policy -->
<g id="edge5" class="edge">
<title>resource_policy:w&#45;&gt;resource_server_policy:e</title>
<path fill="none" stroke="#000000" d="M487.0749,-659.2C442.5758,-659.2 426.3594,-659.2 375.5,-659.2"/>
<polygon fill="#000000" stroke="#000000" points="493.5,-659.2001 501.5,-662.8 497.5,-659.2 501.5,-659.2 501.5,-659.2 501.5,-659.2 497.5,-659.2 501.5,-655.6 493.5,-659.2001 493.5,-659.2001"/>
<ellipse fill="none" stroke="#000000" cx="490.3" cy="-659.2001" rx="3.2" ry="3.2"/>
</g>
<!-- resource_policy&#45;&gt;resource_server_resource -->
<g id="edge6" class="edge">
<title>resource_policy:w&#45;&gt;resource_server_resource:e</title>
<path fill="none" stroke="#000000" d="M486.9896,-658.7091C458.8512,-656.5694 444.7856,-646.982 424,-621.2 376.8779,-562.7509 458.5786,-457.2 383.5,-457.2"/>
<polygon fill="#000000" stroke="#000000" points="493.5046,-658.9294 501.3783,-662.7979 497.5023,-659.0647 501.5,-659.2 501.5,-659.2 501.5,-659.2 497.5023,-659.0647 501.6217,-655.6021 493.5046,-658.9294 493.5046,-658.9294"/>
<ellipse fill="none" stroke="#000000" cx="490.3064" cy="-658.8212" rx="3.2" ry="3.2"/>
</g>
<!-- resource_scope -->
<g id="node7" class="node">
<title>resource_scope</title>
<g id="a_node7"><a xlink:href="../../tables/resource_scope.html" xlink:title="resource_scope" target="_top">
<polygon fill="#ffffff" stroke="transparent" points="501,-303.7 501,-364.7 622,-364.7 622,-303.7 501,-303.7"/>
<polygon fill="#f5f5f5" stroke="transparent" points="501.5,-341.2 501.5,-364.2 622.5,-364.2 622.5,-341.2 501.5,-341.2"/>
<polygon fill="none" stroke="#000000" points="501.5,-341.2 501.5,-364.2 622.5,-364.2 622.5,-341.2 501.5,-341.2"/>
<text text-anchor="start" x="506.3785" y="-350.3" font-family="Helvetica,sans-Serif" font-weight="bold" font-size="11.00" fill="#000000">resource_scope</text>
<text text-anchor="start" x="588.0219" y="-349.3" font-family="Helvetica,sans-Serif" font-size="11.00" fill="#000000">[table]</text>
<polygon fill="none" stroke="#000000" points="501.5,-322.2 501.5,-341.2 622.5,-341.2 622.5,-322.2 501.5,-322.2"/>
<text text-anchor="start" x="504.5" y="-328.3" font-family="Helvetica,sans-Serif" font-size="11.00" fill="#000000">...</text>
<polygon fill="#ffffff" stroke="transparent" points="501.5,-303.2 501.5,-322.2 547.5,-322.2 547.5,-303.2 501.5,-303.2"/>
<polygon fill="none" stroke="#000000" points="501.5,-303.2 501.5,-322.2 547.5,-322.2 547.5,-303.2 501.5,-303.2"/>
<text text-anchor="start" x="504.5" y="-309.3" font-family="Helvetica,sans-Serif" font-size="11.00" fill="#000000">&lt; 2</text>
<polygon fill="#ffffff" stroke="transparent" points="547.5,-303.2 547.5,-322.2 597.5,-322.2 597.5,-303.2 547.5,-303.2"/>
<polygon fill="none" stroke="#000000" points="547.5,-303.2 547.5,-322.2 597.5,-322.2 597.5,-303.2 547.5,-303.2"/>
<text text-anchor="start" x="562.1105" y="-309.3" font-family="Helvetica,sans-Serif" font-size="11.00" fill="#000000">0 rows</text>
<polygon fill="#ffffff" stroke="transparent" points="597.5,-303.2 597.5,-322.2 622.5,-322.2 622.5,-303.2 597.5,-303.2"/>
<polygon fill="none" stroke="#000000" points="597.5,-303.2 597.5,-322.2 622.5,-322.2 622.5,-303.2 597.5,-303.2"/>
<text text-anchor="start" x="613.3862" y="-309.3" font-family="Helvetica,sans-Serif" font-size="11.00" fill="#000000"> &#160;</text>
</a>
</g>
</g>
<!-- resource_scope&#45;&gt;resource_server_resource -->
<g id="edge7" class="edge">
<title>resource_scope:w&#45;&gt;resource_server_resource:e</title>
<path fill="none" stroke="#000000" d="M486.7592,-332.0481C458.6569,-335.6099 447.472,-350.3354 424,-375.2 396.0977,-404.7577 424.1472,-457.2 383.5,-457.2"/>
<polygon fill="#000000" stroke="#000000" points="493.5132,-331.6596 501.7068,-334.7941 497.5066,-331.4298 501.5,-331.2 501.5,-331.2 501.5,-331.2 497.5066,-331.4298 501.2932,-327.6059 493.5132,-331.6596 493.5132,-331.6596"/>
<ellipse fill="none" stroke="#000000" cx="490.3185" cy="-331.8434" rx="3.2" ry="3.2"/>
</g>
<!-- resource_server_scope -->
<g id="node8" class="node">
<title>resource_server_scope</title>
<g id="a_node8"><a xlink:href="../../tables/resource_server_scope.html" xlink:title="resource_server_scope" target="_top">
<polygon fill="#ffffff" stroke="transparent" points="219,-194.7 219,-321.7 376,-321.7 376,-194.7 219,-194.7"/>
<polygon fill="#f5f5f5" stroke="transparent" points="219.5,-298.2 219.5,-321.2 376.5,-321.2 376.5,-298.2 219.5,-298.2"/>
<polygon fill="none" stroke="#000000" points="219.5,-298.2 219.5,-321.2 376.5,-321.2 376.5,-298.2 219.5,-298.2"/>
<text text-anchor="start" x="224.0443" y="-307.3" font-family="Helvetica,sans-Serif" font-weight="bold" font-size="11.00" fill="#000000">resource_server_scope</text>
<text text-anchor="start" x="342.0219" y="-306.3" font-family="Helvetica,sans-Serif" font-size="11.00" fill="#000000">[table]</text>
<polygon fill="none" stroke="#000000" points="219.5,-276.2 219.5,-298.2 376.5,-298.2 376.5,-276.2 219.5,-276.2"/>
<image xlink:href="../../images/primaryKeys.png" width="11px" height="12px" preserveAspectRatio="xMinYMin meet" x="224.5" y="-293.2"/>
<text text-anchor="start" x="240.5" y="-283.3" font-family="Helvetica,sans-Serif" font-size="11.00" fill="#000000">id</text>
<polygon fill="#ffffff" stroke="transparent" points="219.5,-254.2 219.5,-276.2 376.5,-276.2 376.5,-254.2 219.5,-254.2"/>
<polygon fill="none" stroke="#000000" points="219.5,-254.2 219.5,-276.2 376.5,-276.2 376.5,-254.2 219.5,-254.2"/>
<text text-anchor="start" x="240.5" y="-261.3" font-family="Helvetica,sans-Serif" font-size="11.00" fill="#000000">name</text>
<polygon fill="#ffffff" stroke="transparent" points="219.5,-232.2 219.5,-254.2 376.5,-254.2 376.5,-232.2 219.5,-232.2"/>
<polygon fill="none" stroke="#000000" points="219.5,-232.2 219.5,-254.2 376.5,-254.2 376.5,-232.2 219.5,-232.2"/>
<image xlink:href="../../images/foreignKeys.png" width="11px" height="12px" preserveAspectRatio="xMinYMin meet" x="224.5" y="-249.2"/>
<text text-anchor="start" x="240.5" y="-239.3" font-family="Helvetica,sans-Serif" font-size="11.00" fill="#000000">resource_server_id</text>
<polygon fill="none" stroke="#000000" points="219.5,-213.2 219.5,-232.2 376.5,-232.2 376.5,-213.2 219.5,-213.2"/>
<text text-anchor="start" x="222.5" y="-219.3" font-family="Helvetica,sans-Serif" font-size="11.00" fill="#000000">...</text>
<polygon fill="#ffffff" stroke="transparent" points="219.5,-194.2 219.5,-213.2 278.5,-213.2 278.5,-194.2 219.5,-194.2"/>
<polygon fill="none" stroke="#000000" points="219.5,-194.2 219.5,-213.2 278.5,-213.2 278.5,-194.2 219.5,-194.2"/>
<text text-anchor="start" x="222.5" y="-200.3" font-family="Helvetica,sans-Serif" font-size="11.00" fill="#000000">&lt; 1</text>
<polygon fill="#ffffff" stroke="transparent" points="278.5,-194.2 278.5,-213.2 335.5,-213.2 335.5,-194.2 278.5,-194.2"/>
<polygon fill="none" stroke="#000000" points="278.5,-194.2 278.5,-213.2 335.5,-213.2 335.5,-194.2 278.5,-194.2"/>
<text text-anchor="start" x="300.1105" y="-200.3" font-family="Helvetica,sans-Serif" font-size="11.00" fill="#000000">0 rows</text>
<polygon fill="#ffffff" stroke="transparent" points="335.5,-194.2 335.5,-213.2 376.5,-213.2 376.5,-194.2 335.5,-194.2"/>
<polygon fill="none" stroke="#000000" points="335.5,-194.2 335.5,-213.2 376.5,-213.2 376.5,-194.2 335.5,-194.2"/>
<text text-anchor="start" x="357.9053" y="-200.3" font-family="Helvetica,sans-Serif" font-size="11.00" fill="#000000">3 &gt;</text>
</a>
</g>
</g>
<!-- resource_scope&#45;&gt;resource_server_scope -->
<g id="edge8" class="edge">
<title>resource_scope:w&#45;&gt;resource_server_scope:e</title>
<path fill="none" stroke="#000000" d="M487.0983,-330.2401C440.9371,-323.8055 430.2204,-287.2 376.5,-287.2"/>
<polygon fill="#000000" stroke="#000000" points="493.5177,-330.6679 501.2606,-334.792 497.5089,-330.934 501.5,-331.2 501.5,-331.2 501.5,-331.2 497.5089,-330.934 501.7394,-327.608 493.5177,-330.6679 493.5177,-330.6679"/>
<ellipse fill="none" stroke="#000000" cx="490.3248" cy="-330.4551" rx="3.2" ry="3.2"/>
</g>
<!-- resource_server_scope&#45;&gt;resource_server -->
<g id="edge15" class="edge">
<title>resource_server_scope:w&#45;&gt;resource_server:e</title>
<path fill="none" stroke="#000000" d="M205.4523,-247.3906C184.4974,-263.0448 198.7837,-317.2 163.5,-317.2"/>
<polygon fill="#000000" stroke="#000000" points="211.8338,-245.4869 220.5291,-246.6498 215.6669,-244.3435 219.5,-243.2 219.5,-243.2 219.5,-243.2 215.6669,-244.3435 218.4709,-239.7502 211.8338,-245.4869 211.8338,-245.4869"/>
<ellipse fill="none" stroke="#000000" cx="208.7674" cy="-246.4017" rx="3.2" ry="3.2"/>
</g>
<!-- resource_server_perm_ticket -->
<g id="node9" class="node">
<title>resource_server_perm_ticket</title>
<g id="a_node9"><a xlink:href="../../tables/resource_server_perm_ticket.html" xlink:title="resource_server_perm_ticket" target="_top">
<polygon fill="#ffffff" stroke="transparent" points="432,-38.2 432,-282.2 691,-282.2 691,-38.2 432,-38.2"/>
<polygon fill="#f5f5f5" stroke="transparent" points="434.5,-257.2 434.5,-280.2 689.5,-280.2 689.5,-257.2 434.5,-257.2"/>
<polygon fill="none" stroke="#000000" points="434.5,-257.2 434.5,-280.2 689.5,-280.2 689.5,-257.2 434.5,-257.2"/>
<text text-anchor="start" x="439.5" y="-266.3" font-family="Helvetica,sans-Serif" font-weight="bold" font-size="11.00" fill="#000000">resource_server_perm_ticket</text>
<text text-anchor="start" x="654.5437" y="-265.3" font-family="Helvetica,sans-Serif" font-size="11.00" fill="#000000">[table]</text>
<polygon fill="none" stroke="#000000" points="434.5,-235.2 434.5,-257.2 622.5,-257.2 622.5,-235.2 434.5,-235.2"/>
<image xlink:href="../../images/primaryKeys.png" width="11px" height="12px" preserveAspectRatio="xMinYMin meet" x="439.5" y="-252.2"/>
<text text-anchor="start" x="454.5" y="-242.3" font-family="Helvetica,sans-Serif" font-size="11.00" fill="#000000">id</text>
<polygon fill="none" stroke="#000000" points="622.5,-235.2 622.5,-257.2 689.5,-257.2 689.5,-235.2 622.5,-235.2"/>
<text text-anchor="start" x="625.5" y="-242.9" font-family="Helvetica,sans-Serif" font-size="11.00" fill="#000000">varchar[36]</text>
<polygon fill="#ffffff" stroke="transparent" points="434.5,-213.2 434.5,-235.2 622.5,-235.2 622.5,-213.2 434.5,-213.2"/>
<polygon fill="none" stroke="#000000" points="434.5,-213.2 434.5,-235.2 622.5,-235.2 622.5,-213.2 434.5,-213.2"/>
<text text-anchor="start" x="454.5" y="-220.3" font-family="Helvetica,sans-Serif" font-size="11.00" fill="#000000">owner</text>
<polygon fill="none" stroke="#000000" points="622.5,-213.2 622.5,-235.2 689.5,-235.2 689.5,-213.2 622.5,-213.2"/>
<text text-anchor="start" x="625.4365" y="-220.9" font-family="Helvetica,sans-Serif" font-size="11.00" fill="#000000">varchar[255]</text>
<polygon fill="#ffffff" stroke="transparent" points="434.5,-191.2 434.5,-213.2 622.5,-213.2 622.5,-191.2 434.5,-191.2"/>
<polygon fill="none" stroke="#000000" points="434.5,-191.2 434.5,-213.2 622.5,-213.2 622.5,-191.2 434.5,-191.2"/>
<text text-anchor="start" x="454.5" y="-198.3" font-family="Helvetica,sans-Serif" font-size="11.00" fill="#000000">requester</text>
<polygon fill="none" stroke="#000000" points="622.5,-191.2 622.5,-213.2 689.5,-213.2 689.5,-191.2 622.5,-191.2"/>
<text text-anchor="start" x="625.4365" y="-198.9" font-family="Helvetica,sans-Serif" font-size="11.00" fill="#000000">varchar[255]</text>
<polygon fill="none" stroke="#000000" points="434.5,-169.2 434.5,-191.2 622.5,-191.2 622.5,-169.2 434.5,-169.2"/>
<text text-anchor="start" x="454.5" y="-176.3" font-family="Helvetica,sans-Serif" font-size="11.00" fill="#000000">created_timestamp</text>
<polygon fill="none" stroke="#000000" points="622.5,-169.2 622.5,-191.2 689.5,-191.2 689.5,-169.2 622.5,-169.2"/>
<text text-anchor="start" x="625.5" y="-176.9" font-family="Helvetica,sans-Serif" font-size="11.00" fill="#000000">int8[19]</text>
<polygon fill="none" stroke="#000000" points="434.5,-147.2 434.5,-169.2 622.5,-169.2 622.5,-147.2 434.5,-147.2"/>
<text text-anchor="start" x="454.5" y="-154.3" font-family="Helvetica,sans-Serif" font-size="11.00" fill="#000000">granted_timestamp</text>
<polygon fill="none" stroke="#000000" points="622.5,-147.2 622.5,-169.2 689.5,-169.2 689.5,-147.2 622.5,-147.2"/>
<text text-anchor="start" x="625.5" y="-154.9" font-family="Helvetica,sans-Serif" font-size="11.00" fill="#000000">int8[19]</text>
<polygon fill="#ffffff" stroke="transparent" points="434.5,-125.2 434.5,-147.2 622.5,-147.2 622.5,-125.2 434.5,-125.2"/>
<polygon fill="none" stroke="#000000" points="434.5,-125.2 434.5,-147.2 622.5,-147.2 622.5,-125.2 434.5,-125.2"/>
<image xlink:href="../../images/foreignKeys.png" width="11px" height="12px" preserveAspectRatio="xMinYMin meet" x="439.5" y="-142.2"/>
<text text-anchor="start" x="454.5" y="-132.3" font-family="Helvetica,sans-Serif" font-size="11.00" fill="#000000">resource_id</text>
<polygon fill="none" stroke="#000000" points="622.5,-125.2 622.5,-147.2 689.5,-147.2 689.5,-125.2 622.5,-125.2"/>
<text text-anchor="start" x="625.5" y="-132.9" font-family="Helvetica,sans-Serif" font-size="11.00" fill="#000000">varchar[36]</text>
<polygon fill="#ffffff" stroke="transparent" points="434.5,-103.2 434.5,-125.2 622.5,-125.2 622.5,-103.2 434.5,-103.2"/>
<polygon fill="none" stroke="#000000" points="434.5,-103.2 434.5,-125.2 622.5,-125.2 622.5,-103.2 434.5,-103.2"/>
<image xlink:href="../../images/foreignKeys.png" width="11px" height="12px" preserveAspectRatio="xMinYMin meet" x="439.5" y="-120.2"/>
<text text-anchor="start" x="454.5" y="-110.3" font-family="Helvetica,sans-Serif" font-size="11.00" fill="#000000">scope_id</text>
<polygon fill="none" stroke="#000000" points="622.5,-103.2 622.5,-125.2 689.5,-125.2 689.5,-103.2 622.5,-103.2"/>
<text text-anchor="start" x="625.5" y="-110.9" font-family="Helvetica,sans-Serif" font-size="11.00" fill="#000000">varchar[36]</text>
<polygon fill="#ffffff" stroke="transparent" points="434.5,-81.2 434.5,-103.2 622.5,-103.2 622.5,-81.2 434.5,-81.2"/>
<polygon fill="none" stroke="#000000" points="434.5,-81.2 434.5,-103.2 622.5,-103.2 622.5,-81.2 434.5,-81.2"/>
<image xlink:href="../../images/foreignKeys.png" width="11px" height="12px" preserveAspectRatio="xMinYMin meet" x="439.5" y="-98.2"/>
<text text-anchor="start" x="454.5" y="-88.3" font-family="Helvetica,sans-Serif" font-size="11.00" fill="#000000">resource_server_id</text>
<polygon fill="none" stroke="#000000" points="622.5,-81.2 622.5,-103.2 689.5,-103.2 689.5,-81.2 622.5,-81.2"/>
<text text-anchor="start" x="625.5" y="-88.9" font-family="Helvetica,sans-Serif" font-size="11.00" fill="#000000">varchar[36]</text>
<polygon fill="none" stroke="#000000" points="434.5,-59.2 434.5,-81.2 622.5,-81.2 622.5,-59.2 434.5,-59.2"/>
<image xlink:href="../../images/foreignKeys.png" width="11px" height="12px" preserveAspectRatio="xMinYMin meet" x="439.5" y="-76.2"/>
<text text-anchor="start" x="454.5" y="-66.3" font-family="Helvetica,sans-Serif" font-size="11.00" fill="#000000">policy_id</text>
<polygon fill="none" stroke="#000000" points="622.5,-59.2 622.5,-81.2 689.5,-81.2 689.5,-59.2 622.5,-59.2"/>
<text text-anchor="start" x="625.5" y="-66.9" font-family="Helvetica,sans-Serif" font-size="11.00" fill="#000000">varchar[36]</text>
<polygon fill="#ffffff" stroke="transparent" points="434.5,-40.2 434.5,-59.2 519.5,-59.2 519.5,-40.2 434.5,-40.2"/>
<polygon fill="none" stroke="#000000" points="434.5,-40.2 434.5,-59.2 519.5,-59.2 519.5,-40.2 434.5,-40.2"/>
<text text-anchor="start" x="437.5" y="-46.3" font-family="Helvetica,sans-Serif" font-size="11.00" fill="#000000">&lt; 4</text>
<polygon fill="#ffffff" stroke="transparent" points="519.5,-40.2 519.5,-59.2 622.5,-59.2 622.5,-40.2 519.5,-40.2"/>
<polygon fill="none" stroke="#000000" points="519.5,-40.2 519.5,-59.2 622.5,-59.2 622.5,-40.2 519.5,-40.2"/>
<text text-anchor="start" x="587.1105" y="-46.3" font-family="Helvetica,sans-Serif" font-size="11.00" fill="#000000">0 rows</text>
<polygon fill="#ffffff" stroke="transparent" points="622.5,-40.2 622.5,-59.2 689.5,-59.2 689.5,-40.2 622.5,-40.2"/>
<polygon fill="none" stroke="#000000" points="622.5,-40.2 622.5,-59.2 689.5,-59.2 689.5,-40.2 622.5,-40.2"/>
<text text-anchor="start" x="670.9053" y="-46.3" font-family="Helvetica,sans-Serif" font-size="11.00" fill="#000000">0 &gt;</text>
<polygon fill="none" stroke="#000000" stroke-width="2" points="433,-39.2 433,-281.2 690,-281.2 690,-39.2 433,-39.2"/>
</a>
</g>
</g>
<!-- resource_server_perm_ticket&#45;&gt;resource_server_policy -->
<g id="edge9" class="edge">
<title>resource_server_perm_ticket:w&#45;&gt;resource_server_policy:e</title>
<path fill="none" stroke="#000000" d="M422.5815,-78.5263C378.2457,-150.1162 436.6474,-659.2 375.5,-659.2"/>
<polygon fill="#000000" stroke="#000000" points="427.9418,-74.7816 436.5617,-73.1512 431.2209,-72.4908 434.5,-70.2 434.5,-70.2 434.5,-70.2 431.2209,-72.4908 432.4383,-67.2488 427.9418,-74.7816 427.9418,-74.7816"/>
<ellipse fill="none" stroke="#000000" cx="425.3186" cy="-76.6142" rx="3.2" ry="3.2"/>
</g>
<!-- resource_server_perm_ticket&#45;&gt;resource_server_resource -->
<g id="edge10" class="edge">
<title>resource_server_perm_ticket:w&#45;&gt;resource_server_resource:e</title>
<path fill="none" stroke="#000000" d="M420.7323,-141.5037C375.5481,-183.2399 450.2263,-457.2 383.5,-457.2"/>
<polygon fill="#000000" stroke="#000000" points="427.0348,-139.0759 435.7941,-139.5594 430.7674,-137.6379 434.5,-136.2 434.5,-136.2 434.5,-136.2 430.7674,-137.6379 433.2059,-132.8406 427.0348,-139.0759 427.0348,-139.0759"/>
<ellipse fill="none" stroke="#000000" cx="424.0487" cy="-140.2262" rx="3.2" ry="3.2"/>
</g>
<!-- resource_server_perm_ticket&#45;&gt;resource_server_scope -->
<g id="edge12" class="edge">
<title>resource_server_perm_ticket:w&#45;&gt;resource_server_scope:e</title>
<path fill="none" stroke="#000000" d="M420.0133,-116.6456C367.1407,-137.6728 451.893,-287.2 376.5,-287.2"/>
<polygon fill="#000000" stroke="#000000" points="426.6116,-115.5317 435.0993,-117.7498 430.5558,-114.8659 434.5,-114.2 434.5,-114.2 434.5,-114.2 430.5558,-114.8659 433.9007,-110.6502 426.6116,-115.5317 426.6116,-115.5317"/>
<ellipse fill="none" stroke="#000000" cx="423.4563" cy="-116.0644" rx="3.2" ry="3.2"/>
</g>
<!-- resource_server_perm_ticket&#45;&gt;resource_server -->
<g id="edge11" class="edge">
<title>resource_server_perm_ticket:w&#45;&gt;resource_server:e</title>
<path fill="none" stroke="#000000" d="M420.0184,-92.2707C320.0457,-93.3117 275.2924,-106.6396 204,-184.2 162.1841,-229.6923 225.291,-317.2 163.5,-317.2"/>
<polygon fill="#000000" stroke="#000000" points="426.5001,-92.2391 434.5176,-95.8 430.5,-92.2196 434.5,-92.2 434.5,-92.2 434.5,-92.2 430.5,-92.2196 434.4824,-88.6 426.5001,-92.2391 426.5001,-92.2391"/>
<ellipse fill="none" stroke="#000000" cx="423.3001" cy="-92.2548" rx="3.2" ry="3.2"/>
</g>
<!-- resource_uris -->
<g id="node11" class="node">
<title>resource_uris</title>
<g id="a_node11"><a xlink:href="../../tables/resource_uris.html" xlink:title="resource_uris" target="_top">
<polygon fill="#ffffff" stroke="transparent" points="507,-385.7 507,-446.7 616,-446.7 616,-385.7 507,-385.7"/>
<polygon fill="#f5f5f5" stroke="transparent" points="507.5,-423.2 507.5,-446.2 616.5,-446.2 616.5,-423.2 507.5,-423.2"/>
<polygon fill="none" stroke="#000000" points="507.5,-423.2 507.5,-446.2 616.5,-446.2 616.5,-423.2 507.5,-423.2"/>
<text text-anchor="start" x="512.192" y="-432.3" font-family="Helvetica,sans-Serif" font-weight="bold" font-size="11.00" fill="#000000">resource_uris</text>
<text text-anchor="start" x="582.0219" y="-431.3" font-family="Helvetica,sans-Serif" font-size="11.00" fill="#000000">[table]</text>
<polygon fill="none" stroke="#000000" points="507.5,-404.2 507.5,-423.2 616.5,-423.2 616.5,-404.2 507.5,-404.2"/>
<text text-anchor="start" x="510.5" y="-410.3" font-family="Helvetica,sans-Serif" font-size="11.00" fill="#000000">...</text>
<polygon fill="#ffffff" stroke="transparent" points="507.5,-385.2 507.5,-404.2 547.5,-404.2 547.5,-385.2 507.5,-385.2"/>
<polygon fill="none" stroke="#000000" points="507.5,-385.2 507.5,-404.2 547.5,-404.2 547.5,-385.2 507.5,-385.2"/>
<text text-anchor="start" x="510.5" y="-391.3" font-family="Helvetica,sans-Serif" font-size="11.00" fill="#000000">&lt; 1</text>
<polygon fill="#ffffff" stroke="transparent" points="547.5,-385.2 547.5,-404.2 594.5,-404.2 594.5,-385.2 547.5,-385.2"/>
<polygon fill="none" stroke="#000000" points="547.5,-385.2 547.5,-404.2 594.5,-404.2 594.5,-385.2 547.5,-385.2"/>
<text text-anchor="start" x="559.1105" y="-391.3" font-family="Helvetica,sans-Serif" font-size="11.00" fill="#000000">0 rows</text>
<polygon fill="#ffffff" stroke="transparent" points="594.5,-385.2 594.5,-404.2 616.5,-404.2 616.5,-385.2 594.5,-385.2"/>
<polygon fill="none" stroke="#000000" points="594.5,-385.2 594.5,-404.2 616.5,-404.2 616.5,-385.2 594.5,-385.2"/>
<text text-anchor="start" x="607.3862" y="-391.3" font-family="Helvetica,sans-Serif" font-size="11.00" fill="#000000"> &#160;</text>
</a>
</g>
</g>
<!-- resource_uris&#45;&gt;resource_server_resource -->
<g id="edge16" class="edge">
<title>resource_uris:w&#45;&gt;resource_server_resource:e</title>
<path fill="none" stroke="#000000" d="M492.9093,-414.2017C447.3412,-420.7511 436.7239,-457.2 383.5,-457.2"/>
<polygon fill="#000000" stroke="#000000" points="499.5188,-413.748 507.7466,-416.7915 503.5094,-413.474 507.5,-413.2 507.5,-413.2 507.5,-413.2 503.5094,-413.474 507.2534,-409.6085 499.5188,-413.748 499.5188,-413.748"/>
<ellipse fill="none" stroke="#000000" cx="496.3263" cy="-413.9672" rx="3.2" ry="3.2"/>
</g>
<!-- scope_policy -->
<g id="node12" class="node">
<title>scope_policy</title>
<g id="a_node12"><a xlink:href="../../tables/scope_policy.html" xlink:title="scope_policy" target="_top">
<polygon fill="#ffffff" stroke="transparent" points="508.5,-467.7 508.5,-528.7 614.5,-528.7 614.5,-467.7 508.5,-467.7"/>
<polygon fill="#f5f5f5" stroke="transparent" points="508.5,-505.2 508.5,-528.2 614.5,-528.2 614.5,-505.2 508.5,-505.2"/>
<polygon fill="none" stroke="#000000" points="508.5,-505.2 508.5,-528.2 614.5,-528.2 614.5,-505.2 508.5,-505.2"/>
<text text-anchor="start" x="513.2144" y="-514.3" font-family="Helvetica,sans-Serif" font-weight="bold" font-size="11.00" fill="#000000">scope_policy</text>
<text text-anchor="start" x="580.0219" y="-513.3" font-family="Helvetica,sans-Serif" font-size="11.00" fill="#000000">[table]</text>
<polygon fill="none" stroke="#000000" points="508.5,-486.2 508.5,-505.2 614.5,-505.2 614.5,-486.2 508.5,-486.2"/>
<text text-anchor="start" x="511.5" y="-492.3" font-family="Helvetica,sans-Serif" font-size="11.00" fill="#000000">...</text>
<polygon fill="#ffffff" stroke="transparent" points="508.5,-467.2 508.5,-486.2 546.5,-486.2 546.5,-467.2 508.5,-467.2"/>
<polygon fill="none" stroke="#000000" points="508.5,-467.2 508.5,-486.2 546.5,-486.2 546.5,-467.2 508.5,-467.2"/>
<text text-anchor="start" x="511.5" y="-473.3" font-family="Helvetica,sans-Serif" font-size="11.00" fill="#000000">&lt; 2</text>
<polygon fill="#ffffff" stroke="transparent" points="546.5,-467.2 546.5,-486.2 593.5,-486.2 593.5,-467.2 546.5,-467.2"/>
<polygon fill="none" stroke="#000000" points="546.5,-467.2 546.5,-486.2 593.5,-486.2 593.5,-467.2 546.5,-467.2"/>
<text text-anchor="start" x="558.1105" y="-473.3" font-family="Helvetica,sans-Serif" font-size="11.00" fill="#000000">0 rows</text>
<polygon fill="#ffffff" stroke="transparent" points="593.5,-467.2 593.5,-486.2 614.5,-486.2 614.5,-467.2 593.5,-467.2"/>
<polygon fill="none" stroke="#000000" points="593.5,-467.2 593.5,-486.2 614.5,-486.2 614.5,-467.2 593.5,-467.2"/>
<text text-anchor="start" x="605.3862" y="-473.3" font-family="Helvetica,sans-Serif" font-size="11.00" fill="#000000"> &#160;</text>
</a>
</g>
</g>
<!-- scope_policy&#45;&gt;resource_server_policy -->
<g id="edge17" class="edge">
<title>scope_policy:w&#45;&gt;resource_server_policy:e</title>
<path fill="none" stroke="#000000" d="M493.8801,-495.8051C462.505,-498.6564 448.9108,-511.7756 424,-539.2 385.3222,-581.7806 433.0247,-659.2 375.5,-659.2"/>
<polygon fill="#000000" stroke="#000000" points="500.5068,-495.5309 508.6489,-498.7969 504.5034,-495.3654 508.5,-495.2 508.5,-495.2 508.5,-495.2 504.5034,-495.3654 508.3511,-491.6031 500.5068,-495.5309 500.5068,-495.5309"/>
<ellipse fill="none" stroke="#000000" cx="497.3096" cy="-495.6632" rx="3.2" ry="3.2"/>
</g>
<!-- scope_policy&#45;&gt;resource_server_scope -->
<g id="edge18" class="edge">
<title>scope_policy:w&#45;&gt;resource_server_scope:e</title>
<path fill="none" stroke="#000000" d="M493.7224,-494.8325C462.8525,-493.0889 447.1945,-484.5621 424,-457.2 373.2727,-397.358 454.9495,-287.2 376.5,-287.2"/>
<polygon fill="#000000" stroke="#000000" points="500.5025,-495.0011 508.4105,-498.7989 504.5012,-495.1005 508.5,-495.2 508.5,-495.2 508.5,-495.2 504.5012,-495.1005 508.5895,-491.6011 500.5025,-495.0011 500.5025,-495.0011"/>
<ellipse fill="none" stroke="#000000" cx="497.3035" cy="-494.9215" rx="3.2" ry="3.2"/>
</g>
</g>
</svg>
