<?xml version="1.0" encoding="UTF-8" standalone="no"?>
<!DOCTYPE svg PUBLIC "-//W3C//DTD SVG 1.1//EN"
 "http://www.w3.org/Graphics/SVG/1.1/DTD/svg11.dtd">
<!-- Generated by graphviz version 2.40.1 (20161225.0304)
 -->
<!-- Title: oneDegreeRelationshipsDiagram Pages: 1 -->
<svg width="691pt" height="713pt"
 viewBox="0.00 0.00 691.00 713.20" xmlns="http://www.w3.org/2000/svg" xmlns:xlink="http://www.w3.org/1999/xlink">
<g id="graph0" class="graph" transform="scale(1 1) rotate(0) translate(4 709.2)">
<title>oneDegreeRelationshipsDiagram</title>
<polygon fill="#ffffff" stroke="transparent" points="-4,4 -4,-709.2 687,-709.2 687,4 -4,4"/>
<text text-anchor="middle" x="72.4936" y="-7.3" font-family="Helvetica,sans-Serif" font-size="11.00" fill="#000000">Generated by SchemaSpy</text>
<!-- associated_policy -->
<g id="node1" class="node">
<title>associated_policy</title>
<g id="a_node1"><a xlink:href="../../tables/associated_policy.html" xlink:title="associated_policy" target="_top">
<polygon fill="#ffffff" stroke="transparent" points="510.5,-274.7 510.5,-360.7 651.5,-360.7 651.5,-274.7 510.5,-274.7"/>
<polygon fill="#f5f5f5" stroke="transparent" points="511,-337.7 511,-360.7 652,-360.7 652,-337.7 511,-337.7"/>
<polygon fill="none" stroke="#000000" points="511,-337.7 511,-360.7 652,-360.7 652,-337.7 511,-337.7"/>
<text text-anchor="start" x="516" y="-346.8" font-family="Helvetica,sans-Serif" font-weight="bold" font-size="11.00" fill="#000000">associated_policy</text>
<text text-anchor="start" x="617.0437" y="-345.8" font-family="Helvetica,sans-Serif" font-size="11.00" fill="#000000">[table]</text>
<polygon fill="none" stroke="#000000" points="511,-315.7 511,-337.7 652,-337.7 652,-315.7 511,-315.7"/>
<image xlink:href="../../images/primaryKeys.png" width="11px" height="12px" preserveAspectRatio="xMinYMin meet" x="516" y="-332.7"/>
<text text-anchor="start" x="531" y="-322.8" font-family="Helvetica,sans-Serif" font-size="11.00" fill="#000000">policy_id</text>
<polygon fill="none" stroke="#000000" points="511,-293.7 511,-315.7 652,-315.7 652,-293.7 511,-293.7"/>
<image xlink:href="../../images/primaryKeys.png" width="11px" height="12px" preserveAspectRatio="xMinYMin meet" x="516" y="-310.7"/>
<text text-anchor="start" x="531" y="-300.8" font-family="Helvetica,sans-Serif" font-size="11.00" fill="#000000">associated_policy_id</text>
<polygon fill="#ffffff" stroke="transparent" points="511,-274.7 511,-293.7 567,-293.7 567,-274.7 511,-274.7"/>
<polygon fill="none" stroke="#000000" points="511,-274.7 511,-293.7 567,-293.7 567,-274.7 511,-274.7"/>
<text text-anchor="start" x="514" y="-280.8" font-family="Helvetica,sans-Serif" font-size="11.00" fill="#000000">&lt; 2</text>
<polygon fill="#ffffff" stroke="transparent" points="567,-274.7 567,-293.7 622,-293.7 622,-274.7 567,-274.7"/>
<polygon fill="none" stroke="#000000" points="567,-274.7 567,-293.7 622,-293.7 622,-274.7 567,-274.7"/>
<text text-anchor="start" x="586.6105" y="-280.8" font-family="Helvetica,sans-Serif" font-size="11.00" fill="#000000">0 rows</text>
<polygon fill="#ffffff" stroke="transparent" points="622,-274.7 622,-293.7 652,-293.7 652,-274.7 622,-274.7"/>
<polygon fill="none" stroke="#000000" points="622,-274.7 622,-293.7 652,-293.7 652,-274.7 622,-274.7"/>
<text text-anchor="start" x="642.8862" y="-280.8" font-family="Helvetica,sans-Serif" font-size="11.00" fill="#000000"> &#160;</text>
</a>
</g>
</g>
<!-- resource_server_policy -->
<g id="node2" class="node">
<title>resource_server_policy</title>
<g id="a_node2"><a xlink:href="../../tables/resource_server_policy.html" xlink:title="resource_server_policy" target="_top">
<polygon fill="#ffffff" stroke="transparent" points="212,-140.7 212,-362.7 438,-362.7 438,-140.7 212,-140.7"/>
<polygon fill="#f5f5f5" stroke="transparent" points="214,-337.7 214,-360.7 436,-360.7 436,-337.7 214,-337.7"/>
<polygon fill="none" stroke="#000000" points="214,-337.7 214,-360.7 436,-360.7 436,-337.7 214,-337.7"/>
<text text-anchor="start" x="219" y="-346.8" font-family="Helvetica,sans-Serif" font-weight="bold" font-size="11.00" fill="#000000">resource_server_policy</text>
<text text-anchor="start" x="401.0437" y="-345.8" font-family="Helvetica,sans-Serif" font-size="11.00" fill="#000000">[table]</text>
<polygon fill="none" stroke="#000000" points="214,-315.7 214,-337.7 369,-337.7 369,-315.7 214,-315.7"/>
<image xlink:href="../../images/primaryKeys.png" width="11px" height="12px" preserveAspectRatio="xMinYMin meet" x="219" y="-332.7"/>
<text text-anchor="start" x="234" y="-322.8" font-family="Helvetica,sans-Serif" font-size="11.00" fill="#000000">id</text>
<polygon fill="none" stroke="#000000" points="369,-315.7 369,-337.7 436,-337.7 436,-315.7 369,-315.7"/>
<text text-anchor="start" x="372" y="-323.4" font-family="Helvetica,sans-Serif" font-size="11.00" fill="#000000">varchar[36]</text>
<polygon fill="#ffffff" stroke="transparent" points="214,-293.7 214,-315.7 369,-315.7 369,-293.7 214,-293.7"/>
<polygon fill="none" stroke="#000000" points="214,-293.7 214,-315.7 369,-315.7 369,-293.7 214,-293.7"/>
<text text-anchor="start" x="234" y="-300.8" font-family="Helvetica,sans-Serif" font-size="11.00" fill="#000000">name</text>
<polygon fill="none" stroke="#000000" points="369,-293.7 369,-315.7 436,-315.7 436,-293.7 369,-293.7"/>
<text text-anchor="start" x="371.9365" y="-301.4" font-family="Helvetica,sans-Serif" font-size="11.00" fill="#000000">varchar[255]</text>
<polygon fill="none" stroke="#000000" points="214,-271.7 214,-293.7 369,-293.7 369,-271.7 214,-271.7"/>
<text text-anchor="start" x="234" y="-278.8" font-family="Helvetica,sans-Serif" font-size="11.00" fill="#000000">description</text>
<polygon fill="none" stroke="#000000" points="369,-271.7 369,-293.7 436,-293.7 436,-271.7 369,-271.7"/>
<text text-anchor="start" x="371.9365" y="-279.4" font-family="Helvetica,sans-Serif" font-size="11.00" fill="#000000">varchar[255]</text>
<polygon fill="none" stroke="#000000" points="214,-249.7 214,-271.7 369,-271.7 369,-249.7 214,-249.7"/>
<text text-anchor="start" x="234" y="-256.8" font-family="Helvetica,sans-Serif" font-size="11.00" fill="#000000">type</text>
<polygon fill="none" stroke="#000000" points="369,-249.7 369,-271.7 436,-271.7 436,-249.7 369,-249.7"/>
<text text-anchor="start" x="371.9365" y="-257.4" font-family="Helvetica,sans-Serif" font-size="11.00" fill="#000000">varchar[255]</text>
<polygon fill="none" stroke="#000000" points="214,-227.7 214,-249.7 369,-249.7 369,-227.7 214,-227.7"/>
<text text-anchor="start" x="234" y="-234.8" font-family="Helvetica,sans-Serif" font-size="11.00" fill="#000000">decision_strategy</text>
<polygon fill="none" stroke="#000000" points="369,-227.7 369,-249.7 436,-249.7 436,-227.7 369,-227.7"/>
<text text-anchor="start" x="372" y="-235.4" font-family="Helvetica,sans-Serif" font-size="11.00" fill="#000000">varchar[20]</text>
<polygon fill="none" stroke="#000000" points="214,-205.7 214,-227.7 369,-227.7 369,-205.7 214,-205.7"/>
<text text-anchor="start" x="234" y="-212.8" font-family="Helvetica,sans-Serif" font-size="11.00" fill="#000000">logic</text>
<polygon fill="none" stroke="#000000" points="369,-205.7 369,-227.7 436,-227.7 436,-205.7 369,-205.7"/>
<text text-anchor="start" x="372" y="-213.4" font-family="Helvetica,sans-Serif" font-size="11.00" fill="#000000">varchar[20]</text>
<polygon fill="#ffffff" stroke="transparent" points="214,-183.7 214,-205.7 369,-205.7 369,-183.7 214,-183.7"/>
<polygon fill="none" stroke="#000000" points="214,-183.7 214,-205.7 369,-205.7 369,-183.7 214,-183.7"/>
<image xlink:href="../../images/foreignKeys.png" width="11px" height="12px" preserveAspectRatio="xMinYMin meet" x="219" y="-200.7"/>
<text text-anchor="start" x="234" y="-190.8" font-family="Helvetica,sans-Serif" font-size="11.00" fill="#000000">resource_server_id</text>
<polygon fill="none" stroke="#000000" points="369,-183.7 369,-205.7 436,-205.7 436,-183.7 369,-183.7"/>
<text text-anchor="start" x="372" y="-191.4" font-family="Helvetica,sans-Serif" font-size="11.00" fill="#000000">varchar[36]</text>
<polygon fill="none" stroke="#000000" points="214,-161.7 214,-183.7 369,-183.7 369,-161.7 214,-161.7"/>
<text text-anchor="start" x="234" y="-168.8" font-family="Helvetica,sans-Serif" font-size="11.00" fill="#000000">owner</text>
<polygon fill="none" stroke="#000000" points="369,-161.7 369,-183.7 436,-183.7 436,-161.7 369,-161.7"/>
<text text-anchor="start" x="371.9365" y="-169.4" font-family="Helvetica,sans-Serif" font-size="11.00" fill="#000000">varchar[255]</text>
<polygon fill="#ffffff" stroke="transparent" points="214,-142.7 214,-161.7 283,-161.7 283,-142.7 214,-142.7"/>
<polygon fill="none" stroke="#000000" points="214,-142.7 214,-161.7 283,-161.7 283,-142.7 214,-142.7"/>
<text text-anchor="start" x="217" y="-148.8" font-family="Helvetica,sans-Serif" font-size="11.00" fill="#000000">&lt; 1</text>
<polygon fill="#ffffff" stroke="transparent" points="283,-142.7 283,-161.7 369,-161.7 369,-142.7 283,-142.7"/>
<polygon fill="none" stroke="#000000" points="283,-142.7 283,-161.7 369,-161.7 369,-142.7 283,-142.7"/>
<text text-anchor="start" x="333.6105" y="-148.8" font-family="Helvetica,sans-Serif" font-size="11.00" fill="#000000">0 rows</text>
<polygon fill="#ffffff" stroke="transparent" points="369,-142.7 369,-161.7 436,-161.7 436,-142.7 369,-142.7"/>
<polygon fill="none" stroke="#000000" points="369,-142.7 369,-161.7 436,-161.7 436,-142.7 369,-142.7"/>
<text text-anchor="start" x="417.4053" y="-148.8" font-family="Helvetica,sans-Serif" font-size="11.00" fill="#000000">6 &gt;</text>
<polygon fill="none" stroke="#000000" stroke-width="2" points="213,-141.7 213,-361.7 437,-361.7 437,-141.7 213,-141.7"/>
</a>
</g>
</g>
<!-- associated_policy&#45;&gt;resource_server_policy -->
<g id="edge1" class="edge">
<title>associated_policy:w&#45;&gt;resource_server_policy:e</title>
<path fill="none" stroke="#000000" d="M496.6334,-306.1435C473.8226,-311.0379 465.31,-326.7 436,-326.7"/>
<polygon fill="#000000" stroke="#000000" points="503.0401,-305.4998 511.3599,-308.282 507.02,-305.0999 511,-304.7 511,-304.7 511,-304.7 507.02,-305.0999 510.6401,-301.118 503.0401,-305.4998 503.0401,-305.4998"/>
<ellipse fill="none" stroke="#000000" cx="499.8561" cy="-305.8198" rx="3.2" ry="3.2"/>
</g>
<!-- associated_policy&#45;&gt;resource_server_policy -->
<g id="edge2" class="edge">
<title>associated_policy:w&#45;&gt;resource_server_policy:e</title>
<path fill="none" stroke="#000000" d="M496.3917,-326.7C474.2594,-326.7 463.8646,-326.7 436,-326.7"/>
<polygon fill="#000000" stroke="#000000" points="503,-326.7001 511,-330.3 507,-326.7 511,-326.7 511,-326.7 511,-326.7 507,-326.7 511,-323.1 503,-326.7001 503,-326.7001"/>
<ellipse fill="none" stroke="#000000" cx="499.8" cy="-326.7001" rx="3.2" ry="3.2"/>
</g>
<!-- resource_server -->
<g id="node6" class="node">
<title>resource_server</title>
<g id="a_node6"><a xlink:href="../../tables/resource_server.html" xlink:title="resource_server" target="_top">
<polygon fill="#ffffff" stroke="transparent" points="8,-107.2 8,-190.2 163,-190.2 163,-107.2 8,-107.2"/>
<polygon fill="#f5f5f5" stroke="transparent" points="8.5,-166.7 8.5,-189.7 163.5,-189.7 163.5,-166.7 8.5,-166.7"/>
<polygon fill="none" stroke="#000000" points="8.5,-166.7 8.5,-189.7 163.5,-189.7 163.5,-166.7 8.5,-166.7"/>
<text text-anchor="start" x="13.5" y="-175.8" font-family="Helvetica,sans-Serif" font-weight="bold" font-size="11.00" fill="#000000">resource_server</text>
<text text-anchor="start" x="128.5437" y="-174.8" font-family="Helvetica,sans-Serif" font-size="11.00" fill="#000000">[table]</text>
<polygon fill="none" stroke="#000000" points="8.5,-144.7 8.5,-166.7 163.5,-166.7 163.5,-144.7 8.5,-144.7"/>
<image xlink:href="../../images/primaryKeys.png" width="11px" height="12px" preserveAspectRatio="xMinYMin meet" x="13.5" y="-161.7"/>
<text text-anchor="start" x="28.5" y="-151.8" font-family="Helvetica,sans-Serif" font-size="11.00" fill="#000000">id</text>
<polygon fill="none" stroke="#000000" points="8.5,-125.7 8.5,-144.7 163.5,-144.7 163.5,-125.7 8.5,-125.7"/>
<text text-anchor="start" x="11.5" y="-131.8" font-family="Helvetica,sans-Serif" font-size="11.00" fill="#000000">...</text>
<polygon fill="#ffffff" stroke="transparent" points="8.5,-106.7 8.5,-125.7 62.5,-125.7 62.5,-106.7 8.5,-106.7"/>
<polygon fill="none" stroke="#000000" points="8.5,-106.7 8.5,-125.7 62.5,-125.7 62.5,-106.7 8.5,-106.7"/>
<text text-anchor="start" x="11.5" y="-112.8" font-family="Helvetica,sans-Serif" font-size="11.00" fill="#000000"> &#160;</text>
<polygon fill="#ffffff" stroke="transparent" points="62.5,-106.7 62.5,-125.7 121.5,-125.7 121.5,-106.7 62.5,-106.7"/>
<polygon fill="none" stroke="#000000" points="62.5,-106.7 62.5,-125.7 121.5,-125.7 121.5,-106.7 62.5,-106.7"/>
<text text-anchor="start" x="86.1105" y="-112.8" font-family="Helvetica,sans-Serif" font-size="11.00" fill="#000000">0 rows</text>
<polygon fill="#ffffff" stroke="transparent" points="121.5,-106.7 121.5,-125.7 163.5,-125.7 163.5,-106.7 121.5,-106.7"/>
<polygon fill="none" stroke="#000000" points="121.5,-106.7 121.5,-125.7 163.5,-125.7 163.5,-106.7 121.5,-106.7"/>
<text text-anchor="start" x="144.9053" y="-112.8" font-family="Helvetica,sans-Serif" font-size="11.00" fill="#000000">4 &gt;</text>
</a>
</g>
</g>
<!-- resource_server_policy&#45;&gt;resource_server -->
<g id="edge7" class="edge">
<title>resource_server_policy:w&#45;&gt;resource_server:e</title>
<path fill="none" stroke="#000000" d="M200.0207,-190.2262C186.7259,-179.9822 185.8765,-155.7 163.5,-155.7"/>
<polygon fill="#000000" stroke="#000000" points="206.3807,-192.2616 212.9027,-198.1287 210.1903,-193.4808 214,-194.7 214,-194.7 214,-194.7 210.1903,-193.4808 215.0973,-191.2713 206.3807,-192.2616 206.3807,-192.2616"/>
<ellipse fill="none" stroke="#000000" cx="203.3329" cy="-191.2862" rx="3.2" ry="3.2"/>
</g>
<!-- policy_config -->
<g id="node3" class="node">
<title>policy_config</title>
<g id="a_node3"><a xlink:href="../../tables/policy_config.html" xlink:title="policy_config" target="_top">
<polygon fill="#ffffff" stroke="transparent" points="528,-596.2 528,-701.2 634,-701.2 634,-596.2 528,-596.2"/>
<polygon fill="#f5f5f5" stroke="transparent" points="528,-677.7 528,-700.7 634,-700.7 634,-677.7 528,-677.7"/>
<polygon fill="none" stroke="#000000" points="528,-677.7 528,-700.7 634,-700.7 634,-677.7 528,-677.7"/>
<text text-anchor="start" x="532.7155" y="-686.8" font-family="Helvetica,sans-Serif" font-weight="bold" font-size="11.00" fill="#000000">policy_config</text>
<text text-anchor="start" x="599.5219" y="-685.8" font-family="Helvetica,sans-Serif" font-size="11.00" fill="#000000">[table]</text>
<polygon fill="none" stroke="#000000" points="528,-655.7 528,-677.7 634,-677.7 634,-655.7 528,-655.7"/>
<image xlink:href="../../images/primaryKeys.png" width="11px" height="12px" preserveAspectRatio="xMinYMin meet" x="533" y="-672.7"/>
<text text-anchor="start" x="552" y="-662.8" font-family="Helvetica,sans-Serif" font-size="11.00" fill="#000000">policy_id</text>
<polygon fill="none" stroke="#000000" points="528,-633.7 528,-655.7 634,-655.7 634,-633.7 528,-633.7"/>
<image xlink:href="../../images/primaryKeys.png" width="11px" height="12px" preserveAspectRatio="xMinYMin meet" x="533" y="-650.7"/>
<text text-anchor="start" x="552" y="-640.8" font-family="Helvetica,sans-Serif" font-size="11.00" fill="#000000">name</text>
<polygon fill="none" stroke="#000000" points="528,-614.7 528,-633.7 634,-633.7 634,-614.7 528,-614.7"/>
<text text-anchor="start" x="531" y="-620.8" font-family="Helvetica,sans-Serif" font-size="11.00" fill="#000000">...</text>
<polygon fill="#ffffff" stroke="transparent" points="528,-595.7 528,-614.7 566,-614.7 566,-595.7 528,-595.7"/>
<polygon fill="none" stroke="#000000" points="528,-595.7 528,-614.7 566,-614.7 566,-595.7 528,-595.7"/>
<text text-anchor="start" x="531" y="-601.8" font-family="Helvetica,sans-Serif" font-size="11.00" fill="#000000">&lt; 1</text>
<polygon fill="#ffffff" stroke="transparent" points="566,-595.7 566,-614.7 613,-614.7 613,-595.7 566,-595.7"/>
<polygon fill="none" stroke="#000000" points="566,-595.7 566,-614.7 613,-614.7 613,-595.7 566,-595.7"/>
<text text-anchor="start" x="577.6105" y="-601.8" font-family="Helvetica,sans-Serif" font-size="11.00" fill="#000000">0 rows</text>
<polygon fill="#ffffff" stroke="transparent" points="613,-595.7 613,-614.7 634,-614.7 634,-595.7 613,-595.7"/>
<polygon fill="none" stroke="#000000" points="613,-595.7 613,-614.7 634,-614.7 634,-595.7 613,-595.7"/>
<text text-anchor="start" x="624.8862" y="-601.8" font-family="Helvetica,sans-Serif" font-size="11.00" fill="#000000"> &#160;</text>
</a>
</g>
</g>
<!-- policy_config&#45;&gt;resource_server_policy -->
<g id="edge3" class="edge">
<title>policy_config:w&#45;&gt;resource_server_policy:e</title>
<path fill="none" stroke="#000000" d="M513.6996,-664.6041C487.5702,-655.703 491.6578,-619.9206 479,-585.7 458.7597,-530.98 494.3434,-326.7 436,-326.7"/>
<polygon fill="#000000" stroke="#000000" points="520.0846,-665.5398 527.4779,-670.2619 524.0423,-666.1199 528,-666.7 528,-666.7 528,-666.7 524.0423,-666.1199 528.5221,-663.1381 520.0846,-665.5398 520.0846,-665.5398"/>
<ellipse fill="none" stroke="#000000" cx="516.9184" cy="-665.0758" rx="3.2" ry="3.2"/>
</g>
<!-- resource_policy -->
<g id="node4" class="node">
<title>resource_policy</title>
<g id="a_node4"><a xlink:href="../../tables/resource_policy.html" xlink:title="resource_policy" target="_top">
<polygon fill="#ffffff" stroke="transparent" points="521,-488.7 521,-574.7 641,-574.7 641,-488.7 521,-488.7"/>
<polygon fill="#f5f5f5" stroke="transparent" points="521,-551.7 521,-574.7 641,-574.7 641,-551.7 521,-551.7"/>
<polygon fill="none" stroke="#000000" points="521,-551.7 521,-574.7 641,-574.7 641,-551.7 521,-551.7"/>
<text text-anchor="start" x="525.9951" y="-560.8" font-family="Helvetica,sans-Serif" font-weight="bold" font-size="11.00" fill="#000000">resource_policy</text>
<text text-anchor="start" x="606.5219" y="-559.8" font-family="Helvetica,sans-Serif" font-size="11.00" fill="#000000">[table]</text>
<polygon fill="none" stroke="#000000" points="521,-529.7 521,-551.7 641,-551.7 641,-529.7 521,-529.7"/>
<image xlink:href="../../images/primaryKeys.png" width="11px" height="12px" preserveAspectRatio="xMinYMin meet" x="526" y="-546.7"/>
<text text-anchor="start" x="545" y="-536.8" font-family="Helvetica,sans-Serif" font-size="11.00" fill="#000000">resource_id</text>
<polygon fill="none" stroke="#000000" points="521,-507.7 521,-529.7 641,-529.7 641,-507.7 521,-507.7"/>
<image xlink:href="../../images/primaryKeys.png" width="11px" height="12px" preserveAspectRatio="xMinYMin meet" x="526" y="-524.7"/>
<text text-anchor="start" x="545" y="-514.8" font-family="Helvetica,sans-Serif" font-size="11.00" fill="#000000">policy_id</text>
<polygon fill="#ffffff" stroke="transparent" points="521,-488.7 521,-507.7 566,-507.7 566,-488.7 521,-488.7"/>
<polygon fill="none" stroke="#000000" points="521,-488.7 521,-507.7 566,-507.7 566,-488.7 521,-488.7"/>
<text text-anchor="start" x="524" y="-494.8" font-family="Helvetica,sans-Serif" font-size="11.00" fill="#000000">&lt; 2</text>
<polygon fill="#ffffff" stroke="transparent" points="566,-488.7 566,-507.7 616,-507.7 616,-488.7 566,-488.7"/>
<polygon fill="none" stroke="#000000" points="566,-488.7 566,-507.7 616,-507.7 616,-488.7 566,-488.7"/>
<text text-anchor="start" x="580.6105" y="-494.8" font-family="Helvetica,sans-Serif" font-size="11.00" fill="#000000">0 rows</text>
<polygon fill="#ffffff" stroke="transparent" points="616,-488.7 616,-507.7 641,-507.7 641,-488.7 616,-488.7"/>
<polygon fill="none" stroke="#000000" points="616,-488.7 616,-507.7 641,-507.7 641,-488.7 616,-488.7"/>
<text text-anchor="start" x="631.8862" y="-494.8" font-family="Helvetica,sans-Serif" font-size="11.00" fill="#000000"> &#160;</text>
</a>
</g>
</g>
<!-- resource_policy&#45;&gt;resource_server_policy -->
<g id="edge4" class="edge">
<title>resource_policy:w&#45;&gt;resource_server_policy:e</title>
<path fill="none" stroke="#000000" d="M506.6139,-516.0997C493.3702,-510.3642 489.2974,-495.7724 479,-478.7 442.7395,-418.5821 506.2067,-326.7 436,-326.7"/>
<polygon fill="#000000" stroke="#000000" points="513.1276,-517.277 520.3597,-522.2426 517.0638,-517.9885 521,-518.7 521,-518.7 521,-518.7 517.0638,-517.9885 521.6403,-515.1574 513.1276,-517.277 513.1276,-517.277"/>
<ellipse fill="none" stroke="#000000" cx="509.9786" cy="-516.7078" rx="3.2" ry="3.2"/>
</g>
<!-- resource_server_perm_ticket -->
<g id="node5" class="node">
<title>resource_server_perm_ticket</title>
<g id="a_node5"><a xlink:href="../../tables/resource_server_perm_ticket.html" xlink:title="resource_server_perm_ticket" target="_top">
<polygon fill="#ffffff" stroke="transparent" points="487,-38.2 487,-253.2 675,-253.2 675,-38.2 487,-38.2"/>
<polygon fill="#f5f5f5" stroke="transparent" points="487,-229.7 487,-252.7 675,-252.7 675,-229.7 487,-229.7"/>
<polygon fill="none" stroke="#000000" points="487,-229.7 487,-252.7 675,-252.7 675,-229.7 487,-229.7"/>
<text text-anchor="start" x="492" y="-238.8" font-family="Helvetica,sans-Serif" font-weight="bold" font-size="11.00" fill="#000000">resource_server_perm_ticket</text>
<text text-anchor="start" x="640.0437" y="-237.8" font-family="Helvetica,sans-Serif" font-size="11.00" fill="#000000">[table]</text>
<polygon fill="none" stroke="#000000" points="487,-207.7 487,-229.7 675,-229.7 675,-207.7 487,-207.7"/>
<image xlink:href="../../images/primaryKeys.png" width="11px" height="12px" preserveAspectRatio="xMinYMin meet" x="492" y="-224.7"/>
<text text-anchor="start" x="507" y="-214.8" font-family="Helvetica,sans-Serif" font-size="11.00" fill="#000000">id</text>
<polygon fill="#ffffff" stroke="transparent" points="487,-185.7 487,-207.7 675,-207.7 675,-185.7 487,-185.7"/>
<polygon fill="none" stroke="#000000" points="487,-185.7 487,-207.7 675,-207.7 675,-185.7 487,-185.7"/>
<text text-anchor="start" x="507" y="-192.8" font-family="Helvetica,sans-Serif" font-size="11.00" fill="#000000">owner</text>
<polygon fill="#ffffff" stroke="transparent" points="487,-163.7 487,-185.7 675,-185.7 675,-163.7 487,-163.7"/>
<polygon fill="none" stroke="#000000" points="487,-163.7 487,-185.7 675,-185.7 675,-163.7 487,-163.7"/>
<text text-anchor="start" x="507" y="-170.8" font-family="Helvetica,sans-Serif" font-size="11.00" fill="#000000">requester</text>
<polygon fill="#ffffff" stroke="transparent" points="487,-141.7 487,-163.7 675,-163.7 675,-141.7 487,-141.7"/>
<polygon fill="none" stroke="#000000" points="487,-141.7 487,-163.7 675,-163.7 675,-141.7 487,-141.7"/>
<image xlink:href="../../images/foreignKeys.png" width="11px" height="12px" preserveAspectRatio="xMinYMin meet" x="492" y="-158.7"/>
<text text-anchor="start" x="507" y="-148.8" font-family="Helvetica,sans-Serif" font-size="11.00" fill="#000000">resource_id</text>
<polygon fill="#ffffff" stroke="transparent" points="487,-119.7 487,-141.7 675,-141.7 675,-119.7 487,-119.7"/>
<polygon fill="none" stroke="#000000" points="487,-119.7 487,-141.7 675,-141.7 675,-119.7 487,-119.7"/>
<image xlink:href="../../images/foreignKeys.png" width="11px" height="12px" preserveAspectRatio="xMinYMin meet" x="492" y="-136.7"/>
<text text-anchor="start" x="507" y="-126.8" font-family="Helvetica,sans-Serif" font-size="11.00" fill="#000000">scope_id</text>
<polygon fill="#ffffff" stroke="transparent" points="487,-97.7 487,-119.7 675,-119.7 675,-97.7 487,-97.7"/>
<polygon fill="none" stroke="#000000" points="487,-97.7 487,-119.7 675,-119.7 675,-97.7 487,-97.7"/>
<image xlink:href="../../images/foreignKeys.png" width="11px" height="12px" preserveAspectRatio="xMinYMin meet" x="492" y="-114.7"/>
<text text-anchor="start" x="507" y="-104.8" font-family="Helvetica,sans-Serif" font-size="11.00" fill="#000000">resource_server_id</text>
<polygon fill="none" stroke="#000000" points="487,-75.7 487,-97.7 675,-97.7 675,-75.7 487,-75.7"/>
<image xlink:href="../../images/foreignKeys.png" width="11px" height="12px" preserveAspectRatio="xMinYMin meet" x="492" y="-92.7"/>
<text text-anchor="start" x="507" y="-82.8" font-family="Helvetica,sans-Serif" font-size="11.00" fill="#000000">policy_id</text>
<polygon fill="none" stroke="#000000" points="487,-56.7 487,-75.7 675,-75.7 675,-56.7 487,-56.7"/>
<text text-anchor="start" x="490" y="-62.8" font-family="Helvetica,sans-Serif" font-size="11.00" fill="#000000">...</text>
<polygon fill="#ffffff" stroke="transparent" points="487,-37.7 487,-56.7 566,-56.7 566,-37.7 487,-37.7"/>
<polygon fill="none" stroke="#000000" points="487,-37.7 487,-56.7 566,-56.7 566,-37.7 487,-37.7"/>
<text text-anchor="start" x="490" y="-43.8" font-family="Helvetica,sans-Serif" font-size="11.00" fill="#000000">&lt; 4</text>
<polygon fill="#ffffff" stroke="transparent" points="566,-37.7 566,-56.7 633,-56.7 633,-37.7 566,-37.7"/>
<polygon fill="none" stroke="#000000" points="566,-37.7 566,-56.7 633,-56.7 633,-37.7 566,-37.7"/>
<text text-anchor="start" x="597.6105" y="-43.8" font-family="Helvetica,sans-Serif" font-size="11.00" fill="#000000">0 rows</text>
<polygon fill="#ffffff" stroke="transparent" points="633,-37.7 633,-56.7 675,-56.7 675,-37.7 633,-37.7"/>
<polygon fill="none" stroke="#000000" points="633,-37.7 633,-56.7 675,-56.7 675,-37.7 633,-37.7"/>
<text text-anchor="start" x="665.8862" y="-43.8" font-family="Helvetica,sans-Serif" font-size="11.00" fill="#000000"> &#160;</text>
</a>
</g>
</g>
<!-- resource_server_perm_ticket&#45;&gt;resource_server_policy -->
<g id="edge5" class="edge">
<title>resource_server_perm_ticket:w&#45;&gt;resource_server_policy:e</title>
<path fill="none" stroke="#000000" d="M472.4511,-88.4938C394.2103,-110.4561 539.5108,-326.7 436,-326.7"/>
<polygon fill="#000000" stroke="#000000" points="479.0601,-87.679 487.4406,-90.2729 483.0301,-87.1895 487,-86.7 487,-86.7 487,-86.7 483.0301,-87.1895 486.5594,-83.1271 479.0601,-87.679 479.0601,-87.679"/>
<ellipse fill="none" stroke="#000000" cx="475.8842" cy="-88.0706" rx="3.2" ry="3.2"/>
</g>
<!-- resource_server_perm_ticket&#45;&gt;resource_server -->
<g id="edge6" class="edge">
<title>resource_server_perm_ticket:w&#45;&gt;resource_server:e</title>
<path fill="none" stroke="#000000" d="M472.2668,-108.6138C357.7614,-107.2761 318.8361,-91.3395 204,-129.7 183.712,-136.4771 184.89,-155.7 163.5,-155.7"/>
<polygon fill="#000000" stroke="#000000" points="479.0001,-108.6531 486.9789,-112.2999 483.0001,-108.6766 487,-108.7 487,-108.7 487,-108.7 483.0001,-108.6766 487.0211,-105.1001 479.0001,-108.6531 479.0001,-108.6531"/>
<ellipse fill="none" stroke="#000000" cx="475.8002" cy="-108.6344" rx="3.2" ry="3.2"/>
</g>
<!-- scope_policy -->
<g id="node7" class="node">
<title>scope_policy</title>
<g id="a_node7"><a xlink:href="../../tables/scope_policy.html" xlink:title="scope_policy" target="_top">
<polygon fill="#ffffff" stroke="transparent" points="528,-381.7 528,-467.7 634,-467.7 634,-381.7 528,-381.7"/>
<polygon fill="#f5f5f5" stroke="transparent" points="528,-444.7 528,-467.7 634,-467.7 634,-444.7 528,-444.7"/>
<polygon fill="none" stroke="#000000" points="528,-444.7 528,-467.7 634,-467.7 634,-444.7 528,-444.7"/>
<text text-anchor="start" x="532.7144" y="-453.8" font-family="Helvetica,sans-Serif" font-weight="bold" font-size="11.00" fill="#000000">scope_policy</text>
<text text-anchor="start" x="599.5219" y="-452.8" font-family="Helvetica,sans-Serif" font-size="11.00" fill="#000000">[table]</text>
<polygon fill="none" stroke="#000000" points="528,-422.7 528,-444.7 634,-444.7 634,-422.7 528,-422.7"/>
<image xlink:href="../../images/primaryKeys.png" width="11px" height="12px" preserveAspectRatio="xMinYMin meet" x="533" y="-439.7"/>
<text text-anchor="start" x="553" y="-429.8" font-family="Helvetica,sans-Serif" font-size="11.00" fill="#000000">scope_id</text>
<polygon fill="none" stroke="#000000" points="528,-400.7 528,-422.7 634,-422.7 634,-400.7 528,-400.7"/>
<image xlink:href="../../images/primaryKeys.png" width="11px" height="12px" preserveAspectRatio="xMinYMin meet" x="533" y="-417.7"/>
<text text-anchor="start" x="553" y="-407.8" font-family="Helvetica,sans-Serif" font-size="11.00" fill="#000000">policy_id</text>
<polygon fill="#ffffff" stroke="transparent" points="528,-381.7 528,-400.7 566,-400.7 566,-381.7 528,-381.7"/>
<polygon fill="none" stroke="#000000" points="528,-381.7 528,-400.7 566,-400.7 566,-381.7 528,-381.7"/>
<text text-anchor="start" x="531" y="-387.8" font-family="Helvetica,sans-Serif" font-size="11.00" fill="#000000">&lt; 2</text>
<polygon fill="#ffffff" stroke="transparent" points="566,-381.7 566,-400.7 613,-400.7 613,-381.7 566,-381.7"/>
<polygon fill="none" stroke="#000000" points="566,-381.7 566,-400.7 613,-400.7 613,-381.7 566,-381.7"/>
<text text-anchor="start" x="577.6105" y="-387.8" font-family="Helvetica,sans-Serif" font-size="11.00" fill="#000000">0 rows</text>
<polygon fill="#ffffff" stroke="transparent" points="613,-381.7 613,-400.7 634,-400.7 634,-381.7 613,-381.7"/>
<polygon fill="none" stroke="#000000" points="613,-381.7 613,-400.7 634,-400.7 634,-381.7 613,-381.7"/>
<text text-anchor="start" x="624.8862" y="-387.8" font-family="Helvetica,sans-Serif" font-size="11.00" fill="#000000"> &#160;</text>
</a>
</g>
</g>
<!-- scope_policy&#45;&gt;resource_server_policy -->
<g id="edge8" class="edge">
<title>scope_policy:w&#45;&gt;resource_server_policy:e</title>
<path fill="none" stroke="#000000" d="M513.4765,-409.122C498.8754,-402.9589 495.2856,-386.7615 479,-371.7 458.6911,-352.9175 463.6629,-326.7 436,-326.7"/>
<polygon fill="#000000" stroke="#000000" points="520.1231,-410.3017 527.3708,-415.2446 524.0616,-411.0009 528,-411.7 528,-411.7 528,-411.7 524.0616,-411.0009 528.6292,-408.1554 520.1231,-410.3017 520.1231,-410.3017"/>
<ellipse fill="none" stroke="#000000" cx="516.9724" cy="-409.7424" rx="3.2" ry="3.2"/>
</g>
</g>
</svg>
