<?xml version="1.0" encoding="UTF-8" standalone="no"?>
<!DOCTYPE svg PUBLIC "-//W3C//DTD SVG 1.1//EN"
 "http://www.w3.org/Graphics/SVG/1.1/DTD/svg11.dtd">
<!-- Generated by graphviz version 2.40.1 (20161225.0304)
 -->
<!-- Title: twoDegreesRelationshipsDiagram Pages: 1 -->
<svg width="612pt" height="513pt"
 viewBox="0.00 0.00 612.00 512.70" xmlns="http://www.w3.org/2000/svg" xmlns:xlink="http://www.w3.org/1999/xlink">
<g id="graph0" class="graph" transform="scale(1 1) rotate(0) translate(4 508.7)">
<title>twoDegreesRelationshipsDiagram</title>
<polygon fill="#ffffff" stroke="transparent" points="-4,4 -4,-508.7 608,-508.7 608,4 -4,4"/>
<text text-anchor="middle" x="72.4936" y="-7.3" font-family="Helvetica,sans-Serif" font-size="11.00" fill="#000000">Generated by SchemaSpy</text>
<!-- resource_attribute -->
<g id="node1" class="node">
<title>resource_attribute</title>
<g id="a_node1"><a xlink:href="../../tables/resource_attribute.html" xlink:title="resource_attribute" target="_top">
<polygon fill="#ffffff" stroke="transparent" points="399,-366.7 399,-500.7 596,-500.7 596,-366.7 399,-366.7"/>
<polygon fill="#f5f5f5" stroke="transparent" points="401.5,-475.7 401.5,-498.7 594.5,-498.7 594.5,-475.7 401.5,-475.7"/>
<polygon fill="none" stroke="#000000" points="401.5,-475.7 401.5,-498.7 594.5,-498.7 594.5,-475.7 401.5,-475.7"/>
<text text-anchor="start" x="406.5" y="-484.8" font-family="Helvetica,sans-Serif" font-weight="bold" font-size="11.00" fill="#000000">resource_attribute</text>
<text text-anchor="start" x="559.5437" y="-483.8" font-family="Helvetica,sans-Serif" font-size="11.00" fill="#000000">[table]</text>
<polygon fill="none" stroke="#000000" points="401.5,-453.7 401.5,-475.7 527.5,-475.7 527.5,-453.7 401.5,-453.7"/>
<image xlink:href="../../images/primaryKeys.png" width="11px" height="12px" preserveAspectRatio="xMinYMin meet" x="406.5" y="-470.7"/>
<text text-anchor="start" x="421.5" y="-460.8" font-family="Helvetica,sans-Serif" font-size="11.00" fill="#000000">id</text>
<polygon fill="none" stroke="#000000" points="527.5,-453.7 527.5,-475.7 594.5,-475.7 594.5,-453.7 527.5,-453.7"/>
<text text-anchor="start" x="530.5" y="-461.4" font-family="Helvetica,sans-Serif" font-size="11.00" fill="#000000">varchar[36]</text>
<polygon fill="none" stroke="#000000" points="401.5,-431.7 401.5,-453.7 527.5,-453.7 527.5,-431.7 401.5,-431.7"/>
<text text-anchor="start" x="421.5" y="-438.8" font-family="Helvetica,sans-Serif" font-size="11.00" fill="#000000">name</text>
<polygon fill="none" stroke="#000000" points="527.5,-431.7 527.5,-453.7 594.5,-453.7 594.5,-431.7 527.5,-431.7"/>
<text text-anchor="start" x="530.4365" y="-439.4" font-family="Helvetica,sans-Serif" font-size="11.00" fill="#000000">varchar[255]</text>
<polygon fill="none" stroke="#000000" points="401.5,-409.7 401.5,-431.7 527.5,-431.7 527.5,-409.7 401.5,-409.7"/>
<text text-anchor="start" x="421.5" y="-416.8" font-family="Helvetica,sans-Serif" font-size="11.00" fill="#000000">value</text>
<polygon fill="none" stroke="#000000" points="527.5,-409.7 527.5,-431.7 594.5,-431.7 594.5,-409.7 527.5,-409.7"/>
<text text-anchor="start" x="530.4365" y="-417.4" font-family="Helvetica,sans-Serif" font-size="11.00" fill="#000000">varchar[255]</text>
<polygon fill="none" stroke="#000000" points="401.5,-387.7 401.5,-409.7 527.5,-409.7 527.5,-387.7 401.5,-387.7"/>
<image xlink:href="../../images/foreignKeys.png" width="11px" height="12px" preserveAspectRatio="xMinYMin meet" x="406.5" y="-404.7"/>
<text text-anchor="start" x="421.5" y="-394.8" font-family="Helvetica,sans-Serif" font-size="11.00" fill="#000000">resource_id</text>
<polygon fill="none" stroke="#000000" points="527.5,-387.7 527.5,-409.7 594.5,-409.7 594.5,-387.7 527.5,-387.7"/>
<text text-anchor="start" x="530.5" y="-395.4" font-family="Helvetica,sans-Serif" font-size="11.00" fill="#000000">varchar[36]</text>
<polygon fill="#ffffff" stroke="transparent" points="401.5,-368.7 401.5,-387.7 455.5,-387.7 455.5,-368.7 401.5,-368.7"/>
<polygon fill="none" stroke="#000000" points="401.5,-368.7 401.5,-387.7 455.5,-387.7 455.5,-368.7 401.5,-368.7"/>
<text text-anchor="start" x="404.5" y="-374.8" font-family="Helvetica,sans-Serif" font-size="11.00" fill="#000000">&lt; 1</text>
<polygon fill="#ffffff" stroke="transparent" points="455.5,-368.7 455.5,-387.7 527.5,-387.7 527.5,-368.7 455.5,-368.7"/>
<polygon fill="none" stroke="#000000" points="455.5,-368.7 455.5,-387.7 527.5,-387.7 527.5,-368.7 455.5,-368.7"/>
<text text-anchor="start" x="492.1105" y="-374.8" font-family="Helvetica,sans-Serif" font-size="11.00" fill="#000000">0 rows</text>
<polygon fill="#ffffff" stroke="transparent" points="527.5,-368.7 527.5,-387.7 594.5,-387.7 594.5,-368.7 527.5,-368.7"/>
<polygon fill="none" stroke="#000000" points="527.5,-368.7 527.5,-387.7 594.5,-387.7 594.5,-368.7 527.5,-368.7"/>
<text text-anchor="start" x="575.9053" y="-374.8" font-family="Helvetica,sans-Serif" font-size="11.00" fill="#000000">0 &gt;</text>
<polygon fill="none" stroke="#000000" stroke-width="2" points="400,-367.7 400,-499.7 595,-499.7 595,-367.7 400,-367.7"/>
</a>
</g>
</g>
<!-- resource_server_resource -->
<g id="node2" class="node">
<title>resource_server_resource</title>
<g id="a_node2"><a xlink:href="../../tables/resource_server_resource.html" xlink:title="resource_server_resource" target="_top">
<polygon fill="#ffffff" stroke="transparent" points="179,-108.2 179,-257.2 350,-257.2 350,-108.2 179,-108.2"/>
<polygon fill="#f5f5f5" stroke="transparent" points="179.5,-233.7 179.5,-256.7 350.5,-256.7 350.5,-233.7 179.5,-233.7"/>
<polygon fill="none" stroke="#000000" points="179.5,-233.7 179.5,-256.7 350.5,-256.7 350.5,-233.7 179.5,-233.7"/>
<text text-anchor="start" x="184.3249" y="-242.8" font-family="Helvetica,sans-Serif" font-weight="bold" font-size="11.00" fill="#000000">resource_server_resource</text>
<text text-anchor="start" x="316.0219" y="-241.8" font-family="Helvetica,sans-Serif" font-size="11.00" fill="#000000">[table]</text>
<polygon fill="none" stroke="#000000" points="179.5,-211.7 179.5,-233.7 350.5,-233.7 350.5,-211.7 179.5,-211.7"/>
<image xlink:href="../../images/primaryKeys.png" width="11px" height="12px" preserveAspectRatio="xMinYMin meet" x="184.5" y="-228.7"/>
<text text-anchor="start" x="199.5" y="-218.8" font-family="Helvetica,sans-Serif" font-size="11.00" fill="#000000">id</text>
<polygon fill="#ffffff" stroke="transparent" points="179.5,-189.7 179.5,-211.7 350.5,-211.7 350.5,-189.7 179.5,-189.7"/>
<polygon fill="none" stroke="#000000" points="179.5,-189.7 179.5,-211.7 350.5,-211.7 350.5,-189.7 179.5,-189.7"/>
<text text-anchor="start" x="199.5" y="-196.8" font-family="Helvetica,sans-Serif" font-size="11.00" fill="#000000">name</text>
<polygon fill="#ffffff" stroke="transparent" points="179.5,-167.7 179.5,-189.7 350.5,-189.7 350.5,-167.7 179.5,-167.7"/>
<polygon fill="none" stroke="#000000" points="179.5,-167.7 179.5,-189.7 350.5,-189.7 350.5,-167.7 179.5,-167.7"/>
<text text-anchor="start" x="199.5" y="-174.8" font-family="Helvetica,sans-Serif" font-size="11.00" fill="#000000">owner</text>
<polygon fill="#ffffff" stroke="transparent" points="179.5,-145.7 179.5,-167.7 350.5,-167.7 350.5,-145.7 179.5,-145.7"/>
<polygon fill="none" stroke="#000000" points="179.5,-145.7 179.5,-167.7 350.5,-167.7 350.5,-145.7 179.5,-145.7"/>
<image xlink:href="../../images/foreignKeys.png" width="11px" height="12px" preserveAspectRatio="xMinYMin meet" x="184.5" y="-162.7"/>
<text text-anchor="start" x="199.5" y="-152.8" font-family="Helvetica,sans-Serif" font-size="11.00" fill="#000000">resource_server_id</text>
<polygon fill="none" stroke="#000000" points="179.5,-126.7 179.5,-145.7 350.5,-145.7 350.5,-126.7 179.5,-126.7"/>
<text text-anchor="start" x="182.5" y="-132.8" font-family="Helvetica,sans-Serif" font-size="11.00" fill="#000000">...</text>
<polygon fill="#ffffff" stroke="transparent" points="179.5,-107.7 179.5,-126.7 245.5,-126.7 245.5,-107.7 179.5,-107.7"/>
<polygon fill="none" stroke="#000000" points="179.5,-107.7 179.5,-126.7 245.5,-126.7 245.5,-107.7 179.5,-107.7"/>
<text text-anchor="start" x="182.5" y="-113.8" font-family="Helvetica,sans-Serif" font-size="11.00" fill="#000000">&lt; 1</text>
<polygon fill="#ffffff" stroke="transparent" points="245.5,-107.7 245.5,-126.7 306.5,-126.7 306.5,-107.7 245.5,-107.7"/>
<polygon fill="none" stroke="#000000" points="245.5,-107.7 245.5,-126.7 306.5,-126.7 306.5,-107.7 245.5,-107.7"/>
<text text-anchor="start" x="271.1105" y="-113.8" font-family="Helvetica,sans-Serif" font-size="11.00" fill="#000000">0 rows</text>
<polygon fill="#ffffff" stroke="transparent" points="306.5,-107.7 306.5,-126.7 350.5,-126.7 350.5,-107.7 306.5,-107.7"/>
<polygon fill="none" stroke="#000000" points="306.5,-107.7 306.5,-126.7 350.5,-126.7 350.5,-107.7 306.5,-107.7"/>
<text text-anchor="start" x="331.9053" y="-113.8" font-family="Helvetica,sans-Serif" font-size="11.00" fill="#000000">5 &gt;</text>
</a>
</g>
</g>
<!-- resource_attribute&#45;&gt;resource_server_resource -->
<g id="edge1" class="edge">
<title>resource_attribute:w&#45;&gt;resource_server_resource:e</title>
<path fill="none" stroke="#000000" d="M387.0541,-396.212C334.8373,-374.8201 426.2139,-222.7 350.5,-222.7"/>
<polygon fill="#000000" stroke="#000000" points="393.6161,-397.3421 400.889,-402.2478 397.558,-398.0211 401.5,-398.7 401.5,-398.7 401.5,-398.7 397.558,-398.0211 402.111,-395.1522 393.6161,-397.3421 393.6161,-397.3421"/>
<ellipse fill="none" stroke="#000000" cx="390.4625" cy="-396.799" rx="3.2" ry="3.2"/>
</g>
<!-- resource_server -->
<g id="node6" class="node">
<title>resource_server</title>
<g id="a_node6"><a xlink:href="../../tables/resource_server.html" xlink:title="resource_server" target="_top">
<polygon fill="#ffffff" stroke="transparent" points="8,-86.2 8,-147.2 130,-147.2 130,-86.2 8,-86.2"/>
<polygon fill="#f5f5f5" stroke="transparent" points="8,-123.7 8,-146.7 130,-146.7 130,-123.7 8,-123.7"/>
<polygon fill="none" stroke="#000000" points="8,-123.7 8,-146.7 130,-146.7 130,-123.7 8,-123.7"/>
<text text-anchor="start" x="12.7741" y="-132.8" font-family="Helvetica,sans-Serif" font-weight="bold" font-size="11.00" fill="#000000">resource_server</text>
<text text-anchor="start" x="95.5219" y="-131.8" font-family="Helvetica,sans-Serif" font-size="11.00" fill="#000000">[table]</text>
<polygon fill="none" stroke="#000000" points="8,-104.7 8,-123.7 130,-123.7 130,-104.7 8,-104.7"/>
<text text-anchor="start" x="11" y="-110.8" font-family="Helvetica,sans-Serif" font-size="11.00" fill="#000000">...</text>
<polygon fill="#ffffff" stroke="transparent" points="8,-85.7 8,-104.7 45,-104.7 45,-85.7 8,-85.7"/>
<polygon fill="none" stroke="#000000" points="8,-85.7 8,-104.7 45,-104.7 45,-85.7 8,-85.7"/>
<text text-anchor="start" x="11" y="-91.8" font-family="Helvetica,sans-Serif" font-size="11.00" fill="#000000"> &#160;</text>
<polygon fill="#ffffff" stroke="transparent" points="45,-85.7 45,-104.7 96,-104.7 96,-85.7 45,-85.7"/>
<polygon fill="none" stroke="#000000" points="45,-85.7 45,-104.7 96,-104.7 96,-85.7 45,-85.7"/>
<text text-anchor="start" x="60.6105" y="-91.8" font-family="Helvetica,sans-Serif" font-size="11.00" fill="#000000">0 rows</text>
<polygon fill="#ffffff" stroke="transparent" points="96,-85.7 96,-104.7 130,-104.7 130,-85.7 96,-85.7"/>
<polygon fill="none" stroke="#000000" points="96,-85.7 96,-104.7 130,-104.7 130,-85.7 96,-85.7"/>
<text text-anchor="start" x="111.4053" y="-91.8" font-family="Helvetica,sans-Serif" font-size="11.00" fill="#000000">4 &gt;</text>
</a>
</g>
</g>
<!-- resource_server_resource&#45;&gt;resource_server -->
<g id="edge6" class="edge">
<title>resource_server_resource:w&#45;&gt;resource_server:e</title>
<path fill="none" stroke="#000000" d="M165.8004,-152.0982C152.3618,-141.0054 153.2222,-113.7 130,-113.7"/>
<polygon fill="#000000" stroke="#000000" points="171.9164,-154.1526 178.3537,-160.1126 175.7082,-155.4263 179.5,-156.7 179.5,-156.7 179.5,-156.7 175.7082,-155.4263 180.6463,-153.2874 171.9164,-154.1526 171.9164,-154.1526"/>
<ellipse fill="none" stroke="#000000" cx="168.883" cy="-153.1336" rx="3.2" ry="3.2"/>
</g>
<!-- resource_policy -->
<g id="node3" class="node">
<title>resource_policy</title>
<g id="a_node3"><a xlink:href="../../tables/resource_policy.html" xlink:title="resource_policy" target="_top">
<polygon fill="#ffffff" stroke="transparent" points="437.5,-284.2 437.5,-345.2 557.5,-345.2 557.5,-284.2 437.5,-284.2"/>
<polygon fill="#f5f5f5" stroke="transparent" points="437.5,-321.7 437.5,-344.7 557.5,-344.7 557.5,-321.7 437.5,-321.7"/>
<polygon fill="none" stroke="#000000" points="437.5,-321.7 437.5,-344.7 557.5,-344.7 557.5,-321.7 437.5,-321.7"/>
<text text-anchor="start" x="442.4951" y="-330.8" font-family="Helvetica,sans-Serif" font-weight="bold" font-size="11.00" fill="#000000">resource_policy</text>
<text text-anchor="start" x="523.0219" y="-329.8" font-family="Helvetica,sans-Serif" font-size="11.00" fill="#000000">[table]</text>
<polygon fill="none" stroke="#000000" points="437.5,-302.7 437.5,-321.7 557.5,-321.7 557.5,-302.7 437.5,-302.7"/>
<text text-anchor="start" x="440.5" y="-308.8" font-family="Helvetica,sans-Serif" font-size="11.00" fill="#000000">...</text>
<polygon fill="#ffffff" stroke="transparent" points="437.5,-283.7 437.5,-302.7 482.5,-302.7 482.5,-283.7 437.5,-283.7"/>
<polygon fill="none" stroke="#000000" points="437.5,-283.7 437.5,-302.7 482.5,-302.7 482.5,-283.7 437.5,-283.7"/>
<text text-anchor="start" x="440.5" y="-289.8" font-family="Helvetica,sans-Serif" font-size="11.00" fill="#000000">&lt; 2</text>
<polygon fill="#ffffff" stroke="transparent" points="482.5,-283.7 482.5,-302.7 532.5,-302.7 532.5,-283.7 482.5,-283.7"/>
<polygon fill="none" stroke="#000000" points="482.5,-283.7 482.5,-302.7 532.5,-302.7 532.5,-283.7 482.5,-283.7"/>
<text text-anchor="start" x="497.1105" y="-289.8" font-family="Helvetica,sans-Serif" font-size="11.00" fill="#000000">0 rows</text>
<polygon fill="#ffffff" stroke="transparent" points="532.5,-283.7 532.5,-302.7 557.5,-302.7 557.5,-283.7 532.5,-283.7"/>
<polygon fill="none" stroke="#000000" points="532.5,-283.7 532.5,-302.7 557.5,-302.7 557.5,-283.7 532.5,-283.7"/>
<text text-anchor="start" x="548.3862" y="-289.8" font-family="Helvetica,sans-Serif" font-size="11.00" fill="#000000"> &#160;</text>
</a>
</g>
</g>
<!-- resource_policy&#45;&gt;resource_server_resource -->
<g id="edge2" class="edge">
<title>resource_policy:w&#45;&gt;resource_server_resource:e</title>
<path fill="none" stroke="#000000" d="M423.2095,-309.1718C409.4964,-303.3889 405.6406,-288.547 391,-273.7 370.677,-253.0905 379.4444,-222.7 350.5,-222.7"/>
<polygon fill="#000000" stroke="#000000" points="429.6223,-310.3063 436.8728,-315.245 433.5612,-311.0031 437.5,-311.7 437.5,-311.7 437.5,-311.7 433.5612,-311.0031 438.1272,-308.155 429.6223,-310.3063 429.6223,-310.3063"/>
<ellipse fill="none" stroke="#000000" cx="426.4713" cy="-309.7488" rx="3.2" ry="3.2"/>
</g>
<!-- resource_scope -->
<g id="node4" class="node">
<title>resource_scope</title>
<g id="a_node4"><a xlink:href="../../tables/resource_scope.html" xlink:title="resource_scope" target="_top">
<polygon fill="#ffffff" stroke="transparent" points="437,-202.2 437,-263.2 558,-263.2 558,-202.2 437,-202.2"/>
<polygon fill="#f5f5f5" stroke="transparent" points="437.5,-239.7 437.5,-262.7 558.5,-262.7 558.5,-239.7 437.5,-239.7"/>
<polygon fill="none" stroke="#000000" points="437.5,-239.7 437.5,-262.7 558.5,-262.7 558.5,-239.7 437.5,-239.7"/>
<text text-anchor="start" x="442.3785" y="-248.8" font-family="Helvetica,sans-Serif" font-weight="bold" font-size="11.00" fill="#000000">resource_scope</text>
<text text-anchor="start" x="524.0219" y="-247.8" font-family="Helvetica,sans-Serif" font-size="11.00" fill="#000000">[table]</text>
<polygon fill="none" stroke="#000000" points="437.5,-220.7 437.5,-239.7 558.5,-239.7 558.5,-220.7 437.5,-220.7"/>
<text text-anchor="start" x="440.5" y="-226.8" font-family="Helvetica,sans-Serif" font-size="11.00" fill="#000000">...</text>
<polygon fill="#ffffff" stroke="transparent" points="437.5,-201.7 437.5,-220.7 483.5,-220.7 483.5,-201.7 437.5,-201.7"/>
<polygon fill="none" stroke="#000000" points="437.5,-201.7 437.5,-220.7 483.5,-220.7 483.5,-201.7 437.5,-201.7"/>
<text text-anchor="start" x="440.5" y="-207.8" font-family="Helvetica,sans-Serif" font-size="11.00" fill="#000000">&lt; 2</text>
<polygon fill="#ffffff" stroke="transparent" points="483.5,-201.7 483.5,-220.7 533.5,-220.7 533.5,-201.7 483.5,-201.7"/>
<polygon fill="none" stroke="#000000" points="483.5,-201.7 483.5,-220.7 533.5,-220.7 533.5,-201.7 483.5,-201.7"/>
<text text-anchor="start" x="498.1105" y="-207.8" font-family="Helvetica,sans-Serif" font-size="11.00" fill="#000000">0 rows</text>
<polygon fill="#ffffff" stroke="transparent" points="533.5,-201.7 533.5,-220.7 558.5,-220.7 558.5,-201.7 533.5,-201.7"/>
<polygon fill="none" stroke="#000000" points="533.5,-201.7 533.5,-220.7 558.5,-220.7 558.5,-201.7 533.5,-201.7"/>
<text text-anchor="start" x="549.3862" y="-207.8" font-family="Helvetica,sans-Serif" font-size="11.00" fill="#000000"> &#160;</text>
</a>
</g>
</g>
<!-- resource_scope&#45;&gt;resource_server_resource -->
<g id="edge3" class="edge">
<title>resource_scope:w&#45;&gt;resource_server_resource:e</title>
<path fill="none" stroke="#000000" d="M423.0865,-229.3432C395.5844,-227.9168 383.9881,-222.7 350.5,-222.7"/>
<polygon fill="#000000" stroke="#000000" points="429.5024,-229.502 437.4109,-233.2989 433.5012,-229.601 437.5,-229.7 437.5,-229.7 437.5,-229.7 433.5012,-229.601 437.5891,-226.1011 429.5024,-229.502 429.5024,-229.502"/>
<ellipse fill="none" stroke="#000000" cx="426.3034" cy="-229.4228" rx="3.2" ry="3.2"/>
</g>
<!-- resource_server_perm_ticket -->
<g id="node5" class="node">
<title>resource_server_perm_ticket</title>
<g id="a_node5"><a xlink:href="../../tables/resource_server_perm_ticket.html" xlink:title="resource_server_perm_ticket" target="_top">
<polygon fill="#ffffff" stroke="transparent" points="405,-38.2 405,-99.2 590,-99.2 590,-38.2 405,-38.2"/>
<polygon fill="#f5f5f5" stroke="transparent" points="405.5,-75.7 405.5,-98.7 590.5,-98.7 590.5,-75.7 405.5,-75.7"/>
<polygon fill="none" stroke="#000000" points="405.5,-75.7 405.5,-98.7 590.5,-98.7 590.5,-75.7 405.5,-75.7"/>
<text text-anchor="start" x="410.2976" y="-84.8" font-family="Helvetica,sans-Serif" font-weight="bold" font-size="11.00" fill="#000000">resource_server_perm_ticket</text>
<text text-anchor="start" x="556.0219" y="-83.8" font-family="Helvetica,sans-Serif" font-size="11.00" fill="#000000">[table]</text>
<polygon fill="none" stroke="#000000" points="405.5,-56.7 405.5,-75.7 590.5,-75.7 590.5,-56.7 405.5,-56.7"/>
<text text-anchor="start" x="408.5" y="-62.8" font-family="Helvetica,sans-Serif" font-size="11.00" fill="#000000">...</text>
<polygon fill="#ffffff" stroke="transparent" points="405.5,-37.7 405.5,-56.7 483.5,-56.7 483.5,-37.7 405.5,-37.7"/>
<polygon fill="none" stroke="#000000" points="405.5,-37.7 405.5,-56.7 483.5,-56.7 483.5,-37.7 405.5,-37.7"/>
<text text-anchor="start" x="408.5" y="-43.8" font-family="Helvetica,sans-Serif" font-size="11.00" fill="#000000">&lt; 4</text>
<polygon fill="#ffffff" stroke="transparent" points="483.5,-37.7 483.5,-56.7 549.5,-56.7 549.5,-37.7 483.5,-37.7"/>
<polygon fill="none" stroke="#000000" points="483.5,-37.7 483.5,-56.7 549.5,-56.7 549.5,-37.7 483.5,-37.7"/>
<text text-anchor="start" x="514.1105" y="-43.8" font-family="Helvetica,sans-Serif" font-size="11.00" fill="#000000">0 rows</text>
<polygon fill="#ffffff" stroke="transparent" points="549.5,-37.7 549.5,-56.7 590.5,-56.7 590.5,-37.7 549.5,-37.7"/>
<polygon fill="none" stroke="#000000" points="549.5,-37.7 549.5,-56.7 590.5,-56.7 590.5,-37.7 549.5,-37.7"/>
<text text-anchor="start" x="581.3862" y="-43.8" font-family="Helvetica,sans-Serif" font-size="11.00" fill="#000000"> &#160;</text>
</a>
</g>
</g>
<!-- resource_server_perm_ticket&#45;&gt;resource_server_resource -->
<g id="edge4" class="edge">
<title>resource_server_perm_ticket:w&#45;&gt;resource_server_resource:e</title>
<path fill="none" stroke="#000000" d="M391.0666,-68.425C345.0574,-89.273 418.6594,-222.7 350.5,-222.7"/>
<polygon fill="#000000" stroke="#000000" points="397.6389,-67.1842 406.1679,-69.2375 401.5694,-66.4421 405.5,-65.7 405.5,-65.7 405.5,-65.7 401.5694,-66.4421 404.8321,-62.1625 397.6389,-67.1842 397.6389,-67.1842"/>
<ellipse fill="none" stroke="#000000" cx="394.4944" cy="-67.7779" rx="3.2" ry="3.2"/>
</g>
<!-- resource_server_perm_ticket&#45;&gt;resource_server -->
<g id="edge5" class="edge">
<title>resource_server_perm_ticket:w&#45;&gt;resource_server:e</title>
<path fill="none" stroke="#000000" d="M390.9168,-65.74C297.5104,-66.2821 267.9451,-72.5484 171,-97.7 152.0662,-102.6122 149.5606,-113.7 130,-113.7"/>
<polygon fill="#000000" stroke="#000000" points="397.5,-65.722 405.5099,-69.3 401.5,-65.711 405.5,-65.7 405.5,-65.7 405.5,-65.7 401.5,-65.711 405.4901,-62.1 397.5,-65.722 397.5,-65.722"/>
<ellipse fill="none" stroke="#000000" cx="394.3" cy="-65.7308" rx="3.2" ry="3.2"/>
</g>
<!-- resource_uris -->
<g id="node7" class="node">
<title>resource_uris</title>
<g id="a_node7"><a xlink:href="../../tables/resource_uris.html" xlink:title="resource_uris" target="_top">
<polygon fill="#ffffff" stroke="transparent" points="443,-120.2 443,-181.2 552,-181.2 552,-120.2 443,-120.2"/>
<polygon fill="#f5f5f5" stroke="transparent" points="443.5,-157.7 443.5,-180.7 552.5,-180.7 552.5,-157.7 443.5,-157.7"/>
<polygon fill="none" stroke="#000000" points="443.5,-157.7 443.5,-180.7 552.5,-180.7 552.5,-157.7 443.5,-157.7"/>
<text text-anchor="start" x="448.192" y="-166.8" font-family="Helvetica,sans-Serif" font-weight="bold" font-size="11.00" fill="#000000">resource_uris</text>
<text text-anchor="start" x="518.0219" y="-165.8" font-family="Helvetica,sans-Serif" font-size="11.00" fill="#000000">[table]</text>
<polygon fill="none" stroke="#000000" points="443.5,-138.7 443.5,-157.7 552.5,-157.7 552.5,-138.7 443.5,-138.7"/>
<text text-anchor="start" x="446.5" y="-144.8" font-family="Helvetica,sans-Serif" font-size="11.00" fill="#000000">...</text>
<polygon fill="#ffffff" stroke="transparent" points="443.5,-119.7 443.5,-138.7 483.5,-138.7 483.5,-119.7 443.5,-119.7"/>
<polygon fill="none" stroke="#000000" points="443.5,-119.7 443.5,-138.7 483.5,-138.7 483.5,-119.7 443.5,-119.7"/>
<text text-anchor="start" x="446.5" y="-125.8" font-family="Helvetica,sans-Serif" font-size="11.00" fill="#000000">&lt; 1</text>
<polygon fill="#ffffff" stroke="transparent" points="483.5,-119.7 483.5,-138.7 530.5,-138.7 530.5,-119.7 483.5,-119.7"/>
<polygon fill="none" stroke="#000000" points="483.5,-119.7 483.5,-138.7 530.5,-138.7 530.5,-119.7 483.5,-119.7"/>
<text text-anchor="start" x="495.1105" y="-125.8" font-family="Helvetica,sans-Serif" font-size="11.00" fill="#000000">0 rows</text>
<polygon fill="#ffffff" stroke="transparent" points="530.5,-119.7 530.5,-138.7 552.5,-138.7 552.5,-119.7 530.5,-119.7"/>
<polygon fill="none" stroke="#000000" points="530.5,-119.7 530.5,-138.7 552.5,-138.7 552.5,-119.7 530.5,-119.7"/>
<text text-anchor="start" x="543.3862" y="-125.8" font-family="Helvetica,sans-Serif" font-size="11.00" fill="#000000"> &#160;</text>
</a>
</g>
</g>
<!-- resource_uris&#45;&gt;resource_server_resource -->
<g id="edge7" class="edge">
<title>resource_uris:w&#45;&gt;resource_server_resource:e</title>
<path fill="none" stroke="#000000" d="M430.7786,-154.8913C406.7353,-173.6632 361.234,-222.7 350.5,-222.7"/>
<polygon fill="#000000" stroke="#000000" points="436.5357,-151.6369 445.2716,-150.8339 440.0179,-149.6684 443.5,-147.7 443.5,-147.7 443.5,-147.7 440.0179,-149.6684 441.7284,-144.5661 436.5357,-151.6369 436.5357,-151.6369"/>
<ellipse fill="none" stroke="#000000" cx="433.75" cy="-153.2117" rx="3.2" ry="3.2"/>
</g>
</g>
</svg>
