<?xml version="1.0" encoding="UTF-8" standalone="no"?>
<!DOCTYPE svg PUBLIC "-//W3C//DTD SVG 1.1//EN"
 "http://www.w3.org/Graphics/SVG/1.1/DTD/svg11.dtd">
<!-- Generated by graphviz version 2.40.1 (20161225.0304)
 -->
<!-- Title: twoDegreesRelationshipsDiagram Pages: 1 -->
<svg width="691pt" height="480pt"
 viewBox="0.00 0.00 691.00 480.20" xmlns="http://www.w3.org/2000/svg" xmlns:xlink="http://www.w3.org/1999/xlink">
<g id="graph0" class="graph" transform="scale(1 1) rotate(0) translate(4 476.2)">
<title>twoDegreesRelationshipsDiagram</title>
<polygon fill="#ffffff" stroke="transparent" points="-4,4 -4,-476.2 687,-476.2 687,4 -4,4"/>
<text text-anchor="middle" x="72.4936" y="-7.3" font-family="Helvetica,sans-Serif" font-size="11.00" fill="#000000">Generated by SchemaSpy</text>
<!-- resource_scope -->
<g id="node1" class="node">
<title>resource_scope</title>
<g id="a_node1"><a xlink:href="../../tables/resource_scope.html" xlink:title="resource_scope" target="_top">
<polygon fill="#ffffff" stroke="transparent" points="520.5,-382.2 520.5,-468.2 641.5,-468.2 641.5,-382.2 520.5,-382.2"/>
<polygon fill="#f5f5f5" stroke="transparent" points="521,-445.2 521,-468.2 642,-468.2 642,-445.2 521,-445.2"/>
<polygon fill="none" stroke="#000000" points="521,-445.2 521,-468.2 642,-468.2 642,-445.2 521,-445.2"/>
<text text-anchor="start" x="525.8785" y="-454.3" font-family="Helvetica,sans-Serif" font-weight="bold" font-size="11.00" fill="#000000">resource_scope</text>
<text text-anchor="start" x="607.5219" y="-453.3" font-family="Helvetica,sans-Serif" font-size="11.00" fill="#000000">[table]</text>
<polygon fill="none" stroke="#000000" points="521,-423.2 521,-445.2 642,-445.2 642,-423.2 521,-423.2"/>
<image xlink:href="../../images/primaryKeys.png" width="11px" height="12px" preserveAspectRatio="xMinYMin meet" x="526" y="-440.2"/>
<text text-anchor="start" x="545" y="-430.3" font-family="Helvetica,sans-Serif" font-size="11.00" fill="#000000">resource_id</text>
<polygon fill="none" stroke="#000000" points="521,-401.2 521,-423.2 642,-423.2 642,-401.2 521,-401.2"/>
<image xlink:href="../../images/primaryKeys.png" width="11px" height="12px" preserveAspectRatio="xMinYMin meet" x="526" y="-418.2"/>
<text text-anchor="start" x="545" y="-408.3" font-family="Helvetica,sans-Serif" font-size="11.00" fill="#000000">scope_id</text>
<polygon fill="#ffffff" stroke="transparent" points="521,-382.2 521,-401.2 567,-401.2 567,-382.2 521,-382.2"/>
<polygon fill="none" stroke="#000000" points="521,-382.2 521,-401.2 567,-401.2 567,-382.2 521,-382.2"/>
<text text-anchor="start" x="524" y="-388.3" font-family="Helvetica,sans-Serif" font-size="11.00" fill="#000000">&lt; 2</text>
<polygon fill="#ffffff" stroke="transparent" points="567,-382.2 567,-401.2 617,-401.2 617,-382.2 567,-382.2"/>
<polygon fill="none" stroke="#000000" points="567,-382.2 567,-401.2 617,-401.2 617,-382.2 567,-382.2"/>
<text text-anchor="start" x="581.6105" y="-388.3" font-family="Helvetica,sans-Serif" font-size="11.00" fill="#000000">0 rows</text>
<polygon fill="#ffffff" stroke="transparent" points="617,-382.2 617,-401.2 642,-401.2 642,-382.2 617,-382.2"/>
<polygon fill="none" stroke="#000000" points="617,-382.2 617,-401.2 642,-401.2 642,-382.2 617,-382.2"/>
<text text-anchor="start" x="632.8862" y="-388.3" font-family="Helvetica,sans-Serif" font-size="11.00" fill="#000000"> &#160;</text>
</a>
</g>
</g>
<!-- resource_server_resource -->
<g id="node2" class="node">
<title>resource_server_resource</title>
<g id="a_node2"><a xlink:href="../../tables/resource_server_resource.html" xlink:title="resource_server_resource" target="_top">
<polygon fill="#ffffff" stroke="transparent" points="239.5,-366.7 239.5,-427.7 410.5,-427.7 410.5,-366.7 239.5,-366.7"/>
<polygon fill="#f5f5f5" stroke="transparent" points="240,-404.2 240,-427.2 411,-427.2 411,-404.2 240,-404.2"/>
<polygon fill="none" stroke="#000000" points="240,-404.2 240,-427.2 411,-427.2 411,-404.2 240,-404.2"/>
<text text-anchor="start" x="244.8249" y="-413.3" font-family="Helvetica,sans-Serif" font-weight="bold" font-size="11.00" fill="#000000">resource_server_resource</text>
<text text-anchor="start" x="376.5219" y="-412.3" font-family="Helvetica,sans-Serif" font-size="11.00" fill="#000000">[table]</text>
<polygon fill="none" stroke="#000000" points="240,-385.2 240,-404.2 411,-404.2 411,-385.2 240,-385.2"/>
<text text-anchor="start" x="243" y="-391.3" font-family="Helvetica,sans-Serif" font-size="11.00" fill="#000000">...</text>
<polygon fill="#ffffff" stroke="transparent" points="240,-366.2 240,-385.2 306,-385.2 306,-366.2 240,-366.2"/>
<polygon fill="none" stroke="#000000" points="240,-366.2 240,-385.2 306,-385.2 306,-366.2 240,-366.2"/>
<text text-anchor="start" x="243" y="-372.3" font-family="Helvetica,sans-Serif" font-size="11.00" fill="#000000">&lt; 1</text>
<polygon fill="#ffffff" stroke="transparent" points="306,-366.2 306,-385.2 367,-385.2 367,-366.2 306,-366.2"/>
<polygon fill="none" stroke="#000000" points="306,-366.2 306,-385.2 367,-385.2 367,-366.2 306,-366.2"/>
<text text-anchor="start" x="331.6105" y="-372.3" font-family="Helvetica,sans-Serif" font-size="11.00" fill="#000000">0 rows</text>
<polygon fill="#ffffff" stroke="transparent" points="367,-366.2 367,-385.2 411,-385.2 411,-366.2 367,-366.2"/>
<polygon fill="none" stroke="#000000" points="367,-366.2 367,-385.2 411,-385.2 411,-366.2 367,-366.2"/>
<text text-anchor="start" x="392.4053" y="-372.3" font-family="Helvetica,sans-Serif" font-size="11.00" fill="#000000">5 &gt;</text>
</a>
</g>
</g>
<!-- resource_scope&#45;&gt;resource_server_resource -->
<g id="edge1" class="edge">
<title>resource_scope:w&#45;&gt;resource_server_resource:e</title>
<path fill="none" stroke="#000000" d="M506.4788,-433.046C467.2937,-426.4876 457.7375,-394.2 411,-394.2"/>
<polygon fill="#000000" stroke="#000000" points="513.0251,-433.5662 520.7148,-437.7887 517.0126,-433.8831 521,-434.2 521,-434.2 521,-434.2 517.0126,-433.8831 521.2852,-430.6113 513.0251,-433.5662 513.0251,-433.5662"/>
<ellipse fill="none" stroke="#000000" cx="509.8352" cy="-433.3127" rx="3.2" ry="3.2"/>
</g>
<!-- resource_server_scope -->
<g id="node3" class="node">
<title>resource_server_scope</title>
<g id="a_node3"><a xlink:href="../../tables/resource_server_scope.html" xlink:title="resource_server_scope" target="_top">
<polygon fill="#ffffff" stroke="transparent" points="212,-189.2 212,-345.2 438,-345.2 438,-189.2 212,-189.2"/>
<polygon fill="#f5f5f5" stroke="transparent" points="214,-320.2 214,-343.2 436,-343.2 436,-320.2 214,-320.2"/>
<polygon fill="none" stroke="#000000" points="214,-320.2 214,-343.2 436,-343.2 436,-320.2 214,-320.2"/>
<text text-anchor="start" x="219" y="-329.3" font-family="Helvetica,sans-Serif" font-weight="bold" font-size="11.00" fill="#000000">resource_server_scope</text>
<text text-anchor="start" x="401.0437" y="-328.3" font-family="Helvetica,sans-Serif" font-size="11.00" fill="#000000">[table]</text>
<polygon fill="none" stroke="#000000" points="214,-298.2 214,-320.2 369,-320.2 369,-298.2 214,-298.2"/>
<image xlink:href="../../images/primaryKeys.png" width="11px" height="12px" preserveAspectRatio="xMinYMin meet" x="219" y="-315.2"/>
<text text-anchor="start" x="234" y="-305.3" font-family="Helvetica,sans-Serif" font-size="11.00" fill="#000000">id</text>
<polygon fill="none" stroke="#000000" points="369,-298.2 369,-320.2 436,-320.2 436,-298.2 369,-298.2"/>
<text text-anchor="start" x="372" y="-305.9" font-family="Helvetica,sans-Serif" font-size="11.00" fill="#000000">varchar[36]</text>
<polygon fill="#ffffff" stroke="transparent" points="214,-276.2 214,-298.2 369,-298.2 369,-276.2 214,-276.2"/>
<polygon fill="none" stroke="#000000" points="214,-276.2 214,-298.2 369,-298.2 369,-276.2 214,-276.2"/>
<text text-anchor="start" x="234" y="-283.3" font-family="Helvetica,sans-Serif" font-size="11.00" fill="#000000">name</text>
<polygon fill="none" stroke="#000000" points="369,-276.2 369,-298.2 436,-298.2 436,-276.2 369,-276.2"/>
<text text-anchor="start" x="371.9365" y="-283.9" font-family="Helvetica,sans-Serif" font-size="11.00" fill="#000000">varchar[255]</text>
<polygon fill="none" stroke="#000000" points="214,-254.2 214,-276.2 369,-276.2 369,-254.2 214,-254.2"/>
<text text-anchor="start" x="234" y="-261.3" font-family="Helvetica,sans-Serif" font-size="11.00" fill="#000000">icon_uri</text>
<polygon fill="none" stroke="#000000" points="369,-254.2 369,-276.2 436,-276.2 436,-254.2 369,-254.2"/>
<text text-anchor="start" x="371.9365" y="-261.9" font-family="Helvetica,sans-Serif" font-size="11.00" fill="#000000">varchar[255]</text>
<polygon fill="#ffffff" stroke="transparent" points="214,-232.2 214,-254.2 369,-254.2 369,-232.2 214,-232.2"/>
<polygon fill="none" stroke="#000000" points="214,-232.2 214,-254.2 369,-254.2 369,-232.2 214,-232.2"/>
<image xlink:href="../../images/foreignKeys.png" width="11px" height="12px" preserveAspectRatio="xMinYMin meet" x="219" y="-249.2"/>
<text text-anchor="start" x="234" y="-239.3" font-family="Helvetica,sans-Serif" font-size="11.00" fill="#000000">resource_server_id</text>
<polygon fill="none" stroke="#000000" points="369,-232.2 369,-254.2 436,-254.2 436,-232.2 369,-232.2"/>
<text text-anchor="start" x="372" y="-239.9" font-family="Helvetica,sans-Serif" font-size="11.00" fill="#000000">varchar[36]</text>
<polygon fill="none" stroke="#000000" points="214,-210.2 214,-232.2 369,-232.2 369,-210.2 214,-210.2"/>
<text text-anchor="start" x="234" y="-217.3" font-family="Helvetica,sans-Serif" font-size="11.00" fill="#000000">display_name</text>
<polygon fill="none" stroke="#000000" points="369,-210.2 369,-232.2 436,-232.2 436,-210.2 369,-210.2"/>
<text text-anchor="start" x="371.9365" y="-217.9" font-family="Helvetica,sans-Serif" font-size="11.00" fill="#000000">varchar[255]</text>
<polygon fill="#ffffff" stroke="transparent" points="214,-191.2 214,-210.2 283,-210.2 283,-191.2 214,-191.2"/>
<polygon fill="none" stroke="#000000" points="214,-191.2 214,-210.2 283,-210.2 283,-191.2 214,-191.2"/>
<text text-anchor="start" x="217" y="-197.3" font-family="Helvetica,sans-Serif" font-size="11.00" fill="#000000">&lt; 1</text>
<polygon fill="#ffffff" stroke="transparent" points="283,-191.2 283,-210.2 369,-210.2 369,-191.2 283,-191.2"/>
<polygon fill="none" stroke="#000000" points="283,-191.2 283,-210.2 369,-210.2 369,-191.2 283,-191.2"/>
<text text-anchor="start" x="333.6105" y="-197.3" font-family="Helvetica,sans-Serif" font-size="11.00" fill="#000000">0 rows</text>
<polygon fill="#ffffff" stroke="transparent" points="369,-191.2 369,-210.2 436,-210.2 436,-191.2 369,-191.2"/>
<polygon fill="none" stroke="#000000" points="369,-191.2 369,-210.2 436,-210.2 436,-191.2 369,-191.2"/>
<text text-anchor="start" x="417.4053" y="-197.3" font-family="Helvetica,sans-Serif" font-size="11.00" fill="#000000">3 &gt;</text>
<polygon fill="none" stroke="#000000" stroke-width="2" points="213,-190.2 213,-344.2 437,-344.2 437,-190.2 213,-190.2"/>
</a>
</g>
</g>
<!-- resource_scope&#45;&gt;resource_server_scope -->
<g id="edge2" class="edge">
<title>resource_scope:w&#45;&gt;resource_server_scope:e</title>
<path fill="none" stroke="#000000" d="M506.9088,-409.2125C494.4227,-402.7076 492.0273,-386.6066 479,-371.2 457.3476,-345.593 469.5342,-309.2 436,-309.2"/>
<polygon fill="#000000" stroke="#000000" points="513.174,-410.5407 520.2533,-415.7217 517.087,-411.3704 521,-412.2 521,-412.2 521,-412.2 517.087,-411.3704 521.7467,-408.6783 513.174,-410.5407 513.174,-410.5407"/>
<ellipse fill="none" stroke="#000000" cx="510.0435" cy="-409.877" rx="3.2" ry="3.2"/>
</g>
<!-- resource_server -->
<g id="node6" class="node">
<title>resource_server</title>
<g id="a_node6"><a xlink:href="../../tables/resource_server.html" xlink:title="resource_server" target="_top">
<polygon fill="#ffffff" stroke="transparent" points="8,-155.7 8,-238.7 163,-238.7 163,-155.7 8,-155.7"/>
<polygon fill="#f5f5f5" stroke="transparent" points="8.5,-215.2 8.5,-238.2 163.5,-238.2 163.5,-215.2 8.5,-215.2"/>
<polygon fill="none" stroke="#000000" points="8.5,-215.2 8.5,-238.2 163.5,-238.2 163.5,-215.2 8.5,-215.2"/>
<text text-anchor="start" x="13.5" y="-224.3" font-family="Helvetica,sans-Serif" font-weight="bold" font-size="11.00" fill="#000000">resource_server</text>
<text text-anchor="start" x="128.5437" y="-223.3" font-family="Helvetica,sans-Serif" font-size="11.00" fill="#000000">[table]</text>
<polygon fill="none" stroke="#000000" points="8.5,-193.2 8.5,-215.2 163.5,-215.2 163.5,-193.2 8.5,-193.2"/>
<image xlink:href="../../images/primaryKeys.png" width="11px" height="12px" preserveAspectRatio="xMinYMin meet" x="13.5" y="-210.2"/>
<text text-anchor="start" x="28.5" y="-200.3" font-family="Helvetica,sans-Serif" font-size="11.00" fill="#000000">id</text>
<polygon fill="none" stroke="#000000" points="8.5,-174.2 8.5,-193.2 163.5,-193.2 163.5,-174.2 8.5,-174.2"/>
<text text-anchor="start" x="11.5" y="-180.3" font-family="Helvetica,sans-Serif" font-size="11.00" fill="#000000">...</text>
<polygon fill="#ffffff" stroke="transparent" points="8.5,-155.2 8.5,-174.2 62.5,-174.2 62.5,-155.2 8.5,-155.2"/>
<polygon fill="none" stroke="#000000" points="8.5,-155.2 8.5,-174.2 62.5,-174.2 62.5,-155.2 8.5,-155.2"/>
<text text-anchor="start" x="11.5" y="-161.3" font-family="Helvetica,sans-Serif" font-size="11.00" fill="#000000"> &#160;</text>
<polygon fill="#ffffff" stroke="transparent" points="62.5,-155.2 62.5,-174.2 121.5,-174.2 121.5,-155.2 62.5,-155.2"/>
<polygon fill="none" stroke="#000000" points="62.5,-155.2 62.5,-174.2 121.5,-174.2 121.5,-155.2 62.5,-155.2"/>
<text text-anchor="start" x="86.1105" y="-161.3" font-family="Helvetica,sans-Serif" font-size="11.00" fill="#000000">0 rows</text>
<polygon fill="#ffffff" stroke="transparent" points="121.5,-155.2 121.5,-174.2 163.5,-174.2 163.5,-155.2 121.5,-155.2"/>
<polygon fill="none" stroke="#000000" points="121.5,-155.2 121.5,-174.2 163.5,-174.2 163.5,-155.2 121.5,-155.2"/>
<text text-anchor="start" x="144.9053" y="-161.3" font-family="Helvetica,sans-Serif" font-size="11.00" fill="#000000">4 &gt;</text>
</a>
</g>
</g>
<!-- resource_server_resource&#45;&gt;resource_server -->
<g id="edge8" class="edge">
<title>resource_server_resource:w&#45;&gt;resource_server:e</title>
<path fill="none" stroke="#000000" d="M225.5397,-392.1948C161.0303,-371.8887 249.0205,-204.2 163.5,-204.2"/>
<polygon fill="#000000" stroke="#000000" points="232.0758,-393.1011 239.5055,-397.7659 236.0379,-393.6505 240,-394.2 240,-394.2 240,-394.2 236.0379,-393.6505 240.4945,-390.6341 232.0758,-393.1011 232.0758,-393.1011"/>
<ellipse fill="none" stroke="#000000" cx="228.9062" cy="-392.6615" rx="3.2" ry="3.2"/>
</g>
<!-- resource_server_scope&#45;&gt;resource_server -->
<g id="edge9" class="edge">
<title>resource_server_scope:w&#45;&gt;resource_server:e</title>
<path fill="none" stroke="#000000" d="M200.0207,-238.7262C186.7259,-228.4822 185.8765,-204.2 163.5,-204.2"/>
<polygon fill="#000000" stroke="#000000" points="206.3807,-240.7616 212.9027,-246.6287 210.1903,-241.9808 214,-243.2 214,-243.2 214,-243.2 210.1903,-241.9808 215.0973,-239.7713 206.3807,-240.7616 206.3807,-240.7616"/>
<ellipse fill="none" stroke="#000000" cx="203.3329" cy="-239.7862" rx="3.2" ry="3.2"/>
</g>
<!-- resource_server_perm_ticket -->
<g id="node4" class="node">
<title>resource_server_perm_ticket</title>
<g id="a_node4"><a xlink:href="../../tables/resource_server_perm_ticket.html" xlink:title="resource_server_perm_ticket" target="_top">
<polygon fill="#ffffff" stroke="transparent" points="487,-145.7 487,-360.7 675,-360.7 675,-145.7 487,-145.7"/>
<polygon fill="#f5f5f5" stroke="transparent" points="487,-337.2 487,-360.2 675,-360.2 675,-337.2 487,-337.2"/>
<polygon fill="none" stroke="#000000" points="487,-337.2 487,-360.2 675,-360.2 675,-337.2 487,-337.2"/>
<text text-anchor="start" x="492" y="-346.3" font-family="Helvetica,sans-Serif" font-weight="bold" font-size="11.00" fill="#000000">resource_server_perm_ticket</text>
<text text-anchor="start" x="640.0437" y="-345.3" font-family="Helvetica,sans-Serif" font-size="11.00" fill="#000000">[table]</text>
<polygon fill="none" stroke="#000000" points="487,-315.2 487,-337.2 675,-337.2 675,-315.2 487,-315.2"/>
<image xlink:href="../../images/primaryKeys.png" width="11px" height="12px" preserveAspectRatio="xMinYMin meet" x="492" y="-332.2"/>
<text text-anchor="start" x="507" y="-322.3" font-family="Helvetica,sans-Serif" font-size="11.00" fill="#000000">id</text>
<polygon fill="#ffffff" stroke="transparent" points="487,-293.2 487,-315.2 675,-315.2 675,-293.2 487,-293.2"/>
<polygon fill="none" stroke="#000000" points="487,-293.2 487,-315.2 675,-315.2 675,-293.2 487,-293.2"/>
<text text-anchor="start" x="507" y="-300.3" font-family="Helvetica,sans-Serif" font-size="11.00" fill="#000000">owner</text>
<polygon fill="#ffffff" stroke="transparent" points="487,-271.2 487,-293.2 675,-293.2 675,-271.2 487,-271.2"/>
<polygon fill="none" stroke="#000000" points="487,-271.2 487,-293.2 675,-293.2 675,-271.2 487,-271.2"/>
<text text-anchor="start" x="507" y="-278.3" font-family="Helvetica,sans-Serif" font-size="11.00" fill="#000000">requester</text>
<polygon fill="#ffffff" stroke="transparent" points="487,-249.2 487,-271.2 675,-271.2 675,-249.2 487,-249.2"/>
<polygon fill="none" stroke="#000000" points="487,-249.2 487,-271.2 675,-271.2 675,-249.2 487,-249.2"/>
<image xlink:href="../../images/foreignKeys.png" width="11px" height="12px" preserveAspectRatio="xMinYMin meet" x="492" y="-266.2"/>
<text text-anchor="start" x="507" y="-256.3" font-family="Helvetica,sans-Serif" font-size="11.00" fill="#000000">resource_id</text>
<polygon fill="#ffffff" stroke="transparent" points="487,-227.2 487,-249.2 675,-249.2 675,-227.2 487,-227.2"/>
<polygon fill="none" stroke="#000000" points="487,-227.2 487,-249.2 675,-249.2 675,-227.2 487,-227.2"/>
<image xlink:href="../../images/foreignKeys.png" width="11px" height="12px" preserveAspectRatio="xMinYMin meet" x="492" y="-244.2"/>
<text text-anchor="start" x="507" y="-234.3" font-family="Helvetica,sans-Serif" font-size="11.00" fill="#000000">scope_id</text>
<polygon fill="#ffffff" stroke="transparent" points="487,-205.2 487,-227.2 675,-227.2 675,-205.2 487,-205.2"/>
<polygon fill="none" stroke="#000000" points="487,-205.2 487,-227.2 675,-227.2 675,-205.2 487,-205.2"/>
<image xlink:href="../../images/foreignKeys.png" width="11px" height="12px" preserveAspectRatio="xMinYMin meet" x="492" y="-222.2"/>
<text text-anchor="start" x="507" y="-212.3" font-family="Helvetica,sans-Serif" font-size="11.00" fill="#000000">resource_server_id</text>
<polygon fill="none" stroke="#000000" points="487,-183.2 487,-205.2 675,-205.2 675,-183.2 487,-183.2"/>
<image xlink:href="../../images/foreignKeys.png" width="11px" height="12px" preserveAspectRatio="xMinYMin meet" x="492" y="-200.2"/>
<text text-anchor="start" x="507" y="-190.3" font-family="Helvetica,sans-Serif" font-size="11.00" fill="#000000">policy_id</text>
<polygon fill="none" stroke="#000000" points="487,-164.2 487,-183.2 675,-183.2 675,-164.2 487,-164.2"/>
<text text-anchor="start" x="490" y="-170.3" font-family="Helvetica,sans-Serif" font-size="11.00" fill="#000000">...</text>
<polygon fill="#ffffff" stroke="transparent" points="487,-145.2 487,-164.2 566,-164.2 566,-145.2 487,-145.2"/>
<polygon fill="none" stroke="#000000" points="487,-145.2 487,-164.2 566,-164.2 566,-145.2 487,-145.2"/>
<text text-anchor="start" x="490" y="-151.3" font-family="Helvetica,sans-Serif" font-size="11.00" fill="#000000">&lt; 4</text>
<polygon fill="#ffffff" stroke="transparent" points="566,-145.2 566,-164.2 633,-164.2 633,-145.2 566,-145.2"/>
<polygon fill="none" stroke="#000000" points="566,-145.2 566,-164.2 633,-164.2 633,-145.2 566,-145.2"/>
<text text-anchor="start" x="597.6105" y="-151.3" font-family="Helvetica,sans-Serif" font-size="11.00" fill="#000000">0 rows</text>
<polygon fill="#ffffff" stroke="transparent" points="633,-145.2 633,-164.2 675,-164.2 675,-145.2 633,-145.2"/>
<polygon fill="none" stroke="#000000" points="633,-145.2 633,-164.2 675,-164.2 675,-145.2 633,-145.2"/>
<text text-anchor="start" x="665.8862" y="-151.3" font-family="Helvetica,sans-Serif" font-size="11.00" fill="#000000"> &#160;</text>
</a>
</g>
</g>
<!-- resource_server_perm_ticket&#45;&gt;resource_server_resource -->
<g id="edge4" class="edge">
<title>resource_server_perm_ticket:w&#45;&gt;resource_server_resource:e</title>
<path fill="none" stroke="#000000" d="M472.62,-262.7572C427.6589,-281.2827 473.8511,-394.2 411,-394.2"/>
<polygon fill="#000000" stroke="#000000" points="479.1236,-261.6007 487.6303,-263.7444 483.0618,-260.9003 487,-260.2 487,-260.2 487,-260.2 483.0618,-260.9003 486.3697,-256.6556 479.1236,-261.6007 479.1236,-261.6007"/>
<ellipse fill="none" stroke="#000000" cx="475.973" cy="-262.161" rx="3.2" ry="3.2"/>
</g>
<!-- resource_server_perm_ticket&#45;&gt;resource_server_scope -->
<g id="edge6" class="edge">
<title>resource_server_perm_ticket:w&#45;&gt;resource_server_scope:e</title>
<path fill="none" stroke="#000000" d="M473.0893,-242.8585C454.8922,-258.6541 468.782,-309.2 436,-309.2"/>
<polygon fill="#000000" stroke="#000000" points="479.4141,-240.7405 488.1432,-241.6137 483.207,-239.4702 487,-238.2 487,-238.2 487,-238.2 483.207,-239.4702 485.8568,-234.7863 479.4141,-240.7405 479.4141,-240.7405"/>
<ellipse fill="none" stroke="#000000" cx="476.3797" cy="-241.7566" rx="3.2" ry="3.2"/>
</g>
<!-- resource_server_policy -->
<g id="node5" class="node">
<title>resource_server_policy</title>
<g id="a_node5"><a xlink:href="../../tables/resource_server_policy.html" xlink:title="resource_server_policy" target="_top">
<polygon fill="#ffffff" stroke="transparent" points="247,-79.7 247,-140.7 403,-140.7 403,-79.7 247,-79.7"/>
<polygon fill="#f5f5f5" stroke="transparent" points="247,-117.2 247,-140.2 403,-140.2 403,-117.2 247,-117.2"/>
<polygon fill="none" stroke="#000000" points="247,-117.2 247,-140.2 403,-140.2 403,-117.2 247,-117.2"/>
<text text-anchor="start" x="251.6608" y="-126.3" font-family="Helvetica,sans-Serif" font-weight="bold" font-size="11.00" fill="#000000">resource_server_policy</text>
<text text-anchor="start" x="368.5219" y="-125.3" font-family="Helvetica,sans-Serif" font-size="11.00" fill="#000000">[table]</text>
<polygon fill="none" stroke="#000000" points="247,-98.2 247,-117.2 403,-117.2 403,-98.2 247,-98.2"/>
<text text-anchor="start" x="250" y="-104.3" font-family="Helvetica,sans-Serif" font-size="11.00" fill="#000000">...</text>
<polygon fill="#ffffff" stroke="transparent" points="247,-79.2 247,-98.2 306,-98.2 306,-79.2 247,-79.2"/>
<polygon fill="none" stroke="#000000" points="247,-79.2 247,-98.2 306,-98.2 306,-79.2 247,-79.2"/>
<text text-anchor="start" x="250" y="-85.3" font-family="Helvetica,sans-Serif" font-size="11.00" fill="#000000">&lt; 1</text>
<polygon fill="#ffffff" stroke="transparent" points="306,-79.2 306,-98.2 363,-98.2 363,-79.2 306,-79.2"/>
<polygon fill="none" stroke="#000000" points="306,-79.2 306,-98.2 363,-98.2 363,-79.2 306,-79.2"/>
<text text-anchor="start" x="327.6105" y="-85.3" font-family="Helvetica,sans-Serif" font-size="11.00" fill="#000000">0 rows</text>
<polygon fill="#ffffff" stroke="transparent" points="363,-79.2 363,-98.2 403,-98.2 403,-79.2 363,-79.2"/>
<polygon fill="none" stroke="#000000" points="363,-79.2 363,-98.2 403,-98.2 403,-79.2 363,-79.2"/>
<text text-anchor="start" x="384.4053" y="-85.3" font-family="Helvetica,sans-Serif" font-size="11.00" fill="#000000">6 &gt;</text>
</a>
</g>
</g>
<!-- resource_server_perm_ticket&#45;&gt;resource_server_policy -->
<g id="edge3" class="edge">
<title>resource_server_perm_ticket:w&#45;&gt;resource_server_policy:e</title>
<path fill="none" stroke="#000000" d="M472.3902,-191.5009C437.3487,-176.8162 451.0796,-107.2 403,-107.2"/>
<polygon fill="#000000" stroke="#000000" points="479.1331,-192.7466 486.346,-197.7401 483.0666,-193.4733 487,-194.2 487,-194.2 487,-194.2 483.0666,-193.4733 487.654,-190.6599 479.1331,-192.7466 479.1331,-192.7466"/>
<ellipse fill="none" stroke="#000000" cx="475.9864" cy="-192.1652" rx="3.2" ry="3.2"/>
</g>
<!-- resource_server_perm_ticket&#45;&gt;resource_server -->
<g id="edge5" class="edge">
<title>resource_server_perm_ticket:w&#45;&gt;resource_server:e</title>
<path fill="none" stroke="#000000" d="M473.1629,-211.3939C463.8314,-202.9523 463.0035,-185.738 446,-179.2 345.6099,-140.5992 307.4698,-149.8368 204,-179.2 183.6504,-184.9749 184.6532,-204.2 163.5,-204.2"/>
<polygon fill="#000000" stroke="#000000" points="479.4429,-213.5751 485.8188,-219.6007 483.2214,-214.8876 487,-216.2 487,-216.2 487,-216.2 483.2214,-214.8876 488.1812,-212.7993 479.4429,-213.5751 479.4429,-213.5751"/>
<ellipse fill="none" stroke="#000000" cx="476.42" cy="-212.5252" rx="3.2" ry="3.2"/>
</g>
<!-- resource_server_policy&#45;&gt;resource_server -->
<g id="edge7" class="edge">
<title>resource_server_policy:w&#45;&gt;resource_server:e</title>
<path fill="none" stroke="#000000" d="M232.7503,-110.4196C219.159,-118.0875 218.7419,-138.0699 204,-155.2 185.5702,-176.6153 191.7537,-204.2 163.5,-204.2"/>
<polygon fill="#000000" stroke="#000000" points="239.1967,-108.9631 247.7934,-110.7115 243.0984,-108.0816 247,-107.2 247,-107.2 247,-107.2 243.0984,-108.0816 246.2066,-103.6885 239.1967,-108.9631 239.1967,-108.9631"/>
<ellipse fill="none" stroke="#000000" cx="236.0754" cy="-109.6684" rx="3.2" ry="3.2"/>
</g>
<!-- scope_policy -->
<g id="node7" class="node">
<title>scope_policy</title>
<g id="a_node7"><a xlink:href="../../tables/scope_policy.html" xlink:title="scope_policy" target="_top">
<polygon fill="#ffffff" stroke="transparent" points="528,-38.2 528,-124.2 634,-124.2 634,-38.2 528,-38.2"/>
<polygon fill="#f5f5f5" stroke="transparent" points="528,-101.2 528,-124.2 634,-124.2 634,-101.2 528,-101.2"/>
<polygon fill="none" stroke="#000000" points="528,-101.2 528,-124.2 634,-124.2 634,-101.2 528,-101.2"/>
<text text-anchor="start" x="532.7144" y="-110.3" font-family="Helvetica,sans-Serif" font-weight="bold" font-size="11.00" fill="#000000">scope_policy</text>
<text text-anchor="start" x="599.5219" y="-109.3" font-family="Helvetica,sans-Serif" font-size="11.00" fill="#000000">[table]</text>
<polygon fill="none" stroke="#000000" points="528,-79.2 528,-101.2 634,-101.2 634,-79.2 528,-79.2"/>
<image xlink:href="../../images/primaryKeys.png" width="11px" height="12px" preserveAspectRatio="xMinYMin meet" x="533" y="-96.2"/>
<text text-anchor="start" x="553" y="-86.3" font-family="Helvetica,sans-Serif" font-size="11.00" fill="#000000">scope_id</text>
<polygon fill="none" stroke="#000000" points="528,-57.2 528,-79.2 634,-79.2 634,-57.2 528,-57.2"/>
<image xlink:href="../../images/primaryKeys.png" width="11px" height="12px" preserveAspectRatio="xMinYMin meet" x="533" y="-74.2"/>
<text text-anchor="start" x="553" y="-64.3" font-family="Helvetica,sans-Serif" font-size="11.00" fill="#000000">policy_id</text>
<polygon fill="#ffffff" stroke="transparent" points="528,-38.2 528,-57.2 566,-57.2 566,-38.2 528,-38.2"/>
<polygon fill="none" stroke="#000000" points="528,-38.2 528,-57.2 566,-57.2 566,-38.2 528,-38.2"/>
<text text-anchor="start" x="531" y="-44.3" font-family="Helvetica,sans-Serif" font-size="11.00" fill="#000000">&lt; 2</text>
<polygon fill="#ffffff" stroke="transparent" points="566,-38.2 566,-57.2 613,-57.2 613,-38.2 566,-38.2"/>
<polygon fill="none" stroke="#000000" points="566,-38.2 566,-57.2 613,-57.2 613,-38.2 566,-38.2"/>
<text text-anchor="start" x="577.6105" y="-44.3" font-family="Helvetica,sans-Serif" font-size="11.00" fill="#000000">0 rows</text>
<polygon fill="#ffffff" stroke="transparent" points="613,-38.2 613,-57.2 634,-57.2 634,-38.2 613,-38.2"/>
<polygon fill="none" stroke="#000000" points="613,-38.2 613,-57.2 634,-57.2 634,-38.2 613,-38.2"/>
<text text-anchor="start" x="624.8862" y="-44.3" font-family="Helvetica,sans-Serif" font-size="11.00" fill="#000000"> &#160;</text>
</a>
</g>
</g>
<!-- scope_policy&#45;&gt;resource_server_scope -->
<g id="edge11" class="edge">
<title>scope_policy:w&#45;&gt;resource_server_scope:e</title>
<path fill="none" stroke="#000000" d="M513.2927,-92.337C496.3219,-98.0665 491.1327,-114.7328 479,-135.2 438.3794,-203.7248 515.6598,-309.2 436,-309.2"/>
<polygon fill="#000000" stroke="#000000" points="520.0831,-91.3504 528.5177,-93.7626 524.0416,-90.7752 528,-90.2 528,-90.2 528,-90.2 524.0416,-90.7752 527.4823,-86.6374 520.0831,-91.3504 520.0831,-91.3504"/>
<ellipse fill="none" stroke="#000000" cx="516.9164" cy="-91.8105" rx="3.2" ry="3.2"/>
</g>
<!-- scope_policy&#45;&gt;resource_server_policy -->
<g id="edge10" class="edge">
<title>scope_policy:w&#45;&gt;resource_server_policy:e</title>
<path fill="none" stroke="#000000" d="M513.4431,-69.0878C467.8565,-74.893 455.9682,-107.2 403,-107.2"/>
<polygon fill="#000000" stroke="#000000" points="520.0148,-68.6871 528.2192,-71.7933 524.0074,-68.4435 528,-68.2 528,-68.2 528,-68.2 524.0074,-68.4435 527.7808,-64.6067 520.0148,-68.6871 520.0148,-68.6871"/>
<ellipse fill="none" stroke="#000000" cx="516.8208" cy="-68.8819" rx="3.2" ry="3.2"/>
</g>
</g>
</svg>
