<?xml version="1.0" encoding="UTF-8" standalone="no"?>
<!DOCTYPE svg PUBLIC "-//W3C//DTD SVG 1.1//EN"
 "http://www.w3.org/Graphics/SVG/1.1/DTD/svg11.dtd">
<!-- Generated by graphviz version 2.40.1 (20161225.0304)
 -->
<!-- Title: twoDegreesRelationshipsDiagram Pages: 1 -->
<svg width="600pt" height="551pt"
 viewBox="0.00 0.00 600.00 551.20" xmlns="http://www.w3.org/2000/svg" xmlns:xlink="http://www.w3.org/1999/xlink">
<g id="graph0" class="graph" transform="scale(1 1) rotate(0) translate(4 547.2)">
<title>twoDegreesRelationshipsDiagram</title>
<polygon fill="#ffffff" stroke="transparent" points="-4,4 -4,-547.2 596,-547.2 596,4 -4,4"/>
<text text-anchor="middle" x="72.4936" y="-7.3" font-family="Helvetica,sans-Serif" font-size="11.00" fill="#000000">Generated by SchemaSpy</text>
<!-- resource_attribute -->
<g id="node1" class="node">
<title>resource_attribute</title>
<g id="a_node1"><a xlink:href="../../tables/resource_attribute.html" xlink:title="resource_attribute" target="_top">
<polygon fill="#ffffff" stroke="transparent" points="426,-478.2 426,-539.2 557,-539.2 557,-478.2 426,-478.2"/>
<polygon fill="#f5f5f5" stroke="transparent" points="426.5,-515.7 426.5,-538.7 557.5,-538.7 557.5,-515.7 426.5,-515.7"/>
<polygon fill="none" stroke="#000000" points="426.5,-515.7 426.5,-538.7 557.5,-538.7 557.5,-515.7 426.5,-515.7"/>
<text text-anchor="start" x="431.1843" y="-524.8" font-family="Helvetica,sans-Serif" font-weight="bold" font-size="11.00" fill="#000000">resource_attribute</text>
<text text-anchor="start" x="523.0219" y="-523.8" font-family="Helvetica,sans-Serif" font-size="11.00" fill="#000000">[table]</text>
<polygon fill="none" stroke="#000000" points="426.5,-496.7 426.5,-515.7 557.5,-515.7 557.5,-496.7 426.5,-496.7"/>
<text text-anchor="start" x="429.5" y="-502.8" font-family="Helvetica,sans-Serif" font-size="11.00" fill="#000000">...</text>
<polygon fill="#ffffff" stroke="transparent" points="426.5,-477.7 426.5,-496.7 477.5,-496.7 477.5,-477.7 426.5,-477.7"/>
<polygon fill="none" stroke="#000000" points="426.5,-477.7 426.5,-496.7 477.5,-496.7 477.5,-477.7 426.5,-477.7"/>
<text text-anchor="start" x="429.5" y="-483.8" font-family="Helvetica,sans-Serif" font-size="11.00" fill="#000000">&lt; 1</text>
<polygon fill="#ffffff" stroke="transparent" points="477.5,-477.7 477.5,-496.7 530.5,-496.7 530.5,-477.7 477.5,-477.7"/>
<polygon fill="none" stroke="#000000" points="477.5,-477.7 477.5,-496.7 530.5,-496.7 530.5,-477.7 477.5,-477.7"/>
<text text-anchor="start" x="495.1105" y="-483.8" font-family="Helvetica,sans-Serif" font-size="11.00" fill="#000000">0 rows</text>
<polygon fill="#ffffff" stroke="transparent" points="530.5,-477.7 530.5,-496.7 557.5,-496.7 557.5,-477.7 530.5,-477.7"/>
<polygon fill="none" stroke="#000000" points="530.5,-477.7 530.5,-496.7 557.5,-496.7 557.5,-477.7 530.5,-477.7"/>
<text text-anchor="start" x="548.3862" y="-483.8" font-family="Helvetica,sans-Serif" font-size="11.00" fill="#000000"> &#160;</text>
</a>
</g>
</g>
<!-- resource_server_resource -->
<g id="node2" class="node">
<title>resource_server_resource</title>
<g id="a_node2"><a xlink:href="../../tables/resource_server_resource.html" xlink:title="resource_server_resource" target="_top">
<polygon fill="#ffffff" stroke="transparent" points="179,-236.2 179,-385.2 350,-385.2 350,-236.2 179,-236.2"/>
<polygon fill="#f5f5f5" stroke="transparent" points="179.5,-361.7 179.5,-384.7 350.5,-384.7 350.5,-361.7 179.5,-361.7"/>
<polygon fill="none" stroke="#000000" points="179.5,-361.7 179.5,-384.7 350.5,-384.7 350.5,-361.7 179.5,-361.7"/>
<text text-anchor="start" x="184.3249" y="-370.8" font-family="Helvetica,sans-Serif" font-weight="bold" font-size="11.00" fill="#000000">resource_server_resource</text>
<text text-anchor="start" x="316.0219" y="-369.8" font-family="Helvetica,sans-Serif" font-size="11.00" fill="#000000">[table]</text>
<polygon fill="none" stroke="#000000" points="179.5,-339.7 179.5,-361.7 350.5,-361.7 350.5,-339.7 179.5,-339.7"/>
<image xlink:href="../../images/primaryKeys.png" width="11px" height="12px" preserveAspectRatio="xMinYMin meet" x="184.5" y="-356.7"/>
<text text-anchor="start" x="199.5" y="-346.8" font-family="Helvetica,sans-Serif" font-size="11.00" fill="#000000">id</text>
<polygon fill="#ffffff" stroke="transparent" points="179.5,-317.7 179.5,-339.7 350.5,-339.7 350.5,-317.7 179.5,-317.7"/>
<polygon fill="none" stroke="#000000" points="179.5,-317.7 179.5,-339.7 350.5,-339.7 350.5,-317.7 179.5,-317.7"/>
<text text-anchor="start" x="199.5" y="-324.8" font-family="Helvetica,sans-Serif" font-size="11.00" fill="#000000">name</text>
<polygon fill="#ffffff" stroke="transparent" points="179.5,-295.7 179.5,-317.7 350.5,-317.7 350.5,-295.7 179.5,-295.7"/>
<polygon fill="none" stroke="#000000" points="179.5,-295.7 179.5,-317.7 350.5,-317.7 350.5,-295.7 179.5,-295.7"/>
<text text-anchor="start" x="199.5" y="-302.8" font-family="Helvetica,sans-Serif" font-size="11.00" fill="#000000">owner</text>
<polygon fill="#ffffff" stroke="transparent" points="179.5,-273.7 179.5,-295.7 350.5,-295.7 350.5,-273.7 179.5,-273.7"/>
<polygon fill="none" stroke="#000000" points="179.5,-273.7 179.5,-295.7 350.5,-295.7 350.5,-273.7 179.5,-273.7"/>
<image xlink:href="../../images/foreignKeys.png" width="11px" height="12px" preserveAspectRatio="xMinYMin meet" x="184.5" y="-290.7"/>
<text text-anchor="start" x="199.5" y="-280.8" font-family="Helvetica,sans-Serif" font-size="11.00" fill="#000000">resource_server_id</text>
<polygon fill="none" stroke="#000000" points="179.5,-254.7 179.5,-273.7 350.5,-273.7 350.5,-254.7 179.5,-254.7"/>
<text text-anchor="start" x="182.5" y="-260.8" font-family="Helvetica,sans-Serif" font-size="11.00" fill="#000000">...</text>
<polygon fill="#ffffff" stroke="transparent" points="179.5,-235.7 179.5,-254.7 245.5,-254.7 245.5,-235.7 179.5,-235.7"/>
<polygon fill="none" stroke="#000000" points="179.5,-235.7 179.5,-254.7 245.5,-254.7 245.5,-235.7 179.5,-235.7"/>
<text text-anchor="start" x="182.5" y="-241.8" font-family="Helvetica,sans-Serif" font-size="11.00" fill="#000000">&lt; 1</text>
<polygon fill="#ffffff" stroke="transparent" points="245.5,-235.7 245.5,-254.7 306.5,-254.7 306.5,-235.7 245.5,-235.7"/>
<polygon fill="none" stroke="#000000" points="245.5,-235.7 245.5,-254.7 306.5,-254.7 306.5,-235.7 245.5,-235.7"/>
<text text-anchor="start" x="271.1105" y="-241.8" font-family="Helvetica,sans-Serif" font-size="11.00" fill="#000000">0 rows</text>
<polygon fill="#ffffff" stroke="transparent" points="306.5,-235.7 306.5,-254.7 350.5,-254.7 350.5,-235.7 306.5,-235.7"/>
<polygon fill="none" stroke="#000000" points="306.5,-235.7 306.5,-254.7 350.5,-254.7 350.5,-235.7 306.5,-235.7"/>
<text text-anchor="start" x="331.9053" y="-241.8" font-family="Helvetica,sans-Serif" font-size="11.00" fill="#000000">5 &gt;</text>
</a>
</g>
</g>
<!-- resource_attribute&#45;&gt;resource_server_resource -->
<g id="edge1" class="edge">
<title>resource_attribute:w&#45;&gt;resource_server_resource:e</title>
<path fill="none" stroke="#000000" d="M412.1655,-503.3886C360.1643,-484.1071 421.6798,-350.7 350.5,-350.7"/>
<polygon fill="#000000" stroke="#000000" points="418.602,-504.4264 425.9269,-509.2541 422.551,-505.0632 426.5,-505.7 426.5,-505.7 426.5,-505.7 422.551,-505.0632 427.0731,-502.1459 418.602,-504.4264 418.602,-504.4264"/>
<ellipse fill="none" stroke="#000000" cx="415.4428" cy="-503.917" rx="3.2" ry="3.2"/>
</g>
<!-- resource_server -->
<g id="node7" class="node">
<title>resource_server</title>
<g id="a_node7"><a xlink:href="../../tables/resource_server.html" xlink:title="resource_server" target="_top">
<polygon fill="#ffffff" stroke="transparent" points="8,-184.2 8,-245.2 130,-245.2 130,-184.2 8,-184.2"/>
<polygon fill="#f5f5f5" stroke="transparent" points="8,-221.7 8,-244.7 130,-244.7 130,-221.7 8,-221.7"/>
<polygon fill="none" stroke="#000000" points="8,-221.7 8,-244.7 130,-244.7 130,-221.7 8,-221.7"/>
<text text-anchor="start" x="12.7741" y="-230.8" font-family="Helvetica,sans-Serif" font-weight="bold" font-size="11.00" fill="#000000">resource_server</text>
<text text-anchor="start" x="95.5219" y="-229.8" font-family="Helvetica,sans-Serif" font-size="11.00" fill="#000000">[table]</text>
<polygon fill="none" stroke="#000000" points="8,-202.7 8,-221.7 130,-221.7 130,-202.7 8,-202.7"/>
<text text-anchor="start" x="11" y="-208.8" font-family="Helvetica,sans-Serif" font-size="11.00" fill="#000000">...</text>
<polygon fill="#ffffff" stroke="transparent" points="8,-183.7 8,-202.7 45,-202.7 45,-183.7 8,-183.7"/>
<polygon fill="none" stroke="#000000" points="8,-183.7 8,-202.7 45,-202.7 45,-183.7 8,-183.7"/>
<text text-anchor="start" x="11" y="-189.8" font-family="Helvetica,sans-Serif" font-size="11.00" fill="#000000"> &#160;</text>
<polygon fill="#ffffff" stroke="transparent" points="45,-183.7 45,-202.7 96,-202.7 96,-183.7 45,-183.7"/>
<polygon fill="none" stroke="#000000" points="45,-183.7 45,-202.7 96,-202.7 96,-183.7 45,-183.7"/>
<text text-anchor="start" x="60.6105" y="-189.8" font-family="Helvetica,sans-Serif" font-size="11.00" fill="#000000">0 rows</text>
<polygon fill="#ffffff" stroke="transparent" points="96,-183.7 96,-202.7 130,-202.7 130,-183.7 96,-183.7"/>
<polygon fill="none" stroke="#000000" points="96,-183.7 96,-202.7 130,-202.7 130,-183.7 96,-183.7"/>
<text text-anchor="start" x="111.4053" y="-189.8" font-family="Helvetica,sans-Serif" font-size="11.00" fill="#000000">4 &gt;</text>
</a>
</g>
</g>
<!-- resource_server_resource&#45;&gt;resource_server -->
<g id="edge8" class="edge">
<title>resource_server_resource:w&#45;&gt;resource_server:e</title>
<path fill="none" stroke="#000000" d="M165.5932,-279.9103C147.6686,-263.6697 163.075,-211.7 130,-211.7"/>
<polygon fill="#000000" stroke="#000000" points="171.9361,-282.0948 178.3277,-288.1038 175.718,-283.3974 179.5,-284.7 179.5,-284.7 179.5,-284.7 175.718,-283.3974 180.6723,-281.2962 171.9361,-282.0948 171.9361,-282.0948"/>
<ellipse fill="none" stroke="#000000" cx="168.9105" cy="-281.0527" rx="3.2" ry="3.2"/>
</g>
<!-- resource_policy -->
<g id="node3" class="node">
<title>resource_policy</title>
<g id="a_node3"><a xlink:href="../../tables/resource_policy.html" xlink:title="resource_policy" target="_top">
<polygon fill="#ffffff" stroke="transparent" points="431.5,-396.2 431.5,-457.2 551.5,-457.2 551.5,-396.2 431.5,-396.2"/>
<polygon fill="#f5f5f5" stroke="transparent" points="431.5,-433.7 431.5,-456.7 551.5,-456.7 551.5,-433.7 431.5,-433.7"/>
<polygon fill="none" stroke="#000000" points="431.5,-433.7 431.5,-456.7 551.5,-456.7 551.5,-433.7 431.5,-433.7"/>
<text text-anchor="start" x="436.4951" y="-442.8" font-family="Helvetica,sans-Serif" font-weight="bold" font-size="11.00" fill="#000000">resource_policy</text>
<text text-anchor="start" x="517.0219" y="-441.8" font-family="Helvetica,sans-Serif" font-size="11.00" fill="#000000">[table]</text>
<polygon fill="none" stroke="#000000" points="431.5,-414.7 431.5,-433.7 551.5,-433.7 551.5,-414.7 431.5,-414.7"/>
<text text-anchor="start" x="434.5" y="-420.8" font-family="Helvetica,sans-Serif" font-size="11.00" fill="#000000">...</text>
<polygon fill="#ffffff" stroke="transparent" points="431.5,-395.7 431.5,-414.7 476.5,-414.7 476.5,-395.7 431.5,-395.7"/>
<polygon fill="none" stroke="#000000" points="431.5,-395.7 431.5,-414.7 476.5,-414.7 476.5,-395.7 431.5,-395.7"/>
<text text-anchor="start" x="434.5" y="-401.8" font-family="Helvetica,sans-Serif" font-size="11.00" fill="#000000">&lt; 2</text>
<polygon fill="#ffffff" stroke="transparent" points="476.5,-395.7 476.5,-414.7 526.5,-414.7 526.5,-395.7 476.5,-395.7"/>
<polygon fill="none" stroke="#000000" points="476.5,-395.7 476.5,-414.7 526.5,-414.7 526.5,-395.7 476.5,-395.7"/>
<text text-anchor="start" x="491.1105" y="-401.8" font-family="Helvetica,sans-Serif" font-size="11.00" fill="#000000">0 rows</text>
<polygon fill="#ffffff" stroke="transparent" points="526.5,-395.7 526.5,-414.7 551.5,-414.7 551.5,-395.7 526.5,-395.7"/>
<polygon fill="none" stroke="#000000" points="526.5,-395.7 526.5,-414.7 551.5,-414.7 551.5,-395.7 526.5,-395.7"/>
<text text-anchor="start" x="542.3862" y="-401.8" font-family="Helvetica,sans-Serif" font-size="11.00" fill="#000000"> &#160;</text>
</a>
</g>
</g>
<!-- resource_policy&#45;&gt;resource_server_resource -->
<g id="edge2" class="edge">
<title>resource_policy:w&#45;&gt;resource_server_resource:e</title>
<path fill="none" stroke="#000000" d="M417.3218,-421.1019C385.8191,-408.0977 393.4729,-350.7 350.5,-350.7"/>
<polygon fill="#000000" stroke="#000000" points="423.631,-422.258 430.8511,-427.241 427.5655,-422.979 431.5,-423.7 431.5,-423.7 431.5,-423.7 427.5655,-422.979 432.1489,-420.159 423.631,-422.258 423.631,-422.258"/>
<ellipse fill="none" stroke="#000000" cx="420.4834" cy="-421.6812" rx="3.2" ry="3.2"/>
</g>
<!-- resource_scope -->
<g id="node4" class="node">
<title>resource_scope</title>
<g id="a_node4"><a xlink:href="../../tables/resource_scope.html" xlink:title="resource_scope" target="_top">
<polygon fill="#ffffff" stroke="transparent" points="402.5,-120.7 402.5,-210.7 580.5,-210.7 580.5,-120.7 402.5,-120.7"/>
<polygon fill="#f5f5f5" stroke="transparent" points="404.5,-185.7 404.5,-208.7 578.5,-208.7 578.5,-185.7 404.5,-185.7"/>
<polygon fill="none" stroke="#000000" points="404.5,-185.7 404.5,-208.7 578.5,-208.7 578.5,-185.7 404.5,-185.7"/>
<text text-anchor="start" x="409.5" y="-194.8" font-family="Helvetica,sans-Serif" font-weight="bold" font-size="11.00" fill="#000000">resource_scope</text>
<text text-anchor="start" x="543.5437" y="-193.8" font-family="Helvetica,sans-Serif" font-size="11.00" fill="#000000">[table]</text>
<polygon fill="none" stroke="#000000" points="404.5,-163.7 404.5,-185.7 517.5,-185.7 517.5,-163.7 404.5,-163.7"/>
<image xlink:href="../../images/primaryKeys.png" width="11px" height="12px" preserveAspectRatio="xMinYMin meet" x="409.5" y="-180.7"/>
<text text-anchor="start" x="424.5" y="-170.8" font-family="Helvetica,sans-Serif" font-size="11.00" fill="#000000">resource_id</text>
<polygon fill="none" stroke="#000000" points="517.5,-163.7 517.5,-185.7 578.5,-185.7 578.5,-163.7 517.5,-163.7"/>
<text text-anchor="start" x="520.494" y="-171.4" font-family="Helvetica,sans-Serif" font-size="11.00" fill="#000000">varchar[36]</text>
<polygon fill="none" stroke="#000000" points="404.5,-141.7 404.5,-163.7 517.5,-163.7 517.5,-141.7 404.5,-141.7"/>
<image xlink:href="../../images/primaryKeys.png" width="11px" height="12px" preserveAspectRatio="xMinYMin meet" x="409.5" y="-158.7"/>
<text text-anchor="start" x="424.5" y="-148.8" font-family="Helvetica,sans-Serif" font-size="11.00" fill="#000000">scope_id</text>
<polygon fill="none" stroke="#000000" points="517.5,-141.7 517.5,-163.7 578.5,-163.7 578.5,-141.7 517.5,-141.7"/>
<text text-anchor="start" x="520.494" y="-149.4" font-family="Helvetica,sans-Serif" font-size="11.00" fill="#000000">varchar[36]</text>
<polygon fill="#ffffff" stroke="transparent" points="404.5,-122.7 404.5,-141.7 452.5,-141.7 452.5,-122.7 404.5,-122.7"/>
<polygon fill="none" stroke="#000000" points="404.5,-122.7 404.5,-141.7 452.5,-141.7 452.5,-122.7 404.5,-122.7"/>
<text text-anchor="start" x="407.5" y="-128.8" font-family="Helvetica,sans-Serif" font-size="11.00" fill="#000000">&lt; 2</text>
<polygon fill="#ffffff" stroke="transparent" points="452.5,-122.7 452.5,-141.7 517.5,-141.7 517.5,-122.7 452.5,-122.7"/>
<polygon fill="none" stroke="#000000" points="452.5,-122.7 452.5,-141.7 517.5,-141.7 517.5,-122.7 452.5,-122.7"/>
<text text-anchor="start" x="482.1105" y="-128.8" font-family="Helvetica,sans-Serif" font-size="11.00" fill="#000000">0 rows</text>
<polygon fill="#ffffff" stroke="transparent" points="517.5,-122.7 517.5,-141.7 578.5,-141.7 578.5,-122.7 517.5,-122.7"/>
<polygon fill="none" stroke="#000000" points="517.5,-122.7 517.5,-141.7 578.5,-141.7 578.5,-122.7 517.5,-122.7"/>
<text text-anchor="start" x="559.9053" y="-128.8" font-family="Helvetica,sans-Serif" font-size="11.00" fill="#000000">0 &gt;</text>
<polygon fill="none" stroke="#000000" stroke-width="2" points="403.5,-121.7 403.5,-209.7 579.5,-209.7 579.5,-121.7 403.5,-121.7"/>
</a>
</g>
</g>
<!-- resource_scope&#45;&gt;resource_server_resource -->
<g id="edge3" class="edge">
<title>resource_scope:w&#45;&gt;resource_server_resource:e</title>
<path fill="none" stroke="#000000" d="M390.2821,-177.0549C336.7742,-197.9401 426.728,-350.7 350.5,-350.7"/>
<polygon fill="#000000" stroke="#000000" points="396.6075,-176.0073 405.0883,-178.2516 400.5538,-175.3536 404.5,-174.7 404.5,-174.7 404.5,-174.7 400.5538,-175.3536 403.9117,-171.1484 396.6075,-176.0073 396.6075,-176.0073"/>
<ellipse fill="none" stroke="#000000" cx="393.4505" cy="-176.5302" rx="3.2" ry="3.2"/>
</g>
<!-- resource_server_scope -->
<g id="node5" class="node">
<title>resource_server_scope</title>
<g id="a_node5"><a xlink:href="../../tables/resource_server_scope.html" xlink:title="resource_server_scope" target="_top">
<polygon fill="#ffffff" stroke="transparent" points="186,-60.2 186,-187.2 343,-187.2 343,-60.2 186,-60.2"/>
<polygon fill="#f5f5f5" stroke="transparent" points="186.5,-163.7 186.5,-186.7 343.5,-186.7 343.5,-163.7 186.5,-163.7"/>
<polygon fill="none" stroke="#000000" points="186.5,-163.7 186.5,-186.7 343.5,-186.7 343.5,-163.7 186.5,-163.7"/>
<text text-anchor="start" x="191.0443" y="-172.8" font-family="Helvetica,sans-Serif" font-weight="bold" font-size="11.00" fill="#000000">resource_server_scope</text>
<text text-anchor="start" x="309.0219" y="-171.8" font-family="Helvetica,sans-Serif" font-size="11.00" fill="#000000">[table]</text>
<polygon fill="none" stroke="#000000" points="186.5,-141.7 186.5,-163.7 343.5,-163.7 343.5,-141.7 186.5,-141.7"/>
<image xlink:href="../../images/primaryKeys.png" width="11px" height="12px" preserveAspectRatio="xMinYMin meet" x="191.5" y="-158.7"/>
<text text-anchor="start" x="207.5" y="-148.8" font-family="Helvetica,sans-Serif" font-size="11.00" fill="#000000">id</text>
<polygon fill="#ffffff" stroke="transparent" points="186.5,-119.7 186.5,-141.7 343.5,-141.7 343.5,-119.7 186.5,-119.7"/>
<polygon fill="none" stroke="#000000" points="186.5,-119.7 186.5,-141.7 343.5,-141.7 343.5,-119.7 186.5,-119.7"/>
<text text-anchor="start" x="207.5" y="-126.8" font-family="Helvetica,sans-Serif" font-size="11.00" fill="#000000">name</text>
<polygon fill="#ffffff" stroke="transparent" points="186.5,-97.7 186.5,-119.7 343.5,-119.7 343.5,-97.7 186.5,-97.7"/>
<polygon fill="none" stroke="#000000" points="186.5,-97.7 186.5,-119.7 343.5,-119.7 343.5,-97.7 186.5,-97.7"/>
<image xlink:href="../../images/foreignKeys.png" width="11px" height="12px" preserveAspectRatio="xMinYMin meet" x="191.5" y="-114.7"/>
<text text-anchor="start" x="207.5" y="-104.8" font-family="Helvetica,sans-Serif" font-size="11.00" fill="#000000">resource_server_id</text>
<polygon fill="none" stroke="#000000" points="186.5,-78.7 186.5,-97.7 343.5,-97.7 343.5,-78.7 186.5,-78.7"/>
<text text-anchor="start" x="189.5" y="-84.8" font-family="Helvetica,sans-Serif" font-size="11.00" fill="#000000">...</text>
<polygon fill="#ffffff" stroke="transparent" points="186.5,-59.7 186.5,-78.7 245.5,-78.7 245.5,-59.7 186.5,-59.7"/>
<polygon fill="none" stroke="#000000" points="186.5,-59.7 186.5,-78.7 245.5,-78.7 245.5,-59.7 186.5,-59.7"/>
<text text-anchor="start" x="189.5" y="-65.8" font-family="Helvetica,sans-Serif" font-size="11.00" fill="#000000">&lt; 1</text>
<polygon fill="#ffffff" stroke="transparent" points="245.5,-59.7 245.5,-78.7 302.5,-78.7 302.5,-59.7 245.5,-59.7"/>
<polygon fill="none" stroke="#000000" points="245.5,-59.7 245.5,-78.7 302.5,-78.7 302.5,-59.7 245.5,-59.7"/>
<text text-anchor="start" x="267.1105" y="-65.8" font-family="Helvetica,sans-Serif" font-size="11.00" fill="#000000">0 rows</text>
<polygon fill="#ffffff" stroke="transparent" points="302.5,-59.7 302.5,-78.7 343.5,-78.7 343.5,-59.7 302.5,-59.7"/>
<polygon fill="none" stroke="#000000" points="302.5,-59.7 302.5,-78.7 343.5,-78.7 343.5,-59.7 302.5,-59.7"/>
<text text-anchor="start" x="324.9053" y="-65.8" font-family="Helvetica,sans-Serif" font-size="11.00" fill="#000000">3 &gt;</text>
</a>
</g>
</g>
<!-- resource_scope&#45;&gt;resource_server_scope -->
<g id="edge4" class="edge">
<title>resource_scope:w&#45;&gt;resource_server_scope:e</title>
<path fill="none" stroke="#000000" d="M389.6762,-152.7C373.6248,-152.7 364.8924,-152.7 343.5,-152.7"/>
<polygon fill="#000000" stroke="#000000" points="396.5,-152.7001 404.5,-156.3 400.5,-152.7 404.5,-152.7 404.5,-152.7 404.5,-152.7 400.5,-152.7 404.5,-149.1 396.5,-152.7001 396.5,-152.7001"/>
<ellipse fill="none" stroke="#000000" cx="393.3" cy="-152.7001" rx="3.2" ry="3.2"/>
</g>
<!-- resource_server_scope&#45;&gt;resource_server -->
<g id="edge9" class="edge">
<title>resource_server_scope:w&#45;&gt;resource_server:e</title>
<path fill="none" stroke="#000000" d="M172.3198,-112.3658C143.8603,-130.7142 176.298,-211.7 130,-211.7"/>
<polygon fill="#000000" stroke="#000000" points="178.7546,-110.7024 187.4011,-112.1854 182.6273,-109.7012 186.5,-108.7 186.5,-108.7 186.5,-108.7 182.6273,-109.7012 185.5989,-105.2146 178.7546,-110.7024 178.7546,-110.7024"/>
<ellipse fill="none" stroke="#000000" cx="175.6565" cy="-111.5033" rx="3.2" ry="3.2"/>
</g>
<!-- resource_server_perm_ticket -->
<g id="node6" class="node">
<title>resource_server_perm_ticket</title>
<g id="a_node6"><a xlink:href="../../tables/resource_server_perm_ticket.html" xlink:title="resource_server_perm_ticket" target="_top">
<polygon fill="#ffffff" stroke="transparent" points="399,-232.2 399,-293.2 584,-293.2 584,-232.2 399,-232.2"/>
<polygon fill="#f5f5f5" stroke="transparent" points="399.5,-269.7 399.5,-292.7 584.5,-292.7 584.5,-269.7 399.5,-269.7"/>
<polygon fill="none" stroke="#000000" points="399.5,-269.7 399.5,-292.7 584.5,-292.7 584.5,-269.7 399.5,-269.7"/>
<text text-anchor="start" x="404.2976" y="-278.8" font-family="Helvetica,sans-Serif" font-weight="bold" font-size="11.00" fill="#000000">resource_server_perm_ticket</text>
<text text-anchor="start" x="550.0219" y="-277.8" font-family="Helvetica,sans-Serif" font-size="11.00" fill="#000000">[table]</text>
<polygon fill="none" stroke="#000000" points="399.5,-250.7 399.5,-269.7 584.5,-269.7 584.5,-250.7 399.5,-250.7"/>
<text text-anchor="start" x="402.5" y="-256.8" font-family="Helvetica,sans-Serif" font-size="11.00" fill="#000000">...</text>
<polygon fill="#ffffff" stroke="transparent" points="399.5,-231.7 399.5,-250.7 477.5,-250.7 477.5,-231.7 399.5,-231.7"/>
<polygon fill="none" stroke="#000000" points="399.5,-231.7 399.5,-250.7 477.5,-250.7 477.5,-231.7 399.5,-231.7"/>
<text text-anchor="start" x="402.5" y="-237.8" font-family="Helvetica,sans-Serif" font-size="11.00" fill="#000000">&lt; 4</text>
<polygon fill="#ffffff" stroke="transparent" points="477.5,-231.7 477.5,-250.7 543.5,-250.7 543.5,-231.7 477.5,-231.7"/>
<polygon fill="none" stroke="#000000" points="477.5,-231.7 477.5,-250.7 543.5,-250.7 543.5,-231.7 477.5,-231.7"/>
<text text-anchor="start" x="508.1105" y="-237.8" font-family="Helvetica,sans-Serif" font-size="11.00" fill="#000000">0 rows</text>
<polygon fill="#ffffff" stroke="transparent" points="543.5,-231.7 543.5,-250.7 584.5,-250.7 584.5,-231.7 543.5,-231.7"/>
<polygon fill="none" stroke="#000000" points="543.5,-231.7 543.5,-250.7 584.5,-250.7 584.5,-231.7 543.5,-231.7"/>
<text text-anchor="start" x="575.3862" y="-237.8" font-family="Helvetica,sans-Serif" font-size="11.00" fill="#000000"> &#160;</text>
</a>
</g>
</g>
<!-- resource_server_perm_ticket&#45;&gt;resource_server_resource -->
<g id="edge5" class="edge">
<title>resource_server_perm_ticket:w&#45;&gt;resource_server_resource:e</title>
<path fill="none" stroke="#000000" d="M385.481,-264.0891C363.3859,-282.2667 390.3343,-350.7 350.5,-350.7"/>
<polygon fill="#000000" stroke="#000000" points="391.8654,-262.0903 400.5756,-263.1356 395.6827,-260.8952 399.5,-259.7 399.5,-259.7 399.5,-259.7 395.6827,-260.8952 398.4244,-256.2644 391.8654,-262.0903 391.8654,-262.0903"/>
<ellipse fill="none" stroke="#000000" cx="388.8116" cy="-263.0464" rx="3.2" ry="3.2"/>
</g>
<!-- resource_server_perm_ticket&#45;&gt;resource_server_scope -->
<g id="edge7" class="edge">
<title>resource_server_perm_ticket:w&#45;&gt;resource_server_scope:e</title>
<path fill="none" stroke="#000000" d="M385.3823,-256.1399C355.8015,-237.5738 391.3041,-152.7 343.5,-152.7"/>
<polygon fill="#000000" stroke="#000000" points="391.7428,-257.7438 398.6197,-263.1907 395.6214,-258.7219 399.5,-259.7 399.5,-259.7 399.5,-259.7 395.6214,-258.7219 400.3803,-256.2093 391.7428,-257.7438 391.7428,-257.7438"/>
<ellipse fill="none" stroke="#000000" cx="388.64" cy="-256.9614" rx="3.2" ry="3.2"/>
</g>
<!-- resource_server_perm_ticket&#45;&gt;resource_server -->
<g id="edge6" class="edge">
<title>resource_server_perm_ticket:w&#45;&gt;resource_server:e</title>
<path fill="none" stroke="#000000" d="M385.4744,-255.1313C376.1818,-247.4338 374.301,-232.095 358,-225.7 263.4885,-188.6226 231.5242,-211.7 130,-211.7"/>
<polygon fill="#000000" stroke="#000000" points="391.8934,-257.2222 398.385,-263.123 395.6967,-258.4611 399.5,-259.7 399.5,-259.7 399.5,-259.7 395.6967,-258.4611 400.615,-256.277 391.8934,-257.2222 391.8934,-257.2222"/>
<ellipse fill="none" stroke="#000000" cx="388.8507" cy="-256.231" rx="3.2" ry="3.2"/>
</g>
<!-- resource_uris -->
<g id="node8" class="node">
<title>resource_uris</title>
<g id="a_node8"><a xlink:href="../../tables/resource_uris.html" xlink:title="resource_uris" target="_top">
<polygon fill="#ffffff" stroke="transparent" points="437,-314.2 437,-375.2 546,-375.2 546,-314.2 437,-314.2"/>
<polygon fill="#f5f5f5" stroke="transparent" points="437.5,-351.7 437.5,-374.7 546.5,-374.7 546.5,-351.7 437.5,-351.7"/>
<polygon fill="none" stroke="#000000" points="437.5,-351.7 437.5,-374.7 546.5,-374.7 546.5,-351.7 437.5,-351.7"/>
<text text-anchor="start" x="442.192" y="-360.8" font-family="Helvetica,sans-Serif" font-weight="bold" font-size="11.00" fill="#000000">resource_uris</text>
<text text-anchor="start" x="512.0219" y="-359.8" font-family="Helvetica,sans-Serif" font-size="11.00" fill="#000000">[table]</text>
<polygon fill="none" stroke="#000000" points="437.5,-332.7 437.5,-351.7 546.5,-351.7 546.5,-332.7 437.5,-332.7"/>
<text text-anchor="start" x="440.5" y="-338.8" font-family="Helvetica,sans-Serif" font-size="11.00" fill="#000000">...</text>
<polygon fill="#ffffff" stroke="transparent" points="437.5,-313.7 437.5,-332.7 477.5,-332.7 477.5,-313.7 437.5,-313.7"/>
<polygon fill="none" stroke="#000000" points="437.5,-313.7 437.5,-332.7 477.5,-332.7 477.5,-313.7 437.5,-313.7"/>
<text text-anchor="start" x="440.5" y="-319.8" font-family="Helvetica,sans-Serif" font-size="11.00" fill="#000000">&lt; 1</text>
<polygon fill="#ffffff" stroke="transparent" points="477.5,-313.7 477.5,-332.7 524.5,-332.7 524.5,-313.7 477.5,-313.7"/>
<polygon fill="none" stroke="#000000" points="477.5,-313.7 477.5,-332.7 524.5,-332.7 524.5,-313.7 477.5,-313.7"/>
<text text-anchor="start" x="489.1105" y="-319.8" font-family="Helvetica,sans-Serif" font-size="11.00" fill="#000000">0 rows</text>
<polygon fill="#ffffff" stroke="transparent" points="524.5,-313.7 524.5,-332.7 546.5,-332.7 546.5,-313.7 524.5,-313.7"/>
<polygon fill="none" stroke="#000000" points="524.5,-313.7 524.5,-332.7 546.5,-332.7 546.5,-313.7 524.5,-313.7"/>
<text text-anchor="start" x="537.3862" y="-319.8" font-family="Helvetica,sans-Serif" font-size="11.00" fill="#000000"> &#160;</text>
</a>
</g>
</g>
<!-- resource_uris&#45;&gt;resource_server_resource -->
<g id="edge10" class="edge">
<title>resource_uris:w&#45;&gt;resource_server_resource:e</title>
<path fill="none" stroke="#000000" d="M423.0655,-342.1587C395.543,-343.9927 384.0583,-350.7 350.5,-350.7"/>
<polygon fill="#000000" stroke="#000000" points="429.504,-341.9541 437.6144,-345.2982 433.502,-341.8271 437.5,-341.7 437.5,-341.7 437.5,-341.7 433.502,-341.8271 437.3856,-338.1018 429.504,-341.9541 429.504,-341.9541"/>
<ellipse fill="none" stroke="#000000" cx="426.3057" cy="-342.0558" rx="3.2" ry="3.2"/>
</g>
<!-- scope_policy -->
<g id="node9" class="node">
<title>scope_policy</title>
<g id="a_node9"><a xlink:href="../../tables/scope_policy.html" xlink:title="scope_policy" target="_top">
<polygon fill="#ffffff" stroke="transparent" points="438.5,-38.2 438.5,-99.2 544.5,-99.2 544.5,-38.2 438.5,-38.2"/>
<polygon fill="#f5f5f5" stroke="transparent" points="438.5,-75.7 438.5,-98.7 544.5,-98.7 544.5,-75.7 438.5,-75.7"/>
<polygon fill="none" stroke="#000000" points="438.5,-75.7 438.5,-98.7 544.5,-98.7 544.5,-75.7 438.5,-75.7"/>
<text text-anchor="start" x="443.2144" y="-84.8" font-family="Helvetica,sans-Serif" font-weight="bold" font-size="11.00" fill="#000000">scope_policy</text>
<text text-anchor="start" x="510.0219" y="-83.8" font-family="Helvetica,sans-Serif" font-size="11.00" fill="#000000">[table]</text>
<polygon fill="none" stroke="#000000" points="438.5,-56.7 438.5,-75.7 544.5,-75.7 544.5,-56.7 438.5,-56.7"/>
<text text-anchor="start" x="441.5" y="-62.8" font-family="Helvetica,sans-Serif" font-size="11.00" fill="#000000">...</text>
<polygon fill="#ffffff" stroke="transparent" points="438.5,-37.7 438.5,-56.7 476.5,-56.7 476.5,-37.7 438.5,-37.7"/>
<polygon fill="none" stroke="#000000" points="438.5,-37.7 438.5,-56.7 476.5,-56.7 476.5,-37.7 438.5,-37.7"/>
<text text-anchor="start" x="441.5" y="-43.8" font-family="Helvetica,sans-Serif" font-size="11.00" fill="#000000">&lt; 2</text>
<polygon fill="#ffffff" stroke="transparent" points="476.5,-37.7 476.5,-56.7 523.5,-56.7 523.5,-37.7 476.5,-37.7"/>
<polygon fill="none" stroke="#000000" points="476.5,-37.7 476.5,-56.7 523.5,-56.7 523.5,-37.7 476.5,-37.7"/>
<text text-anchor="start" x="488.1105" y="-43.8" font-family="Helvetica,sans-Serif" font-size="11.00" fill="#000000">0 rows</text>
<polygon fill="#ffffff" stroke="transparent" points="523.5,-37.7 523.5,-56.7 544.5,-56.7 544.5,-37.7 523.5,-37.7"/>
<polygon fill="none" stroke="#000000" points="523.5,-37.7 523.5,-56.7 544.5,-56.7 544.5,-37.7 523.5,-37.7"/>
<text text-anchor="start" x="535.3862" y="-43.8" font-family="Helvetica,sans-Serif" font-size="11.00" fill="#000000"> &#160;</text>
</a>
</g>
</g>
<!-- scope_policy&#45;&gt;resource_server_scope -->
<g id="edge11" class="edge">
<title>scope_policy:w&#45;&gt;resource_server_scope:e</title>
<path fill="none" stroke="#000000" d="M424.0368,-67.938C384.278,-81.5555 395.2731,-152.7 343.5,-152.7"/>
<polygon fill="#000000" stroke="#000000" points="430.5941,-66.9234 439.0505,-69.2577 434.547,-66.3117 438.5,-65.7 438.5,-65.7 438.5,-65.7 434.547,-66.3117 437.9495,-62.1423 430.5941,-66.9234 430.5941,-66.9234"/>
<ellipse fill="none" stroke="#000000" cx="427.4317" cy="-67.4127" rx="3.2" ry="3.2"/>
</g>
</g>
</svg>
