<?xml version="1.0" encoding="UTF-8" standalone="no"?>
<!DOCTYPE svg PUBLIC "-//W3C//DTD SVG 1.1//EN"
 "http://www.w3.org/Graphics/SVG/1.1/DTD/svg11.dtd">
<!-- Generated by graphviz version 2.40.1 (20161225.0304)
 -->
<!-- Title: twoDegreesRelationshipsDiagram Pages: 1 -->
<svg width="600pt" height="469pt"
 viewBox="0.00 0.00 600.00 469.20" xmlns="http://www.w3.org/2000/svg" xmlns:xlink="http://www.w3.org/1999/xlink">
<g id="graph0" class="graph" transform="scale(1 1) rotate(0) translate(4 465.2)">
<title>twoDegreesRelationshipsDiagram</title>
<polygon fill="#ffffff" stroke="transparent" points="-4,4 -4,-465.2 596,-465.2 596,4 -4,4"/>
<text text-anchor="middle" x="72.4936" y="-7.3" font-family="Helvetica,sans-Serif" font-size="11.00" fill="#000000">Generated by SchemaSpy</text>
<!-- resource_attribute -->
<g id="node1" class="node">
<title>resource_attribute</title>
<g id="a_node1"><a xlink:href="../../tables/resource_attribute.html" xlink:title="resource_attribute" target="_top">
<polygon fill="#ffffff" stroke="transparent" points="426,-396.2 426,-457.2 557,-457.2 557,-396.2 426,-396.2"/>
<polygon fill="#f5f5f5" stroke="transparent" points="426.5,-433.7 426.5,-456.7 557.5,-456.7 557.5,-433.7 426.5,-433.7"/>
<polygon fill="none" stroke="#000000" points="426.5,-433.7 426.5,-456.7 557.5,-456.7 557.5,-433.7 426.5,-433.7"/>
<text text-anchor="start" x="431.1843" y="-442.8" font-family="Helvetica,sans-Serif" font-weight="bold" font-size="11.00" fill="#000000">resource_attribute</text>
<text text-anchor="start" x="523.0219" y="-441.8" font-family="Helvetica,sans-Serif" font-size="11.00" fill="#000000">[table]</text>
<polygon fill="none" stroke="#000000" points="426.5,-414.7 426.5,-433.7 557.5,-433.7 557.5,-414.7 426.5,-414.7"/>
<text text-anchor="start" x="429.5" y="-420.8" font-family="Helvetica,sans-Serif" font-size="11.00" fill="#000000">...</text>
<polygon fill="#ffffff" stroke="transparent" points="426.5,-395.7 426.5,-414.7 477.5,-414.7 477.5,-395.7 426.5,-395.7"/>
<polygon fill="none" stroke="#000000" points="426.5,-395.7 426.5,-414.7 477.5,-414.7 477.5,-395.7 426.5,-395.7"/>
<text text-anchor="start" x="429.5" y="-401.8" font-family="Helvetica,sans-Serif" font-size="11.00" fill="#000000">&lt; 1</text>
<polygon fill="#ffffff" stroke="transparent" points="477.5,-395.7 477.5,-414.7 530.5,-414.7 530.5,-395.7 477.5,-395.7"/>
<polygon fill="none" stroke="#000000" points="477.5,-395.7 477.5,-414.7 530.5,-414.7 530.5,-395.7 477.5,-395.7"/>
<text text-anchor="start" x="495.1105" y="-401.8" font-family="Helvetica,sans-Serif" font-size="11.00" fill="#000000">0 rows</text>
<polygon fill="#ffffff" stroke="transparent" points="530.5,-395.7 530.5,-414.7 557.5,-414.7 557.5,-395.7 530.5,-395.7"/>
<polygon fill="none" stroke="#000000" points="530.5,-395.7 530.5,-414.7 557.5,-414.7 557.5,-395.7 530.5,-395.7"/>
<text text-anchor="start" x="548.3862" y="-401.8" font-family="Helvetica,sans-Serif" font-size="11.00" fill="#000000"> &#160;</text>
</a>
</g>
</g>
<!-- resource_server_resource -->
<g id="node2" class="node">
<title>resource_server_resource</title>
<g id="a_node2"><a xlink:href="../../tables/resource_server_resource.html" xlink:title="resource_server_resource" target="_top">
<polygon fill="#ffffff" stroke="transparent" points="179,-131.2 179,-280.2 350,-280.2 350,-131.2 179,-131.2"/>
<polygon fill="#f5f5f5" stroke="transparent" points="179.5,-256.7 179.5,-279.7 350.5,-279.7 350.5,-256.7 179.5,-256.7"/>
<polygon fill="none" stroke="#000000" points="179.5,-256.7 179.5,-279.7 350.5,-279.7 350.5,-256.7 179.5,-256.7"/>
<text text-anchor="start" x="184.3249" y="-265.8" font-family="Helvetica,sans-Serif" font-weight="bold" font-size="11.00" fill="#000000">resource_server_resource</text>
<text text-anchor="start" x="316.0219" y="-264.8" font-family="Helvetica,sans-Serif" font-size="11.00" fill="#000000">[table]</text>
<polygon fill="none" stroke="#000000" points="179.5,-234.7 179.5,-256.7 350.5,-256.7 350.5,-234.7 179.5,-234.7"/>
<image xlink:href="../../images/primaryKeys.png" width="11px" height="12px" preserveAspectRatio="xMinYMin meet" x="184.5" y="-251.7"/>
<text text-anchor="start" x="199.5" y="-241.8" font-family="Helvetica,sans-Serif" font-size="11.00" fill="#000000">id</text>
<polygon fill="#ffffff" stroke="transparent" points="179.5,-212.7 179.5,-234.7 350.5,-234.7 350.5,-212.7 179.5,-212.7"/>
<polygon fill="none" stroke="#000000" points="179.5,-212.7 179.5,-234.7 350.5,-234.7 350.5,-212.7 179.5,-212.7"/>
<text text-anchor="start" x="199.5" y="-219.8" font-family="Helvetica,sans-Serif" font-size="11.00" fill="#000000">name</text>
<polygon fill="#ffffff" stroke="transparent" points="179.5,-190.7 179.5,-212.7 350.5,-212.7 350.5,-190.7 179.5,-190.7"/>
<polygon fill="none" stroke="#000000" points="179.5,-190.7 179.5,-212.7 350.5,-212.7 350.5,-190.7 179.5,-190.7"/>
<text text-anchor="start" x="199.5" y="-197.8" font-family="Helvetica,sans-Serif" font-size="11.00" fill="#000000">owner</text>
<polygon fill="#ffffff" stroke="transparent" points="179.5,-168.7 179.5,-190.7 350.5,-190.7 350.5,-168.7 179.5,-168.7"/>
<polygon fill="none" stroke="#000000" points="179.5,-168.7 179.5,-190.7 350.5,-190.7 350.5,-168.7 179.5,-168.7"/>
<image xlink:href="../../images/foreignKeys.png" width="11px" height="12px" preserveAspectRatio="xMinYMin meet" x="184.5" y="-185.7"/>
<text text-anchor="start" x="199.5" y="-175.8" font-family="Helvetica,sans-Serif" font-size="11.00" fill="#000000">resource_server_id</text>
<polygon fill="none" stroke="#000000" points="179.5,-149.7 179.5,-168.7 350.5,-168.7 350.5,-149.7 179.5,-149.7"/>
<text text-anchor="start" x="182.5" y="-155.8" font-family="Helvetica,sans-Serif" font-size="11.00" fill="#000000">...</text>
<polygon fill="#ffffff" stroke="transparent" points="179.5,-130.7 179.5,-149.7 245.5,-149.7 245.5,-130.7 179.5,-130.7"/>
<polygon fill="none" stroke="#000000" points="179.5,-130.7 179.5,-149.7 245.5,-149.7 245.5,-130.7 179.5,-130.7"/>
<text text-anchor="start" x="182.5" y="-136.8" font-family="Helvetica,sans-Serif" font-size="11.00" fill="#000000">&lt; 1</text>
<polygon fill="#ffffff" stroke="transparent" points="245.5,-130.7 245.5,-149.7 306.5,-149.7 306.5,-130.7 245.5,-130.7"/>
<polygon fill="none" stroke="#000000" points="245.5,-130.7 245.5,-149.7 306.5,-149.7 306.5,-130.7 245.5,-130.7"/>
<text text-anchor="start" x="271.1105" y="-136.8" font-family="Helvetica,sans-Serif" font-size="11.00" fill="#000000">0 rows</text>
<polygon fill="#ffffff" stroke="transparent" points="306.5,-130.7 306.5,-149.7 350.5,-149.7 350.5,-130.7 306.5,-130.7"/>
<polygon fill="none" stroke="#000000" points="306.5,-130.7 306.5,-149.7 350.5,-149.7 350.5,-130.7 306.5,-130.7"/>
<text text-anchor="start" x="331.9053" y="-136.8" font-family="Helvetica,sans-Serif" font-size="11.00" fill="#000000">5 &gt;</text>
</a>
</g>
</g>
<!-- resource_attribute&#45;&gt;resource_server_resource -->
<g id="edge1" class="edge">
<title>resource_attribute:w&#45;&gt;resource_server_resource:e</title>
<path fill="none" stroke="#000000" d="M412.0386,-421.577C352.1036,-401.4941 430.9761,-245.7 350.5,-245.7"/>
<polygon fill="#000000" stroke="#000000" points="418.5848,-422.538 425.9771,-427.2618 422.5424,-423.119 426.5,-423.7 426.5,-423.7 426.5,-423.7 422.5424,-423.119 427.0229,-420.1382 418.5848,-422.538 418.5848,-422.538"/>
<ellipse fill="none" stroke="#000000" cx="415.4188" cy="-422.0731" rx="3.2" ry="3.2"/>
</g>
<!-- resource_server -->
<g id="node6" class="node">
<title>resource_server</title>
<g id="a_node6"><a xlink:href="../../tables/resource_server.html" xlink:title="resource_server" target="_top">
<polygon fill="#ffffff" stroke="transparent" points="8,-101.2 8,-162.2 130,-162.2 130,-101.2 8,-101.2"/>
<polygon fill="#f5f5f5" stroke="transparent" points="8,-138.7 8,-161.7 130,-161.7 130,-138.7 8,-138.7"/>
<polygon fill="none" stroke="#000000" points="8,-138.7 8,-161.7 130,-161.7 130,-138.7 8,-138.7"/>
<text text-anchor="start" x="12.7741" y="-147.8" font-family="Helvetica,sans-Serif" font-weight="bold" font-size="11.00" fill="#000000">resource_server</text>
<text text-anchor="start" x="95.5219" y="-146.8" font-family="Helvetica,sans-Serif" font-size="11.00" fill="#000000">[table]</text>
<polygon fill="none" stroke="#000000" points="8,-119.7 8,-138.7 130,-138.7 130,-119.7 8,-119.7"/>
<text text-anchor="start" x="11" y="-125.8" font-family="Helvetica,sans-Serif" font-size="11.00" fill="#000000">...</text>
<polygon fill="#ffffff" stroke="transparent" points="8,-100.7 8,-119.7 45,-119.7 45,-100.7 8,-100.7"/>
<polygon fill="none" stroke="#000000" points="8,-100.7 8,-119.7 45,-119.7 45,-100.7 8,-100.7"/>
<text text-anchor="start" x="11" y="-106.8" font-family="Helvetica,sans-Serif" font-size="11.00" fill="#000000"> &#160;</text>
<polygon fill="#ffffff" stroke="transparent" points="45,-100.7 45,-119.7 96,-119.7 96,-100.7 45,-100.7"/>
<polygon fill="none" stroke="#000000" points="45,-100.7 45,-119.7 96,-119.7 96,-100.7 45,-100.7"/>
<text text-anchor="start" x="60.6105" y="-106.8" font-family="Helvetica,sans-Serif" font-size="11.00" fill="#000000">0 rows</text>
<polygon fill="#ffffff" stroke="transparent" points="96,-100.7 96,-119.7 130,-119.7 130,-100.7 96,-100.7"/>
<polygon fill="none" stroke="#000000" points="96,-100.7 96,-119.7 130,-119.7 130,-100.7 96,-100.7"/>
<text text-anchor="start" x="111.4053" y="-106.8" font-family="Helvetica,sans-Serif" font-size="11.00" fill="#000000">4 &gt;</text>
</a>
</g>
</g>
<!-- resource_server_resource&#45;&gt;resource_server -->
<g id="edge6" class="edge">
<title>resource_server_resource:w&#45;&gt;resource_server:e</title>
<path fill="none" stroke="#000000" d="M165.4971,-174.6235C151.5276,-161.7236 155.4182,-128.7 130,-128.7"/>
<polygon fill="#000000" stroke="#000000" points="171.979,-176.9733 178.273,-183.0845 175.7395,-178.3367 179.5,-179.7 179.5,-179.7 179.5,-179.7 175.7395,-178.3367 180.727,-176.3155 171.979,-176.9733 171.979,-176.9733"/>
<ellipse fill="none" stroke="#000000" cx="168.9706" cy="-175.8827" rx="3.2" ry="3.2"/>
</g>
<!-- resource_policy -->
<g id="node3" class="node">
<title>resource_policy</title>
<g id="a_node3"><a xlink:href="../../tables/resource_policy.html" xlink:title="resource_policy" target="_top">
<polygon fill="#ffffff" stroke="transparent" points="431.5,-314.2 431.5,-375.2 551.5,-375.2 551.5,-314.2 431.5,-314.2"/>
<polygon fill="#f5f5f5" stroke="transparent" points="431.5,-351.7 431.5,-374.7 551.5,-374.7 551.5,-351.7 431.5,-351.7"/>
<polygon fill="none" stroke="#000000" points="431.5,-351.7 431.5,-374.7 551.5,-374.7 551.5,-351.7 431.5,-351.7"/>
<text text-anchor="start" x="436.4951" y="-360.8" font-family="Helvetica,sans-Serif" font-weight="bold" font-size="11.00" fill="#000000">resource_policy</text>
<text text-anchor="start" x="517.0219" y="-359.8" font-family="Helvetica,sans-Serif" font-size="11.00" fill="#000000">[table]</text>
<polygon fill="none" stroke="#000000" points="431.5,-332.7 431.5,-351.7 551.5,-351.7 551.5,-332.7 431.5,-332.7"/>
<text text-anchor="start" x="434.5" y="-338.8" font-family="Helvetica,sans-Serif" font-size="11.00" fill="#000000">...</text>
<polygon fill="#ffffff" stroke="transparent" points="431.5,-313.7 431.5,-332.7 476.5,-332.7 476.5,-313.7 431.5,-313.7"/>
<polygon fill="none" stroke="#000000" points="431.5,-313.7 431.5,-332.7 476.5,-332.7 476.5,-313.7 431.5,-313.7"/>
<text text-anchor="start" x="434.5" y="-319.8" font-family="Helvetica,sans-Serif" font-size="11.00" fill="#000000">&lt; 2</text>
<polygon fill="#ffffff" stroke="transparent" points="476.5,-313.7 476.5,-332.7 526.5,-332.7 526.5,-313.7 476.5,-313.7"/>
<polygon fill="none" stroke="#000000" points="476.5,-313.7 476.5,-332.7 526.5,-332.7 526.5,-313.7 476.5,-313.7"/>
<text text-anchor="start" x="491.1105" y="-319.8" font-family="Helvetica,sans-Serif" font-size="11.00" fill="#000000">0 rows</text>
<polygon fill="#ffffff" stroke="transparent" points="526.5,-313.7 526.5,-332.7 551.5,-332.7 551.5,-313.7 526.5,-313.7"/>
<polygon fill="none" stroke="#000000" points="526.5,-313.7 526.5,-332.7 551.5,-332.7 551.5,-313.7 526.5,-313.7"/>
<text text-anchor="start" x="542.3862" y="-319.8" font-family="Helvetica,sans-Serif" font-size="11.00" fill="#000000"> &#160;</text>
</a>
</g>
</g>
<!-- resource_policy&#45;&gt;resource_server_resource -->
<g id="edge2" class="edge">
<title>resource_policy:w&#45;&gt;resource_server_resource:e</title>
<path fill="none" stroke="#000000" d="M417.3791,-338.5817C406.0126,-332.3734 403.2406,-317.8435 391,-303.7 370.4252,-279.9267 381.9403,-245.7 350.5,-245.7"/>
<polygon fill="#000000" stroke="#000000" points="423.6882,-339.9749 430.7237,-345.2153 427.5941,-340.8374 431.5,-341.7 431.5,-341.7 431.5,-341.7 427.5941,-340.8374 432.2763,-338.1847 423.6882,-339.9749 423.6882,-339.9749"/>
<ellipse fill="none" stroke="#000000" cx="420.5635" cy="-339.2848" rx="3.2" ry="3.2"/>
</g>
<!-- resource_scope -->
<g id="node4" class="node">
<title>resource_scope</title>
<g id="a_node4"><a xlink:href="../../tables/resource_scope.html" xlink:title="resource_scope" target="_top">
<polygon fill="#ffffff" stroke="transparent" points="431,-232.2 431,-293.2 552,-293.2 552,-232.2 431,-232.2"/>
<polygon fill="#f5f5f5" stroke="transparent" points="431.5,-269.7 431.5,-292.7 552.5,-292.7 552.5,-269.7 431.5,-269.7"/>
<polygon fill="none" stroke="#000000" points="431.5,-269.7 431.5,-292.7 552.5,-292.7 552.5,-269.7 431.5,-269.7"/>
<text text-anchor="start" x="436.3785" y="-278.8" font-family="Helvetica,sans-Serif" font-weight="bold" font-size="11.00" fill="#000000">resource_scope</text>
<text text-anchor="start" x="518.0219" y="-277.8" font-family="Helvetica,sans-Serif" font-size="11.00" fill="#000000">[table]</text>
<polygon fill="none" stroke="#000000" points="431.5,-250.7 431.5,-269.7 552.5,-269.7 552.5,-250.7 431.5,-250.7"/>
<text text-anchor="start" x="434.5" y="-256.8" font-family="Helvetica,sans-Serif" font-size="11.00" fill="#000000">...</text>
<polygon fill="#ffffff" stroke="transparent" points="431.5,-231.7 431.5,-250.7 477.5,-250.7 477.5,-231.7 431.5,-231.7"/>
<polygon fill="none" stroke="#000000" points="431.5,-231.7 431.5,-250.7 477.5,-250.7 477.5,-231.7 431.5,-231.7"/>
<text text-anchor="start" x="434.5" y="-237.8" font-family="Helvetica,sans-Serif" font-size="11.00" fill="#000000">&lt; 2</text>
<polygon fill="#ffffff" stroke="transparent" points="477.5,-231.7 477.5,-250.7 527.5,-250.7 527.5,-231.7 477.5,-231.7"/>
<polygon fill="none" stroke="#000000" points="477.5,-231.7 477.5,-250.7 527.5,-250.7 527.5,-231.7 477.5,-231.7"/>
<text text-anchor="start" x="492.1105" y="-237.8" font-family="Helvetica,sans-Serif" font-size="11.00" fill="#000000">0 rows</text>
<polygon fill="#ffffff" stroke="transparent" points="527.5,-231.7 527.5,-250.7 552.5,-250.7 552.5,-231.7 527.5,-231.7"/>
<polygon fill="none" stroke="#000000" points="527.5,-231.7 527.5,-250.7 552.5,-250.7 552.5,-231.7 527.5,-231.7"/>
<text text-anchor="start" x="543.3862" y="-237.8" font-family="Helvetica,sans-Serif" font-size="11.00" fill="#000000"> &#160;</text>
</a>
</g>
</g>
<!-- resource_scope&#45;&gt;resource_server_resource -->
<g id="edge3" class="edge">
<title>resource_scope:w&#45;&gt;resource_server_resource:e</title>
<path fill="none" stroke="#000000" d="M416.9345,-258.8662C391.9811,-255.8522 381.6108,-245.7 350.5,-245.7"/>
<polygon fill="#000000" stroke="#000000" points="423.5131,-259.2427 431.2942,-263.2941 427.5065,-259.4714 431.5,-259.7 431.5,-259.7 431.5,-259.7 427.5065,-259.4714 431.7058,-256.1059 423.5131,-259.2427 423.5131,-259.2427"/>
<ellipse fill="none" stroke="#000000" cx="420.3183" cy="-259.0598" rx="3.2" ry="3.2"/>
</g>
<!-- resource_server_perm_ticket -->
<g id="node5" class="node">
<title>resource_server_perm_ticket</title>
<g id="a_node5"><a xlink:href="../../tables/resource_server_perm_ticket.html" xlink:title="resource_server_perm_ticket" target="_top">
<polygon fill="#ffffff" stroke="transparent" points="399,-38.2 399,-99.2 584,-99.2 584,-38.2 399,-38.2"/>
<polygon fill="#f5f5f5" stroke="transparent" points="399.5,-75.7 399.5,-98.7 584.5,-98.7 584.5,-75.7 399.5,-75.7"/>
<polygon fill="none" stroke="#000000" points="399.5,-75.7 399.5,-98.7 584.5,-98.7 584.5,-75.7 399.5,-75.7"/>
<text text-anchor="start" x="404.2976" y="-84.8" font-family="Helvetica,sans-Serif" font-weight="bold" font-size="11.00" fill="#000000">resource_server_perm_ticket</text>
<text text-anchor="start" x="550.0219" y="-83.8" font-family="Helvetica,sans-Serif" font-size="11.00" fill="#000000">[table]</text>
<polygon fill="none" stroke="#000000" points="399.5,-56.7 399.5,-75.7 584.5,-75.7 584.5,-56.7 399.5,-56.7"/>
<text text-anchor="start" x="402.5" y="-62.8" font-family="Helvetica,sans-Serif" font-size="11.00" fill="#000000">...</text>
<polygon fill="#ffffff" stroke="transparent" points="399.5,-37.7 399.5,-56.7 477.5,-56.7 477.5,-37.7 399.5,-37.7"/>
<polygon fill="none" stroke="#000000" points="399.5,-37.7 399.5,-56.7 477.5,-56.7 477.5,-37.7 399.5,-37.7"/>
<text text-anchor="start" x="402.5" y="-43.8" font-family="Helvetica,sans-Serif" font-size="11.00" fill="#000000">&lt; 4</text>
<polygon fill="#ffffff" stroke="transparent" points="477.5,-37.7 477.5,-56.7 543.5,-56.7 543.5,-37.7 477.5,-37.7"/>
<polygon fill="none" stroke="#000000" points="477.5,-37.7 477.5,-56.7 543.5,-56.7 543.5,-37.7 477.5,-37.7"/>
<text text-anchor="start" x="508.1105" y="-43.8" font-family="Helvetica,sans-Serif" font-size="11.00" fill="#000000">0 rows</text>
<polygon fill="#ffffff" stroke="transparent" points="543.5,-37.7 543.5,-56.7 584.5,-56.7 584.5,-37.7 543.5,-37.7"/>
<polygon fill="none" stroke="#000000" points="543.5,-37.7 543.5,-56.7 584.5,-56.7 584.5,-37.7 543.5,-37.7"/>
<text text-anchor="start" x="575.3862" y="-43.8" font-family="Helvetica,sans-Serif" font-size="11.00" fill="#000000"> &#160;</text>
</a>
</g>
</g>
<!-- resource_server_perm_ticket&#45;&gt;resource_server_resource -->
<g id="edge4" class="edge">
<title>resource_server_perm_ticket:w&#45;&gt;resource_server_resource:e</title>
<path fill="none" stroke="#000000" d="M385.1692,-68.1084C331.6272,-89.4682 427.7435,-245.7 350.5,-245.7"/>
<polygon fill="#000000" stroke="#000000" points="391.6106,-67.0259 400.0967,-69.2502 395.5553,-66.363 399.5,-65.7 399.5,-65.7 399.5,-65.7 395.5553,-66.363 398.9033,-62.1498 391.6106,-67.0259 391.6106,-67.0259"/>
<ellipse fill="none" stroke="#000000" cx="388.4549" cy="-67.5563" rx="3.2" ry="3.2"/>
</g>
<!-- resource_server_perm_ticket&#45;&gt;resource_server -->
<g id="edge5" class="edge">
<title>resource_server_perm_ticket:w&#45;&gt;resource_server:e</title>
<path fill="none" stroke="#000000" d="M385.2479,-68.1697C330.4056,-79.8175 143.544,-128.7 130,-128.7"/>
<polygon fill="#000000" stroke="#000000" points="391.6175,-67.066 400.1147,-69.2471 395.5587,-66.383 399.5,-65.7 399.5,-65.7 399.5,-65.7 395.5587,-66.383 398.8853,-62.1529 391.6175,-67.066 391.6175,-67.066"/>
<ellipse fill="none" stroke="#000000" cx="388.4645" cy="-67.6124" rx="3.2" ry="3.2"/>
</g>
<!-- resource_uris -->
<g id="node7" class="node">
<title>resource_uris</title>
<g id="a_node7"><a xlink:href="../../tables/resource_uris.html" xlink:title="resource_uris" target="_top">
<polygon fill="#ffffff" stroke="transparent" points="406,-120.7 406,-210.7 577,-210.7 577,-120.7 406,-120.7"/>
<polygon fill="#f5f5f5" stroke="transparent" points="408.5,-185.7 408.5,-208.7 575.5,-208.7 575.5,-185.7 408.5,-185.7"/>
<polygon fill="none" stroke="#000000" points="408.5,-185.7 408.5,-208.7 575.5,-208.7 575.5,-185.7 408.5,-185.7"/>
<text text-anchor="start" x="413.5" y="-194.8" font-family="Helvetica,sans-Serif" font-weight="bold" font-size="11.00" fill="#000000">resource_uris</text>
<text text-anchor="start" x="540.5437" y="-193.8" font-family="Helvetica,sans-Serif" font-size="11.00" fill="#000000">[table]</text>
<polygon fill="none" stroke="#000000" points="408.5,-163.7 408.5,-185.7 508.5,-185.7 508.5,-163.7 408.5,-163.7"/>
<image xlink:href="../../images/primaryKeys.png" width="11px" height="12px" preserveAspectRatio="xMinYMin meet" x="413.5" y="-180.7"/>
<text text-anchor="start" x="428.5" y="-170.8" font-family="Helvetica,sans-Serif" font-size="11.00" fill="#000000">resource_id</text>
<polygon fill="none" stroke="#000000" points="508.5,-163.7 508.5,-185.7 575.5,-185.7 575.5,-163.7 508.5,-163.7"/>
<text text-anchor="start" x="511.5" y="-171.4" font-family="Helvetica,sans-Serif" font-size="11.00" fill="#000000">varchar[36]</text>
<polygon fill="none" stroke="#000000" points="408.5,-141.7 408.5,-163.7 508.5,-163.7 508.5,-141.7 408.5,-141.7"/>
<image xlink:href="../../images/primaryKeys.png" width="11px" height="12px" preserveAspectRatio="xMinYMin meet" x="413.5" y="-158.7"/>
<text text-anchor="start" x="428.5" y="-148.8" font-family="Helvetica,sans-Serif" font-size="11.00" fill="#000000">value</text>
<polygon fill="none" stroke="#000000" points="508.5,-141.7 508.5,-163.7 575.5,-163.7 575.5,-141.7 508.5,-141.7"/>
<text text-anchor="start" x="511.4365" y="-149.4" font-family="Helvetica,sans-Serif" font-size="11.00" fill="#000000">varchar[255]</text>
<polygon fill="#ffffff" stroke="transparent" points="408.5,-122.7 408.5,-141.7 449.5,-141.7 449.5,-122.7 408.5,-122.7"/>
<polygon fill="none" stroke="#000000" points="408.5,-122.7 408.5,-141.7 449.5,-141.7 449.5,-122.7 408.5,-122.7"/>
<text text-anchor="start" x="411.5" y="-128.8" font-family="Helvetica,sans-Serif" font-size="11.00" fill="#000000">&lt; 1</text>
<polygon fill="#ffffff" stroke="transparent" points="449.5,-122.7 449.5,-141.7 508.5,-141.7 508.5,-122.7 449.5,-122.7"/>
<polygon fill="none" stroke="#000000" points="449.5,-122.7 449.5,-141.7 508.5,-141.7 508.5,-122.7 449.5,-122.7"/>
<text text-anchor="start" x="473.1105" y="-128.8" font-family="Helvetica,sans-Serif" font-size="11.00" fill="#000000">0 rows</text>
<polygon fill="#ffffff" stroke="transparent" points="508.5,-122.7 508.5,-141.7 575.5,-141.7 575.5,-122.7 508.5,-122.7"/>
<polygon fill="none" stroke="#000000" points="508.5,-122.7 508.5,-141.7 575.5,-141.7 575.5,-122.7 508.5,-122.7"/>
<text text-anchor="start" x="556.9053" y="-128.8" font-family="Helvetica,sans-Serif" font-size="11.00" fill="#000000">0 &gt;</text>
<polygon fill="none" stroke="#000000" stroke-width="2" points="407,-121.7 407,-209.7 576,-209.7 576,-121.7 407,-121.7"/>
</a>
</g>
</g>
<!-- resource_uris&#45;&gt;resource_server_resource -->
<g id="edge7" class="edge">
<title>resource_uris:w&#45;&gt;resource_server_resource:e</title>
<path fill="none" stroke="#000000" d="M394.4705,-178.7207C373.2027,-193.7403 385.357,-245.7 350.5,-245.7"/>
<polygon fill="#000000" stroke="#000000" points="400.8096,-176.904 409.4918,-178.1607 404.6548,-175.802 408.5,-174.7 408.5,-174.7 408.5,-174.7 404.6548,-175.802 407.5082,-171.2393 400.8096,-176.904 400.8096,-176.904"/>
<ellipse fill="none" stroke="#000000" cx="397.7334" cy="-177.7856" rx="3.2" ry="3.2"/>
</g>
</g>
</svg>
