<?xml version="1.0" encoding="UTF-8" standalone="no"?>
<!DOCTYPE svg PUBLIC "-//W3C//DTD SVG 1.1//EN"
 "http://www.w3.org/Graphics/SVG/1.1/DTD/svg11.dtd">
<!-- Generated by graphviz version 2.40.1 (20161225.0304)
 -->
<!-- Title: oneDegreeRelationshipsDiagram Pages: 1 -->
<svg width="422pt" height="347pt"
 viewBox="0.00 0.00 422.00 347.20" xmlns="http://www.w3.org/2000/svg" xmlns:xlink="http://www.w3.org/1999/xlink">
<g id="graph0" class="graph" transform="scale(1 1) rotate(0) translate(4 343.2)">
<title>oneDegreeRelationshipsDiagram</title>
<polygon fill="#ffffff" stroke="transparent" points="-4,4 -4,-343.2 418,-343.2 418,4 -4,4"/>
<text text-anchor="middle" x="72.4936" y="-7.3" font-family="Helvetica,sans-Serif" font-size="11.00" fill="#000000">Generated by SchemaSpy</text>
<!-- resource_scope -->
<g id="node1" class="node">
<title>resource_scope</title>
<g id="a_node1"><a xlink:href="../../tables/resource_scope.html" xlink:title="resource_scope" target="_top">
<polygon fill="#ffffff" stroke="transparent" points="228,-172.7 228,-262.7 406,-262.7 406,-172.7 228,-172.7"/>
<polygon fill="#f5f5f5" stroke="transparent" points="230,-237.7 230,-260.7 404,-260.7 404,-237.7 230,-237.7"/>
<polygon fill="none" stroke="#000000" points="230,-237.7 230,-260.7 404,-260.7 404,-237.7 230,-237.7"/>
<text text-anchor="start" x="235" y="-246.8" font-family="Helvetica,sans-Serif" font-weight="bold" font-size="11.00" fill="#000000">resource_scope</text>
<text text-anchor="start" x="369.0437" y="-245.8" font-family="Helvetica,sans-Serif" font-size="11.00" fill="#000000">[table]</text>
<polygon fill="none" stroke="#000000" points="230,-215.7 230,-237.7 343,-237.7 343,-215.7 230,-215.7"/>
<image xlink:href="../../images/primaryKeys.png" width="11px" height="12px" preserveAspectRatio="xMinYMin meet" x="235" y="-232.7"/>
<text text-anchor="start" x="250" y="-222.8" font-family="Helvetica,sans-Serif" font-size="11.00" fill="#000000">resource_id</text>
<polygon fill="none" stroke="#000000" points="343,-215.7 343,-237.7 404,-237.7 404,-215.7 343,-215.7"/>
<text text-anchor="start" x="345.994" y="-223.4" font-family="Helvetica,sans-Serif" font-size="11.00" fill="#000000">varchar[36]</text>
<polygon fill="none" stroke="#000000" points="230,-193.7 230,-215.7 343,-215.7 343,-193.7 230,-193.7"/>
<image xlink:href="../../images/primaryKeys.png" width="11px" height="12px" preserveAspectRatio="xMinYMin meet" x="235" y="-210.7"/>
<text text-anchor="start" x="250" y="-200.8" font-family="Helvetica,sans-Serif" font-size="11.00" fill="#000000">scope_id</text>
<polygon fill="none" stroke="#000000" points="343,-193.7 343,-215.7 404,-215.7 404,-193.7 343,-193.7"/>
<text text-anchor="start" x="345.994" y="-201.4" font-family="Helvetica,sans-Serif" font-size="11.00" fill="#000000">varchar[36]</text>
<polygon fill="#ffffff" stroke="transparent" points="230,-174.7 230,-193.7 278,-193.7 278,-174.7 230,-174.7"/>
<polygon fill="none" stroke="#000000" points="230,-174.7 230,-193.7 278,-193.7 278,-174.7 230,-174.7"/>
<text text-anchor="start" x="233" y="-180.8" font-family="Helvetica,sans-Serif" font-size="11.00" fill="#000000">&lt; 2</text>
<polygon fill="#ffffff" stroke="transparent" points="278,-174.7 278,-193.7 343,-193.7 343,-174.7 278,-174.7"/>
<polygon fill="none" stroke="#000000" points="278,-174.7 278,-193.7 343,-193.7 343,-174.7 278,-174.7"/>
<text text-anchor="start" x="307.6105" y="-180.8" font-family="Helvetica,sans-Serif" font-size="11.00" fill="#000000">0 rows</text>
<polygon fill="#ffffff" stroke="transparent" points="343,-174.7 343,-193.7 404,-193.7 404,-174.7 343,-174.7"/>
<polygon fill="none" stroke="#000000" points="343,-174.7 343,-193.7 404,-193.7 404,-174.7 343,-174.7"/>
<text text-anchor="start" x="385.4053" y="-180.8" font-family="Helvetica,sans-Serif" font-size="11.00" fill="#000000">0 &gt;</text>
<polygon fill="none" stroke="#000000" stroke-width="2" points="229,-173.7 229,-261.7 405,-261.7 405,-173.7 229,-173.7"/>
</a>
</g>
</g>
<!-- resource_server_resource -->
<g id="node2" class="node">
<title>resource_server_resource</title>
<g id="a_node2"><a xlink:href="../../tables/resource_server_resource.html" xlink:title="resource_server_resource" target="_top">
<polygon fill="#ffffff" stroke="transparent" points="8,-186.2 8,-335.2 179,-335.2 179,-186.2 8,-186.2"/>
<polygon fill="#f5f5f5" stroke="transparent" points="8.5,-311.7 8.5,-334.7 179.5,-334.7 179.5,-311.7 8.5,-311.7"/>
<polygon fill="none" stroke="#000000" points="8.5,-311.7 8.5,-334.7 179.5,-334.7 179.5,-311.7 8.5,-311.7"/>
<text text-anchor="start" x="13.3249" y="-320.8" font-family="Helvetica,sans-Serif" font-weight="bold" font-size="11.00" fill="#000000">resource_server_resource</text>
<text text-anchor="start" x="145.0219" y="-319.8" font-family="Helvetica,sans-Serif" font-size="11.00" fill="#000000">[table]</text>
<polygon fill="none" stroke="#000000" points="8.5,-289.7 8.5,-311.7 179.5,-311.7 179.5,-289.7 8.5,-289.7"/>
<image xlink:href="../../images/primaryKeys.png" width="11px" height="12px" preserveAspectRatio="xMinYMin meet" x="13.5" y="-306.7"/>
<text text-anchor="start" x="28.5" y="-296.8" font-family="Helvetica,sans-Serif" font-size="11.00" fill="#000000">id</text>
<polygon fill="#ffffff" stroke="transparent" points="8.5,-267.7 8.5,-289.7 179.5,-289.7 179.5,-267.7 8.5,-267.7"/>
<polygon fill="none" stroke="#000000" points="8.5,-267.7 8.5,-289.7 179.5,-289.7 179.5,-267.7 8.5,-267.7"/>
<text text-anchor="start" x="28.5" y="-274.8" font-family="Helvetica,sans-Serif" font-size="11.00" fill="#000000">name</text>
<polygon fill="#ffffff" stroke="transparent" points="8.5,-245.7 8.5,-267.7 179.5,-267.7 179.5,-245.7 8.5,-245.7"/>
<polygon fill="none" stroke="#000000" points="8.5,-245.7 8.5,-267.7 179.5,-267.7 179.5,-245.7 8.5,-245.7"/>
<text text-anchor="start" x="28.5" y="-252.8" font-family="Helvetica,sans-Serif" font-size="11.00" fill="#000000">owner</text>
<polygon fill="#ffffff" stroke="transparent" points="8.5,-223.7 8.5,-245.7 179.5,-245.7 179.5,-223.7 8.5,-223.7"/>
<polygon fill="none" stroke="#000000" points="8.5,-223.7 8.5,-245.7 179.5,-245.7 179.5,-223.7 8.5,-223.7"/>
<image xlink:href="../../images/foreignKeys.png" width="11px" height="12px" preserveAspectRatio="xMinYMin meet" x="13.5" y="-240.7"/>
<text text-anchor="start" x="28.5" y="-230.8" font-family="Helvetica,sans-Serif" font-size="11.00" fill="#000000">resource_server_id</text>
<polygon fill="none" stroke="#000000" points="8.5,-204.7 8.5,-223.7 179.5,-223.7 179.5,-204.7 8.5,-204.7"/>
<text text-anchor="start" x="11.5" y="-210.8" font-family="Helvetica,sans-Serif" font-size="11.00" fill="#000000">...</text>
<polygon fill="#ffffff" stroke="transparent" points="8.5,-185.7 8.5,-204.7 74.5,-204.7 74.5,-185.7 8.5,-185.7"/>
<polygon fill="none" stroke="#000000" points="8.5,-185.7 8.5,-204.7 74.5,-204.7 74.5,-185.7 8.5,-185.7"/>
<text text-anchor="start" x="11.5" y="-191.8" font-family="Helvetica,sans-Serif" font-size="11.00" fill="#000000">&lt; 1</text>
<polygon fill="#ffffff" stroke="transparent" points="74.5,-185.7 74.5,-204.7 135.5,-204.7 135.5,-185.7 74.5,-185.7"/>
<polygon fill="none" stroke="#000000" points="74.5,-185.7 74.5,-204.7 135.5,-204.7 135.5,-185.7 74.5,-185.7"/>
<text text-anchor="start" x="100.1105" y="-191.8" font-family="Helvetica,sans-Serif" font-size="11.00" fill="#000000">0 rows</text>
<polygon fill="#ffffff" stroke="transparent" points="135.5,-185.7 135.5,-204.7 179.5,-204.7 179.5,-185.7 135.5,-185.7"/>
<polygon fill="none" stroke="#000000" points="135.5,-185.7 135.5,-204.7 179.5,-204.7 179.5,-185.7 135.5,-185.7"/>
<text text-anchor="start" x="160.9053" y="-191.8" font-family="Helvetica,sans-Serif" font-size="11.00" fill="#000000">5 &gt;</text>
</a>
</g>
</g>
<!-- resource_scope&#45;&gt;resource_server_resource -->
<g id="edge1" class="edge">
<title>resource_scope:w&#45;&gt;resource_server_resource:e</title>
<path fill="none" stroke="#000000" d="M216.1154,-231.329C197.4593,-247.5294 213.2515,-300.7 179.5,-300.7"/>
<polygon fill="#000000" stroke="#000000" points="222.4107,-229.2303 231.1386,-230.1152 226.2053,-227.9651 230,-226.7 230,-226.7 230,-226.7 226.2053,-227.9651 228.8614,-223.2848 222.4107,-229.2303 222.4107,-229.2303"/>
<ellipse fill="none" stroke="#000000" cx="219.3749" cy="-230.2424" rx="3.2" ry="3.2"/>
</g>
<!-- resource_server_scope -->
<g id="node3" class="node">
<title>resource_server_scope</title>
<g id="a_node3"><a xlink:href="../../tables/resource_server_scope.html" xlink:title="resource_server_scope" target="_top">
<polygon fill="#ffffff" stroke="transparent" points="15,-38.2 15,-165.2 172,-165.2 172,-38.2 15,-38.2"/>
<polygon fill="#f5f5f5" stroke="transparent" points="15.5,-141.7 15.5,-164.7 172.5,-164.7 172.5,-141.7 15.5,-141.7"/>
<polygon fill="none" stroke="#000000" points="15.5,-141.7 15.5,-164.7 172.5,-164.7 172.5,-141.7 15.5,-141.7"/>
<text text-anchor="start" x="20.0443" y="-150.8" font-family="Helvetica,sans-Serif" font-weight="bold" font-size="11.00" fill="#000000">resource_server_scope</text>
<text text-anchor="start" x="138.0219" y="-149.8" font-family="Helvetica,sans-Serif" font-size="11.00" fill="#000000">[table]</text>
<polygon fill="none" stroke="#000000" points="15.5,-119.7 15.5,-141.7 172.5,-141.7 172.5,-119.7 15.5,-119.7"/>
<image xlink:href="../../images/primaryKeys.png" width="11px" height="12px" preserveAspectRatio="xMinYMin meet" x="20.5" y="-136.7"/>
<text text-anchor="start" x="36.5" y="-126.8" font-family="Helvetica,sans-Serif" font-size="11.00" fill="#000000">id</text>
<polygon fill="#ffffff" stroke="transparent" points="15.5,-97.7 15.5,-119.7 172.5,-119.7 172.5,-97.7 15.5,-97.7"/>
<polygon fill="none" stroke="#000000" points="15.5,-97.7 15.5,-119.7 172.5,-119.7 172.5,-97.7 15.5,-97.7"/>
<text text-anchor="start" x="36.5" y="-104.8" font-family="Helvetica,sans-Serif" font-size="11.00" fill="#000000">name</text>
<polygon fill="#ffffff" stroke="transparent" points="15.5,-75.7 15.5,-97.7 172.5,-97.7 172.5,-75.7 15.5,-75.7"/>
<polygon fill="none" stroke="#000000" points="15.5,-75.7 15.5,-97.7 172.5,-97.7 172.5,-75.7 15.5,-75.7"/>
<image xlink:href="../../images/foreignKeys.png" width="11px" height="12px" preserveAspectRatio="xMinYMin meet" x="20.5" y="-92.7"/>
<text text-anchor="start" x="36.5" y="-82.8" font-family="Helvetica,sans-Serif" font-size="11.00" fill="#000000">resource_server_id</text>
<polygon fill="none" stroke="#000000" points="15.5,-56.7 15.5,-75.7 172.5,-75.7 172.5,-56.7 15.5,-56.7"/>
<text text-anchor="start" x="18.5" y="-62.8" font-family="Helvetica,sans-Serif" font-size="11.00" fill="#000000">...</text>
<polygon fill="#ffffff" stroke="transparent" points="15.5,-37.7 15.5,-56.7 74.5,-56.7 74.5,-37.7 15.5,-37.7"/>
<polygon fill="none" stroke="#000000" points="15.5,-37.7 15.5,-56.7 74.5,-56.7 74.5,-37.7 15.5,-37.7"/>
<text text-anchor="start" x="18.5" y="-43.8" font-family="Helvetica,sans-Serif" font-size="11.00" fill="#000000">&lt; 1</text>
<polygon fill="#ffffff" stroke="transparent" points="74.5,-37.7 74.5,-56.7 131.5,-56.7 131.5,-37.7 74.5,-37.7"/>
<polygon fill="none" stroke="#000000" points="74.5,-37.7 74.5,-56.7 131.5,-56.7 131.5,-37.7 74.5,-37.7"/>
<text text-anchor="start" x="96.1105" y="-43.8" font-family="Helvetica,sans-Serif" font-size="11.00" fill="#000000">0 rows</text>
<polygon fill="#ffffff" stroke="transparent" points="131.5,-37.7 131.5,-56.7 172.5,-56.7 172.5,-37.7 131.5,-37.7"/>
<polygon fill="none" stroke="#000000" points="131.5,-37.7 131.5,-56.7 172.5,-56.7 172.5,-37.7 131.5,-37.7"/>
<text text-anchor="start" x="153.9053" y="-43.8" font-family="Helvetica,sans-Serif" font-size="11.00" fill="#000000">3 &gt;</text>
</a>
</g>
</g>
<!-- resource_scope&#45;&gt;resource_server_scope -->
<g id="edge2" class="edge">
<title>resource_scope:w&#45;&gt;resource_server_scope:e</title>
<path fill="none" stroke="#000000" d="M216.0552,-200.7214C194.2721,-185.3509 208.2934,-130.7 172.5,-130.7"/>
<polygon fill="#000000" stroke="#000000" points="222.307,-202.5051 229.0123,-208.1619 226.1535,-203.6025 230,-204.7 230,-204.7 230,-204.7 226.1535,-203.6025 230.9877,-201.2381 222.307,-202.5051 222.307,-202.5051"/>
<ellipse fill="none" stroke="#000000" cx="219.2298" cy="-201.6271" rx="3.2" ry="3.2"/>
</g>
</g>
</svg>
