<?xml version="1.0" encoding="UTF-8" standalone="no"?>
<!DOCTYPE svg PUBLIC "-//W3C//DTD SVG 1.1//EN"
 "http://www.w3.org/Graphics/SVG/1.1/DTD/svg11.dtd">
<!-- Generated by graphviz version 2.40.1 (20161225.0304)
 -->
<!-- Title: oneDegreeRelationshipsDiagram Pages: 1 -->
<svg width="707pt" height="523pt"
 viewBox="0.00 0.00 707.00 523.20" xmlns="http://www.w3.org/2000/svg" xmlns:xlink="http://www.w3.org/1999/xlink">
<g id="graph0" class="graph" transform="scale(1 1) rotate(0) translate(4 519.2)">
<title>oneDegreeRelationshipsDiagram</title>
<polygon fill="#ffffff" stroke="transparent" points="-4,4 -4,-519.2 703,-519.2 703,4 -4,4"/>
<text text-anchor="middle" x="72.4936" y="-7.3" font-family="Helvetica,sans-Serif" font-size="11.00" fill="#000000">Generated by SchemaSpy</text>
<!-- resource_server_perm_ticket -->
<g id="node1" class="node">
<title>resource_server_perm_ticket</title>
<g id="a_node1"><a xlink:href="../../tables/resource_server_perm_ticket.html" xlink:title="resource_server_perm_ticket" target="_top">
<polygon fill="#ffffff" stroke="transparent" points="432,-182.7 432,-426.7 691,-426.7 691,-182.7 432,-182.7"/>
<polygon fill="#f5f5f5" stroke="transparent" points="434.5,-401.7 434.5,-424.7 689.5,-424.7 689.5,-401.7 434.5,-401.7"/>
<polygon fill="none" stroke="#000000" points="434.5,-401.7 434.5,-424.7 689.5,-424.7 689.5,-401.7 434.5,-401.7"/>
<text text-anchor="start" x="439.5" y="-410.8" font-family="Helvetica,sans-Serif" font-weight="bold" font-size="11.00" fill="#000000">resource_server_perm_ticket</text>
<text text-anchor="start" x="654.5437" y="-409.8" font-family="Helvetica,sans-Serif" font-size="11.00" fill="#000000">[table]</text>
<polygon fill="none" stroke="#000000" points="434.5,-379.7 434.5,-401.7 622.5,-401.7 622.5,-379.7 434.5,-379.7"/>
<image xlink:href="../../images/primaryKeys.png" width="11px" height="12px" preserveAspectRatio="xMinYMin meet" x="439.5" y="-396.7"/>
<text text-anchor="start" x="454.5" y="-386.8" font-family="Helvetica,sans-Serif" font-size="11.00" fill="#000000">id</text>
<polygon fill="none" stroke="#000000" points="622.5,-379.7 622.5,-401.7 689.5,-401.7 689.5,-379.7 622.5,-379.7"/>
<text text-anchor="start" x="625.5" y="-387.4" font-family="Helvetica,sans-Serif" font-size="11.00" fill="#000000">varchar[36]</text>
<polygon fill="#ffffff" stroke="transparent" points="434.5,-357.7 434.5,-379.7 622.5,-379.7 622.5,-357.7 434.5,-357.7"/>
<polygon fill="none" stroke="#000000" points="434.5,-357.7 434.5,-379.7 622.5,-379.7 622.5,-357.7 434.5,-357.7"/>
<text text-anchor="start" x="454.5" y="-364.8" font-family="Helvetica,sans-Serif" font-size="11.00" fill="#000000">owner</text>
<polygon fill="none" stroke="#000000" points="622.5,-357.7 622.5,-379.7 689.5,-379.7 689.5,-357.7 622.5,-357.7"/>
<text text-anchor="start" x="625.4365" y="-365.4" font-family="Helvetica,sans-Serif" font-size="11.00" fill="#000000">varchar[255]</text>
<polygon fill="#ffffff" stroke="transparent" points="434.5,-335.7 434.5,-357.7 622.5,-357.7 622.5,-335.7 434.5,-335.7"/>
<polygon fill="none" stroke="#000000" points="434.5,-335.7 434.5,-357.7 622.5,-357.7 622.5,-335.7 434.5,-335.7"/>
<text text-anchor="start" x="454.5" y="-342.8" font-family="Helvetica,sans-Serif" font-size="11.00" fill="#000000">requester</text>
<polygon fill="none" stroke="#000000" points="622.5,-335.7 622.5,-357.7 689.5,-357.7 689.5,-335.7 622.5,-335.7"/>
<text text-anchor="start" x="625.4365" y="-343.4" font-family="Helvetica,sans-Serif" font-size="11.00" fill="#000000">varchar[255]</text>
<polygon fill="none" stroke="#000000" points="434.5,-313.7 434.5,-335.7 622.5,-335.7 622.5,-313.7 434.5,-313.7"/>
<text text-anchor="start" x="454.5" y="-320.8" font-family="Helvetica,sans-Serif" font-size="11.00" fill="#000000">created_timestamp</text>
<polygon fill="none" stroke="#000000" points="622.5,-313.7 622.5,-335.7 689.5,-335.7 689.5,-313.7 622.5,-313.7"/>
<text text-anchor="start" x="625.5" y="-321.4" font-family="Helvetica,sans-Serif" font-size="11.00" fill="#000000">int8[19]</text>
<polygon fill="none" stroke="#000000" points="434.5,-291.7 434.5,-313.7 622.5,-313.7 622.5,-291.7 434.5,-291.7"/>
<text text-anchor="start" x="454.5" y="-298.8" font-family="Helvetica,sans-Serif" font-size="11.00" fill="#000000">granted_timestamp</text>
<polygon fill="none" stroke="#000000" points="622.5,-291.7 622.5,-313.7 689.5,-313.7 689.5,-291.7 622.5,-291.7"/>
<text text-anchor="start" x="625.5" y="-299.4" font-family="Helvetica,sans-Serif" font-size="11.00" fill="#000000">int8[19]</text>
<polygon fill="#ffffff" stroke="transparent" points="434.5,-269.7 434.5,-291.7 622.5,-291.7 622.5,-269.7 434.5,-269.7"/>
<polygon fill="none" stroke="#000000" points="434.5,-269.7 434.5,-291.7 622.5,-291.7 622.5,-269.7 434.5,-269.7"/>
<image xlink:href="../../images/foreignKeys.png" width="11px" height="12px" preserveAspectRatio="xMinYMin meet" x="439.5" y="-286.7"/>
<text text-anchor="start" x="454.5" y="-276.8" font-family="Helvetica,sans-Serif" font-size="11.00" fill="#000000">resource_id</text>
<polygon fill="none" stroke="#000000" points="622.5,-269.7 622.5,-291.7 689.5,-291.7 689.5,-269.7 622.5,-269.7"/>
<text text-anchor="start" x="625.5" y="-277.4" font-family="Helvetica,sans-Serif" font-size="11.00" fill="#000000">varchar[36]</text>
<polygon fill="#ffffff" stroke="transparent" points="434.5,-247.7 434.5,-269.7 622.5,-269.7 622.5,-247.7 434.5,-247.7"/>
<polygon fill="none" stroke="#000000" points="434.5,-247.7 434.5,-269.7 622.5,-269.7 622.5,-247.7 434.5,-247.7"/>
<image xlink:href="../../images/foreignKeys.png" width="11px" height="12px" preserveAspectRatio="xMinYMin meet" x="439.5" y="-264.7"/>
<text text-anchor="start" x="454.5" y="-254.8" font-family="Helvetica,sans-Serif" font-size="11.00" fill="#000000">scope_id</text>
<polygon fill="none" stroke="#000000" points="622.5,-247.7 622.5,-269.7 689.5,-269.7 689.5,-247.7 622.5,-247.7"/>
<text text-anchor="start" x="625.5" y="-255.4" font-family="Helvetica,sans-Serif" font-size="11.00" fill="#000000">varchar[36]</text>
<polygon fill="#ffffff" stroke="transparent" points="434.5,-225.7 434.5,-247.7 622.5,-247.7 622.5,-225.7 434.5,-225.7"/>
<polygon fill="none" stroke="#000000" points="434.5,-225.7 434.5,-247.7 622.5,-247.7 622.5,-225.7 434.5,-225.7"/>
<image xlink:href="../../images/foreignKeys.png" width="11px" height="12px" preserveAspectRatio="xMinYMin meet" x="439.5" y="-242.7"/>
<text text-anchor="start" x="454.5" y="-232.8" font-family="Helvetica,sans-Serif" font-size="11.00" fill="#000000">resource_server_id</text>
<polygon fill="none" stroke="#000000" points="622.5,-225.7 622.5,-247.7 689.5,-247.7 689.5,-225.7 622.5,-225.7"/>
<text text-anchor="start" x="625.5" y="-233.4" font-family="Helvetica,sans-Serif" font-size="11.00" fill="#000000">varchar[36]</text>
<polygon fill="none" stroke="#000000" points="434.5,-203.7 434.5,-225.7 622.5,-225.7 622.5,-203.7 434.5,-203.7"/>
<image xlink:href="../../images/foreignKeys.png" width="11px" height="12px" preserveAspectRatio="xMinYMin meet" x="439.5" y="-220.7"/>
<text text-anchor="start" x="454.5" y="-210.8" font-family="Helvetica,sans-Serif" font-size="11.00" fill="#000000">policy_id</text>
<polygon fill="none" stroke="#000000" points="622.5,-203.7 622.5,-225.7 689.5,-225.7 689.5,-203.7 622.5,-203.7"/>
<text text-anchor="start" x="625.5" y="-211.4" font-family="Helvetica,sans-Serif" font-size="11.00" fill="#000000">varchar[36]</text>
<polygon fill="#ffffff" stroke="transparent" points="434.5,-184.7 434.5,-203.7 519.5,-203.7 519.5,-184.7 434.5,-184.7"/>
<polygon fill="none" stroke="#000000" points="434.5,-184.7 434.5,-203.7 519.5,-203.7 519.5,-184.7 434.5,-184.7"/>
<text text-anchor="start" x="437.5" y="-190.8" font-family="Helvetica,sans-Serif" font-size="11.00" fill="#000000">&lt; 4</text>
<polygon fill="#ffffff" stroke="transparent" points="519.5,-184.7 519.5,-203.7 622.5,-203.7 622.5,-184.7 519.5,-184.7"/>
<polygon fill="none" stroke="#000000" points="519.5,-184.7 519.5,-203.7 622.5,-203.7 622.5,-184.7 519.5,-184.7"/>
<text text-anchor="start" x="587.1105" y="-190.8" font-family="Helvetica,sans-Serif" font-size="11.00" fill="#000000">0 rows</text>
<polygon fill="#ffffff" stroke="transparent" points="622.5,-184.7 622.5,-203.7 689.5,-203.7 689.5,-184.7 622.5,-184.7"/>
<polygon fill="none" stroke="#000000" points="622.5,-184.7 622.5,-203.7 689.5,-203.7 689.5,-184.7 622.5,-184.7"/>
<text text-anchor="start" x="670.9053" y="-190.8" font-family="Helvetica,sans-Serif" font-size="11.00" fill="#000000">0 &gt;</text>
<polygon fill="none" stroke="#000000" stroke-width="2" points="433,-183.7 433,-425.7 690,-425.7 690,-183.7 433,-183.7"/>
</a>
</g>
</g>
<!-- resource_server_policy -->
<g id="node2" class="node">
<title>resource_server_policy</title>
<g id="a_node2"><a xlink:href="../../tables/resource_server_policy.html" xlink:title="resource_server_policy" target="_top">
<polygon fill="#ffffff" stroke="transparent" points="219.5,-38.2 219.5,-165.2 375.5,-165.2 375.5,-38.2 219.5,-38.2"/>
<polygon fill="#f5f5f5" stroke="transparent" points="219.5,-141.7 219.5,-164.7 375.5,-164.7 375.5,-141.7 219.5,-141.7"/>
<polygon fill="none" stroke="#000000" points="219.5,-141.7 219.5,-164.7 375.5,-164.7 375.5,-141.7 219.5,-141.7"/>
<text text-anchor="start" x="224.1608" y="-150.8" font-family="Helvetica,sans-Serif" font-weight="bold" font-size="11.00" fill="#000000">resource_server_policy</text>
<text text-anchor="start" x="341.0219" y="-149.8" font-family="Helvetica,sans-Serif" font-size="11.00" fill="#000000">[table]</text>
<polygon fill="none" stroke="#000000" points="219.5,-119.7 219.5,-141.7 375.5,-141.7 375.5,-119.7 219.5,-119.7"/>
<image xlink:href="../../images/primaryKeys.png" width="11px" height="12px" preserveAspectRatio="xMinYMin meet" x="224.5" y="-136.7"/>
<text text-anchor="start" x="240.5" y="-126.8" font-family="Helvetica,sans-Serif" font-size="11.00" fill="#000000">id</text>
<polygon fill="#ffffff" stroke="transparent" points="219.5,-97.7 219.5,-119.7 375.5,-119.7 375.5,-97.7 219.5,-97.7"/>
<polygon fill="none" stroke="#000000" points="219.5,-97.7 219.5,-119.7 375.5,-119.7 375.5,-97.7 219.5,-97.7"/>
<text text-anchor="start" x="240.5" y="-104.8" font-family="Helvetica,sans-Serif" font-size="11.00" fill="#000000">name</text>
<polygon fill="#ffffff" stroke="transparent" points="219.5,-75.7 219.5,-97.7 375.5,-97.7 375.5,-75.7 219.5,-75.7"/>
<polygon fill="none" stroke="#000000" points="219.5,-75.7 219.5,-97.7 375.5,-97.7 375.5,-75.7 219.5,-75.7"/>
<image xlink:href="../../images/foreignKeys.png" width="11px" height="12px" preserveAspectRatio="xMinYMin meet" x="224.5" y="-92.7"/>
<text text-anchor="start" x="240.5" y="-82.8" font-family="Helvetica,sans-Serif" font-size="11.00" fill="#000000">resource_server_id</text>
<polygon fill="none" stroke="#000000" points="219.5,-56.7 219.5,-75.7 375.5,-75.7 375.5,-56.7 219.5,-56.7"/>
<text text-anchor="start" x="222.5" y="-62.8" font-family="Helvetica,sans-Serif" font-size="11.00" fill="#000000">...</text>
<polygon fill="#ffffff" stroke="transparent" points="219.5,-37.7 219.5,-56.7 278.5,-56.7 278.5,-37.7 219.5,-37.7"/>
<polygon fill="none" stroke="#000000" points="219.5,-37.7 219.5,-56.7 278.5,-56.7 278.5,-37.7 219.5,-37.7"/>
<text text-anchor="start" x="222.5" y="-43.8" font-family="Helvetica,sans-Serif" font-size="11.00" fill="#000000">&lt; 1</text>
<polygon fill="#ffffff" stroke="transparent" points="278.5,-37.7 278.5,-56.7 335.5,-56.7 335.5,-37.7 278.5,-37.7"/>
<polygon fill="none" stroke="#000000" points="278.5,-37.7 278.5,-56.7 335.5,-56.7 335.5,-37.7 278.5,-37.7"/>
<text text-anchor="start" x="300.1105" y="-43.8" font-family="Helvetica,sans-Serif" font-size="11.00" fill="#000000">0 rows</text>
<polygon fill="#ffffff" stroke="transparent" points="335.5,-37.7 335.5,-56.7 375.5,-56.7 375.5,-37.7 335.5,-37.7"/>
<polygon fill="none" stroke="#000000" points="335.5,-37.7 335.5,-56.7 375.5,-56.7 375.5,-37.7 335.5,-37.7"/>
<text text-anchor="start" x="356.9053" y="-43.8" font-family="Helvetica,sans-Serif" font-size="11.00" fill="#000000">6 &gt;</text>
</a>
</g>
</g>
<!-- resource_server_perm_ticket&#45;&gt;resource_server_policy -->
<g id="edge1" class="edge">
<title>resource_server_perm_ticket:w&#45;&gt;resource_server_policy:e</title>
<path fill="none" stroke="#000000" d="M420.4052,-210.8724C395.8969,-194.4396 415.2412,-130.7 375.5,-130.7"/>
<polygon fill="#000000" stroke="#000000" points="426.7796,-212.6034 433.5565,-218.1742 430.6398,-213.6517 434.5,-214.7 434.5,-214.7 434.5,-214.7 430.6398,-213.6517 435.4435,-211.2258 426.7796,-212.6034 426.7796,-212.6034"/>
<ellipse fill="none" stroke="#000000" cx="423.6914" cy="-211.7648" rx="3.2" ry="3.2"/>
</g>
<!-- resource_server_resource -->
<g id="node3" class="node">
<title>resource_server_resource</title>
<g id="a_node3"><a xlink:href="../../tables/resource_server_resource.html" xlink:title="resource_server_resource" target="_top">
<polygon fill="#ffffff" stroke="transparent" points="212,-362.2 212,-511.2 383,-511.2 383,-362.2 212,-362.2"/>
<polygon fill="#f5f5f5" stroke="transparent" points="212.5,-487.7 212.5,-510.7 383.5,-510.7 383.5,-487.7 212.5,-487.7"/>
<polygon fill="none" stroke="#000000" points="212.5,-487.7 212.5,-510.7 383.5,-510.7 383.5,-487.7 212.5,-487.7"/>
<text text-anchor="start" x="217.3249" y="-496.8" font-family="Helvetica,sans-Serif" font-weight="bold" font-size="11.00" fill="#000000">resource_server_resource</text>
<text text-anchor="start" x="349.0219" y="-495.8" font-family="Helvetica,sans-Serif" font-size="11.00" fill="#000000">[table]</text>
<polygon fill="none" stroke="#000000" points="212.5,-465.7 212.5,-487.7 383.5,-487.7 383.5,-465.7 212.5,-465.7"/>
<image xlink:href="../../images/primaryKeys.png" width="11px" height="12px" preserveAspectRatio="xMinYMin meet" x="217.5" y="-482.7"/>
<text text-anchor="start" x="232.5" y="-472.8" font-family="Helvetica,sans-Serif" font-size="11.00" fill="#000000">id</text>
<polygon fill="#ffffff" stroke="transparent" points="212.5,-443.7 212.5,-465.7 383.5,-465.7 383.5,-443.7 212.5,-443.7"/>
<polygon fill="none" stroke="#000000" points="212.5,-443.7 212.5,-465.7 383.5,-465.7 383.5,-443.7 212.5,-443.7"/>
<text text-anchor="start" x="232.5" y="-450.8" font-family="Helvetica,sans-Serif" font-size="11.00" fill="#000000">name</text>
<polygon fill="#ffffff" stroke="transparent" points="212.5,-421.7 212.5,-443.7 383.5,-443.7 383.5,-421.7 212.5,-421.7"/>
<polygon fill="none" stroke="#000000" points="212.5,-421.7 212.5,-443.7 383.5,-443.7 383.5,-421.7 212.5,-421.7"/>
<text text-anchor="start" x="232.5" y="-428.8" font-family="Helvetica,sans-Serif" font-size="11.00" fill="#000000">owner</text>
<polygon fill="#ffffff" stroke="transparent" points="212.5,-399.7 212.5,-421.7 383.5,-421.7 383.5,-399.7 212.5,-399.7"/>
<polygon fill="none" stroke="#000000" points="212.5,-399.7 212.5,-421.7 383.5,-421.7 383.5,-399.7 212.5,-399.7"/>
<image xlink:href="../../images/foreignKeys.png" width="11px" height="12px" preserveAspectRatio="xMinYMin meet" x="217.5" y="-416.7"/>
<text text-anchor="start" x="232.5" y="-406.8" font-family="Helvetica,sans-Serif" font-size="11.00" fill="#000000">resource_server_id</text>
<polygon fill="none" stroke="#000000" points="212.5,-380.7 212.5,-399.7 383.5,-399.7 383.5,-380.7 212.5,-380.7"/>
<text text-anchor="start" x="215.5" y="-386.8" font-family="Helvetica,sans-Serif" font-size="11.00" fill="#000000">...</text>
<polygon fill="#ffffff" stroke="transparent" points="212.5,-361.7 212.5,-380.7 278.5,-380.7 278.5,-361.7 212.5,-361.7"/>
<polygon fill="none" stroke="#000000" points="212.5,-361.7 212.5,-380.7 278.5,-380.7 278.5,-361.7 212.5,-361.7"/>
<text text-anchor="start" x="215.5" y="-367.8" font-family="Helvetica,sans-Serif" font-size="11.00" fill="#000000">&lt; 1</text>
<polygon fill="#ffffff" stroke="transparent" points="278.5,-361.7 278.5,-380.7 339.5,-380.7 339.5,-361.7 278.5,-361.7"/>
<polygon fill="none" stroke="#000000" points="278.5,-361.7 278.5,-380.7 339.5,-380.7 339.5,-361.7 278.5,-361.7"/>
<text text-anchor="start" x="304.1105" y="-367.8" font-family="Helvetica,sans-Serif" font-size="11.00" fill="#000000">0 rows</text>
<polygon fill="#ffffff" stroke="transparent" points="339.5,-361.7 339.5,-380.7 383.5,-380.7 383.5,-361.7 339.5,-361.7"/>
<polygon fill="none" stroke="#000000" points="339.5,-361.7 339.5,-380.7 383.5,-380.7 383.5,-361.7 339.5,-361.7"/>
<text text-anchor="start" x="364.9053" y="-367.8" font-family="Helvetica,sans-Serif" font-size="11.00" fill="#000000">5 &gt;</text>
</a>
</g>
</g>
<!-- resource_server_perm_ticket&#45;&gt;resource_server_resource -->
<g id="edge2" class="edge">
<title>resource_server_perm_ticket:w&#45;&gt;resource_server_resource:e</title>
<path fill="none" stroke="#000000" d="M420.0827,-282.9012C359.7605,-304.4344 467.8861,-476.7 383.5,-476.7"/>
<polygon fill="#000000" stroke="#000000" points="426.5916,-281.9075 435.0434,-284.2588 430.5458,-281.3037 434.5,-280.7 434.5,-280.7 434.5,-280.7 430.5458,-281.3037 433.9566,-277.1412 426.5916,-281.9075 426.5916,-281.9075"/>
<ellipse fill="none" stroke="#000000" cx="423.4283" cy="-282.3904" rx="3.2" ry="3.2"/>
</g>
<!-- resource_server -->
<g id="node4" class="node">
<title>resource_server</title>
<g id="a_node4"><a xlink:href="../../tables/resource_server.html" xlink:title="resource_server" target="_top">
<polygon fill="#ffffff" stroke="transparent" points="8,-177.2 8,-260.2 163,-260.2 163,-177.2 8,-177.2"/>
<polygon fill="#f5f5f5" stroke="transparent" points="8.5,-236.7 8.5,-259.7 163.5,-259.7 163.5,-236.7 8.5,-236.7"/>
<polygon fill="none" stroke="#000000" points="8.5,-236.7 8.5,-259.7 163.5,-259.7 163.5,-236.7 8.5,-236.7"/>
<text text-anchor="start" x="13.5" y="-245.8" font-family="Helvetica,sans-Serif" font-weight="bold" font-size="11.00" fill="#000000">resource_server</text>
<text text-anchor="start" x="128.5437" y="-244.8" font-family="Helvetica,sans-Serif" font-size="11.00" fill="#000000">[table]</text>
<polygon fill="none" stroke="#000000" points="8.5,-214.7 8.5,-236.7 163.5,-236.7 163.5,-214.7 8.5,-214.7"/>
<image xlink:href="../../images/primaryKeys.png" width="11px" height="12px" preserveAspectRatio="xMinYMin meet" x="13.5" y="-231.7"/>
<text text-anchor="start" x="28.5" y="-221.8" font-family="Helvetica,sans-Serif" font-size="11.00" fill="#000000">id</text>
<polygon fill="none" stroke="#000000" points="8.5,-195.7 8.5,-214.7 163.5,-214.7 163.5,-195.7 8.5,-195.7"/>
<text text-anchor="start" x="11.5" y="-201.8" font-family="Helvetica,sans-Serif" font-size="11.00" fill="#000000">...</text>
<polygon fill="#ffffff" stroke="transparent" points="8.5,-176.7 8.5,-195.7 62.5,-195.7 62.5,-176.7 8.5,-176.7"/>
<polygon fill="none" stroke="#000000" points="8.5,-176.7 8.5,-195.7 62.5,-195.7 62.5,-176.7 8.5,-176.7"/>
<text text-anchor="start" x="11.5" y="-182.8" font-family="Helvetica,sans-Serif" font-size="11.00" fill="#000000"> &#160;</text>
<polygon fill="#ffffff" stroke="transparent" points="62.5,-176.7 62.5,-195.7 121.5,-195.7 121.5,-176.7 62.5,-176.7"/>
<polygon fill="none" stroke="#000000" points="62.5,-176.7 62.5,-195.7 121.5,-195.7 121.5,-176.7 62.5,-176.7"/>
<text text-anchor="start" x="86.1105" y="-182.8" font-family="Helvetica,sans-Serif" font-size="11.00" fill="#000000">0 rows</text>
<polygon fill="#ffffff" stroke="transparent" points="121.5,-176.7 121.5,-195.7 163.5,-195.7 163.5,-176.7 121.5,-176.7"/>
<polygon fill="none" stroke="#000000" points="121.5,-176.7 121.5,-195.7 163.5,-195.7 163.5,-176.7 121.5,-176.7"/>
<text text-anchor="start" x="144.9053" y="-182.8" font-family="Helvetica,sans-Serif" font-size="11.00" fill="#000000">4 &gt;</text>
</a>
</g>
</g>
<!-- resource_server_perm_ticket&#45;&gt;resource_server -->
<g id="edge3" class="edge">
<title>resource_server_perm_ticket:w&#45;&gt;resource_server:e</title>
<path fill="none" stroke="#000000" d="M420.382,-232.3958C410.3964,-224.8387 408.0707,-209.4424 391,-203.7 312.2264,-177.2015 284.5518,-183.234 204,-203.7 184.1465,-208.7442 183.9843,-225.7 163.5,-225.7"/>
<polygon fill="#000000" stroke="#000000" points="426.8477,-234.367 433.4501,-240.1435 430.6739,-235.5335 434.5,-236.7 434.5,-236.7 434.5,-236.7 430.6739,-235.5335 435.5499,-233.2565 426.8477,-234.367 426.8477,-234.367"/>
<ellipse fill="none" stroke="#000000" cx="423.7868" cy="-233.4338" rx="3.2" ry="3.2"/>
</g>
<!-- resource_server_scope -->
<g id="node5" class="node">
<title>resource_server_scope</title>
<g id="a_node5"><a xlink:href="../../tables/resource_server_scope.html" xlink:title="resource_server_scope" target="_top">
<polygon fill="#ffffff" stroke="transparent" points="219,-214.2 219,-341.2 376,-341.2 376,-214.2 219,-214.2"/>
<polygon fill="#f5f5f5" stroke="transparent" points="219.5,-317.7 219.5,-340.7 376.5,-340.7 376.5,-317.7 219.5,-317.7"/>
<polygon fill="none" stroke="#000000" points="219.5,-317.7 219.5,-340.7 376.5,-340.7 376.5,-317.7 219.5,-317.7"/>
<text text-anchor="start" x="224.0443" y="-326.8" font-family="Helvetica,sans-Serif" font-weight="bold" font-size="11.00" fill="#000000">resource_server_scope</text>
<text text-anchor="start" x="342.0219" y="-325.8" font-family="Helvetica,sans-Serif" font-size="11.00" fill="#000000">[table]</text>
<polygon fill="none" stroke="#000000" points="219.5,-295.7 219.5,-317.7 376.5,-317.7 376.5,-295.7 219.5,-295.7"/>
<image xlink:href="../../images/primaryKeys.png" width="11px" height="12px" preserveAspectRatio="xMinYMin meet" x="224.5" y="-312.7"/>
<text text-anchor="start" x="240.5" y="-302.8" font-family="Helvetica,sans-Serif" font-size="11.00" fill="#000000">id</text>
<polygon fill="#ffffff" stroke="transparent" points="219.5,-273.7 219.5,-295.7 376.5,-295.7 376.5,-273.7 219.5,-273.7"/>
<polygon fill="none" stroke="#000000" points="219.5,-273.7 219.5,-295.7 376.5,-295.7 376.5,-273.7 219.5,-273.7"/>
<text text-anchor="start" x="240.5" y="-280.8" font-family="Helvetica,sans-Serif" font-size="11.00" fill="#000000">name</text>
<polygon fill="#ffffff" stroke="transparent" points="219.5,-251.7 219.5,-273.7 376.5,-273.7 376.5,-251.7 219.5,-251.7"/>
<polygon fill="none" stroke="#000000" points="219.5,-251.7 219.5,-273.7 376.5,-273.7 376.5,-251.7 219.5,-251.7"/>
<image xlink:href="../../images/foreignKeys.png" width="11px" height="12px" preserveAspectRatio="xMinYMin meet" x="224.5" y="-268.7"/>
<text text-anchor="start" x="240.5" y="-258.8" font-family="Helvetica,sans-Serif" font-size="11.00" fill="#000000">resource_server_id</text>
<polygon fill="none" stroke="#000000" points="219.5,-232.7 219.5,-251.7 376.5,-251.7 376.5,-232.7 219.5,-232.7"/>
<text text-anchor="start" x="222.5" y="-238.8" font-family="Helvetica,sans-Serif" font-size="11.00" fill="#000000">...</text>
<polygon fill="#ffffff" stroke="transparent" points="219.5,-213.7 219.5,-232.7 278.5,-232.7 278.5,-213.7 219.5,-213.7"/>
<polygon fill="none" stroke="#000000" points="219.5,-213.7 219.5,-232.7 278.5,-232.7 278.5,-213.7 219.5,-213.7"/>
<text text-anchor="start" x="222.5" y="-219.8" font-family="Helvetica,sans-Serif" font-size="11.00" fill="#000000">&lt; 1</text>
<polygon fill="#ffffff" stroke="transparent" points="278.5,-213.7 278.5,-232.7 335.5,-232.7 335.5,-213.7 278.5,-213.7"/>
<polygon fill="none" stroke="#000000" points="278.5,-213.7 278.5,-232.7 335.5,-232.7 335.5,-213.7 278.5,-213.7"/>
<text text-anchor="start" x="300.1105" y="-219.8" font-family="Helvetica,sans-Serif" font-size="11.00" fill="#000000">0 rows</text>
<polygon fill="#ffffff" stroke="transparent" points="335.5,-213.7 335.5,-232.7 376.5,-232.7 376.5,-213.7 335.5,-213.7"/>
<polygon fill="none" stroke="#000000" points="335.5,-213.7 335.5,-232.7 376.5,-232.7 376.5,-213.7 335.5,-213.7"/>
<text text-anchor="start" x="357.9053" y="-219.8" font-family="Helvetica,sans-Serif" font-size="11.00" fill="#000000">3 &gt;</text>
</a>
</g>
</g>
<!-- resource_server_perm_ticket&#45;&gt;resource_server_scope -->
<g id="edge4" class="edge">
<title>resource_server_perm_ticket:w&#45;&gt;resource_server_scope:e</title>
<path fill="none" stroke="#000000" d="M420.5725,-262.4665C402.8541,-273.782 404.2095,-306.7 376.5,-306.7"/>
<polygon fill="#000000" stroke="#000000" points="426.7774,-260.7885 435.4398,-262.1752 430.6387,-259.7443 434.5,-258.7 434.5,-258.7 434.5,-258.7 430.6387,-259.7443 433.5602,-255.2248 426.7774,-260.7885 426.7774,-260.7885"/>
<ellipse fill="none" stroke="#000000" cx="423.6884" cy="-261.6239" rx="3.2" ry="3.2"/>
</g>
<!-- resource_server_policy&#45;&gt;resource_server -->
<g id="edge5" class="edge">
<title>resource_server_policy:w&#45;&gt;resource_server:e</title>
<path fill="none" stroke="#000000" d="M205.3326,-89.6032C165.1048,-109.5641 224.3792,-225.7 163.5,-225.7"/>
<polygon fill="#000000" stroke="#000000" points="211.6629,-88.306 220.2227,-90.2267 215.5814,-87.503 219.5,-86.7 219.5,-86.7 219.5,-86.7 215.5814,-87.503 218.7773,-83.1733 211.6629,-88.306 211.6629,-88.306"/>
<ellipse fill="none" stroke="#000000" cx="208.528" cy="-88.9485" rx="3.2" ry="3.2"/>
</g>
<!-- resource_server_resource&#45;&gt;resource_server -->
<g id="edge6" class="edge">
<title>resource_server_resource:w&#45;&gt;resource_server:e</title>
<path fill="none" stroke="#000000" d="M198.1617,-408.3609C142.619,-386.9455 242.9091,-225.7 163.5,-225.7"/>
<polygon fill="#000000" stroke="#000000" points="204.6044,-409.4119 211.9204,-414.253 208.5522,-410.0559 212.5,-410.7 212.5,-410.7 212.5,-410.7 208.5522,-410.0559 213.0796,-407.147 204.6044,-409.4119 204.6044,-409.4119"/>
<ellipse fill="none" stroke="#000000" cx="201.4461" cy="-408.8967" rx="3.2" ry="3.2"/>
</g>
<!-- resource_server_scope&#45;&gt;resource_server -->
<g id="edge7" class="edge">
<title>resource_server_scope:w&#45;&gt;resource_server:e</title>
<path fill="none" stroke="#000000" d="M205.3548,-259.017C189.8219,-249.6583 187.5045,-225.7 163.5,-225.7"/>
<polygon fill="#000000" stroke="#000000" points="211.7581,-260.6842 218.5929,-266.1838 215.6291,-261.6921 219.5,-262.7 219.5,-262.7 219.5,-262.7 215.6291,-261.6921 220.4071,-259.2162 211.7581,-260.6842 211.7581,-260.6842"/>
<ellipse fill="none" stroke="#000000" cx="208.6614" cy="-259.8779" rx="3.2" ry="3.2"/>
</g>
</g>
</svg>
