<?xml version="1.0" encoding="UTF-8" standalone="no"?>
<!DOCTYPE svg PUBLIC "-//W3C//DTD SVG 1.1//EN"
 "http://www.w3.org/Graphics/SVG/1.1/DTD/svg11.dtd">
<!-- Generated by graphviz version 2.40.1 (20161225.0304)
 -->
<!-- Title: twoDegreesRelationshipsDiagram Pages: 1 -->
<svg width="516pt" height="268pt"
 viewBox="0.00 0.00 516.00 267.70" xmlns="http://www.w3.org/2000/svg" xmlns:xlink="http://www.w3.org/1999/xlink">
<g id="graph0" class="graph" transform="scale(1 1) rotate(0) translate(4 263.7)">
<title>twoDegreesRelationshipsDiagram</title>
<polygon fill="#ffffff" stroke="transparent" points="-4,4 -4,-263.7 512,-263.7 512,4 -4,4"/>
<text text-anchor="middle" x="72.4936" y="-7.3" font-family="Helvetica,sans-Serif" font-size="11.00" fill="#000000">Generated by SchemaSpy</text>
<!-- composite_role -->
<g id="node1" class="node">
<title>composite_role</title>
<g id="a_node1"><a xlink:href="../../tables/composite_role.html" xlink:title="composite_role" target="_top">
<polygon fill="#ffffff" stroke="transparent" points="357.5,-193.7 357.5,-254.7 474.5,-254.7 474.5,-193.7 357.5,-193.7"/>
<polygon fill="#f5f5f5" stroke="transparent" points="358,-231.2 358,-254.2 475,-254.2 475,-231.2 358,-231.2"/>
<polygon fill="none" stroke="#000000" points="358,-231.2 358,-254.2 475,-254.2 475,-231.2 358,-231.2"/>
<text text-anchor="start" x="362.7166" y="-240.3" font-family="Helvetica,sans-Serif" font-weight="bold" font-size="11.00" fill="#000000">composite_role</text>
<text text-anchor="start" x="440.5219" y="-239.3" font-family="Helvetica,sans-Serif" font-size="11.00" fill="#000000">[table]</text>
<polygon fill="none" stroke="#000000" points="358,-212.2 358,-231.2 475,-231.2 475,-212.2 358,-212.2"/>
<text text-anchor="start" x="361" y="-218.3" font-family="Helvetica,sans-Serif" font-size="11.00" fill="#000000">...</text>
<polygon fill="#ffffff" stroke="transparent" points="358,-193.2 358,-212.2 399,-212.2 399,-193.2 358,-193.2"/>
<polygon fill="none" stroke="#000000" points="358,-193.2 358,-212.2 399,-212.2 399,-193.2 358,-193.2"/>
<text text-anchor="start" x="361" y="-199.3" font-family="Helvetica,sans-Serif" font-size="11.00" fill="#000000">&lt; 2</text>
<polygon fill="#ffffff" stroke="transparent" points="399,-193.2 399,-212.2 453,-212.2 453,-193.2 399,-193.2"/>
<polygon fill="none" stroke="#000000" points="399,-193.2 399,-212.2 453,-212.2 453,-193.2 399,-193.2"/>
<text text-anchor="start" x="411.4956" y="-199.3" font-family="Helvetica,sans-Serif" font-size="11.00" fill="#000000">24 rows</text>
<polygon fill="#ffffff" stroke="transparent" points="453,-193.2 453,-212.2 475,-212.2 475,-193.2 453,-193.2"/>
<polygon fill="none" stroke="#000000" points="453,-193.2 453,-212.2 475,-212.2 475,-193.2 453,-193.2"/>
<text text-anchor="start" x="465.8862" y="-199.3" font-family="Helvetica,sans-Serif" font-size="11.00" fill="#000000"> &#160;</text>
</a>
</g>
</g>
<!-- keycloak_role -->
<g id="node2" class="node">
<title>keycloak_role</title>
<g id="a_node2"><a xlink:href="../../tables/keycloak_role.html" xlink:title="keycloak_role" target="_top">
<polygon fill="#ffffff" stroke="transparent" points="128,-62.7 128,-255.7 283,-255.7 283,-62.7 128,-62.7"/>
<polygon fill="#f5f5f5" stroke="transparent" points="128.5,-232.2 128.5,-255.2 283.5,-255.2 283.5,-232.2 128.5,-232.2"/>
<polygon fill="none" stroke="#000000" points="128.5,-232.2 128.5,-255.2 283.5,-255.2 283.5,-232.2 128.5,-232.2"/>
<text text-anchor="start" x="133.5" y="-241.3" font-family="Helvetica,sans-Serif" font-weight="bold" font-size="11.00" fill="#000000">keycloak_role</text>
<text text-anchor="start" x="248.5437" y="-240.3" font-family="Helvetica,sans-Serif" font-size="11.00" fill="#000000">[table]</text>
<polygon fill="none" stroke="#000000" points="128.5,-210.2 128.5,-232.2 283.5,-232.2 283.5,-210.2 128.5,-210.2"/>
<image xlink:href="../../images/primaryKeys.png" width="11px" height="12px" preserveAspectRatio="xMinYMin meet" x="133.5" y="-227.2"/>
<text text-anchor="start" x="148.5" y="-217.3" font-family="Helvetica,sans-Serif" font-size="11.00" fill="#000000">id</text>
<polygon fill="#ffffff" stroke="transparent" points="128.5,-188.2 128.5,-210.2 283.5,-210.2 283.5,-188.2 128.5,-188.2"/>
<polygon fill="none" stroke="#000000" points="128.5,-188.2 128.5,-210.2 283.5,-210.2 283.5,-188.2 128.5,-188.2"/>
<text text-anchor="start" x="148.5" y="-195.3" font-family="Helvetica,sans-Serif" font-size="11.00" fill="#000000">client_realm_constraint</text>
<polygon fill="#ffffff" stroke="transparent" points="128.5,-166.2 128.5,-188.2 283.5,-188.2 283.5,-166.2 128.5,-166.2"/>
<polygon fill="none" stroke="#000000" points="128.5,-166.2 128.5,-188.2 283.5,-188.2 283.5,-166.2 128.5,-166.2"/>
<text text-anchor="start" x="148.5" y="-173.3" font-family="Helvetica,sans-Serif" font-size="11.00" fill="#000000">name</text>
<polygon fill="none" stroke="#000000" points="128.5,-144.2 128.5,-166.2 283.5,-166.2 283.5,-144.2 128.5,-144.2"/>
<image xlink:href="../../images/foreignKeys.png" width="11px" height="12px" preserveAspectRatio="xMinYMin meet" x="133.5" y="-161.2"/>
<text text-anchor="start" x="148.5" y="-151.3" font-family="Helvetica,sans-Serif" font-size="11.00" fill="#000000">realm_id</text>
<polygon fill="#ffffff" stroke="transparent" points="128.5,-122.2 128.5,-144.2 283.5,-144.2 283.5,-122.2 128.5,-122.2"/>
<polygon fill="none" stroke="#000000" points="128.5,-122.2 128.5,-144.2 283.5,-144.2 283.5,-122.2 128.5,-122.2"/>
<text text-anchor="start" x="148.5" y="-129.3" font-family="Helvetica,sans-Serif" font-size="11.00" fill="#000000">client</text>
<polygon fill="#ffffff" stroke="transparent" points="128.5,-100.2 128.5,-122.2 283.5,-122.2 283.5,-100.2 128.5,-100.2"/>
<polygon fill="none" stroke="#000000" points="128.5,-100.2 128.5,-122.2 283.5,-122.2 283.5,-100.2 128.5,-100.2"/>
<image xlink:href="../../images/foreignKeys.png" width="11px" height="12px" preserveAspectRatio="xMinYMin meet" x="133.5" y="-117.2"/>
<text text-anchor="start" x="148.5" y="-107.3" font-family="Helvetica,sans-Serif" font-size="11.00" fill="#000000">realm</text>
<polygon fill="none" stroke="#000000" points="128.5,-81.2 128.5,-100.2 283.5,-100.2 283.5,-81.2 128.5,-81.2"/>
<text text-anchor="start" x="131.5" y="-87.3" font-family="Helvetica,sans-Serif" font-size="11.00" fill="#000000">...</text>
<polygon fill="#ffffff" stroke="transparent" points="128.5,-62.2 128.5,-81.2 183.5,-81.2 183.5,-62.2 128.5,-62.2"/>
<polygon fill="none" stroke="#000000" points="128.5,-62.2 128.5,-81.2 183.5,-81.2 183.5,-62.2 128.5,-62.2"/>
<text text-anchor="start" x="131.5" y="-68.3" font-family="Helvetica,sans-Serif" font-size="11.00" fill="#000000">&lt; 1</text>
<polygon fill="#ffffff" stroke="transparent" points="183.5,-62.2 183.5,-81.2 244.5,-81.2 244.5,-62.2 183.5,-62.2"/>
<polygon fill="none" stroke="#000000" points="183.5,-62.2 183.5,-81.2 244.5,-81.2 244.5,-62.2 183.5,-62.2"/>
<text text-anchor="start" x="202.9956" y="-68.3" font-family="Helvetica,sans-Serif" font-size="11.00" fill="#000000">30 rows</text>
<polygon fill="#ffffff" stroke="transparent" points="244.5,-62.2 244.5,-81.2 283.5,-81.2 283.5,-62.2 244.5,-62.2"/>
<polygon fill="none" stroke="#000000" points="244.5,-62.2 244.5,-81.2 283.5,-81.2 283.5,-62.2 244.5,-62.2"/>
<text text-anchor="start" x="264.9053" y="-68.3" font-family="Helvetica,sans-Serif" font-size="11.00" fill="#000000">3 &gt;</text>
</a>
</g>
</g>
<!-- composite_role&#45;&gt;keycloak_role -->
<g id="edge1" class="edge">
<title>composite_role:w&#45;&gt;keycloak_role:e</title>
<path fill="none" stroke="#000000" d="M343.798,-218.7789C321.6004,-215.3539 311.3082,-216.1609 283.5,-221.2"/>
<polygon fill="#000000" stroke="#000000" points="350.1138,-219.8555 357.395,-224.7488 354.0569,-220.5278 358,-221.2 358,-221.2 358,-221.2 354.0569,-220.5278 358.605,-217.6512 350.1138,-219.8555 350.1138,-219.8555"/>
<ellipse fill="none" stroke="#000000" cx="346.9593" cy="-219.3177" rx="3.2" ry="3.2"/>
</g>
<!-- composite_role&#45;&gt;keycloak_role -->
<g id="edge2" class="edge">
<title>composite_role:w&#45;&gt;keycloak_role:e</title>
<path fill="none" stroke="#000000" d="M343.798,-224.0246C321.6004,-228.0204 311.3082,-227.0789 283.5,-221.2"/>
<polygon fill="#000000" stroke="#000000" points="350.1537,-222.7606 358.7023,-224.7308 354.0768,-221.9803 358,-221.2 358,-221.2 358,-221.2 354.0768,-221.9803 357.2977,-217.6692 350.1537,-222.7606 350.1537,-222.7606"/>
<ellipse fill="none" stroke="#000000" cx="347.0152" cy="-223.3848" rx="3.2" ry="3.2"/>
</g>
<!-- realm -->
<g id="node3" class="node">
<title>realm</title>
<g id="a_node3"><a xlink:href="../../tables/realm.html" xlink:title="realm" target="_top">
<polygon fill="#ffffff" stroke="transparent" points="8,-83.7 8,-144.7 79,-144.7 79,-83.7 8,-83.7"/>
<polygon fill="#f5f5f5" stroke="transparent" points="8.5,-121.2 8.5,-144.2 79.5,-144.2 79.5,-121.2 8.5,-121.2"/>
<polygon fill="none" stroke="#000000" points="8.5,-121.2 8.5,-144.2 79.5,-144.2 79.5,-121.2 8.5,-121.2"/>
<text text-anchor="start" x="13.5" y="-130.3" font-family="Helvetica,sans-Serif" font-weight="bold" font-size="11.00" fill="#000000">realm</text>
<text text-anchor="start" x="45.0219" y="-129.3" font-family="Helvetica,sans-Serif" font-size="11.00" fill="#000000">[table]</text>
<polygon fill="none" stroke="#000000" points="8.5,-102.2 8.5,-121.2 79.5,-121.2 79.5,-102.2 8.5,-102.2"/>
<text text-anchor="start" x="11.5" y="-108.3" font-family="Helvetica,sans-Serif" font-size="11.00" fill="#000000">...</text>
<polygon fill="#ffffff" stroke="transparent" points="8.5,-83.2 8.5,-102.2 20.5,-102.2 20.5,-83.2 8.5,-83.2"/>
<polygon fill="none" stroke="#000000" points="8.5,-83.2 8.5,-102.2 20.5,-102.2 20.5,-83.2 8.5,-83.2"/>
<text text-anchor="start" x="11.4431" y="-89.3" font-family="Helvetica,sans-Serif" font-size="11.00" fill="#000000"> &#160;</text>
<polygon fill="#ffffff" stroke="transparent" points="20.5,-83.2 20.5,-102.2 52.5,-102.2 52.5,-83.2 20.5,-83.2"/>
<polygon fill="none" stroke="#000000" points="20.5,-83.2 20.5,-102.2 52.5,-102.2 52.5,-83.2 20.5,-83.2"/>
<text text-anchor="start" x="23.0553" y="-89.3" font-family="Helvetica,sans-Serif" font-size="11.00" fill="#000000">1 row</text>
<polygon fill="#ffffff" stroke="transparent" points="52.5,-83.2 52.5,-102.2 79.5,-102.2 79.5,-83.2 52.5,-83.2"/>
<polygon fill="none" stroke="#000000" points="52.5,-83.2 52.5,-102.2 79.5,-102.2 79.5,-83.2 52.5,-83.2"/>
<text text-anchor="start" x="55.1452" y="-89.3" font-family="Helvetica,sans-Serif" font-size="11.00" fill="#000000">23 &gt;</text>
</a>
</g>
</g>
<!-- keycloak_role&#45;&gt;realm -->
<g id="edge3" class="edge">
<title>keycloak_role:w&#45;&gt;realm:e</title>
<path fill="none" stroke="#000000" d="M113.9909,-111.2C102.6774,-111.2 95.4931,-111.2 79.5,-111.2"/>
<polygon fill="#000000" stroke="#000000" points="120.5,-111.2001 128.5,-114.8 124.5,-111.2 128.5,-111.2 128.5,-111.2 128.5,-111.2 124.5,-111.2 128.5,-107.6 120.5,-111.2001 120.5,-111.2001"/>
<ellipse fill="none" stroke="#000000" cx="117.3" cy="-111.2001" rx="3.2" ry="3.2"/>
</g>
<!-- role_attribute -->
<g id="node4" class="node">
<title>role_attribute</title>
<g id="a_node4"><a xlink:href="../../tables/role_attribute.html" xlink:title="role_attribute" target="_top">
<polygon fill="#ffffff" stroke="transparent" points="332,-38.2 332,-172.2 500,-172.2 500,-38.2 332,-38.2"/>
<polygon fill="#f5f5f5" stroke="transparent" points="334,-147.2 334,-170.2 498,-170.2 498,-147.2 334,-147.2"/>
<polygon fill="none" stroke="#000000" points="334,-147.2 334,-170.2 498,-170.2 498,-147.2 334,-147.2"/>
<text text-anchor="start" x="339" y="-156.3" font-family="Helvetica,sans-Serif" font-weight="bold" font-size="11.00" fill="#000000">role_attribute</text>
<text text-anchor="start" x="463.0437" y="-155.3" font-family="Helvetica,sans-Serif" font-size="11.00" fill="#000000">[table]</text>
<polygon fill="none" stroke="#000000" points="334,-125.2 334,-147.2 431,-147.2 431,-125.2 334,-125.2"/>
<image xlink:href="../../images/primaryKeys.png" width="11px" height="12px" preserveAspectRatio="xMinYMin meet" x="339" y="-142.2"/>
<text text-anchor="start" x="354" y="-132.3" font-family="Helvetica,sans-Serif" font-size="11.00" fill="#000000">id</text>
<polygon fill="none" stroke="#000000" points="431,-125.2 431,-147.2 498,-147.2 498,-125.2 431,-125.2"/>
<text text-anchor="start" x="434" y="-132.9" font-family="Helvetica,sans-Serif" font-size="11.00" fill="#000000">varchar[36]</text>
<polygon fill="#ffffff" stroke="transparent" points="334,-103.2 334,-125.2 431,-125.2 431,-103.2 334,-103.2"/>
<polygon fill="none" stroke="#000000" points="334,-103.2 334,-125.2 431,-125.2 431,-103.2 334,-103.2"/>
<image xlink:href="../../images/foreignKeys.png" width="11px" height="12px" preserveAspectRatio="xMinYMin meet" x="339" y="-120.2"/>
<text text-anchor="start" x="354" y="-110.3" font-family="Helvetica,sans-Serif" font-size="11.00" fill="#000000">role_id</text>
<polygon fill="none" stroke="#000000" points="431,-103.2 431,-125.2 498,-125.2 498,-103.2 431,-103.2"/>
<text text-anchor="start" x="434" y="-110.9" font-family="Helvetica,sans-Serif" font-size="11.00" fill="#000000">varchar[36]</text>
<polygon fill="none" stroke="#000000" points="334,-81.2 334,-103.2 431,-103.2 431,-81.2 334,-81.2"/>
<text text-anchor="start" x="354" y="-88.3" font-family="Helvetica,sans-Serif" font-size="11.00" fill="#000000">name</text>
<polygon fill="none" stroke="#000000" points="431,-81.2 431,-103.2 498,-103.2 498,-81.2 431,-81.2"/>
<text text-anchor="start" x="433.9365" y="-88.9" font-family="Helvetica,sans-Serif" font-size="11.00" fill="#000000">varchar[255]</text>
<polygon fill="none" stroke="#000000" points="334,-59.2 334,-81.2 431,-81.2 431,-59.2 334,-59.2"/>
<text text-anchor="start" x="354" y="-66.3" font-family="Helvetica,sans-Serif" font-size="11.00" fill="#000000">value</text>
<polygon fill="none" stroke="#000000" points="431,-59.2 431,-81.2 498,-81.2 498,-59.2 431,-59.2"/>
<text text-anchor="start" x="433.9365" y="-66.9" font-family="Helvetica,sans-Serif" font-size="11.00" fill="#000000">varchar[255]</text>
<polygon fill="#ffffff" stroke="transparent" points="334,-40.2 334,-59.2 374,-59.2 374,-40.2 334,-40.2"/>
<polygon fill="none" stroke="#000000" points="334,-40.2 334,-59.2 374,-59.2 374,-40.2 334,-40.2"/>
<text text-anchor="start" x="337" y="-46.3" font-family="Helvetica,sans-Serif" font-size="11.00" fill="#000000">&lt; 1</text>
<polygon fill="#ffffff" stroke="transparent" points="374,-40.2 374,-59.2 431,-59.2 431,-40.2 374,-40.2"/>
<polygon fill="none" stroke="#000000" points="374,-40.2 374,-59.2 431,-59.2 431,-40.2 374,-40.2"/>
<text text-anchor="start" x="395.6105" y="-46.3" font-family="Helvetica,sans-Serif" font-size="11.00" fill="#000000">0 rows</text>
<polygon fill="#ffffff" stroke="transparent" points="431,-40.2 431,-59.2 498,-59.2 498,-40.2 431,-40.2"/>
<polygon fill="none" stroke="#000000" points="431,-40.2 431,-59.2 498,-59.2 498,-40.2 431,-40.2"/>
<text text-anchor="start" x="479.4053" y="-46.3" font-family="Helvetica,sans-Serif" font-size="11.00" fill="#000000">0 &gt;</text>
<polygon fill="none" stroke="#000000" stroke-width="2" points="333,-39.2 333,-171.2 499,-171.2 499,-39.2 333,-39.2"/>
</a>
</g>
</g>
<!-- role_attribute&#45;&gt;keycloak_role -->
<g id="edge4" class="edge">
<title>role_attribute:w&#45;&gt;keycloak_role:e</title>
<path fill="none" stroke="#000000" d="M319.9464,-118.0082C292.4242,-137.0691 330.129,-221.2 283.5,-221.2"/>
<polygon fill="#000000" stroke="#000000" points="326.2785,-116.2924 334.9416,-117.6747 330.1392,-115.2462 334,-114.2 334,-114.2 334,-114.2 330.1392,-115.2462 333.0584,-110.7253 326.2785,-116.2924 326.2785,-116.2924"/>
<ellipse fill="none" stroke="#000000" cx="323.1898" cy="-117.1293" rx="3.2" ry="3.2"/>
</g>
</g>
</svg>
