<?xml version="1.0" encoding="UTF-8" standalone="no"?>
<!DOCTYPE svg PUBLIC "-//W3C//DTD SVG 1.1//EN"
 "http://www.w3.org/Graphics/SVG/1.1/DTD/svg11.dtd">
<!-- Generated by graphviz version 2.40.1 (20161225.0304)
 -->
<!-- Title: oneDegreeRelationshipsDiagram Pages: 1 -->
<svg width="392pt" height="325pt"
 viewBox="0.00 0.00 392.00 325.20" xmlns="http://www.w3.org/2000/svg" xmlns:xlink="http://www.w3.org/1999/xlink">
<g id="graph0" class="graph" transform="scale(1 1) rotate(0) translate(4 321.2)">
<title>oneDegreeRelationshipsDiagram</title>
<polygon fill="#ffffff" stroke="transparent" points="-4,4 -4,-321.2 388,-321.2 388,4 -4,4"/>
<text text-anchor="middle" x="72.4936" y="-7.3" font-family="Helvetica,sans-Serif" font-size="11.00" fill="#000000">Generated by SchemaSpy</text>
<!-- scope_policy -->
<g id="node1" class="node">
<title>scope_policy</title>
<g id="a_node1"><a xlink:href="../../tables/scope_policy.html" xlink:title="scope_policy" target="_top">
<polygon fill="#ffffff" stroke="transparent" points="214,-161.7 214,-251.7 376,-251.7 376,-161.7 214,-161.7"/>
<polygon fill="#f5f5f5" stroke="transparent" points="216,-226.7 216,-249.7 374,-249.7 374,-226.7 216,-226.7"/>
<polygon fill="none" stroke="#000000" points="216,-226.7 216,-249.7 374,-249.7 374,-226.7 216,-226.7"/>
<text text-anchor="start" x="221" y="-235.8" font-family="Helvetica,sans-Serif" font-weight="bold" font-size="11.00" fill="#000000">scope_policy</text>
<text text-anchor="start" x="339.0437" y="-234.8" font-family="Helvetica,sans-Serif" font-size="11.00" fill="#000000">[table]</text>
<polygon fill="none" stroke="#000000" points="216,-204.7 216,-226.7 313,-226.7 313,-204.7 216,-204.7"/>
<image xlink:href="../../images/primaryKeys.png" width="11px" height="12px" preserveAspectRatio="xMinYMin meet" x="221" y="-221.7"/>
<text text-anchor="start" x="236" y="-211.8" font-family="Helvetica,sans-Serif" font-size="11.00" fill="#000000">scope_id</text>
<polygon fill="none" stroke="#000000" points="313,-204.7 313,-226.7 374,-226.7 374,-204.7 313,-204.7"/>
<text text-anchor="start" x="315.994" y="-212.4" font-family="Helvetica,sans-Serif" font-size="11.00" fill="#000000">varchar[36]</text>
<polygon fill="none" stroke="#000000" points="216,-182.7 216,-204.7 313,-204.7 313,-182.7 216,-182.7"/>
<image xlink:href="../../images/primaryKeys.png" width="11px" height="12px" preserveAspectRatio="xMinYMin meet" x="221" y="-199.7"/>
<text text-anchor="start" x="236" y="-189.8" font-family="Helvetica,sans-Serif" font-size="11.00" fill="#000000">policy_id</text>
<polygon fill="none" stroke="#000000" points="313,-182.7 313,-204.7 374,-204.7 374,-182.7 313,-182.7"/>
<text text-anchor="start" x="315.994" y="-190.4" font-family="Helvetica,sans-Serif" font-size="11.00" fill="#000000">varchar[36]</text>
<polygon fill="#ffffff" stroke="transparent" points="216,-163.7 216,-182.7 256,-182.7 256,-163.7 216,-163.7"/>
<polygon fill="none" stroke="#000000" points="216,-163.7 216,-182.7 256,-182.7 256,-163.7 216,-163.7"/>
<text text-anchor="start" x="219" y="-169.8" font-family="Helvetica,sans-Serif" font-size="11.00" fill="#000000">&lt; 2</text>
<polygon fill="#ffffff" stroke="transparent" points="256,-163.7 256,-182.7 313,-182.7 313,-163.7 256,-163.7"/>
<polygon fill="none" stroke="#000000" points="256,-163.7 256,-182.7 313,-182.7 313,-163.7 256,-163.7"/>
<text text-anchor="start" x="277.6105" y="-169.8" font-family="Helvetica,sans-Serif" font-size="11.00" fill="#000000">0 rows</text>
<polygon fill="#ffffff" stroke="transparent" points="313,-163.7 313,-182.7 374,-182.7 374,-163.7 313,-163.7"/>
<polygon fill="none" stroke="#000000" points="313,-163.7 313,-182.7 374,-182.7 374,-163.7 313,-163.7"/>
<text text-anchor="start" x="355.4053" y="-169.8" font-family="Helvetica,sans-Serif" font-size="11.00" fill="#000000">0 &gt;</text>
<polygon fill="none" stroke="#000000" stroke-width="2" points="215,-162.7 215,-250.7 375,-250.7 375,-162.7 215,-162.7"/>
</a>
</g>
</g>
<!-- resource_server_policy -->
<g id="node2" class="node">
<title>resource_server_policy</title>
<g id="a_node2"><a xlink:href="../../tables/resource_server_policy.html" xlink:title="resource_server_policy" target="_top">
<polygon fill="#ffffff" stroke="transparent" points="8.5,-38.2 8.5,-165.2 164.5,-165.2 164.5,-38.2 8.5,-38.2"/>
<polygon fill="#f5f5f5" stroke="transparent" points="8.5,-141.7 8.5,-164.7 164.5,-164.7 164.5,-141.7 8.5,-141.7"/>
<polygon fill="none" stroke="#000000" points="8.5,-141.7 8.5,-164.7 164.5,-164.7 164.5,-141.7 8.5,-141.7"/>
<text text-anchor="start" x="13.1608" y="-150.8" font-family="Helvetica,sans-Serif" font-weight="bold" font-size="11.00" fill="#000000">resource_server_policy</text>
<text text-anchor="start" x="130.0219" y="-149.8" font-family="Helvetica,sans-Serif" font-size="11.00" fill="#000000">[table]</text>
<polygon fill="none" stroke="#000000" points="8.5,-119.7 8.5,-141.7 164.5,-141.7 164.5,-119.7 8.5,-119.7"/>
<image xlink:href="../../images/primaryKeys.png" width="11px" height="12px" preserveAspectRatio="xMinYMin meet" x="13.5" y="-136.7"/>
<text text-anchor="start" x="29.5" y="-126.8" font-family="Helvetica,sans-Serif" font-size="11.00" fill="#000000">id</text>
<polygon fill="#ffffff" stroke="transparent" points="8.5,-97.7 8.5,-119.7 164.5,-119.7 164.5,-97.7 8.5,-97.7"/>
<polygon fill="none" stroke="#000000" points="8.5,-97.7 8.5,-119.7 164.5,-119.7 164.5,-97.7 8.5,-97.7"/>
<text text-anchor="start" x="29.5" y="-104.8" font-family="Helvetica,sans-Serif" font-size="11.00" fill="#000000">name</text>
<polygon fill="#ffffff" stroke="transparent" points="8.5,-75.7 8.5,-97.7 164.5,-97.7 164.5,-75.7 8.5,-75.7"/>
<polygon fill="none" stroke="#000000" points="8.5,-75.7 8.5,-97.7 164.5,-97.7 164.5,-75.7 8.5,-75.7"/>
<image xlink:href="../../images/foreignKeys.png" width="11px" height="12px" preserveAspectRatio="xMinYMin meet" x="13.5" y="-92.7"/>
<text text-anchor="start" x="29.5" y="-82.8" font-family="Helvetica,sans-Serif" font-size="11.00" fill="#000000">resource_server_id</text>
<polygon fill="none" stroke="#000000" points="8.5,-56.7 8.5,-75.7 164.5,-75.7 164.5,-56.7 8.5,-56.7"/>
<text text-anchor="start" x="11.5" y="-62.8" font-family="Helvetica,sans-Serif" font-size="11.00" fill="#000000">...</text>
<polygon fill="#ffffff" stroke="transparent" points="8.5,-37.7 8.5,-56.7 67.5,-56.7 67.5,-37.7 8.5,-37.7"/>
<polygon fill="none" stroke="#000000" points="8.5,-37.7 8.5,-56.7 67.5,-56.7 67.5,-37.7 8.5,-37.7"/>
<text text-anchor="start" x="11.5" y="-43.8" font-family="Helvetica,sans-Serif" font-size="11.00" fill="#000000">&lt; 1</text>
<polygon fill="#ffffff" stroke="transparent" points="67.5,-37.7 67.5,-56.7 124.5,-56.7 124.5,-37.7 67.5,-37.7"/>
<polygon fill="none" stroke="#000000" points="67.5,-37.7 67.5,-56.7 124.5,-56.7 124.5,-37.7 67.5,-37.7"/>
<text text-anchor="start" x="89.1105" y="-43.8" font-family="Helvetica,sans-Serif" font-size="11.00" fill="#000000">0 rows</text>
<polygon fill="#ffffff" stroke="transparent" points="124.5,-37.7 124.5,-56.7 164.5,-56.7 164.5,-37.7 124.5,-37.7"/>
<polygon fill="none" stroke="#000000" points="124.5,-37.7 124.5,-56.7 164.5,-56.7 164.5,-37.7 124.5,-37.7"/>
<text text-anchor="start" x="145.9053" y="-43.8" font-family="Helvetica,sans-Serif" font-size="11.00" fill="#000000">6 &gt;</text>
</a>
</g>
</g>
<!-- scope_policy&#45;&gt;resource_server_policy -->
<g id="edge1" class="edge">
<title>scope_policy:w&#45;&gt;resource_server_policy:e</title>
<path fill="none" stroke="#000000" d="M202.299,-189.1692C185.1358,-174.7239 194.7316,-130.7 164.5,-130.7"/>
<polygon fill="#000000" stroke="#000000" points="208.4045,-191.1882 214.8697,-197.118 212.2023,-192.4441 216,-193.7 216,-193.7 216,-193.7 212.2023,-192.4441 217.1303,-190.282 208.4045,-191.1882 208.4045,-191.1882"/>
<ellipse fill="none" stroke="#000000" cx="205.3663" cy="-190.1835" rx="3.2" ry="3.2"/>
</g>
<!-- resource_server_scope -->
<g id="node3" class="node">
<title>resource_server_scope</title>
<g id="a_node3"><a xlink:href="../../tables/resource_server_scope.html" xlink:title="resource_server_scope" target="_top">
<polygon fill="#ffffff" stroke="transparent" points="8,-186.2 8,-313.2 165,-313.2 165,-186.2 8,-186.2"/>
<polygon fill="#f5f5f5" stroke="transparent" points="8.5,-289.7 8.5,-312.7 165.5,-312.7 165.5,-289.7 8.5,-289.7"/>
<polygon fill="none" stroke="#000000" points="8.5,-289.7 8.5,-312.7 165.5,-312.7 165.5,-289.7 8.5,-289.7"/>
<text text-anchor="start" x="13.0443" y="-298.8" font-family="Helvetica,sans-Serif" font-weight="bold" font-size="11.00" fill="#000000">resource_server_scope</text>
<text text-anchor="start" x="131.0219" y="-297.8" font-family="Helvetica,sans-Serif" font-size="11.00" fill="#000000">[table]</text>
<polygon fill="none" stroke="#000000" points="8.5,-267.7 8.5,-289.7 165.5,-289.7 165.5,-267.7 8.5,-267.7"/>
<image xlink:href="../../images/primaryKeys.png" width="11px" height="12px" preserveAspectRatio="xMinYMin meet" x="13.5" y="-284.7"/>
<text text-anchor="start" x="29.5" y="-274.8" font-family="Helvetica,sans-Serif" font-size="11.00" fill="#000000">id</text>
<polygon fill="#ffffff" stroke="transparent" points="8.5,-245.7 8.5,-267.7 165.5,-267.7 165.5,-245.7 8.5,-245.7"/>
<polygon fill="none" stroke="#000000" points="8.5,-245.7 8.5,-267.7 165.5,-267.7 165.5,-245.7 8.5,-245.7"/>
<text text-anchor="start" x="29.5" y="-252.8" font-family="Helvetica,sans-Serif" font-size="11.00" fill="#000000">name</text>
<polygon fill="#ffffff" stroke="transparent" points="8.5,-223.7 8.5,-245.7 165.5,-245.7 165.5,-223.7 8.5,-223.7"/>
<polygon fill="none" stroke="#000000" points="8.5,-223.7 8.5,-245.7 165.5,-245.7 165.5,-223.7 8.5,-223.7"/>
<image xlink:href="../../images/foreignKeys.png" width="11px" height="12px" preserveAspectRatio="xMinYMin meet" x="13.5" y="-240.7"/>
<text text-anchor="start" x="29.5" y="-230.8" font-family="Helvetica,sans-Serif" font-size="11.00" fill="#000000">resource_server_id</text>
<polygon fill="none" stroke="#000000" points="8.5,-204.7 8.5,-223.7 165.5,-223.7 165.5,-204.7 8.5,-204.7"/>
<text text-anchor="start" x="11.5" y="-210.8" font-family="Helvetica,sans-Serif" font-size="11.00" fill="#000000">...</text>
<polygon fill="#ffffff" stroke="transparent" points="8.5,-185.7 8.5,-204.7 67.5,-204.7 67.5,-185.7 8.5,-185.7"/>
<polygon fill="none" stroke="#000000" points="8.5,-185.7 8.5,-204.7 67.5,-204.7 67.5,-185.7 8.5,-185.7"/>
<text text-anchor="start" x="11.5" y="-191.8" font-family="Helvetica,sans-Serif" font-size="11.00" fill="#000000">&lt; 1</text>
<polygon fill="#ffffff" stroke="transparent" points="67.5,-185.7 67.5,-204.7 124.5,-204.7 124.5,-185.7 67.5,-185.7"/>
<polygon fill="none" stroke="#000000" points="67.5,-185.7 67.5,-204.7 124.5,-204.7 124.5,-185.7 67.5,-185.7"/>
<text text-anchor="start" x="89.1105" y="-191.8" font-family="Helvetica,sans-Serif" font-size="11.00" fill="#000000">0 rows</text>
<polygon fill="#ffffff" stroke="transparent" points="124.5,-185.7 124.5,-204.7 165.5,-204.7 165.5,-185.7 124.5,-185.7"/>
<polygon fill="none" stroke="#000000" points="124.5,-185.7 124.5,-204.7 165.5,-204.7 165.5,-185.7 124.5,-185.7"/>
<text text-anchor="start" x="146.9053" y="-191.8" font-family="Helvetica,sans-Serif" font-size="11.00" fill="#000000">3 &gt;</text>
</a>
</g>
</g>
<!-- scope_policy&#45;&gt;resource_server_scope -->
<g id="edge2" class="edge">
<title>scope_policy:w&#45;&gt;resource_server_scope:e</title>
<path fill="none" stroke="#000000" d="M201.9816,-220.6435C185.738,-235.4952 195.2175,-278.7 165.5,-278.7"/>
<polygon fill="#000000" stroke="#000000" points="208.4554,-218.3606 217.1973,-219.0951 212.2277,-217.0303 216,-215.7 216,-215.7 216,-215.7 212.2277,-217.0303 214.8027,-212.3049 208.4554,-218.3606 208.4554,-218.3606"/>
<ellipse fill="none" stroke="#000000" cx="205.4375" cy="-219.4248" rx="3.2" ry="3.2"/>
</g>
</g>
</svg>
