<?xml version="1.0" encoding="UTF-8" standalone="no"?>
<!DOCTYPE svg PUBLIC "-//W3C//DTD SVG 1.1//EN"
 "http://www.w3.org/Graphics/SVG/1.1/DTD/svg11.dtd">
<!-- Generated by graphviz version 2.40.1 (20161225.0304)
 -->
<!-- Title: twoDegreesRelationshipsDiagram Pages: 1 -->
<svg width="565pt" height="715pt"
 viewBox="0.00 0.00 565.00 715.20" xmlns="http://www.w3.org/2000/svg" xmlns:xlink="http://www.w3.org/1999/xlink">
<g id="graph0" class="graph" transform="scale(1 1) rotate(0) translate(4 711.2)">
<title>twoDegreesRelationshipsDiagram</title>
<polygon fill="#ffffff" stroke="transparent" points="-4,4 -4,-711.2 561,-711.2 561,4 -4,4"/>
<text text-anchor="middle" x="72.4936" y="-7.3" font-family="Helvetica,sans-Serif" font-size="11.00" fill="#000000">Generated by SchemaSpy</text>
<!-- client -->
<g id="node1" class="node">
<title>client</title>
<g id="a_node1"><a xlink:href="../../tables/client.html" xlink:title="client" target="_top">
<polygon fill="#ffffff" stroke="transparent" points="128,-290.2 128,-417.2 323,-417.2 323,-290.2 128,-290.2"/>
<polygon fill="#f5f5f5" stroke="transparent" points="128.5,-393.7 128.5,-416.7 323.5,-416.7 323.5,-393.7 128.5,-393.7"/>
<polygon fill="none" stroke="#000000" points="128.5,-393.7 128.5,-416.7 323.5,-416.7 323.5,-393.7 128.5,-393.7"/>
<text text-anchor="start" x="133.5" y="-402.8" font-family="Helvetica,sans-Serif" font-weight="bold" font-size="11.00" fill="#000000">client</text>
<text text-anchor="start" x="288.5437" y="-401.8" font-family="Helvetica,sans-Serif" font-size="11.00" fill="#000000">[table]</text>
<polygon fill="none" stroke="#000000" points="128.5,-371.7 128.5,-393.7 323.5,-393.7 323.5,-371.7 128.5,-371.7"/>
<image xlink:href="../../images/primaryKeys.png" width="11px" height="12px" preserveAspectRatio="xMinYMin meet" x="133.5" y="-388.7"/>
<text text-anchor="start" x="148.5" y="-378.8" font-family="Helvetica,sans-Serif" font-size="11.00" fill="#000000">id</text>
<polygon fill="#ffffff" stroke="transparent" points="128.5,-349.7 128.5,-371.7 323.5,-371.7 323.5,-349.7 128.5,-349.7"/>
<polygon fill="none" stroke="#000000" points="128.5,-349.7 128.5,-371.7 323.5,-371.7 323.5,-349.7 128.5,-349.7"/>
<image xlink:href="../../images/foreignKeys.png" width="11px" height="12px" preserveAspectRatio="xMinYMin meet" x="133.5" y="-366.7"/>
<text text-anchor="start" x="148.5" y="-356.8" font-family="Helvetica,sans-Serif" font-size="11.00" fill="#000000">client_id</text>
<polygon fill="#ffffff" stroke="transparent" points="128.5,-327.7 128.5,-349.7 323.5,-349.7 323.5,-327.7 128.5,-327.7"/>
<polygon fill="none" stroke="#000000" points="128.5,-327.7 128.5,-349.7 323.5,-349.7 323.5,-327.7 128.5,-327.7"/>
<image xlink:href="../../images/foreignKeys.png" width="11px" height="12px" preserveAspectRatio="xMinYMin meet" x="133.5" y="-344.7"/>
<text text-anchor="start" x="148.5" y="-334.8" font-family="Helvetica,sans-Serif" font-size="11.00" fill="#000000">realm_id</text>
<polygon fill="none" stroke="#000000" points="128.5,-308.7 128.5,-327.7 323.5,-327.7 323.5,-308.7 128.5,-308.7"/>
<text text-anchor="start" x="131.5" y="-314.8" font-family="Helvetica,sans-Serif" font-size="11.00" fill="#000000">...</text>
<polygon fill="#ffffff" stroke="transparent" points="128.5,-289.7 128.5,-308.7 206.5,-308.7 206.5,-289.7 128.5,-289.7"/>
<polygon fill="none" stroke="#000000" points="128.5,-289.7 128.5,-308.7 206.5,-308.7 206.5,-289.7 128.5,-289.7"/>
<text text-anchor="start" x="131.5" y="-295.8" font-family="Helvetica,sans-Serif" font-size="11.00" fill="#000000">&lt; 1</text>
<polygon fill="#ffffff" stroke="transparent" points="206.5,-289.7 206.5,-308.7 273.5,-308.7 273.5,-289.7 206.5,-289.7"/>
<polygon fill="none" stroke="#000000" points="206.5,-289.7 206.5,-308.7 273.5,-308.7 273.5,-289.7 206.5,-289.7"/>
<text text-anchor="start" x="238.1105" y="-295.8" font-family="Helvetica,sans-Serif" font-size="11.00" fill="#000000">6 rows</text>
<polygon fill="#ffffff" stroke="transparent" points="273.5,-289.7 273.5,-308.7 323.5,-308.7 323.5,-289.7 273.5,-289.7"/>
<polygon fill="none" stroke="#000000" points="273.5,-289.7 273.5,-308.7 323.5,-308.7 323.5,-289.7 273.5,-289.7"/>
<text text-anchor="start" x="304.9053" y="-295.8" font-family="Helvetica,sans-Serif" font-size="11.00" fill="#000000">8 &gt;</text>
</a>
</g>
</g>
<!-- realm -->
<g id="node2" class="node">
<title>realm</title>
<g id="a_node2"><a xlink:href="../../tables/realm.html" xlink:title="realm" target="_top">
<polygon fill="#ffffff" stroke="transparent" points="8,-311.2 8,-372.2 79,-372.2 79,-311.2 8,-311.2"/>
<polygon fill="#f5f5f5" stroke="transparent" points="8.5,-348.7 8.5,-371.7 79.5,-371.7 79.5,-348.7 8.5,-348.7"/>
<polygon fill="none" stroke="#000000" points="8.5,-348.7 8.5,-371.7 79.5,-371.7 79.5,-348.7 8.5,-348.7"/>
<text text-anchor="start" x="13.5" y="-357.8" font-family="Helvetica,sans-Serif" font-weight="bold" font-size="11.00" fill="#000000">realm</text>
<text text-anchor="start" x="45.0219" y="-356.8" font-family="Helvetica,sans-Serif" font-size="11.00" fill="#000000">[table]</text>
<polygon fill="none" stroke="#000000" points="8.5,-329.7 8.5,-348.7 79.5,-348.7 79.5,-329.7 8.5,-329.7"/>
<text text-anchor="start" x="11.5" y="-335.8" font-family="Helvetica,sans-Serif" font-size="11.00" fill="#000000">...</text>
<polygon fill="#ffffff" stroke="transparent" points="8.5,-310.7 8.5,-329.7 20.5,-329.7 20.5,-310.7 8.5,-310.7"/>
<polygon fill="none" stroke="#000000" points="8.5,-310.7 8.5,-329.7 20.5,-329.7 20.5,-310.7 8.5,-310.7"/>
<text text-anchor="start" x="11.4431" y="-316.8" font-family="Helvetica,sans-Serif" font-size="11.00" fill="#000000"> &#160;</text>
<polygon fill="#ffffff" stroke="transparent" points="20.5,-310.7 20.5,-329.7 52.5,-329.7 52.5,-310.7 20.5,-310.7"/>
<polygon fill="none" stroke="#000000" points="20.5,-310.7 20.5,-329.7 52.5,-329.7 52.5,-310.7 20.5,-310.7"/>
<text text-anchor="start" x="23.0553" y="-316.8" font-family="Helvetica,sans-Serif" font-size="11.00" fill="#000000">1 row</text>
<polygon fill="#ffffff" stroke="transparent" points="52.5,-310.7 52.5,-329.7 79.5,-329.7 79.5,-310.7 52.5,-310.7"/>
<polygon fill="none" stroke="#000000" points="52.5,-310.7 52.5,-329.7 79.5,-329.7 79.5,-310.7 52.5,-310.7"/>
<text text-anchor="start" x="55.1452" y="-316.8" font-family="Helvetica,sans-Serif" font-size="11.00" fill="#000000">23 &gt;</text>
</a>
</g>
</g>
<!-- client&#45;&gt;realm -->
<g id="edge1" class="edge">
<title>client:w&#45;&gt;realm:e</title>
<path fill="none" stroke="#000000" d="M113.9909,-338.7C102.6774,-338.7 95.4931,-338.7 79.5,-338.7"/>
<polygon fill="#000000" stroke="#000000" points="120.5,-338.7001 128.5,-342.3 124.5,-338.7 128.5,-338.7 128.5,-338.7 128.5,-338.7 124.5,-338.7 128.5,-335.1 120.5,-338.7001 120.5,-338.7001"/>
<ellipse fill="none" stroke="#000000" cx="117.3" cy="-338.7001" rx="3.2" ry="3.2"/>
</g>
<!-- client_attributes -->
<g id="node3" class="node">
<title>client_attributes</title>
<g id="a_node3"><a xlink:href="../../tables/client_attributes.html" xlink:title="client_attributes" target="_top">
<polygon fill="#ffffff" stroke="transparent" points="400.5,-642.2 400.5,-703.2 520.5,-703.2 520.5,-642.2 400.5,-642.2"/>
<polygon fill="#f5f5f5" stroke="transparent" points="400.5,-679.7 400.5,-702.7 520.5,-702.7 520.5,-679.7 400.5,-679.7"/>
<polygon fill="none" stroke="#000000" points="400.5,-679.7 400.5,-702.7 520.5,-702.7 520.5,-679.7 400.5,-679.7"/>
<text text-anchor="start" x="405.4918" y="-688.8" font-family="Helvetica,sans-Serif" font-weight="bold" font-size="11.00" fill="#000000">client_attributes</text>
<text text-anchor="start" x="486.0219" y="-687.8" font-family="Helvetica,sans-Serif" font-size="11.00" fill="#000000">[table]</text>
<polygon fill="none" stroke="#000000" points="400.5,-660.7 400.5,-679.7 520.5,-679.7 520.5,-660.7 400.5,-660.7"/>
<text text-anchor="start" x="403.5" y="-666.8" font-family="Helvetica,sans-Serif" font-size="11.00" fill="#000000">...</text>
<polygon fill="#ffffff" stroke="transparent" points="400.5,-641.7 400.5,-660.7 445.5,-660.7 445.5,-641.7 400.5,-641.7"/>
<polygon fill="none" stroke="#000000" points="400.5,-641.7 400.5,-660.7 445.5,-660.7 445.5,-641.7 400.5,-641.7"/>
<text text-anchor="start" x="403.5" y="-647.8" font-family="Helvetica,sans-Serif" font-size="11.00" fill="#000000">&lt; 1</text>
<polygon fill="#ffffff" stroke="transparent" points="445.5,-641.7 445.5,-660.7 495.5,-660.7 495.5,-641.7 445.5,-641.7"/>
<polygon fill="none" stroke="#000000" points="445.5,-641.7 445.5,-660.7 495.5,-660.7 495.5,-641.7 445.5,-641.7"/>
<text text-anchor="start" x="460.1105" y="-647.8" font-family="Helvetica,sans-Serif" font-size="11.00" fill="#000000">2 rows</text>
<polygon fill="#ffffff" stroke="transparent" points="495.5,-641.7 495.5,-660.7 520.5,-660.7 520.5,-641.7 495.5,-641.7"/>
<polygon fill="none" stroke="#000000" points="495.5,-641.7 495.5,-660.7 520.5,-660.7 520.5,-641.7 495.5,-641.7"/>
<text text-anchor="start" x="511.3862" y="-647.8" font-family="Helvetica,sans-Serif" font-size="11.00" fill="#000000"> &#160;</text>
</a>
</g>
</g>
<!-- client_attributes&#45;&gt;client -->
<g id="edge2" class="edge">
<title>client_attributes:w&#45;&gt;client:e</title>
<path fill="none" stroke="#000000" d="M386.389,-666.7085C375.2829,-660.9311 371.8484,-647.4123 364,-631.7 338.9488,-581.5481 379.5605,-382.7 323.5,-382.7"/>
<polygon fill="#000000" stroke="#000000" points="392.6739,-668.0409 399.7534,-673.2217 396.587,-668.8704 400.5,-669.7 400.5,-669.7 400.5,-669.7 396.587,-668.8704 401.2466,-666.1783 392.6739,-668.0409 392.6739,-668.0409"/>
<ellipse fill="none" stroke="#000000" cx="389.5435" cy="-667.3772" rx="3.2" ry="3.2"/>
</g>
<!-- client_default_roles -->
<g id="node4" class="node">
<title>client_default_roles</title>
<g id="a_node4"><a xlink:href="../../tables/client_default_roles.html" xlink:title="client_default_roles" target="_top">
<polygon fill="#ffffff" stroke="transparent" points="392,-560.2 392,-621.2 529,-621.2 529,-560.2 392,-560.2"/>
<polygon fill="#f5f5f5" stroke="transparent" points="392.5,-597.7 392.5,-620.7 529.5,-620.7 529.5,-597.7 392.5,-597.7"/>
<polygon fill="none" stroke="#000000" points="392.5,-597.7 392.5,-620.7 529.5,-620.7 529.5,-597.7 392.5,-597.7"/>
<text text-anchor="start" x="397.1274" y="-606.8" font-family="Helvetica,sans-Serif" font-weight="bold" font-size="11.00" fill="#000000">client_default_roles</text>
<text text-anchor="start" x="495.0219" y="-605.8" font-family="Helvetica,sans-Serif" font-size="11.00" fill="#000000">[table]</text>
<polygon fill="none" stroke="#000000" points="392.5,-578.7 392.5,-597.7 529.5,-597.7 529.5,-578.7 392.5,-578.7"/>
<text text-anchor="start" x="395.5" y="-584.8" font-family="Helvetica,sans-Serif" font-size="11.00" fill="#000000">...</text>
<polygon fill="#ffffff" stroke="transparent" points="392.5,-559.7 392.5,-578.7 446.5,-578.7 446.5,-559.7 392.5,-559.7"/>
<polygon fill="none" stroke="#000000" points="392.5,-559.7 392.5,-578.7 446.5,-578.7 446.5,-559.7 392.5,-559.7"/>
<text text-anchor="start" x="395.5" y="-565.8" font-family="Helvetica,sans-Serif" font-size="11.00" fill="#000000">&lt; 1</text>
<polygon fill="#ffffff" stroke="transparent" points="446.5,-559.7 446.5,-578.7 500.5,-578.7 500.5,-559.7 446.5,-559.7"/>
<polygon fill="none" stroke="#000000" points="446.5,-559.7 446.5,-578.7 500.5,-578.7 500.5,-559.7 446.5,-559.7"/>
<text text-anchor="start" x="465.1105" y="-565.8" font-family="Helvetica,sans-Serif" font-size="11.00" fill="#000000">2 rows</text>
<polygon fill="#ffffff" stroke="transparent" points="500.5,-559.7 500.5,-578.7 529.5,-578.7 529.5,-559.7 500.5,-559.7"/>
<polygon fill="none" stroke="#000000" points="500.5,-559.7 500.5,-578.7 529.5,-578.7 529.5,-559.7 500.5,-559.7"/>
<text text-anchor="start" x="520.3862" y="-565.8" font-family="Helvetica,sans-Serif" font-size="11.00" fill="#000000"> &#160;</text>
</a>
</g>
</g>
<!-- client_default_roles&#45;&gt;client -->
<g id="edge3" class="edge">
<title>client_default_roles:w&#45;&gt;client:e</title>
<path fill="none" stroke="#000000" d="M378.1967,-585.8015C309.6263,-565.135 414.1886,-382.7 323.5,-382.7"/>
<polygon fill="#000000" stroke="#000000" points="384.5696,-586.6473 392.0263,-591.2687 388.5348,-587.1737 392.5,-587.7 392.5,-587.7 392.5,-587.7 388.5348,-587.1737 392.9737,-584.1313 384.5696,-586.6473 384.5696,-586.6473"/>
<ellipse fill="none" stroke="#000000" cx="381.3974" cy="-586.2263" rx="3.2" ry="3.2"/>
</g>
<!-- client_node_registrations -->
<g id="node5" class="node">
<title>client_node_registrations</title>
<g id="a_node5"><a xlink:href="../../tables/client_node_registrations.html" xlink:title="client_node_registrations" target="_top">
<polygon fill="#ffffff" stroke="transparent" points="378,-478.2 378,-539.2 543,-539.2 543,-478.2 378,-478.2"/>
<polygon fill="#f5f5f5" stroke="transparent" points="378.5,-515.7 378.5,-538.7 543.5,-538.7 543.5,-515.7 378.5,-515.7"/>
<polygon fill="none" stroke="#000000" points="378.5,-515.7 378.5,-538.7 543.5,-538.7 543.5,-515.7 378.5,-515.7"/>
<text text-anchor="start" x="383.3741" y="-524.8" font-family="Helvetica,sans-Serif" font-weight="bold" font-size="11.00" fill="#000000">client_node_registrations</text>
<text text-anchor="start" x="509.0219" y="-523.8" font-family="Helvetica,sans-Serif" font-size="11.00" fill="#000000">[table]</text>
<polygon fill="none" stroke="#000000" points="378.5,-496.7 378.5,-515.7 543.5,-515.7 543.5,-496.7 378.5,-496.7"/>
<text text-anchor="start" x="381.5" y="-502.8" font-family="Helvetica,sans-Serif" font-size="11.00" fill="#000000">...</text>
<polygon fill="#ffffff" stroke="transparent" points="378.5,-477.7 378.5,-496.7 446.5,-496.7 446.5,-477.7 378.5,-477.7"/>
<polygon fill="none" stroke="#000000" points="378.5,-477.7 378.5,-496.7 446.5,-496.7 446.5,-477.7 378.5,-477.7"/>
<text text-anchor="start" x="381.5" y="-483.8" font-family="Helvetica,sans-Serif" font-size="11.00" fill="#000000">&lt; 1</text>
<polygon fill="#ffffff" stroke="transparent" points="446.5,-477.7 446.5,-496.7 507.5,-496.7 507.5,-477.7 446.5,-477.7"/>
<polygon fill="none" stroke="#000000" points="446.5,-477.7 446.5,-496.7 507.5,-496.7 507.5,-477.7 446.5,-477.7"/>
<text text-anchor="start" x="472.1105" y="-483.8" font-family="Helvetica,sans-Serif" font-size="11.00" fill="#000000">0 rows</text>
<polygon fill="#ffffff" stroke="transparent" points="507.5,-477.7 507.5,-496.7 543.5,-496.7 543.5,-477.7 507.5,-477.7"/>
<polygon fill="none" stroke="#000000" points="507.5,-477.7 507.5,-496.7 543.5,-496.7 543.5,-477.7 507.5,-477.7"/>
<text text-anchor="start" x="534.3862" y="-483.8" font-family="Helvetica,sans-Serif" font-size="11.00" fill="#000000"> &#160;</text>
</a>
</g>
</g>
<!-- client_node_registrations&#45;&gt;client -->
<g id="edge4" class="edge">
<title>client_node_registrations:w&#45;&gt;client:e</title>
<path fill="none" stroke="#000000" d="M364.2902,-502.41C330.0779,-482.8496 377.5351,-382.7 323.5,-382.7"/>
<polygon fill="#000000" stroke="#000000" points="370.7062,-503.8955 377.688,-509.2072 374.6031,-504.7977 378.5,-505.7 378.5,-505.7 378.5,-505.7 374.6031,-504.7977 379.312,-502.1928 370.7062,-503.8955 370.7062,-503.8955"/>
<ellipse fill="none" stroke="#000000" cx="367.5886" cy="-503.1737" rx="3.2" ry="3.2"/>
</g>
<!-- client_scope_client -->
<g id="node6" class="node">
<title>client_scope_client</title>
<g id="a_node6"><a xlink:href="../../tables/client_scope_client.html" xlink:title="client_scope_client" target="_top">
<polygon fill="#ffffff" stroke="transparent" points="393,-396.2 393,-457.2 528,-457.2 528,-396.2 393,-396.2"/>
<polygon fill="#f5f5f5" stroke="transparent" points="393.5,-433.7 393.5,-456.7 528.5,-456.7 528.5,-433.7 393.5,-433.7"/>
<polygon fill="none" stroke="#000000" points="393.5,-433.7 393.5,-456.7 528.5,-456.7 528.5,-433.7 393.5,-433.7"/>
<text text-anchor="start" x="398.0443" y="-442.8" font-family="Helvetica,sans-Serif" font-weight="bold" font-size="11.00" fill="#000000">client_scope_client</text>
<text text-anchor="start" x="494.0219" y="-441.8" font-family="Helvetica,sans-Serif" font-size="11.00" fill="#000000">[table]</text>
<polygon fill="none" stroke="#000000" points="393.5,-414.7 393.5,-433.7 528.5,-433.7 528.5,-414.7 393.5,-414.7"/>
<text text-anchor="start" x="396.5" y="-420.8" font-family="Helvetica,sans-Serif" font-size="11.00" fill="#000000">...</text>
<polygon fill="#ffffff" stroke="transparent" points="393.5,-395.7 393.5,-414.7 443.5,-414.7 443.5,-395.7 393.5,-395.7"/>
<polygon fill="none" stroke="#000000" points="393.5,-395.7 393.5,-414.7 443.5,-414.7 443.5,-395.7 393.5,-395.7"/>
<text text-anchor="start" x="396.5" y="-401.8" font-family="Helvetica,sans-Serif" font-size="11.00" fill="#000000">&lt; 2</text>
<polygon fill="#ffffff" stroke="transparent" points="443.5,-395.7 443.5,-414.7 501.5,-414.7 501.5,-395.7 443.5,-395.7"/>
<polygon fill="none" stroke="#000000" points="443.5,-395.7 443.5,-414.7 501.5,-414.7 501.5,-395.7 443.5,-395.7"/>
<text text-anchor="start" x="459.9956" y="-401.8" font-family="Helvetica,sans-Serif" font-size="11.00" fill="#000000">54 rows</text>
<polygon fill="#ffffff" stroke="transparent" points="501.5,-395.7 501.5,-414.7 528.5,-414.7 528.5,-395.7 501.5,-395.7"/>
<polygon fill="none" stroke="#000000" points="501.5,-395.7 501.5,-414.7 528.5,-414.7 528.5,-395.7 501.5,-395.7"/>
<text text-anchor="start" x="519.3862" y="-401.8" font-family="Helvetica,sans-Serif" font-size="11.00" fill="#000000"> &#160;</text>
</a>
</g>
</g>
<!-- client_scope_client&#45;&gt;client -->
<g id="edge5" class="edge">
<title>client_scope_client:w&#45;&gt;client:e</title>
<path fill="none" stroke="#000000" d="M379.1034,-421.0099C357.1727,-411.8885 353.9213,-382.7 323.5,-382.7"/>
<polygon fill="#000000" stroke="#000000" points="385.6361,-422.2305 392.8387,-427.2388 389.5681,-422.9653 393.5,-423.7 393.5,-423.7 393.5,-423.7 389.5681,-422.9653 394.1613,-420.1612 385.6361,-422.2305 385.6361,-422.2305"/>
<ellipse fill="none" stroke="#000000" cx="382.4906" cy="-421.6427" rx="3.2" ry="3.2"/>
</g>
<!-- protocol_mapper -->
<g id="node7" class="node">
<title>protocol_mapper</title>
<g id="a_node7"><a xlink:href="../../tables/protocol_mapper.html" xlink:title="protocol_mapper" target="_top">
<polygon fill="#ffffff" stroke="transparent" points="398,-314.2 398,-375.2 523,-375.2 523,-314.2 398,-314.2"/>
<polygon fill="#f5f5f5" stroke="transparent" points="398.5,-351.7 398.5,-374.7 523.5,-374.7 523.5,-351.7 398.5,-351.7"/>
<polygon fill="none" stroke="#000000" points="398.5,-351.7 398.5,-374.7 523.5,-374.7 523.5,-351.7 398.5,-351.7"/>
<text text-anchor="start" x="403.2412" y="-360.8" font-family="Helvetica,sans-Serif" font-weight="bold" font-size="11.00" fill="#000000">protocol_mapper</text>
<text text-anchor="start" x="489.0219" y="-359.8" font-family="Helvetica,sans-Serif" font-size="11.00" fill="#000000">[table]</text>
<polygon fill="none" stroke="#000000" points="398.5,-332.7 398.5,-351.7 523.5,-351.7 523.5,-332.7 398.5,-332.7"/>
<text text-anchor="start" x="401.5" y="-338.8" font-family="Helvetica,sans-Serif" font-size="11.00" fill="#000000">...</text>
<polygon fill="#ffffff" stroke="transparent" points="398.5,-313.7 398.5,-332.7 438.5,-332.7 438.5,-313.7 398.5,-313.7"/>
<polygon fill="none" stroke="#000000" points="398.5,-313.7 398.5,-332.7 438.5,-332.7 438.5,-313.7 398.5,-313.7"/>
<text text-anchor="start" x="401.5" y="-319.8" font-family="Helvetica,sans-Serif" font-size="11.00" fill="#000000">&lt; 2</text>
<polygon fill="#ffffff" stroke="transparent" points="438.5,-313.7 438.5,-332.7 492.5,-332.7 492.5,-313.7 438.5,-313.7"/>
<polygon fill="none" stroke="#000000" points="438.5,-313.7 438.5,-332.7 492.5,-332.7 492.5,-313.7 438.5,-313.7"/>
<text text-anchor="start" x="450.9956" y="-319.8" font-family="Helvetica,sans-Serif" font-size="11.00" fill="#000000">28 rows</text>
<polygon fill="#ffffff" stroke="transparent" points="492.5,-313.7 492.5,-332.7 523.5,-332.7 523.5,-313.7 492.5,-313.7"/>
<polygon fill="none" stroke="#000000" points="492.5,-313.7 492.5,-332.7 523.5,-332.7 523.5,-313.7 492.5,-313.7"/>
<text text-anchor="start" x="504.9053" y="-319.8" font-family="Helvetica,sans-Serif" font-size="11.00" fill="#000000">1 &gt;</text>
</a>
</g>
</g>
<!-- protocol_mapper&#45;&gt;client -->
<g id="edge6" class="edge">
<title>protocol_mapper:w&#45;&gt;client:e</title>
<path fill="none" stroke="#000000" d="M384.2349,-344.0218C359.9797,-352.6951 355.9984,-382.7 323.5,-382.7"/>
<polygon fill="#000000" stroke="#000000" points="390.6039,-342.9852 399.0784,-345.2532 394.552,-342.3426 398.5,-341.7 398.5,-341.7 398.5,-341.7 394.552,-342.3426 397.9216,-338.1468 390.6039,-342.9852 390.6039,-342.9852"/>
<ellipse fill="none" stroke="#000000" cx="387.4455" cy="-343.4993" rx="3.2" ry="3.2"/>
</g>
<!-- redirect_uris -->
<g id="node8" class="node">
<title>redirect_uris</title>
<g id="a_node8"><a xlink:href="../../tables/redirect_uris.html" xlink:title="redirect_uris" target="_top">
<polygon fill="#ffffff" stroke="transparent" points="409,-232.2 409,-293.2 512,-293.2 512,-232.2 409,-232.2"/>
<polygon fill="#f5f5f5" stroke="transparent" points="409.5,-269.7 409.5,-292.7 512.5,-292.7 512.5,-269.7 409.5,-269.7"/>
<polygon fill="none" stroke="#000000" points="409.5,-269.7 409.5,-292.7 512.5,-292.7 512.5,-269.7 409.5,-269.7"/>
<text text-anchor="start" x="414.2506" y="-278.8" font-family="Helvetica,sans-Serif" font-weight="bold" font-size="11.00" fill="#000000">redirect_uris</text>
<text text-anchor="start" x="478.0219" y="-277.8" font-family="Helvetica,sans-Serif" font-size="11.00" fill="#000000">[table]</text>
<polygon fill="none" stroke="#000000" points="409.5,-250.7 409.5,-269.7 512.5,-269.7 512.5,-250.7 409.5,-250.7"/>
<text text-anchor="start" x="412.5" y="-256.8" font-family="Helvetica,sans-Serif" font-size="11.00" fill="#000000">...</text>
<polygon fill="#ffffff" stroke="transparent" points="409.5,-231.7 409.5,-250.7 446.5,-250.7 446.5,-231.7 409.5,-231.7"/>
<polygon fill="none" stroke="#000000" points="409.5,-231.7 409.5,-250.7 446.5,-250.7 446.5,-231.7 409.5,-231.7"/>
<text text-anchor="start" x="412.5" y="-237.8" font-family="Helvetica,sans-Serif" font-size="11.00" fill="#000000">&lt; 1</text>
<polygon fill="#ffffff" stroke="transparent" points="446.5,-231.7 446.5,-250.7 492.5,-250.7 492.5,-231.7 446.5,-231.7"/>
<polygon fill="none" stroke="#000000" points="446.5,-231.7 446.5,-250.7 492.5,-250.7 492.5,-231.7 446.5,-231.7"/>
<text text-anchor="start" x="457.1105" y="-237.8" font-family="Helvetica,sans-Serif" font-size="11.00" fill="#000000">3 rows</text>
<polygon fill="#ffffff" stroke="transparent" points="492.5,-231.7 492.5,-250.7 512.5,-250.7 512.5,-231.7 492.5,-231.7"/>
<polygon fill="none" stroke="#000000" points="492.5,-231.7 492.5,-250.7 512.5,-250.7 512.5,-231.7 492.5,-231.7"/>
<text text-anchor="start" x="503.3862" y="-237.8" font-family="Helvetica,sans-Serif" font-size="11.00" fill="#000000"> &#160;</text>
</a>
</g>
</g>
<!-- redirect_uris&#45;&gt;client -->
<g id="edge7" class="edge">
<title>redirect_uris:w&#45;&gt;client:e</title>
<path fill="none" stroke="#000000" d="M394.9615,-262.3671C380.3911,-268.7821 377.2193,-285.8685 364,-303.7 340.5022,-335.3961 362.9562,-382.7 323.5,-382.7"/>
<polygon fill="#000000" stroke="#000000" points="401.6313,-261.1436 410.1496,-263.2409 405.5657,-260.4218 409.5,-259.7 409.5,-259.7 409.5,-259.7 405.5657,-260.4218 408.8504,-256.1591 401.6313,-261.1436 401.6313,-261.1436"/>
<ellipse fill="none" stroke="#000000" cx="398.4838" cy="-261.721" rx="3.2" ry="3.2"/>
</g>
<!-- scope_mapping -->
<g id="node9" class="node">
<title>scope_mapping</title>
<g id="a_node9"><a xlink:href="../../tables/scope_mapping.html" xlink:title="scope_mapping" target="_top">
<polygon fill="#ffffff" stroke="transparent" points="372,-120.7 372,-210.7 549,-210.7 549,-120.7 372,-120.7"/>
<polygon fill="#f5f5f5" stroke="transparent" points="374.5,-185.7 374.5,-208.7 547.5,-208.7 547.5,-185.7 374.5,-185.7"/>
<polygon fill="none" stroke="#000000" points="374.5,-185.7 374.5,-208.7 547.5,-208.7 547.5,-185.7 374.5,-185.7"/>
<text text-anchor="start" x="379.5" y="-194.8" font-family="Helvetica,sans-Serif" font-weight="bold" font-size="11.00" fill="#000000">scope_mapping</text>
<text text-anchor="start" x="512.5437" y="-193.8" font-family="Helvetica,sans-Serif" font-size="11.00" fill="#000000">[table]</text>
<polygon fill="none" stroke="#000000" points="374.5,-163.7 374.5,-185.7 486.5,-185.7 486.5,-163.7 374.5,-163.7"/>
<image xlink:href="../../images/primaryKeys.png" width="11px" height="12px" preserveAspectRatio="xMinYMin meet" x="379.5" y="-180.7"/>
<text text-anchor="start" x="394.5" y="-170.8" font-family="Helvetica,sans-Serif" font-size="11.00" fill="#000000">client_id</text>
<polygon fill="none" stroke="#000000" points="486.5,-163.7 486.5,-185.7 547.5,-185.7 547.5,-163.7 486.5,-163.7"/>
<text text-anchor="start" x="489.494" y="-171.4" font-family="Helvetica,sans-Serif" font-size="11.00" fill="#000000">varchar[36]</text>
<polygon fill="none" stroke="#000000" points="374.5,-141.7 374.5,-163.7 486.5,-163.7 486.5,-141.7 374.5,-141.7"/>
<image xlink:href="../../images/primaryKeys.png" width="11px" height="12px" preserveAspectRatio="xMinYMin meet" x="379.5" y="-158.7"/>
<text text-anchor="start" x="394.5" y="-148.8" font-family="Helvetica,sans-Serif" font-size="11.00" fill="#000000">role_id</text>
<polygon fill="none" stroke="#000000" points="486.5,-141.7 486.5,-163.7 547.5,-163.7 547.5,-141.7 486.5,-141.7"/>
<text text-anchor="start" x="489.494" y="-149.4" font-family="Helvetica,sans-Serif" font-size="11.00" fill="#000000">varchar[36]</text>
<polygon fill="#ffffff" stroke="transparent" points="374.5,-122.7 374.5,-141.7 424.5,-141.7 424.5,-122.7 374.5,-122.7"/>
<polygon fill="none" stroke="#000000" points="374.5,-122.7 374.5,-141.7 424.5,-141.7 424.5,-122.7 374.5,-122.7"/>
<text text-anchor="start" x="377.5" y="-128.8" font-family="Helvetica,sans-Serif" font-size="11.00" fill="#000000">&lt; 1</text>
<polygon fill="#ffffff" stroke="transparent" points="424.5,-122.7 424.5,-141.7 486.5,-141.7 486.5,-122.7 424.5,-122.7"/>
<polygon fill="none" stroke="#000000" points="424.5,-122.7 424.5,-141.7 486.5,-141.7 486.5,-122.7 424.5,-122.7"/>
<text text-anchor="start" x="456.6105" y="-128.8" font-family="Helvetica,sans-Serif" font-size="11.00" fill="#000000">1 row</text>
<polygon fill="#ffffff" stroke="transparent" points="486.5,-122.7 486.5,-141.7 547.5,-141.7 547.5,-122.7 486.5,-122.7"/>
<polygon fill="none" stroke="#000000" points="486.5,-122.7 486.5,-141.7 547.5,-141.7 547.5,-122.7 486.5,-122.7"/>
<text text-anchor="start" x="528.9053" y="-128.8" font-family="Helvetica,sans-Serif" font-size="11.00" fill="#000000">0 &gt;</text>
<polygon fill="none" stroke="#000000" stroke-width="2" points="373,-121.7 373,-209.7 548,-209.7 548,-121.7 373,-121.7"/>
</a>
</g>
</g>
<!-- scope_mapping&#45;&gt;client -->
<g id="edge8" class="edge">
<title>scope_mapping:w&#45;&gt;client:e</title>
<path fill="none" stroke="#000000" d="M360.0901,-176.7586C294.8439,-198.3609 413.1056,-382.7 323.5,-382.7"/>
<polygon fill="#000000" stroke="#000000" points="366.5804,-175.8315 375.0092,-178.2638 370.5402,-175.2657 374.5,-174.7 374.5,-174.7 374.5,-174.7 370.5402,-175.2657 373.9908,-171.1362 366.5804,-175.8315 366.5804,-175.8315"/>
<ellipse fill="none" stroke="#000000" cx="363.4126" cy="-176.2841" rx="3.2" ry="3.2"/>
</g>
<!-- web_origins -->
<g id="node10" class="node">
<title>web_origins</title>
<g id="a_node10"><a xlink:href="../../tables/web_origins.html" xlink:title="web_origins" target="_top">
<polygon fill="#ffffff" stroke="transparent" points="410,-38.2 410,-99.2 511,-99.2 511,-38.2 410,-38.2"/>
<polygon fill="#f5f5f5" stroke="transparent" points="410.5,-75.7 410.5,-98.7 511.5,-98.7 511.5,-75.7 410.5,-75.7"/>
<polygon fill="none" stroke="#000000" points="410.5,-75.7 410.5,-98.7 511.5,-98.7 511.5,-75.7 410.5,-75.7"/>
<text text-anchor="start" x="415.163" y="-84.8" font-family="Helvetica,sans-Serif" font-weight="bold" font-size="11.00" fill="#000000">web_origins</text>
<text text-anchor="start" x="477.0219" y="-83.8" font-family="Helvetica,sans-Serif" font-size="11.00" fill="#000000">[table]</text>
<polygon fill="none" stroke="#000000" points="410.5,-56.7 410.5,-75.7 511.5,-75.7 511.5,-56.7 410.5,-56.7"/>
<text text-anchor="start" x="413.5" y="-62.8" font-family="Helvetica,sans-Serif" font-size="11.00" fill="#000000">...</text>
<polygon fill="#ffffff" stroke="transparent" points="410.5,-37.7 410.5,-56.7 449.5,-56.7 449.5,-37.7 410.5,-37.7"/>
<polygon fill="none" stroke="#000000" points="410.5,-37.7 410.5,-56.7 449.5,-56.7 449.5,-37.7 410.5,-37.7"/>
<text text-anchor="start" x="413.5" y="-43.8" font-family="Helvetica,sans-Serif" font-size="11.00" fill="#000000">&lt; 1</text>
<polygon fill="#ffffff" stroke="transparent" points="449.5,-37.7 449.5,-56.7 490.5,-56.7 490.5,-37.7 449.5,-37.7"/>
<polygon fill="none" stroke="#000000" points="449.5,-37.7 449.5,-56.7 490.5,-56.7 490.5,-37.7 449.5,-37.7"/>
<text text-anchor="start" x="460.6105" y="-43.8" font-family="Helvetica,sans-Serif" font-size="11.00" fill="#000000">1 row</text>
<polygon fill="#ffffff" stroke="transparent" points="490.5,-37.7 490.5,-56.7 511.5,-56.7 511.5,-37.7 490.5,-37.7"/>
<polygon fill="none" stroke="#000000" points="490.5,-37.7 490.5,-56.7 511.5,-56.7 511.5,-37.7 490.5,-37.7"/>
<text text-anchor="start" x="502.3862" y="-43.8" font-family="Helvetica,sans-Serif" font-size="11.00" fill="#000000"> &#160;</text>
</a>
</g>
</g>
<!-- web_origins&#45;&gt;client -->
<g id="edge9" class="edge">
<title>web_origins:w&#45;&gt;client:e</title>
<path fill="none" stroke="#000000" d="M396.1706,-67.8238C379.6201,-73.5215 374.5798,-90.1175 364,-110.7 336.0625,-165.051 384.6108,-382.7 323.5,-382.7"/>
<polygon fill="#000000" stroke="#000000" points="402.5864,-66.8729 411.0278,-69.2611 406.5432,-66.2865 410.5,-65.7 410.5,-65.7 410.5,-65.7 406.5432,-66.2865 409.9722,-62.1389 402.5864,-66.8729 402.5864,-66.8729"/>
<ellipse fill="none" stroke="#000000" cx="399.421" cy="-67.3421" rx="3.2" ry="3.2"/>
</g>
</g>
</svg>
