<?xml version="1.0" encoding="UTF-8" standalone="no"?>
<!DOCTYPE svg PUBLIC "-//W3C//DTD SVG 1.1//EN"
 "http://www.w3.org/Graphics/SVG/1.1/DTD/svg11.dtd">
<!-- Generated by graphviz version 2.40.1 (20161225.0304)
 -->
<!-- Title: twoDegreesRelationshipsDiagram Pages: 1 -->
<svg width="586pt" height="551pt"
 viewBox="0.00 0.00 586.00 551.20" xmlns="http://www.w3.org/2000/svg" xmlns:xlink="http://www.w3.org/1999/xlink">
<g id="graph0" class="graph" transform="scale(1 1) rotate(0) translate(4 547.2)">
<title>twoDegreesRelationshipsDiagram</title>
<polygon fill="#ffffff" stroke="transparent" points="-4,4 -4,-547.2 582,-547.2 582,4 -4,4"/>
<text text-anchor="middle" x="72.4936" y="-7.3" font-family="Helvetica,sans-Serif" font-size="11.00" fill="#000000">Generated by SchemaSpy</text>
<!-- associated_policy -->
<g id="node1" class="node">
<title>associated_policy</title>
<g id="a_node1"><a xlink:href="../../tables/associated_policy.html" xlink:title="associated_policy" target="_top">
<polygon fill="#ffffff" stroke="transparent" points="413,-478.2 413,-539.2 542,-539.2 542,-478.2 413,-478.2"/>
<polygon fill="#f5f5f5" stroke="transparent" points="413.5,-515.7 413.5,-538.7 542.5,-538.7 542.5,-515.7 413.5,-515.7"/>
<polygon fill="none" stroke="#000000" points="413.5,-515.7 413.5,-538.7 542.5,-538.7 542.5,-515.7 413.5,-515.7"/>
<text text-anchor="start" x="418.1006" y="-524.8" font-family="Helvetica,sans-Serif" font-weight="bold" font-size="11.00" fill="#000000">associated_policy</text>
<text text-anchor="start" x="508.0219" y="-523.8" font-family="Helvetica,sans-Serif" font-size="11.00" fill="#000000">[table]</text>
<polygon fill="none" stroke="#000000" points="413.5,-496.7 413.5,-515.7 542.5,-515.7 542.5,-496.7 413.5,-496.7"/>
<text text-anchor="start" x="416.5" y="-502.8" font-family="Helvetica,sans-Serif" font-size="11.00" fill="#000000">...</text>
<polygon fill="#ffffff" stroke="transparent" points="413.5,-477.7 413.5,-496.7 463.5,-496.7 463.5,-477.7 413.5,-477.7"/>
<polygon fill="none" stroke="#000000" points="413.5,-477.7 413.5,-496.7 463.5,-496.7 463.5,-477.7 413.5,-477.7"/>
<text text-anchor="start" x="416.5" y="-483.8" font-family="Helvetica,sans-Serif" font-size="11.00" fill="#000000">&lt; 2</text>
<polygon fill="#ffffff" stroke="transparent" points="463.5,-477.7 463.5,-496.7 515.5,-496.7 515.5,-477.7 463.5,-477.7"/>
<polygon fill="none" stroke="#000000" points="463.5,-477.7 463.5,-496.7 515.5,-496.7 515.5,-477.7 463.5,-477.7"/>
<text text-anchor="start" x="480.1105" y="-483.8" font-family="Helvetica,sans-Serif" font-size="11.00" fill="#000000">0 rows</text>
<polygon fill="#ffffff" stroke="transparent" points="515.5,-477.7 515.5,-496.7 542.5,-496.7 542.5,-477.7 515.5,-477.7"/>
<polygon fill="none" stroke="#000000" points="515.5,-477.7 515.5,-496.7 542.5,-496.7 542.5,-477.7 515.5,-477.7"/>
<text text-anchor="start" x="533.3862" y="-483.8" font-family="Helvetica,sans-Serif" font-size="11.00" fill="#000000"> &#160;</text>
</a>
</g>
</g>
<!-- resource_server_policy -->
<g id="node2" class="node">
<title>resource_server_policy</title>
<g id="a_node2"><a xlink:href="../../tables/resource_server_policy.html" xlink:title="resource_server_policy" target="_top">
<polygon fill="#ffffff" stroke="transparent" points="179.5,-277.2 179.5,-404.2 335.5,-404.2 335.5,-277.2 179.5,-277.2"/>
<polygon fill="#f5f5f5" stroke="transparent" points="179.5,-380.7 179.5,-403.7 335.5,-403.7 335.5,-380.7 179.5,-380.7"/>
<polygon fill="none" stroke="#000000" points="179.5,-380.7 179.5,-403.7 335.5,-403.7 335.5,-380.7 179.5,-380.7"/>
<text text-anchor="start" x="184.1608" y="-389.8" font-family="Helvetica,sans-Serif" font-weight="bold" font-size="11.00" fill="#000000">resource_server_policy</text>
<text text-anchor="start" x="301.0219" y="-388.8" font-family="Helvetica,sans-Serif" font-size="11.00" fill="#000000">[table]</text>
<polygon fill="none" stroke="#000000" points="179.5,-358.7 179.5,-380.7 335.5,-380.7 335.5,-358.7 179.5,-358.7"/>
<image xlink:href="../../images/primaryKeys.png" width="11px" height="12px" preserveAspectRatio="xMinYMin meet" x="184.5" y="-375.7"/>
<text text-anchor="start" x="200.5" y="-365.8" font-family="Helvetica,sans-Serif" font-size="11.00" fill="#000000">id</text>
<polygon fill="#ffffff" stroke="transparent" points="179.5,-336.7 179.5,-358.7 335.5,-358.7 335.5,-336.7 179.5,-336.7"/>
<polygon fill="none" stroke="#000000" points="179.5,-336.7 179.5,-358.7 335.5,-358.7 335.5,-336.7 179.5,-336.7"/>
<text text-anchor="start" x="200.5" y="-343.8" font-family="Helvetica,sans-Serif" font-size="11.00" fill="#000000">name</text>
<polygon fill="#ffffff" stroke="transparent" points="179.5,-314.7 179.5,-336.7 335.5,-336.7 335.5,-314.7 179.5,-314.7"/>
<polygon fill="none" stroke="#000000" points="179.5,-314.7 179.5,-336.7 335.5,-336.7 335.5,-314.7 179.5,-314.7"/>
<image xlink:href="../../images/foreignKeys.png" width="11px" height="12px" preserveAspectRatio="xMinYMin meet" x="184.5" y="-331.7"/>
<text text-anchor="start" x="200.5" y="-321.8" font-family="Helvetica,sans-Serif" font-size="11.00" fill="#000000">resource_server_id</text>
<polygon fill="none" stroke="#000000" points="179.5,-295.7 179.5,-314.7 335.5,-314.7 335.5,-295.7 179.5,-295.7"/>
<text text-anchor="start" x="182.5" y="-301.8" font-family="Helvetica,sans-Serif" font-size="11.00" fill="#000000">...</text>
<polygon fill="#ffffff" stroke="transparent" points="179.5,-276.7 179.5,-295.7 238.5,-295.7 238.5,-276.7 179.5,-276.7"/>
<polygon fill="none" stroke="#000000" points="179.5,-276.7 179.5,-295.7 238.5,-295.7 238.5,-276.7 179.5,-276.7"/>
<text text-anchor="start" x="182.5" y="-282.8" font-family="Helvetica,sans-Serif" font-size="11.00" fill="#000000">&lt; 1</text>
<polygon fill="#ffffff" stroke="transparent" points="238.5,-276.7 238.5,-295.7 295.5,-295.7 295.5,-276.7 238.5,-276.7"/>
<polygon fill="none" stroke="#000000" points="238.5,-276.7 238.5,-295.7 295.5,-295.7 295.5,-276.7 238.5,-276.7"/>
<text text-anchor="start" x="260.1105" y="-282.8" font-family="Helvetica,sans-Serif" font-size="11.00" fill="#000000">0 rows</text>
<polygon fill="#ffffff" stroke="transparent" points="295.5,-276.7 295.5,-295.7 335.5,-295.7 335.5,-276.7 295.5,-276.7"/>
<polygon fill="none" stroke="#000000" points="295.5,-276.7 295.5,-295.7 335.5,-295.7 335.5,-276.7 295.5,-276.7"/>
<text text-anchor="start" x="316.9053" y="-282.8" font-family="Helvetica,sans-Serif" font-size="11.00" fill="#000000">6 &gt;</text>
</a>
</g>
</g>
<!-- associated_policy&#45;&gt;resource_server_policy -->
<g id="edge1" class="edge">
<title>associated_policy:w&#45;&gt;resource_server_policy:e</title>
<path fill="none" stroke="#000000" d="M400.3994,-499.5758C389.2948,-490.9913 386.8694,-476.6684 377,-461.7 350.9631,-422.2112 382.7999,-363.7 335.5,-369.7"/>
<polygon fill="#000000" stroke="#000000" points="406.2528,-502.3121 411.9754,-508.9612 409.8764,-504.006 413.5,-505.7 413.5,-505.7 413.5,-505.7 409.8764,-504.006 415.0246,-502.4388 406.2528,-502.3121 406.2528,-502.3121"/>
<ellipse fill="none" stroke="#000000" cx="403.3539" cy="-500.9569" rx="3.2" ry="3.2"/>
</g>
<!-- associated_policy&#45;&gt;resource_server_policy -->
<g id="edge2" class="edge">
<title>associated_policy:w&#45;&gt;resource_server_policy:e</title>
<path fill="none" stroke="#000000" d="M399.0819,-506.3476C389.0844,-502.8211 386.4666,-489.0575 377,-474.7 350.9631,-435.2112 382.7999,-376.7 335.5,-369.7"/>
<polygon fill="#000000" stroke="#000000" points="405.5081,-506.059 413.6616,-509.2964 409.504,-505.8795 413.5,-505.7 413.5,-505.7 413.5,-505.7 409.504,-505.8795 413.3384,-502.1036 405.5081,-506.059 405.5081,-506.059"/>
<ellipse fill="none" stroke="#000000" cx="402.3113" cy="-506.2026" rx="3.2" ry="3.2"/>
</g>
<!-- resource_server -->
<g id="node8" class="node">
<title>resource_server</title>
<g id="a_node8"><a xlink:href="../../tables/resource_server.html" xlink:title="resource_server" target="_top">
<polygon fill="#ffffff" stroke="transparent" points="8,-225.2 8,-286.2 130,-286.2 130,-225.2 8,-225.2"/>
<polygon fill="#f5f5f5" stroke="transparent" points="8,-262.7 8,-285.7 130,-285.7 130,-262.7 8,-262.7"/>
<polygon fill="none" stroke="#000000" points="8,-262.7 8,-285.7 130,-285.7 130,-262.7 8,-262.7"/>
<text text-anchor="start" x="12.7741" y="-271.8" font-family="Helvetica,sans-Serif" font-weight="bold" font-size="11.00" fill="#000000">resource_server</text>
<text text-anchor="start" x="95.5219" y="-270.8" font-family="Helvetica,sans-Serif" font-size="11.00" fill="#000000">[table]</text>
<polygon fill="none" stroke="#000000" points="8,-243.7 8,-262.7 130,-262.7 130,-243.7 8,-243.7"/>
<text text-anchor="start" x="11" y="-249.8" font-family="Helvetica,sans-Serif" font-size="11.00" fill="#000000">...</text>
<polygon fill="#ffffff" stroke="transparent" points="8,-224.7 8,-243.7 45,-243.7 45,-224.7 8,-224.7"/>
<polygon fill="none" stroke="#000000" points="8,-224.7 8,-243.7 45,-243.7 45,-224.7 8,-224.7"/>
<text text-anchor="start" x="11" y="-230.8" font-family="Helvetica,sans-Serif" font-size="11.00" fill="#000000"> &#160;</text>
<polygon fill="#ffffff" stroke="transparent" points="45,-224.7 45,-243.7 96,-243.7 96,-224.7 45,-224.7"/>
<polygon fill="none" stroke="#000000" points="45,-224.7 45,-243.7 96,-243.7 96,-224.7 45,-224.7"/>
<text text-anchor="start" x="60.6105" y="-230.8" font-family="Helvetica,sans-Serif" font-size="11.00" fill="#000000">0 rows</text>
<polygon fill="#ffffff" stroke="transparent" points="96,-224.7 96,-243.7 130,-243.7 130,-224.7 96,-224.7"/>
<polygon fill="none" stroke="#000000" points="96,-224.7 96,-243.7 130,-243.7 130,-224.7 96,-224.7"/>
<text text-anchor="start" x="111.4053" y="-230.8" font-family="Helvetica,sans-Serif" font-size="11.00" fill="#000000">4 &gt;</text>
</a>
</g>
</g>
<!-- resource_server_policy&#45;&gt;resource_server -->
<g id="edge9" class="edge">
<title>resource_server_policy:w&#45;&gt;resource_server:e</title>
<path fill="none" stroke="#000000" d="M165.5932,-320.9103C147.6686,-304.6697 163.075,-252.7 130,-252.7"/>
<polygon fill="#000000" stroke="#000000" points="171.9361,-323.0948 178.3277,-329.1038 175.718,-324.3974 179.5,-325.7 179.5,-325.7 179.5,-325.7 175.718,-324.3974 180.6723,-322.2962 171.9361,-323.0948 171.9361,-323.0948"/>
<ellipse fill="none" stroke="#000000" cx="168.9105" cy="-322.0527" rx="3.2" ry="3.2"/>
</g>
<!-- policy_config -->
<g id="node3" class="node">
<title>policy_config</title>
<g id="a_node3"><a xlink:href="../../tables/policy_config.html" xlink:title="policy_config" target="_top">
<polygon fill="#ffffff" stroke="transparent" points="424.5,-396.2 424.5,-457.2 530.5,-457.2 530.5,-396.2 424.5,-396.2"/>
<polygon fill="#f5f5f5" stroke="transparent" points="424.5,-433.7 424.5,-456.7 530.5,-456.7 530.5,-433.7 424.5,-433.7"/>
<polygon fill="none" stroke="#000000" points="424.5,-433.7 424.5,-456.7 530.5,-456.7 530.5,-433.7 424.5,-433.7"/>
<text text-anchor="start" x="429.2155" y="-442.8" font-family="Helvetica,sans-Serif" font-weight="bold" font-size="11.00" fill="#000000">policy_config</text>
<text text-anchor="start" x="496.0219" y="-441.8" font-family="Helvetica,sans-Serif" font-size="11.00" fill="#000000">[table]</text>
<polygon fill="none" stroke="#000000" points="424.5,-414.7 424.5,-433.7 530.5,-433.7 530.5,-414.7 424.5,-414.7"/>
<text text-anchor="start" x="427.5" y="-420.8" font-family="Helvetica,sans-Serif" font-size="11.00" fill="#000000">...</text>
<polygon fill="#ffffff" stroke="transparent" points="424.5,-395.7 424.5,-414.7 462.5,-414.7 462.5,-395.7 424.5,-395.7"/>
<polygon fill="none" stroke="#000000" points="424.5,-395.7 424.5,-414.7 462.5,-414.7 462.5,-395.7 424.5,-395.7"/>
<text text-anchor="start" x="427.5" y="-401.8" font-family="Helvetica,sans-Serif" font-size="11.00" fill="#000000">&lt; 1</text>
<polygon fill="#ffffff" stroke="transparent" points="462.5,-395.7 462.5,-414.7 509.5,-414.7 509.5,-395.7 462.5,-395.7"/>
<polygon fill="none" stroke="#000000" points="462.5,-395.7 462.5,-414.7 509.5,-414.7 509.5,-395.7 462.5,-395.7"/>
<text text-anchor="start" x="474.1105" y="-401.8" font-family="Helvetica,sans-Serif" font-size="11.00" fill="#000000">0 rows</text>
<polygon fill="#ffffff" stroke="transparent" points="509.5,-395.7 509.5,-414.7 530.5,-414.7 530.5,-395.7 509.5,-395.7"/>
<polygon fill="none" stroke="#000000" points="509.5,-395.7 509.5,-414.7 530.5,-414.7 530.5,-395.7 509.5,-395.7"/>
<text text-anchor="start" x="521.3862" y="-401.8" font-family="Helvetica,sans-Serif" font-size="11.00" fill="#000000"> &#160;</text>
</a>
</g>
</g>
<!-- policy_config&#45;&gt;resource_server_policy -->
<g id="edge3" class="edge">
<title>policy_config:w&#45;&gt;resource_server_policy:e</title>
<path fill="none" stroke="#000000" d="M410.1257,-421.6491C378.3773,-411.7853 376.3451,-369.7 335.5,-369.7"/>
<polygon fill="#000000" stroke="#000000" points="416.5802,-422.57 423.9915,-427.2639 420.5401,-423.135 424.5,-423.7 424.5,-423.7 424.5,-423.7 420.5401,-423.135 425.0085,-420.1361 416.5802,-422.57 416.5802,-422.57"/>
<ellipse fill="none" stroke="#000000" cx="413.4123" cy="-422.1179" rx="3.2" ry="3.2"/>
</g>
<!-- resource_policy -->
<g id="node4" class="node">
<title>resource_policy</title>
<g id="a_node4"><a xlink:href="../../tables/resource_policy.html" xlink:title="resource_policy" target="_top">
<polygon fill="#ffffff" stroke="transparent" points="417.5,-314.2 417.5,-375.2 537.5,-375.2 537.5,-314.2 417.5,-314.2"/>
<polygon fill="#f5f5f5" stroke="transparent" points="417.5,-351.7 417.5,-374.7 537.5,-374.7 537.5,-351.7 417.5,-351.7"/>
<polygon fill="none" stroke="#000000" points="417.5,-351.7 417.5,-374.7 537.5,-374.7 537.5,-351.7 417.5,-351.7"/>
<text text-anchor="start" x="422.4951" y="-360.8" font-family="Helvetica,sans-Serif" font-weight="bold" font-size="11.00" fill="#000000">resource_policy</text>
<text text-anchor="start" x="503.0219" y="-359.8" font-family="Helvetica,sans-Serif" font-size="11.00" fill="#000000">[table]</text>
<polygon fill="none" stroke="#000000" points="417.5,-332.7 417.5,-351.7 537.5,-351.7 537.5,-332.7 417.5,-332.7"/>
<text text-anchor="start" x="420.5" y="-338.8" font-family="Helvetica,sans-Serif" font-size="11.00" fill="#000000">...</text>
<polygon fill="#ffffff" stroke="transparent" points="417.5,-313.7 417.5,-332.7 462.5,-332.7 462.5,-313.7 417.5,-313.7"/>
<polygon fill="none" stroke="#000000" points="417.5,-313.7 417.5,-332.7 462.5,-332.7 462.5,-313.7 417.5,-313.7"/>
<text text-anchor="start" x="420.5" y="-319.8" font-family="Helvetica,sans-Serif" font-size="11.00" fill="#000000">&lt; 2</text>
<polygon fill="#ffffff" stroke="transparent" points="462.5,-313.7 462.5,-332.7 512.5,-332.7 512.5,-313.7 462.5,-313.7"/>
<polygon fill="none" stroke="#000000" points="462.5,-313.7 462.5,-332.7 512.5,-332.7 512.5,-313.7 462.5,-313.7"/>
<text text-anchor="start" x="477.1105" y="-319.8" font-family="Helvetica,sans-Serif" font-size="11.00" fill="#000000">0 rows</text>
<polygon fill="#ffffff" stroke="transparent" points="512.5,-313.7 512.5,-332.7 537.5,-332.7 537.5,-313.7 512.5,-313.7"/>
<polygon fill="none" stroke="#000000" points="512.5,-313.7 512.5,-332.7 537.5,-332.7 537.5,-313.7 512.5,-313.7"/>
<text text-anchor="start" x="528.3862" y="-319.8" font-family="Helvetica,sans-Serif" font-size="11.00" fill="#000000"> &#160;</text>
</a>
</g>
</g>
<!-- resource_policy&#45;&gt;resource_server_policy -->
<g id="edge4" class="edge">
<title>resource_policy:w&#45;&gt;resource_server_policy:e</title>
<path fill="none" stroke="#000000" d="M403.0562,-343.2054C376.926,-349.0213 368.595,-369.7 335.5,-369.7"/>
<polygon fill="#000000" stroke="#000000" points="409.5431,-342.5294 417.8732,-345.2806 413.5215,-342.1147 417.5,-341.7 417.5,-341.7 417.5,-341.7 413.5215,-342.1147 417.1268,-338.1194 409.5431,-342.5294 409.5431,-342.5294"/>
<ellipse fill="none" stroke="#000000" cx="406.3603" cy="-342.8611" rx="3.2" ry="3.2"/>
</g>
<!-- resource_scope -->
<g id="node5" class="node">
<title>resource_scope</title>
<g id="a_node5"><a xlink:href="../../tables/resource_scope.html" xlink:title="resource_scope" target="_top">
<polygon fill="#ffffff" stroke="transparent" points="417,-38.2 417,-99.2 538,-99.2 538,-38.2 417,-38.2"/>
<polygon fill="#f5f5f5" stroke="transparent" points="417.5,-75.7 417.5,-98.7 538.5,-98.7 538.5,-75.7 417.5,-75.7"/>
<polygon fill="none" stroke="#000000" points="417.5,-75.7 417.5,-98.7 538.5,-98.7 538.5,-75.7 417.5,-75.7"/>
<text text-anchor="start" x="422.3785" y="-84.8" font-family="Helvetica,sans-Serif" font-weight="bold" font-size="11.00" fill="#000000">resource_scope</text>
<text text-anchor="start" x="504.0219" y="-83.8" font-family="Helvetica,sans-Serif" font-size="11.00" fill="#000000">[table]</text>
<polygon fill="none" stroke="#000000" points="417.5,-56.7 417.5,-75.7 538.5,-75.7 538.5,-56.7 417.5,-56.7"/>
<text text-anchor="start" x="420.5" y="-62.8" font-family="Helvetica,sans-Serif" font-size="11.00" fill="#000000">...</text>
<polygon fill="#ffffff" stroke="transparent" points="417.5,-37.7 417.5,-56.7 463.5,-56.7 463.5,-37.7 417.5,-37.7"/>
<polygon fill="none" stroke="#000000" points="417.5,-37.7 417.5,-56.7 463.5,-56.7 463.5,-37.7 417.5,-37.7"/>
<text text-anchor="start" x="420.5" y="-43.8" font-family="Helvetica,sans-Serif" font-size="11.00" fill="#000000">&lt; 2</text>
<polygon fill="#ffffff" stroke="transparent" points="463.5,-37.7 463.5,-56.7 513.5,-56.7 513.5,-37.7 463.5,-37.7"/>
<polygon fill="none" stroke="#000000" points="463.5,-37.7 463.5,-56.7 513.5,-56.7 513.5,-37.7 463.5,-37.7"/>
<text text-anchor="start" x="478.1105" y="-43.8" font-family="Helvetica,sans-Serif" font-size="11.00" fill="#000000">0 rows</text>
<polygon fill="#ffffff" stroke="transparent" points="513.5,-37.7 513.5,-56.7 538.5,-56.7 538.5,-37.7 513.5,-37.7"/>
<polygon fill="none" stroke="#000000" points="513.5,-37.7 513.5,-56.7 538.5,-56.7 538.5,-37.7 513.5,-37.7"/>
<text text-anchor="start" x="529.3862" y="-43.8" font-family="Helvetica,sans-Serif" font-size="11.00" fill="#000000"> &#160;</text>
</a>
</g>
</g>
<!-- resource_server_scope -->
<g id="node6" class="node">
<title>resource_server_scope</title>
<g id="a_node6"><a xlink:href="../../tables/resource_server_scope.html" xlink:title="resource_server_scope" target="_top">
<polygon fill="#ffffff" stroke="transparent" points="179,-88.2 179,-215.2 336,-215.2 336,-88.2 179,-88.2"/>
<polygon fill="#f5f5f5" stroke="transparent" points="179.5,-191.7 179.5,-214.7 336.5,-214.7 336.5,-191.7 179.5,-191.7"/>
<polygon fill="none" stroke="#000000" points="179.5,-191.7 179.5,-214.7 336.5,-214.7 336.5,-191.7 179.5,-191.7"/>
<text text-anchor="start" x="184.0443" y="-200.8" font-family="Helvetica,sans-Serif" font-weight="bold" font-size="11.00" fill="#000000">resource_server_scope</text>
<text text-anchor="start" x="302.0219" y="-199.8" font-family="Helvetica,sans-Serif" font-size="11.00" fill="#000000">[table]</text>
<polygon fill="none" stroke="#000000" points="179.5,-169.7 179.5,-191.7 336.5,-191.7 336.5,-169.7 179.5,-169.7"/>
<image xlink:href="../../images/primaryKeys.png" width="11px" height="12px" preserveAspectRatio="xMinYMin meet" x="184.5" y="-186.7"/>
<text text-anchor="start" x="200.5" y="-176.8" font-family="Helvetica,sans-Serif" font-size="11.00" fill="#000000">id</text>
<polygon fill="#ffffff" stroke="transparent" points="179.5,-147.7 179.5,-169.7 336.5,-169.7 336.5,-147.7 179.5,-147.7"/>
<polygon fill="none" stroke="#000000" points="179.5,-147.7 179.5,-169.7 336.5,-169.7 336.5,-147.7 179.5,-147.7"/>
<text text-anchor="start" x="200.5" y="-154.8" font-family="Helvetica,sans-Serif" font-size="11.00" fill="#000000">name</text>
<polygon fill="#ffffff" stroke="transparent" points="179.5,-125.7 179.5,-147.7 336.5,-147.7 336.5,-125.7 179.5,-125.7"/>
<polygon fill="none" stroke="#000000" points="179.5,-125.7 179.5,-147.7 336.5,-147.7 336.5,-125.7 179.5,-125.7"/>
<image xlink:href="../../images/foreignKeys.png" width="11px" height="12px" preserveAspectRatio="xMinYMin meet" x="184.5" y="-142.7"/>
<text text-anchor="start" x="200.5" y="-132.8" font-family="Helvetica,sans-Serif" font-size="11.00" fill="#000000">resource_server_id</text>
<polygon fill="none" stroke="#000000" points="179.5,-106.7 179.5,-125.7 336.5,-125.7 336.5,-106.7 179.5,-106.7"/>
<text text-anchor="start" x="182.5" y="-112.8" font-family="Helvetica,sans-Serif" font-size="11.00" fill="#000000">...</text>
<polygon fill="#ffffff" stroke="transparent" points="179.5,-87.7 179.5,-106.7 238.5,-106.7 238.5,-87.7 179.5,-87.7"/>
<polygon fill="none" stroke="#000000" points="179.5,-87.7 179.5,-106.7 238.5,-106.7 238.5,-87.7 179.5,-87.7"/>
<text text-anchor="start" x="182.5" y="-93.8" font-family="Helvetica,sans-Serif" font-size="11.00" fill="#000000">&lt; 1</text>
<polygon fill="#ffffff" stroke="transparent" points="238.5,-87.7 238.5,-106.7 295.5,-106.7 295.5,-87.7 238.5,-87.7"/>
<polygon fill="none" stroke="#000000" points="238.5,-87.7 238.5,-106.7 295.5,-106.7 295.5,-87.7 238.5,-87.7"/>
<text text-anchor="start" x="260.1105" y="-93.8" font-family="Helvetica,sans-Serif" font-size="11.00" fill="#000000">0 rows</text>
<polygon fill="#ffffff" stroke="transparent" points="295.5,-87.7 295.5,-106.7 336.5,-106.7 336.5,-87.7 295.5,-87.7"/>
<polygon fill="none" stroke="#000000" points="295.5,-87.7 295.5,-106.7 336.5,-106.7 336.5,-87.7 295.5,-87.7"/>
<text text-anchor="start" x="317.9053" y="-93.8" font-family="Helvetica,sans-Serif" font-size="11.00" fill="#000000">3 &gt;</text>
</a>
</g>
</g>
<!-- resource_scope&#45;&gt;resource_server_scope -->
<g id="edge5" class="edge">
<title>resource_scope:w&#45;&gt;resource_server_scope:e</title>
<path fill="none" stroke="#000000" d="M403.2667,-68.8966C390.8247,-75.8589 389.1308,-93.104 377,-109.7 355.5623,-139.0288 372.8284,-180.7 336.5,-180.7"/>
<polygon fill="#000000" stroke="#000000" points="409.6944,-67.4531 418.2889,-69.2125 413.5972,-66.5765 417.5,-65.7 417.5,-65.7 417.5,-65.7 413.5972,-66.5765 416.7111,-62.1875 409.6944,-67.4531 409.6944,-67.4531"/>
<ellipse fill="none" stroke="#000000" cx="406.5722" cy="-68.1543" rx="3.2" ry="3.2"/>
</g>
<!-- resource_server_scope&#45;&gt;resource_server -->
<g id="edge10" class="edge">
<title>resource_server_scope:w&#45;&gt;resource_server:e</title>
<path fill="none" stroke="#000000" d="M165.4458,-140.2989C135.3328,-159.8784 180.1415,-252.7 130,-252.7"/>
<polygon fill="#000000" stroke="#000000" points="171.7501,-138.6846 180.3931,-140.1875 175.625,-137.6923 179.5,-136.7 179.5,-136.7 179.5,-136.7 175.625,-137.6923 178.6069,-133.2125 171.7501,-138.6846 171.7501,-138.6846"/>
<ellipse fill="none" stroke="#000000" cx="168.6501" cy="-139.4784" rx="3.2" ry="3.2"/>
</g>
<!-- resource_server_perm_ticket -->
<g id="node7" class="node">
<title>resource_server_perm_ticket</title>
<g id="a_node7"><a xlink:href="../../tables/resource_server_perm_ticket.html" xlink:title="resource_server_perm_ticket" target="_top">
<polygon fill="#ffffff" stroke="transparent" points="385,-232.2 385,-293.2 570,-293.2 570,-232.2 385,-232.2"/>
<polygon fill="#f5f5f5" stroke="transparent" points="385.5,-269.7 385.5,-292.7 570.5,-292.7 570.5,-269.7 385.5,-269.7"/>
<polygon fill="none" stroke="#000000" points="385.5,-269.7 385.5,-292.7 570.5,-292.7 570.5,-269.7 385.5,-269.7"/>
<text text-anchor="start" x="390.2976" y="-278.8" font-family="Helvetica,sans-Serif" font-weight="bold" font-size="11.00" fill="#000000">resource_server_perm_ticket</text>
<text text-anchor="start" x="536.0219" y="-277.8" font-family="Helvetica,sans-Serif" font-size="11.00" fill="#000000">[table]</text>
<polygon fill="none" stroke="#000000" points="385.5,-250.7 385.5,-269.7 570.5,-269.7 570.5,-250.7 385.5,-250.7"/>
<text text-anchor="start" x="388.5" y="-256.8" font-family="Helvetica,sans-Serif" font-size="11.00" fill="#000000">...</text>
<polygon fill="#ffffff" stroke="transparent" points="385.5,-231.7 385.5,-250.7 463.5,-250.7 463.5,-231.7 385.5,-231.7"/>
<polygon fill="none" stroke="#000000" points="385.5,-231.7 385.5,-250.7 463.5,-250.7 463.5,-231.7 385.5,-231.7"/>
<text text-anchor="start" x="388.5" y="-237.8" font-family="Helvetica,sans-Serif" font-size="11.00" fill="#000000">&lt; 4</text>
<polygon fill="#ffffff" stroke="transparent" points="463.5,-231.7 463.5,-250.7 529.5,-250.7 529.5,-231.7 463.5,-231.7"/>
<polygon fill="none" stroke="#000000" points="463.5,-231.7 463.5,-250.7 529.5,-250.7 529.5,-231.7 463.5,-231.7"/>
<text text-anchor="start" x="494.1105" y="-237.8" font-family="Helvetica,sans-Serif" font-size="11.00" fill="#000000">0 rows</text>
<polygon fill="#ffffff" stroke="transparent" points="529.5,-231.7 529.5,-250.7 570.5,-250.7 570.5,-231.7 529.5,-231.7"/>
<polygon fill="none" stroke="#000000" points="529.5,-231.7 529.5,-250.7 570.5,-250.7 570.5,-231.7 529.5,-231.7"/>
<text text-anchor="start" x="561.3862" y="-237.8" font-family="Helvetica,sans-Serif" font-size="11.00" fill="#000000"> &#160;</text>
</a>
</g>
</g>
<!-- resource_server_perm_ticket&#45;&gt;resource_server_policy -->
<g id="edge6" class="edge">
<title>resource_server_perm_ticket:w&#45;&gt;resource_server_policy:e</title>
<path fill="none" stroke="#000000" d="M371.2039,-263.615C343.3776,-283.2103 383.1189,-369.7 335.5,-369.7"/>
<polygon fill="#000000" stroke="#000000" points="377.7841,-261.813 386.4509,-263.1722 381.642,-260.7565 385.5,-259.7 385.5,-259.7 385.5,-259.7 381.642,-260.7565 384.5491,-256.2278 377.7841,-261.813 377.7841,-261.813"/>
<ellipse fill="none" stroke="#000000" cx="374.6977" cy="-262.6582" rx="3.2" ry="3.2"/>
</g>
<!-- resource_server_perm_ticket&#45;&gt;resource_server_scope -->
<g id="edge8" class="edge">
<title>resource_server_perm_ticket:w&#45;&gt;resource_server_scope:e</title>
<path fill="none" stroke="#000000" d="M371.5652,-254.9948C352.5168,-237.9875 371.6837,-180.7 336.5,-180.7"/>
<polygon fill="#000000" stroke="#000000" points="377.9204,-257.1406 384.3483,-263.1108 381.7102,-258.4203 385.5,-259.7 385.5,-259.7 385.5,-259.7 381.7102,-258.4203 386.6517,-256.2892 377.9204,-257.1406 377.9204,-257.1406"/>
<ellipse fill="none" stroke="#000000" cx="374.8886" cy="-256.1169" rx="3.2" ry="3.2"/>
</g>
<!-- resource_server_perm_ticket&#45;&gt;resource_server -->
<g id="edge7" class="edge">
<title>resource_server_perm_ticket:w&#45;&gt;resource_server:e</title>
<path fill="none" stroke="#000000" d="M371.0034,-259.6606C269.2495,-259.0983 238.6061,-252.7 130,-252.7"/>
<polygon fill="#000000" stroke="#000000" points="377.5,-259.6782 385.4902,-263.3 381.5,-259.6891 385.5,-259.7 385.5,-259.7 385.5,-259.7 381.5,-259.6891 385.5098,-256.1 377.5,-259.6782 377.5,-259.6782"/>
<ellipse fill="none" stroke="#000000" cx="374.3" cy="-259.6695" rx="3.2" ry="3.2"/>
</g>
<!-- scope_policy -->
<g id="node9" class="node">
<title>scope_policy</title>
<g id="a_node9"><a xlink:href="../../tables/scope_policy.html" xlink:title="scope_policy" target="_top">
<polygon fill="#ffffff" stroke="transparent" points="396.5,-120.7 396.5,-210.7 558.5,-210.7 558.5,-120.7 396.5,-120.7"/>
<polygon fill="#f5f5f5" stroke="transparent" points="398.5,-185.7 398.5,-208.7 556.5,-208.7 556.5,-185.7 398.5,-185.7"/>
<polygon fill="none" stroke="#000000" points="398.5,-185.7 398.5,-208.7 556.5,-208.7 556.5,-185.7 398.5,-185.7"/>
<text text-anchor="start" x="403.5" y="-194.8" font-family="Helvetica,sans-Serif" font-weight="bold" font-size="11.00" fill="#000000">scope_policy</text>
<text text-anchor="start" x="521.5437" y="-193.8" font-family="Helvetica,sans-Serif" font-size="11.00" fill="#000000">[table]</text>
<polygon fill="none" stroke="#000000" points="398.5,-163.7 398.5,-185.7 495.5,-185.7 495.5,-163.7 398.5,-163.7"/>
<image xlink:href="../../images/primaryKeys.png" width="11px" height="12px" preserveAspectRatio="xMinYMin meet" x="403.5" y="-180.7"/>
<text text-anchor="start" x="418.5" y="-170.8" font-family="Helvetica,sans-Serif" font-size="11.00" fill="#000000">scope_id</text>
<polygon fill="none" stroke="#000000" points="495.5,-163.7 495.5,-185.7 556.5,-185.7 556.5,-163.7 495.5,-163.7"/>
<text text-anchor="start" x="498.494" y="-171.4" font-family="Helvetica,sans-Serif" font-size="11.00" fill="#000000">varchar[36]</text>
<polygon fill="none" stroke="#000000" points="398.5,-141.7 398.5,-163.7 495.5,-163.7 495.5,-141.7 398.5,-141.7"/>
<image xlink:href="../../images/primaryKeys.png" width="11px" height="12px" preserveAspectRatio="xMinYMin meet" x="403.5" y="-158.7"/>
<text text-anchor="start" x="418.5" y="-148.8" font-family="Helvetica,sans-Serif" font-size="11.00" fill="#000000">policy_id</text>
<polygon fill="none" stroke="#000000" points="495.5,-141.7 495.5,-163.7 556.5,-163.7 556.5,-141.7 495.5,-141.7"/>
<text text-anchor="start" x="498.494" y="-149.4" font-family="Helvetica,sans-Serif" font-size="11.00" fill="#000000">varchar[36]</text>
<polygon fill="#ffffff" stroke="transparent" points="398.5,-122.7 398.5,-141.7 438.5,-141.7 438.5,-122.7 398.5,-122.7"/>
<polygon fill="none" stroke="#000000" points="398.5,-122.7 398.5,-141.7 438.5,-141.7 438.5,-122.7 398.5,-122.7"/>
<text text-anchor="start" x="401.5" y="-128.8" font-family="Helvetica,sans-Serif" font-size="11.00" fill="#000000">&lt; 2</text>
<polygon fill="#ffffff" stroke="transparent" points="438.5,-122.7 438.5,-141.7 495.5,-141.7 495.5,-122.7 438.5,-122.7"/>
<polygon fill="none" stroke="#000000" points="438.5,-122.7 438.5,-141.7 495.5,-141.7 495.5,-122.7 438.5,-122.7"/>
<text text-anchor="start" x="460.1105" y="-128.8" font-family="Helvetica,sans-Serif" font-size="11.00" fill="#000000">0 rows</text>
<polygon fill="#ffffff" stroke="transparent" points="495.5,-122.7 495.5,-141.7 556.5,-141.7 556.5,-122.7 495.5,-122.7"/>
<polygon fill="none" stroke="#000000" points="495.5,-122.7 495.5,-141.7 556.5,-141.7 556.5,-122.7 495.5,-122.7"/>
<text text-anchor="start" x="537.9053" y="-128.8" font-family="Helvetica,sans-Serif" font-size="11.00" fill="#000000">0 &gt;</text>
<polygon fill="none" stroke="#000000" stroke-width="2" points="397.5,-121.7 397.5,-209.7 557.5,-209.7 557.5,-121.7 397.5,-121.7"/>
</a>
</g>
</g>
<!-- scope_policy&#45;&gt;resource_server_policy -->
<g id="edge11" class="edge">
<title>scope_policy:w&#45;&gt;resource_server_policy:e</title>
<path fill="none" stroke="#000000" d="M384.0837,-154.576C312.4384,-175.7854 430.4347,-369.7 335.5,-369.7"/>
<polygon fill="#000000" stroke="#000000" points="390.5669,-153.7324 398.9646,-156.2699 394.5334,-153.2162 398.5,-152.7 398.5,-152.7 398.5,-152.7 394.5334,-153.2162 398.0354,-149.1301 390.5669,-153.7324 390.5669,-153.7324"/>
<ellipse fill="none" stroke="#000000" cx="387.3936" cy="-154.1453" rx="3.2" ry="3.2"/>
</g>
<!-- scope_policy&#45;&gt;resource_server_scope -->
<g id="edge12" class="edge">
<title>scope_policy:w&#45;&gt;resource_server_scope:e</title>
<path fill="none" stroke="#000000" d="M383.8829,-175.3421C367.2531,-176.8899 358.5609,-180.7 336.5,-180.7"/>
<polygon fill="#000000" stroke="#000000" points="390.5077,-175.0511 398.658,-178.2965 394.5039,-174.8756 398.5,-174.7 398.5,-174.7 398.5,-174.7 394.5039,-174.8756 398.342,-171.1035 390.5077,-175.0511 390.5077,-175.0511"/>
<ellipse fill="none" stroke="#000000" cx="387.3108" cy="-175.1916" rx="3.2" ry="3.2"/>
</g>
</g>
</svg>
