<?xml version="1.0" encoding="UTF-8" standalone="no"?>
<!DOCTYPE svg PUBLIC "-//W3C//DTD SVG 1.1//EN"
 "http://www.w3.org/Graphics/SVG/1.1/DTD/svg11.dtd">
<!-- Generated by graphviz version 2.40.1 (20161225.0304)
 -->
<!-- Title: oneDegreeRelationshipsDiagramImplied Pages: 1 -->
<svg width="455pt" height="245pt"
 viewBox="0.00 0.00 455.00 244.70" xmlns="http://www.w3.org/2000/svg" xmlns:xlink="http://www.w3.org/1999/xlink">
<g id="graph0" class="graph" transform="scale(1 1) rotate(0) translate(4 240.7)">
<title>oneDegreeRelationshipsDiagramImplied</title>
<polygon fill="#ffffff" stroke="transparent" points="-4,4 -4,-240.7 451,-240.7 451,4 -4,4"/>
<text text-anchor="middle" x="72.4936" y="-7.3" font-family="Helvetica,sans-Serif" font-size="11.00" fill="#000000">Generated by SchemaSpy</text>
<!-- user_role_mapping -->
<g id="node1" class="node">
<title>user_role_mapping</title>
<g id="a_node1"><a xlink:href="../../tables/user_role_mapping.html" xlink:title="user_role_mapping" target="_top">
<polygon fill="#ffffff" stroke="transparent" points="237,-142.7 237,-232.7 439,-232.7 439,-142.7 237,-142.7"/>
<polygon fill="#f5f5f5" stroke="transparent" points="239,-207.7 239,-230.7 437,-230.7 437,-207.7 239,-207.7"/>
<polygon fill="none" stroke="#000000" points="239,-207.7 239,-230.7 437,-230.7 437,-207.7 239,-207.7"/>
<text text-anchor="start" x="244" y="-216.8" font-family="Helvetica,sans-Serif" font-weight="bold" font-size="11.00" fill="#000000">user_role_mapping</text>
<text text-anchor="start" x="402.0437" y="-215.8" font-family="Helvetica,sans-Serif" font-size="11.00" fill="#000000">[table]</text>
<polygon fill="none" stroke="#000000" points="239,-185.7 239,-207.7 370,-207.7 370,-185.7 239,-185.7"/>
<image xlink:href="../../images/primaryKeys.png" width="11px" height="12px" preserveAspectRatio="xMinYMin meet" x="244" y="-202.7"/>
<text text-anchor="start" x="259" y="-192.8" font-family="Helvetica,sans-Serif" font-size="11.00" fill="#000000">role_id</text>
<polygon fill="none" stroke="#000000" points="370,-185.7 370,-207.7 437,-207.7 437,-185.7 370,-185.7"/>
<text text-anchor="start" x="372.9365" y="-193.4" font-family="Helvetica,sans-Serif" font-size="11.00" fill="#000000">varchar[255]</text>
<polygon fill="none" stroke="#000000" points="239,-163.7 239,-185.7 370,-185.7 370,-163.7 239,-163.7"/>
<image xlink:href="../../images/primaryKeys.png" width="11px" height="12px" preserveAspectRatio="xMinYMin meet" x="244" y="-180.7"/>
<text text-anchor="start" x="259" y="-170.8" font-family="Helvetica,sans-Serif" font-size="11.00" fill="#000000">user_id</text>
<polygon fill="none" stroke="#000000" points="370,-163.7 370,-185.7 437,-185.7 437,-163.7 370,-163.7"/>
<text text-anchor="start" x="373" y="-171.4" font-family="Helvetica,sans-Serif" font-size="11.00" fill="#000000">varchar[36]</text>
<polygon fill="#ffffff" stroke="transparent" points="239,-144.7 239,-163.7 296,-163.7 296,-144.7 239,-144.7"/>
<polygon fill="none" stroke="#000000" points="239,-144.7 239,-163.7 296,-163.7 296,-144.7 239,-144.7"/>
<text text-anchor="start" x="242" y="-150.8" font-family="Helvetica,sans-Serif" font-size="11.00" fill="#000000">&lt; 1</text>
<polygon fill="#ffffff" stroke="transparent" points="296,-144.7 296,-163.7 370,-163.7 370,-144.7 296,-144.7"/>
<polygon fill="none" stroke="#000000" points="296,-144.7 296,-163.7 370,-163.7 370,-144.7 296,-144.7"/>
<text text-anchor="start" x="334.6105" y="-150.8" font-family="Helvetica,sans-Serif" font-size="11.00" fill="#000000">5 rows</text>
<polygon fill="#ffffff" stroke="transparent" points="370,-144.7 370,-163.7 437,-163.7 437,-144.7 370,-144.7"/>
<polygon fill="none" stroke="#000000" points="370,-144.7 370,-163.7 437,-163.7 437,-144.7 370,-144.7"/>
<text text-anchor="start" x="418.4053" y="-150.8" font-family="Helvetica,sans-Serif" font-size="11.00" fill="#000000">0 &gt;</text>
<polygon fill="none" stroke="#000000" stroke-width="2" points="238,-143.7 238,-231.7 438,-231.7 438,-143.7 238,-143.7"/>
</a>
</g>
</g>
<!-- user_entity -->
<g id="node2" class="node">
<title>user_entity</title>
<g id="a_node2"><a xlink:href="../../tables/user_entity.html" xlink:title="user_entity" target="_top">
<polygon fill="#ffffff" stroke="transparent" points="8,-38.2 8,-209.2 188,-209.2 188,-38.2 8,-38.2"/>
<polygon fill="#f5f5f5" stroke="transparent" points="8,-185.7 8,-208.7 188,-208.7 188,-185.7 8,-185.7"/>
<polygon fill="none" stroke="#000000" points="8,-185.7 8,-208.7 188,-208.7 188,-185.7 8,-185.7"/>
<text text-anchor="start" x="13" y="-194.8" font-family="Helvetica,sans-Serif" font-weight="bold" font-size="11.00" fill="#000000">user_entity</text>
<text text-anchor="start" x="153.0437" y="-193.8" font-family="Helvetica,sans-Serif" font-size="11.00" fill="#000000">[table]</text>
<polygon fill="none" stroke="#000000" points="8,-163.7 8,-185.7 188,-185.7 188,-163.7 8,-163.7"/>
<image xlink:href="../../images/primaryKeys.png" width="11px" height="12px" preserveAspectRatio="xMinYMin meet" x="13" y="-180.7"/>
<text text-anchor="start" x="28" y="-170.8" font-family="Helvetica,sans-Serif" font-size="11.00" fill="#000000">id</text>
<polygon fill="#ffffff" stroke="transparent" points="8,-141.7 8,-163.7 188,-163.7 188,-141.7 8,-141.7"/>
<polygon fill="none" stroke="#000000" points="8,-141.7 8,-163.7 188,-163.7 188,-141.7 8,-141.7"/>
<text text-anchor="start" x="28" y="-148.8" font-family="Helvetica,sans-Serif" font-size="11.00" fill="#000000">email</text>
<polygon fill="#ffffff" stroke="transparent" points="8,-119.7 8,-141.7 188,-141.7 188,-119.7 8,-119.7"/>
<polygon fill="none" stroke="#000000" points="8,-119.7 8,-141.7 188,-141.7 188,-119.7 8,-119.7"/>
<text text-anchor="start" x="28" y="-126.8" font-family="Helvetica,sans-Serif" font-size="11.00" fill="#000000">email_constraint</text>
<polygon fill="#ffffff" stroke="transparent" points="8,-97.7 8,-119.7 188,-119.7 188,-97.7 8,-97.7"/>
<polygon fill="none" stroke="#000000" points="8,-97.7 8,-119.7 188,-119.7 188,-97.7 8,-97.7"/>
<image xlink:href="../../images/foreignKeys.png" width="11px" height="12px" preserveAspectRatio="xMinYMin meet" x="13" y="-114.7"/>
<text text-anchor="start" x="28" y="-104.8" font-family="Helvetica,sans-Serif" font-size="11.00" fill="#000000">realm_id</text>
<polygon fill="#ffffff" stroke="transparent" points="8,-75.7 8,-97.7 188,-97.7 188,-75.7 8,-75.7"/>
<polygon fill="none" stroke="#000000" points="8,-75.7 8,-97.7 188,-97.7 188,-75.7 8,-75.7"/>
<text text-anchor="start" x="28" y="-82.8" font-family="Helvetica,sans-Serif" font-size="11.00" fill="#000000">username</text>
<polygon fill="none" stroke="#000000" points="8,-56.7 8,-75.7 188,-75.7 188,-56.7 8,-56.7"/>
<text text-anchor="start" x="11" y="-62.8" font-family="Helvetica,sans-Serif" font-size="11.00" fill="#000000">...</text>
<polygon fill="#ffffff" stroke="transparent" points="8,-37.7 8,-56.7 77,-56.7 77,-37.7 8,-37.7"/>
<polygon fill="none" stroke="#000000" points="8,-37.7 8,-56.7 77,-56.7 77,-37.7 8,-37.7"/>
<text text-anchor="start" x="11" y="-43.8" font-family="Helvetica,sans-Serif" font-size="11.00" fill="#000000"> &#160;</text>
<polygon fill="#ffffff" stroke="transparent" points="77,-37.7 77,-56.7 138,-56.7 138,-37.7 77,-37.7"/>
<polygon fill="none" stroke="#000000" points="77,-37.7 77,-56.7 138,-56.7 138,-37.7 77,-37.7"/>
<text text-anchor="start" x="108.1105" y="-43.8" font-family="Helvetica,sans-Serif" font-size="11.00" fill="#000000">1 row</text>
<polygon fill="#ffffff" stroke="transparent" points="138,-37.7 138,-56.7 188,-56.7 188,-37.7 138,-37.7"/>
<polygon fill="none" stroke="#000000" points="138,-37.7 138,-56.7 188,-56.7 188,-37.7 138,-37.7"/>
<text text-anchor="start" x="169.4053" y="-43.8" font-family="Helvetica,sans-Serif" font-size="11.00" fill="#000000">7 &gt;</text>
</a>
</g>
</g>
<!-- user_role_mapping&#45;&gt;user_entity -->
<g id="edge1" class="edge">
<title>user_role_mapping:w&#45;&gt;user_entity:e</title>
<path fill="none" stroke="#000000" d="M224.276,-174.7C212.2815,-174.7 204.8229,-174.7 188,-174.7"/>
<polygon fill="#000000" stroke="#000000" points="231,-174.7001 239,-178.3 235,-174.7 239,-174.7 239,-174.7 239,-174.7 235,-174.7 239,-171.1 231,-174.7001 231,-174.7001"/>
<ellipse fill="none" stroke="#000000" cx="227.8" cy="-174.7001" rx="3.2" ry="3.2"/>
</g>
</g>
</svg>
