<?xml version="1.0" encoding="UTF-8" standalone="no"?>
<!DOCTYPE svg PUBLIC "-//W3C//DTD SVG 1.1//EN"
 "http://www.w3.org/Graphics/SVG/1.1/DTD/svg11.dtd">
<!-- Generated by graphviz version 2.40.1 (20161225.0304)
 -->
<!-- Title: oneDegreeRelationshipsDiagramImplied Pages: 1 -->
<svg width="604pt" height="400pt"
 viewBox="0.00 0.00 604.00 400.03" xmlns="http://www.w3.org/2000/svg" xmlns:xlink="http://www.w3.org/1999/xlink">
<g id="graph0" class="graph" transform="scale(1 1) rotate(0) translate(4 396.0337)">
<title>oneDegreeRelationshipsDiagramImplied</title>
<polygon fill="#ffffff" stroke="transparent" points="-4,4 -4,-396.0337 600,-396.0337 600,4 -4,4"/>
<text text-anchor="middle" x="72.4936" y="-7.3" font-family="Helvetica,sans-Serif" font-size="11.00" fill="#000000">Generated by SchemaSpy</text>
<!-- client_session -->
<g id="node1" class="node">
<title>client_session</title>
<g id="a_node1"><a xlink:href="../../tables/client_session.html" xlink:title="client_session" target="_top">
<polygon fill="#ffffff" stroke="transparent" points="464.5,-69.5337 464.5,-196.5337 576.5,-196.5337 576.5,-69.5337 464.5,-69.5337"/>
<polygon fill="#f5f5f5" stroke="transparent" points="464.5,-173.0337 464.5,-196.0337 576.5,-196.0337 576.5,-173.0337 464.5,-173.0337"/>
<polygon fill="none" stroke="#000000" points="464.5,-173.0337 464.5,-196.0337 576.5,-196.0337 576.5,-173.0337 464.5,-173.0337"/>
<text text-anchor="start" x="469.4655" y="-182.1337" font-family="Helvetica,sans-Serif" font-weight="bold" font-size="11.00" fill="#000000">client_session</text>
<text text-anchor="start" x="542.0219" y="-181.1337" font-family="Helvetica,sans-Serif" font-size="11.00" fill="#000000">[table]</text>
<polygon fill="none" stroke="#000000" points="464.5,-151.0337 464.5,-173.0337 576.5,-173.0337 576.5,-151.0337 464.5,-151.0337"/>
<image xlink:href="../../images/primaryKeys.png" width="11px" height="12px" preserveAspectRatio="xMinYMin meet" x="469.5" y="-168.034"/>
<text text-anchor="start" x="488.5" y="-158.1337" font-family="Helvetica,sans-Serif" font-size="11.00" fill="#000000">id</text>
<polygon fill="#ffffff" stroke="transparent" points="464.5,-129.0337 464.5,-151.0337 576.5,-151.0337 576.5,-129.0337 464.5,-129.0337"/>
<polygon fill="none" stroke="#000000" points="464.5,-129.0337 464.5,-151.0337 576.5,-151.0337 576.5,-129.0337 464.5,-129.0337"/>
<image xlink:href="../../images/foreignKeys.png" width="11px" height="12px" preserveAspectRatio="xMinYMin meet" x="469.5" y="-146.034"/>
<text text-anchor="start" x="488.5" y="-136.1337" font-family="Helvetica,sans-Serif" font-size="11.00" fill="#000000">session_id</text>
<polygon fill="none" stroke="#000000" points="464.5,-107.0337 464.5,-129.0337 576.5,-129.0337 576.5,-107.0337 464.5,-107.0337"/>
<image xlink:href="../../images/foreignKeys.png" width="11px" height="12px" preserveAspectRatio="xMinYMin meet" x="469.5" y="-124.034"/>
<text text-anchor="start" x="488.5" y="-114.1337" font-family="Helvetica,sans-Serif" font-size="11.00" fill="#000000">realm_id</text>
<polygon fill="none" stroke="#000000" points="464.5,-88.0337 464.5,-107.0337 576.5,-107.0337 576.5,-88.0337 464.5,-88.0337"/>
<text text-anchor="start" x="467.5" y="-94.1337" font-family="Helvetica,sans-Serif" font-size="11.00" fill="#000000">...</text>
<polygon fill="#ffffff" stroke="transparent" points="464.5,-69.0337 464.5,-88.0337 501.5,-88.0337 501.5,-69.0337 464.5,-69.0337"/>
<polygon fill="none" stroke="#000000" points="464.5,-69.0337 464.5,-88.0337 501.5,-88.0337 501.5,-69.0337 464.5,-69.0337"/>
<text text-anchor="start" x="467.5" y="-75.1337" font-family="Helvetica,sans-Serif" font-size="11.00" fill="#000000">&lt; 2</text>
<polygon fill="#ffffff" stroke="transparent" points="501.5,-69.0337 501.5,-88.0337 547.5,-88.0337 547.5,-69.0337 501.5,-69.0337"/>
<polygon fill="none" stroke="#000000" points="501.5,-69.0337 501.5,-88.0337 547.5,-88.0337 547.5,-69.0337 501.5,-69.0337"/>
<text text-anchor="start" x="512.1105" y="-75.1337" font-family="Helvetica,sans-Serif" font-size="11.00" fill="#000000">0 rows</text>
<polygon fill="#ffffff" stroke="transparent" points="547.5,-69.0337 547.5,-88.0337 576.5,-88.0337 576.5,-69.0337 547.5,-69.0337"/>
<polygon fill="none" stroke="#000000" points="547.5,-69.0337 547.5,-88.0337 576.5,-88.0337 576.5,-69.0337 547.5,-69.0337"/>
<text text-anchor="start" x="557.9053" y="-75.1337" font-family="Helvetica,sans-Serif" font-size="11.00" fill="#000000">5 &gt;</text>
</a>
</g>
</g>
<!-- federated_user -->
<g id="node2" class="node">
<title>federated_user</title>
<g id="a_node2"><a xlink:href="../../tables/federated_user.html" xlink:title="federated_user" target="_top">
<polygon fill="#ffffff" stroke="transparent" points="8,-83.5337 8,-166.5337 144,-166.5337 144,-83.5337 8,-83.5337"/>
<polygon fill="#f5f5f5" stroke="transparent" points="8,-143.0337 8,-166.0337 144,-166.0337 144,-143.0337 8,-143.0337"/>
<polygon fill="none" stroke="#000000" points="8,-143.0337 8,-166.0337 144,-166.0337 144,-143.0337 8,-143.0337"/>
<text text-anchor="start" x="13" y="-152.1337" font-family="Helvetica,sans-Serif" font-weight="bold" font-size="11.00" fill="#000000">federated_user</text>
<text text-anchor="start" x="109.0437" y="-151.1337" font-family="Helvetica,sans-Serif" font-size="11.00" fill="#000000">[table]</text>
<polygon fill="none" stroke="#000000" points="8,-121.0337 8,-143.0337 144,-143.0337 144,-121.0337 8,-121.0337"/>
<image xlink:href="../../images/primaryKeys.png" width="11px" height="12px" preserveAspectRatio="xMinYMin meet" x="13" y="-138.034"/>
<text text-anchor="start" x="28" y="-128.1337" font-family="Helvetica,sans-Serif" font-size="11.00" fill="#000000">id</text>
<polygon fill="none" stroke="#000000" points="8,-102.0337 8,-121.0337 144,-121.0337 144,-102.0337 8,-102.0337"/>
<text text-anchor="start" x="11" y="-108.1337" font-family="Helvetica,sans-Serif" font-size="11.00" fill="#000000">...</text>
<polygon fill="#ffffff" stroke="transparent" points="8,-83.0337 8,-102.0337 49,-102.0337 49,-83.0337 8,-83.0337"/>
<polygon fill="none" stroke="#000000" points="8,-83.0337 8,-102.0337 49,-102.0337 49,-83.0337 8,-83.0337"/>
<text text-anchor="start" x="11" y="-89.1337" font-family="Helvetica,sans-Serif" font-size="11.00" fill="#000000"> &#160;</text>
<polygon fill="#ffffff" stroke="transparent" points="49,-83.0337 49,-102.0337 102,-102.0337 102,-83.0337 49,-83.0337"/>
<polygon fill="none" stroke="#000000" points="49,-83.0337 49,-102.0337 102,-102.0337 102,-83.0337 49,-83.0337"/>
<text text-anchor="start" x="66.6105" y="-89.1337" font-family="Helvetica,sans-Serif" font-size="11.00" fill="#000000">0 rows</text>
<polygon fill="#ffffff" stroke="transparent" points="102,-83.0337 102,-102.0337 144,-102.0337 144,-83.0337 102,-83.0337"/>
<polygon fill="none" stroke="#000000" points="102,-83.0337 102,-102.0337 144,-102.0337 144,-83.0337 102,-83.0337"/>
<text text-anchor="start" x="119.2904" y="-89.1337" font-family="Helvetica,sans-Serif" font-size="11.00" fill="#000000">30 &gt;</text>
</a>
</g>
</g>
<!-- client_session&#45;&gt;federated_user -->
<g id="edge1" class="edge">
<title>client_session:w&#45;&gt;federated_user:e</title>
<path fill="none" stroke="#000000" stroke-dasharray="5,2" d="M450.1584,-114.3753C434.3675,-104.4282 436.4916,-76.9712 412,-67.0337 318.5135,-29.1016 273.3427,-18.3086 185,-67.0337 155.0917,-83.5295 178.1558,-132.0337 144,-132.0337"/>
<polygon fill="#000000" stroke="#000000" points="456.7482,-116.0563 463.6101,-121.522 460.6241,-117.045 464.5,-118.0337 464.5,-118.0337 464.5,-118.0337 460.6241,-117.045 465.3899,-114.5454 456.7482,-116.0563 456.7482,-116.0563"/>
<ellipse fill="none" stroke="#000000" cx="453.6475" cy="-115.2653" rx="3.2" ry="3.2"/>
</g>
<!-- user_session -->
<g id="node3" class="node">
<title>user_session</title>
<g id="a_node3"><a xlink:href="../../tables/user_session.html" xlink:title="user_session" target="_top">
<polygon fill="#ffffff" stroke="transparent" points="193,-78.0337 193,-388.0337 404,-388.0337 404,-78.0337 193,-78.0337"/>
<polygon fill="#f5f5f5" stroke="transparent" points="195.5,-363.0337 195.5,-386.0337 402.5,-386.0337 402.5,-363.0337 195.5,-363.0337"/>
<polygon fill="none" stroke="#000000" points="195.5,-363.0337 195.5,-386.0337 402.5,-386.0337 402.5,-363.0337 195.5,-363.0337"/>
<text text-anchor="start" x="200.5" y="-372.1337" font-family="Helvetica,sans-Serif" font-weight="bold" font-size="11.00" fill="#000000">user_session</text>
<text text-anchor="start" x="367.5437" y="-371.1337" font-family="Helvetica,sans-Serif" font-size="11.00" fill="#000000">[table]</text>
<polygon fill="none" stroke="#000000" points="195.5,-341.0337 195.5,-363.0337 335.5,-363.0337 335.5,-341.0337 195.5,-341.0337"/>
<image xlink:href="../../images/primaryKeys.png" width="11px" height="12px" preserveAspectRatio="xMinYMin meet" x="200.5" y="-358.034"/>
<text text-anchor="start" x="215.5" y="-348.1337" font-family="Helvetica,sans-Serif" font-size="11.00" fill="#000000">id</text>
<polygon fill="none" stroke="#000000" points="335.5,-341.0337 335.5,-363.0337 402.5,-363.0337 402.5,-341.0337 335.5,-341.0337"/>
<text text-anchor="start" x="338.5" y="-348.7337" font-family="Helvetica,sans-Serif" font-size="11.00" fill="#000000">varchar[36]</text>
<polygon fill="none" stroke="#000000" points="195.5,-319.0337 195.5,-341.0337 335.5,-341.0337 335.5,-319.0337 195.5,-319.0337"/>
<text text-anchor="start" x="215.5" y="-326.1337" font-family="Helvetica,sans-Serif" font-size="11.00" fill="#000000">auth_method</text>
<polygon fill="none" stroke="#000000" points="335.5,-319.0337 335.5,-341.0337 402.5,-341.0337 402.5,-319.0337 335.5,-319.0337"/>
<text text-anchor="start" x="338.4365" y="-326.7337" font-family="Helvetica,sans-Serif" font-size="11.00" fill="#000000">varchar[255]</text>
<polygon fill="none" stroke="#000000" points="195.5,-297.0337 195.5,-319.0337 335.5,-319.0337 335.5,-297.0337 195.5,-297.0337"/>
<text text-anchor="start" x="215.5" y="-304.1337" font-family="Helvetica,sans-Serif" font-size="11.00" fill="#000000">ip_address</text>
<polygon fill="none" stroke="#000000" points="335.5,-297.0337 335.5,-319.0337 402.5,-319.0337 402.5,-297.0337 335.5,-297.0337"/>
<text text-anchor="start" x="338.4365" y="-304.7337" font-family="Helvetica,sans-Serif" font-size="11.00" fill="#000000">varchar[255]</text>
<polygon fill="none" stroke="#000000" points="195.5,-275.0337 195.5,-297.0337 335.5,-297.0337 335.5,-275.0337 195.5,-275.0337"/>
<text text-anchor="start" x="215.5" y="-282.1337" font-family="Helvetica,sans-Serif" font-size="11.00" fill="#000000">last_session_refresh</text>
<polygon fill="none" stroke="#000000" points="335.5,-275.0337 335.5,-297.0337 402.5,-297.0337 402.5,-275.0337 335.5,-275.0337"/>
<text text-anchor="start" x="338.5" y="-282.7337" font-family="Helvetica,sans-Serif" font-size="11.00" fill="#000000">int4[10]</text>
<polygon fill="none" stroke="#000000" points="195.5,-253.0337 195.5,-275.0337 335.5,-275.0337 335.5,-253.0337 195.5,-253.0337"/>
<text text-anchor="start" x="215.5" y="-260.1337" font-family="Helvetica,sans-Serif" font-size="11.00" fill="#000000">login_username</text>
<polygon fill="none" stroke="#000000" points="335.5,-253.0337 335.5,-275.0337 402.5,-275.0337 402.5,-253.0337 335.5,-253.0337"/>
<text text-anchor="start" x="338.4365" y="-260.7337" font-family="Helvetica,sans-Serif" font-size="11.00" fill="#000000">varchar[255]</text>
<polygon fill="none" stroke="#000000" points="195.5,-231.0337 195.5,-253.0337 335.5,-253.0337 335.5,-231.0337 195.5,-231.0337"/>
<image xlink:href="../../images/foreignKeys.png" width="11px" height="12px" preserveAspectRatio="xMinYMin meet" x="200.5" y="-248.034"/>
<text text-anchor="start" x="215.5" y="-238.1337" font-family="Helvetica,sans-Serif" font-size="11.00" fill="#000000">realm_id</text>
<polygon fill="none" stroke="#000000" points="335.5,-231.0337 335.5,-253.0337 402.5,-253.0337 402.5,-231.0337 335.5,-231.0337"/>
<text text-anchor="start" x="338.4365" y="-238.7337" font-family="Helvetica,sans-Serif" font-size="11.00" fill="#000000">varchar[255]</text>
<polygon fill="none" stroke="#000000" points="195.5,-209.0337 195.5,-231.0337 335.5,-231.0337 335.5,-209.0337 195.5,-209.0337"/>
<text text-anchor="start" x="215.5" y="-216.1337" font-family="Helvetica,sans-Serif" font-size="11.00" fill="#000000">remember_me</text>
<polygon fill="none" stroke="#000000" points="335.5,-209.0337 335.5,-231.0337 402.5,-231.0337 402.5,-209.0337 335.5,-209.0337"/>
<text text-anchor="start" x="338.5" y="-216.7337" font-family="Helvetica,sans-Serif" font-size="11.00" fill="#000000">bool[1]</text>
<polygon fill="none" stroke="#000000" points="195.5,-187.0337 195.5,-209.0337 335.5,-209.0337 335.5,-187.0337 195.5,-187.0337"/>
<text text-anchor="start" x="215.5" y="-194.1337" font-family="Helvetica,sans-Serif" font-size="11.00" fill="#000000">started</text>
<polygon fill="none" stroke="#000000" points="335.5,-187.0337 335.5,-209.0337 402.5,-209.0337 402.5,-187.0337 335.5,-187.0337"/>
<text text-anchor="start" x="338.5" y="-194.7337" font-family="Helvetica,sans-Serif" font-size="11.00" fill="#000000">int4[10]</text>
<polygon fill="none" stroke="#000000" points="195.5,-165.0337 195.5,-187.0337 335.5,-187.0337 335.5,-165.0337 195.5,-165.0337"/>
<image xlink:href="../../images/foreignKeys.png" width="11px" height="12px" preserveAspectRatio="xMinYMin meet" x="200.5" y="-182.034"/>
<text text-anchor="start" x="215.5" y="-172.1337" font-family="Helvetica,sans-Serif" font-size="11.00" fill="#000000">user_id</text>
<polygon fill="none" stroke="#000000" points="335.5,-165.0337 335.5,-187.0337 402.5,-187.0337 402.5,-165.0337 335.5,-165.0337"/>
<text text-anchor="start" x="338.4365" y="-172.7337" font-family="Helvetica,sans-Serif" font-size="11.00" fill="#000000">varchar[255]</text>
<polygon fill="none" stroke="#000000" points="195.5,-143.0337 195.5,-165.0337 335.5,-165.0337 335.5,-143.0337 195.5,-143.0337"/>
<text text-anchor="start" x="215.5" y="-150.1337" font-family="Helvetica,sans-Serif" font-size="11.00" fill="#000000">user_session_state</text>
<polygon fill="none" stroke="#000000" points="335.5,-143.0337 335.5,-165.0337 402.5,-165.0337 402.5,-143.0337 335.5,-143.0337"/>
<text text-anchor="start" x="338.5" y="-150.7337" font-family="Helvetica,sans-Serif" font-size="11.00" fill="#000000">int4[10]</text>
<polygon fill="none" stroke="#000000" points="195.5,-121.0337 195.5,-143.0337 335.5,-143.0337 335.5,-121.0337 195.5,-121.0337"/>
<image xlink:href="../../images/foreignKeys.png" width="11px" height="12px" preserveAspectRatio="xMinYMin meet" x="200.5" y="-138.034"/>
<text text-anchor="start" x="215.5" y="-128.1337" font-family="Helvetica,sans-Serif" font-size="11.00" fill="#000000">broker_session_id</text>
<polygon fill="none" stroke="#000000" points="335.5,-121.0337 335.5,-143.0337 402.5,-143.0337 402.5,-121.0337 335.5,-121.0337"/>
<text text-anchor="start" x="338.4365" y="-128.7337" font-family="Helvetica,sans-Serif" font-size="11.00" fill="#000000">varchar[255]</text>
<polygon fill="none" stroke="#000000" points="195.5,-99.0337 195.5,-121.0337 335.5,-121.0337 335.5,-99.0337 195.5,-99.0337"/>
<image xlink:href="../../images/foreignKeys.png" width="11px" height="12px" preserveAspectRatio="xMinYMin meet" x="200.5" y="-116.034"/>
<text text-anchor="start" x="215.5" y="-106.1337" font-family="Helvetica,sans-Serif" font-size="11.00" fill="#000000">broker_user_id</text>
<polygon fill="none" stroke="#000000" points="335.5,-99.0337 335.5,-121.0337 402.5,-121.0337 402.5,-99.0337 335.5,-99.0337"/>
<text text-anchor="start" x="338.4365" y="-106.7337" font-family="Helvetica,sans-Serif" font-size="11.00" fill="#000000">varchar[255]</text>
<polygon fill="#ffffff" stroke="transparent" points="195.5,-80.0337 195.5,-99.0337 256.5,-99.0337 256.5,-80.0337 195.5,-80.0337"/>
<polygon fill="none" stroke="#000000" points="195.5,-80.0337 195.5,-99.0337 256.5,-99.0337 256.5,-80.0337 195.5,-80.0337"/>
<text text-anchor="start" x="198.5" y="-86.1337" font-family="Helvetica,sans-Serif" font-size="11.00" fill="#000000">&lt; 4</text>
<polygon fill="#ffffff" stroke="transparent" points="256.5,-80.0337 256.5,-99.0337 335.5,-99.0337 335.5,-80.0337 256.5,-80.0337"/>
<polygon fill="none" stroke="#000000" points="256.5,-80.0337 256.5,-99.0337 335.5,-99.0337 335.5,-80.0337 256.5,-80.0337"/>
<text text-anchor="start" x="300.1105" y="-86.1337" font-family="Helvetica,sans-Serif" font-size="11.00" fill="#000000">0 rows</text>
<polygon fill="#ffffff" stroke="transparent" points="335.5,-80.0337 335.5,-99.0337 402.5,-99.0337 402.5,-80.0337 335.5,-80.0337"/>
<polygon fill="none" stroke="#000000" points="335.5,-80.0337 335.5,-99.0337 402.5,-99.0337 402.5,-80.0337 335.5,-80.0337"/>
<text text-anchor="start" x="383.9053" y="-86.1337" font-family="Helvetica,sans-Serif" font-size="11.00" fill="#000000">2 &gt;</text>
<polygon fill="none" stroke="#000000" stroke-width="2" points="194,-79.0337 194,-387.0337 403,-387.0337 403,-79.0337 194,-79.0337"/>
</a>
</g>
</g>
<!-- client_session&#45;&gt;user_session -->
<g id="edge2" class="edge">
<title>client_session:w&#45;&gt;user_session:e</title>
<path fill="none" stroke="#000000" d="M449.9722,-141.9971C380.8031,-163.3692 495.1086,-352.0337 402.5,-352.0337"/>
<polygon fill="#000000" stroke="#000000" points="456.5721,-141.1052 464.9822,-143.6013 460.536,-140.5695 464.5,-140.0337 464.5,-140.0337 464.5,-140.0337 460.536,-140.5695 464.0178,-136.4662 456.5721,-141.1052 456.5721,-141.1052"/>
<ellipse fill="none" stroke="#000000" cx="453.4009" cy="-141.5338" rx="3.2" ry="3.2"/>
</g>
<!-- user_session&#45;&gt;federated_user -->
<g id="edge3" class="edge">
<title>user_session:w&#45;&gt;federated_user:e</title>
<path fill="none" stroke="#000000" stroke-dasharray="5,2" d="M181.0156,-132.0337C168.6771,-132.0337 161.1667,-132.0337 144,-132.0337"/>
<polygon fill="#000000" stroke="#000000" points="187.5,-132.0338 195.5,-135.6337 191.5,-132.0338 195.5,-132.0337 195.5,-132.0337 195.5,-132.0337 191.5,-132.0338 195.5,-128.4337 187.5,-132.0338 187.5,-132.0338"/>
<ellipse fill="none" stroke="#000000" cx="184.3" cy="-132.0338" rx="3.2" ry="3.2"/>
</g>
<!-- user_session&#45;&gt;federated_user -->
<g id="edge4" class="edge">
<title>user_session:w&#45;&gt;federated_user:e</title>
<path fill="none" stroke="#000000" stroke-dasharray="5,2" d="M181.2209,-113.0927C168.531,-119.1377 163.0563,-132.0337 144,-132.0337"/>
<polygon fill="#000000" stroke="#000000" points="187.6775,-111.7096 196.2541,-113.5539 191.5887,-110.8717 195.5,-110.0337 195.5,-110.0337 195.5,-110.0337 191.5887,-110.8717 194.7459,-106.5136 187.6775,-111.7096 187.6775,-111.7096"/>
<ellipse fill="none" stroke="#000000" cx="184.5485" cy="-112.3799" rx="3.2" ry="3.2"/>
</g>
<!-- user_session&#45;&gt;federated_user -->
<g id="edge5" class="edge">
<title>user_session:w&#45;&gt;federated_user:e</title>
<path fill="none" stroke="#000000" stroke-dasharray="5,2" d="M181.462,-238.3738C152.5484,-219.2871 192.0775,-132.0337 144,-132.0337"/>
<polygon fill="#000000" stroke="#000000" points="187.7588,-240.0155 194.5918,-245.5173 191.6294,-241.0246 195.5,-242.0337 195.5,-242.0337 195.5,-242.0337 191.6294,-241.0246 196.4082,-238.5502 187.7588,-240.0155 187.7588,-240.0155"/>
<ellipse fill="none" stroke="#000000" cx="184.6623" cy="-239.2081" rx="3.2" ry="3.2"/>
</g>
<!-- user_session&#45;&gt;federated_user -->
<g id="edge6" class="edge">
<title>user_session:w&#45;&gt;federated_user:e</title>
<path fill="none" stroke="#000000" stroke-dasharray="5,2" d="M181.7239,-171.654C167.3166,-160.5247 168.2253,-132.0337 144,-132.0337"/>
<polygon fill="#000000" stroke="#000000" points="187.876,-173.6098 194.4093,-179.4645 191.688,-174.8218 195.5,-176.0337 195.5,-176.0337 195.5,-176.0337 191.688,-174.8218 196.5907,-172.6029 187.876,-173.6098 187.876,-173.6098"/>
<ellipse fill="none" stroke="#000000" cx="184.8264" cy="-172.6403" rx="3.2" ry="3.2"/>
</g>
<!-- user_session_note -->
<g id="node4" class="node">
<title>user_session_note</title>
<g id="a_node4"><a xlink:href="../../tables/user_session_note.html" xlink:title="user_session_note" target="_top">
<polygon fill="#ffffff" stroke="transparent" points="453,-281.5337 453,-386.5337 588,-386.5337 588,-281.5337 453,-281.5337"/>
<polygon fill="#f5f5f5" stroke="transparent" points="453.5,-363.0337 453.5,-386.0337 588.5,-386.0337 588.5,-363.0337 453.5,-363.0337"/>
<polygon fill="none" stroke="#000000" points="453.5,-363.0337 453.5,-386.0337 588.5,-386.0337 588.5,-363.0337 453.5,-363.0337"/>
<text text-anchor="start" x="458.3457" y="-372.1337" font-family="Helvetica,sans-Serif" font-weight="bold" font-size="11.00" fill="#000000">user_session_note</text>
<text text-anchor="start" x="554.0219" y="-371.1337" font-family="Helvetica,sans-Serif" font-size="11.00" fill="#000000">[table]</text>
<polygon fill="none" stroke="#000000" points="453.5,-341.0337 453.5,-363.0337 588.5,-363.0337 588.5,-341.0337 453.5,-341.0337"/>
<image xlink:href="../../images/primaryKeys.png" width="11px" height="12px" preserveAspectRatio="xMinYMin meet" x="458.5" y="-358.034"/>
<text text-anchor="start" x="476.5" y="-348.1337" font-family="Helvetica,sans-Serif" font-size="11.00" fill="#000000">user_session</text>
<polygon fill="none" stroke="#000000" points="453.5,-319.0337 453.5,-341.0337 588.5,-341.0337 588.5,-319.0337 453.5,-319.0337"/>
<image xlink:href="../../images/primaryKeys.png" width="11px" height="12px" preserveAspectRatio="xMinYMin meet" x="458.5" y="-336.034"/>
<text text-anchor="start" x="476.5" y="-326.1337" font-family="Helvetica,sans-Serif" font-size="11.00" fill="#000000">name</text>
<polygon fill="none" stroke="#000000" points="453.5,-300.0337 453.5,-319.0337 588.5,-319.0337 588.5,-300.0337 453.5,-300.0337"/>
<text text-anchor="start" x="456.5" y="-306.1337" font-family="Helvetica,sans-Serif" font-size="11.00" fill="#000000">...</text>
<polygon fill="#ffffff" stroke="transparent" points="453.5,-281.0337 453.5,-300.0337 506.5,-300.0337 506.5,-281.0337 453.5,-281.0337"/>
<polygon fill="none" stroke="#000000" points="453.5,-281.0337 453.5,-300.0337 506.5,-300.0337 506.5,-281.0337 453.5,-281.0337"/>
<text text-anchor="start" x="456.5" y="-287.1337" font-family="Helvetica,sans-Serif" font-size="11.00" fill="#000000">&lt; 1</text>
<polygon fill="#ffffff" stroke="transparent" points="506.5,-281.0337 506.5,-300.0337 560.5,-300.0337 560.5,-281.0337 506.5,-281.0337"/>
<polygon fill="none" stroke="#000000" points="506.5,-281.0337 506.5,-300.0337 560.5,-300.0337 560.5,-281.0337 506.5,-281.0337"/>
<text text-anchor="start" x="525.1105" y="-287.1337" font-family="Helvetica,sans-Serif" font-size="11.00" fill="#000000">0 rows</text>
<polygon fill="#ffffff" stroke="transparent" points="560.5,-281.0337 560.5,-300.0337 588.5,-300.0337 588.5,-281.0337 560.5,-281.0337"/>
<polygon fill="none" stroke="#000000" points="560.5,-281.0337 560.5,-300.0337 588.5,-300.0337 588.5,-281.0337 560.5,-281.0337"/>
<text text-anchor="start" x="579.3862" y="-287.1337" font-family="Helvetica,sans-Serif" font-size="11.00" fill="#000000"> &#160;</text>
</a>
</g>
</g>
<!-- user_session_note&#45;&gt;user_session -->
<g id="edge7" class="edge">
<title>user_session_note:w&#45;&gt;user_session:e</title>
<path fill="none" stroke="#000000" d="M438.776,-352.0337C426.7815,-352.0337 419.3229,-352.0337 402.5,-352.0337"/>
<polygon fill="#000000" stroke="#000000" points="445.5,-352.0338 453.5,-355.6337 449.5,-352.0338 453.5,-352.0337 453.5,-352.0337 453.5,-352.0337 449.5,-352.0338 453.5,-348.4337 445.5,-352.0338 445.5,-352.0338"/>
<ellipse fill="none" stroke="#000000" cx="442.3" cy="-352.0338" rx="3.2" ry="3.2"/>
</g>
</g>
</svg>
