<?xml version="1.0" encoding="UTF-8" standalone="no"?>
<!DOCTYPE svg PUBLIC "-//W3C//DTD SVG 1.1//EN"
 "http://www.w3.org/Graphics/SVG/1.1/DTD/svg11.dtd">
<!-- Generated by graphviz version 2.40.1 (20161225.0304)
 -->
<!-- Title: oneDegreeRelationshipsDiagram Pages: 1 -->
<svg width="754pt" height="361pt"
 viewBox="0.00 0.00 754.00 360.70" xmlns="http://www.w3.org/2000/svg" xmlns:xlink="http://www.w3.org/1999/xlink">
<g id="graph0" class="graph" transform="scale(1 1) rotate(0) translate(4 356.7)">
<title>oneDegreeRelationshipsDiagram</title>
<polygon fill="#ffffff" stroke="transparent" points="-4,4 -4,-356.7 750,-356.7 750,4 -4,4"/>
<text text-anchor="middle" x="72.4936" y="-7.3" font-family="Helvetica,sans-Serif" font-size="11.00" fill="#000000">Generated by SchemaSpy</text>
<!-- user_federation_config -->
<g id="node1" class="node">
<title>user_federation_config</title>
<g id="a_node1"><a xlink:href="../../tables/user_federation_config.html" xlink:title="user_federation_config" target="_top">
<polygon fill="#ffffff" stroke="transparent" points="555,-242.2 555,-347.2 738,-347.2 738,-242.2 555,-242.2"/>
<polygon fill="#f5f5f5" stroke="transparent" points="555.5,-323.7 555.5,-346.7 738.5,-346.7 738.5,-323.7 555.5,-323.7"/>
<polygon fill="none" stroke="#000000" points="555.5,-323.7 555.5,-346.7 738.5,-346.7 738.5,-323.7 555.5,-323.7"/>
<text text-anchor="start" x="560.5" y="-332.8" font-family="Helvetica,sans-Serif" font-weight="bold" font-size="11.00" fill="#000000">user_federation_config</text>
<text text-anchor="start" x="703.5437" y="-331.8" font-family="Helvetica,sans-Serif" font-size="11.00" fill="#000000">[table]</text>
<polygon fill="none" stroke="#000000" points="555.5,-301.7 555.5,-323.7 738.5,-323.7 738.5,-301.7 555.5,-301.7"/>
<image xlink:href="../../images/primaryKeys.png" width="11px" height="12px" preserveAspectRatio="xMinYMin meet" x="560.5" y="-318.7"/>
<text text-anchor="start" x="575.5" y="-308.8" font-family="Helvetica,sans-Serif" font-size="11.00" fill="#000000">user_federation_provider_id</text>
<polygon fill="none" stroke="#000000" points="555.5,-279.7 555.5,-301.7 738.5,-301.7 738.5,-279.7 555.5,-279.7"/>
<image xlink:href="../../images/primaryKeys.png" width="11px" height="12px" preserveAspectRatio="xMinYMin meet" x="560.5" y="-296.7"/>
<text text-anchor="start" x="575.5" y="-286.8" font-family="Helvetica,sans-Serif" font-size="11.00" fill="#000000">name</text>
<polygon fill="none" stroke="#000000" points="555.5,-260.7 555.5,-279.7 738.5,-279.7 738.5,-260.7 555.5,-260.7"/>
<text text-anchor="start" x="558.5" y="-266.8" font-family="Helvetica,sans-Serif" font-size="11.00" fill="#000000">...</text>
<polygon fill="#ffffff" stroke="transparent" points="555.5,-241.7 555.5,-260.7 632.5,-260.7 632.5,-241.7 555.5,-241.7"/>
<polygon fill="none" stroke="#000000" points="555.5,-241.7 555.5,-260.7 632.5,-260.7 632.5,-241.7 555.5,-241.7"/>
<text text-anchor="start" x="558.5" y="-247.8" font-family="Helvetica,sans-Serif" font-size="11.00" fill="#000000">&lt; 1</text>
<polygon fill="#ffffff" stroke="transparent" points="632.5,-241.7 632.5,-260.7 698.5,-260.7 698.5,-241.7 632.5,-241.7"/>
<polygon fill="none" stroke="#000000" points="632.5,-241.7 632.5,-260.7 698.5,-260.7 698.5,-241.7 632.5,-241.7"/>
<text text-anchor="start" x="663.1105" y="-247.8" font-family="Helvetica,sans-Serif" font-size="11.00" fill="#000000">0 rows</text>
<polygon fill="#ffffff" stroke="transparent" points="698.5,-241.7 698.5,-260.7 738.5,-260.7 738.5,-241.7 698.5,-241.7"/>
<polygon fill="none" stroke="#000000" points="698.5,-241.7 698.5,-260.7 738.5,-260.7 738.5,-241.7 698.5,-241.7"/>
<text text-anchor="start" x="729.3862" y="-247.8" font-family="Helvetica,sans-Serif" font-size="11.00" fill="#000000"> &#160;</text>
</a>
</g>
</g>
<!-- user_federation_provider -->
<g id="node2" class="node">
<title>user_federation_provider</title>
<g id="a_node2"><a xlink:href="../../tables/user_federation_provider.html" xlink:title="user_federation_provider" target="_top">
<polygon fill="#ffffff" stroke="transparent" points="270,-126.7 270,-348.7 506,-348.7 506,-126.7 270,-126.7"/>
<polygon fill="#f5f5f5" stroke="transparent" points="272,-323.7 272,-346.7 504,-346.7 504,-323.7 272,-323.7"/>
<polygon fill="none" stroke="#000000" points="272,-323.7 272,-346.7 504,-346.7 504,-323.7 272,-323.7"/>
<text text-anchor="start" x="277" y="-332.8" font-family="Helvetica,sans-Serif" font-weight="bold" font-size="11.00" fill="#000000">user_federation_provider</text>
<text text-anchor="start" x="469.0437" y="-331.8" font-family="Helvetica,sans-Serif" font-size="11.00" fill="#000000">[table]</text>
<polygon fill="none" stroke="#000000" points="272,-301.7 272,-323.7 437,-323.7 437,-301.7 272,-301.7"/>
<image xlink:href="../../images/primaryKeys.png" width="11px" height="12px" preserveAspectRatio="xMinYMin meet" x="277" y="-318.7"/>
<text text-anchor="start" x="292" y="-308.8" font-family="Helvetica,sans-Serif" font-size="11.00" fill="#000000">id</text>
<polygon fill="none" stroke="#000000" points="437,-301.7 437,-323.7 504,-323.7 504,-301.7 437,-301.7"/>
<text text-anchor="start" x="440" y="-309.4" font-family="Helvetica,sans-Serif" font-size="11.00" fill="#000000">varchar[36]</text>
<polygon fill="none" stroke="#000000" points="272,-279.7 272,-301.7 437,-301.7 437,-279.7 272,-279.7"/>
<text text-anchor="start" x="292" y="-286.8" font-family="Helvetica,sans-Serif" font-size="11.00" fill="#000000">changed_sync_period</text>
<polygon fill="none" stroke="#000000" points="437,-279.7 437,-301.7 504,-301.7 504,-279.7 437,-279.7"/>
<text text-anchor="start" x="440" y="-287.4" font-family="Helvetica,sans-Serif" font-size="11.00" fill="#000000">int4[10]</text>
<polygon fill="none" stroke="#000000" points="272,-257.7 272,-279.7 437,-279.7 437,-257.7 272,-257.7"/>
<text text-anchor="start" x="292" y="-264.8" font-family="Helvetica,sans-Serif" font-size="11.00" fill="#000000">display_name</text>
<polygon fill="none" stroke="#000000" points="437,-257.7 437,-279.7 504,-279.7 504,-257.7 437,-257.7"/>
<text text-anchor="start" x="439.9365" y="-265.4" font-family="Helvetica,sans-Serif" font-size="11.00" fill="#000000">varchar[255]</text>
<polygon fill="none" stroke="#000000" points="272,-235.7 272,-257.7 437,-257.7 437,-235.7 272,-235.7"/>
<text text-anchor="start" x="292" y="-242.8" font-family="Helvetica,sans-Serif" font-size="11.00" fill="#000000">full_sync_period</text>
<polygon fill="none" stroke="#000000" points="437,-235.7 437,-257.7 504,-257.7 504,-235.7 437,-235.7"/>
<text text-anchor="start" x="440" y="-243.4" font-family="Helvetica,sans-Serif" font-size="11.00" fill="#000000">int4[10]</text>
<polygon fill="none" stroke="#000000" points="272,-213.7 272,-235.7 437,-235.7 437,-213.7 272,-213.7"/>
<text text-anchor="start" x="292" y="-220.8" font-family="Helvetica,sans-Serif" font-size="11.00" fill="#000000">last_sync</text>
<polygon fill="none" stroke="#000000" points="437,-213.7 437,-235.7 504,-235.7 504,-213.7 437,-213.7"/>
<text text-anchor="start" x="440" y="-221.4" font-family="Helvetica,sans-Serif" font-size="11.00" fill="#000000">int4[10]</text>
<polygon fill="none" stroke="#000000" points="272,-191.7 272,-213.7 437,-213.7 437,-191.7 272,-191.7"/>
<text text-anchor="start" x="292" y="-198.8" font-family="Helvetica,sans-Serif" font-size="11.00" fill="#000000">priority</text>
<polygon fill="none" stroke="#000000" points="437,-191.7 437,-213.7 504,-213.7 504,-191.7 437,-191.7"/>
<text text-anchor="start" x="440" y="-199.4" font-family="Helvetica,sans-Serif" font-size="11.00" fill="#000000">int4[10]</text>
<polygon fill="none" stroke="#000000" points="272,-169.7 272,-191.7 437,-191.7 437,-169.7 272,-169.7"/>
<text text-anchor="start" x="292" y="-176.8" font-family="Helvetica,sans-Serif" font-size="11.00" fill="#000000">provider_name</text>
<polygon fill="none" stroke="#000000" points="437,-169.7 437,-191.7 504,-191.7 504,-169.7 437,-169.7"/>
<text text-anchor="start" x="439.9365" y="-177.4" font-family="Helvetica,sans-Serif" font-size="11.00" fill="#000000">varchar[255]</text>
<polygon fill="#ffffff" stroke="transparent" points="272,-147.7 272,-169.7 437,-169.7 437,-147.7 272,-147.7"/>
<polygon fill="none" stroke="#000000" points="272,-147.7 272,-169.7 437,-169.7 437,-147.7 272,-147.7"/>
<image xlink:href="../../images/foreignKeys.png" width="11px" height="12px" preserveAspectRatio="xMinYMin meet" x="277" y="-164.7"/>
<text text-anchor="start" x="292" y="-154.8" font-family="Helvetica,sans-Serif" font-size="11.00" fill="#000000">realm_id</text>
<polygon fill="none" stroke="#000000" points="437,-147.7 437,-169.7 504,-169.7 504,-147.7 437,-147.7"/>
<text text-anchor="start" x="440" y="-155.4" font-family="Helvetica,sans-Serif" font-size="11.00" fill="#000000">varchar[36]</text>
<polygon fill="#ffffff" stroke="transparent" points="272,-128.7 272,-147.7 346,-147.7 346,-128.7 272,-128.7"/>
<polygon fill="none" stroke="#000000" points="272,-128.7 272,-147.7 346,-147.7 346,-128.7 272,-128.7"/>
<text text-anchor="start" x="275" y="-134.8" font-family="Helvetica,sans-Serif" font-size="11.00" fill="#000000">&lt; 1</text>
<polygon fill="#ffffff" stroke="transparent" points="346,-128.7 346,-147.7 437,-147.7 437,-128.7 346,-128.7"/>
<polygon fill="none" stroke="#000000" points="346,-128.7 346,-147.7 437,-147.7 437,-128.7 346,-128.7"/>
<text text-anchor="start" x="401.6105" y="-134.8" font-family="Helvetica,sans-Serif" font-size="11.00" fill="#000000">0 rows</text>
<polygon fill="#ffffff" stroke="transparent" points="437,-128.7 437,-147.7 504,-147.7 504,-128.7 437,-128.7"/>
<polygon fill="none" stroke="#000000" points="437,-128.7 437,-147.7 504,-147.7 504,-128.7 437,-128.7"/>
<text text-anchor="start" x="485.4053" y="-134.8" font-family="Helvetica,sans-Serif" font-size="11.00" fill="#000000">2 &gt;</text>
<polygon fill="none" stroke="#000000" stroke-width="2" points="271,-127.7 271,-347.7 505,-347.7 505,-127.7 271,-127.7"/>
</a>
</g>
</g>
<!-- user_federation_config&#45;&gt;user_federation_provider -->
<g id="edge1" class="edge">
<title>user_federation_config:w&#45;&gt;user_federation_provider:e</title>
<path fill="none" stroke="#000000" d="M541.0156,-312.7C528.6771,-312.7 521.1667,-312.7 504,-312.7"/>
<polygon fill="#000000" stroke="#000000" points="547.5,-312.7001 555.5,-316.3 551.5,-312.7 555.5,-312.7 555.5,-312.7 555.5,-312.7 551.5,-312.7 555.5,-309.1 547.5,-312.7001 547.5,-312.7001"/>
<ellipse fill="none" stroke="#000000" cx="544.3" cy="-312.7001" rx="3.2" ry="3.2"/>
</g>
<!-- realm -->
<g id="node4" class="node">
<title>realm</title>
<g id="a_node4"><a xlink:href="../../tables/realm.html" xlink:title="realm" target="_top">
<polygon fill="#ffffff" stroke="transparent" points="8,-38.2 8,-165.2 221,-165.2 221,-38.2 8,-38.2"/>
<polygon fill="#f5f5f5" stroke="transparent" points="8.5,-141.7 8.5,-164.7 221.5,-164.7 221.5,-141.7 8.5,-141.7"/>
<polygon fill="none" stroke="#000000" points="8.5,-141.7 8.5,-164.7 221.5,-164.7 221.5,-141.7 8.5,-141.7"/>
<text text-anchor="start" x="13.5" y="-150.8" font-family="Helvetica,sans-Serif" font-weight="bold" font-size="11.00" fill="#000000">realm</text>
<text text-anchor="start" x="186.5437" y="-149.8" font-family="Helvetica,sans-Serif" font-size="11.00" fill="#000000">[table]</text>
<polygon fill="none" stroke="#000000" points="8.5,-119.7 8.5,-141.7 221.5,-141.7 221.5,-119.7 8.5,-119.7"/>
<image xlink:href="../../images/primaryKeys.png" width="11px" height="12px" preserveAspectRatio="xMinYMin meet" x="13.5" y="-136.7"/>
<text text-anchor="start" x="28.5" y="-126.8" font-family="Helvetica,sans-Serif" font-size="11.00" fill="#000000">id</text>
<polygon fill="#ffffff" stroke="transparent" points="8.5,-97.7 8.5,-119.7 221.5,-119.7 221.5,-97.7 8.5,-97.7"/>
<polygon fill="none" stroke="#000000" points="8.5,-97.7 8.5,-119.7 221.5,-119.7 221.5,-97.7 8.5,-97.7"/>
<text text-anchor="start" x="28.5" y="-104.8" font-family="Helvetica,sans-Serif" font-size="11.00" fill="#000000">name</text>
<polygon fill="#ffffff" stroke="transparent" points="8.5,-75.7 8.5,-97.7 221.5,-97.7 221.5,-75.7 8.5,-75.7"/>
<polygon fill="none" stroke="#000000" points="8.5,-75.7 8.5,-97.7 221.5,-97.7 221.5,-75.7 8.5,-75.7"/>
<text text-anchor="start" x="28.5" y="-82.8" font-family="Helvetica,sans-Serif" font-size="11.00" fill="#000000">master_admin_client</text>
<polygon fill="none" stroke="#000000" points="8.5,-56.7 8.5,-75.7 221.5,-75.7 221.5,-56.7 8.5,-56.7"/>
<text text-anchor="start" x="11.5" y="-62.8" font-family="Helvetica,sans-Serif" font-size="11.00" fill="#000000">...</text>
<polygon fill="#ffffff" stroke="transparent" points="8.5,-37.7 8.5,-56.7 91.5,-56.7 91.5,-37.7 8.5,-37.7"/>
<polygon fill="none" stroke="#000000" points="8.5,-37.7 8.5,-56.7 91.5,-56.7 91.5,-37.7 8.5,-37.7"/>
<text text-anchor="start" x="11.5" y="-43.8" font-family="Helvetica,sans-Serif" font-size="11.00" fill="#000000"> &#160;</text>
<polygon fill="#ffffff" stroke="transparent" points="91.5,-37.7 91.5,-56.7 158.5,-56.7 158.5,-37.7 91.5,-37.7"/>
<polygon fill="none" stroke="#000000" points="91.5,-37.7 91.5,-56.7 158.5,-56.7 158.5,-37.7 91.5,-37.7"/>
<text text-anchor="start" x="128.6105" y="-43.8" font-family="Helvetica,sans-Serif" font-size="11.00" fill="#000000">1 row</text>
<polygon fill="#ffffff" stroke="transparent" points="158.5,-37.7 158.5,-56.7 221.5,-56.7 221.5,-37.7 158.5,-37.7"/>
<polygon fill="none" stroke="#000000" points="158.5,-37.7 158.5,-56.7 221.5,-56.7 221.5,-37.7 158.5,-37.7"/>
<text text-anchor="start" x="196.7904" y="-43.8" font-family="Helvetica,sans-Serif" font-size="11.00" fill="#000000">23 &gt;</text>
</a>
</g>
</g>
<!-- user_federation_provider&#45;&gt;realm -->
<g id="edge4" class="edge">
<title>user_federation_provider:w&#45;&gt;realm:e</title>
<path fill="none" stroke="#000000" d="M258.02,-155.0395C245.3515,-147.4498 241.3491,-130.7 221.5,-130.7"/>
<polygon fill="#000000" stroke="#000000" points="264.2609,-156.6736 271.0881,-162.1826 268.1304,-157.6868 272,-158.7 272,-158.7 272,-158.7 268.1304,-157.6868 272.9119,-155.2174 264.2609,-156.6736 264.2609,-156.6736"/>
<ellipse fill="none" stroke="#000000" cx="261.1653" cy="-155.863" rx="3.2" ry="3.2"/>
</g>
<!-- user_federation_mapper -->
<g id="node3" class="node">
<title>user_federation_mapper</title>
<g id="a_node3"><a xlink:href="../../tables/user_federation_mapper.html" xlink:title="user_federation_mapper" target="_top">
<polygon fill="#ffffff" stroke="transparent" points="565.5,-74.2 565.5,-201.2 727.5,-201.2 727.5,-74.2 565.5,-74.2"/>
<polygon fill="#f5f5f5" stroke="transparent" points="565.5,-177.7 565.5,-200.7 727.5,-200.7 727.5,-177.7 565.5,-177.7"/>
<polygon fill="none" stroke="#000000" points="565.5,-177.7 565.5,-200.7 727.5,-200.7 727.5,-177.7 565.5,-177.7"/>
<text text-anchor="start" x="570.0946" y="-186.8" font-family="Helvetica,sans-Serif" font-weight="bold" font-size="11.00" fill="#000000">user_federation_mapper</text>
<text text-anchor="start" x="693.0219" y="-185.8" font-family="Helvetica,sans-Serif" font-size="11.00" fill="#000000">[table]</text>
<polygon fill="none" stroke="#000000" points="565.5,-155.7 565.5,-177.7 727.5,-177.7 727.5,-155.7 565.5,-155.7"/>
<image xlink:href="../../images/primaryKeys.png" width="11px" height="12px" preserveAspectRatio="xMinYMin meet" x="570.5" y="-172.7"/>
<text text-anchor="start" x="586.5" y="-162.8" font-family="Helvetica,sans-Serif" font-size="11.00" fill="#000000">id</text>
<polygon fill="#ffffff" stroke="transparent" points="565.5,-133.7 565.5,-155.7 727.5,-155.7 727.5,-133.7 565.5,-133.7"/>
<polygon fill="none" stroke="#000000" points="565.5,-133.7 565.5,-155.7 727.5,-155.7 727.5,-133.7 565.5,-133.7"/>
<image xlink:href="../../images/foreignKeys.png" width="11px" height="12px" preserveAspectRatio="xMinYMin meet" x="570.5" y="-150.7"/>
<text text-anchor="start" x="586.5" y="-140.8" font-family="Helvetica,sans-Serif" font-size="11.00" fill="#000000">federation_provider_id</text>
<polygon fill="#ffffff" stroke="transparent" points="565.5,-111.7 565.5,-133.7 727.5,-133.7 727.5,-111.7 565.5,-111.7"/>
<polygon fill="none" stroke="#000000" points="565.5,-111.7 565.5,-133.7 727.5,-133.7 727.5,-111.7 565.5,-111.7"/>
<image xlink:href="../../images/foreignKeys.png" width="11px" height="12px" preserveAspectRatio="xMinYMin meet" x="570.5" y="-128.7"/>
<text text-anchor="start" x="586.5" y="-118.8" font-family="Helvetica,sans-Serif" font-size="11.00" fill="#000000">realm_id</text>
<polygon fill="none" stroke="#000000" points="565.5,-92.7 565.5,-111.7 727.5,-111.7 727.5,-92.7 565.5,-92.7"/>
<text text-anchor="start" x="568.5" y="-98.8" font-family="Helvetica,sans-Serif" font-size="11.00" fill="#000000">...</text>
<polygon fill="#ffffff" stroke="transparent" points="565.5,-73.7 565.5,-92.7 627.5,-92.7 627.5,-73.7 565.5,-73.7"/>
<polygon fill="none" stroke="#000000" points="565.5,-73.7 565.5,-92.7 627.5,-92.7 627.5,-73.7 565.5,-73.7"/>
<text text-anchor="start" x="568.5" y="-79.8" font-family="Helvetica,sans-Serif" font-size="11.00" fill="#000000">&lt; 2</text>
<polygon fill="#ffffff" stroke="transparent" points="627.5,-73.7 627.5,-92.7 685.5,-92.7 685.5,-73.7 627.5,-73.7"/>
<polygon fill="none" stroke="#000000" points="627.5,-73.7 627.5,-92.7 685.5,-92.7 685.5,-73.7 627.5,-73.7"/>
<text text-anchor="start" x="650.1105" y="-79.8" font-family="Helvetica,sans-Serif" font-size="11.00" fill="#000000">0 rows</text>
<polygon fill="#ffffff" stroke="transparent" points="685.5,-73.7 685.5,-92.7 727.5,-92.7 727.5,-73.7 685.5,-73.7"/>
<polygon fill="none" stroke="#000000" points="685.5,-73.7 685.5,-92.7 727.5,-92.7 727.5,-73.7 685.5,-73.7"/>
<text text-anchor="start" x="708.9053" y="-79.8" font-family="Helvetica,sans-Serif" font-size="11.00" fill="#000000">1 &gt;</text>
</a>
</g>
</g>
<!-- user_federation_mapper&#45;&gt;user_federation_provider -->
<g id="edge2" class="edge">
<title>user_federation_mapper:w&#45;&gt;user_federation_provider:e</title>
<path fill="none" stroke="#000000" d="M551.2305,-147.0749C498.8268,-167.4944 577.9217,-312.7 504,-312.7"/>
<polygon fill="#000000" stroke="#000000" points="557.6085,-146.0134 566.091,-148.2512 561.5543,-145.3567 565.5,-144.7 565.5,-144.7 565.5,-144.7 561.5543,-145.3567 564.909,-141.1488 557.6085,-146.0134 557.6085,-146.0134"/>
<ellipse fill="none" stroke="#000000" cx="554.452" cy="-146.5388" rx="3.2" ry="3.2"/>
</g>
<!-- user_federation_mapper&#45;&gt;realm -->
<g id="edge3" class="edge">
<title>user_federation_mapper:w&#45;&gt;realm:e</title>
<path fill="none" stroke="#000000" d="M550.9666,-121.9503C538.6335,-120.5758 531.2537,-117.7017 514,-116.7 402.1883,-110.2086 372.4528,-98.148 262,-116.7 243.218,-119.8547 240.5451,-130.7 221.5,-130.7"/>
<polygon fill="#000000" stroke="#000000" points="557.5106,-122.2878 565.3145,-126.2952 561.5053,-122.4939 565.5,-122.7 565.5,-122.7 565.5,-122.7 561.5053,-122.4939 565.6855,-119.1048 557.5106,-122.2878 557.5106,-122.2878"/>
<ellipse fill="none" stroke="#000000" cx="554.3149" cy="-122.123" rx="3.2" ry="3.2"/>
</g>
</g>
</svg>
