<?xml version="1.0" encoding="UTF-8" standalone="no"?>
<!DOCTYPE svg PUBLIC "-//W3C//DTD SVG 1.1//EN"
 "http://www.w3.org/Graphics/SVG/1.1/DTD/svg11.dtd">
<!-- Generated by graphviz version 2.40.1 (20161225.0304)
 -->
<!-- Title: oneDegreeRelationshipsDiagramImplied Pages: 1 -->
<svg width="419pt" height="223pt"
 viewBox="0.00 0.00 419.00 222.70" xmlns="http://www.w3.org/2000/svg" xmlns:xlink="http://www.w3.org/1999/xlink">
<g id="graph0" class="graph" transform="scale(1 1) rotate(0) translate(4 218.7)">
<title>oneDegreeRelationshipsDiagramImplied</title>
<polygon fill="#ffffff" stroke="transparent" points="-4,4 -4,-218.7 415,-218.7 415,4 -4,4"/>
<text text-anchor="middle" x="72.4936" y="-7.3" font-family="Helvetica,sans-Serif" font-size="11.00" fill="#000000">Generated by SchemaSpy</text>
<!-- user_session_note -->
<g id="node1" class="node">
<title>user_session_note</title>
<g id="a_node1"><a xlink:href="../../tables/user_session_note.html" xlink:title="user_session_note" target="_top">
<polygon fill="#ffffff" stroke="transparent" points="197,-98.7 197,-210.7 403,-210.7 403,-98.7 197,-98.7"/>
<polygon fill="#f5f5f5" stroke="transparent" points="199,-185.7 199,-208.7 401,-208.7 401,-185.7 199,-185.7"/>
<polygon fill="none" stroke="#000000" points="199,-185.7 199,-208.7 401,-208.7 401,-185.7 199,-185.7"/>
<text text-anchor="start" x="204" y="-194.8" font-family="Helvetica,sans-Serif" font-weight="bold" font-size="11.00" fill="#000000">user_session_note</text>
<text text-anchor="start" x="366.0437" y="-193.8" font-family="Helvetica,sans-Serif" font-size="11.00" fill="#000000">[table]</text>
<polygon fill="none" stroke="#000000" points="199,-163.7 199,-185.7 328,-185.7 328,-163.7 199,-163.7"/>
<image xlink:href="../../images/primaryKeys.png" width="11px" height="12px" preserveAspectRatio="xMinYMin meet" x="204" y="-180.7"/>
<text text-anchor="start" x="219" y="-170.8" font-family="Helvetica,sans-Serif" font-size="11.00" fill="#000000">user_session</text>
<polygon fill="none" stroke="#000000" points="328,-163.7 328,-185.7 401,-185.7 401,-163.7 328,-163.7"/>
<text text-anchor="start" x="331" y="-171.4" font-family="Helvetica,sans-Serif" font-size="11.00" fill="#000000">varchar[36]</text>
<polygon fill="none" stroke="#000000" points="199,-141.7 199,-163.7 328,-163.7 328,-141.7 199,-141.7"/>
<image xlink:href="../../images/primaryKeys.png" width="11px" height="12px" preserveAspectRatio="xMinYMin meet" x="204" y="-158.7"/>
<text text-anchor="start" x="219" y="-148.8" font-family="Helvetica,sans-Serif" font-size="11.00" fill="#000000">name</text>
<polygon fill="none" stroke="#000000" points="328,-141.7 328,-163.7 401,-163.7 401,-141.7 328,-141.7"/>
<text text-anchor="start" x="331" y="-149.4" font-family="Helvetica,sans-Serif" font-size="11.00" fill="#000000">varchar[255]</text>
<polygon fill="none" stroke="#000000" points="199,-119.7 199,-141.7 328,-141.7 328,-119.7 199,-119.7"/>
<text text-anchor="start" x="219" y="-126.8" font-family="Helvetica,sans-Serif" font-size="11.00" fill="#000000">value</text>
<polygon fill="none" stroke="#000000" points="328,-119.7 328,-141.7 401,-141.7 401,-119.7 328,-119.7"/>
<text text-anchor="start" x="330.8791" y="-127.4" font-family="Helvetica,sans-Serif" font-size="11.00" fill="#000000">varchar[2048]</text>
<polygon fill="#ffffff" stroke="transparent" points="199,-100.7 199,-119.7 255,-119.7 255,-100.7 199,-100.7"/>
<polygon fill="none" stroke="#000000" points="199,-100.7 199,-119.7 255,-119.7 255,-100.7 199,-100.7"/>
<text text-anchor="start" x="202" y="-106.8" font-family="Helvetica,sans-Serif" font-size="11.00" fill="#000000">&lt; 1</text>
<polygon fill="#ffffff" stroke="transparent" points="255,-100.7 255,-119.7 328,-119.7 328,-100.7 255,-100.7"/>
<polygon fill="none" stroke="#000000" points="255,-100.7 255,-119.7 328,-119.7 328,-100.7 255,-100.7"/>
<text text-anchor="start" x="292.6105" y="-106.8" font-family="Helvetica,sans-Serif" font-size="11.00" fill="#000000">0 rows</text>
<polygon fill="#ffffff" stroke="transparent" points="328,-100.7 328,-119.7 401,-119.7 401,-100.7 328,-100.7"/>
<polygon fill="none" stroke="#000000" points="328,-100.7 328,-119.7 401,-119.7 401,-100.7 328,-100.7"/>
<text text-anchor="start" x="382.4053" y="-106.8" font-family="Helvetica,sans-Serif" font-size="11.00" fill="#000000">0 &gt;</text>
<polygon fill="none" stroke="#000000" stroke-width="2" points="198,-99.7 198,-209.7 402,-209.7 402,-99.7 198,-99.7"/>
</a>
</g>
</g>
<!-- user_session -->
<g id="node2" class="node">
<title>user_session</title>
<g id="a_node2"><a xlink:href="../../tables/user_session.html" xlink:title="user_session" target="_top">
<polygon fill="#ffffff" stroke="transparent" points="8,-38.2 8,-209.2 148,-209.2 148,-38.2 8,-38.2"/>
<polygon fill="#f5f5f5" stroke="transparent" points="8,-185.7 8,-208.7 148,-208.7 148,-185.7 8,-185.7"/>
<polygon fill="none" stroke="#000000" points="8,-185.7 8,-208.7 148,-208.7 148,-185.7 8,-185.7"/>
<text text-anchor="start" x="13" y="-194.8" font-family="Helvetica,sans-Serif" font-weight="bold" font-size="11.00" fill="#000000">user_session</text>
<text text-anchor="start" x="113.0437" y="-193.8" font-family="Helvetica,sans-Serif" font-size="11.00" fill="#000000">[table]</text>
<polygon fill="none" stroke="#000000" points="8,-163.7 8,-185.7 148,-185.7 148,-163.7 8,-163.7"/>
<image xlink:href="../../images/primaryKeys.png" width="11px" height="12px" preserveAspectRatio="xMinYMin meet" x="13" y="-180.7"/>
<text text-anchor="start" x="28" y="-170.8" font-family="Helvetica,sans-Serif" font-size="11.00" fill="#000000">id</text>
<polygon fill="none" stroke="#000000" points="8,-141.7 8,-163.7 148,-163.7 148,-141.7 8,-141.7"/>
<image xlink:href="../../images/foreignKeys.png" width="11px" height="12px" preserveAspectRatio="xMinYMin meet" x="13" y="-158.7"/>
<text text-anchor="start" x="28" y="-148.8" font-family="Helvetica,sans-Serif" font-size="11.00" fill="#000000">realm_id</text>
<polygon fill="none" stroke="#000000" points="8,-119.7 8,-141.7 148,-141.7 148,-119.7 8,-119.7"/>
<image xlink:href="../../images/foreignKeys.png" width="11px" height="12px" preserveAspectRatio="xMinYMin meet" x="13" y="-136.7"/>
<text text-anchor="start" x="28" y="-126.8" font-family="Helvetica,sans-Serif" font-size="11.00" fill="#000000">user_id</text>
<polygon fill="none" stroke="#000000" points="8,-97.7 8,-119.7 148,-119.7 148,-97.7 8,-97.7"/>
<image xlink:href="../../images/foreignKeys.png" width="11px" height="12px" preserveAspectRatio="xMinYMin meet" x="13" y="-114.7"/>
<text text-anchor="start" x="28" y="-104.8" font-family="Helvetica,sans-Serif" font-size="11.00" fill="#000000">broker_session_id</text>
<polygon fill="none" stroke="#000000" points="8,-75.7 8,-97.7 148,-97.7 148,-75.7 8,-75.7"/>
<image xlink:href="../../images/foreignKeys.png" width="11px" height="12px" preserveAspectRatio="xMinYMin meet" x="13" y="-92.7"/>
<text text-anchor="start" x="28" y="-82.8" font-family="Helvetica,sans-Serif" font-size="11.00" fill="#000000">broker_user_id</text>
<polygon fill="none" stroke="#000000" points="8,-56.7 8,-75.7 148,-75.7 148,-56.7 8,-56.7"/>
<text text-anchor="start" x="11" y="-62.8" font-family="Helvetica,sans-Serif" font-size="11.00" fill="#000000">...</text>
<polygon fill="#ffffff" stroke="transparent" points="8,-37.7 8,-56.7 54,-56.7 54,-37.7 8,-37.7"/>
<polygon fill="none" stroke="#000000" points="8,-37.7 8,-56.7 54,-56.7 54,-37.7 8,-37.7"/>
<text text-anchor="start" x="11" y="-43.8" font-family="Helvetica,sans-Serif" font-size="11.00" fill="#000000"> &#160;</text>
<polygon fill="#ffffff" stroke="transparent" points="54,-37.7 54,-56.7 109,-56.7 109,-37.7 54,-37.7"/>
<polygon fill="none" stroke="#000000" points="54,-37.7 54,-56.7 109,-56.7 109,-37.7 54,-37.7"/>
<text text-anchor="start" x="73.6105" y="-43.8" font-family="Helvetica,sans-Serif" font-size="11.00" fill="#000000">0 rows</text>
<polygon fill="#ffffff" stroke="transparent" points="109,-37.7 109,-56.7 148,-56.7 148,-37.7 109,-37.7"/>
<polygon fill="none" stroke="#000000" points="109,-37.7 109,-56.7 148,-56.7 148,-37.7 109,-37.7"/>
<text text-anchor="start" x="129.4053" y="-43.8" font-family="Helvetica,sans-Serif" font-size="11.00" fill="#000000">2 &gt;</text>
</a>
</g>
</g>
<!-- user_session_note&#45;&gt;user_session -->
<g id="edge1" class="edge">
<title>user_session_note:w&#45;&gt;user_session:e</title>
<path fill="none" stroke="#000000" d="M184.276,-174.7C172.2815,-174.7 164.8229,-174.7 148,-174.7"/>
<polygon fill="#000000" stroke="#000000" points="191,-174.7001 199,-178.3 195,-174.7 199,-174.7 199,-174.7 199,-174.7 195,-174.7 199,-171.1 191,-174.7001 191,-174.7001"/>
<ellipse fill="none" stroke="#000000" cx="187.8" cy="-174.7001" rx="3.2" ry="3.2"/>
</g>
</g>
</svg>
