<?xml version="1.0" encoding="UTF-8" standalone="no"?>
<!DOCTYPE svg PUBLIC "-//W3C//DTD SVG 1.1//EN"
 "http://www.w3.org/Graphics/SVG/1.1/DTD/svg11.dtd">
<!-- Generated by graphviz version 2.40.1 (20161225.0304)
 -->
<!-- Title: twoDegreesRelationshipsDiagramImplied Pages: 1 -->
<svg width="783pt" height="223pt"
 viewBox="0.00 0.00 783.00 222.70" xmlns="http://www.w3.org/2000/svg" xmlns:xlink="http://www.w3.org/1999/xlink">
<g id="graph0" class="graph" transform="scale(1 1) rotate(0) translate(4 218.7)">
<title>twoDegreesRelationshipsDiagramImplied</title>
<polygon fill="#ffffff" stroke="transparent" points="-4,4 -4,-218.7 779,-218.7 779,4 -4,4"/>
<text text-anchor="middle" x="72.4936" y="-7.3" font-family="Helvetica,sans-Serif" font-size="11.00" fill="#000000">Generated by SchemaSpy</text>
<!-- user_consent -->
<g id="node1" class="node">
<title>user_consent</title>
<g id="a_node1"><a xlink:href="../../tables/user_consent.html" xlink:title="user_consent" target="_top">
<polygon fill="#ffffff" stroke="transparent" points="318,-38.2 318,-209.2 475,-209.2 475,-38.2 318,-38.2"/>
<polygon fill="#f5f5f5" stroke="transparent" points="318.5,-185.7 318.5,-208.7 475.5,-208.7 475.5,-185.7 318.5,-185.7"/>
<polygon fill="none" stroke="#000000" points="318.5,-185.7 318.5,-208.7 475.5,-208.7 475.5,-185.7 318.5,-185.7"/>
<text text-anchor="start" x="323.5" y="-194.8" font-family="Helvetica,sans-Serif" font-weight="bold" font-size="11.00" fill="#000000">user_consent</text>
<text text-anchor="start" x="440.5437" y="-193.8" font-family="Helvetica,sans-Serif" font-size="11.00" fill="#000000">[table]</text>
<polygon fill="none" stroke="#000000" points="318.5,-163.7 318.5,-185.7 475.5,-185.7 475.5,-163.7 318.5,-163.7"/>
<image xlink:href="../../images/primaryKeys.png" width="11px" height="12px" preserveAspectRatio="xMinYMin meet" x="323.5" y="-180.7"/>
<text text-anchor="start" x="338.5" y="-170.8" font-family="Helvetica,sans-Serif" font-size="11.00" fill="#000000">id</text>
<polygon fill="#ffffff" stroke="transparent" points="318.5,-141.7 318.5,-163.7 475.5,-163.7 475.5,-141.7 318.5,-141.7"/>
<polygon fill="none" stroke="#000000" points="318.5,-141.7 318.5,-163.7 475.5,-163.7 475.5,-141.7 318.5,-141.7"/>
<image xlink:href="../../images/foreignKeys.png" width="11px" height="12px" preserveAspectRatio="xMinYMin meet" x="323.5" y="-158.7"/>
<text text-anchor="start" x="338.5" y="-148.8" font-family="Helvetica,sans-Serif" font-size="11.00" fill="#000000">client_id</text>
<polygon fill="#ffffff" stroke="transparent" points="318.5,-119.7 318.5,-141.7 475.5,-141.7 475.5,-119.7 318.5,-119.7"/>
<polygon fill="none" stroke="#000000" points="318.5,-119.7 318.5,-141.7 475.5,-141.7 475.5,-119.7 318.5,-119.7"/>
<image xlink:href="../../images/foreignKeys.png" width="11px" height="12px" preserveAspectRatio="xMinYMin meet" x="323.5" y="-136.7"/>
<text text-anchor="start" x="338.5" y="-126.8" font-family="Helvetica,sans-Serif" font-size="11.00" fill="#000000">user_id</text>
<polygon fill="#ffffff" stroke="transparent" points="318.5,-97.7 318.5,-119.7 475.5,-119.7 475.5,-97.7 318.5,-97.7"/>
<polygon fill="none" stroke="#000000" points="318.5,-97.7 318.5,-119.7 475.5,-119.7 475.5,-97.7 318.5,-97.7"/>
<text text-anchor="start" x="338.5" y="-104.8" font-family="Helvetica,sans-Serif" font-size="11.00" fill="#000000">client_storage_provider</text>
<polygon fill="#ffffff" stroke="transparent" points="318.5,-75.7 318.5,-97.7 475.5,-97.7 475.5,-75.7 318.5,-75.7"/>
<polygon fill="none" stroke="#000000" points="318.5,-75.7 318.5,-97.7 475.5,-97.7 475.5,-75.7 318.5,-75.7"/>
<image xlink:href="../../images/foreignKeys.png" width="11px" height="12px" preserveAspectRatio="xMinYMin meet" x="323.5" y="-92.7"/>
<text text-anchor="start" x="338.5" y="-82.8" font-family="Helvetica,sans-Serif" font-size="11.00" fill="#000000">external_client_id</text>
<polygon fill="none" stroke="#000000" points="318.5,-56.7 318.5,-75.7 475.5,-75.7 475.5,-56.7 318.5,-56.7"/>
<text text-anchor="start" x="321.5" y="-62.8" font-family="Helvetica,sans-Serif" font-size="11.00" fill="#000000">...</text>
<polygon fill="#ffffff" stroke="transparent" points="318.5,-37.7 318.5,-56.7 377.5,-56.7 377.5,-37.7 318.5,-37.7"/>
<polygon fill="none" stroke="#000000" points="318.5,-37.7 318.5,-56.7 377.5,-56.7 377.5,-37.7 318.5,-37.7"/>
<text text-anchor="start" x="321.5" y="-43.8" font-family="Helvetica,sans-Serif" font-size="11.00" fill="#000000">&lt; 3</text>
<polygon fill="#ffffff" stroke="transparent" points="377.5,-37.7 377.5,-56.7 434.5,-56.7 434.5,-37.7 377.5,-37.7"/>
<polygon fill="none" stroke="#000000" points="377.5,-37.7 377.5,-56.7 434.5,-56.7 434.5,-37.7 377.5,-37.7"/>
<text text-anchor="start" x="399.1105" y="-43.8" font-family="Helvetica,sans-Serif" font-size="11.00" fill="#000000">0 rows</text>
<polygon fill="#ffffff" stroke="transparent" points="434.5,-37.7 434.5,-56.7 475.5,-56.7 475.5,-37.7 434.5,-37.7"/>
<polygon fill="none" stroke="#000000" points="434.5,-37.7 434.5,-56.7 475.5,-56.7 475.5,-37.7 434.5,-37.7"/>
<text text-anchor="start" x="456.9053" y="-43.8" font-family="Helvetica,sans-Serif" font-size="11.00" fill="#000000">1 &gt;</text>
</a>
</g>
</g>
<!-- federated_user -->
<g id="node2" class="node">
<title>federated_user</title>
<g id="a_node2"><a xlink:href="../../tables/federated_user.html" xlink:title="federated_user" target="_top">
<polygon fill="#ffffff" stroke="transparent" points="8,-103.2 8,-164.2 124,-164.2 124,-103.2 8,-103.2"/>
<polygon fill="#f5f5f5" stroke="transparent" points="8,-140.7 8,-163.7 124,-163.7 124,-140.7 8,-140.7"/>
<polygon fill="none" stroke="#000000" points="8,-140.7 8,-163.7 124,-163.7 124,-140.7 8,-140.7"/>
<text text-anchor="start" x="12.5142" y="-149.8" font-family="Helvetica,sans-Serif" font-weight="bold" font-size="11.00" fill="#000000">federated_user</text>
<text text-anchor="start" x="89.5219" y="-148.8" font-family="Helvetica,sans-Serif" font-size="11.00" fill="#000000">[table]</text>
<polygon fill="none" stroke="#000000" points="8,-121.7 8,-140.7 124,-140.7 124,-121.7 8,-121.7"/>
<text text-anchor="start" x="11" y="-127.8" font-family="Helvetica,sans-Serif" font-size="11.00" fill="#000000">...</text>
<polygon fill="#ffffff" stroke="transparent" points="8,-102.7 8,-121.7 39,-121.7 39,-102.7 8,-102.7"/>
<polygon fill="none" stroke="#000000" points="8,-102.7 8,-121.7 39,-121.7 39,-102.7 8,-102.7"/>
<text text-anchor="start" x="11" y="-108.8" font-family="Helvetica,sans-Serif" font-size="11.00" fill="#000000"> &#160;</text>
<polygon fill="#ffffff" stroke="transparent" points="39,-102.7 39,-121.7 87,-121.7 87,-102.7 39,-102.7"/>
<polygon fill="none" stroke="#000000" points="39,-102.7 39,-121.7 87,-121.7 87,-102.7 39,-102.7"/>
<text text-anchor="start" x="51.6105" y="-108.8" font-family="Helvetica,sans-Serif" font-size="11.00" fill="#000000">0 rows</text>
<polygon fill="#ffffff" stroke="transparent" points="87,-102.7 87,-121.7 124,-121.7 124,-102.7 87,-102.7"/>
<polygon fill="none" stroke="#000000" points="87,-102.7 87,-121.7 124,-121.7 124,-102.7 87,-102.7"/>
<text text-anchor="start" x="99.2904" y="-108.8" font-family="Helvetica,sans-Serif" font-size="11.00" fill="#000000">30 &gt;</text>
</a>
</g>
</g>
<!-- user_consent&#45;&gt;federated_user -->
<g id="edge1" class="edge">
<title>user_consent:w&#45;&gt;federated_user:e</title>
<path fill="none" stroke="#000000" stroke-dasharray="5,2" d="M304.2733,-156.4291C295.6539,-161.7204 291.2445,-171.1578 277,-174.7 228.6934,-186.7124 210.6455,-194.5574 165,-174.7 140.4894,-164.037 150.7296,-130.7 124,-130.7"/>
<polygon fill="#000000" stroke="#000000" points="310.7614,-154.7285 319.4128,-156.1824 314.6307,-153.7142 318.5,-152.7 318.5,-152.7 318.5,-152.7 314.6307,-153.7142 317.5872,-149.2176 310.7614,-154.7285 310.7614,-154.7285"/>
<ellipse fill="none" stroke="#000000" cx="307.666" cy="-155.5398" rx="3.2" ry="3.2"/>
</g>
<!-- user_consent&#45;&gt;federated_user -->
<g id="edge2" class="edge">
<title>user_consent:w&#45;&gt;federated_user:e</title>
<path fill="none" stroke="#000000" stroke-dasharray="5,2" d="M304.0247,-86.394C246.7106,-83.9623 223.3823,-68.4792 165,-92.7 142.0513,-102.2206 148.8452,-130.7 124,-130.7"/>
<polygon fill="#000000" stroke="#000000" points="310.5018,-86.5309 318.4239,-90.2992 314.5009,-86.6154 318.5,-86.7 318.5,-86.7 318.5,-86.7 314.5009,-86.6154 318.5761,-83.1008 310.5018,-86.5309 310.5018,-86.5309"/>
<ellipse fill="none" stroke="#000000" cx="307.3025" cy="-86.4632" rx="3.2" ry="3.2"/>
</g>
<!-- user_entity -->
<g id="node3" class="node">
<title>user_entity</title>
<g id="a_node3"><a xlink:href="../../tables/user_entity.html" xlink:title="user_entity" target="_top">
<polygon fill="#ffffff" stroke="transparent" points="173,-103.2 173,-164.2 269,-164.2 269,-103.2 173,-103.2"/>
<polygon fill="#f5f5f5" stroke="transparent" points="173,-140.7 173,-163.7 269,-163.7 269,-140.7 173,-140.7"/>
<polygon fill="none" stroke="#000000" points="173,-140.7 173,-163.7 269,-163.7 269,-140.7 173,-140.7"/>
<text text-anchor="start" x="177.6045" y="-149.8" font-family="Helvetica,sans-Serif" font-weight="bold" font-size="11.00" fill="#000000">user_entity</text>
<text text-anchor="start" x="234.5219" y="-148.8" font-family="Helvetica,sans-Serif" font-size="11.00" fill="#000000">[table]</text>
<polygon fill="none" stroke="#000000" points="173,-121.7 173,-140.7 269,-140.7 269,-121.7 173,-121.7"/>
<text text-anchor="start" x="176" y="-127.8" font-family="Helvetica,sans-Serif" font-size="11.00" fill="#000000">...</text>
<polygon fill="#ffffff" stroke="transparent" points="173,-102.7 173,-121.7 205,-121.7 205,-102.7 173,-102.7"/>
<polygon fill="none" stroke="#000000" points="173,-102.7 173,-121.7 205,-121.7 205,-102.7 173,-102.7"/>
<text text-anchor="start" x="176" y="-108.8" font-family="Helvetica,sans-Serif" font-size="11.00" fill="#000000">&lt; 1</text>
<polygon fill="#ffffff" stroke="transparent" points="205,-102.7 205,-121.7 242,-121.7 242,-102.7 205,-102.7"/>
<polygon fill="none" stroke="#000000" points="205,-102.7 205,-121.7 242,-121.7 242,-102.7 205,-102.7"/>
<text text-anchor="start" x="212.1105" y="-108.8" font-family="Helvetica,sans-Serif" font-size="11.00" fill="#000000">1 row</text>
<polygon fill="#ffffff" stroke="transparent" points="242,-102.7 242,-121.7 269,-121.7 269,-102.7 242,-102.7"/>
<polygon fill="none" stroke="#000000" points="242,-102.7 242,-121.7 269,-121.7 269,-102.7 242,-102.7"/>
<text text-anchor="start" x="250.4053" y="-108.8" font-family="Helvetica,sans-Serif" font-size="11.00" fill="#000000">7 &gt;</text>
</a>
</g>
</g>
<!-- user_consent&#45;&gt;user_entity -->
<g id="edge3" class="edge">
<title>user_consent:w&#45;&gt;user_entity:e</title>
<path fill="none" stroke="#000000" d="M303.8428,-130.7C292.4139,-130.7 285.1563,-130.7 269,-130.7"/>
<polygon fill="#000000" stroke="#000000" points="310.5,-130.7001 318.5,-134.3 314.5,-130.7 318.5,-130.7 318.5,-130.7 318.5,-130.7 314.5,-130.7 318.5,-127.1 310.5,-130.7001 310.5,-130.7001"/>
<ellipse fill="none" stroke="#000000" cx="307.3" cy="-130.7001" rx="3.2" ry="3.2"/>
</g>
<!-- user_entity&#45;&gt;federated_user -->
<g id="edge5" class="edge">
<title>user_entity:w&#45;&gt;federated_user:e</title>
<path fill="none" stroke="#000000" stroke-dasharray="5,2" d="M158.4909,-130.7C147.1774,-130.7 139.9931,-130.7 124,-130.7"/>
<polygon fill="#000000" stroke="#000000" points="165,-130.7001 173,-134.3 169,-130.7 173,-130.7 173,-130.7 173,-130.7 169,-130.7 173,-127.1 165,-130.7001 165,-130.7001"/>
<ellipse fill="none" stroke="#000000" cx="161.8" cy="-130.7001" rx="3.2" ry="3.2"/>
</g>
<!-- user_consent_client_scope -->
<g id="node4" class="node">
<title>user_consent_client_scope</title>
<g id="a_node4"><a xlink:href="../../tables/user_consent_client_scope.html" xlink:title="user_consent_client_scope" target="_top">
<polygon fill="#ffffff" stroke="transparent" points="524,-120.7 524,-210.7 767,-210.7 767,-120.7 524,-120.7"/>
<polygon fill="#f5f5f5" stroke="transparent" points="526.5,-185.7 526.5,-208.7 765.5,-208.7 765.5,-185.7 526.5,-185.7"/>
<polygon fill="none" stroke="#000000" points="526.5,-185.7 526.5,-208.7 765.5,-208.7 765.5,-185.7 526.5,-185.7"/>
<text text-anchor="start" x="531.5" y="-194.8" font-family="Helvetica,sans-Serif" font-weight="bold" font-size="11.00" fill="#000000">user_consent_client_scope</text>
<text text-anchor="start" x="730.5437" y="-193.8" font-family="Helvetica,sans-Serif" font-size="11.00" fill="#000000">[table]</text>
<polygon fill="none" stroke="#000000" points="526.5,-163.7 526.5,-185.7 704.5,-185.7 704.5,-163.7 526.5,-163.7"/>
<image xlink:href="../../images/primaryKeys.png" width="11px" height="12px" preserveAspectRatio="xMinYMin meet" x="531.5" y="-180.7"/>
<text text-anchor="start" x="546.5" y="-170.8" font-family="Helvetica,sans-Serif" font-size="11.00" fill="#000000">user_consent_id</text>
<polygon fill="none" stroke="#000000" points="704.5,-163.7 704.5,-185.7 765.5,-185.7 765.5,-163.7 704.5,-163.7"/>
<text text-anchor="start" x="707.494" y="-171.4" font-family="Helvetica,sans-Serif" font-size="11.00" fill="#000000">varchar[36]</text>
<polygon fill="none" stroke="#000000" points="526.5,-141.7 526.5,-163.7 704.5,-163.7 704.5,-141.7 526.5,-141.7"/>
<image xlink:href="../../images/primaryKeys.png" width="11px" height="12px" preserveAspectRatio="xMinYMin meet" x="531.5" y="-158.7"/>
<text text-anchor="start" x="546.5" y="-148.8" font-family="Helvetica,sans-Serif" font-size="11.00" fill="#000000">scope_id</text>
<polygon fill="none" stroke="#000000" points="704.5,-141.7 704.5,-163.7 765.5,-163.7 765.5,-141.7 704.5,-141.7"/>
<text text-anchor="start" x="707.494" y="-149.4" font-family="Helvetica,sans-Serif" font-size="11.00" fill="#000000">varchar[36]</text>
<polygon fill="#ffffff" stroke="transparent" points="526.5,-122.7 526.5,-141.7 606.5,-141.7 606.5,-122.7 526.5,-122.7"/>
<polygon fill="none" stroke="#000000" points="526.5,-122.7 526.5,-141.7 606.5,-141.7 606.5,-122.7 526.5,-122.7"/>
<text text-anchor="start" x="529.5" y="-128.8" font-family="Helvetica,sans-Serif" font-size="11.00" fill="#000000">&lt; 1</text>
<polygon fill="#ffffff" stroke="transparent" points="606.5,-122.7 606.5,-141.7 704.5,-141.7 704.5,-122.7 606.5,-122.7"/>
<polygon fill="none" stroke="#000000" points="606.5,-122.7 606.5,-141.7 704.5,-141.7 704.5,-122.7 606.5,-122.7"/>
<text text-anchor="start" x="669.1105" y="-128.8" font-family="Helvetica,sans-Serif" font-size="11.00" fill="#000000">0 rows</text>
<polygon fill="#ffffff" stroke="transparent" points="704.5,-122.7 704.5,-141.7 765.5,-141.7 765.5,-122.7 704.5,-122.7"/>
<polygon fill="none" stroke="#000000" points="704.5,-122.7 704.5,-141.7 765.5,-141.7 765.5,-122.7 704.5,-122.7"/>
<text text-anchor="start" x="746.9053" y="-128.8" font-family="Helvetica,sans-Serif" font-size="11.00" fill="#000000">0 &gt;</text>
<polygon fill="none" stroke="#000000" stroke-width="2" points="525,-121.7 525,-209.7 766,-209.7 766,-121.7 525,-121.7"/>
</a>
</g>
</g>
<!-- user_consent_client_scope&#45;&gt;user_consent -->
<g id="edge4" class="edge">
<title>user_consent_client_scope:w&#45;&gt;user_consent:e</title>
<path fill="none" stroke="#000000" d="M511.776,-174.7C499.7815,-174.7 492.3229,-174.7 475.5,-174.7"/>
<polygon fill="#000000" stroke="#000000" points="518.5,-174.7001 526.5,-178.3 522.5,-174.7 526.5,-174.7 526.5,-174.7 526.5,-174.7 522.5,-174.7 526.5,-171.1 518.5,-174.7001 518.5,-174.7001"/>
<ellipse fill="none" stroke="#000000" cx="515.3" cy="-174.7001" rx="3.2" ry="3.2"/>
</g>
</g>
</svg>
