<?xml version="1.0" encoding="UTF-8" standalone="no"?>
<!DOCTYPE svg PUBLIC "-//W3C//DTD SVG 1.1//EN"
 "http://www.w3.org/Graphics/SVG/1.1/DTD/svg11.dtd">
<!-- Generated by graphviz version 2.40.1 (20161225.0304)
 -->
<!-- Title: oneDegreeRelationshipsDiagramImplied Pages: 1 -->
<svg width="674pt" height="944pt"
 viewBox="0.00 0.00 674.00 944.20" xmlns="http://www.w3.org/2000/svg" xmlns:xlink="http://www.w3.org/1999/xlink">
<g id="graph0" class="graph" transform="scale(1 1) rotate(0) translate(4 940.2)">
<title>oneDegreeRelationshipsDiagramImplied</title>
<polygon fill="#ffffff" stroke="transparent" points="-4,4 -4,-940.2 670,-940.2 670,4 -4,4"/>
<text text-anchor="middle" x="72.4936" y="-7.3" font-family="Helvetica,sans-Serif" font-size="11.00" fill="#000000">Generated by SchemaSpy</text>
<!-- credential -->
<g id="node1" class="node">
<title>credential</title>
<g id="a_node1"><a xlink:href="../../tables/credential.html" xlink:title="credential" target="_top">
<polygon fill="#ffffff" stroke="transparent" points="521,-571.2 521,-676.2 630,-676.2 630,-571.2 521,-571.2"/>
<polygon fill="#f5f5f5" stroke="transparent" points="521.5,-652.7 521.5,-675.7 630.5,-675.7 630.5,-652.7 521.5,-652.7"/>
<polygon fill="none" stroke="#000000" points="521.5,-652.7 521.5,-675.7 630.5,-675.7 630.5,-652.7 521.5,-652.7"/>
<text text-anchor="start" x="526.5" y="-661.8" font-family="Helvetica,sans-Serif" font-weight="bold" font-size="11.00" fill="#000000">credential</text>
<text text-anchor="start" x="595.5437" y="-660.8" font-family="Helvetica,sans-Serif" font-size="11.00" fill="#000000">[table]</text>
<polygon fill="none" stroke="#000000" points="521.5,-630.7 521.5,-652.7 630.5,-652.7 630.5,-630.7 521.5,-630.7"/>
<image xlink:href="../../images/primaryKeys.png" width="11px" height="12px" preserveAspectRatio="xMinYMin meet" x="526.5" y="-647.7"/>
<text text-anchor="start" x="541.5" y="-637.8" font-family="Helvetica,sans-Serif" font-size="11.00" fill="#000000">id</text>
<polygon fill="#ffffff" stroke="transparent" points="521.5,-608.7 521.5,-630.7 630.5,-630.7 630.5,-608.7 521.5,-608.7"/>
<polygon fill="none" stroke="#000000" points="521.5,-608.7 521.5,-630.7 630.5,-630.7 630.5,-608.7 521.5,-608.7"/>
<image xlink:href="../../images/foreignKeys.png" width="11px" height="12px" preserveAspectRatio="xMinYMin meet" x="526.5" y="-625.7"/>
<text text-anchor="start" x="541.5" y="-615.8" font-family="Helvetica,sans-Serif" font-size="11.00" fill="#000000">user_id</text>
<polygon fill="none" stroke="#000000" points="521.5,-589.7 521.5,-608.7 630.5,-608.7 630.5,-589.7 521.5,-589.7"/>
<text text-anchor="start" x="524.5" y="-595.8" font-family="Helvetica,sans-Serif" font-size="11.00" fill="#000000">...</text>
<polygon fill="#ffffff" stroke="transparent" points="521.5,-570.7 521.5,-589.7 564.5,-589.7 564.5,-570.7 521.5,-570.7"/>
<polygon fill="none" stroke="#000000" points="521.5,-570.7 521.5,-589.7 564.5,-589.7 564.5,-570.7 521.5,-570.7"/>
<text text-anchor="start" x="524.5" y="-576.8" font-family="Helvetica,sans-Serif" font-size="11.00" fill="#000000">&lt; 1</text>
<polygon fill="#ffffff" stroke="transparent" points="564.5,-570.7 564.5,-589.7 607.5,-589.7 607.5,-570.7 564.5,-570.7"/>
<polygon fill="none" stroke="#000000" points="564.5,-570.7 564.5,-589.7 607.5,-589.7 607.5,-570.7 564.5,-570.7"/>
<text text-anchor="start" x="577.6105" y="-576.8" font-family="Helvetica,sans-Serif" font-size="11.00" fill="#000000">1 row</text>
<polygon fill="#ffffff" stroke="transparent" points="607.5,-570.7 607.5,-589.7 630.5,-589.7 630.5,-570.7 607.5,-570.7"/>
<polygon fill="none" stroke="#000000" points="607.5,-570.7 607.5,-589.7 630.5,-589.7 630.5,-570.7 607.5,-570.7"/>
<text text-anchor="start" x="621.3862" y="-576.8" font-family="Helvetica,sans-Serif" font-size="11.00" fill="#000000"> &#160;</text>
</a>
</g>
</g>
<!-- user_entity -->
<g id="node2" class="node">
<title>user_entity</title>
<g id="a_node2"><a xlink:href="../../tables/user_entity.html" xlink:title="user_entity" target="_top">
<polygon fill="#ffffff" stroke="transparent" points="193,-208.7 193,-540.7 444,-540.7 444,-208.7 193,-208.7"/>
<polygon fill="#f5f5f5" stroke="transparent" points="195.5,-515.7 195.5,-538.7 442.5,-538.7 442.5,-515.7 195.5,-515.7"/>
<polygon fill="none" stroke="#000000" points="195.5,-515.7 195.5,-538.7 442.5,-538.7 442.5,-515.7 195.5,-515.7"/>
<text text-anchor="start" x="200.5" y="-524.8" font-family="Helvetica,sans-Serif" font-weight="bold" font-size="11.00" fill="#000000">user_entity</text>
<text text-anchor="start" x="407.5437" y="-523.8" font-family="Helvetica,sans-Serif" font-size="11.00" fill="#000000">[table]</text>
<polygon fill="none" stroke="#000000" points="195.5,-493.7 195.5,-515.7 375.5,-515.7 375.5,-493.7 195.5,-493.7"/>
<image xlink:href="../../images/primaryKeys.png" width="11px" height="12px" preserveAspectRatio="xMinYMin meet" x="200.5" y="-510.7"/>
<text text-anchor="start" x="215.5" y="-500.8" font-family="Helvetica,sans-Serif" font-size="11.00" fill="#000000">id</text>
<polygon fill="none" stroke="#000000" points="375.5,-493.7 375.5,-515.7 442.5,-515.7 442.5,-493.7 375.5,-493.7"/>
<text text-anchor="start" x="378.5" y="-501.4" font-family="Helvetica,sans-Serif" font-size="11.00" fill="#000000">varchar[36]</text>
<polygon fill="#ffffff" stroke="transparent" points="195.5,-471.7 195.5,-493.7 375.5,-493.7 375.5,-471.7 195.5,-471.7"/>
<polygon fill="none" stroke="#000000" points="195.5,-471.7 195.5,-493.7 375.5,-493.7 375.5,-471.7 195.5,-471.7"/>
<text text-anchor="start" x="215.5" y="-478.8" font-family="Helvetica,sans-Serif" font-size="11.00" fill="#000000">email</text>
<polygon fill="none" stroke="#000000" points="375.5,-471.7 375.5,-493.7 442.5,-493.7 442.5,-471.7 375.5,-471.7"/>
<text text-anchor="start" x="378.4365" y="-479.4" font-family="Helvetica,sans-Serif" font-size="11.00" fill="#000000">varchar[255]</text>
<polygon fill="#ffffff" stroke="transparent" points="195.5,-449.7 195.5,-471.7 375.5,-471.7 375.5,-449.7 195.5,-449.7"/>
<polygon fill="none" stroke="#000000" points="195.5,-449.7 195.5,-471.7 375.5,-471.7 375.5,-449.7 195.5,-449.7"/>
<text text-anchor="start" x="215.5" y="-456.8" font-family="Helvetica,sans-Serif" font-size="11.00" fill="#000000">email_constraint</text>
<polygon fill="none" stroke="#000000" points="375.5,-449.7 375.5,-471.7 442.5,-471.7 442.5,-449.7 375.5,-449.7"/>
<text text-anchor="start" x="378.4365" y="-457.4" font-family="Helvetica,sans-Serif" font-size="11.00" fill="#000000">varchar[255]</text>
<polygon fill="none" stroke="#000000" points="195.5,-427.7 195.5,-449.7 375.5,-449.7 375.5,-427.7 195.5,-427.7"/>
<text text-anchor="start" x="215.5" y="-434.8" font-family="Helvetica,sans-Serif" font-size="11.00" fill="#000000">email_verified</text>
<polygon fill="none" stroke="#000000" points="375.5,-427.7 375.5,-449.7 442.5,-449.7 442.5,-427.7 375.5,-427.7"/>
<text text-anchor="start" x="378.5" y="-435.4" font-family="Helvetica,sans-Serif" font-size="11.00" fill="#000000">bool[1]</text>
<polygon fill="none" stroke="#000000" points="195.5,-405.7 195.5,-427.7 375.5,-427.7 375.5,-405.7 195.5,-405.7"/>
<text text-anchor="start" x="215.5" y="-412.8" font-family="Helvetica,sans-Serif" font-size="11.00" fill="#000000">enabled</text>
<polygon fill="none" stroke="#000000" points="375.5,-405.7 375.5,-427.7 442.5,-427.7 442.5,-405.7 375.5,-405.7"/>
<text text-anchor="start" x="378.5" y="-413.4" font-family="Helvetica,sans-Serif" font-size="11.00" fill="#000000">bool[1]</text>
<polygon fill="none" stroke="#000000" points="195.5,-383.7 195.5,-405.7 375.5,-405.7 375.5,-383.7 195.5,-383.7"/>
<text text-anchor="start" x="215.5" y="-390.8" font-family="Helvetica,sans-Serif" font-size="11.00" fill="#000000">federation_link</text>
<polygon fill="none" stroke="#000000" points="375.5,-383.7 375.5,-405.7 442.5,-405.7 442.5,-383.7 375.5,-383.7"/>
<text text-anchor="start" x="378.4365" y="-391.4" font-family="Helvetica,sans-Serif" font-size="11.00" fill="#000000">varchar[255]</text>
<polygon fill="none" stroke="#000000" points="195.5,-361.7 195.5,-383.7 375.5,-383.7 375.5,-361.7 195.5,-361.7"/>
<text text-anchor="start" x="215.5" y="-368.8" font-family="Helvetica,sans-Serif" font-size="11.00" fill="#000000">first_name</text>
<polygon fill="none" stroke="#000000" points="375.5,-361.7 375.5,-383.7 442.5,-383.7 442.5,-361.7 375.5,-361.7"/>
<text text-anchor="start" x="378.4365" y="-369.4" font-family="Helvetica,sans-Serif" font-size="11.00" fill="#000000">varchar[255]</text>
<polygon fill="none" stroke="#000000" points="195.5,-339.7 195.5,-361.7 375.5,-361.7 375.5,-339.7 195.5,-339.7"/>
<text text-anchor="start" x="215.5" y="-346.8" font-family="Helvetica,sans-Serif" font-size="11.00" fill="#000000">last_name</text>
<polygon fill="none" stroke="#000000" points="375.5,-339.7 375.5,-361.7 442.5,-361.7 442.5,-339.7 375.5,-339.7"/>
<text text-anchor="start" x="378.4365" y="-347.4" font-family="Helvetica,sans-Serif" font-size="11.00" fill="#000000">varchar[255]</text>
<polygon fill="#ffffff" stroke="transparent" points="195.5,-317.7 195.5,-339.7 375.5,-339.7 375.5,-317.7 195.5,-317.7"/>
<polygon fill="none" stroke="#000000" points="195.5,-317.7 195.5,-339.7 375.5,-339.7 375.5,-317.7 195.5,-317.7"/>
<image xlink:href="../../images/foreignKeys.png" width="11px" height="12px" preserveAspectRatio="xMinYMin meet" x="200.5" y="-334.7"/>
<text text-anchor="start" x="215.5" y="-324.8" font-family="Helvetica,sans-Serif" font-size="11.00" fill="#000000">realm_id</text>
<polygon fill="none" stroke="#000000" points="375.5,-317.7 375.5,-339.7 442.5,-339.7 442.5,-317.7 375.5,-317.7"/>
<text text-anchor="start" x="378.4365" y="-325.4" font-family="Helvetica,sans-Serif" font-size="11.00" fill="#000000">varchar[255]</text>
<polygon fill="#ffffff" stroke="transparent" points="195.5,-295.7 195.5,-317.7 375.5,-317.7 375.5,-295.7 195.5,-295.7"/>
<polygon fill="none" stroke="#000000" points="195.5,-295.7 195.5,-317.7 375.5,-317.7 375.5,-295.7 195.5,-295.7"/>
<text text-anchor="start" x="215.5" y="-302.8" font-family="Helvetica,sans-Serif" font-size="11.00" fill="#000000">username</text>
<polygon fill="none" stroke="#000000" points="375.5,-295.7 375.5,-317.7 442.5,-317.7 442.5,-295.7 375.5,-295.7"/>
<text text-anchor="start" x="378.4365" y="-303.4" font-family="Helvetica,sans-Serif" font-size="11.00" fill="#000000">varchar[255]</text>
<polygon fill="none" stroke="#000000" points="195.5,-273.7 195.5,-295.7 375.5,-295.7 375.5,-273.7 195.5,-273.7"/>
<text text-anchor="start" x="215.5" y="-280.8" font-family="Helvetica,sans-Serif" font-size="11.00" fill="#000000">created_timestamp</text>
<polygon fill="none" stroke="#000000" points="375.5,-273.7 375.5,-295.7 442.5,-295.7 442.5,-273.7 375.5,-273.7"/>
<text text-anchor="start" x="378.5" y="-281.4" font-family="Helvetica,sans-Serif" font-size="11.00" fill="#000000">int8[19]</text>
<polygon fill="none" stroke="#000000" points="195.5,-251.7 195.5,-273.7 375.5,-273.7 375.5,-251.7 195.5,-251.7"/>
<text text-anchor="start" x="215.5" y="-258.8" font-family="Helvetica,sans-Serif" font-size="11.00" fill="#000000">service_account_client_link</text>
<polygon fill="none" stroke="#000000" points="375.5,-251.7 375.5,-273.7 442.5,-273.7 442.5,-251.7 375.5,-251.7"/>
<text text-anchor="start" x="378.4365" y="-259.4" font-family="Helvetica,sans-Serif" font-size="11.00" fill="#000000">varchar[255]</text>
<polygon fill="none" stroke="#000000" points="195.5,-229.7 195.5,-251.7 375.5,-251.7 375.5,-229.7 195.5,-229.7"/>
<text text-anchor="start" x="215.5" y="-236.8" font-family="Helvetica,sans-Serif" font-size="11.00" fill="#000000">not_before</text>
<polygon fill="none" stroke="#000000" points="375.5,-229.7 375.5,-251.7 442.5,-251.7 442.5,-229.7 375.5,-229.7"/>
<text text-anchor="start" x="378.5" y="-237.4" font-family="Helvetica,sans-Serif" font-size="11.00" fill="#000000">int4[10]</text>
<polygon fill="#ffffff" stroke="transparent" points="195.5,-210.7 195.5,-229.7 279.5,-229.7 279.5,-210.7 195.5,-210.7"/>
<polygon fill="none" stroke="#000000" points="195.5,-210.7 195.5,-229.7 279.5,-229.7 279.5,-210.7 195.5,-210.7"/>
<text text-anchor="start" x="198.5" y="-216.8" font-family="Helvetica,sans-Serif" font-size="11.00" fill="#000000">&lt; 1</text>
<polygon fill="#ffffff" stroke="transparent" points="279.5,-210.7 279.5,-229.7 375.5,-229.7 375.5,-210.7 279.5,-210.7"/>
<polygon fill="none" stroke="#000000" points="279.5,-210.7 279.5,-229.7 375.5,-229.7 375.5,-210.7 279.5,-210.7"/>
<text text-anchor="start" x="345.6105" y="-216.8" font-family="Helvetica,sans-Serif" font-size="11.00" fill="#000000">1 row</text>
<polygon fill="#ffffff" stroke="transparent" points="375.5,-210.7 375.5,-229.7 442.5,-229.7 442.5,-210.7 375.5,-210.7"/>
<polygon fill="none" stroke="#000000" points="375.5,-210.7 375.5,-229.7 442.5,-229.7 442.5,-210.7 375.5,-210.7"/>
<text text-anchor="start" x="423.9053" y="-216.8" font-family="Helvetica,sans-Serif" font-size="11.00" fill="#000000">7 &gt;</text>
<polygon fill="none" stroke="#000000" stroke-width="2" points="194,-209.7 194,-539.7 443,-539.7 443,-209.7 194,-209.7"/>
</a>
</g>
</g>
<!-- credential&#45;&gt;user_entity -->
<g id="edge1" class="edge">
<title>credential:w&#45;&gt;user_entity:e</title>
<path fill="none" stroke="#000000" d="M507.2231,-617.082C466.7162,-599.9642 498.938,-504.7 442.5,-504.7"/>
<polygon fill="#000000" stroke="#000000" points="513.6312,-618.257 520.8507,-623.241 517.5656,-618.9785 521.5,-619.7 521.5,-619.7 521.5,-619.7 517.5656,-618.9785 522.1493,-616.159 513.6312,-618.257 513.6312,-618.257"/>
<ellipse fill="none" stroke="#000000" cx="510.4837" cy="-617.6798" rx="3.2" ry="3.2"/>
</g>
<!-- federated_user -->
<g id="node4" class="node">
<title>federated_user</title>
<g id="a_node4"><a xlink:href="../../tables/federated_user.html" xlink:title="federated_user" target="_top">
<polygon fill="#ffffff" stroke="transparent" points="8,-197.2 8,-280.2 144,-280.2 144,-197.2 8,-197.2"/>
<polygon fill="#f5f5f5" stroke="transparent" points="8,-256.7 8,-279.7 144,-279.7 144,-256.7 8,-256.7"/>
<polygon fill="none" stroke="#000000" points="8,-256.7 8,-279.7 144,-279.7 144,-256.7 8,-256.7"/>
<text text-anchor="start" x="13" y="-265.8" font-family="Helvetica,sans-Serif" font-weight="bold" font-size="11.00" fill="#000000">federated_user</text>
<text text-anchor="start" x="109.0437" y="-264.8" font-family="Helvetica,sans-Serif" font-size="11.00" fill="#000000">[table]</text>
<polygon fill="none" stroke="#000000" points="8,-234.7 8,-256.7 144,-256.7 144,-234.7 8,-234.7"/>
<image xlink:href="../../images/primaryKeys.png" width="11px" height="12px" preserveAspectRatio="xMinYMin meet" x="13" y="-251.7"/>
<text text-anchor="start" x="28" y="-241.8" font-family="Helvetica,sans-Serif" font-size="11.00" fill="#000000">id</text>
<polygon fill="none" stroke="#000000" points="8,-215.7 8,-234.7 144,-234.7 144,-215.7 8,-215.7"/>
<text text-anchor="start" x="11" y="-221.8" font-family="Helvetica,sans-Serif" font-size="11.00" fill="#000000">...</text>
<polygon fill="#ffffff" stroke="transparent" points="8,-196.7 8,-215.7 49,-215.7 49,-196.7 8,-196.7"/>
<polygon fill="none" stroke="#000000" points="8,-196.7 8,-215.7 49,-215.7 49,-196.7 8,-196.7"/>
<text text-anchor="start" x="11" y="-202.8" font-family="Helvetica,sans-Serif" font-size="11.00" fill="#000000"> &#160;</text>
<polygon fill="#ffffff" stroke="transparent" points="49,-196.7 49,-215.7 102,-215.7 102,-196.7 49,-196.7"/>
<polygon fill="none" stroke="#000000" points="49,-196.7 49,-215.7 102,-215.7 102,-196.7 49,-196.7"/>
<text text-anchor="start" x="66.6105" y="-202.8" font-family="Helvetica,sans-Serif" font-size="11.00" fill="#000000">0 rows</text>
<polygon fill="#ffffff" stroke="transparent" points="102,-196.7 102,-215.7 144,-215.7 144,-196.7 102,-196.7"/>
<polygon fill="none" stroke="#000000" points="102,-196.7 102,-215.7 144,-215.7 144,-196.7 102,-196.7"/>
<text text-anchor="start" x="119.2904" y="-202.8" font-family="Helvetica,sans-Serif" font-size="11.00" fill="#000000">30 &gt;</text>
</a>
</g>
</g>
<!-- user_entity&#45;&gt;federated_user -->
<g id="edge8" class="edge">
<title>user_entity:w&#45;&gt;federated_user:e</title>
<path fill="none" stroke="#000000" stroke-dasharray="5,2" d="M181.7068,-324.4699C160.2746,-307.5561 181.4777,-245.7 144,-245.7"/>
<polygon fill="#000000" stroke="#000000" points="187.8516,-326.3544 194.4445,-332.1418 191.6758,-327.5272 195.5,-328.7 195.5,-328.7 195.5,-328.7 191.6758,-327.5272 196.5555,-325.2582 187.8516,-326.3544 187.8516,-326.3544"/>
<ellipse fill="none" stroke="#000000" cx="184.7922" cy="-325.4161" rx="3.2" ry="3.2"/>
</g>
<!-- federated_identity -->
<g id="node3" class="node">
<title>federated_identity</title>
<g id="a_node3"><a xlink:href="../../tables/federated_identity.html" xlink:title="federated_identity" target="_top">
<polygon fill="#ffffff" stroke="transparent" points="506.5,-805.2 506.5,-932.2 644.5,-932.2 644.5,-805.2 506.5,-805.2"/>
<polygon fill="#f5f5f5" stroke="transparent" points="506.5,-908.7 506.5,-931.7 644.5,-931.7 644.5,-908.7 506.5,-908.7"/>
<polygon fill="none" stroke="#000000" points="506.5,-908.7 506.5,-931.7 644.5,-931.7 644.5,-908.7 506.5,-908.7"/>
<text text-anchor="start" x="511.5" y="-917.8" font-family="Helvetica,sans-Serif" font-weight="bold" font-size="11.00" fill="#000000">federated_identity</text>
<text text-anchor="start" x="609.5437" y="-916.8" font-family="Helvetica,sans-Serif" font-size="11.00" fill="#000000">[table]</text>
<polygon fill="none" stroke="#000000" points="506.5,-886.7 506.5,-908.7 644.5,-908.7 644.5,-886.7 506.5,-886.7"/>
<image xlink:href="../../images/primaryKeys.png" width="11px" height="12px" preserveAspectRatio="xMinYMin meet" x="511.5" y="-903.7"/>
<text text-anchor="start" x="526.5" y="-893.8" font-family="Helvetica,sans-Serif" font-size="11.00" fill="#000000">identity_provider</text>
<polygon fill="#ffffff" stroke="transparent" points="506.5,-864.7 506.5,-886.7 644.5,-886.7 644.5,-864.7 506.5,-864.7"/>
<polygon fill="none" stroke="#000000" points="506.5,-864.7 506.5,-886.7 644.5,-886.7 644.5,-864.7 506.5,-864.7"/>
<image xlink:href="../../images/foreignKeys.png" width="11px" height="12px" preserveAspectRatio="xMinYMin meet" x="511.5" y="-881.7"/>
<text text-anchor="start" x="526.5" y="-871.8" font-family="Helvetica,sans-Serif" font-size="11.00" fill="#000000">federated_user_id</text>
<polygon fill="none" stroke="#000000" points="506.5,-842.7 506.5,-864.7 644.5,-864.7 644.5,-842.7 506.5,-842.7"/>
<image xlink:href="../../images/primaryKeys.png" width="11px" height="12px" preserveAspectRatio="xMinYMin meet" x="511.5" y="-859.7"/>
<text text-anchor="start" x="526.5" y="-849.8" font-family="Helvetica,sans-Serif" font-size="11.00" fill="#000000">user_id</text>
<polygon fill="none" stroke="#000000" points="506.5,-823.7 506.5,-842.7 644.5,-842.7 644.5,-823.7 506.5,-823.7"/>
<text text-anchor="start" x="509.5" y="-829.8" font-family="Helvetica,sans-Serif" font-size="11.00" fill="#000000">...</text>
<polygon fill="#ffffff" stroke="transparent" points="506.5,-804.7 506.5,-823.7 560.5,-823.7 560.5,-804.7 506.5,-804.7"/>
<polygon fill="none" stroke="#000000" points="506.5,-804.7 506.5,-823.7 560.5,-823.7 560.5,-804.7 506.5,-804.7"/>
<text text-anchor="start" x="509.5" y="-810.8" font-family="Helvetica,sans-Serif" font-size="11.00" fill="#000000">&lt; 2</text>
<polygon fill="#ffffff" stroke="transparent" points="560.5,-804.7 560.5,-823.7 615.5,-823.7 615.5,-804.7 560.5,-804.7"/>
<polygon fill="none" stroke="#000000" points="560.5,-804.7 560.5,-823.7 615.5,-823.7 615.5,-804.7 560.5,-804.7"/>
<text text-anchor="start" x="580.1105" y="-810.8" font-family="Helvetica,sans-Serif" font-size="11.00" fill="#000000">0 rows</text>
<polygon fill="#ffffff" stroke="transparent" points="615.5,-804.7 615.5,-823.7 644.5,-823.7 644.5,-804.7 615.5,-804.7"/>
<polygon fill="none" stroke="#000000" points="615.5,-804.7 615.5,-823.7 644.5,-823.7 644.5,-804.7 615.5,-804.7"/>
<text text-anchor="start" x="635.3862" y="-810.8" font-family="Helvetica,sans-Serif" font-size="11.00" fill="#000000"> &#160;</text>
</a>
</g>
</g>
<!-- federated_identity&#45;&gt;user_entity -->
<g id="edge3" class="edge">
<title>federated_identity:w&#45;&gt;user_entity:e</title>
<path fill="none" stroke="#000000" d="M492.6385,-849.0303C439.6551,-807.616 515.9588,-504.7 442.5,-504.7"/>
<polygon fill="#000000" stroke="#000000" points="498.9186,-851.1459 505.3507,-857.1116 502.7093,-852.423 506.5,-853.7 506.5,-853.7 506.5,-853.7 502.7093,-852.423 507.6493,-850.2884 498.9186,-851.1459 498.9186,-851.1459"/>
<ellipse fill="none" stroke="#000000" cx="495.8861" cy="-850.1243" rx="3.2" ry="3.2"/>
</g>
<!-- federated_identity&#45;&gt;federated_user -->
<g id="edge2" class="edge">
<title>federated_identity:w&#45;&gt;federated_user:e</title>
<path fill="none" stroke="#000000" stroke-dasharray="5,2" d="M491.9493,-875.4476C302.1825,-868.7432 272.3931,-729.269 185,-551.7 154.7042,-490.1437 212.6077,-245.7 144,-245.7"/>
<polygon fill="#000000" stroke="#000000" points="498.5012,-875.5612 506.4375,-879.2995 502.5006,-875.6306 506.5,-875.7 506.5,-875.7 506.5,-875.7 502.5006,-875.6306 506.5625,-872.1005 498.5012,-875.5612 498.5012,-875.5612"/>
<ellipse fill="none" stroke="#000000" cx="495.3017" cy="-875.5057" rx="3.2" ry="3.2"/>
</g>
<!-- user_attribute -->
<g id="node5" class="node">
<title>user_attribute</title>
<g id="a_node5"><a xlink:href="../../tables/user_attribute.html" xlink:title="user_attribute" target="_top">
<polygon fill="#ffffff" stroke="transparent" points="520.5,-445.2 520.5,-550.2 630.5,-550.2 630.5,-445.2 520.5,-445.2"/>
<polygon fill="#f5f5f5" stroke="transparent" points="520.5,-526.7 520.5,-549.7 630.5,-549.7 630.5,-526.7 520.5,-526.7"/>
<polygon fill="none" stroke="#000000" points="520.5,-526.7 520.5,-549.7 630.5,-549.7 630.5,-526.7 520.5,-526.7"/>
<text text-anchor="start" x="525.3802" y="-535.8" font-family="Helvetica,sans-Serif" font-weight="bold" font-size="11.00" fill="#000000">user_attribute</text>
<text text-anchor="start" x="596.0219" y="-534.8" font-family="Helvetica,sans-Serif" font-size="11.00" fill="#000000">[table]</text>
<polygon fill="#ffffff" stroke="transparent" points="520.5,-504.7 520.5,-526.7 630.5,-526.7 630.5,-504.7 520.5,-504.7"/>
<polygon fill="none" stroke="#000000" points="520.5,-504.7 520.5,-526.7 630.5,-526.7 630.5,-504.7 520.5,-504.7"/>
<image xlink:href="../../images/foreignKeys.png" width="11px" height="12px" preserveAspectRatio="xMinYMin meet" x="525.5" y="-521.7"/>
<text text-anchor="start" x="545.5" y="-511.8" font-family="Helvetica,sans-Serif" font-size="11.00" fill="#000000">user_id</text>
<polygon fill="none" stroke="#000000" points="520.5,-482.7 520.5,-504.7 630.5,-504.7 630.5,-482.7 520.5,-482.7"/>
<image xlink:href="../../images/primaryKeys.png" width="11px" height="12px" preserveAspectRatio="xMinYMin meet" x="525.5" y="-499.7"/>
<text text-anchor="start" x="545.5" y="-489.8" font-family="Helvetica,sans-Serif" font-size="11.00" fill="#000000">id</text>
<polygon fill="none" stroke="#000000" points="520.5,-463.7 520.5,-482.7 630.5,-482.7 630.5,-463.7 520.5,-463.7"/>
<text text-anchor="start" x="523.5" y="-469.8" font-family="Helvetica,sans-Serif" font-size="11.00" fill="#000000">...</text>
<polygon fill="#ffffff" stroke="transparent" points="520.5,-444.7 520.5,-463.7 560.5,-463.7 560.5,-444.7 520.5,-444.7"/>
<polygon fill="none" stroke="#000000" points="520.5,-444.7 520.5,-463.7 560.5,-463.7 560.5,-444.7 520.5,-444.7"/>
<text text-anchor="start" x="523.5" y="-450.8" font-family="Helvetica,sans-Serif" font-size="11.00" fill="#000000">&lt; 1</text>
<polygon fill="#ffffff" stroke="transparent" points="560.5,-444.7 560.5,-463.7 608.5,-463.7 608.5,-444.7 560.5,-444.7"/>
<polygon fill="none" stroke="#000000" points="560.5,-444.7 560.5,-463.7 608.5,-463.7 608.5,-444.7 560.5,-444.7"/>
<text text-anchor="start" x="573.1105" y="-450.8" font-family="Helvetica,sans-Serif" font-size="11.00" fill="#000000">0 rows</text>
<polygon fill="#ffffff" stroke="transparent" points="608.5,-444.7 608.5,-463.7 630.5,-463.7 630.5,-444.7 608.5,-444.7"/>
<polygon fill="none" stroke="#000000" points="608.5,-444.7 608.5,-463.7 630.5,-463.7 630.5,-444.7 608.5,-444.7"/>
<text text-anchor="start" x="621.3862" y="-450.8" font-family="Helvetica,sans-Serif" font-size="11.00" fill="#000000"> &#160;</text>
</a>
</g>
</g>
<!-- user_attribute&#45;&gt;user_entity -->
<g id="edge4" class="edge">
<title>user_attribute:w&#45;&gt;user_entity:e</title>
<path fill="none" stroke="#000000" d="M505.8627,-514.9783C482.3365,-512.5311 472.0394,-504.7 442.5,-504.7"/>
<polygon fill="#000000" stroke="#000000" points="512.5097,-515.306 520.3227,-519.2956 516.5049,-515.503 520.5,-515.7 520.5,-515.7 520.5,-515.7 516.5049,-515.503 520.6773,-512.1044 512.5097,-515.306 512.5097,-515.306"/>
<ellipse fill="none" stroke="#000000" cx="509.3136" cy="-515.1483" rx="3.2" ry="3.2"/>
</g>
<!-- user_consent -->
<g id="node6" class="node">
<title>user_consent</title>
<g id="a_node6"><a xlink:href="../../tables/user_consent.html" xlink:title="user_consent" target="_top">
<polygon fill="#ffffff" stroke="transparent" points="497,-38.2 497,-209.2 654,-209.2 654,-38.2 497,-38.2"/>
<polygon fill="#f5f5f5" stroke="transparent" points="497.5,-185.7 497.5,-208.7 654.5,-208.7 654.5,-185.7 497.5,-185.7"/>
<polygon fill="none" stroke="#000000" points="497.5,-185.7 497.5,-208.7 654.5,-208.7 654.5,-185.7 497.5,-185.7"/>
<text text-anchor="start" x="502.5" y="-194.8" font-family="Helvetica,sans-Serif" font-weight="bold" font-size="11.00" fill="#000000">user_consent</text>
<text text-anchor="start" x="619.5437" y="-193.8" font-family="Helvetica,sans-Serif" font-size="11.00" fill="#000000">[table]</text>
<polygon fill="none" stroke="#000000" points="497.5,-163.7 497.5,-185.7 654.5,-185.7 654.5,-163.7 497.5,-163.7"/>
<image xlink:href="../../images/primaryKeys.png" width="11px" height="12px" preserveAspectRatio="xMinYMin meet" x="502.5" y="-180.7"/>
<text text-anchor="start" x="517.5" y="-170.8" font-family="Helvetica,sans-Serif" font-size="11.00" fill="#000000">id</text>
<polygon fill="#ffffff" stroke="transparent" points="497.5,-141.7 497.5,-163.7 654.5,-163.7 654.5,-141.7 497.5,-141.7"/>
<polygon fill="none" stroke="#000000" points="497.5,-141.7 497.5,-163.7 654.5,-163.7 654.5,-141.7 497.5,-141.7"/>
<image xlink:href="../../images/foreignKeys.png" width="11px" height="12px" preserveAspectRatio="xMinYMin meet" x="502.5" y="-158.7"/>
<text text-anchor="start" x="517.5" y="-148.8" font-family="Helvetica,sans-Serif" font-size="11.00" fill="#000000">client_id</text>
<polygon fill="#ffffff" stroke="transparent" points="497.5,-119.7 497.5,-141.7 654.5,-141.7 654.5,-119.7 497.5,-119.7"/>
<polygon fill="none" stroke="#000000" points="497.5,-119.7 497.5,-141.7 654.5,-141.7 654.5,-119.7 497.5,-119.7"/>
<image xlink:href="../../images/foreignKeys.png" width="11px" height="12px" preserveAspectRatio="xMinYMin meet" x="502.5" y="-136.7"/>
<text text-anchor="start" x="517.5" y="-126.8" font-family="Helvetica,sans-Serif" font-size="11.00" fill="#000000">user_id</text>
<polygon fill="#ffffff" stroke="transparent" points="497.5,-97.7 497.5,-119.7 654.5,-119.7 654.5,-97.7 497.5,-97.7"/>
<polygon fill="none" stroke="#000000" points="497.5,-97.7 497.5,-119.7 654.5,-119.7 654.5,-97.7 497.5,-97.7"/>
<text text-anchor="start" x="517.5" y="-104.8" font-family="Helvetica,sans-Serif" font-size="11.00" fill="#000000">client_storage_provider</text>
<polygon fill="#ffffff" stroke="transparent" points="497.5,-75.7 497.5,-97.7 654.5,-97.7 654.5,-75.7 497.5,-75.7"/>
<polygon fill="none" stroke="#000000" points="497.5,-75.7 497.5,-97.7 654.5,-97.7 654.5,-75.7 497.5,-75.7"/>
<image xlink:href="../../images/foreignKeys.png" width="11px" height="12px" preserveAspectRatio="xMinYMin meet" x="502.5" y="-92.7"/>
<text text-anchor="start" x="517.5" y="-82.8" font-family="Helvetica,sans-Serif" font-size="11.00" fill="#000000">external_client_id</text>
<polygon fill="none" stroke="#000000" points="497.5,-56.7 497.5,-75.7 654.5,-75.7 654.5,-56.7 497.5,-56.7"/>
<text text-anchor="start" x="500.5" y="-62.8" font-family="Helvetica,sans-Serif" font-size="11.00" fill="#000000">...</text>
<polygon fill="#ffffff" stroke="transparent" points="497.5,-37.7 497.5,-56.7 556.5,-56.7 556.5,-37.7 497.5,-37.7"/>
<polygon fill="none" stroke="#000000" points="497.5,-37.7 497.5,-56.7 556.5,-56.7 556.5,-37.7 497.5,-37.7"/>
<text text-anchor="start" x="500.5" y="-43.8" font-family="Helvetica,sans-Serif" font-size="11.00" fill="#000000">&lt; 3</text>
<polygon fill="#ffffff" stroke="transparent" points="556.5,-37.7 556.5,-56.7 613.5,-56.7 613.5,-37.7 556.5,-37.7"/>
<polygon fill="none" stroke="#000000" points="556.5,-37.7 556.5,-56.7 613.5,-56.7 613.5,-37.7 556.5,-37.7"/>
<text text-anchor="start" x="578.1105" y="-43.8" font-family="Helvetica,sans-Serif" font-size="11.00" fill="#000000">0 rows</text>
<polygon fill="#ffffff" stroke="transparent" points="613.5,-37.7 613.5,-56.7 654.5,-56.7 654.5,-37.7 613.5,-37.7"/>
<polygon fill="none" stroke="#000000" points="613.5,-37.7 613.5,-56.7 654.5,-56.7 654.5,-37.7 613.5,-37.7"/>
<text text-anchor="start" x="635.9053" y="-43.8" font-family="Helvetica,sans-Serif" font-size="11.00" fill="#000000">1 &gt;</text>
</a>
</g>
</g>
<!-- user_consent&#45;&gt;user_entity -->
<g id="edge7" class="edge">
<title>user_consent:w&#45;&gt;user_entity:e</title>
<path fill="none" stroke="#000000" d="M483.6067,-135.1607C427.2443,-177.3573 521.0906,-504.7 442.5,-504.7"/>
<polygon fill="#000000" stroke="#000000" points="489.883,-133.1456 498.6005,-134.1277 493.6915,-131.9228 497.5,-130.7 497.5,-130.7 497.5,-130.7 493.6915,-131.9228 496.3995,-127.2723 489.883,-133.1456 489.883,-133.1456"/>
<ellipse fill="none" stroke="#000000" cx="486.8362" cy="-134.1239" rx="3.2" ry="3.2"/>
</g>
<!-- user_consent&#45;&gt;federated_user -->
<g id="edge5" class="edge">
<title>user_consent:w&#45;&gt;federated_user:e</title>
<path fill="none" stroke="#000000" stroke-dasharray="5,2" d="M483.0309,-152.6208C353.6233,-151.2157 303.5896,-132.3816 185,-197.7 160.4248,-211.2359 172.0564,-245.7 144,-245.7"/>
<polygon fill="#000000" stroke="#000000" points="489.5001,-152.6561 497.4803,-156.2999 493.5001,-152.6781 497.5,-152.7 497.5,-152.7 497.5,-152.7 493.5001,-152.6781 497.5197,-149.1001 489.5001,-152.6561 489.5001,-152.6561"/>
<ellipse fill="none" stroke="#000000" cx="486.3002" cy="-152.6386" rx="3.2" ry="3.2"/>
</g>
<!-- user_consent&#45;&gt;federated_user -->
<g id="edge6" class="edge">
<title>user_consent:w&#45;&gt;federated_user:e</title>
<path fill="none" stroke="#000000" stroke-dasharray="5,2" d="M482.875,-86.5976C351.6937,-84.7825 290.7651,-60.483 185,-146.7 148.0867,-176.7908 191.624,-245.7 144,-245.7"/>
<polygon fill="#000000" stroke="#000000" points="489.5002,-86.6439 497.4748,-90.2999 493.5001,-86.672 497.5,-86.7 497.5,-86.7 497.5,-86.7 493.5001,-86.672 497.5252,-83.1001 489.5002,-86.6439 489.5002,-86.6439"/>
<ellipse fill="none" stroke="#000000" cx="486.3003" cy="-86.6215" rx="3.2" ry="3.2"/>
</g>
<!-- user_group_membership -->
<g id="node7" class="node">
<title>user_group_membership</title>
<g id="a_node7"><a xlink:href="../../tables/user_group_membership.html" xlink:title="user_group_membership" target="_top">
<polygon fill="#ffffff" stroke="transparent" points="493,-337.7 493,-423.7 658,-423.7 658,-337.7 493,-337.7"/>
<polygon fill="#f5f5f5" stroke="transparent" points="493.5,-400.7 493.5,-423.7 658.5,-423.7 658.5,-400.7 493.5,-400.7"/>
<polygon fill="none" stroke="#000000" points="493.5,-400.7 493.5,-423.7 658.5,-423.7 658.5,-400.7 493.5,-400.7"/>
<text text-anchor="start" x="498.378" y="-409.8" font-family="Helvetica,sans-Serif" font-weight="bold" font-size="11.00" fill="#000000">user_group_membership</text>
<text text-anchor="start" x="624.0219" y="-408.8" font-family="Helvetica,sans-Serif" font-size="11.00" fill="#000000">[table]</text>
<polygon fill="none" stroke="#000000" points="493.5,-378.7 493.5,-400.7 658.5,-400.7 658.5,-378.7 493.5,-378.7"/>
<image xlink:href="../../images/primaryKeys.png" width="11px" height="12px" preserveAspectRatio="xMinYMin meet" x="498.5" y="-395.7"/>
<text text-anchor="start" x="513.5" y="-385.8" font-family="Helvetica,sans-Serif" font-size="11.00" fill="#000000">group_id</text>
<polygon fill="none" stroke="#000000" points="493.5,-356.7 493.5,-378.7 658.5,-378.7 658.5,-356.7 493.5,-356.7"/>
<image xlink:href="../../images/primaryKeys.png" width="11px" height="12px" preserveAspectRatio="xMinYMin meet" x="498.5" y="-373.7"/>
<text text-anchor="start" x="513.5" y="-363.8" font-family="Helvetica,sans-Serif" font-size="11.00" fill="#000000">user_id</text>
<polygon fill="#ffffff" stroke="transparent" points="493.5,-337.7 493.5,-356.7 561.5,-356.7 561.5,-337.7 493.5,-337.7"/>
<polygon fill="none" stroke="#000000" points="493.5,-337.7 493.5,-356.7 561.5,-356.7 561.5,-337.7 493.5,-337.7"/>
<text text-anchor="start" x="496.5" y="-343.8" font-family="Helvetica,sans-Serif" font-size="11.00" fill="#000000">&lt; 1</text>
<polygon fill="#ffffff" stroke="transparent" points="561.5,-337.7 561.5,-356.7 622.5,-356.7 622.5,-337.7 561.5,-337.7"/>
<polygon fill="none" stroke="#000000" points="561.5,-337.7 561.5,-356.7 622.5,-356.7 622.5,-337.7 561.5,-337.7"/>
<text text-anchor="start" x="587.1105" y="-343.8" font-family="Helvetica,sans-Serif" font-size="11.00" fill="#000000">0 rows</text>
<polygon fill="#ffffff" stroke="transparent" points="622.5,-337.7 622.5,-356.7 658.5,-356.7 658.5,-337.7 622.5,-337.7"/>
<polygon fill="none" stroke="#000000" points="622.5,-337.7 622.5,-356.7 658.5,-356.7 658.5,-337.7 622.5,-337.7"/>
<text text-anchor="start" x="649.3862" y="-343.8" font-family="Helvetica,sans-Serif" font-size="11.00" fill="#000000"> &#160;</text>
</a>
</g>
</g>
<!-- user_group_membership&#45;&gt;user_entity -->
<g id="edge9" class="edge">
<title>user_group_membership:w&#45;&gt;user_entity:e</title>
<path fill="none" stroke="#000000" d="M479.2645,-370.8188C441.5522,-391.2113 501.6338,-504.7 442.5,-504.7"/>
<polygon fill="#000000" stroke="#000000" points="485.6854,-369.4121 494.2705,-371.2166 489.5927,-368.5561 493.5,-367.7 493.5,-367.7 493.5,-367.7 489.5927,-368.5561 492.7295,-364.1834 485.6854,-369.4121 485.6854,-369.4121"/>
<ellipse fill="none" stroke="#000000" cx="482.5595" cy="-370.097" rx="3.2" ry="3.2"/>
</g>
<!-- user_required_action -->
<g id="node8" class="node">
<title>user_required_action</title>
<g id="a_node8"><a xlink:href="../../tables/user_required_action.html" xlink:title="user_required_action" target="_top">
<polygon fill="#ffffff" stroke="transparent" points="502.5,-230.7 502.5,-316.7 648.5,-316.7 648.5,-230.7 502.5,-230.7"/>
<polygon fill="#f5f5f5" stroke="transparent" points="502.5,-293.7 502.5,-316.7 648.5,-316.7 648.5,-293.7 502.5,-293.7"/>
<polygon fill="none" stroke="#000000" points="502.5,-293.7 502.5,-316.7 648.5,-316.7 648.5,-293.7 502.5,-293.7"/>
<text text-anchor="start" x="507.3484" y="-302.8" font-family="Helvetica,sans-Serif" font-weight="bold" font-size="11.00" fill="#000000">user_required_action</text>
<text text-anchor="start" x="614.0219" y="-301.8" font-family="Helvetica,sans-Serif" font-size="11.00" fill="#000000">[table]</text>
<polygon fill="none" stroke="#000000" points="502.5,-271.7 502.5,-293.7 648.5,-293.7 648.5,-271.7 502.5,-271.7"/>
<image xlink:href="../../images/primaryKeys.png" width="11px" height="12px" preserveAspectRatio="xMinYMin meet" x="507.5" y="-288.7"/>
<text text-anchor="start" x="524.5" y="-278.8" font-family="Helvetica,sans-Serif" font-size="11.00" fill="#000000">user_id</text>
<polygon fill="none" stroke="#000000" points="502.5,-249.7 502.5,-271.7 648.5,-271.7 648.5,-249.7 502.5,-249.7"/>
<image xlink:href="../../images/primaryKeys.png" width="11px" height="12px" preserveAspectRatio="xMinYMin meet" x="507.5" y="-266.7"/>
<text text-anchor="start" x="524.5" y="-256.8" font-family="Helvetica,sans-Serif" font-size="11.00" fill="#000000">required_action</text>
<polygon fill="#ffffff" stroke="transparent" points="502.5,-230.7 502.5,-249.7 560.5,-249.7 560.5,-230.7 502.5,-230.7"/>
<polygon fill="none" stroke="#000000" points="502.5,-230.7 502.5,-249.7 560.5,-249.7 560.5,-230.7 502.5,-230.7"/>
<text text-anchor="start" x="505.5" y="-236.8" font-family="Helvetica,sans-Serif" font-size="11.00" fill="#000000">&lt; 1</text>
<polygon fill="#ffffff" stroke="transparent" points="560.5,-230.7 560.5,-249.7 617.5,-249.7 617.5,-230.7 560.5,-230.7"/>
<polygon fill="none" stroke="#000000" points="560.5,-230.7 560.5,-249.7 617.5,-249.7 617.5,-230.7 560.5,-230.7"/>
<text text-anchor="start" x="582.1105" y="-236.8" font-family="Helvetica,sans-Serif" font-size="11.00" fill="#000000">0 rows</text>
<polygon fill="#ffffff" stroke="transparent" points="617.5,-230.7 617.5,-249.7 648.5,-249.7 648.5,-230.7 617.5,-230.7"/>
<polygon fill="none" stroke="#000000" points="617.5,-230.7 617.5,-249.7 648.5,-249.7 648.5,-230.7 617.5,-230.7"/>
<text text-anchor="start" x="639.3862" y="-236.8" font-family="Helvetica,sans-Serif" font-size="11.00" fill="#000000"> &#160;</text>
</a>
</g>
</g>
<!-- user_required_action&#45;&gt;user_entity -->
<g id="edge10" class="edge">
<title>user_required_action:w&#45;&gt;user_entity:e</title>
<path fill="none" stroke="#000000" d="M487.8637,-284.6192C415.3509,-306.3173 539.1173,-504.7 442.5,-504.7"/>
<polygon fill="#000000" stroke="#000000" points="494.5679,-283.7402 502.9681,-286.2694 498.534,-283.2201 502.5,-282.7 502.5,-282.7 502.5,-282.7 498.534,-283.2201 502.0319,-279.1306 494.5679,-283.7402 494.5679,-283.7402"/>
<ellipse fill="none" stroke="#000000" cx="491.3951" cy="-284.1562" rx="3.2" ry="3.2"/>
</g>
<!-- user_role_mapping -->
<g id="node9" class="node">
<title>user_role_mapping</title>
<g id="a_node9"><a xlink:href="../../tables/user_role_mapping.html" xlink:title="user_role_mapping" target="_top">
<polygon fill="#ffffff" stroke="transparent" points="507,-697.7 507,-783.7 644,-783.7 644,-697.7 507,-697.7"/>
<polygon fill="#f5f5f5" stroke="transparent" points="507.5,-760.7 507.5,-783.7 644.5,-783.7 644.5,-760.7 507.5,-760.7"/>
<polygon fill="none" stroke="#000000" points="507.5,-760.7 507.5,-783.7 644.5,-783.7 644.5,-760.7 507.5,-760.7"/>
<text text-anchor="start" x="512.4343" y="-769.8" font-family="Helvetica,sans-Serif" font-weight="bold" font-size="11.00" fill="#000000">user_role_mapping</text>
<text text-anchor="start" x="610.0219" y="-768.8" font-family="Helvetica,sans-Serif" font-size="11.00" fill="#000000">[table]</text>
<polygon fill="none" stroke="#000000" points="507.5,-738.7 507.5,-760.7 644.5,-760.7 644.5,-738.7 507.5,-738.7"/>
<image xlink:href="../../images/primaryKeys.png" width="11px" height="12px" preserveAspectRatio="xMinYMin meet" x="512.5" y="-755.7"/>
<text text-anchor="start" x="530.5" y="-745.8" font-family="Helvetica,sans-Serif" font-size="11.00" fill="#000000">role_id</text>
<polygon fill="none" stroke="#000000" points="507.5,-716.7 507.5,-738.7 644.5,-738.7 644.5,-716.7 507.5,-716.7"/>
<image xlink:href="../../images/primaryKeys.png" width="11px" height="12px" preserveAspectRatio="xMinYMin meet" x="512.5" y="-733.7"/>
<text text-anchor="start" x="530.5" y="-723.8" font-family="Helvetica,sans-Serif" font-size="11.00" fill="#000000">user_id</text>
<polygon fill="#ffffff" stroke="transparent" points="507.5,-697.7 507.5,-716.7 561.5,-716.7 561.5,-697.7 507.5,-697.7"/>
<polygon fill="none" stroke="#000000" points="507.5,-697.7 507.5,-716.7 561.5,-716.7 561.5,-697.7 507.5,-697.7"/>
<text text-anchor="start" x="510.5" y="-703.8" font-family="Helvetica,sans-Serif" font-size="11.00" fill="#000000">&lt; 1</text>
<polygon fill="#ffffff" stroke="transparent" points="561.5,-697.7 561.5,-716.7 615.5,-716.7 615.5,-697.7 561.5,-697.7"/>
<polygon fill="none" stroke="#000000" points="561.5,-697.7 561.5,-716.7 615.5,-716.7 615.5,-697.7 561.5,-697.7"/>
<text text-anchor="start" x="580.1105" y="-703.8" font-family="Helvetica,sans-Serif" font-size="11.00" fill="#000000">5 rows</text>
<polygon fill="#ffffff" stroke="transparent" points="615.5,-697.7 615.5,-716.7 644.5,-716.7 644.5,-697.7 615.5,-697.7"/>
<polygon fill="none" stroke="#000000" points="615.5,-697.7 615.5,-716.7 644.5,-716.7 644.5,-697.7 615.5,-697.7"/>
<text text-anchor="start" x="635.3862" y="-703.8" font-family="Helvetica,sans-Serif" font-size="11.00" fill="#000000"> &#160;</text>
</a>
</g>
</g>
<!-- user_role_mapping&#45;&gt;user_entity -->
<g id="edge11" class="edge">
<title>user_role_mapping:w&#45;&gt;user_entity:e</title>
<path fill="none" stroke="#000000" d="M493.1376,-725.905C418.5047,-704.8006 540.2915,-504.7 442.5,-504.7"/>
<polygon fill="#000000" stroke="#000000" points="499.5618,-726.7078 507.0535,-731.2722 503.5309,-727.2039 507.5,-727.7 507.5,-727.7 507.5,-727.7 503.5309,-727.2039 507.9465,-724.1278 499.5618,-726.7078 499.5618,-726.7078"/>
<ellipse fill="none" stroke="#000000" cx="496.3865" cy="-726.311" rx="3.2" ry="3.2"/>
</g>
</g>
</svg>
