<?xml version="1.0" encoding="UTF-8" standalone="no"?>
<!DOCTYPE svg PUBLIC "-//W3C//DTD SVG 1.1//EN"
 "http://www.w3.org/Graphics/SVG/1.1/DTD/svg11.dtd">
<!-- Generated by graphviz version 2.40.1 (20161225.0304)
 -->
<!-- Title: twoDegreesRelationshipsDiagram Pages: 1 -->
<svg width="843pt" height="179pt"
 viewBox="0.00 0.00 843.00 178.70" xmlns="http://www.w3.org/2000/svg" xmlns:xlink="http://www.w3.org/1999/xlink">
<g id="graph0" class="graph" transform="scale(1 1) rotate(0) translate(4 174.7)">
<title>twoDegreesRelationshipsDiagram</title>
<polygon fill="#ffffff" stroke="transparent" points="-4,4 -4,-174.7 839,-174.7 839,4 -4,4"/>
<text text-anchor="middle" x="72.4936" y="-7.3" font-family="Helvetica,sans-Serif" font-size="11.00" fill="#000000">Generated by SchemaSpy</text>
<!-- user_federation_mapper -->
<g id="node1" class="node">
<title>user_federation_mapper</title>
<g id="a_node1"><a xlink:href="../../tables/user_federation_mapper.html" xlink:title="user_federation_mapper" target="_top">
<polygon fill="#ffffff" stroke="transparent" points="342,-38.2 342,-165.2 504,-165.2 504,-38.2 342,-38.2"/>
<polygon fill="#f5f5f5" stroke="transparent" points="342,-141.7 342,-164.7 504,-164.7 504,-141.7 342,-141.7"/>
<polygon fill="none" stroke="#000000" points="342,-141.7 342,-164.7 504,-164.7 504,-141.7 342,-141.7"/>
<text text-anchor="start" x="346.5946" y="-150.8" font-family="Helvetica,sans-Serif" font-weight="bold" font-size="11.00" fill="#000000">user_federation_mapper</text>
<text text-anchor="start" x="469.5219" y="-149.8" font-family="Helvetica,sans-Serif" font-size="11.00" fill="#000000">[table]</text>
<polygon fill="none" stroke="#000000" points="342,-119.7 342,-141.7 504,-141.7 504,-119.7 342,-119.7"/>
<image xlink:href="../../images/primaryKeys.png" width="11px" height="12px" preserveAspectRatio="xMinYMin meet" x="347" y="-136.7"/>
<text text-anchor="start" x="363" y="-126.8" font-family="Helvetica,sans-Serif" font-size="11.00" fill="#000000">id</text>
<polygon fill="#ffffff" stroke="transparent" points="342,-97.7 342,-119.7 504,-119.7 504,-97.7 342,-97.7"/>
<polygon fill="none" stroke="#000000" points="342,-97.7 342,-119.7 504,-119.7 504,-97.7 342,-97.7"/>
<image xlink:href="../../images/foreignKeys.png" width="11px" height="12px" preserveAspectRatio="xMinYMin meet" x="347" y="-114.7"/>
<text text-anchor="start" x="363" y="-104.8" font-family="Helvetica,sans-Serif" font-size="11.00" fill="#000000">federation_provider_id</text>
<polygon fill="#ffffff" stroke="transparent" points="342,-75.7 342,-97.7 504,-97.7 504,-75.7 342,-75.7"/>
<polygon fill="none" stroke="#000000" points="342,-75.7 342,-97.7 504,-97.7 504,-75.7 342,-75.7"/>
<image xlink:href="../../images/foreignKeys.png" width="11px" height="12px" preserveAspectRatio="xMinYMin meet" x="347" y="-92.7"/>
<text text-anchor="start" x="363" y="-82.8" font-family="Helvetica,sans-Serif" font-size="11.00" fill="#000000">realm_id</text>
<polygon fill="none" stroke="#000000" points="342,-56.7 342,-75.7 504,-75.7 504,-56.7 342,-56.7"/>
<text text-anchor="start" x="345" y="-62.8" font-family="Helvetica,sans-Serif" font-size="11.00" fill="#000000">...</text>
<polygon fill="#ffffff" stroke="transparent" points="342,-37.7 342,-56.7 404,-56.7 404,-37.7 342,-37.7"/>
<polygon fill="none" stroke="#000000" points="342,-37.7 342,-56.7 404,-56.7 404,-37.7 342,-37.7"/>
<text text-anchor="start" x="345" y="-43.8" font-family="Helvetica,sans-Serif" font-size="11.00" fill="#000000">&lt; 2</text>
<polygon fill="#ffffff" stroke="transparent" points="404,-37.7 404,-56.7 462,-56.7 462,-37.7 404,-37.7"/>
<polygon fill="none" stroke="#000000" points="404,-37.7 404,-56.7 462,-56.7 462,-37.7 404,-37.7"/>
<text text-anchor="start" x="426.6105" y="-43.8" font-family="Helvetica,sans-Serif" font-size="11.00" fill="#000000">0 rows</text>
<polygon fill="#ffffff" stroke="transparent" points="462,-37.7 462,-56.7 504,-56.7 504,-37.7 462,-37.7"/>
<polygon fill="none" stroke="#000000" points="462,-37.7 462,-56.7 504,-56.7 504,-37.7 462,-37.7"/>
<text text-anchor="start" x="485.4053" y="-43.8" font-family="Helvetica,sans-Serif" font-size="11.00" fill="#000000">1 &gt;</text>
</a>
</g>
</g>
<!-- user_federation_provider -->
<g id="node2" class="node">
<title>user_federation_provider</title>
<g id="a_node2"><a xlink:href="../../tables/user_federation_provider.html" xlink:title="user_federation_provider" target="_top">
<polygon fill="#ffffff" stroke="transparent" points="128,-96.2 128,-157.2 293,-157.2 293,-96.2 128,-96.2"/>
<polygon fill="#f5f5f5" stroke="transparent" points="128.5,-133.7 128.5,-156.7 293.5,-156.7 293.5,-133.7 128.5,-133.7"/>
<polygon fill="none" stroke="#000000" points="128.5,-133.7 128.5,-156.7 293.5,-156.7 293.5,-133.7 128.5,-133.7"/>
<text text-anchor="start" x="133.3741" y="-142.8" font-family="Helvetica,sans-Serif" font-weight="bold" font-size="11.00" fill="#000000">user_federation_provider</text>
<text text-anchor="start" x="259.0219" y="-141.8" font-family="Helvetica,sans-Serif" font-size="11.00" fill="#000000">[table]</text>
<polygon fill="none" stroke="#000000" points="128.5,-114.7 128.5,-133.7 293.5,-133.7 293.5,-114.7 128.5,-114.7"/>
<text text-anchor="start" x="131.5" y="-120.8" font-family="Helvetica,sans-Serif" font-size="11.00" fill="#000000">...</text>
<polygon fill="#ffffff" stroke="transparent" points="128.5,-95.7 128.5,-114.7 191.5,-114.7 191.5,-95.7 128.5,-95.7"/>
<polygon fill="none" stroke="#000000" points="128.5,-95.7 128.5,-114.7 191.5,-114.7 191.5,-95.7 128.5,-95.7"/>
<text text-anchor="start" x="131.5" y="-101.8" font-family="Helvetica,sans-Serif" font-size="11.00" fill="#000000">&lt; 1</text>
<polygon fill="#ffffff" stroke="transparent" points="191.5,-95.7 191.5,-114.7 250.5,-114.7 250.5,-95.7 191.5,-95.7"/>
<polygon fill="none" stroke="#000000" points="191.5,-95.7 191.5,-114.7 250.5,-114.7 250.5,-95.7 191.5,-95.7"/>
<text text-anchor="start" x="215.1105" y="-101.8" font-family="Helvetica,sans-Serif" font-size="11.00" fill="#000000">0 rows</text>
<polygon fill="#ffffff" stroke="transparent" points="250.5,-95.7 250.5,-114.7 293.5,-114.7 293.5,-95.7 250.5,-95.7"/>
<polygon fill="none" stroke="#000000" points="250.5,-95.7 250.5,-114.7 293.5,-114.7 293.5,-95.7 250.5,-95.7"/>
<text text-anchor="start" x="274.9053" y="-101.8" font-family="Helvetica,sans-Serif" font-size="11.00" fill="#000000">2 &gt;</text>
</a>
</g>
</g>
<!-- user_federation_mapper&#45;&gt;user_federation_provider -->
<g id="edge1" class="edge">
<title>user_federation_mapper:w&#45;&gt;user_federation_provider:e</title>
<path fill="none" stroke="#000000" d="M327.7176,-111.1769C316.4219,-115.4374 310.2459,-123.7 293.5,-123.7"/>
<polygon fill="#000000" stroke="#000000" points="334.1177,-110.0671 342.6152,-112.2471 338.0588,-109.3835 342,-108.7 342,-108.7 342,-108.7 338.0588,-109.3835 341.3848,-105.1529 334.1177,-110.0671 334.1177,-110.0671"/>
<ellipse fill="none" stroke="#000000" cx="330.9647" cy="-110.6139" rx="3.2" ry="3.2"/>
</g>
<!-- realm -->
<g id="node3" class="node">
<title>realm</title>
<g id="a_node3"><a xlink:href="../../tables/realm.html" xlink:title="realm" target="_top">
<polygon fill="#ffffff" stroke="transparent" points="8,-70.2 8,-131.2 79,-131.2 79,-70.2 8,-70.2"/>
<polygon fill="#f5f5f5" stroke="transparent" points="8.5,-107.7 8.5,-130.7 79.5,-130.7 79.5,-107.7 8.5,-107.7"/>
<polygon fill="none" stroke="#000000" points="8.5,-107.7 8.5,-130.7 79.5,-130.7 79.5,-107.7 8.5,-107.7"/>
<text text-anchor="start" x="13.5" y="-116.8" font-family="Helvetica,sans-Serif" font-weight="bold" font-size="11.00" fill="#000000">realm</text>
<text text-anchor="start" x="45.0219" y="-115.8" font-family="Helvetica,sans-Serif" font-size="11.00" fill="#000000">[table]</text>
<polygon fill="none" stroke="#000000" points="8.5,-88.7 8.5,-107.7 79.5,-107.7 79.5,-88.7 8.5,-88.7"/>
<text text-anchor="start" x="11.5" y="-94.8" font-family="Helvetica,sans-Serif" font-size="11.00" fill="#000000">...</text>
<polygon fill="#ffffff" stroke="transparent" points="8.5,-69.7 8.5,-88.7 20.5,-88.7 20.5,-69.7 8.5,-69.7"/>
<polygon fill="none" stroke="#000000" points="8.5,-69.7 8.5,-88.7 20.5,-88.7 20.5,-69.7 8.5,-69.7"/>
<text text-anchor="start" x="11.4431" y="-75.8" font-family="Helvetica,sans-Serif" font-size="11.00" fill="#000000"> &#160;</text>
<polygon fill="#ffffff" stroke="transparent" points="20.5,-69.7 20.5,-88.7 52.5,-88.7 52.5,-69.7 20.5,-69.7"/>
<polygon fill="none" stroke="#000000" points="20.5,-69.7 20.5,-88.7 52.5,-88.7 52.5,-69.7 20.5,-69.7"/>
<text text-anchor="start" x="23.0553" y="-75.8" font-family="Helvetica,sans-Serif" font-size="11.00" fill="#000000">1 row</text>
<polygon fill="#ffffff" stroke="transparent" points="52.5,-69.7 52.5,-88.7 79.5,-88.7 79.5,-69.7 52.5,-69.7"/>
<polygon fill="none" stroke="#000000" points="52.5,-69.7 52.5,-88.7 79.5,-88.7 79.5,-69.7 52.5,-69.7"/>
<text text-anchor="start" x="55.1452" y="-75.8" font-family="Helvetica,sans-Serif" font-size="11.00" fill="#000000">23 &gt;</text>
</a>
</g>
</g>
<!-- user_federation_mapper&#45;&gt;realm -->
<g id="edge2" class="edge">
<title>user_federation_mapper:w&#45;&gt;realm:e</title>
<path fill="none" stroke="#000000" d="M327.5097,-86.4959C319.3161,-86.2494 313.2458,-85.8493 301,-85.7 220.5615,-84.7192 199.6115,-74.1538 120,-85.7 101.4209,-88.3946 98.2735,-97.7 79.5,-97.7"/>
<polygon fill="#000000" stroke="#000000" points="334.0008,-86.5873 341.9493,-90.2996 338.0004,-86.6436 342,-86.7 342,-86.7 342,-86.7 338.0004,-86.6436 342.0507,-83.1004 334.0008,-86.5873 334.0008,-86.5873"/>
<ellipse fill="none" stroke="#000000" cx="330.8011" cy="-86.5422" rx="3.2" ry="3.2"/>
</g>
<!-- user_federation_provider&#45;&gt;realm -->
<g id="edge4" class="edge">
<title>user_federation_provider:w&#45;&gt;realm:e</title>
<path fill="none" stroke="#000000" d="M114.2707,-119.8636C102.5311,-112.6313 98.1828,-97.7 79.5,-97.7"/>
<polygon fill="#000000" stroke="#000000" points="120.7758,-121.6174 127.5628,-127.1759 124.6379,-122.6587 128.5,-123.7 128.5,-123.7 128.5,-123.7 124.6379,-122.6587 129.4372,-120.2241 120.7758,-121.6174 120.7758,-121.6174"/>
<ellipse fill="none" stroke="#000000" cx="117.6861" cy="-120.7844" rx="3.2" ry="3.2"/>
</g>
<!-- user_federation_mapper_config -->
<g id="node4" class="node">
<title>user_federation_mapper_config</title>
<g id="a_node4"><a xlink:href="../../tables/user_federation_mapper_config.html" xlink:title="user_federation_mapper_config" target="_top">
<polygon fill="#ffffff" stroke="transparent" points="553,-54.7 553,-166.7 827,-166.7 827,-54.7 553,-54.7"/>
<polygon fill="#f5f5f5" stroke="transparent" points="555,-141.7 555,-164.7 825,-164.7 825,-141.7 555,-141.7"/>
<polygon fill="none" stroke="#000000" points="555,-141.7 555,-164.7 825,-164.7 825,-141.7 555,-141.7"/>
<text text-anchor="start" x="560" y="-150.8" font-family="Helvetica,sans-Serif" font-weight="bold" font-size="11.00" fill="#000000">user_federation_mapper_config</text>
<text text-anchor="start" x="790.0437" y="-149.8" font-family="Helvetica,sans-Serif" font-size="11.00" fill="#000000">[table]</text>
<polygon fill="none" stroke="#000000" points="555,-119.7 555,-141.7 758,-141.7 758,-119.7 555,-119.7"/>
<image xlink:href="../../images/primaryKeys.png" width="11px" height="12px" preserveAspectRatio="xMinYMin meet" x="560" y="-136.7"/>
<text text-anchor="start" x="575" y="-126.8" font-family="Helvetica,sans-Serif" font-size="11.00" fill="#000000">user_federation_mapper_id</text>
<polygon fill="none" stroke="#000000" points="758,-119.7 758,-141.7 825,-141.7 825,-119.7 758,-119.7"/>
<text text-anchor="start" x="761" y="-127.4" font-family="Helvetica,sans-Serif" font-size="11.00" fill="#000000">varchar[36]</text>
<polygon fill="none" stroke="#000000" points="555,-97.7 555,-119.7 758,-119.7 758,-97.7 555,-97.7"/>
<text text-anchor="start" x="575" y="-104.8" font-family="Helvetica,sans-Serif" font-size="11.00" fill="#000000">value</text>
<polygon fill="none" stroke="#000000" points="758,-97.7 758,-119.7 825,-119.7 825,-97.7 758,-97.7"/>
<text text-anchor="start" x="760.9365" y="-105.4" font-family="Helvetica,sans-Serif" font-size="11.00" fill="#000000">varchar[255]</text>
<polygon fill="none" stroke="#000000" points="555,-75.7 555,-97.7 758,-97.7 758,-75.7 555,-75.7"/>
<image xlink:href="../../images/primaryKeys.png" width="11px" height="12px" preserveAspectRatio="xMinYMin meet" x="560" y="-92.7"/>
<text text-anchor="start" x="575" y="-82.8" font-family="Helvetica,sans-Serif" font-size="11.00" fill="#000000">name</text>
<polygon fill="none" stroke="#000000" points="758,-75.7 758,-97.7 825,-97.7 825,-75.7 758,-75.7"/>
<text text-anchor="start" x="760.9365" y="-83.4" font-family="Helvetica,sans-Serif" font-size="11.00" fill="#000000">varchar[255]</text>
<polygon fill="#ffffff" stroke="transparent" points="555,-56.7 555,-75.7 648,-75.7 648,-56.7 555,-56.7"/>
<polygon fill="none" stroke="#000000" points="555,-56.7 555,-75.7 648,-75.7 648,-56.7 555,-56.7"/>
<text text-anchor="start" x="558" y="-62.8" font-family="Helvetica,sans-Serif" font-size="11.00" fill="#000000">&lt; 1</text>
<polygon fill="#ffffff" stroke="transparent" points="648,-56.7 648,-75.7 758,-75.7 758,-56.7 648,-56.7"/>
<polygon fill="none" stroke="#000000" points="648,-56.7 648,-75.7 758,-75.7 758,-56.7 648,-56.7"/>
<text text-anchor="start" x="722.6105" y="-62.8" font-family="Helvetica,sans-Serif" font-size="11.00" fill="#000000">0 rows</text>
<polygon fill="#ffffff" stroke="transparent" points="758,-56.7 758,-75.7 825,-75.7 825,-56.7 758,-56.7"/>
<polygon fill="none" stroke="#000000" points="758,-56.7 758,-75.7 825,-75.7 825,-56.7 758,-56.7"/>
<text text-anchor="start" x="806.4053" y="-62.8" font-family="Helvetica,sans-Serif" font-size="11.00" fill="#000000">0 &gt;</text>
<polygon fill="none" stroke="#000000" stroke-width="2" points="554,-55.7 554,-165.7 826,-165.7 826,-55.7 554,-55.7"/>
</a>
</g>
</g>
<!-- user_federation_mapper_config&#45;&gt;user_federation_mapper -->
<g id="edge3" class="edge">
<title>user_federation_mapper_config:w&#45;&gt;user_federation_mapper:e</title>
<path fill="none" stroke="#000000" d="M540.276,-130.7C528.2815,-130.7 520.8229,-130.7 504,-130.7"/>
<polygon fill="#000000" stroke="#000000" points="547,-130.7001 555,-134.3 551,-130.7 555,-130.7 555,-130.7 555,-130.7 551,-130.7 555,-127.1 547,-130.7001 547,-130.7001"/>
<ellipse fill="none" stroke="#000000" cx="543.8" cy="-130.7001" rx="3.2" ry="3.2"/>
</g>
</g>
</svg>
