<?xml version="1.0" encoding="UTF-8" standalone="no"?>
<!DOCTYPE svg PUBLIC "-//W3C//DTD SVG 1.1//EN"
 "http://www.w3.org/Graphics/SVG/1.1/DTD/svg11.dtd">
<!-- Generated by graphviz version 2.40.1 (20161225.0304)
 -->
<!-- Title: oneDegreeRelationshipsDiagram Pages: 1 -->
<svg width="492pt" height="162pt"
 viewBox="0.00 0.00 492.00 162.20" xmlns="http://www.w3.org/2000/svg" xmlns:xlink="http://www.w3.org/1999/xlink">
<g id="graph0" class="graph" transform="scale(1 1) rotate(0) translate(4 158.2)">
<title>oneDegreeRelationshipsDiagram</title>
<polygon fill="#ffffff" stroke="transparent" points="-4,4 -4,-158.2 488,-158.2 488,4 -4,4"/>
<text text-anchor="middle" x="72.4936" y="-7.3" font-family="Helvetica,sans-Serif" font-size="11.00" fill="#000000">Generated by SchemaSpy</text>
<!-- user_federation_config -->
<g id="node1" class="node">
<title>user_federation_config</title>
<g id="a_node1"><a xlink:href="../../tables/user_federation_config.html" xlink:title="user_federation_config" target="_top">
<polygon fill="#ffffff" stroke="transparent" points="222,-38.2 222,-150.2 476,-150.2 476,-38.2 222,-38.2"/>
<polygon fill="#f5f5f5" stroke="transparent" points="224,-125.2 224,-148.2 474,-148.2 474,-125.2 224,-125.2"/>
<polygon fill="none" stroke="#000000" points="224,-125.2 224,-148.2 474,-148.2 474,-125.2 224,-125.2"/>
<text text-anchor="start" x="229" y="-134.3" font-family="Helvetica,sans-Serif" font-weight="bold" font-size="11.00" fill="#000000">user_federation_config</text>
<text text-anchor="start" x="439.0437" y="-133.3" font-family="Helvetica,sans-Serif" font-size="11.00" fill="#000000">[table]</text>
<polygon fill="none" stroke="#000000" points="224,-103.2 224,-125.2 407,-125.2 407,-103.2 224,-103.2"/>
<image xlink:href="../../images/primaryKeys.png" width="11px" height="12px" preserveAspectRatio="xMinYMin meet" x="229" y="-120.2"/>
<text text-anchor="start" x="244" y="-110.3" font-family="Helvetica,sans-Serif" font-size="11.00" fill="#000000">user_federation_provider_id</text>
<polygon fill="none" stroke="#000000" points="407,-103.2 407,-125.2 474,-125.2 474,-103.2 407,-103.2"/>
<text text-anchor="start" x="410" y="-110.9" font-family="Helvetica,sans-Serif" font-size="11.00" fill="#000000">varchar[36]</text>
<polygon fill="none" stroke="#000000" points="224,-81.2 224,-103.2 407,-103.2 407,-81.2 224,-81.2"/>
<text text-anchor="start" x="244" y="-88.3" font-family="Helvetica,sans-Serif" font-size="11.00" fill="#000000">value</text>
<polygon fill="none" stroke="#000000" points="407,-81.2 407,-103.2 474,-103.2 474,-81.2 407,-81.2"/>
<text text-anchor="start" x="409.9365" y="-88.9" font-family="Helvetica,sans-Serif" font-size="11.00" fill="#000000">varchar[255]</text>
<polygon fill="none" stroke="#000000" points="224,-59.2 224,-81.2 407,-81.2 407,-59.2 224,-59.2"/>
<image xlink:href="../../images/primaryKeys.png" width="11px" height="12px" preserveAspectRatio="xMinYMin meet" x="229" y="-76.2"/>
<text text-anchor="start" x="244" y="-66.3" font-family="Helvetica,sans-Serif" font-size="11.00" fill="#000000">name</text>
<polygon fill="none" stroke="#000000" points="407,-59.2 407,-81.2 474,-81.2 474,-59.2 407,-59.2"/>
<text text-anchor="start" x="409.9365" y="-66.9" font-family="Helvetica,sans-Serif" font-size="11.00" fill="#000000">varchar[255]</text>
<polygon fill="#ffffff" stroke="transparent" points="224,-40.2 224,-59.2 307,-59.2 307,-40.2 224,-40.2"/>
<polygon fill="none" stroke="#000000" points="224,-40.2 224,-59.2 307,-59.2 307,-40.2 224,-40.2"/>
<text text-anchor="start" x="227" y="-46.3" font-family="Helvetica,sans-Serif" font-size="11.00" fill="#000000">&lt; 1</text>
<polygon fill="#ffffff" stroke="transparent" points="307,-40.2 307,-59.2 407,-59.2 407,-40.2 307,-40.2"/>
<polygon fill="none" stroke="#000000" points="307,-40.2 307,-59.2 407,-59.2 407,-40.2 307,-40.2"/>
<text text-anchor="start" x="371.6105" y="-46.3" font-family="Helvetica,sans-Serif" font-size="11.00" fill="#000000">0 rows</text>
<polygon fill="#ffffff" stroke="transparent" points="407,-40.2 407,-59.2 474,-59.2 474,-40.2 407,-40.2"/>
<polygon fill="none" stroke="#000000" points="407,-40.2 407,-59.2 474,-59.2 474,-40.2 407,-40.2"/>
<text text-anchor="start" x="455.4053" y="-46.3" font-family="Helvetica,sans-Serif" font-size="11.00" fill="#000000">0 &gt;</text>
<polygon fill="none" stroke="#000000" stroke-width="2" points="223,-39.2 223,-149.2 475,-149.2 475,-39.2 223,-39.2"/>
</a>
</g>
</g>
<!-- user_federation_provider -->
<g id="node2" class="node">
<title>user_federation_provider</title>
<g id="a_node2"><a xlink:href="../../tables/user_federation_provider.html" xlink:title="user_federation_provider" target="_top">
<polygon fill="#ffffff" stroke="transparent" points="8,-43.7 8,-148.7 173,-148.7 173,-43.7 8,-43.7"/>
<polygon fill="#f5f5f5" stroke="transparent" points="8.5,-125.2 8.5,-148.2 173.5,-148.2 173.5,-125.2 8.5,-125.2"/>
<polygon fill="none" stroke="#000000" points="8.5,-125.2 8.5,-148.2 173.5,-148.2 173.5,-125.2 8.5,-125.2"/>
<text text-anchor="start" x="13.3741" y="-134.3" font-family="Helvetica,sans-Serif" font-weight="bold" font-size="11.00" fill="#000000">user_federation_provider</text>
<text text-anchor="start" x="139.0219" y="-133.3" font-family="Helvetica,sans-Serif" font-size="11.00" fill="#000000">[table]</text>
<polygon fill="none" stroke="#000000" points="8.5,-103.2 8.5,-125.2 173.5,-125.2 173.5,-103.2 8.5,-103.2"/>
<image xlink:href="../../images/primaryKeys.png" width="11px" height="12px" preserveAspectRatio="xMinYMin meet" x="13.5" y="-120.2"/>
<text text-anchor="start" x="28.5" y="-110.3" font-family="Helvetica,sans-Serif" font-size="11.00" fill="#000000">id</text>
<polygon fill="#ffffff" stroke="transparent" points="8.5,-81.2 8.5,-103.2 173.5,-103.2 173.5,-81.2 8.5,-81.2"/>
<polygon fill="none" stroke="#000000" points="8.5,-81.2 8.5,-103.2 173.5,-103.2 173.5,-81.2 8.5,-81.2"/>
<image xlink:href="../../images/foreignKeys.png" width="11px" height="12px" preserveAspectRatio="xMinYMin meet" x="13.5" y="-98.2"/>
<text text-anchor="start" x="28.5" y="-88.3" font-family="Helvetica,sans-Serif" font-size="11.00" fill="#000000">realm_id</text>
<polygon fill="none" stroke="#000000" points="8.5,-62.2 8.5,-81.2 173.5,-81.2 173.5,-62.2 8.5,-62.2"/>
<text text-anchor="start" x="11.5" y="-68.3" font-family="Helvetica,sans-Serif" font-size="11.00" fill="#000000">...</text>
<polygon fill="#ffffff" stroke="transparent" points="8.5,-43.2 8.5,-62.2 71.5,-62.2 71.5,-43.2 8.5,-43.2"/>
<polygon fill="none" stroke="#000000" points="8.5,-43.2 8.5,-62.2 71.5,-62.2 71.5,-43.2 8.5,-43.2"/>
<text text-anchor="start" x="11.5" y="-49.3" font-family="Helvetica,sans-Serif" font-size="11.00" fill="#000000">&lt; 1</text>
<polygon fill="#ffffff" stroke="transparent" points="71.5,-43.2 71.5,-62.2 130.5,-62.2 130.5,-43.2 71.5,-43.2"/>
<polygon fill="none" stroke="#000000" points="71.5,-43.2 71.5,-62.2 130.5,-62.2 130.5,-43.2 71.5,-43.2"/>
<text text-anchor="start" x="95.1105" y="-49.3" font-family="Helvetica,sans-Serif" font-size="11.00" fill="#000000">0 rows</text>
<polygon fill="#ffffff" stroke="transparent" points="130.5,-43.2 130.5,-62.2 173.5,-62.2 173.5,-43.2 130.5,-43.2"/>
<polygon fill="none" stroke="#000000" points="130.5,-43.2 130.5,-62.2 173.5,-62.2 173.5,-43.2 130.5,-43.2"/>
<text text-anchor="start" x="154.9053" y="-49.3" font-family="Helvetica,sans-Serif" font-size="11.00" fill="#000000">2 &gt;</text>
</a>
</g>
</g>
<!-- user_federation_config&#45;&gt;user_federation_provider -->
<g id="edge1" class="edge">
<title>user_federation_config:w&#45;&gt;user_federation_provider:e</title>
<path fill="none" stroke="#000000" d="M209.4203,-114.2C197.5435,-114.2 190.158,-114.2 173.5,-114.2"/>
<polygon fill="#000000" stroke="#000000" points="216,-114.2001 224,-117.8 220,-114.2 224,-114.2 224,-114.2 224,-114.2 220,-114.2 224,-110.6 216,-114.2001 216,-114.2001"/>
<ellipse fill="none" stroke="#000000" cx="212.8" cy="-114.2001" rx="3.2" ry="3.2"/>
</g>
</g>
</svg>
