<?xml version="1.0" encoding="UTF-8" standalone="no"?>
<!DOCTYPE svg PUBLIC "-//W3C//DTD SVG 1.1//EN"
 "http://www.w3.org/Graphics/SVG/1.1/DTD/svg11.dtd">
<!-- Generated by graphviz version 2.40.1 (20161225.0304)
 -->
<!-- Title: twoDegreesRelationshipsDiagramImplied Pages: 1 -->
<svg width="620pt" height="643pt"
 viewBox="0.00 0.00 620.00 643.23" xmlns="http://www.w3.org/2000/svg" xmlns:xlink="http://www.w3.org/1999/xlink">
<g id="graph0" class="graph" transform="scale(1 1) rotate(0) translate(4 639.2255)">
<title>twoDegreesRelationshipsDiagramImplied</title>
<polygon fill="#ffffff" stroke="transparent" points="-4,4 -4,-639.2255 616,-639.2255 616,4 -4,4"/>
<text text-anchor="middle" x="72.4936" y="-7.3" font-family="Helvetica,sans-Serif" font-size="11.00" fill="#000000">Generated by SchemaSpy</text>
<!-- credential -->
<g id="node1" class="node">
<title>credential</title>
<g id="a_node1"><a xlink:href="../../tables/credential.html" xlink:title="credential" target="_top">
<polygon fill="#ffffff" stroke="transparent" points="458,-478.2 458,-539.2 548,-539.2 548,-478.2 458,-478.2"/>
<polygon fill="#f5f5f5" stroke="transparent" points="458,-515.7 458,-538.7 548,-538.7 548,-515.7 458,-515.7"/>
<polygon fill="none" stroke="#000000" points="458,-515.7 458,-538.7 548,-538.7 548,-515.7 458,-515.7"/>
<text text-anchor="start" x="462.6625" y="-524.8" font-family="Helvetica,sans-Serif" font-weight="bold" font-size="11.00" fill="#000000">credential</text>
<text text-anchor="start" x="513.5219" y="-523.8" font-family="Helvetica,sans-Serif" font-size="11.00" fill="#000000">[table]</text>
<polygon fill="none" stroke="#000000" points="458,-496.7 458,-515.7 548,-515.7 548,-496.7 458,-496.7"/>
<text text-anchor="start" x="461" y="-502.8" font-family="Helvetica,sans-Serif" font-size="11.00" fill="#000000">...</text>
<polygon fill="#ffffff" stroke="transparent" points="458,-477.7 458,-496.7 491,-496.7 491,-477.7 458,-477.7"/>
<polygon fill="none" stroke="#000000" points="458,-477.7 458,-496.7 491,-496.7 491,-477.7 458,-477.7"/>
<text text-anchor="start" x="461" y="-483.8" font-family="Helvetica,sans-Serif" font-size="11.00" fill="#000000">&lt; 1</text>
<polygon fill="#ffffff" stroke="transparent" points="491,-477.7 491,-496.7 529,-496.7 529,-477.7 491,-477.7"/>
<polygon fill="none" stroke="#000000" points="491,-477.7 491,-496.7 529,-496.7 529,-477.7 491,-477.7"/>
<text text-anchor="start" x="499.1105" y="-483.8" font-family="Helvetica,sans-Serif" font-size="11.00" fill="#000000">1 row</text>
<polygon fill="#ffffff" stroke="transparent" points="529,-477.7 529,-496.7 548,-496.7 548,-477.7 529,-477.7"/>
<polygon fill="none" stroke="#000000" points="529,-477.7 529,-496.7 548,-496.7 548,-477.7 529,-477.7"/>
<text text-anchor="start" x="538.8862" y="-483.8" font-family="Helvetica,sans-Serif" font-size="11.00" fill="#000000"> &#160;</text>
</a>
</g>
</g>
<!-- user_entity -->
<g id="node2" class="node">
<title>user_entity</title>
<g id="a_node2"><a xlink:href="../../tables/user_entity.html" xlink:title="user_entity" target="_top">
<polygon fill="#ffffff" stroke="transparent" points="173,-164.2 173,-335.2 353,-335.2 353,-164.2 173,-164.2"/>
<polygon fill="#f5f5f5" stroke="transparent" points="173,-311.7 173,-334.7 353,-334.7 353,-311.7 173,-311.7"/>
<polygon fill="none" stroke="#000000" points="173,-311.7 173,-334.7 353,-334.7 353,-311.7 173,-311.7"/>
<text text-anchor="start" x="178" y="-320.8" font-family="Helvetica,sans-Serif" font-weight="bold" font-size="11.00" fill="#000000">user_entity</text>
<text text-anchor="start" x="318.0437" y="-319.8" font-family="Helvetica,sans-Serif" font-size="11.00" fill="#000000">[table]</text>
<polygon fill="none" stroke="#000000" points="173,-289.7 173,-311.7 353,-311.7 353,-289.7 173,-289.7"/>
<image xlink:href="../../images/primaryKeys.png" width="11px" height="12px" preserveAspectRatio="xMinYMin meet" x="178" y="-306.7"/>
<text text-anchor="start" x="193" y="-296.8" font-family="Helvetica,sans-Serif" font-size="11.00" fill="#000000">id</text>
<polygon fill="#ffffff" stroke="transparent" points="173,-267.7 173,-289.7 353,-289.7 353,-267.7 173,-267.7"/>
<polygon fill="none" stroke="#000000" points="173,-267.7 173,-289.7 353,-289.7 353,-267.7 173,-267.7"/>
<text text-anchor="start" x="193" y="-274.8" font-family="Helvetica,sans-Serif" font-size="11.00" fill="#000000">email</text>
<polygon fill="#ffffff" stroke="transparent" points="173,-245.7 173,-267.7 353,-267.7 353,-245.7 173,-245.7"/>
<polygon fill="none" stroke="#000000" points="173,-245.7 173,-267.7 353,-267.7 353,-245.7 173,-245.7"/>
<text text-anchor="start" x="193" y="-252.8" font-family="Helvetica,sans-Serif" font-size="11.00" fill="#000000">email_constraint</text>
<polygon fill="#ffffff" stroke="transparent" points="173,-223.7 173,-245.7 353,-245.7 353,-223.7 173,-223.7"/>
<polygon fill="none" stroke="#000000" points="173,-223.7 173,-245.7 353,-245.7 353,-223.7 173,-223.7"/>
<image xlink:href="../../images/foreignKeys.png" width="11px" height="12px" preserveAspectRatio="xMinYMin meet" x="178" y="-240.7"/>
<text text-anchor="start" x="193" y="-230.8" font-family="Helvetica,sans-Serif" font-size="11.00" fill="#000000">realm_id</text>
<polygon fill="#ffffff" stroke="transparent" points="173,-201.7 173,-223.7 353,-223.7 353,-201.7 173,-201.7"/>
<polygon fill="none" stroke="#000000" points="173,-201.7 173,-223.7 353,-223.7 353,-201.7 173,-201.7"/>
<text text-anchor="start" x="193" y="-208.8" font-family="Helvetica,sans-Serif" font-size="11.00" fill="#000000">username</text>
<polygon fill="none" stroke="#000000" points="173,-182.7 173,-201.7 353,-201.7 353,-182.7 173,-182.7"/>
<text text-anchor="start" x="176" y="-188.8" font-family="Helvetica,sans-Serif" font-size="11.00" fill="#000000">...</text>
<polygon fill="#ffffff" stroke="transparent" points="173,-163.7 173,-182.7 247,-182.7 247,-163.7 173,-163.7"/>
<polygon fill="none" stroke="#000000" points="173,-163.7 173,-182.7 247,-182.7 247,-163.7 173,-163.7"/>
<text text-anchor="start" x="176" y="-169.8" font-family="Helvetica,sans-Serif" font-size="11.00" fill="#000000">&lt; 1</text>
<polygon fill="#ffffff" stroke="transparent" points="247,-163.7 247,-182.7 305,-182.7 305,-163.7 247,-163.7"/>
<polygon fill="none" stroke="#000000" points="247,-163.7 247,-182.7 305,-182.7 305,-163.7 247,-163.7"/>
<text text-anchor="start" x="275.1105" y="-169.8" font-family="Helvetica,sans-Serif" font-size="11.00" fill="#000000">1 row</text>
<polygon fill="#ffffff" stroke="transparent" points="305,-163.7 305,-182.7 353,-182.7 353,-163.7 305,-163.7"/>
<polygon fill="none" stroke="#000000" points="305,-163.7 305,-182.7 353,-182.7 353,-163.7 305,-163.7"/>
<text text-anchor="start" x="334.4053" y="-169.8" font-family="Helvetica,sans-Serif" font-size="11.00" fill="#000000">7 &gt;</text>
</a>
</g>
</g>
<!-- credential&#45;&gt;user_entity -->
<g id="edge1" class="edge">
<title>credential:w&#45;&gt;user_entity:e</title>
<path fill="none" stroke="#000000" d="M443.3494,-504.761C421.0095,-501.5436 410.467,-489.9157 394,-467.7 348.4894,-406.3015 429.4264,-300.7 353,-300.7"/>
<polygon fill="#000000" stroke="#000000" points="450.0164,-505.1883 457.7697,-509.2926 454.0082,-505.4441 458,-505.7 458,-505.7 458,-505.7 454.0082,-505.4441 458.2303,-502.1074 450.0164,-505.1883 450.0164,-505.1883"/>
<ellipse fill="none" stroke="#000000" cx="446.8229" cy="-504.9836" rx="3.2" ry="3.2"/>
</g>
<!-- federated_user -->
<g id="node4" class="node">
<title>federated_user</title>
<g id="a_node4"><a xlink:href="../../tables/federated_user.html" xlink:title="federated_user" target="_top">
<polygon fill="#ffffff" stroke="transparent" points="8,-143.2 8,-204.2 124,-204.2 124,-143.2 8,-143.2"/>
<polygon fill="#f5f5f5" stroke="transparent" points="8,-180.7 8,-203.7 124,-203.7 124,-180.7 8,-180.7"/>
<polygon fill="none" stroke="#000000" points="8,-180.7 8,-203.7 124,-203.7 124,-180.7 8,-180.7"/>
<text text-anchor="start" x="12.5142" y="-189.8" font-family="Helvetica,sans-Serif" font-weight="bold" font-size="11.00" fill="#000000">federated_user</text>
<text text-anchor="start" x="89.5219" y="-188.8" font-family="Helvetica,sans-Serif" font-size="11.00" fill="#000000">[table]</text>
<polygon fill="none" stroke="#000000" points="8,-161.7 8,-180.7 124,-180.7 124,-161.7 8,-161.7"/>
<text text-anchor="start" x="11" y="-167.8" font-family="Helvetica,sans-Serif" font-size="11.00" fill="#000000">...</text>
<polygon fill="#ffffff" stroke="transparent" points="8,-142.7 8,-161.7 39,-161.7 39,-142.7 8,-142.7"/>
<polygon fill="none" stroke="#000000" points="8,-142.7 8,-161.7 39,-161.7 39,-142.7 8,-142.7"/>
<text text-anchor="start" x="11" y="-148.8" font-family="Helvetica,sans-Serif" font-size="11.00" fill="#000000"> &#160;</text>
<polygon fill="#ffffff" stroke="transparent" points="39,-142.7 39,-161.7 87,-161.7 87,-142.7 39,-142.7"/>
<polygon fill="none" stroke="#000000" points="39,-142.7 39,-161.7 87,-161.7 87,-142.7 39,-142.7"/>
<text text-anchor="start" x="51.6105" y="-148.8" font-family="Helvetica,sans-Serif" font-size="11.00" fill="#000000">0 rows</text>
<polygon fill="#ffffff" stroke="transparent" points="87,-142.7 87,-161.7 124,-161.7 124,-142.7 87,-142.7"/>
<polygon fill="none" stroke="#000000" points="87,-142.7 87,-161.7 124,-161.7 124,-142.7 87,-142.7"/>
<text text-anchor="start" x="99.2904" y="-148.8" font-family="Helvetica,sans-Serif" font-size="11.00" fill="#000000">30 &gt;</text>
</a>
</g>
</g>
<!-- user_entity&#45;&gt;federated_user -->
<g id="edge8" class="edge">
<title>user_entity:w&#45;&gt;federated_user:e</title>
<path fill="none" stroke="#000000" stroke-dasharray="5,2" d="M159.1165,-229.678C143.2339,-214.5906 153.6667,-170.7 124,-170.7"/>
<polygon fill="#000000" stroke="#000000" points="165.477,-231.9787 171.7754,-238.0853 169.2385,-233.3394 173,-234.7 173,-234.7 173,-234.7 169.2385,-233.3394 174.2246,-231.3147 165.477,-231.9787 165.477,-231.9787"/>
<ellipse fill="none" stroke="#000000" cx="162.4678" cy="-230.8902" rx="3.2" ry="3.2"/>
</g>
<!-- federated_identity -->
<g id="node3" class="node">
<title>federated_identity</title>
<g id="a_node3"><a xlink:href="../../tables/federated_identity.html" xlink:title="federated_identity" target="_top">
<polygon fill="#ffffff" stroke="transparent" points="438,-560.2 438,-621.2 568,-621.2 568,-560.2 438,-560.2"/>
<polygon fill="#f5f5f5" stroke="transparent" points="438,-597.7 438,-620.7 568,-620.7 568,-597.7 438,-597.7"/>
<polygon fill="none" stroke="#000000" points="438,-597.7 438,-620.7 568,-620.7 568,-597.7 438,-597.7"/>
<text text-anchor="start" x="442.7899" y="-606.8" font-family="Helvetica,sans-Serif" font-weight="bold" font-size="11.00" fill="#000000">federated_identity</text>
<text text-anchor="start" x="533.5219" y="-605.8" font-family="Helvetica,sans-Serif" font-size="11.00" fill="#000000">[table]</text>
<polygon fill="none" stroke="#000000" points="438,-578.7 438,-597.7 568,-597.7 568,-578.7 438,-578.7"/>
<text text-anchor="start" x="441" y="-584.8" font-family="Helvetica,sans-Serif" font-size="11.00" fill="#000000">...</text>
<polygon fill="#ffffff" stroke="transparent" points="438,-559.7 438,-578.7 488,-578.7 488,-559.7 438,-559.7"/>
<polygon fill="none" stroke="#000000" points="438,-559.7 438,-578.7 488,-578.7 488,-559.7 438,-559.7"/>
<text text-anchor="start" x="441" y="-565.8" font-family="Helvetica,sans-Serif" font-size="11.00" fill="#000000">&lt; 2</text>
<polygon fill="#ffffff" stroke="transparent" points="488,-559.7 488,-578.7 541,-578.7 541,-559.7 488,-559.7"/>
<polygon fill="none" stroke="#000000" points="488,-559.7 488,-578.7 541,-578.7 541,-559.7 488,-559.7"/>
<text text-anchor="start" x="505.6105" y="-565.8" font-family="Helvetica,sans-Serif" font-size="11.00" fill="#000000">0 rows</text>
<polygon fill="#ffffff" stroke="transparent" points="541,-559.7 541,-578.7 568,-578.7 568,-559.7 541,-559.7"/>
<polygon fill="none" stroke="#000000" points="541,-559.7 541,-578.7 568,-578.7 568,-559.7 541,-559.7"/>
<text text-anchor="start" x="558.8862" y="-565.8" font-family="Helvetica,sans-Serif" font-size="11.00" fill="#000000"> &#160;</text>
</a>
</g>
</g>
<!-- federated_identity&#45;&gt;user_entity -->
<g id="edge3" class="edge">
<title>federated_identity:w&#45;&gt;user_entity:e</title>
<path fill="none" stroke="#000000" d="M423.6719,-585.5684C409.4023,-580.5976 403.8691,-567.3098 394,-549.7 366.5838,-500.7802 409.0784,-300.7 353,-300.7"/>
<polygon fill="#000000" stroke="#000000" points="430.0871,-586.5228 437.4702,-591.2608 434.0435,-587.1114 438,-587.7 438,-587.7 438,-587.7 434.0435,-587.1114 438.5298,-584.1392 430.0871,-586.5228 430.0871,-586.5228"/>
<ellipse fill="none" stroke="#000000" cx="426.9219" cy="-586.0519" rx="3.2" ry="3.2"/>
</g>
<!-- federated_identity&#45;&gt;federated_user -->
<g id="edge2" class="edge">
<title>federated_identity:w&#45;&gt;federated_user:e</title>
<path fill="none" stroke="#000000" stroke-dasharray="5,2" d="M424.4834,-593.9699C393.9978,-624.9513 402.3677,-744.7571 165,-345.7 124.1618,-277.0438 203.8839,-170.7 124,-170.7"/>
<polygon fill="#000000" stroke="#000000" points="430.7427,-591.0664 439.5149,-590.9658 434.3714,-589.3832 438,-587.7 438,-587.7 438,-587.7 434.3714,-589.3832 436.4851,-584.4342 430.7427,-591.0664 430.7427,-591.0664"/>
<ellipse fill="none" stroke="#000000" cx="427.8398" cy="-592.4129" rx="3.2" ry="3.2"/>
</g>
<!-- user_attribute -->
<g id="node5" class="node">
<title>user_attribute</title>
<g id="a_node5"><a xlink:href="../../tables/user_attribute.html" xlink:title="user_attribute" target="_top">
<polygon fill="#ffffff" stroke="transparent" points="448,-396.2 448,-457.2 558,-457.2 558,-396.2 448,-396.2"/>
<polygon fill="#f5f5f5" stroke="transparent" points="448,-433.7 448,-456.7 558,-456.7 558,-433.7 448,-433.7"/>
<polygon fill="none" stroke="#000000" points="448,-433.7 448,-456.7 558,-456.7 558,-433.7 448,-433.7"/>
<text text-anchor="start" x="452.8802" y="-442.8" font-family="Helvetica,sans-Serif" font-weight="bold" font-size="11.00" fill="#000000">user_attribute</text>
<text text-anchor="start" x="523.5219" y="-441.8" font-family="Helvetica,sans-Serif" font-size="11.00" fill="#000000">[table]</text>
<polygon fill="none" stroke="#000000" points="448,-414.7 448,-433.7 558,-433.7 558,-414.7 448,-414.7"/>
<text text-anchor="start" x="451" y="-420.8" font-family="Helvetica,sans-Serif" font-size="11.00" fill="#000000">...</text>
<polygon fill="#ffffff" stroke="transparent" points="448,-395.7 448,-414.7 488,-414.7 488,-395.7 448,-395.7"/>
<polygon fill="none" stroke="#000000" points="448,-395.7 448,-414.7 488,-414.7 488,-395.7 448,-395.7"/>
<text text-anchor="start" x="451" y="-401.8" font-family="Helvetica,sans-Serif" font-size="11.00" fill="#000000">&lt; 1</text>
<polygon fill="#ffffff" stroke="transparent" points="488,-395.7 488,-414.7 536,-414.7 536,-395.7 488,-395.7"/>
<polygon fill="none" stroke="#000000" points="488,-395.7 488,-414.7 536,-414.7 536,-395.7 488,-395.7"/>
<text text-anchor="start" x="500.6105" y="-401.8" font-family="Helvetica,sans-Serif" font-size="11.00" fill="#000000">0 rows</text>
<polygon fill="#ffffff" stroke="transparent" points="536,-395.7 536,-414.7 558,-414.7 558,-395.7 536,-395.7"/>
<polygon fill="none" stroke="#000000" points="536,-395.7 536,-414.7 558,-414.7 558,-395.7 536,-395.7"/>
<text text-anchor="start" x="548.8862" y="-401.8" font-family="Helvetica,sans-Serif" font-size="11.00" fill="#000000"> &#160;</text>
</a>
</g>
</g>
<!-- user_attribute&#45;&gt;user_entity -->
<g id="edge4" class="edge">
<title>user_attribute:w&#45;&gt;user_entity:e</title>
<path fill="none" stroke="#000000" d="M433.4915,-422.0453C415.9953,-417.4726 409.3507,-403.7957 394,-385.7 366.8672,-353.7153 394.9429,-300.7 353,-300.7"/>
<polygon fill="#000000" stroke="#000000" points="440.0515,-422.7934 447.592,-427.2768 444.0258,-423.2467 448,-423.7 448,-423.7 448,-423.7 444.0258,-423.2467 448.408,-420.1232 440.0515,-422.7934 440.0515,-422.7934"/>
<ellipse fill="none" stroke="#000000" cx="436.8721" cy="-422.4308" rx="3.2" ry="3.2"/>
</g>
<!-- user_consent -->
<g id="node6" class="node">
<title>user_consent</title>
<g id="a_node6"><a xlink:href="../../tables/user_consent.html" xlink:title="user_consent" target="_top">
<polygon fill="#ffffff" stroke="transparent" points="448.5,-38.2 448.5,-99.2 557.5,-99.2 557.5,-38.2 448.5,-38.2"/>
<polygon fill="#f5f5f5" stroke="transparent" points="449,-75.7 449,-98.7 558,-98.7 558,-75.7 449,-75.7"/>
<polygon fill="none" stroke="#000000" points="449,-75.7 449,-98.7 558,-98.7 558,-75.7 449,-75.7"/>
<text text-anchor="start" x="453.9885" y="-84.8" font-family="Helvetica,sans-Serif" font-weight="bold" font-size="11.00" fill="#000000">user_consent</text>
<text text-anchor="start" x="523.5219" y="-83.8" font-family="Helvetica,sans-Serif" font-size="11.00" fill="#000000">[table]</text>
<polygon fill="none" stroke="#000000" points="449,-56.7 449,-75.7 558,-75.7 558,-56.7 449,-56.7"/>
<text text-anchor="start" x="452" y="-62.8" font-family="Helvetica,sans-Serif" font-size="11.00" fill="#000000">...</text>
<polygon fill="#ffffff" stroke="transparent" points="449,-37.7 449,-56.7 484,-56.7 484,-37.7 449,-37.7"/>
<polygon fill="none" stroke="#000000" points="449,-37.7 449,-56.7 484,-56.7 484,-37.7 449,-37.7"/>
<text text-anchor="start" x="452" y="-43.8" font-family="Helvetica,sans-Serif" font-size="11.00" fill="#000000">&lt; 3</text>
<polygon fill="#ffffff" stroke="transparent" points="484,-37.7 484,-56.7 529,-56.7 529,-37.7 484,-37.7"/>
<polygon fill="none" stroke="#000000" points="484,-37.7 484,-56.7 529,-56.7 529,-37.7 484,-37.7"/>
<text text-anchor="start" x="493.6105" y="-43.8" font-family="Helvetica,sans-Serif" font-size="11.00" fill="#000000">0 rows</text>
<polygon fill="#ffffff" stroke="transparent" points="529,-37.7 529,-56.7 558,-56.7 558,-37.7 529,-37.7"/>
<polygon fill="none" stroke="#000000" points="529,-37.7 529,-56.7 558,-56.7 558,-37.7 529,-37.7"/>
<text text-anchor="start" x="539.4053" y="-43.8" font-family="Helvetica,sans-Serif" font-size="11.00" fill="#000000">1 &gt;</text>
</a>
</g>
</g>
<!-- user_consent&#45;&gt;user_entity -->
<g id="edge7" class="edge">
<title>user_consent:w&#45;&gt;user_entity:e</title>
<path fill="none" stroke="#000000" d="M434.4433,-67.3238C414.6817,-72.322 407.5799,-88.4908 394,-110.7 348.9345,-184.4022 439.3882,-300.7 353,-300.7"/>
<polygon fill="#000000" stroke="#000000" points="441.0493,-66.587 449.3991,-69.2778 445.0247,-66.1435 449,-65.7 449,-65.7 449,-65.7 445.0247,-66.1435 448.6009,-62.1222 441.0493,-66.587 441.0493,-66.587"/>
<ellipse fill="none" stroke="#000000" cx="437.869" cy="-66.9417" rx="3.2" ry="3.2"/>
</g>
<!-- user_consent&#45;&gt;federated_user -->
<g id="edge5" class="edge">
<title>user_consent:w&#45;&gt;federated_user:e</title>
<path fill="none" stroke="#000000" stroke-dasharray="5,2" d="M434.3455,-65.8852C314.6161,-68.9849 284.544,-110.5004 165,-153.7 146.4477,-160.4042 143.7265,-170.7 124,-170.7"/>
<polygon fill="#000000" stroke="#000000" points="441.0006,-65.8012 449.0455,-69.2997 445.0003,-65.7506 449,-65.7 449,-65.7 449,-65.7 445.0003,-65.7506 448.9545,-62.1003 441.0006,-65.8012 441.0006,-65.8012"/>
<ellipse fill="none" stroke="#000000" cx="437.8009" cy="-65.8416" rx="3.2" ry="3.2"/>
</g>
<!-- user_consent&#45;&gt;federated_user -->
<g id="edge6" class="edge">
<title>user_consent:w&#45;&gt;federated_user:e</title>
<path fill="none" stroke="#000000" stroke-dasharray="5,2" d="M434.8701,-70.078C372.628,-89.9501 126.08,-170.7 124,-170.7"/>
<polygon fill="#000000" stroke="#000000" points="441.3584,-68.0677 450.0655,-69.1387 445.1792,-66.8839 449,-65.7 449,-65.7 449,-65.7 445.1792,-66.8839 447.9345,-62.2613 441.3584,-68.0677 441.3584,-68.0677"/>
<ellipse fill="none" stroke="#000000" cx="438.3018" cy="-69.0148" rx="3.2" ry="3.2"/>
</g>
<!-- user_group_membership -->
<g id="node7" class="node">
<title>user_group_membership</title>
<g id="a_node7"><a xlink:href="../../tables/user_group_membership.html" xlink:title="user_group_membership" target="_top">
<polygon fill="#ffffff" stroke="transparent" points="420.5,-314.2 420.5,-375.2 585.5,-375.2 585.5,-314.2 420.5,-314.2"/>
<polygon fill="#f5f5f5" stroke="transparent" points="421,-351.7 421,-374.7 586,-374.7 586,-351.7 421,-351.7"/>
<polygon fill="none" stroke="#000000" points="421,-351.7 421,-374.7 586,-374.7 586,-351.7 421,-351.7"/>
<text text-anchor="start" x="425.878" y="-360.8" font-family="Helvetica,sans-Serif" font-weight="bold" font-size="11.00" fill="#000000">user_group_membership</text>
<text text-anchor="start" x="551.5219" y="-359.8" font-family="Helvetica,sans-Serif" font-size="11.00" fill="#000000">[table]</text>
<polygon fill="none" stroke="#000000" points="421,-332.7 421,-351.7 586,-351.7 586,-332.7 421,-332.7"/>
<text text-anchor="start" x="424" y="-338.8" font-family="Helvetica,sans-Serif" font-size="11.00" fill="#000000">...</text>
<polygon fill="#ffffff" stroke="transparent" points="421,-313.7 421,-332.7 489,-332.7 489,-313.7 421,-313.7"/>
<polygon fill="none" stroke="#000000" points="421,-313.7 421,-332.7 489,-332.7 489,-313.7 421,-313.7"/>
<text text-anchor="start" x="424" y="-319.8" font-family="Helvetica,sans-Serif" font-size="11.00" fill="#000000">&lt; 1</text>
<polygon fill="#ffffff" stroke="transparent" points="489,-313.7 489,-332.7 550,-332.7 550,-313.7 489,-313.7"/>
<polygon fill="none" stroke="#000000" points="489,-313.7 489,-332.7 550,-332.7 550,-313.7 489,-313.7"/>
<text text-anchor="start" x="514.6105" y="-319.8" font-family="Helvetica,sans-Serif" font-size="11.00" fill="#000000">0 rows</text>
<polygon fill="#ffffff" stroke="transparent" points="550,-313.7 550,-332.7 586,-332.7 586,-313.7 550,-313.7"/>
<polygon fill="none" stroke="#000000" points="550,-313.7 550,-332.7 586,-332.7 586,-313.7 550,-313.7"/>
<text text-anchor="start" x="576.8862" y="-319.8" font-family="Helvetica,sans-Serif" font-size="11.00" fill="#000000"> &#160;</text>
</a>
</g>
</g>
<!-- user_group_membership&#45;&gt;user_entity -->
<g id="edge9" class="edge">
<title>user_group_membership:w&#45;&gt;user_entity:e</title>
<path fill="none" stroke="#000000" d="M406.647,-338.8819C385.5647,-329.6188 382.6387,-300.7 353,-300.7"/>
<polygon fill="#000000" stroke="#000000" points="413.1499,-340.1586 420.3064,-345.2326 417.0749,-340.9293 421,-341.7 421,-341.7 421,-341.7 417.0749,-340.9293 421.6936,-338.1674 413.1499,-340.1586 413.1499,-340.1586"/>
<ellipse fill="none" stroke="#000000" cx="410.0098" cy="-339.5421" rx="3.2" ry="3.2"/>
</g>
<!-- user_required_action -->
<g id="node8" class="node">
<title>user_required_action</title>
<g id="a_node8"><a xlink:href="../../tables/user_required_action.html" xlink:title="user_required_action" target="_top">
<polygon fill="#ffffff" stroke="transparent" points="430,-232.2 430,-293.2 576,-293.2 576,-232.2 430,-232.2"/>
<polygon fill="#f5f5f5" stroke="transparent" points="430,-269.7 430,-292.7 576,-292.7 576,-269.7 430,-269.7"/>
<polygon fill="none" stroke="#000000" points="430,-269.7 430,-292.7 576,-292.7 576,-269.7 430,-269.7"/>
<text text-anchor="start" x="434.8484" y="-278.8" font-family="Helvetica,sans-Serif" font-weight="bold" font-size="11.00" fill="#000000">user_required_action</text>
<text text-anchor="start" x="541.5219" y="-277.8" font-family="Helvetica,sans-Serif" font-size="11.00" fill="#000000">[table]</text>
<polygon fill="none" stroke="#000000" points="430,-250.7 430,-269.7 576,-269.7 576,-250.7 430,-250.7"/>
<text text-anchor="start" x="433" y="-256.8" font-family="Helvetica,sans-Serif" font-size="11.00" fill="#000000">...</text>
<polygon fill="#ffffff" stroke="transparent" points="430,-231.7 430,-250.7 488,-250.7 488,-231.7 430,-231.7"/>
<polygon fill="none" stroke="#000000" points="430,-231.7 430,-250.7 488,-250.7 488,-231.7 430,-231.7"/>
<text text-anchor="start" x="433" y="-237.8" font-family="Helvetica,sans-Serif" font-size="11.00" fill="#000000">&lt; 1</text>
<polygon fill="#ffffff" stroke="transparent" points="488,-231.7 488,-250.7 545,-250.7 545,-231.7 488,-231.7"/>
<polygon fill="none" stroke="#000000" points="488,-231.7 488,-250.7 545,-250.7 545,-231.7 488,-231.7"/>
<text text-anchor="start" x="509.6105" y="-237.8" font-family="Helvetica,sans-Serif" font-size="11.00" fill="#000000">0 rows</text>
<polygon fill="#ffffff" stroke="transparent" points="545,-231.7 545,-250.7 576,-250.7 576,-231.7 545,-231.7"/>
<polygon fill="none" stroke="#000000" points="545,-231.7 545,-250.7 576,-250.7 576,-231.7 545,-231.7"/>
<text text-anchor="start" x="566.8862" y="-237.8" font-family="Helvetica,sans-Serif" font-size="11.00" fill="#000000"> &#160;</text>
</a>
</g>
</g>
<!-- user_required_action&#45;&gt;user_entity -->
<g id="edge10" class="edge">
<title>user_required_action:w&#45;&gt;user_entity:e</title>
<path fill="none" stroke="#000000" d="M415.7571,-261.9043C390.6039,-270.4205 386.319,-300.7 353,-300.7"/>
<polygon fill="#000000" stroke="#000000" points="422.0941,-260.9236 430.5506,-263.2576 426.0471,-260.3118 430,-259.7 430,-259.7 430,-259.7 426.0471,-260.3118 429.4494,-256.1424 422.0941,-260.9236 422.0941,-260.9236"/>
<ellipse fill="none" stroke="#000000" cx="418.9318" cy="-261.4131" rx="3.2" ry="3.2"/>
</g>
<!-- user_role_mapping -->
<g id="node9" class="node">
<title>user_role_mapping</title>
<g id="a_node9"><a xlink:href="../../tables/user_role_mapping.html" xlink:title="user_role_mapping" target="_top">
<polygon fill="#ffffff" stroke="transparent" points="402,-120.7 402,-210.7 604,-210.7 604,-120.7 402,-120.7"/>
<polygon fill="#f5f5f5" stroke="transparent" points="404,-185.7 404,-208.7 602,-208.7 602,-185.7 404,-185.7"/>
<polygon fill="none" stroke="#000000" points="404,-185.7 404,-208.7 602,-208.7 602,-185.7 404,-185.7"/>
<text text-anchor="start" x="409" y="-194.8" font-family="Helvetica,sans-Serif" font-weight="bold" font-size="11.00" fill="#000000">user_role_mapping</text>
<text text-anchor="start" x="567.0437" y="-193.8" font-family="Helvetica,sans-Serif" font-size="11.00" fill="#000000">[table]</text>
<polygon fill="none" stroke="#000000" points="404,-163.7 404,-185.7 535,-185.7 535,-163.7 404,-163.7"/>
<image xlink:href="../../images/primaryKeys.png" width="11px" height="12px" preserveAspectRatio="xMinYMin meet" x="409" y="-180.7"/>
<text text-anchor="start" x="424" y="-170.8" font-family="Helvetica,sans-Serif" font-size="11.00" fill="#000000">role_id</text>
<polygon fill="none" stroke="#000000" points="535,-163.7 535,-185.7 602,-185.7 602,-163.7 535,-163.7"/>
<text text-anchor="start" x="537.9365" y="-171.4" font-family="Helvetica,sans-Serif" font-size="11.00" fill="#000000">varchar[255]</text>
<polygon fill="none" stroke="#000000" points="404,-141.7 404,-163.7 535,-163.7 535,-141.7 404,-141.7"/>
<image xlink:href="../../images/primaryKeys.png" width="11px" height="12px" preserveAspectRatio="xMinYMin meet" x="409" y="-158.7"/>
<text text-anchor="start" x="424" y="-148.8" font-family="Helvetica,sans-Serif" font-size="11.00" fill="#000000">user_id</text>
<polygon fill="none" stroke="#000000" points="535,-141.7 535,-163.7 602,-163.7 602,-141.7 535,-141.7"/>
<text text-anchor="start" x="538" y="-149.4" font-family="Helvetica,sans-Serif" font-size="11.00" fill="#000000">varchar[36]</text>
<polygon fill="#ffffff" stroke="transparent" points="404,-122.7 404,-141.7 461,-141.7 461,-122.7 404,-122.7"/>
<polygon fill="none" stroke="#000000" points="404,-122.7 404,-141.7 461,-141.7 461,-122.7 404,-122.7"/>
<text text-anchor="start" x="407" y="-128.8" font-family="Helvetica,sans-Serif" font-size="11.00" fill="#000000">&lt; 1</text>
<polygon fill="#ffffff" stroke="transparent" points="461,-122.7 461,-141.7 535,-141.7 535,-122.7 461,-122.7"/>
<polygon fill="none" stroke="#000000" points="461,-122.7 461,-141.7 535,-141.7 535,-122.7 461,-122.7"/>
<text text-anchor="start" x="499.6105" y="-128.8" font-family="Helvetica,sans-Serif" font-size="11.00" fill="#000000">5 rows</text>
<polygon fill="#ffffff" stroke="transparent" points="535,-122.7 535,-141.7 602,-141.7 602,-122.7 535,-122.7"/>
<polygon fill="none" stroke="#000000" points="535,-122.7 535,-141.7 602,-141.7 602,-122.7 535,-122.7"/>
<text text-anchor="start" x="583.4053" y="-128.8" font-family="Helvetica,sans-Serif" font-size="11.00" fill="#000000">0 &gt;</text>
<polygon fill="none" stroke="#000000" stroke-width="2" points="403,-121.7 403,-209.7 603,-209.7 603,-121.7 403,-121.7"/>
</a>
</g>
</g>
<!-- user_role_mapping&#45;&gt;user_entity -->
<g id="edge11" class="edge">
<title>user_role_mapping:w&#45;&gt;user_entity:e</title>
<path fill="none" stroke="#000000" d="M389.6212,-155.6564C348.1199,-176.5155 416.7306,-300.7 353,-300.7"/>
<polygon fill="#000000" stroke="#000000" points="396.1639,-154.3112 404.725,-156.2262 400.082,-153.5056 404,-152.7 404,-152.7 404,-152.7 400.082,-153.5056 403.275,-149.1738 396.1639,-154.3112 396.1639,-154.3112"/>
<ellipse fill="none" stroke="#000000" cx="393.0295" cy="-154.9557" rx="3.2" ry="3.2"/>
</g>
</g>
</svg>
