<?xml version="1.0" encoding="UTF-8" standalone="no"?>
<!DOCTYPE svg PUBLIC "-//W3C//DTD SVG 1.1//EN"
 "http://www.w3.org/Graphics/SVG/1.1/DTD/svg11.dtd">
<!-- Generated by graphviz version 2.40.1 (20161225.0304)
 -->
<!-- Title: oneDegreeRelationshipsDiagramImplied Pages: 1 -->
<svg width="893pt" height="305pt"
 viewBox="0.00 0.00 893.00 305.31" xmlns="http://www.w3.org/2000/svg" xmlns:xlink="http://www.w3.org/1999/xlink">
<g id="graph0" class="graph" transform="scale(1 1) rotate(0) translate(4 301.3055)">
<title>oneDegreeRelationshipsDiagramImplied</title>
<polygon fill="#ffffff" stroke="transparent" points="-4,4 -4,-301.3055 889,-301.3055 889,4 -4,4"/>
<text text-anchor="middle" x="72.4936" y="-7.3" font-family="Helvetica,sans-Serif" font-size="11.00" fill="#000000">Generated by SchemaSpy</text>
<!-- user_consent -->
<g id="node1" class="node">
<title>user_consent</title>
<g id="a_node1"><a xlink:href="../../tables/user_consent.html" xlink:title="user_consent" target="_top">
<polygon fill="#ffffff" stroke="transparent" points="422,-93.3055 422,-293.3055 650,-293.3055 650,-93.3055 422,-93.3055"/>
<polygon fill="#f5f5f5" stroke="transparent" points="424,-268.3055 424,-291.3055 648,-291.3055 648,-268.3055 424,-268.3055"/>
<polygon fill="none" stroke="#000000" points="424,-268.3055 424,-291.3055 648,-291.3055 648,-268.3055 424,-268.3055"/>
<text text-anchor="start" x="429" y="-277.4055" font-family="Helvetica,sans-Serif" font-weight="bold" font-size="11.00" fill="#000000">user_consent</text>
<text text-anchor="start" x="613.0437" y="-276.4055" font-family="Helvetica,sans-Serif" font-size="11.00" fill="#000000">[table]</text>
<polygon fill="none" stroke="#000000" points="424,-246.3055 424,-268.3055 581,-268.3055 581,-246.3055 424,-246.3055"/>
<image xlink:href="../../images/primaryKeys.png" width="11px" height="12px" preserveAspectRatio="xMinYMin meet" x="429" y="-263.306"/>
<text text-anchor="start" x="444" y="-253.4055" font-family="Helvetica,sans-Serif" font-size="11.00" fill="#000000">id</text>
<polygon fill="none" stroke="#000000" points="581,-246.3055 581,-268.3055 648,-268.3055 648,-246.3055 581,-246.3055"/>
<text text-anchor="start" x="584" y="-254.0055" font-family="Helvetica,sans-Serif" font-size="11.00" fill="#000000">varchar[36]</text>
<polygon fill="#ffffff" stroke="transparent" points="424,-224.3055 424,-246.3055 581,-246.3055 581,-224.3055 424,-224.3055"/>
<polygon fill="none" stroke="#000000" points="424,-224.3055 424,-246.3055 581,-246.3055 581,-224.3055 424,-224.3055"/>
<image xlink:href="../../images/foreignKeys.png" width="11px" height="12px" preserveAspectRatio="xMinYMin meet" x="429" y="-241.306"/>
<text text-anchor="start" x="444" y="-231.4055" font-family="Helvetica,sans-Serif" font-size="11.00" fill="#000000">client_id</text>
<polygon fill="none" stroke="#000000" points="581,-224.3055 581,-246.3055 648,-246.3055 648,-224.3055 581,-224.3055"/>
<text text-anchor="start" x="583.9365" y="-232.0055" font-family="Helvetica,sans-Serif" font-size="11.00" fill="#000000">varchar[255]</text>
<polygon fill="#ffffff" stroke="transparent" points="424,-202.3055 424,-224.3055 581,-224.3055 581,-202.3055 424,-202.3055"/>
<polygon fill="none" stroke="#000000" points="424,-202.3055 424,-224.3055 581,-224.3055 581,-202.3055 424,-202.3055"/>
<image xlink:href="../../images/foreignKeys.png" width="11px" height="12px" preserveAspectRatio="xMinYMin meet" x="429" y="-219.306"/>
<text text-anchor="start" x="444" y="-209.4055" font-family="Helvetica,sans-Serif" font-size="11.00" fill="#000000">user_id</text>
<polygon fill="none" stroke="#000000" points="581,-202.3055 581,-224.3055 648,-224.3055 648,-202.3055 581,-202.3055"/>
<text text-anchor="start" x="584" y="-210.0055" font-family="Helvetica,sans-Serif" font-size="11.00" fill="#000000">varchar[36]</text>
<polygon fill="none" stroke="#000000" points="424,-180.3055 424,-202.3055 581,-202.3055 581,-180.3055 424,-180.3055"/>
<text text-anchor="start" x="444" y="-187.4055" font-family="Helvetica,sans-Serif" font-size="11.00" fill="#000000">created_date</text>
<polygon fill="none" stroke="#000000" points="581,-180.3055 581,-202.3055 648,-202.3055 648,-180.3055 581,-180.3055"/>
<text text-anchor="start" x="584" y="-188.0055" font-family="Helvetica,sans-Serif" font-size="11.00" fill="#000000">int8[19]</text>
<polygon fill="none" stroke="#000000" points="424,-158.3055 424,-180.3055 581,-180.3055 581,-158.3055 424,-158.3055"/>
<text text-anchor="start" x="444" y="-165.4055" font-family="Helvetica,sans-Serif" font-size="11.00" fill="#000000">last_updated_date</text>
<polygon fill="none" stroke="#000000" points="581,-158.3055 581,-180.3055 648,-180.3055 648,-158.3055 581,-158.3055"/>
<text text-anchor="start" x="584" y="-166.0055" font-family="Helvetica,sans-Serif" font-size="11.00" fill="#000000">int8[19]</text>
<polygon fill="#ffffff" stroke="transparent" points="424,-136.3055 424,-158.3055 581,-158.3055 581,-136.3055 424,-136.3055"/>
<polygon fill="none" stroke="#000000" points="424,-136.3055 424,-158.3055 581,-158.3055 581,-136.3055 424,-136.3055"/>
<text text-anchor="start" x="444" y="-143.4055" font-family="Helvetica,sans-Serif" font-size="11.00" fill="#000000">client_storage_provider</text>
<polygon fill="none" stroke="#000000" points="581,-136.3055 581,-158.3055 648,-158.3055 648,-136.3055 581,-136.3055"/>
<text text-anchor="start" x="584" y="-144.0055" font-family="Helvetica,sans-Serif" font-size="11.00" fill="#000000">varchar[36]</text>
<polygon fill="#ffffff" stroke="transparent" points="424,-114.3055 424,-136.3055 581,-136.3055 581,-114.3055 424,-114.3055"/>
<polygon fill="none" stroke="#000000" points="424,-114.3055 424,-136.3055 581,-136.3055 581,-114.3055 424,-114.3055"/>
<image xlink:href="../../images/foreignKeys.png" width="11px" height="12px" preserveAspectRatio="xMinYMin meet" x="429" y="-131.306"/>
<text text-anchor="start" x="444" y="-121.4055" font-family="Helvetica,sans-Serif" font-size="11.00" fill="#000000">external_client_id</text>
<polygon fill="none" stroke="#000000" points="581,-114.3055 581,-136.3055 648,-136.3055 648,-114.3055 581,-114.3055"/>
<text text-anchor="start" x="583.9365" y="-122.0055" font-family="Helvetica,sans-Serif" font-size="11.00" fill="#000000">varchar[255]</text>
<polygon fill="#ffffff" stroke="transparent" points="424,-95.3055 424,-114.3055 494,-114.3055 494,-95.3055 424,-95.3055"/>
<polygon fill="none" stroke="#000000" points="424,-95.3055 424,-114.3055 494,-114.3055 494,-95.3055 424,-95.3055"/>
<text text-anchor="start" x="427" y="-101.4055" font-family="Helvetica,sans-Serif" font-size="11.00" fill="#000000">&lt; 3</text>
<polygon fill="#ffffff" stroke="transparent" points="494,-95.3055 494,-114.3055 581,-114.3055 581,-95.3055 494,-95.3055"/>
<polygon fill="none" stroke="#000000" points="494,-95.3055 494,-114.3055 581,-114.3055 581,-95.3055 494,-95.3055"/>
<text text-anchor="start" x="545.6105" y="-101.4055" font-family="Helvetica,sans-Serif" font-size="11.00" fill="#000000">0 rows</text>
<polygon fill="#ffffff" stroke="transparent" points="581,-95.3055 581,-114.3055 648,-114.3055 648,-95.3055 581,-95.3055"/>
<polygon fill="none" stroke="#000000" points="581,-95.3055 581,-114.3055 648,-114.3055 648,-95.3055 581,-95.3055"/>
<text text-anchor="start" x="629.4053" y="-101.4055" font-family="Helvetica,sans-Serif" font-size="11.00" fill="#000000">1 &gt;</text>
<polygon fill="none" stroke="#000000" stroke-width="2" points="423,-94.3055 423,-292.3055 649,-292.3055 649,-94.3055 423,-94.3055"/>
</a>
</g>
</g>
<!-- federated_user -->
<g id="node2" class="node">
<title>federated_user</title>
<g id="a_node2"><a xlink:href="../../tables/federated_user.html" xlink:title="federated_user" target="_top">
<polygon fill="#ffffff" stroke="transparent" points="8,-98.8055 8,-181.8055 144,-181.8055 144,-98.8055 8,-98.8055"/>
<polygon fill="#f5f5f5" stroke="transparent" points="8,-158.3055 8,-181.3055 144,-181.3055 144,-158.3055 8,-158.3055"/>
<polygon fill="none" stroke="#000000" points="8,-158.3055 8,-181.3055 144,-181.3055 144,-158.3055 8,-158.3055"/>
<text text-anchor="start" x="13" y="-167.4055" font-family="Helvetica,sans-Serif" font-weight="bold" font-size="11.00" fill="#000000">federated_user</text>
<text text-anchor="start" x="109.0437" y="-166.4055" font-family="Helvetica,sans-Serif" font-size="11.00" fill="#000000">[table]</text>
<polygon fill="none" stroke="#000000" points="8,-136.3055 8,-158.3055 144,-158.3055 144,-136.3055 8,-136.3055"/>
<image xlink:href="../../images/primaryKeys.png" width="11px" height="12px" preserveAspectRatio="xMinYMin meet" x="13" y="-153.306"/>
<text text-anchor="start" x="28" y="-143.4055" font-family="Helvetica,sans-Serif" font-size="11.00" fill="#000000">id</text>
<polygon fill="none" stroke="#000000" points="8,-117.3055 8,-136.3055 144,-136.3055 144,-117.3055 8,-117.3055"/>
<text text-anchor="start" x="11" y="-123.4055" font-family="Helvetica,sans-Serif" font-size="11.00" fill="#000000">...</text>
<polygon fill="#ffffff" stroke="transparent" points="8,-98.3055 8,-117.3055 49,-117.3055 49,-98.3055 8,-98.3055"/>
<polygon fill="none" stroke="#000000" points="8,-98.3055 8,-117.3055 49,-117.3055 49,-98.3055 8,-98.3055"/>
<text text-anchor="start" x="11" y="-104.4055" font-family="Helvetica,sans-Serif" font-size="11.00" fill="#000000"> &#160;</text>
<polygon fill="#ffffff" stroke="transparent" points="49,-98.3055 49,-117.3055 102,-117.3055 102,-98.3055 49,-98.3055"/>
<polygon fill="none" stroke="#000000" points="49,-98.3055 49,-117.3055 102,-117.3055 102,-98.3055 49,-98.3055"/>
<text text-anchor="start" x="66.6105" y="-104.4055" font-family="Helvetica,sans-Serif" font-size="11.00" fill="#000000">0 rows</text>
<polygon fill="#ffffff" stroke="transparent" points="102,-98.3055 102,-117.3055 144,-117.3055 144,-98.3055 102,-98.3055"/>
<polygon fill="none" stroke="#000000" points="102,-98.3055 102,-117.3055 144,-117.3055 144,-98.3055 102,-98.3055"/>
<text text-anchor="start" x="119.2904" y="-104.4055" font-family="Helvetica,sans-Serif" font-size="11.00" fill="#000000">30 &gt;</text>
</a>
</g>
</g>
<!-- user_consent&#45;&gt;federated_user -->
<g id="edge1" class="edge">
<title>user_consent:w&#45;&gt;federated_user:e</title>
<path fill="none" stroke="#000000" stroke-dasharray="5,2" d="M409.8479,-238.8414C400.517,-244.2934 396.1102,-254.5183 381,-258.3055 296.5026,-279.484 256.4759,-308.1005 185,-258.3055 141.8482,-228.2431 196.5911,-147.3055 144,-147.3055"/>
<polygon fill="#000000" stroke="#000000" points="416.2386,-237.2448 424.8727,-238.7982 420.1193,-236.2751 424,-235.3055 424,-235.3055 424,-235.3055 420.1193,-236.2751 423.1273,-231.8129 416.2386,-237.2448 416.2386,-237.2448"/>
<ellipse fill="none" stroke="#000000" cx="413.134" cy="-238.0204" rx="3.2" ry="3.2"/>
</g>
<!-- user_consent&#45;&gt;federated_user -->
<g id="edge2" class="edge">
<title>user_consent:w&#45;&gt;federated_user:e</title>
<path fill="none" stroke="#000000" stroke-dasharray="5,2" d="M410.0724,-120.7872C396.924,-109.1329 404.2731,-78.142 381,-66.3055 303.3541,-26.8155 259.2137,-20.6912 185,-66.3055 150.6249,-87.4337 184.3491,-147.3055 144,-147.3055"/>
<polygon fill="#000000" stroke="#000000" points="416.3904,-122.8369 422.8891,-128.7298 420.1952,-124.0712 424,-125.3055 424,-125.3055 424,-125.3055 420.1952,-124.0712 425.1109,-121.8812 416.3904,-122.8369 416.3904,-122.8369"/>
<ellipse fill="none" stroke="#000000" cx="413.3466" cy="-121.8494" rx="3.2" ry="3.2"/>
</g>
<!-- user_entity -->
<g id="node3" class="node">
<title>user_entity</title>
<g id="a_node3"><a xlink:href="../../tables/user_entity.html" xlink:title="user_entity" target="_top">
<polygon fill="#ffffff" stroke="transparent" points="193,-76.8055 193,-247.8055 373,-247.8055 373,-76.8055 193,-76.8055"/>
<polygon fill="#f5f5f5" stroke="transparent" points="193,-224.3055 193,-247.3055 373,-247.3055 373,-224.3055 193,-224.3055"/>
<polygon fill="none" stroke="#000000" points="193,-224.3055 193,-247.3055 373,-247.3055 373,-224.3055 193,-224.3055"/>
<text text-anchor="start" x="198" y="-233.4055" font-family="Helvetica,sans-Serif" font-weight="bold" font-size="11.00" fill="#000000">user_entity</text>
<text text-anchor="start" x="338.0437" y="-232.4055" font-family="Helvetica,sans-Serif" font-size="11.00" fill="#000000">[table]</text>
<polygon fill="none" stroke="#000000" points="193,-202.3055 193,-224.3055 373,-224.3055 373,-202.3055 193,-202.3055"/>
<image xlink:href="../../images/primaryKeys.png" width="11px" height="12px" preserveAspectRatio="xMinYMin meet" x="198" y="-219.306"/>
<text text-anchor="start" x="213" y="-209.4055" font-family="Helvetica,sans-Serif" font-size="11.00" fill="#000000">id</text>
<polygon fill="#ffffff" stroke="transparent" points="193,-180.3055 193,-202.3055 373,-202.3055 373,-180.3055 193,-180.3055"/>
<polygon fill="none" stroke="#000000" points="193,-180.3055 193,-202.3055 373,-202.3055 373,-180.3055 193,-180.3055"/>
<text text-anchor="start" x="213" y="-187.4055" font-family="Helvetica,sans-Serif" font-size="11.00" fill="#000000">email</text>
<polygon fill="#ffffff" stroke="transparent" points="193,-158.3055 193,-180.3055 373,-180.3055 373,-158.3055 193,-158.3055"/>
<polygon fill="none" stroke="#000000" points="193,-158.3055 193,-180.3055 373,-180.3055 373,-158.3055 193,-158.3055"/>
<text text-anchor="start" x="213" y="-165.4055" font-family="Helvetica,sans-Serif" font-size="11.00" fill="#000000">email_constraint</text>
<polygon fill="#ffffff" stroke="transparent" points="193,-136.3055 193,-158.3055 373,-158.3055 373,-136.3055 193,-136.3055"/>
<polygon fill="none" stroke="#000000" points="193,-136.3055 193,-158.3055 373,-158.3055 373,-136.3055 193,-136.3055"/>
<image xlink:href="../../images/foreignKeys.png" width="11px" height="12px" preserveAspectRatio="xMinYMin meet" x="198" y="-153.306"/>
<text text-anchor="start" x="213" y="-143.4055" font-family="Helvetica,sans-Serif" font-size="11.00" fill="#000000">realm_id</text>
<polygon fill="#ffffff" stroke="transparent" points="193,-114.3055 193,-136.3055 373,-136.3055 373,-114.3055 193,-114.3055"/>
<polygon fill="none" stroke="#000000" points="193,-114.3055 193,-136.3055 373,-136.3055 373,-114.3055 193,-114.3055"/>
<text text-anchor="start" x="213" y="-121.4055" font-family="Helvetica,sans-Serif" font-size="11.00" fill="#000000">username</text>
<polygon fill="none" stroke="#000000" points="193,-95.3055 193,-114.3055 373,-114.3055 373,-95.3055 193,-95.3055"/>
<text text-anchor="start" x="196" y="-101.4055" font-family="Helvetica,sans-Serif" font-size="11.00" fill="#000000">...</text>
<polygon fill="#ffffff" stroke="transparent" points="193,-76.3055 193,-95.3055 267,-95.3055 267,-76.3055 193,-76.3055"/>
<polygon fill="none" stroke="#000000" points="193,-76.3055 193,-95.3055 267,-95.3055 267,-76.3055 193,-76.3055"/>
<text text-anchor="start" x="196" y="-82.4055" font-family="Helvetica,sans-Serif" font-size="11.00" fill="#000000">&lt; 1</text>
<polygon fill="#ffffff" stroke="transparent" points="267,-76.3055 267,-95.3055 325,-95.3055 325,-76.3055 267,-76.3055"/>
<polygon fill="none" stroke="#000000" points="267,-76.3055 267,-95.3055 325,-95.3055 325,-76.3055 267,-76.3055"/>
<text text-anchor="start" x="295.1105" y="-82.4055" font-family="Helvetica,sans-Serif" font-size="11.00" fill="#000000">1 row</text>
<polygon fill="#ffffff" stroke="transparent" points="325,-76.3055 325,-95.3055 373,-95.3055 373,-76.3055 325,-76.3055"/>
<polygon fill="none" stroke="#000000" points="325,-76.3055 325,-95.3055 373,-95.3055 373,-76.3055 325,-76.3055"/>
<text text-anchor="start" x="354.4053" y="-82.4055" font-family="Helvetica,sans-Serif" font-size="11.00" fill="#000000">7 &gt;</text>
</a>
</g>
</g>
<!-- user_consent&#45;&gt;user_entity -->
<g id="edge3" class="edge">
<title>user_consent:w&#45;&gt;user_entity:e</title>
<path fill="none" stroke="#000000" d="M409.276,-213.3055C397.2815,-213.3055 389.8229,-213.3055 373,-213.3055"/>
<polygon fill="#000000" stroke="#000000" points="416,-213.3056 424,-216.9055 420,-213.3055 424,-213.3055 424,-213.3055 424,-213.3055 420,-213.3055 424,-209.7055 416,-213.3056 416,-213.3056"/>
<ellipse fill="none" stroke="#000000" cx="412.8" cy="-213.3056" rx="3.2" ry="3.2"/>
</g>
<!-- user_entity&#45;&gt;federated_user -->
<g id="edge5" class="edge">
<title>user_entity:w&#45;&gt;federated_user:e</title>
<path fill="none" stroke="#000000" stroke-dasharray="5,2" d="M178.4909,-147.3055C167.1774,-147.3055 159.9931,-147.3055 144,-147.3055"/>
<polygon fill="#000000" stroke="#000000" points="185,-147.3056 193,-150.9055 189,-147.3055 193,-147.3055 193,-147.3055 193,-147.3055 189,-147.3055 193,-143.7055 185,-147.3056 185,-147.3056"/>
<ellipse fill="none" stroke="#000000" cx="181.8" cy="-147.3056" rx="3.2" ry="3.2"/>
</g>
<!-- user_consent_client_scope -->
<g id="node4" class="node">
<title>user_consent_client_scope</title>
<g id="a_node4"><a xlink:href="../../tables/user_consent_client_scope.html" xlink:title="user_consent_client_scope" target="_top">
<polygon fill="#ffffff" stroke="transparent" points="699,-205.3055 699,-291.3055 877,-291.3055 877,-205.3055 699,-205.3055"/>
<polygon fill="#f5f5f5" stroke="transparent" points="699,-268.3055 699,-291.3055 877,-291.3055 877,-268.3055 699,-268.3055"/>
<polygon fill="none" stroke="#000000" points="699,-268.3055 699,-291.3055 877,-291.3055 877,-268.3055 699,-268.3055"/>
<text text-anchor="start" x="704" y="-277.4055" font-family="Helvetica,sans-Serif" font-weight="bold" font-size="11.00" fill="#000000">user_consent_client_scope</text>
<text text-anchor="start" x="842.0437" y="-276.4055" font-family="Helvetica,sans-Serif" font-size="11.00" fill="#000000">[table]</text>
<polygon fill="none" stroke="#000000" points="699,-246.3055 699,-268.3055 877,-268.3055 877,-246.3055 699,-246.3055"/>
<image xlink:href="../../images/primaryKeys.png" width="11px" height="12px" preserveAspectRatio="xMinYMin meet" x="704" y="-263.306"/>
<text text-anchor="start" x="719" y="-253.4055" font-family="Helvetica,sans-Serif" font-size="11.00" fill="#000000">user_consent_id</text>
<polygon fill="none" stroke="#000000" points="699,-224.3055 699,-246.3055 877,-246.3055 877,-224.3055 699,-224.3055"/>
<image xlink:href="../../images/primaryKeys.png" width="11px" height="12px" preserveAspectRatio="xMinYMin meet" x="704" y="-241.306"/>
<text text-anchor="start" x="719" y="-231.4055" font-family="Helvetica,sans-Serif" font-size="11.00" fill="#000000">scope_id</text>
<polygon fill="#ffffff" stroke="transparent" points="699,-205.3055 699,-224.3055 773,-224.3055 773,-205.3055 699,-205.3055"/>
<polygon fill="none" stroke="#000000" points="699,-205.3055 699,-224.3055 773,-224.3055 773,-205.3055 699,-205.3055"/>
<text text-anchor="start" x="702" y="-211.4055" font-family="Helvetica,sans-Serif" font-size="11.00" fill="#000000">&lt; 1</text>
<polygon fill="#ffffff" stroke="transparent" points="773,-205.3055 773,-224.3055 838,-224.3055 838,-205.3055 773,-205.3055"/>
<polygon fill="none" stroke="#000000" points="773,-205.3055 773,-224.3055 838,-224.3055 838,-205.3055 773,-205.3055"/>
<text text-anchor="start" x="802.6105" y="-211.4055" font-family="Helvetica,sans-Serif" font-size="11.00" fill="#000000">0 rows</text>
<polygon fill="#ffffff" stroke="transparent" points="838,-205.3055 838,-224.3055 877,-224.3055 877,-205.3055 838,-205.3055"/>
<polygon fill="none" stroke="#000000" points="838,-205.3055 838,-224.3055 877,-224.3055 877,-205.3055 838,-205.3055"/>
<text text-anchor="start" x="867.8862" y="-211.4055" font-family="Helvetica,sans-Serif" font-size="11.00" fill="#000000"> &#160;</text>
</a>
</g>
</g>
<!-- user_consent_client_scope&#45;&gt;user_consent -->
<g id="edge4" class="edge">
<title>user_consent_client_scope:w&#45;&gt;user_consent:e</title>
<path fill="none" stroke="#000000" d="M684.276,-257.3055C672.2815,-257.3055 664.8229,-257.3055 648,-257.3055"/>
<polygon fill="#000000" stroke="#000000" points="691,-257.3056 699,-260.9055 695,-257.3055 699,-257.3055 699,-257.3055 699,-257.3055 695,-257.3055 699,-253.7055 691,-257.3056 691,-257.3056"/>
<ellipse fill="none" stroke="#000000" cx="687.8" cy="-257.3056" rx="3.2" ry="3.2"/>
</g>
</g>
</svg>
