<?xml version="1.0" encoding="UTF-8" standalone="no"?>
<!DOCTYPE svg PUBLIC "-//W3C//DTD SVG 1.1//EN"
 "http://www.w3.org/Graphics/SVG/1.1/DTD/svg11.dtd">
<!-- Generated by graphviz version 2.40.1 (20161225.0304)
 -->
<!-- Title: oneDegreeRelationshipsDiagram Pages: 1 -->
<svg width="984pt" height="256pt"
 viewBox="0.00 0.00 984.00 255.70" xmlns="http://www.w3.org/2000/svg" xmlns:xlink="http://www.w3.org/1999/xlink">
<g id="graph0" class="graph" transform="scale(1 1) rotate(0) translate(4 251.7)">
<title>oneDegreeRelationshipsDiagram</title>
<polygon fill="#ffffff" stroke="transparent" points="-4,4 -4,-251.7 980,-251.7 980,4 -4,4"/>
<text text-anchor="middle" x="72.4936" y="-7.3" font-family="Helvetica,sans-Serif" font-size="11.00" fill="#000000">Generated by SchemaSpy</text>
<!-- user_federation_mapper -->
<g id="node1" class="node">
<title>user_federation_mapper</title>
<g id="a_node1"><a xlink:href="../../tables/user_federation_mapper.html" xlink:title="user_federation_mapper" target="_top">
<polygon fill="#ffffff" stroke="transparent" points="484,-87.7 484,-243.7 716,-243.7 716,-87.7 484,-87.7"/>
<polygon fill="#f5f5f5" stroke="transparent" points="486,-218.7 486,-241.7 714,-241.7 714,-218.7 486,-218.7"/>
<polygon fill="none" stroke="#000000" points="486,-218.7 486,-241.7 714,-241.7 714,-218.7 486,-218.7"/>
<text text-anchor="start" x="491" y="-227.8" font-family="Helvetica,sans-Serif" font-weight="bold" font-size="11.00" fill="#000000">user_federation_mapper</text>
<text text-anchor="start" x="679.0437" y="-226.8" font-family="Helvetica,sans-Serif" font-size="11.00" fill="#000000">[table]</text>
<polygon fill="none" stroke="#000000" points="486,-196.7 486,-218.7 647,-218.7 647,-196.7 486,-196.7"/>
<image xlink:href="../../images/primaryKeys.png" width="11px" height="12px" preserveAspectRatio="xMinYMin meet" x="491" y="-213.7"/>
<text text-anchor="start" x="506" y="-203.8" font-family="Helvetica,sans-Serif" font-size="11.00" fill="#000000">id</text>
<polygon fill="none" stroke="#000000" points="647,-196.7 647,-218.7 714,-218.7 714,-196.7 647,-196.7"/>
<text text-anchor="start" x="650" y="-204.4" font-family="Helvetica,sans-Serif" font-size="11.00" fill="#000000">varchar[36]</text>
<polygon fill="none" stroke="#000000" points="486,-174.7 486,-196.7 647,-196.7 647,-174.7 486,-174.7"/>
<text text-anchor="start" x="506" y="-181.8" font-family="Helvetica,sans-Serif" font-size="11.00" fill="#000000">name</text>
<polygon fill="none" stroke="#000000" points="647,-174.7 647,-196.7 714,-196.7 714,-174.7 647,-174.7"/>
<text text-anchor="start" x="649.9365" y="-182.4" font-family="Helvetica,sans-Serif" font-size="11.00" fill="#000000">varchar[255]</text>
<polygon fill="#ffffff" stroke="transparent" points="486,-152.7 486,-174.7 647,-174.7 647,-152.7 486,-152.7"/>
<polygon fill="none" stroke="#000000" points="486,-152.7 486,-174.7 647,-174.7 647,-152.7 486,-152.7"/>
<image xlink:href="../../images/foreignKeys.png" width="11px" height="12px" preserveAspectRatio="xMinYMin meet" x="491" y="-169.7"/>
<text text-anchor="start" x="506" y="-159.8" font-family="Helvetica,sans-Serif" font-size="11.00" fill="#000000">federation_provider_id</text>
<polygon fill="none" stroke="#000000" points="647,-152.7 647,-174.7 714,-174.7 714,-152.7 647,-152.7"/>
<text text-anchor="start" x="650" y="-160.4" font-family="Helvetica,sans-Serif" font-size="11.00" fill="#000000">varchar[36]</text>
<polygon fill="none" stroke="#000000" points="486,-130.7 486,-152.7 647,-152.7 647,-130.7 486,-130.7"/>
<text text-anchor="start" x="506" y="-137.8" font-family="Helvetica,sans-Serif" font-size="11.00" fill="#000000">federation_mapper_type</text>
<polygon fill="none" stroke="#000000" points="647,-130.7 647,-152.7 714,-152.7 714,-130.7 647,-130.7"/>
<text text-anchor="start" x="649.9365" y="-138.4" font-family="Helvetica,sans-Serif" font-size="11.00" fill="#000000">varchar[255]</text>
<polygon fill="#ffffff" stroke="transparent" points="486,-108.7 486,-130.7 647,-130.7 647,-108.7 486,-108.7"/>
<polygon fill="none" stroke="#000000" points="486,-108.7 486,-130.7 647,-130.7 647,-108.7 486,-108.7"/>
<image xlink:href="../../images/foreignKeys.png" width="11px" height="12px" preserveAspectRatio="xMinYMin meet" x="491" y="-125.7"/>
<text text-anchor="start" x="506" y="-115.8" font-family="Helvetica,sans-Serif" font-size="11.00" fill="#000000">realm_id</text>
<polygon fill="none" stroke="#000000" points="647,-108.7 647,-130.7 714,-130.7 714,-108.7 647,-108.7"/>
<text text-anchor="start" x="650" y="-116.4" font-family="Helvetica,sans-Serif" font-size="11.00" fill="#000000">varchar[36]</text>
<polygon fill="#ffffff" stroke="transparent" points="486,-89.7 486,-108.7 558,-108.7 558,-89.7 486,-89.7"/>
<polygon fill="none" stroke="#000000" points="486,-89.7 486,-108.7 558,-108.7 558,-89.7 486,-89.7"/>
<text text-anchor="start" x="489" y="-95.8" font-family="Helvetica,sans-Serif" font-size="11.00" fill="#000000">&lt; 2</text>
<polygon fill="#ffffff" stroke="transparent" points="558,-89.7 558,-108.7 647,-108.7 647,-89.7 558,-89.7"/>
<polygon fill="none" stroke="#000000" points="558,-89.7 558,-108.7 647,-108.7 647,-89.7 558,-89.7"/>
<text text-anchor="start" x="611.6105" y="-95.8" font-family="Helvetica,sans-Serif" font-size="11.00" fill="#000000">0 rows</text>
<polygon fill="#ffffff" stroke="transparent" points="647,-89.7 647,-108.7 714,-108.7 714,-89.7 647,-89.7"/>
<polygon fill="none" stroke="#000000" points="647,-89.7 647,-108.7 714,-108.7 714,-89.7 647,-89.7"/>
<text text-anchor="start" x="695.4053" y="-95.8" font-family="Helvetica,sans-Serif" font-size="11.00" fill="#000000">1 &gt;</text>
<polygon fill="none" stroke="#000000" stroke-width="2" points="485,-88.7 485,-242.7 715,-242.7 715,-88.7 485,-88.7"/>
</a>
</g>
</g>
<!-- user_federation_provider -->
<g id="node2" class="node">
<title>user_federation_provider</title>
<g id="a_node2"><a xlink:href="../../tables/user_federation_provider.html" xlink:title="user_federation_provider" target="_top">
<polygon fill="#ffffff" stroke="transparent" points="270,-119.2 270,-224.2 435,-224.2 435,-119.2 270,-119.2"/>
<polygon fill="#f5f5f5" stroke="transparent" points="270.5,-200.7 270.5,-223.7 435.5,-223.7 435.5,-200.7 270.5,-200.7"/>
<polygon fill="none" stroke="#000000" points="270.5,-200.7 270.5,-223.7 435.5,-223.7 435.5,-200.7 270.5,-200.7"/>
<text text-anchor="start" x="275.3741" y="-209.8" font-family="Helvetica,sans-Serif" font-weight="bold" font-size="11.00" fill="#000000">user_federation_provider</text>
<text text-anchor="start" x="401.0219" y="-208.8" font-family="Helvetica,sans-Serif" font-size="11.00" fill="#000000">[table]</text>
<polygon fill="none" stroke="#000000" points="270.5,-178.7 270.5,-200.7 435.5,-200.7 435.5,-178.7 270.5,-178.7"/>
<image xlink:href="../../images/primaryKeys.png" width="11px" height="12px" preserveAspectRatio="xMinYMin meet" x="275.5" y="-195.7"/>
<text text-anchor="start" x="290.5" y="-185.8" font-family="Helvetica,sans-Serif" font-size="11.00" fill="#000000">id</text>
<polygon fill="#ffffff" stroke="transparent" points="270.5,-156.7 270.5,-178.7 435.5,-178.7 435.5,-156.7 270.5,-156.7"/>
<polygon fill="none" stroke="#000000" points="270.5,-156.7 270.5,-178.7 435.5,-178.7 435.5,-156.7 270.5,-156.7"/>
<image xlink:href="../../images/foreignKeys.png" width="11px" height="12px" preserveAspectRatio="xMinYMin meet" x="275.5" y="-173.7"/>
<text text-anchor="start" x="290.5" y="-163.8" font-family="Helvetica,sans-Serif" font-size="11.00" fill="#000000">realm_id</text>
<polygon fill="none" stroke="#000000" points="270.5,-137.7 270.5,-156.7 435.5,-156.7 435.5,-137.7 270.5,-137.7"/>
<text text-anchor="start" x="273.5" y="-143.8" font-family="Helvetica,sans-Serif" font-size="11.00" fill="#000000">...</text>
<polygon fill="#ffffff" stroke="transparent" points="270.5,-118.7 270.5,-137.7 333.5,-137.7 333.5,-118.7 270.5,-118.7"/>
<polygon fill="none" stroke="#000000" points="270.5,-118.7 270.5,-137.7 333.5,-137.7 333.5,-118.7 270.5,-118.7"/>
<text text-anchor="start" x="273.5" y="-124.8" font-family="Helvetica,sans-Serif" font-size="11.00" fill="#000000">&lt; 1</text>
<polygon fill="#ffffff" stroke="transparent" points="333.5,-118.7 333.5,-137.7 392.5,-137.7 392.5,-118.7 333.5,-118.7"/>
<polygon fill="none" stroke="#000000" points="333.5,-118.7 333.5,-137.7 392.5,-137.7 392.5,-118.7 333.5,-118.7"/>
<text text-anchor="start" x="357.1105" y="-124.8" font-family="Helvetica,sans-Serif" font-size="11.00" fill="#000000">0 rows</text>
<polygon fill="#ffffff" stroke="transparent" points="392.5,-118.7 392.5,-137.7 435.5,-137.7 435.5,-118.7 392.5,-118.7"/>
<polygon fill="none" stroke="#000000" points="392.5,-118.7 392.5,-137.7 435.5,-137.7 435.5,-118.7 392.5,-118.7"/>
<text text-anchor="start" x="416.9053" y="-124.8" font-family="Helvetica,sans-Serif" font-size="11.00" fill="#000000">2 &gt;</text>
</a>
</g>
</g>
<!-- user_federation_mapper&#45;&gt;user_federation_provider -->
<g id="edge1" class="edge">
<title>user_federation_mapper:w&#45;&gt;user_federation_provider:e</title>
<path fill="none" stroke="#000000" d="M471.7586,-167.3152C459.3642,-174.4593 454.8278,-189.7 435.5,-189.7"/>
<polygon fill="#000000" stroke="#000000" points="478.2459,-165.6684 486.8858,-167.1893 482.123,-164.6842 486,-163.7 486,-163.7 486,-163.7 482.123,-164.6842 485.1142,-160.2107 478.2459,-165.6684 478.2459,-165.6684"/>
<ellipse fill="none" stroke="#000000" cx="475.1443" cy="-166.4558" rx="3.2" ry="3.2"/>
</g>
<!-- realm -->
<g id="node3" class="node">
<title>realm</title>
<g id="a_node3"><a xlink:href="../../tables/realm.html" xlink:title="realm" target="_top">
<polygon fill="#ffffff" stroke="transparent" points="8,-38.2 8,-165.2 221,-165.2 221,-38.2 8,-38.2"/>
<polygon fill="#f5f5f5" stroke="transparent" points="8.5,-141.7 8.5,-164.7 221.5,-164.7 221.5,-141.7 8.5,-141.7"/>
<polygon fill="none" stroke="#000000" points="8.5,-141.7 8.5,-164.7 221.5,-164.7 221.5,-141.7 8.5,-141.7"/>
<text text-anchor="start" x="13.5" y="-150.8" font-family="Helvetica,sans-Serif" font-weight="bold" font-size="11.00" fill="#000000">realm</text>
<text text-anchor="start" x="186.5437" y="-149.8" font-family="Helvetica,sans-Serif" font-size="11.00" fill="#000000">[table]</text>
<polygon fill="none" stroke="#000000" points="8.5,-119.7 8.5,-141.7 221.5,-141.7 221.5,-119.7 8.5,-119.7"/>
<image xlink:href="../../images/primaryKeys.png" width="11px" height="12px" preserveAspectRatio="xMinYMin meet" x="13.5" y="-136.7"/>
<text text-anchor="start" x="28.5" y="-126.8" font-family="Helvetica,sans-Serif" font-size="11.00" fill="#000000">id</text>
<polygon fill="#ffffff" stroke="transparent" points="8.5,-97.7 8.5,-119.7 221.5,-119.7 221.5,-97.7 8.5,-97.7"/>
<polygon fill="none" stroke="#000000" points="8.5,-97.7 8.5,-119.7 221.5,-119.7 221.5,-97.7 8.5,-97.7"/>
<text text-anchor="start" x="28.5" y="-104.8" font-family="Helvetica,sans-Serif" font-size="11.00" fill="#000000">name</text>
<polygon fill="#ffffff" stroke="transparent" points="8.5,-75.7 8.5,-97.7 221.5,-97.7 221.5,-75.7 8.5,-75.7"/>
<polygon fill="none" stroke="#000000" points="8.5,-75.7 8.5,-97.7 221.5,-97.7 221.5,-75.7 8.5,-75.7"/>
<text text-anchor="start" x="28.5" y="-82.8" font-family="Helvetica,sans-Serif" font-size="11.00" fill="#000000">master_admin_client</text>
<polygon fill="none" stroke="#000000" points="8.5,-56.7 8.5,-75.7 221.5,-75.7 221.5,-56.7 8.5,-56.7"/>
<text text-anchor="start" x="11.5" y="-62.8" font-family="Helvetica,sans-Serif" font-size="11.00" fill="#000000">...</text>
<polygon fill="#ffffff" stroke="transparent" points="8.5,-37.7 8.5,-56.7 91.5,-56.7 91.5,-37.7 8.5,-37.7"/>
<polygon fill="none" stroke="#000000" points="8.5,-37.7 8.5,-56.7 91.5,-56.7 91.5,-37.7 8.5,-37.7"/>
<text text-anchor="start" x="11.5" y="-43.8" font-family="Helvetica,sans-Serif" font-size="11.00" fill="#000000"> &#160;</text>
<polygon fill="#ffffff" stroke="transparent" points="91.5,-37.7 91.5,-56.7 158.5,-56.7 158.5,-37.7 91.5,-37.7"/>
<polygon fill="none" stroke="#000000" points="91.5,-37.7 91.5,-56.7 158.5,-56.7 158.5,-37.7 91.5,-37.7"/>
<text text-anchor="start" x="128.6105" y="-43.8" font-family="Helvetica,sans-Serif" font-size="11.00" fill="#000000">1 row</text>
<polygon fill="#ffffff" stroke="transparent" points="158.5,-37.7 158.5,-56.7 221.5,-56.7 221.5,-37.7 158.5,-37.7"/>
<polygon fill="none" stroke="#000000" points="158.5,-37.7 158.5,-56.7 221.5,-56.7 221.5,-37.7 158.5,-37.7"/>
<text text-anchor="start" x="196.7904" y="-43.8" font-family="Helvetica,sans-Serif" font-size="11.00" fill="#000000">23 &gt;</text>
</a>
</g>
</g>
<!-- user_federation_mapper&#45;&gt;realm -->
<g id="edge2" class="edge">
<title>user_federation_mapper:w&#45;&gt;realm:e</title>
<path fill="none" stroke="#000000" d="M471.5296,-117.7358C462.5446,-115.062 456.6087,-110.4131 443,-108.7 363.1854,-98.6529 339.9673,-88.8907 262,-108.7 242.1465,-113.7442 241.9843,-130.7 221.5,-130.7"/>
<polygon fill="#000000" stroke="#000000" points="478.0727,-118.6239 485.5158,-123.2673 482.0363,-119.162 486,-119.7 486,-119.7 486,-119.7 482.0363,-119.162 486.4842,-116.1327 478.0727,-118.6239 478.0727,-118.6239"/>
<ellipse fill="none" stroke="#000000" cx="474.9018" cy="-118.1935" rx="3.2" ry="3.2"/>
</g>
<!-- user_federation_provider&#45;&gt;realm -->
<g id="edge4" class="edge">
<title>user_federation_provider:w&#45;&gt;realm:e</title>
<path fill="none" stroke="#000000" d="M256.6217,-163.1631C244.0786,-153.283 242.8196,-130.7 221.5,-130.7"/>
<polygon fill="#000000" stroke="#000000" points="262.896,-165.2142 269.3814,-171.1218 266.698,-166.4571 270.5,-167.7 270.5,-167.7 270.5,-167.7 266.698,-166.4571 271.6186,-164.2782 262.896,-165.2142 262.896,-165.2142"/>
<ellipse fill="none" stroke="#000000" cx="259.8544" cy="-164.2198" rx="3.2" ry="3.2"/>
</g>
<!-- user_federation_mapper_config -->
<g id="node4" class="node">
<title>user_federation_mapper_config</title>
<g id="a_node4"><a xlink:href="../../tables/user_federation_mapper_config.html" xlink:title="user_federation_mapper_config" target="_top">
<polygon fill="#ffffff" stroke="transparent" points="765,-137.2 765,-242.2 968,-242.2 968,-137.2 765,-137.2"/>
<polygon fill="#f5f5f5" stroke="transparent" points="765.5,-218.7 765.5,-241.7 968.5,-241.7 968.5,-218.7 765.5,-218.7"/>
<polygon fill="none" stroke="#000000" points="765.5,-218.7 765.5,-241.7 968.5,-241.7 968.5,-218.7 765.5,-218.7"/>
<text text-anchor="start" x="770.5" y="-227.8" font-family="Helvetica,sans-Serif" font-weight="bold" font-size="11.00" fill="#000000">user_federation_mapper_config</text>
<text text-anchor="start" x="933.5437" y="-226.8" font-family="Helvetica,sans-Serif" font-size="11.00" fill="#000000">[table]</text>
<polygon fill="none" stroke="#000000" points="765.5,-196.7 765.5,-218.7 968.5,-218.7 968.5,-196.7 765.5,-196.7"/>
<image xlink:href="../../images/primaryKeys.png" width="11px" height="12px" preserveAspectRatio="xMinYMin meet" x="770.5" y="-213.7"/>
<text text-anchor="start" x="785.5" y="-203.8" font-family="Helvetica,sans-Serif" font-size="11.00" fill="#000000">user_federation_mapper_id</text>
<polygon fill="none" stroke="#000000" points="765.5,-174.7 765.5,-196.7 968.5,-196.7 968.5,-174.7 765.5,-174.7"/>
<image xlink:href="../../images/primaryKeys.png" width="11px" height="12px" preserveAspectRatio="xMinYMin meet" x="770.5" y="-191.7"/>
<text text-anchor="start" x="785.5" y="-181.8" font-family="Helvetica,sans-Serif" font-size="11.00" fill="#000000">name</text>
<polygon fill="none" stroke="#000000" points="765.5,-155.7 765.5,-174.7 968.5,-174.7 968.5,-155.7 765.5,-155.7"/>
<text text-anchor="start" x="768.5" y="-161.8" font-family="Helvetica,sans-Serif" font-size="11.00" fill="#000000">...</text>
<polygon fill="#ffffff" stroke="transparent" points="765.5,-136.7 765.5,-155.7 852.5,-155.7 852.5,-136.7 765.5,-136.7"/>
<polygon fill="none" stroke="#000000" points="765.5,-136.7 765.5,-155.7 852.5,-155.7 852.5,-136.7 765.5,-136.7"/>
<text text-anchor="start" x="768.5" y="-142.8" font-family="Helvetica,sans-Serif" font-size="11.00" fill="#000000">&lt; 1</text>
<polygon fill="#ffffff" stroke="transparent" points="852.5,-136.7 852.5,-155.7 923.5,-155.7 923.5,-136.7 852.5,-136.7"/>
<polygon fill="none" stroke="#000000" points="852.5,-136.7 852.5,-155.7 923.5,-155.7 923.5,-136.7 852.5,-136.7"/>
<text text-anchor="start" x="888.1105" y="-142.8" font-family="Helvetica,sans-Serif" font-size="11.00" fill="#000000">0 rows</text>
<polygon fill="#ffffff" stroke="transparent" points="923.5,-136.7 923.5,-155.7 968.5,-155.7 968.5,-136.7 923.5,-136.7"/>
<polygon fill="none" stroke="#000000" points="923.5,-136.7 923.5,-155.7 968.5,-155.7 968.5,-136.7 923.5,-136.7"/>
<text text-anchor="start" x="959.3862" y="-142.8" font-family="Helvetica,sans-Serif" font-size="11.00" fill="#000000"> &#160;</text>
</a>
</g>
</g>
<!-- user_federation_mapper_config&#45;&gt;user_federation_mapper -->
<g id="edge3" class="edge">
<title>user_federation_mapper_config:w&#45;&gt;user_federation_mapper:e</title>
<path fill="none" stroke="#000000" d="M751.0156,-207.7C738.6771,-207.7 731.1667,-207.7 714,-207.7"/>
<polygon fill="#000000" stroke="#000000" points="757.5,-207.7001 765.5,-211.3 761.5,-207.7 765.5,-207.7 765.5,-207.7 765.5,-207.7 761.5,-207.7 765.5,-204.1 757.5,-207.7001 757.5,-207.7001"/>
<ellipse fill="none" stroke="#000000" cx="754.3" cy="-207.7001" rx="3.2" ry="3.2"/>
</g>
</g>
</svg>
