<?xml version="1.0" encoding="UTF-8" standalone="no"?>
<!DOCTYPE svg PUBLIC "-//W3C//DTD SVG 1.1//EN"
 "http://www.w3.org/Graphics/SVG/1.1/DTD/svg11.dtd">
<!-- Generated by graphviz version 2.40.1 (20161225.0304)
 -->
<!-- Title: twoDegreesRelationshipsDiagram Pages: 1 -->
<svg width="419pt" height="263pt"
 viewBox="0.00 0.00 419.00 263.20" xmlns="http://www.w3.org/2000/svg" xmlns:xlink="http://www.w3.org/1999/xlink">
<g id="graph0" class="graph" transform="scale(1 1) rotate(0) translate(4 259.2)">
<title>twoDegreesRelationshipsDiagram</title>
<polygon fill="#ffffff" stroke="transparent" points="-4,4 -4,-259.2 415,-259.2 415,4 -4,4"/>
<text text-anchor="middle" x="72.4936" y="-7.3" font-family="Helvetica,sans-Serif" font-size="11.00" fill="#000000">Generated by SchemaSpy</text>
<!-- client_session -->
<g id="node1" class="node">
<title>client_session</title>
<g id="a_node1"><a xlink:href="../../tables/client_session.html" xlink:title="client_session" target="_top">
<polygon fill="#ffffff" stroke="transparent" points="244,-190.2 244,-251.2 356,-251.2 356,-190.2 244,-190.2"/>
<polygon fill="#f5f5f5" stroke="transparent" points="244,-227.7 244,-250.7 356,-250.7 356,-227.7 244,-227.7"/>
<polygon fill="none" stroke="#000000" points="244,-227.7 244,-250.7 356,-250.7 356,-227.7 244,-227.7"/>
<text text-anchor="start" x="248.9655" y="-236.8" font-family="Helvetica,sans-Serif" font-weight="bold" font-size="11.00" fill="#000000">client_session</text>
<text text-anchor="start" x="321.5219" y="-235.8" font-family="Helvetica,sans-Serif" font-size="11.00" fill="#000000">[table]</text>
<polygon fill="none" stroke="#000000" points="244,-208.7 244,-227.7 356,-227.7 356,-208.7 244,-208.7"/>
<text text-anchor="start" x="247" y="-214.8" font-family="Helvetica,sans-Serif" font-size="11.00" fill="#000000">...</text>
<polygon fill="#ffffff" stroke="transparent" points="244,-189.7 244,-208.7 281,-208.7 281,-189.7 244,-189.7"/>
<polygon fill="none" stroke="#000000" points="244,-189.7 244,-208.7 281,-208.7 281,-189.7 244,-189.7"/>
<text text-anchor="start" x="247" y="-195.8" font-family="Helvetica,sans-Serif" font-size="11.00" fill="#000000">&lt; 1</text>
<polygon fill="#ffffff" stroke="transparent" points="281,-189.7 281,-208.7 327,-208.7 327,-189.7 281,-189.7"/>
<polygon fill="none" stroke="#000000" points="281,-189.7 281,-208.7 327,-208.7 327,-189.7 281,-189.7"/>
<text text-anchor="start" x="291.6105" y="-195.8" font-family="Helvetica,sans-Serif" font-size="11.00" fill="#000000">0 rows</text>
<polygon fill="#ffffff" stroke="transparent" points="327,-189.7 327,-208.7 356,-208.7 356,-189.7 327,-189.7"/>
<polygon fill="none" stroke="#000000" points="327,-189.7 327,-208.7 356,-208.7 356,-189.7 327,-189.7"/>
<text text-anchor="start" x="337.4053" y="-195.8" font-family="Helvetica,sans-Serif" font-size="11.00" fill="#000000">5 &gt;</text>
</a>
</g>
</g>
<!-- user_session -->
<g id="node2" class="node">
<title>user_session</title>
<g id="a_node2"><a xlink:href="../../tables/user_session.html" xlink:title="user_session" target="_top">
<polygon fill="#ffffff" stroke="transparent" points="8,-38.2 8,-209.2 148,-209.2 148,-38.2 8,-38.2"/>
<polygon fill="#f5f5f5" stroke="transparent" points="8,-185.7 8,-208.7 148,-208.7 148,-185.7 8,-185.7"/>
<polygon fill="none" stroke="#000000" points="8,-185.7 8,-208.7 148,-208.7 148,-185.7 8,-185.7"/>
<text text-anchor="start" x="13" y="-194.8" font-family="Helvetica,sans-Serif" font-weight="bold" font-size="11.00" fill="#000000">user_session</text>
<text text-anchor="start" x="113.0437" y="-193.8" font-family="Helvetica,sans-Serif" font-size="11.00" fill="#000000">[table]</text>
<polygon fill="none" stroke="#000000" points="8,-163.7 8,-185.7 148,-185.7 148,-163.7 8,-163.7"/>
<image xlink:href="../../images/primaryKeys.png" width="11px" height="12px" preserveAspectRatio="xMinYMin meet" x="13" y="-180.7"/>
<text text-anchor="start" x="28" y="-170.8" font-family="Helvetica,sans-Serif" font-size="11.00" fill="#000000">id</text>
<polygon fill="none" stroke="#000000" points="8,-141.7 8,-163.7 148,-163.7 148,-141.7 8,-141.7"/>
<image xlink:href="../../images/foreignKeys.png" width="11px" height="12px" preserveAspectRatio="xMinYMin meet" x="13" y="-158.7"/>
<text text-anchor="start" x="28" y="-148.8" font-family="Helvetica,sans-Serif" font-size="11.00" fill="#000000">realm_id</text>
<polygon fill="none" stroke="#000000" points="8,-119.7 8,-141.7 148,-141.7 148,-119.7 8,-119.7"/>
<image xlink:href="../../images/foreignKeys.png" width="11px" height="12px" preserveAspectRatio="xMinYMin meet" x="13" y="-136.7"/>
<text text-anchor="start" x="28" y="-126.8" font-family="Helvetica,sans-Serif" font-size="11.00" fill="#000000">user_id</text>
<polygon fill="none" stroke="#000000" points="8,-97.7 8,-119.7 148,-119.7 148,-97.7 8,-97.7"/>
<image xlink:href="../../images/foreignKeys.png" width="11px" height="12px" preserveAspectRatio="xMinYMin meet" x="13" y="-114.7"/>
<text text-anchor="start" x="28" y="-104.8" font-family="Helvetica,sans-Serif" font-size="11.00" fill="#000000">broker_session_id</text>
<polygon fill="none" stroke="#000000" points="8,-75.7 8,-97.7 148,-97.7 148,-75.7 8,-75.7"/>
<image xlink:href="../../images/foreignKeys.png" width="11px" height="12px" preserveAspectRatio="xMinYMin meet" x="13" y="-92.7"/>
<text text-anchor="start" x="28" y="-82.8" font-family="Helvetica,sans-Serif" font-size="11.00" fill="#000000">broker_user_id</text>
<polygon fill="none" stroke="#000000" points="8,-56.7 8,-75.7 148,-75.7 148,-56.7 8,-56.7"/>
<text text-anchor="start" x="11" y="-62.8" font-family="Helvetica,sans-Serif" font-size="11.00" fill="#000000">...</text>
<polygon fill="#ffffff" stroke="transparent" points="8,-37.7 8,-56.7 54,-56.7 54,-37.7 8,-37.7"/>
<polygon fill="none" stroke="#000000" points="8,-37.7 8,-56.7 54,-56.7 54,-37.7 8,-37.7"/>
<text text-anchor="start" x="11" y="-43.8" font-family="Helvetica,sans-Serif" font-size="11.00" fill="#000000"> &#160;</text>
<polygon fill="#ffffff" stroke="transparent" points="54,-37.7 54,-56.7 109,-56.7 109,-37.7 54,-37.7"/>
<polygon fill="none" stroke="#000000" points="54,-37.7 54,-56.7 109,-56.7 109,-37.7 54,-37.7"/>
<text text-anchor="start" x="73.6105" y="-43.8" font-family="Helvetica,sans-Serif" font-size="11.00" fill="#000000">0 rows</text>
<polygon fill="#ffffff" stroke="transparent" points="109,-37.7 109,-56.7 148,-56.7 148,-37.7 109,-37.7"/>
<polygon fill="none" stroke="#000000" points="109,-37.7 109,-56.7 148,-56.7 148,-37.7 109,-37.7"/>
<text text-anchor="start" x="129.4053" y="-43.8" font-family="Helvetica,sans-Serif" font-size="11.00" fill="#000000">2 &gt;</text>
</a>
</g>
</g>
<!-- client_session&#45;&gt;user_session -->
<g id="edge1" class="edge">
<title>client_session:w&#45;&gt;user_session:e</title>
<path fill="none" stroke="#000000" d="M229.2448,-216.0669C196.0557,-208.2124 189.2726,-174.7 148,-174.7"/>
<polygon fill="#000000" stroke="#000000" points="236.0486,-216.8199 243.6039,-221.2781 240.0243,-217.2599 244,-217.7 244,-217.7 244,-217.7 240.0243,-217.2599 244.3961,-214.1219 236.0486,-216.8199 236.0486,-216.8199"/>
<ellipse fill="none" stroke="#000000" cx="232.868" cy="-216.4678" rx="3.2" ry="3.2"/>
</g>
<!-- user_session_note -->
<g id="node3" class="node">
<title>user_session_note</title>
<g id="a_node3"><a xlink:href="../../tables/user_session_note.html" xlink:title="user_session_note" target="_top">
<polygon fill="#ffffff" stroke="transparent" points="197,-56.7 197,-168.7 403,-168.7 403,-56.7 197,-56.7"/>
<polygon fill="#f5f5f5" stroke="transparent" points="199,-143.7 199,-166.7 401,-166.7 401,-143.7 199,-143.7"/>
<polygon fill="none" stroke="#000000" points="199,-143.7 199,-166.7 401,-166.7 401,-143.7 199,-143.7"/>
<text text-anchor="start" x="204" y="-152.8" font-family="Helvetica,sans-Serif" font-weight="bold" font-size="11.00" fill="#000000">user_session_note</text>
<text text-anchor="start" x="366.0437" y="-151.8" font-family="Helvetica,sans-Serif" font-size="11.00" fill="#000000">[table]</text>
<polygon fill="none" stroke="#000000" points="199,-121.7 199,-143.7 328,-143.7 328,-121.7 199,-121.7"/>
<image xlink:href="../../images/primaryKeys.png" width="11px" height="12px" preserveAspectRatio="xMinYMin meet" x="204" y="-138.7"/>
<text text-anchor="start" x="219" y="-128.8" font-family="Helvetica,sans-Serif" font-size="11.00" fill="#000000">user_session</text>
<polygon fill="none" stroke="#000000" points="328,-121.7 328,-143.7 401,-143.7 401,-121.7 328,-121.7"/>
<text text-anchor="start" x="331" y="-129.4" font-family="Helvetica,sans-Serif" font-size="11.00" fill="#000000">varchar[36]</text>
<polygon fill="none" stroke="#000000" points="199,-99.7 199,-121.7 328,-121.7 328,-99.7 199,-99.7"/>
<image xlink:href="../../images/primaryKeys.png" width="11px" height="12px" preserveAspectRatio="xMinYMin meet" x="204" y="-116.7"/>
<text text-anchor="start" x="219" y="-106.8" font-family="Helvetica,sans-Serif" font-size="11.00" fill="#000000">name</text>
<polygon fill="none" stroke="#000000" points="328,-99.7 328,-121.7 401,-121.7 401,-99.7 328,-99.7"/>
<text text-anchor="start" x="331" y="-107.4" font-family="Helvetica,sans-Serif" font-size="11.00" fill="#000000">varchar[255]</text>
<polygon fill="none" stroke="#000000" points="199,-77.7 199,-99.7 328,-99.7 328,-77.7 199,-77.7"/>
<text text-anchor="start" x="219" y="-84.8" font-family="Helvetica,sans-Serif" font-size="11.00" fill="#000000">value</text>
<polygon fill="none" stroke="#000000" points="328,-77.7 328,-99.7 401,-99.7 401,-77.7 328,-77.7"/>
<text text-anchor="start" x="330.8791" y="-85.4" font-family="Helvetica,sans-Serif" font-size="11.00" fill="#000000">varchar[2048]</text>
<polygon fill="#ffffff" stroke="transparent" points="199,-58.7 199,-77.7 255,-77.7 255,-58.7 199,-58.7"/>
<polygon fill="none" stroke="#000000" points="199,-58.7 199,-77.7 255,-77.7 255,-58.7 199,-58.7"/>
<text text-anchor="start" x="202" y="-64.8" font-family="Helvetica,sans-Serif" font-size="11.00" fill="#000000">&lt; 1</text>
<polygon fill="#ffffff" stroke="transparent" points="255,-58.7 255,-77.7 328,-77.7 328,-58.7 255,-58.7"/>
<polygon fill="none" stroke="#000000" points="255,-58.7 255,-77.7 328,-77.7 328,-58.7 255,-58.7"/>
<text text-anchor="start" x="292.6105" y="-64.8" font-family="Helvetica,sans-Serif" font-size="11.00" fill="#000000">0 rows</text>
<polygon fill="#ffffff" stroke="transparent" points="328,-58.7 328,-77.7 401,-77.7 401,-58.7 328,-58.7"/>
<polygon fill="none" stroke="#000000" points="328,-58.7 328,-77.7 401,-77.7 401,-58.7 328,-58.7"/>
<text text-anchor="start" x="382.4053" y="-64.8" font-family="Helvetica,sans-Serif" font-size="11.00" fill="#000000">0 &gt;</text>
<polygon fill="none" stroke="#000000" stroke-width="2" points="198,-57.7 198,-167.7 402,-167.7 402,-57.7 198,-57.7"/>
</a>
</g>
</g>
<!-- user_session_note&#45;&gt;user_session -->
<g id="edge2" class="edge">
<title>user_session_note:w&#45;&gt;user_session:e</title>
<path fill="none" stroke="#000000" d="M185.0759,-137.1947C171.2452,-148.0296 171.3991,-174.7 148,-174.7"/>
<polygon fill="#000000" stroke="#000000" points="191.3868,-135.1576 200.1059,-136.1259 195.1934,-133.9288 199,-132.7 199,-132.7 199,-132.7 195.1934,-133.9288 197.8941,-129.2741 191.3868,-135.1576 191.3868,-135.1576"/>
<ellipse fill="none" stroke="#000000" cx="188.3416" cy="-136.1406" rx="3.2" ry="3.2"/>
</g>
</g>
</svg>
