<?xml version="1.0" encoding="UTF-8" standalone="no"?>
<!DOCTYPE svg PUBLIC "-//W3C//DTD SVG 1.1//EN"
 "http://www.w3.org/Graphics/SVG/1.1/DTD/svg11.dtd">
<!-- Generated by graphviz version 2.40.1 (20161225.0304)
 -->
<!-- Title: oneDegreeRelationshipsDiagram Pages: 1 -->
<svg width="509pt" height="179pt"
 viewBox="0.00 0.00 509.00 178.70" xmlns="http://www.w3.org/2000/svg" xmlns:xlink="http://www.w3.org/1999/xlink">
<g id="graph0" class="graph" transform="scale(1 1) rotate(0) translate(4 174.7)">
<title>oneDegreeRelationshipsDiagram</title>
<polygon fill="#ffffff" stroke="transparent" points="-4,4 -4,-174.7 505,-174.7 505,4 -4,4"/>
<text text-anchor="middle" x="72.4936" y="-7.3" font-family="Helvetica,sans-Serif" font-size="11.00" fill="#000000">Generated by SchemaSpy</text>
<!-- user_federation_mapper_config -->
<g id="node1" class="node">
<title>user_federation_mapper_config</title>
<g id="a_node1"><a xlink:href="../../tables/user_federation_mapper_config.html" xlink:title="user_federation_mapper_config" target="_top">
<polygon fill="#ffffff" stroke="transparent" points="219,-54.7 219,-166.7 493,-166.7 493,-54.7 219,-54.7"/>
<polygon fill="#f5f5f5" stroke="transparent" points="221,-141.7 221,-164.7 491,-164.7 491,-141.7 221,-141.7"/>
<polygon fill="none" stroke="#000000" points="221,-141.7 221,-164.7 491,-164.7 491,-141.7 221,-141.7"/>
<text text-anchor="start" x="226" y="-150.8" font-family="Helvetica,sans-Serif" font-weight="bold" font-size="11.00" fill="#000000">user_federation_mapper_config</text>
<text text-anchor="start" x="456.0437" y="-149.8" font-family="Helvetica,sans-Serif" font-size="11.00" fill="#000000">[table]</text>
<polygon fill="none" stroke="#000000" points="221,-119.7 221,-141.7 424,-141.7 424,-119.7 221,-119.7"/>
<image xlink:href="../../images/primaryKeys.png" width="11px" height="12px" preserveAspectRatio="xMinYMin meet" x="226" y="-136.7"/>
<text text-anchor="start" x="241" y="-126.8" font-family="Helvetica,sans-Serif" font-size="11.00" fill="#000000">user_federation_mapper_id</text>
<polygon fill="none" stroke="#000000" points="424,-119.7 424,-141.7 491,-141.7 491,-119.7 424,-119.7"/>
<text text-anchor="start" x="427" y="-127.4" font-family="Helvetica,sans-Serif" font-size="11.00" fill="#000000">varchar[36]</text>
<polygon fill="none" stroke="#000000" points="221,-97.7 221,-119.7 424,-119.7 424,-97.7 221,-97.7"/>
<text text-anchor="start" x="241" y="-104.8" font-family="Helvetica,sans-Serif" font-size="11.00" fill="#000000">value</text>
<polygon fill="none" stroke="#000000" points="424,-97.7 424,-119.7 491,-119.7 491,-97.7 424,-97.7"/>
<text text-anchor="start" x="426.9365" y="-105.4" font-family="Helvetica,sans-Serif" font-size="11.00" fill="#000000">varchar[255]</text>
<polygon fill="none" stroke="#000000" points="221,-75.7 221,-97.7 424,-97.7 424,-75.7 221,-75.7"/>
<image xlink:href="../../images/primaryKeys.png" width="11px" height="12px" preserveAspectRatio="xMinYMin meet" x="226" y="-92.7"/>
<text text-anchor="start" x="241" y="-82.8" font-family="Helvetica,sans-Serif" font-size="11.00" fill="#000000">name</text>
<polygon fill="none" stroke="#000000" points="424,-75.7 424,-97.7 491,-97.7 491,-75.7 424,-75.7"/>
<text text-anchor="start" x="426.9365" y="-83.4" font-family="Helvetica,sans-Serif" font-size="11.00" fill="#000000">varchar[255]</text>
<polygon fill="#ffffff" stroke="transparent" points="221,-56.7 221,-75.7 314,-75.7 314,-56.7 221,-56.7"/>
<polygon fill="none" stroke="#000000" points="221,-56.7 221,-75.7 314,-75.7 314,-56.7 221,-56.7"/>
<text text-anchor="start" x="224" y="-62.8" font-family="Helvetica,sans-Serif" font-size="11.00" fill="#000000">&lt; 1</text>
<polygon fill="#ffffff" stroke="transparent" points="314,-56.7 314,-75.7 424,-75.7 424,-56.7 314,-56.7"/>
<polygon fill="none" stroke="#000000" points="314,-56.7 314,-75.7 424,-75.7 424,-56.7 314,-56.7"/>
<text text-anchor="start" x="388.6105" y="-62.8" font-family="Helvetica,sans-Serif" font-size="11.00" fill="#000000">0 rows</text>
<polygon fill="#ffffff" stroke="transparent" points="424,-56.7 424,-75.7 491,-75.7 491,-56.7 424,-56.7"/>
<polygon fill="none" stroke="#000000" points="424,-56.7 424,-75.7 491,-75.7 491,-56.7 424,-56.7"/>
<text text-anchor="start" x="472.4053" y="-62.8" font-family="Helvetica,sans-Serif" font-size="11.00" fill="#000000">0 &gt;</text>
<polygon fill="none" stroke="#000000" stroke-width="2" points="220,-55.7 220,-165.7 492,-165.7 492,-55.7 220,-55.7"/>
</a>
</g>
</g>
<!-- user_federation_mapper -->
<g id="node2" class="node">
<title>user_federation_mapper</title>
<g id="a_node2"><a xlink:href="../../tables/user_federation_mapper.html" xlink:title="user_federation_mapper" target="_top">
<polygon fill="#ffffff" stroke="transparent" points="8,-38.2 8,-165.2 170,-165.2 170,-38.2 8,-38.2"/>
<polygon fill="#f5f5f5" stroke="transparent" points="8,-141.7 8,-164.7 170,-164.7 170,-141.7 8,-141.7"/>
<polygon fill="none" stroke="#000000" points="8,-141.7 8,-164.7 170,-164.7 170,-141.7 8,-141.7"/>
<text text-anchor="start" x="12.5946" y="-150.8" font-family="Helvetica,sans-Serif" font-weight="bold" font-size="11.00" fill="#000000">user_federation_mapper</text>
<text text-anchor="start" x="135.5219" y="-149.8" font-family="Helvetica,sans-Serif" font-size="11.00" fill="#000000">[table]</text>
<polygon fill="none" stroke="#000000" points="8,-119.7 8,-141.7 170,-141.7 170,-119.7 8,-119.7"/>
<image xlink:href="../../images/primaryKeys.png" width="11px" height="12px" preserveAspectRatio="xMinYMin meet" x="13" y="-136.7"/>
<text text-anchor="start" x="29" y="-126.8" font-family="Helvetica,sans-Serif" font-size="11.00" fill="#000000">id</text>
<polygon fill="#ffffff" stroke="transparent" points="8,-97.7 8,-119.7 170,-119.7 170,-97.7 8,-97.7"/>
<polygon fill="none" stroke="#000000" points="8,-97.7 8,-119.7 170,-119.7 170,-97.7 8,-97.7"/>
<image xlink:href="../../images/foreignKeys.png" width="11px" height="12px" preserveAspectRatio="xMinYMin meet" x="13" y="-114.7"/>
<text text-anchor="start" x="29" y="-104.8" font-family="Helvetica,sans-Serif" font-size="11.00" fill="#000000">federation_provider_id</text>
<polygon fill="#ffffff" stroke="transparent" points="8,-75.7 8,-97.7 170,-97.7 170,-75.7 8,-75.7"/>
<polygon fill="none" stroke="#000000" points="8,-75.7 8,-97.7 170,-97.7 170,-75.7 8,-75.7"/>
<image xlink:href="../../images/foreignKeys.png" width="11px" height="12px" preserveAspectRatio="xMinYMin meet" x="13" y="-92.7"/>
<text text-anchor="start" x="29" y="-82.8" font-family="Helvetica,sans-Serif" font-size="11.00" fill="#000000">realm_id</text>
<polygon fill="none" stroke="#000000" points="8,-56.7 8,-75.7 170,-75.7 170,-56.7 8,-56.7"/>
<text text-anchor="start" x="11" y="-62.8" font-family="Helvetica,sans-Serif" font-size="11.00" fill="#000000">...</text>
<polygon fill="#ffffff" stroke="transparent" points="8,-37.7 8,-56.7 70,-56.7 70,-37.7 8,-37.7"/>
<polygon fill="none" stroke="#000000" points="8,-37.7 8,-56.7 70,-56.7 70,-37.7 8,-37.7"/>
<text text-anchor="start" x="11" y="-43.8" font-family="Helvetica,sans-Serif" font-size="11.00" fill="#000000">&lt; 2</text>
<polygon fill="#ffffff" stroke="transparent" points="70,-37.7 70,-56.7 128,-56.7 128,-37.7 70,-37.7"/>
<polygon fill="none" stroke="#000000" points="70,-37.7 70,-56.7 128,-56.7 128,-37.7 70,-37.7"/>
<text text-anchor="start" x="92.6105" y="-43.8" font-family="Helvetica,sans-Serif" font-size="11.00" fill="#000000">0 rows</text>
<polygon fill="#ffffff" stroke="transparent" points="128,-37.7 128,-56.7 170,-56.7 170,-37.7 128,-37.7"/>
<polygon fill="none" stroke="#000000" points="128,-37.7 128,-56.7 170,-56.7 170,-37.7 128,-37.7"/>
<text text-anchor="start" x="151.4053" y="-43.8" font-family="Helvetica,sans-Serif" font-size="11.00" fill="#000000">1 &gt;</text>
</a>
</g>
</g>
<!-- user_federation_mapper_config&#45;&gt;user_federation_mapper -->
<g id="edge1" class="edge">
<title>user_federation_mapper_config:w&#45;&gt;user_federation_mapper:e</title>
<path fill="none" stroke="#000000" d="M206.276,-130.7C194.2815,-130.7 186.8229,-130.7 170,-130.7"/>
<polygon fill="#000000" stroke="#000000" points="213,-130.7001 221,-134.3 217,-130.7 221,-130.7 221,-130.7 221,-130.7 217,-130.7 221,-127.1 213,-130.7001 213,-130.7001"/>
<ellipse fill="none" stroke="#000000" cx="209.8" cy="-130.7001" rx="3.2" ry="3.2"/>
</g>
</g>
</svg>
