<?xml version="1.0" encoding="UTF-8" standalone="no"?>
<!DOCTYPE svg PUBLIC "-//W3C//DTD SVG 1.1//EN"
 "http://www.w3.org/Graphics/SVG/1.1/DTD/svg11.dtd">
<!-- Generated by graphviz version 2.40.1 (20161225.0304)
 -->
<!-- Title: twoDegreesRelationshipsDiagram Pages: 1 -->
<svg width="708pt" height="743pt"
 viewBox="0.00 0.00 708.00 743.20" xmlns="http://www.w3.org/2000/svg" xmlns:xlink="http://www.w3.org/1999/xlink">
<g id="graph0" class="graph" transform="scale(1 1) rotate(0) translate(4 739.2)">
<title>twoDegreesRelationshipsDiagram</title>
<polygon fill="#ffffff" stroke="transparent" points="-4,4 -4,-739.2 704,-739.2 704,4 -4,4"/>
<text text-anchor="middle" x="72.4936" y="-7.3" font-family="Helvetica,sans-Serif" font-size="11.00" fill="#000000">Generated by SchemaSpy</text>
<!-- credential -->
<g id="node1" class="node">
<title>credential</title>
<g id="a_node1"><a xlink:href="../../tables/credential.html" xlink:title="credential" target="_top">
<polygon fill="#ffffff" stroke="transparent" points="306,-670.2 306,-731.2 396,-731.2 396,-670.2 306,-670.2"/>
<polygon fill="#f5f5f5" stroke="transparent" points="306,-707.7 306,-730.7 396,-730.7 396,-707.7 306,-707.7"/>
<polygon fill="none" stroke="#000000" points="306,-707.7 306,-730.7 396,-730.7 396,-707.7 306,-707.7"/>
<text text-anchor="start" x="310.6625" y="-716.8" font-family="Helvetica,sans-Serif" font-weight="bold" font-size="11.00" fill="#000000">credential</text>
<text text-anchor="start" x="361.5219" y="-715.8" font-family="Helvetica,sans-Serif" font-size="11.00" fill="#000000">[table]</text>
<polygon fill="none" stroke="#000000" points="306,-688.7 306,-707.7 396,-707.7 396,-688.7 306,-688.7"/>
<text text-anchor="start" x="309" y="-694.8" font-family="Helvetica,sans-Serif" font-size="11.00" fill="#000000">...</text>
<polygon fill="#ffffff" stroke="transparent" points="306,-669.7 306,-688.7 339,-688.7 339,-669.7 306,-669.7"/>
<polygon fill="none" stroke="#000000" points="306,-669.7 306,-688.7 339,-688.7 339,-669.7 306,-669.7"/>
<text text-anchor="start" x="309" y="-675.8" font-family="Helvetica,sans-Serif" font-size="11.00" fill="#000000">&lt; 1</text>
<polygon fill="#ffffff" stroke="transparent" points="339,-669.7 339,-688.7 377,-688.7 377,-669.7 339,-669.7"/>
<polygon fill="none" stroke="#000000" points="339,-669.7 339,-688.7 377,-688.7 377,-669.7 339,-669.7"/>
<text text-anchor="start" x="347.1105" y="-675.8" font-family="Helvetica,sans-Serif" font-size="11.00" fill="#000000">1 row</text>
<polygon fill="#ffffff" stroke="transparent" points="377,-669.7 377,-688.7 396,-688.7 396,-669.7 377,-669.7"/>
<polygon fill="none" stroke="#000000" points="377,-669.7 377,-688.7 396,-688.7 396,-669.7 377,-669.7"/>
<text text-anchor="start" x="386.8862" y="-675.8" font-family="Helvetica,sans-Serif" font-size="11.00" fill="#000000"> &#160;</text>
</a>
</g>
</g>
<!-- user_entity -->
<g id="node2" class="node">
<title>user_entity</title>
<g id="a_node2"><a xlink:href="../../tables/user_entity.html" xlink:title="user_entity" target="_top">
<polygon fill="#ffffff" stroke="transparent" points="8,-268.2 8,-439.2 188,-439.2 188,-268.2 8,-268.2"/>
<polygon fill="#f5f5f5" stroke="transparent" points="8,-415.7 8,-438.7 188,-438.7 188,-415.7 8,-415.7"/>
<polygon fill="none" stroke="#000000" points="8,-415.7 8,-438.7 188,-438.7 188,-415.7 8,-415.7"/>
<text text-anchor="start" x="13" y="-424.8" font-family="Helvetica,sans-Serif" font-weight="bold" font-size="11.00" fill="#000000">user_entity</text>
<text text-anchor="start" x="153.0437" y="-423.8" font-family="Helvetica,sans-Serif" font-size="11.00" fill="#000000">[table]</text>
<polygon fill="none" stroke="#000000" points="8,-393.7 8,-415.7 188,-415.7 188,-393.7 8,-393.7"/>
<image xlink:href="../../images/primaryKeys.png" width="11px" height="12px" preserveAspectRatio="xMinYMin meet" x="13" y="-410.7"/>
<text text-anchor="start" x="28" y="-400.8" font-family="Helvetica,sans-Serif" font-size="11.00" fill="#000000">id</text>
<polygon fill="#ffffff" stroke="transparent" points="8,-371.7 8,-393.7 188,-393.7 188,-371.7 8,-371.7"/>
<polygon fill="none" stroke="#000000" points="8,-371.7 8,-393.7 188,-393.7 188,-371.7 8,-371.7"/>
<text text-anchor="start" x="28" y="-378.8" font-family="Helvetica,sans-Serif" font-size="11.00" fill="#000000">email</text>
<polygon fill="#ffffff" stroke="transparent" points="8,-349.7 8,-371.7 188,-371.7 188,-349.7 8,-349.7"/>
<polygon fill="none" stroke="#000000" points="8,-349.7 8,-371.7 188,-371.7 188,-349.7 8,-349.7"/>
<text text-anchor="start" x="28" y="-356.8" font-family="Helvetica,sans-Serif" font-size="11.00" fill="#000000">email_constraint</text>
<polygon fill="#ffffff" stroke="transparent" points="8,-327.7 8,-349.7 188,-349.7 188,-327.7 8,-327.7"/>
<polygon fill="none" stroke="#000000" points="8,-327.7 8,-349.7 188,-349.7 188,-327.7 8,-327.7"/>
<image xlink:href="../../images/foreignKeys.png" width="11px" height="12px" preserveAspectRatio="xMinYMin meet" x="13" y="-344.7"/>
<text text-anchor="start" x="28" y="-334.8" font-family="Helvetica,sans-Serif" font-size="11.00" fill="#000000">realm_id</text>
<polygon fill="#ffffff" stroke="transparent" points="8,-305.7 8,-327.7 188,-327.7 188,-305.7 8,-305.7"/>
<polygon fill="none" stroke="#000000" points="8,-305.7 8,-327.7 188,-327.7 188,-305.7 8,-305.7"/>
<text text-anchor="start" x="28" y="-312.8" font-family="Helvetica,sans-Serif" font-size="11.00" fill="#000000">username</text>
<polygon fill="none" stroke="#000000" points="8,-286.7 8,-305.7 188,-305.7 188,-286.7 8,-286.7"/>
<text text-anchor="start" x="11" y="-292.8" font-family="Helvetica,sans-Serif" font-size="11.00" fill="#000000">...</text>
<polygon fill="#ffffff" stroke="transparent" points="8,-267.7 8,-286.7 77,-286.7 77,-267.7 8,-267.7"/>
<polygon fill="none" stroke="#000000" points="8,-267.7 8,-286.7 77,-286.7 77,-267.7 8,-267.7"/>
<text text-anchor="start" x="11" y="-273.8" font-family="Helvetica,sans-Serif" font-size="11.00" fill="#000000"> &#160;</text>
<polygon fill="#ffffff" stroke="transparent" points="77,-267.7 77,-286.7 138,-286.7 138,-267.7 77,-267.7"/>
<polygon fill="none" stroke="#000000" points="77,-267.7 77,-286.7 138,-286.7 138,-267.7 77,-267.7"/>
<text text-anchor="start" x="108.1105" y="-273.8" font-family="Helvetica,sans-Serif" font-size="11.00" fill="#000000">1 row</text>
<polygon fill="#ffffff" stroke="transparent" points="138,-267.7 138,-286.7 188,-286.7 188,-267.7 138,-267.7"/>
<polygon fill="none" stroke="#000000" points="138,-267.7 138,-286.7 188,-286.7 188,-267.7 138,-267.7"/>
<text text-anchor="start" x="169.4053" y="-273.8" font-family="Helvetica,sans-Serif" font-size="11.00" fill="#000000">7 &gt;</text>
</a>
</g>
</g>
<!-- credential&#45;&gt;user_entity -->
<g id="edge1" class="edge">
<title>credential:w&#45;&gt;user_entity:e</title>
<path fill="none" stroke="#000000" d="M291.5076,-697.2497C263.2937,-695.2674 248.5659,-686.2059 229,-659.7 194.9139,-613.5236 245.3945,-404.7 188,-404.7"/>
<polygon fill="#000000" stroke="#000000" points="298.0039,-697.4515 305.8882,-701.2983 302.0019,-697.5757 306,-697.7 306,-697.7 306,-697.7 302.0019,-697.5757 306.1118,-694.1017 298.0039,-697.4515 298.0039,-697.4515"/>
<ellipse fill="none" stroke="#000000" cx="294.8054" cy="-697.3521" rx="3.2" ry="3.2"/>
</g>
<!-- federated_identity -->
<g id="node3" class="node">
<title>federated_identity</title>
<g id="a_node3"><a xlink:href="../../tables/federated_identity.html" xlink:title="federated_identity" target="_top">
<polygon fill="#ffffff" stroke="transparent" points="286,-588.2 286,-649.2 416,-649.2 416,-588.2 286,-588.2"/>
<polygon fill="#f5f5f5" stroke="transparent" points="286,-625.7 286,-648.7 416,-648.7 416,-625.7 286,-625.7"/>
<polygon fill="none" stroke="#000000" points="286,-625.7 286,-648.7 416,-648.7 416,-625.7 286,-625.7"/>
<text text-anchor="start" x="290.7899" y="-634.8" font-family="Helvetica,sans-Serif" font-weight="bold" font-size="11.00" fill="#000000">federated_identity</text>
<text text-anchor="start" x="381.5219" y="-633.8" font-family="Helvetica,sans-Serif" font-size="11.00" fill="#000000">[table]</text>
<polygon fill="none" stroke="#000000" points="286,-606.7 286,-625.7 416,-625.7 416,-606.7 286,-606.7"/>
<text text-anchor="start" x="289" y="-612.8" font-family="Helvetica,sans-Serif" font-size="11.00" fill="#000000">...</text>
<polygon fill="#ffffff" stroke="transparent" points="286,-587.7 286,-606.7 336,-606.7 336,-587.7 286,-587.7"/>
<polygon fill="none" stroke="#000000" points="286,-587.7 286,-606.7 336,-606.7 336,-587.7 286,-587.7"/>
<text text-anchor="start" x="289" y="-593.8" font-family="Helvetica,sans-Serif" font-size="11.00" fill="#000000">&lt; 1</text>
<polygon fill="#ffffff" stroke="transparent" points="336,-587.7 336,-606.7 389,-606.7 389,-587.7 336,-587.7"/>
<polygon fill="none" stroke="#000000" points="336,-587.7 336,-606.7 389,-606.7 389,-587.7 336,-587.7"/>
<text text-anchor="start" x="353.6105" y="-593.8" font-family="Helvetica,sans-Serif" font-size="11.00" fill="#000000">0 rows</text>
<polygon fill="#ffffff" stroke="transparent" points="389,-587.7 389,-606.7 416,-606.7 416,-587.7 389,-587.7"/>
<polygon fill="none" stroke="#000000" points="389,-587.7 389,-606.7 416,-606.7 416,-587.7 389,-587.7"/>
<text text-anchor="start" x="406.8862" y="-593.8" font-family="Helvetica,sans-Serif" font-size="11.00" fill="#000000"> &#160;</text>
</a>
</g>
</g>
<!-- federated_identity&#45;&gt;user_entity -->
<g id="edge2" class="edge">
<title>federated_identity:w&#45;&gt;user_entity:e</title>
<path fill="none" stroke="#000000" d="M271.4773,-614.4462C251.9933,-610.6392 243.2618,-598.2037 229,-577.7 183.8788,-512.8307 267.0187,-404.7 188,-404.7"/>
<polygon fill="#000000" stroke="#000000" points="278.0296,-615.0118 285.6903,-619.2867 282.0148,-615.3559 286,-615.7 286,-615.7 286,-615.7 282.0148,-615.3559 286.3097,-612.1133 278.0296,-615.0118 278.0296,-615.0118"/>
<ellipse fill="none" stroke="#000000" cx="274.8415" cy="-614.7366" rx="3.2" ry="3.2"/>
</g>
<!-- user_attribute -->
<g id="node4" class="node">
<title>user_attribute</title>
<g id="a_node4"><a xlink:href="../../tables/user_attribute.html" xlink:title="user_attribute" target="_top">
<polygon fill="#ffffff" stroke="transparent" points="296,-506.2 296,-567.2 406,-567.2 406,-506.2 296,-506.2"/>
<polygon fill="#f5f5f5" stroke="transparent" points="296,-543.7 296,-566.7 406,-566.7 406,-543.7 296,-543.7"/>
<polygon fill="none" stroke="#000000" points="296,-543.7 296,-566.7 406,-566.7 406,-543.7 296,-543.7"/>
<text text-anchor="start" x="300.8802" y="-552.8" font-family="Helvetica,sans-Serif" font-weight="bold" font-size="11.00" fill="#000000">user_attribute</text>
<text text-anchor="start" x="371.5219" y="-551.8" font-family="Helvetica,sans-Serif" font-size="11.00" fill="#000000">[table]</text>
<polygon fill="none" stroke="#000000" points="296,-524.7 296,-543.7 406,-543.7 406,-524.7 296,-524.7"/>
<text text-anchor="start" x="299" y="-530.8" font-family="Helvetica,sans-Serif" font-size="11.00" fill="#000000">...</text>
<polygon fill="#ffffff" stroke="transparent" points="296,-505.7 296,-524.7 336,-524.7 336,-505.7 296,-505.7"/>
<polygon fill="none" stroke="#000000" points="296,-505.7 296,-524.7 336,-524.7 336,-505.7 296,-505.7"/>
<text text-anchor="start" x="299" y="-511.8" font-family="Helvetica,sans-Serif" font-size="11.00" fill="#000000">&lt; 1</text>
<polygon fill="#ffffff" stroke="transparent" points="336,-505.7 336,-524.7 384,-524.7 384,-505.7 336,-505.7"/>
<polygon fill="none" stroke="#000000" points="336,-505.7 336,-524.7 384,-524.7 384,-505.7 336,-505.7"/>
<text text-anchor="start" x="348.6105" y="-511.8" font-family="Helvetica,sans-Serif" font-size="11.00" fill="#000000">0 rows</text>
<polygon fill="#ffffff" stroke="transparent" points="384,-505.7 384,-524.7 406,-524.7 406,-505.7 384,-505.7"/>
<polygon fill="none" stroke="#000000" points="384,-505.7 384,-524.7 406,-524.7 406,-505.7 384,-505.7"/>
<text text-anchor="start" x="396.8862" y="-511.8" font-family="Helvetica,sans-Serif" font-size="11.00" fill="#000000"> &#160;</text>
</a>
</g>
</g>
<!-- user_attribute&#45;&gt;user_entity -->
<g id="edge3" class="edge">
<title>user_attribute:w&#45;&gt;user_entity:e</title>
<path fill="none" stroke="#000000" d="M281.6049,-532.7703C258.4071,-529.424 248.4572,-517.0482 229,-495.7 199.1184,-462.9144 232.3599,-404.7 188,-404.7"/>
<polygon fill="#000000" stroke="#000000" points="288.0166,-533.1843 295.768,-537.2925 292.0083,-533.4422 296,-533.7 296,-533.7 296,-533.7 292.0083,-533.4422 296.232,-530.1075 288.0166,-533.1843 288.0166,-533.1843"/>
<ellipse fill="none" stroke="#000000" cx="284.8233" cy="-532.9781" rx="3.2" ry="3.2"/>
</g>
<!-- user_consent -->
<g id="node5" class="node">
<title>user_consent</title>
<g id="a_node5"><a xlink:href="../../tables/user_consent.html" xlink:title="user_consent" target="_top">
<polygon fill="#ffffff" stroke="transparent" points="237,-284.7 237,-484.7 465,-484.7 465,-284.7 237,-284.7"/>
<polygon fill="#f5f5f5" stroke="transparent" points="239,-459.7 239,-482.7 463,-482.7 463,-459.7 239,-459.7"/>
<polygon fill="none" stroke="#000000" points="239,-459.7 239,-482.7 463,-482.7 463,-459.7 239,-459.7"/>
<text text-anchor="start" x="244" y="-468.8" font-family="Helvetica,sans-Serif" font-weight="bold" font-size="11.00" fill="#000000">user_consent</text>
<text text-anchor="start" x="428.0437" y="-467.8" font-family="Helvetica,sans-Serif" font-size="11.00" fill="#000000">[table]</text>
<polygon fill="none" stroke="#000000" points="239,-437.7 239,-459.7 396,-459.7 396,-437.7 239,-437.7"/>
<image xlink:href="../../images/primaryKeys.png" width="11px" height="12px" preserveAspectRatio="xMinYMin meet" x="244" y="-454.7"/>
<text text-anchor="start" x="259" y="-444.8" font-family="Helvetica,sans-Serif" font-size="11.00" fill="#000000">id</text>
<polygon fill="none" stroke="#000000" points="396,-437.7 396,-459.7 463,-459.7 463,-437.7 396,-437.7"/>
<text text-anchor="start" x="399" y="-445.4" font-family="Helvetica,sans-Serif" font-size="11.00" fill="#000000">varchar[36]</text>
<polygon fill="#ffffff" stroke="transparent" points="239,-415.7 239,-437.7 396,-437.7 396,-415.7 239,-415.7"/>
<polygon fill="none" stroke="#000000" points="239,-415.7 239,-437.7 396,-437.7 396,-415.7 239,-415.7"/>
<image xlink:href="../../images/foreignKeys.png" width="11px" height="12px" preserveAspectRatio="xMinYMin meet" x="244" y="-432.7"/>
<text text-anchor="start" x="259" y="-422.8" font-family="Helvetica,sans-Serif" font-size="11.00" fill="#000000">client_id</text>
<polygon fill="none" stroke="#000000" points="396,-415.7 396,-437.7 463,-437.7 463,-415.7 396,-415.7"/>
<text text-anchor="start" x="398.9365" y="-423.4" font-family="Helvetica,sans-Serif" font-size="11.00" fill="#000000">varchar[255]</text>
<polygon fill="#ffffff" stroke="transparent" points="239,-393.7 239,-415.7 396,-415.7 396,-393.7 239,-393.7"/>
<polygon fill="none" stroke="#000000" points="239,-393.7 239,-415.7 396,-415.7 396,-393.7 239,-393.7"/>
<image xlink:href="../../images/foreignKeys.png" width="11px" height="12px" preserveAspectRatio="xMinYMin meet" x="244" y="-410.7"/>
<text text-anchor="start" x="259" y="-400.8" font-family="Helvetica,sans-Serif" font-size="11.00" fill="#000000">user_id</text>
<polygon fill="none" stroke="#000000" points="396,-393.7 396,-415.7 463,-415.7 463,-393.7 396,-393.7"/>
<text text-anchor="start" x="399" y="-401.4" font-family="Helvetica,sans-Serif" font-size="11.00" fill="#000000">varchar[36]</text>
<polygon fill="none" stroke="#000000" points="239,-371.7 239,-393.7 396,-393.7 396,-371.7 239,-371.7"/>
<text text-anchor="start" x="259" y="-378.8" font-family="Helvetica,sans-Serif" font-size="11.00" fill="#000000">created_date</text>
<polygon fill="none" stroke="#000000" points="396,-371.7 396,-393.7 463,-393.7 463,-371.7 396,-371.7"/>
<text text-anchor="start" x="399" y="-379.4" font-family="Helvetica,sans-Serif" font-size="11.00" fill="#000000">int8[19]</text>
<polygon fill="none" stroke="#000000" points="239,-349.7 239,-371.7 396,-371.7 396,-349.7 239,-349.7"/>
<text text-anchor="start" x="259" y="-356.8" font-family="Helvetica,sans-Serif" font-size="11.00" fill="#000000">last_updated_date</text>
<polygon fill="none" stroke="#000000" points="396,-349.7 396,-371.7 463,-371.7 463,-349.7 396,-349.7"/>
<text text-anchor="start" x="399" y="-357.4" font-family="Helvetica,sans-Serif" font-size="11.00" fill="#000000">int8[19]</text>
<polygon fill="#ffffff" stroke="transparent" points="239,-327.7 239,-349.7 396,-349.7 396,-327.7 239,-327.7"/>
<polygon fill="none" stroke="#000000" points="239,-327.7 239,-349.7 396,-349.7 396,-327.7 239,-327.7"/>
<text text-anchor="start" x="259" y="-334.8" font-family="Helvetica,sans-Serif" font-size="11.00" fill="#000000">client_storage_provider</text>
<polygon fill="none" stroke="#000000" points="396,-327.7 396,-349.7 463,-349.7 463,-327.7 396,-327.7"/>
<text text-anchor="start" x="399" y="-335.4" font-family="Helvetica,sans-Serif" font-size="11.00" fill="#000000">varchar[36]</text>
<polygon fill="#ffffff" stroke="transparent" points="239,-305.7 239,-327.7 396,-327.7 396,-305.7 239,-305.7"/>
<polygon fill="none" stroke="#000000" points="239,-305.7 239,-327.7 396,-327.7 396,-305.7 239,-305.7"/>
<image xlink:href="../../images/foreignKeys.png" width="11px" height="12px" preserveAspectRatio="xMinYMin meet" x="244" y="-322.7"/>
<text text-anchor="start" x="259" y="-312.8" font-family="Helvetica,sans-Serif" font-size="11.00" fill="#000000">external_client_id</text>
<polygon fill="none" stroke="#000000" points="396,-305.7 396,-327.7 463,-327.7 463,-305.7 396,-305.7"/>
<text text-anchor="start" x="398.9365" y="-313.4" font-family="Helvetica,sans-Serif" font-size="11.00" fill="#000000">varchar[255]</text>
<polygon fill="#ffffff" stroke="transparent" points="239,-286.7 239,-305.7 309,-305.7 309,-286.7 239,-286.7"/>
<polygon fill="none" stroke="#000000" points="239,-286.7 239,-305.7 309,-305.7 309,-286.7 239,-286.7"/>
<text text-anchor="start" x="242" y="-292.8" font-family="Helvetica,sans-Serif" font-size="11.00" fill="#000000">&lt; 1</text>
<polygon fill="#ffffff" stroke="transparent" points="309,-286.7 309,-305.7 396,-305.7 396,-286.7 309,-286.7"/>
<polygon fill="none" stroke="#000000" points="309,-286.7 309,-305.7 396,-305.7 396,-286.7 309,-286.7"/>
<text text-anchor="start" x="360.6105" y="-292.8" font-family="Helvetica,sans-Serif" font-size="11.00" fill="#000000">0 rows</text>
<polygon fill="#ffffff" stroke="transparent" points="396,-286.7 396,-305.7 463,-305.7 463,-286.7 396,-286.7"/>
<polygon fill="none" stroke="#000000" points="396,-286.7 396,-305.7 463,-305.7 463,-286.7 396,-286.7"/>
<text text-anchor="start" x="444.4053" y="-292.8" font-family="Helvetica,sans-Serif" font-size="11.00" fill="#000000">1 &gt;</text>
<polygon fill="none" stroke="#000000" stroke-width="2" points="238,-285.7 238,-483.7 464,-483.7 464,-285.7 238,-285.7"/>
</a>
</g>
</g>
<!-- user_consent&#45;&gt;user_entity -->
<g id="edge4" class="edge">
<title>user_consent:w&#45;&gt;user_entity:e</title>
<path fill="none" stroke="#000000" d="M224.276,-404.7C212.2815,-404.7 204.8229,-404.7 188,-404.7"/>
<polygon fill="#000000" stroke="#000000" points="231,-404.7001 239,-408.3 235,-404.7 239,-404.7 239,-404.7 239,-404.7 235,-404.7 239,-401.1 231,-404.7001 231,-404.7001"/>
<ellipse fill="none" stroke="#000000" cx="227.8" cy="-404.7001" rx="3.2" ry="3.2"/>
</g>
<!-- user_consent_client_scope -->
<g id="node6" class="node">
<title>user_consent_client_scope</title>
<g id="a_node6"><a xlink:href="../../tables/user_consent_client_scope.html" xlink:title="user_consent_client_scope" target="_top">
<polygon fill="#ffffff" stroke="transparent" points="514,-396.7 514,-482.7 692,-482.7 692,-396.7 514,-396.7"/>
<polygon fill="#f5f5f5" stroke="transparent" points="514,-459.7 514,-482.7 692,-482.7 692,-459.7 514,-459.7"/>
<polygon fill="none" stroke="#000000" points="514,-459.7 514,-482.7 692,-482.7 692,-459.7 514,-459.7"/>
<text text-anchor="start" x="519" y="-468.8" font-family="Helvetica,sans-Serif" font-weight="bold" font-size="11.00" fill="#000000">user_consent_client_scope</text>
<text text-anchor="start" x="657.0437" y="-467.8" font-family="Helvetica,sans-Serif" font-size="11.00" fill="#000000">[table]</text>
<polygon fill="none" stroke="#000000" points="514,-437.7 514,-459.7 692,-459.7 692,-437.7 514,-437.7"/>
<image xlink:href="../../images/primaryKeys.png" width="11px" height="12px" preserveAspectRatio="xMinYMin meet" x="519" y="-454.7"/>
<text text-anchor="start" x="534" y="-444.8" font-family="Helvetica,sans-Serif" font-size="11.00" fill="#000000">user_consent_id</text>
<polygon fill="none" stroke="#000000" points="514,-415.7 514,-437.7 692,-437.7 692,-415.7 514,-415.7"/>
<image xlink:href="../../images/primaryKeys.png" width="11px" height="12px" preserveAspectRatio="xMinYMin meet" x="519" y="-432.7"/>
<text text-anchor="start" x="534" y="-422.8" font-family="Helvetica,sans-Serif" font-size="11.00" fill="#000000">scope_id</text>
<polygon fill="#ffffff" stroke="transparent" points="514,-396.7 514,-415.7 588,-415.7 588,-396.7 514,-396.7"/>
<polygon fill="none" stroke="#000000" points="514,-396.7 514,-415.7 588,-415.7 588,-396.7 514,-396.7"/>
<text text-anchor="start" x="517" y="-402.8" font-family="Helvetica,sans-Serif" font-size="11.00" fill="#000000">&lt; 1</text>
<polygon fill="#ffffff" stroke="transparent" points="588,-396.7 588,-415.7 653,-415.7 653,-396.7 588,-396.7"/>
<polygon fill="none" stroke="#000000" points="588,-396.7 588,-415.7 653,-415.7 653,-396.7 588,-396.7"/>
<text text-anchor="start" x="617.6105" y="-402.8" font-family="Helvetica,sans-Serif" font-size="11.00" fill="#000000">0 rows</text>
<polygon fill="#ffffff" stroke="transparent" points="653,-396.7 653,-415.7 692,-415.7 692,-396.7 653,-396.7"/>
<polygon fill="none" stroke="#000000" points="653,-396.7 653,-415.7 692,-415.7 692,-396.7 653,-396.7"/>
<text text-anchor="start" x="682.8862" y="-402.8" font-family="Helvetica,sans-Serif" font-size="11.00" fill="#000000"> &#160;</text>
</a>
</g>
</g>
<!-- user_consent_client_scope&#45;&gt;user_consent -->
<g id="edge5" class="edge">
<title>user_consent_client_scope:w&#45;&gt;user_consent:e</title>
<path fill="none" stroke="#000000" d="M499.276,-448.7C487.2815,-448.7 479.8229,-448.7 463,-448.7"/>
<polygon fill="#000000" stroke="#000000" points="506,-448.7001 514,-452.3 510,-448.7 514,-448.7 514,-448.7 514,-448.7 510,-448.7 514,-445.1 506,-448.7001 506,-448.7001"/>
<ellipse fill="none" stroke="#000000" cx="502.8" cy="-448.7001" rx="3.2" ry="3.2"/>
</g>
<!-- user_group_membership -->
<g id="node7" class="node">
<title>user_group_membership</title>
<g id="a_node7"><a xlink:href="../../tables/user_group_membership.html" xlink:title="user_group_membership" target="_top">
<polygon fill="#ffffff" stroke="transparent" points="268.5,-202.2 268.5,-263.2 433.5,-263.2 433.5,-202.2 268.5,-202.2"/>
<polygon fill="#f5f5f5" stroke="transparent" points="269,-239.7 269,-262.7 434,-262.7 434,-239.7 269,-239.7"/>
<polygon fill="none" stroke="#000000" points="269,-239.7 269,-262.7 434,-262.7 434,-239.7 269,-239.7"/>
<text text-anchor="start" x="273.878" y="-248.8" font-family="Helvetica,sans-Serif" font-weight="bold" font-size="11.00" fill="#000000">user_group_membership</text>
<text text-anchor="start" x="399.5219" y="-247.8" font-family="Helvetica,sans-Serif" font-size="11.00" fill="#000000">[table]</text>
<polygon fill="none" stroke="#000000" points="269,-220.7 269,-239.7 434,-239.7 434,-220.7 269,-220.7"/>
<text text-anchor="start" x="272" y="-226.8" font-family="Helvetica,sans-Serif" font-size="11.00" fill="#000000">...</text>
<polygon fill="#ffffff" stroke="transparent" points="269,-201.7 269,-220.7 337,-220.7 337,-201.7 269,-201.7"/>
<polygon fill="none" stroke="#000000" points="269,-201.7 269,-220.7 337,-220.7 337,-201.7 269,-201.7"/>
<text text-anchor="start" x="272" y="-207.8" font-family="Helvetica,sans-Serif" font-size="11.00" fill="#000000">&lt; 1</text>
<polygon fill="#ffffff" stroke="transparent" points="337,-201.7 337,-220.7 398,-220.7 398,-201.7 337,-201.7"/>
<polygon fill="none" stroke="#000000" points="337,-201.7 337,-220.7 398,-220.7 398,-201.7 337,-201.7"/>
<text text-anchor="start" x="362.6105" y="-207.8" font-family="Helvetica,sans-Serif" font-size="11.00" fill="#000000">0 rows</text>
<polygon fill="#ffffff" stroke="transparent" points="398,-201.7 398,-220.7 434,-220.7 434,-201.7 398,-201.7"/>
<polygon fill="none" stroke="#000000" points="398,-201.7 398,-220.7 434,-220.7 434,-201.7 398,-201.7"/>
<text text-anchor="start" x="424.8862" y="-207.8" font-family="Helvetica,sans-Serif" font-size="11.00" fill="#000000"> &#160;</text>
</a>
</g>
</g>
<!-- user_group_membership&#45;&gt;user_entity -->
<g id="edge6" class="edge">
<title>user_group_membership:w&#45;&gt;user_entity:e</title>
<path fill="none" stroke="#000000" d="M254.5906,-232.7215C241.7253,-239.3436 239.1667,-255.9668 229,-273.7 198.6567,-326.626 249.0072,-404.7 188,-404.7"/>
<polygon fill="#000000" stroke="#000000" points="261.1703,-231.3418 269.7388,-233.2234 265.0851,-230.5209 269,-229.7 269,-229.7 269,-229.7 265.0851,-230.5209 268.2612,-226.1766 261.1703,-231.3418 261.1703,-231.3418"/>
<ellipse fill="none" stroke="#000000" cx="258.0384" cy="-231.9986" rx="3.2" ry="3.2"/>
</g>
<!-- user_required_action -->
<g id="node8" class="node">
<title>user_required_action</title>
<g id="a_node8"><a xlink:href="../../tables/user_required_action.html" xlink:title="user_required_action" target="_top">
<polygon fill="#ffffff" stroke="transparent" points="278,-120.2 278,-181.2 424,-181.2 424,-120.2 278,-120.2"/>
<polygon fill="#f5f5f5" stroke="transparent" points="278,-157.7 278,-180.7 424,-180.7 424,-157.7 278,-157.7"/>
<polygon fill="none" stroke="#000000" points="278,-157.7 278,-180.7 424,-180.7 424,-157.7 278,-157.7"/>
<text text-anchor="start" x="282.8484" y="-166.8" font-family="Helvetica,sans-Serif" font-weight="bold" font-size="11.00" fill="#000000">user_required_action</text>
<text text-anchor="start" x="389.5219" y="-165.8" font-family="Helvetica,sans-Serif" font-size="11.00" fill="#000000">[table]</text>
<polygon fill="none" stroke="#000000" points="278,-138.7 278,-157.7 424,-157.7 424,-138.7 278,-138.7"/>
<text text-anchor="start" x="281" y="-144.8" font-family="Helvetica,sans-Serif" font-size="11.00" fill="#000000">...</text>
<polygon fill="#ffffff" stroke="transparent" points="278,-119.7 278,-138.7 336,-138.7 336,-119.7 278,-119.7"/>
<polygon fill="none" stroke="#000000" points="278,-119.7 278,-138.7 336,-138.7 336,-119.7 278,-119.7"/>
<text text-anchor="start" x="281" y="-125.8" font-family="Helvetica,sans-Serif" font-size="11.00" fill="#000000">&lt; 1</text>
<polygon fill="#ffffff" stroke="transparent" points="336,-119.7 336,-138.7 393,-138.7 393,-119.7 336,-119.7"/>
<polygon fill="none" stroke="#000000" points="336,-119.7 336,-138.7 393,-138.7 393,-119.7 336,-119.7"/>
<text text-anchor="start" x="357.6105" y="-125.8" font-family="Helvetica,sans-Serif" font-size="11.00" fill="#000000">0 rows</text>
<polygon fill="#ffffff" stroke="transparent" points="393,-119.7 393,-138.7 424,-138.7 424,-119.7 393,-119.7"/>
<polygon fill="none" stroke="#000000" points="393,-119.7 393,-138.7 424,-138.7 424,-119.7 393,-119.7"/>
<text text-anchor="start" x="414.8862" y="-125.8" font-family="Helvetica,sans-Serif" font-size="11.00" fill="#000000"> &#160;</text>
</a>
</g>
</g>
<!-- user_required_action&#45;&gt;user_entity -->
<g id="edge7" class="edge">
<title>user_required_action:w&#45;&gt;user_entity:e</title>
<path fill="none" stroke="#000000" d="M263.3443,-149.7335C246.3046,-155.2005 240.593,-171.1981 229,-191.7 205.274,-233.6587 236.2022,-404.7 188,-404.7"/>
<polygon fill="#000000" stroke="#000000" points="270.0759,-148.7995 278.4948,-151.2658 274.038,-148.2498 278,-147.7 278,-147.7 278,-147.7 274.038,-148.2498 277.5052,-144.1342 270.0759,-148.7995 270.0759,-148.7995"/>
<ellipse fill="none" stroke="#000000" cx="266.9063" cy="-149.2393" rx="3.2" ry="3.2"/>
</g>
<!-- user_role_mapping -->
<g id="node9" class="node">
<title>user_role_mapping</title>
<g id="a_node9"><a xlink:href="../../tables/user_role_mapping.html" xlink:title="user_role_mapping" target="_top">
<polygon fill="#ffffff" stroke="transparent" points="282.5,-38.2 282.5,-99.2 419.5,-99.2 419.5,-38.2 282.5,-38.2"/>
<polygon fill="#f5f5f5" stroke="transparent" points="283,-75.7 283,-98.7 420,-98.7 420,-75.7 283,-75.7"/>
<polygon fill="none" stroke="#000000" points="283,-75.7 283,-98.7 420,-98.7 420,-75.7 283,-75.7"/>
<text text-anchor="start" x="287.9343" y="-84.8" font-family="Helvetica,sans-Serif" font-weight="bold" font-size="11.00" fill="#000000">user_role_mapping</text>
<text text-anchor="start" x="385.5219" y="-83.8" font-family="Helvetica,sans-Serif" font-size="11.00" fill="#000000">[table]</text>
<polygon fill="none" stroke="#000000" points="283,-56.7 283,-75.7 420,-75.7 420,-56.7 283,-56.7"/>
<text text-anchor="start" x="286" y="-62.8" font-family="Helvetica,sans-Serif" font-size="11.00" fill="#000000">...</text>
<polygon fill="#ffffff" stroke="transparent" points="283,-37.7 283,-56.7 337,-56.7 337,-37.7 283,-37.7"/>
<polygon fill="none" stroke="#000000" points="283,-37.7 283,-56.7 337,-56.7 337,-37.7 283,-37.7"/>
<text text-anchor="start" x="286" y="-43.8" font-family="Helvetica,sans-Serif" font-size="11.00" fill="#000000">&lt; 1</text>
<polygon fill="#ffffff" stroke="transparent" points="337,-37.7 337,-56.7 391,-56.7 391,-37.7 337,-37.7"/>
<polygon fill="none" stroke="#000000" points="337,-37.7 337,-56.7 391,-56.7 391,-37.7 337,-37.7"/>
<text text-anchor="start" x="355.6105" y="-43.8" font-family="Helvetica,sans-Serif" font-size="11.00" fill="#000000">5 rows</text>
<polygon fill="#ffffff" stroke="transparent" points="391,-37.7 391,-56.7 420,-56.7 420,-37.7 391,-37.7"/>
<polygon fill="none" stroke="#000000" points="391,-37.7 391,-56.7 420,-56.7 420,-37.7 391,-37.7"/>
<text text-anchor="start" x="410.8862" y="-43.8" font-family="Helvetica,sans-Serif" font-size="11.00" fill="#000000"> &#160;</text>
</a>
</g>
</g>
<!-- user_role_mapping&#45;&gt;user_entity -->
<g id="edge8" class="edge">
<title>user_role_mapping:w&#45;&gt;user_entity:e</title>
<path fill="none" stroke="#000000" d="M268.6503,-67.2394C249.0526,-71.9915 241.5142,-87.463 229,-109.7 196.54,-167.3792 254.1857,-404.7 188,-404.7"/>
<polygon fill="#000000" stroke="#000000" points="275.0456,-66.5534 283.384,-69.2795 279.0228,-66.1267 283,-65.7 283,-65.7 283,-65.7 279.0228,-66.1267 282.616,-62.1205 275.0456,-66.5534 275.0456,-66.5534"/>
<ellipse fill="none" stroke="#000000" cx="271.8639" cy="-66.8947" rx="3.2" ry="3.2"/>
</g>
</g>
</svg>
