<?xml version="1.0" encoding="UTF-8" standalone="no"?>
<!DOCTYPE svg PUBLIC "-//W3C//DTD SVG 1.1//EN"
 "http://www.w3.org/Graphics/SVG/1.1/DTD/svg11.dtd">
<!-- Generated by graphviz version 2.40.1 (20161225.0304)
 -->
<!-- Title: oneDegreeRelationshipsDiagram Pages: 1 -->
<svg width="419pt" height="444pt"
 viewBox="0.00 0.00 419.00 443.70" xmlns="http://www.w3.org/2000/svg" xmlns:xlink="http://www.w3.org/1999/xlink">
<g id="graph0" class="graph" transform="scale(1 1) rotate(0) translate(4 439.7)">
<title>oneDegreeRelationshipsDiagram</title>
<polygon fill="#ffffff" stroke="transparent" points="-4,4 -4,-439.7 415,-439.7 415,4 -4,4"/>
<text text-anchor="middle" x="72.4936" y="-7.3" font-family="Helvetica,sans-Serif" font-size="11.00" fill="#000000">Generated by SchemaSpy</text>
<!-- client_session -->
<g id="node1" class="node">
<title>client_session</title>
<g id="a_node1"><a xlink:href="../../tables/client_session.html" xlink:title="client_session" target="_top">
<polygon fill="#ffffff" stroke="transparent" points="279.5,-304.7 279.5,-431.7 391.5,-431.7 391.5,-304.7 279.5,-304.7"/>
<polygon fill="#f5f5f5" stroke="transparent" points="279.5,-408.2 279.5,-431.2 391.5,-431.2 391.5,-408.2 279.5,-408.2"/>
<polygon fill="none" stroke="#000000" points="279.5,-408.2 279.5,-431.2 391.5,-431.2 391.5,-408.2 279.5,-408.2"/>
<text text-anchor="start" x="284.4655" y="-417.3" font-family="Helvetica,sans-Serif" font-weight="bold" font-size="11.00" fill="#000000">client_session</text>
<text text-anchor="start" x="357.0219" y="-416.3" font-family="Helvetica,sans-Serif" font-size="11.00" fill="#000000">[table]</text>
<polygon fill="none" stroke="#000000" points="279.5,-386.2 279.5,-408.2 391.5,-408.2 391.5,-386.2 279.5,-386.2"/>
<image xlink:href="../../images/primaryKeys.png" width="11px" height="12px" preserveAspectRatio="xMinYMin meet" x="284.5" y="-403.2"/>
<text text-anchor="start" x="303.5" y="-393.3" font-family="Helvetica,sans-Serif" font-size="11.00" fill="#000000">id</text>
<polygon fill="#ffffff" stroke="transparent" points="279.5,-364.2 279.5,-386.2 391.5,-386.2 391.5,-364.2 279.5,-364.2"/>
<polygon fill="none" stroke="#000000" points="279.5,-364.2 279.5,-386.2 391.5,-386.2 391.5,-364.2 279.5,-364.2"/>
<image xlink:href="../../images/foreignKeys.png" width="11px" height="12px" preserveAspectRatio="xMinYMin meet" x="284.5" y="-381.2"/>
<text text-anchor="start" x="303.5" y="-371.3" font-family="Helvetica,sans-Serif" font-size="11.00" fill="#000000">session_id</text>
<polygon fill="none" stroke="#000000" points="279.5,-342.2 279.5,-364.2 391.5,-364.2 391.5,-342.2 279.5,-342.2"/>
<image xlink:href="../../images/foreignKeys.png" width="11px" height="12px" preserveAspectRatio="xMinYMin meet" x="284.5" y="-359.2"/>
<text text-anchor="start" x="303.5" y="-349.3" font-family="Helvetica,sans-Serif" font-size="11.00" fill="#000000">realm_id</text>
<polygon fill="none" stroke="#000000" points="279.5,-323.2 279.5,-342.2 391.5,-342.2 391.5,-323.2 279.5,-323.2"/>
<text text-anchor="start" x="282.5" y="-329.3" font-family="Helvetica,sans-Serif" font-size="11.00" fill="#000000">...</text>
<polygon fill="#ffffff" stroke="transparent" points="279.5,-304.2 279.5,-323.2 316.5,-323.2 316.5,-304.2 279.5,-304.2"/>
<polygon fill="none" stroke="#000000" points="279.5,-304.2 279.5,-323.2 316.5,-323.2 316.5,-304.2 279.5,-304.2"/>
<text text-anchor="start" x="282.5" y="-310.3" font-family="Helvetica,sans-Serif" font-size="11.00" fill="#000000">&lt; 1</text>
<polygon fill="#ffffff" stroke="transparent" points="316.5,-304.2 316.5,-323.2 362.5,-323.2 362.5,-304.2 316.5,-304.2"/>
<polygon fill="none" stroke="#000000" points="316.5,-304.2 316.5,-323.2 362.5,-323.2 362.5,-304.2 316.5,-304.2"/>
<text text-anchor="start" x="327.1105" y="-310.3" font-family="Helvetica,sans-Serif" font-size="11.00" fill="#000000">0 rows</text>
<polygon fill="#ffffff" stroke="transparent" points="362.5,-304.2 362.5,-323.2 391.5,-323.2 391.5,-304.2 362.5,-304.2"/>
<polygon fill="none" stroke="#000000" points="362.5,-304.2 362.5,-323.2 391.5,-323.2 391.5,-304.2 362.5,-304.2"/>
<text text-anchor="start" x="372.9053" y="-310.3" font-family="Helvetica,sans-Serif" font-size="11.00" fill="#000000">5 &gt;</text>
</a>
</g>
</g>
<!-- user_session -->
<g id="node2" class="node">
<title>user_session</title>
<g id="a_node2"><a xlink:href="../../tables/user_session.html" xlink:title="user_session" target="_top">
<polygon fill="#ffffff" stroke="transparent" points="8,-38.2 8,-348.2 219,-348.2 219,-38.2 8,-38.2"/>
<polygon fill="#f5f5f5" stroke="transparent" points="10.5,-323.2 10.5,-346.2 217.5,-346.2 217.5,-323.2 10.5,-323.2"/>
<polygon fill="none" stroke="#000000" points="10.5,-323.2 10.5,-346.2 217.5,-346.2 217.5,-323.2 10.5,-323.2"/>
<text text-anchor="start" x="15.5" y="-332.3" font-family="Helvetica,sans-Serif" font-weight="bold" font-size="11.00" fill="#000000">user_session</text>
<text text-anchor="start" x="182.5437" y="-331.3" font-family="Helvetica,sans-Serif" font-size="11.00" fill="#000000">[table]</text>
<polygon fill="none" stroke="#000000" points="10.5,-301.2 10.5,-323.2 150.5,-323.2 150.5,-301.2 10.5,-301.2"/>
<image xlink:href="../../images/primaryKeys.png" width="11px" height="12px" preserveAspectRatio="xMinYMin meet" x="15.5" y="-318.2"/>
<text text-anchor="start" x="30.5" y="-308.3" font-family="Helvetica,sans-Serif" font-size="11.00" fill="#000000">id</text>
<polygon fill="none" stroke="#000000" points="150.5,-301.2 150.5,-323.2 217.5,-323.2 217.5,-301.2 150.5,-301.2"/>
<text text-anchor="start" x="153.5" y="-308.9" font-family="Helvetica,sans-Serif" font-size="11.00" fill="#000000">varchar[36]</text>
<polygon fill="none" stroke="#000000" points="10.5,-279.2 10.5,-301.2 150.5,-301.2 150.5,-279.2 10.5,-279.2"/>
<text text-anchor="start" x="30.5" y="-286.3" font-family="Helvetica,sans-Serif" font-size="11.00" fill="#000000">auth_method</text>
<polygon fill="none" stroke="#000000" points="150.5,-279.2 150.5,-301.2 217.5,-301.2 217.5,-279.2 150.5,-279.2"/>
<text text-anchor="start" x="153.4365" y="-286.9" font-family="Helvetica,sans-Serif" font-size="11.00" fill="#000000">varchar[255]</text>
<polygon fill="none" stroke="#000000" points="10.5,-257.2 10.5,-279.2 150.5,-279.2 150.5,-257.2 10.5,-257.2"/>
<text text-anchor="start" x="30.5" y="-264.3" font-family="Helvetica,sans-Serif" font-size="11.00" fill="#000000">ip_address</text>
<polygon fill="none" stroke="#000000" points="150.5,-257.2 150.5,-279.2 217.5,-279.2 217.5,-257.2 150.5,-257.2"/>
<text text-anchor="start" x="153.4365" y="-264.9" font-family="Helvetica,sans-Serif" font-size="11.00" fill="#000000">varchar[255]</text>
<polygon fill="none" stroke="#000000" points="10.5,-235.2 10.5,-257.2 150.5,-257.2 150.5,-235.2 10.5,-235.2"/>
<text text-anchor="start" x="30.5" y="-242.3" font-family="Helvetica,sans-Serif" font-size="11.00" fill="#000000">last_session_refresh</text>
<polygon fill="none" stroke="#000000" points="150.5,-235.2 150.5,-257.2 217.5,-257.2 217.5,-235.2 150.5,-235.2"/>
<text text-anchor="start" x="153.5" y="-242.9" font-family="Helvetica,sans-Serif" font-size="11.00" fill="#000000">int4[10]</text>
<polygon fill="none" stroke="#000000" points="10.5,-213.2 10.5,-235.2 150.5,-235.2 150.5,-213.2 10.5,-213.2"/>
<text text-anchor="start" x="30.5" y="-220.3" font-family="Helvetica,sans-Serif" font-size="11.00" fill="#000000">login_username</text>
<polygon fill="none" stroke="#000000" points="150.5,-213.2 150.5,-235.2 217.5,-235.2 217.5,-213.2 150.5,-213.2"/>
<text text-anchor="start" x="153.4365" y="-220.9" font-family="Helvetica,sans-Serif" font-size="11.00" fill="#000000">varchar[255]</text>
<polygon fill="none" stroke="#000000" points="10.5,-191.2 10.5,-213.2 150.5,-213.2 150.5,-191.2 10.5,-191.2"/>
<image xlink:href="../../images/foreignKeys.png" width="11px" height="12px" preserveAspectRatio="xMinYMin meet" x="15.5" y="-208.2"/>
<text text-anchor="start" x="30.5" y="-198.3" font-family="Helvetica,sans-Serif" font-size="11.00" fill="#000000">realm_id</text>
<polygon fill="none" stroke="#000000" points="150.5,-191.2 150.5,-213.2 217.5,-213.2 217.5,-191.2 150.5,-191.2"/>
<text text-anchor="start" x="153.4365" y="-198.9" font-family="Helvetica,sans-Serif" font-size="11.00" fill="#000000">varchar[255]</text>
<polygon fill="none" stroke="#000000" points="10.5,-169.2 10.5,-191.2 150.5,-191.2 150.5,-169.2 10.5,-169.2"/>
<text text-anchor="start" x="30.5" y="-176.3" font-family="Helvetica,sans-Serif" font-size="11.00" fill="#000000">remember_me</text>
<polygon fill="none" stroke="#000000" points="150.5,-169.2 150.5,-191.2 217.5,-191.2 217.5,-169.2 150.5,-169.2"/>
<text text-anchor="start" x="153.5" y="-176.9" font-family="Helvetica,sans-Serif" font-size="11.00" fill="#000000">bool[1]</text>
<polygon fill="none" stroke="#000000" points="10.5,-147.2 10.5,-169.2 150.5,-169.2 150.5,-147.2 10.5,-147.2"/>
<text text-anchor="start" x="30.5" y="-154.3" font-family="Helvetica,sans-Serif" font-size="11.00" fill="#000000">started</text>
<polygon fill="none" stroke="#000000" points="150.5,-147.2 150.5,-169.2 217.5,-169.2 217.5,-147.2 150.5,-147.2"/>
<text text-anchor="start" x="153.5" y="-154.9" font-family="Helvetica,sans-Serif" font-size="11.00" fill="#000000">int4[10]</text>
<polygon fill="none" stroke="#000000" points="10.5,-125.2 10.5,-147.2 150.5,-147.2 150.5,-125.2 10.5,-125.2"/>
<image xlink:href="../../images/foreignKeys.png" width="11px" height="12px" preserveAspectRatio="xMinYMin meet" x="15.5" y="-142.2"/>
<text text-anchor="start" x="30.5" y="-132.3" font-family="Helvetica,sans-Serif" font-size="11.00" fill="#000000">user_id</text>
<polygon fill="none" stroke="#000000" points="150.5,-125.2 150.5,-147.2 217.5,-147.2 217.5,-125.2 150.5,-125.2"/>
<text text-anchor="start" x="153.4365" y="-132.9" font-family="Helvetica,sans-Serif" font-size="11.00" fill="#000000">varchar[255]</text>
<polygon fill="none" stroke="#000000" points="10.5,-103.2 10.5,-125.2 150.5,-125.2 150.5,-103.2 10.5,-103.2"/>
<text text-anchor="start" x="30.5" y="-110.3" font-family="Helvetica,sans-Serif" font-size="11.00" fill="#000000">user_session_state</text>
<polygon fill="none" stroke="#000000" points="150.5,-103.2 150.5,-125.2 217.5,-125.2 217.5,-103.2 150.5,-103.2"/>
<text text-anchor="start" x="153.5" y="-110.9" font-family="Helvetica,sans-Serif" font-size="11.00" fill="#000000">int4[10]</text>
<polygon fill="none" stroke="#000000" points="10.5,-81.2 10.5,-103.2 150.5,-103.2 150.5,-81.2 10.5,-81.2"/>
<image xlink:href="../../images/foreignKeys.png" width="11px" height="12px" preserveAspectRatio="xMinYMin meet" x="15.5" y="-98.2"/>
<text text-anchor="start" x="30.5" y="-88.3" font-family="Helvetica,sans-Serif" font-size="11.00" fill="#000000">broker_session_id</text>
<polygon fill="none" stroke="#000000" points="150.5,-81.2 150.5,-103.2 217.5,-103.2 217.5,-81.2 150.5,-81.2"/>
<text text-anchor="start" x="153.4365" y="-88.9" font-family="Helvetica,sans-Serif" font-size="11.00" fill="#000000">varchar[255]</text>
<polygon fill="none" stroke="#000000" points="10.5,-59.2 10.5,-81.2 150.5,-81.2 150.5,-59.2 10.5,-59.2"/>
<image xlink:href="../../images/foreignKeys.png" width="11px" height="12px" preserveAspectRatio="xMinYMin meet" x="15.5" y="-76.2"/>
<text text-anchor="start" x="30.5" y="-66.3" font-family="Helvetica,sans-Serif" font-size="11.00" fill="#000000">broker_user_id</text>
<polygon fill="none" stroke="#000000" points="150.5,-59.2 150.5,-81.2 217.5,-81.2 217.5,-59.2 150.5,-59.2"/>
<text text-anchor="start" x="153.4365" y="-66.9" font-family="Helvetica,sans-Serif" font-size="11.00" fill="#000000">varchar[255]</text>
<polygon fill="#ffffff" stroke="transparent" points="10.5,-40.2 10.5,-59.2 71.5,-59.2 71.5,-40.2 10.5,-40.2"/>
<polygon fill="none" stroke="#000000" points="10.5,-40.2 10.5,-59.2 71.5,-59.2 71.5,-40.2 10.5,-40.2"/>
<text text-anchor="start" x="13.5" y="-46.3" font-family="Helvetica,sans-Serif" font-size="11.00" fill="#000000">&lt; 0</text>
<polygon fill="#ffffff" stroke="transparent" points="71.5,-40.2 71.5,-59.2 150.5,-59.2 150.5,-40.2 71.5,-40.2"/>
<polygon fill="none" stroke="#000000" points="71.5,-40.2 71.5,-59.2 150.5,-59.2 150.5,-40.2 71.5,-40.2"/>
<text text-anchor="start" x="115.1105" y="-46.3" font-family="Helvetica,sans-Serif" font-size="11.00" fill="#000000">0 rows</text>
<polygon fill="#ffffff" stroke="transparent" points="150.5,-40.2 150.5,-59.2 217.5,-59.2 217.5,-40.2 150.5,-40.2"/>
<polygon fill="none" stroke="#000000" points="150.5,-40.2 150.5,-59.2 217.5,-59.2 217.5,-40.2 150.5,-40.2"/>
<text text-anchor="start" x="198.9053" y="-46.3" font-family="Helvetica,sans-Serif" font-size="11.00" fill="#000000">2 &gt;</text>
<polygon fill="none" stroke="#000000" stroke-width="2" points="9,-39.2 9,-347.2 218,-347.2 218,-39.2 9,-39.2"/>
</a>
</g>
</g>
<!-- client_session&#45;&gt;user_session -->
<g id="edge1" class="edge">
<title>client_session:w&#45;&gt;user_session:e</title>
<path fill="none" stroke="#000000" d="M265.3326,-371.4477C243.9035,-357.885 250.9536,-312.2 217.5,-312.2"/>
<polygon fill="#000000" stroke="#000000" points="271.7666,-373.1518 278.5783,-378.68 275.6333,-374.1759 279.5,-375.2 279.5,-375.2 279.5,-375.2 275.6333,-374.1759 280.4217,-371.72 271.7666,-373.1518 271.7666,-373.1518"/>
<ellipse fill="none" stroke="#000000" cx="268.6733" cy="-372.3325" rx="3.2" ry="3.2"/>
</g>
<!-- user_session_note -->
<g id="node3" class="node">
<title>user_session_note</title>
<g id="a_node3"><a xlink:href="../../tables/user_session_note.html" xlink:title="user_session_note" target="_top">
<polygon fill="#ffffff" stroke="transparent" points="268,-178.7 268,-283.7 403,-283.7 403,-178.7 268,-178.7"/>
<polygon fill="#f5f5f5" stroke="transparent" points="268.5,-260.2 268.5,-283.2 403.5,-283.2 403.5,-260.2 268.5,-260.2"/>
<polygon fill="none" stroke="#000000" points="268.5,-260.2 268.5,-283.2 403.5,-283.2 403.5,-260.2 268.5,-260.2"/>
<text text-anchor="start" x="273.3457" y="-269.3" font-family="Helvetica,sans-Serif" font-weight="bold" font-size="11.00" fill="#000000">user_session_note</text>
<text text-anchor="start" x="369.0219" y="-268.3" font-family="Helvetica,sans-Serif" font-size="11.00" fill="#000000">[table]</text>
<polygon fill="none" stroke="#000000" points="268.5,-238.2 268.5,-260.2 403.5,-260.2 403.5,-238.2 268.5,-238.2"/>
<image xlink:href="../../images/primaryKeys.png" width="11px" height="12px" preserveAspectRatio="xMinYMin meet" x="273.5" y="-255.2"/>
<text text-anchor="start" x="291.5" y="-245.3" font-family="Helvetica,sans-Serif" font-size="11.00" fill="#000000">user_session</text>
<polygon fill="none" stroke="#000000" points="268.5,-216.2 268.5,-238.2 403.5,-238.2 403.5,-216.2 268.5,-216.2"/>
<image xlink:href="../../images/primaryKeys.png" width="11px" height="12px" preserveAspectRatio="xMinYMin meet" x="273.5" y="-233.2"/>
<text text-anchor="start" x="291.5" y="-223.3" font-family="Helvetica,sans-Serif" font-size="11.00" fill="#000000">name</text>
<polygon fill="none" stroke="#000000" points="268.5,-197.2 268.5,-216.2 403.5,-216.2 403.5,-197.2 268.5,-197.2"/>
<text text-anchor="start" x="271.5" y="-203.3" font-family="Helvetica,sans-Serif" font-size="11.00" fill="#000000">...</text>
<polygon fill="#ffffff" stroke="transparent" points="268.5,-178.2 268.5,-197.2 321.5,-197.2 321.5,-178.2 268.5,-178.2"/>
<polygon fill="none" stroke="#000000" points="268.5,-178.2 268.5,-197.2 321.5,-197.2 321.5,-178.2 268.5,-178.2"/>
<text text-anchor="start" x="271.5" y="-184.3" font-family="Helvetica,sans-Serif" font-size="11.00" fill="#000000">&lt; 1</text>
<polygon fill="#ffffff" stroke="transparent" points="321.5,-178.2 321.5,-197.2 375.5,-197.2 375.5,-178.2 321.5,-178.2"/>
<polygon fill="none" stroke="#000000" points="321.5,-178.2 321.5,-197.2 375.5,-197.2 375.5,-178.2 321.5,-178.2"/>
<text text-anchor="start" x="340.1105" y="-184.3" font-family="Helvetica,sans-Serif" font-size="11.00" fill="#000000">0 rows</text>
<polygon fill="#ffffff" stroke="transparent" points="375.5,-178.2 375.5,-197.2 403.5,-197.2 403.5,-178.2 375.5,-178.2"/>
<polygon fill="none" stroke="#000000" points="375.5,-178.2 375.5,-197.2 403.5,-197.2 403.5,-178.2 375.5,-178.2"/>
<text text-anchor="start" x="394.3862" y="-184.3" font-family="Helvetica,sans-Serif" font-size="11.00" fill="#000000"> &#160;</text>
</a>
</g>
</g>
<!-- user_session_note&#45;&gt;user_session -->
<g id="edge2" class="edge">
<title>user_session_note:w&#45;&gt;user_session:e</title>
<path fill="none" stroke="#000000" d="M254.4033,-254.1435C238.025,-268.9952 247.3329,-312.2 217.5,-312.2"/>
<polygon fill="#000000" stroke="#000000" points="260.9507,-251.8474 269.6913,-252.5972 264.7254,-250.5237 268.5,-249.2 268.5,-249.2 268.5,-249.2 264.7254,-250.5237 267.3087,-245.8028 260.9507,-251.8474 260.9507,-251.8474"/>
<ellipse fill="none" stroke="#000000" cx="257.931" cy="-252.9064" rx="3.2" ry="3.2"/>
</g>
</g>
</svg>
