<?xml version="1.0" encoding="UTF-8" standalone="no"?>
<!DOCTYPE svg PUBLIC "-//W3C//DTD SVG 1.1//EN"
 "http://www.w3.org/Graphics/SVG/1.1/DTD/svg11.dtd">
<!-- Generated by graphviz version 2.40.1 (20161225.0304)
 -->
<!-- Title: oneDegreeRelationshipsDiagramImplied Pages: 1 -->
<svg width="467pt" height="223pt"
 viewBox="0.00 0.00 467.00 222.70" xmlns="http://www.w3.org/2000/svg" xmlns:xlink="http://www.w3.org/1999/xlink">
<g id="graph0" class="graph" transform="scale(1 1) rotate(0) translate(4 218.7)">
<title>oneDegreeRelationshipsDiagramImplied</title>
<polygon fill="#ffffff" stroke="transparent" points="-4,4 -4,-218.7 463,-218.7 463,4 -4,4"/>
<text text-anchor="middle" x="72.4936" y="-7.3" font-family="Helvetica,sans-Serif" font-size="11.00" fill="#000000">Generated by SchemaSpy</text>
<!-- user_required_action -->
<g id="node1" class="node">
<title>user_required_action</title>
<g id="a_node1"><a xlink:href="../../tables/user_required_action.html" xlink:title="user_required_action" target="_top">
<polygon fill="#ffffff" stroke="transparent" points="237,-120.7 237,-210.7 451,-210.7 451,-120.7 237,-120.7"/>
<polygon fill="#f5f5f5" stroke="transparent" points="239,-185.7 239,-208.7 449,-208.7 449,-185.7 239,-185.7"/>
<polygon fill="none" stroke="#000000" points="239,-185.7 239,-208.7 449,-208.7 449,-185.7 239,-185.7"/>
<text text-anchor="start" x="244" y="-194.8" font-family="Helvetica,sans-Serif" font-weight="bold" font-size="11.00" fill="#000000">user_required_action</text>
<text text-anchor="start" x="414.0437" y="-193.8" font-family="Helvetica,sans-Serif" font-size="11.00" fill="#000000">[table]</text>
<polygon fill="none" stroke="#000000" points="239,-163.7 239,-185.7 382,-185.7 382,-163.7 239,-163.7"/>
<image xlink:href="../../images/primaryKeys.png" width="11px" height="12px" preserveAspectRatio="xMinYMin meet" x="244" y="-180.7"/>
<text text-anchor="start" x="259" y="-170.8" font-family="Helvetica,sans-Serif" font-size="11.00" fill="#000000">user_id</text>
<polygon fill="none" stroke="#000000" points="382,-163.7 382,-185.7 449,-185.7 449,-163.7 382,-163.7"/>
<text text-anchor="start" x="385" y="-171.4" font-family="Helvetica,sans-Serif" font-size="11.00" fill="#000000">varchar[36]</text>
<polygon fill="none" stroke="#000000" points="239,-141.7 239,-163.7 382,-163.7 382,-141.7 239,-141.7"/>
<image xlink:href="../../images/primaryKeys.png" width="11px" height="12px" preserveAspectRatio="xMinYMin meet" x="244" y="-158.7"/>
<text text-anchor="start" x="259" y="-148.8" font-family="Helvetica,sans-Serif" font-size="11.00" fill="#000000">required_action</text>
<polygon fill="none" stroke="#000000" points="382,-141.7 382,-163.7 449,-163.7 449,-141.7 382,-141.7"/>
<text text-anchor="start" x="384.9365" y="-149.4" font-family="Helvetica,sans-Serif" font-size="11.00" fill="#000000">varchar[255]</text>
<polygon fill="#ffffff" stroke="transparent" points="239,-122.7 239,-141.7 302,-141.7 302,-122.7 239,-122.7"/>
<polygon fill="none" stroke="#000000" points="239,-122.7 239,-141.7 302,-141.7 302,-122.7 239,-122.7"/>
<text text-anchor="start" x="242" y="-128.8" font-family="Helvetica,sans-Serif" font-size="11.00" fill="#000000">&lt; 1</text>
<polygon fill="#ffffff" stroke="transparent" points="302,-122.7 302,-141.7 382,-141.7 382,-122.7 302,-122.7"/>
<polygon fill="none" stroke="#000000" points="302,-122.7 302,-141.7 382,-141.7 382,-122.7 302,-122.7"/>
<text text-anchor="start" x="346.6105" y="-128.8" font-family="Helvetica,sans-Serif" font-size="11.00" fill="#000000">0 rows</text>
<polygon fill="#ffffff" stroke="transparent" points="382,-122.7 382,-141.7 449,-141.7 449,-122.7 382,-122.7"/>
<polygon fill="none" stroke="#000000" points="382,-122.7 382,-141.7 449,-141.7 449,-122.7 382,-122.7"/>
<text text-anchor="start" x="430.4053" y="-128.8" font-family="Helvetica,sans-Serif" font-size="11.00" fill="#000000">0 &gt;</text>
<polygon fill="none" stroke="#000000" stroke-width="2" points="238,-121.7 238,-209.7 450,-209.7 450,-121.7 238,-121.7"/>
</a>
</g>
</g>
<!-- user_entity -->
<g id="node2" class="node">
<title>user_entity</title>
<g id="a_node2"><a xlink:href="../../tables/user_entity.html" xlink:title="user_entity" target="_top">
<polygon fill="#ffffff" stroke="transparent" points="8,-38.2 8,-209.2 188,-209.2 188,-38.2 8,-38.2"/>
<polygon fill="#f5f5f5" stroke="transparent" points="8,-185.7 8,-208.7 188,-208.7 188,-185.7 8,-185.7"/>
<polygon fill="none" stroke="#000000" points="8,-185.7 8,-208.7 188,-208.7 188,-185.7 8,-185.7"/>
<text text-anchor="start" x="13" y="-194.8" font-family="Helvetica,sans-Serif" font-weight="bold" font-size="11.00" fill="#000000">user_entity</text>
<text text-anchor="start" x="153.0437" y="-193.8" font-family="Helvetica,sans-Serif" font-size="11.00" fill="#000000">[table]</text>
<polygon fill="none" stroke="#000000" points="8,-163.7 8,-185.7 188,-185.7 188,-163.7 8,-163.7"/>
<image xlink:href="../../images/primaryKeys.png" width="11px" height="12px" preserveAspectRatio="xMinYMin meet" x="13" y="-180.7"/>
<text text-anchor="start" x="28" y="-170.8" font-family="Helvetica,sans-Serif" font-size="11.00" fill="#000000">id</text>
<polygon fill="#ffffff" stroke="transparent" points="8,-141.7 8,-163.7 188,-163.7 188,-141.7 8,-141.7"/>
<polygon fill="none" stroke="#000000" points="8,-141.7 8,-163.7 188,-163.7 188,-141.7 8,-141.7"/>
<text text-anchor="start" x="28" y="-148.8" font-family="Helvetica,sans-Serif" font-size="11.00" fill="#000000">email</text>
<polygon fill="#ffffff" stroke="transparent" points="8,-119.7 8,-141.7 188,-141.7 188,-119.7 8,-119.7"/>
<polygon fill="none" stroke="#000000" points="8,-119.7 8,-141.7 188,-141.7 188,-119.7 8,-119.7"/>
<text text-anchor="start" x="28" y="-126.8" font-family="Helvetica,sans-Serif" font-size="11.00" fill="#000000">email_constraint</text>
<polygon fill="#ffffff" stroke="transparent" points="8,-97.7 8,-119.7 188,-119.7 188,-97.7 8,-97.7"/>
<polygon fill="none" stroke="#000000" points="8,-97.7 8,-119.7 188,-119.7 188,-97.7 8,-97.7"/>
<image xlink:href="../../images/foreignKeys.png" width="11px" height="12px" preserveAspectRatio="xMinYMin meet" x="13" y="-114.7"/>
<text text-anchor="start" x="28" y="-104.8" font-family="Helvetica,sans-Serif" font-size="11.00" fill="#000000">realm_id</text>
<polygon fill="#ffffff" stroke="transparent" points="8,-75.7 8,-97.7 188,-97.7 188,-75.7 8,-75.7"/>
<polygon fill="none" stroke="#000000" points="8,-75.7 8,-97.7 188,-97.7 188,-75.7 8,-75.7"/>
<text text-anchor="start" x="28" y="-82.8" font-family="Helvetica,sans-Serif" font-size="11.00" fill="#000000">username</text>
<polygon fill="none" stroke="#000000" points="8,-56.7 8,-75.7 188,-75.7 188,-56.7 8,-56.7"/>
<text text-anchor="start" x="11" y="-62.8" font-family="Helvetica,sans-Serif" font-size="11.00" fill="#000000">...</text>
<polygon fill="#ffffff" stroke="transparent" points="8,-37.7 8,-56.7 77,-56.7 77,-37.7 8,-37.7"/>
<polygon fill="none" stroke="#000000" points="8,-37.7 8,-56.7 77,-56.7 77,-37.7 8,-37.7"/>
<text text-anchor="start" x="11" y="-43.8" font-family="Helvetica,sans-Serif" font-size="11.00" fill="#000000"> &#160;</text>
<polygon fill="#ffffff" stroke="transparent" points="77,-37.7 77,-56.7 138,-56.7 138,-37.7 77,-37.7"/>
<polygon fill="none" stroke="#000000" points="77,-37.7 77,-56.7 138,-56.7 138,-37.7 77,-37.7"/>
<text text-anchor="start" x="108.1105" y="-43.8" font-family="Helvetica,sans-Serif" font-size="11.00" fill="#000000">1 row</text>
<polygon fill="#ffffff" stroke="transparent" points="138,-37.7 138,-56.7 188,-56.7 188,-37.7 138,-37.7"/>
<polygon fill="none" stroke="#000000" points="138,-37.7 138,-56.7 188,-56.7 188,-37.7 138,-37.7"/>
<text text-anchor="start" x="169.4053" y="-43.8" font-family="Helvetica,sans-Serif" font-size="11.00" fill="#000000">7 &gt;</text>
</a>
</g>
</g>
<!-- user_required_action&#45;&gt;user_entity -->
<g id="edge1" class="edge">
<title>user_required_action:w&#45;&gt;user_entity:e</title>
<path fill="none" stroke="#000000" d="M224.276,-174.7C212.2815,-174.7 204.8229,-174.7 188,-174.7"/>
<polygon fill="#000000" stroke="#000000" points="231,-174.7001 239,-178.3 235,-174.7 239,-174.7 239,-174.7 239,-174.7 235,-174.7 239,-171.1 231,-174.7001 231,-174.7001"/>
<ellipse fill="none" stroke="#000000" cx="227.8" cy="-174.7001" rx="3.2" ry="3.2"/>
</g>
</g>
</svg>
