<?xml version="1.0" encoding="UTF-8" standalone="no"?>
<!DOCTYPE svg PUBLIC "-//W3C//DTD SVG 1.1//EN"
 "http://www.w3.org/Graphics/SVG/1.1/DTD/svg11.dtd">
<!-- Generated by graphviz version 2.40.1 (20161225.0304)
 -->
<!-- Title: twoDegreesRelationshipsDiagram Pages: 1 -->
<svg width="553pt" height="715pt"
 viewBox="0.00 0.00 553.00 714.70" xmlns="http://www.w3.org/2000/svg" xmlns:xlink="http://www.w3.org/1999/xlink">
<g id="graph0" class="graph" transform="scale(1 1) rotate(0) translate(4 710.7)">
<title>twoDegreesRelationshipsDiagram</title>
<polygon fill="#ffffff" stroke="transparent" points="-4,4 -4,-710.7 549,-710.7 549,4 -4,4"/>
<text text-anchor="middle" x="72.4936" y="-7.3" font-family="Helvetica,sans-Serif" font-size="11.00" fill="#000000">Generated by SchemaSpy</text>
<!-- client -->
<g id="node1" class="node">
<title>client</title>
<g id="a_node1"><a xlink:href="../../tables/client.html" xlink:title="client" target="_top">
<polygon fill="#ffffff" stroke="transparent" points="128,-289.7 128,-416.7 323,-416.7 323,-289.7 128,-289.7"/>
<polygon fill="#f5f5f5" stroke="transparent" points="128.5,-393.2 128.5,-416.2 323.5,-416.2 323.5,-393.2 128.5,-393.2"/>
<polygon fill="none" stroke="#000000" points="128.5,-393.2 128.5,-416.2 323.5,-416.2 323.5,-393.2 128.5,-393.2"/>
<text text-anchor="start" x="133.5" y="-402.3" font-family="Helvetica,sans-Serif" font-weight="bold" font-size="11.00" fill="#000000">client</text>
<text text-anchor="start" x="288.5437" y="-401.3" font-family="Helvetica,sans-Serif" font-size="11.00" fill="#000000">[table]</text>
<polygon fill="none" stroke="#000000" points="128.5,-371.2 128.5,-393.2 323.5,-393.2 323.5,-371.2 128.5,-371.2"/>
<image xlink:href="../../images/primaryKeys.png" width="11px" height="12px" preserveAspectRatio="xMinYMin meet" x="133.5" y="-388.2"/>
<text text-anchor="start" x="148.5" y="-378.3" font-family="Helvetica,sans-Serif" font-size="11.00" fill="#000000">id</text>
<polygon fill="#ffffff" stroke="transparent" points="128.5,-349.2 128.5,-371.2 323.5,-371.2 323.5,-349.2 128.5,-349.2"/>
<polygon fill="none" stroke="#000000" points="128.5,-349.2 128.5,-371.2 323.5,-371.2 323.5,-349.2 128.5,-349.2"/>
<image xlink:href="../../images/foreignKeys.png" width="11px" height="12px" preserveAspectRatio="xMinYMin meet" x="133.5" y="-366.2"/>
<text text-anchor="start" x="148.5" y="-356.3" font-family="Helvetica,sans-Serif" font-size="11.00" fill="#000000">client_id</text>
<polygon fill="#ffffff" stroke="transparent" points="128.5,-327.2 128.5,-349.2 323.5,-349.2 323.5,-327.2 128.5,-327.2"/>
<polygon fill="none" stroke="#000000" points="128.5,-327.2 128.5,-349.2 323.5,-349.2 323.5,-327.2 128.5,-327.2"/>
<image xlink:href="../../images/foreignKeys.png" width="11px" height="12px" preserveAspectRatio="xMinYMin meet" x="133.5" y="-344.2"/>
<text text-anchor="start" x="148.5" y="-334.3" font-family="Helvetica,sans-Serif" font-size="11.00" fill="#000000">realm_id</text>
<polygon fill="none" stroke="#000000" points="128.5,-308.2 128.5,-327.2 323.5,-327.2 323.5,-308.2 128.5,-308.2"/>
<text text-anchor="start" x="131.5" y="-314.3" font-family="Helvetica,sans-Serif" font-size="11.00" fill="#000000">...</text>
<polygon fill="#ffffff" stroke="transparent" points="128.5,-289.2 128.5,-308.2 206.5,-308.2 206.5,-289.2 128.5,-289.2"/>
<polygon fill="none" stroke="#000000" points="128.5,-289.2 128.5,-308.2 206.5,-308.2 206.5,-289.2 128.5,-289.2"/>
<text text-anchor="start" x="131.5" y="-295.3" font-family="Helvetica,sans-Serif" font-size="11.00" fill="#000000">&lt; 1</text>
<polygon fill="#ffffff" stroke="transparent" points="206.5,-289.2 206.5,-308.2 273.5,-308.2 273.5,-289.2 206.5,-289.2"/>
<polygon fill="none" stroke="#000000" points="206.5,-289.2 206.5,-308.2 273.5,-308.2 273.5,-289.2 206.5,-289.2"/>
<text text-anchor="start" x="238.1105" y="-295.3" font-family="Helvetica,sans-Serif" font-size="11.00" fill="#000000">6 rows</text>
<polygon fill="#ffffff" stroke="transparent" points="273.5,-289.2 273.5,-308.2 323.5,-308.2 323.5,-289.2 273.5,-289.2"/>
<polygon fill="none" stroke="#000000" points="273.5,-289.2 273.5,-308.2 323.5,-308.2 323.5,-289.2 273.5,-289.2"/>
<text text-anchor="start" x="304.9053" y="-295.3" font-family="Helvetica,sans-Serif" font-size="11.00" fill="#000000">8 &gt;</text>
</a>
</g>
</g>
<!-- realm -->
<g id="node2" class="node">
<title>realm</title>
<g id="a_node2"><a xlink:href="../../tables/realm.html" xlink:title="realm" target="_top">
<polygon fill="#ffffff" stroke="transparent" points="8,-310.7 8,-371.7 79,-371.7 79,-310.7 8,-310.7"/>
<polygon fill="#f5f5f5" stroke="transparent" points="8.5,-348.2 8.5,-371.2 79.5,-371.2 79.5,-348.2 8.5,-348.2"/>
<polygon fill="none" stroke="#000000" points="8.5,-348.2 8.5,-371.2 79.5,-371.2 79.5,-348.2 8.5,-348.2"/>
<text text-anchor="start" x="13.5" y="-357.3" font-family="Helvetica,sans-Serif" font-weight="bold" font-size="11.00" fill="#000000">realm</text>
<text text-anchor="start" x="45.0219" y="-356.3" font-family="Helvetica,sans-Serif" font-size="11.00" fill="#000000">[table]</text>
<polygon fill="none" stroke="#000000" points="8.5,-329.2 8.5,-348.2 79.5,-348.2 79.5,-329.2 8.5,-329.2"/>
<text text-anchor="start" x="11.5" y="-335.3" font-family="Helvetica,sans-Serif" font-size="11.00" fill="#000000">...</text>
<polygon fill="#ffffff" stroke="transparent" points="8.5,-310.2 8.5,-329.2 20.5,-329.2 20.5,-310.2 8.5,-310.2"/>
<polygon fill="none" stroke="#000000" points="8.5,-310.2 8.5,-329.2 20.5,-329.2 20.5,-310.2 8.5,-310.2"/>
<text text-anchor="start" x="11.4431" y="-316.3" font-family="Helvetica,sans-Serif" font-size="11.00" fill="#000000"> &#160;</text>
<polygon fill="#ffffff" stroke="transparent" points="20.5,-310.2 20.5,-329.2 52.5,-329.2 52.5,-310.2 20.5,-310.2"/>
<polygon fill="none" stroke="#000000" points="20.5,-310.2 20.5,-329.2 52.5,-329.2 52.5,-310.2 20.5,-310.2"/>
<text text-anchor="start" x="23.0553" y="-316.3" font-family="Helvetica,sans-Serif" font-size="11.00" fill="#000000">1 row</text>
<polygon fill="#ffffff" stroke="transparent" points="52.5,-310.2 52.5,-329.2 79.5,-329.2 79.5,-310.2 52.5,-310.2"/>
<polygon fill="none" stroke="#000000" points="52.5,-310.2 52.5,-329.2 79.5,-329.2 79.5,-310.2 52.5,-310.2"/>
<text text-anchor="start" x="55.1452" y="-316.3" font-family="Helvetica,sans-Serif" font-size="11.00" fill="#000000">23 &gt;</text>
</a>
</g>
</g>
<!-- client&#45;&gt;realm -->
<g id="edge1" class="edge">
<title>client:w&#45;&gt;realm:e</title>
<path fill="none" stroke="#000000" d="M113.9909,-338.2C102.6774,-338.2 95.4931,-338.2 79.5,-338.2"/>
<polygon fill="#000000" stroke="#000000" points="120.5,-338.2001 128.5,-341.8 124.5,-338.2 128.5,-338.2 128.5,-338.2 128.5,-338.2 124.5,-338.2 128.5,-334.6 120.5,-338.2001 120.5,-338.2001"/>
<ellipse fill="none" stroke="#000000" cx="117.3" cy="-338.2001" rx="3.2" ry="3.2"/>
</g>
<!-- client_attributes -->
<g id="node3" class="node">
<title>client_attributes</title>
<g id="a_node3"><a xlink:href="../../tables/client_attributes.html" xlink:title="client_attributes" target="_top">
<polygon fill="#ffffff" stroke="transparent" points="394.5,-641.7 394.5,-702.7 514.5,-702.7 514.5,-641.7 394.5,-641.7"/>
<polygon fill="#f5f5f5" stroke="transparent" points="394.5,-679.2 394.5,-702.2 514.5,-702.2 514.5,-679.2 394.5,-679.2"/>
<polygon fill="none" stroke="#000000" points="394.5,-679.2 394.5,-702.2 514.5,-702.2 514.5,-679.2 394.5,-679.2"/>
<text text-anchor="start" x="399.4918" y="-688.3" font-family="Helvetica,sans-Serif" font-weight="bold" font-size="11.00" fill="#000000">client_attributes</text>
<text text-anchor="start" x="480.0219" y="-687.3" font-family="Helvetica,sans-Serif" font-size="11.00" fill="#000000">[table]</text>
<polygon fill="none" stroke="#000000" points="394.5,-660.2 394.5,-679.2 514.5,-679.2 514.5,-660.2 394.5,-660.2"/>
<text text-anchor="start" x="397.5" y="-666.3" font-family="Helvetica,sans-Serif" font-size="11.00" fill="#000000">...</text>
<polygon fill="#ffffff" stroke="transparent" points="394.5,-641.2 394.5,-660.2 439.5,-660.2 439.5,-641.2 394.5,-641.2"/>
<polygon fill="none" stroke="#000000" points="394.5,-641.2 394.5,-660.2 439.5,-660.2 439.5,-641.2 394.5,-641.2"/>
<text text-anchor="start" x="397.5" y="-647.3" font-family="Helvetica,sans-Serif" font-size="11.00" fill="#000000">&lt; 1</text>
<polygon fill="#ffffff" stroke="transparent" points="439.5,-641.2 439.5,-660.2 489.5,-660.2 489.5,-641.2 439.5,-641.2"/>
<polygon fill="none" stroke="#000000" points="439.5,-641.2 439.5,-660.2 489.5,-660.2 489.5,-641.2 439.5,-641.2"/>
<text text-anchor="start" x="454.1105" y="-647.3" font-family="Helvetica,sans-Serif" font-size="11.00" fill="#000000">2 rows</text>
<polygon fill="#ffffff" stroke="transparent" points="489.5,-641.2 489.5,-660.2 514.5,-660.2 514.5,-641.2 489.5,-641.2"/>
<polygon fill="none" stroke="#000000" points="489.5,-641.2 489.5,-660.2 514.5,-660.2 514.5,-641.2 489.5,-641.2"/>
<text text-anchor="start" x="505.3862" y="-647.3" font-family="Helvetica,sans-Serif" font-size="11.00" fill="#000000"> &#160;</text>
</a>
</g>
</g>
<!-- client_attributes&#45;&gt;client -->
<g id="edge2" class="edge">
<title>client_attributes:w&#45;&gt;client:e</title>
<path fill="none" stroke="#000000" d="M380.4053,-665.036C372.0896,-658.5381 370.2609,-645.2656 364,-631.2 341.2027,-579.9842 379.5605,-382.2 323.5,-382.2"/>
<polygon fill="#000000" stroke="#000000" points="386.8278,-666.9334 393.48,-672.6525 390.6639,-668.0667 394.5,-669.2 394.5,-669.2 394.5,-669.2 390.6639,-668.0667 395.52,-665.7475 386.8278,-666.9334 386.8278,-666.9334"/>
<ellipse fill="none" stroke="#000000" cx="383.7589" cy="-666.0267" rx="3.2" ry="3.2"/>
</g>
<!-- client_default_roles -->
<g id="node4" class="node">
<title>client_default_roles</title>
<g id="a_node4"><a xlink:href="../../tables/client_default_roles.html" xlink:title="client_default_roles" target="_top">
<polygon fill="#ffffff" stroke="transparent" points="386,-559.7 386,-620.7 523,-620.7 523,-559.7 386,-559.7"/>
<polygon fill="#f5f5f5" stroke="transparent" points="386.5,-597.2 386.5,-620.2 523.5,-620.2 523.5,-597.2 386.5,-597.2"/>
<polygon fill="none" stroke="#000000" points="386.5,-597.2 386.5,-620.2 523.5,-620.2 523.5,-597.2 386.5,-597.2"/>
<text text-anchor="start" x="391.1274" y="-606.3" font-family="Helvetica,sans-Serif" font-weight="bold" font-size="11.00" fill="#000000">client_default_roles</text>
<text text-anchor="start" x="489.0219" y="-605.3" font-family="Helvetica,sans-Serif" font-size="11.00" fill="#000000">[table]</text>
<polygon fill="none" stroke="#000000" points="386.5,-578.2 386.5,-597.2 523.5,-597.2 523.5,-578.2 386.5,-578.2"/>
<text text-anchor="start" x="389.5" y="-584.3" font-family="Helvetica,sans-Serif" font-size="11.00" fill="#000000">...</text>
<polygon fill="#ffffff" stroke="transparent" points="386.5,-559.2 386.5,-578.2 440.5,-578.2 440.5,-559.2 386.5,-559.2"/>
<polygon fill="none" stroke="#000000" points="386.5,-559.2 386.5,-578.2 440.5,-578.2 440.5,-559.2 386.5,-559.2"/>
<text text-anchor="start" x="389.5" y="-565.3" font-family="Helvetica,sans-Serif" font-size="11.00" fill="#000000">&lt; 1</text>
<polygon fill="#ffffff" stroke="transparent" points="440.5,-559.2 440.5,-578.2 494.5,-578.2 494.5,-559.2 440.5,-559.2"/>
<polygon fill="none" stroke="#000000" points="440.5,-559.2 440.5,-578.2 494.5,-578.2 494.5,-559.2 440.5,-559.2"/>
<text text-anchor="start" x="459.1105" y="-565.3" font-family="Helvetica,sans-Serif" font-size="11.00" fill="#000000">2 rows</text>
<polygon fill="#ffffff" stroke="transparent" points="494.5,-559.2 494.5,-578.2 523.5,-578.2 523.5,-559.2 494.5,-559.2"/>
<polygon fill="none" stroke="#000000" points="494.5,-559.2 494.5,-578.2 523.5,-578.2 523.5,-559.2 494.5,-559.2"/>
<text text-anchor="start" x="514.3862" y="-565.3" font-family="Helvetica,sans-Serif" font-size="11.00" fill="#000000"> &#160;</text>
</a>
</g>
</g>
<!-- client_default_roles&#45;&gt;client -->
<g id="edge3" class="edge">
<title>client_default_roles:w&#45;&gt;client:e</title>
<path fill="none" stroke="#000000" d="M371.9518,-585.171C305.3751,-563.8804 413.2315,-382.2 323.5,-382.2"/>
<polygon fill="#000000" stroke="#000000" points="378.5767,-586.0949 386.0027,-590.7655 382.5383,-586.6475 386.5,-587.2 386.5,-587.2 386.5,-587.2 382.5383,-586.6475 386.9973,-583.6345 378.5767,-586.0949 378.5767,-586.0949"/>
<ellipse fill="none" stroke="#000000" cx="375.4074" cy="-585.6529" rx="3.2" ry="3.2"/>
</g>
<!-- client_node_registrations -->
<g id="node5" class="node">
<title>client_node_registrations</title>
<g id="a_node5"><a xlink:href="../../tables/client_node_registrations.html" xlink:title="client_node_registrations" target="_top">
<polygon fill="#ffffff" stroke="transparent" points="372,-477.7 372,-538.7 537,-538.7 537,-477.7 372,-477.7"/>
<polygon fill="#f5f5f5" stroke="transparent" points="372.5,-515.2 372.5,-538.2 537.5,-538.2 537.5,-515.2 372.5,-515.2"/>
<polygon fill="none" stroke="#000000" points="372.5,-515.2 372.5,-538.2 537.5,-538.2 537.5,-515.2 372.5,-515.2"/>
<text text-anchor="start" x="377.3741" y="-524.3" font-family="Helvetica,sans-Serif" font-weight="bold" font-size="11.00" fill="#000000">client_node_registrations</text>
<text text-anchor="start" x="503.0219" y="-523.3" font-family="Helvetica,sans-Serif" font-size="11.00" fill="#000000">[table]</text>
<polygon fill="none" stroke="#000000" points="372.5,-496.2 372.5,-515.2 537.5,-515.2 537.5,-496.2 372.5,-496.2"/>
<text text-anchor="start" x="375.5" y="-502.3" font-family="Helvetica,sans-Serif" font-size="11.00" fill="#000000">...</text>
<polygon fill="#ffffff" stroke="transparent" points="372.5,-477.2 372.5,-496.2 440.5,-496.2 440.5,-477.2 372.5,-477.2"/>
<polygon fill="none" stroke="#000000" points="372.5,-477.2 372.5,-496.2 440.5,-496.2 440.5,-477.2 372.5,-477.2"/>
<text text-anchor="start" x="375.5" y="-483.3" font-family="Helvetica,sans-Serif" font-size="11.00" fill="#000000">&lt; 1</text>
<polygon fill="#ffffff" stroke="transparent" points="440.5,-477.2 440.5,-496.2 501.5,-496.2 501.5,-477.2 440.5,-477.2"/>
<polygon fill="none" stroke="#000000" points="440.5,-477.2 440.5,-496.2 501.5,-496.2 501.5,-477.2 440.5,-477.2"/>
<text text-anchor="start" x="466.1105" y="-483.3" font-family="Helvetica,sans-Serif" font-size="11.00" fill="#000000">0 rows</text>
<polygon fill="#ffffff" stroke="transparent" points="501.5,-477.2 501.5,-496.2 537.5,-496.2 537.5,-477.2 501.5,-477.2"/>
<polygon fill="none" stroke="#000000" points="501.5,-477.2 501.5,-496.2 537.5,-496.2 537.5,-477.2 501.5,-477.2"/>
<text text-anchor="start" x="528.3862" y="-483.3" font-family="Helvetica,sans-Serif" font-size="11.00" fill="#000000"> &#160;</text>
</a>
</g>
</g>
<!-- client_node_registrations&#45;&gt;client -->
<g id="edge4" class="edge">
<title>client_node_registrations:w&#45;&gt;client:e</title>
<path fill="none" stroke="#000000" d="M358.25,-501.6515C326.2922,-481.4844 376.3684,-382.2 323.5,-382.2"/>
<polygon fill="#000000" stroke="#000000" points="364.7371,-503.2668 371.6301,-508.6933 368.6185,-504.2334 372.5,-505.2 372.5,-505.2 372.5,-505.2 368.6185,-504.2334 373.3699,-501.7067 364.7371,-503.2668 364.7371,-503.2668"/>
<ellipse fill="none" stroke="#000000" cx="361.6319" cy="-502.4936" rx="3.2" ry="3.2"/>
</g>
<!-- client_scope_client -->
<g id="node6" class="node">
<title>client_scope_client</title>
<g id="a_node6"><a xlink:href="../../tables/client_scope_client.html" xlink:title="client_scope_client" target="_top">
<polygon fill="#ffffff" stroke="transparent" points="387,-395.7 387,-456.7 522,-456.7 522,-395.7 387,-395.7"/>
<polygon fill="#f5f5f5" stroke="transparent" points="387.5,-433.2 387.5,-456.2 522.5,-456.2 522.5,-433.2 387.5,-433.2"/>
<polygon fill="none" stroke="#000000" points="387.5,-433.2 387.5,-456.2 522.5,-456.2 522.5,-433.2 387.5,-433.2"/>
<text text-anchor="start" x="392.0443" y="-442.3" font-family="Helvetica,sans-Serif" font-weight="bold" font-size="11.00" fill="#000000">client_scope_client</text>
<text text-anchor="start" x="488.0219" y="-441.3" font-family="Helvetica,sans-Serif" font-size="11.00" fill="#000000">[table]</text>
<polygon fill="none" stroke="#000000" points="387.5,-414.2 387.5,-433.2 522.5,-433.2 522.5,-414.2 387.5,-414.2"/>
<text text-anchor="start" x="390.5" y="-420.3" font-family="Helvetica,sans-Serif" font-size="11.00" fill="#000000">...</text>
<polygon fill="#ffffff" stroke="transparent" points="387.5,-395.2 387.5,-414.2 437.5,-414.2 437.5,-395.2 387.5,-395.2"/>
<polygon fill="none" stroke="#000000" points="387.5,-395.2 387.5,-414.2 437.5,-414.2 437.5,-395.2 387.5,-395.2"/>
<text text-anchor="start" x="390.5" y="-401.3" font-family="Helvetica,sans-Serif" font-size="11.00" fill="#000000">&lt; 2</text>
<polygon fill="#ffffff" stroke="transparent" points="437.5,-395.2 437.5,-414.2 495.5,-414.2 495.5,-395.2 437.5,-395.2"/>
<polygon fill="none" stroke="#000000" points="437.5,-395.2 437.5,-414.2 495.5,-414.2 495.5,-395.2 437.5,-395.2"/>
<text text-anchor="start" x="453.9956" y="-401.3" font-family="Helvetica,sans-Serif" font-size="11.00" fill="#000000">54 rows</text>
<polygon fill="#ffffff" stroke="transparent" points="495.5,-395.2 495.5,-414.2 522.5,-414.2 522.5,-395.2 495.5,-395.2"/>
<polygon fill="none" stroke="#000000" points="495.5,-395.2 495.5,-414.2 522.5,-414.2 522.5,-395.2 495.5,-395.2"/>
<text text-anchor="start" x="513.3862" y="-401.3" font-family="Helvetica,sans-Serif" font-size="11.00" fill="#000000"> &#160;</text>
</a>
</g>
</g>
<!-- client_scope_client&#45;&gt;client -->
<g id="edge5" class="edge">
<title>client_scope_client:w&#45;&gt;client:e</title>
<path fill="none" stroke="#000000" d="M373.2844,-420.1183C353.8622,-410.5833 351.6066,-382.2 323.5,-382.2"/>
<polygon fill="#000000" stroke="#000000" points="379.6816,-421.5051 386.7373,-426.7183 383.5908,-422.3525 387.5,-423.2 387.5,-423.2 387.5,-423.2 383.5908,-422.3525 388.2627,-419.6817 379.6816,-421.5051 379.6816,-421.5051"/>
<ellipse fill="none" stroke="#000000" cx="376.5542" cy="-420.8271" rx="3.2" ry="3.2"/>
</g>
<!-- protocol_mapper -->
<g id="node7" class="node">
<title>protocol_mapper</title>
<g id="a_node7"><a xlink:href="../../tables/protocol_mapper.html" xlink:title="protocol_mapper" target="_top">
<polygon fill="#ffffff" stroke="transparent" points="392,-313.7 392,-374.7 517,-374.7 517,-313.7 392,-313.7"/>
<polygon fill="#f5f5f5" stroke="transparent" points="392.5,-351.2 392.5,-374.2 517.5,-374.2 517.5,-351.2 392.5,-351.2"/>
<polygon fill="none" stroke="#000000" points="392.5,-351.2 392.5,-374.2 517.5,-374.2 517.5,-351.2 392.5,-351.2"/>
<text text-anchor="start" x="397.2412" y="-360.3" font-family="Helvetica,sans-Serif" font-weight="bold" font-size="11.00" fill="#000000">protocol_mapper</text>
<text text-anchor="start" x="483.0219" y="-359.3" font-family="Helvetica,sans-Serif" font-size="11.00" fill="#000000">[table]</text>
<polygon fill="none" stroke="#000000" points="392.5,-332.2 392.5,-351.2 517.5,-351.2 517.5,-332.2 392.5,-332.2"/>
<text text-anchor="start" x="395.5" y="-338.3" font-family="Helvetica,sans-Serif" font-size="11.00" fill="#000000">...</text>
<polygon fill="#ffffff" stroke="transparent" points="392.5,-313.2 392.5,-332.2 432.5,-332.2 432.5,-313.2 392.5,-313.2"/>
<polygon fill="none" stroke="#000000" points="392.5,-313.2 392.5,-332.2 432.5,-332.2 432.5,-313.2 392.5,-313.2"/>
<text text-anchor="start" x="395.5" y="-319.3" font-family="Helvetica,sans-Serif" font-size="11.00" fill="#000000">&lt; 2</text>
<polygon fill="#ffffff" stroke="transparent" points="432.5,-313.2 432.5,-332.2 486.5,-332.2 486.5,-313.2 432.5,-313.2"/>
<polygon fill="none" stroke="#000000" points="432.5,-313.2 432.5,-332.2 486.5,-332.2 486.5,-313.2 432.5,-313.2"/>
<text text-anchor="start" x="444.9956" y="-319.3" font-family="Helvetica,sans-Serif" font-size="11.00" fill="#000000">28 rows</text>
<polygon fill="#ffffff" stroke="transparent" points="486.5,-313.2 486.5,-332.2 517.5,-332.2 517.5,-313.2 486.5,-313.2"/>
<polygon fill="none" stroke="#000000" points="486.5,-313.2 486.5,-332.2 517.5,-332.2 517.5,-313.2 486.5,-313.2"/>
<text text-anchor="start" x="498.9053" y="-319.3" font-family="Helvetica,sans-Serif" font-size="11.00" fill="#000000">1 &gt;</text>
</a>
</g>
</g>
<!-- protocol_mapper&#45;&gt;client -->
<g id="edge6" class="edge">
<title>protocol_mapper:w&#45;&gt;client:e</title>
<path fill="none" stroke="#000000" d="M378.2731,-343.8901C356.6324,-353.0115 353.5983,-382.2 323.5,-382.2"/>
<polygon fill="#000000" stroke="#000000" points="384.6393,-342.6864 393.1689,-344.7373 388.5696,-341.9432 392.5,-341.2 392.5,-341.2 392.5,-341.2 388.5696,-341.9432 391.8311,-337.6627 384.6393,-342.6864 384.6393,-342.6864"/>
<ellipse fill="none" stroke="#000000" cx="381.495" cy="-343.281" rx="3.2" ry="3.2"/>
</g>
<!-- redirect_uris -->
<g id="node8" class="node">
<title>redirect_uris</title>
<g id="a_node8"><a xlink:href="../../tables/redirect_uris.html" xlink:title="redirect_uris" target="_top">
<polygon fill="#ffffff" stroke="transparent" points="403,-231.7 403,-292.7 506,-292.7 506,-231.7 403,-231.7"/>
<polygon fill="#f5f5f5" stroke="transparent" points="403.5,-269.2 403.5,-292.2 506.5,-292.2 506.5,-269.2 403.5,-269.2"/>
<polygon fill="none" stroke="#000000" points="403.5,-269.2 403.5,-292.2 506.5,-292.2 506.5,-269.2 403.5,-269.2"/>
<text text-anchor="start" x="408.2506" y="-278.3" font-family="Helvetica,sans-Serif" font-weight="bold" font-size="11.00" fill="#000000">redirect_uris</text>
<text text-anchor="start" x="472.0219" y="-277.3" font-family="Helvetica,sans-Serif" font-size="11.00" fill="#000000">[table]</text>
<polygon fill="none" stroke="#000000" points="403.5,-250.2 403.5,-269.2 506.5,-269.2 506.5,-250.2 403.5,-250.2"/>
<text text-anchor="start" x="406.5" y="-256.3" font-family="Helvetica,sans-Serif" font-size="11.00" fill="#000000">...</text>
<polygon fill="#ffffff" stroke="transparent" points="403.5,-231.2 403.5,-250.2 440.5,-250.2 440.5,-231.2 403.5,-231.2"/>
<polygon fill="none" stroke="#000000" points="403.5,-231.2 403.5,-250.2 440.5,-250.2 440.5,-231.2 403.5,-231.2"/>
<text text-anchor="start" x="406.5" y="-237.3" font-family="Helvetica,sans-Serif" font-size="11.00" fill="#000000">&lt; 1</text>
<polygon fill="#ffffff" stroke="transparent" points="440.5,-231.2 440.5,-250.2 486.5,-250.2 486.5,-231.2 440.5,-231.2"/>
<polygon fill="none" stroke="#000000" points="440.5,-231.2 440.5,-250.2 486.5,-250.2 486.5,-231.2 440.5,-231.2"/>
<text text-anchor="start" x="451.1105" y="-237.3" font-family="Helvetica,sans-Serif" font-size="11.00" fill="#000000">3 rows</text>
<polygon fill="#ffffff" stroke="transparent" points="486.5,-231.2 486.5,-250.2 506.5,-250.2 506.5,-231.2 486.5,-231.2"/>
<polygon fill="none" stroke="#000000" points="486.5,-231.2 486.5,-250.2 506.5,-250.2 506.5,-231.2 486.5,-231.2"/>
<text text-anchor="start" x="497.3862" y="-237.3" font-family="Helvetica,sans-Serif" font-size="11.00" fill="#000000"> &#160;</text>
</a>
</g>
</g>
<!-- redirect_uris&#45;&gt;client -->
<g id="edge7" class="edge">
<title>redirect_uris:w&#45;&gt;client:e</title>
<path fill="none" stroke="#000000" d="M389.4251,-262.3736C377.129,-269.2913 375.521,-286.4549 364,-303.2 341.6355,-335.7057 362.9562,-382.2 323.5,-382.2"/>
<polygon fill="#000000" stroke="#000000" points="395.6959,-260.9597 404.2919,-262.7118 399.598,-260.0799 403.5,-259.2 403.5,-259.2 403.5,-259.2 399.598,-260.0799 402.7081,-255.6882 395.6959,-260.9597 395.6959,-260.9597"/>
<ellipse fill="none" stroke="#000000" cx="392.5743" cy="-261.6636" rx="3.2" ry="3.2"/>
</g>
<!-- scope_mapping -->
<g id="node9" class="node">
<title>scope_mapping</title>
<g id="a_node9"><a xlink:href="../../tables/scope_mapping.html" xlink:title="scope_mapping" target="_top">
<polygon fill="#ffffff" stroke="transparent" points="394.5,-149.7 394.5,-210.7 514.5,-210.7 514.5,-149.7 394.5,-149.7"/>
<polygon fill="#f5f5f5" stroke="transparent" points="394.5,-187.2 394.5,-210.2 514.5,-210.2 514.5,-187.2 394.5,-187.2"/>
<polygon fill="none" stroke="#000000" points="394.5,-187.2 394.5,-210.2 514.5,-210.2 514.5,-187.2 394.5,-187.2"/>
<text text-anchor="start" x="399.1816" y="-196.3" font-family="Helvetica,sans-Serif" font-weight="bold" font-size="11.00" fill="#000000">scope_mapping</text>
<text text-anchor="start" x="480.0219" y="-195.3" font-family="Helvetica,sans-Serif" font-size="11.00" fill="#000000">[table]</text>
<polygon fill="none" stroke="#000000" points="394.5,-168.2 394.5,-187.2 514.5,-187.2 514.5,-168.2 394.5,-168.2"/>
<text text-anchor="start" x="397.5" y="-174.3" font-family="Helvetica,sans-Serif" font-size="11.00" fill="#000000">...</text>
<polygon fill="#ffffff" stroke="transparent" points="394.5,-149.2 394.5,-168.2 442.5,-168.2 442.5,-149.2 394.5,-149.2"/>
<polygon fill="none" stroke="#000000" points="394.5,-149.2 394.5,-168.2 442.5,-168.2 442.5,-149.2 394.5,-149.2"/>
<text text-anchor="start" x="397.5" y="-155.3" font-family="Helvetica,sans-Serif" font-size="11.00" fill="#000000">&lt; 1</text>
<polygon fill="#ffffff" stroke="transparent" points="442.5,-149.2 442.5,-168.2 488.5,-168.2 488.5,-149.2 442.5,-149.2"/>
<polygon fill="none" stroke="#000000" points="442.5,-149.2 442.5,-168.2 488.5,-168.2 488.5,-149.2 442.5,-149.2"/>
<text text-anchor="start" x="458.6105" y="-155.3" font-family="Helvetica,sans-Serif" font-size="11.00" fill="#000000">1 row</text>
<polygon fill="#ffffff" stroke="transparent" points="488.5,-149.2 488.5,-168.2 514.5,-168.2 514.5,-149.2 488.5,-149.2"/>
<polygon fill="none" stroke="#000000" points="488.5,-149.2 488.5,-168.2 514.5,-168.2 514.5,-149.2 488.5,-149.2"/>
<text text-anchor="start" x="505.3862" y="-155.3" font-family="Helvetica,sans-Serif" font-size="11.00" fill="#000000"> &#160;</text>
</a>
</g>
</g>
<!-- scope_mapping&#45;&gt;client -->
<g id="edge8" class="edge">
<title>scope_mapping:w&#45;&gt;client:e</title>
<path fill="none" stroke="#000000" d="M380.1373,-179.0985C311.1813,-199.765 414.4595,-382.2 323.5,-382.2"/>
<polygon fill="#000000" stroke="#000000" points="386.569,-178.2484 394.9718,-180.769 390.5345,-177.7242 394.5,-177.2 394.5,-177.2 394.5,-177.2 390.5345,-177.7242 394.0282,-173.631 386.569,-178.2484 386.569,-178.2484"/>
<ellipse fill="none" stroke="#000000" cx="383.3966" cy="-178.6678" rx="3.2" ry="3.2"/>
</g>
<!-- web_origins -->
<g id="node10" class="node">
<title>web_origins</title>
<g id="a_node10"><a xlink:href="../../tables/web_origins.html" xlink:title="web_origins" target="_top">
<polygon fill="#ffffff" stroke="transparent" points="373.5,-38.2 373.5,-128.2 535.5,-128.2 535.5,-38.2 373.5,-38.2"/>
<polygon fill="#f5f5f5" stroke="transparent" points="375.5,-103.2 375.5,-126.2 533.5,-126.2 533.5,-103.2 375.5,-103.2"/>
<polygon fill="none" stroke="#000000" points="375.5,-103.2 375.5,-126.2 533.5,-126.2 533.5,-103.2 375.5,-103.2"/>
<text text-anchor="start" x="380.5" y="-112.3" font-family="Helvetica,sans-Serif" font-weight="bold" font-size="11.00" fill="#000000">web_origins</text>
<text text-anchor="start" x="498.5437" y="-111.3" font-family="Helvetica,sans-Serif" font-size="11.00" fill="#000000">[table]</text>
<polygon fill="none" stroke="#000000" points="375.5,-81.2 375.5,-103.2 466.5,-103.2 466.5,-81.2 375.5,-81.2"/>
<image xlink:href="../../images/primaryKeys.png" width="11px" height="12px" preserveAspectRatio="xMinYMin meet" x="380.5" y="-98.2"/>
<text text-anchor="start" x="395.5" y="-88.3" font-family="Helvetica,sans-Serif" font-size="11.00" fill="#000000">client_id</text>
<polygon fill="none" stroke="#000000" points="466.5,-81.2 466.5,-103.2 533.5,-103.2 533.5,-81.2 466.5,-81.2"/>
<text text-anchor="start" x="469.5" y="-88.9" font-family="Helvetica,sans-Serif" font-size="11.00" fill="#000000">varchar[36]</text>
<polygon fill="none" stroke="#000000" points="375.5,-59.2 375.5,-81.2 466.5,-81.2 466.5,-59.2 375.5,-59.2"/>
<image xlink:href="../../images/primaryKeys.png" width="11px" height="12px" preserveAspectRatio="xMinYMin meet" x="380.5" y="-76.2"/>
<text text-anchor="start" x="395.5" y="-66.3" font-family="Helvetica,sans-Serif" font-size="11.00" fill="#000000">value</text>
<polygon fill="none" stroke="#000000" points="466.5,-59.2 466.5,-81.2 533.5,-81.2 533.5,-59.2 466.5,-59.2"/>
<text text-anchor="start" x="469.4365" y="-66.9" font-family="Helvetica,sans-Serif" font-size="11.00" fill="#000000">varchar[255]</text>
<polygon fill="#ffffff" stroke="transparent" points="375.5,-40.2 375.5,-59.2 415.5,-59.2 415.5,-40.2 375.5,-40.2"/>
<polygon fill="none" stroke="#000000" points="375.5,-40.2 375.5,-59.2 415.5,-59.2 415.5,-40.2 375.5,-40.2"/>
<text text-anchor="start" x="378.5" y="-46.3" font-family="Helvetica,sans-Serif" font-size="11.00" fill="#000000">&lt; 1</text>
<polygon fill="#ffffff" stroke="transparent" points="415.5,-40.2 415.5,-59.2 466.5,-59.2 466.5,-40.2 415.5,-40.2"/>
<polygon fill="none" stroke="#000000" points="415.5,-40.2 415.5,-59.2 466.5,-59.2 466.5,-40.2 415.5,-40.2"/>
<text text-anchor="start" x="436.6105" y="-46.3" font-family="Helvetica,sans-Serif" font-size="11.00" fill="#000000">1 row</text>
<polygon fill="#ffffff" stroke="transparent" points="466.5,-40.2 466.5,-59.2 533.5,-59.2 533.5,-40.2 466.5,-40.2"/>
<polygon fill="none" stroke="#000000" points="466.5,-40.2 466.5,-59.2 533.5,-59.2 533.5,-40.2 466.5,-40.2"/>
<text text-anchor="start" x="514.9053" y="-46.3" font-family="Helvetica,sans-Serif" font-size="11.00" fill="#000000">0 &gt;</text>
<polygon fill="none" stroke="#000000" stroke-width="2" points="374.5,-39.2 374.5,-127.2 534.5,-127.2 534.5,-39.2 374.5,-39.2"/>
</a>
</g>
</g>
<!-- web_origins&#45;&gt;client -->
<g id="edge9" class="edge">
<title>web_origins:w&#45;&gt;client:e</title>
<path fill="none" stroke="#000000" d="M362.1436,-97.7342C322.0078,-137.8267 383.6015,-382.2 323.5,-382.2"/>
<polygon fill="#000000" stroke="#000000" points="368.1093,-95.2624 376.8781,-95.5258 371.8047,-93.7312 375.5,-92.2 375.5,-92.2 375.5,-92.2 371.8047,-93.7312 374.1219,-88.8742 368.1093,-95.2624 368.1093,-95.2624"/>
<ellipse fill="none" stroke="#000000" cx="365.153" cy="-96.4873" rx="3.2" ry="3.2"/>
</g>
</g>
</svg>
