<?xml version="1.0" encoding="UTF-8" standalone="no"?>
<!DOCTYPE svg PUBLIC "-//W3C//DTD SVG 1.1//EN"
 "http://www.w3.org/Graphics/SVG/1.1/DTD/svg11.dtd">
<!-- Generated by graphviz version 2.40.1 (20161225.0304)
 -->
<!-- Title: client_auth_flow_bindings Pages: 1 -->
<svg width="266pt" height="128pt"
 viewBox="0.00 0.00 266.00 128.00" xmlns="http://www.w3.org/2000/svg" xmlns:xlink="http://www.w3.org/1999/xlink">
<g id="graph0" class="graph" transform="scale(1 1) rotate(0) translate(4 124)">
<title>client_auth_flow_bindings</title>
<polygon fill="#ffffff" stroke="transparent" points="-4,4 -4,-124 262,-124 262,4 -4,4"/>
<!-- client_auth_flow_bindings -->
<g id="node1" class="node">
<title>client_auth_flow_bindings</title>
<g id="a_node1"><a xlink:href="../../tables/client_auth_flow_bindings.html" xlink:title="client_auth_flow_bindings" target="_top">
<polygon fill="#ffffff" stroke="transparent" points="8,-4 8,-116 250,-116 250,-4 8,-4"/>
<polygon fill="#f5f5f5" stroke="transparent" points="10,-91 10,-114 248,-114 248,-91 10,-91"/>
<polygon fill="none" stroke="#000000" points="10,-91 10,-114 248,-114 248,-91 10,-91"/>
<text text-anchor="start" x="15" y="-100.1" font-family="Helvetica,sans-Serif" font-weight="bold" font-size="11.00" fill="#000000">client_auth_flow_bindings</text>
<text text-anchor="start" x="213.0437" y="-99.1" font-family="Helvetica,sans-Serif" font-size="11.00" fill="#000000">[table]</text>
<polygon fill="none" stroke="#000000" points="10,-69 10,-91 181,-91 181,-69 10,-69"/>
<image xlink:href="../../images/primaryKeys.png" width="11px" height="12px" preserveAspectRatio="xMinYMin meet" x="15" y="-86"/>
<text text-anchor="start" x="30" y="-76.1" font-family="Helvetica,sans-Serif" font-size="11.00" fill="#000000">client_id</text>
<polygon fill="none" stroke="#000000" points="181,-69 181,-91 248,-91 248,-69 181,-69"/>
<text text-anchor="start" x="184" y="-76.7" font-family="Helvetica,sans-Serif" font-size="11.00" fill="#000000">varchar[36]</text>
<polygon fill="none" stroke="#000000" points="10,-47 10,-69 181,-69 181,-47 10,-47"/>
<text text-anchor="start" x="30" y="-54.1" font-family="Helvetica,sans-Serif" font-size="11.00" fill="#000000">flow_id</text>
<polygon fill="none" stroke="#000000" points="181,-47 181,-69 248,-69 248,-47 181,-47"/>
<text text-anchor="start" x="184" y="-54.7" font-family="Helvetica,sans-Serif" font-size="11.00" fill="#000000">varchar[36]</text>
<polygon fill="none" stroke="#000000" points="10,-25 10,-47 181,-47 181,-25 10,-25"/>
<image xlink:href="../../images/primaryKeys.png" width="11px" height="12px" preserveAspectRatio="xMinYMin meet" x="15" y="-42"/>
<text text-anchor="start" x="30" y="-32.1" font-family="Helvetica,sans-Serif" font-size="11.00" fill="#000000">binding_name</text>
<polygon fill="none" stroke="#000000" points="181,-25 181,-47 248,-47 248,-25 181,-25"/>
<text text-anchor="start" x="183.9365" y="-32.7" font-family="Helvetica,sans-Serif" font-size="11.00" fill="#000000">varchar[255]</text>
<polygon fill="#ffffff" stroke="transparent" points="10,-6 10,-25 87,-25 87,-6 10,-6"/>
<polygon fill="none" stroke="#000000" points="10,-6 10,-25 87,-25 87,-6 10,-6"/>
<text text-anchor="start" x="13" y="-12.1" font-family="Helvetica,sans-Serif" font-size="11.00" fill="#000000">&lt; 0</text>
<polygon fill="#ffffff" stroke="transparent" points="87,-6 87,-25 181,-25 181,-6 87,-6"/>
<polygon fill="none" stroke="#000000" points="87,-6 87,-25 181,-25 181,-6 87,-6"/>
<text text-anchor="start" x="145.6105" y="-12.1" font-family="Helvetica,sans-Serif" font-size="11.00" fill="#000000">0 rows</text>
<polygon fill="#ffffff" stroke="transparent" points="181,-6 181,-25 248,-25 248,-6 181,-6"/>
<polygon fill="none" stroke="#000000" points="181,-6 181,-25 248,-25 248,-6 181,-6"/>
<text text-anchor="start" x="229.4053" y="-12.1" font-family="Helvetica,sans-Serif" font-size="11.00" fill="#000000">0 &gt;</text>
<polygon fill="none" stroke="#000000" stroke-width="2" points="9,-5 9,-115 249,-115 249,-5 9,-5"/>
</a>
</g>
</g>
</g>
</svg>
