<?xml version="1.0" encoding="UTF-8" standalone="no"?>
<!DOCTYPE svg PUBLIC "-//W3C//DTD SVG 1.1//EN"
 "http://www.w3.org/Graphics/SVG/1.1/DTD/svg11.dtd">
<!-- Generated by graphviz version 2.40.1 (20161225.0304)
 -->
<!-- Title: databasechangelog Pages: 1 -->
<svg width="245pt" height="370pt"
 viewBox="0.00 0.00 245.00 370.00" xmlns="http://www.w3.org/2000/svg" xmlns:xlink="http://www.w3.org/1999/xlink">
<g id="graph0" class="graph" transform="scale(1 1) rotate(0) translate(4 366)">
<title>databasechangelog</title>
<polygon fill="#ffffff" stroke="transparent" points="-4,4 -4,-366 241,-366 241,4 -4,4"/>
<!-- databasechangelog -->
<g id="node1" class="node">
<title>databasechangelog</title>
<g id="a_node1"><a xlink:href="../../tables/databasechangelog.html" xlink:title="databasechangelog" target="_top">
<polygon fill="#ffffff" stroke="transparent" points="8,-4 8,-358 229,-358 229,-4 8,-4"/>
<polygon fill="#f5f5f5" stroke="transparent" points="10.5,-333 10.5,-356 227.5,-356 227.5,-333 10.5,-333"/>
<polygon fill="none" stroke="#000000" points="10.5,-333 10.5,-356 227.5,-356 227.5,-333 10.5,-333"/>
<text text-anchor="start" x="15.5" y="-342.1" font-family="Helvetica,sans-Serif" font-weight="bold" font-size="11.00" fill="#000000">databasechangelog</text>
<text text-anchor="start" x="192.5437" y="-341.1" font-family="Helvetica,sans-Serif" font-size="11.00" fill="#000000">[table]</text>
<polygon fill="none" stroke="#000000" points="10.5,-311 10.5,-333 143.5,-333 143.5,-311 10.5,-311"/>
<image xlink:href="../../images/foreignKeys.png" width="11px" height="12px" preserveAspectRatio="xMinYMin meet" x="15.5" y="-328"/>
<text text-anchor="start" x="30.5" y="-318.1" font-family="Helvetica,sans-Serif" font-size="11.00" fill="#000000">id</text>
<polygon fill="none" stroke="#000000" points="143.5,-311 143.5,-333 227.5,-333 227.5,-311 143.5,-311"/>
<text text-anchor="start" x="146.5" y="-318.7" font-family="Helvetica,sans-Serif" font-size="11.00" fill="#000000">varchar[255]</text>
<polygon fill="none" stroke="#000000" points="10.5,-289 10.5,-311 143.5,-311 143.5,-289 10.5,-289"/>
<text text-anchor="start" x="30.5" y="-296.1" font-family="Helvetica,sans-Serif" font-size="11.00" fill="#000000">author</text>
<polygon fill="none" stroke="#000000" points="143.5,-289 143.5,-311 227.5,-311 227.5,-289 143.5,-289"/>
<text text-anchor="start" x="146.5" y="-296.7" font-family="Helvetica,sans-Serif" font-size="11.00" fill="#000000">varchar[255]</text>
<polygon fill="none" stroke="#000000" points="10.5,-267 10.5,-289 143.5,-289 143.5,-267 10.5,-267"/>
<text text-anchor="start" x="30.5" y="-274.1" font-family="Helvetica,sans-Serif" font-size="11.00" fill="#000000">filename</text>
<polygon fill="none" stroke="#000000" points="143.5,-267 143.5,-289 227.5,-289 227.5,-267 143.5,-267"/>
<text text-anchor="start" x="146.5" y="-274.7" font-family="Helvetica,sans-Serif" font-size="11.00" fill="#000000">varchar[255]</text>
<polygon fill="none" stroke="#000000" points="10.5,-245 10.5,-267 143.5,-267 143.5,-245 10.5,-245"/>
<text text-anchor="start" x="30.5" y="-252.1" font-family="Helvetica,sans-Serif" font-size="11.00" fill="#000000">dateexecuted</text>
<polygon fill="none" stroke="#000000" points="143.5,-245 143.5,-267 227.5,-267 227.5,-245 143.5,-245"/>
<text text-anchor="start" x="146.3807" y="-252.7" font-family="Helvetica,sans-Serif" font-size="11.00" fill="#000000">timestamp[29,6]</text>
<polygon fill="none" stroke="#000000" points="10.5,-223 10.5,-245 143.5,-245 143.5,-223 10.5,-223"/>
<text text-anchor="start" x="30.5" y="-230.1" font-family="Helvetica,sans-Serif" font-size="11.00" fill="#000000">orderexecuted</text>
<polygon fill="none" stroke="#000000" points="143.5,-223 143.5,-245 227.5,-245 227.5,-223 143.5,-223"/>
<text text-anchor="start" x="146.5" y="-230.7" font-family="Helvetica,sans-Serif" font-size="11.00" fill="#000000">int4[10]</text>
<polygon fill="none" stroke="#000000" points="10.5,-201 10.5,-223 143.5,-223 143.5,-201 10.5,-201"/>
<text text-anchor="start" x="30.5" y="-208.1" font-family="Helvetica,sans-Serif" font-size="11.00" fill="#000000">exectype</text>
<polygon fill="none" stroke="#000000" points="143.5,-201 143.5,-223 227.5,-223 227.5,-201 143.5,-201"/>
<text text-anchor="start" x="146.5" y="-208.7" font-family="Helvetica,sans-Serif" font-size="11.00" fill="#000000">varchar[10]</text>
<polygon fill="none" stroke="#000000" points="10.5,-179 10.5,-201 143.5,-201 143.5,-179 10.5,-179"/>
<text text-anchor="start" x="30.5" y="-186.1" font-family="Helvetica,sans-Serif" font-size="11.00" fill="#000000">md5sum</text>
<polygon fill="none" stroke="#000000" points="143.5,-179 143.5,-201 227.5,-201 227.5,-179 143.5,-179"/>
<text text-anchor="start" x="146.5" y="-186.7" font-family="Helvetica,sans-Serif" font-size="11.00" fill="#000000">varchar[35]</text>
<polygon fill="none" stroke="#000000" points="10.5,-157 10.5,-179 143.5,-179 143.5,-157 10.5,-157"/>
<text text-anchor="start" x="30.5" y="-164.1" font-family="Helvetica,sans-Serif" font-size="11.00" fill="#000000">description</text>
<polygon fill="none" stroke="#000000" points="143.5,-157 143.5,-179 227.5,-179 227.5,-157 143.5,-157"/>
<text text-anchor="start" x="146.5" y="-164.7" font-family="Helvetica,sans-Serif" font-size="11.00" fill="#000000">varchar[255]</text>
<polygon fill="none" stroke="#000000" points="10.5,-135 10.5,-157 143.5,-157 143.5,-135 10.5,-135"/>
<text text-anchor="start" x="30.5" y="-142.1" font-family="Helvetica,sans-Serif" font-size="11.00" fill="#000000">comments</text>
<polygon fill="none" stroke="#000000" points="143.5,-135 143.5,-157 227.5,-157 227.5,-135 143.5,-135"/>
<text text-anchor="start" x="146.5" y="-142.7" font-family="Helvetica,sans-Serif" font-size="11.00" fill="#000000">varchar[255]</text>
<polygon fill="none" stroke="#000000" points="10.5,-113 10.5,-135 143.5,-135 143.5,-113 10.5,-113"/>
<text text-anchor="start" x="30.5" y="-120.1" font-family="Helvetica,sans-Serif" font-size="11.00" fill="#000000">tag</text>
<polygon fill="none" stroke="#000000" points="143.5,-113 143.5,-135 227.5,-135 227.5,-113 143.5,-113"/>
<text text-anchor="start" x="146.5" y="-120.7" font-family="Helvetica,sans-Serif" font-size="11.00" fill="#000000">varchar[255]</text>
<polygon fill="none" stroke="#000000" points="10.5,-91 10.5,-113 143.5,-113 143.5,-91 10.5,-91"/>
<text text-anchor="start" x="30.5" y="-98.1" font-family="Helvetica,sans-Serif" font-size="11.00" fill="#000000">liquibase</text>
<polygon fill="none" stroke="#000000" points="143.5,-91 143.5,-113 227.5,-113 227.5,-91 143.5,-91"/>
<text text-anchor="start" x="146.5" y="-98.7" font-family="Helvetica,sans-Serif" font-size="11.00" fill="#000000">varchar[20]</text>
<polygon fill="none" stroke="#000000" points="10.5,-69 10.5,-91 143.5,-91 143.5,-69 10.5,-69"/>
<text text-anchor="start" x="30.5" y="-76.1" font-family="Helvetica,sans-Serif" font-size="11.00" fill="#000000">contexts</text>
<polygon fill="none" stroke="#000000" points="143.5,-69 143.5,-91 227.5,-91 227.5,-69 143.5,-69"/>
<text text-anchor="start" x="146.5" y="-76.7" font-family="Helvetica,sans-Serif" font-size="11.00" fill="#000000">varchar[255]</text>
<polygon fill="none" stroke="#000000" points="10.5,-47 10.5,-69 143.5,-69 143.5,-47 10.5,-47"/>
<text text-anchor="start" x="30.5" y="-54.1" font-family="Helvetica,sans-Serif" font-size="11.00" fill="#000000">labels</text>
<polygon fill="none" stroke="#000000" points="143.5,-47 143.5,-69 227.5,-69 227.5,-47 143.5,-47"/>
<text text-anchor="start" x="146.5" y="-54.7" font-family="Helvetica,sans-Serif" font-size="11.00" fill="#000000">varchar[255]</text>
<polygon fill="none" stroke="#000000" points="10.5,-25 10.5,-47 143.5,-47 143.5,-25 10.5,-25"/>
<text text-anchor="start" x="30.5" y="-32.1" font-family="Helvetica,sans-Serif" font-size="11.00" fill="#000000">deployment_id</text>
<polygon fill="none" stroke="#000000" points="143.5,-25 143.5,-47 227.5,-47 227.5,-25 143.5,-25"/>
<text text-anchor="start" x="146.5" y="-32.7" font-family="Helvetica,sans-Serif" font-size="11.00" fill="#000000">varchar[10]</text>
<polygon fill="#ffffff" stroke="transparent" points="10.5,-6 10.5,-25 65.5,-25 65.5,-6 10.5,-6"/>
<polygon fill="none" stroke="#000000" points="10.5,-6 10.5,-25 65.5,-25 65.5,-6 10.5,-6"/>
<text text-anchor="start" x="13.5" y="-12.1" font-family="Helvetica,sans-Serif" font-size="11.00" fill="#000000">&lt; 0</text>
<polygon fill="#ffffff" stroke="transparent" points="65.5,-6 65.5,-25 143.5,-25 143.5,-6 65.5,-6"/>
<polygon fill="none" stroke="#000000" points="65.5,-6 65.5,-25 143.5,-25 143.5,-6 65.5,-6"/>
<text text-anchor="start" x="101.9956" y="-12.1" font-family="Helvetica,sans-Serif" font-size="11.00" fill="#000000">88 rows</text>
<polygon fill="#ffffff" stroke="transparent" points="143.5,-6 143.5,-25 227.5,-25 227.5,-6 143.5,-6"/>
<polygon fill="none" stroke="#000000" points="143.5,-6 143.5,-25 227.5,-25 227.5,-6 143.5,-6"/>
<text text-anchor="start" x="208.9053" y="-12.1" font-family="Helvetica,sans-Serif" font-size="11.00" fill="#000000">0 &gt;</text>
<polygon fill="none" stroke="#000000" stroke-width="2" points="9,-5 9,-357 228,-357 228,-5 9,-5"/>
</a>
</g>
</g>
</g>
</svg>
