<?xml version="1.0" encoding="UTF-8" standalone="no"?>
<!DOCTYPE svg PUBLIC "-//W3C//DTD SVG 1.1//EN"
 "http://www.w3.org/Graphics/SVG/1.1/DTD/svg11.dtd">
<!-- Generated by graphviz version 2.40.1 (20161225.0304)
 -->
<!-- Title: fed_user_required_action Pages: 1 -->
<svg width="262pt" height="150pt"
 viewBox="0.00 0.00 262.00 150.00" xmlns="http://www.w3.org/2000/svg" xmlns:xlink="http://www.w3.org/1999/xlink">
<g id="graph0" class="graph" transform="scale(1 1) rotate(0) translate(4 146)">
<title>fed_user_required_action</title>
<polygon fill="#ffffff" stroke="transparent" points="-4,4 -4,-146 258,-146 258,4 -4,4"/>
<!-- fed_user_required_action -->
<g id="node1" class="node">
<title>fed_user_required_action</title>
<g id="a_node1"><a xlink:href="../../tables/fed_user_required_action.html" xlink:title="fed_user_required_action" target="_top">
<polygon fill="#ffffff" stroke="transparent" points="8,-4 8,-138 246,-138 246,-4 8,-4"/>
<polygon fill="#f5f5f5" stroke="transparent" points="10,-113 10,-136 244,-136 244,-113 10,-113"/>
<polygon fill="none" stroke="#000000" points="10,-113 10,-136 244,-136 244,-113 10,-113"/>
<text text-anchor="start" x="15" y="-122.1" font-family="Helvetica,sans-Serif" font-weight="bold" font-size="11.00" fill="#000000">fed_user_required_action</text>
<text text-anchor="start" x="209.0437" y="-121.1" font-family="Helvetica,sans-Serif" font-size="11.00" fill="#000000">[table]</text>
<polygon fill="none" stroke="#000000" points="10,-91 10,-113 177,-113 177,-91 10,-91"/>
<image xlink:href="../../images/primaryKeys.png" width="11px" height="12px" preserveAspectRatio="xMinYMin meet" x="15" y="-108"/>
<text text-anchor="start" x="30" y="-98.1" font-family="Helvetica,sans-Serif" font-size="11.00" fill="#000000">required_action</text>
<polygon fill="none" stroke="#000000" points="177,-91 177,-113 244,-113 244,-91 177,-91"/>
<text text-anchor="start" x="179.9365" y="-98.7" font-family="Helvetica,sans-Serif" font-size="11.00" fill="#000000">varchar[255]</text>
<polygon fill="none" stroke="#000000" points="10,-69 10,-91 177,-91 177,-69 10,-69"/>
<image xlink:href="../../images/primaryKeys.png" width="11px" height="12px" preserveAspectRatio="xMinYMin meet" x="15" y="-86"/>
<text text-anchor="start" x="30" y="-76.1" font-family="Helvetica,sans-Serif" font-size="11.00" fill="#000000">user_id</text>
<polygon fill="none" stroke="#000000" points="177,-69 177,-91 244,-91 244,-69 177,-69"/>
<text text-anchor="start" x="179.9365" y="-76.7" font-family="Helvetica,sans-Serif" font-size="11.00" fill="#000000">varchar[255]</text>
<polygon fill="#ffffff" stroke="transparent" points="10,-47 10,-69 177,-69 177,-47 10,-47"/>
<polygon fill="none" stroke="#000000" points="10,-47 10,-69 177,-69 177,-47 10,-47"/>
<text text-anchor="start" x="30" y="-54.1" font-family="Helvetica,sans-Serif" font-size="11.00" fill="#000000">realm_id</text>
<polygon fill="none" stroke="#000000" points="177,-47 177,-69 244,-69 244,-47 177,-47"/>
<text text-anchor="start" x="180" y="-54.7" font-family="Helvetica,sans-Serif" font-size="11.00" fill="#000000">varchar[36]</text>
<polygon fill="none" stroke="#000000" points="10,-25 10,-47 177,-47 177,-25 10,-25"/>
<text text-anchor="start" x="30" y="-32.1" font-family="Helvetica,sans-Serif" font-size="11.00" fill="#000000">storage_provider_id</text>
<polygon fill="none" stroke="#000000" points="177,-25 177,-47 244,-47 244,-25 177,-25"/>
<text text-anchor="start" x="180" y="-32.7" font-family="Helvetica,sans-Serif" font-size="11.00" fill="#000000">varchar[36]</text>
<polygon fill="#ffffff" stroke="transparent" points="10,-6 10,-25 85,-25 85,-6 10,-6"/>
<polygon fill="none" stroke="#000000" points="10,-6 10,-25 85,-25 85,-6 10,-6"/>
<text text-anchor="start" x="13" y="-12.1" font-family="Helvetica,sans-Serif" font-size="11.00" fill="#000000">&lt; 0</text>
<polygon fill="#ffffff" stroke="transparent" points="85,-6 85,-25 177,-25 177,-6 85,-6"/>
<polygon fill="none" stroke="#000000" points="85,-6 85,-25 177,-25 177,-6 85,-6"/>
<text text-anchor="start" x="141.6105" y="-12.1" font-family="Helvetica,sans-Serif" font-size="11.00" fill="#000000">0 rows</text>
<polygon fill="#ffffff" stroke="transparent" points="177,-6 177,-25 244,-25 244,-6 177,-6"/>
<polygon fill="none" stroke="#000000" points="177,-6 177,-25 244,-25 244,-6 177,-6"/>
<text text-anchor="start" x="225.4053" y="-12.1" font-family="Helvetica,sans-Serif" font-size="11.00" fill="#000000">0 &gt;</text>
<polygon fill="none" stroke="#000000" stroke-width="2" points="9,-5 9,-137 245,-137 245,-5 9,-5"/>
</a>
</g>
</g>
</g>
</svg>
