<?xml version="1.0" encoding="UTF-8" standalone="no"?>
<!DOCTYPE svg PUBLIC "-//W3C//DTD SVG 1.1//EN"
 "http://www.w3.org/Graphics/SVG/1.1/DTD/svg11.dtd">
<!-- Generated by graphviz version 2.40.1 (20161225.0304)
 -->
<!-- Title: fed_user_attribute Pages: 1 -->
<svg width="237pt" height="194pt"
 viewBox="0.00 0.00 237.00 194.00" xmlns="http://www.w3.org/2000/svg" xmlns:xlink="http://www.w3.org/1999/xlink">
<g id="graph0" class="graph" transform="scale(1 1) rotate(0) translate(4 190)">
<title>fed_user_attribute</title>
<polygon fill="#ffffff" stroke="transparent" points="-4,4 -4,-190 233,-190 233,4 -4,4"/>
<!-- fed_user_attribute -->
<g id="node1" class="node">
<title>fed_user_attribute</title>
<g id="a_node1"><a xlink:href="../../tables/fed_user_attribute.html" xlink:title="fed_user_attribute" target="_top">
<polygon fill="#ffffff" stroke="transparent" points="8,-4 8,-182 221,-182 221,-4 8,-4"/>
<polygon fill="#f5f5f5" stroke="transparent" points="10.5,-157 10.5,-180 219.5,-180 219.5,-157 10.5,-157"/>
<polygon fill="none" stroke="#000000" points="10.5,-157 10.5,-180 219.5,-180 219.5,-157 10.5,-157"/>
<text text-anchor="start" x="15.5" y="-166.1" font-family="Helvetica,sans-Serif" font-weight="bold" font-size="11.00" fill="#000000">fed_user_attribute</text>
<text text-anchor="start" x="184.5437" y="-165.1" font-family="Helvetica,sans-Serif" font-size="11.00" fill="#000000">[table]</text>
<polygon fill="none" stroke="#000000" points="10.5,-135 10.5,-157 146.5,-157 146.5,-135 10.5,-135"/>
<image xlink:href="../../images/primaryKeys.png" width="11px" height="12px" preserveAspectRatio="xMinYMin meet" x="15.5" y="-152"/>
<text text-anchor="start" x="30.5" y="-142.1" font-family="Helvetica,sans-Serif" font-size="11.00" fill="#000000">id</text>
<polygon fill="none" stroke="#000000" points="146.5,-135 146.5,-157 219.5,-157 219.5,-135 146.5,-135"/>
<text text-anchor="start" x="149.5" y="-142.7" font-family="Helvetica,sans-Serif" font-size="11.00" fill="#000000">varchar[36]</text>
<polygon fill="#ffffff" stroke="transparent" points="10.5,-113 10.5,-135 146.5,-135 146.5,-113 10.5,-113"/>
<polygon fill="none" stroke="#000000" points="10.5,-113 10.5,-135 146.5,-135 146.5,-113 10.5,-113"/>
<text text-anchor="start" x="30.5" y="-120.1" font-family="Helvetica,sans-Serif" font-size="11.00" fill="#000000">name</text>
<polygon fill="none" stroke="#000000" points="146.5,-113 146.5,-135 219.5,-135 219.5,-113 146.5,-113"/>
<text text-anchor="start" x="149.5" y="-120.7" font-family="Helvetica,sans-Serif" font-size="11.00" fill="#000000">varchar[255]</text>
<polygon fill="#ffffff" stroke="transparent" points="10.5,-91 10.5,-113 146.5,-113 146.5,-91 10.5,-91"/>
<polygon fill="none" stroke="#000000" points="10.5,-91 10.5,-113 146.5,-113 146.5,-91 10.5,-91"/>
<image xlink:href="../../images/foreignKeys.png" width="11px" height="12px" preserveAspectRatio="xMinYMin meet" x="15.5" y="-108"/>
<text text-anchor="start" x="30.5" y="-98.1" font-family="Helvetica,sans-Serif" font-size="11.00" fill="#000000">user_id</text>
<polygon fill="none" stroke="#000000" points="146.5,-91 146.5,-113 219.5,-113 219.5,-91 146.5,-91"/>
<text text-anchor="start" x="149.5" y="-98.7" font-family="Helvetica,sans-Serif" font-size="11.00" fill="#000000">varchar[255]</text>
<polygon fill="#ffffff" stroke="transparent" points="10.5,-69 10.5,-91 146.5,-91 146.5,-69 10.5,-69"/>
<polygon fill="none" stroke="#000000" points="10.5,-69 10.5,-91 146.5,-91 146.5,-69 10.5,-69"/>
<text text-anchor="start" x="30.5" y="-76.1" font-family="Helvetica,sans-Serif" font-size="11.00" fill="#000000">realm_id</text>
<polygon fill="none" stroke="#000000" points="146.5,-69 146.5,-91 219.5,-91 219.5,-69 146.5,-69"/>
<text text-anchor="start" x="149.5" y="-76.7" font-family="Helvetica,sans-Serif" font-size="11.00" fill="#000000">varchar[36]</text>
<polygon fill="none" stroke="#000000" points="10.5,-47 10.5,-69 146.5,-69 146.5,-47 10.5,-47"/>
<text text-anchor="start" x="30.5" y="-54.1" font-family="Helvetica,sans-Serif" font-size="11.00" fill="#000000">storage_provider_id</text>
<polygon fill="none" stroke="#000000" points="146.5,-47 146.5,-69 219.5,-69 219.5,-47 146.5,-47"/>
<text text-anchor="start" x="149.5" y="-54.7" font-family="Helvetica,sans-Serif" font-size="11.00" fill="#000000">varchar[36]</text>
<polygon fill="none" stroke="#000000" points="10.5,-25 10.5,-47 146.5,-47 146.5,-25 10.5,-25"/>
<text text-anchor="start" x="30.5" y="-32.1" font-family="Helvetica,sans-Serif" font-size="11.00" fill="#000000">value</text>
<polygon fill="none" stroke="#000000" points="146.5,-25 146.5,-47 219.5,-47 219.5,-25 146.5,-25"/>
<text text-anchor="start" x="149.3791" y="-32.7" font-family="Helvetica,sans-Serif" font-size="11.00" fill="#000000">varchar[2024]</text>
<polygon fill="#ffffff" stroke="transparent" points="10.5,-6 10.5,-25 69.5,-25 69.5,-6 10.5,-6"/>
<polygon fill="none" stroke="#000000" points="10.5,-6 10.5,-25 69.5,-25 69.5,-6 10.5,-6"/>
<text text-anchor="start" x="13.5" y="-12.1" font-family="Helvetica,sans-Serif" font-size="11.00" fill="#000000">&lt; 0</text>
<polygon fill="#ffffff" stroke="transparent" points="69.5,-6 69.5,-25 146.5,-25 146.5,-6 69.5,-6"/>
<polygon fill="none" stroke="#000000" points="69.5,-6 69.5,-25 146.5,-25 146.5,-6 69.5,-6"/>
<text text-anchor="start" x="111.1105" y="-12.1" font-family="Helvetica,sans-Serif" font-size="11.00" fill="#000000">0 rows</text>
<polygon fill="#ffffff" stroke="transparent" points="146.5,-6 146.5,-25 219.5,-25 219.5,-6 146.5,-6"/>
<polygon fill="none" stroke="#000000" points="146.5,-6 146.5,-25 219.5,-25 219.5,-6 146.5,-6"/>
<text text-anchor="start" x="200.9053" y="-12.1" font-family="Helvetica,sans-Serif" font-size="11.00" fill="#000000">0 &gt;</text>
<polygon fill="none" stroke="#000000" stroke-width="2" points="9,-5 9,-181 220,-181 220,-5 9,-5"/>
</a>
</g>
</g>
</g>
</svg>
