<?xml version="1.0" encoding="UTF-8" standalone="no"?>
<!DOCTYPE svg PUBLIC "-//W3C//DTD SVG 1.1//EN"
 "http://www.w3.org/Graphics/SVG/1.1/DTD/svg11.dtd">
<!-- Generated by graphviz version 2.40.1 (20161225.0304)
 -->
<!-- Title: migration_model Pages: 1 -->
<svg width="206pt" height="128pt"
 viewBox="0.00 0.00 206.00 128.00" xmlns="http://www.w3.org/2000/svg" xmlns:xlink="http://www.w3.org/1999/xlink">
<g id="graph0" class="graph" transform="scale(1 1) rotate(0) translate(4 124)">
<title>migration_model</title>
<polygon fill="#ffffff" stroke="transparent" points="-4,4 -4,-124 202,-124 202,4 -4,4"/>
<!-- migration_model -->
<g id="node1" class="node">
<title>migration_model</title>
<g id="a_node1"><a xlink:href="../../tables/migration_model.html" xlink:title="migration_model" target="_top">
<polygon fill="#ffffff" stroke="transparent" points="8,-4 8,-116 190,-116 190,-4 8,-4"/>
<polygon fill="#f5f5f5" stroke="transparent" points="10,-91 10,-114 188,-114 188,-91 10,-91"/>
<polygon fill="none" stroke="#000000" points="10,-91 10,-114 188,-114 188,-91 10,-91"/>
<text text-anchor="start" x="15" y="-100.1" font-family="Helvetica,sans-Serif" font-weight="bold" font-size="11.00" fill="#000000">migration_model</text>
<text text-anchor="start" x="153.0437" y="-99.1" font-family="Helvetica,sans-Serif" font-size="11.00" fill="#000000">[table]</text>
<polygon fill="none" stroke="#000000" points="10,-69 10,-91 127,-91 127,-69 10,-69"/>
<image xlink:href="../../images/primaryKeys.png" width="11px" height="12px" preserveAspectRatio="xMinYMin meet" x="15" y="-86"/>
<text text-anchor="start" x="30" y="-76.1" font-family="Helvetica,sans-Serif" font-size="11.00" fill="#000000">id</text>
<polygon fill="none" stroke="#000000" points="127,-69 127,-91 188,-91 188,-69 127,-69"/>
<text text-anchor="start" x="129.994" y="-76.7" font-family="Helvetica,sans-Serif" font-size="11.00" fill="#000000">varchar[36]</text>
<polygon fill="none" stroke="#000000" points="10,-47 10,-69 127,-69 127,-47 10,-47"/>
<text text-anchor="start" x="30" y="-54.1" font-family="Helvetica,sans-Serif" font-size="11.00" fill="#000000">version</text>
<polygon fill="none" stroke="#000000" points="127,-47 127,-69 188,-69 188,-47 127,-47"/>
<text text-anchor="start" x="129.994" y="-54.7" font-family="Helvetica,sans-Serif" font-size="11.00" fill="#000000">varchar[36]</text>
<polygon fill="#ffffff" stroke="transparent" points="10,-25 10,-47 127,-47 127,-25 10,-25"/>
<polygon fill="none" stroke="#000000" points="10,-25 10,-47 127,-47 127,-25 10,-25"/>
<text text-anchor="start" x="30" y="-32.1" font-family="Helvetica,sans-Serif" font-size="11.00" fill="#000000">update_time</text>
<polygon fill="none" stroke="#000000" points="127,-25 127,-47 188,-47 188,-25 127,-25"/>
<text text-anchor="start" x="130" y="-32.7" font-family="Helvetica,sans-Serif" font-size="11.00" fill="#000000">int8[19]</text>
<polygon fill="#ffffff" stroke="transparent" points="10,-6 10,-25 63,-25 63,-6 10,-6"/>
<polygon fill="none" stroke="#000000" points="10,-6 10,-25 63,-25 63,-6 10,-6"/>
<text text-anchor="start" x="13" y="-12.1" font-family="Helvetica,sans-Serif" font-size="11.00" fill="#000000">&lt; 0</text>
<polygon fill="#ffffff" stroke="transparent" points="63,-6 63,-25 127,-25 127,-6 63,-6"/>
<polygon fill="none" stroke="#000000" points="63,-6 63,-25 127,-25 127,-6 63,-6"/>
<text text-anchor="start" x="97.1105" y="-12.1" font-family="Helvetica,sans-Serif" font-size="11.00" fill="#000000">1 row</text>
<polygon fill="#ffffff" stroke="transparent" points="127,-6 127,-25 188,-25 188,-6 127,-6"/>
<polygon fill="none" stroke="#000000" points="127,-6 127,-25 188,-25 188,-6 127,-6"/>
<text text-anchor="start" x="169.4053" y="-12.1" font-family="Helvetica,sans-Serif" font-size="11.00" fill="#000000">0 &gt;</text>
<polygon fill="none" stroke="#000000" stroke-width="2" points="9,-5 9,-115 189,-115 189,-5 9,-5"/>
</a>
</g>
</g>
</g>
</svg>
