<?xml version="1.0" encoding="UTF-8" standalone="no"?>
<!DOCTYPE svg PUBLIC "-//W3C//DTD SVG 1.1//EN"
 "http://www.w3.org/Graphics/SVG/1.1/DTD/svg11.dtd">
<!-- Generated by graphviz version 2.40.1 (20161225.0304)
 -->
<!-- Title: offline_user_session Pages: 1 -->
<svg width="258pt" height="216pt"
 viewBox="0.00 0.00 258.00 216.00" xmlns="http://www.w3.org/2000/svg" xmlns:xlink="http://www.w3.org/1999/xlink">
<g id="graph0" class="graph" transform="scale(1 1) rotate(0) translate(4 212)">
<title>offline_user_session</title>
<polygon fill="#ffffff" stroke="transparent" points="-4,4 -4,-212 254,-212 254,4 -4,4"/>
<!-- offline_user_session -->
<g id="node1" class="node">
<title>offline_user_session</title>
<g id="a_node1"><a xlink:href="../../tables/offline_user_session.html" xlink:title="offline_user_session" target="_top">
<polygon fill="#ffffff" stroke="transparent" points="8,-4 8,-204 242,-204 242,-4 8,-4"/>
<polygon fill="#f5f5f5" stroke="transparent" points="10,-179 10,-202 240,-202 240,-179 10,-179"/>
<polygon fill="none" stroke="#000000" points="10,-179 10,-202 240,-202 240,-179 10,-179"/>
<text text-anchor="start" x="15" y="-188.1" font-family="Helvetica,sans-Serif" font-weight="bold" font-size="11.00" fill="#000000">offline_user_session</text>
<text text-anchor="start" x="205.0437" y="-187.1" font-family="Helvetica,sans-Serif" font-size="11.00" fill="#000000">[table]</text>
<polygon fill="none" stroke="#000000" points="10,-157 10,-179 150,-179 150,-157 10,-157"/>
<image xlink:href="../../images/primaryKeys.png" width="11px" height="12px" preserveAspectRatio="xMinYMin meet" x="15" y="-174"/>
<text text-anchor="start" x="30" y="-164.1" font-family="Helvetica,sans-Serif" font-size="11.00" fill="#000000">user_session_id</text>
<polygon fill="none" stroke="#000000" points="150,-157 150,-179 240,-179 240,-157 150,-157"/>
<text text-anchor="start" x="153" y="-164.7" font-family="Helvetica,sans-Serif" font-size="11.00" fill="#000000">varchar[36]</text>
<polygon fill="none" stroke="#000000" points="10,-135 10,-157 150,-157 150,-135 10,-135"/>
<image xlink:href="../../images/foreignKeys.png" width="11px" height="12px" preserveAspectRatio="xMinYMin meet" x="15" y="-152"/>
<text text-anchor="start" x="30" y="-142.1" font-family="Helvetica,sans-Serif" font-size="11.00" fill="#000000">user_id</text>
<polygon fill="none" stroke="#000000" points="150,-135 150,-157 240,-157 240,-135 150,-135"/>
<text text-anchor="start" x="153" y="-142.7" font-family="Helvetica,sans-Serif" font-size="11.00" fill="#000000">varchar[255]</text>
<polygon fill="none" stroke="#000000" points="10,-113 10,-135 150,-135 150,-113 10,-113"/>
<text text-anchor="start" x="30" y="-120.1" font-family="Helvetica,sans-Serif" font-size="11.00" fill="#000000">realm_id</text>
<polygon fill="none" stroke="#000000" points="150,-113 150,-135 240,-135 240,-113 150,-113"/>
<text text-anchor="start" x="153" y="-120.7" font-family="Helvetica,sans-Serif" font-size="11.00" fill="#000000">varchar[36]</text>
<polygon fill="#ffffff" stroke="transparent" points="10,-91 10,-113 150,-113 150,-91 10,-91"/>
<polygon fill="none" stroke="#000000" points="10,-91 10,-113 150,-113 150,-91 10,-91"/>
<text text-anchor="start" x="30" y="-98.1" font-family="Helvetica,sans-Serif" font-size="11.00" fill="#000000">created_on</text>
<polygon fill="none" stroke="#000000" points="150,-91 150,-113 240,-113 240,-91 150,-91"/>
<text text-anchor="start" x="153" y="-98.7" font-family="Helvetica,sans-Serif" font-size="11.00" fill="#000000">int4[10]</text>
<polygon fill="none" stroke="#000000" points="10,-69 10,-91 150,-91 150,-69 10,-69"/>
<image xlink:href="../../images/primaryKeys.png" width="11px" height="12px" preserveAspectRatio="xMinYMin meet" x="15" y="-86"/>
<text text-anchor="start" x="30" y="-76.1" font-family="Helvetica,sans-Serif" font-size="11.00" fill="#000000">offline_flag</text>
<polygon fill="none" stroke="#000000" points="150,-69 150,-91 240,-91 240,-69 150,-69"/>
<text text-anchor="start" x="153" y="-76.7" font-family="Helvetica,sans-Serif" font-size="11.00" fill="#000000">varchar[4]</text>
<polygon fill="none" stroke="#000000" points="10,-47 10,-69 150,-69 150,-47 10,-47"/>
<text text-anchor="start" x="30" y="-54.1" font-family="Helvetica,sans-Serif" font-size="11.00" fill="#000000">data</text>
<polygon fill="none" stroke="#000000" points="150,-47 150,-69 240,-69 240,-47 150,-47"/>
<text text-anchor="start" x="152.5042" y="-54.7" font-family="Helvetica,sans-Serif" font-size="11.00" fill="#000000">text[2147483647]</text>
<polygon fill="none" stroke="#000000" points="10,-25 10,-47 150,-47 150,-25 10,-25"/>
<text text-anchor="start" x="30" y="-32.1" font-family="Helvetica,sans-Serif" font-size="11.00" fill="#000000">last_session_refresh</text>
<polygon fill="none" stroke="#000000" points="150,-25 150,-47 240,-47 240,-25 150,-25"/>
<text text-anchor="start" x="153" y="-32.7" font-family="Helvetica,sans-Serif" font-size="11.00" fill="#000000">int4[10]</text>
<polygon fill="#ffffff" stroke="transparent" points="10,-6 10,-25 71,-25 71,-6 10,-6"/>
<polygon fill="none" stroke="#000000" points="10,-6 10,-25 71,-25 71,-6 10,-6"/>
<text text-anchor="start" x="13" y="-12.1" font-family="Helvetica,sans-Serif" font-size="11.00" fill="#000000">&lt; 0</text>
<polygon fill="#ffffff" stroke="transparent" points="71,-6 71,-25 150,-25 150,-6 71,-6"/>
<polygon fill="none" stroke="#000000" points="71,-6 71,-25 150,-25 150,-6 71,-6"/>
<text text-anchor="start" x="114.6105" y="-12.1" font-family="Helvetica,sans-Serif" font-size="11.00" fill="#000000">0 rows</text>
<polygon fill="#ffffff" stroke="transparent" points="150,-6 150,-25 240,-25 240,-6 150,-6"/>
<polygon fill="none" stroke="#000000" points="150,-6 150,-25 240,-25 240,-6 150,-6"/>
<text text-anchor="start" x="221.4053" y="-12.1" font-family="Helvetica,sans-Serif" font-size="11.00" fill="#000000">0 &gt;</text>
<polygon fill="none" stroke="#000000" stroke-width="2" points="9,-5 9,-203 241,-203 241,-5 9,-5"/>
</a>
</g>
</g>
</g>
</svg>
