<?xml version="1.0" encoding="UTF-8" standalone="no"?>
<!DOCTYPE svg PUBLIC "-//W3C//DTD SVG 1.1//EN"
 "http://www.w3.org/Graphics/SVG/1.1/DTD/svg11.dtd">
<!-- Generated by graphviz version 2.40.1 (20161225.0304)
 -->
<!-- Title: oneDegreeRelationshipsDiagram Pages: 1 -->
<svg width="435pt" height="190pt"
 viewBox="0.00 0.00 435.00 189.70" xmlns="http://www.w3.org/2000/svg" xmlns:xlink="http://www.w3.org/1999/xlink">
<g id="graph0" class="graph" transform="scale(1 1) rotate(0) translate(4 185.7)">
<title>oneDegreeRelationshipsDiagram</title>
<polygon fill="#ffffff" stroke="transparent" points="-4,4 -4,-185.7 431,-185.7 431,4 -4,4"/>
<text text-anchor="middle" x="72.4936" y="-7.3" font-family="Helvetica,sans-Serif" font-size="11.00" fill="#000000">Generated by SchemaSpy</text>
<!-- associated_policy -->
<g id="node1" class="node">
<title>associated_policy</title>
<g id="a_node1"><a xlink:href="../../tables/associated_policy.html" xlink:title="associated_policy" target="_top">
<polygon fill="#ffffff" stroke="transparent" points="213,-87.7 213,-177.7 419,-177.7 419,-87.7 213,-87.7"/>
<polygon fill="#f5f5f5" stroke="transparent" points="215,-152.7 215,-175.7 417,-175.7 417,-152.7 215,-152.7"/>
<polygon fill="none" stroke="#000000" points="215,-152.7 215,-175.7 417,-175.7 417,-152.7 215,-152.7"/>
<text text-anchor="start" x="220" y="-161.8" font-family="Helvetica,sans-Serif" font-weight="bold" font-size="11.00" fill="#000000">associated_policy</text>
<text text-anchor="start" x="382.0437" y="-160.8" font-family="Helvetica,sans-Serif" font-size="11.00" fill="#000000">[table]</text>
<polygon fill="none" stroke="#000000" points="215,-130.7 215,-152.7 356,-152.7 356,-130.7 215,-130.7"/>
<image xlink:href="../../images/primaryKeys.png" width="11px" height="12px" preserveAspectRatio="xMinYMin meet" x="220" y="-147.7"/>
<text text-anchor="start" x="235" y="-137.8" font-family="Helvetica,sans-Serif" font-size="11.00" fill="#000000">policy_id</text>
<polygon fill="none" stroke="#000000" points="356,-130.7 356,-152.7 417,-152.7 417,-130.7 356,-130.7"/>
<text text-anchor="start" x="358.994" y="-138.4" font-family="Helvetica,sans-Serif" font-size="11.00" fill="#000000">varchar[36]</text>
<polygon fill="none" stroke="#000000" points="215,-108.7 215,-130.7 356,-130.7 356,-108.7 215,-108.7"/>
<image xlink:href="../../images/primaryKeys.png" width="11px" height="12px" preserveAspectRatio="xMinYMin meet" x="220" y="-125.7"/>
<text text-anchor="start" x="235" y="-115.8" font-family="Helvetica,sans-Serif" font-size="11.00" fill="#000000">associated_policy_id</text>
<polygon fill="none" stroke="#000000" points="356,-108.7 356,-130.7 417,-130.7 417,-108.7 356,-108.7"/>
<text text-anchor="start" x="358.994" y="-116.4" font-family="Helvetica,sans-Serif" font-size="11.00" fill="#000000">varchar[36]</text>
<polygon fill="#ffffff" stroke="transparent" points="215,-89.7 215,-108.7 277,-108.7 277,-89.7 215,-89.7"/>
<polygon fill="none" stroke="#000000" points="215,-89.7 215,-108.7 277,-108.7 277,-89.7 215,-89.7"/>
<text text-anchor="start" x="218" y="-95.8" font-family="Helvetica,sans-Serif" font-size="11.00" fill="#000000">&lt; 2</text>
<polygon fill="#ffffff" stroke="transparent" points="277,-89.7 277,-108.7 356,-108.7 356,-89.7 277,-89.7"/>
<polygon fill="none" stroke="#000000" points="277,-89.7 277,-108.7 356,-108.7 356,-89.7 277,-89.7"/>
<text text-anchor="start" x="320.6105" y="-95.8" font-family="Helvetica,sans-Serif" font-size="11.00" fill="#000000">0 rows</text>
<polygon fill="#ffffff" stroke="transparent" points="356,-89.7 356,-108.7 417,-108.7 417,-89.7 356,-89.7"/>
<polygon fill="none" stroke="#000000" points="356,-89.7 356,-108.7 417,-108.7 417,-89.7 356,-89.7"/>
<text text-anchor="start" x="398.4053" y="-95.8" font-family="Helvetica,sans-Serif" font-size="11.00" fill="#000000">0 &gt;</text>
<polygon fill="none" stroke="#000000" stroke-width="2" points="214,-88.7 214,-176.7 418,-176.7 418,-88.7 214,-88.7"/>
</a>
</g>
</g>
<!-- resource_server_policy -->
<g id="node2" class="node">
<title>resource_server_policy</title>
<g id="a_node2"><a xlink:href="../../tables/resource_server_policy.html" xlink:title="resource_server_policy" target="_top">
<polygon fill="#ffffff" stroke="transparent" points="8,-38.2 8,-165.2 164,-165.2 164,-38.2 8,-38.2"/>
<polygon fill="#f5f5f5" stroke="transparent" points="8,-141.7 8,-164.7 164,-164.7 164,-141.7 8,-141.7"/>
<polygon fill="none" stroke="#000000" points="8,-141.7 8,-164.7 164,-164.7 164,-141.7 8,-141.7"/>
<text text-anchor="start" x="12.6608" y="-150.8" font-family="Helvetica,sans-Serif" font-weight="bold" font-size="11.00" fill="#000000">resource_server_policy</text>
<text text-anchor="start" x="129.5219" y="-149.8" font-family="Helvetica,sans-Serif" font-size="11.00" fill="#000000">[table]</text>
<polygon fill="none" stroke="#000000" points="8,-119.7 8,-141.7 164,-141.7 164,-119.7 8,-119.7"/>
<image xlink:href="../../images/primaryKeys.png" width="11px" height="12px" preserveAspectRatio="xMinYMin meet" x="13" y="-136.7"/>
<text text-anchor="start" x="29" y="-126.8" font-family="Helvetica,sans-Serif" font-size="11.00" fill="#000000">id</text>
<polygon fill="#ffffff" stroke="transparent" points="8,-97.7 8,-119.7 164,-119.7 164,-97.7 8,-97.7"/>
<polygon fill="none" stroke="#000000" points="8,-97.7 8,-119.7 164,-119.7 164,-97.7 8,-97.7"/>
<text text-anchor="start" x="29" y="-104.8" font-family="Helvetica,sans-Serif" font-size="11.00" fill="#000000">name</text>
<polygon fill="#ffffff" stroke="transparent" points="8,-75.7 8,-97.7 164,-97.7 164,-75.7 8,-75.7"/>
<polygon fill="none" stroke="#000000" points="8,-75.7 8,-97.7 164,-97.7 164,-75.7 8,-75.7"/>
<image xlink:href="../../images/foreignKeys.png" width="11px" height="12px" preserveAspectRatio="xMinYMin meet" x="13" y="-92.7"/>
<text text-anchor="start" x="29" y="-82.8" font-family="Helvetica,sans-Serif" font-size="11.00" fill="#000000">resource_server_id</text>
<polygon fill="none" stroke="#000000" points="8,-56.7 8,-75.7 164,-75.7 164,-56.7 8,-56.7"/>
<text text-anchor="start" x="11" y="-62.8" font-family="Helvetica,sans-Serif" font-size="11.00" fill="#000000">...</text>
<polygon fill="#ffffff" stroke="transparent" points="8,-37.7 8,-56.7 67,-56.7 67,-37.7 8,-37.7"/>
<polygon fill="none" stroke="#000000" points="8,-37.7 8,-56.7 67,-56.7 67,-37.7 8,-37.7"/>
<text text-anchor="start" x="11" y="-43.8" font-family="Helvetica,sans-Serif" font-size="11.00" fill="#000000">&lt; 1</text>
<polygon fill="#ffffff" stroke="transparent" points="67,-37.7 67,-56.7 124,-56.7 124,-37.7 67,-37.7"/>
<polygon fill="none" stroke="#000000" points="67,-37.7 67,-56.7 124,-56.7 124,-37.7 67,-37.7"/>
<text text-anchor="start" x="88.6105" y="-43.8" font-family="Helvetica,sans-Serif" font-size="11.00" fill="#000000">0 rows</text>
<polygon fill="#ffffff" stroke="transparent" points="124,-37.7 124,-56.7 164,-56.7 164,-37.7 124,-37.7"/>
<polygon fill="none" stroke="#000000" points="124,-37.7 124,-56.7 164,-56.7 164,-37.7 124,-37.7"/>
<text text-anchor="start" x="145.4053" y="-43.8" font-family="Helvetica,sans-Serif" font-size="11.00" fill="#000000">6 &gt;</text>
</a>
</g>
</g>
<!-- associated_policy&#45;&gt;resource_server_policy -->
<g id="edge1" class="edge">
<title>associated_policy:w&#45;&gt;resource_server_policy:e</title>
<path fill="none" stroke="#000000" d="M200.5097,-121.4188C188.3398,-124.5125 181.3909,-130.7 164,-130.7"/>
<polygon fill="#000000" stroke="#000000" points="207.0557,-120.6424 215.4241,-123.2749 211.0278,-120.1712 215,-119.7 215,-119.7 215,-119.7 211.0278,-120.1712 214.5759,-116.1251 207.0557,-120.6424 207.0557,-120.6424"/>
<ellipse fill="none" stroke="#000000" cx="203.878" cy="-121.0193" rx="3.2" ry="3.2"/>
</g>
<!-- associated_policy&#45;&gt;resource_server_policy -->
<g id="edge2" class="edge">
<title>associated_policy:w&#45;&gt;resource_server_policy:e</title>
<path fill="none" stroke="#000000" d="M200.5097,-139.9813C188.3398,-136.8875 181.3909,-130.7 164,-130.7"/>
<polygon fill="#000000" stroke="#000000" points="207.0557,-140.7576 214.5759,-145.2749 211.0278,-141.2288 215,-141.7 215,-141.7 215,-141.7 211.0278,-141.2288 215.4241,-138.1251 207.0557,-140.7576 207.0557,-140.7576"/>
<ellipse fill="none" stroke="#000000" cx="203.878" cy="-140.3807" rx="3.2" ry="3.2"/>
</g>
</g>
</svg>
