<?xml version="1.0" encoding="UTF-8" standalone="no"?>
<!DOCTYPE svg PUBLIC "-//W3C//DTD SVG 1.1//EN"
 "http://www.w3.org/Graphics/SVG/1.1/DTD/svg11.dtd">
<!-- Generated by graphviz version 2.40.1 (20161225.0304)
 -->
<!-- Title: oneDegreeRelationshipsDiagram Pages: 1 -->
<svg width="708pt" height="316pt"
 viewBox="0.00 0.00 708.00 316.20" xmlns="http://www.w3.org/2000/svg" xmlns:xlink="http://www.w3.org/1999/xlink">
<g id="graph0" class="graph" transform="scale(1 1) rotate(0) translate(4 312.2)">
<title>oneDegreeRelationshipsDiagram</title>
<polygon fill="#ffffff" stroke="transparent" points="-4,4 -4,-312.2 704,-312.2 704,4 -4,4"/>
<text text-anchor="middle" x="72.4936" y="-7.3" font-family="Helvetica,sans-Serif" font-size="11.00" fill="#000000">Generated by SchemaSpy</text>
<!-- authentication_execution -->
<g id="node1" class="node">
<title>authentication_execution</title>
<g id="a_node1"><a xlink:href="../../tables/authentication_execution.html" xlink:title="authentication_execution" target="_top">
<polygon fill="#ffffff" stroke="transparent" points="456,-38.2 456,-304.2 692,-304.2 692,-38.2 456,-38.2"/>
<polygon fill="#f5f5f5" stroke="transparent" points="458,-279.2 458,-302.2 690,-302.2 690,-279.2 458,-279.2"/>
<polygon fill="none" stroke="#000000" points="458,-279.2 458,-302.2 690,-302.2 690,-279.2 458,-279.2"/>
<text text-anchor="start" x="463" y="-288.3" font-family="Helvetica,sans-Serif" font-weight="bold" font-size="11.00" fill="#000000">authentication_execution</text>
<text text-anchor="start" x="655.0437" y="-287.3" font-family="Helvetica,sans-Serif" font-size="11.00" fill="#000000">[table]</text>
<polygon fill="none" stroke="#000000" points="458,-257.2 458,-279.2 623,-279.2 623,-257.2 458,-257.2"/>
<image xlink:href="../../images/primaryKeys.png" width="11px" height="12px" preserveAspectRatio="xMinYMin meet" x="463" y="-274.2"/>
<text text-anchor="start" x="478" y="-264.3" font-family="Helvetica,sans-Serif" font-size="11.00" fill="#000000">id</text>
<polygon fill="none" stroke="#000000" points="623,-257.2 623,-279.2 690,-279.2 690,-257.2 623,-257.2"/>
<text text-anchor="start" x="626" y="-264.9" font-family="Helvetica,sans-Serif" font-size="11.00" fill="#000000">varchar[36]</text>
<polygon fill="none" stroke="#000000" points="458,-235.2 458,-257.2 623,-257.2 623,-235.2 458,-235.2"/>
<text text-anchor="start" x="478" y="-242.3" font-family="Helvetica,sans-Serif" font-size="11.00" fill="#000000">alias</text>
<polygon fill="none" stroke="#000000" points="623,-235.2 623,-257.2 690,-257.2 690,-235.2 623,-235.2"/>
<text text-anchor="start" x="625.9365" y="-242.9" font-family="Helvetica,sans-Serif" font-size="11.00" fill="#000000">varchar[255]</text>
<polygon fill="none" stroke="#000000" points="458,-213.2 458,-235.2 623,-235.2 623,-213.2 458,-213.2"/>
<text text-anchor="start" x="478" y="-220.3" font-family="Helvetica,sans-Serif" font-size="11.00" fill="#000000">authenticator</text>
<polygon fill="none" stroke="#000000" points="623,-213.2 623,-235.2 690,-235.2 690,-213.2 623,-213.2"/>
<text text-anchor="start" x="626" y="-220.9" font-family="Helvetica,sans-Serif" font-size="11.00" fill="#000000">varchar[36]</text>
<polygon fill="#ffffff" stroke="transparent" points="458,-191.2 458,-213.2 623,-213.2 623,-191.2 458,-191.2"/>
<polygon fill="none" stroke="#000000" points="458,-191.2 458,-213.2 623,-213.2 623,-191.2 458,-191.2"/>
<image xlink:href="../../images/foreignKeys.png" width="11px" height="12px" preserveAspectRatio="xMinYMin meet" x="463" y="-208.2"/>
<text text-anchor="start" x="478" y="-198.3" font-family="Helvetica,sans-Serif" font-size="11.00" fill="#000000">realm_id</text>
<polygon fill="none" stroke="#000000" points="623,-191.2 623,-213.2 690,-213.2 690,-191.2 623,-191.2"/>
<text text-anchor="start" x="626" y="-198.9" font-family="Helvetica,sans-Serif" font-size="11.00" fill="#000000">varchar[36]</text>
<polygon fill="#ffffff" stroke="transparent" points="458,-169.2 458,-191.2 623,-191.2 623,-169.2 458,-169.2"/>
<polygon fill="none" stroke="#000000" points="458,-169.2 458,-191.2 623,-191.2 623,-169.2 458,-169.2"/>
<image xlink:href="../../images/foreignKeys.png" width="11px" height="12px" preserveAspectRatio="xMinYMin meet" x="463" y="-186.2"/>
<text text-anchor="start" x="478" y="-176.3" font-family="Helvetica,sans-Serif" font-size="11.00" fill="#000000">flow_id</text>
<polygon fill="none" stroke="#000000" points="623,-169.2 623,-191.2 690,-191.2 690,-169.2 623,-169.2"/>
<text text-anchor="start" x="626" y="-176.9" font-family="Helvetica,sans-Serif" font-size="11.00" fill="#000000">varchar[36]</text>
<polygon fill="none" stroke="#000000" points="458,-147.2 458,-169.2 623,-169.2 623,-147.2 458,-147.2"/>
<text text-anchor="start" x="478" y="-154.3" font-family="Helvetica,sans-Serif" font-size="11.00" fill="#000000">requirement</text>
<polygon fill="none" stroke="#000000" points="623,-147.2 623,-169.2 690,-169.2 690,-147.2 623,-147.2"/>
<text text-anchor="start" x="626" y="-154.9" font-family="Helvetica,sans-Serif" font-size="11.00" fill="#000000">int4[10]</text>
<polygon fill="none" stroke="#000000" points="458,-125.2 458,-147.2 623,-147.2 623,-125.2 458,-125.2"/>
<text text-anchor="start" x="478" y="-132.3" font-family="Helvetica,sans-Serif" font-size="11.00" fill="#000000">priority</text>
<polygon fill="none" stroke="#000000" points="623,-125.2 623,-147.2 690,-147.2 690,-125.2 623,-125.2"/>
<text text-anchor="start" x="626" y="-132.9" font-family="Helvetica,sans-Serif" font-size="11.00" fill="#000000">int4[10]</text>
<polygon fill="none" stroke="#000000" points="458,-103.2 458,-125.2 623,-125.2 623,-103.2 458,-103.2"/>
<text text-anchor="start" x="478" y="-110.3" font-family="Helvetica,sans-Serif" font-size="11.00" fill="#000000">authenticator_flow</text>
<polygon fill="none" stroke="#000000" points="623,-103.2 623,-125.2 690,-125.2 690,-103.2 623,-103.2"/>
<text text-anchor="start" x="626" y="-110.9" font-family="Helvetica,sans-Serif" font-size="11.00" fill="#000000">bool[1]</text>
<polygon fill="none" stroke="#000000" points="458,-81.2 458,-103.2 623,-103.2 623,-81.2 458,-81.2"/>
<text text-anchor="start" x="478" y="-88.3" font-family="Helvetica,sans-Serif" font-size="11.00" fill="#000000">auth_flow_id</text>
<polygon fill="none" stroke="#000000" points="623,-81.2 623,-103.2 690,-103.2 690,-81.2 623,-81.2"/>
<text text-anchor="start" x="626" y="-88.9" font-family="Helvetica,sans-Serif" font-size="11.00" fill="#000000">varchar[36]</text>
<polygon fill="none" stroke="#000000" points="458,-59.2 458,-81.2 623,-81.2 623,-59.2 458,-59.2"/>
<text text-anchor="start" x="478" y="-66.3" font-family="Helvetica,sans-Serif" font-size="11.00" fill="#000000">auth_config</text>
<polygon fill="none" stroke="#000000" points="623,-59.2 623,-81.2 690,-81.2 690,-59.2 623,-59.2"/>
<text text-anchor="start" x="626" y="-66.9" font-family="Helvetica,sans-Serif" font-size="11.00" fill="#000000">varchar[36]</text>
<polygon fill="#ffffff" stroke="transparent" points="458,-40.2 458,-59.2 529,-59.2 529,-40.2 458,-40.2"/>
<polygon fill="none" stroke="#000000" points="458,-40.2 458,-59.2 529,-59.2 529,-40.2 458,-40.2"/>
<text text-anchor="start" x="461" y="-46.3" font-family="Helvetica,sans-Serif" font-size="11.00" fill="#000000">&lt; 2</text>
<polygon fill="#ffffff" stroke="transparent" points="529,-40.2 529,-59.2 623,-59.2 623,-40.2 529,-40.2"/>
<polygon fill="none" stroke="#000000" points="529,-40.2 529,-59.2 623,-59.2 623,-40.2 529,-40.2"/>
<text text-anchor="start" x="581.4956" y="-46.3" font-family="Helvetica,sans-Serif" font-size="11.00" fill="#000000">47 rows</text>
<polygon fill="#ffffff" stroke="transparent" points="623,-40.2 623,-59.2 690,-59.2 690,-40.2 623,-40.2"/>
<polygon fill="none" stroke="#000000" points="623,-40.2 623,-59.2 690,-59.2 690,-40.2 623,-40.2"/>
<text text-anchor="start" x="671.4053" y="-46.3" font-family="Helvetica,sans-Serif" font-size="11.00" fill="#000000">0 &gt;</text>
<polygon fill="none" stroke="#000000" stroke-width="2" points="457,-39.2 457,-303.2 691,-303.2 691,-39.2 457,-39.2"/>
</a>
</g>
</g>
<!-- authentication_flow -->
<g id="node2" class="node">
<title>authentication_flow</title>
<g id="a_node2"><a xlink:href="../../tables/authentication_flow.html" xlink:title="authentication_flow" target="_top">
<polygon fill="#ffffff" stroke="transparent" points="270,-91.7 270,-196.7 407,-196.7 407,-91.7 270,-91.7"/>
<polygon fill="#f5f5f5" stroke="transparent" points="270.5,-173.2 270.5,-196.2 407.5,-196.2 407.5,-173.2 270.5,-173.2"/>
<polygon fill="none" stroke="#000000" points="270.5,-173.2 270.5,-196.2 407.5,-196.2 407.5,-173.2 270.5,-173.2"/>
<text text-anchor="start" x="275.4299" y="-182.3" font-family="Helvetica,sans-Serif" font-weight="bold" font-size="11.00" fill="#000000">authentication_flow</text>
<text text-anchor="start" x="373.0219" y="-181.3" font-family="Helvetica,sans-Serif" font-size="11.00" fill="#000000">[table]</text>
<polygon fill="none" stroke="#000000" points="270.5,-151.2 270.5,-173.2 407.5,-173.2 407.5,-151.2 270.5,-151.2"/>
<image xlink:href="../../images/primaryKeys.png" width="11px" height="12px" preserveAspectRatio="xMinYMin meet" x="275.5" y="-168.2"/>
<text text-anchor="start" x="292.5" y="-158.3" font-family="Helvetica,sans-Serif" font-size="11.00" fill="#000000">id</text>
<polygon fill="#ffffff" stroke="transparent" points="270.5,-129.2 270.5,-151.2 407.5,-151.2 407.5,-129.2 270.5,-129.2"/>
<polygon fill="none" stroke="#000000" points="270.5,-129.2 270.5,-151.2 407.5,-151.2 407.5,-129.2 270.5,-129.2"/>
<image xlink:href="../../images/foreignKeys.png" width="11px" height="12px" preserveAspectRatio="xMinYMin meet" x="275.5" y="-146.2"/>
<text text-anchor="start" x="292.5" y="-136.3" font-family="Helvetica,sans-Serif" font-size="11.00" fill="#000000">realm_id</text>
<polygon fill="none" stroke="#000000" points="270.5,-110.2 270.5,-129.2 407.5,-129.2 407.5,-110.2 270.5,-110.2"/>
<text text-anchor="start" x="273.5" y="-116.3" font-family="Helvetica,sans-Serif" font-size="11.00" fill="#000000">...</text>
<polygon fill="#ffffff" stroke="transparent" points="270.5,-91.2 270.5,-110.2 316.5,-110.2 316.5,-91.2 270.5,-91.2"/>
<polygon fill="none" stroke="#000000" points="270.5,-91.2 270.5,-110.2 316.5,-110.2 316.5,-91.2 270.5,-91.2"/>
<text text-anchor="start" x="273.5" y="-97.3" font-family="Helvetica,sans-Serif" font-size="11.00" fill="#000000">&lt; 1</text>
<polygon fill="#ffffff" stroke="transparent" points="316.5,-91.2 316.5,-110.2 373.5,-110.2 373.5,-91.2 316.5,-91.2"/>
<polygon fill="none" stroke="#000000" points="316.5,-91.2 316.5,-110.2 373.5,-110.2 373.5,-91.2 316.5,-91.2"/>
<text text-anchor="start" x="331.9956" y="-97.3" font-family="Helvetica,sans-Serif" font-size="11.00" fill="#000000">20 rows</text>
<polygon fill="#ffffff" stroke="transparent" points="373.5,-91.2 373.5,-110.2 407.5,-110.2 407.5,-91.2 373.5,-91.2"/>
<polygon fill="none" stroke="#000000" points="373.5,-91.2 373.5,-110.2 407.5,-110.2 407.5,-91.2 373.5,-91.2"/>
<text text-anchor="start" x="388.9053" y="-97.3" font-family="Helvetica,sans-Serif" font-size="11.00" fill="#000000">1 &gt;</text>
</a>
</g>
</g>
<!-- authentication_execution&#45;&gt;authentication_flow -->
<g id="edge1" class="edge">
<title>authentication_execution:w&#45;&gt;authentication_flow:e</title>
<path fill="none" stroke="#000000" d="M443.7839,-177.544C431.5637,-172.537 425.5568,-162.2 407.5,-162.2"/>
<polygon fill="#000000" stroke="#000000" points="450.1361,-178.7308 457.3388,-183.7388 454.068,-179.4654 458,-180.2 458,-180.2 458,-180.2 454.068,-179.4654 458.6612,-176.6612 450.1361,-178.7308 450.1361,-178.7308"/>
<ellipse fill="none" stroke="#000000" cx="446.9905" cy="-178.1431" rx="3.2" ry="3.2"/>
</g>
<!-- realm -->
<g id="node3" class="node">
<title>realm</title>
<g id="a_node3"><a xlink:href="../../tables/realm.html" xlink:title="realm" target="_top">
<polygon fill="#ffffff" stroke="transparent" points="8,-87.7 8,-214.7 221,-214.7 221,-87.7 8,-87.7"/>
<polygon fill="#f5f5f5" stroke="transparent" points="8.5,-191.2 8.5,-214.2 221.5,-214.2 221.5,-191.2 8.5,-191.2"/>
<polygon fill="none" stroke="#000000" points="8.5,-191.2 8.5,-214.2 221.5,-214.2 221.5,-191.2 8.5,-191.2"/>
<text text-anchor="start" x="13.5" y="-200.3" font-family="Helvetica,sans-Serif" font-weight="bold" font-size="11.00" fill="#000000">realm</text>
<text text-anchor="start" x="186.5437" y="-199.3" font-family="Helvetica,sans-Serif" font-size="11.00" fill="#000000">[table]</text>
<polygon fill="none" stroke="#000000" points="8.5,-169.2 8.5,-191.2 221.5,-191.2 221.5,-169.2 8.5,-169.2"/>
<image xlink:href="../../images/primaryKeys.png" width="11px" height="12px" preserveAspectRatio="xMinYMin meet" x="13.5" y="-186.2"/>
<text text-anchor="start" x="28.5" y="-176.3" font-family="Helvetica,sans-Serif" font-size="11.00" fill="#000000">id</text>
<polygon fill="#ffffff" stroke="transparent" points="8.5,-147.2 8.5,-169.2 221.5,-169.2 221.5,-147.2 8.5,-147.2"/>
<polygon fill="none" stroke="#000000" points="8.5,-147.2 8.5,-169.2 221.5,-169.2 221.5,-147.2 8.5,-147.2"/>
<text text-anchor="start" x="28.5" y="-154.3" font-family="Helvetica,sans-Serif" font-size="11.00" fill="#000000">name</text>
<polygon fill="#ffffff" stroke="transparent" points="8.5,-125.2 8.5,-147.2 221.5,-147.2 221.5,-125.2 8.5,-125.2"/>
<polygon fill="none" stroke="#000000" points="8.5,-125.2 8.5,-147.2 221.5,-147.2 221.5,-125.2 8.5,-125.2"/>
<text text-anchor="start" x="28.5" y="-132.3" font-family="Helvetica,sans-Serif" font-size="11.00" fill="#000000">master_admin_client</text>
<polygon fill="none" stroke="#000000" points="8.5,-106.2 8.5,-125.2 221.5,-125.2 221.5,-106.2 8.5,-106.2"/>
<text text-anchor="start" x="11.5" y="-112.3" font-family="Helvetica,sans-Serif" font-size="11.00" fill="#000000">...</text>
<polygon fill="#ffffff" stroke="transparent" points="8.5,-87.2 8.5,-106.2 91.5,-106.2 91.5,-87.2 8.5,-87.2"/>
<polygon fill="none" stroke="#000000" points="8.5,-87.2 8.5,-106.2 91.5,-106.2 91.5,-87.2 8.5,-87.2"/>
<text text-anchor="start" x="11.5" y="-93.3" font-family="Helvetica,sans-Serif" font-size="11.00" fill="#000000"> &#160;</text>
<polygon fill="#ffffff" stroke="transparent" points="91.5,-87.2 91.5,-106.2 158.5,-106.2 158.5,-87.2 91.5,-87.2"/>
<polygon fill="none" stroke="#000000" points="91.5,-87.2 91.5,-106.2 158.5,-106.2 158.5,-87.2 91.5,-87.2"/>
<text text-anchor="start" x="128.6105" y="-93.3" font-family="Helvetica,sans-Serif" font-size="11.00" fill="#000000">1 row</text>
<polygon fill="#ffffff" stroke="transparent" points="158.5,-87.2 158.5,-106.2 221.5,-106.2 221.5,-87.2 158.5,-87.2"/>
<polygon fill="none" stroke="#000000" points="158.5,-87.2 158.5,-106.2 221.5,-106.2 221.5,-87.2 158.5,-87.2"/>
<text text-anchor="start" x="196.7904" y="-93.3" font-family="Helvetica,sans-Serif" font-size="11.00" fill="#000000">23 &gt;</text>
</a>
</g>
</g>
<!-- authentication_execution&#45;&gt;realm -->
<g id="edge2" class="edge">
<title>authentication_execution:w&#45;&gt;realm:e</title>
<path fill="none" stroke="#000000" d="M443.3701,-203.1355C434.4837,-204.3585 428.2053,-206.4348 415,-207.2 347.1139,-211.1336 327.0823,-226.9053 262,-207.2 241.2949,-200.931 243.1333,-180.2 221.5,-180.2"/>
<polygon fill="#000000" stroke="#000000" points="450.0163,-202.7106 458.2298,-205.7927 454.0082,-202.4553 458,-202.2 458,-202.2 458,-202.2 454.0082,-202.4553 457.7702,-198.6073 450.0163,-202.7106 450.0163,-202.7106"/>
<ellipse fill="none" stroke="#000000" cx="446.8228" cy="-202.9148" rx="3.2" ry="3.2"/>
</g>
<!-- authentication_flow&#45;&gt;realm -->
<g id="edge3" class="edge">
<title>authentication_flow:w&#45;&gt;realm:e</title>
<path fill="none" stroke="#000000" d="M256.7637,-144.7885C243.8632,-155.2952 243.6826,-180.2 221.5,-180.2"/>
<polygon fill="#000000" stroke="#000000" points="262.9121,-142.7347 271.6406,-143.6145 266.7061,-141.4673 270.5,-140.2 270.5,-140.2 270.5,-140.2 266.7061,-141.4673 269.3594,-136.7855 262.9121,-142.7347 262.9121,-142.7347"/>
<ellipse fill="none" stroke="#000000" cx="259.877" cy="-143.7486" rx="3.2" ry="3.2"/>
</g>
</g>
</svg>
