<?xml version="1.0" encoding="UTF-8" standalone="no"?>
<!DOCTYPE svg PUBLIC "-//W3C//DTD SVG 1.1//EN"
 "http://www.w3.org/Graphics/SVG/1.1/DTD/svg11.dtd">
<!-- Generated by graphviz version 2.40.1 (20161225.0304)
 -->
<!-- Title: oneDegreeRelationshipsDiagramImplied Pages: 1 -->
<svg width="439pt" height="250pt"
 viewBox="0.00 0.00 439.00 250.20" xmlns="http://www.w3.org/2000/svg" xmlns:xlink="http://www.w3.org/1999/xlink">
<g id="graph0" class="graph" transform="scale(1 1) rotate(0) translate(4 246.2)">
<title>oneDegreeRelationshipsDiagramImplied</title>
<polygon fill="#ffffff" stroke="transparent" points="-4,4 -4,-246.2 435,-246.2 435,4 -4,4"/>
<text text-anchor="middle" x="72.4936" y="-7.3" font-family="Helvetica,sans-Serif" font-size="11.00" fill="#000000">Generated by SchemaSpy</text>
<!-- broker_link -->
<g id="node1" class="node">
<title>broker_link</title>
<g id="a_node1"><a xlink:href="../../tables/broker_link.html" xlink:title="broker_link" target="_top">
<polygon fill="#ffffff" stroke="transparent" points="193,-38.2 193,-238.2 423,-238.2 423,-38.2 193,-38.2"/>
<polygon fill="#f5f5f5" stroke="transparent" points="195,-213.2 195,-236.2 421,-236.2 421,-213.2 195,-213.2"/>
<polygon fill="none" stroke="#000000" points="195,-213.2 195,-236.2 421,-236.2 421,-213.2 195,-213.2"/>
<text text-anchor="start" x="200" y="-222.3" font-family="Helvetica,sans-Serif" font-weight="bold" font-size="11.00" fill="#000000">broker_link</text>
<text text-anchor="start" x="386.0437" y="-221.3" font-family="Helvetica,sans-Serif" font-size="11.00" fill="#000000">[table]</text>
<polygon fill="none" stroke="#000000" points="195,-191.2 195,-213.2 331,-213.2 331,-191.2 195,-191.2"/>
<image xlink:href="../../images/primaryKeys.png" width="11px" height="12px" preserveAspectRatio="xMinYMin meet" x="200" y="-208.2"/>
<text text-anchor="start" x="215" y="-198.3" font-family="Helvetica,sans-Serif" font-size="11.00" fill="#000000">identity_provider</text>
<polygon fill="none" stroke="#000000" points="331,-191.2 331,-213.2 421,-213.2 421,-191.2 331,-191.2"/>
<text text-anchor="start" x="334" y="-198.9" font-family="Helvetica,sans-Serif" font-size="11.00" fill="#000000">varchar[255]</text>
<polygon fill="none" stroke="#000000" points="195,-169.2 195,-191.2 331,-191.2 331,-169.2 195,-169.2"/>
<image xlink:href="../../images/foreignKeys.png" width="11px" height="12px" preserveAspectRatio="xMinYMin meet" x="200" y="-186.2"/>
<text text-anchor="start" x="215" y="-176.3" font-family="Helvetica,sans-Serif" font-size="11.00" fill="#000000">storage_provider_id</text>
<polygon fill="none" stroke="#000000" points="331,-169.2 331,-191.2 421,-191.2 421,-169.2 331,-169.2"/>
<text text-anchor="start" x="334" y="-176.9" font-family="Helvetica,sans-Serif" font-size="11.00" fill="#000000">varchar[255]</text>
<polygon fill="none" stroke="#000000" points="195,-147.2 195,-169.2 331,-169.2 331,-147.2 195,-147.2"/>
<text text-anchor="start" x="215" y="-154.3" font-family="Helvetica,sans-Serif" font-size="11.00" fill="#000000">realm_id</text>
<polygon fill="none" stroke="#000000" points="331,-147.2 331,-169.2 421,-169.2 421,-147.2 331,-147.2"/>
<text text-anchor="start" x="334" y="-154.9" font-family="Helvetica,sans-Serif" font-size="11.00" fill="#000000">varchar[36]</text>
<polygon fill="none" stroke="#000000" points="195,-125.2 195,-147.2 331,-147.2 331,-125.2 195,-125.2"/>
<image xlink:href="../../images/foreignKeys.png" width="11px" height="12px" preserveAspectRatio="xMinYMin meet" x="200" y="-142.2"/>
<text text-anchor="start" x="215" y="-132.3" font-family="Helvetica,sans-Serif" font-size="11.00" fill="#000000">broker_user_id</text>
<polygon fill="none" stroke="#000000" points="331,-125.2 331,-147.2 421,-147.2 421,-125.2 331,-125.2"/>
<text text-anchor="start" x="334" y="-132.9" font-family="Helvetica,sans-Serif" font-size="11.00" fill="#000000">varchar[255]</text>
<polygon fill="none" stroke="#000000" points="195,-103.2 195,-125.2 331,-125.2 331,-103.2 195,-103.2"/>
<text text-anchor="start" x="215" y="-110.3" font-family="Helvetica,sans-Serif" font-size="11.00" fill="#000000">broker_username</text>
<polygon fill="none" stroke="#000000" points="331,-103.2 331,-125.2 421,-125.2 421,-103.2 331,-103.2"/>
<text text-anchor="start" x="334" y="-110.9" font-family="Helvetica,sans-Serif" font-size="11.00" fill="#000000">varchar[255]</text>
<polygon fill="none" stroke="#000000" points="195,-81.2 195,-103.2 331,-103.2 331,-81.2 195,-81.2"/>
<text text-anchor="start" x="215" y="-88.3" font-family="Helvetica,sans-Serif" font-size="11.00" fill="#000000">token</text>
<polygon fill="none" stroke="#000000" points="331,-81.2 331,-103.2 421,-103.2 421,-81.2 331,-81.2"/>
<text text-anchor="start" x="333.5043" y="-88.9" font-family="Helvetica,sans-Serif" font-size="11.00" fill="#000000">text[2147483647]</text>
<polygon fill="none" stroke="#000000" points="195,-59.2 195,-81.2 331,-81.2 331,-59.2 195,-59.2"/>
<image xlink:href="../../images/primaryKeys.png" width="11px" height="12px" preserveAspectRatio="xMinYMin meet" x="200" y="-76.2"/>
<text text-anchor="start" x="215" y="-66.3" font-family="Helvetica,sans-Serif" font-size="11.00" fill="#000000">user_id</text>
<polygon fill="none" stroke="#000000" points="331,-59.2 331,-81.2 421,-81.2 421,-59.2 331,-59.2"/>
<text text-anchor="start" x="334" y="-66.9" font-family="Helvetica,sans-Serif" font-size="11.00" fill="#000000">varchar[255]</text>
<polygon fill="#ffffff" stroke="transparent" points="195,-40.2 195,-59.2 254,-59.2 254,-40.2 195,-40.2"/>
<polygon fill="none" stroke="#000000" points="195,-40.2 195,-59.2 254,-59.2 254,-40.2 195,-40.2"/>
<text text-anchor="start" x="198" y="-46.3" font-family="Helvetica,sans-Serif" font-size="11.00" fill="#000000">&lt; 2</text>
<polygon fill="#ffffff" stroke="transparent" points="254,-40.2 254,-59.2 331,-59.2 331,-40.2 254,-40.2"/>
<polygon fill="none" stroke="#000000" points="254,-40.2 254,-59.2 331,-59.2 331,-40.2 254,-40.2"/>
<text text-anchor="start" x="295.6105" y="-46.3" font-family="Helvetica,sans-Serif" font-size="11.00" fill="#000000">0 rows</text>
<polygon fill="#ffffff" stroke="transparent" points="331,-40.2 331,-59.2 421,-59.2 421,-40.2 331,-40.2"/>
<polygon fill="none" stroke="#000000" points="331,-40.2 331,-59.2 421,-59.2 421,-40.2 331,-40.2"/>
<text text-anchor="start" x="402.4053" y="-46.3" font-family="Helvetica,sans-Serif" font-size="11.00" fill="#000000">0 &gt;</text>
<polygon fill="none" stroke="#000000" stroke-width="2" points="194,-39.2 194,-237.2 422,-237.2 422,-39.2 194,-39.2"/>
</a>
</g>
</g>
<!-- federated_user -->
<g id="node2" class="node">
<title>federated_user</title>
<g id="a_node2"><a xlink:href="../../tables/federated_user.html" xlink:title="federated_user" target="_top">
<polygon fill="#ffffff" stroke="transparent" points="8,-109.7 8,-192.7 144,-192.7 144,-109.7 8,-109.7"/>
<polygon fill="#f5f5f5" stroke="transparent" points="8,-169.2 8,-192.2 144,-192.2 144,-169.2 8,-169.2"/>
<polygon fill="none" stroke="#000000" points="8,-169.2 8,-192.2 144,-192.2 144,-169.2 8,-169.2"/>
<text text-anchor="start" x="13" y="-178.3" font-family="Helvetica,sans-Serif" font-weight="bold" font-size="11.00" fill="#000000">federated_user</text>
<text text-anchor="start" x="109.0437" y="-177.3" font-family="Helvetica,sans-Serif" font-size="11.00" fill="#000000">[table]</text>
<polygon fill="none" stroke="#000000" points="8,-147.2 8,-169.2 144,-169.2 144,-147.2 8,-147.2"/>
<image xlink:href="../../images/primaryKeys.png" width="11px" height="12px" preserveAspectRatio="xMinYMin meet" x="13" y="-164.2"/>
<text text-anchor="start" x="28" y="-154.3" font-family="Helvetica,sans-Serif" font-size="11.00" fill="#000000">id</text>
<polygon fill="none" stroke="#000000" points="8,-128.2 8,-147.2 144,-147.2 144,-128.2 8,-128.2"/>
<text text-anchor="start" x="11" y="-134.3" font-family="Helvetica,sans-Serif" font-size="11.00" fill="#000000">...</text>
<polygon fill="#ffffff" stroke="transparent" points="8,-109.2 8,-128.2 49,-128.2 49,-109.2 8,-109.2"/>
<polygon fill="none" stroke="#000000" points="8,-109.2 8,-128.2 49,-128.2 49,-109.2 8,-109.2"/>
<text text-anchor="start" x="11" y="-115.3" font-family="Helvetica,sans-Serif" font-size="11.00" fill="#000000"> &#160;</text>
<polygon fill="#ffffff" stroke="transparent" points="49,-109.2 49,-128.2 102,-128.2 102,-109.2 49,-109.2"/>
<polygon fill="none" stroke="#000000" points="49,-109.2 49,-128.2 102,-128.2 102,-109.2 49,-109.2"/>
<text text-anchor="start" x="66.6105" y="-115.3" font-family="Helvetica,sans-Serif" font-size="11.00" fill="#000000">0 rows</text>
<polygon fill="#ffffff" stroke="transparent" points="102,-109.2 102,-128.2 144,-128.2 144,-109.2 102,-109.2"/>
<polygon fill="none" stroke="#000000" points="102,-109.2 102,-128.2 144,-128.2 144,-109.2 102,-109.2"/>
<text text-anchor="start" x="119.2904" y="-115.3" font-family="Helvetica,sans-Serif" font-size="11.00" fill="#000000">30 &gt;</text>
</a>
</g>
</g>
<!-- broker_link&#45;&gt;federated_user -->
<g id="edge1" class="edge">
<title>broker_link:w&#45;&gt;federated_user:e</title>
<path fill="none" stroke="#000000" stroke-dasharray="5,2" d="M180.8489,-139.259C168.2843,-145.304 162.9,-158.2 144,-158.2"/>
<polygon fill="#000000" stroke="#000000" points="187.1806,-137.8903 195.7607,-139.7187 191.0903,-137.0452 195,-136.2 195,-136.2 195,-136.2 191.0903,-137.0452 194.2393,-132.6813 187.1806,-137.8903 187.1806,-137.8903"/>
<ellipse fill="none" stroke="#000000" cx="184.0528" cy="-138.5665" rx="3.2" ry="3.2"/>
</g>
<!-- broker_link&#45;&gt;federated_user -->
<g id="edge2" class="edge">
<title>broker_link:w&#45;&gt;federated_user:e</title>
<path fill="none" stroke="#000000" stroke-dasharray="5,2" d="M180.8489,-177.141C168.2843,-171.096 162.9,-158.2 144,-158.2"/>
<polygon fill="#000000" stroke="#000000" points="187.1806,-178.5097 194.2393,-183.7187 191.0903,-179.3548 195,-180.2 195,-180.2 195,-180.2 191.0903,-179.3548 195.7607,-176.6813 187.1806,-178.5097 187.1806,-178.5097"/>
<ellipse fill="none" stroke="#000000" cx="184.0528" cy="-177.8335" rx="3.2" ry="3.2"/>
</g>
</g>
</svg>
