<?xml version="1.0" encoding="UTF-8" standalone="no"?>
<!DOCTYPE svg PUBLIC "-//W3C//DTD SVG 1.1//EN"
 "http://www.w3.org/Graphics/SVG/1.1/DTD/svg11.dtd">
<!-- Generated by graphviz version 2.40.1 (20161225.0304)
 -->
<!-- Title: oneDegreeRelationshipsDiagram Pages: 1 -->
<svg width="488pt" height="228pt"
 viewBox="0.00 0.00 488.00 228.20" xmlns="http://www.w3.org/2000/svg" xmlns:xlink="http://www.w3.org/1999/xlink">
<g id="graph0" class="graph" transform="scale(1 1) rotate(0) translate(4 224.2)">
<title>oneDegreeRelationshipsDiagram</title>
<polygon fill="#ffffff" stroke="transparent" points="-4,4 -4,-224.2 484,-224.2 484,4 -4,4"/>
<text text-anchor="middle" x="72.4936" y="-7.3" font-family="Helvetica,sans-Serif" font-size="11.00" fill="#000000">Generated by SchemaSpy</text>
<!-- client_initial_access -->
<g id="node1" class="node">
<title>client_initial_access</title>
<g id="a_node1"><a xlink:href="../../tables/client_initial_access.html" xlink:title="client_initial_access" target="_top">
<polygon fill="#ffffff" stroke="transparent" points="270,-38.2 270,-216.2 472,-216.2 472,-38.2 270,-38.2"/>
<polygon fill="#f5f5f5" stroke="transparent" points="272,-191.2 272,-214.2 470,-214.2 470,-191.2 272,-191.2"/>
<polygon fill="none" stroke="#000000" points="272,-191.2 272,-214.2 470,-214.2 470,-191.2 272,-191.2"/>
<text text-anchor="start" x="277" y="-200.3" font-family="Helvetica,sans-Serif" font-weight="bold" font-size="11.00" fill="#000000">client_initial_access</text>
<text text-anchor="start" x="435.0437" y="-199.3" font-family="Helvetica,sans-Serif" font-size="11.00" fill="#000000">[table]</text>
<polygon fill="none" stroke="#000000" points="272,-169.2 272,-191.2 409,-191.2 409,-169.2 272,-169.2"/>
<image xlink:href="../../images/primaryKeys.png" width="11px" height="12px" preserveAspectRatio="xMinYMin meet" x="277" y="-186.2"/>
<text text-anchor="start" x="292" y="-176.3" font-family="Helvetica,sans-Serif" font-size="11.00" fill="#000000">id</text>
<polygon fill="none" stroke="#000000" points="409,-169.2 409,-191.2 470,-191.2 470,-169.2 409,-169.2"/>
<text text-anchor="start" x="411.994" y="-176.9" font-family="Helvetica,sans-Serif" font-size="11.00" fill="#000000">varchar[36]</text>
<polygon fill="#ffffff" stroke="transparent" points="272,-147.2 272,-169.2 409,-169.2 409,-147.2 272,-147.2"/>
<polygon fill="none" stroke="#000000" points="272,-147.2 272,-169.2 409,-169.2 409,-147.2 272,-147.2"/>
<image xlink:href="../../images/foreignKeys.png" width="11px" height="12px" preserveAspectRatio="xMinYMin meet" x="277" y="-164.2"/>
<text text-anchor="start" x="292" y="-154.3" font-family="Helvetica,sans-Serif" font-size="11.00" fill="#000000">realm_id</text>
<polygon fill="none" stroke="#000000" points="409,-147.2 409,-169.2 470,-169.2 470,-147.2 409,-147.2"/>
<text text-anchor="start" x="411.994" y="-154.9" font-family="Helvetica,sans-Serif" font-size="11.00" fill="#000000">varchar[36]</text>
<polygon fill="none" stroke="#000000" points="272,-125.2 272,-147.2 409,-147.2 409,-125.2 272,-125.2"/>
<text text-anchor="start" x="292" y="-132.3" font-family="Helvetica,sans-Serif" font-size="11.00" fill="#000000">timestamp</text>
<polygon fill="none" stroke="#000000" points="409,-125.2 409,-147.2 470,-147.2 470,-125.2 409,-125.2"/>
<text text-anchor="start" x="412" y="-132.9" font-family="Helvetica,sans-Serif" font-size="11.00" fill="#000000">int4[10]</text>
<polygon fill="none" stroke="#000000" points="272,-103.2 272,-125.2 409,-125.2 409,-103.2 272,-103.2"/>
<text text-anchor="start" x="292" y="-110.3" font-family="Helvetica,sans-Serif" font-size="11.00" fill="#000000">expiration</text>
<polygon fill="none" stroke="#000000" points="409,-103.2 409,-125.2 470,-125.2 470,-103.2 409,-103.2"/>
<text text-anchor="start" x="412" y="-110.9" font-family="Helvetica,sans-Serif" font-size="11.00" fill="#000000">int4[10]</text>
<polygon fill="none" stroke="#000000" points="272,-81.2 272,-103.2 409,-103.2 409,-81.2 272,-81.2"/>
<text text-anchor="start" x="292" y="-88.3" font-family="Helvetica,sans-Serif" font-size="11.00" fill="#000000">count</text>
<polygon fill="none" stroke="#000000" points="409,-81.2 409,-103.2 470,-103.2 470,-81.2 409,-81.2"/>
<text text-anchor="start" x="412" y="-88.9" font-family="Helvetica,sans-Serif" font-size="11.00" fill="#000000">int4[10]</text>
<polygon fill="none" stroke="#000000" points="272,-59.2 272,-81.2 409,-81.2 409,-59.2 272,-59.2"/>
<text text-anchor="start" x="292" y="-66.3" font-family="Helvetica,sans-Serif" font-size="11.00" fill="#000000">remaining_count</text>
<polygon fill="none" stroke="#000000" points="409,-59.2 409,-81.2 470,-81.2 470,-59.2 409,-59.2"/>
<text text-anchor="start" x="412" y="-66.9" font-family="Helvetica,sans-Serif" font-size="11.00" fill="#000000">int4[10]</text>
<polygon fill="#ffffff" stroke="transparent" points="272,-40.2 272,-59.2 332,-59.2 332,-40.2 272,-40.2"/>
<polygon fill="none" stroke="#000000" points="272,-40.2 272,-59.2 332,-59.2 332,-40.2 272,-40.2"/>
<text text-anchor="start" x="275" y="-46.3" font-family="Helvetica,sans-Serif" font-size="11.00" fill="#000000">&lt; 1</text>
<polygon fill="#ffffff" stroke="transparent" points="332,-40.2 332,-59.2 409,-59.2 409,-40.2 332,-40.2"/>
<polygon fill="none" stroke="#000000" points="332,-40.2 332,-59.2 409,-59.2 409,-40.2 332,-40.2"/>
<text text-anchor="start" x="373.6105" y="-46.3" font-family="Helvetica,sans-Serif" font-size="11.00" fill="#000000">0 rows</text>
<polygon fill="#ffffff" stroke="transparent" points="409,-40.2 409,-59.2 470,-59.2 470,-40.2 409,-40.2"/>
<polygon fill="none" stroke="#000000" points="409,-40.2 409,-59.2 470,-59.2 470,-40.2 409,-40.2"/>
<text text-anchor="start" x="451.4053" y="-46.3" font-family="Helvetica,sans-Serif" font-size="11.00" fill="#000000">0 &gt;</text>
<polygon fill="none" stroke="#000000" stroke-width="2" points="271,-39.2 271,-215.2 471,-215.2 471,-39.2 271,-39.2"/>
</a>
</g>
</g>
<!-- realm -->
<g id="node2" class="node">
<title>realm</title>
<g id="a_node2"><a xlink:href="../../tables/realm.html" xlink:title="realm" target="_top">
<polygon fill="#ffffff" stroke="transparent" points="8,-65.7 8,-192.7 221,-192.7 221,-65.7 8,-65.7"/>
<polygon fill="#f5f5f5" stroke="transparent" points="8.5,-169.2 8.5,-192.2 221.5,-192.2 221.5,-169.2 8.5,-169.2"/>
<polygon fill="none" stroke="#000000" points="8.5,-169.2 8.5,-192.2 221.5,-192.2 221.5,-169.2 8.5,-169.2"/>
<text text-anchor="start" x="13.5" y="-178.3" font-family="Helvetica,sans-Serif" font-weight="bold" font-size="11.00" fill="#000000">realm</text>
<text text-anchor="start" x="186.5437" y="-177.3" font-family="Helvetica,sans-Serif" font-size="11.00" fill="#000000">[table]</text>
<polygon fill="none" stroke="#000000" points="8.5,-147.2 8.5,-169.2 221.5,-169.2 221.5,-147.2 8.5,-147.2"/>
<image xlink:href="../../images/primaryKeys.png" width="11px" height="12px" preserveAspectRatio="xMinYMin meet" x="13.5" y="-164.2"/>
<text text-anchor="start" x="28.5" y="-154.3" font-family="Helvetica,sans-Serif" font-size="11.00" fill="#000000">id</text>
<polygon fill="#ffffff" stroke="transparent" points="8.5,-125.2 8.5,-147.2 221.5,-147.2 221.5,-125.2 8.5,-125.2"/>
<polygon fill="none" stroke="#000000" points="8.5,-125.2 8.5,-147.2 221.5,-147.2 221.5,-125.2 8.5,-125.2"/>
<text text-anchor="start" x="28.5" y="-132.3" font-family="Helvetica,sans-Serif" font-size="11.00" fill="#000000">name</text>
<polygon fill="#ffffff" stroke="transparent" points="8.5,-103.2 8.5,-125.2 221.5,-125.2 221.5,-103.2 8.5,-103.2"/>
<polygon fill="none" stroke="#000000" points="8.5,-103.2 8.5,-125.2 221.5,-125.2 221.5,-103.2 8.5,-103.2"/>
<text text-anchor="start" x="28.5" y="-110.3" font-family="Helvetica,sans-Serif" font-size="11.00" fill="#000000">master_admin_client</text>
<polygon fill="none" stroke="#000000" points="8.5,-84.2 8.5,-103.2 221.5,-103.2 221.5,-84.2 8.5,-84.2"/>
<text text-anchor="start" x="11.5" y="-90.3" font-family="Helvetica,sans-Serif" font-size="11.00" fill="#000000">...</text>
<polygon fill="#ffffff" stroke="transparent" points="8.5,-65.2 8.5,-84.2 91.5,-84.2 91.5,-65.2 8.5,-65.2"/>
<polygon fill="none" stroke="#000000" points="8.5,-65.2 8.5,-84.2 91.5,-84.2 91.5,-65.2 8.5,-65.2"/>
<text text-anchor="start" x="11.5" y="-71.3" font-family="Helvetica,sans-Serif" font-size="11.00" fill="#000000"> &#160;</text>
<polygon fill="#ffffff" stroke="transparent" points="91.5,-65.2 91.5,-84.2 158.5,-84.2 158.5,-65.2 91.5,-65.2"/>
<polygon fill="none" stroke="#000000" points="91.5,-65.2 91.5,-84.2 158.5,-84.2 158.5,-65.2 91.5,-65.2"/>
<text text-anchor="start" x="128.6105" y="-71.3" font-family="Helvetica,sans-Serif" font-size="11.00" fill="#000000">1 row</text>
<polygon fill="#ffffff" stroke="transparent" points="158.5,-65.2 158.5,-84.2 221.5,-84.2 221.5,-65.2 158.5,-65.2"/>
<polygon fill="none" stroke="#000000" points="158.5,-65.2 158.5,-84.2 221.5,-84.2 221.5,-65.2 158.5,-65.2"/>
<text text-anchor="start" x="196.7904" y="-71.3" font-family="Helvetica,sans-Serif" font-size="11.00" fill="#000000">23 &gt;</text>
</a>
</g>
</g>
<!-- client_initial_access&#45;&gt;realm -->
<g id="edge1" class="edge">
<title>client_initial_access:w&#45;&gt;realm:e</title>
<path fill="none" stroke="#000000" d="M257.4203,-158.2C245.5435,-158.2 238.158,-158.2 221.5,-158.2"/>
<polygon fill="#000000" stroke="#000000" points="264,-158.2001 272,-161.8 268,-158.2 272,-158.2 272,-158.2 272,-158.2 268,-158.2 272,-154.6 264,-158.2001 264,-158.2001"/>
<ellipse fill="none" stroke="#000000" cx="260.8" cy="-158.2001" rx="3.2" ry="3.2"/>
</g>
</g>
</svg>
