<?xml version="1.0" encoding="UTF-8" standalone="no"?>
<!DOCTYPE svg PUBLIC "-//W3C//DTD SVG 1.1//EN"
 "http://www.w3.org/Graphics/SVG/1.1/DTD/svg11.dtd">
<!-- Generated by graphviz version 2.40.1 (20161225.0304)
 -->
<!-- Title: oneDegreeRelationshipsDiagramImplied Pages: 1 -->
<svg width="805pt" height="622pt"
 viewBox="0.00 0.00 805.00 622.20" xmlns="http://www.w3.org/2000/svg" xmlns:xlink="http://www.w3.org/1999/xlink">
<g id="graph0" class="graph" transform="scale(1 1) rotate(0) translate(4 618.2)">
<title>oneDegreeRelationshipsDiagramImplied</title>
<polygon fill="#ffffff" stroke="transparent" points="-4,4 -4,-618.2 801,-618.2 801,4 -4,4"/>
<text text-anchor="middle" x="72.4936" y="-7.3" font-family="Helvetica,sans-Serif" font-size="11.00" fill="#000000">Generated by SchemaSpy</text>
<!-- client_session -->
<g id="node1" class="node">
<title>client_session</title>
<g id="a_node1"><a xlink:href="../../tables/client_session.html" xlink:title="client_session" target="_top">
<polygon fill="#ffffff" stroke="transparent" points="382,-71.7 382,-337.7 557,-337.7 557,-71.7 382,-71.7"/>
<polygon fill="#f5f5f5" stroke="transparent" points="384.5,-312.7 384.5,-335.7 555.5,-335.7 555.5,-312.7 384.5,-312.7"/>
<polygon fill="none" stroke="#000000" points="384.5,-312.7 384.5,-335.7 555.5,-335.7 555.5,-312.7 384.5,-312.7"/>
<text text-anchor="start" x="389.5" y="-321.8" font-family="Helvetica,sans-Serif" font-weight="bold" font-size="11.00" fill="#000000">client_session</text>
<text text-anchor="start" x="520.5437" y="-320.8" font-family="Helvetica,sans-Serif" font-size="11.00" fill="#000000">[table]</text>
<polygon fill="none" stroke="#000000" points="384.5,-290.7 384.5,-312.7 488.5,-312.7 488.5,-290.7 384.5,-290.7"/>
<image xlink:href="../../images/primaryKeys.png" width="11px" height="12px" preserveAspectRatio="xMinYMin meet" x="389.5" y="-307.7"/>
<text text-anchor="start" x="404.5" y="-297.8" font-family="Helvetica,sans-Serif" font-size="11.00" fill="#000000">id</text>
<polygon fill="none" stroke="#000000" points="488.5,-290.7 488.5,-312.7 555.5,-312.7 555.5,-290.7 488.5,-290.7"/>
<text text-anchor="start" x="491.5" y="-298.4" font-family="Helvetica,sans-Serif" font-size="11.00" fill="#000000">varchar[36]</text>
<polygon fill="none" stroke="#000000" points="384.5,-268.7 384.5,-290.7 488.5,-290.7 488.5,-268.7 384.5,-268.7"/>
<text text-anchor="start" x="404.5" y="-275.8" font-family="Helvetica,sans-Serif" font-size="11.00" fill="#000000">client_id</text>
<polygon fill="none" stroke="#000000" points="488.5,-268.7 488.5,-290.7 555.5,-290.7 555.5,-268.7 488.5,-268.7"/>
<text text-anchor="start" x="491.5" y="-276.4" font-family="Helvetica,sans-Serif" font-size="11.00" fill="#000000">varchar[36]</text>
<polygon fill="none" stroke="#000000" points="384.5,-246.7 384.5,-268.7 488.5,-268.7 488.5,-246.7 384.5,-246.7"/>
<text text-anchor="start" x="404.5" y="-253.8" font-family="Helvetica,sans-Serif" font-size="11.00" fill="#000000">redirect_uri</text>
<polygon fill="none" stroke="#000000" points="488.5,-246.7 488.5,-268.7 555.5,-268.7 555.5,-246.7 488.5,-246.7"/>
<text text-anchor="start" x="491.4365" y="-254.4" font-family="Helvetica,sans-Serif" font-size="11.00" fill="#000000">varchar[255]</text>
<polygon fill="none" stroke="#000000" points="384.5,-224.7 384.5,-246.7 488.5,-246.7 488.5,-224.7 384.5,-224.7"/>
<text text-anchor="start" x="404.5" y="-231.8" font-family="Helvetica,sans-Serif" font-size="11.00" fill="#000000">state</text>
<polygon fill="none" stroke="#000000" points="488.5,-224.7 488.5,-246.7 555.5,-246.7 555.5,-224.7 488.5,-224.7"/>
<text text-anchor="start" x="491.4365" y="-232.4" font-family="Helvetica,sans-Serif" font-size="11.00" fill="#000000">varchar[255]</text>
<polygon fill="none" stroke="#000000" points="384.5,-202.7 384.5,-224.7 488.5,-224.7 488.5,-202.7 384.5,-202.7"/>
<text text-anchor="start" x="404.5" y="-209.8" font-family="Helvetica,sans-Serif" font-size="11.00" fill="#000000">timestamp</text>
<polygon fill="none" stroke="#000000" points="488.5,-202.7 488.5,-224.7 555.5,-224.7 555.5,-202.7 488.5,-202.7"/>
<text text-anchor="start" x="491.5" y="-210.4" font-family="Helvetica,sans-Serif" font-size="11.00" fill="#000000">int4[10]</text>
<polygon fill="#ffffff" stroke="transparent" points="384.5,-180.7 384.5,-202.7 488.5,-202.7 488.5,-180.7 384.5,-180.7"/>
<polygon fill="none" stroke="#000000" points="384.5,-180.7 384.5,-202.7 488.5,-202.7 488.5,-180.7 384.5,-180.7"/>
<image xlink:href="../../images/foreignKeys.png" width="11px" height="12px" preserveAspectRatio="xMinYMin meet" x="389.5" y="-197.7"/>
<text text-anchor="start" x="404.5" y="-187.8" font-family="Helvetica,sans-Serif" font-size="11.00" fill="#000000">session_id</text>
<polygon fill="none" stroke="#000000" points="488.5,-180.7 488.5,-202.7 555.5,-202.7 555.5,-180.7 488.5,-180.7"/>
<text text-anchor="start" x="491.5" y="-188.4" font-family="Helvetica,sans-Serif" font-size="11.00" fill="#000000">varchar[36]</text>
<polygon fill="none" stroke="#000000" points="384.5,-158.7 384.5,-180.7 488.5,-180.7 488.5,-158.7 384.5,-158.7"/>
<text text-anchor="start" x="404.5" y="-165.8" font-family="Helvetica,sans-Serif" font-size="11.00" fill="#000000">auth_method</text>
<polygon fill="none" stroke="#000000" points="488.5,-158.7 488.5,-180.7 555.5,-180.7 555.5,-158.7 488.5,-158.7"/>
<text text-anchor="start" x="491.4365" y="-166.4" font-family="Helvetica,sans-Serif" font-size="11.00" fill="#000000">varchar[255]</text>
<polygon fill="none" stroke="#000000" points="384.5,-136.7 384.5,-158.7 488.5,-158.7 488.5,-136.7 384.5,-136.7"/>
<image xlink:href="../../images/foreignKeys.png" width="11px" height="12px" preserveAspectRatio="xMinYMin meet" x="389.5" y="-153.7"/>
<text text-anchor="start" x="404.5" y="-143.8" font-family="Helvetica,sans-Serif" font-size="11.00" fill="#000000">realm_id</text>
<polygon fill="none" stroke="#000000" points="488.5,-136.7 488.5,-158.7 555.5,-158.7 555.5,-136.7 488.5,-136.7"/>
<text text-anchor="start" x="491.4365" y="-144.4" font-family="Helvetica,sans-Serif" font-size="11.00" fill="#000000">varchar[255]</text>
<polygon fill="none" stroke="#000000" points="384.5,-114.7 384.5,-136.7 488.5,-136.7 488.5,-114.7 384.5,-114.7"/>
<text text-anchor="start" x="404.5" y="-121.8" font-family="Helvetica,sans-Serif" font-size="11.00" fill="#000000">auth_user_id</text>
<polygon fill="none" stroke="#000000" points="488.5,-114.7 488.5,-136.7 555.5,-136.7 555.5,-114.7 488.5,-114.7"/>
<text text-anchor="start" x="491.5" y="-122.4" font-family="Helvetica,sans-Serif" font-size="11.00" fill="#000000">varchar[36]</text>
<polygon fill="none" stroke="#000000" points="384.5,-92.7 384.5,-114.7 488.5,-114.7 488.5,-92.7 384.5,-92.7"/>
<text text-anchor="start" x="404.5" y="-99.8" font-family="Helvetica,sans-Serif" font-size="11.00" fill="#000000">current_action</text>
<polygon fill="none" stroke="#000000" points="488.5,-92.7 488.5,-114.7 555.5,-114.7 555.5,-92.7 488.5,-92.7"/>
<text text-anchor="start" x="491.5" y="-100.4" font-family="Helvetica,sans-Serif" font-size="11.00" fill="#000000">varchar[36]</text>
<polygon fill="#ffffff" stroke="transparent" points="384.5,-73.7 384.5,-92.7 427.5,-92.7 427.5,-73.7 384.5,-73.7"/>
<polygon fill="none" stroke="#000000" points="384.5,-73.7 384.5,-92.7 427.5,-92.7 427.5,-73.7 384.5,-73.7"/>
<text text-anchor="start" x="387.5" y="-79.8" font-family="Helvetica,sans-Serif" font-size="11.00" fill="#000000">&lt; 2</text>
<polygon fill="#ffffff" stroke="transparent" points="427.5,-73.7 427.5,-92.7 488.5,-92.7 488.5,-73.7 427.5,-73.7"/>
<polygon fill="none" stroke="#000000" points="427.5,-73.7 427.5,-92.7 488.5,-92.7 488.5,-73.7 427.5,-73.7"/>
<text text-anchor="start" x="453.1105" y="-79.8" font-family="Helvetica,sans-Serif" font-size="11.00" fill="#000000">0 rows</text>
<polygon fill="#ffffff" stroke="transparent" points="488.5,-73.7 488.5,-92.7 555.5,-92.7 555.5,-73.7 488.5,-73.7"/>
<polygon fill="none" stroke="#000000" points="488.5,-73.7 488.5,-92.7 555.5,-92.7 555.5,-73.7 488.5,-73.7"/>
<text text-anchor="start" x="536.9053" y="-79.8" font-family="Helvetica,sans-Serif" font-size="11.00" fill="#000000">5 &gt;</text>
<polygon fill="none" stroke="#000000" stroke-width="2" points="383,-72.7 383,-336.7 556,-336.7 556,-72.7 383,-72.7"/>
</a>
</g>
</g>
<!-- federated_user -->
<g id="node2" class="node">
<title>federated_user</title>
<g id="a_node2"><a xlink:href="../../tables/federated_user.html" xlink:title="federated_user" target="_top">
<polygon fill="#ffffff" stroke="transparent" points="8,-136.2 8,-219.2 144,-219.2 144,-136.2 8,-136.2"/>
<polygon fill="#f5f5f5" stroke="transparent" points="8,-195.7 8,-218.7 144,-218.7 144,-195.7 8,-195.7"/>
<polygon fill="none" stroke="#000000" points="8,-195.7 8,-218.7 144,-218.7 144,-195.7 8,-195.7"/>
<text text-anchor="start" x="13" y="-204.8" font-family="Helvetica,sans-Serif" font-weight="bold" font-size="11.00" fill="#000000">federated_user</text>
<text text-anchor="start" x="109.0437" y="-203.8" font-family="Helvetica,sans-Serif" font-size="11.00" fill="#000000">[table]</text>
<polygon fill="none" stroke="#000000" points="8,-173.7 8,-195.7 144,-195.7 144,-173.7 8,-173.7"/>
<image xlink:href="../../images/primaryKeys.png" width="11px" height="12px" preserveAspectRatio="xMinYMin meet" x="13" y="-190.7"/>
<text text-anchor="start" x="28" y="-180.8" font-family="Helvetica,sans-Serif" font-size="11.00" fill="#000000">id</text>
<polygon fill="none" stroke="#000000" points="8,-154.7 8,-173.7 144,-173.7 144,-154.7 8,-154.7"/>
<text text-anchor="start" x="11" y="-160.8" font-family="Helvetica,sans-Serif" font-size="11.00" fill="#000000">...</text>
<polygon fill="#ffffff" stroke="transparent" points="8,-135.7 8,-154.7 49,-154.7 49,-135.7 8,-135.7"/>
<polygon fill="none" stroke="#000000" points="8,-135.7 8,-154.7 49,-154.7 49,-135.7 8,-135.7"/>
<text text-anchor="start" x="11" y="-141.8" font-family="Helvetica,sans-Serif" font-size="11.00" fill="#000000"> &#160;</text>
<polygon fill="#ffffff" stroke="transparent" points="49,-135.7 49,-154.7 102,-154.7 102,-135.7 49,-135.7"/>
<polygon fill="none" stroke="#000000" points="49,-135.7 49,-154.7 102,-154.7 102,-135.7 49,-135.7"/>
<text text-anchor="start" x="66.6105" y="-141.8" font-family="Helvetica,sans-Serif" font-size="11.00" fill="#000000">0 rows</text>
<polygon fill="#ffffff" stroke="transparent" points="102,-135.7 102,-154.7 144,-154.7 144,-135.7 102,-135.7"/>
<polygon fill="none" stroke="#000000" points="102,-135.7 102,-154.7 144,-154.7 144,-135.7 102,-135.7"/>
<text text-anchor="start" x="119.2904" y="-141.8" font-family="Helvetica,sans-Serif" font-size="11.00" fill="#000000">30 &gt;</text>
</a>
</g>
</g>
<!-- client_session&#45;&gt;federated_user -->
<g id="edge1" class="edge">
<title>client_session:w&#45;&gt;federated_user:e</title>
<path fill="none" stroke="#000000" stroke-dasharray="5,2" d="M370.6545,-143.2098C359.4651,-133.7346 360.6265,-111.8953 341,-103.7 277.0204,-76.9844 244.0681,-67.3947 185,-103.7 150.6249,-124.8282 184.3491,-184.7 144,-184.7"/>
<polygon fill="#000000" stroke="#000000" points="376.8902,-145.232 383.3894,-151.1244 380.6951,-146.466 384.5,-147.7 384.5,-147.7 384.5,-147.7 380.6951,-146.466 385.6106,-144.2756 376.8902,-145.232 376.8902,-145.232"/>
<ellipse fill="none" stroke="#000000" cx="373.8463" cy="-144.2448" rx="3.2" ry="3.2"/>
</g>
<!-- user_session -->
<g id="node3" class="node">
<title>user_session</title>
<g id="a_node3"><a xlink:href="../../tables/user_session.html" xlink:title="user_session" target="_top">
<polygon fill="#ffffff" stroke="transparent" points="193,-114.2 193,-285.2 333,-285.2 333,-114.2 193,-114.2"/>
<polygon fill="#f5f5f5" stroke="transparent" points="193,-261.7 193,-284.7 333,-284.7 333,-261.7 193,-261.7"/>
<polygon fill="none" stroke="#000000" points="193,-261.7 193,-284.7 333,-284.7 333,-261.7 193,-261.7"/>
<text text-anchor="start" x="198" y="-270.8" font-family="Helvetica,sans-Serif" font-weight="bold" font-size="11.00" fill="#000000">user_session</text>
<text text-anchor="start" x="298.0437" y="-269.8" font-family="Helvetica,sans-Serif" font-size="11.00" fill="#000000">[table]</text>
<polygon fill="none" stroke="#000000" points="193,-239.7 193,-261.7 333,-261.7 333,-239.7 193,-239.7"/>
<image xlink:href="../../images/primaryKeys.png" width="11px" height="12px" preserveAspectRatio="xMinYMin meet" x="198" y="-256.7"/>
<text text-anchor="start" x="213" y="-246.8" font-family="Helvetica,sans-Serif" font-size="11.00" fill="#000000">id</text>
<polygon fill="none" stroke="#000000" points="193,-217.7 193,-239.7 333,-239.7 333,-217.7 193,-217.7"/>
<image xlink:href="../../images/foreignKeys.png" width="11px" height="12px" preserveAspectRatio="xMinYMin meet" x="198" y="-234.7"/>
<text text-anchor="start" x="213" y="-224.8" font-family="Helvetica,sans-Serif" font-size="11.00" fill="#000000">realm_id</text>
<polygon fill="none" stroke="#000000" points="193,-195.7 193,-217.7 333,-217.7 333,-195.7 193,-195.7"/>
<image xlink:href="../../images/foreignKeys.png" width="11px" height="12px" preserveAspectRatio="xMinYMin meet" x="198" y="-212.7"/>
<text text-anchor="start" x="213" y="-202.8" font-family="Helvetica,sans-Serif" font-size="11.00" fill="#000000">user_id</text>
<polygon fill="none" stroke="#000000" points="193,-173.7 193,-195.7 333,-195.7 333,-173.7 193,-173.7"/>
<image xlink:href="../../images/foreignKeys.png" width="11px" height="12px" preserveAspectRatio="xMinYMin meet" x="198" y="-190.7"/>
<text text-anchor="start" x="213" y="-180.8" font-family="Helvetica,sans-Serif" font-size="11.00" fill="#000000">broker_session_id</text>
<polygon fill="none" stroke="#000000" points="193,-151.7 193,-173.7 333,-173.7 333,-151.7 193,-151.7"/>
<image xlink:href="../../images/foreignKeys.png" width="11px" height="12px" preserveAspectRatio="xMinYMin meet" x="198" y="-168.7"/>
<text text-anchor="start" x="213" y="-158.8" font-family="Helvetica,sans-Serif" font-size="11.00" fill="#000000">broker_user_id</text>
<polygon fill="none" stroke="#000000" points="193,-132.7 193,-151.7 333,-151.7 333,-132.7 193,-132.7"/>
<text text-anchor="start" x="196" y="-138.8" font-family="Helvetica,sans-Serif" font-size="11.00" fill="#000000">...</text>
<polygon fill="#ffffff" stroke="transparent" points="193,-113.7 193,-132.7 244,-132.7 244,-113.7 193,-113.7"/>
<polygon fill="none" stroke="#000000" points="193,-113.7 193,-132.7 244,-132.7 244,-113.7 193,-113.7"/>
<text text-anchor="start" x="196" y="-119.8" font-family="Helvetica,sans-Serif" font-size="11.00" fill="#000000">&lt; 4</text>
<polygon fill="#ffffff" stroke="transparent" points="244,-113.7 244,-132.7 297,-132.7 297,-113.7 244,-113.7"/>
<polygon fill="none" stroke="#000000" points="244,-113.7 244,-132.7 297,-132.7 297,-113.7 244,-113.7"/>
<text text-anchor="start" x="261.6105" y="-119.8" font-family="Helvetica,sans-Serif" font-size="11.00" fill="#000000">0 rows</text>
<polygon fill="#ffffff" stroke="transparent" points="297,-113.7 297,-132.7 333,-132.7 333,-113.7 297,-113.7"/>
<polygon fill="none" stroke="#000000" points="297,-113.7 297,-132.7 333,-132.7 333,-113.7 297,-113.7"/>
<text text-anchor="start" x="314.4053" y="-119.8" font-family="Helvetica,sans-Serif" font-size="11.00" fill="#000000">2 &gt;</text>
</a>
</g>
</g>
<!-- client_session&#45;&gt;user_session -->
<g id="edge2" class="edge">
<title>client_session:w&#45;&gt;user_session:e</title>
<path fill="none" stroke="#000000" d="M370.7053,-196.3296C354.3565,-210.2383 361.8243,-250.7 333,-250.7"/>
<polygon fill="#000000" stroke="#000000" points="376.9157,-194.2454 385.6454,-195.1129 380.7079,-192.9727 384.5,-191.7 384.5,-191.7 384.5,-191.7 380.7079,-192.9727 383.3546,-188.2871 376.9157,-194.2454 376.9157,-194.2454"/>
<ellipse fill="none" stroke="#000000" cx="373.882" cy="-195.2636" rx="3.2" ry="3.2"/>
</g>
<!-- user_session&#45;&gt;federated_user -->
<g id="edge8" class="edge">
<title>user_session:w&#45;&gt;federated_user:e</title>
<path fill="none" stroke="#000000" stroke-dasharray="5,2" d="M178.4909,-184.7C167.1774,-184.7 159.9931,-184.7 144,-184.7"/>
<polygon fill="#000000" stroke="#000000" points="185,-184.7001 193,-188.3 189,-184.7 193,-184.7 193,-184.7 193,-184.7 189,-184.7 193,-181.1 185,-184.7001 185,-184.7001"/>
<ellipse fill="none" stroke="#000000" cx="181.8" cy="-184.7001" rx="3.2" ry="3.2"/>
</g>
<!-- user_session&#45;&gt;federated_user -->
<g id="edge9" class="edge">
<title>user_session:w&#45;&gt;federated_user:e</title>
<path fill="none" stroke="#000000" stroke-dasharray="5,2" d="M178.6297,-166.1375C167.0865,-172.325 161.9041,-184.7 144,-184.7"/>
<polygon fill="#000000" stroke="#000000" points="185.2195,-164.5612 193.8375,-166.2012 189.1098,-163.6306 193,-162.7 193,-162.7 193,-162.7 189.1098,-163.6306 192.1625,-159.1988 185.2195,-164.5612 185.2195,-164.5612"/>
<ellipse fill="none" stroke="#000000" cx="182.1073" cy="-165.3057" rx="3.2" ry="3.2"/>
</g>
<!-- user_session&#45;&gt;federated_user -->
<g id="edge10" class="edge">
<title>user_session:w&#45;&gt;federated_user:e</title>
<path fill="none" stroke="#000000" stroke-dasharray="5,2" d="M179.3171,-223.9912C166.0046,-212.6404 167.324,-184.7 144,-184.7"/>
<polygon fill="#000000" stroke="#000000" points="185.4354,-226.0967 191.8285,-232.1041 189.2177,-227.3984 193,-228.7 193,-228.7 193,-228.7 189.2177,-227.3984 194.1715,-225.2959 185.4354,-226.0967 185.4354,-226.0967"/>
<ellipse fill="none" stroke="#000000" cx="182.4096" cy="-225.0554" rx="3.2" ry="3.2"/>
</g>
<!-- user_session&#45;&gt;federated_user -->
<g id="edge11" class="edge">
<title>user_session:w&#45;&gt;federated_user:e</title>
<path fill="none" stroke="#000000" stroke-dasharray="5,2" d="M178.6297,-203.2625C167.0865,-197.075 161.9041,-184.7 144,-184.7"/>
<polygon fill="#000000" stroke="#000000" points="185.2195,-204.8388 192.1625,-210.2012 189.1098,-205.7694 193,-206.7 193,-206.7 193,-206.7 189.1098,-205.7694 193.8375,-203.1988 185.2195,-204.8388 185.2195,-204.8388"/>
<ellipse fill="none" stroke="#000000" cx="182.1073" cy="-204.0943" rx="3.2" ry="3.2"/>
</g>
<!-- client_session_auth_status -->
<g id="node4" class="node">
<title>client_session_auth_status</title>
<g id="a_node4"><a xlink:href="../../tables/client_session_auth_status.html" xlink:title="client_session_auth_status" target="_top">
<polygon fill="#ffffff" stroke="transparent" points="609,-505.2 609,-610.2 786,-610.2 786,-505.2 609,-505.2"/>
<polygon fill="#f5f5f5" stroke="transparent" points="609.5,-586.7 609.5,-609.7 786.5,-609.7 786.5,-586.7 609.5,-586.7"/>
<polygon fill="none" stroke="#000000" points="609.5,-586.7 609.5,-609.7 786.5,-609.7 786.5,-586.7 609.5,-586.7"/>
<text text-anchor="start" x="614.5" y="-595.8" font-family="Helvetica,sans-Serif" font-weight="bold" font-size="11.00" fill="#000000">client_session_auth_status</text>
<text text-anchor="start" x="751.5437" y="-594.8" font-family="Helvetica,sans-Serif" font-size="11.00" fill="#000000">[table]</text>
<polygon fill="none" stroke="#000000" points="609.5,-564.7 609.5,-586.7 786.5,-586.7 786.5,-564.7 609.5,-564.7"/>
<image xlink:href="../../images/primaryKeys.png" width="11px" height="12px" preserveAspectRatio="xMinYMin meet" x="614.5" y="-581.7"/>
<text text-anchor="start" x="629.5" y="-571.8" font-family="Helvetica,sans-Serif" font-size="11.00" fill="#000000">authenticator</text>
<polygon fill="none" stroke="#000000" points="609.5,-542.7 609.5,-564.7 786.5,-564.7 786.5,-542.7 609.5,-542.7"/>
<image xlink:href="../../images/primaryKeys.png" width="11px" height="12px" preserveAspectRatio="xMinYMin meet" x="614.5" y="-559.7"/>
<text text-anchor="start" x="629.5" y="-549.8" font-family="Helvetica,sans-Serif" font-size="11.00" fill="#000000">client_session</text>
<polygon fill="none" stroke="#000000" points="609.5,-523.7 609.5,-542.7 786.5,-542.7 786.5,-523.7 609.5,-523.7"/>
<text text-anchor="start" x="612.5" y="-529.8" font-family="Helvetica,sans-Serif" font-size="11.00" fill="#000000">...</text>
<polygon fill="#ffffff" stroke="transparent" points="609.5,-504.7 609.5,-523.7 683.5,-523.7 683.5,-504.7 609.5,-504.7"/>
<polygon fill="none" stroke="#000000" points="609.5,-504.7 609.5,-523.7 683.5,-523.7 683.5,-504.7 609.5,-504.7"/>
<text text-anchor="start" x="612.5" y="-510.8" font-family="Helvetica,sans-Serif" font-size="11.00" fill="#000000">&lt; 1</text>
<polygon fill="#ffffff" stroke="transparent" points="683.5,-504.7 683.5,-523.7 747.5,-523.7 747.5,-504.7 683.5,-504.7"/>
<polygon fill="none" stroke="#000000" points="683.5,-504.7 683.5,-523.7 747.5,-523.7 747.5,-504.7 683.5,-504.7"/>
<text text-anchor="start" x="712.1105" y="-510.8" font-family="Helvetica,sans-Serif" font-size="11.00" fill="#000000">0 rows</text>
<polygon fill="#ffffff" stroke="transparent" points="747.5,-504.7 747.5,-523.7 786.5,-523.7 786.5,-504.7 747.5,-504.7"/>
<polygon fill="none" stroke="#000000" points="747.5,-504.7 747.5,-523.7 786.5,-523.7 786.5,-504.7 747.5,-504.7"/>
<text text-anchor="start" x="777.3862" y="-510.8" font-family="Helvetica,sans-Serif" font-size="11.00" fill="#000000"> &#160;</text>
</a>
</g>
</g>
<!-- client_session_auth_status&#45;&gt;client_session -->
<g id="edge3" class="edge">
<title>client_session_auth_status:w&#45;&gt;client_session:e</title>
<path fill="none" stroke="#000000" d="M594.983,-552.0242C511.0504,-530.1598 664.5615,-301.7 555.5,-301.7"/>
<polygon fill="#000000" stroke="#000000" points="601.5528,-552.7825 609.0871,-557.2762 605.5264,-553.2413 609.5,-553.7 609.5,-553.7 609.5,-553.7 605.5264,-553.2413 609.9129,-550.1238 601.5528,-552.7825 601.5528,-552.7825"/>
<ellipse fill="none" stroke="#000000" cx="598.3739" cy="-552.4155" rx="3.2" ry="3.2"/>
</g>
<!-- client_session_note -->
<g id="node5" class="node">
<title>client_session_note</title>
<g id="a_node5"><a xlink:href="../../tables/client_session_note.html" xlink:title="client_session_note" target="_top">
<polygon fill="#ffffff" stroke="transparent" points="628,-379.2 628,-484.2 767,-484.2 767,-379.2 628,-379.2"/>
<polygon fill="#f5f5f5" stroke="transparent" points="628.5,-460.7 628.5,-483.7 767.5,-483.7 767.5,-460.7 628.5,-460.7"/>
<polygon fill="none" stroke="#000000" points="628.5,-460.7 628.5,-483.7 767.5,-483.7 767.5,-460.7 628.5,-460.7"/>
<text text-anchor="start" x="633.2073" y="-469.8" font-family="Helvetica,sans-Serif" font-weight="bold" font-size="11.00" fill="#000000">client_session_note</text>
<text text-anchor="start" x="733.0219" y="-468.8" font-family="Helvetica,sans-Serif" font-size="11.00" fill="#000000">[table]</text>
<polygon fill="none" stroke="#000000" points="628.5,-438.7 628.5,-460.7 767.5,-460.7 767.5,-438.7 628.5,-438.7"/>
<image xlink:href="../../images/primaryKeys.png" width="11px" height="12px" preserveAspectRatio="xMinYMin meet" x="633.5" y="-455.7"/>
<text text-anchor="start" x="650.5" y="-445.8" font-family="Helvetica,sans-Serif" font-size="11.00" fill="#000000">name</text>
<polygon fill="none" stroke="#000000" points="628.5,-416.7 628.5,-438.7 767.5,-438.7 767.5,-416.7 628.5,-416.7"/>
<image xlink:href="../../images/primaryKeys.png" width="11px" height="12px" preserveAspectRatio="xMinYMin meet" x="633.5" y="-433.7"/>
<text text-anchor="start" x="650.5" y="-423.8" font-family="Helvetica,sans-Serif" font-size="11.00" fill="#000000">client_session</text>
<polygon fill="none" stroke="#000000" points="628.5,-397.7 628.5,-416.7 767.5,-416.7 767.5,-397.7 628.5,-397.7"/>
<text text-anchor="start" x="631.5" y="-403.8" font-family="Helvetica,sans-Serif" font-size="11.00" fill="#000000">...</text>
<polygon fill="#ffffff" stroke="transparent" points="628.5,-378.7 628.5,-397.7 683.5,-397.7 683.5,-378.7 628.5,-378.7"/>
<polygon fill="none" stroke="#000000" points="628.5,-378.7 628.5,-397.7 683.5,-397.7 683.5,-378.7 628.5,-378.7"/>
<text text-anchor="start" x="631.5" y="-384.8" font-family="Helvetica,sans-Serif" font-size="11.00" fill="#000000">&lt; 1</text>
<polygon fill="#ffffff" stroke="transparent" points="683.5,-378.7 683.5,-397.7 738.5,-397.7 738.5,-378.7 683.5,-378.7"/>
<polygon fill="none" stroke="#000000" points="683.5,-378.7 683.5,-397.7 738.5,-397.7 738.5,-378.7 683.5,-378.7"/>
<text text-anchor="start" x="703.1105" y="-384.8" font-family="Helvetica,sans-Serif" font-size="11.00" fill="#000000">0 rows</text>
<polygon fill="#ffffff" stroke="transparent" points="738.5,-378.7 738.5,-397.7 767.5,-397.7 767.5,-378.7 738.5,-378.7"/>
<polygon fill="none" stroke="#000000" points="738.5,-378.7 738.5,-397.7 767.5,-397.7 767.5,-378.7 738.5,-378.7"/>
<text text-anchor="start" x="758.3862" y="-384.8" font-family="Helvetica,sans-Serif" font-size="11.00" fill="#000000"> &#160;</text>
</a>
</g>
</g>
<!-- client_session_note&#45;&gt;client_session -->
<g id="edge4" class="edge">
<title>client_session_note:w&#45;&gt;client_session:e</title>
<path fill="none" stroke="#000000" d="M614.0785,-424.9511C572.7654,-406.5249 614.5315,-301.7 555.5,-301.7"/>
<polygon fill="#000000" stroke="#000000" points="620.6415,-426.2021 627.8259,-431.2363 624.5707,-426.951 628.5,-427.7 628.5,-427.7 628.5,-427.7 624.5707,-426.951 629.1741,-424.1637 620.6415,-426.2021 620.6415,-426.2021"/>
<ellipse fill="none" stroke="#000000" cx="617.4981" cy="-425.6029" rx="3.2" ry="3.2"/>
</g>
<!-- client_session_prot_mapper -->
<g id="node6" class="node">
<title>client_session_prot_mapper</title>
<g id="a_node6"><a xlink:href="../../tables/client_session_prot_mapper.html" xlink:title="client_session_prot_mapper" target="_top">
<polygon fill="#ffffff" stroke="transparent" points="606,-271.7 606,-357.7 789,-357.7 789,-271.7 606,-271.7"/>
<polygon fill="#f5f5f5" stroke="transparent" points="606.5,-334.7 606.5,-357.7 789.5,-357.7 789.5,-334.7 606.5,-334.7"/>
<polygon fill="none" stroke="#000000" points="606.5,-334.7 606.5,-357.7 789.5,-357.7 789.5,-334.7 606.5,-334.7"/>
<text text-anchor="start" x="611.5" y="-343.8" font-family="Helvetica,sans-Serif" font-weight="bold" font-size="11.00" fill="#000000">client_session_prot_mapper</text>
<text text-anchor="start" x="754.5437" y="-342.8" font-family="Helvetica,sans-Serif" font-size="11.00" fill="#000000">[table]</text>
<polygon fill="none" stroke="#000000" points="606.5,-312.7 606.5,-334.7 789.5,-334.7 789.5,-312.7 606.5,-312.7"/>
<image xlink:href="../../images/primaryKeys.png" width="11px" height="12px" preserveAspectRatio="xMinYMin meet" x="611.5" y="-329.7"/>
<text text-anchor="start" x="626.5" y="-319.8" font-family="Helvetica,sans-Serif" font-size="11.00" fill="#000000">protocol_mapper_id</text>
<polygon fill="none" stroke="#000000" points="606.5,-290.7 606.5,-312.7 789.5,-312.7 789.5,-290.7 606.5,-290.7"/>
<image xlink:href="../../images/primaryKeys.png" width="11px" height="12px" preserveAspectRatio="xMinYMin meet" x="611.5" y="-307.7"/>
<text text-anchor="start" x="626.5" y="-297.8" font-family="Helvetica,sans-Serif" font-size="11.00" fill="#000000">client_session</text>
<polygon fill="#ffffff" stroke="transparent" points="606.5,-271.7 606.5,-290.7 683.5,-290.7 683.5,-271.7 606.5,-271.7"/>
<polygon fill="none" stroke="#000000" points="606.5,-271.7 606.5,-290.7 683.5,-290.7 683.5,-271.7 606.5,-271.7"/>
<text text-anchor="start" x="609.5" y="-277.8" font-family="Helvetica,sans-Serif" font-size="11.00" fill="#000000">&lt; 1</text>
<polygon fill="#ffffff" stroke="transparent" points="683.5,-271.7 683.5,-290.7 749.5,-290.7 749.5,-271.7 683.5,-271.7"/>
<polygon fill="none" stroke="#000000" points="683.5,-271.7 683.5,-290.7 749.5,-290.7 749.5,-271.7 683.5,-271.7"/>
<text text-anchor="start" x="714.1105" y="-277.8" font-family="Helvetica,sans-Serif" font-size="11.00" fill="#000000">0 rows</text>
<polygon fill="#ffffff" stroke="transparent" points="749.5,-271.7 749.5,-290.7 789.5,-290.7 789.5,-271.7 749.5,-271.7"/>
<polygon fill="none" stroke="#000000" points="749.5,-271.7 749.5,-290.7 789.5,-290.7 789.5,-271.7 749.5,-271.7"/>
<text text-anchor="start" x="780.3862" y="-277.8" font-family="Helvetica,sans-Serif" font-size="11.00" fill="#000000"> &#160;</text>
</a>
</g>
</g>
<!-- client_session_prot_mapper&#45;&gt;client_session -->
<g id="edge5" class="edge">
<title>client_session_prot_mapper:w&#45;&gt;client_session:e</title>
<path fill="none" stroke="#000000" d="M591.776,-301.7C579.7815,-301.7 572.3229,-301.7 555.5,-301.7"/>
<polygon fill="#000000" stroke="#000000" points="598.5,-301.7001 606.5,-305.3 602.5,-301.7 606.5,-301.7 606.5,-301.7 606.5,-301.7 602.5,-301.7 606.5,-298.1 598.5,-301.7001 598.5,-301.7001"/>
<ellipse fill="none" stroke="#000000" cx="595.3" cy="-301.7001" rx="3.2" ry="3.2"/>
</g>
<!-- client_session_role -->
<g id="node7" class="node">
<title>client_session_role</title>
<g id="a_node7"><a xlink:href="../../tables/client_session_role.html" xlink:title="client_session_role" target="_top">
<polygon fill="#ffffff" stroke="transparent" points="629.5,-164.7 629.5,-250.7 765.5,-250.7 765.5,-164.7 629.5,-164.7"/>
<polygon fill="#f5f5f5" stroke="transparent" points="629.5,-227.7 629.5,-250.7 765.5,-250.7 765.5,-227.7 629.5,-227.7"/>
<polygon fill="none" stroke="#000000" points="629.5,-227.7 629.5,-250.7 765.5,-250.7 765.5,-227.7 629.5,-227.7"/>
<text text-anchor="start" x="634.2418" y="-236.8" font-family="Helvetica,sans-Serif" font-weight="bold" font-size="11.00" fill="#000000">client_session_role</text>
<text text-anchor="start" x="731.0219" y="-235.8" font-family="Helvetica,sans-Serif" font-size="11.00" fill="#000000">[table]</text>
<polygon fill="none" stroke="#000000" points="629.5,-205.7 629.5,-227.7 765.5,-227.7 765.5,-205.7 629.5,-205.7"/>
<image xlink:href="../../images/primaryKeys.png" width="11px" height="12px" preserveAspectRatio="xMinYMin meet" x="634.5" y="-222.7"/>
<text text-anchor="start" x="651.5" y="-212.8" font-family="Helvetica,sans-Serif" font-size="11.00" fill="#000000">role_id</text>
<polygon fill="none" stroke="#000000" points="629.5,-183.7 629.5,-205.7 765.5,-205.7 765.5,-183.7 629.5,-183.7"/>
<image xlink:href="../../images/primaryKeys.png" width="11px" height="12px" preserveAspectRatio="xMinYMin meet" x="634.5" y="-200.7"/>
<text text-anchor="start" x="651.5" y="-190.8" font-family="Helvetica,sans-Serif" font-size="11.00" fill="#000000">client_session</text>
<polygon fill="#ffffff" stroke="transparent" points="629.5,-164.7 629.5,-183.7 682.5,-183.7 682.5,-164.7 629.5,-164.7"/>
<polygon fill="none" stroke="#000000" points="629.5,-164.7 629.5,-183.7 682.5,-183.7 682.5,-164.7 629.5,-164.7"/>
<text text-anchor="start" x="632.5" y="-170.8" font-family="Helvetica,sans-Serif" font-size="11.00" fill="#000000">&lt; 1</text>
<polygon fill="#ffffff" stroke="transparent" points="682.5,-164.7 682.5,-183.7 736.5,-183.7 736.5,-164.7 682.5,-164.7"/>
<polygon fill="none" stroke="#000000" points="682.5,-164.7 682.5,-183.7 736.5,-183.7 736.5,-164.7 682.5,-164.7"/>
<text text-anchor="start" x="701.1105" y="-170.8" font-family="Helvetica,sans-Serif" font-size="11.00" fill="#000000">0 rows</text>
<polygon fill="#ffffff" stroke="transparent" points="736.5,-164.7 736.5,-183.7 765.5,-183.7 765.5,-164.7 736.5,-164.7"/>
<polygon fill="none" stroke="#000000" points="736.5,-164.7 736.5,-183.7 765.5,-183.7 765.5,-164.7 736.5,-164.7"/>
<text text-anchor="start" x="756.3862" y="-170.8" font-family="Helvetica,sans-Serif" font-size="11.00" fill="#000000"> &#160;</text>
</a>
</g>
</g>
<!-- client_session_role&#45;&gt;client_session -->
<g id="edge6" class="edge">
<title>client_session_role:w&#45;&gt;client_session:e</title>
<path fill="none" stroke="#000000" d="M615.2208,-197.562C578.864,-214.578 607.674,-301.7 555.5,-301.7"/>
<polygon fill="#000000" stroke="#000000" points="621.656,-196.2722 630.2075,-198.2298 625.578,-195.4861 629.5,-194.7 629.5,-194.7 629.5,-194.7 625.578,-195.4861 628.7925,-191.1702 621.656,-196.2722 621.656,-196.2722"/>
<ellipse fill="none" stroke="#000000" cx="618.5184" cy="-196.9011" rx="3.2" ry="3.2"/>
</g>
<!-- client_user_session_note -->
<g id="node8" class="node">
<title>client_user_session_note</title>
<g id="a_node8"><a xlink:href="../../tables/client_user_session_note.html" xlink:title="client_user_session_note" target="_top">
<polygon fill="#ffffff" stroke="transparent" points="614,-38.2 614,-143.2 781,-143.2 781,-38.2 614,-38.2"/>
<polygon fill="#f5f5f5" stroke="transparent" points="614.5,-119.7 614.5,-142.7 781.5,-142.7 781.5,-119.7 614.5,-119.7"/>
<polygon fill="none" stroke="#000000" points="614.5,-119.7 614.5,-142.7 781.5,-142.7 781.5,-119.7 614.5,-119.7"/>
<text text-anchor="start" x="619.454" y="-128.8" font-family="Helvetica,sans-Serif" font-weight="bold" font-size="11.00" fill="#000000">client_user_session_note</text>
<text text-anchor="start" x="747.0219" y="-127.8" font-family="Helvetica,sans-Serif" font-size="11.00" fill="#000000">[table]</text>
<polygon fill="none" stroke="#000000" points="614.5,-97.7 614.5,-119.7 781.5,-119.7 781.5,-97.7 614.5,-97.7"/>
<image xlink:href="../../images/primaryKeys.png" width="11px" height="12px" preserveAspectRatio="xMinYMin meet" x="619.5" y="-114.7"/>
<text text-anchor="start" x="634.5" y="-104.8" font-family="Helvetica,sans-Serif" font-size="11.00" fill="#000000">name</text>
<polygon fill="none" stroke="#000000" points="614.5,-75.7 614.5,-97.7 781.5,-97.7 781.5,-75.7 614.5,-75.7"/>
<image xlink:href="../../images/primaryKeys.png" width="11px" height="12px" preserveAspectRatio="xMinYMin meet" x="619.5" y="-92.7"/>
<text text-anchor="start" x="634.5" y="-82.8" font-family="Helvetica,sans-Serif" font-size="11.00" fill="#000000">client_session</text>
<polygon fill="none" stroke="#000000" points="614.5,-56.7 614.5,-75.7 781.5,-75.7 781.5,-56.7 614.5,-56.7"/>
<text text-anchor="start" x="617.5" y="-62.8" font-family="Helvetica,sans-Serif" font-size="11.00" fill="#000000">...</text>
<polygon fill="#ffffff" stroke="transparent" points="614.5,-37.7 614.5,-56.7 683.5,-56.7 683.5,-37.7 614.5,-37.7"/>
<polygon fill="none" stroke="#000000" points="614.5,-37.7 614.5,-56.7 683.5,-56.7 683.5,-37.7 614.5,-37.7"/>
<text text-anchor="start" x="617.5" y="-43.8" font-family="Helvetica,sans-Serif" font-size="11.00" fill="#000000">&lt; 1</text>
<polygon fill="#ffffff" stroke="transparent" points="683.5,-37.7 683.5,-56.7 745.5,-56.7 745.5,-37.7 683.5,-37.7"/>
<polygon fill="none" stroke="#000000" points="683.5,-37.7 683.5,-56.7 745.5,-56.7 745.5,-37.7 683.5,-37.7"/>
<text text-anchor="start" x="710.1105" y="-43.8" font-family="Helvetica,sans-Serif" font-size="11.00" fill="#000000">0 rows</text>
<polygon fill="#ffffff" stroke="transparent" points="745.5,-37.7 745.5,-56.7 781.5,-56.7 781.5,-37.7 745.5,-37.7"/>
<polygon fill="none" stroke="#000000" points="745.5,-37.7 745.5,-56.7 781.5,-56.7 781.5,-37.7 745.5,-37.7"/>
<text text-anchor="start" x="772.3862" y="-43.8" font-family="Helvetica,sans-Serif" font-size="11.00" fill="#000000"> &#160;</text>
</a>
</g>
</g>
<!-- client_user_session_note&#45;&gt;client_session -->
<g id="edge7" class="edge">
<title>client_user_session_note:w&#45;&gt;client_session:e</title>
<path fill="none" stroke="#000000" d="M599.8693,-88.6911C530.4135,-110.3657 648.9758,-301.7 555.5,-301.7"/>
<polygon fill="#000000" stroke="#000000" points="606.5731,-87.7788 614.9855,-90.2671 610.5365,-87.2394 614.5,-86.7 614.5,-86.7 614.5,-86.7 610.5365,-87.2394 614.0145,-83.1329 606.5731,-87.7788 606.5731,-87.7788"/>
<ellipse fill="none" stroke="#000000" cx="603.4023" cy="-88.2104" rx="3.2" ry="3.2"/>
</g>
</g>
</svg>
