<?xml version="1.0" encoding="UTF-8" standalone="no"?>
<!DOCTYPE svg PUBLIC "-//W3C//DTD SVG 1.1//EN"
 "http://www.w3.org/Graphics/SVG/1.1/DTD/svg11.dtd">
<!-- Generated by graphviz version 2.40.1 (20161225.0304)
 -->
<!-- Title: twoDegreesRelationshipsDiagram Pages: 1 -->
<svg width="589pt" height="469pt"
 viewBox="0.00 0.00 589.00 469.20" xmlns="http://www.w3.org/2000/svg" xmlns:xlink="http://www.w3.org/1999/xlink">
<g id="graph0" class="graph" transform="scale(1 1) rotate(0) translate(4 465.2)">
<title>twoDegreesRelationshipsDiagram</title>
<polygon fill="#ffffff" stroke="transparent" points="-4,4 -4,-465.2 585,-465.2 585,4 -4,4"/>
<text text-anchor="middle" x="72.4936" y="-7.3" font-family="Helvetica,sans-Serif" font-size="11.00" fill="#000000">Generated by SchemaSpy</text>
<!-- client_session -->
<g id="node1" class="node">
<title>client_session</title>
<g id="a_node1"><a xlink:href="../../tables/client_session.html" xlink:title="client_session" target="_top">
<polygon fill="#ffffff" stroke="transparent" points="164,-142.2 164,-269.2 276,-269.2 276,-142.2 164,-142.2"/>
<polygon fill="#f5f5f5" stroke="transparent" points="164,-245.7 164,-268.7 276,-268.7 276,-245.7 164,-245.7"/>
<polygon fill="none" stroke="#000000" points="164,-245.7 164,-268.7 276,-268.7 276,-245.7 164,-245.7"/>
<text text-anchor="start" x="168.9655" y="-254.8" font-family="Helvetica,sans-Serif" font-weight="bold" font-size="11.00" fill="#000000">client_session</text>
<text text-anchor="start" x="241.5219" y="-253.8" font-family="Helvetica,sans-Serif" font-size="11.00" fill="#000000">[table]</text>
<polygon fill="none" stroke="#000000" points="164,-223.7 164,-245.7 276,-245.7 276,-223.7 164,-223.7"/>
<image xlink:href="../../images/primaryKeys.png" width="11px" height="12px" preserveAspectRatio="xMinYMin meet" x="169" y="-240.7"/>
<text text-anchor="start" x="188" y="-230.8" font-family="Helvetica,sans-Serif" font-size="11.00" fill="#000000">id</text>
<polygon fill="#ffffff" stroke="transparent" points="164,-201.7 164,-223.7 276,-223.7 276,-201.7 164,-201.7"/>
<polygon fill="none" stroke="#000000" points="164,-201.7 164,-223.7 276,-223.7 276,-201.7 164,-201.7"/>
<image xlink:href="../../images/foreignKeys.png" width="11px" height="12px" preserveAspectRatio="xMinYMin meet" x="169" y="-218.7"/>
<text text-anchor="start" x="188" y="-208.8" font-family="Helvetica,sans-Serif" font-size="11.00" fill="#000000">session_id</text>
<polygon fill="none" stroke="#000000" points="164,-179.7 164,-201.7 276,-201.7 276,-179.7 164,-179.7"/>
<image xlink:href="../../images/foreignKeys.png" width="11px" height="12px" preserveAspectRatio="xMinYMin meet" x="169" y="-196.7"/>
<text text-anchor="start" x="188" y="-186.8" font-family="Helvetica,sans-Serif" font-size="11.00" fill="#000000">realm_id</text>
<polygon fill="none" stroke="#000000" points="164,-160.7 164,-179.7 276,-179.7 276,-160.7 164,-160.7"/>
<text text-anchor="start" x="167" y="-166.8" font-family="Helvetica,sans-Serif" font-size="11.00" fill="#000000">...</text>
<polygon fill="#ffffff" stroke="transparent" points="164,-141.7 164,-160.7 201,-160.7 201,-141.7 164,-141.7"/>
<polygon fill="none" stroke="#000000" points="164,-141.7 164,-160.7 201,-160.7 201,-141.7 164,-141.7"/>
<text text-anchor="start" x="167" y="-147.8" font-family="Helvetica,sans-Serif" font-size="11.00" fill="#000000">&lt; 1</text>
<polygon fill="#ffffff" stroke="transparent" points="201,-141.7 201,-160.7 247,-160.7 247,-141.7 201,-141.7"/>
<polygon fill="none" stroke="#000000" points="201,-141.7 201,-160.7 247,-160.7 247,-141.7 201,-141.7"/>
<text text-anchor="start" x="211.6105" y="-147.8" font-family="Helvetica,sans-Serif" font-size="11.00" fill="#000000">0 rows</text>
<polygon fill="#ffffff" stroke="transparent" points="247,-141.7 247,-160.7 276,-160.7 276,-141.7 247,-141.7"/>
<polygon fill="none" stroke="#000000" points="247,-141.7 247,-160.7 276,-160.7 276,-141.7 247,-141.7"/>
<text text-anchor="start" x="257.4053" y="-147.8" font-family="Helvetica,sans-Serif" font-size="11.00" fill="#000000">5 &gt;</text>
</a>
</g>
</g>
<!-- user_session -->
<g id="node2" class="node">
<title>user_session</title>
<g id="a_node2"><a xlink:href="../../tables/user_session.html" xlink:title="user_session" target="_top">
<polygon fill="#ffffff" stroke="transparent" points="8,-185.2 8,-246.2 115,-246.2 115,-185.2 8,-185.2"/>
<polygon fill="#f5f5f5" stroke="transparent" points="8.5,-222.7 8.5,-245.7 115.5,-245.7 115.5,-222.7 8.5,-222.7"/>
<polygon fill="none" stroke="#000000" points="8.5,-222.7 8.5,-245.7 115.5,-245.7 115.5,-222.7 8.5,-222.7"/>
<text text-anchor="start" x="13.1039" y="-231.8" font-family="Helvetica,sans-Serif" font-weight="bold" font-size="11.00" fill="#000000">user_session</text>
<text text-anchor="start" x="81.0219" y="-230.8" font-family="Helvetica,sans-Serif" font-size="11.00" fill="#000000">[table]</text>
<polygon fill="none" stroke="#000000" points="8.5,-203.7 8.5,-222.7 115.5,-222.7 115.5,-203.7 8.5,-203.7"/>
<text text-anchor="start" x="11.5" y="-209.8" font-family="Helvetica,sans-Serif" font-size="11.00" fill="#000000">...</text>
<polygon fill="#ffffff" stroke="transparent" points="8.5,-184.7 8.5,-203.7 38.5,-203.7 38.5,-184.7 8.5,-184.7"/>
<polygon fill="none" stroke="#000000" points="8.5,-184.7 8.5,-203.7 38.5,-203.7 38.5,-184.7 8.5,-184.7"/>
<text text-anchor="start" x="11.5" y="-190.8" font-family="Helvetica,sans-Serif" font-size="11.00" fill="#000000"> &#160;</text>
<polygon fill="#ffffff" stroke="transparent" points="38.5,-184.7 38.5,-203.7 85.5,-203.7 85.5,-184.7 38.5,-184.7"/>
<polygon fill="none" stroke="#000000" points="38.5,-184.7 38.5,-203.7 85.5,-203.7 85.5,-184.7 38.5,-184.7"/>
<text text-anchor="start" x="50.1105" y="-190.8" font-family="Helvetica,sans-Serif" font-size="11.00" fill="#000000">0 rows</text>
<polygon fill="#ffffff" stroke="transparent" points="85.5,-184.7 85.5,-203.7 115.5,-203.7 115.5,-184.7 85.5,-184.7"/>
<polygon fill="none" stroke="#000000" points="85.5,-184.7 85.5,-203.7 115.5,-203.7 115.5,-184.7 85.5,-184.7"/>
<text text-anchor="start" x="96.9053" y="-190.8" font-family="Helvetica,sans-Serif" font-size="11.00" fill="#000000">2 &gt;</text>
</a>
</g>
</g>
<!-- client_session&#45;&gt;user_session -->
<g id="edge1" class="edge">
<title>client_session:w&#45;&gt;user_session:e</title>
<path fill="none" stroke="#000000" d="M149.2829,-212.7C138.2886,-212.7 131.1615,-212.7 115.5,-212.7"/>
<polygon fill="#000000" stroke="#000000" points="156,-212.7001 164,-216.3 160,-212.7 164,-212.7 164,-212.7 164,-212.7 160,-212.7 164,-209.1 156,-212.7001 156,-212.7001"/>
<ellipse fill="none" stroke="#000000" cx="152.8" cy="-212.7001" rx="3.2" ry="3.2"/>
</g>
<!-- client_session_auth_status -->
<g id="node3" class="node">
<title>client_session_auth_status</title>
<g id="a_node3"><a xlink:href="../../tables/client_session_auth_status.html" xlink:title="client_session_auth_status" target="_top">
<polygon fill="#ffffff" stroke="transparent" points="361.5,-396.2 361.5,-457.2 536.5,-457.2 536.5,-396.2 361.5,-396.2"/>
<polygon fill="#f5f5f5" stroke="transparent" points="362,-433.7 362,-456.7 537,-456.7 537,-433.7 362,-433.7"/>
<polygon fill="none" stroke="#000000" points="362,-433.7 362,-456.7 537,-456.7 537,-433.7 362,-433.7"/>
<text text-anchor="start" x="366.978" y="-442.8" font-family="Helvetica,sans-Serif" font-weight="bold" font-size="11.00" fill="#000000">client_session_auth_status</text>
<text text-anchor="start" x="502.5219" y="-441.8" font-family="Helvetica,sans-Serif" font-size="11.00" fill="#000000">[table]</text>
<polygon fill="none" stroke="#000000" points="362,-414.7 362,-433.7 537,-433.7 537,-414.7 362,-414.7"/>
<text text-anchor="start" x="365" y="-420.8" font-family="Helvetica,sans-Serif" font-size="11.00" fill="#000000">...</text>
<polygon fill="#ffffff" stroke="transparent" points="362,-395.7 362,-414.7 435,-414.7 435,-395.7 362,-395.7"/>
<polygon fill="none" stroke="#000000" points="362,-395.7 362,-414.7 435,-414.7 435,-395.7 362,-395.7"/>
<text text-anchor="start" x="365" y="-401.8" font-family="Helvetica,sans-Serif" font-size="11.00" fill="#000000">&lt; 1</text>
<polygon fill="#ffffff" stroke="transparent" points="435,-395.7 435,-414.7 499,-414.7 499,-395.7 435,-395.7"/>
<polygon fill="none" stroke="#000000" points="435,-395.7 435,-414.7 499,-414.7 499,-395.7 435,-395.7"/>
<text text-anchor="start" x="463.6105" y="-401.8" font-family="Helvetica,sans-Serif" font-size="11.00" fill="#000000">0 rows</text>
<polygon fill="#ffffff" stroke="transparent" points="499,-395.7 499,-414.7 537,-414.7 537,-395.7 499,-395.7"/>
<polygon fill="none" stroke="#000000" points="499,-395.7 499,-414.7 537,-414.7 537,-395.7 499,-395.7"/>
<text text-anchor="start" x="527.8862" y="-401.8" font-family="Helvetica,sans-Serif" font-size="11.00" fill="#000000"> &#160;</text>
</a>
</g>
</g>
<!-- client_session_auth_status&#45;&gt;client_session -->
<g id="edge2" class="edge">
<title>client_session_auth_status:w&#45;&gt;client_session:e</title>
<path fill="none" stroke="#000000" d="M347.5748,-421.5163C333.2968,-416.4389 327.9899,-402.9469 317,-385.7 279.6297,-327.0535 345.541,-234.7 276,-234.7"/>
<polygon fill="#000000" stroke="#000000" points="354.0901,-422.5026 361.4612,-427.2594 358.0451,-423.1013 362,-423.7 362,-423.7 362,-423.7 358.0451,-423.1013 362.5388,-420.1406 354.0901,-422.5026 354.0901,-422.5026"/>
<ellipse fill="none" stroke="#000000" cx="350.9262" cy="-422.0236" rx="3.2" ry="3.2"/>
</g>
<!-- client_session_note -->
<g id="node4" class="node">
<title>client_session_note</title>
<g id="a_node4"><a xlink:href="../../tables/client_session_note.html" xlink:title="client_session_note" target="_top">
<polygon fill="#ffffff" stroke="transparent" points="379.5,-314.2 379.5,-375.2 518.5,-375.2 518.5,-314.2 379.5,-314.2"/>
<polygon fill="#f5f5f5" stroke="transparent" points="380,-351.7 380,-374.7 519,-374.7 519,-351.7 380,-351.7"/>
<polygon fill="none" stroke="#000000" points="380,-351.7 380,-374.7 519,-374.7 519,-351.7 380,-351.7"/>
<text text-anchor="start" x="384.7073" y="-360.8" font-family="Helvetica,sans-Serif" font-weight="bold" font-size="11.00" fill="#000000">client_session_note</text>
<text text-anchor="start" x="484.5219" y="-359.8" font-family="Helvetica,sans-Serif" font-size="11.00" fill="#000000">[table]</text>
<polygon fill="none" stroke="#000000" points="380,-332.7 380,-351.7 519,-351.7 519,-332.7 380,-332.7"/>
<text text-anchor="start" x="383" y="-338.8" font-family="Helvetica,sans-Serif" font-size="11.00" fill="#000000">...</text>
<polygon fill="#ffffff" stroke="transparent" points="380,-313.7 380,-332.7 435,-332.7 435,-313.7 380,-313.7"/>
<polygon fill="none" stroke="#000000" points="380,-313.7 380,-332.7 435,-332.7 435,-313.7 380,-313.7"/>
<text text-anchor="start" x="383" y="-319.8" font-family="Helvetica,sans-Serif" font-size="11.00" fill="#000000">&lt; 1</text>
<polygon fill="#ffffff" stroke="transparent" points="435,-313.7 435,-332.7 490,-332.7 490,-313.7 435,-313.7"/>
<polygon fill="none" stroke="#000000" points="435,-313.7 435,-332.7 490,-332.7 490,-313.7 435,-313.7"/>
<text text-anchor="start" x="454.6105" y="-319.8" font-family="Helvetica,sans-Serif" font-size="11.00" fill="#000000">0 rows</text>
<polygon fill="#ffffff" stroke="transparent" points="490,-313.7 490,-332.7 519,-332.7 519,-313.7 490,-313.7"/>
<polygon fill="none" stroke="#000000" points="490,-313.7 490,-332.7 519,-332.7 519,-313.7 490,-313.7"/>
<text text-anchor="start" x="509.8862" y="-319.8" font-family="Helvetica,sans-Serif" font-size="11.00" fill="#000000"> &#160;</text>
</a>
</g>
</g>
<!-- client_session_note&#45;&gt;client_session -->
<g id="edge3" class="edge">
<title>client_session_note:w&#45;&gt;client_session:e</title>
<path fill="none" stroke="#000000" d="M365.4808,-340.4775C344.418,-336.4906 336.1744,-323.0015 317,-303.7 291.8595,-278.3929 311.672,-234.7 276,-234.7"/>
<polygon fill="#000000" stroke="#000000" points="372.0282,-341.0287 379.6979,-345.2873 376.0141,-341.3644 380,-341.7 380,-341.7 380,-341.7 376.0141,-341.3644 380.3021,-338.1127 372.0282,-341.0287 372.0282,-341.0287"/>
<ellipse fill="none" stroke="#000000" cx="368.8395" cy="-340.7602" rx="3.2" ry="3.2"/>
</g>
<!-- client_session_prot_mapper -->
<g id="node5" class="node">
<title>client_session_prot_mapper</title>
<g id="a_node5"><a xlink:href="../../tables/client_session_prot_mapper.html" xlink:title="client_session_prot_mapper" target="_top">
<polygon fill="#ffffff" stroke="transparent" points="325,-202.7 325,-292.7 573,-292.7 573,-202.7 325,-202.7"/>
<polygon fill="#f5f5f5" stroke="transparent" points="327,-267.7 327,-290.7 571,-290.7 571,-267.7 327,-267.7"/>
<polygon fill="none" stroke="#000000" points="327,-267.7 327,-290.7 571,-290.7 571,-267.7 327,-267.7"/>
<text text-anchor="start" x="332" y="-276.8" font-family="Helvetica,sans-Serif" font-weight="bold" font-size="11.00" fill="#000000">client_session_prot_mapper</text>
<text text-anchor="start" x="536.0437" y="-275.8" font-family="Helvetica,sans-Serif" font-size="11.00" fill="#000000">[table]</text>
<polygon fill="none" stroke="#000000" points="327,-245.7 327,-267.7 510,-267.7 510,-245.7 327,-245.7"/>
<image xlink:href="../../images/primaryKeys.png" width="11px" height="12px" preserveAspectRatio="xMinYMin meet" x="332" y="-262.7"/>
<text text-anchor="start" x="347" y="-252.8" font-family="Helvetica,sans-Serif" font-size="11.00" fill="#000000">protocol_mapper_id</text>
<polygon fill="none" stroke="#000000" points="510,-245.7 510,-267.7 571,-267.7 571,-245.7 510,-245.7"/>
<text text-anchor="start" x="512.994" y="-253.4" font-family="Helvetica,sans-Serif" font-size="11.00" fill="#000000">varchar[36]</text>
<polygon fill="none" stroke="#000000" points="327,-223.7 327,-245.7 510,-245.7 510,-223.7 327,-223.7"/>
<image xlink:href="../../images/primaryKeys.png" width="11px" height="12px" preserveAspectRatio="xMinYMin meet" x="332" y="-240.7"/>
<text text-anchor="start" x="347" y="-230.8" font-family="Helvetica,sans-Serif" font-size="11.00" fill="#000000">client_session</text>
<polygon fill="none" stroke="#000000" points="510,-223.7 510,-245.7 571,-245.7 571,-223.7 510,-223.7"/>
<text text-anchor="start" x="512.994" y="-231.4" font-family="Helvetica,sans-Serif" font-size="11.00" fill="#000000">varchar[36]</text>
<polygon fill="#ffffff" stroke="transparent" points="327,-204.7 327,-223.7 410,-223.7 410,-204.7 327,-204.7"/>
<polygon fill="none" stroke="#000000" points="327,-204.7 327,-223.7 410,-223.7 410,-204.7 327,-204.7"/>
<text text-anchor="start" x="330" y="-210.8" font-family="Helvetica,sans-Serif" font-size="11.00" fill="#000000">&lt; 1</text>
<polygon fill="#ffffff" stroke="transparent" points="410,-204.7 410,-223.7 510,-223.7 510,-204.7 410,-204.7"/>
<polygon fill="none" stroke="#000000" points="410,-204.7 410,-223.7 510,-223.7 510,-204.7 410,-204.7"/>
<text text-anchor="start" x="474.6105" y="-210.8" font-family="Helvetica,sans-Serif" font-size="11.00" fill="#000000">0 rows</text>
<polygon fill="#ffffff" stroke="transparent" points="510,-204.7 510,-223.7 571,-223.7 571,-204.7 510,-204.7"/>
<polygon fill="none" stroke="#000000" points="510,-204.7 510,-223.7 571,-223.7 571,-204.7 510,-204.7"/>
<text text-anchor="start" x="552.4053" y="-210.8" font-family="Helvetica,sans-Serif" font-size="11.00" fill="#000000">0 &gt;</text>
<polygon fill="none" stroke="#000000" stroke-width="2" points="326,-203.7 326,-291.7 572,-291.7 572,-203.7 326,-203.7"/>
</a>
</g>
</g>
<!-- client_session_prot_mapper&#45;&gt;client_session -->
<g id="edge4" class="edge">
<title>client_session_prot_mapper:w&#45;&gt;client_session:e</title>
<path fill="none" stroke="#000000" d="M312.276,-234.7C300.2815,-234.7 292.8229,-234.7 276,-234.7"/>
<polygon fill="#000000" stroke="#000000" points="319,-234.7001 327,-238.3 323,-234.7 327,-234.7 327,-234.7 327,-234.7 323,-234.7 327,-231.1 319,-234.7001 319,-234.7001"/>
<ellipse fill="none" stroke="#000000" cx="315.8" cy="-234.7001" rx="3.2" ry="3.2"/>
</g>
<!-- client_session_role -->
<g id="node6" class="node">
<title>client_session_role</title>
<g id="a_node6"><a xlink:href="../../tables/client_session_role.html" xlink:title="client_session_role" target="_top">
<polygon fill="#ffffff" stroke="transparent" points="381,-120.2 381,-181.2 517,-181.2 517,-120.2 381,-120.2"/>
<polygon fill="#f5f5f5" stroke="transparent" points="381,-157.7 381,-180.7 517,-180.7 517,-157.7 381,-157.7"/>
<polygon fill="none" stroke="#000000" points="381,-157.7 381,-180.7 517,-180.7 517,-157.7 381,-157.7"/>
<text text-anchor="start" x="385.7418" y="-166.8" font-family="Helvetica,sans-Serif" font-weight="bold" font-size="11.00" fill="#000000">client_session_role</text>
<text text-anchor="start" x="482.5219" y="-165.8" font-family="Helvetica,sans-Serif" font-size="11.00" fill="#000000">[table]</text>
<polygon fill="none" stroke="#000000" points="381,-138.7 381,-157.7 517,-157.7 517,-138.7 381,-138.7"/>
<text text-anchor="start" x="384" y="-144.8" font-family="Helvetica,sans-Serif" font-size="11.00" fill="#000000">...</text>
<polygon fill="#ffffff" stroke="transparent" points="381,-119.7 381,-138.7 434,-138.7 434,-119.7 381,-119.7"/>
<polygon fill="none" stroke="#000000" points="381,-119.7 381,-138.7 434,-138.7 434,-119.7 381,-119.7"/>
<text text-anchor="start" x="384" y="-125.8" font-family="Helvetica,sans-Serif" font-size="11.00" fill="#000000">&lt; 1</text>
<polygon fill="#ffffff" stroke="transparent" points="434,-119.7 434,-138.7 488,-138.7 488,-119.7 434,-119.7"/>
<polygon fill="none" stroke="#000000" points="434,-119.7 434,-138.7 488,-138.7 488,-119.7 434,-119.7"/>
<text text-anchor="start" x="452.6105" y="-125.8" font-family="Helvetica,sans-Serif" font-size="11.00" fill="#000000">0 rows</text>
<polygon fill="#ffffff" stroke="transparent" points="488,-119.7 488,-138.7 517,-138.7 517,-119.7 488,-119.7"/>
<polygon fill="none" stroke="#000000" points="488,-119.7 488,-138.7 517,-138.7 517,-119.7 488,-119.7"/>
<text text-anchor="start" x="507.8862" y="-125.8" font-family="Helvetica,sans-Serif" font-size="11.00" fill="#000000"> &#160;</text>
</a>
</g>
</g>
<!-- client_session_role&#45;&gt;client_session -->
<g id="edge5" class="edge">
<title>client_session_role:w&#45;&gt;client_session:e</title>
<path fill="none" stroke="#000000" d="M366.5284,-149.3366C344.739,-154.8971 339.2388,-173.7725 317,-192.7 297.1346,-209.6074 302.0863,-234.7 276,-234.7"/>
<polygon fill="#000000" stroke="#000000" points="373.0507,-148.599 381.4046,-151.2772 377.0253,-148.1495 381,-147.7 381,-147.7 381,-147.7 377.0253,-148.1495 380.5954,-144.1228 373.0507,-148.599 373.0507,-148.599"/>
<ellipse fill="none" stroke="#000000" cx="369.8709" cy="-148.9586" rx="3.2" ry="3.2"/>
</g>
<!-- client_user_session_note -->
<g id="node7" class="node">
<title>client_user_session_note</title>
<g id="a_node7"><a xlink:href="../../tables/client_user_session_note.html" xlink:title="client_user_session_note" target="_top">
<polygon fill="#ffffff" stroke="transparent" points="365.5,-38.2 365.5,-99.2 532.5,-99.2 532.5,-38.2 365.5,-38.2"/>
<polygon fill="#f5f5f5" stroke="transparent" points="366,-75.7 366,-98.7 533,-98.7 533,-75.7 366,-75.7"/>
<polygon fill="none" stroke="#000000" points="366,-75.7 366,-98.7 533,-98.7 533,-75.7 366,-75.7"/>
<text text-anchor="start" x="370.954" y="-84.8" font-family="Helvetica,sans-Serif" font-weight="bold" font-size="11.00" fill="#000000">client_user_session_note</text>
<text text-anchor="start" x="498.5219" y="-83.8" font-family="Helvetica,sans-Serif" font-size="11.00" fill="#000000">[table]</text>
<polygon fill="none" stroke="#000000" points="366,-56.7 366,-75.7 533,-75.7 533,-56.7 366,-56.7"/>
<text text-anchor="start" x="369" y="-62.8" font-family="Helvetica,sans-Serif" font-size="11.00" fill="#000000">...</text>
<polygon fill="#ffffff" stroke="transparent" points="366,-37.7 366,-56.7 435,-56.7 435,-37.7 366,-37.7"/>
<polygon fill="none" stroke="#000000" points="366,-37.7 366,-56.7 435,-56.7 435,-37.7 366,-37.7"/>
<text text-anchor="start" x="369" y="-43.8" font-family="Helvetica,sans-Serif" font-size="11.00" fill="#000000">&lt; 1</text>
<polygon fill="#ffffff" stroke="transparent" points="435,-37.7 435,-56.7 497,-56.7 497,-37.7 435,-37.7"/>
<polygon fill="none" stroke="#000000" points="435,-37.7 435,-56.7 497,-56.7 497,-37.7 435,-37.7"/>
<text text-anchor="start" x="461.6105" y="-43.8" font-family="Helvetica,sans-Serif" font-size="11.00" fill="#000000">0 rows</text>
<polygon fill="#ffffff" stroke="transparent" points="497,-37.7 497,-56.7 533,-56.7 533,-37.7 497,-37.7"/>
<polygon fill="none" stroke="#000000" points="497,-37.7 497,-56.7 533,-56.7 533,-37.7 497,-37.7"/>
<text text-anchor="start" x="523.8862" y="-43.8" font-family="Helvetica,sans-Serif" font-size="11.00" fill="#000000"> &#160;</text>
</a>
</g>
</g>
<!-- client_user_session_note&#45;&gt;client_session -->
<g id="edge6" class="edge">
<title>client_user_session_note:w&#45;&gt;client_session:e</title>
<path fill="none" stroke="#000000" d="M351.4902,-67.8222C334.8028,-73.5034 329.8685,-89.9737 317,-109.7 285.0549,-158.6692 334.4677,-234.7 276,-234.7"/>
<polygon fill="#000000" stroke="#000000" points="358.0842,-66.8578 366.521,-69.2621 362.0421,-66.2789 366,-65.7 366,-65.7 366,-65.7 362.0421,-66.2789 365.479,-62.1379 358.0842,-66.8578 358.0842,-66.8578"/>
<ellipse fill="none" stroke="#000000" cx="354.9179" cy="-67.321" rx="3.2" ry="3.2"/>
</g>
</g>
</svg>
