<?xml version="1.0" encoding="UTF-8" standalone="no"?>
<!DOCTYPE svg PUBLIC "-//W3C//DTD SVG 1.1//EN"
 "http://www.w3.org/Graphics/SVG/1.1/DTD/svg11.dtd">
<!-- Generated by graphviz version 2.40.1 (20161225.0304)
 -->
<!-- Title: twoDegreesRelationshipsDiagram Pages: 1 -->
<svg width="583pt" height="491pt"
 viewBox="0.00 0.00 583.00 490.70" xmlns="http://www.w3.org/2000/svg" xmlns:xlink="http://www.w3.org/1999/xlink">
<g id="graph0" class="graph" transform="scale(1 1) rotate(0) translate(4 486.7)">
<title>twoDegreesRelationshipsDiagram</title>
<polygon fill="#ffffff" stroke="transparent" points="-4,4 -4,-486.7 579,-486.7 579,4 -4,4"/>
<text text-anchor="middle" x="72.4936" y="-7.3" font-family="Helvetica,sans-Serif" font-size="11.00" fill="#000000">Generated by SchemaSpy</text>
<!-- client_session -->
<g id="node1" class="node">
<title>client_session</title>
<g id="a_node1"><a xlink:href="../../tables/client_session.html" xlink:title="client_session" target="_top">
<polygon fill="#ffffff" stroke="transparent" points="164,-137.2 164,-264.2 276,-264.2 276,-137.2 164,-137.2"/>
<polygon fill="#f5f5f5" stroke="transparent" points="164,-240.7 164,-263.7 276,-263.7 276,-240.7 164,-240.7"/>
<polygon fill="none" stroke="#000000" points="164,-240.7 164,-263.7 276,-263.7 276,-240.7 164,-240.7"/>
<text text-anchor="start" x="168.9655" y="-249.8" font-family="Helvetica,sans-Serif" font-weight="bold" font-size="11.00" fill="#000000">client_session</text>
<text text-anchor="start" x="241.5219" y="-248.8" font-family="Helvetica,sans-Serif" font-size="11.00" fill="#000000">[table]</text>
<polygon fill="none" stroke="#000000" points="164,-218.7 164,-240.7 276,-240.7 276,-218.7 164,-218.7"/>
<image xlink:href="../../images/primaryKeys.png" width="11px" height="12px" preserveAspectRatio="xMinYMin meet" x="169" y="-235.7"/>
<text text-anchor="start" x="188" y="-225.8" font-family="Helvetica,sans-Serif" font-size="11.00" fill="#000000">id</text>
<polygon fill="#ffffff" stroke="transparent" points="164,-196.7 164,-218.7 276,-218.7 276,-196.7 164,-196.7"/>
<polygon fill="none" stroke="#000000" points="164,-196.7 164,-218.7 276,-218.7 276,-196.7 164,-196.7"/>
<image xlink:href="../../images/foreignKeys.png" width="11px" height="12px" preserveAspectRatio="xMinYMin meet" x="169" y="-213.7"/>
<text text-anchor="start" x="188" y="-203.8" font-family="Helvetica,sans-Serif" font-size="11.00" fill="#000000">session_id</text>
<polygon fill="none" stroke="#000000" points="164,-174.7 164,-196.7 276,-196.7 276,-174.7 164,-174.7"/>
<image xlink:href="../../images/foreignKeys.png" width="11px" height="12px" preserveAspectRatio="xMinYMin meet" x="169" y="-191.7"/>
<text text-anchor="start" x="188" y="-181.8" font-family="Helvetica,sans-Serif" font-size="11.00" fill="#000000">realm_id</text>
<polygon fill="none" stroke="#000000" points="164,-155.7 164,-174.7 276,-174.7 276,-155.7 164,-155.7"/>
<text text-anchor="start" x="167" y="-161.8" font-family="Helvetica,sans-Serif" font-size="11.00" fill="#000000">...</text>
<polygon fill="#ffffff" stroke="transparent" points="164,-136.7 164,-155.7 201,-155.7 201,-136.7 164,-136.7"/>
<polygon fill="none" stroke="#000000" points="164,-136.7 164,-155.7 201,-155.7 201,-136.7 164,-136.7"/>
<text text-anchor="start" x="167" y="-142.8" font-family="Helvetica,sans-Serif" font-size="11.00" fill="#000000">&lt; 1</text>
<polygon fill="#ffffff" stroke="transparent" points="201,-136.7 201,-155.7 247,-155.7 247,-136.7 201,-136.7"/>
<polygon fill="none" stroke="#000000" points="201,-136.7 201,-155.7 247,-155.7 247,-136.7 201,-136.7"/>
<text text-anchor="start" x="211.6105" y="-142.8" font-family="Helvetica,sans-Serif" font-size="11.00" fill="#000000">0 rows</text>
<polygon fill="#ffffff" stroke="transparent" points="247,-136.7 247,-155.7 276,-155.7 276,-136.7 247,-136.7"/>
<polygon fill="none" stroke="#000000" points="247,-136.7 247,-155.7 276,-155.7 276,-136.7 247,-136.7"/>
<text text-anchor="start" x="257.4053" y="-142.8" font-family="Helvetica,sans-Serif" font-size="11.00" fill="#000000">5 &gt;</text>
</a>
</g>
</g>
<!-- user_session -->
<g id="node2" class="node">
<title>user_session</title>
<g id="a_node2"><a xlink:href="../../tables/user_session.html" xlink:title="user_session" target="_top">
<polygon fill="#ffffff" stroke="transparent" points="8,-180.2 8,-241.2 115,-241.2 115,-180.2 8,-180.2"/>
<polygon fill="#f5f5f5" stroke="transparent" points="8.5,-217.7 8.5,-240.7 115.5,-240.7 115.5,-217.7 8.5,-217.7"/>
<polygon fill="none" stroke="#000000" points="8.5,-217.7 8.5,-240.7 115.5,-240.7 115.5,-217.7 8.5,-217.7"/>
<text text-anchor="start" x="13.1039" y="-226.8" font-family="Helvetica,sans-Serif" font-weight="bold" font-size="11.00" fill="#000000">user_session</text>
<text text-anchor="start" x="81.0219" y="-225.8" font-family="Helvetica,sans-Serif" font-size="11.00" fill="#000000">[table]</text>
<polygon fill="none" stroke="#000000" points="8.5,-198.7 8.5,-217.7 115.5,-217.7 115.5,-198.7 8.5,-198.7"/>
<text text-anchor="start" x="11.5" y="-204.8" font-family="Helvetica,sans-Serif" font-size="11.00" fill="#000000">...</text>
<polygon fill="#ffffff" stroke="transparent" points="8.5,-179.7 8.5,-198.7 38.5,-198.7 38.5,-179.7 8.5,-179.7"/>
<polygon fill="none" stroke="#000000" points="8.5,-179.7 8.5,-198.7 38.5,-198.7 38.5,-179.7 8.5,-179.7"/>
<text text-anchor="start" x="11.5" y="-185.8" font-family="Helvetica,sans-Serif" font-size="11.00" fill="#000000"> &#160;</text>
<polygon fill="#ffffff" stroke="transparent" points="38.5,-179.7 38.5,-198.7 85.5,-198.7 85.5,-179.7 38.5,-179.7"/>
<polygon fill="none" stroke="#000000" points="38.5,-179.7 38.5,-198.7 85.5,-198.7 85.5,-179.7 38.5,-179.7"/>
<text text-anchor="start" x="50.1105" y="-185.8" font-family="Helvetica,sans-Serif" font-size="11.00" fill="#000000">0 rows</text>
<polygon fill="#ffffff" stroke="transparent" points="85.5,-179.7 85.5,-198.7 115.5,-198.7 115.5,-179.7 85.5,-179.7"/>
<polygon fill="none" stroke="#000000" points="85.5,-179.7 85.5,-198.7 115.5,-198.7 115.5,-179.7 85.5,-179.7"/>
<text text-anchor="start" x="96.9053" y="-185.8" font-family="Helvetica,sans-Serif" font-size="11.00" fill="#000000">2 &gt;</text>
</a>
</g>
</g>
<!-- client_session&#45;&gt;user_session -->
<g id="edge1" class="edge">
<title>client_session:w&#45;&gt;user_session:e</title>
<path fill="none" stroke="#000000" d="M149.2829,-207.7C138.2886,-207.7 131.1615,-207.7 115.5,-207.7"/>
<polygon fill="#000000" stroke="#000000" points="156,-207.7001 164,-211.3 160,-207.7 164,-207.7 164,-207.7 164,-207.7 160,-207.7 164,-204.1 156,-207.7001 156,-207.7001"/>
<ellipse fill="none" stroke="#000000" cx="152.8" cy="-207.7001" rx="3.2" ry="3.2"/>
</g>
<!-- client_session_auth_status -->
<g id="node3" class="node">
<title>client_session_auth_status</title>
<g id="a_node3"><a xlink:href="../../tables/client_session_auth_status.html" xlink:title="client_session_auth_status" target="_top">
<polygon fill="#ffffff" stroke="transparent" points="325,-366.7 325,-478.7 567,-478.7 567,-366.7 325,-366.7"/>
<polygon fill="#f5f5f5" stroke="transparent" points="327,-453.7 327,-476.7 565,-476.7 565,-453.7 327,-453.7"/>
<polygon fill="none" stroke="#000000" points="327,-453.7 327,-476.7 565,-476.7 565,-453.7 327,-453.7"/>
<text text-anchor="start" x="332" y="-462.8" font-family="Helvetica,sans-Serif" font-weight="bold" font-size="11.00" fill="#000000">client_session_auth_status</text>
<text text-anchor="start" x="530.0437" y="-461.8" font-family="Helvetica,sans-Serif" font-size="11.00" fill="#000000">[table]</text>
<polygon fill="none" stroke="#000000" points="327,-431.7 327,-453.7 504,-453.7 504,-431.7 327,-431.7"/>
<image xlink:href="../../images/primaryKeys.png" width="11px" height="12px" preserveAspectRatio="xMinYMin meet" x="332" y="-448.7"/>
<text text-anchor="start" x="347" y="-438.8" font-family="Helvetica,sans-Serif" font-size="11.00" fill="#000000">authenticator</text>
<polygon fill="none" stroke="#000000" points="504,-431.7 504,-453.7 565,-453.7 565,-431.7 504,-431.7"/>
<text text-anchor="start" x="506.994" y="-439.4" font-family="Helvetica,sans-Serif" font-size="11.00" fill="#000000">varchar[36]</text>
<polygon fill="none" stroke="#000000" points="327,-409.7 327,-431.7 504,-431.7 504,-409.7 327,-409.7"/>
<text text-anchor="start" x="347" y="-416.8" font-family="Helvetica,sans-Serif" font-size="11.00" fill="#000000">status</text>
<polygon fill="none" stroke="#000000" points="504,-409.7 504,-431.7 565,-431.7 565,-409.7 504,-409.7"/>
<text text-anchor="start" x="507" y="-417.4" font-family="Helvetica,sans-Serif" font-size="11.00" fill="#000000">int4[10]</text>
<polygon fill="none" stroke="#000000" points="327,-387.7 327,-409.7 504,-409.7 504,-387.7 327,-387.7"/>
<image xlink:href="../../images/primaryKeys.png" width="11px" height="12px" preserveAspectRatio="xMinYMin meet" x="332" y="-404.7"/>
<text text-anchor="start" x="347" y="-394.8" font-family="Helvetica,sans-Serif" font-size="11.00" fill="#000000">client_session</text>
<polygon fill="none" stroke="#000000" points="504,-387.7 504,-409.7 565,-409.7 565,-387.7 504,-387.7"/>
<text text-anchor="start" x="506.994" y="-395.4" font-family="Helvetica,sans-Serif" font-size="11.00" fill="#000000">varchar[36]</text>
<polygon fill="#ffffff" stroke="transparent" points="327,-368.7 327,-387.7 407,-387.7 407,-368.7 327,-368.7"/>
<polygon fill="none" stroke="#000000" points="327,-368.7 327,-387.7 407,-387.7 407,-368.7 327,-368.7"/>
<text text-anchor="start" x="330" y="-374.8" font-family="Helvetica,sans-Serif" font-size="11.00" fill="#000000">&lt; 1</text>
<polygon fill="#ffffff" stroke="transparent" points="407,-368.7 407,-387.7 504,-387.7 504,-368.7 407,-368.7"/>
<polygon fill="none" stroke="#000000" points="407,-368.7 407,-387.7 504,-387.7 504,-368.7 407,-368.7"/>
<text text-anchor="start" x="468.6105" y="-374.8" font-family="Helvetica,sans-Serif" font-size="11.00" fill="#000000">0 rows</text>
<polygon fill="#ffffff" stroke="transparent" points="504,-368.7 504,-387.7 565,-387.7 565,-368.7 504,-368.7"/>
<polygon fill="none" stroke="#000000" points="504,-368.7 504,-387.7 565,-387.7 565,-368.7 504,-368.7"/>
<text text-anchor="start" x="546.4053" y="-374.8" font-family="Helvetica,sans-Serif" font-size="11.00" fill="#000000">0 &gt;</text>
<polygon fill="none" stroke="#000000" stroke-width="2" points="326,-367.7 326,-477.7 566,-477.7 566,-367.7 326,-367.7"/>
</a>
</g>
</g>
<!-- client_session_auth_status&#45;&gt;client_session -->
<g id="edge2" class="edge">
<title>client_session_auth_status:w&#45;&gt;client_session:e</title>
<path fill="none" stroke="#000000" d="M312.7402,-396.1798C262.8882,-375.1568 348.787,-229.7 276,-229.7"/>
<polygon fill="#000000" stroke="#000000" points="319.1221,-397.3077 326.3735,-402.2451 323.061,-398.0038 327,-398.7 327,-398.7 327,-398.7 323.061,-398.0038 327.6265,-395.1549 319.1221,-397.3077 319.1221,-397.3077"/>
<ellipse fill="none" stroke="#000000" cx="315.9709" cy="-396.7508" rx="3.2" ry="3.2"/>
</g>
<!-- client_session_note -->
<g id="node4" class="node">
<title>client_session_note</title>
<g id="a_node4"><a xlink:href="../../tables/client_session_note.html" xlink:title="client_session_note" target="_top">
<polygon fill="#ffffff" stroke="transparent" points="376.5,-284.2 376.5,-345.2 515.5,-345.2 515.5,-284.2 376.5,-284.2"/>
<polygon fill="#f5f5f5" stroke="transparent" points="377,-321.7 377,-344.7 516,-344.7 516,-321.7 377,-321.7"/>
<polygon fill="none" stroke="#000000" points="377,-321.7 377,-344.7 516,-344.7 516,-321.7 377,-321.7"/>
<text text-anchor="start" x="381.7073" y="-330.8" font-family="Helvetica,sans-Serif" font-weight="bold" font-size="11.00" fill="#000000">client_session_note</text>
<text text-anchor="start" x="481.5219" y="-329.8" font-family="Helvetica,sans-Serif" font-size="11.00" fill="#000000">[table]</text>
<polygon fill="none" stroke="#000000" points="377,-302.7 377,-321.7 516,-321.7 516,-302.7 377,-302.7"/>
<text text-anchor="start" x="380" y="-308.8" font-family="Helvetica,sans-Serif" font-size="11.00" fill="#000000">...</text>
<polygon fill="#ffffff" stroke="transparent" points="377,-283.7 377,-302.7 432,-302.7 432,-283.7 377,-283.7"/>
<polygon fill="none" stroke="#000000" points="377,-283.7 377,-302.7 432,-302.7 432,-283.7 377,-283.7"/>
<text text-anchor="start" x="380" y="-289.8" font-family="Helvetica,sans-Serif" font-size="11.00" fill="#000000">&lt; 1</text>
<polygon fill="#ffffff" stroke="transparent" points="432,-283.7 432,-302.7 487,-302.7 487,-283.7 432,-283.7"/>
<polygon fill="none" stroke="#000000" points="432,-283.7 432,-302.7 487,-302.7 487,-283.7 432,-283.7"/>
<text text-anchor="start" x="451.6105" y="-289.8" font-family="Helvetica,sans-Serif" font-size="11.00" fill="#000000">0 rows</text>
<polygon fill="#ffffff" stroke="transparent" points="487,-283.7 487,-302.7 516,-302.7 516,-283.7 487,-283.7"/>
<polygon fill="none" stroke="#000000" points="487,-283.7 487,-302.7 516,-302.7 516,-283.7 487,-283.7"/>
<text text-anchor="start" x="506.8862" y="-289.8" font-family="Helvetica,sans-Serif" font-size="11.00" fill="#000000"> &#160;</text>
</a>
</g>
</g>
<!-- client_session_note&#45;&gt;client_session -->
<g id="edge3" class="edge">
<title>client_session_note:w&#45;&gt;client_session:e</title>
<path fill="none" stroke="#000000" d="M362.6379,-310.1303C343.3558,-305.3553 337.0215,-290.313 317,-273.7 296.4296,-256.6316 302.7296,-229.7 276,-229.7"/>
<polygon fill="#000000" stroke="#000000" points="369.0474,-310.8308 376.6088,-315.2787 373.0237,-311.2654 377,-311.7 377,-311.7 377,-311.7 373.0237,-311.2654 377.3912,-308.1213 369.0474,-310.8308 369.0474,-310.8308"/>
<ellipse fill="none" stroke="#000000" cx="365.8663" cy="-310.4831" rx="3.2" ry="3.2"/>
</g>
<!-- client_session_prot_mapper -->
<g id="node5" class="node">
<title>client_session_prot_mapper</title>
<g id="a_node5"><a xlink:href="../../tables/client_session_prot_mapper.html" xlink:title="client_session_prot_mapper" target="_top">
<polygon fill="#ffffff" stroke="transparent" points="356,-202.2 356,-263.2 536,-263.2 536,-202.2 356,-202.2"/>
<polygon fill="#f5f5f5" stroke="transparent" points="356,-239.7 356,-262.7 536,-262.7 536,-239.7 356,-239.7"/>
<polygon fill="none" stroke="#000000" points="356,-239.7 356,-262.7 536,-262.7 536,-239.7 356,-239.7"/>
<text text-anchor="start" x="360.7346" y="-248.8" font-family="Helvetica,sans-Serif" font-weight="bold" font-size="11.00" fill="#000000">client_session_prot_mapper</text>
<text text-anchor="start" x="501.5219" y="-247.8" font-family="Helvetica,sans-Serif" font-size="11.00" fill="#000000">[table]</text>
<polygon fill="none" stroke="#000000" points="356,-220.7 356,-239.7 536,-239.7 536,-220.7 356,-220.7"/>
<text text-anchor="start" x="359" y="-226.8" font-family="Helvetica,sans-Serif" font-size="11.00" fill="#000000">...</text>
<polygon fill="#ffffff" stroke="transparent" points="356,-201.7 356,-220.7 431,-220.7 431,-201.7 356,-201.7"/>
<polygon fill="none" stroke="#000000" points="356,-201.7 356,-220.7 431,-220.7 431,-201.7 356,-201.7"/>
<text text-anchor="start" x="359" y="-207.8" font-family="Helvetica,sans-Serif" font-size="11.00" fill="#000000">&lt; 1</text>
<polygon fill="#ffffff" stroke="transparent" points="431,-201.7 431,-220.7 496,-220.7 496,-201.7 431,-201.7"/>
<polygon fill="none" stroke="#000000" points="431,-201.7 431,-220.7 496,-220.7 496,-201.7 431,-201.7"/>
<text text-anchor="start" x="460.6105" y="-207.8" font-family="Helvetica,sans-Serif" font-size="11.00" fill="#000000">0 rows</text>
<polygon fill="#ffffff" stroke="transparent" points="496,-201.7 496,-220.7 536,-220.7 536,-201.7 496,-201.7"/>
<polygon fill="none" stroke="#000000" points="496,-201.7 496,-220.7 536,-220.7 536,-201.7 496,-201.7"/>
<text text-anchor="start" x="526.8862" y="-207.8" font-family="Helvetica,sans-Serif" font-size="11.00" fill="#000000"> &#160;</text>
</a>
</g>
</g>
<!-- client_session_prot_mapper&#45;&gt;client_session -->
<g id="edge4" class="edge">
<title>client_session_prot_mapper:w&#45;&gt;client_session:e</title>
<path fill="none" stroke="#000000" d="M341.4181,-229.7C317.1172,-229.7 306.1389,-229.7 276,-229.7"/>
<polygon fill="#000000" stroke="#000000" points="348,-229.7001 356,-233.3 352,-229.7 356,-229.7 356,-229.7 356,-229.7 352,-229.7 356,-226.1 348,-229.7001 348,-229.7001"/>
<ellipse fill="none" stroke="#000000" cx="344.8" cy="-229.7001" rx="3.2" ry="3.2"/>
</g>
<!-- client_session_role -->
<g id="node6" class="node">
<title>client_session_role</title>
<g id="a_node6"><a xlink:href="../../tables/client_session_role.html" xlink:title="client_session_role" target="_top">
<polygon fill="#ffffff" stroke="transparent" points="378,-120.2 378,-181.2 514,-181.2 514,-120.2 378,-120.2"/>
<polygon fill="#f5f5f5" stroke="transparent" points="378,-157.7 378,-180.7 514,-180.7 514,-157.7 378,-157.7"/>
<polygon fill="none" stroke="#000000" points="378,-157.7 378,-180.7 514,-180.7 514,-157.7 378,-157.7"/>
<text text-anchor="start" x="382.7418" y="-166.8" font-family="Helvetica,sans-Serif" font-weight="bold" font-size="11.00" fill="#000000">client_session_role</text>
<text text-anchor="start" x="479.5219" y="-165.8" font-family="Helvetica,sans-Serif" font-size="11.00" fill="#000000">[table]</text>
<polygon fill="none" stroke="#000000" points="378,-138.7 378,-157.7 514,-157.7 514,-138.7 378,-138.7"/>
<text text-anchor="start" x="381" y="-144.8" font-family="Helvetica,sans-Serif" font-size="11.00" fill="#000000">...</text>
<polygon fill="#ffffff" stroke="transparent" points="378,-119.7 378,-138.7 431,-138.7 431,-119.7 378,-119.7"/>
<polygon fill="none" stroke="#000000" points="378,-119.7 378,-138.7 431,-138.7 431,-119.7 378,-119.7"/>
<text text-anchor="start" x="381" y="-125.8" font-family="Helvetica,sans-Serif" font-size="11.00" fill="#000000">&lt; 1</text>
<polygon fill="#ffffff" stroke="transparent" points="431,-119.7 431,-138.7 485,-138.7 485,-119.7 431,-119.7"/>
<polygon fill="none" stroke="#000000" points="431,-119.7 431,-138.7 485,-138.7 485,-119.7 431,-119.7"/>
<text text-anchor="start" x="449.6105" y="-125.8" font-family="Helvetica,sans-Serif" font-size="11.00" fill="#000000">0 rows</text>
<polygon fill="#ffffff" stroke="transparent" points="485,-119.7 485,-138.7 514,-138.7 514,-119.7 485,-119.7"/>
<polygon fill="none" stroke="#000000" points="485,-119.7 485,-138.7 514,-138.7 514,-119.7 485,-119.7"/>
<text text-anchor="start" x="504.8862" y="-125.8" font-family="Helvetica,sans-Serif" font-size="11.00" fill="#000000"> &#160;</text>
</a>
</g>
</g>
<!-- client_session_role&#45;&gt;client_session -->
<g id="edge5" class="edge">
<title>client_session_role:w&#45;&gt;client_session:e</title>
<path fill="none" stroke="#000000" d="M363.5753,-149.5156C343.3163,-155.3201 338.5185,-174.0783 317,-191.7 297.7777,-207.4413 300.8452,-229.7 276,-229.7"/>
<polygon fill="#000000" stroke="#000000" points="370.0626,-148.6991 378.4496,-151.2718 374.0313,-148.1996 378,-147.7 378,-147.7 378,-147.7 374.0313,-148.1996 377.5504,-144.1282 370.0626,-148.6991 370.0626,-148.6991"/>
<ellipse fill="none" stroke="#000000" cx="366.8877" cy="-149.0988" rx="3.2" ry="3.2"/>
</g>
<!-- client_user_session_note -->
<g id="node7" class="node">
<title>client_user_session_note</title>
<g id="a_node7"><a xlink:href="../../tables/client_user_session_note.html" xlink:title="client_user_session_note" target="_top">
<polygon fill="#ffffff" stroke="transparent" points="362.5,-38.2 362.5,-99.2 529.5,-99.2 529.5,-38.2 362.5,-38.2"/>
<polygon fill="#f5f5f5" stroke="transparent" points="363,-75.7 363,-98.7 530,-98.7 530,-75.7 363,-75.7"/>
<polygon fill="none" stroke="#000000" points="363,-75.7 363,-98.7 530,-98.7 530,-75.7 363,-75.7"/>
<text text-anchor="start" x="367.954" y="-84.8" font-family="Helvetica,sans-Serif" font-weight="bold" font-size="11.00" fill="#000000">client_user_session_note</text>
<text text-anchor="start" x="495.5219" y="-83.8" font-family="Helvetica,sans-Serif" font-size="11.00" fill="#000000">[table]</text>
<polygon fill="none" stroke="#000000" points="363,-56.7 363,-75.7 530,-75.7 530,-56.7 363,-56.7"/>
<text text-anchor="start" x="366" y="-62.8" font-family="Helvetica,sans-Serif" font-size="11.00" fill="#000000">...</text>
<polygon fill="#ffffff" stroke="transparent" points="363,-37.7 363,-56.7 432,-56.7 432,-37.7 363,-37.7"/>
<polygon fill="none" stroke="#000000" points="363,-37.7 363,-56.7 432,-56.7 432,-37.7 363,-37.7"/>
<text text-anchor="start" x="366" y="-43.8" font-family="Helvetica,sans-Serif" font-size="11.00" fill="#000000">&lt; 1</text>
<polygon fill="#ffffff" stroke="transparent" points="432,-37.7 432,-56.7 494,-56.7 494,-37.7 432,-37.7"/>
<polygon fill="none" stroke="#000000" points="432,-37.7 432,-56.7 494,-56.7 494,-37.7 432,-37.7"/>
<text text-anchor="start" x="458.6105" y="-43.8" font-family="Helvetica,sans-Serif" font-size="11.00" fill="#000000">0 rows</text>
<polygon fill="#ffffff" stroke="transparent" points="494,-37.7 494,-56.7 530,-56.7 530,-37.7 494,-37.7"/>
<polygon fill="none" stroke="#000000" points="494,-37.7 494,-56.7 530,-56.7 530,-37.7 494,-37.7"/>
<text text-anchor="start" x="520.8862" y="-43.8" font-family="Helvetica,sans-Serif" font-size="11.00" fill="#000000"> &#160;</text>
</a>
</g>
</g>
<!-- client_user_session_note&#45;&gt;client_session -->
<g id="edge6" class="edge">
<title>client_user_session_note:w&#45;&gt;client_session:e</title>
<path fill="none" stroke="#000000" d="M348.6318,-68.057C333.1754,-74.041 329.1359,-90.7005 317,-109.7 286.6609,-157.1977 332.3604,-229.7 276,-229.7"/>
<polygon fill="#000000" stroke="#000000" points="355.1055,-66.9951 363.5828,-69.2525 359.0528,-66.3475 363,-65.7 363,-65.7 363,-65.7 359.0528,-66.3475 362.4172,-62.1475 355.1055,-66.9951 355.1055,-66.9951"/>
<ellipse fill="none" stroke="#000000" cx="351.9477" cy="-67.5131" rx="3.2" ry="3.2"/>
</g>
</g>
</svg>
