<?xml version="1.0" encoding="UTF-8" standalone="no"?>
<!DOCTYPE svg PUBLIC "-//W3C//DTD SVG 1.1//EN"
 "http://www.w3.org/Graphics/SVG/1.1/DTD/svg11.dtd">
<!-- Generated by graphviz version 2.40.1 (20161225.0304)
 -->
<!-- Title: twoDegreesRelationshipsDiagram Pages: 1 -->
<svg width="578pt" height="737pt"
 viewBox="0.00 0.00 578.00 736.70" xmlns="http://www.w3.org/2000/svg" xmlns:xlink="http://www.w3.org/1999/xlink">
<g id="graph0" class="graph" transform="scale(1 1) rotate(0) translate(4 732.7)">
<title>twoDegreesRelationshipsDiagram</title>
<polygon fill="#ffffff" stroke="transparent" points="-4,4 -4,-732.7 574,-732.7 574,4 -4,4"/>
<text text-anchor="middle" x="72.4936" y="-7.3" font-family="Helvetica,sans-Serif" font-size="11.00" fill="#000000">Generated by SchemaSpy</text>
<!-- client -->
<g id="node1" class="node">
<title>client</title>
<g id="a_node1"><a xlink:href="../../tables/client.html" xlink:title="client" target="_top">
<polygon fill="#ffffff" stroke="transparent" points="128,-260.2 128,-387.2 323,-387.2 323,-260.2 128,-260.2"/>
<polygon fill="#f5f5f5" stroke="transparent" points="128.5,-363.7 128.5,-386.7 323.5,-386.7 323.5,-363.7 128.5,-363.7"/>
<polygon fill="none" stroke="#000000" points="128.5,-363.7 128.5,-386.7 323.5,-386.7 323.5,-363.7 128.5,-363.7"/>
<text text-anchor="start" x="133.5" y="-372.8" font-family="Helvetica,sans-Serif" font-weight="bold" font-size="11.00" fill="#000000">client</text>
<text text-anchor="start" x="288.5437" y="-371.8" font-family="Helvetica,sans-Serif" font-size="11.00" fill="#000000">[table]</text>
<polygon fill="none" stroke="#000000" points="128.5,-341.7 128.5,-363.7 323.5,-363.7 323.5,-341.7 128.5,-341.7"/>
<image xlink:href="../../images/primaryKeys.png" width="11px" height="12px" preserveAspectRatio="xMinYMin meet" x="133.5" y="-358.7"/>
<text text-anchor="start" x="148.5" y="-348.8" font-family="Helvetica,sans-Serif" font-size="11.00" fill="#000000">id</text>
<polygon fill="#ffffff" stroke="transparent" points="128.5,-319.7 128.5,-341.7 323.5,-341.7 323.5,-319.7 128.5,-319.7"/>
<polygon fill="none" stroke="#000000" points="128.5,-319.7 128.5,-341.7 323.5,-341.7 323.5,-319.7 128.5,-319.7"/>
<image xlink:href="../../images/foreignKeys.png" width="11px" height="12px" preserveAspectRatio="xMinYMin meet" x="133.5" y="-336.7"/>
<text text-anchor="start" x="148.5" y="-326.8" font-family="Helvetica,sans-Serif" font-size="11.00" fill="#000000">client_id</text>
<polygon fill="#ffffff" stroke="transparent" points="128.5,-297.7 128.5,-319.7 323.5,-319.7 323.5,-297.7 128.5,-297.7"/>
<polygon fill="none" stroke="#000000" points="128.5,-297.7 128.5,-319.7 323.5,-319.7 323.5,-297.7 128.5,-297.7"/>
<image xlink:href="../../images/foreignKeys.png" width="11px" height="12px" preserveAspectRatio="xMinYMin meet" x="133.5" y="-314.7"/>
<text text-anchor="start" x="148.5" y="-304.8" font-family="Helvetica,sans-Serif" font-size="11.00" fill="#000000">realm_id</text>
<polygon fill="none" stroke="#000000" points="128.5,-278.7 128.5,-297.7 323.5,-297.7 323.5,-278.7 128.5,-278.7"/>
<text text-anchor="start" x="131.5" y="-284.8" font-family="Helvetica,sans-Serif" font-size="11.00" fill="#000000">...</text>
<polygon fill="#ffffff" stroke="transparent" points="128.5,-259.7 128.5,-278.7 206.5,-278.7 206.5,-259.7 128.5,-259.7"/>
<polygon fill="none" stroke="#000000" points="128.5,-259.7 128.5,-278.7 206.5,-278.7 206.5,-259.7 128.5,-259.7"/>
<text text-anchor="start" x="131.5" y="-265.8" font-family="Helvetica,sans-Serif" font-size="11.00" fill="#000000">&lt; 1</text>
<polygon fill="#ffffff" stroke="transparent" points="206.5,-259.7 206.5,-278.7 273.5,-278.7 273.5,-259.7 206.5,-259.7"/>
<polygon fill="none" stroke="#000000" points="206.5,-259.7 206.5,-278.7 273.5,-278.7 273.5,-259.7 206.5,-259.7"/>
<text text-anchor="start" x="238.1105" y="-265.8" font-family="Helvetica,sans-Serif" font-size="11.00" fill="#000000">6 rows</text>
<polygon fill="#ffffff" stroke="transparent" points="273.5,-259.7 273.5,-278.7 323.5,-278.7 323.5,-259.7 273.5,-259.7"/>
<polygon fill="none" stroke="#000000" points="273.5,-259.7 273.5,-278.7 323.5,-278.7 323.5,-259.7 273.5,-259.7"/>
<text text-anchor="start" x="304.9053" y="-265.8" font-family="Helvetica,sans-Serif" font-size="11.00" fill="#000000">8 &gt;</text>
</a>
</g>
</g>
<!-- realm -->
<g id="node2" class="node">
<title>realm</title>
<g id="a_node2"><a xlink:href="../../tables/realm.html" xlink:title="realm" target="_top">
<polygon fill="#ffffff" stroke="transparent" points="8,-281.2 8,-342.2 79,-342.2 79,-281.2 8,-281.2"/>
<polygon fill="#f5f5f5" stroke="transparent" points="8.5,-318.7 8.5,-341.7 79.5,-341.7 79.5,-318.7 8.5,-318.7"/>
<polygon fill="none" stroke="#000000" points="8.5,-318.7 8.5,-341.7 79.5,-341.7 79.5,-318.7 8.5,-318.7"/>
<text text-anchor="start" x="13.5" y="-327.8" font-family="Helvetica,sans-Serif" font-weight="bold" font-size="11.00" fill="#000000">realm</text>
<text text-anchor="start" x="45.0219" y="-326.8" font-family="Helvetica,sans-Serif" font-size="11.00" fill="#000000">[table]</text>
<polygon fill="none" stroke="#000000" points="8.5,-299.7 8.5,-318.7 79.5,-318.7 79.5,-299.7 8.5,-299.7"/>
<text text-anchor="start" x="11.5" y="-305.8" font-family="Helvetica,sans-Serif" font-size="11.00" fill="#000000">...</text>
<polygon fill="#ffffff" stroke="transparent" points="8.5,-280.7 8.5,-299.7 20.5,-299.7 20.5,-280.7 8.5,-280.7"/>
<polygon fill="none" stroke="#000000" points="8.5,-280.7 8.5,-299.7 20.5,-299.7 20.5,-280.7 8.5,-280.7"/>
<text text-anchor="start" x="11.4431" y="-286.8" font-family="Helvetica,sans-Serif" font-size="11.00" fill="#000000"> &#160;</text>
<polygon fill="#ffffff" stroke="transparent" points="20.5,-280.7 20.5,-299.7 52.5,-299.7 52.5,-280.7 20.5,-280.7"/>
<polygon fill="none" stroke="#000000" points="20.5,-280.7 20.5,-299.7 52.5,-299.7 52.5,-280.7 20.5,-280.7"/>
<text text-anchor="start" x="23.0553" y="-286.8" font-family="Helvetica,sans-Serif" font-size="11.00" fill="#000000">1 row</text>
<polygon fill="#ffffff" stroke="transparent" points="52.5,-280.7 52.5,-299.7 79.5,-299.7 79.5,-280.7 52.5,-280.7"/>
<polygon fill="none" stroke="#000000" points="52.5,-280.7 52.5,-299.7 79.5,-299.7 79.5,-280.7 52.5,-280.7"/>
<text text-anchor="start" x="55.1452" y="-286.8" font-family="Helvetica,sans-Serif" font-size="11.00" fill="#000000">23 &gt;</text>
</a>
</g>
</g>
<!-- client&#45;&gt;realm -->
<g id="edge1" class="edge">
<title>client:w&#45;&gt;realm:e</title>
<path fill="none" stroke="#000000" d="M113.9909,-308.7C102.6774,-308.7 95.4931,-308.7 79.5,-308.7"/>
<polygon fill="#000000" stroke="#000000" points="120.5,-308.7001 128.5,-312.3 124.5,-308.7 128.5,-308.7 128.5,-308.7 128.5,-308.7 124.5,-308.7 128.5,-305.1 120.5,-308.7001 120.5,-308.7001"/>
<ellipse fill="none" stroke="#000000" cx="117.3" cy="-308.7001" rx="3.2" ry="3.2"/>
</g>
<!-- client_attributes -->
<g id="node3" class="node">
<title>client_attributes</title>
<g id="a_node3"><a xlink:href="../../tables/client_attributes.html" xlink:title="client_attributes" target="_top">
<polygon fill="#ffffff" stroke="transparent" points="372,-612.7 372,-724.7 562,-724.7 562,-612.7 372,-612.7"/>
<polygon fill="#f5f5f5" stroke="transparent" points="374,-699.7 374,-722.7 560,-722.7 560,-699.7 374,-699.7"/>
<polygon fill="none" stroke="#000000" points="374,-699.7 374,-722.7 560,-722.7 560,-699.7 374,-699.7"/>
<text text-anchor="start" x="379" y="-708.8" font-family="Helvetica,sans-Serif" font-weight="bold" font-size="11.00" fill="#000000">client_attributes</text>
<text text-anchor="start" x="525.0437" y="-707.8" font-family="Helvetica,sans-Serif" font-size="11.00" fill="#000000">[table]</text>
<polygon fill="none" stroke="#000000" points="374,-677.7 374,-699.7 487,-699.7 487,-677.7 374,-677.7"/>
<image xlink:href="../../images/primaryKeys.png" width="11px" height="12px" preserveAspectRatio="xMinYMin meet" x="379" y="-694.7"/>
<text text-anchor="start" x="394" y="-684.8" font-family="Helvetica,sans-Serif" font-size="11.00" fill="#000000">client_id</text>
<polygon fill="none" stroke="#000000" points="487,-677.7 487,-699.7 560,-699.7 560,-677.7 487,-677.7"/>
<text text-anchor="start" x="490" y="-685.4" font-family="Helvetica,sans-Serif" font-size="11.00" fill="#000000">varchar[36]</text>
<polygon fill="none" stroke="#000000" points="374,-655.7 374,-677.7 487,-677.7 487,-655.7 374,-655.7"/>
<text text-anchor="start" x="394" y="-662.8" font-family="Helvetica,sans-Serif" font-size="11.00" fill="#000000">value</text>
<polygon fill="none" stroke="#000000" points="487,-655.7 487,-677.7 560,-677.7 560,-655.7 487,-655.7"/>
<text text-anchor="start" x="489.8791" y="-663.4" font-family="Helvetica,sans-Serif" font-size="11.00" fill="#000000">varchar[4000]</text>
<polygon fill="none" stroke="#000000" points="374,-633.7 374,-655.7 487,-655.7 487,-633.7 374,-633.7"/>
<image xlink:href="../../images/primaryKeys.png" width="11px" height="12px" preserveAspectRatio="xMinYMin meet" x="379" y="-650.7"/>
<text text-anchor="start" x="394" y="-640.8" font-family="Helvetica,sans-Serif" font-size="11.00" fill="#000000">name</text>
<polygon fill="none" stroke="#000000" points="487,-633.7 487,-655.7 560,-655.7 560,-633.7 487,-633.7"/>
<text text-anchor="start" x="490" y="-641.4" font-family="Helvetica,sans-Serif" font-size="11.00" fill="#000000">varchar[255]</text>
<polygon fill="#ffffff" stroke="transparent" points="374,-614.7 374,-633.7 422,-633.7 422,-614.7 374,-614.7"/>
<polygon fill="none" stroke="#000000" points="374,-614.7 374,-633.7 422,-633.7 422,-614.7 374,-614.7"/>
<text text-anchor="start" x="377" y="-620.8" font-family="Helvetica,sans-Serif" font-size="11.00" fill="#000000">&lt; 1</text>
<polygon fill="#ffffff" stroke="transparent" points="422,-614.7 422,-633.7 487,-633.7 487,-614.7 422,-614.7"/>
<polygon fill="none" stroke="#000000" points="422,-614.7 422,-633.7 487,-633.7 487,-614.7 422,-614.7"/>
<text text-anchor="start" x="451.6105" y="-620.8" font-family="Helvetica,sans-Serif" font-size="11.00" fill="#000000">2 rows</text>
<polygon fill="#ffffff" stroke="transparent" points="487,-614.7 487,-633.7 560,-633.7 560,-614.7 487,-614.7"/>
<polygon fill="none" stroke="#000000" points="487,-614.7 487,-633.7 560,-633.7 560,-614.7 487,-614.7"/>
<text text-anchor="start" x="541.4053" y="-620.8" font-family="Helvetica,sans-Serif" font-size="11.00" fill="#000000">0 &gt;</text>
<polygon fill="none" stroke="#000000" stroke-width="2" points="373,-613.7 373,-723.7 561,-723.7 561,-613.7 373,-613.7"/>
</a>
</g>
</g>
<!-- client_attributes&#45;&gt;client -->
<g id="edge2" class="edge">
<title>client_attributes:w&#45;&gt;client:e</title>
<path fill="none" stroke="#000000" d="M360.2555,-683.6895C312.1024,-641.8922 393.5489,-352.7 323.5,-352.7"/>
<polygon fill="#000000" stroke="#000000" points="366.4838,-685.96 372.767,-692.0823 370.2419,-687.33 374,-688.7 374,-688.7 374,-688.7 370.2419,-687.33 375.233,-685.3177 366.4838,-685.96 366.4838,-685.96"/>
<ellipse fill="none" stroke="#000000" cx="363.4774" cy="-684.864" rx="3.2" ry="3.2"/>
</g>
<!-- client_default_roles -->
<g id="node4" class="node">
<title>client_default_roles</title>
<g id="a_node4"><a xlink:href="../../tables/client_default_roles.html" xlink:title="client_default_roles" target="_top">
<polygon fill="#ffffff" stroke="transparent" points="398.5,-530.2 398.5,-591.2 535.5,-591.2 535.5,-530.2 398.5,-530.2"/>
<polygon fill="#f5f5f5" stroke="transparent" points="399,-567.7 399,-590.7 536,-590.7 536,-567.7 399,-567.7"/>
<polygon fill="none" stroke="#000000" points="399,-567.7 399,-590.7 536,-590.7 536,-567.7 399,-567.7"/>
<text text-anchor="start" x="403.6274" y="-576.8" font-family="Helvetica,sans-Serif" font-weight="bold" font-size="11.00" fill="#000000">client_default_roles</text>
<text text-anchor="start" x="501.5219" y="-575.8" font-family="Helvetica,sans-Serif" font-size="11.00" fill="#000000">[table]</text>
<polygon fill="none" stroke="#000000" points="399,-548.7 399,-567.7 536,-567.7 536,-548.7 399,-548.7"/>
<text text-anchor="start" x="402" y="-554.8" font-family="Helvetica,sans-Serif" font-size="11.00" fill="#000000">...</text>
<polygon fill="#ffffff" stroke="transparent" points="399,-529.7 399,-548.7 453,-548.7 453,-529.7 399,-529.7"/>
<polygon fill="none" stroke="#000000" points="399,-529.7 399,-548.7 453,-548.7 453,-529.7 399,-529.7"/>
<text text-anchor="start" x="402" y="-535.8" font-family="Helvetica,sans-Serif" font-size="11.00" fill="#000000">&lt; 1</text>
<polygon fill="#ffffff" stroke="transparent" points="453,-529.7 453,-548.7 507,-548.7 507,-529.7 453,-529.7"/>
<polygon fill="none" stroke="#000000" points="453,-529.7 453,-548.7 507,-548.7 507,-529.7 453,-529.7"/>
<text text-anchor="start" x="471.6105" y="-535.8" font-family="Helvetica,sans-Serif" font-size="11.00" fill="#000000">2 rows</text>
<polygon fill="#ffffff" stroke="transparent" points="507,-529.7 507,-548.7 536,-548.7 536,-529.7 507,-529.7"/>
<polygon fill="none" stroke="#000000" points="507,-529.7 507,-548.7 536,-548.7 536,-529.7 507,-529.7"/>
<text text-anchor="start" x="526.8862" y="-535.8" font-family="Helvetica,sans-Serif" font-size="11.00" fill="#000000"> &#160;</text>
</a>
</g>
</g>
<!-- client_default_roles&#45;&gt;client -->
<g id="edge3" class="edge">
<title>client_default_roles:w&#45;&gt;client:e</title>
<path fill="none" stroke="#000000" d="M384.719,-554.2282C374.7174,-548.0928 371.9524,-534.569 364,-519.7 327.9809,-452.3534 399.8737,-352.7 323.5,-352.7"/>
<polygon fill="#000000" stroke="#000000" points="391.2264,-555.8102 398.1496,-561.1981 395.1132,-556.7551 399,-557.7 399,-557.7 399,-557.7 395.1132,-556.7551 399.8504,-554.2019 391.2264,-555.8102 391.2264,-555.8102"/>
<ellipse fill="none" stroke="#000000" cx="388.117" cy="-555.0542" rx="3.2" ry="3.2"/>
</g>
<!-- client_node_registrations -->
<g id="node5" class="node">
<title>client_node_registrations</title>
<g id="a_node5"><a xlink:href="../../tables/client_node_registrations.html" xlink:title="client_node_registrations" target="_top">
<polygon fill="#ffffff" stroke="transparent" points="384.5,-448.2 384.5,-509.2 549.5,-509.2 549.5,-448.2 384.5,-448.2"/>
<polygon fill="#f5f5f5" stroke="transparent" points="385,-485.7 385,-508.7 550,-508.7 550,-485.7 385,-485.7"/>
<polygon fill="none" stroke="#000000" points="385,-485.7 385,-508.7 550,-508.7 550,-485.7 385,-485.7"/>
<text text-anchor="start" x="389.8741" y="-494.8" font-family="Helvetica,sans-Serif" font-weight="bold" font-size="11.00" fill="#000000">client_node_registrations</text>
<text text-anchor="start" x="515.5219" y="-493.8" font-family="Helvetica,sans-Serif" font-size="11.00" fill="#000000">[table]</text>
<polygon fill="none" stroke="#000000" points="385,-466.7 385,-485.7 550,-485.7 550,-466.7 385,-466.7"/>
<text text-anchor="start" x="388" y="-472.8" font-family="Helvetica,sans-Serif" font-size="11.00" fill="#000000">...</text>
<polygon fill="#ffffff" stroke="transparent" points="385,-447.7 385,-466.7 453,-466.7 453,-447.7 385,-447.7"/>
<polygon fill="none" stroke="#000000" points="385,-447.7 385,-466.7 453,-466.7 453,-447.7 385,-447.7"/>
<text text-anchor="start" x="388" y="-453.8" font-family="Helvetica,sans-Serif" font-size="11.00" fill="#000000">&lt; 1</text>
<polygon fill="#ffffff" stroke="transparent" points="453,-447.7 453,-466.7 514,-466.7 514,-447.7 453,-447.7"/>
<polygon fill="none" stroke="#000000" points="453,-447.7 453,-466.7 514,-466.7 514,-447.7 453,-447.7"/>
<text text-anchor="start" x="478.6105" y="-453.8" font-family="Helvetica,sans-Serif" font-size="11.00" fill="#000000">0 rows</text>
<polygon fill="#ffffff" stroke="transparent" points="514,-447.7 514,-466.7 550,-466.7 550,-447.7 514,-447.7"/>
<polygon fill="none" stroke="#000000" points="514,-447.7 514,-466.7 550,-466.7 550,-447.7 514,-447.7"/>
<text text-anchor="start" x="540.8862" y="-453.8" font-family="Helvetica,sans-Serif" font-size="11.00" fill="#000000"> &#160;</text>
</a>
</g>
</g>
<!-- client_node_registrations&#45;&gt;client -->
<g id="edge4" class="edge">
<title>client_node_registrations:w&#45;&gt;client:e</title>
<path fill="none" stroke="#000000" d="M370.8225,-472.6595C334.1982,-453.7186 378.8893,-352.7 323.5,-352.7"/>
<polygon fill="#000000" stroke="#000000" points="377.1779,-474.0224 384.2451,-479.22 381.0889,-474.8612 385,-475.7 385,-475.7 385,-475.7 381.0889,-474.8612 385.7549,-472.18 377.1779,-474.0224 377.1779,-474.0224"/>
<ellipse fill="none" stroke="#000000" cx="374.049" cy="-473.3514" rx="3.2" ry="3.2"/>
</g>
<!-- client_scope_client -->
<g id="node6" class="node">
<title>client_scope_client</title>
<g id="a_node6"><a xlink:href="../../tables/client_scope_client.html" xlink:title="client_scope_client" target="_top">
<polygon fill="#ffffff" stroke="transparent" points="399.5,-366.2 399.5,-427.2 534.5,-427.2 534.5,-366.2 399.5,-366.2"/>
<polygon fill="#f5f5f5" stroke="transparent" points="400,-403.7 400,-426.7 535,-426.7 535,-403.7 400,-403.7"/>
<polygon fill="none" stroke="#000000" points="400,-403.7 400,-426.7 535,-426.7 535,-403.7 400,-403.7"/>
<text text-anchor="start" x="404.5443" y="-412.8" font-family="Helvetica,sans-Serif" font-weight="bold" font-size="11.00" fill="#000000">client_scope_client</text>
<text text-anchor="start" x="500.5219" y="-411.8" font-family="Helvetica,sans-Serif" font-size="11.00" fill="#000000">[table]</text>
<polygon fill="none" stroke="#000000" points="400,-384.7 400,-403.7 535,-403.7 535,-384.7 400,-384.7"/>
<text text-anchor="start" x="403" y="-390.8" font-family="Helvetica,sans-Serif" font-size="11.00" fill="#000000">...</text>
<polygon fill="#ffffff" stroke="transparent" points="400,-365.7 400,-384.7 450,-384.7 450,-365.7 400,-365.7"/>
<polygon fill="none" stroke="#000000" points="400,-365.7 400,-384.7 450,-384.7 450,-365.7 400,-365.7"/>
<text text-anchor="start" x="403" y="-371.8" font-family="Helvetica,sans-Serif" font-size="11.00" fill="#000000">&lt; 2</text>
<polygon fill="#ffffff" stroke="transparent" points="450,-365.7 450,-384.7 508,-384.7 508,-365.7 450,-365.7"/>
<polygon fill="none" stroke="#000000" points="450,-365.7 450,-384.7 508,-384.7 508,-365.7 450,-365.7"/>
<text text-anchor="start" x="466.4956" y="-371.8" font-family="Helvetica,sans-Serif" font-size="11.00" fill="#000000">54 rows</text>
<polygon fill="#ffffff" stroke="transparent" points="508,-365.7 508,-384.7 535,-384.7 535,-365.7 508,-365.7"/>
<polygon fill="none" stroke="#000000" points="508,-365.7 508,-384.7 535,-384.7 535,-365.7 508,-365.7"/>
<text text-anchor="start" x="525.8862" y="-371.8" font-family="Helvetica,sans-Serif" font-size="11.00" fill="#000000"> &#160;</text>
</a>
</g>
</g>
<!-- client_scope_client&#45;&gt;client -->
<g id="edge5" class="edge">
<title>client_scope_client:w&#45;&gt;client:e</title>
<path fill="none" stroke="#000000" d="M385.4954,-391.3782C360.7934,-382.7049 356.4999,-352.7 323.5,-352.7"/>
<polygon fill="#000000" stroke="#000000" points="392.1006,-392.4355 399.431,-397.2547 396.0503,-393.0677 400,-393.7 400,-393.7 400,-393.7 396.0503,-393.0677 400.569,-390.1453 392.1006,-392.4355 392.1006,-392.4355"/>
<ellipse fill="none" stroke="#000000" cx="388.9408" cy="-391.9296" rx="3.2" ry="3.2"/>
</g>
<!-- protocol_mapper -->
<g id="node7" class="node">
<title>protocol_mapper</title>
<g id="a_node7"><a xlink:href="../../tables/protocol_mapper.html" xlink:title="protocol_mapper" target="_top">
<polygon fill="#ffffff" stroke="transparent" points="404.5,-284.2 404.5,-345.2 529.5,-345.2 529.5,-284.2 404.5,-284.2"/>
<polygon fill="#f5f5f5" stroke="transparent" points="405,-321.7 405,-344.7 530,-344.7 530,-321.7 405,-321.7"/>
<polygon fill="none" stroke="#000000" points="405,-321.7 405,-344.7 530,-344.7 530,-321.7 405,-321.7"/>
<text text-anchor="start" x="409.7412" y="-330.8" font-family="Helvetica,sans-Serif" font-weight="bold" font-size="11.00" fill="#000000">protocol_mapper</text>
<text text-anchor="start" x="495.5219" y="-329.8" font-family="Helvetica,sans-Serif" font-size="11.00" fill="#000000">[table]</text>
<polygon fill="none" stroke="#000000" points="405,-302.7 405,-321.7 530,-321.7 530,-302.7 405,-302.7"/>
<text text-anchor="start" x="408" y="-308.8" font-family="Helvetica,sans-Serif" font-size="11.00" fill="#000000">...</text>
<polygon fill="#ffffff" stroke="transparent" points="405,-283.7 405,-302.7 445,-302.7 445,-283.7 405,-283.7"/>
<polygon fill="none" stroke="#000000" points="405,-283.7 405,-302.7 445,-302.7 445,-283.7 405,-283.7"/>
<text text-anchor="start" x="408" y="-289.8" font-family="Helvetica,sans-Serif" font-size="11.00" fill="#000000">&lt; 2</text>
<polygon fill="#ffffff" stroke="transparent" points="445,-283.7 445,-302.7 499,-302.7 499,-283.7 445,-283.7"/>
<polygon fill="none" stroke="#000000" points="445,-283.7 445,-302.7 499,-302.7 499,-283.7 445,-283.7"/>
<text text-anchor="start" x="457.4956" y="-289.8" font-family="Helvetica,sans-Serif" font-size="11.00" fill="#000000">28 rows</text>
<polygon fill="#ffffff" stroke="transparent" points="499,-283.7 499,-302.7 530,-302.7 530,-283.7 499,-283.7"/>
<polygon fill="none" stroke="#000000" points="499,-283.7 499,-302.7 530,-302.7 530,-283.7 499,-283.7"/>
<text text-anchor="start" x="511.4053" y="-289.8" font-family="Helvetica,sans-Serif" font-size="11.00" fill="#000000">1 &gt;</text>
</a>
</g>
</g>
<!-- protocol_mapper&#45;&gt;client -->
<g id="edge6" class="edge">
<title>protocol_mapper:w&#45;&gt;client:e</title>
<path fill="none" stroke="#000000" d="M390.4151,-313.7896C363.5914,-322.1446 358.5039,-352.7 323.5,-352.7"/>
<polygon fill="#000000" stroke="#000000" points="397.0809,-312.8346 405.5106,-315.2636 401.0404,-312.2673 405,-311.7 405,-311.7 405,-311.7 401.0404,-312.2673 404.4894,-308.1364 397.0809,-312.8346 397.0809,-312.8346"/>
<ellipse fill="none" stroke="#000000" cx="393.9132" cy="-313.2885" rx="3.2" ry="3.2"/>
</g>
<!-- redirect_uris -->
<g id="node8" class="node">
<title>redirect_uris</title>
<g id="a_node8"><a xlink:href="../../tables/redirect_uris.html" xlink:title="redirect_uris" target="_top">
<polygon fill="#ffffff" stroke="transparent" points="415.5,-202.2 415.5,-263.2 518.5,-263.2 518.5,-202.2 415.5,-202.2"/>
<polygon fill="#f5f5f5" stroke="transparent" points="416,-239.7 416,-262.7 519,-262.7 519,-239.7 416,-239.7"/>
<polygon fill="none" stroke="#000000" points="416,-239.7 416,-262.7 519,-262.7 519,-239.7 416,-239.7"/>
<text text-anchor="start" x="420.7506" y="-248.8" font-family="Helvetica,sans-Serif" font-weight="bold" font-size="11.00" fill="#000000">redirect_uris</text>
<text text-anchor="start" x="484.5219" y="-247.8" font-family="Helvetica,sans-Serif" font-size="11.00" fill="#000000">[table]</text>
<polygon fill="none" stroke="#000000" points="416,-220.7 416,-239.7 519,-239.7 519,-220.7 416,-220.7"/>
<text text-anchor="start" x="419" y="-226.8" font-family="Helvetica,sans-Serif" font-size="11.00" fill="#000000">...</text>
<polygon fill="#ffffff" stroke="transparent" points="416,-201.7 416,-220.7 453,-220.7 453,-201.7 416,-201.7"/>
<polygon fill="none" stroke="#000000" points="416,-201.7 416,-220.7 453,-220.7 453,-201.7 416,-201.7"/>
<text text-anchor="start" x="419" y="-207.8" font-family="Helvetica,sans-Serif" font-size="11.00" fill="#000000">&lt; 1</text>
<polygon fill="#ffffff" stroke="transparent" points="453,-201.7 453,-220.7 499,-220.7 499,-201.7 453,-201.7"/>
<polygon fill="none" stroke="#000000" points="453,-201.7 453,-220.7 499,-220.7 499,-201.7 453,-201.7"/>
<text text-anchor="start" x="463.6105" y="-207.8" font-family="Helvetica,sans-Serif" font-size="11.00" fill="#000000">3 rows</text>
<polygon fill="#ffffff" stroke="transparent" points="499,-201.7 499,-220.7 519,-220.7 519,-201.7 499,-201.7"/>
<polygon fill="none" stroke="#000000" points="499,-201.7 499,-220.7 519,-220.7 519,-201.7 499,-201.7"/>
<text text-anchor="start" x="509.8862" y="-207.8" font-family="Helvetica,sans-Serif" font-size="11.00" fill="#000000"> &#160;</text>
</a>
</g>
</g>
<!-- redirect_uris&#45;&gt;client -->
<g id="edge7" class="edge">
<title>redirect_uris:w&#45;&gt;client:e</title>
<path fill="none" stroke="#000000" d="M401.5725,-231.7289C384.0786,-237.4294 379.2968,-254.4368 364,-273.7 339.4633,-304.5989 362.9562,-352.7 323.5,-352.7"/>
<polygon fill="#000000" stroke="#000000" points="408.0779,-230.8141 416.5013,-233.2649 412.039,-230.257 416,-229.7 416,-229.7 416,-229.7 412.039,-230.257 415.4987,-226.1351 408.0779,-230.8141 408.0779,-230.8141"/>
<ellipse fill="none" stroke="#000000" cx="404.9091" cy="-231.2597" rx="3.2" ry="3.2"/>
</g>
<!-- scope_mapping -->
<g id="node9" class="node">
<title>scope_mapping</title>
<g id="a_node9"><a xlink:href="../../tables/scope_mapping.html" xlink:title="scope_mapping" target="_top">
<polygon fill="#ffffff" stroke="transparent" points="407,-120.2 407,-181.2 527,-181.2 527,-120.2 407,-120.2"/>
<polygon fill="#f5f5f5" stroke="transparent" points="407,-157.7 407,-180.7 527,-180.7 527,-157.7 407,-157.7"/>
<polygon fill="none" stroke="#000000" points="407,-157.7 407,-180.7 527,-180.7 527,-157.7 407,-157.7"/>
<text text-anchor="start" x="411.6816" y="-166.8" font-family="Helvetica,sans-Serif" font-weight="bold" font-size="11.00" fill="#000000">scope_mapping</text>
<text text-anchor="start" x="492.5219" y="-165.8" font-family="Helvetica,sans-Serif" font-size="11.00" fill="#000000">[table]</text>
<polygon fill="none" stroke="#000000" points="407,-138.7 407,-157.7 527,-157.7 527,-138.7 407,-138.7"/>
<text text-anchor="start" x="410" y="-144.8" font-family="Helvetica,sans-Serif" font-size="11.00" fill="#000000">...</text>
<polygon fill="#ffffff" stroke="transparent" points="407,-119.7 407,-138.7 455,-138.7 455,-119.7 407,-119.7"/>
<polygon fill="none" stroke="#000000" points="407,-119.7 407,-138.7 455,-138.7 455,-119.7 407,-119.7"/>
<text text-anchor="start" x="410" y="-125.8" font-family="Helvetica,sans-Serif" font-size="11.00" fill="#000000">&lt; 1</text>
<polygon fill="#ffffff" stroke="transparent" points="455,-119.7 455,-138.7 501,-138.7 501,-119.7 455,-119.7"/>
<polygon fill="none" stroke="#000000" points="455,-119.7 455,-138.7 501,-138.7 501,-119.7 455,-119.7"/>
<text text-anchor="start" x="471.1105" y="-125.8" font-family="Helvetica,sans-Serif" font-size="11.00" fill="#000000">1 row</text>
<polygon fill="#ffffff" stroke="transparent" points="501,-119.7 501,-138.7 527,-138.7 527,-119.7 501,-119.7"/>
<polygon fill="none" stroke="#000000" points="501,-119.7 501,-138.7 527,-138.7 527,-119.7 501,-119.7"/>
<text text-anchor="start" x="517.8862" y="-125.8" font-family="Helvetica,sans-Serif" font-size="11.00" fill="#000000"> &#160;</text>
</a>
</g>
</g>
<!-- scope_mapping&#45;&gt;client -->
<g id="edge8" class="edge">
<title>scope_mapping:w&#45;&gt;client:e</title>
<path fill="none" stroke="#000000" d="M392.7004,-150.2341C378.193,-156.3616 374.5359,-172.8719 364,-191.7 327.9689,-256.0891 397.2848,-352.7 323.5,-352.7"/>
<polygon fill="#000000" stroke="#000000" points="399.1227,-149.096 407.6282,-151.2448 403.0614,-148.398 407,-147.7 407,-147.7 407,-147.7 403.0614,-148.398 406.3718,-144.1552 399.1227,-149.096 399.1227,-149.096"/>
<ellipse fill="none" stroke="#000000" cx="395.9718" cy="-149.6544" rx="3.2" ry="3.2"/>
</g>
<!-- web_origins -->
<g id="node10" class="node">
<title>web_origins</title>
<g id="a_node10"><a xlink:href="../../tables/web_origins.html" xlink:title="web_origins" target="_top">
<polygon fill="#ffffff" stroke="transparent" points="416.5,-38.2 416.5,-99.2 517.5,-99.2 517.5,-38.2 416.5,-38.2"/>
<polygon fill="#f5f5f5" stroke="transparent" points="417,-75.7 417,-98.7 518,-98.7 518,-75.7 417,-75.7"/>
<polygon fill="none" stroke="#000000" points="417,-75.7 417,-98.7 518,-98.7 518,-75.7 417,-75.7"/>
<text text-anchor="start" x="421.663" y="-84.8" font-family="Helvetica,sans-Serif" font-weight="bold" font-size="11.00" fill="#000000">web_origins</text>
<text text-anchor="start" x="483.5219" y="-83.8" font-family="Helvetica,sans-Serif" font-size="11.00" fill="#000000">[table]</text>
<polygon fill="none" stroke="#000000" points="417,-56.7 417,-75.7 518,-75.7 518,-56.7 417,-56.7"/>
<text text-anchor="start" x="420" y="-62.8" font-family="Helvetica,sans-Serif" font-size="11.00" fill="#000000">...</text>
<polygon fill="#ffffff" stroke="transparent" points="417,-37.7 417,-56.7 456,-56.7 456,-37.7 417,-37.7"/>
<polygon fill="none" stroke="#000000" points="417,-37.7 417,-56.7 456,-56.7 456,-37.7 417,-37.7"/>
<text text-anchor="start" x="420" y="-43.8" font-family="Helvetica,sans-Serif" font-size="11.00" fill="#000000">&lt; 1</text>
<polygon fill="#ffffff" stroke="transparent" points="456,-37.7 456,-56.7 497,-56.7 497,-37.7 456,-37.7"/>
<polygon fill="none" stroke="#000000" points="456,-37.7 456,-56.7 497,-56.7 497,-37.7 456,-37.7"/>
<text text-anchor="start" x="467.1105" y="-43.8" font-family="Helvetica,sans-Serif" font-size="11.00" fill="#000000">1 row</text>
<polygon fill="#ffffff" stroke="transparent" points="497,-37.7 497,-56.7 518,-56.7 518,-37.7 497,-37.7"/>
<polygon fill="none" stroke="#000000" points="497,-37.7 497,-56.7 518,-56.7 518,-37.7 497,-37.7"/>
<text text-anchor="start" x="508.8862" y="-43.8" font-family="Helvetica,sans-Serif" font-size="11.00" fill="#000000"> &#160;</text>
</a>
</g>
</g>
<!-- web_origins&#45;&gt;client -->
<g id="edge9" class="edge">
<title>web_origins:w&#45;&gt;client:e</title>
<path fill="none" stroke="#000000" d="M402.5878,-67.3422C383.5596,-72.2664 376.512,-87.9248 364,-109.7 336.7256,-157.1669 378.2449,-352.7 323.5,-352.7"/>
<polygon fill="#000000" stroke="#000000" points="409.0514,-66.6058 417.4076,-69.2769 413.0257,-66.1529 417,-65.7 417,-65.7 417,-65.7 413.0257,-66.1529 416.5924,-62.1231 409.0514,-66.6058 409.0514,-66.6058"/>
<ellipse fill="none" stroke="#000000" cx="405.872" cy="-66.9681" rx="3.2" ry="3.2"/>
</g>
</g>
</svg>
