<?xml version="1.0" encoding="UTF-8" standalone="no"?>
<!DOCTYPE svg PUBLIC "-//W3C//DTD SVG 1.1//EN"
 "http://www.w3.org/Graphics/SVG/1.1/DTD/svg11.dtd">
<!-- Generated by graphviz version 2.40.1 (20161225.0304)
 -->
<!-- Title: twoDegreesRelationshipsDiagram Pages: 1 -->
<svg width="586pt" height="715pt"
 viewBox="0.00 0.00 586.00 715.20" xmlns="http://www.w3.org/2000/svg" xmlns:xlink="http://www.w3.org/1999/xlink">
<g id="graph0" class="graph" transform="scale(1 1) rotate(0) translate(4 711.2)">
<title>twoDegreesRelationshipsDiagram</title>
<polygon fill="#ffffff" stroke="transparent" points="-4,4 -4,-711.2 582,-711.2 582,4 -4,4"/>
<text text-anchor="middle" x="72.4936" y="-7.3" font-family="Helvetica,sans-Serif" font-size="11.00" fill="#000000">Generated by SchemaSpy</text>
<!-- client -->
<g id="node1" class="node">
<title>client</title>
<g id="a_node1"><a xlink:href="../../tables/client.html" xlink:title="client" target="_top">
<polygon fill="#ffffff" stroke="transparent" points="128,-260.2 128,-387.2 323,-387.2 323,-260.2 128,-260.2"/>
<polygon fill="#f5f5f5" stroke="transparent" points="128.5,-363.7 128.5,-386.7 323.5,-386.7 323.5,-363.7 128.5,-363.7"/>
<polygon fill="none" stroke="#000000" points="128.5,-363.7 128.5,-386.7 323.5,-386.7 323.5,-363.7 128.5,-363.7"/>
<text text-anchor="start" x="133.5" y="-372.8" font-family="Helvetica,sans-Serif" font-weight="bold" font-size="11.00" fill="#000000">client</text>
<text text-anchor="start" x="288.5437" y="-371.8" font-family="Helvetica,sans-Serif" font-size="11.00" fill="#000000">[table]</text>
<polygon fill="none" stroke="#000000" points="128.5,-341.7 128.5,-363.7 323.5,-363.7 323.5,-341.7 128.5,-341.7"/>
<image xlink:href="../../images/primaryKeys.png" width="11px" height="12px" preserveAspectRatio="xMinYMin meet" x="133.5" y="-358.7"/>
<text text-anchor="start" x="148.5" y="-348.8" font-family="Helvetica,sans-Serif" font-size="11.00" fill="#000000">id</text>
<polygon fill="#ffffff" stroke="transparent" points="128.5,-319.7 128.5,-341.7 323.5,-341.7 323.5,-319.7 128.5,-319.7"/>
<polygon fill="none" stroke="#000000" points="128.5,-319.7 128.5,-341.7 323.5,-341.7 323.5,-319.7 128.5,-319.7"/>
<image xlink:href="../../images/foreignKeys.png" width="11px" height="12px" preserveAspectRatio="xMinYMin meet" x="133.5" y="-336.7"/>
<text text-anchor="start" x="148.5" y="-326.8" font-family="Helvetica,sans-Serif" font-size="11.00" fill="#000000">client_id</text>
<polygon fill="#ffffff" stroke="transparent" points="128.5,-297.7 128.5,-319.7 323.5,-319.7 323.5,-297.7 128.5,-297.7"/>
<polygon fill="none" stroke="#000000" points="128.5,-297.7 128.5,-319.7 323.5,-319.7 323.5,-297.7 128.5,-297.7"/>
<image xlink:href="../../images/foreignKeys.png" width="11px" height="12px" preserveAspectRatio="xMinYMin meet" x="133.5" y="-314.7"/>
<text text-anchor="start" x="148.5" y="-304.8" font-family="Helvetica,sans-Serif" font-size="11.00" fill="#000000">realm_id</text>
<polygon fill="none" stroke="#000000" points="128.5,-278.7 128.5,-297.7 323.5,-297.7 323.5,-278.7 128.5,-278.7"/>
<text text-anchor="start" x="131.5" y="-284.8" font-family="Helvetica,sans-Serif" font-size="11.00" fill="#000000">...</text>
<polygon fill="#ffffff" stroke="transparent" points="128.5,-259.7 128.5,-278.7 206.5,-278.7 206.5,-259.7 128.5,-259.7"/>
<polygon fill="none" stroke="#000000" points="128.5,-259.7 128.5,-278.7 206.5,-278.7 206.5,-259.7 128.5,-259.7"/>
<text text-anchor="start" x="131.5" y="-265.8" font-family="Helvetica,sans-Serif" font-size="11.00" fill="#000000">&lt; 1</text>
<polygon fill="#ffffff" stroke="transparent" points="206.5,-259.7 206.5,-278.7 273.5,-278.7 273.5,-259.7 206.5,-259.7"/>
<polygon fill="none" stroke="#000000" points="206.5,-259.7 206.5,-278.7 273.5,-278.7 273.5,-259.7 206.5,-259.7"/>
<text text-anchor="start" x="238.1105" y="-265.8" font-family="Helvetica,sans-Serif" font-size="11.00" fill="#000000">6 rows</text>
<polygon fill="#ffffff" stroke="transparent" points="273.5,-259.7 273.5,-278.7 323.5,-278.7 323.5,-259.7 273.5,-259.7"/>
<polygon fill="none" stroke="#000000" points="273.5,-259.7 273.5,-278.7 323.5,-278.7 323.5,-259.7 273.5,-259.7"/>
<text text-anchor="start" x="304.9053" y="-265.8" font-family="Helvetica,sans-Serif" font-size="11.00" fill="#000000">8 &gt;</text>
</a>
</g>
</g>
<!-- realm -->
<g id="node2" class="node">
<title>realm</title>
<g id="a_node2"><a xlink:href="../../tables/realm.html" xlink:title="realm" target="_top">
<polygon fill="#ffffff" stroke="transparent" points="8,-281.2 8,-342.2 79,-342.2 79,-281.2 8,-281.2"/>
<polygon fill="#f5f5f5" stroke="transparent" points="8.5,-318.7 8.5,-341.7 79.5,-341.7 79.5,-318.7 8.5,-318.7"/>
<polygon fill="none" stroke="#000000" points="8.5,-318.7 8.5,-341.7 79.5,-341.7 79.5,-318.7 8.5,-318.7"/>
<text text-anchor="start" x="13.5" y="-327.8" font-family="Helvetica,sans-Serif" font-weight="bold" font-size="11.00" fill="#000000">realm</text>
<text text-anchor="start" x="45.0219" y="-326.8" font-family="Helvetica,sans-Serif" font-size="11.00" fill="#000000">[table]</text>
<polygon fill="none" stroke="#000000" points="8.5,-299.7 8.5,-318.7 79.5,-318.7 79.5,-299.7 8.5,-299.7"/>
<text text-anchor="start" x="11.5" y="-305.8" font-family="Helvetica,sans-Serif" font-size="11.00" fill="#000000">...</text>
<polygon fill="#ffffff" stroke="transparent" points="8.5,-280.7 8.5,-299.7 20.5,-299.7 20.5,-280.7 8.5,-280.7"/>
<polygon fill="none" stroke="#000000" points="8.5,-280.7 8.5,-299.7 20.5,-299.7 20.5,-280.7 8.5,-280.7"/>
<text text-anchor="start" x="11.4431" y="-286.8" font-family="Helvetica,sans-Serif" font-size="11.00" fill="#000000"> &#160;</text>
<polygon fill="#ffffff" stroke="transparent" points="20.5,-280.7 20.5,-299.7 52.5,-299.7 52.5,-280.7 20.5,-280.7"/>
<polygon fill="none" stroke="#000000" points="20.5,-280.7 20.5,-299.7 52.5,-299.7 52.5,-280.7 20.5,-280.7"/>
<text text-anchor="start" x="23.0553" y="-286.8" font-family="Helvetica,sans-Serif" font-size="11.00" fill="#000000">1 row</text>
<polygon fill="#ffffff" stroke="transparent" points="52.5,-280.7 52.5,-299.7 79.5,-299.7 79.5,-280.7 52.5,-280.7"/>
<polygon fill="none" stroke="#000000" points="52.5,-280.7 52.5,-299.7 79.5,-299.7 79.5,-280.7 52.5,-280.7"/>
<text text-anchor="start" x="55.1452" y="-286.8" font-family="Helvetica,sans-Serif" font-size="11.00" fill="#000000">23 &gt;</text>
</a>
</g>
</g>
<!-- client&#45;&gt;realm -->
<g id="edge1" class="edge">
<title>client:w&#45;&gt;realm:e</title>
<path fill="none" stroke="#000000" d="M113.9909,-308.7C102.6774,-308.7 95.4931,-308.7 79.5,-308.7"/>
<polygon fill="#000000" stroke="#000000" points="120.5,-308.7001 128.5,-312.3 124.5,-308.7 128.5,-308.7 128.5,-308.7 128.5,-308.7 124.5,-308.7 128.5,-305.1 120.5,-308.7001 120.5,-308.7001"/>
<ellipse fill="none" stroke="#000000" cx="117.3" cy="-308.7001" rx="3.2" ry="3.2"/>
</g>
<!-- client_attributes -->
<g id="node3" class="node">
<title>client_attributes</title>
<g id="a_node3"><a xlink:href="../../tables/client_attributes.html" xlink:title="client_attributes" target="_top">
<polygon fill="#ffffff" stroke="transparent" points="411,-642.2 411,-703.2 531,-703.2 531,-642.2 411,-642.2"/>
<polygon fill="#f5f5f5" stroke="transparent" points="411,-679.7 411,-702.7 531,-702.7 531,-679.7 411,-679.7"/>
<polygon fill="none" stroke="#000000" points="411,-679.7 411,-702.7 531,-702.7 531,-679.7 411,-679.7"/>
<text text-anchor="start" x="415.9918" y="-688.8" font-family="Helvetica,sans-Serif" font-weight="bold" font-size="11.00" fill="#000000">client_attributes</text>
<text text-anchor="start" x="496.5219" y="-687.8" font-family="Helvetica,sans-Serif" font-size="11.00" fill="#000000">[table]</text>
<polygon fill="none" stroke="#000000" points="411,-660.7 411,-679.7 531,-679.7 531,-660.7 411,-660.7"/>
<text text-anchor="start" x="414" y="-666.8" font-family="Helvetica,sans-Serif" font-size="11.00" fill="#000000">...</text>
<polygon fill="#ffffff" stroke="transparent" points="411,-641.7 411,-660.7 456,-660.7 456,-641.7 411,-641.7"/>
<polygon fill="none" stroke="#000000" points="411,-641.7 411,-660.7 456,-660.7 456,-641.7 411,-641.7"/>
<text text-anchor="start" x="414" y="-647.8" font-family="Helvetica,sans-Serif" font-size="11.00" fill="#000000">&lt; 1</text>
<polygon fill="#ffffff" stroke="transparent" points="456,-641.7 456,-660.7 506,-660.7 506,-641.7 456,-641.7"/>
<polygon fill="none" stroke="#000000" points="456,-641.7 456,-660.7 506,-660.7 506,-641.7 456,-641.7"/>
<text text-anchor="start" x="470.6105" y="-647.8" font-family="Helvetica,sans-Serif" font-size="11.00" fill="#000000">2 rows</text>
<polygon fill="#ffffff" stroke="transparent" points="506,-641.7 506,-660.7 531,-660.7 531,-641.7 506,-641.7"/>
<polygon fill="none" stroke="#000000" points="506,-641.7 506,-660.7 531,-660.7 531,-641.7 506,-641.7"/>
<text text-anchor="start" x="521.8862" y="-647.8" font-family="Helvetica,sans-Serif" font-size="11.00" fill="#000000"> &#160;</text>
</a>
</g>
</g>
<!-- client_attributes&#45;&gt;client -->
<g id="edge2" class="edge">
<title>client_attributes:w&#45;&gt;client:e</title>
<path fill="none" stroke="#000000" d="M396.4245,-667.7997C380.962,-663.1306 374.4862,-650.1203 364,-631.7 333.0054,-577.2543 386.1498,-352.7 323.5,-352.7"/>
<polygon fill="#000000" stroke="#000000" points="403.0671,-668.6657 410.5346,-673.2698 407.0336,-669.1829 411,-669.7 411,-669.7 411,-669.7 407.0336,-669.1829 411.4654,-666.1302 403.0671,-668.6657 403.0671,-668.6657"/>
<ellipse fill="none" stroke="#000000" cx="399.894" cy="-668.252" rx="3.2" ry="3.2"/>
</g>
<!-- client_default_roles -->
<g id="node4" class="node">
<title>client_default_roles</title>
<g id="a_node4"><a xlink:href="../../tables/client_default_roles.html" xlink:title="client_default_roles" target="_top">
<polygon fill="#ffffff" stroke="transparent" points="372,-530.7 372,-620.7 570,-620.7 570,-530.7 372,-530.7"/>
<polygon fill="#f5f5f5" stroke="transparent" points="374,-595.7 374,-618.7 568,-618.7 568,-595.7 374,-595.7"/>
<polygon fill="none" stroke="#000000" points="374,-595.7 374,-618.7 568,-618.7 568,-595.7 374,-595.7"/>
<text text-anchor="start" x="379" y="-604.8" font-family="Helvetica,sans-Serif" font-weight="bold" font-size="11.00" fill="#000000">client_default_roles</text>
<text text-anchor="start" x="533.0437" y="-603.8" font-family="Helvetica,sans-Serif" font-size="11.00" fill="#000000">[table]</text>
<polygon fill="none" stroke="#000000" points="374,-573.7 374,-595.7 507,-595.7 507,-573.7 374,-573.7"/>
<image xlink:href="../../images/primaryKeys.png" width="11px" height="12px" preserveAspectRatio="xMinYMin meet" x="379" y="-590.7"/>
<text text-anchor="start" x="394" y="-580.8" font-family="Helvetica,sans-Serif" font-size="11.00" fill="#000000">client_id</text>
<polygon fill="none" stroke="#000000" points="507,-573.7 507,-595.7 568,-595.7 568,-573.7 507,-573.7"/>
<text text-anchor="start" x="509.994" y="-581.4" font-family="Helvetica,sans-Serif" font-size="11.00" fill="#000000">varchar[36]</text>
<polygon fill="none" stroke="#000000" points="374,-551.7 374,-573.7 507,-573.7 507,-551.7 374,-551.7"/>
<image xlink:href="../../images/primaryKeys.png" width="11px" height="12px" preserveAspectRatio="xMinYMin meet" x="379" y="-568.7"/>
<text text-anchor="start" x="394" y="-558.8" font-family="Helvetica,sans-Serif" font-size="11.00" fill="#000000">role_id</text>
<polygon fill="none" stroke="#000000" points="507,-551.7 507,-573.7 568,-573.7 568,-551.7 507,-551.7"/>
<text text-anchor="start" x="509.994" y="-559.4" font-family="Helvetica,sans-Serif" font-size="11.00" fill="#000000">varchar[36]</text>
<polygon fill="#ffffff" stroke="transparent" points="374,-532.7 374,-551.7 432,-551.7 432,-532.7 374,-532.7"/>
<polygon fill="none" stroke="#000000" points="374,-532.7 374,-551.7 432,-551.7 432,-532.7 374,-532.7"/>
<text text-anchor="start" x="377" y="-538.8" font-family="Helvetica,sans-Serif" font-size="11.00" fill="#000000">&lt; 1</text>
<polygon fill="#ffffff" stroke="transparent" points="432,-532.7 432,-551.7 507,-551.7 507,-532.7 432,-532.7"/>
<polygon fill="none" stroke="#000000" points="432,-532.7 432,-551.7 507,-551.7 507,-532.7 432,-532.7"/>
<text text-anchor="start" x="471.6105" y="-538.8" font-family="Helvetica,sans-Serif" font-size="11.00" fill="#000000">2 rows</text>
<polygon fill="#ffffff" stroke="transparent" points="507,-532.7 507,-551.7 568,-551.7 568,-532.7 507,-532.7"/>
<polygon fill="none" stroke="#000000" points="507,-532.7 507,-551.7 568,-551.7 568,-532.7 507,-532.7"/>
<text text-anchor="start" x="549.4053" y="-538.8" font-family="Helvetica,sans-Serif" font-size="11.00" fill="#000000">0 &gt;</text>
<polygon fill="none" stroke="#000000" stroke-width="2" points="373,-531.7 373,-619.7 569,-619.7 569,-531.7 373,-531.7"/>
</a>
</g>
</g>
<!-- client_default_roles&#45;&gt;client -->
<g id="edge3" class="edge">
<title>client_default_roles:w&#45;&gt;client:e</title>
<path fill="none" stroke="#000000" d="M359.4473,-582.8325C284.6676,-560.8764 423.4608,-352.7 323.5,-352.7"/>
<polygon fill="#000000" stroke="#000000" points="366.0651,-583.6817 373.5418,-588.2707 370.0325,-584.1909 374,-584.7 374,-584.7 374,-584.7 370.0325,-584.1909 374.4582,-581.1293 366.0651,-583.6817 366.0651,-583.6817"/>
<ellipse fill="none" stroke="#000000" cx="362.8911" cy="-583.2744" rx="3.2" ry="3.2"/>
</g>
<!-- client_node_registrations -->
<g id="node5" class="node">
<title>client_node_registrations</title>
<g id="a_node5"><a xlink:href="../../tables/client_node_registrations.html" xlink:title="client_node_registrations" target="_top">
<polygon fill="#ffffff" stroke="transparent" points="388.5,-448.2 388.5,-509.2 553.5,-509.2 553.5,-448.2 388.5,-448.2"/>
<polygon fill="#f5f5f5" stroke="transparent" points="389,-485.7 389,-508.7 554,-508.7 554,-485.7 389,-485.7"/>
<polygon fill="none" stroke="#000000" points="389,-485.7 389,-508.7 554,-508.7 554,-485.7 389,-485.7"/>
<text text-anchor="start" x="393.8741" y="-494.8" font-family="Helvetica,sans-Serif" font-weight="bold" font-size="11.00" fill="#000000">client_node_registrations</text>
<text text-anchor="start" x="519.5219" y="-493.8" font-family="Helvetica,sans-Serif" font-size="11.00" fill="#000000">[table]</text>
<polygon fill="none" stroke="#000000" points="389,-466.7 389,-485.7 554,-485.7 554,-466.7 389,-466.7"/>
<text text-anchor="start" x="392" y="-472.8" font-family="Helvetica,sans-Serif" font-size="11.00" fill="#000000">...</text>
<polygon fill="#ffffff" stroke="transparent" points="389,-447.7 389,-466.7 457,-466.7 457,-447.7 389,-447.7"/>
<polygon fill="none" stroke="#000000" points="389,-447.7 389,-466.7 457,-466.7 457,-447.7 389,-447.7"/>
<text text-anchor="start" x="392" y="-453.8" font-family="Helvetica,sans-Serif" font-size="11.00" fill="#000000">&lt; 1</text>
<polygon fill="#ffffff" stroke="transparent" points="457,-447.7 457,-466.7 518,-466.7 518,-447.7 457,-447.7"/>
<polygon fill="none" stroke="#000000" points="457,-447.7 457,-466.7 518,-466.7 518,-447.7 457,-447.7"/>
<text text-anchor="start" x="482.6105" y="-453.8" font-family="Helvetica,sans-Serif" font-size="11.00" fill="#000000">0 rows</text>
<polygon fill="#ffffff" stroke="transparent" points="518,-447.7 518,-466.7 554,-466.7 554,-447.7 518,-447.7"/>
<polygon fill="none" stroke="#000000" points="518,-447.7 518,-466.7 554,-466.7 554,-447.7 518,-447.7"/>
<text text-anchor="start" x="544.8862" y="-453.8" font-family="Helvetica,sans-Serif" font-size="11.00" fill="#000000"> &#160;</text>
</a>
</g>
</g>
<!-- client_node_registrations&#45;&gt;client -->
<g id="edge4" class="edge">
<title>client_node_registrations:w&#45;&gt;client:e</title>
<path fill="none" stroke="#000000" d="M374.5547,-472.6595C336.9522,-453.7186 379.6283,-352.7 323.5,-352.7"/>
<polygon fill="#000000" stroke="#000000" points="381.1715,-474.0522 388.2585,-479.2228 385.0858,-474.8761 389,-475.7 389,-475.7 389,-475.7 385.0858,-474.8761 389.7415,-472.1772 381.1715,-474.0522 381.1715,-474.0522"/>
<ellipse fill="none" stroke="#000000" cx="378.0401" cy="-473.3931" rx="3.2" ry="3.2"/>
</g>
<!-- client_scope_client -->
<g id="node6" class="node">
<title>client_scope_client</title>
<g id="a_node6"><a xlink:href="../../tables/client_scope_client.html" xlink:title="client_scope_client" target="_top">
<polygon fill="#ffffff" stroke="transparent" points="403.5,-366.2 403.5,-427.2 538.5,-427.2 538.5,-366.2 403.5,-366.2"/>
<polygon fill="#f5f5f5" stroke="transparent" points="404,-403.7 404,-426.7 539,-426.7 539,-403.7 404,-403.7"/>
<polygon fill="none" stroke="#000000" points="404,-403.7 404,-426.7 539,-426.7 539,-403.7 404,-403.7"/>
<text text-anchor="start" x="408.5443" y="-412.8" font-family="Helvetica,sans-Serif" font-weight="bold" font-size="11.00" fill="#000000">client_scope_client</text>
<text text-anchor="start" x="504.5219" y="-411.8" font-family="Helvetica,sans-Serif" font-size="11.00" fill="#000000">[table]</text>
<polygon fill="none" stroke="#000000" points="404,-384.7 404,-403.7 539,-403.7 539,-384.7 404,-384.7"/>
<text text-anchor="start" x="407" y="-390.8" font-family="Helvetica,sans-Serif" font-size="11.00" fill="#000000">...</text>
<polygon fill="#ffffff" stroke="transparent" points="404,-365.7 404,-384.7 454,-384.7 454,-365.7 404,-365.7"/>
<polygon fill="none" stroke="#000000" points="404,-365.7 404,-384.7 454,-384.7 454,-365.7 404,-365.7"/>
<text text-anchor="start" x="407" y="-371.8" font-family="Helvetica,sans-Serif" font-size="11.00" fill="#000000">&lt; 2</text>
<polygon fill="#ffffff" stroke="transparent" points="454,-365.7 454,-384.7 512,-384.7 512,-365.7 454,-365.7"/>
<polygon fill="none" stroke="#000000" points="454,-365.7 454,-384.7 512,-384.7 512,-365.7 454,-365.7"/>
<text text-anchor="start" x="470.4956" y="-371.8" font-family="Helvetica,sans-Serif" font-size="11.00" fill="#000000">54 rows</text>
<polygon fill="#ffffff" stroke="transparent" points="512,-365.7 512,-384.7 539,-384.7 539,-365.7 512,-365.7"/>
<polygon fill="none" stroke="#000000" points="512,-365.7 512,-384.7 539,-384.7 539,-365.7 512,-365.7"/>
<text text-anchor="start" x="529.8862" y="-371.8" font-family="Helvetica,sans-Serif" font-size="11.00" fill="#000000"> &#160;</text>
</a>
</g>
</g>
<!-- client_scope_client&#45;&gt;client -->
<g id="edge5" class="edge">
<title>client_scope_client:w&#45;&gt;client:e</title>
<path fill="none" stroke="#000000" d="M389.568,-391.6104C363.0481,-383.2554 358.1616,-352.7 323.5,-352.7"/>
<polygon fill="#000000" stroke="#000000" points="396.0826,-392.5536 403.4841,-397.2628 400.0413,-393.1268 404,-393.7 404,-393.7 404,-393.7 400.0413,-393.1268 404.5159,-390.1372 396.0826,-392.5536 396.0826,-392.5536"/>
<ellipse fill="none" stroke="#000000" cx="392.9156" cy="-392.0951" rx="3.2" ry="3.2"/>
</g>
<!-- protocol_mapper -->
<g id="node7" class="node">
<title>protocol_mapper</title>
<g id="a_node7"><a xlink:href="../../tables/protocol_mapper.html" xlink:title="protocol_mapper" target="_top">
<polygon fill="#ffffff" stroke="transparent" points="408.5,-284.2 408.5,-345.2 533.5,-345.2 533.5,-284.2 408.5,-284.2"/>
<polygon fill="#f5f5f5" stroke="transparent" points="409,-321.7 409,-344.7 534,-344.7 534,-321.7 409,-321.7"/>
<polygon fill="none" stroke="#000000" points="409,-321.7 409,-344.7 534,-344.7 534,-321.7 409,-321.7"/>
<text text-anchor="start" x="413.7412" y="-330.8" font-family="Helvetica,sans-Serif" font-weight="bold" font-size="11.00" fill="#000000">protocol_mapper</text>
<text text-anchor="start" x="499.5219" y="-329.8" font-family="Helvetica,sans-Serif" font-size="11.00" fill="#000000">[table]</text>
<polygon fill="none" stroke="#000000" points="409,-302.7 409,-321.7 534,-321.7 534,-302.7 409,-302.7"/>
<text text-anchor="start" x="412" y="-308.8" font-family="Helvetica,sans-Serif" font-size="11.00" fill="#000000">...</text>
<polygon fill="#ffffff" stroke="transparent" points="409,-283.7 409,-302.7 449,-302.7 449,-283.7 409,-283.7"/>
<polygon fill="none" stroke="#000000" points="409,-283.7 409,-302.7 449,-302.7 449,-283.7 409,-283.7"/>
<text text-anchor="start" x="412" y="-289.8" font-family="Helvetica,sans-Serif" font-size="11.00" fill="#000000">&lt; 2</text>
<polygon fill="#ffffff" stroke="transparent" points="449,-283.7 449,-302.7 503,-302.7 503,-283.7 449,-283.7"/>
<polygon fill="none" stroke="#000000" points="449,-283.7 449,-302.7 503,-302.7 503,-283.7 449,-283.7"/>
<text text-anchor="start" x="461.4956" y="-289.8" font-family="Helvetica,sans-Serif" font-size="11.00" fill="#000000">28 rows</text>
<polygon fill="#ffffff" stroke="transparent" points="503,-283.7 503,-302.7 534,-302.7 534,-283.7 503,-283.7"/>
<polygon fill="none" stroke="#000000" points="503,-283.7 503,-302.7 534,-302.7 534,-283.7 503,-283.7"/>
<text text-anchor="start" x="515.4053" y="-289.8" font-family="Helvetica,sans-Serif" font-size="11.00" fill="#000000">1 &gt;</text>
</a>
</g>
</g>
<!-- protocol_mapper&#45;&gt;client -->
<g id="edge6" class="edge">
<title>protocol_mapper:w&#45;&gt;client:e</title>
<path fill="none" stroke="#000000" d="M394.5675,-313.5682C365.8638,-321.589 360.2107,-352.7 323.5,-352.7"/>
<polygon fill="#000000" stroke="#000000" points="401.0662,-312.727 409.4622,-315.2702 405.0331,-312.2135 409,-311.7 409,-311.7 409,-311.7 405.0331,-312.2135 408.5378,-308.1298 401.0662,-312.727 401.0662,-312.727"/>
<ellipse fill="none" stroke="#000000" cx="397.8927" cy="-313.1379" rx="3.2" ry="3.2"/>
</g>
<!-- redirect_uris -->
<g id="node8" class="node">
<title>redirect_uris</title>
<g id="a_node8"><a xlink:href="../../tables/redirect_uris.html" xlink:title="redirect_uris" target="_top">
<polygon fill="#ffffff" stroke="transparent" points="419.5,-202.2 419.5,-263.2 522.5,-263.2 522.5,-202.2 419.5,-202.2"/>
<polygon fill="#f5f5f5" stroke="transparent" points="420,-239.7 420,-262.7 523,-262.7 523,-239.7 420,-239.7"/>
<polygon fill="none" stroke="#000000" points="420,-239.7 420,-262.7 523,-262.7 523,-239.7 420,-239.7"/>
<text text-anchor="start" x="424.7506" y="-248.8" font-family="Helvetica,sans-Serif" font-weight="bold" font-size="11.00" fill="#000000">redirect_uris</text>
<text text-anchor="start" x="488.5219" y="-247.8" font-family="Helvetica,sans-Serif" font-size="11.00" fill="#000000">[table]</text>
<polygon fill="none" stroke="#000000" points="420,-220.7 420,-239.7 523,-239.7 523,-220.7 420,-220.7"/>
<text text-anchor="start" x="423" y="-226.8" font-family="Helvetica,sans-Serif" font-size="11.00" fill="#000000">...</text>
<polygon fill="#ffffff" stroke="transparent" points="420,-201.7 420,-220.7 457,-220.7 457,-201.7 420,-201.7"/>
<polygon fill="none" stroke="#000000" points="420,-201.7 420,-220.7 457,-220.7 457,-201.7 420,-201.7"/>
<text text-anchor="start" x="423" y="-207.8" font-family="Helvetica,sans-Serif" font-size="11.00" fill="#000000">&lt; 1</text>
<polygon fill="#ffffff" stroke="transparent" points="457,-201.7 457,-220.7 503,-220.7 503,-201.7 457,-201.7"/>
<polygon fill="none" stroke="#000000" points="457,-201.7 457,-220.7 503,-220.7 503,-201.7 457,-201.7"/>
<text text-anchor="start" x="467.6105" y="-207.8" font-family="Helvetica,sans-Serif" font-size="11.00" fill="#000000">3 rows</text>
<polygon fill="#ffffff" stroke="transparent" points="503,-201.7 503,-220.7 523,-220.7 523,-201.7 503,-201.7"/>
<polygon fill="none" stroke="#000000" points="503,-201.7 503,-220.7 523,-220.7 523,-201.7 503,-201.7"/>
<text text-anchor="start" x="513.8862" y="-207.8" font-family="Helvetica,sans-Serif" font-size="11.00" fill="#000000"> &#160;</text>
</a>
</g>
</g>
<!-- redirect_uris&#45;&gt;client -->
<g id="edge7" class="edge">
<title>redirect_uris:w&#45;&gt;client:e</title>
<path fill="none" stroke="#000000" d="M405.616,-231.4345C386.3732,-236.7313 380.5917,-253.5673 364,-273.7 338.9067,-304.1486 362.9562,-352.7 323.5,-352.7"/>
<polygon fill="#000000" stroke="#000000" points="412.0575,-230.6578 420.431,-233.2741 416.0288,-230.1789 420,-229.7 420,-229.7 420,-229.7 416.0288,-230.1789 419.569,-226.1259 412.0575,-230.6578 412.0575,-230.6578"/>
<ellipse fill="none" stroke="#000000" cx="408.8805" cy="-231.0409" rx="3.2" ry="3.2"/>
</g>
<!-- scope_mapping -->
<g id="node9" class="node">
<title>scope_mapping</title>
<g id="a_node9"><a xlink:href="../../tables/scope_mapping.html" xlink:title="scope_mapping" target="_top">
<polygon fill="#ffffff" stroke="transparent" points="411,-120.2 411,-181.2 531,-181.2 531,-120.2 411,-120.2"/>
<polygon fill="#f5f5f5" stroke="transparent" points="411,-157.7 411,-180.7 531,-180.7 531,-157.7 411,-157.7"/>
<polygon fill="none" stroke="#000000" points="411,-157.7 411,-180.7 531,-180.7 531,-157.7 411,-157.7"/>
<text text-anchor="start" x="415.6816" y="-166.8" font-family="Helvetica,sans-Serif" font-weight="bold" font-size="11.00" fill="#000000">scope_mapping</text>
<text text-anchor="start" x="496.5219" y="-165.8" font-family="Helvetica,sans-Serif" font-size="11.00" fill="#000000">[table]</text>
<polygon fill="none" stroke="#000000" points="411,-138.7 411,-157.7 531,-157.7 531,-138.7 411,-138.7"/>
<text text-anchor="start" x="414" y="-144.8" font-family="Helvetica,sans-Serif" font-size="11.00" fill="#000000">...</text>
<polygon fill="#ffffff" stroke="transparent" points="411,-119.7 411,-138.7 459,-138.7 459,-119.7 411,-119.7"/>
<polygon fill="none" stroke="#000000" points="411,-119.7 411,-138.7 459,-138.7 459,-119.7 411,-119.7"/>
<text text-anchor="start" x="414" y="-125.8" font-family="Helvetica,sans-Serif" font-size="11.00" fill="#000000">&lt; 1</text>
<polygon fill="#ffffff" stroke="transparent" points="459,-119.7 459,-138.7 505,-138.7 505,-119.7 459,-119.7"/>
<polygon fill="none" stroke="#000000" points="459,-119.7 459,-138.7 505,-138.7 505,-119.7 459,-119.7"/>
<text text-anchor="start" x="475.1105" y="-125.8" font-family="Helvetica,sans-Serif" font-size="11.00" fill="#000000">1 row</text>
<polygon fill="#ffffff" stroke="transparent" points="505,-119.7 505,-138.7 531,-138.7 531,-119.7 505,-119.7"/>
<polygon fill="none" stroke="#000000" points="505,-119.7 505,-138.7 531,-138.7 531,-119.7 505,-119.7"/>
<text text-anchor="start" x="521.8862" y="-125.8" font-family="Helvetica,sans-Serif" font-size="11.00" fill="#000000"> &#160;</text>
</a>
</g>
</g>
<!-- scope_mapping&#45;&gt;client -->
<g id="edge8" class="edge">
<title>scope_mapping:w&#45;&gt;client:e</title>
<path fill="none" stroke="#000000" d="M396.3303,-149.977C380.3773,-155.7784 375.5742,-172.0541 364,-191.7 326.5469,-255.2725 397.2848,-352.7 323.5,-352.7"/>
<polygon fill="#000000" stroke="#000000" points="403.0947,-148.9271 411.5522,-151.2574 407.0473,-148.3136 411,-147.7 411,-147.7 411,-147.7 407.0473,-148.3136 410.4478,-144.1426 403.0947,-148.9271 403.0947,-148.9271"/>
<ellipse fill="none" stroke="#000000" cx="399.9325" cy="-149.4179" rx="3.2" ry="3.2"/>
</g>
<!-- web_origins -->
<g id="node10" class="node">
<title>web_origins</title>
<g id="a_node10"><a xlink:href="../../tables/web_origins.html" xlink:title="web_origins" target="_top">
<polygon fill="#ffffff" stroke="transparent" points="420.5,-38.2 420.5,-99.2 521.5,-99.2 521.5,-38.2 420.5,-38.2"/>
<polygon fill="#f5f5f5" stroke="transparent" points="421,-75.7 421,-98.7 522,-98.7 522,-75.7 421,-75.7"/>
<polygon fill="none" stroke="#000000" points="421,-75.7 421,-98.7 522,-98.7 522,-75.7 421,-75.7"/>
<text text-anchor="start" x="425.663" y="-84.8" font-family="Helvetica,sans-Serif" font-weight="bold" font-size="11.00" fill="#000000">web_origins</text>
<text text-anchor="start" x="487.5219" y="-83.8" font-family="Helvetica,sans-Serif" font-size="11.00" fill="#000000">[table]</text>
<polygon fill="none" stroke="#000000" points="421,-56.7 421,-75.7 522,-75.7 522,-56.7 421,-56.7"/>
<text text-anchor="start" x="424" y="-62.8" font-family="Helvetica,sans-Serif" font-size="11.00" fill="#000000">...</text>
<polygon fill="#ffffff" stroke="transparent" points="421,-37.7 421,-56.7 460,-56.7 460,-37.7 421,-37.7"/>
<polygon fill="none" stroke="#000000" points="421,-37.7 421,-56.7 460,-56.7 460,-37.7 421,-37.7"/>
<text text-anchor="start" x="424" y="-43.8" font-family="Helvetica,sans-Serif" font-size="11.00" fill="#000000">&lt; 1</text>
<polygon fill="#ffffff" stroke="transparent" points="460,-37.7 460,-56.7 501,-56.7 501,-37.7 460,-37.7"/>
<polygon fill="none" stroke="#000000" points="460,-37.7 460,-56.7 501,-56.7 501,-37.7 460,-37.7"/>
<text text-anchor="start" x="471.1105" y="-43.8" font-family="Helvetica,sans-Serif" font-size="11.00" fill="#000000">1 row</text>
<polygon fill="#ffffff" stroke="transparent" points="501,-37.7 501,-56.7 522,-56.7 522,-37.7 501,-37.7"/>
<polygon fill="none" stroke="#000000" points="501,-37.7 501,-56.7 522,-56.7 522,-37.7 501,-37.7"/>
<text text-anchor="start" x="512.8862" y="-43.8" font-family="Helvetica,sans-Serif" font-size="11.00" fill="#000000"> &#160;</text>
</a>
</g>
</g>
<!-- web_origins&#45;&gt;client -->
<g id="edge9" class="edge">
<title>web_origins:w&#45;&gt;client:e</title>
<path fill="none" stroke="#000000" d="M406.4168,-67.1372C385.8209,-71.7079 377.6095,-86.9587 364,-109.7 335.8876,-156.6755 378.2449,-352.7 323.5,-352.7"/>
<polygon fill="#000000" stroke="#000000" points="413.0386,-66.4847 421.3531,-69.2826 417.0193,-66.0923 421,-65.7 421,-65.7 421,-65.7 417.0193,-66.0923 420.6469,-62.1174 413.0386,-66.4847 413.0386,-66.4847"/>
<ellipse fill="none" stroke="#000000" cx="409.854" cy="-66.7985" rx="3.2" ry="3.2"/>
</g>
</g>
</svg>
