<?xml version="1.0" encoding="UTF-8" standalone="no"?>
<!DOCTYPE svg PUBLIC "-//W3C//DTD SVG 1.1//EN"
 "http://www.w3.org/Graphics/SVG/1.1/DTD/svg11.dtd">
<!-- Generated by graphviz version 2.40.1 (20161225.0304)
 -->
<!-- Title: oneDegreeRelationshipsDiagram Pages: 1 -->
<svg width="409pt" height="179pt"
 viewBox="0.00 0.00 409.00 178.70" xmlns="http://www.w3.org/2000/svg" xmlns:xlink="http://www.w3.org/1999/xlink">
<g id="graph0" class="graph" transform="scale(1 1) rotate(0) translate(4 174.7)">
<title>oneDegreeRelationshipsDiagram</title>
<polygon fill="#ffffff" stroke="transparent" points="-4,4 -4,-174.7 405,-174.7 405,4 -4,4"/>
<text text-anchor="middle" x="72.4936" y="-7.3" font-family="Helvetica,sans-Serif" font-size="11.00" fill="#000000">Generated by SchemaSpy</text>
<!-- client_scope_attributes -->
<g id="node1" class="node">
<title>client_scope_attributes</title>
<g id="a_node1"><a xlink:href="../../tables/client_scope_attributes.html" xlink:title="client_scope_attributes" target="_top">
<polygon fill="#ffffff" stroke="transparent" points="161,-54.7 161,-166.7 393,-166.7 393,-54.7 161,-54.7"/>
<polygon fill="#f5f5f5" stroke="transparent" points="163,-141.7 163,-164.7 391,-164.7 391,-141.7 163,-141.7"/>
<polygon fill="none" stroke="#000000" points="163,-141.7 163,-164.7 391,-164.7 391,-141.7 163,-141.7"/>
<text text-anchor="start" x="168" y="-150.8" font-family="Helvetica,sans-Serif" font-weight="bold" font-size="11.00" fill="#000000">client_scope_attributes</text>
<text text-anchor="start" x="356.0437" y="-149.8" font-family="Helvetica,sans-Serif" font-size="11.00" fill="#000000">[table]</text>
<polygon fill="none" stroke="#000000" points="163,-119.7 163,-141.7 318,-141.7 318,-119.7 163,-119.7"/>
<image xlink:href="../../images/primaryKeys.png" width="11px" height="12px" preserveAspectRatio="xMinYMin meet" x="168" y="-136.7"/>
<text text-anchor="start" x="183" y="-126.8" font-family="Helvetica,sans-Serif" font-size="11.00" fill="#000000">scope_id</text>
<polygon fill="none" stroke="#000000" points="318,-119.7 318,-141.7 391,-141.7 391,-119.7 318,-119.7"/>
<text text-anchor="start" x="321" y="-127.4" font-family="Helvetica,sans-Serif" font-size="11.00" fill="#000000">varchar[36]</text>
<polygon fill="none" stroke="#000000" points="163,-97.7 163,-119.7 318,-119.7 318,-97.7 163,-97.7"/>
<text text-anchor="start" x="183" y="-104.8" font-family="Helvetica,sans-Serif" font-size="11.00" fill="#000000">value</text>
<polygon fill="none" stroke="#000000" points="318,-97.7 318,-119.7 391,-119.7 391,-97.7 318,-97.7"/>
<text text-anchor="start" x="320.8791" y="-105.4" font-family="Helvetica,sans-Serif" font-size="11.00" fill="#000000">varchar[2048]</text>
<polygon fill="none" stroke="#000000" points="163,-75.7 163,-97.7 318,-97.7 318,-75.7 163,-75.7"/>
<image xlink:href="../../images/primaryKeys.png" width="11px" height="12px" preserveAspectRatio="xMinYMin meet" x="168" y="-92.7"/>
<text text-anchor="start" x="183" y="-82.8" font-family="Helvetica,sans-Serif" font-size="11.00" fill="#000000">name</text>
<polygon fill="none" stroke="#000000" points="318,-75.7 318,-97.7 391,-97.7 391,-75.7 318,-75.7"/>
<text text-anchor="start" x="321" y="-83.4" font-family="Helvetica,sans-Serif" font-size="11.00" fill="#000000">varchar[255]</text>
<polygon fill="#ffffff" stroke="transparent" points="163,-56.7 163,-75.7 229,-75.7 229,-56.7 163,-56.7"/>
<polygon fill="none" stroke="#000000" points="163,-56.7 163,-75.7 229,-75.7 229,-56.7 163,-56.7"/>
<text text-anchor="start" x="166" y="-62.8" font-family="Helvetica,sans-Serif" font-size="11.00" fill="#000000">&lt; 1</text>
<polygon fill="#ffffff" stroke="transparent" points="229,-56.7 229,-75.7 318,-75.7 318,-56.7 229,-56.7"/>
<polygon fill="none" stroke="#000000" points="229,-56.7 229,-75.7 318,-75.7 318,-56.7 229,-56.7"/>
<text text-anchor="start" x="276.4956" y="-62.8" font-family="Helvetica,sans-Serif" font-size="11.00" fill="#000000">24 rows</text>
<polygon fill="#ffffff" stroke="transparent" points="318,-56.7 318,-75.7 391,-75.7 391,-56.7 318,-56.7"/>
<polygon fill="none" stroke="#000000" points="318,-56.7 318,-75.7 391,-75.7 391,-56.7 318,-56.7"/>
<text text-anchor="start" x="372.4053" y="-62.8" font-family="Helvetica,sans-Serif" font-size="11.00" fill="#000000">0 &gt;</text>
<polygon fill="none" stroke="#000000" stroke-width="2" points="162,-55.7 162,-165.7 392,-165.7 392,-55.7 162,-55.7"/>
</a>
</g>
</g>
<!-- client_scope -->
<g id="node2" class="node">
<title>client_scope</title>
<g id="a_node2"><a xlink:href="../../tables/client_scope.html" xlink:title="client_scope" target="_top">
<polygon fill="#ffffff" stroke="transparent" points="8,-38.2 8,-165.2 112,-165.2 112,-38.2 8,-38.2"/>
<polygon fill="#f5f5f5" stroke="transparent" points="8,-141.7 8,-164.7 112,-164.7 112,-141.7 8,-141.7"/>
<polygon fill="none" stroke="#000000" points="8,-141.7 8,-164.7 112,-164.7 112,-141.7 8,-141.7"/>
<text text-anchor="start" x="12.9359" y="-150.8" font-family="Helvetica,sans-Serif" font-weight="bold" font-size="11.00" fill="#000000">client_scope</text>
<text text-anchor="start" x="77.5219" y="-149.8" font-family="Helvetica,sans-Serif" font-size="11.00" fill="#000000">[table]</text>
<polygon fill="none" stroke="#000000" points="8,-119.7 8,-141.7 112,-141.7 112,-119.7 8,-119.7"/>
<image xlink:href="../../images/primaryKeys.png" width="11px" height="12px" preserveAspectRatio="xMinYMin meet" x="13" y="-136.7"/>
<text text-anchor="start" x="34" y="-126.8" font-family="Helvetica,sans-Serif" font-size="11.00" fill="#000000">id</text>
<polygon fill="#ffffff" stroke="transparent" points="8,-97.7 8,-119.7 112,-119.7 112,-97.7 8,-97.7"/>
<polygon fill="none" stroke="#000000" points="8,-97.7 8,-119.7 112,-119.7 112,-97.7 8,-97.7"/>
<text text-anchor="start" x="34" y="-104.8" font-family="Helvetica,sans-Serif" font-size="11.00" fill="#000000">name</text>
<polygon fill="#ffffff" stroke="transparent" points="8,-75.7 8,-97.7 112,-97.7 112,-75.7 8,-75.7"/>
<polygon fill="none" stroke="#000000" points="8,-75.7 8,-97.7 112,-97.7 112,-75.7 8,-75.7"/>
<image xlink:href="../../images/foreignKeys.png" width="11px" height="12px" preserveAspectRatio="xMinYMin meet" x="13" y="-92.7"/>
<text text-anchor="start" x="34" y="-82.8" font-family="Helvetica,sans-Serif" font-size="11.00" fill="#000000">realm_id</text>
<polygon fill="none" stroke="#000000" points="8,-56.7 8,-75.7 112,-75.7 112,-56.7 8,-56.7"/>
<text text-anchor="start" x="11" y="-62.8" font-family="Helvetica,sans-Serif" font-size="11.00" fill="#000000">...</text>
<polygon fill="#ffffff" stroke="transparent" points="8,-37.7 8,-56.7 41,-56.7 41,-37.7 8,-37.7"/>
<polygon fill="none" stroke="#000000" points="8,-37.7 8,-56.7 41,-56.7 41,-37.7 8,-37.7"/>
<text text-anchor="start" x="11" y="-43.8" font-family="Helvetica,sans-Serif" font-size="11.00" fill="#000000">&lt; 1</text>
<polygon fill="#ffffff" stroke="transparent" points="41,-37.7 41,-56.7 85,-56.7 85,-37.7 41,-37.7"/>
<polygon fill="none" stroke="#000000" points="41,-37.7 41,-56.7 85,-56.7 85,-37.7 41,-37.7"/>
<text text-anchor="start" x="49.6105" y="-43.8" font-family="Helvetica,sans-Serif" font-size="11.00" fill="#000000">9 rows</text>
<polygon fill="#ffffff" stroke="transparent" points="85,-37.7 85,-56.7 112,-56.7 112,-37.7 85,-37.7"/>
<polygon fill="none" stroke="#000000" points="85,-37.7 85,-56.7 112,-56.7 112,-37.7 85,-37.7"/>
<text text-anchor="start" x="93.4053" y="-43.8" font-family="Helvetica,sans-Serif" font-size="11.00" fill="#000000">5 &gt;</text>
</a>
</g>
</g>
<!-- client_scope_attributes&#45;&gt;client_scope -->
<g id="edge1" class="edge">
<title>client_scope_attributes:w&#45;&gt;client_scope:e</title>
<path fill="none" stroke="#000000" d="M148.276,-130.7C136.2815,-130.7 128.8229,-130.7 112,-130.7"/>
<polygon fill="#000000" stroke="#000000" points="155,-130.7001 163,-134.3 159,-130.7 163,-130.7 163,-130.7 163,-130.7 159,-130.7 163,-127.1 155,-130.7001 155,-130.7001"/>
<ellipse fill="none" stroke="#000000" cx="151.8" cy="-130.7001" rx="3.2" ry="3.2"/>
</g>
</g>
</svg>
