<?xml version="1.0" encoding="UTF-8" standalone="no"?>
<!DOCTYPE svg PUBLIC "-//W3C//DTD SVG 1.1//EN"
 "http://www.w3.org/Graphics/SVG/1.1/DTD/svg11.dtd">
<!-- Generated by graphviz version 2.40.1 (20161225.0304)
 -->
<!-- Title: twoDegreesRelationshipsDiagramImplied Pages: 1 -->
<svg width="750pt" height="491pt"
 viewBox="0.00 0.00 750.00 490.70" xmlns="http://www.w3.org/2000/svg" xmlns:xlink="http://www.w3.org/1999/xlink">
<g id="graph0" class="graph" transform="scale(1 1) rotate(0) translate(4 486.7)">
<title>twoDegreesRelationshipsDiagramImplied</title>
<polygon fill="#ffffff" stroke="transparent" points="-4,4 -4,-486.7 746,-486.7 746,4 -4,4"/>
<text text-anchor="middle" x="72.4936" y="-7.3" font-family="Helvetica,sans-Serif" font-size="11.00" fill="#000000">Generated by SchemaSpy</text>
<!-- client_session -->
<g id="node1" class="node">
<title>client_session</title>
<g id="a_node1"><a xlink:href="../../tables/client_session.html" xlink:title="client_session" target="_top">
<polygon fill="#ffffff" stroke="transparent" points="329,-188.7 329,-315.7 441,-315.7 441,-188.7 329,-188.7"/>
<polygon fill="#f5f5f5" stroke="transparent" points="329,-292.2 329,-315.2 441,-315.2 441,-292.2 329,-292.2"/>
<polygon fill="none" stroke="#000000" points="329,-292.2 329,-315.2 441,-315.2 441,-292.2 329,-292.2"/>
<text text-anchor="start" x="333.9655" y="-301.3" font-family="Helvetica,sans-Serif" font-weight="bold" font-size="11.00" fill="#000000">client_session</text>
<text text-anchor="start" x="406.5219" y="-300.3" font-family="Helvetica,sans-Serif" font-size="11.00" fill="#000000">[table]</text>
<polygon fill="none" stroke="#000000" points="329,-270.2 329,-292.2 441,-292.2 441,-270.2 329,-270.2"/>
<image xlink:href="../../images/primaryKeys.png" width="11px" height="12px" preserveAspectRatio="xMinYMin meet" x="334" y="-287.2"/>
<text text-anchor="start" x="353" y="-277.3" font-family="Helvetica,sans-Serif" font-size="11.00" fill="#000000">id</text>
<polygon fill="#ffffff" stroke="transparent" points="329,-248.2 329,-270.2 441,-270.2 441,-248.2 329,-248.2"/>
<polygon fill="none" stroke="#000000" points="329,-248.2 329,-270.2 441,-270.2 441,-248.2 329,-248.2"/>
<image xlink:href="../../images/foreignKeys.png" width="11px" height="12px" preserveAspectRatio="xMinYMin meet" x="334" y="-265.2"/>
<text text-anchor="start" x="353" y="-255.3" font-family="Helvetica,sans-Serif" font-size="11.00" fill="#000000">session_id</text>
<polygon fill="none" stroke="#000000" points="329,-226.2 329,-248.2 441,-248.2 441,-226.2 329,-226.2"/>
<image xlink:href="../../images/foreignKeys.png" width="11px" height="12px" preserveAspectRatio="xMinYMin meet" x="334" y="-243.2"/>
<text text-anchor="start" x="353" y="-233.3" font-family="Helvetica,sans-Serif" font-size="11.00" fill="#000000">realm_id</text>
<polygon fill="none" stroke="#000000" points="329,-207.2 329,-226.2 441,-226.2 441,-207.2 329,-207.2"/>
<text text-anchor="start" x="332" y="-213.3" font-family="Helvetica,sans-Serif" font-size="11.00" fill="#000000">...</text>
<polygon fill="#ffffff" stroke="transparent" points="329,-188.2 329,-207.2 366,-207.2 366,-188.2 329,-188.2"/>
<polygon fill="none" stroke="#000000" points="329,-188.2 329,-207.2 366,-207.2 366,-188.2 329,-188.2"/>
<text text-anchor="start" x="332" y="-194.3" font-family="Helvetica,sans-Serif" font-size="11.00" fill="#000000">&lt; 2</text>
<polygon fill="#ffffff" stroke="transparent" points="366,-188.2 366,-207.2 412,-207.2 412,-188.2 366,-188.2"/>
<polygon fill="none" stroke="#000000" points="366,-188.2 366,-207.2 412,-207.2 412,-188.2 366,-188.2"/>
<text text-anchor="start" x="376.6105" y="-194.3" font-family="Helvetica,sans-Serif" font-size="11.00" fill="#000000">0 rows</text>
<polygon fill="#ffffff" stroke="transparent" points="412,-188.2 412,-207.2 441,-207.2 441,-188.2 412,-188.2"/>
<polygon fill="none" stroke="#000000" points="412,-188.2 412,-207.2 441,-207.2 441,-188.2 412,-188.2"/>
<text text-anchor="start" x="422.4053" y="-194.3" font-family="Helvetica,sans-Serif" font-size="11.00" fill="#000000">5 &gt;</text>
</a>
</g>
</g>
<!-- federated_user -->
<g id="node2" class="node">
<title>federated_user</title>
<g id="a_node2"><a xlink:href="../../tables/federated_user.html" xlink:title="federated_user" target="_top">
<polygon fill="#ffffff" stroke="transparent" points="8,-246.7 8,-307.7 124,-307.7 124,-246.7 8,-246.7"/>
<polygon fill="#f5f5f5" stroke="transparent" points="8,-284.2 8,-307.2 124,-307.2 124,-284.2 8,-284.2"/>
<polygon fill="none" stroke="#000000" points="8,-284.2 8,-307.2 124,-307.2 124,-284.2 8,-284.2"/>
<text text-anchor="start" x="12.5142" y="-293.3" font-family="Helvetica,sans-Serif" font-weight="bold" font-size="11.00" fill="#000000">federated_user</text>
<text text-anchor="start" x="89.5219" y="-292.3" font-family="Helvetica,sans-Serif" font-size="11.00" fill="#000000">[table]</text>
<polygon fill="none" stroke="#000000" points="8,-265.2 8,-284.2 124,-284.2 124,-265.2 8,-265.2"/>
<text text-anchor="start" x="11" y="-271.3" font-family="Helvetica,sans-Serif" font-size="11.00" fill="#000000">...</text>
<polygon fill="#ffffff" stroke="transparent" points="8,-246.2 8,-265.2 39,-265.2 39,-246.2 8,-246.2"/>
<polygon fill="none" stroke="#000000" points="8,-246.2 8,-265.2 39,-265.2 39,-246.2 8,-246.2"/>
<text text-anchor="start" x="11" y="-252.3" font-family="Helvetica,sans-Serif" font-size="11.00" fill="#000000"> &#160;</text>
<polygon fill="#ffffff" stroke="transparent" points="39,-246.2 39,-265.2 87,-265.2 87,-246.2 39,-246.2"/>
<polygon fill="none" stroke="#000000" points="39,-246.2 39,-265.2 87,-265.2 87,-246.2 39,-246.2"/>
<text text-anchor="start" x="51.6105" y="-252.3" font-family="Helvetica,sans-Serif" font-size="11.00" fill="#000000">0 rows</text>
<polygon fill="#ffffff" stroke="transparent" points="87,-246.2 87,-265.2 124,-265.2 124,-246.2 87,-246.2"/>
<polygon fill="none" stroke="#000000" points="87,-246.2 87,-265.2 124,-265.2 124,-246.2 87,-246.2"/>
<text text-anchor="start" x="99.2904" y="-252.3" font-family="Helvetica,sans-Serif" font-size="11.00" fill="#000000">30 &gt;</text>
</a>
</g>
</g>
<!-- client_session&#45;&gt;federated_user -->
<g id="edge1" class="edge">
<title>client_session:w&#45;&gt;federated_user:e</title>
<path fill="none" stroke="#000000" stroke-dasharray="5,2" d="M314.3282,-236.8189C252.6196,-233.5853 228.0877,-211.4602 165,-236.2 141.8697,-245.2705 148.8452,-274.2 124,-274.2"/>
<polygon fill="#000000" stroke="#000000" points="321.0027,-236.9922 328.9065,-240.7988 325.0013,-237.0961 329,-237.2 329,-237.2 329,-237.2 325.0013,-237.0961 329.0935,-233.6012 321.0027,-236.9922 321.0027,-236.9922"/>
<ellipse fill="none" stroke="#000000" cx="317.8038" cy="-236.9091" rx="3.2" ry="3.2"/>
</g>
<!-- user_session -->
<g id="node3" class="node">
<title>user_session</title>
<g id="a_node3"><a xlink:href="../../tables/user_session.html" xlink:title="user_session" target="_top">
<polygon fill="#ffffff" stroke="transparent" points="173,-246.7 173,-307.7 280,-307.7 280,-246.7 173,-246.7"/>
<polygon fill="#f5f5f5" stroke="transparent" points="173.5,-284.2 173.5,-307.2 280.5,-307.2 280.5,-284.2 173.5,-284.2"/>
<polygon fill="none" stroke="#000000" points="173.5,-284.2 173.5,-307.2 280.5,-307.2 280.5,-284.2 173.5,-284.2"/>
<text text-anchor="start" x="178.1039" y="-293.3" font-family="Helvetica,sans-Serif" font-weight="bold" font-size="11.00" fill="#000000">user_session</text>
<text text-anchor="start" x="246.0219" y="-292.3" font-family="Helvetica,sans-Serif" font-size="11.00" fill="#000000">[table]</text>
<polygon fill="none" stroke="#000000" points="173.5,-265.2 173.5,-284.2 280.5,-284.2 280.5,-265.2 173.5,-265.2"/>
<text text-anchor="start" x="176.5" y="-271.3" font-family="Helvetica,sans-Serif" font-size="11.00" fill="#000000">...</text>
<polygon fill="#ffffff" stroke="transparent" points="173.5,-246.2 173.5,-265.2 207.5,-265.2 207.5,-246.2 173.5,-246.2"/>
<polygon fill="none" stroke="#000000" points="173.5,-246.2 173.5,-265.2 207.5,-265.2 207.5,-246.2 173.5,-246.2"/>
<text text-anchor="start" x="176.5" y="-252.3" font-family="Helvetica,sans-Serif" font-size="11.00" fill="#000000">&lt; 4</text>
<polygon fill="#ffffff" stroke="transparent" points="207.5,-246.2 207.5,-265.2 252.5,-265.2 252.5,-246.2 207.5,-246.2"/>
<polygon fill="none" stroke="#000000" points="207.5,-246.2 207.5,-265.2 252.5,-265.2 252.5,-246.2 207.5,-246.2"/>
<text text-anchor="start" x="217.1105" y="-252.3" font-family="Helvetica,sans-Serif" font-size="11.00" fill="#000000">0 rows</text>
<polygon fill="#ffffff" stroke="transparent" points="252.5,-246.2 252.5,-265.2 280.5,-265.2 280.5,-246.2 252.5,-246.2"/>
<polygon fill="none" stroke="#000000" points="252.5,-246.2 252.5,-265.2 280.5,-265.2 280.5,-246.2 252.5,-246.2"/>
<text text-anchor="start" x="261.9053" y="-252.3" font-family="Helvetica,sans-Serif" font-size="11.00" fill="#000000">2 &gt;</text>
</a>
</g>
</g>
<!-- client_session&#45;&gt;user_session -->
<g id="edge2" class="edge">
<title>client_session:w&#45;&gt;user_session:e</title>
<path fill="none" stroke="#000000" d="M314.7176,-261.6769C303.4219,-265.9374 297.2459,-274.2 280.5,-274.2"/>
<polygon fill="#000000" stroke="#000000" points="321.1177,-260.5671 329.6152,-262.7471 325.0588,-259.8835 329,-259.2 329,-259.2 329,-259.2 325.0588,-259.8835 328.3848,-255.6529 321.1177,-260.5671 321.1177,-260.5671"/>
<ellipse fill="none" stroke="#000000" cx="317.9647" cy="-261.1139" rx="3.2" ry="3.2"/>
</g>
<!-- user_session&#45;&gt;federated_user -->
<g id="edge8" class="edge">
<title>user_session:w&#45;&gt;federated_user:e</title>
<path fill="none" stroke="#000000" stroke-dasharray="5,2" d="M161.8595,-264.9737C148.5848,-255.9839 141.5313,-259.0594 124,-274.2"/>
<polygon fill="#000000" stroke="#000000" points="167.2305,-269.2307 171.2638,-277.0213 170.3652,-271.7154 173.5,-274.2 173.5,-274.2 173.5,-274.2 170.3652,-271.7154 175.7362,-271.3787 167.2305,-269.2307 167.2305,-269.2307"/>
<ellipse fill="none" stroke="#000000" cx="164.7227" cy="-267.243" rx="3.2" ry="3.2"/>
</g>
<!-- user_session&#45;&gt;federated_user -->
<g id="edge9" class="edge">
<title>user_session:w&#45;&gt;federated_user:e</title>
<path fill="none" stroke="#000000" stroke-dasharray="5,2" d="M159.209,-270.7558C147.5674,-268.5988 140.3281,-269.7469 124,-274.2"/>
<polygon fill="#000000" stroke="#000000" points="165.7227,-272.3256 172.6565,-277.6998 169.6113,-273.2628 173.5,-274.2 173.5,-274.2 173.5,-274.2 169.6113,-273.2628 174.3435,-270.7002 165.7227,-272.3256 165.7227,-272.3256"/>
<ellipse fill="none" stroke="#000000" cx="162.6118" cy="-271.5758" rx="3.2" ry="3.2"/>
</g>
<!-- user_session&#45;&gt;federated_user -->
<g id="edge10" class="edge">
<title>user_session:w&#45;&gt;federated_user:e</title>
<path fill="none" stroke="#000000" stroke-dasharray="5,2" d="M159.5781,-278.1375C147.7188,-280.7625 140.5,-279.45 124,-274.2"/>
<polygon fill="#000000" stroke="#000000" points="165.802,-276.3773 174.4798,-277.6641 169.651,-275.2886 173.5,-274.2 173.5,-274.2 173.5,-274.2 169.651,-275.2886 172.5202,-270.7359 165.802,-276.3773 165.802,-276.3773"/>
<ellipse fill="none" stroke="#000000" cx="162.7228" cy="-277.2482" rx="3.2" ry="3.2"/>
</g>
<!-- user_session&#45;&gt;federated_user -->
<g id="edge11" class="edge">
<title>user_session:w&#45;&gt;federated_user:e</title>
<path fill="none" stroke="#000000" stroke-dasharray="5,2" d="M162.2518,-283.6299C148.7221,-293.4371 141.7031,-290.2938 124,-274.2"/>
<polygon fill="#000000" stroke="#000000" points="167.3694,-279.3396 175.8128,-276.9588 170.4347,-276.7698 173.5,-274.2 173.5,-274.2 173.5,-274.2 170.4347,-276.7698 171.1872,-271.4412 167.3694,-279.3396 167.3694,-279.3396"/>
<ellipse fill="none" stroke="#000000" cx="164.9171" cy="-281.3955" rx="3.2" ry="3.2"/>
</g>
<!-- client_session_auth_status -->
<g id="node4" class="node">
<title>client_session_auth_status</title>
<g id="a_node4"><a xlink:href="../../tables/client_session_auth_status.html" xlink:title="client_session_auth_status" target="_top">
<polygon fill="#ffffff" stroke="transparent" points="524.5,-417.7 524.5,-478.7 699.5,-478.7 699.5,-417.7 524.5,-417.7"/>
<polygon fill="#f5f5f5" stroke="transparent" points="525,-455.2 525,-478.2 700,-478.2 700,-455.2 525,-455.2"/>
<polygon fill="none" stroke="#000000" points="525,-455.2 525,-478.2 700,-478.2 700,-455.2 525,-455.2"/>
<text text-anchor="start" x="529.978" y="-464.3" font-family="Helvetica,sans-Serif" font-weight="bold" font-size="11.00" fill="#000000">client_session_auth_status</text>
<text text-anchor="start" x="665.5219" y="-463.3" font-family="Helvetica,sans-Serif" font-size="11.00" fill="#000000">[table]</text>
<polygon fill="none" stroke="#000000" points="525,-436.2 525,-455.2 700,-455.2 700,-436.2 525,-436.2"/>
<text text-anchor="start" x="528" y="-442.3" font-family="Helvetica,sans-Serif" font-size="11.00" fill="#000000">...</text>
<polygon fill="#ffffff" stroke="transparent" points="525,-417.2 525,-436.2 598,-436.2 598,-417.2 525,-417.2"/>
<polygon fill="none" stroke="#000000" points="525,-417.2 525,-436.2 598,-436.2 598,-417.2 525,-417.2"/>
<text text-anchor="start" x="528" y="-423.3" font-family="Helvetica,sans-Serif" font-size="11.00" fill="#000000">&lt; 1</text>
<polygon fill="#ffffff" stroke="transparent" points="598,-417.2 598,-436.2 662,-436.2 662,-417.2 598,-417.2"/>
<polygon fill="none" stroke="#000000" points="598,-417.2 598,-436.2 662,-436.2 662,-417.2 598,-417.2"/>
<text text-anchor="start" x="626.6105" y="-423.3" font-family="Helvetica,sans-Serif" font-size="11.00" fill="#000000">0 rows</text>
<polygon fill="#ffffff" stroke="transparent" points="662,-417.2 662,-436.2 700,-436.2 700,-417.2 662,-417.2"/>
<polygon fill="none" stroke="#000000" points="662,-417.2 662,-436.2 700,-436.2 700,-417.2 662,-417.2"/>
<text text-anchor="start" x="690.8862" y="-423.3" font-family="Helvetica,sans-Serif" font-size="11.00" fill="#000000"> &#160;</text>
</a>
</g>
</g>
<!-- client_session_auth_status&#45;&gt;client_session -->
<g id="edge3" class="edge">
<title>client_session_auth_status:w&#45;&gt;client_session:e</title>
<path fill="none" stroke="#000000" d="M510.6754,-442.7717C497.3706,-437.4044 492.8238,-423.6912 482,-407.2 449.6864,-357.9671 499.8901,-281.2 441,-281.2"/>
<polygon fill="#000000" stroke="#000000" points="517.1125,-443.8629 524.3983,-448.7494 521.0563,-444.5314 525,-445.2 525,-445.2 525,-445.2 521.0563,-444.5314 525.6017,-441.6506 517.1125,-443.8629 517.1125,-443.8629"/>
<ellipse fill="none" stroke="#000000" cx="513.9575" cy="-443.328" rx="3.2" ry="3.2"/>
</g>
<!-- client_session_note -->
<g id="node5" class="node">
<title>client_session_note</title>
<g id="a_node5"><a xlink:href="../../tables/client_session_note.html" xlink:title="client_session_note" target="_top">
<polygon fill="#ffffff" stroke="transparent" points="542.5,-335.7 542.5,-396.7 681.5,-396.7 681.5,-335.7 542.5,-335.7"/>
<polygon fill="#f5f5f5" stroke="transparent" points="543,-373.2 543,-396.2 682,-396.2 682,-373.2 543,-373.2"/>
<polygon fill="none" stroke="#000000" points="543,-373.2 543,-396.2 682,-396.2 682,-373.2 543,-373.2"/>
<text text-anchor="start" x="547.7073" y="-382.3" font-family="Helvetica,sans-Serif" font-weight="bold" font-size="11.00" fill="#000000">client_session_note</text>
<text text-anchor="start" x="647.5219" y="-381.3" font-family="Helvetica,sans-Serif" font-size="11.00" fill="#000000">[table]</text>
<polygon fill="none" stroke="#000000" points="543,-354.2 543,-373.2 682,-373.2 682,-354.2 543,-354.2"/>
<text text-anchor="start" x="546" y="-360.3" font-family="Helvetica,sans-Serif" font-size="11.00" fill="#000000">...</text>
<polygon fill="#ffffff" stroke="transparent" points="543,-335.2 543,-354.2 598,-354.2 598,-335.2 543,-335.2"/>
<polygon fill="none" stroke="#000000" points="543,-335.2 543,-354.2 598,-354.2 598,-335.2 543,-335.2"/>
<text text-anchor="start" x="546" y="-341.3" font-family="Helvetica,sans-Serif" font-size="11.00" fill="#000000">&lt; 1</text>
<polygon fill="#ffffff" stroke="transparent" points="598,-335.2 598,-354.2 653,-354.2 653,-335.2 598,-335.2"/>
<polygon fill="none" stroke="#000000" points="598,-335.2 598,-354.2 653,-354.2 653,-335.2 598,-335.2"/>
<text text-anchor="start" x="617.6105" y="-341.3" font-family="Helvetica,sans-Serif" font-size="11.00" fill="#000000">0 rows</text>
<polygon fill="#ffffff" stroke="transparent" points="653,-335.2 653,-354.2 682,-354.2 682,-335.2 653,-335.2"/>
<polygon fill="none" stroke="#000000" points="653,-335.2 653,-354.2 682,-354.2 682,-335.2 653,-335.2"/>
<text text-anchor="start" x="672.8862" y="-341.3" font-family="Helvetica,sans-Serif" font-size="11.00" fill="#000000"> &#160;</text>
</a>
</g>
</g>
<!-- client_session_note&#45;&gt;client_session -->
<g id="edge4" class="edge">
<title>client_session_note:w&#45;&gt;client_session:e</title>
<path fill="none" stroke="#000000" d="M528.4492,-361.6416C508.8853,-356.8984 502.3227,-341.9355 482,-325.2 461.3663,-308.2083 467.7296,-281.2 441,-281.2"/>
<polygon fill="#000000" stroke="#000000" points="535.0455,-362.348 542.6166,-366.7795 539.0227,-362.774 543,-363.2 543,-363.2 543,-363.2 539.0227,-362.774 543.3834,-359.6205 535.0455,-362.348 535.0455,-362.348"/>
<ellipse fill="none" stroke="#000000" cx="531.8637" cy="-362.0073" rx="3.2" ry="3.2"/>
</g>
<!-- client_session_prot_mapper -->
<g id="node6" class="node">
<title>client_session_prot_mapper</title>
<g id="a_node6"><a xlink:href="../../tables/client_session_prot_mapper.html" xlink:title="client_session_prot_mapper" target="_top">
<polygon fill="#ffffff" stroke="transparent" points="522,-253.7 522,-314.7 702,-314.7 702,-253.7 522,-253.7"/>
<polygon fill="#f5f5f5" stroke="transparent" points="522,-291.2 522,-314.2 702,-314.2 702,-291.2 522,-291.2"/>
<polygon fill="none" stroke="#000000" points="522,-291.2 522,-314.2 702,-314.2 702,-291.2 522,-291.2"/>
<text text-anchor="start" x="526.7346" y="-300.3" font-family="Helvetica,sans-Serif" font-weight="bold" font-size="11.00" fill="#000000">client_session_prot_mapper</text>
<text text-anchor="start" x="667.5219" y="-299.3" font-family="Helvetica,sans-Serif" font-size="11.00" fill="#000000">[table]</text>
<polygon fill="none" stroke="#000000" points="522,-272.2 522,-291.2 702,-291.2 702,-272.2 522,-272.2"/>
<text text-anchor="start" x="525" y="-278.3" font-family="Helvetica,sans-Serif" font-size="11.00" fill="#000000">...</text>
<polygon fill="#ffffff" stroke="transparent" points="522,-253.2 522,-272.2 597,-272.2 597,-253.2 522,-253.2"/>
<polygon fill="none" stroke="#000000" points="522,-253.2 522,-272.2 597,-272.2 597,-253.2 522,-253.2"/>
<text text-anchor="start" x="525" y="-259.3" font-family="Helvetica,sans-Serif" font-size="11.00" fill="#000000">&lt; 1</text>
<polygon fill="#ffffff" stroke="transparent" points="597,-253.2 597,-272.2 662,-272.2 662,-253.2 597,-253.2"/>
<polygon fill="none" stroke="#000000" points="597,-253.2 597,-272.2 662,-272.2 662,-253.2 597,-253.2"/>
<text text-anchor="start" x="626.6105" y="-259.3" font-family="Helvetica,sans-Serif" font-size="11.00" fill="#000000">0 rows</text>
<polygon fill="#ffffff" stroke="transparent" points="662,-253.2 662,-272.2 702,-272.2 702,-253.2 662,-253.2"/>
<polygon fill="none" stroke="#000000" points="662,-253.2 662,-272.2 702,-272.2 702,-253.2 662,-253.2"/>
<text text-anchor="start" x="692.8862" y="-259.3" font-family="Helvetica,sans-Serif" font-size="11.00" fill="#000000"> &#160;</text>
</a>
</g>
</g>
<!-- client_session_prot_mapper&#45;&gt;client_session -->
<g id="edge5" class="edge">
<title>client_session_prot_mapper:w&#45;&gt;client_session:e</title>
<path fill="none" stroke="#000000" d="M507.5769,-281.2C482.7332,-281.2 471.6563,-281.2 441,-281.2"/>
<polygon fill="#000000" stroke="#000000" points="514,-281.2001 522,-284.8 518,-281.2 522,-281.2 522,-281.2 522,-281.2 518,-281.2 522,-277.6 514,-281.2001 514,-281.2001"/>
<ellipse fill="none" stroke="#000000" cx="510.8" cy="-281.2001" rx="3.2" ry="3.2"/>
</g>
<!-- client_session_role -->
<g id="node7" class="node">
<title>client_session_role</title>
<g id="a_node7"><a xlink:href="../../tables/client_session_role.html" xlink:title="client_session_role" target="_top">
<polygon fill="#ffffff" stroke="transparent" points="544,-171.7 544,-232.7 680,-232.7 680,-171.7 544,-171.7"/>
<polygon fill="#f5f5f5" stroke="transparent" points="544,-209.2 544,-232.2 680,-232.2 680,-209.2 544,-209.2"/>
<polygon fill="none" stroke="#000000" points="544,-209.2 544,-232.2 680,-232.2 680,-209.2 544,-209.2"/>
<text text-anchor="start" x="548.7418" y="-218.3" font-family="Helvetica,sans-Serif" font-weight="bold" font-size="11.00" fill="#000000">client_session_role</text>
<text text-anchor="start" x="645.5219" y="-217.3" font-family="Helvetica,sans-Serif" font-size="11.00" fill="#000000">[table]</text>
<polygon fill="none" stroke="#000000" points="544,-190.2 544,-209.2 680,-209.2 680,-190.2 544,-190.2"/>
<text text-anchor="start" x="547" y="-196.3" font-family="Helvetica,sans-Serif" font-size="11.00" fill="#000000">...</text>
<polygon fill="#ffffff" stroke="transparent" points="544,-171.2 544,-190.2 597,-190.2 597,-171.2 544,-171.2"/>
<polygon fill="none" stroke="#000000" points="544,-171.2 544,-190.2 597,-190.2 597,-171.2 544,-171.2"/>
<text text-anchor="start" x="547" y="-177.3" font-family="Helvetica,sans-Serif" font-size="11.00" fill="#000000">&lt; 1</text>
<polygon fill="#ffffff" stroke="transparent" points="597,-171.2 597,-190.2 651,-190.2 651,-171.2 597,-171.2"/>
<polygon fill="none" stroke="#000000" points="597,-171.2 597,-190.2 651,-190.2 651,-171.2 597,-171.2"/>
<text text-anchor="start" x="615.6105" y="-177.3" font-family="Helvetica,sans-Serif" font-size="11.00" fill="#000000">0 rows</text>
<polygon fill="#ffffff" stroke="transparent" points="651,-171.2 651,-190.2 680,-190.2 680,-171.2 651,-171.2"/>
<polygon fill="none" stroke="#000000" points="651,-171.2 651,-190.2 680,-190.2 680,-171.2 651,-171.2"/>
<text text-anchor="start" x="670.8862" y="-177.3" font-family="Helvetica,sans-Serif" font-size="11.00" fill="#000000"> &#160;</text>
</a>
</g>
</g>
<!-- client_session_role&#45;&gt;client_session -->
<g id="edge6" class="edge">
<title>client_session_role:w&#45;&gt;client_session:e</title>
<path fill="none" stroke="#000000" d="M529.6899,-200.9261C508.9064,-206.6087 503.922,-225.3884 482,-243.2 462.7173,-258.8672 465.8452,-281.2 441,-281.2"/>
<polygon fill="#000000" stroke="#000000" points="536.0576,-200.1581 544.4311,-202.7741 540.0288,-199.679 544,-199.2 544,-199.2 544,-199.2 540.0288,-199.679 543.5689,-195.6259 536.0576,-200.1581 536.0576,-200.1581"/>
<ellipse fill="none" stroke="#000000" cx="532.8806" cy="-200.5413" rx="3.2" ry="3.2"/>
</g>
<!-- client_user_session_note -->
<g id="node8" class="node">
<title>client_user_session_note</title>
<g id="a_node8"><a xlink:href="../../tables/client_user_session_note.html" xlink:title="client_user_session_note" target="_top">
<polygon fill="#ffffff" stroke="transparent" points="490,-38.2 490,-150.2 734,-150.2 734,-38.2 490,-38.2"/>
<polygon fill="#f5f5f5" stroke="transparent" points="492,-125.2 492,-148.2 732,-148.2 732,-125.2 492,-125.2"/>
<polygon fill="none" stroke="#000000" points="492,-125.2 492,-148.2 732,-148.2 732,-125.2 492,-125.2"/>
<text text-anchor="start" x="497" y="-134.3" font-family="Helvetica,sans-Serif" font-weight="bold" font-size="11.00" fill="#000000">client_user_session_note</text>
<text text-anchor="start" x="697.0437" y="-133.3" font-family="Helvetica,sans-Serif" font-size="11.00" fill="#000000">[table]</text>
<polygon fill="none" stroke="#000000" points="492,-103.2 492,-125.2 659,-125.2 659,-103.2 492,-103.2"/>
<image xlink:href="../../images/primaryKeys.png" width="11px" height="12px" preserveAspectRatio="xMinYMin meet" x="497" y="-120.2"/>
<text text-anchor="start" x="512" y="-110.3" font-family="Helvetica,sans-Serif" font-size="11.00" fill="#000000">name</text>
<polygon fill="none" stroke="#000000" points="659,-103.2 659,-125.2 732,-125.2 732,-103.2 659,-103.2"/>
<text text-anchor="start" x="662" y="-110.9" font-family="Helvetica,sans-Serif" font-size="11.00" fill="#000000">varchar[255]</text>
<polygon fill="none" stroke="#000000" points="492,-81.2 492,-103.2 659,-103.2 659,-81.2 492,-81.2"/>
<text text-anchor="start" x="512" y="-88.3" font-family="Helvetica,sans-Serif" font-size="11.00" fill="#000000">value</text>
<polygon fill="none" stroke="#000000" points="659,-81.2 659,-103.2 732,-103.2 732,-81.2 659,-81.2"/>
<text text-anchor="start" x="661.8791" y="-88.9" font-family="Helvetica,sans-Serif" font-size="11.00" fill="#000000">varchar[2048]</text>
<polygon fill="none" stroke="#000000" points="492,-59.2 492,-81.2 659,-81.2 659,-59.2 492,-59.2"/>
<image xlink:href="../../images/primaryKeys.png" width="11px" height="12px" preserveAspectRatio="xMinYMin meet" x="497" y="-76.2"/>
<text text-anchor="start" x="512" y="-66.3" font-family="Helvetica,sans-Serif" font-size="11.00" fill="#000000">client_session</text>
<polygon fill="none" stroke="#000000" points="659,-59.2 659,-81.2 732,-81.2 732,-59.2 659,-59.2"/>
<text text-anchor="start" x="662" y="-66.9" font-family="Helvetica,sans-Serif" font-size="11.00" fill="#000000">varchar[36]</text>
<polygon fill="#ffffff" stroke="transparent" points="492,-40.2 492,-59.2 567,-59.2 567,-40.2 492,-40.2"/>
<polygon fill="none" stroke="#000000" points="492,-40.2 492,-59.2 567,-59.2 567,-40.2 492,-40.2"/>
<text text-anchor="start" x="495" y="-46.3" font-family="Helvetica,sans-Serif" font-size="11.00" fill="#000000">&lt; 1</text>
<polygon fill="#ffffff" stroke="transparent" points="567,-40.2 567,-59.2 659,-59.2 659,-40.2 567,-40.2"/>
<polygon fill="none" stroke="#000000" points="567,-40.2 567,-59.2 659,-59.2 659,-40.2 567,-40.2"/>
<text text-anchor="start" x="623.6105" y="-46.3" font-family="Helvetica,sans-Serif" font-size="11.00" fill="#000000">0 rows</text>
<polygon fill="#ffffff" stroke="transparent" points="659,-40.2 659,-59.2 732,-59.2 732,-40.2 659,-40.2"/>
<polygon fill="none" stroke="#000000" points="659,-40.2 659,-59.2 732,-59.2 732,-40.2 659,-40.2"/>
<text text-anchor="start" x="713.4053" y="-46.3" font-family="Helvetica,sans-Serif" font-size="11.00" fill="#000000">0 &gt;</text>
<polygon fill="none" stroke="#000000" stroke-width="2" points="491,-39.2 491,-149.2 733,-149.2 733,-39.2 491,-39.2"/>
</a>
</g>
</g>
<!-- client_user_session_note&#45;&gt;client_session -->
<g id="edge7" class="edge">
<title>client_user_session_note:w&#45;&gt;client_session:e</title>
<path fill="none" stroke="#000000" d="M477.4008,-72.2883C411.3387,-94.2022 531.8252,-281.2 441,-281.2"/>
<polygon fill="#000000" stroke="#000000" points="484.0806,-71.3329 492.5098,-73.7637 488.0403,-70.7664 492,-70.2 492,-70.2 492,-70.2 488.0403,-70.7664 491.4902,-66.6363 484.0806,-71.3329 484.0806,-71.3329"/>
<ellipse fill="none" stroke="#000000" cx="480.9129" cy="-71.786" rx="3.2" ry="3.2"/>
</g>
</g>
</svg>
