<?xml version="1.0" encoding="UTF-8" standalone="no"?>
<!DOCTYPE svg PUBLIC "-//W3C//DTD SVG 1.1//EN"
 "http://www.w3.org/Graphics/SVG/1.1/DTD/svg11.dtd">
<!-- Generated by graphviz version 2.40.1 (20161225.0304)
 -->
<!-- Title: oneDegreeRelationshipsDiagram Pages: 1 -->
<svg width="678pt" height="663pt"
 viewBox="0.00 0.00 678.00 663.20" xmlns="http://www.w3.org/2000/svg" xmlns:xlink="http://www.w3.org/1999/xlink">
<g id="graph0" class="graph" transform="scale(1 1) rotate(0) translate(4 659.2)">
<title>oneDegreeRelationshipsDiagram</title>
<polygon fill="#ffffff" stroke="transparent" points="-4,4 -4,-659.2 674,-659.2 674,4 -4,4"/>
<text text-anchor="middle" x="72.4936" y="-7.3" font-family="Helvetica,sans-Serif" font-size="11.00" fill="#000000">Generated by SchemaSpy</text>
<!-- client_scope -->
<g id="node1" class="node">
<title>client_scope</title>
<g id="a_node1"><a xlink:href="../../tables/client_scope.html" xlink:title="client_scope" target="_top">
<polygon fill="#ffffff" stroke="transparent" points="270,-275.7 270,-431.7 434,-431.7 434,-275.7 270,-275.7"/>
<polygon fill="#f5f5f5" stroke="transparent" points="272,-406.7 272,-429.7 432,-429.7 432,-406.7 272,-406.7"/>
<polygon fill="none" stroke="#000000" points="272,-406.7 272,-429.7 432,-429.7 432,-406.7 272,-406.7"/>
<text text-anchor="start" x="277" y="-415.8" font-family="Helvetica,sans-Serif" font-weight="bold" font-size="11.00" fill="#000000">client_scope</text>
<text text-anchor="start" x="397.0437" y="-414.8" font-family="Helvetica,sans-Serif" font-size="11.00" fill="#000000">[table]</text>
<polygon fill="none" stroke="#000000" points="272,-384.7 272,-406.7 365,-406.7 365,-384.7 272,-384.7"/>
<image xlink:href="../../images/primaryKeys.png" width="11px" height="12px" preserveAspectRatio="xMinYMin meet" x="277" y="-401.7"/>
<text text-anchor="start" x="292" y="-391.8" font-family="Helvetica,sans-Serif" font-size="11.00" fill="#000000">id</text>
<polygon fill="none" stroke="#000000" points="365,-384.7 365,-406.7 432,-406.7 432,-384.7 365,-384.7"/>
<text text-anchor="start" x="368" y="-392.4" font-family="Helvetica,sans-Serif" font-size="11.00" fill="#000000">varchar[36]</text>
<polygon fill="#ffffff" stroke="transparent" points="272,-362.7 272,-384.7 365,-384.7 365,-362.7 272,-362.7"/>
<polygon fill="none" stroke="#000000" points="272,-362.7 272,-384.7 365,-384.7 365,-362.7 272,-362.7"/>
<text text-anchor="start" x="292" y="-369.8" font-family="Helvetica,sans-Serif" font-size="11.00" fill="#000000">name</text>
<polygon fill="none" stroke="#000000" points="365,-362.7 365,-384.7 432,-384.7 432,-362.7 365,-362.7"/>
<text text-anchor="start" x="367.9365" y="-370.4" font-family="Helvetica,sans-Serif" font-size="11.00" fill="#000000">varchar[255]</text>
<polygon fill="#ffffff" stroke="transparent" points="272,-340.7 272,-362.7 365,-362.7 365,-340.7 272,-340.7"/>
<polygon fill="none" stroke="#000000" points="272,-340.7 272,-362.7 365,-362.7 365,-340.7 272,-340.7"/>
<image xlink:href="../../images/foreignKeys.png" width="11px" height="12px" preserveAspectRatio="xMinYMin meet" x="277" y="-357.7"/>
<text text-anchor="start" x="292" y="-347.8" font-family="Helvetica,sans-Serif" font-size="11.00" fill="#000000">realm_id</text>
<polygon fill="none" stroke="#000000" points="365,-340.7 365,-362.7 432,-362.7 432,-340.7 365,-340.7"/>
<text text-anchor="start" x="368" y="-348.4" font-family="Helvetica,sans-Serif" font-size="11.00" fill="#000000">varchar[36]</text>
<polygon fill="none" stroke="#000000" points="272,-318.7 272,-340.7 365,-340.7 365,-318.7 272,-318.7"/>
<text text-anchor="start" x="292" y="-325.8" font-family="Helvetica,sans-Serif" font-size="11.00" fill="#000000">description</text>
<polygon fill="none" stroke="#000000" points="365,-318.7 365,-340.7 432,-340.7 432,-318.7 365,-318.7"/>
<text text-anchor="start" x="367.9365" y="-326.4" font-family="Helvetica,sans-Serif" font-size="11.00" fill="#000000">varchar[255]</text>
<polygon fill="none" stroke="#000000" points="272,-296.7 272,-318.7 365,-318.7 365,-296.7 272,-296.7"/>
<text text-anchor="start" x="292" y="-303.8" font-family="Helvetica,sans-Serif" font-size="11.00" fill="#000000">protocol</text>
<polygon fill="none" stroke="#000000" points="365,-296.7 365,-318.7 432,-318.7 432,-296.7 365,-296.7"/>
<text text-anchor="start" x="367.9365" y="-304.4" font-family="Helvetica,sans-Serif" font-size="11.00" fill="#000000">varchar[255]</text>
<polygon fill="#ffffff" stroke="transparent" points="272,-277.7 272,-296.7 310,-296.7 310,-277.7 272,-277.7"/>
<polygon fill="none" stroke="#000000" points="272,-277.7 272,-296.7 310,-296.7 310,-277.7 272,-277.7"/>
<text text-anchor="start" x="275" y="-283.8" font-family="Helvetica,sans-Serif" font-size="11.00" fill="#000000">&lt; 1</text>
<polygon fill="#ffffff" stroke="transparent" points="310,-277.7 310,-296.7 365,-296.7 365,-277.7 310,-277.7"/>
<polygon fill="none" stroke="#000000" points="310,-277.7 310,-296.7 365,-296.7 365,-277.7 310,-277.7"/>
<text text-anchor="start" x="329.6105" y="-283.8" font-family="Helvetica,sans-Serif" font-size="11.00" fill="#000000">9 rows</text>
<polygon fill="#ffffff" stroke="transparent" points="365,-277.7 365,-296.7 432,-296.7 432,-277.7 365,-277.7"/>
<polygon fill="none" stroke="#000000" points="365,-277.7 365,-296.7 432,-296.7 432,-277.7 365,-277.7"/>
<text text-anchor="start" x="413.4053" y="-283.8" font-family="Helvetica,sans-Serif" font-size="11.00" fill="#000000">5 &gt;</text>
<polygon fill="none" stroke="#000000" stroke-width="2" points="271,-276.7 271,-430.7 433,-430.7 433,-276.7 271,-276.7"/>
</a>
</g>
</g>
<!-- realm -->
<g id="node2" class="node">
<title>realm</title>
<g id="a_node2"><a xlink:href="../../tables/realm.html" xlink:title="realm" target="_top">
<polygon fill="#ffffff" stroke="transparent" points="8,-311.2 8,-438.2 221,-438.2 221,-311.2 8,-311.2"/>
<polygon fill="#f5f5f5" stroke="transparent" points="8.5,-414.7 8.5,-437.7 221.5,-437.7 221.5,-414.7 8.5,-414.7"/>
<polygon fill="none" stroke="#000000" points="8.5,-414.7 8.5,-437.7 221.5,-437.7 221.5,-414.7 8.5,-414.7"/>
<text text-anchor="start" x="13.5" y="-423.8" font-family="Helvetica,sans-Serif" font-weight="bold" font-size="11.00" fill="#000000">realm</text>
<text text-anchor="start" x="186.5437" y="-422.8" font-family="Helvetica,sans-Serif" font-size="11.00" fill="#000000">[table]</text>
<polygon fill="none" stroke="#000000" points="8.5,-392.7 8.5,-414.7 221.5,-414.7 221.5,-392.7 8.5,-392.7"/>
<image xlink:href="../../images/primaryKeys.png" width="11px" height="12px" preserveAspectRatio="xMinYMin meet" x="13.5" y="-409.7"/>
<text text-anchor="start" x="28.5" y="-399.8" font-family="Helvetica,sans-Serif" font-size="11.00" fill="#000000">id</text>
<polygon fill="#ffffff" stroke="transparent" points="8.5,-370.7 8.5,-392.7 221.5,-392.7 221.5,-370.7 8.5,-370.7"/>
<polygon fill="none" stroke="#000000" points="8.5,-370.7 8.5,-392.7 221.5,-392.7 221.5,-370.7 8.5,-370.7"/>
<text text-anchor="start" x="28.5" y="-377.8" font-family="Helvetica,sans-Serif" font-size="11.00" fill="#000000">name</text>
<polygon fill="#ffffff" stroke="transparent" points="8.5,-348.7 8.5,-370.7 221.5,-370.7 221.5,-348.7 8.5,-348.7"/>
<polygon fill="none" stroke="#000000" points="8.5,-348.7 8.5,-370.7 221.5,-370.7 221.5,-348.7 8.5,-348.7"/>
<text text-anchor="start" x="28.5" y="-355.8" font-family="Helvetica,sans-Serif" font-size="11.00" fill="#000000">master_admin_client</text>
<polygon fill="none" stroke="#000000" points="8.5,-329.7 8.5,-348.7 221.5,-348.7 221.5,-329.7 8.5,-329.7"/>
<text text-anchor="start" x="11.5" y="-335.8" font-family="Helvetica,sans-Serif" font-size="11.00" fill="#000000">...</text>
<polygon fill="#ffffff" stroke="transparent" points="8.5,-310.7 8.5,-329.7 91.5,-329.7 91.5,-310.7 8.5,-310.7"/>
<polygon fill="none" stroke="#000000" points="8.5,-310.7 8.5,-329.7 91.5,-329.7 91.5,-310.7 8.5,-310.7"/>
<text text-anchor="start" x="11.5" y="-316.8" font-family="Helvetica,sans-Serif" font-size="11.00" fill="#000000"> &#160;</text>
<polygon fill="#ffffff" stroke="transparent" points="91.5,-310.7 91.5,-329.7 158.5,-329.7 158.5,-310.7 91.5,-310.7"/>
<polygon fill="none" stroke="#000000" points="91.5,-310.7 91.5,-329.7 158.5,-329.7 158.5,-310.7 91.5,-310.7"/>
<text text-anchor="start" x="128.6105" y="-316.8" font-family="Helvetica,sans-Serif" font-size="11.00" fill="#000000">1 row</text>
<polygon fill="#ffffff" stroke="transparent" points="158.5,-310.7 158.5,-329.7 221.5,-329.7 221.5,-310.7 158.5,-310.7"/>
<polygon fill="none" stroke="#000000" points="158.5,-310.7 158.5,-329.7 221.5,-329.7 221.5,-310.7 158.5,-310.7"/>
<text text-anchor="start" x="196.7904" y="-316.8" font-family="Helvetica,sans-Serif" font-size="11.00" fill="#000000">23 &gt;</text>
</a>
</g>
</g>
<!-- client_scope&#45;&gt;realm -->
<g id="edge1" class="edge">
<title>client_scope:w&#45;&gt;realm:e</title>
<path fill="none" stroke="#000000" d="M258.1372,-356.4988C243.3861,-369.3719 247.6756,-403.7 221.5,-403.7"/>
<polygon fill="#000000" stroke="#000000" points="264.4401,-354.317 273.1777,-355.1019 268.2201,-353.0085 272,-351.7 272,-351.7 272,-351.7 268.2201,-353.0085 270.8223,-348.2981 264.4401,-354.317 264.4401,-354.317"/>
<ellipse fill="none" stroke="#000000" cx="261.4162" cy="-355.3638" rx="3.2" ry="3.2"/>
</g>
<!-- client_scope_attributes -->
<g id="node3" class="node">
<title>client_scope_attributes</title>
<g id="a_node3"><a xlink:href="../../tables/client_scope_attributes.html" xlink:title="client_scope_attributes" target="_top">
<polygon fill="#ffffff" stroke="transparent" points="495,-420.2 495,-525.2 650,-525.2 650,-420.2 495,-420.2"/>
<polygon fill="#f5f5f5" stroke="transparent" points="495.5,-501.7 495.5,-524.7 650.5,-524.7 650.5,-501.7 495.5,-501.7"/>
<polygon fill="none" stroke="#000000" points="495.5,-501.7 495.5,-524.7 650.5,-524.7 650.5,-501.7 495.5,-501.7"/>
<text text-anchor="start" x="500.262" y="-510.8" font-family="Helvetica,sans-Serif" font-weight="bold" font-size="11.00" fill="#000000">client_scope_attributes</text>
<text text-anchor="start" x="616.0219" y="-509.8" font-family="Helvetica,sans-Serif" font-size="11.00" fill="#000000">[table]</text>
<polygon fill="none" stroke="#000000" points="495.5,-479.7 495.5,-501.7 650.5,-501.7 650.5,-479.7 495.5,-479.7"/>
<image xlink:href="../../images/primaryKeys.png" width="11px" height="12px" preserveAspectRatio="xMinYMin meet" x="500.5" y="-496.7"/>
<text text-anchor="start" x="515.5" y="-486.8" font-family="Helvetica,sans-Serif" font-size="11.00" fill="#000000">scope_id</text>
<polygon fill="none" stroke="#000000" points="495.5,-457.7 495.5,-479.7 650.5,-479.7 650.5,-457.7 495.5,-457.7"/>
<image xlink:href="../../images/primaryKeys.png" width="11px" height="12px" preserveAspectRatio="xMinYMin meet" x="500.5" y="-474.7"/>
<text text-anchor="start" x="515.5" y="-464.8" font-family="Helvetica,sans-Serif" font-size="11.00" fill="#000000">name</text>
<polygon fill="none" stroke="#000000" points="495.5,-438.7 495.5,-457.7 650.5,-457.7 650.5,-438.7 495.5,-438.7"/>
<text text-anchor="start" x="498.5" y="-444.8" font-family="Helvetica,sans-Serif" font-size="11.00" fill="#000000">...</text>
<polygon fill="#ffffff" stroke="transparent" points="495.5,-419.7 495.5,-438.7 555.5,-438.7 555.5,-419.7 495.5,-419.7"/>
<polygon fill="none" stroke="#000000" points="495.5,-419.7 495.5,-438.7 555.5,-438.7 555.5,-419.7 495.5,-419.7"/>
<text text-anchor="start" x="498.5" y="-425.8" font-family="Helvetica,sans-Serif" font-size="11.00" fill="#000000">&lt; 1</text>
<polygon fill="#ffffff" stroke="transparent" points="555.5,-419.7 555.5,-438.7 618.5,-438.7 618.5,-419.7 555.5,-419.7"/>
<polygon fill="none" stroke="#000000" points="555.5,-419.7 555.5,-438.7 618.5,-438.7 618.5,-419.7 555.5,-419.7"/>
<text text-anchor="start" x="576.9956" y="-425.8" font-family="Helvetica,sans-Serif" font-size="11.00" fill="#000000">24 rows</text>
<polygon fill="#ffffff" stroke="transparent" points="618.5,-419.7 618.5,-438.7 650.5,-438.7 650.5,-419.7 618.5,-419.7"/>
<polygon fill="none" stroke="#000000" points="618.5,-419.7 618.5,-438.7 650.5,-438.7 650.5,-419.7 618.5,-419.7"/>
<text text-anchor="start" x="641.3862" y="-425.8" font-family="Helvetica,sans-Serif" font-size="11.00" fill="#000000"> &#160;</text>
</a>
</g>
</g>
<!-- client_scope_attributes&#45;&gt;client_scope -->
<g id="edge2" class="edge">
<title>client_scope_attributes:w&#45;&gt;client_scope:e</title>
<path fill="none" stroke="#000000" d="M481.4032,-487.3189C452.1995,-470.3957 477.0328,-395.7 432,-395.7"/>
<polygon fill="#000000" stroke="#000000" points="487.7206,-488.8341 494.6603,-494.2007 491.6103,-489.767 495.5,-490.7 495.5,-490.7 495.5,-490.7 491.6103,-489.767 496.3397,-487.1993 487.7206,-488.8341 487.7206,-488.8341"/>
<ellipse fill="none" stroke="#000000" cx="484.6089" cy="-488.0877" rx="3.2" ry="3.2"/>
</g>
<!-- client_scope_client -->
<g id="node4" class="node">
<title>client_scope_client</title>
<g id="a_node4"><a xlink:href="../../tables/client_scope_client.html" xlink:title="client_scope_client" target="_top">
<polygon fill="#ffffff" stroke="transparent" points="505,-294.2 505,-399.2 640,-399.2 640,-294.2 505,-294.2"/>
<polygon fill="#f5f5f5" stroke="transparent" points="505.5,-375.7 505.5,-398.7 640.5,-398.7 640.5,-375.7 505.5,-375.7"/>
<polygon fill="none" stroke="#000000" points="505.5,-375.7 505.5,-398.7 640.5,-398.7 640.5,-375.7 505.5,-375.7"/>
<text text-anchor="start" x="510.0443" y="-384.8" font-family="Helvetica,sans-Serif" font-weight="bold" font-size="11.00" fill="#000000">client_scope_client</text>
<text text-anchor="start" x="606.0219" y="-383.8" font-family="Helvetica,sans-Serif" font-size="11.00" fill="#000000">[table]</text>
<polygon fill="none" stroke="#000000" points="505.5,-353.7 505.5,-375.7 640.5,-375.7 640.5,-353.7 505.5,-353.7"/>
<image xlink:href="../../images/primaryKeys.png" width="11px" height="12px" preserveAspectRatio="xMinYMin meet" x="510.5" y="-370.7"/>
<text text-anchor="start" x="527.5" y="-360.8" font-family="Helvetica,sans-Serif" font-size="11.00" fill="#000000">client_id</text>
<polygon fill="none" stroke="#000000" points="505.5,-331.7 505.5,-353.7 640.5,-353.7 640.5,-331.7 505.5,-331.7"/>
<image xlink:href="../../images/primaryKeys.png" width="11px" height="12px" preserveAspectRatio="xMinYMin meet" x="510.5" y="-348.7"/>
<text text-anchor="start" x="527.5" y="-338.8" font-family="Helvetica,sans-Serif" font-size="11.00" fill="#000000">scope_id</text>
<polygon fill="none" stroke="#000000" points="505.5,-312.7 505.5,-331.7 640.5,-331.7 640.5,-312.7 505.5,-312.7"/>
<text text-anchor="start" x="508.5" y="-318.8" font-family="Helvetica,sans-Serif" font-size="11.00" fill="#000000">...</text>
<polygon fill="#ffffff" stroke="transparent" points="505.5,-293.7 505.5,-312.7 555.5,-312.7 555.5,-293.7 505.5,-293.7"/>
<polygon fill="none" stroke="#000000" points="505.5,-293.7 505.5,-312.7 555.5,-312.7 555.5,-293.7 505.5,-293.7"/>
<text text-anchor="start" x="508.5" y="-299.8" font-family="Helvetica,sans-Serif" font-size="11.00" fill="#000000">&lt; 2</text>
<polygon fill="#ffffff" stroke="transparent" points="555.5,-293.7 555.5,-312.7 613.5,-312.7 613.5,-293.7 555.5,-293.7"/>
<polygon fill="none" stroke="#000000" points="555.5,-293.7 555.5,-312.7 613.5,-312.7 613.5,-293.7 555.5,-293.7"/>
<text text-anchor="start" x="571.9956" y="-299.8" font-family="Helvetica,sans-Serif" font-size="11.00" fill="#000000">54 rows</text>
<polygon fill="#ffffff" stroke="transparent" points="613.5,-293.7 613.5,-312.7 640.5,-312.7 640.5,-293.7 613.5,-293.7"/>
<polygon fill="none" stroke="#000000" points="613.5,-293.7 613.5,-312.7 640.5,-312.7 640.5,-293.7 613.5,-293.7"/>
<text text-anchor="start" x="631.3862" y="-299.8" font-family="Helvetica,sans-Serif" font-size="11.00" fill="#000000"> &#160;</text>
</a>
</g>
</g>
<!-- client_scope_client&#45;&gt;client_scope -->
<g id="edge3" class="edge">
<title>client_scope_client:w&#45;&gt;client_scope:e</title>
<path fill="none" stroke="#000000" d="M491.0537,-345.5495C466.2726,-356.5582 466.6103,-395.7 432,-395.7"/>
<polygon fill="#000000" stroke="#000000" points="497.6512,-344.2482 506.1967,-346.2319 501.5756,-343.4741 505.5,-342.7 505.5,-342.7 505.5,-342.7 501.5756,-343.4741 504.8033,-339.1681 497.6512,-344.2482 497.6512,-344.2482"/>
<ellipse fill="none" stroke="#000000" cx="494.5117" cy="-344.8675" rx="3.2" ry="3.2"/>
</g>
<!-- client_scope_role_mapping -->
<g id="node5" class="node">
<title>client_scope_role_mapping</title>
<g id="a_node5"><a xlink:href="../../tables/client_scope_role_mapping.html" xlink:title="client_scope_role_mapping" target="_top">
<polygon fill="#ffffff" stroke="transparent" points="483,-186.7 483,-272.7 662,-272.7 662,-186.7 483,-186.7"/>
<polygon fill="#f5f5f5" stroke="transparent" points="483.5,-249.7 483.5,-272.7 662.5,-272.7 662.5,-249.7 483.5,-249.7"/>
<polygon fill="none" stroke="#000000" points="483.5,-249.7 483.5,-272.7 662.5,-272.7 662.5,-249.7 483.5,-249.7"/>
<text text-anchor="start" x="488.5" y="-258.8" font-family="Helvetica,sans-Serif" font-weight="bold" font-size="11.00" fill="#000000">client_scope_role_mapping</text>
<text text-anchor="start" x="627.5437" y="-257.8" font-family="Helvetica,sans-Serif" font-size="11.00" fill="#000000">[table]</text>
<polygon fill="none" stroke="#000000" points="483.5,-227.7 483.5,-249.7 662.5,-249.7 662.5,-227.7 483.5,-227.7"/>
<image xlink:href="../../images/primaryKeys.png" width="11px" height="12px" preserveAspectRatio="xMinYMin meet" x="488.5" y="-244.7"/>
<text text-anchor="start" x="503.5" y="-234.8" font-family="Helvetica,sans-Serif" font-size="11.00" fill="#000000">scope_id</text>
<polygon fill="none" stroke="#000000" points="483.5,-205.7 483.5,-227.7 662.5,-227.7 662.5,-205.7 483.5,-205.7"/>
<image xlink:href="../../images/primaryKeys.png" width="11px" height="12px" preserveAspectRatio="xMinYMin meet" x="488.5" y="-222.7"/>
<text text-anchor="start" x="503.5" y="-212.8" font-family="Helvetica,sans-Serif" font-size="11.00" fill="#000000">role_id</text>
<polygon fill="#ffffff" stroke="transparent" points="483.5,-186.7 483.5,-205.7 561.5,-205.7 561.5,-186.7 483.5,-186.7"/>
<polygon fill="none" stroke="#000000" points="483.5,-186.7 483.5,-205.7 561.5,-205.7 561.5,-186.7 483.5,-186.7"/>
<text text-anchor="start" x="486.5" y="-192.8" font-family="Helvetica,sans-Serif" font-size="11.00" fill="#000000">&lt; 1</text>
<polygon fill="#ffffff" stroke="transparent" points="561.5,-186.7 561.5,-205.7 621.5,-205.7 621.5,-186.7 561.5,-186.7"/>
<polygon fill="none" stroke="#000000" points="561.5,-186.7 561.5,-205.7 621.5,-205.7 621.5,-186.7 561.5,-186.7"/>
<text text-anchor="start" x="591.6105" y="-192.8" font-family="Helvetica,sans-Serif" font-size="11.00" fill="#000000">1 row</text>
<polygon fill="#ffffff" stroke="transparent" points="621.5,-186.7 621.5,-205.7 662.5,-205.7 662.5,-186.7 621.5,-186.7"/>
<polygon fill="none" stroke="#000000" points="621.5,-186.7 621.5,-205.7 662.5,-205.7 662.5,-186.7 621.5,-186.7"/>
<text text-anchor="start" x="653.3862" y="-192.8" font-family="Helvetica,sans-Serif" font-size="11.00" fill="#000000"> &#160;</text>
</a>
</g>
</g>
<!-- client_scope_role_mapping&#45;&gt;client_scope -->
<g id="edge4" class="edge">
<title>client_scope_role_mapping:w&#45;&gt;client_scope:e</title>
<path fill="none" stroke="#000000" d="M469.2184,-241.425C423.9356,-262.273 499.6988,-395.7 432,-395.7"/>
<polygon fill="#000000" stroke="#000000" points="475.6418,-240.1995 484.1748,-242.2362 479.5709,-239.4497 483.5,-238.7 483.5,-238.7 483.5,-238.7 479.5709,-239.4497 482.8252,-235.1638 475.6418,-240.1995 475.6418,-240.1995"/>
<ellipse fill="none" stroke="#000000" cx="472.4985" cy="-240.7992" rx="3.2" ry="3.2"/>
</g>
<!-- default_client_scope -->
<g id="node6" class="node">
<title>default_client_scope</title>
<g id="a_node6"><a xlink:href="../../tables/default_client_scope.html" xlink:title="default_client_scope" target="_top">
<polygon fill="#ffffff" stroke="transparent" points="501,-546.2 501,-651.2 644,-651.2 644,-546.2 501,-546.2"/>
<polygon fill="#f5f5f5" stroke="transparent" points="501.5,-627.7 501.5,-650.7 644.5,-650.7 644.5,-627.7 501.5,-627.7"/>
<polygon fill="none" stroke="#000000" points="501.5,-627.7 501.5,-650.7 644.5,-650.7 644.5,-627.7 501.5,-627.7"/>
<text text-anchor="start" x="506.3714" y="-636.8" font-family="Helvetica,sans-Serif" font-weight="bold" font-size="11.00" fill="#000000">default_client_scope</text>
<text text-anchor="start" x="610.0219" y="-635.8" font-family="Helvetica,sans-Serif" font-size="11.00" fill="#000000">[table]</text>
<polygon fill="none" stroke="#000000" points="501.5,-605.7 501.5,-627.7 644.5,-627.7 644.5,-605.7 501.5,-605.7"/>
<image xlink:href="../../images/primaryKeys.png" width="11px" height="12px" preserveAspectRatio="xMinYMin meet" x="506.5" y="-622.7"/>
<text text-anchor="start" x="523.5" y="-612.8" font-family="Helvetica,sans-Serif" font-size="11.00" fill="#000000">realm_id</text>
<polygon fill="none" stroke="#000000" points="501.5,-583.7 501.5,-605.7 644.5,-605.7 644.5,-583.7 501.5,-583.7"/>
<image xlink:href="../../images/primaryKeys.png" width="11px" height="12px" preserveAspectRatio="xMinYMin meet" x="506.5" y="-600.7"/>
<text text-anchor="start" x="523.5" y="-590.8" font-family="Helvetica,sans-Serif" font-size="11.00" fill="#000000">scope_id</text>
<polygon fill="none" stroke="#000000" points="501.5,-564.7 501.5,-583.7 644.5,-583.7 644.5,-564.7 501.5,-564.7"/>
<text text-anchor="start" x="504.5" y="-570.8" font-family="Helvetica,sans-Serif" font-size="11.00" fill="#000000">...</text>
<polygon fill="#ffffff" stroke="transparent" points="501.5,-545.7 501.5,-564.7 558.5,-564.7 558.5,-545.7 501.5,-545.7"/>
<polygon fill="none" stroke="#000000" points="501.5,-545.7 501.5,-564.7 558.5,-564.7 558.5,-545.7 501.5,-545.7"/>
<text text-anchor="start" x="504.5" y="-551.8" font-family="Helvetica,sans-Serif" font-size="11.00" fill="#000000">&lt; 2</text>
<polygon fill="#ffffff" stroke="transparent" points="558.5,-545.7 558.5,-564.7 614.5,-564.7 614.5,-545.7 558.5,-545.7"/>
<polygon fill="none" stroke="#000000" points="558.5,-545.7 558.5,-564.7 614.5,-564.7 614.5,-545.7 558.5,-545.7"/>
<text text-anchor="start" x="579.1105" y="-551.8" font-family="Helvetica,sans-Serif" font-size="11.00" fill="#000000">9 rows</text>
<polygon fill="#ffffff" stroke="transparent" points="614.5,-545.7 614.5,-564.7 644.5,-564.7 644.5,-545.7 614.5,-545.7"/>
<polygon fill="none" stroke="#000000" points="614.5,-545.7 614.5,-564.7 644.5,-564.7 644.5,-545.7 614.5,-545.7"/>
<text text-anchor="start" x="635.3862" y="-551.8" font-family="Helvetica,sans-Serif" font-size="11.00" fill="#000000"> &#160;</text>
</a>
</g>
</g>
<!-- default_client_scope&#45;&gt;client_scope -->
<g id="edge6" class="edge">
<title>default_client_scope:w&#45;&gt;client_scope:e</title>
<path fill="none" stroke="#000000" d="M487.126,-592.7304C420.903,-572.0629 520.194,-395.7 432,-395.7"/>
<polygon fill="#000000" stroke="#000000" points="493.5741,-593.6139 501.0113,-598.2667 497.537,-594.157 501.5,-594.7 501.5,-594.7 501.5,-594.7 497.537,-594.157 501.9887,-591.1333 493.5741,-593.6139 493.5741,-593.6139"/>
<ellipse fill="none" stroke="#000000" cx="490.4037" cy="-593.1795" rx="3.2" ry="3.2"/>
</g>
<!-- default_client_scope&#45;&gt;realm -->
<g id="edge5" class="edge">
<title>default_client_scope:w&#45;&gt;realm:e</title>
<path fill="none" stroke="#000000" d="M486.9967,-616.3158C369.254,-609.8899 359.0086,-523.9816 262,-442.7 242.8459,-426.6512 246.4889,-403.7 221.5,-403.7"/>
<polygon fill="#000000" stroke="#000000" points="493.5028,-616.4881 501.4046,-620.2987 497.5014,-616.594 501.5,-616.7 501.5,-616.7 501.5,-616.7 497.5014,-616.594 501.5954,-613.1013 493.5028,-616.4881 493.5028,-616.4881"/>
<ellipse fill="none" stroke="#000000" cx="490.3039" cy="-616.4033" rx="3.2" ry="3.2"/>
</g>
<!-- protocol_mapper -->
<g id="node7" class="node">
<title>protocol_mapper</title>
<g id="a_node7"><a xlink:href="../../tables/protocol_mapper.html" xlink:title="protocol_mapper" target="_top">
<polygon fill="#ffffff" stroke="transparent" points="494,-38.2 494,-165.2 651,-165.2 651,-38.2 494,-38.2"/>
<polygon fill="#f5f5f5" stroke="transparent" points="494.5,-141.7 494.5,-164.7 651.5,-164.7 651.5,-141.7 494.5,-141.7"/>
<polygon fill="none" stroke="#000000" points="494.5,-141.7 494.5,-164.7 651.5,-164.7 651.5,-141.7 494.5,-141.7"/>
<text text-anchor="start" x="499.5" y="-150.8" font-family="Helvetica,sans-Serif" font-weight="bold" font-size="11.00" fill="#000000">protocol_mapper</text>
<text text-anchor="start" x="616.5437" y="-149.8" font-family="Helvetica,sans-Serif" font-size="11.00" fill="#000000">[table]</text>
<polygon fill="none" stroke="#000000" points="494.5,-119.7 494.5,-141.7 651.5,-141.7 651.5,-119.7 494.5,-119.7"/>
<image xlink:href="../../images/primaryKeys.png" width="11px" height="12px" preserveAspectRatio="xMinYMin meet" x="499.5" y="-136.7"/>
<text text-anchor="start" x="514.5" y="-126.8" font-family="Helvetica,sans-Serif" font-size="11.00" fill="#000000">id</text>
<polygon fill="#ffffff" stroke="transparent" points="494.5,-97.7 494.5,-119.7 651.5,-119.7 651.5,-97.7 494.5,-97.7"/>
<polygon fill="none" stroke="#000000" points="494.5,-97.7 494.5,-119.7 651.5,-119.7 651.5,-97.7 494.5,-97.7"/>
<image xlink:href="../../images/foreignKeys.png" width="11px" height="12px" preserveAspectRatio="xMinYMin meet" x="499.5" y="-114.7"/>
<text text-anchor="start" x="514.5" y="-104.8" font-family="Helvetica,sans-Serif" font-size="11.00" fill="#000000">client_id</text>
<polygon fill="#ffffff" stroke="transparent" points="494.5,-75.7 494.5,-97.7 651.5,-97.7 651.5,-75.7 494.5,-75.7"/>
<polygon fill="none" stroke="#000000" points="494.5,-75.7 494.5,-97.7 651.5,-97.7 651.5,-75.7 494.5,-75.7"/>
<image xlink:href="../../images/foreignKeys.png" width="11px" height="12px" preserveAspectRatio="xMinYMin meet" x="499.5" y="-92.7"/>
<text text-anchor="start" x="514.5" y="-82.8" font-family="Helvetica,sans-Serif" font-size="11.00" fill="#000000">client_scope_id</text>
<polygon fill="none" stroke="#000000" points="494.5,-56.7 494.5,-75.7 651.5,-75.7 651.5,-56.7 494.5,-56.7"/>
<text text-anchor="start" x="497.5" y="-62.8" font-family="Helvetica,sans-Serif" font-size="11.00" fill="#000000">...</text>
<polygon fill="#ffffff" stroke="transparent" points="494.5,-37.7 494.5,-56.7 550.5,-56.7 550.5,-37.7 494.5,-37.7"/>
<polygon fill="none" stroke="#000000" points="494.5,-37.7 494.5,-56.7 550.5,-56.7 550.5,-37.7 494.5,-37.7"/>
<text text-anchor="start" x="497.5" y="-43.8" font-family="Helvetica,sans-Serif" font-size="11.00" fill="#000000">&lt; 2</text>
<polygon fill="#ffffff" stroke="transparent" points="550.5,-37.7 550.5,-56.7 612.5,-56.7 612.5,-37.7 550.5,-37.7"/>
<polygon fill="none" stroke="#000000" points="550.5,-37.7 550.5,-56.7 612.5,-56.7 612.5,-37.7 550.5,-37.7"/>
<text text-anchor="start" x="570.9956" y="-43.8" font-family="Helvetica,sans-Serif" font-size="11.00" fill="#000000">28 rows</text>
<polygon fill="#ffffff" stroke="transparent" points="612.5,-37.7 612.5,-56.7 651.5,-56.7 651.5,-37.7 612.5,-37.7"/>
<polygon fill="none" stroke="#000000" points="612.5,-37.7 612.5,-56.7 651.5,-56.7 651.5,-37.7 612.5,-37.7"/>
<text text-anchor="start" x="632.9053" y="-43.8" font-family="Helvetica,sans-Serif" font-size="11.00" fill="#000000">1 &gt;</text>
</a>
</g>
</g>
<!-- protocol_mapper&#45;&gt;client_scope -->
<g id="edge7" class="edge">
<title>protocol_mapper:w&#45;&gt;client_scope:e</title>
<path fill="none" stroke="#000000" d="M480.9307,-91.8055C435.41,-131.9814 496.7208,-395.7 432,-395.7"/>
<polygon fill="#000000" stroke="#000000" points="487.0125,-89.5172 495.7678,-90.0694 490.7562,-88.1086 494.5,-86.7 494.5,-86.7 494.5,-86.7 490.7562,-88.1086 493.2322,-83.3306 487.0125,-89.5172 487.0125,-89.5172"/>
<ellipse fill="none" stroke="#000000" cx="484.0174" cy="-90.6441" rx="3.2" ry="3.2"/>
</g>
</g>
</svg>
