<?xml version="1.0" encoding="UTF-8" standalone="no"?>
<!DOCTYPE svg PUBLIC "-//W3C//DTD SVG 1.1//EN"
 "http://www.w3.org/Graphics/SVG/1.1/DTD/svg11.dtd">
<!-- Generated by graphviz version 2.40.1 (20161225.0304)
 -->
<!-- Title: twoDegreesRelationshipsDiagramImplied Pages: 1 -->
<svg width="671pt" height="737pt"
 viewBox="0.00 0.00 671.00 737.20" xmlns="http://www.w3.org/2000/svg" xmlns:xlink="http://www.w3.org/1999/xlink">
<g id="graph0" class="graph" transform="scale(1 1) rotate(0) translate(4 733.2)">
<title>twoDegreesRelationshipsDiagramImplied</title>
<polygon fill="#ffffff" stroke="transparent" points="-4,4 -4,-733.2 667,-733.2 667,4 -4,4"/>
<text text-anchor="middle" x="72.4936" y="-7.3" font-family="Helvetica,sans-Serif" font-size="11.00" fill="#000000">Generated by SchemaSpy</text>
<!-- client -->
<g id="node1" class="node">
<title>client</title>
<g id="a_node1"><a xlink:href="../../tables/client.html" xlink:title="client" target="_top">
<polygon fill="#ffffff" stroke="transparent" points="173,-260.2 173,-387.2 368,-387.2 368,-260.2 173,-260.2"/>
<polygon fill="#f5f5f5" stroke="transparent" points="173.5,-363.7 173.5,-386.7 368.5,-386.7 368.5,-363.7 173.5,-363.7"/>
<polygon fill="none" stroke="#000000" points="173.5,-363.7 173.5,-386.7 368.5,-386.7 368.5,-363.7 173.5,-363.7"/>
<text text-anchor="start" x="178.5" y="-372.8" font-family="Helvetica,sans-Serif" font-weight="bold" font-size="11.00" fill="#000000">client</text>
<text text-anchor="start" x="333.5437" y="-371.8" font-family="Helvetica,sans-Serif" font-size="11.00" fill="#000000">[table]</text>
<polygon fill="none" stroke="#000000" points="173.5,-341.7 173.5,-363.7 368.5,-363.7 368.5,-341.7 173.5,-341.7"/>
<image xlink:href="../../images/primaryKeys.png" width="11px" height="12px" preserveAspectRatio="xMinYMin meet" x="178.5" y="-358.7"/>
<text text-anchor="start" x="193.5" y="-348.8" font-family="Helvetica,sans-Serif" font-size="11.00" fill="#000000">id</text>
<polygon fill="#ffffff" stroke="transparent" points="173.5,-319.7 173.5,-341.7 368.5,-341.7 368.5,-319.7 173.5,-319.7"/>
<polygon fill="none" stroke="#000000" points="173.5,-319.7 173.5,-341.7 368.5,-341.7 368.5,-319.7 173.5,-319.7"/>
<image xlink:href="../../images/foreignKeys.png" width="11px" height="12px" preserveAspectRatio="xMinYMin meet" x="178.5" y="-336.7"/>
<text text-anchor="start" x="193.5" y="-326.8" font-family="Helvetica,sans-Serif" font-size="11.00" fill="#000000">client_id</text>
<polygon fill="#ffffff" stroke="transparent" points="173.5,-297.7 173.5,-319.7 368.5,-319.7 368.5,-297.7 173.5,-297.7"/>
<polygon fill="none" stroke="#000000" points="173.5,-297.7 173.5,-319.7 368.5,-319.7 368.5,-297.7 173.5,-297.7"/>
<image xlink:href="../../images/foreignKeys.png" width="11px" height="12px" preserveAspectRatio="xMinYMin meet" x="178.5" y="-314.7"/>
<text text-anchor="start" x="193.5" y="-304.8" font-family="Helvetica,sans-Serif" font-size="11.00" fill="#000000">realm_id</text>
<polygon fill="none" stroke="#000000" points="173.5,-278.7 173.5,-297.7 368.5,-297.7 368.5,-278.7 173.5,-278.7"/>
<text text-anchor="start" x="176.5" y="-284.8" font-family="Helvetica,sans-Serif" font-size="11.00" fill="#000000">...</text>
<polygon fill="#ffffff" stroke="transparent" points="173.5,-259.7 173.5,-278.7 251.5,-278.7 251.5,-259.7 173.5,-259.7"/>
<polygon fill="none" stroke="#000000" points="173.5,-259.7 173.5,-278.7 251.5,-278.7 251.5,-259.7 173.5,-259.7"/>
<text text-anchor="start" x="176.5" y="-265.8" font-family="Helvetica,sans-Serif" font-size="11.00" fill="#000000">&lt; 2</text>
<polygon fill="#ffffff" stroke="transparent" points="251.5,-259.7 251.5,-278.7 318.5,-278.7 318.5,-259.7 251.5,-259.7"/>
<polygon fill="none" stroke="#000000" points="251.5,-259.7 251.5,-278.7 318.5,-278.7 318.5,-259.7 251.5,-259.7"/>
<text text-anchor="start" x="283.1105" y="-265.8" font-family="Helvetica,sans-Serif" font-size="11.00" fill="#000000">6 rows</text>
<polygon fill="#ffffff" stroke="transparent" points="318.5,-259.7 318.5,-278.7 368.5,-278.7 368.5,-259.7 318.5,-259.7"/>
<polygon fill="none" stroke="#000000" points="318.5,-259.7 318.5,-278.7 368.5,-278.7 368.5,-259.7 318.5,-259.7"/>
<text text-anchor="start" x="349.9053" y="-265.8" font-family="Helvetica,sans-Serif" font-size="11.00" fill="#000000">8 &gt;</text>
</a>
</g>
</g>
<!-- federated_user -->
<g id="node2" class="node">
<title>federated_user</title>
<g id="a_node2"><a xlink:href="../../tables/federated_user.html" xlink:title="federated_user" target="_top">
<polygon fill="#ffffff" stroke="transparent" points="8,-333.2 8,-394.2 124,-394.2 124,-333.2 8,-333.2"/>
<polygon fill="#f5f5f5" stroke="transparent" points="8,-370.7 8,-393.7 124,-393.7 124,-370.7 8,-370.7"/>
<polygon fill="none" stroke="#000000" points="8,-370.7 8,-393.7 124,-393.7 124,-370.7 8,-370.7"/>
<text text-anchor="start" x="12.5142" y="-379.8" font-family="Helvetica,sans-Serif" font-weight="bold" font-size="11.00" fill="#000000">federated_user</text>
<text text-anchor="start" x="89.5219" y="-378.8" font-family="Helvetica,sans-Serif" font-size="11.00" fill="#000000">[table]</text>
<polygon fill="none" stroke="#000000" points="8,-351.7 8,-370.7 124,-370.7 124,-351.7 8,-351.7"/>
<text text-anchor="start" x="11" y="-357.8" font-family="Helvetica,sans-Serif" font-size="11.00" fill="#000000">...</text>
<polygon fill="#ffffff" stroke="transparent" points="8,-332.7 8,-351.7 39,-351.7 39,-332.7 8,-332.7"/>
<polygon fill="none" stroke="#000000" points="8,-332.7 8,-351.7 39,-351.7 39,-332.7 8,-332.7"/>
<text text-anchor="start" x="11" y="-338.8" font-family="Helvetica,sans-Serif" font-size="11.00" fill="#000000"> &#160;</text>
<polygon fill="#ffffff" stroke="transparent" points="39,-332.7 39,-351.7 87,-351.7 87,-332.7 39,-332.7"/>
<polygon fill="none" stroke="#000000" points="39,-332.7 39,-351.7 87,-351.7 87,-332.7 39,-332.7"/>
<text text-anchor="start" x="51.6105" y="-338.8" font-family="Helvetica,sans-Serif" font-size="11.00" fill="#000000">0 rows</text>
<polygon fill="#ffffff" stroke="transparent" points="87,-332.7 87,-351.7 124,-351.7 124,-332.7 87,-332.7"/>
<polygon fill="none" stroke="#000000" points="87,-332.7 87,-351.7 124,-351.7 124,-332.7 87,-332.7"/>
<text text-anchor="start" x="99.2904" y="-338.8" font-family="Helvetica,sans-Serif" font-size="11.00" fill="#000000">30 &gt;</text>
</a>
</g>
</g>
<!-- client&#45;&gt;federated_user -->
<g id="edge1" class="edge">
<title>client:w&#45;&gt;federated_user:e</title>
<path fill="none" stroke="#000000" stroke-dasharray="5,2" d="M159.633,-334.622C147.238,-342.7538 143.8967,-360.7 124,-360.7"/>
<polygon fill="#000000" stroke="#000000" points="165.802,-332.8773 174.4798,-334.1641 169.651,-331.7886 173.5,-330.7 173.5,-330.7 173.5,-330.7 169.651,-331.7886 172.5202,-327.2359 165.802,-332.8773 165.802,-332.8773"/>
<ellipse fill="none" stroke="#000000" cx="162.7228" cy="-333.7482" rx="3.2" ry="3.2"/>
</g>
<!-- realm -->
<g id="node3" class="node">
<title>realm</title>
<g id="a_node3"><a xlink:href="../../tables/realm.html" xlink:title="realm" target="_top">
<polygon fill="#ffffff" stroke="transparent" points="30.5,-251.2 30.5,-312.2 101.5,-312.2 101.5,-251.2 30.5,-251.2"/>
<polygon fill="#f5f5f5" stroke="transparent" points="31,-288.7 31,-311.7 102,-311.7 102,-288.7 31,-288.7"/>
<polygon fill="none" stroke="#000000" points="31,-288.7 31,-311.7 102,-311.7 102,-288.7 31,-288.7"/>
<text text-anchor="start" x="36" y="-297.8" font-family="Helvetica,sans-Serif" font-weight="bold" font-size="11.00" fill="#000000">realm</text>
<text text-anchor="start" x="67.5219" y="-296.8" font-family="Helvetica,sans-Serif" font-size="11.00" fill="#000000">[table]</text>
<polygon fill="none" stroke="#000000" points="31,-269.7 31,-288.7 102,-288.7 102,-269.7 31,-269.7"/>
<text text-anchor="start" x="34" y="-275.8" font-family="Helvetica,sans-Serif" font-size="11.00" fill="#000000">...</text>
<polygon fill="#ffffff" stroke="transparent" points="31,-250.7 31,-269.7 43,-269.7 43,-250.7 31,-250.7"/>
<polygon fill="none" stroke="#000000" points="31,-250.7 31,-269.7 43,-269.7 43,-250.7 31,-250.7"/>
<text text-anchor="start" x="33.9431" y="-256.8" font-family="Helvetica,sans-Serif" font-size="11.00" fill="#000000"> &#160;</text>
<polygon fill="#ffffff" stroke="transparent" points="43,-250.7 43,-269.7 75,-269.7 75,-250.7 43,-250.7"/>
<polygon fill="none" stroke="#000000" points="43,-250.7 43,-269.7 75,-269.7 75,-250.7 43,-250.7"/>
<text text-anchor="start" x="45.5553" y="-256.8" font-family="Helvetica,sans-Serif" font-size="11.00" fill="#000000">1 row</text>
<polygon fill="#ffffff" stroke="transparent" points="75,-250.7 75,-269.7 102,-269.7 102,-250.7 75,-250.7"/>
<polygon fill="none" stroke="#000000" points="75,-250.7 75,-269.7 102,-269.7 102,-250.7 75,-250.7"/>
<text text-anchor="start" x="77.6452" y="-256.8" font-family="Helvetica,sans-Serif" font-size="11.00" fill="#000000">23 &gt;</text>
</a>
</g>
</g>
<!-- client&#45;&gt;realm -->
<g id="edge2" class="edge">
<title>client:w&#45;&gt;realm:e</title>
<path fill="none" stroke="#000000" d="M159.1338,-306.638C137.3952,-299.8601 130.9424,-278.7 102,-278.7"/>
<polygon fill="#000000" stroke="#000000" points="165.5812,-307.5633 172.9885,-312.2635 169.5406,-308.1317 173.5,-308.7 173.5,-308.7 173.5,-308.7 169.5406,-308.1317 174.0115,-305.1365 165.5812,-307.5633 165.5812,-307.5633"/>
<ellipse fill="none" stroke="#000000" cx="162.4136" cy="-307.1087" rx="3.2" ry="3.2"/>
</g>
<!-- client_attributes -->
<g id="node4" class="node">
<title>client_attributes</title>
<g id="a_node4"><a xlink:href="../../tables/client_attributes.html" xlink:title="client_attributes" target="_top">
<polygon fill="#ffffff" stroke="transparent" points="476,-664.2 476,-725.2 596,-725.2 596,-664.2 476,-664.2"/>
<polygon fill="#f5f5f5" stroke="transparent" points="476,-701.7 476,-724.7 596,-724.7 596,-701.7 476,-701.7"/>
<polygon fill="none" stroke="#000000" points="476,-701.7 476,-724.7 596,-724.7 596,-701.7 476,-701.7"/>
<text text-anchor="start" x="480.9918" y="-710.8" font-family="Helvetica,sans-Serif" font-weight="bold" font-size="11.00" fill="#000000">client_attributes</text>
<text text-anchor="start" x="561.5219" y="-709.8" font-family="Helvetica,sans-Serif" font-size="11.00" fill="#000000">[table]</text>
<polygon fill="none" stroke="#000000" points="476,-682.7 476,-701.7 596,-701.7 596,-682.7 476,-682.7"/>
<text text-anchor="start" x="479" y="-688.8" font-family="Helvetica,sans-Serif" font-size="11.00" fill="#000000">...</text>
<polygon fill="#ffffff" stroke="transparent" points="476,-663.7 476,-682.7 521,-682.7 521,-663.7 476,-663.7"/>
<polygon fill="none" stroke="#000000" points="476,-663.7 476,-682.7 521,-682.7 521,-663.7 476,-663.7"/>
<text text-anchor="start" x="479" y="-669.8" font-family="Helvetica,sans-Serif" font-size="11.00" fill="#000000">&lt; 1</text>
<polygon fill="#ffffff" stroke="transparent" points="521,-663.7 521,-682.7 571,-682.7 571,-663.7 521,-663.7"/>
<polygon fill="none" stroke="#000000" points="521,-663.7 521,-682.7 571,-682.7 571,-663.7 521,-663.7"/>
<text text-anchor="start" x="535.6105" y="-669.8" font-family="Helvetica,sans-Serif" font-size="11.00" fill="#000000">2 rows</text>
<polygon fill="#ffffff" stroke="transparent" points="571,-663.7 571,-682.7 596,-682.7 596,-663.7 571,-663.7"/>
<polygon fill="none" stroke="#000000" points="571,-663.7 571,-682.7 596,-682.7 596,-663.7 571,-663.7"/>
<text text-anchor="start" x="586.8862" y="-669.8" font-family="Helvetica,sans-Serif" font-size="11.00" fill="#000000"> &#160;</text>
</a>
</g>
</g>
<!-- client_attributes&#45;&gt;client -->
<g id="edge3" class="edge">
<title>client_attributes:w&#45;&gt;client:e</title>
<path fill="none" stroke="#000000" d="M461.3644,-690.9595C437.381,-688.2315 425.1736,-677.632 409,-653.7 371.2089,-597.7808 435.9917,-352.7 368.5,-352.7"/>
<polygon fill="#000000" stroke="#000000" points="468.0102,-691.2957 475.8181,-695.2954 472.0051,-691.4979 476,-691.7 476,-691.7 476,-691.7 472.0051,-691.4979 476.1819,-688.1046 468.0102,-691.2957 468.0102,-691.2957"/>
<ellipse fill="none" stroke="#000000" cx="464.8143" cy="-691.134" rx="3.2" ry="3.2"/>
</g>
<!-- client_default_roles -->
<g id="node5" class="node">
<title>client_default_roles</title>
<g id="a_node5"><a xlink:href="../../tables/client_default_roles.html" xlink:title="client_default_roles" target="_top">
<polygon fill="#ffffff" stroke="transparent" points="467.5,-582.2 467.5,-643.2 604.5,-643.2 604.5,-582.2 467.5,-582.2"/>
<polygon fill="#f5f5f5" stroke="transparent" points="468,-619.7 468,-642.7 605,-642.7 605,-619.7 468,-619.7"/>
<polygon fill="none" stroke="#000000" points="468,-619.7 468,-642.7 605,-642.7 605,-619.7 468,-619.7"/>
<text text-anchor="start" x="472.6274" y="-628.8" font-family="Helvetica,sans-Serif" font-weight="bold" font-size="11.00" fill="#000000">client_default_roles</text>
<text text-anchor="start" x="570.5219" y="-627.8" font-family="Helvetica,sans-Serif" font-size="11.00" fill="#000000">[table]</text>
<polygon fill="none" stroke="#000000" points="468,-600.7 468,-619.7 605,-619.7 605,-600.7 468,-600.7"/>
<text text-anchor="start" x="471" y="-606.8" font-family="Helvetica,sans-Serif" font-size="11.00" fill="#000000">...</text>
<polygon fill="#ffffff" stroke="transparent" points="468,-581.7 468,-600.7 522,-600.7 522,-581.7 468,-581.7"/>
<polygon fill="none" stroke="#000000" points="468,-581.7 468,-600.7 522,-600.7 522,-581.7 468,-581.7"/>
<text text-anchor="start" x="471" y="-587.8" font-family="Helvetica,sans-Serif" font-size="11.00" fill="#000000">&lt; 1</text>
<polygon fill="#ffffff" stroke="transparent" points="522,-581.7 522,-600.7 576,-600.7 576,-581.7 522,-581.7"/>
<polygon fill="none" stroke="#000000" points="522,-581.7 522,-600.7 576,-600.7 576,-581.7 522,-581.7"/>
<text text-anchor="start" x="540.6105" y="-587.8" font-family="Helvetica,sans-Serif" font-size="11.00" fill="#000000">2 rows</text>
<polygon fill="#ffffff" stroke="transparent" points="576,-581.7 576,-600.7 605,-600.7 605,-581.7 576,-581.7"/>
<polygon fill="none" stroke="#000000" points="576,-581.7 576,-600.7 605,-600.7 605,-581.7 576,-581.7"/>
<text text-anchor="start" x="595.8862" y="-587.8" font-family="Helvetica,sans-Serif" font-size="11.00" fill="#000000"> &#160;</text>
</a>
</g>
</g>
<!-- client_default_roles&#45;&gt;client -->
<g id="edge4" class="edge">
<title>client_default_roles:w&#45;&gt;client:e</title>
<path fill="none" stroke="#000000" d="M453.6161,-608.6194C433.0169,-605.1343 423.3863,-593.1523 409,-571.7 381.4345,-530.5954 417.9919,-352.7 368.5,-352.7"/>
<polygon fill="#000000" stroke="#000000" points="460.0225,-609.1006 467.7303,-613.2899 464.0112,-609.4003 468,-609.7 468,-609.7 468,-609.7 464.0112,-609.4003 468.2697,-606.1101 460.0225,-609.1006 460.0225,-609.1006"/>
<ellipse fill="none" stroke="#000000" cx="456.8315" cy="-608.8609" rx="3.2" ry="3.2"/>
</g>
<!-- client_node_registrations -->
<g id="node6" class="node">
<title>client_node_registrations</title>
<g id="a_node6"><a xlink:href="../../tables/client_node_registrations.html" xlink:title="client_node_registrations" target="_top">
<polygon fill="#ffffff" stroke="transparent" points="417,-448.7 417,-560.7 655,-560.7 655,-448.7 417,-448.7"/>
<polygon fill="#f5f5f5" stroke="transparent" points="419,-535.7 419,-558.7 653,-558.7 653,-535.7 419,-535.7"/>
<polygon fill="none" stroke="#000000" points="419,-535.7 419,-558.7 653,-558.7 653,-535.7 419,-535.7"/>
<text text-anchor="start" x="424" y="-544.8" font-family="Helvetica,sans-Serif" font-weight="bold" font-size="11.00" fill="#000000">client_node_registrations</text>
<text text-anchor="start" x="618.0437" y="-543.8" font-family="Helvetica,sans-Serif" font-size="11.00" fill="#000000">[table]</text>
<polygon fill="none" stroke="#000000" points="419,-513.7 419,-535.7 586,-535.7 586,-513.7 419,-513.7"/>
<image xlink:href="../../images/primaryKeys.png" width="11px" height="12px" preserveAspectRatio="xMinYMin meet" x="424" y="-530.7"/>
<text text-anchor="start" x="439" y="-520.8" font-family="Helvetica,sans-Serif" font-size="11.00" fill="#000000">client_id</text>
<polygon fill="none" stroke="#000000" points="586,-513.7 586,-535.7 653,-535.7 653,-513.7 586,-513.7"/>
<text text-anchor="start" x="589" y="-521.4" font-family="Helvetica,sans-Serif" font-size="11.00" fill="#000000">varchar[36]</text>
<polygon fill="none" stroke="#000000" points="419,-491.7 419,-513.7 586,-513.7 586,-491.7 419,-491.7"/>
<text text-anchor="start" x="439" y="-498.8" font-family="Helvetica,sans-Serif" font-size="11.00" fill="#000000">value</text>
<polygon fill="none" stroke="#000000" points="586,-491.7 586,-513.7 653,-513.7 653,-491.7 586,-491.7"/>
<text text-anchor="start" x="589" y="-499.4" font-family="Helvetica,sans-Serif" font-size="11.00" fill="#000000">int4[10]</text>
<polygon fill="none" stroke="#000000" points="419,-469.7 419,-491.7 586,-491.7 586,-469.7 419,-469.7"/>
<image xlink:href="../../images/primaryKeys.png" width="11px" height="12px" preserveAspectRatio="xMinYMin meet" x="424" y="-486.7"/>
<text text-anchor="start" x="439" y="-476.8" font-family="Helvetica,sans-Serif" font-size="11.00" fill="#000000">name</text>
<polygon fill="none" stroke="#000000" points="586,-469.7 586,-491.7 653,-491.7 653,-469.7 586,-469.7"/>
<text text-anchor="start" x="588.9365" y="-477.4" font-family="Helvetica,sans-Serif" font-size="11.00" fill="#000000">varchar[255]</text>
<polygon fill="#ffffff" stroke="transparent" points="419,-450.7 419,-469.7 494,-469.7 494,-450.7 419,-450.7"/>
<polygon fill="none" stroke="#000000" points="419,-450.7 419,-469.7 494,-469.7 494,-450.7 419,-450.7"/>
<text text-anchor="start" x="422" y="-456.8" font-family="Helvetica,sans-Serif" font-size="11.00" fill="#000000">&lt; 1</text>
<polygon fill="#ffffff" stroke="transparent" points="494,-450.7 494,-469.7 586,-469.7 586,-450.7 494,-450.7"/>
<polygon fill="none" stroke="#000000" points="494,-450.7 494,-469.7 586,-469.7 586,-450.7 494,-450.7"/>
<text text-anchor="start" x="550.6105" y="-456.8" font-family="Helvetica,sans-Serif" font-size="11.00" fill="#000000">0 rows</text>
<polygon fill="#ffffff" stroke="transparent" points="586,-450.7 586,-469.7 653,-469.7 653,-450.7 586,-450.7"/>
<polygon fill="none" stroke="#000000" points="586,-450.7 586,-469.7 653,-469.7 653,-450.7 586,-450.7"/>
<text text-anchor="start" x="634.4053" y="-456.8" font-family="Helvetica,sans-Serif" font-size="11.00" fill="#000000">0 &gt;</text>
<polygon fill="none" stroke="#000000" stroke-width="2" points="418,-449.7 418,-559.7 654,-559.7 654,-449.7 418,-449.7"/>
</a>
</g>
</g>
<!-- client_node_registrations&#45;&gt;client -->
<g id="edge5" class="edge">
<title>client_node_registrations:w&#45;&gt;client:e</title>
<path fill="none" stroke="#000000" d="M404.5387,-522.1351C354.0754,-500.7389 442.4137,-352.7 368.5,-352.7"/>
<polygon fill="#000000" stroke="#000000" points="411.1229,-523.3029 418.3713,-528.2447 415.0615,-524.0014 419,-524.7 419,-524.7 419,-524.7 415.0615,-524.0014 419.6287,-521.1553 411.1229,-523.3029 411.1229,-523.3029"/>
<ellipse fill="none" stroke="#000000" cx="407.9721" cy="-522.744" rx="3.2" ry="3.2"/>
</g>
<!-- client_scope_client -->
<g id="node7" class="node">
<title>client_scope_client</title>
<g id="a_node7"><a xlink:href="../../tables/client_scope_client.html" xlink:title="client_scope_client" target="_top">
<polygon fill="#ffffff" stroke="transparent" points="468.5,-366.2 468.5,-427.2 603.5,-427.2 603.5,-366.2 468.5,-366.2"/>
<polygon fill="#f5f5f5" stroke="transparent" points="469,-403.7 469,-426.7 604,-426.7 604,-403.7 469,-403.7"/>
<polygon fill="none" stroke="#000000" points="469,-403.7 469,-426.7 604,-426.7 604,-403.7 469,-403.7"/>
<text text-anchor="start" x="473.5443" y="-412.8" font-family="Helvetica,sans-Serif" font-weight="bold" font-size="11.00" fill="#000000">client_scope_client</text>
<text text-anchor="start" x="569.5219" y="-411.8" font-family="Helvetica,sans-Serif" font-size="11.00" fill="#000000">[table]</text>
<polygon fill="none" stroke="#000000" points="469,-384.7 469,-403.7 604,-403.7 604,-384.7 469,-384.7"/>
<text text-anchor="start" x="472" y="-390.8" font-family="Helvetica,sans-Serif" font-size="11.00" fill="#000000">...</text>
<polygon fill="#ffffff" stroke="transparent" points="469,-365.7 469,-384.7 519,-384.7 519,-365.7 469,-365.7"/>
<polygon fill="none" stroke="#000000" points="469,-365.7 469,-384.7 519,-384.7 519,-365.7 469,-365.7"/>
<text text-anchor="start" x="472" y="-371.8" font-family="Helvetica,sans-Serif" font-size="11.00" fill="#000000">&lt; 2</text>
<polygon fill="#ffffff" stroke="transparent" points="519,-365.7 519,-384.7 577,-384.7 577,-365.7 519,-365.7"/>
<polygon fill="none" stroke="#000000" points="519,-365.7 519,-384.7 577,-384.7 577,-365.7 519,-365.7"/>
<text text-anchor="start" x="535.4956" y="-371.8" font-family="Helvetica,sans-Serif" font-size="11.00" fill="#000000">54 rows</text>
<polygon fill="#ffffff" stroke="transparent" points="577,-365.7 577,-384.7 604,-384.7 604,-365.7 577,-365.7"/>
<polygon fill="none" stroke="#000000" points="577,-365.7 577,-384.7 604,-384.7 604,-365.7 577,-365.7"/>
<text text-anchor="start" x="594.8862" y="-371.8" font-family="Helvetica,sans-Serif" font-size="11.00" fill="#000000"> &#160;</text>
</a>
</g>
</g>
<!-- client_scope_client&#45;&gt;client -->
<g id="edge6" class="edge">
<title>client_scope_client:w&#45;&gt;client:e</title>
<path fill="none" stroke="#000000" d="M454.6424,-392.3359C419.3512,-385.2217 411.4643,-352.7 368.5,-352.7"/>
<polygon fill="#000000" stroke="#000000" points="461.0359,-392.9433 468.6595,-397.2839 465.0179,-393.3216 469,-393.7 469,-393.7 469,-393.7 465.0179,-393.3216 469.3405,-390.1161 461.0359,-392.9433 461.0359,-392.9433"/>
<ellipse fill="none" stroke="#000000" cx="457.8502" cy="-392.6406" rx="3.2" ry="3.2"/>
</g>
<!-- protocol_mapper -->
<g id="node8" class="node">
<title>protocol_mapper</title>
<g id="a_node8"><a xlink:href="../../tables/protocol_mapper.html" xlink:title="protocol_mapper" target="_top">
<polygon fill="#ffffff" stroke="transparent" points="473.5,-284.2 473.5,-345.2 598.5,-345.2 598.5,-284.2 473.5,-284.2"/>
<polygon fill="#f5f5f5" stroke="transparent" points="474,-321.7 474,-344.7 599,-344.7 599,-321.7 474,-321.7"/>
<polygon fill="none" stroke="#000000" points="474,-321.7 474,-344.7 599,-344.7 599,-321.7 474,-321.7"/>
<text text-anchor="start" x="478.7412" y="-330.8" font-family="Helvetica,sans-Serif" font-weight="bold" font-size="11.00" fill="#000000">protocol_mapper</text>
<text text-anchor="start" x="564.5219" y="-329.8" font-family="Helvetica,sans-Serif" font-size="11.00" fill="#000000">[table]</text>
<polygon fill="none" stroke="#000000" points="474,-302.7 474,-321.7 599,-321.7 599,-302.7 474,-302.7"/>
<text text-anchor="start" x="477" y="-308.8" font-family="Helvetica,sans-Serif" font-size="11.00" fill="#000000">...</text>
<polygon fill="#ffffff" stroke="transparent" points="474,-283.7 474,-302.7 514,-302.7 514,-283.7 474,-283.7"/>
<polygon fill="none" stroke="#000000" points="474,-283.7 474,-302.7 514,-302.7 514,-283.7 474,-283.7"/>
<text text-anchor="start" x="477" y="-289.8" font-family="Helvetica,sans-Serif" font-size="11.00" fill="#000000">&lt; 2</text>
<polygon fill="#ffffff" stroke="transparent" points="514,-283.7 514,-302.7 568,-302.7 568,-283.7 514,-283.7"/>
<polygon fill="none" stroke="#000000" points="514,-283.7 514,-302.7 568,-302.7 568,-283.7 514,-283.7"/>
<text text-anchor="start" x="526.4956" y="-289.8" font-family="Helvetica,sans-Serif" font-size="11.00" fill="#000000">28 rows</text>
<polygon fill="#ffffff" stroke="transparent" points="568,-283.7 568,-302.7 599,-302.7 599,-283.7 568,-283.7"/>
<polygon fill="none" stroke="#000000" points="568,-283.7 568,-302.7 599,-302.7 599,-283.7 568,-283.7"/>
<text text-anchor="start" x="580.4053" y="-289.8" font-family="Helvetica,sans-Serif" font-size="11.00" fill="#000000">1 &gt;</text>
</a>
</g>
</g>
<!-- protocol_mapper&#45;&gt;client -->
<g id="edge7" class="edge">
<title>protocol_mapper:w&#45;&gt;client:e</title>
<path fill="none" stroke="#000000" d="M459.4921,-312.972C422.1582,-319.8924 413.4996,-352.7 368.5,-352.7"/>
<polygon fill="#000000" stroke="#000000" points="466.0306,-312.3988 474.3145,-315.2862 470.0153,-312.0494 474,-311.7 474,-311.7 474,-311.7 470.0153,-312.0494 473.6855,-308.1138 466.0306,-312.3988 466.0306,-312.3988"/>
<ellipse fill="none" stroke="#000000" cx="462.8428" cy="-312.6783" rx="3.2" ry="3.2"/>
</g>
<!-- redirect_uris -->
<g id="node9" class="node">
<title>redirect_uris</title>
<g id="a_node9"><a xlink:href="../../tables/redirect_uris.html" xlink:title="redirect_uris" target="_top">
<polygon fill="#ffffff" stroke="transparent" points="484.5,-202.2 484.5,-263.2 587.5,-263.2 587.5,-202.2 484.5,-202.2"/>
<polygon fill="#f5f5f5" stroke="transparent" points="485,-239.7 485,-262.7 588,-262.7 588,-239.7 485,-239.7"/>
<polygon fill="none" stroke="#000000" points="485,-239.7 485,-262.7 588,-262.7 588,-239.7 485,-239.7"/>
<text text-anchor="start" x="489.7506" y="-248.8" font-family="Helvetica,sans-Serif" font-weight="bold" font-size="11.00" fill="#000000">redirect_uris</text>
<text text-anchor="start" x="553.5219" y="-247.8" font-family="Helvetica,sans-Serif" font-size="11.00" fill="#000000">[table]</text>
<polygon fill="none" stroke="#000000" points="485,-220.7 485,-239.7 588,-239.7 588,-220.7 485,-220.7"/>
<text text-anchor="start" x="488" y="-226.8" font-family="Helvetica,sans-Serif" font-size="11.00" fill="#000000">...</text>
<polygon fill="#ffffff" stroke="transparent" points="485,-201.7 485,-220.7 522,-220.7 522,-201.7 485,-201.7"/>
<polygon fill="none" stroke="#000000" points="485,-201.7 485,-220.7 522,-220.7 522,-201.7 485,-201.7"/>
<text text-anchor="start" x="488" y="-207.8" font-family="Helvetica,sans-Serif" font-size="11.00" fill="#000000">&lt; 1</text>
<polygon fill="#ffffff" stroke="transparent" points="522,-201.7 522,-220.7 568,-220.7 568,-201.7 522,-201.7"/>
<polygon fill="none" stroke="#000000" points="522,-201.7 522,-220.7 568,-220.7 568,-201.7 522,-201.7"/>
<text text-anchor="start" x="532.6105" y="-207.8" font-family="Helvetica,sans-Serif" font-size="11.00" fill="#000000">3 rows</text>
<polygon fill="#ffffff" stroke="transparent" points="568,-201.7 568,-220.7 588,-220.7 588,-201.7 568,-201.7"/>
<polygon fill="none" stroke="#000000" points="568,-201.7 568,-220.7 588,-220.7 588,-201.7 568,-201.7"/>
<text text-anchor="start" x="578.8862" y="-207.8" font-family="Helvetica,sans-Serif" font-size="11.00" fill="#000000"> &#160;</text>
</a>
</g>
</g>
<!-- redirect_uris&#45;&gt;client -->
<g id="edge8" class="edge">
<title>redirect_uris:w&#45;&gt;client:e</title>
<path fill="none" stroke="#000000" d="M470.4977,-230.5728C442.8982,-234.2299 432.2092,-249.2741 409,-273.7 381.8217,-302.303 407.9562,-352.7 368.5,-352.7"/>
<polygon fill="#000000" stroke="#000000" points="477.0144,-230.1806 485.2163,-233.2935 481.0072,-229.9403 485,-229.7 485,-229.7 485,-229.7 481.0072,-229.9403 484.7837,-226.1065 477.0144,-230.1806 477.0144,-230.1806"/>
<ellipse fill="none" stroke="#000000" cx="473.8202" cy="-230.3729" rx="3.2" ry="3.2"/>
</g>
<!-- scope_mapping -->
<g id="node10" class="node">
<title>scope_mapping</title>
<g id="a_node10"><a xlink:href="../../tables/scope_mapping.html" xlink:title="scope_mapping" target="_top">
<polygon fill="#ffffff" stroke="transparent" points="476,-120.2 476,-181.2 596,-181.2 596,-120.2 476,-120.2"/>
<polygon fill="#f5f5f5" stroke="transparent" points="476,-157.7 476,-180.7 596,-180.7 596,-157.7 476,-157.7"/>
<polygon fill="none" stroke="#000000" points="476,-157.7 476,-180.7 596,-180.7 596,-157.7 476,-157.7"/>
<text text-anchor="start" x="480.6816" y="-166.8" font-family="Helvetica,sans-Serif" font-weight="bold" font-size="11.00" fill="#000000">scope_mapping</text>
<text text-anchor="start" x="561.5219" y="-165.8" font-family="Helvetica,sans-Serif" font-size="11.00" fill="#000000">[table]</text>
<polygon fill="none" stroke="#000000" points="476,-138.7 476,-157.7 596,-157.7 596,-138.7 476,-138.7"/>
<text text-anchor="start" x="479" y="-144.8" font-family="Helvetica,sans-Serif" font-size="11.00" fill="#000000">...</text>
<polygon fill="#ffffff" stroke="transparent" points="476,-119.7 476,-138.7 524,-138.7 524,-119.7 476,-119.7"/>
<polygon fill="none" stroke="#000000" points="476,-119.7 476,-138.7 524,-138.7 524,-119.7 476,-119.7"/>
<text text-anchor="start" x="479" y="-125.8" font-family="Helvetica,sans-Serif" font-size="11.00" fill="#000000">&lt; 1</text>
<polygon fill="#ffffff" stroke="transparent" points="524,-119.7 524,-138.7 570,-138.7 570,-119.7 524,-119.7"/>
<polygon fill="none" stroke="#000000" points="524,-119.7 524,-138.7 570,-138.7 570,-119.7 524,-119.7"/>
<text text-anchor="start" x="540.1105" y="-125.8" font-family="Helvetica,sans-Serif" font-size="11.00" fill="#000000">1 row</text>
<polygon fill="#ffffff" stroke="transparent" points="570,-119.7 570,-138.7 596,-138.7 596,-119.7 570,-119.7"/>
<polygon fill="none" stroke="#000000" points="570,-119.7 570,-138.7 596,-138.7 596,-119.7 570,-119.7"/>
<text text-anchor="start" x="586.8862" y="-125.8" font-family="Helvetica,sans-Serif" font-size="11.00" fill="#000000"> &#160;</text>
</a>
</g>
</g>
<!-- scope_mapping&#45;&gt;client -->
<g id="edge9" class="edge">
<title>scope_mapping:w&#45;&gt;client:e</title>
<path fill="none" stroke="#000000" d="M461.3285,-148.7388C436.8753,-152.5864 426.4986,-167.089 409,-191.7 366.244,-251.8342 442.2848,-352.7 368.5,-352.7"/>
<polygon fill="#000000" stroke="#000000" points="468.02,-148.2651 476.2543,-151.291 472.01,-147.9825 476,-147.7 476,-147.7 476,-147.7 472.01,-147.9825 475.7457,-144.109 468.02,-148.2651 468.02,-148.2651"/>
<ellipse fill="none" stroke="#000000" cx="464.828" cy="-148.4911" rx="3.2" ry="3.2"/>
</g>
<!-- web_origins -->
<g id="node11" class="node">
<title>web_origins</title>
<g id="a_node11"><a xlink:href="../../tables/web_origins.html" xlink:title="web_origins" target="_top">
<polygon fill="#ffffff" stroke="transparent" points="485.5,-38.2 485.5,-99.2 586.5,-99.2 586.5,-38.2 485.5,-38.2"/>
<polygon fill="#f5f5f5" stroke="transparent" points="486,-75.7 486,-98.7 587,-98.7 587,-75.7 486,-75.7"/>
<polygon fill="none" stroke="#000000" points="486,-75.7 486,-98.7 587,-98.7 587,-75.7 486,-75.7"/>
<text text-anchor="start" x="490.663" y="-84.8" font-family="Helvetica,sans-Serif" font-weight="bold" font-size="11.00" fill="#000000">web_origins</text>
<text text-anchor="start" x="552.5219" y="-83.8" font-family="Helvetica,sans-Serif" font-size="11.00" fill="#000000">[table]</text>
<polygon fill="none" stroke="#000000" points="486,-56.7 486,-75.7 587,-75.7 587,-56.7 486,-56.7"/>
<text text-anchor="start" x="489" y="-62.8" font-family="Helvetica,sans-Serif" font-size="11.00" fill="#000000">...</text>
<polygon fill="#ffffff" stroke="transparent" points="486,-37.7 486,-56.7 525,-56.7 525,-37.7 486,-37.7"/>
<polygon fill="none" stroke="#000000" points="486,-37.7 486,-56.7 525,-56.7 525,-37.7 486,-37.7"/>
<text text-anchor="start" x="489" y="-43.8" font-family="Helvetica,sans-Serif" font-size="11.00" fill="#000000">&lt; 1</text>
<polygon fill="#ffffff" stroke="transparent" points="525,-37.7 525,-56.7 566,-56.7 566,-37.7 525,-37.7"/>
<polygon fill="none" stroke="#000000" points="525,-37.7 525,-56.7 566,-56.7 566,-37.7 525,-37.7"/>
<text text-anchor="start" x="536.1105" y="-43.8" font-family="Helvetica,sans-Serif" font-size="11.00" fill="#000000">1 row</text>
<polygon fill="#ffffff" stroke="transparent" points="566,-37.7 566,-56.7 587,-56.7 587,-37.7 566,-37.7"/>
<polygon fill="none" stroke="#000000" points="566,-37.7 566,-56.7 587,-56.7 587,-37.7 566,-37.7"/>
<text text-anchor="start" x="577.8862" y="-43.8" font-family="Helvetica,sans-Serif" font-size="11.00" fill="#000000"> &#160;</text>
</a>
</g>
</g>
<!-- web_origins&#45;&gt;client -->
<g id="edge10" class="edge">
<title>web_origins:w&#45;&gt;client:e</title>
<path fill="none" stroke="#000000" d="M471.5098,-66.338C442.4534,-69.1613 428.5361,-81.6526 409,-109.7 377.7103,-154.6217 423.2449,-352.7 368.5,-352.7"/>
<polygon fill="#000000" stroke="#000000" points="478.0077,-66.052 486.1584,-69.2965 482.0039,-65.876 486,-65.7 486,-65.7 486,-65.7 482.0039,-65.876 485.8416,-62.1035 478.0077,-66.052 478.0077,-66.052"/>
<ellipse fill="none" stroke="#000000" cx="474.8108" cy="-66.1927" rx="3.2" ry="3.2"/>
</g>
</g>
</svg>
