<?xml version="1.0" encoding="UTF-8" standalone="no"?>
<!DOCTYPE svg PUBLIC "-//W3C//DTD SVG 1.1//EN"
 "http://www.w3.org/Graphics/SVG/1.1/DTD/svg11.dtd">
<!-- Generated by graphviz version 2.40.1 (20161225.0304)
 -->
<!-- Title: twoDegreesRelationshipsDiagram Pages: 1 -->
<svg width="904pt" height="1857pt"
 viewBox="0.00 0.00 904.00 1857.16" xmlns="http://www.w3.org/2000/svg" xmlns:xlink="http://www.w3.org/1999/xlink">
<g id="graph0" class="graph" transform="scale(1 1) rotate(0) translate(4 1853.1609)">
<title>twoDegreesRelationshipsDiagram</title>
<polygon fill="#ffffff" stroke="transparent" points="-4,4 -4,-1853.1609 900,-1853.1609 900,4 -4,4"/>
<text text-anchor="middle" x="72.4936" y="-7.3" font-family="Helvetica,sans-Serif" font-size="11.00" fill="#000000">Generated by SchemaSpy</text>
<!-- authentication_execution -->
<g id="node1" class="node">
<title>authentication_execution</title>
<g id="a_node1"><a xlink:href="../../tables/authentication_execution.html" xlink:title="authentication_execution" target="_top">
<polygon fill="#ffffff" stroke="transparent" points="507.5,-1783.1609 507.5,-1844.1609 671.5,-1844.1609 671.5,-1783.1609 507.5,-1783.1609"/>
<polygon fill="#f5f5f5" stroke="transparent" points="507.5,-1820.6609 507.5,-1843.6609 671.5,-1843.6609 671.5,-1820.6609 507.5,-1820.6609"/>
<polygon fill="none" stroke="#000000" points="507.5,-1820.6609 507.5,-1843.6609 671.5,-1843.6609 671.5,-1820.6609 507.5,-1820.6609"/>
<text text-anchor="start" x="512.1706" y="-1829.7609" font-family="Helvetica,sans-Serif" font-weight="bold" font-size="11.00" fill="#000000">authentication_execution</text>
<text text-anchor="start" x="637.0219" y="-1828.7609" font-family="Helvetica,sans-Serif" font-size="11.00" fill="#000000">[table]</text>
<polygon fill="none" stroke="#000000" points="507.5,-1801.6609 507.5,-1820.6609 671.5,-1820.6609 671.5,-1801.6609 507.5,-1801.6609"/>
<text text-anchor="start" x="510.5" y="-1807.7609" font-family="Helvetica,sans-Serif" font-size="11.00" fill="#000000">...</text>
<polygon fill="#ffffff" stroke="transparent" points="507.5,-1782.6609 507.5,-1801.6609 571.5,-1801.6609 571.5,-1782.6609 507.5,-1782.6609"/>
<polygon fill="none" stroke="#000000" points="507.5,-1782.6609 507.5,-1801.6609 571.5,-1801.6609 571.5,-1782.6609 507.5,-1782.6609"/>
<text text-anchor="start" x="510.5" y="-1788.7609" font-family="Helvetica,sans-Serif" font-size="11.00" fill="#000000">&lt; 2</text>
<polygon fill="#ffffff" stroke="transparent" points="571.5,-1782.6609 571.5,-1801.6609 637.5,-1801.6609 637.5,-1782.6609 571.5,-1782.6609"/>
<polygon fill="none" stroke="#000000" points="571.5,-1782.6609 571.5,-1801.6609 637.5,-1801.6609 637.5,-1782.6609 571.5,-1782.6609"/>
<text text-anchor="start" x="595.9956" y="-1788.7609" font-family="Helvetica,sans-Serif" font-size="11.00" fill="#000000">47 rows</text>
<polygon fill="#ffffff" stroke="transparent" points="637.5,-1782.6609 637.5,-1801.6609 671.5,-1801.6609 671.5,-1782.6609 637.5,-1782.6609"/>
<polygon fill="none" stroke="#000000" points="637.5,-1782.6609 637.5,-1801.6609 671.5,-1801.6609 671.5,-1782.6609 637.5,-1782.6609"/>
<text text-anchor="start" x="662.3862" y="-1788.7609" font-family="Helvetica,sans-Serif" font-size="11.00" fill="#000000"> &#160;</text>
</a>
</g>
</g>
<!-- authentication_flow -->
<g id="node2" class="node">
<title>authentication_flow</title>
<g id="a_node2"><a xlink:href="../../tables/authentication_flow.html" xlink:title="authentication_flow" target="_top">
<polygon fill="#ffffff" stroke="transparent" points="292,-1784.1609 292,-1845.1609 429,-1845.1609 429,-1784.1609 292,-1784.1609"/>
<polygon fill="#f5f5f5" stroke="transparent" points="292.5,-1821.6609 292.5,-1844.6609 429.5,-1844.6609 429.5,-1821.6609 292.5,-1821.6609"/>
<polygon fill="none" stroke="#000000" points="292.5,-1821.6609 292.5,-1844.6609 429.5,-1844.6609 429.5,-1821.6609 292.5,-1821.6609"/>
<text text-anchor="start" x="297.4299" y="-1830.7609" font-family="Helvetica,sans-Serif" font-weight="bold" font-size="11.00" fill="#000000">authentication_flow</text>
<text text-anchor="start" x="395.0219" y="-1829.7609" font-family="Helvetica,sans-Serif" font-size="11.00" fill="#000000">[table]</text>
<polygon fill="none" stroke="#000000" points="292.5,-1802.6609 292.5,-1821.6609 429.5,-1821.6609 429.5,-1802.6609 292.5,-1802.6609"/>
<text text-anchor="start" x="295.5" y="-1808.7609" font-family="Helvetica,sans-Serif" font-size="11.00" fill="#000000">...</text>
<polygon fill="#ffffff" stroke="transparent" points="292.5,-1783.6609 292.5,-1802.6609 338.5,-1802.6609 338.5,-1783.6609 292.5,-1783.6609"/>
<polygon fill="none" stroke="#000000" points="292.5,-1783.6609 292.5,-1802.6609 338.5,-1802.6609 338.5,-1783.6609 292.5,-1783.6609"/>
<text text-anchor="start" x="295.5" y="-1789.7609" font-family="Helvetica,sans-Serif" font-size="11.00" fill="#000000">&lt; 1</text>
<polygon fill="#ffffff" stroke="transparent" points="338.5,-1783.6609 338.5,-1802.6609 395.5,-1802.6609 395.5,-1783.6609 338.5,-1783.6609"/>
<polygon fill="none" stroke="#000000" points="338.5,-1783.6609 338.5,-1802.6609 395.5,-1802.6609 395.5,-1783.6609 338.5,-1783.6609"/>
<text text-anchor="start" x="353.9956" y="-1789.7609" font-family="Helvetica,sans-Serif" font-size="11.00" fill="#000000">20 rows</text>
<polygon fill="#ffffff" stroke="transparent" points="395.5,-1783.6609 395.5,-1802.6609 429.5,-1802.6609 429.5,-1783.6609 395.5,-1783.6609"/>
<polygon fill="none" stroke="#000000" points="395.5,-1783.6609 395.5,-1802.6609 429.5,-1802.6609 429.5,-1783.6609 395.5,-1783.6609"/>
<text text-anchor="start" x="410.9053" y="-1789.7609" font-family="Helvetica,sans-Serif" font-size="11.00" fill="#000000">1 &gt;</text>
</a>
</g>
</g>
<!-- authentication_execution&#45;&gt;authentication_flow -->
<g id="edge1" class="edge">
<title>authentication_execution:w&#45;&gt;authentication_flow:e</title>
<path fill="none" stroke="#000000" d="M492.9552,-1810.7265C469.489,-1810.949 458.7524,-1811.6609 429.5,-1811.6609"/>
<polygon fill="#000000" stroke="#000000" points="499.5001,-1810.697 507.5163,-1814.2608 503.5,-1810.679 507.5,-1810.6609 507.5,-1810.6609 507.5,-1810.6609 503.5,-1810.679 507.4837,-1807.0609 499.5001,-1810.697 499.5001,-1810.697"/>
<ellipse fill="none" stroke="#000000" cx="496.3001" cy="-1810.7115" rx="3.2" ry="3.2"/>
</g>
<!-- realm -->
<g id="node3" class="node">
<title>realm</title>
<g id="a_node3"><a xlink:href="../../tables/realm.html" xlink:title="realm" target="_top">
<polygon fill="#ffffff" stroke="transparent" points="8,-829.1609 8,-956.1609 221,-956.1609 221,-829.1609 8,-829.1609"/>
<polygon fill="#f5f5f5" stroke="transparent" points="8.5,-932.6609 8.5,-955.6609 221.5,-955.6609 221.5,-932.6609 8.5,-932.6609"/>
<polygon fill="none" stroke="#000000" points="8.5,-932.6609 8.5,-955.6609 221.5,-955.6609 221.5,-932.6609 8.5,-932.6609"/>
<text text-anchor="start" x="13.5" y="-941.7609" font-family="Helvetica,sans-Serif" font-weight="bold" font-size="11.00" fill="#000000">realm</text>
<text text-anchor="start" x="186.5437" y="-940.7609" font-family="Helvetica,sans-Serif" font-size="11.00" fill="#000000">[table]</text>
<polygon fill="none" stroke="#000000" points="8.5,-910.6609 8.5,-932.6609 221.5,-932.6609 221.5,-910.6609 8.5,-910.6609"/>
<image xlink:href="../../images/primaryKeys.png" width="11px" height="12px" preserveAspectRatio="xMinYMin meet" x="13.5" y="-927.661"/>
<text text-anchor="start" x="28.5" y="-917.7609" font-family="Helvetica,sans-Serif" font-size="11.00" fill="#000000">id</text>
<polygon fill="#ffffff" stroke="transparent" points="8.5,-888.6609 8.5,-910.6609 221.5,-910.6609 221.5,-888.6609 8.5,-888.6609"/>
<polygon fill="none" stroke="#000000" points="8.5,-888.6609 8.5,-910.6609 221.5,-910.6609 221.5,-888.6609 8.5,-888.6609"/>
<text text-anchor="start" x="28.5" y="-895.7609" font-family="Helvetica,sans-Serif" font-size="11.00" fill="#000000">name</text>
<polygon fill="#ffffff" stroke="transparent" points="8.5,-866.6609 8.5,-888.6609 221.5,-888.6609 221.5,-866.6609 8.5,-866.6609"/>
<polygon fill="none" stroke="#000000" points="8.5,-866.6609 8.5,-888.6609 221.5,-888.6609 221.5,-866.6609 8.5,-866.6609"/>
<text text-anchor="start" x="28.5" y="-873.7609" font-family="Helvetica,sans-Serif" font-size="11.00" fill="#000000">master_admin_client</text>
<polygon fill="none" stroke="#000000" points="8.5,-847.6609 8.5,-866.6609 221.5,-866.6609 221.5,-847.6609 8.5,-847.6609"/>
<text text-anchor="start" x="11.5" y="-853.7609" font-family="Helvetica,sans-Serif" font-size="11.00" fill="#000000">...</text>
<polygon fill="#ffffff" stroke="transparent" points="8.5,-828.6609 8.5,-847.6609 91.5,-847.6609 91.5,-828.6609 8.5,-828.6609"/>
<polygon fill="none" stroke="#000000" points="8.5,-828.6609 8.5,-847.6609 91.5,-847.6609 91.5,-828.6609 8.5,-828.6609"/>
<text text-anchor="start" x="11.5" y="-834.7609" font-family="Helvetica,sans-Serif" font-size="11.00" fill="#000000"> &#160;</text>
<polygon fill="#ffffff" stroke="transparent" points="91.5,-828.6609 91.5,-847.6609 158.5,-847.6609 158.5,-828.6609 91.5,-828.6609"/>
<polygon fill="none" stroke="#000000" points="91.5,-828.6609 91.5,-847.6609 158.5,-847.6609 158.5,-828.6609 91.5,-828.6609"/>
<text text-anchor="start" x="128.6105" y="-834.7609" font-family="Helvetica,sans-Serif" font-size="11.00" fill="#000000">1 row</text>
<polygon fill="#ffffff" stroke="transparent" points="158.5,-828.6609 158.5,-847.6609 221.5,-847.6609 221.5,-828.6609 158.5,-828.6609"/>
<polygon fill="none" stroke="#000000" points="158.5,-828.6609 158.5,-847.6609 221.5,-847.6609 221.5,-828.6609 158.5,-828.6609"/>
<text text-anchor="start" x="196.7904" y="-834.7609" font-family="Helvetica,sans-Serif" font-size="11.00" fill="#000000">23 &gt;</text>
</a>
</g>
</g>
<!-- authentication_execution&#45;&gt;realm -->
<g id="edge2" class="edge">
<title>authentication_execution:w&#45;&gt;realm:e</title>
<path fill="none" stroke="#000000" d="M493.1146,-1807.0707C480.5592,-1799.4635 478.3431,-1781.758 459,-1773.6609 418.2117,-1756.5867 291.7946,-1778.3334 262,-1745.6609 200.234,-1677.9288 313.1661,-921.6609 221.5,-921.6609"/>
<polygon fill="#000000" stroke="#000000" points="499.7381,-1808.7237 506.6283,-1814.1537 503.619,-1809.6923 507.5,-1810.6609 507.5,-1810.6609 507.5,-1810.6609 503.619,-1809.6923 508.3717,-1807.168 499.7381,-1808.7237 499.7381,-1808.7237"/>
<ellipse fill="none" stroke="#000000" cx="496.6333" cy="-1807.9488" rx="3.2" ry="3.2"/>
</g>
<!-- authentication_flow&#45;&gt;realm -->
<g id="edge3" class="edge">
<title>authentication_flow:w&#45;&gt;realm:e</title>
<path fill="none" stroke="#000000" d="M278.4618,-1807.7283C268.991,-1800.803 267.6163,-1785.6444 262,-1769.6609 246.3643,-1725.1632 268.6648,-921.6609 221.5,-921.6609"/>
<polygon fill="#000000" stroke="#000000" points="284.7966,-1809.5028 291.5289,-1815.1274 288.6483,-1810.5819 292.5,-1811.6609 292.5,-1811.6609 292.5,-1811.6609 288.6483,-1810.5819 293.4711,-1808.1943 284.7966,-1809.5028 284.7966,-1809.5028"/>
<ellipse fill="none" stroke="#000000" cx="281.7152" cy="-1808.6396" rx="3.2" ry="3.2"/>
</g>
<!-- authenticator_config -->
<g id="node4" class="node">
<title>authenticator_config</title>
<g id="a_node4"><a xlink:href="../../tables/authenticator_config.html" xlink:title="authenticator_config" target="_top">
<polygon fill="#ffffff" stroke="transparent" points="289.5,-1674.1609 289.5,-1735.1609 431.5,-1735.1609 431.5,-1674.1609 289.5,-1674.1609"/>
<polygon fill="#f5f5f5" stroke="transparent" points="289.5,-1711.6609 289.5,-1734.6609 431.5,-1734.6609 431.5,-1711.6609 289.5,-1711.6609"/>
<polygon fill="none" stroke="#000000" points="289.5,-1711.6609 289.5,-1734.6609 431.5,-1734.6609 431.5,-1711.6609 289.5,-1711.6609"/>
<text text-anchor="start" x="294.4824" y="-1720.7609" font-family="Helvetica,sans-Serif" font-weight="bold" font-size="11.00" fill="#000000">authenticator_config</text>
<text text-anchor="start" x="397.0219" y="-1719.7609" font-family="Helvetica,sans-Serif" font-size="11.00" fill="#000000">[table]</text>
<polygon fill="none" stroke="#000000" points="289.5,-1692.6609 289.5,-1711.6609 431.5,-1711.6609 431.5,-1692.6609 289.5,-1692.6609"/>
<text text-anchor="start" x="292.5" y="-1698.7609" font-family="Helvetica,sans-Serif" font-size="11.00" fill="#000000">...</text>
<polygon fill="#ffffff" stroke="transparent" points="289.5,-1673.6609 289.5,-1692.6609 345.5,-1692.6609 345.5,-1673.6609 289.5,-1673.6609"/>
<polygon fill="none" stroke="#000000" points="289.5,-1673.6609 289.5,-1692.6609 345.5,-1692.6609 345.5,-1673.6609 289.5,-1673.6609"/>
<text text-anchor="start" x="292.5" y="-1679.7609" font-family="Helvetica,sans-Serif" font-size="11.00" fill="#000000">&lt; 1</text>
<polygon fill="#ffffff" stroke="transparent" points="345.5,-1673.6609 345.5,-1692.6609 401.5,-1692.6609 401.5,-1673.6609 345.5,-1673.6609"/>
<polygon fill="none" stroke="#000000" points="345.5,-1673.6609 345.5,-1692.6609 401.5,-1692.6609 401.5,-1673.6609 345.5,-1673.6609"/>
<text text-anchor="start" x="366.1105" y="-1679.7609" font-family="Helvetica,sans-Serif" font-size="11.00" fill="#000000">2 rows</text>
<polygon fill="#ffffff" stroke="transparent" points="401.5,-1673.6609 401.5,-1692.6609 431.5,-1692.6609 431.5,-1673.6609 401.5,-1673.6609"/>
<polygon fill="none" stroke="#000000" points="401.5,-1673.6609 401.5,-1692.6609 431.5,-1692.6609 431.5,-1673.6609 401.5,-1673.6609"/>
<text text-anchor="start" x="422.3862" y="-1679.7609" font-family="Helvetica,sans-Serif" font-size="11.00" fill="#000000"> &#160;</text>
</a>
</g>
</g>
<!-- authenticator_config&#45;&gt;realm -->
<g id="edge4" class="edge">
<title>authenticator_config:w&#45;&gt;realm:e</title>
<path fill="none" stroke="#000000" d="M275.7829,-1697.2553C268.1954,-1690.6513 266.8951,-1677.4778 262,-1663.6609 248.2135,-1624.7473 262.7836,-921.6609 221.5,-921.6609"/>
<polygon fill="#000000" stroke="#000000" points="281.8832,-1699.2145 288.3991,-1705.0884 285.6916,-1700.4377 289.5,-1701.6609 289.5,-1701.6609 289.5,-1701.6609 285.6916,-1700.4377 290.6009,-1698.2333 281.8832,-1699.2145 281.8832,-1699.2145"/>
<ellipse fill="none" stroke="#000000" cx="278.8365" cy="-1698.236" rx="3.2" ry="3.2"/>
</g>
<!-- client -->
<g id="node5" class="node">
<title>client</title>
<g id="a_node5"><a xlink:href="../../tables/client.html" xlink:title="client" target="_top">
<polygon fill="#ffffff" stroke="transparent" points="320.5,-1592.1609 320.5,-1653.1609 400.5,-1653.1609 400.5,-1592.1609 320.5,-1592.1609"/>
<polygon fill="#f5f5f5" stroke="transparent" points="320.5,-1629.6609 320.5,-1652.6609 400.5,-1652.6609 400.5,-1629.6609 320.5,-1629.6609"/>
<polygon fill="none" stroke="#000000" points="320.5,-1629.6609 320.5,-1652.6609 400.5,-1652.6609 400.5,-1629.6609 320.5,-1629.6609"/>
<text text-anchor="start" x="325.5" y="-1638.7609" font-family="Helvetica,sans-Serif" font-weight="bold" font-size="11.00" fill="#000000">client</text>
<text text-anchor="start" x="365.5437" y="-1637.7609" font-family="Helvetica,sans-Serif" font-size="11.00" fill="#000000">[table]</text>
<polygon fill="none" stroke="#000000" points="320.5,-1610.6609 320.5,-1629.6609 400.5,-1629.6609 400.5,-1610.6609 320.5,-1610.6609"/>
<text text-anchor="start" x="323.5" y="-1616.7609" font-family="Helvetica,sans-Serif" font-size="11.00" fill="#000000">...</text>
<polygon fill="#ffffff" stroke="transparent" points="320.5,-1591.6609 320.5,-1610.6609 341.5,-1610.6609 341.5,-1591.6609 320.5,-1591.6609"/>
<polygon fill="none" stroke="#000000" points="320.5,-1591.6609 320.5,-1610.6609 341.5,-1610.6609 341.5,-1591.6609 320.5,-1591.6609"/>
<text text-anchor="start" x="323.2027" y="-1597.7609" font-family="Helvetica,sans-Serif" font-size="11.00" fill="#000000">&lt; 1</text>
<polygon fill="#ffffff" stroke="transparent" points="341.5,-1591.6609 341.5,-1610.6609 379.5,-1610.6609 379.5,-1591.6609 341.5,-1591.6609"/>
<polygon fill="none" stroke="#000000" points="341.5,-1591.6609 341.5,-1610.6609 379.5,-1610.6609 379.5,-1591.6609 341.5,-1591.6609"/>
<text text-anchor="start" x="344.3053" y="-1597.7609" font-family="Helvetica,sans-Serif" font-size="11.00" fill="#000000">6 rows</text>
<polygon fill="#ffffff" stroke="transparent" points="379.5,-1591.6609 379.5,-1610.6609 400.5,-1610.6609 400.5,-1591.6609 379.5,-1591.6609"/>
<polygon fill="none" stroke="#000000" points="379.5,-1591.6609 379.5,-1610.6609 400.5,-1610.6609 400.5,-1591.6609 379.5,-1591.6609"/>
<text text-anchor="start" x="382.2027" y="-1597.7609" font-family="Helvetica,sans-Serif" font-size="11.00" fill="#000000">8 &gt;</text>
</a>
</g>
</g>
<!-- client&#45;&gt;realm -->
<g id="edge5" class="edge">
<title>client:w&#45;&gt;realm:e</title>
<path fill="none" stroke="#000000" d="M306.0927,-1618.6446C285.3032,-1615.3448 274.9353,-1603.8393 262,-1581.6609 224.9844,-1518.1953 294.9713,-921.6609 221.5,-921.6609"/>
<polygon fill="#000000" stroke="#000000" points="312.5198,-1619.0979 320.2467,-1623.252 316.5099,-1619.3794 320.5,-1619.6609 320.5,-1619.6609 320.5,-1619.6609 316.5099,-1619.3794 320.7533,-1616.0698 312.5198,-1619.0979 312.5198,-1619.0979"/>
<ellipse fill="none" stroke="#000000" cx="309.3278" cy="-1618.8727" rx="3.2" ry="3.2"/>
</g>
<!-- client_initial_access -->
<g id="node6" class="node">
<title>client_initial_access</title>
<g id="a_node6"><a xlink:href="../../tables/client_initial_access.html" xlink:title="client_initial_access" target="_top">
<polygon fill="#ffffff" stroke="transparent" points="290.5,-1510.1609 290.5,-1571.1609 430.5,-1571.1609 430.5,-1510.1609 290.5,-1510.1609"/>
<polygon fill="#f5f5f5" stroke="transparent" points="290.5,-1547.6609 290.5,-1570.6609 430.5,-1570.6609 430.5,-1547.6609 290.5,-1547.6609"/>
<polygon fill="none" stroke="#000000" points="290.5,-1547.6609 290.5,-1570.6609 430.5,-1570.6609 430.5,-1547.6609 290.5,-1547.6609"/>
<text text-anchor="start" x="295.4108" y="-1556.7609" font-family="Helvetica,sans-Serif" font-weight="bold" font-size="11.00" fill="#000000">client_initial_access</text>
<text text-anchor="start" x="396.0219" y="-1555.7609" font-family="Helvetica,sans-Serif" font-size="11.00" fill="#000000">[table]</text>
<polygon fill="none" stroke="#000000" points="290.5,-1528.6609 290.5,-1547.6609 430.5,-1547.6609 430.5,-1528.6609 290.5,-1528.6609"/>
<text text-anchor="start" x="293.5" y="-1534.7609" font-family="Helvetica,sans-Serif" font-size="11.00" fill="#000000">...</text>
<polygon fill="#ffffff" stroke="transparent" points="290.5,-1509.6609 290.5,-1528.6609 345.5,-1528.6609 345.5,-1509.6609 290.5,-1509.6609"/>
<polygon fill="none" stroke="#000000" points="290.5,-1509.6609 290.5,-1528.6609 345.5,-1528.6609 345.5,-1509.6609 290.5,-1509.6609"/>
<text text-anchor="start" x="293.5" y="-1515.7609" font-family="Helvetica,sans-Serif" font-size="11.00" fill="#000000">&lt; 1</text>
<polygon fill="#ffffff" stroke="transparent" points="345.5,-1509.6609 345.5,-1528.6609 400.5,-1528.6609 400.5,-1509.6609 345.5,-1509.6609"/>
<polygon fill="none" stroke="#000000" points="345.5,-1509.6609 345.5,-1528.6609 400.5,-1528.6609 400.5,-1509.6609 345.5,-1509.6609"/>
<text text-anchor="start" x="365.1105" y="-1515.7609" font-family="Helvetica,sans-Serif" font-size="11.00" fill="#000000">0 rows</text>
<polygon fill="#ffffff" stroke="transparent" points="400.5,-1509.6609 400.5,-1528.6609 430.5,-1528.6609 430.5,-1509.6609 400.5,-1509.6609"/>
<polygon fill="none" stroke="#000000" points="400.5,-1509.6609 400.5,-1528.6609 430.5,-1528.6609 430.5,-1509.6609 400.5,-1509.6609"/>
<text text-anchor="start" x="421.3862" y="-1515.7609" font-family="Helvetica,sans-Serif" font-size="11.00" fill="#000000"> &#160;</text>
</a>
</g>
</g>
<!-- client_initial_access&#45;&gt;realm -->
<g id="edge6" class="edge">
<title>client_initial_access:w&#45;&gt;realm:e</title>
<path fill="none" stroke="#000000" d="M276.531,-1533.2797C268.7307,-1526.7061 267.1836,-1513.5701 262,-1499.6609 239.518,-1439.3343 285.8797,-921.6609 221.5,-921.6609"/>
<polygon fill="#000000" stroke="#000000" points="282.8666,-1535.2668 289.4226,-1541.0959 286.6833,-1536.4638 290.5,-1537.6609 290.5,-1537.6609 290.5,-1537.6609 286.6833,-1536.4638 291.5774,-1534.2259 282.8666,-1535.2668 282.8666,-1535.2668"/>
<ellipse fill="none" stroke="#000000" cx="279.8133" cy="-1534.3091" rx="3.2" ry="3.2"/>
</g>
<!-- client_scope -->
<g id="node7" class="node">
<title>client_scope</title>
<g id="a_node7"><a xlink:href="../../tables/client_scope.html" xlink:title="client_scope" target="_top">
<polygon fill="#ffffff" stroke="transparent" points="278.5,-1332.6609 278.5,-1488.6609 442.5,-1488.6609 442.5,-1332.6609 278.5,-1332.6609"/>
<polygon fill="#f5f5f5" stroke="transparent" points="280.5,-1463.6609 280.5,-1486.6609 440.5,-1486.6609 440.5,-1463.6609 280.5,-1463.6609"/>
<polygon fill="none" stroke="#000000" points="280.5,-1463.6609 280.5,-1486.6609 440.5,-1486.6609 440.5,-1463.6609 280.5,-1463.6609"/>
<text text-anchor="start" x="285.5" y="-1472.7609" font-family="Helvetica,sans-Serif" font-weight="bold" font-size="11.00" fill="#000000">client_scope</text>
<text text-anchor="start" x="405.5437" y="-1471.7609" font-family="Helvetica,sans-Serif" font-size="11.00" fill="#000000">[table]</text>
<polygon fill="none" stroke="#000000" points="280.5,-1441.6609 280.5,-1463.6609 373.5,-1463.6609 373.5,-1441.6609 280.5,-1441.6609"/>
<image xlink:href="../../images/primaryKeys.png" width="11px" height="12px" preserveAspectRatio="xMinYMin meet" x="285.5" y="-1458.66"/>
<text text-anchor="start" x="300.5" y="-1448.7609" font-family="Helvetica,sans-Serif" font-size="11.00" fill="#000000">id</text>
<polygon fill="none" stroke="#000000" points="373.5,-1441.6609 373.5,-1463.6609 440.5,-1463.6609 440.5,-1441.6609 373.5,-1441.6609"/>
<text text-anchor="start" x="376.5" y="-1449.3609" font-family="Helvetica,sans-Serif" font-size="11.00" fill="#000000">varchar[36]</text>
<polygon fill="#ffffff" stroke="transparent" points="280.5,-1419.6609 280.5,-1441.6609 373.5,-1441.6609 373.5,-1419.6609 280.5,-1419.6609"/>
<polygon fill="none" stroke="#000000" points="280.5,-1419.6609 280.5,-1441.6609 373.5,-1441.6609 373.5,-1419.6609 280.5,-1419.6609"/>
<text text-anchor="start" x="300.5" y="-1426.7609" font-family="Helvetica,sans-Serif" font-size="11.00" fill="#000000">name</text>
<polygon fill="none" stroke="#000000" points="373.5,-1419.6609 373.5,-1441.6609 440.5,-1441.6609 440.5,-1419.6609 373.5,-1419.6609"/>
<text text-anchor="start" x="376.4365" y="-1427.3609" font-family="Helvetica,sans-Serif" font-size="11.00" fill="#000000">varchar[255]</text>
<polygon fill="#ffffff" stroke="transparent" points="280.5,-1397.6609 280.5,-1419.6609 373.5,-1419.6609 373.5,-1397.6609 280.5,-1397.6609"/>
<polygon fill="none" stroke="#000000" points="280.5,-1397.6609 280.5,-1419.6609 373.5,-1419.6609 373.5,-1397.6609 280.5,-1397.6609"/>
<image xlink:href="../../images/foreignKeys.png" width="11px" height="12px" preserveAspectRatio="xMinYMin meet" x="285.5" y="-1414.66"/>
<text text-anchor="start" x="300.5" y="-1404.7609" font-family="Helvetica,sans-Serif" font-size="11.00" fill="#000000">realm_id</text>
<polygon fill="none" stroke="#000000" points="373.5,-1397.6609 373.5,-1419.6609 440.5,-1419.6609 440.5,-1397.6609 373.5,-1397.6609"/>
<text text-anchor="start" x="376.5" y="-1405.3609" font-family="Helvetica,sans-Serif" font-size="11.00" fill="#000000">varchar[36]</text>
<polygon fill="none" stroke="#000000" points="280.5,-1375.6609 280.5,-1397.6609 373.5,-1397.6609 373.5,-1375.6609 280.5,-1375.6609"/>
<text text-anchor="start" x="300.5" y="-1382.7609" font-family="Helvetica,sans-Serif" font-size="11.00" fill="#000000">description</text>
<polygon fill="none" stroke="#000000" points="373.5,-1375.6609 373.5,-1397.6609 440.5,-1397.6609 440.5,-1375.6609 373.5,-1375.6609"/>
<text text-anchor="start" x="376.4365" y="-1383.3609" font-family="Helvetica,sans-Serif" font-size="11.00" fill="#000000">varchar[255]</text>
<polygon fill="none" stroke="#000000" points="280.5,-1353.6609 280.5,-1375.6609 373.5,-1375.6609 373.5,-1353.6609 280.5,-1353.6609"/>
<text text-anchor="start" x="300.5" y="-1360.7609" font-family="Helvetica,sans-Serif" font-size="11.00" fill="#000000">protocol</text>
<polygon fill="none" stroke="#000000" points="373.5,-1353.6609 373.5,-1375.6609 440.5,-1375.6609 440.5,-1353.6609 373.5,-1353.6609"/>
<text text-anchor="start" x="376.4365" y="-1361.3609" font-family="Helvetica,sans-Serif" font-size="11.00" fill="#000000">varchar[255]</text>
<polygon fill="#ffffff" stroke="transparent" points="280.5,-1334.6609 280.5,-1353.6609 318.5,-1353.6609 318.5,-1334.6609 280.5,-1334.6609"/>
<polygon fill="none" stroke="#000000" points="280.5,-1334.6609 280.5,-1353.6609 318.5,-1353.6609 318.5,-1334.6609 280.5,-1334.6609"/>
<text text-anchor="start" x="283.5" y="-1340.7609" font-family="Helvetica,sans-Serif" font-size="11.00" fill="#000000">&lt; 1</text>
<polygon fill="#ffffff" stroke="transparent" points="318.5,-1334.6609 318.5,-1353.6609 373.5,-1353.6609 373.5,-1334.6609 318.5,-1334.6609"/>
<polygon fill="none" stroke="#000000" points="318.5,-1334.6609 318.5,-1353.6609 373.5,-1353.6609 373.5,-1334.6609 318.5,-1334.6609"/>
<text text-anchor="start" x="338.1105" y="-1340.7609" font-family="Helvetica,sans-Serif" font-size="11.00" fill="#000000">9 rows</text>
<polygon fill="#ffffff" stroke="transparent" points="373.5,-1334.6609 373.5,-1353.6609 440.5,-1353.6609 440.5,-1334.6609 373.5,-1334.6609"/>
<polygon fill="none" stroke="#000000" points="373.5,-1334.6609 373.5,-1353.6609 440.5,-1353.6609 440.5,-1334.6609 373.5,-1334.6609"/>
<text text-anchor="start" x="421.9053" y="-1340.7609" font-family="Helvetica,sans-Serif" font-size="11.00" fill="#000000">5 &gt;</text>
<polygon fill="none" stroke="#000000" stroke-width="2" points="279.5,-1333.6609 279.5,-1487.6609 441.5,-1487.6609 441.5,-1333.6609 279.5,-1333.6609"/>
</a>
</g>
</g>
<!-- client_scope&#45;&gt;realm -->
<g id="edge7" class="edge">
<title>client_scope:w&#45;&gt;realm:e</title>
<path fill="none" stroke="#000000" d="M266.386,-1405.291C186.3774,-1362.2634 325.1906,-921.6609 221.5,-921.6609"/>
<polygon fill="#000000" stroke="#000000" points="272.7187,-1406.803 279.6639,-1412.1625 276.6094,-1407.7319 280.5,-1408.6609 280.5,-1408.6609 280.5,-1408.6609 276.6094,-1407.7319 281.3361,-1405.1593 272.7187,-1406.803 272.7187,-1406.803"/>
<ellipse fill="none" stroke="#000000" cx="269.6062" cy="-1406.0598" rx="3.2" ry="3.2"/>
</g>
<!-- client_scope_attributes -->
<g id="node8" class="node">
<title>client_scope_attributes</title>
<g id="a_node8"><a xlink:href="../../tables/client_scope_attributes.html" xlink:title="client_scope_attributes" target="_top">
<polygon fill="#ffffff" stroke="transparent" points="512,-1274.1609 512,-1379.1609 667,-1379.1609 667,-1274.1609 512,-1274.1609"/>
<polygon fill="#f5f5f5" stroke="transparent" points="512.5,-1355.6609 512.5,-1378.6609 667.5,-1378.6609 667.5,-1355.6609 512.5,-1355.6609"/>
<polygon fill="none" stroke="#000000" points="512.5,-1355.6609 512.5,-1378.6609 667.5,-1378.6609 667.5,-1355.6609 512.5,-1355.6609"/>
<text text-anchor="start" x="517.262" y="-1364.7609" font-family="Helvetica,sans-Serif" font-weight="bold" font-size="11.00" fill="#000000">client_scope_attributes</text>
<text text-anchor="start" x="633.0219" y="-1363.7609" font-family="Helvetica,sans-Serif" font-size="11.00" fill="#000000">[table]</text>
<polygon fill="none" stroke="#000000" points="512.5,-1333.6609 512.5,-1355.6609 667.5,-1355.6609 667.5,-1333.6609 512.5,-1333.6609"/>
<image xlink:href="../../images/primaryKeys.png" width="11px" height="12px" preserveAspectRatio="xMinYMin meet" x="517.5" y="-1350.66"/>
<text text-anchor="start" x="532.5" y="-1340.7609" font-family="Helvetica,sans-Serif" font-size="11.00" fill="#000000">scope_id</text>
<polygon fill="none" stroke="#000000" points="512.5,-1311.6609 512.5,-1333.6609 667.5,-1333.6609 667.5,-1311.6609 512.5,-1311.6609"/>
<image xlink:href="../../images/primaryKeys.png" width="11px" height="12px" preserveAspectRatio="xMinYMin meet" x="517.5" y="-1328.66"/>
<text text-anchor="start" x="532.5" y="-1318.7609" font-family="Helvetica,sans-Serif" font-size="11.00" fill="#000000">name</text>
<polygon fill="none" stroke="#000000" points="512.5,-1292.6609 512.5,-1311.6609 667.5,-1311.6609 667.5,-1292.6609 512.5,-1292.6609"/>
<text text-anchor="start" x="515.5" y="-1298.7609" font-family="Helvetica,sans-Serif" font-size="11.00" fill="#000000">...</text>
<polygon fill="#ffffff" stroke="transparent" points="512.5,-1273.6609 512.5,-1292.6609 572.5,-1292.6609 572.5,-1273.6609 512.5,-1273.6609"/>
<polygon fill="none" stroke="#000000" points="512.5,-1273.6609 512.5,-1292.6609 572.5,-1292.6609 572.5,-1273.6609 512.5,-1273.6609"/>
<text text-anchor="start" x="515.5" y="-1279.7609" font-family="Helvetica,sans-Serif" font-size="11.00" fill="#000000">&lt; 1</text>
<polygon fill="#ffffff" stroke="transparent" points="572.5,-1273.6609 572.5,-1292.6609 635.5,-1292.6609 635.5,-1273.6609 572.5,-1273.6609"/>
<polygon fill="none" stroke="#000000" points="572.5,-1273.6609 572.5,-1292.6609 635.5,-1292.6609 635.5,-1273.6609 572.5,-1273.6609"/>
<text text-anchor="start" x="593.9956" y="-1279.7609" font-family="Helvetica,sans-Serif" font-size="11.00" fill="#000000">24 rows</text>
<polygon fill="#ffffff" stroke="transparent" points="635.5,-1273.6609 635.5,-1292.6609 667.5,-1292.6609 667.5,-1273.6609 635.5,-1273.6609"/>
<polygon fill="none" stroke="#000000" points="635.5,-1273.6609 635.5,-1292.6609 667.5,-1292.6609 667.5,-1273.6609 635.5,-1273.6609"/>
<text text-anchor="start" x="658.3862" y="-1279.7609" font-family="Helvetica,sans-Serif" font-size="11.00" fill="#000000"> &#160;</text>
</a>
</g>
</g>
<!-- client_scope_attributes&#45;&gt;client_scope -->
<g id="edge8" class="edge">
<title>client_scope_attributes:w&#45;&gt;client_scope:e</title>
<path fill="none" stroke="#000000" d="M498.3023,-1347.5496C462.3195,-1364.7247 492.5551,-1452.6609 440.5,-1452.6609"/>
<polygon fill="#000000" stroke="#000000" points="504.6606,-1346.256 513.2178,-1348.1886 508.5803,-1345.4584 512.5,-1344.6609 512.5,-1344.6609 512.5,-1344.6609 508.5803,-1345.4584 511.7822,-1341.1332 504.6606,-1346.256 504.6606,-1346.256"/>
<ellipse fill="none" stroke="#000000" cx="501.5249" cy="-1346.894" rx="3.2" ry="3.2"/>
</g>
<!-- client_scope_client -->
<g id="node9" class="node">
<title>client_scope_client</title>
<g id="a_node9"><a xlink:href="../../tables/client_scope_client.html" xlink:title="client_scope_client" target="_top">
<polygon fill="#ffffff" stroke="transparent" points="522,-1508.1609 522,-1613.1609 657,-1613.1609 657,-1508.1609 522,-1508.1609"/>
<polygon fill="#f5f5f5" stroke="transparent" points="522.5,-1589.6609 522.5,-1612.6609 657.5,-1612.6609 657.5,-1589.6609 522.5,-1589.6609"/>
<polygon fill="none" stroke="#000000" points="522.5,-1589.6609 522.5,-1612.6609 657.5,-1612.6609 657.5,-1589.6609 522.5,-1589.6609"/>
<text text-anchor="start" x="527.0443" y="-1598.7609" font-family="Helvetica,sans-Serif" font-weight="bold" font-size="11.00" fill="#000000">client_scope_client</text>
<text text-anchor="start" x="623.0219" y="-1597.7609" font-family="Helvetica,sans-Serif" font-size="11.00" fill="#000000">[table]</text>
<polygon fill="none" stroke="#000000" points="522.5,-1567.6609 522.5,-1589.6609 657.5,-1589.6609 657.5,-1567.6609 522.5,-1567.6609"/>
<image xlink:href="../../images/primaryKeys.png" width="11px" height="12px" preserveAspectRatio="xMinYMin meet" x="527.5" y="-1584.66"/>
<text text-anchor="start" x="544.5" y="-1574.7609" font-family="Helvetica,sans-Serif" font-size="11.00" fill="#000000">client_id</text>
<polygon fill="none" stroke="#000000" points="522.5,-1545.6609 522.5,-1567.6609 657.5,-1567.6609 657.5,-1545.6609 522.5,-1545.6609"/>
<image xlink:href="../../images/primaryKeys.png" width="11px" height="12px" preserveAspectRatio="xMinYMin meet" x="527.5" y="-1562.66"/>
<text text-anchor="start" x="544.5" y="-1552.7609" font-family="Helvetica,sans-Serif" font-size="11.00" fill="#000000">scope_id</text>
<polygon fill="none" stroke="#000000" points="522.5,-1526.6609 522.5,-1545.6609 657.5,-1545.6609 657.5,-1526.6609 522.5,-1526.6609"/>
<text text-anchor="start" x="525.5" y="-1532.7609" font-family="Helvetica,sans-Serif" font-size="11.00" fill="#000000">...</text>
<polygon fill="#ffffff" stroke="transparent" points="522.5,-1507.6609 522.5,-1526.6609 572.5,-1526.6609 572.5,-1507.6609 522.5,-1507.6609"/>
<polygon fill="none" stroke="#000000" points="522.5,-1507.6609 522.5,-1526.6609 572.5,-1526.6609 572.5,-1507.6609 522.5,-1507.6609"/>
<text text-anchor="start" x="525.5" y="-1513.7609" font-family="Helvetica,sans-Serif" font-size="11.00" fill="#000000">&lt; 2</text>
<polygon fill="#ffffff" stroke="transparent" points="572.5,-1507.6609 572.5,-1526.6609 630.5,-1526.6609 630.5,-1507.6609 572.5,-1507.6609"/>
<polygon fill="none" stroke="#000000" points="572.5,-1507.6609 572.5,-1526.6609 630.5,-1526.6609 630.5,-1507.6609 572.5,-1507.6609"/>
<text text-anchor="start" x="588.9956" y="-1513.7609" font-family="Helvetica,sans-Serif" font-size="11.00" fill="#000000">54 rows</text>
<polygon fill="#ffffff" stroke="transparent" points="630.5,-1507.6609 630.5,-1526.6609 657.5,-1526.6609 657.5,-1507.6609 630.5,-1507.6609"/>
<polygon fill="none" stroke="#000000" points="630.5,-1507.6609 630.5,-1526.6609 657.5,-1526.6609 657.5,-1507.6609 630.5,-1507.6609"/>
<text text-anchor="start" x="648.3862" y="-1513.7609" font-family="Helvetica,sans-Serif" font-size="11.00" fill="#000000"> &#160;</text>
</a>
</g>
</g>
<!-- client_scope_client&#45;&gt;client -->
<g id="edge9" class="edge">
<title>client_scope_client:w&#45;&gt;client:e</title>
<path fill="none" stroke="#000000" d="M507.9243,-1579.6339C463.4852,-1585.8427 452.4513,-1619.6609 400.5,-1619.6609"/>
<polygon fill="#000000" stroke="#000000" points="514.5178,-1579.1938 522.7398,-1582.2529 518.5089,-1578.9273 522.5,-1578.6609 522.5,-1578.6609 522.5,-1578.6609 518.5089,-1578.9273 522.2602,-1575.0689 514.5178,-1579.1938 514.5178,-1579.1938"/>
<ellipse fill="none" stroke="#000000" cx="511.3249" cy="-1579.407" rx="3.2" ry="3.2"/>
</g>
<!-- client_scope_client&#45;&gt;client_scope -->
<g id="edge10" class="edge">
<title>client_scope_client:w&#45;&gt;client_scope:e</title>
<path fill="none" stroke="#000000" d="M508.2832,-1554.0901C469.5052,-1538.0749 493.8434,-1452.6609 440.5,-1452.6609"/>
<polygon fill="#000000" stroke="#000000" points="514.6277,-1555.2373 521.8594,-1560.2034 518.5638,-1555.9491 522.5,-1556.6609 522.5,-1556.6609 522.5,-1556.6609 518.5638,-1555.9491 523.1406,-1553.1183 514.6277,-1555.2373 514.6277,-1555.2373"/>
<ellipse fill="none" stroke="#000000" cx="511.4787" cy="-1554.6679" rx="3.2" ry="3.2"/>
</g>
<!-- client_scope_role_mapping -->
<g id="node10" class="node">
<title>client_scope_role_mapping</title>
<g id="a_node10"><a xlink:href="../../tables/client_scope_role_mapping.html" xlink:title="client_scope_role_mapping" target="_top">
<polygon fill="#ffffff" stroke="transparent" points="500,-1400.6609 500,-1486.6609 679,-1486.6609 679,-1400.6609 500,-1400.6609"/>
<polygon fill="#f5f5f5" stroke="transparent" points="500.5,-1463.6609 500.5,-1486.6609 679.5,-1486.6609 679.5,-1463.6609 500.5,-1463.6609"/>
<polygon fill="none" stroke="#000000" points="500.5,-1463.6609 500.5,-1486.6609 679.5,-1486.6609 679.5,-1463.6609 500.5,-1463.6609"/>
<text text-anchor="start" x="505.5" y="-1472.7609" font-family="Helvetica,sans-Serif" font-weight="bold" font-size="11.00" fill="#000000">client_scope_role_mapping</text>
<text text-anchor="start" x="644.5437" y="-1471.7609" font-family="Helvetica,sans-Serif" font-size="11.00" fill="#000000">[table]</text>
<polygon fill="none" stroke="#000000" points="500.5,-1441.6609 500.5,-1463.6609 679.5,-1463.6609 679.5,-1441.6609 500.5,-1441.6609"/>
<image xlink:href="../../images/primaryKeys.png" width="11px" height="12px" preserveAspectRatio="xMinYMin meet" x="505.5" y="-1458.66"/>
<text text-anchor="start" x="520.5" y="-1448.7609" font-family="Helvetica,sans-Serif" font-size="11.00" fill="#000000">scope_id</text>
<polygon fill="none" stroke="#000000" points="500.5,-1419.6609 500.5,-1441.6609 679.5,-1441.6609 679.5,-1419.6609 500.5,-1419.6609"/>
<image xlink:href="../../images/primaryKeys.png" width="11px" height="12px" preserveAspectRatio="xMinYMin meet" x="505.5" y="-1436.66"/>
<text text-anchor="start" x="520.5" y="-1426.7609" font-family="Helvetica,sans-Serif" font-size="11.00" fill="#000000">role_id</text>
<polygon fill="#ffffff" stroke="transparent" points="500.5,-1400.6609 500.5,-1419.6609 578.5,-1419.6609 578.5,-1400.6609 500.5,-1400.6609"/>
<polygon fill="none" stroke="#000000" points="500.5,-1400.6609 500.5,-1419.6609 578.5,-1419.6609 578.5,-1400.6609 500.5,-1400.6609"/>
<text text-anchor="start" x="503.5" y="-1406.7609" font-family="Helvetica,sans-Serif" font-size="11.00" fill="#000000">&lt; 1</text>
<polygon fill="#ffffff" stroke="transparent" points="578.5,-1400.6609 578.5,-1419.6609 638.5,-1419.6609 638.5,-1400.6609 578.5,-1400.6609"/>
<polygon fill="none" stroke="#000000" points="578.5,-1400.6609 578.5,-1419.6609 638.5,-1419.6609 638.5,-1400.6609 578.5,-1400.6609"/>
<text text-anchor="start" x="608.6105" y="-1406.7609" font-family="Helvetica,sans-Serif" font-size="11.00" fill="#000000">1 row</text>
<polygon fill="#ffffff" stroke="transparent" points="638.5,-1400.6609 638.5,-1419.6609 679.5,-1419.6609 679.5,-1400.6609 638.5,-1400.6609"/>
<polygon fill="none" stroke="#000000" points="638.5,-1400.6609 638.5,-1419.6609 679.5,-1419.6609 679.5,-1400.6609 638.5,-1400.6609"/>
<text text-anchor="start" x="670.3862" y="-1406.7609" font-family="Helvetica,sans-Serif" font-size="11.00" fill="#000000"> &#160;</text>
</a>
</g>
</g>
<!-- client_scope_role_mapping&#45;&gt;client_scope -->
<g id="edge11" class="edge">
<title>client_scope_role_mapping:w&#45;&gt;client_scope:e</title>
<path fill="none" stroke="#000000" d="M485.9193,-1452.6609C470.1309,-1452.6609 461.5417,-1452.6609 440.5,-1452.6609"/>
<polygon fill="#000000" stroke="#000000" points="492.5,-1452.6609 500.5,-1456.2609 496.5,-1452.6609 500.5,-1452.6609 500.5,-1452.6609 500.5,-1452.6609 496.5,-1452.6609 500.5,-1449.0609 492.5,-1452.6609 492.5,-1452.6609"/>
<ellipse fill="none" stroke="#000000" cx="489.3" cy="-1452.661" rx="3.2" ry="3.2"/>
</g>
<!-- component -->
<g id="node11" class="node">
<title>component</title>
<g id="a_node11"><a xlink:href="../../tables/component.html" xlink:title="component" target="_top">
<polygon fill="#ffffff" stroke="transparent" points="312,-1250.1609 312,-1311.1609 409,-1311.1609 409,-1250.1609 312,-1250.1609"/>
<polygon fill="#f5f5f5" stroke="transparent" points="312.5,-1287.6609 312.5,-1310.6609 409.5,-1310.6609 409.5,-1287.6609 312.5,-1287.6609"/>
<polygon fill="none" stroke="#000000" points="312.5,-1287.6609 312.5,-1310.6609 409.5,-1310.6609 409.5,-1287.6609 312.5,-1287.6609"/>
<text text-anchor="start" x="317.2959" y="-1296.7609" font-family="Helvetica,sans-Serif" font-weight="bold" font-size="11.00" fill="#000000">component</text>
<text text-anchor="start" x="375.0219" y="-1295.7609" font-family="Helvetica,sans-Serif" font-size="11.00" fill="#000000">[table]</text>
<polygon fill="none" stroke="#000000" points="312.5,-1268.6609 312.5,-1287.6609 409.5,-1287.6609 409.5,-1268.6609 312.5,-1268.6609"/>
<text text-anchor="start" x="315.5" y="-1274.7609" font-family="Helvetica,sans-Serif" font-size="11.00" fill="#000000">...</text>
<polygon fill="#ffffff" stroke="transparent" points="312.5,-1249.6609 312.5,-1268.6609 341.5,-1268.6609 341.5,-1249.6609 312.5,-1249.6609"/>
<polygon fill="none" stroke="#000000" points="312.5,-1249.6609 312.5,-1268.6609 341.5,-1268.6609 341.5,-1249.6609 312.5,-1249.6609"/>
<text text-anchor="start" x="315.5" y="-1255.7609" font-family="Helvetica,sans-Serif" font-size="11.00" fill="#000000">&lt; 1</text>
<polygon fill="#ffffff" stroke="transparent" points="341.5,-1249.6609 341.5,-1268.6609 383.5,-1268.6609 383.5,-1249.6609 341.5,-1249.6609"/>
<polygon fill="none" stroke="#000000" points="341.5,-1249.6609 341.5,-1268.6609 383.5,-1268.6609 383.5,-1249.6609 341.5,-1249.6609"/>
<text text-anchor="start" x="348.1105" y="-1255.7609" font-family="Helvetica,sans-Serif" font-size="11.00" fill="#000000">9 rows</text>
<polygon fill="#ffffff" stroke="transparent" points="383.5,-1249.6609 383.5,-1268.6609 409.5,-1268.6609 409.5,-1249.6609 383.5,-1249.6609"/>
<polygon fill="none" stroke="#000000" points="383.5,-1249.6609 383.5,-1268.6609 409.5,-1268.6609 409.5,-1249.6609 383.5,-1249.6609"/>
<text text-anchor="start" x="390.9053" y="-1255.7609" font-family="Helvetica,sans-Serif" font-size="11.00" fill="#000000">1 &gt;</text>
</a>
</g>
</g>
<!-- component&#45;&gt;realm -->
<g id="edge12" class="edge">
<title>component:w&#45;&gt;realm:e</title>
<path fill="none" stroke="#000000" d="M297.9478,-1275.9072C280.2846,-1271.04 273.3717,-1256.346 262,-1235.6609 228.106,-1174.0076 291.8558,-921.6609 221.5,-921.6609"/>
<polygon fill="#000000" stroke="#000000" points="304.5575,-1276.7037 312.0693,-1281.235 308.5287,-1277.1823 312.5,-1277.6609 312.5,-1277.6609 312.5,-1277.6609 308.5287,-1277.1823 312.9307,-1274.0867 304.5575,-1276.7037 304.5575,-1276.7037"/>
<ellipse fill="none" stroke="#000000" cx="301.3804" cy="-1276.3208" rx="3.2" ry="3.2"/>
</g>
<!-- default_client_scope -->
<g id="node12" class="node">
<title>default_client_scope</title>
<g id="a_node12"><a xlink:href="../../tables/default_client_scope.html" xlink:title="default_client_scope" target="_top">
<polygon fill="#ffffff" stroke="transparent" points="518,-1148.1609 518,-1253.1609 661,-1253.1609 661,-1148.1609 518,-1148.1609"/>
<polygon fill="#f5f5f5" stroke="transparent" points="518.5,-1229.6609 518.5,-1252.6609 661.5,-1252.6609 661.5,-1229.6609 518.5,-1229.6609"/>
<polygon fill="none" stroke="#000000" points="518.5,-1229.6609 518.5,-1252.6609 661.5,-1252.6609 661.5,-1229.6609 518.5,-1229.6609"/>
<text text-anchor="start" x="523.3714" y="-1238.7609" font-family="Helvetica,sans-Serif" font-weight="bold" font-size="11.00" fill="#000000">default_client_scope</text>
<text text-anchor="start" x="627.0219" y="-1237.7609" font-family="Helvetica,sans-Serif" font-size="11.00" fill="#000000">[table]</text>
<polygon fill="none" stroke="#000000" points="518.5,-1207.6609 518.5,-1229.6609 661.5,-1229.6609 661.5,-1207.6609 518.5,-1207.6609"/>
<image xlink:href="../../images/primaryKeys.png" width="11px" height="12px" preserveAspectRatio="xMinYMin meet" x="523.5" y="-1224.66"/>
<text text-anchor="start" x="540.5" y="-1214.7609" font-family="Helvetica,sans-Serif" font-size="11.00" fill="#000000">realm_id</text>
<polygon fill="none" stroke="#000000" points="518.5,-1185.6609 518.5,-1207.6609 661.5,-1207.6609 661.5,-1185.6609 518.5,-1185.6609"/>
<image xlink:href="../../images/primaryKeys.png" width="11px" height="12px" preserveAspectRatio="xMinYMin meet" x="523.5" y="-1202.66"/>
<text text-anchor="start" x="540.5" y="-1192.7609" font-family="Helvetica,sans-Serif" font-size="11.00" fill="#000000">scope_id</text>
<polygon fill="none" stroke="#000000" points="518.5,-1166.6609 518.5,-1185.6609 661.5,-1185.6609 661.5,-1166.6609 518.5,-1166.6609"/>
<text text-anchor="start" x="521.5" y="-1172.7609" font-family="Helvetica,sans-Serif" font-size="11.00" fill="#000000">...</text>
<polygon fill="#ffffff" stroke="transparent" points="518.5,-1147.6609 518.5,-1166.6609 575.5,-1166.6609 575.5,-1147.6609 518.5,-1147.6609"/>
<polygon fill="none" stroke="#000000" points="518.5,-1147.6609 518.5,-1166.6609 575.5,-1166.6609 575.5,-1147.6609 518.5,-1147.6609"/>
<text text-anchor="start" x="521.5" y="-1153.7609" font-family="Helvetica,sans-Serif" font-size="11.00" fill="#000000">&lt; 2</text>
<polygon fill="#ffffff" stroke="transparent" points="575.5,-1147.6609 575.5,-1166.6609 631.5,-1166.6609 631.5,-1147.6609 575.5,-1147.6609"/>
<polygon fill="none" stroke="#000000" points="575.5,-1147.6609 575.5,-1166.6609 631.5,-1166.6609 631.5,-1147.6609 575.5,-1147.6609"/>
<text text-anchor="start" x="596.1105" y="-1153.7609" font-family="Helvetica,sans-Serif" font-size="11.00" fill="#000000">9 rows</text>
<polygon fill="#ffffff" stroke="transparent" points="631.5,-1147.6609 631.5,-1166.6609 661.5,-1166.6609 661.5,-1147.6609 631.5,-1147.6609"/>
<polygon fill="none" stroke="#000000" points="631.5,-1147.6609 631.5,-1166.6609 661.5,-1166.6609 661.5,-1147.6609 631.5,-1147.6609"/>
<text text-anchor="start" x="652.3862" y="-1153.7609" font-family="Helvetica,sans-Serif" font-size="11.00" fill="#000000"> &#160;</text>
</a>
</g>
</g>
<!-- default_client_scope&#45;&gt;realm -->
<g id="edge13" class="edge">
<title>default_client_scope:w&#45;&gt;realm:e</title>
<path fill="none" stroke="#000000" d="M503.8247,-1219.1565C438.2288,-1222.9848 301.2661,-1246.7768 262,-1211.6609 213.4969,-1168.2842 286.5699,-921.6609 221.5,-921.6609"/>
<polygon fill="#000000" stroke="#000000" points="510.5046,-1218.9309 518.6215,-1222.2588 514.5023,-1218.7959 518.5,-1218.6609 518.5,-1218.6609 518.5,-1218.6609 514.5023,-1218.7959 518.3785,-1215.0629 510.5046,-1218.9309 510.5046,-1218.9309"/>
<ellipse fill="none" stroke="#000000" cx="507.3064" cy="-1219.039" rx="3.2" ry="3.2"/>
</g>
<!-- default_client_scope&#45;&gt;client_scope -->
<g id="edge14" class="edge">
<title>default_client_scope:w&#45;&gt;client_scope:e</title>
<path fill="none" stroke="#000000" d="M504.1082,-1198.1643C413.36,-1219.1443 554.0987,-1452.6609 440.5,-1452.6609"/>
<polygon fill="#000000" stroke="#000000" points="510.5433,-1197.4921 518.874,-1200.2414 514.5216,-1197.0765 518.5,-1196.6609 518.5,-1196.6609 518.5,-1196.6609 514.5216,-1197.0765 518.126,-1193.0804 510.5433,-1197.4921 510.5433,-1197.4921"/>
<ellipse fill="none" stroke="#000000" cx="507.3606" cy="-1197.8246" rx="3.2" ry="3.2"/>
</g>
<!-- identity_provider -->
<g id="node13" class="node">
<title>identity_provider</title>
<g id="a_node13"><a xlink:href="../../tables/identity_provider.html" xlink:title="identity_provider" target="_top">
<polygon fill="#ffffff" stroke="transparent" points="299,-1140.1609 299,-1201.1609 422,-1201.1609 422,-1140.1609 299,-1140.1609"/>
<polygon fill="#f5f5f5" stroke="transparent" points="299.5,-1177.6609 299.5,-1200.6609 422.5,-1200.6609 422.5,-1177.6609 299.5,-1177.6609"/>
<polygon fill="none" stroke="#000000" points="299.5,-1177.6609 299.5,-1200.6609 422.5,-1200.6609 422.5,-1177.6609 299.5,-1177.6609"/>
<text text-anchor="start" x="304.1603" y="-1186.7609" font-family="Helvetica,sans-Serif" font-weight="bold" font-size="11.00" fill="#000000">identity_provider</text>
<text text-anchor="start" x="388.0219" y="-1185.7609" font-family="Helvetica,sans-Serif" font-size="11.00" fill="#000000">[table]</text>
<polygon fill="none" stroke="#000000" points="299.5,-1158.6609 299.5,-1177.6609 422.5,-1177.6609 422.5,-1158.6609 299.5,-1158.6609"/>
<text text-anchor="start" x="302.5" y="-1164.7609" font-family="Helvetica,sans-Serif" font-size="11.00" fill="#000000">...</text>
<polygon fill="#ffffff" stroke="transparent" points="299.5,-1139.6609 299.5,-1158.6609 341.5,-1158.6609 341.5,-1139.6609 299.5,-1139.6609"/>
<polygon fill="none" stroke="#000000" points="299.5,-1139.6609 299.5,-1158.6609 341.5,-1158.6609 341.5,-1139.6609 299.5,-1139.6609"/>
<text text-anchor="start" x="302.5" y="-1145.7609" font-family="Helvetica,sans-Serif" font-size="11.00" fill="#000000">&lt; 1</text>
<polygon fill="#ffffff" stroke="transparent" points="341.5,-1139.6609 341.5,-1158.6609 390.5,-1158.6609 390.5,-1139.6609 341.5,-1139.6609"/>
<polygon fill="none" stroke="#000000" points="341.5,-1139.6609 341.5,-1158.6609 390.5,-1158.6609 390.5,-1139.6609 341.5,-1139.6609"/>
<text text-anchor="start" x="355.1105" y="-1145.7609" font-family="Helvetica,sans-Serif" font-size="11.00" fill="#000000">0 rows</text>
<polygon fill="#ffffff" stroke="transparent" points="390.5,-1139.6609 390.5,-1158.6609 422.5,-1158.6609 422.5,-1139.6609 390.5,-1139.6609"/>
<polygon fill="none" stroke="#000000" points="390.5,-1139.6609 390.5,-1158.6609 422.5,-1158.6609 422.5,-1139.6609 390.5,-1139.6609"/>
<text text-anchor="start" x="403.9053" y="-1145.7609" font-family="Helvetica,sans-Serif" font-size="11.00" fill="#000000">1 &gt;</text>
</a>
</g>
</g>
<!-- identity_provider&#45;&gt;realm -->
<g id="edge15" class="edge">
<title>identity_provider:w&#45;&gt;realm:e</title>
<path fill="none" stroke="#000000" d="M285.1876,-1164.6745C273.8994,-1158.9054 270.3051,-1145.4 262,-1129.6609 240.0236,-1088.0132 268.5903,-921.6609 221.5,-921.6609"/>
<polygon fill="#000000" stroke="#000000" points="291.6687,-1166.0268 298.7646,-1171.185 295.5843,-1166.8438 299.5,-1167.6609 299.5,-1167.6609 299.5,-1167.6609 295.5843,-1166.8438 300.2354,-1164.1368 291.6687,-1166.0268 291.6687,-1166.0268"/>
<ellipse fill="none" stroke="#000000" cx="288.5361" cy="-1165.3731" rx="3.2" ry="3.2"/>
</g>
<!-- identity_provider_mapper -->
<g id="node14" class="node">
<title>identity_provider_mapper</title>
<g id="a_node14"><a xlink:href="../../tables/identity_provider_mapper.html" xlink:title="identity_provider_mapper" target="_top">
<polygon fill="#ffffff" stroke="transparent" points="277,-1058.1609 277,-1119.1609 444,-1119.1609 444,-1058.1609 277,-1058.1609"/>
<polygon fill="#f5f5f5" stroke="transparent" points="277.5,-1095.6609 277.5,-1118.6609 444.5,-1118.6609 444.5,-1095.6609 277.5,-1095.6609"/>
<polygon fill="none" stroke="#000000" points="277.5,-1095.6609 277.5,-1118.6609 444.5,-1118.6609 444.5,-1095.6609 277.5,-1095.6609"/>
<text text-anchor="start" x="282.4611" y="-1104.7609" font-family="Helvetica,sans-Serif" font-weight="bold" font-size="11.00" fill="#000000">identity_provider_mapper</text>
<text text-anchor="start" x="410.0219" y="-1103.7609" font-family="Helvetica,sans-Serif" font-size="11.00" fill="#000000">[table]</text>
<polygon fill="none" stroke="#000000" points="277.5,-1076.6609 277.5,-1095.6609 444.5,-1095.6609 444.5,-1076.6609 277.5,-1076.6609"/>
<text text-anchor="start" x="280.5" y="-1082.7609" font-family="Helvetica,sans-Serif" font-size="11.00" fill="#000000">...</text>
<polygon fill="#ffffff" stroke="transparent" points="277.5,-1057.6609 277.5,-1076.6609 341.5,-1076.6609 341.5,-1057.6609 277.5,-1057.6609"/>
<polygon fill="none" stroke="#000000" points="277.5,-1057.6609 277.5,-1076.6609 341.5,-1076.6609 341.5,-1057.6609 277.5,-1057.6609"/>
<text text-anchor="start" x="280.5" y="-1063.7609" font-family="Helvetica,sans-Serif" font-size="11.00" fill="#000000">&lt; 1</text>
<polygon fill="#ffffff" stroke="transparent" points="341.5,-1057.6609 341.5,-1076.6609 401.5,-1076.6609 401.5,-1057.6609 341.5,-1057.6609"/>
<polygon fill="none" stroke="#000000" points="341.5,-1057.6609 341.5,-1076.6609 401.5,-1076.6609 401.5,-1057.6609 341.5,-1057.6609"/>
<text text-anchor="start" x="366.1105" y="-1063.7609" font-family="Helvetica,sans-Serif" font-size="11.00" fill="#000000">0 rows</text>
<polygon fill="#ffffff" stroke="transparent" points="401.5,-1057.6609 401.5,-1076.6609 444.5,-1076.6609 444.5,-1057.6609 401.5,-1057.6609"/>
<polygon fill="none" stroke="#000000" points="401.5,-1057.6609 401.5,-1076.6609 444.5,-1076.6609 444.5,-1057.6609 401.5,-1057.6609"/>
<text text-anchor="start" x="425.9053" y="-1063.7609" font-family="Helvetica,sans-Serif" font-size="11.00" fill="#000000">1 &gt;</text>
</a>
</g>
</g>
<!-- identity_provider_mapper&#45;&gt;realm -->
<g id="edge16" class="edge">
<title>identity_provider_mapper:w&#45;&gt;realm:e</title>
<path fill="none" stroke="#000000" d="M263.1006,-1083.0848C214.0677,-1062.2205 292.8047,-921.6609 221.5,-921.6609"/>
<polygon fill="#000000" stroke="#000000" points="269.625,-1084.252 276.866,-1089.2046 273.5625,-1084.9564 277.5,-1085.6609 277.5,-1085.6609 277.5,-1085.6609 273.5625,-1084.9564 278.134,-1082.1171 269.625,-1084.252 269.625,-1084.252"/>
<ellipse fill="none" stroke="#000000" cx="266.475" cy="-1083.6885" rx="3.2" ry="3.2"/>
</g>
<!-- keycloak_group -->
<g id="node15" class="node">
<title>keycloak_group</title>
<g id="a_node15"><a xlink:href="../../tables/keycloak_group.html" xlink:title="keycloak_group" target="_top">
<polygon fill="#ffffff" stroke="transparent" points="300.5,-976.1609 300.5,-1037.1609 420.5,-1037.1609 420.5,-976.1609 300.5,-976.1609"/>
<polygon fill="#f5f5f5" stroke="transparent" points="300.5,-1013.6609 300.5,-1036.6609 420.5,-1036.6609 420.5,-1013.6609 300.5,-1013.6609"/>
<polygon fill="none" stroke="#000000" points="300.5,-1013.6609 300.5,-1036.6609 420.5,-1036.6609 420.5,-1013.6609 300.5,-1013.6609"/>
<text text-anchor="start" x="305.489" y="-1022.7609" font-family="Helvetica,sans-Serif" font-weight="bold" font-size="11.00" fill="#000000">keycloak_group</text>
<text text-anchor="start" x="386.0219" y="-1021.7609" font-family="Helvetica,sans-Serif" font-size="11.00" fill="#000000">[table]</text>
<polygon fill="none" stroke="#000000" points="300.5,-994.6609 300.5,-1013.6609 420.5,-1013.6609 420.5,-994.6609 300.5,-994.6609"/>
<text text-anchor="start" x="303.5" y="-1000.7609" font-family="Helvetica,sans-Serif" font-size="11.00" fill="#000000">...</text>
<polygon fill="#ffffff" stroke="transparent" points="300.5,-975.6609 300.5,-994.6609 341.5,-994.6609 341.5,-975.6609 300.5,-975.6609"/>
<polygon fill="none" stroke="#000000" points="300.5,-975.6609 300.5,-994.6609 341.5,-994.6609 341.5,-975.6609 300.5,-975.6609"/>
<text text-anchor="start" x="303.5" y="-981.7609" font-family="Helvetica,sans-Serif" font-size="11.00" fill="#000000">&lt; 1</text>
<polygon fill="#ffffff" stroke="transparent" points="341.5,-975.6609 341.5,-994.6609 389.5,-994.6609 389.5,-975.6609 341.5,-975.6609"/>
<polygon fill="none" stroke="#000000" points="341.5,-975.6609 341.5,-994.6609 389.5,-994.6609 389.5,-975.6609 341.5,-975.6609"/>
<text text-anchor="start" x="354.1105" y="-981.7609" font-family="Helvetica,sans-Serif" font-size="11.00" fill="#000000">0 rows</text>
<polygon fill="#ffffff" stroke="transparent" points="389.5,-975.6609 389.5,-994.6609 420.5,-994.6609 420.5,-975.6609 389.5,-975.6609"/>
<polygon fill="none" stroke="#000000" points="389.5,-975.6609 389.5,-994.6609 420.5,-994.6609 420.5,-975.6609 389.5,-975.6609"/>
<text text-anchor="start" x="401.9053" y="-981.7609" font-family="Helvetica,sans-Serif" font-size="11.00" fill="#000000">2 &gt;</text>
</a>
</g>
</g>
<!-- keycloak_group&#45;&gt;realm -->
<g id="edge17" class="edge">
<title>keycloak_group:w&#45;&gt;realm:e</title>
<path fill="none" stroke="#000000" d="M286.3713,-999.9454C276.3555,-993.2112 274.3956,-978.4963 262,-965.6609 243.5365,-946.5423 248.0786,-921.6609 221.5,-921.6609"/>
<polygon fill="#000000" stroke="#000000" points="292.7631,-1001.6262 299.5844,-1007.1425 296.6315,-1002.6435 300.5,-1003.6609 300.5,-1003.6609 300.5,-1003.6609 296.6315,-1002.6435 301.4156,-1000.1793 292.7631,-1001.6262 292.7631,-1001.6262"/>
<ellipse fill="none" stroke="#000000" cx="289.6683" cy="-1000.8123" rx="3.2" ry="3.2"/>
</g>
<!-- keycloak_role -->
<g id="node16" class="node">
<title>keycloak_role</title>
<g id="a_node16"><a xlink:href="../../tables/keycloak_role.html" xlink:title="keycloak_role" target="_top">
<polygon fill="#ffffff" stroke="transparent" points="305.5,-894.1609 305.5,-955.1609 415.5,-955.1609 415.5,-894.1609 305.5,-894.1609"/>
<polygon fill="#f5f5f5" stroke="transparent" points="305.5,-931.6609 305.5,-954.6609 415.5,-954.6609 415.5,-931.6609 305.5,-931.6609"/>
<polygon fill="none" stroke="#000000" points="305.5,-931.6609 305.5,-954.6609 415.5,-954.6609 415.5,-931.6609 305.5,-931.6609"/>
<text text-anchor="start" x="310.3835" y="-940.7609" font-family="Helvetica,sans-Serif" font-weight="bold" font-size="11.00" fill="#000000">keycloak_role</text>
<text text-anchor="start" x="381.0219" y="-939.7609" font-family="Helvetica,sans-Serif" font-size="11.00" fill="#000000">[table]</text>
<polygon fill="none" stroke="#000000" points="305.5,-912.6609 305.5,-931.6609 415.5,-931.6609 415.5,-912.6609 305.5,-912.6609"/>
<text text-anchor="start" x="308.5" y="-918.7609" font-family="Helvetica,sans-Serif" font-size="11.00" fill="#000000">...</text>
<polygon fill="#ffffff" stroke="transparent" points="305.5,-893.6609 305.5,-912.6609 338.5,-912.6609 338.5,-893.6609 305.5,-893.6609"/>
<polygon fill="none" stroke="#000000" points="305.5,-893.6609 305.5,-912.6609 338.5,-912.6609 338.5,-893.6609 305.5,-893.6609"/>
<text text-anchor="start" x="308.5" y="-899.7609" font-family="Helvetica,sans-Serif" font-size="11.00" fill="#000000">&lt; 1</text>
<polygon fill="#ffffff" stroke="transparent" points="338.5,-893.6609 338.5,-912.6609 388.5,-912.6609 388.5,-893.6609 338.5,-893.6609"/>
<polygon fill="none" stroke="#000000" points="338.5,-893.6609 338.5,-912.6609 388.5,-912.6609 388.5,-893.6609 338.5,-893.6609"/>
<text text-anchor="start" x="346.9956" y="-899.7609" font-family="Helvetica,sans-Serif" font-size="11.00" fill="#000000">30 rows</text>
<polygon fill="#ffffff" stroke="transparent" points="388.5,-893.6609 388.5,-912.6609 415.5,-912.6609 415.5,-893.6609 388.5,-893.6609"/>
<polygon fill="none" stroke="#000000" points="388.5,-893.6609 388.5,-912.6609 415.5,-912.6609 415.5,-893.6609 388.5,-893.6609"/>
<text text-anchor="start" x="396.9053" y="-899.7609" font-family="Helvetica,sans-Serif" font-size="11.00" fill="#000000">3 &gt;</text>
</a>
</g>
</g>
<!-- keycloak_role&#45;&gt;realm -->
<g id="edge18" class="edge">
<title>keycloak_role:w&#45;&gt;realm:e</title>
<path fill="none" stroke="#000000" d="M290.8981,-921.6609C264.8839,-921.6609 253.4375,-921.6609 221.5,-921.6609"/>
<polygon fill="#000000" stroke="#000000" points="297.5,-921.6609 305.5,-925.2609 301.5,-921.6609 305.5,-921.6609 305.5,-921.6609 305.5,-921.6609 301.5,-921.6609 305.5,-918.0609 297.5,-921.6609 297.5,-921.6609"/>
<ellipse fill="none" stroke="#000000" cx="294.3" cy="-921.661" rx="3.2" ry="3.2"/>
</g>
<!-- protocol_mapper -->
<g id="node17" class="node">
<title>protocol_mapper</title>
<g id="a_node17"><a xlink:href="../../tables/protocol_mapper.html" xlink:title="protocol_mapper" target="_top">
<polygon fill="#ffffff" stroke="transparent" points="511,-1634.1609 511,-1761.1609 668,-1761.1609 668,-1634.1609 511,-1634.1609"/>
<polygon fill="#f5f5f5" stroke="transparent" points="511.5,-1737.6609 511.5,-1760.6609 668.5,-1760.6609 668.5,-1737.6609 511.5,-1737.6609"/>
<polygon fill="none" stroke="#000000" points="511.5,-1737.6609 511.5,-1760.6609 668.5,-1760.6609 668.5,-1737.6609 511.5,-1737.6609"/>
<text text-anchor="start" x="516.5" y="-1746.7609" font-family="Helvetica,sans-Serif" font-weight="bold" font-size="11.00" fill="#000000">protocol_mapper</text>
<text text-anchor="start" x="633.5437" y="-1745.7609" font-family="Helvetica,sans-Serif" font-size="11.00" fill="#000000">[table]</text>
<polygon fill="none" stroke="#000000" points="511.5,-1715.6609 511.5,-1737.6609 668.5,-1737.6609 668.5,-1715.6609 511.5,-1715.6609"/>
<image xlink:href="../../images/primaryKeys.png" width="11px" height="12px" preserveAspectRatio="xMinYMin meet" x="516.5" y="-1732.66"/>
<text text-anchor="start" x="531.5" y="-1722.7609" font-family="Helvetica,sans-Serif" font-size="11.00" fill="#000000">id</text>
<polygon fill="#ffffff" stroke="transparent" points="511.5,-1693.6609 511.5,-1715.6609 668.5,-1715.6609 668.5,-1693.6609 511.5,-1693.6609"/>
<polygon fill="none" stroke="#000000" points="511.5,-1693.6609 511.5,-1715.6609 668.5,-1715.6609 668.5,-1693.6609 511.5,-1693.6609"/>
<image xlink:href="../../images/foreignKeys.png" width="11px" height="12px" preserveAspectRatio="xMinYMin meet" x="516.5" y="-1710.66"/>
<text text-anchor="start" x="531.5" y="-1700.7609" font-family="Helvetica,sans-Serif" font-size="11.00" fill="#000000">client_id</text>
<polygon fill="#ffffff" stroke="transparent" points="511.5,-1671.6609 511.5,-1693.6609 668.5,-1693.6609 668.5,-1671.6609 511.5,-1671.6609"/>
<polygon fill="none" stroke="#000000" points="511.5,-1671.6609 511.5,-1693.6609 668.5,-1693.6609 668.5,-1671.6609 511.5,-1671.6609"/>
<image xlink:href="../../images/foreignKeys.png" width="11px" height="12px" preserveAspectRatio="xMinYMin meet" x="516.5" y="-1688.66"/>
<text text-anchor="start" x="531.5" y="-1678.7609" font-family="Helvetica,sans-Serif" font-size="11.00" fill="#000000">client_scope_id</text>
<polygon fill="none" stroke="#000000" points="511.5,-1652.6609 511.5,-1671.6609 668.5,-1671.6609 668.5,-1652.6609 511.5,-1652.6609"/>
<text text-anchor="start" x="514.5" y="-1658.7609" font-family="Helvetica,sans-Serif" font-size="11.00" fill="#000000">...</text>
<polygon fill="#ffffff" stroke="transparent" points="511.5,-1633.6609 511.5,-1652.6609 567.5,-1652.6609 567.5,-1633.6609 511.5,-1633.6609"/>
<polygon fill="none" stroke="#000000" points="511.5,-1633.6609 511.5,-1652.6609 567.5,-1652.6609 567.5,-1633.6609 511.5,-1633.6609"/>
<text text-anchor="start" x="514.5" y="-1639.7609" font-family="Helvetica,sans-Serif" font-size="11.00" fill="#000000">&lt; 2</text>
<polygon fill="#ffffff" stroke="transparent" points="567.5,-1633.6609 567.5,-1652.6609 629.5,-1652.6609 629.5,-1633.6609 567.5,-1633.6609"/>
<polygon fill="none" stroke="#000000" points="567.5,-1633.6609 567.5,-1652.6609 629.5,-1652.6609 629.5,-1633.6609 567.5,-1633.6609"/>
<text text-anchor="start" x="587.9956" y="-1639.7609" font-family="Helvetica,sans-Serif" font-size="11.00" fill="#000000">28 rows</text>
<polygon fill="#ffffff" stroke="transparent" points="629.5,-1633.6609 629.5,-1652.6609 668.5,-1652.6609 668.5,-1633.6609 629.5,-1633.6609"/>
<polygon fill="none" stroke="#000000" points="629.5,-1633.6609 629.5,-1652.6609 668.5,-1652.6609 668.5,-1633.6609 629.5,-1633.6609"/>
<text text-anchor="start" x="649.9053" y="-1639.7609" font-family="Helvetica,sans-Serif" font-size="11.00" fill="#000000">1 &gt;</text>
</a>
</g>
</g>
<!-- protocol_mapper&#45;&gt;client -->
<g id="edge19" class="edge">
<title>protocol_mapper:w&#45;&gt;client:e</title>
<path fill="none" stroke="#000000" d="M497.2055,-1702.2382C481.2107,-1695.8703 477.9083,-1678.1531 459,-1663.6609 433.1785,-1643.8702 433.0334,-1619.6609 400.5,-1619.6609"/>
<polygon fill="#000000" stroke="#000000" points="503.6125,-1703.3241 510.8984,-1708.2103 507.5562,-1703.9925 511.5,-1704.6609 511.5,-1704.6609 511.5,-1704.6609 507.5562,-1703.9925 512.1016,-1701.1115 503.6125,-1703.3241 503.6125,-1703.3241"/>
<ellipse fill="none" stroke="#000000" cx="500.4575" cy="-1702.7893" rx="3.2" ry="3.2"/>
</g>
<!-- protocol_mapper&#45;&gt;client_scope -->
<g id="edge20" class="edge">
<title>protocol_mapper:w&#45;&gt;client_scope:e</title>
<path fill="none" stroke="#000000" d="M497.0701,-1680.9418C418.3933,-1659.8946 542.0493,-1452.6609 440.5,-1452.6609"/>
<polygon fill="#000000" stroke="#000000" points="503.5562,-1681.7145 511.0741,-1686.2356 507.5281,-1682.1877 511.5,-1682.6609 511.5,-1682.6609 511.5,-1682.6609 507.5281,-1682.1877 511.9259,-1679.0862 503.5562,-1681.7145 503.5562,-1681.7145"/>
<ellipse fill="none" stroke="#000000" cx="500.3786" cy="-1681.3359" rx="3.2" ry="3.2"/>
</g>
<!-- protocol_mapper_config -->
<g id="node18" class="node">
<title>protocol_mapper_config</title>
<g id="a_node18"><a xlink:href="../../tables/protocol_mapper_config.html" xlink:title="protocol_mapper_config" target="_top">
<polygon fill="#ffffff" stroke="transparent" points="728,-1699.1609 728,-1760.1609 888,-1760.1609 888,-1699.1609 728,-1699.1609"/>
<polygon fill="#f5f5f5" stroke="transparent" points="728,-1736.6609 728,-1759.6609 888,-1759.6609 888,-1736.6609 728,-1736.6609"/>
<polygon fill="none" stroke="#000000" points="728,-1736.6609 728,-1759.6609 888,-1759.6609 888,-1736.6609 728,-1736.6609"/>
<text text-anchor="start" x="732.5125" y="-1745.7609" font-family="Helvetica,sans-Serif" font-weight="bold" font-size="11.00" fill="#000000">protocol_mapper_config</text>
<text text-anchor="start" x="853.5219" y="-1744.7609" font-family="Helvetica,sans-Serif" font-size="11.00" fill="#000000">[table]</text>
<polygon fill="none" stroke="#000000" points="728,-1717.6609 728,-1736.6609 888,-1736.6609 888,-1717.6609 728,-1717.6609"/>
<text text-anchor="start" x="731" y="-1723.7609" font-family="Helvetica,sans-Serif" font-size="11.00" fill="#000000">...</text>
<polygon fill="#ffffff" stroke="transparent" points="728,-1698.6609 728,-1717.6609 787,-1717.6609 787,-1698.6609 728,-1698.6609"/>
<polygon fill="none" stroke="#000000" points="728,-1698.6609 728,-1717.6609 787,-1717.6609 787,-1698.6609 728,-1698.6609"/>
<text text-anchor="start" x="731" y="-1704.7609" font-family="Helvetica,sans-Serif" font-size="11.00" fill="#000000">&lt; 1</text>
<polygon fill="#ffffff" stroke="transparent" points="787,-1698.6609 787,-1717.6609 856,-1717.6609 856,-1698.6609 787,-1698.6609"/>
<polygon fill="none" stroke="#000000" points="787,-1698.6609 787,-1717.6609 856,-1717.6609 856,-1698.6609 787,-1698.6609"/>
<text text-anchor="start" x="808.3807" y="-1704.7609" font-family="Helvetica,sans-Serif" font-size="11.00" fill="#000000">145 rows</text>
<polygon fill="#ffffff" stroke="transparent" points="856,-1698.6609 856,-1717.6609 888,-1717.6609 888,-1698.6609 856,-1698.6609"/>
<polygon fill="none" stroke="#000000" points="856,-1698.6609 856,-1717.6609 888,-1717.6609 888,-1698.6609 856,-1698.6609"/>
<text text-anchor="start" x="878.8862" y="-1704.7609" font-family="Helvetica,sans-Serif" font-size="11.00" fill="#000000"> &#160;</text>
</a>
</g>
</g>
<!-- protocol_mapper_config&#45;&gt;protocol_mapper -->
<g id="edge21" class="edge">
<title>protocol_mapper_config:w&#45;&gt;protocol_mapper:e</title>
<path fill="none" stroke="#000000" d="M713.5408,-1726.6609C697.884,-1726.6609 689.3663,-1726.6609 668.5,-1726.6609"/>
<polygon fill="#000000" stroke="#000000" points="720,-1726.6609 728,-1730.2609 724,-1726.6609 728,-1726.6609 728,-1726.6609 728,-1726.6609 724,-1726.6609 728,-1723.0609 720,-1726.6609 720,-1726.6609"/>
<ellipse fill="none" stroke="#000000" cx="716.8" cy="-1726.661" rx="3.2" ry="3.2"/>
</g>
<!-- realm_attribute -->
<g id="node19" class="node">
<title>realm_attribute</title>
<g id="a_node19"><a xlink:href="../../tables/realm_attribute.html" xlink:title="realm_attribute" target="_top">
<polygon fill="#ffffff" stroke="transparent" points="302.5,-812.1609 302.5,-873.1609 418.5,-873.1609 418.5,-812.1609 302.5,-812.1609"/>
<polygon fill="#f5f5f5" stroke="transparent" points="302.5,-849.6609 302.5,-872.6609 418.5,-872.6609 418.5,-849.6609 302.5,-849.6609"/>
<polygon fill="none" stroke="#000000" points="302.5,-849.6609 302.5,-872.6609 418.5,-872.6609 418.5,-849.6609 302.5,-849.6609"/>
<text text-anchor="start" x="307.3288" y="-858.7609" font-family="Helvetica,sans-Serif" font-weight="bold" font-size="11.00" fill="#000000">realm_attribute</text>
<text text-anchor="start" x="384.0219" y="-857.7609" font-family="Helvetica,sans-Serif" font-size="11.00" fill="#000000">[table]</text>
<polygon fill="none" stroke="#000000" points="302.5,-830.6609 302.5,-849.6609 418.5,-849.6609 418.5,-830.6609 302.5,-830.6609"/>
<text text-anchor="start" x="305.5" y="-836.7609" font-family="Helvetica,sans-Serif" font-size="11.00" fill="#000000">...</text>
<polygon fill="#ffffff" stroke="transparent" points="302.5,-811.6609 302.5,-830.6609 342.5,-830.6609 342.5,-811.6609 302.5,-811.6609"/>
<polygon fill="none" stroke="#000000" points="302.5,-811.6609 302.5,-830.6609 342.5,-830.6609 342.5,-811.6609 302.5,-811.6609"/>
<text text-anchor="start" x="305.5" y="-817.7609" font-family="Helvetica,sans-Serif" font-size="11.00" fill="#000000">&lt; 1</text>
<polygon fill="#ffffff" stroke="transparent" points="342.5,-811.6609 342.5,-830.6609 396.5,-830.6609 396.5,-811.6609 342.5,-811.6609"/>
<polygon fill="none" stroke="#000000" points="342.5,-811.6609 342.5,-830.6609 396.5,-830.6609 396.5,-811.6609 342.5,-811.6609"/>
<text text-anchor="start" x="354.9956" y="-817.7609" font-family="Helvetica,sans-Serif" font-size="11.00" fill="#000000">19 rows</text>
<polygon fill="#ffffff" stroke="transparent" points="396.5,-811.6609 396.5,-830.6609 418.5,-830.6609 418.5,-811.6609 396.5,-811.6609"/>
<polygon fill="none" stroke="#000000" points="396.5,-811.6609 396.5,-830.6609 418.5,-830.6609 418.5,-811.6609 396.5,-811.6609"/>
<text text-anchor="start" x="409.3862" y="-817.7609" font-family="Helvetica,sans-Serif" font-size="11.00" fill="#000000"> &#160;</text>
</a>
</g>
</g>
<!-- realm_attribute&#45;&gt;realm -->
<g id="edge22" class="edge">
<title>realm_attribute:w&#45;&gt;realm:e</title>
<path fill="none" stroke="#000000" d="M288.1094,-842.3892C255.0966,-856.6174 267.124,-921.6609 221.5,-921.6609"/>
<polygon fill="#000000" stroke="#000000" points="294.64,-841.1511 303.1706,-843.1979 298.57,-840.406 302.5,-839.6609 302.5,-839.6609 302.5,-839.6609 298.57,-840.406 301.8294,-836.1239 294.64,-841.1511 294.64,-841.1511"/>
<ellipse fill="none" stroke="#000000" cx="291.496" cy="-841.7472" rx="3.2" ry="3.2"/>
</g>
<!-- realm_default_groups -->
<g id="node20" class="node">
<title>realm_default_groups</title>
<g id="a_node20"><a xlink:href="../../tables/realm_default_groups.html" xlink:title="realm_default_groups" target="_top">
<polygon fill="#ffffff" stroke="transparent" points="286,-730.1609 286,-791.1609 435,-791.1609 435,-730.1609 286,-730.1609"/>
<polygon fill="#f5f5f5" stroke="transparent" points="286.5,-767.6609 286.5,-790.6609 435.5,-790.6609 435.5,-767.6609 286.5,-767.6609"/>
<polygon fill="none" stroke="#000000" points="286.5,-767.6609 286.5,-790.6609 435.5,-790.6609 435.5,-767.6609 286.5,-767.6609"/>
<text text-anchor="start" x="291.32" y="-776.7609" font-family="Helvetica,sans-Serif" font-weight="bold" font-size="11.00" fill="#000000">realm_default_groups</text>
<text text-anchor="start" x="401.0219" y="-775.7609" font-family="Helvetica,sans-Serif" font-size="11.00" fill="#000000">[table]</text>
<polygon fill="none" stroke="#000000" points="286.5,-748.6609 286.5,-767.6609 435.5,-767.6609 435.5,-748.6609 286.5,-748.6609"/>
<text text-anchor="start" x="289.5" y="-754.7609" font-family="Helvetica,sans-Serif" font-size="11.00" fill="#000000">...</text>
<polygon fill="#ffffff" stroke="transparent" points="286.5,-729.6609 286.5,-748.6609 346.5,-748.6609 346.5,-729.6609 286.5,-729.6609"/>
<polygon fill="none" stroke="#000000" points="286.5,-729.6609 286.5,-748.6609 346.5,-748.6609 346.5,-729.6609 286.5,-729.6609"/>
<text text-anchor="start" x="289.5" y="-735.7609" font-family="Helvetica,sans-Serif" font-size="11.00" fill="#000000">&lt; 1</text>
<polygon fill="#ffffff" stroke="transparent" points="346.5,-729.6609 346.5,-748.6609 403.5,-748.6609 403.5,-729.6609 346.5,-729.6609"/>
<polygon fill="none" stroke="#000000" points="346.5,-729.6609 346.5,-748.6609 403.5,-748.6609 403.5,-729.6609 346.5,-729.6609"/>
<text text-anchor="start" x="368.1105" y="-735.7609" font-family="Helvetica,sans-Serif" font-size="11.00" fill="#000000">0 rows</text>
<polygon fill="#ffffff" stroke="transparent" points="403.5,-729.6609 403.5,-748.6609 435.5,-748.6609 435.5,-729.6609 403.5,-729.6609"/>
<polygon fill="none" stroke="#000000" points="403.5,-729.6609 403.5,-748.6609 435.5,-748.6609 435.5,-729.6609 403.5,-729.6609"/>
<text text-anchor="start" x="426.3862" y="-735.7609" font-family="Helvetica,sans-Serif" font-size="11.00" fill="#000000"> &#160;</text>
</a>
</g>
</g>
<!-- realm_default_groups&#45;&gt;realm -->
<g id="edge23" class="edge">
<title>realm_default_groups:w&#45;&gt;realm:e</title>
<path fill="none" stroke="#000000" d="M272.0403,-760.1065C220.4754,-780.5075 294.2391,-921.6609 221.5,-921.6609"/>
<polygon fill="#000000" stroke="#000000" points="278.612,-758.995 287.1004,-761.2105 282.556,-758.328 286.5,-757.6609 286.5,-757.6609 286.5,-757.6609 282.556,-758.328 285.8996,-754.1113 278.612,-758.995 278.612,-758.995"/>
<ellipse fill="none" stroke="#000000" cx="275.4568" cy="-759.5287" rx="3.2" ry="3.2"/>
</g>
<!-- realm_default_roles -->
<g id="node21" class="node">
<title>realm_default_roles</title>
<g id="a_node21"><a xlink:href="../../tables/realm_default_roles.html" xlink:title="realm_default_roles" target="_top">
<polygon fill="#ffffff" stroke="transparent" points="291,-648.1609 291,-709.1609 430,-709.1609 430,-648.1609 291,-648.1609"/>
<polygon fill="#f5f5f5" stroke="transparent" points="291.5,-685.6609 291.5,-708.6609 430.5,-708.6609 430.5,-685.6609 291.5,-685.6609"/>
<polygon fill="none" stroke="#000000" points="291.5,-685.6609 291.5,-708.6609 430.5,-708.6609 430.5,-685.6609 291.5,-685.6609"/>
<text text-anchor="start" x="296.2144" y="-694.7609" font-family="Helvetica,sans-Serif" font-weight="bold" font-size="11.00" fill="#000000">realm_default_roles</text>
<text text-anchor="start" x="396.0219" y="-693.7609" font-family="Helvetica,sans-Serif" font-size="11.00" fill="#000000">[table]</text>
<polygon fill="none" stroke="#000000" points="291.5,-666.6609 291.5,-685.6609 430.5,-685.6609 430.5,-666.6609 291.5,-666.6609"/>
<text text-anchor="start" x="294.5" y="-672.7609" font-family="Helvetica,sans-Serif" font-size="11.00" fill="#000000">...</text>
<polygon fill="#ffffff" stroke="transparent" points="291.5,-647.6609 291.5,-666.6609 346.5,-666.6609 346.5,-647.6609 291.5,-647.6609"/>
<polygon fill="none" stroke="#000000" points="291.5,-647.6609 291.5,-666.6609 346.5,-666.6609 346.5,-647.6609 291.5,-647.6609"/>
<text text-anchor="start" x="294.5" y="-653.7609" font-family="Helvetica,sans-Serif" font-size="11.00" fill="#000000">&lt; 1</text>
<polygon fill="#ffffff" stroke="transparent" points="346.5,-647.6609 346.5,-666.6609 401.5,-666.6609 401.5,-647.6609 346.5,-647.6609"/>
<polygon fill="none" stroke="#000000" points="346.5,-647.6609 346.5,-666.6609 401.5,-666.6609 401.5,-647.6609 346.5,-647.6609"/>
<text text-anchor="start" x="366.1105" y="-653.7609" font-family="Helvetica,sans-Serif" font-size="11.00" fill="#000000">2 rows</text>
<polygon fill="#ffffff" stroke="transparent" points="401.5,-647.6609 401.5,-666.6609 430.5,-666.6609 430.5,-647.6609 401.5,-647.6609"/>
<polygon fill="none" stroke="#000000" points="401.5,-647.6609 401.5,-666.6609 430.5,-666.6609 430.5,-647.6609 401.5,-647.6609"/>
<text text-anchor="start" x="421.3862" y="-653.7609" font-family="Helvetica,sans-Serif" font-size="11.00" fill="#000000"> &#160;</text>
</a>
</g>
</g>
<!-- realm_default_roles&#45;&gt;realm -->
<g id="edge24" class="edge">
<title>realm_default_roles:w&#45;&gt;realm:e</title>
<path fill="none" stroke="#000000" d="M277.649,-679.946C268.7403,-687.4506 268.6414,-703.6971 262,-719.6609 244.4145,-761.931 267.2822,-921.6609 221.5,-921.6609"/>
<polygon fill="#000000" stroke="#000000" points="283.8574,-678.0254 292.564,-679.1001 287.6787,-676.8431 291.5,-675.6609 291.5,-675.6609 291.5,-675.6609 287.6787,-676.8431 290.436,-672.2217 283.8574,-678.0254 283.8574,-678.0254"/>
<ellipse fill="none" stroke="#000000" cx="280.8003" cy="-678.9711" rx="3.2" ry="3.2"/>
</g>
<!-- realm_enabled_event_types -->
<g id="node22" class="node">
<title>realm_enabled_event_types</title>
<g id="a_node22"><a xlink:href="../../tables/realm_enabled_event_types.html" xlink:title="realm_enabled_event_types" target="_top">
<polygon fill="#ffffff" stroke="transparent" points="270,-566.1609 270,-627.1609 451,-627.1609 451,-566.1609 270,-566.1609"/>
<polygon fill="#f5f5f5" stroke="transparent" points="270.5,-603.6609 270.5,-626.6609 451.5,-626.6609 451.5,-603.6609 270.5,-603.6609"/>
<polygon fill="none" stroke="#000000" points="270.5,-603.6609 270.5,-626.6609 451.5,-626.6609 451.5,-603.6609 270.5,-603.6609"/>
<text text-anchor="start" x="275.4211" y="-612.7609" font-family="Helvetica,sans-Serif" font-weight="bold" font-size="11.00" fill="#000000">realm_enabled_event_types</text>
<text text-anchor="start" x="417.0219" y="-611.7609" font-family="Helvetica,sans-Serif" font-size="11.00" fill="#000000">[table]</text>
<polygon fill="none" stroke="#000000" points="270.5,-584.6609 270.5,-603.6609 451.5,-603.6609 451.5,-584.6609 270.5,-584.6609"/>
<text text-anchor="start" x="273.5" y="-590.7609" font-family="Helvetica,sans-Serif" font-size="11.00" fill="#000000">...</text>
<polygon fill="#ffffff" stroke="transparent" points="270.5,-565.6609 270.5,-584.6609 346.5,-584.6609 346.5,-565.6609 270.5,-565.6609"/>
<polygon fill="none" stroke="#000000" points="270.5,-565.6609 270.5,-584.6609 346.5,-584.6609 346.5,-565.6609 270.5,-565.6609"/>
<text text-anchor="start" x="273.5" y="-571.7609" font-family="Helvetica,sans-Serif" font-size="11.00" fill="#000000">&lt; 1</text>
<polygon fill="#ffffff" stroke="transparent" points="346.5,-565.6609 346.5,-584.6609 411.5,-584.6609 411.5,-565.6609 346.5,-565.6609"/>
<polygon fill="none" stroke="#000000" points="346.5,-565.6609 346.5,-584.6609 411.5,-584.6609 411.5,-565.6609 346.5,-565.6609"/>
<text text-anchor="start" x="376.1105" y="-571.7609" font-family="Helvetica,sans-Serif" font-size="11.00" fill="#000000">0 rows</text>
<polygon fill="#ffffff" stroke="transparent" points="411.5,-565.6609 411.5,-584.6609 451.5,-584.6609 451.5,-565.6609 411.5,-565.6609"/>
<polygon fill="none" stroke="#000000" points="411.5,-565.6609 411.5,-584.6609 451.5,-584.6609 451.5,-565.6609 411.5,-565.6609"/>
<text text-anchor="start" x="442.3862" y="-571.7609" font-family="Helvetica,sans-Serif" font-size="11.00" fill="#000000"> &#160;</text>
</a>
</g>
</g>
<!-- realm_enabled_event_types&#45;&gt;realm -->
<g id="edge25" class="edge">
<title>realm_enabled_event_types:w&#45;&gt;realm:e</title>
<path fill="none" stroke="#000000" d="M256.7939,-598.813C210.4599,-640.5416 289.728,-921.6609 221.5,-921.6609"/>
<polygon fill="#000000" stroke="#000000" points="263.0116,-596.4758 271.7667,-597.0307 266.7558,-595.0683 270.5,-593.6609 270.5,-593.6609 270.5,-593.6609 266.7558,-595.0683 269.2333,-590.2911 263.0116,-596.4758 263.0116,-596.4758"/>
<ellipse fill="none" stroke="#000000" cx="260.0162" cy="-597.6018" rx="3.2" ry="3.2"/>
</g>
<!-- realm_events_listeners -->
<g id="node23" class="node">
<title>realm_events_listeners</title>
<g id="a_node23"><a xlink:href="../../tables/realm_events_listeners.html" xlink:title="realm_events_listeners" target="_top">
<polygon fill="#ffffff" stroke="transparent" points="282.5,-484.1609 282.5,-545.1609 438.5,-545.1609 438.5,-484.1609 282.5,-484.1609"/>
<polygon fill="#f5f5f5" stroke="transparent" points="282.5,-521.6609 282.5,-544.6609 438.5,-544.6609 438.5,-521.6609 282.5,-521.6609"/>
<polygon fill="none" stroke="#000000" points="282.5,-521.6609 282.5,-544.6609 438.5,-544.6609 438.5,-521.6609 282.5,-521.6609"/>
<text text-anchor="start" x="287.4644" y="-530.7609" font-family="Helvetica,sans-Serif" font-weight="bold" font-size="11.00" fill="#000000">realm_events_listeners</text>
<text text-anchor="start" x="404.0219" y="-529.7609" font-family="Helvetica,sans-Serif" font-size="11.00" fill="#000000">[table]</text>
<polygon fill="none" stroke="#000000" points="282.5,-502.6609 282.5,-521.6609 438.5,-521.6609 438.5,-502.6609 282.5,-502.6609"/>
<text text-anchor="start" x="285.5" y="-508.7609" font-family="Helvetica,sans-Serif" font-size="11.00" fill="#000000">...</text>
<polygon fill="#ffffff" stroke="transparent" points="282.5,-483.6609 282.5,-502.6609 348.5,-502.6609 348.5,-483.6609 282.5,-483.6609"/>
<polygon fill="none" stroke="#000000" points="282.5,-483.6609 282.5,-502.6609 348.5,-502.6609 348.5,-483.6609 282.5,-483.6609"/>
<text text-anchor="start" x="285.5" y="-489.7609" font-family="Helvetica,sans-Serif" font-size="11.00" fill="#000000">&lt; 1</text>
<polygon fill="#ffffff" stroke="transparent" points="348.5,-483.6609 348.5,-502.6609 403.5,-502.6609 403.5,-483.6609 348.5,-483.6609"/>
<polygon fill="none" stroke="#000000" points="348.5,-483.6609 348.5,-502.6609 403.5,-502.6609 403.5,-483.6609 348.5,-483.6609"/>
<text text-anchor="start" x="373.6105" y="-489.7609" font-family="Helvetica,sans-Serif" font-size="11.00" fill="#000000">1 row</text>
<polygon fill="#ffffff" stroke="transparent" points="403.5,-483.6609 403.5,-502.6609 438.5,-502.6609 438.5,-483.6609 403.5,-483.6609"/>
<polygon fill="none" stroke="#000000" points="403.5,-483.6609 403.5,-502.6609 438.5,-502.6609 438.5,-483.6609 403.5,-483.6609"/>
<text text-anchor="start" x="429.3862" y="-489.7609" font-family="Helvetica,sans-Serif" font-size="11.00" fill="#000000"> &#160;</text>
</a>
</g>
</g>
<!-- realm_events_listeners&#45;&gt;realm -->
<g id="edge26" class="edge">
<title>realm_events_listeners:w&#45;&gt;realm:e</title>
<path fill="none" stroke="#000000" d="M268.4394,-515.7188C204.0875,-558.3001 308.2167,-921.6609 221.5,-921.6609"/>
<polygon fill="#000000" stroke="#000000" points="274.8137,-513.8792 283.4982,-515.1197 278.6568,-512.77 282.5,-511.6609 282.5,-511.6609 282.5,-511.6609 278.6568,-512.77 281.5018,-508.202 274.8137,-513.8792 274.8137,-513.8792"/>
<ellipse fill="none" stroke="#000000" cx="271.7392" cy="-514.7665" rx="3.2" ry="3.2"/>
</g>
<!-- realm_required_credential -->
<g id="node24" class="node">
<title>realm_required_credential</title>
<g id="a_node24"><a xlink:href="../../tables/realm_required_credential.html" xlink:title="realm_required_credential" target="_top">
<polygon fill="#ffffff" stroke="transparent" points="275.5,-402.1609 275.5,-463.1609 445.5,-463.1609 445.5,-402.1609 275.5,-402.1609"/>
<polygon fill="#f5f5f5" stroke="transparent" points="275.5,-439.6609 275.5,-462.6609 445.5,-462.6609 445.5,-439.6609 275.5,-439.6609"/>
<polygon fill="none" stroke="#000000" points="275.5,-439.6609 275.5,-462.6609 445.5,-462.6609 445.5,-439.6609 275.5,-439.6609"/>
<text text-anchor="start" x="280.1307" y="-448.7609" font-family="Helvetica,sans-Serif" font-weight="bold" font-size="11.00" fill="#000000">realm_required_credential</text>
<text text-anchor="start" x="411.0219" y="-447.7609" font-family="Helvetica,sans-Serif" font-size="11.00" fill="#000000">[table]</text>
<polygon fill="none" stroke="#000000" points="275.5,-420.6609 275.5,-439.6609 445.5,-439.6609 445.5,-420.6609 275.5,-420.6609"/>
<text text-anchor="start" x="278.5" y="-426.7609" font-family="Helvetica,sans-Serif" font-size="11.00" fill="#000000">...</text>
<polygon fill="#ffffff" stroke="transparent" points="275.5,-401.6609 275.5,-420.6609 348.5,-420.6609 348.5,-401.6609 275.5,-401.6609"/>
<polygon fill="none" stroke="#000000" points="275.5,-401.6609 275.5,-420.6609 348.5,-420.6609 348.5,-401.6609 275.5,-401.6609"/>
<text text-anchor="start" x="278.5" y="-407.7609" font-family="Helvetica,sans-Serif" font-size="11.00" fill="#000000">&lt; 1</text>
<polygon fill="#ffffff" stroke="transparent" points="348.5,-401.6609 348.5,-420.6609 406.5,-420.6609 406.5,-401.6609 348.5,-401.6609"/>
<polygon fill="none" stroke="#000000" points="348.5,-401.6609 348.5,-420.6609 406.5,-420.6609 406.5,-401.6609 348.5,-401.6609"/>
<text text-anchor="start" x="376.6105" y="-407.7609" font-family="Helvetica,sans-Serif" font-size="11.00" fill="#000000">1 row</text>
<polygon fill="#ffffff" stroke="transparent" points="406.5,-401.6609 406.5,-420.6609 445.5,-420.6609 445.5,-401.6609 406.5,-401.6609"/>
<polygon fill="none" stroke="#000000" points="406.5,-401.6609 406.5,-420.6609 445.5,-420.6609 445.5,-401.6609 406.5,-401.6609"/>
<text text-anchor="start" x="436.3862" y="-407.7609" font-family="Helvetica,sans-Serif" font-size="11.00" fill="#000000"> &#160;</text>
</a>
</g>
</g>
<!-- realm_required_credential&#45;&gt;realm -->
<g id="edge27" class="edge">
<title>realm_required_credential:w&#45;&gt;realm:e</title>
<path fill="none" stroke="#000000" d="M261.2978,-433.0654C181.0611,-476.5347 326.1193,-921.6609 221.5,-921.6609"/>
<polygon fill="#000000" stroke="#000000" points="267.7204,-431.5258 276.3392,-433.1617 271.6102,-430.5934 275.5,-429.6609 275.5,-429.6609 275.5,-429.6609 271.6102,-430.5934 274.6608,-426.1601 267.7204,-431.5258 267.7204,-431.5258"/>
<ellipse fill="none" stroke="#000000" cx="264.6086" cy="-432.2718" rx="3.2" ry="3.2"/>
</g>
<!-- realm_smtp_config -->
<g id="node25" class="node">
<title>realm_smtp_config</title>
<g id="a_node25"><a xlink:href="../../tables/realm_smtp_config.html" xlink:title="realm_smtp_config" target="_top">
<polygon fill="#ffffff" stroke="transparent" points="293,-320.1609 293,-381.1609 428,-381.1609 428,-320.1609 293,-320.1609"/>
<polygon fill="#f5f5f5" stroke="transparent" points="293.5,-357.6609 293.5,-380.6609 428.5,-380.6609 428.5,-357.6609 293.5,-357.6609"/>
<polygon fill="none" stroke="#000000" points="293.5,-357.6609 293.5,-380.6609 428.5,-380.6609 428.5,-357.6609 293.5,-357.6609"/>
<text text-anchor="start" x="298.0498" y="-366.7609" font-family="Helvetica,sans-Serif" font-weight="bold" font-size="11.00" fill="#000000">realm_smtp_config</text>
<text text-anchor="start" x="394.0219" y="-365.7609" font-family="Helvetica,sans-Serif" font-size="11.00" fill="#000000">[table]</text>
<polygon fill="none" stroke="#000000" points="293.5,-338.6609 293.5,-357.6609 428.5,-357.6609 428.5,-338.6609 293.5,-338.6609"/>
<text text-anchor="start" x="296.5" y="-344.7609" font-family="Helvetica,sans-Serif" font-size="11.00" fill="#000000">...</text>
<polygon fill="#ffffff" stroke="transparent" points="293.5,-319.6609 293.5,-338.6609 346.5,-338.6609 346.5,-319.6609 293.5,-319.6609"/>
<polygon fill="none" stroke="#000000" points="293.5,-319.6609 293.5,-338.6609 346.5,-338.6609 346.5,-319.6609 293.5,-319.6609"/>
<text text-anchor="start" x="296.5" y="-325.7609" font-family="Helvetica,sans-Serif" font-size="11.00" fill="#000000">&lt; 1</text>
<polygon fill="#ffffff" stroke="transparent" points="346.5,-319.6609 346.5,-338.6609 400.5,-338.6609 400.5,-319.6609 346.5,-319.6609"/>
<polygon fill="none" stroke="#000000" points="346.5,-319.6609 346.5,-338.6609 400.5,-338.6609 400.5,-319.6609 346.5,-319.6609"/>
<text text-anchor="start" x="365.1105" y="-325.7609" font-family="Helvetica,sans-Serif" font-size="11.00" fill="#000000">0 rows</text>
<polygon fill="#ffffff" stroke="transparent" points="400.5,-319.6609 400.5,-338.6609 428.5,-338.6609 428.5,-319.6609 400.5,-319.6609"/>
<polygon fill="none" stroke="#000000" points="400.5,-319.6609 400.5,-338.6609 428.5,-338.6609 428.5,-319.6609 400.5,-319.6609"/>
<text text-anchor="start" x="419.3862" y="-325.7609" font-family="Helvetica,sans-Serif" font-size="11.00" fill="#000000"> &#160;</text>
</a>
</g>
</g>
<!-- realm_smtp_config&#45;&gt;realm -->
<g id="edge28" class="edge">
<title>realm_smtp_config:w&#45;&gt;realm:e</title>
<path fill="none" stroke="#000000" d="M279.2684,-351.5816C269.2491,-358.7742 268.1005,-374.8858 262,-391.6609 241.8151,-447.1651 280.5606,-921.6609 221.5,-921.6609"/>
<polygon fill="#000000" stroke="#000000" points="285.7873,-349.7857 294.4562,-351.1316 289.6437,-348.7233 293.5,-347.6609 293.5,-347.6609 293.5,-347.6609 289.6437,-348.7233 292.5438,-344.1902 285.7873,-349.7857 285.7873,-349.7857"/>
<ellipse fill="none" stroke="#000000" cx="282.7023" cy="-350.6357" rx="3.2" ry="3.2"/>
</g>
<!-- realm_supported_locales -->
<g id="node26" class="node">
<title>realm_supported_locales</title>
<g id="a_node26"><a xlink:href="../../tables/realm_supported_locales.html" xlink:title="realm_supported_locales" target="_top">
<polygon fill="#ffffff" stroke="transparent" points="278,-238.1609 278,-299.1609 443,-299.1609 443,-238.1609 278,-238.1609"/>
<polygon fill="#f5f5f5" stroke="transparent" points="278.5,-275.6609 278.5,-298.6609 443.5,-298.6609 443.5,-275.6609 278.5,-275.6609"/>
<polygon fill="none" stroke="#000000" points="278.5,-275.6609 278.5,-298.6609 443.5,-298.6609 443.5,-275.6609 278.5,-275.6609"/>
<text text-anchor="start" x="283.0705" y="-284.7609" font-family="Helvetica,sans-Serif" font-weight="bold" font-size="11.00" fill="#000000">realm_supported_locales</text>
<text text-anchor="start" x="409.0219" y="-283.7609" font-family="Helvetica,sans-Serif" font-size="11.00" fill="#000000">[table]</text>
<polygon fill="none" stroke="#000000" points="278.5,-256.6609 278.5,-275.6609 443.5,-275.6609 443.5,-256.6609 278.5,-256.6609"/>
<text text-anchor="start" x="281.5" y="-262.7609" font-family="Helvetica,sans-Serif" font-size="11.00" fill="#000000">...</text>
<polygon fill="#ffffff" stroke="transparent" points="278.5,-237.6609 278.5,-256.6609 346.5,-256.6609 346.5,-237.6609 278.5,-237.6609"/>
<polygon fill="none" stroke="#000000" points="278.5,-237.6609 278.5,-256.6609 346.5,-256.6609 346.5,-237.6609 278.5,-237.6609"/>
<text text-anchor="start" x="281.5" y="-243.7609" font-family="Helvetica,sans-Serif" font-size="11.00" fill="#000000">&lt; 1</text>
<polygon fill="#ffffff" stroke="transparent" points="346.5,-237.6609 346.5,-256.6609 407.5,-256.6609 407.5,-237.6609 346.5,-237.6609"/>
<polygon fill="none" stroke="#000000" points="346.5,-237.6609 346.5,-256.6609 407.5,-256.6609 407.5,-237.6609 346.5,-237.6609"/>
<text text-anchor="start" x="372.1105" y="-243.7609" font-family="Helvetica,sans-Serif" font-size="11.00" fill="#000000">0 rows</text>
<polygon fill="#ffffff" stroke="transparent" points="407.5,-237.6609 407.5,-256.6609 443.5,-256.6609 443.5,-237.6609 407.5,-237.6609"/>
<polygon fill="none" stroke="#000000" points="407.5,-237.6609 407.5,-256.6609 443.5,-256.6609 443.5,-237.6609 407.5,-237.6609"/>
<text text-anchor="start" x="434.3862" y="-243.7609" font-family="Helvetica,sans-Serif" font-size="11.00" fill="#000000"> &#160;</text>
</a>
</g>
</g>
<!-- realm_supported_locales&#45;&gt;realm -->
<g id="edge29" class="edge">
<title>realm_supported_locales:w&#45;&gt;realm:e</title>
<path fill="none" stroke="#000000" d="M266.2912,-273.4851C216.1763,-347.4982 289.9479,-921.6609 221.5,-921.6609"/>
<polygon fill="#000000" stroke="#000000" points="271.7645,-269.9775 280.4425,-268.6919 275.1322,-267.8192 278.5,-265.6609 278.5,-265.6609 278.5,-265.6609 275.1322,-267.8192 276.5575,-262.6299 271.7645,-269.9775 271.7645,-269.9775"/>
<ellipse fill="none" stroke="#000000" cx="269.0702" cy="-271.7041" rx="3.2" ry="3.2"/>
</g>
<!-- required_action_provider -->
<g id="node27" class="node">
<title>required_action_provider</title>
<g id="a_node27"><a xlink:href="../../tables/required_action_provider.html" xlink:title="required_action_provider" target="_top">
<polygon fill="#ffffff" stroke="transparent" points="278.5,-156.1609 278.5,-217.1609 442.5,-217.1609 442.5,-156.1609 278.5,-156.1609"/>
<polygon fill="#f5f5f5" stroke="transparent" points="278.5,-193.6609 278.5,-216.6609 442.5,-216.6609 442.5,-193.6609 278.5,-193.6609"/>
<polygon fill="none" stroke="#000000" points="278.5,-193.6609 278.5,-216.6609 442.5,-216.6609 442.5,-193.6609 278.5,-193.6609"/>
<text text-anchor="start" x="283.1821" y="-202.7609" font-family="Helvetica,sans-Serif" font-weight="bold" font-size="11.00" fill="#000000">required_action_provider</text>
<text text-anchor="start" x="408.0219" y="-201.7609" font-family="Helvetica,sans-Serif" font-size="11.00" fill="#000000">[table]</text>
<polygon fill="none" stroke="#000000" points="278.5,-174.6609 278.5,-193.6609 442.5,-193.6609 442.5,-174.6609 278.5,-174.6609"/>
<text text-anchor="start" x="281.5" y="-180.7609" font-family="Helvetica,sans-Serif" font-size="11.00" fill="#000000">...</text>
<polygon fill="#ffffff" stroke="transparent" points="278.5,-155.6609 278.5,-174.6609 345.5,-174.6609 345.5,-155.6609 278.5,-155.6609"/>
<polygon fill="none" stroke="#000000" points="278.5,-155.6609 278.5,-174.6609 345.5,-174.6609 345.5,-155.6609 278.5,-155.6609"/>
<text text-anchor="start" x="281.5" y="-161.7609" font-family="Helvetica,sans-Serif" font-size="11.00" fill="#000000">&lt; 1</text>
<polygon fill="#ffffff" stroke="transparent" points="345.5,-155.6609 345.5,-174.6609 406.5,-174.6609 406.5,-155.6609 345.5,-155.6609"/>
<polygon fill="none" stroke="#000000" points="345.5,-155.6609 345.5,-174.6609 406.5,-174.6609 406.5,-155.6609 345.5,-155.6609"/>
<text text-anchor="start" x="371.1105" y="-161.7609" font-family="Helvetica,sans-Serif" font-size="11.00" fill="#000000">7 rows</text>
<polygon fill="#ffffff" stroke="transparent" points="406.5,-155.6609 406.5,-174.6609 442.5,-174.6609 442.5,-155.6609 406.5,-155.6609"/>
<polygon fill="none" stroke="#000000" points="406.5,-155.6609 406.5,-174.6609 442.5,-174.6609 442.5,-155.6609 406.5,-155.6609"/>
<text text-anchor="start" x="433.3862" y="-161.7609" font-family="Helvetica,sans-Serif" font-size="11.00" fill="#000000"> &#160;</text>
</a>
</g>
</g>
<!-- required_action_provider&#45;&gt;realm -->
<g id="edge30" class="edge">
<title>required_action_provider:w&#45;&gt;realm:e</title>
<path fill="none" stroke="#000000" d="M265.9209,-190.9651C208.2007,-267.6115 298.9252,-921.6609 221.5,-921.6609"/>
<polygon fill="#000000" stroke="#000000" points="271.5817,-187.6781 280.3077,-186.7741 275.0409,-185.6695 278.5,-183.6609 278.5,-183.6609 278.5,-183.6609 275.0409,-185.6695 276.6923,-180.5477 271.5817,-187.6781 271.5817,-187.6781"/>
<ellipse fill="none" stroke="#000000" cx="268.8144" cy="-189.285" rx="3.2" ry="3.2"/>
</g>
<!-- user_federation_mapper -->
<g id="node28" class="node">
<title>user_federation_mapper</title>
<g id="a_node28"><a xlink:href="../../tables/user_federation_mapper.html" xlink:title="user_federation_mapper" target="_top">
<polygon fill="#ffffff" stroke="transparent" points="508.5,-48.1609 508.5,-109.1609 670.5,-109.1609 670.5,-48.1609 508.5,-48.1609"/>
<polygon fill="#f5f5f5" stroke="transparent" points="508.5,-85.6609 508.5,-108.6609 670.5,-108.6609 670.5,-85.6609 508.5,-85.6609"/>
<polygon fill="none" stroke="#000000" points="508.5,-85.6609 508.5,-108.6609 670.5,-108.6609 670.5,-85.6609 508.5,-85.6609"/>
<text text-anchor="start" x="513.0946" y="-94.7609" font-family="Helvetica,sans-Serif" font-weight="bold" font-size="11.00" fill="#000000">user_federation_mapper</text>
<text text-anchor="start" x="636.0219" y="-93.7609" font-family="Helvetica,sans-Serif" font-size="11.00" fill="#000000">[table]</text>
<polygon fill="none" stroke="#000000" points="508.5,-66.6609 508.5,-85.6609 670.5,-85.6609 670.5,-66.6609 508.5,-66.6609"/>
<text text-anchor="start" x="511.5" y="-72.7609" font-family="Helvetica,sans-Serif" font-size="11.00" fill="#000000">...</text>
<polygon fill="#ffffff" stroke="transparent" points="508.5,-47.6609 508.5,-66.6609 570.5,-66.6609 570.5,-47.6609 508.5,-47.6609"/>
<polygon fill="none" stroke="#000000" points="508.5,-47.6609 508.5,-66.6609 570.5,-66.6609 570.5,-47.6609 508.5,-47.6609"/>
<text text-anchor="start" x="511.5" y="-53.7609" font-family="Helvetica,sans-Serif" font-size="11.00" fill="#000000">&lt; 2</text>
<polygon fill="#ffffff" stroke="transparent" points="570.5,-47.6609 570.5,-66.6609 628.5,-66.6609 628.5,-47.6609 570.5,-47.6609"/>
<polygon fill="none" stroke="#000000" points="570.5,-47.6609 570.5,-66.6609 628.5,-66.6609 628.5,-47.6609 570.5,-47.6609"/>
<text text-anchor="start" x="593.1105" y="-53.7609" font-family="Helvetica,sans-Serif" font-size="11.00" fill="#000000">0 rows</text>
<polygon fill="#ffffff" stroke="transparent" points="628.5,-47.6609 628.5,-66.6609 670.5,-66.6609 670.5,-47.6609 628.5,-47.6609"/>
<polygon fill="none" stroke="#000000" points="628.5,-47.6609 628.5,-66.6609 670.5,-66.6609 670.5,-47.6609 628.5,-47.6609"/>
<text text-anchor="start" x="651.9053" y="-53.7609" font-family="Helvetica,sans-Serif" font-size="11.00" fill="#000000">1 &gt;</text>
</a>
</g>
</g>
<!-- user_federation_mapper&#45;&gt;realm -->
<g id="edge32" class="edge">
<title>user_federation_mapper:w&#45;&gt;realm:e</title>
<path fill="none" stroke="#000000" d="M494.0082,-74.0768C482.399,-71.2988 475.6824,-65.6541 459,-63.6609 372.0628,-53.2735 325.3539,-3.2269 262,-63.6609 192.9414,-129.5366 316.9395,-921.6609 221.5,-921.6609"/>
<polygon fill="#000000" stroke="#000000" points="500.5474,-74.7915 508.1088,-79.2396 504.5237,-75.2262 508.5,-75.6609 508.5,-75.6609 508.5,-75.6609 504.5237,-75.2262 508.8912,-72.0822 500.5474,-74.7915 500.5474,-74.7915"/>
<ellipse fill="none" stroke="#000000" cx="497.3663" cy="-74.4438" rx="3.2" ry="3.2"/>
</g>
<!-- user_federation_provider -->
<g id="node29" class="node">
<title>user_federation_provider</title>
<g id="a_node29"><a xlink:href="../../tables/user_federation_provider.html" xlink:title="user_federation_provider" target="_top">
<polygon fill="#ffffff" stroke="transparent" points="278,-74.1609 278,-135.1609 443,-135.1609 443,-74.1609 278,-74.1609"/>
<polygon fill="#f5f5f5" stroke="transparent" points="278.5,-111.6609 278.5,-134.6609 443.5,-134.6609 443.5,-111.6609 278.5,-111.6609"/>
<polygon fill="none" stroke="#000000" points="278.5,-111.6609 278.5,-134.6609 443.5,-134.6609 443.5,-111.6609 278.5,-111.6609"/>
<text text-anchor="start" x="283.3741" y="-120.7609" font-family="Helvetica,sans-Serif" font-weight="bold" font-size="11.00" fill="#000000">user_federation_provider</text>
<text text-anchor="start" x="409.0219" y="-119.7609" font-family="Helvetica,sans-Serif" font-size="11.00" fill="#000000">[table]</text>
<polygon fill="none" stroke="#000000" points="278.5,-92.6609 278.5,-111.6609 443.5,-111.6609 443.5,-92.6609 278.5,-92.6609"/>
<text text-anchor="start" x="281.5" y="-98.7609" font-family="Helvetica,sans-Serif" font-size="11.00" fill="#000000">...</text>
<polygon fill="#ffffff" stroke="transparent" points="278.5,-73.6609 278.5,-92.6609 341.5,-92.6609 341.5,-73.6609 278.5,-73.6609"/>
<polygon fill="none" stroke="#000000" points="278.5,-73.6609 278.5,-92.6609 341.5,-92.6609 341.5,-73.6609 278.5,-73.6609"/>
<text text-anchor="start" x="281.5" y="-79.7609" font-family="Helvetica,sans-Serif" font-size="11.00" fill="#000000">&lt; 1</text>
<polygon fill="#ffffff" stroke="transparent" points="341.5,-73.6609 341.5,-92.6609 400.5,-92.6609 400.5,-73.6609 341.5,-73.6609"/>
<polygon fill="none" stroke="#000000" points="341.5,-73.6609 341.5,-92.6609 400.5,-92.6609 400.5,-73.6609 341.5,-73.6609"/>
<text text-anchor="start" x="365.1105" y="-79.7609" font-family="Helvetica,sans-Serif" font-size="11.00" fill="#000000">0 rows</text>
<polygon fill="#ffffff" stroke="transparent" points="400.5,-73.6609 400.5,-92.6609 443.5,-92.6609 443.5,-73.6609 400.5,-73.6609"/>
<polygon fill="none" stroke="#000000" points="400.5,-73.6609 400.5,-92.6609 443.5,-92.6609 443.5,-73.6609 400.5,-73.6609"/>
<text text-anchor="start" x="424.9053" y="-79.7609" font-family="Helvetica,sans-Serif" font-size="11.00" fill="#000000">2 &gt;</text>
</a>
</g>
</g>
<!-- user_federation_mapper&#45;&gt;user_federation_provider -->
<g id="edge31" class="edge">
<title>user_federation_mapper:w&#45;&gt;user_federation_provider:e</title>
<path fill="none" stroke="#000000" d="M494.144,-77.8776C475.4746,-84.1652 469.0234,-101.6609 443.5,-101.6609"/>
<polygon fill="#000000" stroke="#000000" points="500.5937,-76.8818 509.0494,-79.2187 504.5468,-76.2713 508.5,-75.6609 508.5,-75.6609 508.5,-75.6609 504.5468,-76.2713 507.9506,-72.103 500.5937,-76.8818 500.5937,-76.8818"/>
<ellipse fill="none" stroke="#000000" cx="497.4312" cy="-77.3701" rx="3.2" ry="3.2"/>
</g>
<!-- user_federation_provider&#45;&gt;realm -->
<g id="edge33" class="edge">
<title>user_federation_provider:w&#45;&gt;realm:e</title>
<path fill="none" stroke="#000000" d="M265.3919,-108.7498C200.2643,-188.896 307.8363,-921.6609 221.5,-921.6609"/>
<polygon fill="#000000" stroke="#000000" points="271.4631,-105.4665 280.2125,-104.8275 274.9816,-103.5637 278.5,-101.6609 278.5,-101.6609 278.5,-101.6609 274.9816,-103.5637 276.7875,-98.4943 271.4631,-105.4665 271.4631,-105.4665"/>
<ellipse fill="none" stroke="#000000" cx="268.6484" cy="-106.9887" rx="3.2" ry="3.2"/>
</g>
</g>
</svg>
