<?xml version="1.0" encoding="UTF-8" standalone="no"?>
<!DOCTYPE svg PUBLIC "-//W3C//DTD SVG 1.1//EN"
 "http://www.w3.org/Graphics/SVG/1.1/DTD/svg11.dtd">
<!-- Generated by graphviz version 2.40.1 (20161225.0304)
 -->
<!-- Title: oneDegreeRelationshipsDiagramImplied Pages: 1 -->
<svg width="391pt" height="223pt"
 viewBox="0.00 0.00 391.00 222.70" xmlns="http://www.w3.org/2000/svg" xmlns:xlink="http://www.w3.org/1999/xlink">
<g id="graph0" class="graph" transform="scale(1 1) rotate(0) translate(4 218.7)">
<title>oneDegreeRelationshipsDiagramImplied</title>
<polygon fill="#ffffff" stroke="transparent" points="-4,4 -4,-218.7 387,-218.7 387,4 -4,4"/>
<text text-anchor="middle" x="72.4936" y="-7.3" font-family="Helvetica,sans-Serif" font-size="11.00" fill="#000000">Generated by SchemaSpy</text>
<!-- client_session_note -->
<g id="node1" class="node">
<title>client_session_note</title>
<g id="a_node1"><a xlink:href="../../tables/client_session_note.html" xlink:title="client_session_note" target="_top">
<polygon fill="#ffffff" stroke="transparent" points="169,-98.7 169,-210.7 375,-210.7 375,-98.7 169,-98.7"/>
<polygon fill="#f5f5f5" stroke="transparent" points="171,-185.7 171,-208.7 373,-208.7 373,-185.7 171,-185.7"/>
<polygon fill="none" stroke="#000000" points="171,-185.7 171,-208.7 373,-208.7 373,-185.7 171,-185.7"/>
<text text-anchor="start" x="176" y="-194.8" font-family="Helvetica,sans-Serif" font-weight="bold" font-size="11.00" fill="#000000">client_session_note</text>
<text text-anchor="start" x="338.0437" y="-193.8" font-family="Helvetica,sans-Serif" font-size="11.00" fill="#000000">[table]</text>
<polygon fill="none" stroke="#000000" points="171,-163.7 171,-185.7 306,-185.7 306,-163.7 171,-163.7"/>
<image xlink:href="../../images/primaryKeys.png" width="11px" height="12px" preserveAspectRatio="xMinYMin meet" x="176" y="-180.7"/>
<text text-anchor="start" x="191" y="-170.8" font-family="Helvetica,sans-Serif" font-size="11.00" fill="#000000">name</text>
<polygon fill="none" stroke="#000000" points="306,-163.7 306,-185.7 373,-185.7 373,-163.7 306,-163.7"/>
<text text-anchor="start" x="308.9365" y="-171.4" font-family="Helvetica,sans-Serif" font-size="11.00" fill="#000000">varchar[255]</text>
<polygon fill="none" stroke="#000000" points="171,-141.7 171,-163.7 306,-163.7 306,-141.7 171,-141.7"/>
<text text-anchor="start" x="191" y="-148.8" font-family="Helvetica,sans-Serif" font-size="11.00" fill="#000000">value</text>
<polygon fill="none" stroke="#000000" points="306,-141.7 306,-163.7 373,-163.7 373,-141.7 306,-141.7"/>
<text text-anchor="start" x="308.9365" y="-149.4" font-family="Helvetica,sans-Serif" font-size="11.00" fill="#000000">varchar[255]</text>
<polygon fill="none" stroke="#000000" points="171,-119.7 171,-141.7 306,-141.7 306,-119.7 171,-119.7"/>
<image xlink:href="../../images/primaryKeys.png" width="11px" height="12px" preserveAspectRatio="xMinYMin meet" x="176" y="-136.7"/>
<text text-anchor="start" x="191" y="-126.8" font-family="Helvetica,sans-Serif" font-size="11.00" fill="#000000">client_session</text>
<polygon fill="none" stroke="#000000" points="306,-119.7 306,-141.7 373,-141.7 373,-119.7 306,-119.7"/>
<text text-anchor="start" x="309" y="-127.4" font-family="Helvetica,sans-Serif" font-size="11.00" fill="#000000">varchar[36]</text>
<polygon fill="#ffffff" stroke="transparent" points="171,-100.7 171,-119.7 230,-119.7 230,-100.7 171,-100.7"/>
<polygon fill="none" stroke="#000000" points="171,-100.7 171,-119.7 230,-119.7 230,-100.7 171,-100.7"/>
<text text-anchor="start" x="174" y="-106.8" font-family="Helvetica,sans-Serif" font-size="11.00" fill="#000000">&lt; 1</text>
<polygon fill="#ffffff" stroke="transparent" points="230,-100.7 230,-119.7 306,-119.7 306,-100.7 230,-100.7"/>
<polygon fill="none" stroke="#000000" points="230,-100.7 230,-119.7 306,-119.7 306,-100.7 230,-100.7"/>
<text text-anchor="start" x="270.6105" y="-106.8" font-family="Helvetica,sans-Serif" font-size="11.00" fill="#000000">0 rows</text>
<polygon fill="#ffffff" stroke="transparent" points="306,-100.7 306,-119.7 373,-119.7 373,-100.7 306,-100.7"/>
<polygon fill="none" stroke="#000000" points="306,-100.7 306,-119.7 373,-119.7 373,-100.7 306,-100.7"/>
<text text-anchor="start" x="354.4053" y="-106.8" font-family="Helvetica,sans-Serif" font-size="11.00" fill="#000000">0 &gt;</text>
<polygon fill="none" stroke="#000000" stroke-width="2" points="170,-99.7 170,-209.7 374,-209.7 374,-99.7 170,-99.7"/>
</a>
</g>
</g>
<!-- client_session -->
<g id="node2" class="node">
<title>client_session</title>
<g id="a_node2"><a xlink:href="../../tables/client_session.html" xlink:title="client_session" target="_top">
<polygon fill="#ffffff" stroke="transparent" points="8,-38.2 8,-165.2 120,-165.2 120,-38.2 8,-38.2"/>
<polygon fill="#f5f5f5" stroke="transparent" points="8,-141.7 8,-164.7 120,-164.7 120,-141.7 8,-141.7"/>
<polygon fill="none" stroke="#000000" points="8,-141.7 8,-164.7 120,-164.7 120,-141.7 8,-141.7"/>
<text text-anchor="start" x="12.9655" y="-150.8" font-family="Helvetica,sans-Serif" font-weight="bold" font-size="11.00" fill="#000000">client_session</text>
<text text-anchor="start" x="85.5219" y="-149.8" font-family="Helvetica,sans-Serif" font-size="11.00" fill="#000000">[table]</text>
<polygon fill="none" stroke="#000000" points="8,-119.7 8,-141.7 120,-141.7 120,-119.7 8,-119.7"/>
<image xlink:href="../../images/primaryKeys.png" width="11px" height="12px" preserveAspectRatio="xMinYMin meet" x="13" y="-136.7"/>
<text text-anchor="start" x="32" y="-126.8" font-family="Helvetica,sans-Serif" font-size="11.00" fill="#000000">id</text>
<polygon fill="#ffffff" stroke="transparent" points="8,-97.7 8,-119.7 120,-119.7 120,-97.7 8,-97.7"/>
<polygon fill="none" stroke="#000000" points="8,-97.7 8,-119.7 120,-119.7 120,-97.7 8,-97.7"/>
<image xlink:href="../../images/foreignKeys.png" width="11px" height="12px" preserveAspectRatio="xMinYMin meet" x="13" y="-114.7"/>
<text text-anchor="start" x="32" y="-104.8" font-family="Helvetica,sans-Serif" font-size="11.00" fill="#000000">session_id</text>
<polygon fill="none" stroke="#000000" points="8,-75.7 8,-97.7 120,-97.7 120,-75.7 8,-75.7"/>
<image xlink:href="../../images/foreignKeys.png" width="11px" height="12px" preserveAspectRatio="xMinYMin meet" x="13" y="-92.7"/>
<text text-anchor="start" x="32" y="-82.8" font-family="Helvetica,sans-Serif" font-size="11.00" fill="#000000">realm_id</text>
<polygon fill="none" stroke="#000000" points="8,-56.7 8,-75.7 120,-75.7 120,-56.7 8,-56.7"/>
<text text-anchor="start" x="11" y="-62.8" font-family="Helvetica,sans-Serif" font-size="11.00" fill="#000000">...</text>
<polygon fill="#ffffff" stroke="transparent" points="8,-37.7 8,-56.7 45,-56.7 45,-37.7 8,-37.7"/>
<polygon fill="none" stroke="#000000" points="8,-37.7 8,-56.7 45,-56.7 45,-37.7 8,-37.7"/>
<text text-anchor="start" x="11" y="-43.8" font-family="Helvetica,sans-Serif" font-size="11.00" fill="#000000">&lt; 1</text>
<polygon fill="#ffffff" stroke="transparent" points="45,-37.7 45,-56.7 91,-56.7 91,-37.7 45,-37.7"/>
<polygon fill="none" stroke="#000000" points="45,-37.7 45,-56.7 91,-56.7 91,-37.7 45,-37.7"/>
<text text-anchor="start" x="55.6105" y="-43.8" font-family="Helvetica,sans-Serif" font-size="11.00" fill="#000000">0 rows</text>
<polygon fill="#ffffff" stroke="transparent" points="91,-37.7 91,-56.7 120,-56.7 120,-37.7 91,-37.7"/>
<polygon fill="none" stroke="#000000" points="91,-37.7 91,-56.7 120,-56.7 120,-37.7 91,-37.7"/>
<text text-anchor="start" x="101.4053" y="-43.8" font-family="Helvetica,sans-Serif" font-size="11.00" fill="#000000">5 &gt;</text>
</a>
</g>
</g>
<!-- client_session_note&#45;&gt;client_session -->
<g id="edge1" class="edge">
<title>client_session_note:w&#45;&gt;client_session:e</title>
<path fill="none" stroke="#000000" d="M156.276,-130.7C144.2815,-130.7 136.8229,-130.7 120,-130.7"/>
<polygon fill="#000000" stroke="#000000" points="163,-130.7001 171,-134.3 167,-130.7 171,-130.7 171,-130.7 171,-130.7 167,-130.7 171,-127.1 163,-130.7001 163,-130.7001"/>
<ellipse fill="none" stroke="#000000" cx="159.8" cy="-130.7001" rx="3.2" ry="3.2"/>
</g>
</g>
</svg>
