<?xml version="1.0" encoding="UTF-8" standalone="no"?>
<!DOCTYPE svg PUBLIC "-//W3C//DTD SVG 1.1//EN"
 "http://www.w3.org/Graphics/SVG/1.1/DTD/svg11.dtd">
<!-- Generated by graphviz version 2.40.1 (20161225.0304)
 -->
<!-- Title: twoDegreesRelationshipsDiagramImplied Pages: 1 -->
<svg width="712pt" height="491pt"
 viewBox="0.00 0.00 712.00 491.20" xmlns="http://www.w3.org/2000/svg" xmlns:xlink="http://www.w3.org/1999/xlink">
<g id="graph0" class="graph" transform="scale(1 1) rotate(0) translate(4 487.2)">
<title>twoDegreesRelationshipsDiagramImplied</title>
<polygon fill="#ffffff" stroke="transparent" points="-4,4 -4,-487.2 708,-487.2 708,4 -4,4"/>
<text text-anchor="middle" x="72.4936" y="-7.3" font-family="Helvetica,sans-Serif" font-size="11.00" fill="#000000">Generated by SchemaSpy</text>
<!-- client_session -->
<g id="node1" class="node">
<title>client_session</title>
<g id="a_node1"><a xlink:href="../../tables/client_session.html" xlink:title="client_session" target="_top">
<polygon fill="#ffffff" stroke="transparent" points="329,-137.2 329,-264.2 441,-264.2 441,-137.2 329,-137.2"/>
<polygon fill="#f5f5f5" stroke="transparent" points="329,-240.7 329,-263.7 441,-263.7 441,-240.7 329,-240.7"/>
<polygon fill="none" stroke="#000000" points="329,-240.7 329,-263.7 441,-263.7 441,-240.7 329,-240.7"/>
<text text-anchor="start" x="333.9655" y="-249.8" font-family="Helvetica,sans-Serif" font-weight="bold" font-size="11.00" fill="#000000">client_session</text>
<text text-anchor="start" x="406.5219" y="-248.8" font-family="Helvetica,sans-Serif" font-size="11.00" fill="#000000">[table]</text>
<polygon fill="none" stroke="#000000" points="329,-218.7 329,-240.7 441,-240.7 441,-218.7 329,-218.7"/>
<image xlink:href="../../images/primaryKeys.png" width="11px" height="12px" preserveAspectRatio="xMinYMin meet" x="334" y="-235.7"/>
<text text-anchor="start" x="353" y="-225.8" font-family="Helvetica,sans-Serif" font-size="11.00" fill="#000000">id</text>
<polygon fill="#ffffff" stroke="transparent" points="329,-196.7 329,-218.7 441,-218.7 441,-196.7 329,-196.7"/>
<polygon fill="none" stroke="#000000" points="329,-196.7 329,-218.7 441,-218.7 441,-196.7 329,-196.7"/>
<image xlink:href="../../images/foreignKeys.png" width="11px" height="12px" preserveAspectRatio="xMinYMin meet" x="334" y="-213.7"/>
<text text-anchor="start" x="353" y="-203.8" font-family="Helvetica,sans-Serif" font-size="11.00" fill="#000000">session_id</text>
<polygon fill="none" stroke="#000000" points="329,-174.7 329,-196.7 441,-196.7 441,-174.7 329,-174.7"/>
<image xlink:href="../../images/foreignKeys.png" width="11px" height="12px" preserveAspectRatio="xMinYMin meet" x="334" y="-191.7"/>
<text text-anchor="start" x="353" y="-181.8" font-family="Helvetica,sans-Serif" font-size="11.00" fill="#000000">realm_id</text>
<polygon fill="none" stroke="#000000" points="329,-155.7 329,-174.7 441,-174.7 441,-155.7 329,-155.7"/>
<text text-anchor="start" x="332" y="-161.8" font-family="Helvetica,sans-Serif" font-size="11.00" fill="#000000">...</text>
<polygon fill="#ffffff" stroke="transparent" points="329,-136.7 329,-155.7 366,-155.7 366,-136.7 329,-136.7"/>
<polygon fill="none" stroke="#000000" points="329,-136.7 329,-155.7 366,-155.7 366,-136.7 329,-136.7"/>
<text text-anchor="start" x="332" y="-142.8" font-family="Helvetica,sans-Serif" font-size="11.00" fill="#000000">&lt; 2</text>
<polygon fill="#ffffff" stroke="transparent" points="366,-136.7 366,-155.7 412,-155.7 412,-136.7 366,-136.7"/>
<polygon fill="none" stroke="#000000" points="366,-136.7 366,-155.7 412,-155.7 412,-136.7 366,-136.7"/>
<text text-anchor="start" x="376.6105" y="-142.8" font-family="Helvetica,sans-Serif" font-size="11.00" fill="#000000">0 rows</text>
<polygon fill="#ffffff" stroke="transparent" points="412,-136.7 412,-155.7 441,-155.7 441,-136.7 412,-136.7"/>
<polygon fill="none" stroke="#000000" points="412,-136.7 412,-155.7 441,-155.7 441,-136.7 412,-136.7"/>
<text text-anchor="start" x="422.4053" y="-142.8" font-family="Helvetica,sans-Serif" font-size="11.00" fill="#000000">5 &gt;</text>
</a>
</g>
</g>
<!-- federated_user -->
<g id="node2" class="node">
<title>federated_user</title>
<g id="a_node2"><a xlink:href="../../tables/federated_user.html" xlink:title="federated_user" target="_top">
<polygon fill="#ffffff" stroke="transparent" points="8,-195.2 8,-256.2 124,-256.2 124,-195.2 8,-195.2"/>
<polygon fill="#f5f5f5" stroke="transparent" points="8,-232.7 8,-255.7 124,-255.7 124,-232.7 8,-232.7"/>
<polygon fill="none" stroke="#000000" points="8,-232.7 8,-255.7 124,-255.7 124,-232.7 8,-232.7"/>
<text text-anchor="start" x="12.5142" y="-241.8" font-family="Helvetica,sans-Serif" font-weight="bold" font-size="11.00" fill="#000000">federated_user</text>
<text text-anchor="start" x="89.5219" y="-240.8" font-family="Helvetica,sans-Serif" font-size="11.00" fill="#000000">[table]</text>
<polygon fill="none" stroke="#000000" points="8,-213.7 8,-232.7 124,-232.7 124,-213.7 8,-213.7"/>
<text text-anchor="start" x="11" y="-219.8" font-family="Helvetica,sans-Serif" font-size="11.00" fill="#000000">...</text>
<polygon fill="#ffffff" stroke="transparent" points="8,-194.7 8,-213.7 39,-213.7 39,-194.7 8,-194.7"/>
<polygon fill="none" stroke="#000000" points="8,-194.7 8,-213.7 39,-213.7 39,-194.7 8,-194.7"/>
<text text-anchor="start" x="11" y="-200.8" font-family="Helvetica,sans-Serif" font-size="11.00" fill="#000000"> &#160;</text>
<polygon fill="#ffffff" stroke="transparent" points="39,-194.7 39,-213.7 87,-213.7 87,-194.7 39,-194.7"/>
<polygon fill="none" stroke="#000000" points="39,-194.7 39,-213.7 87,-213.7 87,-194.7 39,-194.7"/>
<text text-anchor="start" x="51.6105" y="-200.8" font-family="Helvetica,sans-Serif" font-size="11.00" fill="#000000">0 rows</text>
<polygon fill="#ffffff" stroke="transparent" points="87,-194.7 87,-213.7 124,-213.7 124,-194.7 87,-194.7"/>
<polygon fill="none" stroke="#000000" points="87,-194.7 87,-213.7 124,-213.7 124,-194.7 87,-194.7"/>
<text text-anchor="start" x="99.2904" y="-200.8" font-family="Helvetica,sans-Serif" font-size="11.00" fill="#000000">30 &gt;</text>
</a>
</g>
</g>
<!-- client_session&#45;&gt;federated_user -->
<g id="edge1" class="edge">
<title>client_session:w&#45;&gt;federated_user:e</title>
<path fill="none" stroke="#000000" stroke-dasharray="5,2" d="M314.3282,-185.3189C252.6196,-182.0853 228.0877,-159.9602 165,-184.7 141.8697,-193.7705 148.8452,-222.7 124,-222.7"/>
<polygon fill="#000000" stroke="#000000" points="321.0027,-185.4922 328.9065,-189.2988 325.0013,-185.5961 329,-185.7 329,-185.7 329,-185.7 325.0013,-185.5961 329.0935,-182.1012 321.0027,-185.4922 321.0027,-185.4922"/>
<ellipse fill="none" stroke="#000000" cx="317.8038" cy="-185.4091" rx="3.2" ry="3.2"/>
</g>
<!-- user_session -->
<g id="node3" class="node">
<title>user_session</title>
<g id="a_node3"><a xlink:href="../../tables/user_session.html" xlink:title="user_session" target="_top">
<polygon fill="#ffffff" stroke="transparent" points="173,-195.2 173,-256.2 280,-256.2 280,-195.2 173,-195.2"/>
<polygon fill="#f5f5f5" stroke="transparent" points="173.5,-232.7 173.5,-255.7 280.5,-255.7 280.5,-232.7 173.5,-232.7"/>
<polygon fill="none" stroke="#000000" points="173.5,-232.7 173.5,-255.7 280.5,-255.7 280.5,-232.7 173.5,-232.7"/>
<text text-anchor="start" x="178.1039" y="-241.8" font-family="Helvetica,sans-Serif" font-weight="bold" font-size="11.00" fill="#000000">user_session</text>
<text text-anchor="start" x="246.0219" y="-240.8" font-family="Helvetica,sans-Serif" font-size="11.00" fill="#000000">[table]</text>
<polygon fill="none" stroke="#000000" points="173.5,-213.7 173.5,-232.7 280.5,-232.7 280.5,-213.7 173.5,-213.7"/>
<text text-anchor="start" x="176.5" y="-219.8" font-family="Helvetica,sans-Serif" font-size="11.00" fill="#000000">...</text>
<polygon fill="#ffffff" stroke="transparent" points="173.5,-194.7 173.5,-213.7 207.5,-213.7 207.5,-194.7 173.5,-194.7"/>
<polygon fill="none" stroke="#000000" points="173.5,-194.7 173.5,-213.7 207.5,-213.7 207.5,-194.7 173.5,-194.7"/>
<text text-anchor="start" x="176.5" y="-200.8" font-family="Helvetica,sans-Serif" font-size="11.00" fill="#000000">&lt; 4</text>
<polygon fill="#ffffff" stroke="transparent" points="207.5,-194.7 207.5,-213.7 252.5,-213.7 252.5,-194.7 207.5,-194.7"/>
<polygon fill="none" stroke="#000000" points="207.5,-194.7 207.5,-213.7 252.5,-213.7 252.5,-194.7 207.5,-194.7"/>
<text text-anchor="start" x="217.1105" y="-200.8" font-family="Helvetica,sans-Serif" font-size="11.00" fill="#000000">0 rows</text>
<polygon fill="#ffffff" stroke="transparent" points="252.5,-194.7 252.5,-213.7 280.5,-213.7 280.5,-194.7 252.5,-194.7"/>
<polygon fill="none" stroke="#000000" points="252.5,-194.7 252.5,-213.7 280.5,-213.7 280.5,-194.7 252.5,-194.7"/>
<text text-anchor="start" x="261.9053" y="-200.8" font-family="Helvetica,sans-Serif" font-size="11.00" fill="#000000">2 &gt;</text>
</a>
</g>
</g>
<!-- client_session&#45;&gt;user_session -->
<g id="edge2" class="edge">
<title>client_session:w&#45;&gt;user_session:e</title>
<path fill="none" stroke="#000000" d="M314.7176,-210.1769C303.4219,-214.4374 297.2459,-222.7 280.5,-222.7"/>
<polygon fill="#000000" stroke="#000000" points="321.1177,-209.0671 329.6152,-211.2471 325.0588,-208.3835 329,-207.7 329,-207.7 329,-207.7 325.0588,-208.3835 328.3848,-204.1529 321.1177,-209.0671 321.1177,-209.0671"/>
<ellipse fill="none" stroke="#000000" cx="317.9647" cy="-209.6139" rx="3.2" ry="3.2"/>
</g>
<!-- user_session&#45;&gt;federated_user -->
<g id="edge8" class="edge">
<title>user_session:w&#45;&gt;federated_user:e</title>
<path fill="none" stroke="#000000" stroke-dasharray="5,2" d="M161.8595,-213.4737C148.5848,-204.4839 141.5313,-207.5594 124,-222.7"/>
<polygon fill="#000000" stroke="#000000" points="167.2305,-217.7307 171.2638,-225.5213 170.3652,-220.2154 173.5,-222.7 173.5,-222.7 173.5,-222.7 170.3652,-220.2154 175.7362,-219.8787 167.2305,-217.7307 167.2305,-217.7307"/>
<ellipse fill="none" stroke="#000000" cx="164.7227" cy="-215.743" rx="3.2" ry="3.2"/>
</g>
<!-- user_session&#45;&gt;federated_user -->
<g id="edge9" class="edge">
<title>user_session:w&#45;&gt;federated_user:e</title>
<path fill="none" stroke="#000000" stroke-dasharray="5,2" d="M159.209,-219.2558C147.5674,-217.0988 140.3281,-218.2469 124,-222.7"/>
<polygon fill="#000000" stroke="#000000" points="165.7227,-220.8256 172.6565,-226.1998 169.6113,-221.7628 173.5,-222.7 173.5,-222.7 173.5,-222.7 169.6113,-221.7628 174.3435,-219.2002 165.7227,-220.8256 165.7227,-220.8256"/>
<ellipse fill="none" stroke="#000000" cx="162.6118" cy="-220.0758" rx="3.2" ry="3.2"/>
</g>
<!-- user_session&#45;&gt;federated_user -->
<g id="edge10" class="edge">
<title>user_session:w&#45;&gt;federated_user:e</title>
<path fill="none" stroke="#000000" stroke-dasharray="5,2" d="M159.5781,-226.6375C147.7188,-229.2625 140.5,-227.95 124,-222.7"/>
<polygon fill="#000000" stroke="#000000" points="165.802,-224.8773 174.4798,-226.1641 169.651,-223.7886 173.5,-222.7 173.5,-222.7 173.5,-222.7 169.651,-223.7886 172.5202,-219.2359 165.802,-224.8773 165.802,-224.8773"/>
<ellipse fill="none" stroke="#000000" cx="162.7228" cy="-225.7482" rx="3.2" ry="3.2"/>
</g>
<!-- user_session&#45;&gt;federated_user -->
<g id="edge11" class="edge">
<title>user_session:w&#45;&gt;federated_user:e</title>
<path fill="none" stroke="#000000" stroke-dasharray="5,2" d="M162.2518,-232.1299C148.7221,-241.9371 141.7031,-238.7938 124,-222.7"/>
<polygon fill="#000000" stroke="#000000" points="167.3694,-227.8396 175.8128,-225.4588 170.4347,-225.2698 173.5,-222.7 173.5,-222.7 173.5,-222.7 170.4347,-225.2698 171.1872,-219.9412 167.3694,-227.8396 167.3694,-227.8396"/>
<ellipse fill="none" stroke="#000000" cx="164.9171" cy="-229.8955" rx="3.2" ry="3.2"/>
</g>
<!-- client_session_auth_status -->
<g id="node4" class="node">
<title>client_session_auth_status</title>
<g id="a_node4"><a xlink:href="../../tables/client_session_auth_status.html" xlink:title="client_session_auth_status" target="_top">
<polygon fill="#ffffff" stroke="transparent" points="505.5,-418.2 505.5,-479.2 680.5,-479.2 680.5,-418.2 505.5,-418.2"/>
<polygon fill="#f5f5f5" stroke="transparent" points="506,-455.7 506,-478.7 681,-478.7 681,-455.7 506,-455.7"/>
<polygon fill="none" stroke="#000000" points="506,-455.7 506,-478.7 681,-478.7 681,-455.7 506,-455.7"/>
<text text-anchor="start" x="510.978" y="-464.8" font-family="Helvetica,sans-Serif" font-weight="bold" font-size="11.00" fill="#000000">client_session_auth_status</text>
<text text-anchor="start" x="646.5219" y="-463.8" font-family="Helvetica,sans-Serif" font-size="11.00" fill="#000000">[table]</text>
<polygon fill="none" stroke="#000000" points="506,-436.7 506,-455.7 681,-455.7 681,-436.7 506,-436.7"/>
<text text-anchor="start" x="509" y="-442.8" font-family="Helvetica,sans-Serif" font-size="11.00" fill="#000000">...</text>
<polygon fill="#ffffff" stroke="transparent" points="506,-417.7 506,-436.7 579,-436.7 579,-417.7 506,-417.7"/>
<polygon fill="none" stroke="#000000" points="506,-417.7 506,-436.7 579,-436.7 579,-417.7 506,-417.7"/>
<text text-anchor="start" x="509" y="-423.8" font-family="Helvetica,sans-Serif" font-size="11.00" fill="#000000">&lt; 1</text>
<polygon fill="#ffffff" stroke="transparent" points="579,-417.7 579,-436.7 643,-436.7 643,-417.7 579,-417.7"/>
<polygon fill="none" stroke="#000000" points="579,-417.7 579,-436.7 643,-436.7 643,-417.7 579,-417.7"/>
<text text-anchor="start" x="607.6105" y="-423.8" font-family="Helvetica,sans-Serif" font-size="11.00" fill="#000000">0 rows</text>
<polygon fill="#ffffff" stroke="transparent" points="643,-417.7 643,-436.7 681,-436.7 681,-417.7 643,-417.7"/>
<polygon fill="none" stroke="#000000" points="643,-417.7 643,-436.7 681,-436.7 681,-417.7 643,-417.7"/>
<text text-anchor="start" x="671.8862" y="-423.8" font-family="Helvetica,sans-Serif" font-size="11.00" fill="#000000"> &#160;</text>
</a>
</g>
</g>
<!-- client_session_auth_status&#45;&gt;client_session -->
<g id="edge3" class="edge">
<title>client_session_auth_status:w&#45;&gt;client_session:e</title>
<path fill="none" stroke="#000000" d="M491.5905,-443.8327C419.8633,-422.721 535.77,-229.7 441,-229.7"/>
<polygon fill="#000000" stroke="#000000" points="498.0663,-444.6718 505.5373,-449.2701 502.0332,-445.1859 506,-445.7 506,-445.7 506,-445.7 502.0332,-445.1859 506.4627,-442.1299 498.0663,-444.6718 498.0663,-444.6718"/>
<ellipse fill="none" stroke="#000000" cx="494.8929" cy="-444.2606" rx="3.2" ry="3.2"/>
</g>
<!-- client_session_note -->
<g id="node5" class="node">
<title>client_session_note</title>
<g id="a_node5"><a xlink:href="../../tables/client_session_note.html" xlink:title="client_session_note" target="_top">
<polygon fill="#ffffff" stroke="transparent" points="490,-284.7 490,-396.7 696,-396.7 696,-284.7 490,-284.7"/>
<polygon fill="#f5f5f5" stroke="transparent" points="492,-371.7 492,-394.7 694,-394.7 694,-371.7 492,-371.7"/>
<polygon fill="none" stroke="#000000" points="492,-371.7 492,-394.7 694,-394.7 694,-371.7 492,-371.7"/>
<text text-anchor="start" x="497" y="-380.8" font-family="Helvetica,sans-Serif" font-weight="bold" font-size="11.00" fill="#000000">client_session_note</text>
<text text-anchor="start" x="659.0437" y="-379.8" font-family="Helvetica,sans-Serif" font-size="11.00" fill="#000000">[table]</text>
<polygon fill="none" stroke="#000000" points="492,-349.7 492,-371.7 627,-371.7 627,-349.7 492,-349.7"/>
<image xlink:href="../../images/primaryKeys.png" width="11px" height="12px" preserveAspectRatio="xMinYMin meet" x="497" y="-366.7"/>
<text text-anchor="start" x="512" y="-356.8" font-family="Helvetica,sans-Serif" font-size="11.00" fill="#000000">name</text>
<polygon fill="none" stroke="#000000" points="627,-349.7 627,-371.7 694,-371.7 694,-349.7 627,-349.7"/>
<text text-anchor="start" x="629.9365" y="-357.4" font-family="Helvetica,sans-Serif" font-size="11.00" fill="#000000">varchar[255]</text>
<polygon fill="none" stroke="#000000" points="492,-327.7 492,-349.7 627,-349.7 627,-327.7 492,-327.7"/>
<text text-anchor="start" x="512" y="-334.8" font-family="Helvetica,sans-Serif" font-size="11.00" fill="#000000">value</text>
<polygon fill="none" stroke="#000000" points="627,-327.7 627,-349.7 694,-349.7 694,-327.7 627,-327.7"/>
<text text-anchor="start" x="629.9365" y="-335.4" font-family="Helvetica,sans-Serif" font-size="11.00" fill="#000000">varchar[255]</text>
<polygon fill="none" stroke="#000000" points="492,-305.7 492,-327.7 627,-327.7 627,-305.7 492,-305.7"/>
<image xlink:href="../../images/primaryKeys.png" width="11px" height="12px" preserveAspectRatio="xMinYMin meet" x="497" y="-322.7"/>
<text text-anchor="start" x="512" y="-312.8" font-family="Helvetica,sans-Serif" font-size="11.00" fill="#000000">client_session</text>
<polygon fill="none" stroke="#000000" points="627,-305.7 627,-327.7 694,-327.7 694,-305.7 627,-305.7"/>
<text text-anchor="start" x="630" y="-313.4" font-family="Helvetica,sans-Serif" font-size="11.00" fill="#000000">varchar[36]</text>
<polygon fill="#ffffff" stroke="transparent" points="492,-286.7 492,-305.7 551,-305.7 551,-286.7 492,-286.7"/>
<polygon fill="none" stroke="#000000" points="492,-286.7 492,-305.7 551,-305.7 551,-286.7 492,-286.7"/>
<text text-anchor="start" x="495" y="-292.8" font-family="Helvetica,sans-Serif" font-size="11.00" fill="#000000">&lt; 1</text>
<polygon fill="#ffffff" stroke="transparent" points="551,-286.7 551,-305.7 627,-305.7 627,-286.7 551,-286.7"/>
<polygon fill="none" stroke="#000000" points="551,-286.7 551,-305.7 627,-305.7 627,-286.7 551,-286.7"/>
<text text-anchor="start" x="591.6105" y="-292.8" font-family="Helvetica,sans-Serif" font-size="11.00" fill="#000000">0 rows</text>
<polygon fill="#ffffff" stroke="transparent" points="627,-286.7 627,-305.7 694,-305.7 694,-286.7 627,-286.7"/>
<polygon fill="none" stroke="#000000" points="627,-286.7 627,-305.7 694,-305.7 694,-286.7 627,-286.7"/>
<text text-anchor="start" x="675.4053" y="-292.8" font-family="Helvetica,sans-Serif" font-size="11.00" fill="#000000">0 &gt;</text>
<polygon fill="none" stroke="#000000" stroke-width="2" points="491,-285.7 491,-395.7 695,-395.7 695,-285.7 491,-285.7"/>
</a>
</g>
</g>
<!-- client_session_note&#45;&gt;client_session -->
<g id="edge4" class="edge">
<title>client_session_note:w&#45;&gt;client_session:e</title>
<path fill="none" stroke="#000000" d="M478.1673,-312.5038C455.9713,-295.1252 479.8679,-229.7 441,-229.7"/>
<polygon fill="#000000" stroke="#000000" points="484.3445,-314.3776 490.9549,-320.145 488.1722,-315.5388 492,-316.7 492,-316.7 492,-316.7 488.1722,-315.5388 493.0451,-313.255 484.3445,-314.3776 484.3445,-314.3776"/>
<ellipse fill="none" stroke="#000000" cx="481.2823" cy="-313.4487" rx="3.2" ry="3.2"/>
</g>
<!-- client_session_prot_mapper -->
<g id="node6" class="node">
<title>client_session_prot_mapper</title>
<g id="a_node6"><a xlink:href="../../tables/client_session_prot_mapper.html" xlink:title="client_session_prot_mapper" target="_top">
<polygon fill="#ffffff" stroke="transparent" points="503,-202.2 503,-263.2 683,-263.2 683,-202.2 503,-202.2"/>
<polygon fill="#f5f5f5" stroke="transparent" points="503,-239.7 503,-262.7 683,-262.7 683,-239.7 503,-239.7"/>
<polygon fill="none" stroke="#000000" points="503,-239.7 503,-262.7 683,-262.7 683,-239.7 503,-239.7"/>
<text text-anchor="start" x="507.7346" y="-248.8" font-family="Helvetica,sans-Serif" font-weight="bold" font-size="11.00" fill="#000000">client_session_prot_mapper</text>
<text text-anchor="start" x="648.5219" y="-247.8" font-family="Helvetica,sans-Serif" font-size="11.00" fill="#000000">[table]</text>
<polygon fill="none" stroke="#000000" points="503,-220.7 503,-239.7 683,-239.7 683,-220.7 503,-220.7"/>
<text text-anchor="start" x="506" y="-226.8" font-family="Helvetica,sans-Serif" font-size="11.00" fill="#000000">...</text>
<polygon fill="#ffffff" stroke="transparent" points="503,-201.7 503,-220.7 578,-220.7 578,-201.7 503,-201.7"/>
<polygon fill="none" stroke="#000000" points="503,-201.7 503,-220.7 578,-220.7 578,-201.7 503,-201.7"/>
<text text-anchor="start" x="506" y="-207.8" font-family="Helvetica,sans-Serif" font-size="11.00" fill="#000000">&lt; 1</text>
<polygon fill="#ffffff" stroke="transparent" points="578,-201.7 578,-220.7 643,-220.7 643,-201.7 578,-201.7"/>
<polygon fill="none" stroke="#000000" points="578,-201.7 578,-220.7 643,-220.7 643,-201.7 578,-201.7"/>
<text text-anchor="start" x="607.6105" y="-207.8" font-family="Helvetica,sans-Serif" font-size="11.00" fill="#000000">0 rows</text>
<polygon fill="#ffffff" stroke="transparent" points="643,-201.7 643,-220.7 683,-220.7 683,-201.7 643,-201.7"/>
<polygon fill="none" stroke="#000000" points="643,-201.7 643,-220.7 683,-220.7 683,-201.7 643,-201.7"/>
<text text-anchor="start" x="673.8862" y="-207.8" font-family="Helvetica,sans-Serif" font-size="11.00" fill="#000000"> &#160;</text>
</a>
</g>
</g>
<!-- client_session_prot_mapper&#45;&gt;client_session -->
<g id="edge5" class="edge">
<title>client_session_prot_mapper:w&#45;&gt;client_session:e</title>
<path fill="none" stroke="#000000" d="M488.42,-229.7C471.7931,-229.7 462.9583,-229.7 441,-229.7"/>
<polygon fill="#000000" stroke="#000000" points="495,-229.7001 503,-233.3 499,-229.7 503,-229.7 503,-229.7 503,-229.7 499,-229.7 503,-226.1 495,-229.7001 495,-229.7001"/>
<ellipse fill="none" stroke="#000000" cx="491.8" cy="-229.7001" rx="3.2" ry="3.2"/>
</g>
<!-- client_session_role -->
<g id="node7" class="node">
<title>client_session_role</title>
<g id="a_node7"><a xlink:href="../../tables/client_session_role.html" xlink:title="client_session_role" target="_top">
<polygon fill="#ffffff" stroke="transparent" points="525,-120.2 525,-181.2 661,-181.2 661,-120.2 525,-120.2"/>
<polygon fill="#f5f5f5" stroke="transparent" points="525,-157.7 525,-180.7 661,-180.7 661,-157.7 525,-157.7"/>
<polygon fill="none" stroke="#000000" points="525,-157.7 525,-180.7 661,-180.7 661,-157.7 525,-157.7"/>
<text text-anchor="start" x="529.7418" y="-166.8" font-family="Helvetica,sans-Serif" font-weight="bold" font-size="11.00" fill="#000000">client_session_role</text>
<text text-anchor="start" x="626.5219" y="-165.8" font-family="Helvetica,sans-Serif" font-size="11.00" fill="#000000">[table]</text>
<polygon fill="none" stroke="#000000" points="525,-138.7 525,-157.7 661,-157.7 661,-138.7 525,-138.7"/>
<text text-anchor="start" x="528" y="-144.8" font-family="Helvetica,sans-Serif" font-size="11.00" fill="#000000">...</text>
<polygon fill="#ffffff" stroke="transparent" points="525,-119.7 525,-138.7 578,-138.7 578,-119.7 525,-119.7"/>
<polygon fill="none" stroke="#000000" points="525,-119.7 525,-138.7 578,-138.7 578,-119.7 525,-119.7"/>
<text text-anchor="start" x="528" y="-125.8" font-family="Helvetica,sans-Serif" font-size="11.00" fill="#000000">&lt; 1</text>
<polygon fill="#ffffff" stroke="transparent" points="578,-119.7 578,-138.7 632,-138.7 632,-119.7 578,-119.7"/>
<polygon fill="none" stroke="#000000" points="578,-119.7 578,-138.7 632,-138.7 632,-119.7 578,-119.7"/>
<text text-anchor="start" x="596.6105" y="-125.8" font-family="Helvetica,sans-Serif" font-size="11.00" fill="#000000">0 rows</text>
<polygon fill="#ffffff" stroke="transparent" points="632,-119.7 632,-138.7 661,-138.7 661,-119.7 632,-119.7"/>
<polygon fill="none" stroke="#000000" points="632,-119.7 632,-138.7 661,-138.7 661,-119.7 632,-119.7"/>
<text text-anchor="start" x="651.8862" y="-125.8" font-family="Helvetica,sans-Serif" font-size="11.00" fill="#000000"> &#160;</text>
</a>
</g>
</g>
<!-- client_session_role&#45;&gt;client_session -->
<g id="edge6" class="edge">
<title>client_session_role:w&#45;&gt;client_session:e</title>
<path fill="none" stroke="#000000" d="M510.7421,-150.244C476.3123,-164.0847 487.67,-229.7 441,-229.7"/>
<polygon fill="#000000" stroke="#000000" points="517.1244,-149.1053 525.6324,-151.244 521.0622,-148.4026 525,-147.7 525,-147.7 525,-147.7 521.0622,-148.4026 524.3676,-144.156 517.1244,-149.1053 517.1244,-149.1053"/>
<ellipse fill="none" stroke="#000000" cx="513.9741" cy="-149.6674" rx="3.2" ry="3.2"/>
</g>
<!-- client_user_session_note -->
<g id="node8" class="node">
<title>client_user_session_note</title>
<g id="a_node8"><a xlink:href="../../tables/client_user_session_note.html" xlink:title="client_user_session_note" target="_top">
<polygon fill="#ffffff" stroke="transparent" points="509.5,-38.2 509.5,-99.2 676.5,-99.2 676.5,-38.2 509.5,-38.2"/>
<polygon fill="#f5f5f5" stroke="transparent" points="510,-75.7 510,-98.7 677,-98.7 677,-75.7 510,-75.7"/>
<polygon fill="none" stroke="#000000" points="510,-75.7 510,-98.7 677,-98.7 677,-75.7 510,-75.7"/>
<text text-anchor="start" x="514.954" y="-84.8" font-family="Helvetica,sans-Serif" font-weight="bold" font-size="11.00" fill="#000000">client_user_session_note</text>
<text text-anchor="start" x="642.5219" y="-83.8" font-family="Helvetica,sans-Serif" font-size="11.00" fill="#000000">[table]</text>
<polygon fill="none" stroke="#000000" points="510,-56.7 510,-75.7 677,-75.7 677,-56.7 510,-56.7"/>
<text text-anchor="start" x="513" y="-62.8" font-family="Helvetica,sans-Serif" font-size="11.00" fill="#000000">...</text>
<polygon fill="#ffffff" stroke="transparent" points="510,-37.7 510,-56.7 579,-56.7 579,-37.7 510,-37.7"/>
<polygon fill="none" stroke="#000000" points="510,-37.7 510,-56.7 579,-56.7 579,-37.7 510,-37.7"/>
<text text-anchor="start" x="513" y="-43.8" font-family="Helvetica,sans-Serif" font-size="11.00" fill="#000000">&lt; 1</text>
<polygon fill="#ffffff" stroke="transparent" points="579,-37.7 579,-56.7 641,-56.7 641,-37.7 579,-37.7"/>
<polygon fill="none" stroke="#000000" points="579,-37.7 579,-56.7 641,-56.7 641,-37.7 579,-37.7"/>
<text text-anchor="start" x="605.6105" y="-43.8" font-family="Helvetica,sans-Serif" font-size="11.00" fill="#000000">0 rows</text>
<polygon fill="#ffffff" stroke="transparent" points="641,-37.7 641,-56.7 677,-56.7 677,-37.7 641,-37.7"/>
<polygon fill="none" stroke="#000000" points="641,-37.7 641,-56.7 677,-56.7 677,-37.7 641,-37.7"/>
<text text-anchor="start" x="667.8862" y="-43.8" font-family="Helvetica,sans-Serif" font-size="11.00" fill="#000000"> &#160;</text>
</a>
</g>
</g>
<!-- client_user_session_note&#45;&gt;client_session -->
<g id="edge7" class="edge">
<title>client_user_session_note:w&#45;&gt;client_session:e</title>
<path fill="none" stroke="#000000" d="M495.6978,-68.0184C442.6283,-87.9517 514.5173,-229.7 441,-229.7"/>
<polygon fill="#000000" stroke="#000000" points="502.1031,-66.9801 510.5761,-69.2536 506.0515,-66.3401 510,-65.7 510,-65.7 510,-65.7 506.0515,-66.3401 509.4239,-62.1464 502.1031,-66.9801 502.1031,-66.9801"/>
<ellipse fill="none" stroke="#000000" cx="498.9443" cy="-67.4922" rx="3.2" ry="3.2"/>
</g>
</g>
</svg>
