<?xml version="1.0" encoding="UTF-8" standalone="no"?>
<!DOCTYPE svg PUBLIC "-//W3C//DTD SVG 1.1//EN"
 "http://www.w3.org/Graphics/SVG/1.1/DTD/svg11.dtd">
<!-- Generated by graphviz version 2.40.1 (20161225.0304)
 -->
<!-- Title: oneDegreeRelationshipsDiagram Pages: 1 -->
<svg width="620pt" height="622pt"
 viewBox="0.00 0.00 620.00 622.20" xmlns="http://www.w3.org/2000/svg" xmlns:xlink="http://www.w3.org/1999/xlink">
<g id="graph0" class="graph" transform="scale(1 1) rotate(0) translate(4 618.2)">
<title>oneDegreeRelationshipsDiagram</title>
<polygon fill="#ffffff" stroke="transparent" points="-4,4 -4,-618.2 616,-618.2 616,4 -4,4"/>
<text text-anchor="middle" x="72.4936" y="-7.3" font-family="Helvetica,sans-Serif" font-size="11.00" fill="#000000">Generated by SchemaSpy</text>
<!-- client_session -->
<g id="node1" class="node">
<title>client_session</title>
<g id="a_node1"><a xlink:href="../../tables/client_session.html" xlink:title="client_session" target="_top">
<polygon fill="#ffffff" stroke="transparent" points="197,-71.7 197,-337.7 372,-337.7 372,-71.7 197,-71.7"/>
<polygon fill="#f5f5f5" stroke="transparent" points="199.5,-312.7 199.5,-335.7 370.5,-335.7 370.5,-312.7 199.5,-312.7"/>
<polygon fill="none" stroke="#000000" points="199.5,-312.7 199.5,-335.7 370.5,-335.7 370.5,-312.7 199.5,-312.7"/>
<text text-anchor="start" x="204.5" y="-321.8" font-family="Helvetica,sans-Serif" font-weight="bold" font-size="11.00" fill="#000000">client_session</text>
<text text-anchor="start" x="335.5437" y="-320.8" font-family="Helvetica,sans-Serif" font-size="11.00" fill="#000000">[table]</text>
<polygon fill="none" stroke="#000000" points="199.5,-290.7 199.5,-312.7 303.5,-312.7 303.5,-290.7 199.5,-290.7"/>
<image xlink:href="../../images/primaryKeys.png" width="11px" height="12px" preserveAspectRatio="xMinYMin meet" x="204.5" y="-307.7"/>
<text text-anchor="start" x="219.5" y="-297.8" font-family="Helvetica,sans-Serif" font-size="11.00" fill="#000000">id</text>
<polygon fill="none" stroke="#000000" points="303.5,-290.7 303.5,-312.7 370.5,-312.7 370.5,-290.7 303.5,-290.7"/>
<text text-anchor="start" x="306.5" y="-298.4" font-family="Helvetica,sans-Serif" font-size="11.00" fill="#000000">varchar[36]</text>
<polygon fill="none" stroke="#000000" points="199.5,-268.7 199.5,-290.7 303.5,-290.7 303.5,-268.7 199.5,-268.7"/>
<text text-anchor="start" x="219.5" y="-275.8" font-family="Helvetica,sans-Serif" font-size="11.00" fill="#000000">client_id</text>
<polygon fill="none" stroke="#000000" points="303.5,-268.7 303.5,-290.7 370.5,-290.7 370.5,-268.7 303.5,-268.7"/>
<text text-anchor="start" x="306.5" y="-276.4" font-family="Helvetica,sans-Serif" font-size="11.00" fill="#000000">varchar[36]</text>
<polygon fill="none" stroke="#000000" points="199.5,-246.7 199.5,-268.7 303.5,-268.7 303.5,-246.7 199.5,-246.7"/>
<text text-anchor="start" x="219.5" y="-253.8" font-family="Helvetica,sans-Serif" font-size="11.00" fill="#000000">redirect_uri</text>
<polygon fill="none" stroke="#000000" points="303.5,-246.7 303.5,-268.7 370.5,-268.7 370.5,-246.7 303.5,-246.7"/>
<text text-anchor="start" x="306.4365" y="-254.4" font-family="Helvetica,sans-Serif" font-size="11.00" fill="#000000">varchar[255]</text>
<polygon fill="none" stroke="#000000" points="199.5,-224.7 199.5,-246.7 303.5,-246.7 303.5,-224.7 199.5,-224.7"/>
<text text-anchor="start" x="219.5" y="-231.8" font-family="Helvetica,sans-Serif" font-size="11.00" fill="#000000">state</text>
<polygon fill="none" stroke="#000000" points="303.5,-224.7 303.5,-246.7 370.5,-246.7 370.5,-224.7 303.5,-224.7"/>
<text text-anchor="start" x="306.4365" y="-232.4" font-family="Helvetica,sans-Serif" font-size="11.00" fill="#000000">varchar[255]</text>
<polygon fill="none" stroke="#000000" points="199.5,-202.7 199.5,-224.7 303.5,-224.7 303.5,-202.7 199.5,-202.7"/>
<text text-anchor="start" x="219.5" y="-209.8" font-family="Helvetica,sans-Serif" font-size="11.00" fill="#000000">timestamp</text>
<polygon fill="none" stroke="#000000" points="303.5,-202.7 303.5,-224.7 370.5,-224.7 370.5,-202.7 303.5,-202.7"/>
<text text-anchor="start" x="306.5" y="-210.4" font-family="Helvetica,sans-Serif" font-size="11.00" fill="#000000">int4[10]</text>
<polygon fill="#ffffff" stroke="transparent" points="199.5,-180.7 199.5,-202.7 303.5,-202.7 303.5,-180.7 199.5,-180.7"/>
<polygon fill="none" stroke="#000000" points="199.5,-180.7 199.5,-202.7 303.5,-202.7 303.5,-180.7 199.5,-180.7"/>
<image xlink:href="../../images/foreignKeys.png" width="11px" height="12px" preserveAspectRatio="xMinYMin meet" x="204.5" y="-197.7"/>
<text text-anchor="start" x="219.5" y="-187.8" font-family="Helvetica,sans-Serif" font-size="11.00" fill="#000000">session_id</text>
<polygon fill="none" stroke="#000000" points="303.5,-180.7 303.5,-202.7 370.5,-202.7 370.5,-180.7 303.5,-180.7"/>
<text text-anchor="start" x="306.5" y="-188.4" font-family="Helvetica,sans-Serif" font-size="11.00" fill="#000000">varchar[36]</text>
<polygon fill="none" stroke="#000000" points="199.5,-158.7 199.5,-180.7 303.5,-180.7 303.5,-158.7 199.5,-158.7"/>
<text text-anchor="start" x="219.5" y="-165.8" font-family="Helvetica,sans-Serif" font-size="11.00" fill="#000000">auth_method</text>
<polygon fill="none" stroke="#000000" points="303.5,-158.7 303.5,-180.7 370.5,-180.7 370.5,-158.7 303.5,-158.7"/>
<text text-anchor="start" x="306.4365" y="-166.4" font-family="Helvetica,sans-Serif" font-size="11.00" fill="#000000">varchar[255]</text>
<polygon fill="none" stroke="#000000" points="199.5,-136.7 199.5,-158.7 303.5,-158.7 303.5,-136.7 199.5,-136.7"/>
<image xlink:href="../../images/foreignKeys.png" width="11px" height="12px" preserveAspectRatio="xMinYMin meet" x="204.5" y="-153.7"/>
<text text-anchor="start" x="219.5" y="-143.8" font-family="Helvetica,sans-Serif" font-size="11.00" fill="#000000">realm_id</text>
<polygon fill="none" stroke="#000000" points="303.5,-136.7 303.5,-158.7 370.5,-158.7 370.5,-136.7 303.5,-136.7"/>
<text text-anchor="start" x="306.4365" y="-144.4" font-family="Helvetica,sans-Serif" font-size="11.00" fill="#000000">varchar[255]</text>
<polygon fill="none" stroke="#000000" points="199.5,-114.7 199.5,-136.7 303.5,-136.7 303.5,-114.7 199.5,-114.7"/>
<text text-anchor="start" x="219.5" y="-121.8" font-family="Helvetica,sans-Serif" font-size="11.00" fill="#000000">auth_user_id</text>
<polygon fill="none" stroke="#000000" points="303.5,-114.7 303.5,-136.7 370.5,-136.7 370.5,-114.7 303.5,-114.7"/>
<text text-anchor="start" x="306.5" y="-122.4" font-family="Helvetica,sans-Serif" font-size="11.00" fill="#000000">varchar[36]</text>
<polygon fill="none" stroke="#000000" points="199.5,-92.7 199.5,-114.7 303.5,-114.7 303.5,-92.7 199.5,-92.7"/>
<text text-anchor="start" x="219.5" y="-99.8" font-family="Helvetica,sans-Serif" font-size="11.00" fill="#000000">current_action</text>
<polygon fill="none" stroke="#000000" points="303.5,-92.7 303.5,-114.7 370.5,-114.7 370.5,-92.7 303.5,-92.7"/>
<text text-anchor="start" x="306.5" y="-100.4" font-family="Helvetica,sans-Serif" font-size="11.00" fill="#000000">varchar[36]</text>
<polygon fill="#ffffff" stroke="transparent" points="199.5,-73.7 199.5,-92.7 242.5,-92.7 242.5,-73.7 199.5,-73.7"/>
<polygon fill="none" stroke="#000000" points="199.5,-73.7 199.5,-92.7 242.5,-92.7 242.5,-73.7 199.5,-73.7"/>
<text text-anchor="start" x="202.5" y="-79.8" font-family="Helvetica,sans-Serif" font-size="11.00" fill="#000000">&lt; 1</text>
<polygon fill="#ffffff" stroke="transparent" points="242.5,-73.7 242.5,-92.7 303.5,-92.7 303.5,-73.7 242.5,-73.7"/>
<polygon fill="none" stroke="#000000" points="242.5,-73.7 242.5,-92.7 303.5,-92.7 303.5,-73.7 242.5,-73.7"/>
<text text-anchor="start" x="268.1105" y="-79.8" font-family="Helvetica,sans-Serif" font-size="11.00" fill="#000000">0 rows</text>
<polygon fill="#ffffff" stroke="transparent" points="303.5,-73.7 303.5,-92.7 370.5,-92.7 370.5,-73.7 303.5,-73.7"/>
<polygon fill="none" stroke="#000000" points="303.5,-73.7 303.5,-92.7 370.5,-92.7 370.5,-73.7 303.5,-73.7"/>
<text text-anchor="start" x="351.9053" y="-79.8" font-family="Helvetica,sans-Serif" font-size="11.00" fill="#000000">5 &gt;</text>
<polygon fill="none" stroke="#000000" stroke-width="2" points="198,-72.7 198,-336.7 371,-336.7 371,-72.7 198,-72.7"/>
</a>
</g>
</g>
<!-- user_session -->
<g id="node2" class="node">
<title>user_session</title>
<g id="a_node2"><a xlink:href="../../tables/user_session.html" xlink:title="user_session" target="_top">
<polygon fill="#ffffff" stroke="transparent" points="8,-55.2 8,-226.2 148,-226.2 148,-55.2 8,-55.2"/>
<polygon fill="#f5f5f5" stroke="transparent" points="8,-202.7 8,-225.7 148,-225.7 148,-202.7 8,-202.7"/>
<polygon fill="none" stroke="#000000" points="8,-202.7 8,-225.7 148,-225.7 148,-202.7 8,-202.7"/>
<text text-anchor="start" x="13" y="-211.8" font-family="Helvetica,sans-Serif" font-weight="bold" font-size="11.00" fill="#000000">user_session</text>
<text text-anchor="start" x="113.0437" y="-210.8" font-family="Helvetica,sans-Serif" font-size="11.00" fill="#000000">[table]</text>
<polygon fill="none" stroke="#000000" points="8,-180.7 8,-202.7 148,-202.7 148,-180.7 8,-180.7"/>
<image xlink:href="../../images/primaryKeys.png" width="11px" height="12px" preserveAspectRatio="xMinYMin meet" x="13" y="-197.7"/>
<text text-anchor="start" x="28" y="-187.8" font-family="Helvetica,sans-Serif" font-size="11.00" fill="#000000">id</text>
<polygon fill="none" stroke="#000000" points="8,-158.7 8,-180.7 148,-180.7 148,-158.7 8,-158.7"/>
<image xlink:href="../../images/foreignKeys.png" width="11px" height="12px" preserveAspectRatio="xMinYMin meet" x="13" y="-175.7"/>
<text text-anchor="start" x="28" y="-165.8" font-family="Helvetica,sans-Serif" font-size="11.00" fill="#000000">realm_id</text>
<polygon fill="none" stroke="#000000" points="8,-136.7 8,-158.7 148,-158.7 148,-136.7 8,-136.7"/>
<image xlink:href="../../images/foreignKeys.png" width="11px" height="12px" preserveAspectRatio="xMinYMin meet" x="13" y="-153.7"/>
<text text-anchor="start" x="28" y="-143.8" font-family="Helvetica,sans-Serif" font-size="11.00" fill="#000000">user_id</text>
<polygon fill="none" stroke="#000000" points="8,-114.7 8,-136.7 148,-136.7 148,-114.7 8,-114.7"/>
<image xlink:href="../../images/foreignKeys.png" width="11px" height="12px" preserveAspectRatio="xMinYMin meet" x="13" y="-131.7"/>
<text text-anchor="start" x="28" y="-121.8" font-family="Helvetica,sans-Serif" font-size="11.00" fill="#000000">broker_session_id</text>
<polygon fill="none" stroke="#000000" points="8,-92.7 8,-114.7 148,-114.7 148,-92.7 8,-92.7"/>
<image xlink:href="../../images/foreignKeys.png" width="11px" height="12px" preserveAspectRatio="xMinYMin meet" x="13" y="-109.7"/>
<text text-anchor="start" x="28" y="-99.8" font-family="Helvetica,sans-Serif" font-size="11.00" fill="#000000">broker_user_id</text>
<polygon fill="none" stroke="#000000" points="8,-73.7 8,-92.7 148,-92.7 148,-73.7 8,-73.7"/>
<text text-anchor="start" x="11" y="-79.8" font-family="Helvetica,sans-Serif" font-size="11.00" fill="#000000">...</text>
<polygon fill="#ffffff" stroke="transparent" points="8,-54.7 8,-73.7 54,-73.7 54,-54.7 8,-54.7"/>
<polygon fill="none" stroke="#000000" points="8,-54.7 8,-73.7 54,-73.7 54,-54.7 8,-54.7"/>
<text text-anchor="start" x="11" y="-60.8" font-family="Helvetica,sans-Serif" font-size="11.00" fill="#000000"> &#160;</text>
<polygon fill="#ffffff" stroke="transparent" points="54,-54.7 54,-73.7 109,-73.7 109,-54.7 54,-54.7"/>
<polygon fill="none" stroke="#000000" points="54,-54.7 54,-73.7 109,-73.7 109,-54.7 54,-54.7"/>
<text text-anchor="start" x="73.6105" y="-60.8" font-family="Helvetica,sans-Serif" font-size="11.00" fill="#000000">0 rows</text>
<polygon fill="#ffffff" stroke="transparent" points="109,-54.7 109,-73.7 148,-73.7 148,-54.7 109,-54.7"/>
<polygon fill="none" stroke="#000000" points="109,-54.7 109,-73.7 148,-73.7 148,-54.7 109,-54.7"/>
<text text-anchor="start" x="129.4053" y="-60.8" font-family="Helvetica,sans-Serif" font-size="11.00" fill="#000000">2 &gt;</text>
</a>
</g>
</g>
<!-- client_session&#45;&gt;user_session -->
<g id="edge1" class="edge">
<title>client_session:w&#45;&gt;user_session:e</title>
<path fill="none" stroke="#000000" d="M185.0156,-191.7C172.6771,-191.7 165.1667,-191.7 148,-191.7"/>
<polygon fill="#000000" stroke="#000000" points="191.5,-191.7001 199.5,-195.3 195.5,-191.7 199.5,-191.7 199.5,-191.7 199.5,-191.7 195.5,-191.7 199.5,-188.1 191.5,-191.7001 191.5,-191.7001"/>
<ellipse fill="none" stroke="#000000" cx="188.3" cy="-191.7001" rx="3.2" ry="3.2"/>
</g>
<!-- client_session_auth_status -->
<g id="node3" class="node">
<title>client_session_auth_status</title>
<g id="a_node3"><a xlink:href="../../tables/client_session_auth_status.html" xlink:title="client_session_auth_status" target="_top">
<polygon fill="#ffffff" stroke="transparent" points="424,-505.2 424,-610.2 601,-610.2 601,-505.2 424,-505.2"/>
<polygon fill="#f5f5f5" stroke="transparent" points="424.5,-586.7 424.5,-609.7 601.5,-609.7 601.5,-586.7 424.5,-586.7"/>
<polygon fill="none" stroke="#000000" points="424.5,-586.7 424.5,-609.7 601.5,-609.7 601.5,-586.7 424.5,-586.7"/>
<text text-anchor="start" x="429.5" y="-595.8" font-family="Helvetica,sans-Serif" font-weight="bold" font-size="11.00" fill="#000000">client_session_auth_status</text>
<text text-anchor="start" x="566.5437" y="-594.8" font-family="Helvetica,sans-Serif" font-size="11.00" fill="#000000">[table]</text>
<polygon fill="none" stroke="#000000" points="424.5,-564.7 424.5,-586.7 601.5,-586.7 601.5,-564.7 424.5,-564.7"/>
<image xlink:href="../../images/primaryKeys.png" width="11px" height="12px" preserveAspectRatio="xMinYMin meet" x="429.5" y="-581.7"/>
<text text-anchor="start" x="444.5" y="-571.8" font-family="Helvetica,sans-Serif" font-size="11.00" fill="#000000">authenticator</text>
<polygon fill="none" stroke="#000000" points="424.5,-542.7 424.5,-564.7 601.5,-564.7 601.5,-542.7 424.5,-542.7"/>
<image xlink:href="../../images/primaryKeys.png" width="11px" height="12px" preserveAspectRatio="xMinYMin meet" x="429.5" y="-559.7"/>
<text text-anchor="start" x="444.5" y="-549.8" font-family="Helvetica,sans-Serif" font-size="11.00" fill="#000000">client_session</text>
<polygon fill="none" stroke="#000000" points="424.5,-523.7 424.5,-542.7 601.5,-542.7 601.5,-523.7 424.5,-523.7"/>
<text text-anchor="start" x="427.5" y="-529.8" font-family="Helvetica,sans-Serif" font-size="11.00" fill="#000000">...</text>
<polygon fill="#ffffff" stroke="transparent" points="424.5,-504.7 424.5,-523.7 498.5,-523.7 498.5,-504.7 424.5,-504.7"/>
<polygon fill="none" stroke="#000000" points="424.5,-504.7 424.5,-523.7 498.5,-523.7 498.5,-504.7 424.5,-504.7"/>
<text text-anchor="start" x="427.5" y="-510.8" font-family="Helvetica,sans-Serif" font-size="11.00" fill="#000000">&lt; 1</text>
<polygon fill="#ffffff" stroke="transparent" points="498.5,-504.7 498.5,-523.7 562.5,-523.7 562.5,-504.7 498.5,-504.7"/>
<polygon fill="none" stroke="#000000" points="498.5,-504.7 498.5,-523.7 562.5,-523.7 562.5,-504.7 498.5,-504.7"/>
<text text-anchor="start" x="527.1105" y="-510.8" font-family="Helvetica,sans-Serif" font-size="11.00" fill="#000000">0 rows</text>
<polygon fill="#ffffff" stroke="transparent" points="562.5,-504.7 562.5,-523.7 601.5,-523.7 601.5,-504.7 562.5,-504.7"/>
<polygon fill="none" stroke="#000000" points="562.5,-504.7 562.5,-523.7 601.5,-523.7 601.5,-504.7 562.5,-504.7"/>
<text text-anchor="start" x="592.3862" y="-510.8" font-family="Helvetica,sans-Serif" font-size="11.00" fill="#000000"> &#160;</text>
</a>
</g>
</g>
<!-- client_session_auth_status&#45;&gt;client_session -->
<g id="edge2" class="edge">
<title>client_session_auth_status:w&#45;&gt;client_session:e</title>
<path fill="none" stroke="#000000" d="M409.983,-552.0242C326.0504,-530.1598 479.5615,-301.7 370.5,-301.7"/>
<polygon fill="#000000" stroke="#000000" points="416.5528,-552.7825 424.0871,-557.2762 420.5264,-553.2413 424.5,-553.7 424.5,-553.7 424.5,-553.7 420.5264,-553.2413 424.9129,-550.1238 416.5528,-552.7825 416.5528,-552.7825"/>
<ellipse fill="none" stroke="#000000" cx="413.3739" cy="-552.4155" rx="3.2" ry="3.2"/>
</g>
<!-- client_session_note -->
<g id="node4" class="node">
<title>client_session_note</title>
<g id="a_node4"><a xlink:href="../../tables/client_session_note.html" xlink:title="client_session_note" target="_top">
<polygon fill="#ffffff" stroke="transparent" points="443,-379.2 443,-484.2 582,-484.2 582,-379.2 443,-379.2"/>
<polygon fill="#f5f5f5" stroke="transparent" points="443.5,-460.7 443.5,-483.7 582.5,-483.7 582.5,-460.7 443.5,-460.7"/>
<polygon fill="none" stroke="#000000" points="443.5,-460.7 443.5,-483.7 582.5,-483.7 582.5,-460.7 443.5,-460.7"/>
<text text-anchor="start" x="448.2073" y="-469.8" font-family="Helvetica,sans-Serif" font-weight="bold" font-size="11.00" fill="#000000">client_session_note</text>
<text text-anchor="start" x="548.0219" y="-468.8" font-family="Helvetica,sans-Serif" font-size="11.00" fill="#000000">[table]</text>
<polygon fill="none" stroke="#000000" points="443.5,-438.7 443.5,-460.7 582.5,-460.7 582.5,-438.7 443.5,-438.7"/>
<image xlink:href="../../images/primaryKeys.png" width="11px" height="12px" preserveAspectRatio="xMinYMin meet" x="448.5" y="-455.7"/>
<text text-anchor="start" x="465.5" y="-445.8" font-family="Helvetica,sans-Serif" font-size="11.00" fill="#000000">name</text>
<polygon fill="none" stroke="#000000" points="443.5,-416.7 443.5,-438.7 582.5,-438.7 582.5,-416.7 443.5,-416.7"/>
<image xlink:href="../../images/primaryKeys.png" width="11px" height="12px" preserveAspectRatio="xMinYMin meet" x="448.5" y="-433.7"/>
<text text-anchor="start" x="465.5" y="-423.8" font-family="Helvetica,sans-Serif" font-size="11.00" fill="#000000">client_session</text>
<polygon fill="none" stroke="#000000" points="443.5,-397.7 443.5,-416.7 582.5,-416.7 582.5,-397.7 443.5,-397.7"/>
<text text-anchor="start" x="446.5" y="-403.8" font-family="Helvetica,sans-Serif" font-size="11.00" fill="#000000">...</text>
<polygon fill="#ffffff" stroke="transparent" points="443.5,-378.7 443.5,-397.7 498.5,-397.7 498.5,-378.7 443.5,-378.7"/>
<polygon fill="none" stroke="#000000" points="443.5,-378.7 443.5,-397.7 498.5,-397.7 498.5,-378.7 443.5,-378.7"/>
<text text-anchor="start" x="446.5" y="-384.8" font-family="Helvetica,sans-Serif" font-size="11.00" fill="#000000">&lt; 1</text>
<polygon fill="#ffffff" stroke="transparent" points="498.5,-378.7 498.5,-397.7 553.5,-397.7 553.5,-378.7 498.5,-378.7"/>
<polygon fill="none" stroke="#000000" points="498.5,-378.7 498.5,-397.7 553.5,-397.7 553.5,-378.7 498.5,-378.7"/>
<text text-anchor="start" x="518.1105" y="-384.8" font-family="Helvetica,sans-Serif" font-size="11.00" fill="#000000">0 rows</text>
<polygon fill="#ffffff" stroke="transparent" points="553.5,-378.7 553.5,-397.7 582.5,-397.7 582.5,-378.7 553.5,-378.7"/>
<polygon fill="none" stroke="#000000" points="553.5,-378.7 553.5,-397.7 582.5,-397.7 582.5,-378.7 553.5,-378.7"/>
<text text-anchor="start" x="573.3862" y="-384.8" font-family="Helvetica,sans-Serif" font-size="11.00" fill="#000000"> &#160;</text>
</a>
</g>
</g>
<!-- client_session_note&#45;&gt;client_session -->
<g id="edge3" class="edge">
<title>client_session_note:w&#45;&gt;client_session:e</title>
<path fill="none" stroke="#000000" d="M429.0785,-424.9511C387.7654,-406.5249 429.5315,-301.7 370.5,-301.7"/>
<polygon fill="#000000" stroke="#000000" points="435.6415,-426.2021 442.8259,-431.2363 439.5707,-426.951 443.5,-427.7 443.5,-427.7 443.5,-427.7 439.5707,-426.951 444.1741,-424.1637 435.6415,-426.2021 435.6415,-426.2021"/>
<ellipse fill="none" stroke="#000000" cx="432.4981" cy="-425.6029" rx="3.2" ry="3.2"/>
</g>
<!-- client_session_prot_mapper -->
<g id="node5" class="node">
<title>client_session_prot_mapper</title>
<g id="a_node5"><a xlink:href="../../tables/client_session_prot_mapper.html" xlink:title="client_session_prot_mapper" target="_top">
<polygon fill="#ffffff" stroke="transparent" points="421,-271.7 421,-357.7 604,-357.7 604,-271.7 421,-271.7"/>
<polygon fill="#f5f5f5" stroke="transparent" points="421.5,-334.7 421.5,-357.7 604.5,-357.7 604.5,-334.7 421.5,-334.7"/>
<polygon fill="none" stroke="#000000" points="421.5,-334.7 421.5,-357.7 604.5,-357.7 604.5,-334.7 421.5,-334.7"/>
<text text-anchor="start" x="426.5" y="-343.8" font-family="Helvetica,sans-Serif" font-weight="bold" font-size="11.00" fill="#000000">client_session_prot_mapper</text>
<text text-anchor="start" x="569.5437" y="-342.8" font-family="Helvetica,sans-Serif" font-size="11.00" fill="#000000">[table]</text>
<polygon fill="none" stroke="#000000" points="421.5,-312.7 421.5,-334.7 604.5,-334.7 604.5,-312.7 421.5,-312.7"/>
<image xlink:href="../../images/primaryKeys.png" width="11px" height="12px" preserveAspectRatio="xMinYMin meet" x="426.5" y="-329.7"/>
<text text-anchor="start" x="441.5" y="-319.8" font-family="Helvetica,sans-Serif" font-size="11.00" fill="#000000">protocol_mapper_id</text>
<polygon fill="none" stroke="#000000" points="421.5,-290.7 421.5,-312.7 604.5,-312.7 604.5,-290.7 421.5,-290.7"/>
<image xlink:href="../../images/primaryKeys.png" width="11px" height="12px" preserveAspectRatio="xMinYMin meet" x="426.5" y="-307.7"/>
<text text-anchor="start" x="441.5" y="-297.8" font-family="Helvetica,sans-Serif" font-size="11.00" fill="#000000">client_session</text>
<polygon fill="#ffffff" stroke="transparent" points="421.5,-271.7 421.5,-290.7 498.5,-290.7 498.5,-271.7 421.5,-271.7"/>
<polygon fill="none" stroke="#000000" points="421.5,-271.7 421.5,-290.7 498.5,-290.7 498.5,-271.7 421.5,-271.7"/>
<text text-anchor="start" x="424.5" y="-277.8" font-family="Helvetica,sans-Serif" font-size="11.00" fill="#000000">&lt; 1</text>
<polygon fill="#ffffff" stroke="transparent" points="498.5,-271.7 498.5,-290.7 564.5,-290.7 564.5,-271.7 498.5,-271.7"/>
<polygon fill="none" stroke="#000000" points="498.5,-271.7 498.5,-290.7 564.5,-290.7 564.5,-271.7 498.5,-271.7"/>
<text text-anchor="start" x="529.1105" y="-277.8" font-family="Helvetica,sans-Serif" font-size="11.00" fill="#000000">0 rows</text>
<polygon fill="#ffffff" stroke="transparent" points="564.5,-271.7 564.5,-290.7 604.5,-290.7 604.5,-271.7 564.5,-271.7"/>
<polygon fill="none" stroke="#000000" points="564.5,-271.7 564.5,-290.7 604.5,-290.7 604.5,-271.7 564.5,-271.7"/>
<text text-anchor="start" x="595.3862" y="-277.8" font-family="Helvetica,sans-Serif" font-size="11.00" fill="#000000"> &#160;</text>
</a>
</g>
</g>
<!-- client_session_prot_mapper&#45;&gt;client_session -->
<g id="edge4" class="edge">
<title>client_session_prot_mapper:w&#45;&gt;client_session:e</title>
<path fill="none" stroke="#000000" d="M406.776,-301.7C394.7815,-301.7 387.3229,-301.7 370.5,-301.7"/>
<polygon fill="#000000" stroke="#000000" points="413.5,-301.7001 421.5,-305.3 417.5,-301.7 421.5,-301.7 421.5,-301.7 421.5,-301.7 417.5,-301.7 421.5,-298.1 413.5,-301.7001 413.5,-301.7001"/>
<ellipse fill="none" stroke="#000000" cx="410.3" cy="-301.7001" rx="3.2" ry="3.2"/>
</g>
<!-- client_session_role -->
<g id="node6" class="node">
<title>client_session_role</title>
<g id="a_node6"><a xlink:href="../../tables/client_session_role.html" xlink:title="client_session_role" target="_top">
<polygon fill="#ffffff" stroke="transparent" points="444.5,-164.7 444.5,-250.7 580.5,-250.7 580.5,-164.7 444.5,-164.7"/>
<polygon fill="#f5f5f5" stroke="transparent" points="444.5,-227.7 444.5,-250.7 580.5,-250.7 580.5,-227.7 444.5,-227.7"/>
<polygon fill="none" stroke="#000000" points="444.5,-227.7 444.5,-250.7 580.5,-250.7 580.5,-227.7 444.5,-227.7"/>
<text text-anchor="start" x="449.2418" y="-236.8" font-family="Helvetica,sans-Serif" font-weight="bold" font-size="11.00" fill="#000000">client_session_role</text>
<text text-anchor="start" x="546.0219" y="-235.8" font-family="Helvetica,sans-Serif" font-size="11.00" fill="#000000">[table]</text>
<polygon fill="none" stroke="#000000" points="444.5,-205.7 444.5,-227.7 580.5,-227.7 580.5,-205.7 444.5,-205.7"/>
<image xlink:href="../../images/primaryKeys.png" width="11px" height="12px" preserveAspectRatio="xMinYMin meet" x="449.5" y="-222.7"/>
<text text-anchor="start" x="466.5" y="-212.8" font-family="Helvetica,sans-Serif" font-size="11.00" fill="#000000">role_id</text>
<polygon fill="none" stroke="#000000" points="444.5,-183.7 444.5,-205.7 580.5,-205.7 580.5,-183.7 444.5,-183.7"/>
<image xlink:href="../../images/primaryKeys.png" width="11px" height="12px" preserveAspectRatio="xMinYMin meet" x="449.5" y="-200.7"/>
<text text-anchor="start" x="466.5" y="-190.8" font-family="Helvetica,sans-Serif" font-size="11.00" fill="#000000">client_session</text>
<polygon fill="#ffffff" stroke="transparent" points="444.5,-164.7 444.5,-183.7 497.5,-183.7 497.5,-164.7 444.5,-164.7"/>
<polygon fill="none" stroke="#000000" points="444.5,-164.7 444.5,-183.7 497.5,-183.7 497.5,-164.7 444.5,-164.7"/>
<text text-anchor="start" x="447.5" y="-170.8" font-family="Helvetica,sans-Serif" font-size="11.00" fill="#000000">&lt; 1</text>
<polygon fill="#ffffff" stroke="transparent" points="497.5,-164.7 497.5,-183.7 551.5,-183.7 551.5,-164.7 497.5,-164.7"/>
<polygon fill="none" stroke="#000000" points="497.5,-164.7 497.5,-183.7 551.5,-183.7 551.5,-164.7 497.5,-164.7"/>
<text text-anchor="start" x="516.1105" y="-170.8" font-family="Helvetica,sans-Serif" font-size="11.00" fill="#000000">0 rows</text>
<polygon fill="#ffffff" stroke="transparent" points="551.5,-164.7 551.5,-183.7 580.5,-183.7 580.5,-164.7 551.5,-164.7"/>
<polygon fill="none" stroke="#000000" points="551.5,-164.7 551.5,-183.7 580.5,-183.7 580.5,-164.7 551.5,-164.7"/>
<text text-anchor="start" x="571.3862" y="-170.8" font-family="Helvetica,sans-Serif" font-size="11.00" fill="#000000"> &#160;</text>
</a>
</g>
</g>
<!-- client_session_role&#45;&gt;client_session -->
<g id="edge5" class="edge">
<title>client_session_role:w&#45;&gt;client_session:e</title>
<path fill="none" stroke="#000000" d="M430.2208,-197.562C393.864,-214.578 422.674,-301.7 370.5,-301.7"/>
<polygon fill="#000000" stroke="#000000" points="436.656,-196.2722 445.2075,-198.2298 440.578,-195.4861 444.5,-194.7 444.5,-194.7 444.5,-194.7 440.578,-195.4861 443.7925,-191.1702 436.656,-196.2722 436.656,-196.2722"/>
<ellipse fill="none" stroke="#000000" cx="433.5184" cy="-196.9011" rx="3.2" ry="3.2"/>
</g>
<!-- client_user_session_note -->
<g id="node7" class="node">
<title>client_user_session_note</title>
<g id="a_node7"><a xlink:href="../../tables/client_user_session_note.html" xlink:title="client_user_session_note" target="_top">
<polygon fill="#ffffff" stroke="transparent" points="429,-38.2 429,-143.2 596,-143.2 596,-38.2 429,-38.2"/>
<polygon fill="#f5f5f5" stroke="transparent" points="429.5,-119.7 429.5,-142.7 596.5,-142.7 596.5,-119.7 429.5,-119.7"/>
<polygon fill="none" stroke="#000000" points="429.5,-119.7 429.5,-142.7 596.5,-142.7 596.5,-119.7 429.5,-119.7"/>
<text text-anchor="start" x="434.454" y="-128.8" font-family="Helvetica,sans-Serif" font-weight="bold" font-size="11.00" fill="#000000">client_user_session_note</text>
<text text-anchor="start" x="562.0219" y="-127.8" font-family="Helvetica,sans-Serif" font-size="11.00" fill="#000000">[table]</text>
<polygon fill="none" stroke="#000000" points="429.5,-97.7 429.5,-119.7 596.5,-119.7 596.5,-97.7 429.5,-97.7"/>
<image xlink:href="../../images/primaryKeys.png" width="11px" height="12px" preserveAspectRatio="xMinYMin meet" x="434.5" y="-114.7"/>
<text text-anchor="start" x="449.5" y="-104.8" font-family="Helvetica,sans-Serif" font-size="11.00" fill="#000000">name</text>
<polygon fill="none" stroke="#000000" points="429.5,-75.7 429.5,-97.7 596.5,-97.7 596.5,-75.7 429.5,-75.7"/>
<image xlink:href="../../images/primaryKeys.png" width="11px" height="12px" preserveAspectRatio="xMinYMin meet" x="434.5" y="-92.7"/>
<text text-anchor="start" x="449.5" y="-82.8" font-family="Helvetica,sans-Serif" font-size="11.00" fill="#000000">client_session</text>
<polygon fill="none" stroke="#000000" points="429.5,-56.7 429.5,-75.7 596.5,-75.7 596.5,-56.7 429.5,-56.7"/>
<text text-anchor="start" x="432.5" y="-62.8" font-family="Helvetica,sans-Serif" font-size="11.00" fill="#000000">...</text>
<polygon fill="#ffffff" stroke="transparent" points="429.5,-37.7 429.5,-56.7 498.5,-56.7 498.5,-37.7 429.5,-37.7"/>
<polygon fill="none" stroke="#000000" points="429.5,-37.7 429.5,-56.7 498.5,-56.7 498.5,-37.7 429.5,-37.7"/>
<text text-anchor="start" x="432.5" y="-43.8" font-family="Helvetica,sans-Serif" font-size="11.00" fill="#000000">&lt; 1</text>
<polygon fill="#ffffff" stroke="transparent" points="498.5,-37.7 498.5,-56.7 560.5,-56.7 560.5,-37.7 498.5,-37.7"/>
<polygon fill="none" stroke="#000000" points="498.5,-37.7 498.5,-56.7 560.5,-56.7 560.5,-37.7 498.5,-37.7"/>
<text text-anchor="start" x="525.1105" y="-43.8" font-family="Helvetica,sans-Serif" font-size="11.00" fill="#000000">0 rows</text>
<polygon fill="#ffffff" stroke="transparent" points="560.5,-37.7 560.5,-56.7 596.5,-56.7 596.5,-37.7 560.5,-37.7"/>
<polygon fill="none" stroke="#000000" points="560.5,-37.7 560.5,-56.7 596.5,-56.7 596.5,-37.7 560.5,-37.7"/>
<text text-anchor="start" x="587.3862" y="-43.8" font-family="Helvetica,sans-Serif" font-size="11.00" fill="#000000"> &#160;</text>
</a>
</g>
</g>
<!-- client_user_session_note&#45;&gt;client_session -->
<g id="edge6" class="edge">
<title>client_user_session_note:w&#45;&gt;client_session:e</title>
<path fill="none" stroke="#000000" d="M414.8693,-88.6911C345.4135,-110.3657 463.9758,-301.7 370.5,-301.7"/>
<polygon fill="#000000" stroke="#000000" points="421.5731,-87.7788 429.9855,-90.2671 425.5365,-87.2394 429.5,-86.7 429.5,-86.7 429.5,-86.7 425.5365,-87.2394 429.0145,-83.1329 421.5731,-87.7788 421.5731,-87.7788"/>
<ellipse fill="none" stroke="#000000" cx="418.4023" cy="-88.2104" rx="3.2" ry="3.2"/>
</g>
</g>
</svg>
