<?xml version="1.0" encoding="UTF-8" standalone="no"?>
<!DOCTYPE svg PUBLIC "-//W3C//DTD SVG 1.1//EN"
 "http://www.w3.org/Graphics/SVG/1.1/DTD/svg11.dtd">
<!-- Generated by graphviz version 2.40.1 (20161225.0304)
 -->
<!-- Title: twoDegreesRelationshipsDiagram Pages: 1 -->
<svg width="585pt" height="491pt"
 viewBox="0.00 0.00 585.00 490.70" xmlns="http://www.w3.org/2000/svg" xmlns:xlink="http://www.w3.org/1999/xlink">
<g id="graph0" class="graph" transform="scale(1 1) rotate(0) translate(4 486.7)">
<title>twoDegreesRelationshipsDiagram</title>
<polygon fill="#ffffff" stroke="transparent" points="-4,4 -4,-486.7 581,-486.7 581,4 -4,4"/>
<text text-anchor="middle" x="72.4936" y="-7.3" font-family="Helvetica,sans-Serif" font-size="11.00" fill="#000000">Generated by SchemaSpy</text>
<!-- client_session -->
<g id="node1" class="node">
<title>client_session</title>
<g id="a_node1"><a xlink:href="../../tables/client_session.html" xlink:title="client_session" target="_top">
<polygon fill="#ffffff" stroke="transparent" points="164,-188.7 164,-315.7 276,-315.7 276,-188.7 164,-188.7"/>
<polygon fill="#f5f5f5" stroke="transparent" points="164,-292.2 164,-315.2 276,-315.2 276,-292.2 164,-292.2"/>
<polygon fill="none" stroke="#000000" points="164,-292.2 164,-315.2 276,-315.2 276,-292.2 164,-292.2"/>
<text text-anchor="start" x="168.9655" y="-301.3" font-family="Helvetica,sans-Serif" font-weight="bold" font-size="11.00" fill="#000000">client_session</text>
<text text-anchor="start" x="241.5219" y="-300.3" font-family="Helvetica,sans-Serif" font-size="11.00" fill="#000000">[table]</text>
<polygon fill="none" stroke="#000000" points="164,-270.2 164,-292.2 276,-292.2 276,-270.2 164,-270.2"/>
<image xlink:href="../../images/primaryKeys.png" width="11px" height="12px" preserveAspectRatio="xMinYMin meet" x="169" y="-287.2"/>
<text text-anchor="start" x="188" y="-277.3" font-family="Helvetica,sans-Serif" font-size="11.00" fill="#000000">id</text>
<polygon fill="#ffffff" stroke="transparent" points="164,-248.2 164,-270.2 276,-270.2 276,-248.2 164,-248.2"/>
<polygon fill="none" stroke="#000000" points="164,-248.2 164,-270.2 276,-270.2 276,-248.2 164,-248.2"/>
<image xlink:href="../../images/foreignKeys.png" width="11px" height="12px" preserveAspectRatio="xMinYMin meet" x="169" y="-265.2"/>
<text text-anchor="start" x="188" y="-255.3" font-family="Helvetica,sans-Serif" font-size="11.00" fill="#000000">session_id</text>
<polygon fill="none" stroke="#000000" points="164,-226.2 164,-248.2 276,-248.2 276,-226.2 164,-226.2"/>
<image xlink:href="../../images/foreignKeys.png" width="11px" height="12px" preserveAspectRatio="xMinYMin meet" x="169" y="-243.2"/>
<text text-anchor="start" x="188" y="-233.3" font-family="Helvetica,sans-Serif" font-size="11.00" fill="#000000">realm_id</text>
<polygon fill="none" stroke="#000000" points="164,-207.2 164,-226.2 276,-226.2 276,-207.2 164,-207.2"/>
<text text-anchor="start" x="167" y="-213.3" font-family="Helvetica,sans-Serif" font-size="11.00" fill="#000000">...</text>
<polygon fill="#ffffff" stroke="transparent" points="164,-188.2 164,-207.2 201,-207.2 201,-188.2 164,-188.2"/>
<polygon fill="none" stroke="#000000" points="164,-188.2 164,-207.2 201,-207.2 201,-188.2 164,-188.2"/>
<text text-anchor="start" x="167" y="-194.3" font-family="Helvetica,sans-Serif" font-size="11.00" fill="#000000">&lt; 1</text>
<polygon fill="#ffffff" stroke="transparent" points="201,-188.2 201,-207.2 247,-207.2 247,-188.2 201,-188.2"/>
<polygon fill="none" stroke="#000000" points="201,-188.2 201,-207.2 247,-207.2 247,-188.2 201,-188.2"/>
<text text-anchor="start" x="211.6105" y="-194.3" font-family="Helvetica,sans-Serif" font-size="11.00" fill="#000000">0 rows</text>
<polygon fill="#ffffff" stroke="transparent" points="247,-188.2 247,-207.2 276,-207.2 276,-188.2 247,-188.2"/>
<polygon fill="none" stroke="#000000" points="247,-188.2 247,-207.2 276,-207.2 276,-188.2 247,-188.2"/>
<text text-anchor="start" x="257.4053" y="-194.3" font-family="Helvetica,sans-Serif" font-size="11.00" fill="#000000">5 &gt;</text>
</a>
</g>
</g>
<!-- user_session -->
<g id="node2" class="node">
<title>user_session</title>
<g id="a_node2"><a xlink:href="../../tables/user_session.html" xlink:title="user_session" target="_top">
<polygon fill="#ffffff" stroke="transparent" points="8,-231.7 8,-292.7 115,-292.7 115,-231.7 8,-231.7"/>
<polygon fill="#f5f5f5" stroke="transparent" points="8.5,-269.2 8.5,-292.2 115.5,-292.2 115.5,-269.2 8.5,-269.2"/>
<polygon fill="none" stroke="#000000" points="8.5,-269.2 8.5,-292.2 115.5,-292.2 115.5,-269.2 8.5,-269.2"/>
<text text-anchor="start" x="13.1039" y="-278.3" font-family="Helvetica,sans-Serif" font-weight="bold" font-size="11.00" fill="#000000">user_session</text>
<text text-anchor="start" x="81.0219" y="-277.3" font-family="Helvetica,sans-Serif" font-size="11.00" fill="#000000">[table]</text>
<polygon fill="none" stroke="#000000" points="8.5,-250.2 8.5,-269.2 115.5,-269.2 115.5,-250.2 8.5,-250.2"/>
<text text-anchor="start" x="11.5" y="-256.3" font-family="Helvetica,sans-Serif" font-size="11.00" fill="#000000">...</text>
<polygon fill="#ffffff" stroke="transparent" points="8.5,-231.2 8.5,-250.2 38.5,-250.2 38.5,-231.2 8.5,-231.2"/>
<polygon fill="none" stroke="#000000" points="8.5,-231.2 8.5,-250.2 38.5,-250.2 38.5,-231.2 8.5,-231.2"/>
<text text-anchor="start" x="11.5" y="-237.3" font-family="Helvetica,sans-Serif" font-size="11.00" fill="#000000"> &#160;</text>
<polygon fill="#ffffff" stroke="transparent" points="38.5,-231.2 38.5,-250.2 85.5,-250.2 85.5,-231.2 38.5,-231.2"/>
<polygon fill="none" stroke="#000000" points="38.5,-231.2 38.5,-250.2 85.5,-250.2 85.5,-231.2 38.5,-231.2"/>
<text text-anchor="start" x="50.1105" y="-237.3" font-family="Helvetica,sans-Serif" font-size="11.00" fill="#000000">0 rows</text>
<polygon fill="#ffffff" stroke="transparent" points="85.5,-231.2 85.5,-250.2 115.5,-250.2 115.5,-231.2 85.5,-231.2"/>
<polygon fill="none" stroke="#000000" points="85.5,-231.2 85.5,-250.2 115.5,-250.2 115.5,-231.2 85.5,-231.2"/>
<text text-anchor="start" x="96.9053" y="-237.3" font-family="Helvetica,sans-Serif" font-size="11.00" fill="#000000">2 &gt;</text>
</a>
</g>
</g>
<!-- client_session&#45;&gt;user_session -->
<g id="edge1" class="edge">
<title>client_session:w&#45;&gt;user_session:e</title>
<path fill="none" stroke="#000000" d="M149.2829,-259.2C138.2886,-259.2 131.1615,-259.2 115.5,-259.2"/>
<polygon fill="#000000" stroke="#000000" points="156,-259.2001 164,-262.8 160,-259.2 164,-259.2 164,-259.2 164,-259.2 160,-259.2 164,-255.6 156,-259.2001 156,-259.2001"/>
<ellipse fill="none" stroke="#000000" cx="152.8" cy="-259.2001" rx="3.2" ry="3.2"/>
</g>
<!-- client_session_auth_status -->
<g id="node3" class="node">
<title>client_session_auth_status</title>
<g id="a_node3"><a xlink:href="../../tables/client_session_auth_status.html" xlink:title="client_session_auth_status" target="_top">
<polygon fill="#ffffff" stroke="transparent" points="359.5,-417.7 359.5,-478.7 534.5,-478.7 534.5,-417.7 359.5,-417.7"/>
<polygon fill="#f5f5f5" stroke="transparent" points="360,-455.2 360,-478.2 535,-478.2 535,-455.2 360,-455.2"/>
<polygon fill="none" stroke="#000000" points="360,-455.2 360,-478.2 535,-478.2 535,-455.2 360,-455.2"/>
<text text-anchor="start" x="364.978" y="-464.3" font-family="Helvetica,sans-Serif" font-weight="bold" font-size="11.00" fill="#000000">client_session_auth_status</text>
<text text-anchor="start" x="500.5219" y="-463.3" font-family="Helvetica,sans-Serif" font-size="11.00" fill="#000000">[table]</text>
<polygon fill="none" stroke="#000000" points="360,-436.2 360,-455.2 535,-455.2 535,-436.2 360,-436.2"/>
<text text-anchor="start" x="363" y="-442.3" font-family="Helvetica,sans-Serif" font-size="11.00" fill="#000000">...</text>
<polygon fill="#ffffff" stroke="transparent" points="360,-417.2 360,-436.2 433,-436.2 433,-417.2 360,-417.2"/>
<polygon fill="none" stroke="#000000" points="360,-417.2 360,-436.2 433,-436.2 433,-417.2 360,-417.2"/>
<text text-anchor="start" x="363" y="-423.3" font-family="Helvetica,sans-Serif" font-size="11.00" fill="#000000">&lt; 1</text>
<polygon fill="#ffffff" stroke="transparent" points="433,-417.2 433,-436.2 497,-436.2 497,-417.2 433,-417.2"/>
<polygon fill="none" stroke="#000000" points="433,-417.2 433,-436.2 497,-436.2 497,-417.2 433,-417.2"/>
<text text-anchor="start" x="461.6105" y="-423.3" font-family="Helvetica,sans-Serif" font-size="11.00" fill="#000000">0 rows</text>
<polygon fill="#ffffff" stroke="transparent" points="497,-417.2 497,-436.2 535,-436.2 535,-417.2 497,-417.2"/>
<polygon fill="none" stroke="#000000" points="497,-417.2 497,-436.2 535,-436.2 535,-417.2 497,-417.2"/>
<text text-anchor="start" x="525.8862" y="-423.3" font-family="Helvetica,sans-Serif" font-size="11.00" fill="#000000"> &#160;</text>
</a>
</g>
</g>
<!-- client_session_auth_status&#45;&gt;client_session -->
<g id="edge2" class="edge">
<title>client_session_auth_status:w&#45;&gt;client_session:e</title>
<path fill="none" stroke="#000000" d="M345.6754,-442.7717C332.3706,-437.4044 327.8238,-423.6912 317,-407.2 284.6864,-357.9671 334.8901,-281.2 276,-281.2"/>
<polygon fill="#000000" stroke="#000000" points="352.1125,-443.8629 359.3983,-448.7494 356.0563,-444.5314 360,-445.2 360,-445.2 360,-445.2 356.0563,-444.5314 360.6017,-441.6506 352.1125,-443.8629 352.1125,-443.8629"/>
<ellipse fill="none" stroke="#000000" cx="348.9575" cy="-443.328" rx="3.2" ry="3.2"/>
</g>
<!-- client_session_note -->
<g id="node4" class="node">
<title>client_session_note</title>
<g id="a_node4"><a xlink:href="../../tables/client_session_note.html" xlink:title="client_session_note" target="_top">
<polygon fill="#ffffff" stroke="transparent" points="377.5,-335.7 377.5,-396.7 516.5,-396.7 516.5,-335.7 377.5,-335.7"/>
<polygon fill="#f5f5f5" stroke="transparent" points="378,-373.2 378,-396.2 517,-396.2 517,-373.2 378,-373.2"/>
<polygon fill="none" stroke="#000000" points="378,-373.2 378,-396.2 517,-396.2 517,-373.2 378,-373.2"/>
<text text-anchor="start" x="382.7073" y="-382.3" font-family="Helvetica,sans-Serif" font-weight="bold" font-size="11.00" fill="#000000">client_session_note</text>
<text text-anchor="start" x="482.5219" y="-381.3" font-family="Helvetica,sans-Serif" font-size="11.00" fill="#000000">[table]</text>
<polygon fill="none" stroke="#000000" points="378,-354.2 378,-373.2 517,-373.2 517,-354.2 378,-354.2"/>
<text text-anchor="start" x="381" y="-360.3" font-family="Helvetica,sans-Serif" font-size="11.00" fill="#000000">...</text>
<polygon fill="#ffffff" stroke="transparent" points="378,-335.2 378,-354.2 433,-354.2 433,-335.2 378,-335.2"/>
<polygon fill="none" stroke="#000000" points="378,-335.2 378,-354.2 433,-354.2 433,-335.2 378,-335.2"/>
<text text-anchor="start" x="381" y="-341.3" font-family="Helvetica,sans-Serif" font-size="11.00" fill="#000000">&lt; 1</text>
<polygon fill="#ffffff" stroke="transparent" points="433,-335.2 433,-354.2 488,-354.2 488,-335.2 433,-335.2"/>
<polygon fill="none" stroke="#000000" points="433,-335.2 433,-354.2 488,-354.2 488,-335.2 433,-335.2"/>
<text text-anchor="start" x="452.6105" y="-341.3" font-family="Helvetica,sans-Serif" font-size="11.00" fill="#000000">0 rows</text>
<polygon fill="#ffffff" stroke="transparent" points="488,-335.2 488,-354.2 517,-354.2 517,-335.2 488,-335.2"/>
<polygon fill="none" stroke="#000000" points="488,-335.2 488,-354.2 517,-354.2 517,-335.2 488,-335.2"/>
<text text-anchor="start" x="507.8862" y="-341.3" font-family="Helvetica,sans-Serif" font-size="11.00" fill="#000000"> &#160;</text>
</a>
</g>
</g>
<!-- client_session_note&#45;&gt;client_session -->
<g id="edge3" class="edge">
<title>client_session_note:w&#45;&gt;client_session:e</title>
<path fill="none" stroke="#000000" d="M363.4492,-361.6416C343.8853,-356.8984 337.3227,-341.9355 317,-325.2 296.3663,-308.2083 302.7296,-281.2 276,-281.2"/>
<polygon fill="#000000" stroke="#000000" points="370.0455,-362.348 377.6166,-366.7795 374.0227,-362.774 378,-363.2 378,-363.2 378,-363.2 374.0227,-362.774 378.3834,-359.6205 370.0455,-362.348 370.0455,-362.348"/>
<ellipse fill="none" stroke="#000000" cx="366.8637" cy="-362.0073" rx="3.2" ry="3.2"/>
</g>
<!-- client_session_prot_mapper -->
<g id="node5" class="node">
<title>client_session_prot_mapper</title>
<g id="a_node5"><a xlink:href="../../tables/client_session_prot_mapper.html" xlink:title="client_session_prot_mapper" target="_top">
<polygon fill="#ffffff" stroke="transparent" points="357,-253.7 357,-314.7 537,-314.7 537,-253.7 357,-253.7"/>
<polygon fill="#f5f5f5" stroke="transparent" points="357,-291.2 357,-314.2 537,-314.2 537,-291.2 357,-291.2"/>
<polygon fill="none" stroke="#000000" points="357,-291.2 357,-314.2 537,-314.2 537,-291.2 357,-291.2"/>
<text text-anchor="start" x="361.7346" y="-300.3" font-family="Helvetica,sans-Serif" font-weight="bold" font-size="11.00" fill="#000000">client_session_prot_mapper</text>
<text text-anchor="start" x="502.5219" y="-299.3" font-family="Helvetica,sans-Serif" font-size="11.00" fill="#000000">[table]</text>
<polygon fill="none" stroke="#000000" points="357,-272.2 357,-291.2 537,-291.2 537,-272.2 357,-272.2"/>
<text text-anchor="start" x="360" y="-278.3" font-family="Helvetica,sans-Serif" font-size="11.00" fill="#000000">...</text>
<polygon fill="#ffffff" stroke="transparent" points="357,-253.2 357,-272.2 432,-272.2 432,-253.2 357,-253.2"/>
<polygon fill="none" stroke="#000000" points="357,-253.2 357,-272.2 432,-272.2 432,-253.2 357,-253.2"/>
<text text-anchor="start" x="360" y="-259.3" font-family="Helvetica,sans-Serif" font-size="11.00" fill="#000000">&lt; 1</text>
<polygon fill="#ffffff" stroke="transparent" points="432,-253.2 432,-272.2 497,-272.2 497,-253.2 432,-253.2"/>
<polygon fill="none" stroke="#000000" points="432,-253.2 432,-272.2 497,-272.2 497,-253.2 432,-253.2"/>
<text text-anchor="start" x="461.6105" y="-259.3" font-family="Helvetica,sans-Serif" font-size="11.00" fill="#000000">0 rows</text>
<polygon fill="#ffffff" stroke="transparent" points="497,-253.2 497,-272.2 537,-272.2 537,-253.2 497,-253.2"/>
<polygon fill="none" stroke="#000000" points="497,-253.2 497,-272.2 537,-272.2 537,-253.2 497,-253.2"/>
<text text-anchor="start" x="527.8862" y="-259.3" font-family="Helvetica,sans-Serif" font-size="11.00" fill="#000000"> &#160;</text>
</a>
</g>
</g>
<!-- client_session_prot_mapper&#45;&gt;client_session -->
<g id="edge4" class="edge">
<title>client_session_prot_mapper:w&#45;&gt;client_session:e</title>
<path fill="none" stroke="#000000" d="M342.5769,-281.2C317.7332,-281.2 306.6563,-281.2 276,-281.2"/>
<polygon fill="#000000" stroke="#000000" points="349,-281.2001 357,-284.8 353,-281.2 357,-281.2 357,-281.2 357,-281.2 353,-281.2 357,-277.6 349,-281.2001 349,-281.2001"/>
<ellipse fill="none" stroke="#000000" cx="345.8" cy="-281.2001" rx="3.2" ry="3.2"/>
</g>
<!-- client_session_role -->
<g id="node6" class="node">
<title>client_session_role</title>
<g id="a_node6"><a xlink:href="../../tables/client_session_role.html" xlink:title="client_session_role" target="_top">
<polygon fill="#ffffff" stroke="transparent" points="379,-171.7 379,-232.7 515,-232.7 515,-171.7 379,-171.7"/>
<polygon fill="#f5f5f5" stroke="transparent" points="379,-209.2 379,-232.2 515,-232.2 515,-209.2 379,-209.2"/>
<polygon fill="none" stroke="#000000" points="379,-209.2 379,-232.2 515,-232.2 515,-209.2 379,-209.2"/>
<text text-anchor="start" x="383.7418" y="-218.3" font-family="Helvetica,sans-Serif" font-weight="bold" font-size="11.00" fill="#000000">client_session_role</text>
<text text-anchor="start" x="480.5219" y="-217.3" font-family="Helvetica,sans-Serif" font-size="11.00" fill="#000000">[table]</text>
<polygon fill="none" stroke="#000000" points="379,-190.2 379,-209.2 515,-209.2 515,-190.2 379,-190.2"/>
<text text-anchor="start" x="382" y="-196.3" font-family="Helvetica,sans-Serif" font-size="11.00" fill="#000000">...</text>
<polygon fill="#ffffff" stroke="transparent" points="379,-171.2 379,-190.2 432,-190.2 432,-171.2 379,-171.2"/>
<polygon fill="none" stroke="#000000" points="379,-171.2 379,-190.2 432,-190.2 432,-171.2 379,-171.2"/>
<text text-anchor="start" x="382" y="-177.3" font-family="Helvetica,sans-Serif" font-size="11.00" fill="#000000">&lt; 1</text>
<polygon fill="#ffffff" stroke="transparent" points="432,-171.2 432,-190.2 486,-190.2 486,-171.2 432,-171.2"/>
<polygon fill="none" stroke="#000000" points="432,-171.2 432,-190.2 486,-190.2 486,-171.2 432,-171.2"/>
<text text-anchor="start" x="450.6105" y="-177.3" font-family="Helvetica,sans-Serif" font-size="11.00" fill="#000000">0 rows</text>
<polygon fill="#ffffff" stroke="transparent" points="486,-171.2 486,-190.2 515,-190.2 515,-171.2 486,-171.2"/>
<polygon fill="none" stroke="#000000" points="486,-171.2 486,-190.2 515,-190.2 515,-171.2 486,-171.2"/>
<text text-anchor="start" x="505.8862" y="-177.3" font-family="Helvetica,sans-Serif" font-size="11.00" fill="#000000"> &#160;</text>
</a>
</g>
</g>
<!-- client_session_role&#45;&gt;client_session -->
<g id="edge5" class="edge">
<title>client_session_role:w&#45;&gt;client_session:e</title>
<path fill="none" stroke="#000000" d="M364.6899,-200.9261C343.9064,-206.6087 338.922,-225.3884 317,-243.2 297.7173,-258.8672 300.8452,-281.2 276,-281.2"/>
<polygon fill="#000000" stroke="#000000" points="371.0576,-200.1581 379.4311,-202.7741 375.0288,-199.679 379,-199.2 379,-199.2 379,-199.2 375.0288,-199.679 378.5689,-195.6259 371.0576,-200.1581 371.0576,-200.1581"/>
<ellipse fill="none" stroke="#000000" cx="367.8806" cy="-200.5413" rx="3.2" ry="3.2"/>
</g>
<!-- client_user_session_note -->
<g id="node7" class="node">
<title>client_user_session_note</title>
<g id="a_node7"><a xlink:href="../../tables/client_user_session_note.html" xlink:title="client_user_session_note" target="_top">
<polygon fill="#ffffff" stroke="transparent" points="325,-38.2 325,-150.2 569,-150.2 569,-38.2 325,-38.2"/>
<polygon fill="#f5f5f5" stroke="transparent" points="327,-125.2 327,-148.2 567,-148.2 567,-125.2 327,-125.2"/>
<polygon fill="none" stroke="#000000" points="327,-125.2 327,-148.2 567,-148.2 567,-125.2 327,-125.2"/>
<text text-anchor="start" x="332" y="-134.3" font-family="Helvetica,sans-Serif" font-weight="bold" font-size="11.00" fill="#000000">client_user_session_note</text>
<text text-anchor="start" x="532.0437" y="-133.3" font-family="Helvetica,sans-Serif" font-size="11.00" fill="#000000">[table]</text>
<polygon fill="none" stroke="#000000" points="327,-103.2 327,-125.2 494,-125.2 494,-103.2 327,-103.2"/>
<image xlink:href="../../images/primaryKeys.png" width="11px" height="12px" preserveAspectRatio="xMinYMin meet" x="332" y="-120.2"/>
<text text-anchor="start" x="347" y="-110.3" font-family="Helvetica,sans-Serif" font-size="11.00" fill="#000000">name</text>
<polygon fill="none" stroke="#000000" points="494,-103.2 494,-125.2 567,-125.2 567,-103.2 494,-103.2"/>
<text text-anchor="start" x="497" y="-110.9" font-family="Helvetica,sans-Serif" font-size="11.00" fill="#000000">varchar[255]</text>
<polygon fill="none" stroke="#000000" points="327,-81.2 327,-103.2 494,-103.2 494,-81.2 327,-81.2"/>
<text text-anchor="start" x="347" y="-88.3" font-family="Helvetica,sans-Serif" font-size="11.00" fill="#000000">value</text>
<polygon fill="none" stroke="#000000" points="494,-81.2 494,-103.2 567,-103.2 567,-81.2 494,-81.2"/>
<text text-anchor="start" x="496.8791" y="-88.9" font-family="Helvetica,sans-Serif" font-size="11.00" fill="#000000">varchar[2048]</text>
<polygon fill="none" stroke="#000000" points="327,-59.2 327,-81.2 494,-81.2 494,-59.2 327,-59.2"/>
<image xlink:href="../../images/primaryKeys.png" width="11px" height="12px" preserveAspectRatio="xMinYMin meet" x="332" y="-76.2"/>
<text text-anchor="start" x="347" y="-66.3" font-family="Helvetica,sans-Serif" font-size="11.00" fill="#000000">client_session</text>
<polygon fill="none" stroke="#000000" points="494,-59.2 494,-81.2 567,-81.2 567,-59.2 494,-59.2"/>
<text text-anchor="start" x="497" y="-66.9" font-family="Helvetica,sans-Serif" font-size="11.00" fill="#000000">varchar[36]</text>
<polygon fill="#ffffff" stroke="transparent" points="327,-40.2 327,-59.2 402,-59.2 402,-40.2 327,-40.2"/>
<polygon fill="none" stroke="#000000" points="327,-40.2 327,-59.2 402,-59.2 402,-40.2 327,-40.2"/>
<text text-anchor="start" x="330" y="-46.3" font-family="Helvetica,sans-Serif" font-size="11.00" fill="#000000">&lt; 1</text>
<polygon fill="#ffffff" stroke="transparent" points="402,-40.2 402,-59.2 494,-59.2 494,-40.2 402,-40.2"/>
<polygon fill="none" stroke="#000000" points="402,-40.2 402,-59.2 494,-59.2 494,-40.2 402,-40.2"/>
<text text-anchor="start" x="458.6105" y="-46.3" font-family="Helvetica,sans-Serif" font-size="11.00" fill="#000000">0 rows</text>
<polygon fill="#ffffff" stroke="transparent" points="494,-40.2 494,-59.2 567,-59.2 567,-40.2 494,-40.2"/>
<polygon fill="none" stroke="#000000" points="494,-40.2 494,-59.2 567,-59.2 567,-40.2 494,-40.2"/>
<text text-anchor="start" x="548.4053" y="-46.3" font-family="Helvetica,sans-Serif" font-size="11.00" fill="#000000">0 &gt;</text>
<polygon fill="none" stroke="#000000" stroke-width="2" points="326,-39.2 326,-149.2 568,-149.2 568,-39.2 326,-39.2"/>
</a>
</g>
</g>
<!-- client_user_session_note&#45;&gt;client_session -->
<g id="edge6" class="edge">
<title>client_user_session_note:w&#45;&gt;client_session:e</title>
<path fill="none" stroke="#000000" d="M312.4008,-72.2883C246.3387,-94.2022 366.8252,-281.2 276,-281.2"/>
<polygon fill="#000000" stroke="#000000" points="319.0806,-71.3329 327.5098,-73.7637 323.0403,-70.7664 327,-70.2 327,-70.2 327,-70.2 323.0403,-70.7664 326.4902,-66.6363 319.0806,-71.3329 319.0806,-71.3329"/>
<ellipse fill="none" stroke="#000000" cx="315.9129" cy="-71.786" rx="3.2" ry="3.2"/>
</g>
</g>
</svg>
