<?xml version="1.0" encoding="UTF-8" standalone="no"?>
<!DOCTYPE svg PUBLIC "-//W3C//DTD SVG 1.1//EN"
 "http://www.w3.org/Graphics/SVG/1.1/DTD/svg11.dtd">
<!-- Generated by graphviz version 2.40.1 (20161225.0304)
 -->
<!-- Title: twoDegreesRelationshipsDiagramImplied Pages: 1 -->
<svg width="623pt" height="737pt"
 viewBox="0.00 0.00 623.00 736.70" xmlns="http://www.w3.org/2000/svg" xmlns:xlink="http://www.w3.org/1999/xlink">
<g id="graph0" class="graph" transform="scale(1 1) rotate(0) translate(4 732.7)">
<title>twoDegreesRelationshipsDiagramImplied</title>
<polygon fill="#ffffff" stroke="transparent" points="-4,4 -4,-732.7 619,-732.7 619,4 -4,4"/>
<text text-anchor="middle" x="72.4936" y="-7.3" font-family="Helvetica,sans-Serif" font-size="11.00" fill="#000000">Generated by SchemaSpy</text>
<!-- client -->
<g id="node1" class="node">
<title>client</title>
<g id="a_node1"><a xlink:href="../../tables/client.html" xlink:title="client" target="_top">
<polygon fill="#ffffff" stroke="transparent" points="173,-260.2 173,-387.2 368,-387.2 368,-260.2 173,-260.2"/>
<polygon fill="#f5f5f5" stroke="transparent" points="173.5,-363.7 173.5,-386.7 368.5,-386.7 368.5,-363.7 173.5,-363.7"/>
<polygon fill="none" stroke="#000000" points="173.5,-363.7 173.5,-386.7 368.5,-386.7 368.5,-363.7 173.5,-363.7"/>
<text text-anchor="start" x="178.5" y="-372.8" font-family="Helvetica,sans-Serif" font-weight="bold" font-size="11.00" fill="#000000">client</text>
<text text-anchor="start" x="333.5437" y="-371.8" font-family="Helvetica,sans-Serif" font-size="11.00" fill="#000000">[table]</text>
<polygon fill="none" stroke="#000000" points="173.5,-341.7 173.5,-363.7 368.5,-363.7 368.5,-341.7 173.5,-341.7"/>
<image xlink:href="../../images/primaryKeys.png" width="11px" height="12px" preserveAspectRatio="xMinYMin meet" x="178.5" y="-358.7"/>
<text text-anchor="start" x="193.5" y="-348.8" font-family="Helvetica,sans-Serif" font-size="11.00" fill="#000000">id</text>
<polygon fill="#ffffff" stroke="transparent" points="173.5,-319.7 173.5,-341.7 368.5,-341.7 368.5,-319.7 173.5,-319.7"/>
<polygon fill="none" stroke="#000000" points="173.5,-319.7 173.5,-341.7 368.5,-341.7 368.5,-319.7 173.5,-319.7"/>
<image xlink:href="../../images/foreignKeys.png" width="11px" height="12px" preserveAspectRatio="xMinYMin meet" x="178.5" y="-336.7"/>
<text text-anchor="start" x="193.5" y="-326.8" font-family="Helvetica,sans-Serif" font-size="11.00" fill="#000000">client_id</text>
<polygon fill="#ffffff" stroke="transparent" points="173.5,-297.7 173.5,-319.7 368.5,-319.7 368.5,-297.7 173.5,-297.7"/>
<polygon fill="none" stroke="#000000" points="173.5,-297.7 173.5,-319.7 368.5,-319.7 368.5,-297.7 173.5,-297.7"/>
<image xlink:href="../../images/foreignKeys.png" width="11px" height="12px" preserveAspectRatio="xMinYMin meet" x="178.5" y="-314.7"/>
<text text-anchor="start" x="193.5" y="-304.8" font-family="Helvetica,sans-Serif" font-size="11.00" fill="#000000">realm_id</text>
<polygon fill="none" stroke="#000000" points="173.5,-278.7 173.5,-297.7 368.5,-297.7 368.5,-278.7 173.5,-278.7"/>
<text text-anchor="start" x="176.5" y="-284.8" font-family="Helvetica,sans-Serif" font-size="11.00" fill="#000000">...</text>
<polygon fill="#ffffff" stroke="transparent" points="173.5,-259.7 173.5,-278.7 251.5,-278.7 251.5,-259.7 173.5,-259.7"/>
<polygon fill="none" stroke="#000000" points="173.5,-259.7 173.5,-278.7 251.5,-278.7 251.5,-259.7 173.5,-259.7"/>
<text text-anchor="start" x="176.5" y="-265.8" font-family="Helvetica,sans-Serif" font-size="11.00" fill="#000000">&lt; 2</text>
<polygon fill="#ffffff" stroke="transparent" points="251.5,-259.7 251.5,-278.7 318.5,-278.7 318.5,-259.7 251.5,-259.7"/>
<polygon fill="none" stroke="#000000" points="251.5,-259.7 251.5,-278.7 318.5,-278.7 318.5,-259.7 251.5,-259.7"/>
<text text-anchor="start" x="283.1105" y="-265.8" font-family="Helvetica,sans-Serif" font-size="11.00" fill="#000000">6 rows</text>
<polygon fill="#ffffff" stroke="transparent" points="318.5,-259.7 318.5,-278.7 368.5,-278.7 368.5,-259.7 318.5,-259.7"/>
<polygon fill="none" stroke="#000000" points="318.5,-259.7 318.5,-278.7 368.5,-278.7 368.5,-259.7 318.5,-259.7"/>
<text text-anchor="start" x="349.9053" y="-265.8" font-family="Helvetica,sans-Serif" font-size="11.00" fill="#000000">8 &gt;</text>
</a>
</g>
</g>
<!-- federated_user -->
<g id="node2" class="node">
<title>federated_user</title>
<g id="a_node2"><a xlink:href="../../tables/federated_user.html" xlink:title="federated_user" target="_top">
<polygon fill="#ffffff" stroke="transparent" points="8,-333.2 8,-394.2 124,-394.2 124,-333.2 8,-333.2"/>
<polygon fill="#f5f5f5" stroke="transparent" points="8,-370.7 8,-393.7 124,-393.7 124,-370.7 8,-370.7"/>
<polygon fill="none" stroke="#000000" points="8,-370.7 8,-393.7 124,-393.7 124,-370.7 8,-370.7"/>
<text text-anchor="start" x="12.5142" y="-379.8" font-family="Helvetica,sans-Serif" font-weight="bold" font-size="11.00" fill="#000000">federated_user</text>
<text text-anchor="start" x="89.5219" y="-378.8" font-family="Helvetica,sans-Serif" font-size="11.00" fill="#000000">[table]</text>
<polygon fill="none" stroke="#000000" points="8,-351.7 8,-370.7 124,-370.7 124,-351.7 8,-351.7"/>
<text text-anchor="start" x="11" y="-357.8" font-family="Helvetica,sans-Serif" font-size="11.00" fill="#000000">...</text>
<polygon fill="#ffffff" stroke="transparent" points="8,-332.7 8,-351.7 39,-351.7 39,-332.7 8,-332.7"/>
<polygon fill="none" stroke="#000000" points="8,-332.7 8,-351.7 39,-351.7 39,-332.7 8,-332.7"/>
<text text-anchor="start" x="11" y="-338.8" font-family="Helvetica,sans-Serif" font-size="11.00" fill="#000000"> &#160;</text>
<polygon fill="#ffffff" stroke="transparent" points="39,-332.7 39,-351.7 87,-351.7 87,-332.7 39,-332.7"/>
<polygon fill="none" stroke="#000000" points="39,-332.7 39,-351.7 87,-351.7 87,-332.7 39,-332.7"/>
<text text-anchor="start" x="51.6105" y="-338.8" font-family="Helvetica,sans-Serif" font-size="11.00" fill="#000000">0 rows</text>
<polygon fill="#ffffff" stroke="transparent" points="87,-332.7 87,-351.7 124,-351.7 124,-332.7 87,-332.7"/>
<polygon fill="none" stroke="#000000" points="87,-332.7 87,-351.7 124,-351.7 124,-332.7 87,-332.7"/>
<text text-anchor="start" x="99.2904" y="-338.8" font-family="Helvetica,sans-Serif" font-size="11.00" fill="#000000">30 &gt;</text>
</a>
</g>
</g>
<!-- client&#45;&gt;federated_user -->
<g id="edge1" class="edge">
<title>client:w&#45;&gt;federated_user:e</title>
<path fill="none" stroke="#000000" stroke-dasharray="5,2" d="M159.633,-334.622C147.238,-342.7538 143.8967,-360.7 124,-360.7"/>
<polygon fill="#000000" stroke="#000000" points="165.802,-332.8773 174.4798,-334.1641 169.651,-331.7886 173.5,-330.7 173.5,-330.7 173.5,-330.7 169.651,-331.7886 172.5202,-327.2359 165.802,-332.8773 165.802,-332.8773"/>
<ellipse fill="none" stroke="#000000" cx="162.7228" cy="-333.7482" rx="3.2" ry="3.2"/>
</g>
<!-- realm -->
<g id="node3" class="node">
<title>realm</title>
<g id="a_node3"><a xlink:href="../../tables/realm.html" xlink:title="realm" target="_top">
<polygon fill="#ffffff" stroke="transparent" points="30.5,-251.2 30.5,-312.2 101.5,-312.2 101.5,-251.2 30.5,-251.2"/>
<polygon fill="#f5f5f5" stroke="transparent" points="31,-288.7 31,-311.7 102,-311.7 102,-288.7 31,-288.7"/>
<polygon fill="none" stroke="#000000" points="31,-288.7 31,-311.7 102,-311.7 102,-288.7 31,-288.7"/>
<text text-anchor="start" x="36" y="-297.8" font-family="Helvetica,sans-Serif" font-weight="bold" font-size="11.00" fill="#000000">realm</text>
<text text-anchor="start" x="67.5219" y="-296.8" font-family="Helvetica,sans-Serif" font-size="11.00" fill="#000000">[table]</text>
<polygon fill="none" stroke="#000000" points="31,-269.7 31,-288.7 102,-288.7 102,-269.7 31,-269.7"/>
<text text-anchor="start" x="34" y="-275.8" font-family="Helvetica,sans-Serif" font-size="11.00" fill="#000000">...</text>
<polygon fill="#ffffff" stroke="transparent" points="31,-250.7 31,-269.7 43,-269.7 43,-250.7 31,-250.7"/>
<polygon fill="none" stroke="#000000" points="31,-250.7 31,-269.7 43,-269.7 43,-250.7 31,-250.7"/>
<text text-anchor="start" x="33.9431" y="-256.8" font-family="Helvetica,sans-Serif" font-size="11.00" fill="#000000"> &#160;</text>
<polygon fill="#ffffff" stroke="transparent" points="43,-250.7 43,-269.7 75,-269.7 75,-250.7 43,-250.7"/>
<polygon fill="none" stroke="#000000" points="43,-250.7 43,-269.7 75,-269.7 75,-250.7 43,-250.7"/>
<text text-anchor="start" x="45.5553" y="-256.8" font-family="Helvetica,sans-Serif" font-size="11.00" fill="#000000">1 row</text>
<polygon fill="#ffffff" stroke="transparent" points="75,-250.7 75,-269.7 102,-269.7 102,-250.7 75,-250.7"/>
<polygon fill="none" stroke="#000000" points="75,-250.7 75,-269.7 102,-269.7 102,-250.7 75,-250.7"/>
<text text-anchor="start" x="77.6452" y="-256.8" font-family="Helvetica,sans-Serif" font-size="11.00" fill="#000000">23 &gt;</text>
</a>
</g>
</g>
<!-- client&#45;&gt;realm -->
<g id="edge2" class="edge">
<title>client:w&#45;&gt;realm:e</title>
<path fill="none" stroke="#000000" d="M159.1338,-306.638C137.3952,-299.8601 130.9424,-278.7 102,-278.7"/>
<polygon fill="#000000" stroke="#000000" points="165.5812,-307.5633 172.9885,-312.2635 169.5406,-308.1317 173.5,-308.7 173.5,-308.7 173.5,-308.7 169.5406,-308.1317 174.0115,-305.1365 165.5812,-307.5633 165.5812,-307.5633"/>
<ellipse fill="none" stroke="#000000" cx="162.4136" cy="-307.1087" rx="3.2" ry="3.2"/>
</g>
<!-- client_attributes -->
<g id="node4" class="node">
<title>client_attributes</title>
<g id="a_node4"><a xlink:href="../../tables/client_attributes.html" xlink:title="client_attributes" target="_top">
<polygon fill="#ffffff" stroke="transparent" points="417,-612.7 417,-724.7 607,-724.7 607,-612.7 417,-612.7"/>
<polygon fill="#f5f5f5" stroke="transparent" points="419,-699.7 419,-722.7 605,-722.7 605,-699.7 419,-699.7"/>
<polygon fill="none" stroke="#000000" points="419,-699.7 419,-722.7 605,-722.7 605,-699.7 419,-699.7"/>
<text text-anchor="start" x="424" y="-708.8" font-family="Helvetica,sans-Serif" font-weight="bold" font-size="11.00" fill="#000000">client_attributes</text>
<text text-anchor="start" x="570.0437" y="-707.8" font-family="Helvetica,sans-Serif" font-size="11.00" fill="#000000">[table]</text>
<polygon fill="none" stroke="#000000" points="419,-677.7 419,-699.7 532,-699.7 532,-677.7 419,-677.7"/>
<image xlink:href="../../images/primaryKeys.png" width="11px" height="12px" preserveAspectRatio="xMinYMin meet" x="424" y="-694.7"/>
<text text-anchor="start" x="439" y="-684.8" font-family="Helvetica,sans-Serif" font-size="11.00" fill="#000000">client_id</text>
<polygon fill="none" stroke="#000000" points="532,-677.7 532,-699.7 605,-699.7 605,-677.7 532,-677.7"/>
<text text-anchor="start" x="535" y="-685.4" font-family="Helvetica,sans-Serif" font-size="11.00" fill="#000000">varchar[36]</text>
<polygon fill="none" stroke="#000000" points="419,-655.7 419,-677.7 532,-677.7 532,-655.7 419,-655.7"/>
<text text-anchor="start" x="439" y="-662.8" font-family="Helvetica,sans-Serif" font-size="11.00" fill="#000000">value</text>
<polygon fill="none" stroke="#000000" points="532,-655.7 532,-677.7 605,-677.7 605,-655.7 532,-655.7"/>
<text text-anchor="start" x="534.8791" y="-663.4" font-family="Helvetica,sans-Serif" font-size="11.00" fill="#000000">varchar[4000]</text>
<polygon fill="none" stroke="#000000" points="419,-633.7 419,-655.7 532,-655.7 532,-633.7 419,-633.7"/>
<image xlink:href="../../images/primaryKeys.png" width="11px" height="12px" preserveAspectRatio="xMinYMin meet" x="424" y="-650.7"/>
<text text-anchor="start" x="439" y="-640.8" font-family="Helvetica,sans-Serif" font-size="11.00" fill="#000000">name</text>
<polygon fill="none" stroke="#000000" points="532,-633.7 532,-655.7 605,-655.7 605,-633.7 532,-633.7"/>
<text text-anchor="start" x="535" y="-641.4" font-family="Helvetica,sans-Serif" font-size="11.00" fill="#000000">varchar[255]</text>
<polygon fill="#ffffff" stroke="transparent" points="419,-614.7 419,-633.7 467,-633.7 467,-614.7 419,-614.7"/>
<polygon fill="none" stroke="#000000" points="419,-614.7 419,-633.7 467,-633.7 467,-614.7 419,-614.7"/>
<text text-anchor="start" x="422" y="-620.8" font-family="Helvetica,sans-Serif" font-size="11.00" fill="#000000">&lt; 1</text>
<polygon fill="#ffffff" stroke="transparent" points="467,-614.7 467,-633.7 532,-633.7 532,-614.7 467,-614.7"/>
<polygon fill="none" stroke="#000000" points="467,-614.7 467,-633.7 532,-633.7 532,-614.7 467,-614.7"/>
<text text-anchor="start" x="496.6105" y="-620.8" font-family="Helvetica,sans-Serif" font-size="11.00" fill="#000000">2 rows</text>
<polygon fill="#ffffff" stroke="transparent" points="532,-614.7 532,-633.7 605,-633.7 605,-614.7 532,-614.7"/>
<polygon fill="none" stroke="#000000" points="532,-614.7 532,-633.7 605,-633.7 605,-614.7 532,-614.7"/>
<text text-anchor="start" x="586.4053" y="-620.8" font-family="Helvetica,sans-Serif" font-size="11.00" fill="#000000">0 &gt;</text>
<polygon fill="none" stroke="#000000" stroke-width="2" points="418,-613.7 418,-723.7 606,-723.7 606,-613.7 418,-613.7"/>
</a>
</g>
</g>
<!-- client_attributes&#45;&gt;client -->
<g id="edge3" class="edge">
<title>client_attributes:w&#45;&gt;client:e</title>
<path fill="none" stroke="#000000" d="M405.2555,-683.6895C357.1024,-641.8922 438.5489,-352.7 368.5,-352.7"/>
<polygon fill="#000000" stroke="#000000" points="411.4838,-685.96 417.767,-692.0823 415.2419,-687.33 419,-688.7 419,-688.7 419,-688.7 415.2419,-687.33 420.233,-685.3177 411.4838,-685.96 411.4838,-685.96"/>
<ellipse fill="none" stroke="#000000" cx="408.4774" cy="-684.864" rx="3.2" ry="3.2"/>
</g>
<!-- client_default_roles -->
<g id="node5" class="node">
<title>client_default_roles</title>
<g id="a_node5"><a xlink:href="../../tables/client_default_roles.html" xlink:title="client_default_roles" target="_top">
<polygon fill="#ffffff" stroke="transparent" points="443.5,-530.2 443.5,-591.2 580.5,-591.2 580.5,-530.2 443.5,-530.2"/>
<polygon fill="#f5f5f5" stroke="transparent" points="444,-567.7 444,-590.7 581,-590.7 581,-567.7 444,-567.7"/>
<polygon fill="none" stroke="#000000" points="444,-567.7 444,-590.7 581,-590.7 581,-567.7 444,-567.7"/>
<text text-anchor="start" x="448.6274" y="-576.8" font-family="Helvetica,sans-Serif" font-weight="bold" font-size="11.00" fill="#000000">client_default_roles</text>
<text text-anchor="start" x="546.5219" y="-575.8" font-family="Helvetica,sans-Serif" font-size="11.00" fill="#000000">[table]</text>
<polygon fill="none" stroke="#000000" points="444,-548.7 444,-567.7 581,-567.7 581,-548.7 444,-548.7"/>
<text text-anchor="start" x="447" y="-554.8" font-family="Helvetica,sans-Serif" font-size="11.00" fill="#000000">...</text>
<polygon fill="#ffffff" stroke="transparent" points="444,-529.7 444,-548.7 498,-548.7 498,-529.7 444,-529.7"/>
<polygon fill="none" stroke="#000000" points="444,-529.7 444,-548.7 498,-548.7 498,-529.7 444,-529.7"/>
<text text-anchor="start" x="447" y="-535.8" font-family="Helvetica,sans-Serif" font-size="11.00" fill="#000000">&lt; 1</text>
<polygon fill="#ffffff" stroke="transparent" points="498,-529.7 498,-548.7 552,-548.7 552,-529.7 498,-529.7"/>
<polygon fill="none" stroke="#000000" points="498,-529.7 498,-548.7 552,-548.7 552,-529.7 498,-529.7"/>
<text text-anchor="start" x="516.6105" y="-535.8" font-family="Helvetica,sans-Serif" font-size="11.00" fill="#000000">2 rows</text>
<polygon fill="#ffffff" stroke="transparent" points="552,-529.7 552,-548.7 581,-548.7 581,-529.7 552,-529.7"/>
<polygon fill="none" stroke="#000000" points="552,-529.7 552,-548.7 581,-548.7 581,-529.7 552,-529.7"/>
<text text-anchor="start" x="571.8862" y="-535.8" font-family="Helvetica,sans-Serif" font-size="11.00" fill="#000000"> &#160;</text>
</a>
</g>
</g>
<!-- client_default_roles&#45;&gt;client -->
<g id="edge4" class="edge">
<title>client_default_roles:w&#45;&gt;client:e</title>
<path fill="none" stroke="#000000" d="M429.719,-554.2282C419.7174,-548.0928 416.9524,-534.569 409,-519.7 372.9809,-452.3534 444.8737,-352.7 368.5,-352.7"/>
<polygon fill="#000000" stroke="#000000" points="436.2264,-555.8102 443.1496,-561.1981 440.1132,-556.7551 444,-557.7 444,-557.7 444,-557.7 440.1132,-556.7551 444.8504,-554.2019 436.2264,-555.8102 436.2264,-555.8102"/>
<ellipse fill="none" stroke="#000000" cx="433.117" cy="-555.0542" rx="3.2" ry="3.2"/>
</g>
<!-- client_node_registrations -->
<g id="node6" class="node">
<title>client_node_registrations</title>
<g id="a_node6"><a xlink:href="../../tables/client_node_registrations.html" xlink:title="client_node_registrations" target="_top">
<polygon fill="#ffffff" stroke="transparent" points="429.5,-448.2 429.5,-509.2 594.5,-509.2 594.5,-448.2 429.5,-448.2"/>
<polygon fill="#f5f5f5" stroke="transparent" points="430,-485.7 430,-508.7 595,-508.7 595,-485.7 430,-485.7"/>
<polygon fill="none" stroke="#000000" points="430,-485.7 430,-508.7 595,-508.7 595,-485.7 430,-485.7"/>
<text text-anchor="start" x="434.8741" y="-494.8" font-family="Helvetica,sans-Serif" font-weight="bold" font-size="11.00" fill="#000000">client_node_registrations</text>
<text text-anchor="start" x="560.5219" y="-493.8" font-family="Helvetica,sans-Serif" font-size="11.00" fill="#000000">[table]</text>
<polygon fill="none" stroke="#000000" points="430,-466.7 430,-485.7 595,-485.7 595,-466.7 430,-466.7"/>
<text text-anchor="start" x="433" y="-472.8" font-family="Helvetica,sans-Serif" font-size="11.00" fill="#000000">...</text>
<polygon fill="#ffffff" stroke="transparent" points="430,-447.7 430,-466.7 498,-466.7 498,-447.7 430,-447.7"/>
<polygon fill="none" stroke="#000000" points="430,-447.7 430,-466.7 498,-466.7 498,-447.7 430,-447.7"/>
<text text-anchor="start" x="433" y="-453.8" font-family="Helvetica,sans-Serif" font-size="11.00" fill="#000000">&lt; 1</text>
<polygon fill="#ffffff" stroke="transparent" points="498,-447.7 498,-466.7 559,-466.7 559,-447.7 498,-447.7"/>
<polygon fill="none" stroke="#000000" points="498,-447.7 498,-466.7 559,-466.7 559,-447.7 498,-447.7"/>
<text text-anchor="start" x="523.6105" y="-453.8" font-family="Helvetica,sans-Serif" font-size="11.00" fill="#000000">0 rows</text>
<polygon fill="#ffffff" stroke="transparent" points="559,-447.7 559,-466.7 595,-466.7 595,-447.7 559,-447.7"/>
<polygon fill="none" stroke="#000000" points="559,-447.7 559,-466.7 595,-466.7 595,-447.7 559,-447.7"/>
<text text-anchor="start" x="585.8862" y="-453.8" font-family="Helvetica,sans-Serif" font-size="11.00" fill="#000000"> &#160;</text>
</a>
</g>
</g>
<!-- client_node_registrations&#45;&gt;client -->
<g id="edge5" class="edge">
<title>client_node_registrations:w&#45;&gt;client:e</title>
<path fill="none" stroke="#000000" d="M415.8225,-472.6595C379.1982,-453.7186 423.8893,-352.7 368.5,-352.7"/>
<polygon fill="#000000" stroke="#000000" points="422.1779,-474.0224 429.2451,-479.22 426.0889,-474.8612 430,-475.7 430,-475.7 430,-475.7 426.0889,-474.8612 430.7549,-472.18 422.1779,-474.0224 422.1779,-474.0224"/>
<ellipse fill="none" stroke="#000000" cx="419.049" cy="-473.3514" rx="3.2" ry="3.2"/>
</g>
<!-- client_scope_client -->
<g id="node7" class="node">
<title>client_scope_client</title>
<g id="a_node7"><a xlink:href="../../tables/client_scope_client.html" xlink:title="client_scope_client" target="_top">
<polygon fill="#ffffff" stroke="transparent" points="444.5,-366.2 444.5,-427.2 579.5,-427.2 579.5,-366.2 444.5,-366.2"/>
<polygon fill="#f5f5f5" stroke="transparent" points="445,-403.7 445,-426.7 580,-426.7 580,-403.7 445,-403.7"/>
<polygon fill="none" stroke="#000000" points="445,-403.7 445,-426.7 580,-426.7 580,-403.7 445,-403.7"/>
<text text-anchor="start" x="449.5443" y="-412.8" font-family="Helvetica,sans-Serif" font-weight="bold" font-size="11.00" fill="#000000">client_scope_client</text>
<text text-anchor="start" x="545.5219" y="-411.8" font-family="Helvetica,sans-Serif" font-size="11.00" fill="#000000">[table]</text>
<polygon fill="none" stroke="#000000" points="445,-384.7 445,-403.7 580,-403.7 580,-384.7 445,-384.7"/>
<text text-anchor="start" x="448" y="-390.8" font-family="Helvetica,sans-Serif" font-size="11.00" fill="#000000">...</text>
<polygon fill="#ffffff" stroke="transparent" points="445,-365.7 445,-384.7 495,-384.7 495,-365.7 445,-365.7"/>
<polygon fill="none" stroke="#000000" points="445,-365.7 445,-384.7 495,-384.7 495,-365.7 445,-365.7"/>
<text text-anchor="start" x="448" y="-371.8" font-family="Helvetica,sans-Serif" font-size="11.00" fill="#000000">&lt; 2</text>
<polygon fill="#ffffff" stroke="transparent" points="495,-365.7 495,-384.7 553,-384.7 553,-365.7 495,-365.7"/>
<polygon fill="none" stroke="#000000" points="495,-365.7 495,-384.7 553,-384.7 553,-365.7 495,-365.7"/>
<text text-anchor="start" x="511.4956" y="-371.8" font-family="Helvetica,sans-Serif" font-size="11.00" fill="#000000">54 rows</text>
<polygon fill="#ffffff" stroke="transparent" points="553,-365.7 553,-384.7 580,-384.7 580,-365.7 553,-365.7"/>
<polygon fill="none" stroke="#000000" points="553,-365.7 553,-384.7 580,-384.7 580,-365.7 553,-365.7"/>
<text text-anchor="start" x="570.8862" y="-371.8" font-family="Helvetica,sans-Serif" font-size="11.00" fill="#000000"> &#160;</text>
</a>
</g>
</g>
<!-- client_scope_client&#45;&gt;client -->
<g id="edge6" class="edge">
<title>client_scope_client:w&#45;&gt;client:e</title>
<path fill="none" stroke="#000000" d="M430.4954,-391.3782C405.7934,-382.7049 401.4999,-352.7 368.5,-352.7"/>
<polygon fill="#000000" stroke="#000000" points="437.1006,-392.4355 444.431,-397.2547 441.0503,-393.0677 445,-393.7 445,-393.7 445,-393.7 441.0503,-393.0677 445.569,-390.1453 437.1006,-392.4355 437.1006,-392.4355"/>
<ellipse fill="none" stroke="#000000" cx="433.9408" cy="-391.9296" rx="3.2" ry="3.2"/>
</g>
<!-- protocol_mapper -->
<g id="node8" class="node">
<title>protocol_mapper</title>
<g id="a_node8"><a xlink:href="../../tables/protocol_mapper.html" xlink:title="protocol_mapper" target="_top">
<polygon fill="#ffffff" stroke="transparent" points="449.5,-284.2 449.5,-345.2 574.5,-345.2 574.5,-284.2 449.5,-284.2"/>
<polygon fill="#f5f5f5" stroke="transparent" points="450,-321.7 450,-344.7 575,-344.7 575,-321.7 450,-321.7"/>
<polygon fill="none" stroke="#000000" points="450,-321.7 450,-344.7 575,-344.7 575,-321.7 450,-321.7"/>
<text text-anchor="start" x="454.7412" y="-330.8" font-family="Helvetica,sans-Serif" font-weight="bold" font-size="11.00" fill="#000000">protocol_mapper</text>
<text text-anchor="start" x="540.5219" y="-329.8" font-family="Helvetica,sans-Serif" font-size="11.00" fill="#000000">[table]</text>
<polygon fill="none" stroke="#000000" points="450,-302.7 450,-321.7 575,-321.7 575,-302.7 450,-302.7"/>
<text text-anchor="start" x="453" y="-308.8" font-family="Helvetica,sans-Serif" font-size="11.00" fill="#000000">...</text>
<polygon fill="#ffffff" stroke="transparent" points="450,-283.7 450,-302.7 490,-302.7 490,-283.7 450,-283.7"/>
<polygon fill="none" stroke="#000000" points="450,-283.7 450,-302.7 490,-302.7 490,-283.7 450,-283.7"/>
<text text-anchor="start" x="453" y="-289.8" font-family="Helvetica,sans-Serif" font-size="11.00" fill="#000000">&lt; 2</text>
<polygon fill="#ffffff" stroke="transparent" points="490,-283.7 490,-302.7 544,-302.7 544,-283.7 490,-283.7"/>
<polygon fill="none" stroke="#000000" points="490,-283.7 490,-302.7 544,-302.7 544,-283.7 490,-283.7"/>
<text text-anchor="start" x="502.4956" y="-289.8" font-family="Helvetica,sans-Serif" font-size="11.00" fill="#000000">28 rows</text>
<polygon fill="#ffffff" stroke="transparent" points="544,-283.7 544,-302.7 575,-302.7 575,-283.7 544,-283.7"/>
<polygon fill="none" stroke="#000000" points="544,-283.7 544,-302.7 575,-302.7 575,-283.7 544,-283.7"/>
<text text-anchor="start" x="556.4053" y="-289.8" font-family="Helvetica,sans-Serif" font-size="11.00" fill="#000000">1 &gt;</text>
</a>
</g>
</g>
<!-- protocol_mapper&#45;&gt;client -->
<g id="edge7" class="edge">
<title>protocol_mapper:w&#45;&gt;client:e</title>
<path fill="none" stroke="#000000" d="M435.4151,-313.7896C408.5914,-322.1446 403.5039,-352.7 368.5,-352.7"/>
<polygon fill="#000000" stroke="#000000" points="442.0809,-312.8346 450.5106,-315.2636 446.0404,-312.2673 450,-311.7 450,-311.7 450,-311.7 446.0404,-312.2673 449.4894,-308.1364 442.0809,-312.8346 442.0809,-312.8346"/>
<ellipse fill="none" stroke="#000000" cx="438.9132" cy="-313.2885" rx="3.2" ry="3.2"/>
</g>
<!-- redirect_uris -->
<g id="node9" class="node">
<title>redirect_uris</title>
<g id="a_node9"><a xlink:href="../../tables/redirect_uris.html" xlink:title="redirect_uris" target="_top">
<polygon fill="#ffffff" stroke="transparent" points="460.5,-202.2 460.5,-263.2 563.5,-263.2 563.5,-202.2 460.5,-202.2"/>
<polygon fill="#f5f5f5" stroke="transparent" points="461,-239.7 461,-262.7 564,-262.7 564,-239.7 461,-239.7"/>
<polygon fill="none" stroke="#000000" points="461,-239.7 461,-262.7 564,-262.7 564,-239.7 461,-239.7"/>
<text text-anchor="start" x="465.7506" y="-248.8" font-family="Helvetica,sans-Serif" font-weight="bold" font-size="11.00" fill="#000000">redirect_uris</text>
<text text-anchor="start" x="529.5219" y="-247.8" font-family="Helvetica,sans-Serif" font-size="11.00" fill="#000000">[table]</text>
<polygon fill="none" stroke="#000000" points="461,-220.7 461,-239.7 564,-239.7 564,-220.7 461,-220.7"/>
<text text-anchor="start" x="464" y="-226.8" font-family="Helvetica,sans-Serif" font-size="11.00" fill="#000000">...</text>
<polygon fill="#ffffff" stroke="transparent" points="461,-201.7 461,-220.7 498,-220.7 498,-201.7 461,-201.7"/>
<polygon fill="none" stroke="#000000" points="461,-201.7 461,-220.7 498,-220.7 498,-201.7 461,-201.7"/>
<text text-anchor="start" x="464" y="-207.8" font-family="Helvetica,sans-Serif" font-size="11.00" fill="#000000">&lt; 1</text>
<polygon fill="#ffffff" stroke="transparent" points="498,-201.7 498,-220.7 544,-220.7 544,-201.7 498,-201.7"/>
<polygon fill="none" stroke="#000000" points="498,-201.7 498,-220.7 544,-220.7 544,-201.7 498,-201.7"/>
<text text-anchor="start" x="508.6105" y="-207.8" font-family="Helvetica,sans-Serif" font-size="11.00" fill="#000000">3 rows</text>
<polygon fill="#ffffff" stroke="transparent" points="544,-201.7 544,-220.7 564,-220.7 564,-201.7 544,-201.7"/>
<polygon fill="none" stroke="#000000" points="544,-201.7 544,-220.7 564,-220.7 564,-201.7 544,-201.7"/>
<text text-anchor="start" x="554.8862" y="-207.8" font-family="Helvetica,sans-Serif" font-size="11.00" fill="#000000"> &#160;</text>
</a>
</g>
</g>
<!-- redirect_uris&#45;&gt;client -->
<g id="edge8" class="edge">
<title>redirect_uris:w&#45;&gt;client:e</title>
<path fill="none" stroke="#000000" d="M446.5725,-231.7289C429.0786,-237.4294 424.2968,-254.4368 409,-273.7 384.4633,-304.5989 407.9562,-352.7 368.5,-352.7"/>
<polygon fill="#000000" stroke="#000000" points="453.0779,-230.8141 461.5013,-233.2649 457.039,-230.257 461,-229.7 461,-229.7 461,-229.7 457.039,-230.257 460.4987,-226.1351 453.0779,-230.8141 453.0779,-230.8141"/>
<ellipse fill="none" stroke="#000000" cx="449.9091" cy="-231.2597" rx="3.2" ry="3.2"/>
</g>
<!-- scope_mapping -->
<g id="node10" class="node">
<title>scope_mapping</title>
<g id="a_node10"><a xlink:href="../../tables/scope_mapping.html" xlink:title="scope_mapping" target="_top">
<polygon fill="#ffffff" stroke="transparent" points="452,-120.2 452,-181.2 572,-181.2 572,-120.2 452,-120.2"/>
<polygon fill="#f5f5f5" stroke="transparent" points="452,-157.7 452,-180.7 572,-180.7 572,-157.7 452,-157.7"/>
<polygon fill="none" stroke="#000000" points="452,-157.7 452,-180.7 572,-180.7 572,-157.7 452,-157.7"/>
<text text-anchor="start" x="456.6816" y="-166.8" font-family="Helvetica,sans-Serif" font-weight="bold" font-size="11.00" fill="#000000">scope_mapping</text>
<text text-anchor="start" x="537.5219" y="-165.8" font-family="Helvetica,sans-Serif" font-size="11.00" fill="#000000">[table]</text>
<polygon fill="none" stroke="#000000" points="452,-138.7 452,-157.7 572,-157.7 572,-138.7 452,-138.7"/>
<text text-anchor="start" x="455" y="-144.8" font-family="Helvetica,sans-Serif" font-size="11.00" fill="#000000">...</text>
<polygon fill="#ffffff" stroke="transparent" points="452,-119.7 452,-138.7 500,-138.7 500,-119.7 452,-119.7"/>
<polygon fill="none" stroke="#000000" points="452,-119.7 452,-138.7 500,-138.7 500,-119.7 452,-119.7"/>
<text text-anchor="start" x="455" y="-125.8" font-family="Helvetica,sans-Serif" font-size="11.00" fill="#000000">&lt; 1</text>
<polygon fill="#ffffff" stroke="transparent" points="500,-119.7 500,-138.7 546,-138.7 546,-119.7 500,-119.7"/>
<polygon fill="none" stroke="#000000" points="500,-119.7 500,-138.7 546,-138.7 546,-119.7 500,-119.7"/>
<text text-anchor="start" x="516.1105" y="-125.8" font-family="Helvetica,sans-Serif" font-size="11.00" fill="#000000">1 row</text>
<polygon fill="#ffffff" stroke="transparent" points="546,-119.7 546,-138.7 572,-138.7 572,-119.7 546,-119.7"/>
<polygon fill="none" stroke="#000000" points="546,-119.7 546,-138.7 572,-138.7 572,-119.7 546,-119.7"/>
<text text-anchor="start" x="562.8862" y="-125.8" font-family="Helvetica,sans-Serif" font-size="11.00" fill="#000000"> &#160;</text>
</a>
</g>
</g>
<!-- scope_mapping&#45;&gt;client -->
<g id="edge9" class="edge">
<title>scope_mapping:w&#45;&gt;client:e</title>
<path fill="none" stroke="#000000" d="M437.7004,-150.2341C423.193,-156.3616 419.5359,-172.8719 409,-191.7 372.9689,-256.0891 442.2848,-352.7 368.5,-352.7"/>
<polygon fill="#000000" stroke="#000000" points="444.1227,-149.096 452.6282,-151.2448 448.0614,-148.398 452,-147.7 452,-147.7 452,-147.7 448.0614,-148.398 451.3718,-144.1552 444.1227,-149.096 444.1227,-149.096"/>
<ellipse fill="none" stroke="#000000" cx="440.9718" cy="-149.6544" rx="3.2" ry="3.2"/>
</g>
<!-- web_origins -->
<g id="node11" class="node">
<title>web_origins</title>
<g id="a_node11"><a xlink:href="../../tables/web_origins.html" xlink:title="web_origins" target="_top">
<polygon fill="#ffffff" stroke="transparent" points="461.5,-38.2 461.5,-99.2 562.5,-99.2 562.5,-38.2 461.5,-38.2"/>
<polygon fill="#f5f5f5" stroke="transparent" points="462,-75.7 462,-98.7 563,-98.7 563,-75.7 462,-75.7"/>
<polygon fill="none" stroke="#000000" points="462,-75.7 462,-98.7 563,-98.7 563,-75.7 462,-75.7"/>
<text text-anchor="start" x="466.663" y="-84.8" font-family="Helvetica,sans-Serif" font-weight="bold" font-size="11.00" fill="#000000">web_origins</text>
<text text-anchor="start" x="528.5219" y="-83.8" font-family="Helvetica,sans-Serif" font-size="11.00" fill="#000000">[table]</text>
<polygon fill="none" stroke="#000000" points="462,-56.7 462,-75.7 563,-75.7 563,-56.7 462,-56.7"/>
<text text-anchor="start" x="465" y="-62.8" font-family="Helvetica,sans-Serif" font-size="11.00" fill="#000000">...</text>
<polygon fill="#ffffff" stroke="transparent" points="462,-37.7 462,-56.7 501,-56.7 501,-37.7 462,-37.7"/>
<polygon fill="none" stroke="#000000" points="462,-37.7 462,-56.7 501,-56.7 501,-37.7 462,-37.7"/>
<text text-anchor="start" x="465" y="-43.8" font-family="Helvetica,sans-Serif" font-size="11.00" fill="#000000">&lt; 1</text>
<polygon fill="#ffffff" stroke="transparent" points="501,-37.7 501,-56.7 542,-56.7 542,-37.7 501,-37.7"/>
<polygon fill="none" stroke="#000000" points="501,-37.7 501,-56.7 542,-56.7 542,-37.7 501,-37.7"/>
<text text-anchor="start" x="512.1105" y="-43.8" font-family="Helvetica,sans-Serif" font-size="11.00" fill="#000000">1 row</text>
<polygon fill="#ffffff" stroke="transparent" points="542,-37.7 542,-56.7 563,-56.7 563,-37.7 542,-37.7"/>
<polygon fill="none" stroke="#000000" points="542,-37.7 542,-56.7 563,-56.7 563,-37.7 542,-37.7"/>
<text text-anchor="start" x="553.8862" y="-43.8" font-family="Helvetica,sans-Serif" font-size="11.00" fill="#000000"> &#160;</text>
</a>
</g>
</g>
<!-- web_origins&#45;&gt;client -->
<g id="edge10" class="edge">
<title>web_origins:w&#45;&gt;client:e</title>
<path fill="none" stroke="#000000" d="M447.5878,-67.3422C428.5596,-72.2664 421.512,-87.9248 409,-109.7 381.7256,-157.1669 423.2449,-352.7 368.5,-352.7"/>
<polygon fill="#000000" stroke="#000000" points="454.0514,-66.6058 462.4076,-69.2769 458.0257,-66.1529 462,-65.7 462,-65.7 462,-65.7 458.0257,-66.1529 461.5924,-62.1231 454.0514,-66.6058 454.0514,-66.6058"/>
<ellipse fill="none" stroke="#000000" cx="450.872" cy="-66.9681" rx="3.2" ry="3.2"/>
</g>
</g>
</svg>
