<?xml version="1.0" encoding="UTF-8" standalone="no"?>
<!DOCTYPE svg PUBLIC "-//W3C//DTD SVG 1.1//EN"
 "http://www.w3.org/Graphics/SVG/1.1/DTD/svg11.dtd">
<!-- Generated by graphviz version 2.40.1 (20161225.0304)
 -->
<!-- Title: oneDegreeRelationshipsDiagram Pages: 1 -->
<svg width="402pt" height="256pt"
 viewBox="0.00 0.00 402.00 255.70" xmlns="http://www.w3.org/2000/svg" xmlns:xlink="http://www.w3.org/1999/xlink">
<g id="graph0" class="graph" transform="scale(1 1) rotate(0) translate(4 251.7)">
<title>oneDegreeRelationshipsDiagram</title>
<polygon fill="#ffffff" stroke="transparent" points="-4,4 -4,-251.7 398,-251.7 398,4 -4,4"/>
<text text-anchor="middle" x="72.4936" y="-7.3" font-family="Helvetica,sans-Serif" font-size="11.00" fill="#000000">Generated by SchemaSpy</text>
<!-- composite_role -->
<g id="node1" class="node">
<title>composite_role</title>
<g id="a_node1"><a xlink:href="../../tables/composite_role.html" xlink:title="composite_role" target="_top">
<polygon fill="#ffffff" stroke="transparent" points="212,-153.7 212,-243.7 386,-243.7 386,-153.7 212,-153.7"/>
<polygon fill="#f5f5f5" stroke="transparent" points="214,-218.7 214,-241.7 384,-241.7 384,-218.7 214,-218.7"/>
<polygon fill="none" stroke="#000000" points="214,-218.7 214,-241.7 384,-241.7 384,-218.7 214,-218.7"/>
<text text-anchor="start" x="219" y="-227.8" font-family="Helvetica,sans-Serif" font-weight="bold" font-size="11.00" fill="#000000">composite_role</text>
<text text-anchor="start" x="349.0437" y="-226.8" font-family="Helvetica,sans-Serif" font-size="11.00" fill="#000000">[table]</text>
<polygon fill="none" stroke="#000000" points="214,-196.7 214,-218.7 323,-218.7 323,-196.7 214,-196.7"/>
<image xlink:href="../../images/primaryKeys.png" width="11px" height="12px" preserveAspectRatio="xMinYMin meet" x="219" y="-213.7"/>
<text text-anchor="start" x="234" y="-203.8" font-family="Helvetica,sans-Serif" font-size="11.00" fill="#000000">composite</text>
<polygon fill="none" stroke="#000000" points="323,-196.7 323,-218.7 384,-218.7 384,-196.7 323,-196.7"/>
<text text-anchor="start" x="325.994" y="-204.4" font-family="Helvetica,sans-Serif" font-size="11.00" fill="#000000">varchar[36]</text>
<polygon fill="none" stroke="#000000" points="214,-174.7 214,-196.7 323,-196.7 323,-174.7 214,-174.7"/>
<image xlink:href="../../images/primaryKeys.png" width="11px" height="12px" preserveAspectRatio="xMinYMin meet" x="219" y="-191.7"/>
<text text-anchor="start" x="234" y="-181.8" font-family="Helvetica,sans-Serif" font-size="11.00" fill="#000000">child_role</text>
<polygon fill="none" stroke="#000000" points="323,-174.7 323,-196.7 384,-196.7 384,-174.7 323,-174.7"/>
<text text-anchor="start" x="325.994" y="-182.4" font-family="Helvetica,sans-Serif" font-size="11.00" fill="#000000">varchar[36]</text>
<polygon fill="#ffffff" stroke="transparent" points="214,-155.7 214,-174.7 257,-174.7 257,-155.7 214,-155.7"/>
<polygon fill="none" stroke="#000000" points="214,-155.7 214,-174.7 257,-174.7 257,-155.7 214,-155.7"/>
<text text-anchor="start" x="217" y="-161.8" font-family="Helvetica,sans-Serif" font-size="11.00" fill="#000000">&lt; 2</text>
<polygon fill="#ffffff" stroke="transparent" points="257,-155.7 257,-174.7 323,-174.7 323,-155.7 257,-155.7"/>
<polygon fill="none" stroke="#000000" points="257,-155.7 257,-174.7 323,-174.7 323,-155.7 257,-155.7"/>
<text text-anchor="start" x="281.4956" y="-161.8" font-family="Helvetica,sans-Serif" font-size="11.00" fill="#000000">24 rows</text>
<polygon fill="#ffffff" stroke="transparent" points="323,-155.7 323,-174.7 384,-174.7 384,-155.7 323,-155.7"/>
<polygon fill="none" stroke="#000000" points="323,-155.7 323,-174.7 384,-174.7 384,-155.7 323,-155.7"/>
<text text-anchor="start" x="365.4053" y="-161.8" font-family="Helvetica,sans-Serif" font-size="11.00" fill="#000000">0 &gt;</text>
<polygon fill="none" stroke="#000000" stroke-width="2" points="213,-154.7 213,-242.7 385,-242.7 385,-154.7 213,-154.7"/>
</a>
</g>
</g>
<!-- keycloak_role -->
<g id="node2" class="node">
<title>keycloak_role</title>
<g id="a_node2"><a xlink:href="../../tables/keycloak_role.html" xlink:title="keycloak_role" target="_top">
<polygon fill="#ffffff" stroke="transparent" points="8,-38.2 8,-231.2 163,-231.2 163,-38.2 8,-38.2"/>
<polygon fill="#f5f5f5" stroke="transparent" points="8.5,-207.7 8.5,-230.7 163.5,-230.7 163.5,-207.7 8.5,-207.7"/>
<polygon fill="none" stroke="#000000" points="8.5,-207.7 8.5,-230.7 163.5,-230.7 163.5,-207.7 8.5,-207.7"/>
<text text-anchor="start" x="13.5" y="-216.8" font-family="Helvetica,sans-Serif" font-weight="bold" font-size="11.00" fill="#000000">keycloak_role</text>
<text text-anchor="start" x="128.5437" y="-215.8" font-family="Helvetica,sans-Serif" font-size="11.00" fill="#000000">[table]</text>
<polygon fill="none" stroke="#000000" points="8.5,-185.7 8.5,-207.7 163.5,-207.7 163.5,-185.7 8.5,-185.7"/>
<image xlink:href="../../images/primaryKeys.png" width="11px" height="12px" preserveAspectRatio="xMinYMin meet" x="13.5" y="-202.7"/>
<text text-anchor="start" x="28.5" y="-192.8" font-family="Helvetica,sans-Serif" font-size="11.00" fill="#000000">id</text>
<polygon fill="#ffffff" stroke="transparent" points="8.5,-163.7 8.5,-185.7 163.5,-185.7 163.5,-163.7 8.5,-163.7"/>
<polygon fill="none" stroke="#000000" points="8.5,-163.7 8.5,-185.7 163.5,-185.7 163.5,-163.7 8.5,-163.7"/>
<text text-anchor="start" x="28.5" y="-170.8" font-family="Helvetica,sans-Serif" font-size="11.00" fill="#000000">client_realm_constraint</text>
<polygon fill="#ffffff" stroke="transparent" points="8.5,-141.7 8.5,-163.7 163.5,-163.7 163.5,-141.7 8.5,-141.7"/>
<polygon fill="none" stroke="#000000" points="8.5,-141.7 8.5,-163.7 163.5,-163.7 163.5,-141.7 8.5,-141.7"/>
<text text-anchor="start" x="28.5" y="-148.8" font-family="Helvetica,sans-Serif" font-size="11.00" fill="#000000">name</text>
<polygon fill="none" stroke="#000000" points="8.5,-119.7 8.5,-141.7 163.5,-141.7 163.5,-119.7 8.5,-119.7"/>
<image xlink:href="../../images/foreignKeys.png" width="11px" height="12px" preserveAspectRatio="xMinYMin meet" x="13.5" y="-136.7"/>
<text text-anchor="start" x="28.5" y="-126.8" font-family="Helvetica,sans-Serif" font-size="11.00" fill="#000000">realm_id</text>
<polygon fill="#ffffff" stroke="transparent" points="8.5,-97.7 8.5,-119.7 163.5,-119.7 163.5,-97.7 8.5,-97.7"/>
<polygon fill="none" stroke="#000000" points="8.5,-97.7 8.5,-119.7 163.5,-119.7 163.5,-97.7 8.5,-97.7"/>
<text text-anchor="start" x="28.5" y="-104.8" font-family="Helvetica,sans-Serif" font-size="11.00" fill="#000000">client</text>
<polygon fill="#ffffff" stroke="transparent" points="8.5,-75.7 8.5,-97.7 163.5,-97.7 163.5,-75.7 8.5,-75.7"/>
<polygon fill="none" stroke="#000000" points="8.5,-75.7 8.5,-97.7 163.5,-97.7 163.5,-75.7 8.5,-75.7"/>
<image xlink:href="../../images/foreignKeys.png" width="11px" height="12px" preserveAspectRatio="xMinYMin meet" x="13.5" y="-92.7"/>
<text text-anchor="start" x="28.5" y="-82.8" font-family="Helvetica,sans-Serif" font-size="11.00" fill="#000000">realm</text>
<polygon fill="none" stroke="#000000" points="8.5,-56.7 8.5,-75.7 163.5,-75.7 163.5,-56.7 8.5,-56.7"/>
<text text-anchor="start" x="11.5" y="-62.8" font-family="Helvetica,sans-Serif" font-size="11.00" fill="#000000">...</text>
<polygon fill="#ffffff" stroke="transparent" points="8.5,-37.7 8.5,-56.7 63.5,-56.7 63.5,-37.7 8.5,-37.7"/>
<polygon fill="none" stroke="#000000" points="8.5,-37.7 8.5,-56.7 63.5,-56.7 63.5,-37.7 8.5,-37.7"/>
<text text-anchor="start" x="11.5" y="-43.8" font-family="Helvetica,sans-Serif" font-size="11.00" fill="#000000">&lt; 1</text>
<polygon fill="#ffffff" stroke="transparent" points="63.5,-37.7 63.5,-56.7 124.5,-56.7 124.5,-37.7 63.5,-37.7"/>
<polygon fill="none" stroke="#000000" points="63.5,-37.7 63.5,-56.7 124.5,-56.7 124.5,-37.7 63.5,-37.7"/>
<text text-anchor="start" x="82.9956" y="-43.8" font-family="Helvetica,sans-Serif" font-size="11.00" fill="#000000">30 rows</text>
<polygon fill="#ffffff" stroke="transparent" points="124.5,-37.7 124.5,-56.7 163.5,-56.7 163.5,-37.7 124.5,-37.7"/>
<polygon fill="none" stroke="#000000" points="124.5,-37.7 124.5,-56.7 163.5,-56.7 163.5,-37.7 124.5,-37.7"/>
<text text-anchor="start" x="144.9053" y="-43.8" font-family="Helvetica,sans-Serif" font-size="11.00" fill="#000000">3 &gt;</text>
</a>
</g>
</g>
<!-- composite_role&#45;&gt;keycloak_role -->
<g id="edge1" class="edge">
<title>composite_role:w&#45;&gt;keycloak_role:e</title>
<path fill="none" stroke="#000000" d="M199.6489,-187.4188C187.5992,-190.5125 180.728,-196.7 163.5,-196.7"/>
<polygon fill="#000000" stroke="#000000" points="206.0568,-186.6514 214.4281,-189.2745 210.0284,-186.1757 214,-185.7 214,-185.7 214,-185.7 210.0284,-186.1757 213.5719,-182.1255 206.0568,-186.6514 206.0568,-186.6514"/>
<ellipse fill="none" stroke="#000000" cx="202.8795" cy="-187.0319" rx="3.2" ry="3.2"/>
</g>
<!-- composite_role&#45;&gt;keycloak_role -->
<g id="edge2" class="edge">
<title>composite_role:w&#45;&gt;keycloak_role:e</title>
<path fill="none" stroke="#000000" d="M199.6489,-205.9813C187.5992,-202.8875 180.728,-196.7 163.5,-196.7"/>
<polygon fill="#000000" stroke="#000000" points="206.0568,-206.7486 213.5719,-211.2745 210.0284,-207.2243 214,-207.7 214,-207.7 214,-207.7 210.0284,-207.2243 214.4281,-204.1255 206.0568,-206.7486 206.0568,-206.7486"/>
<ellipse fill="none" stroke="#000000" cx="202.8795" cy="-206.3681" rx="3.2" ry="3.2"/>
</g>
</g>
</svg>
