<?xml version="1.0" encoding="UTF-8" standalone="no"?>
<!DOCTYPE svg PUBLIC "-//W3C//DTD SVG 1.1//EN"
 "http://www.w3.org/Graphics/SVG/1.1/DTD/svg11.dtd">
<!-- Generated by graphviz version 2.40.1 (20161225.0304)
 -->
<!-- Title: twoDegreesRelationshipsDiagramImplied Pages: 1 -->
<svg width="567pt" height="267pt"
 viewBox="0.00 0.00 567.00 266.70" xmlns="http://www.w3.org/2000/svg" xmlns:xlink="http://www.w3.org/1999/xlink">
<g id="graph0" class="graph" transform="scale(1 1) rotate(0) translate(4 262.7)">
<title>twoDegreesRelationshipsDiagramImplied</title>
<polygon fill="#ffffff" stroke="transparent" points="-4,4 -4,-262.7 563,-262.7 563,4 -4,4"/>
<text text-anchor="middle" x="72.4936" y="-7.3" font-family="Helvetica,sans-Serif" font-size="11.00" fill="#000000">Generated by SchemaSpy</text>
<!-- composite_role -->
<g id="node1" class="node">
<title>composite_role</title>
<g id="a_node1"><a xlink:href="../../tables/composite_role.html" xlink:title="composite_role" target="_top">
<polygon fill="#ffffff" stroke="transparent" points="377,-164.7 377,-254.7 551,-254.7 551,-164.7 377,-164.7"/>
<polygon fill="#f5f5f5" stroke="transparent" points="379,-229.7 379,-252.7 549,-252.7 549,-229.7 379,-229.7"/>
<polygon fill="none" stroke="#000000" points="379,-229.7 379,-252.7 549,-252.7 549,-229.7 379,-229.7"/>
<text text-anchor="start" x="384" y="-238.8" font-family="Helvetica,sans-Serif" font-weight="bold" font-size="11.00" fill="#000000">composite_role</text>
<text text-anchor="start" x="514.0437" y="-237.8" font-family="Helvetica,sans-Serif" font-size="11.00" fill="#000000">[table]</text>
<polygon fill="none" stroke="#000000" points="379,-207.7 379,-229.7 488,-229.7 488,-207.7 379,-207.7"/>
<image xlink:href="../../images/primaryKeys.png" width="11px" height="12px" preserveAspectRatio="xMinYMin meet" x="384" y="-224.7"/>
<text text-anchor="start" x="399" y="-214.8" font-family="Helvetica,sans-Serif" font-size="11.00" fill="#000000">composite</text>
<polygon fill="none" stroke="#000000" points="488,-207.7 488,-229.7 549,-229.7 549,-207.7 488,-207.7"/>
<text text-anchor="start" x="490.994" y="-215.4" font-family="Helvetica,sans-Serif" font-size="11.00" fill="#000000">varchar[36]</text>
<polygon fill="none" stroke="#000000" points="379,-185.7 379,-207.7 488,-207.7 488,-185.7 379,-185.7"/>
<image xlink:href="../../images/primaryKeys.png" width="11px" height="12px" preserveAspectRatio="xMinYMin meet" x="384" y="-202.7"/>
<text text-anchor="start" x="399" y="-192.8" font-family="Helvetica,sans-Serif" font-size="11.00" fill="#000000">child_role</text>
<polygon fill="none" stroke="#000000" points="488,-185.7 488,-207.7 549,-207.7 549,-185.7 488,-185.7"/>
<text text-anchor="start" x="490.994" y="-193.4" font-family="Helvetica,sans-Serif" font-size="11.00" fill="#000000">varchar[36]</text>
<polygon fill="#ffffff" stroke="transparent" points="379,-166.7 379,-185.7 422,-185.7 422,-166.7 379,-166.7"/>
<polygon fill="none" stroke="#000000" points="379,-166.7 379,-185.7 422,-185.7 422,-166.7 379,-166.7"/>
<text text-anchor="start" x="382" y="-172.8" font-family="Helvetica,sans-Serif" font-size="11.00" fill="#000000">&lt; 2</text>
<polygon fill="#ffffff" stroke="transparent" points="422,-166.7 422,-185.7 488,-185.7 488,-166.7 422,-166.7"/>
<polygon fill="none" stroke="#000000" points="422,-166.7 422,-185.7 488,-185.7 488,-166.7 422,-166.7"/>
<text text-anchor="start" x="446.4956" y="-172.8" font-family="Helvetica,sans-Serif" font-size="11.00" fill="#000000">24 rows</text>
<polygon fill="#ffffff" stroke="transparent" points="488,-166.7 488,-185.7 549,-185.7 549,-166.7 488,-166.7"/>
<polygon fill="none" stroke="#000000" points="488,-166.7 488,-185.7 549,-185.7 549,-166.7 488,-166.7"/>
<text text-anchor="start" x="530.4053" y="-172.8" font-family="Helvetica,sans-Serif" font-size="11.00" fill="#000000">0 &gt;</text>
<polygon fill="none" stroke="#000000" stroke-width="2" points="378,-165.7 378,-253.7 550,-253.7 550,-165.7 378,-165.7"/>
</a>
</g>
</g>
<!-- keycloak_role -->
<g id="node2" class="node">
<title>keycloak_role</title>
<g id="a_node2"><a xlink:href="../../tables/keycloak_role.html" xlink:title="keycloak_role" target="_top">
<polygon fill="#ffffff" stroke="transparent" points="173,-38.2 173,-231.2 328,-231.2 328,-38.2 173,-38.2"/>
<polygon fill="#f5f5f5" stroke="transparent" points="173.5,-207.7 173.5,-230.7 328.5,-230.7 328.5,-207.7 173.5,-207.7"/>
<polygon fill="none" stroke="#000000" points="173.5,-207.7 173.5,-230.7 328.5,-230.7 328.5,-207.7 173.5,-207.7"/>
<text text-anchor="start" x="178.5" y="-216.8" font-family="Helvetica,sans-Serif" font-weight="bold" font-size="11.00" fill="#000000">keycloak_role</text>
<text text-anchor="start" x="293.5437" y="-215.8" font-family="Helvetica,sans-Serif" font-size="11.00" fill="#000000">[table]</text>
<polygon fill="none" stroke="#000000" points="173.5,-185.7 173.5,-207.7 328.5,-207.7 328.5,-185.7 173.5,-185.7"/>
<image xlink:href="../../images/primaryKeys.png" width="11px" height="12px" preserveAspectRatio="xMinYMin meet" x="178.5" y="-202.7"/>
<text text-anchor="start" x="193.5" y="-192.8" font-family="Helvetica,sans-Serif" font-size="11.00" fill="#000000">id</text>
<polygon fill="#ffffff" stroke="transparent" points="173.5,-163.7 173.5,-185.7 328.5,-185.7 328.5,-163.7 173.5,-163.7"/>
<polygon fill="none" stroke="#000000" points="173.5,-163.7 173.5,-185.7 328.5,-185.7 328.5,-163.7 173.5,-163.7"/>
<text text-anchor="start" x="193.5" y="-170.8" font-family="Helvetica,sans-Serif" font-size="11.00" fill="#000000">client_realm_constraint</text>
<polygon fill="#ffffff" stroke="transparent" points="173.5,-141.7 173.5,-163.7 328.5,-163.7 328.5,-141.7 173.5,-141.7"/>
<polygon fill="none" stroke="#000000" points="173.5,-141.7 173.5,-163.7 328.5,-163.7 328.5,-141.7 173.5,-141.7"/>
<text text-anchor="start" x="193.5" y="-148.8" font-family="Helvetica,sans-Serif" font-size="11.00" fill="#000000">name</text>
<polygon fill="none" stroke="#000000" points="173.5,-119.7 173.5,-141.7 328.5,-141.7 328.5,-119.7 173.5,-119.7"/>
<image xlink:href="../../images/foreignKeys.png" width="11px" height="12px" preserveAspectRatio="xMinYMin meet" x="178.5" y="-136.7"/>
<text text-anchor="start" x="193.5" y="-126.8" font-family="Helvetica,sans-Serif" font-size="11.00" fill="#000000">realm_id</text>
<polygon fill="#ffffff" stroke="transparent" points="173.5,-97.7 173.5,-119.7 328.5,-119.7 328.5,-97.7 173.5,-97.7"/>
<polygon fill="none" stroke="#000000" points="173.5,-97.7 173.5,-119.7 328.5,-119.7 328.5,-97.7 173.5,-97.7"/>
<text text-anchor="start" x="193.5" y="-104.8" font-family="Helvetica,sans-Serif" font-size="11.00" fill="#000000">client</text>
<polygon fill="#ffffff" stroke="transparent" points="173.5,-75.7 173.5,-97.7 328.5,-97.7 328.5,-75.7 173.5,-75.7"/>
<polygon fill="none" stroke="#000000" points="173.5,-75.7 173.5,-97.7 328.5,-97.7 328.5,-75.7 173.5,-75.7"/>
<image xlink:href="../../images/foreignKeys.png" width="11px" height="12px" preserveAspectRatio="xMinYMin meet" x="178.5" y="-92.7"/>
<text text-anchor="start" x="193.5" y="-82.8" font-family="Helvetica,sans-Serif" font-size="11.00" fill="#000000">realm</text>
<polygon fill="none" stroke="#000000" points="173.5,-56.7 173.5,-75.7 328.5,-75.7 328.5,-56.7 173.5,-56.7"/>
<text text-anchor="start" x="176.5" y="-62.8" font-family="Helvetica,sans-Serif" font-size="11.00" fill="#000000">...</text>
<polygon fill="#ffffff" stroke="transparent" points="173.5,-37.7 173.5,-56.7 228.5,-56.7 228.5,-37.7 173.5,-37.7"/>
<polygon fill="none" stroke="#000000" points="173.5,-37.7 173.5,-56.7 228.5,-56.7 228.5,-37.7 173.5,-37.7"/>
<text text-anchor="start" x="176.5" y="-43.8" font-family="Helvetica,sans-Serif" font-size="11.00" fill="#000000">&lt; 2</text>
<polygon fill="#ffffff" stroke="transparent" points="228.5,-37.7 228.5,-56.7 289.5,-56.7 289.5,-37.7 228.5,-37.7"/>
<polygon fill="none" stroke="#000000" points="228.5,-37.7 228.5,-56.7 289.5,-56.7 289.5,-37.7 228.5,-37.7"/>
<text text-anchor="start" x="247.9956" y="-43.8" font-family="Helvetica,sans-Serif" font-size="11.00" fill="#000000">30 rows</text>
<polygon fill="#ffffff" stroke="transparent" points="289.5,-37.7 289.5,-56.7 328.5,-56.7 328.5,-37.7 289.5,-37.7"/>
<polygon fill="none" stroke="#000000" points="289.5,-37.7 289.5,-56.7 328.5,-56.7 328.5,-37.7 289.5,-37.7"/>
<text text-anchor="start" x="309.9053" y="-43.8" font-family="Helvetica,sans-Serif" font-size="11.00" fill="#000000">3 &gt;</text>
</a>
</g>
</g>
<!-- composite_role&#45;&gt;keycloak_role -->
<g id="edge1" class="edge">
<title>composite_role:w&#45;&gt;keycloak_role:e</title>
<path fill="none" stroke="#000000" d="M364.4203,-196.7C352.5435,-196.7 345.158,-196.7 328.5,-196.7"/>
<polygon fill="#000000" stroke="#000000" points="371,-196.7001 379,-200.3 375,-196.7 379,-196.7 379,-196.7 379,-196.7 375,-196.7 379,-193.1 371,-196.7001 371,-196.7001"/>
<ellipse fill="none" stroke="#000000" cx="367.8" cy="-196.7001" rx="3.2" ry="3.2"/>
</g>
<!-- composite_role&#45;&gt;keycloak_role -->
<g id="edge2" class="edge">
<title>composite_role:w&#45;&gt;keycloak_role:e</title>
<path fill="none" stroke="#000000" d="M364.5981,-215.4538C352.4282,-209.3342 347.0526,-196.7 328.5,-196.7"/>
<polygon fill="#000000" stroke="#000000" points="371.1958,-216.9409 378.2084,-222.2119 375.0979,-217.8204 379,-218.7 379,-218.7 379,-218.7 375.0979,-217.8204 379.7916,-215.1881 371.1958,-216.9409 371.1958,-216.9409"/>
<ellipse fill="none" stroke="#000000" cx="368.0741" cy="-216.2373" rx="3.2" ry="3.2"/>
</g>
<!-- realm -->
<g id="node3" class="node">
<title>realm</title>
<g id="a_node3"><a xlink:href="../../tables/realm.html" xlink:title="realm" target="_top">
<polygon fill="#ffffff" stroke="transparent" points="30.5,-40.2 30.5,-101.2 101.5,-101.2 101.5,-40.2 30.5,-40.2"/>
<polygon fill="#f5f5f5" stroke="transparent" points="31,-77.7 31,-100.7 102,-100.7 102,-77.7 31,-77.7"/>
<polygon fill="none" stroke="#000000" points="31,-77.7 31,-100.7 102,-100.7 102,-77.7 31,-77.7"/>
<text text-anchor="start" x="36" y="-86.8" font-family="Helvetica,sans-Serif" font-weight="bold" font-size="11.00" fill="#000000">realm</text>
<text text-anchor="start" x="67.5219" y="-85.8" font-family="Helvetica,sans-Serif" font-size="11.00" fill="#000000">[table]</text>
<polygon fill="none" stroke="#000000" points="31,-58.7 31,-77.7 102,-77.7 102,-58.7 31,-58.7"/>
<text text-anchor="start" x="34" y="-64.8" font-family="Helvetica,sans-Serif" font-size="11.00" fill="#000000">...</text>
<polygon fill="#ffffff" stroke="transparent" points="31,-39.7 31,-58.7 43,-58.7 43,-39.7 31,-39.7"/>
<polygon fill="none" stroke="#000000" points="31,-39.7 31,-58.7 43,-58.7 43,-39.7 31,-39.7"/>
<text text-anchor="start" x="33.9431" y="-45.8" font-family="Helvetica,sans-Serif" font-size="11.00" fill="#000000"> &#160;</text>
<polygon fill="#ffffff" stroke="transparent" points="43,-39.7 43,-58.7 75,-58.7 75,-39.7 43,-39.7"/>
<polygon fill="none" stroke="#000000" points="43,-39.7 43,-58.7 75,-58.7 75,-39.7 43,-39.7"/>
<text text-anchor="start" x="45.5553" y="-45.8" font-family="Helvetica,sans-Serif" font-size="11.00" fill="#000000">1 row</text>
<polygon fill="#ffffff" stroke="transparent" points="75,-39.7 75,-58.7 102,-58.7 102,-39.7 75,-39.7"/>
<polygon fill="none" stroke="#000000" points="75,-39.7 75,-58.7 102,-58.7 102,-39.7 75,-39.7"/>
<text text-anchor="start" x="77.6452" y="-45.8" font-family="Helvetica,sans-Serif" font-size="11.00" fill="#000000">23 &gt;</text>
</a>
</g>
</g>
<!-- keycloak_role&#45;&gt;realm -->
<g id="edge3" class="edge">
<title>keycloak_role:w&#45;&gt;realm:e</title>
<path fill="none" stroke="#000000" d="M158.9713,-85.2719C137.9257,-80.8532 129.3577,-67.7 102,-67.7"/>
<polygon fill="#000000" stroke="#000000" points="165.5384,-85.9174 173.1478,-90.2827 169.5192,-86.3087 173.5,-86.7 173.5,-86.7 173.5,-86.7 169.5192,-86.3087 173.8522,-83.1173 165.5384,-85.9174 165.5384,-85.9174"/>
<ellipse fill="none" stroke="#000000" cx="162.3537" cy="-85.6043" rx="3.2" ry="3.2"/>
</g>
<!-- federated_user -->
<g id="node4" class="node">
<title>federated_user</title>
<g id="a_node4"><a xlink:href="../../tables/federated_user.html" xlink:title="federated_user" target="_top">
<polygon fill="#ffffff" stroke="transparent" points="8,-122.2 8,-183.2 124,-183.2 124,-122.2 8,-122.2"/>
<polygon fill="#f5f5f5" stroke="transparent" points="8,-159.7 8,-182.7 124,-182.7 124,-159.7 8,-159.7"/>
<polygon fill="none" stroke="#000000" points="8,-159.7 8,-182.7 124,-182.7 124,-159.7 8,-159.7"/>
<text text-anchor="start" x="12.5142" y="-168.8" font-family="Helvetica,sans-Serif" font-weight="bold" font-size="11.00" fill="#000000">federated_user</text>
<text text-anchor="start" x="89.5219" y="-167.8" font-family="Helvetica,sans-Serif" font-size="11.00" fill="#000000">[table]</text>
<polygon fill="none" stroke="#000000" points="8,-140.7 8,-159.7 124,-159.7 124,-140.7 8,-140.7"/>
<text text-anchor="start" x="11" y="-146.8" font-family="Helvetica,sans-Serif" font-size="11.00" fill="#000000">...</text>
<polygon fill="#ffffff" stroke="transparent" points="8,-121.7 8,-140.7 39,-140.7 39,-121.7 8,-121.7"/>
<polygon fill="none" stroke="#000000" points="8,-121.7 8,-140.7 39,-140.7 39,-121.7 8,-121.7"/>
<text text-anchor="start" x="11" y="-127.8" font-family="Helvetica,sans-Serif" font-size="11.00" fill="#000000"> &#160;</text>
<polygon fill="#ffffff" stroke="transparent" points="39,-121.7 39,-140.7 87,-140.7 87,-121.7 39,-121.7"/>
<polygon fill="none" stroke="#000000" points="39,-121.7 39,-140.7 87,-140.7 87,-121.7 39,-121.7"/>
<text text-anchor="start" x="51.6105" y="-127.8" font-family="Helvetica,sans-Serif" font-size="11.00" fill="#000000">0 rows</text>
<polygon fill="#ffffff" stroke="transparent" points="87,-121.7 87,-140.7 124,-140.7 124,-121.7 87,-121.7"/>
<polygon fill="none" stroke="#000000" points="87,-121.7 87,-140.7 124,-140.7 124,-121.7 87,-121.7"/>
<text text-anchor="start" x="99.2904" y="-127.8" font-family="Helvetica,sans-Serif" font-size="11.00" fill="#000000">30 &gt;</text>
</a>
</g>
</g>
<!-- keycloak_role&#45;&gt;federated_user -->
<g id="edge4" class="edge">
<title>keycloak_role:w&#45;&gt;federated_user:e</title>
<path fill="none" stroke="#000000" stroke-dasharray="5,2" d="M159.138,-133.6688C147.4253,-139.0125 141.6737,-149.7 124,-149.7"/>
<polygon fill="#000000" stroke="#000000" points="165.6656,-132.3195 174.2288,-134.2255 169.5828,-131.5097 173.5,-130.7 173.5,-130.7 173.5,-130.7 169.5828,-131.5097 172.7712,-127.1745 165.6656,-132.3195 165.6656,-132.3195"/>
<ellipse fill="none" stroke="#000000" cx="162.5319" cy="-132.9673" rx="3.2" ry="3.2"/>
</g>
<!-- role_attribute -->
<g id="node5" class="node">
<title>role_attribute</title>
<g id="a_node5"><a xlink:href="../../tables/role_attribute.html" xlink:title="role_attribute" target="_top">
<polygon fill="#ffffff" stroke="transparent" points="410.5,-82.2 410.5,-143.2 517.5,-143.2 517.5,-82.2 410.5,-82.2"/>
<polygon fill="#f5f5f5" stroke="transparent" points="411,-119.7 411,-142.7 518,-142.7 518,-119.7 411,-119.7"/>
<polygon fill="none" stroke="#000000" points="411,-119.7 411,-142.7 518,-142.7 518,-119.7 411,-119.7"/>
<text text-anchor="start" x="415.9097" y="-128.8" font-family="Helvetica,sans-Serif" font-weight="bold" font-size="11.00" fill="#000000">role_attribute</text>
<text text-anchor="start" x="483.5219" y="-127.8" font-family="Helvetica,sans-Serif" font-size="11.00" fill="#000000">[table]</text>
<polygon fill="none" stroke="#000000" points="411,-100.7 411,-119.7 518,-119.7 518,-100.7 411,-100.7"/>
<text text-anchor="start" x="414" y="-106.8" font-family="Helvetica,sans-Serif" font-size="11.00" fill="#000000">...</text>
<polygon fill="#ffffff" stroke="transparent" points="411,-81.7 411,-100.7 450,-100.7 450,-81.7 411,-81.7"/>
<polygon fill="none" stroke="#000000" points="411,-81.7 411,-100.7 450,-100.7 450,-81.7 411,-81.7"/>
<text text-anchor="start" x="414" y="-87.8" font-family="Helvetica,sans-Serif" font-size="11.00" fill="#000000">&lt; 1</text>
<polygon fill="#ffffff" stroke="transparent" points="450,-81.7 450,-100.7 497,-100.7 497,-81.7 450,-81.7"/>
<polygon fill="none" stroke="#000000" points="450,-81.7 450,-100.7 497,-100.7 497,-81.7 450,-81.7"/>
<text text-anchor="start" x="461.6105" y="-87.8" font-family="Helvetica,sans-Serif" font-size="11.00" fill="#000000">0 rows</text>
<polygon fill="#ffffff" stroke="transparent" points="497,-81.7 497,-100.7 518,-100.7 518,-81.7 497,-81.7"/>
<polygon fill="none" stroke="#000000" points="497,-81.7 497,-100.7 518,-100.7 518,-81.7 497,-81.7"/>
<text text-anchor="start" x="508.8862" y="-87.8" font-family="Helvetica,sans-Serif" font-size="11.00" fill="#000000"> &#160;</text>
</a>
</g>
</g>
<!-- role_attribute&#45;&gt;keycloak_role -->
<g id="edge5" class="edge">
<title>role_attribute:w&#45;&gt;keycloak_role:e</title>
<path fill="none" stroke="#000000" d="M397.7015,-115.9568C374.84,-135.9051 350.7725,-196.7 328.5,-196.7"/>
<polygon fill="#000000" stroke="#000000" points="403.7612,-113.1058 412.5326,-112.9575 407.3806,-111.4029 411,-109.7 411,-109.7 411,-109.7 407.3806,-111.4029 409.4674,-106.4425 403.7612,-113.1058 403.7612,-113.1058"/>
<ellipse fill="none" stroke="#000000" cx="400.8656" cy="-114.4682" rx="3.2" ry="3.2"/>
</g>
</g>
</svg>
