<?xml version="1.0" encoding="UTF-8" standalone="no"?>
<!DOCTYPE svg PUBLIC "-//W3C//DTD SVG 1.1//EN"
 "http://www.w3.org/Graphics/SVG/1.1/DTD/svg11.dtd">
<!-- Generated by graphviz version 2.40.1 (20161225.0304)
 -->
<!-- Title: oneDegreeRelationshipsDiagram Pages: 1 -->
<svg width="638pt" height="309pt"
 viewBox="0.00 0.00 638.00 309.20" xmlns="http://www.w3.org/2000/svg" xmlns:xlink="http://www.w3.org/1999/xlink">
<g id="graph0" class="graph" transform="scale(1 1) rotate(0) translate(4 305.2)">
<title>oneDegreeRelationshipsDiagram</title>
<polygon fill="#ffffff" stroke="transparent" points="-4,4 -4,-305.2 634,-305.2 634,4 -4,4"/>
<text text-anchor="middle" x="72.4936" y="-7.3" font-family="Helvetica,sans-Serif" font-size="11.00" fill="#000000">Generated by SchemaSpy</text>
<!-- component -->
<g id="node1" class="node">
<title>component</title>
<g id="a_node1"><a xlink:href="../../tables/component.html" xlink:title="component" target="_top">
<polygon fill="#ffffff" stroke="transparent" points="270,-76.7 270,-276.7 441,-276.7 441,-76.7 270,-76.7"/>
<polygon fill="#f5f5f5" stroke="transparent" points="272.5,-251.7 272.5,-274.7 439.5,-274.7 439.5,-251.7 272.5,-251.7"/>
<polygon fill="none" stroke="#000000" points="272.5,-251.7 272.5,-274.7 439.5,-274.7 439.5,-251.7 272.5,-251.7"/>
<text text-anchor="start" x="277.5" y="-260.8" font-family="Helvetica,sans-Serif" font-weight="bold" font-size="11.00" fill="#000000">component</text>
<text text-anchor="start" x="404.5437" y="-259.8" font-family="Helvetica,sans-Serif" font-size="11.00" fill="#000000">[table]</text>
<polygon fill="none" stroke="#000000" points="272.5,-229.7 272.5,-251.7 372.5,-251.7 372.5,-229.7 272.5,-229.7"/>
<image xlink:href="../../images/primaryKeys.png" width="11px" height="12px" preserveAspectRatio="xMinYMin meet" x="277.5" y="-246.7"/>
<text text-anchor="start" x="292.5" y="-236.8" font-family="Helvetica,sans-Serif" font-size="11.00" fill="#000000">id</text>
<polygon fill="none" stroke="#000000" points="372.5,-229.7 372.5,-251.7 439.5,-251.7 439.5,-229.7 372.5,-229.7"/>
<text text-anchor="start" x="375.5" y="-237.4" font-family="Helvetica,sans-Serif" font-size="11.00" fill="#000000">varchar[36]</text>
<polygon fill="none" stroke="#000000" points="272.5,-207.7 272.5,-229.7 372.5,-229.7 372.5,-207.7 272.5,-207.7"/>
<text text-anchor="start" x="292.5" y="-214.8" font-family="Helvetica,sans-Serif" font-size="11.00" fill="#000000">name</text>
<polygon fill="none" stroke="#000000" points="372.5,-207.7 372.5,-229.7 439.5,-229.7 439.5,-207.7 372.5,-207.7"/>
<text text-anchor="start" x="375.4365" y="-215.4" font-family="Helvetica,sans-Serif" font-size="11.00" fill="#000000">varchar[255]</text>
<polygon fill="none" stroke="#000000" points="272.5,-185.7 272.5,-207.7 372.5,-207.7 372.5,-185.7 272.5,-185.7"/>
<text text-anchor="start" x="292.5" y="-192.8" font-family="Helvetica,sans-Serif" font-size="11.00" fill="#000000">parent_id</text>
<polygon fill="none" stroke="#000000" points="372.5,-185.7 372.5,-207.7 439.5,-207.7 439.5,-185.7 372.5,-185.7"/>
<text text-anchor="start" x="375.5" y="-193.4" font-family="Helvetica,sans-Serif" font-size="11.00" fill="#000000">varchar[36]</text>
<polygon fill="none" stroke="#000000" points="272.5,-163.7 272.5,-185.7 372.5,-185.7 372.5,-163.7 272.5,-163.7"/>
<text text-anchor="start" x="292.5" y="-170.8" font-family="Helvetica,sans-Serif" font-size="11.00" fill="#000000">provider_id</text>
<polygon fill="none" stroke="#000000" points="372.5,-163.7 372.5,-185.7 439.5,-185.7 439.5,-163.7 372.5,-163.7"/>
<text text-anchor="start" x="375.5" y="-171.4" font-family="Helvetica,sans-Serif" font-size="11.00" fill="#000000">varchar[36]</text>
<polygon fill="#ffffff" stroke="transparent" points="272.5,-141.7 272.5,-163.7 372.5,-163.7 372.5,-141.7 272.5,-141.7"/>
<polygon fill="none" stroke="#000000" points="272.5,-141.7 272.5,-163.7 372.5,-163.7 372.5,-141.7 272.5,-141.7"/>
<text text-anchor="start" x="292.5" y="-148.8" font-family="Helvetica,sans-Serif" font-size="11.00" fill="#000000">provider_type</text>
<polygon fill="none" stroke="#000000" points="372.5,-141.7 372.5,-163.7 439.5,-163.7 439.5,-141.7 372.5,-141.7"/>
<text text-anchor="start" x="375.4365" y="-149.4" font-family="Helvetica,sans-Serif" font-size="11.00" fill="#000000">varchar[255]</text>
<polygon fill="#ffffff" stroke="transparent" points="272.5,-119.7 272.5,-141.7 372.5,-141.7 372.5,-119.7 272.5,-119.7"/>
<polygon fill="none" stroke="#000000" points="272.5,-119.7 272.5,-141.7 372.5,-141.7 372.5,-119.7 272.5,-119.7"/>
<image xlink:href="../../images/foreignKeys.png" width="11px" height="12px" preserveAspectRatio="xMinYMin meet" x="277.5" y="-136.7"/>
<text text-anchor="start" x="292.5" y="-126.8" font-family="Helvetica,sans-Serif" font-size="11.00" fill="#000000">realm_id</text>
<polygon fill="none" stroke="#000000" points="372.5,-119.7 372.5,-141.7 439.5,-141.7 439.5,-119.7 372.5,-119.7"/>
<text text-anchor="start" x="375.5" y="-127.4" font-family="Helvetica,sans-Serif" font-size="11.00" fill="#000000">varchar[36]</text>
<polygon fill="none" stroke="#000000" points="272.5,-97.7 272.5,-119.7 372.5,-119.7 372.5,-97.7 272.5,-97.7"/>
<text text-anchor="start" x="292.5" y="-104.8" font-family="Helvetica,sans-Serif" font-size="11.00" fill="#000000">sub_type</text>
<polygon fill="none" stroke="#000000" points="372.5,-97.7 372.5,-119.7 439.5,-119.7 439.5,-97.7 372.5,-97.7"/>
<text text-anchor="start" x="375.4365" y="-105.4" font-family="Helvetica,sans-Serif" font-size="11.00" fill="#000000">varchar[255]</text>
<polygon fill="#ffffff" stroke="transparent" points="272.5,-78.7 272.5,-97.7 313.5,-97.7 313.5,-78.7 272.5,-78.7"/>
<polygon fill="none" stroke="#000000" points="272.5,-78.7 272.5,-97.7 313.5,-97.7 313.5,-78.7 272.5,-78.7"/>
<text text-anchor="start" x="275.5" y="-84.8" font-family="Helvetica,sans-Serif" font-size="11.00" fill="#000000">&lt; 1</text>
<polygon fill="#ffffff" stroke="transparent" points="313.5,-78.7 313.5,-97.7 372.5,-97.7 372.5,-78.7 313.5,-78.7"/>
<polygon fill="none" stroke="#000000" points="313.5,-78.7 313.5,-97.7 372.5,-97.7 372.5,-78.7 313.5,-78.7"/>
<text text-anchor="start" x="337.1105" y="-84.8" font-family="Helvetica,sans-Serif" font-size="11.00" fill="#000000">9 rows</text>
<polygon fill="#ffffff" stroke="transparent" points="372.5,-78.7 372.5,-97.7 439.5,-97.7 439.5,-78.7 372.5,-78.7"/>
<polygon fill="none" stroke="#000000" points="372.5,-78.7 372.5,-97.7 439.5,-97.7 439.5,-78.7 372.5,-78.7"/>
<text text-anchor="start" x="420.9053" y="-84.8" font-family="Helvetica,sans-Serif" font-size="11.00" fill="#000000">1 &gt;</text>
<polygon fill="none" stroke="#000000" stroke-width="2" points="271,-77.7 271,-275.7 440,-275.7 440,-77.7 271,-77.7"/>
</a>
</g>
</g>
<!-- realm -->
<g id="node2" class="node">
<title>realm</title>
<g id="a_node2"><a xlink:href="../../tables/realm.html" xlink:title="realm" target="_top">
<polygon fill="#ffffff" stroke="transparent" points="8,-38.2 8,-165.2 221,-165.2 221,-38.2 8,-38.2"/>
<polygon fill="#f5f5f5" stroke="transparent" points="8.5,-141.7 8.5,-164.7 221.5,-164.7 221.5,-141.7 8.5,-141.7"/>
<polygon fill="none" stroke="#000000" points="8.5,-141.7 8.5,-164.7 221.5,-164.7 221.5,-141.7 8.5,-141.7"/>
<text text-anchor="start" x="13.5" y="-150.8" font-family="Helvetica,sans-Serif" font-weight="bold" font-size="11.00" fill="#000000">realm</text>
<text text-anchor="start" x="186.5437" y="-149.8" font-family="Helvetica,sans-Serif" font-size="11.00" fill="#000000">[table]</text>
<polygon fill="none" stroke="#000000" points="8.5,-119.7 8.5,-141.7 221.5,-141.7 221.5,-119.7 8.5,-119.7"/>
<image xlink:href="../../images/primaryKeys.png" width="11px" height="12px" preserveAspectRatio="xMinYMin meet" x="13.5" y="-136.7"/>
<text text-anchor="start" x="28.5" y="-126.8" font-family="Helvetica,sans-Serif" font-size="11.00" fill="#000000">id</text>
<polygon fill="#ffffff" stroke="transparent" points="8.5,-97.7 8.5,-119.7 221.5,-119.7 221.5,-97.7 8.5,-97.7"/>
<polygon fill="none" stroke="#000000" points="8.5,-97.7 8.5,-119.7 221.5,-119.7 221.5,-97.7 8.5,-97.7"/>
<text text-anchor="start" x="28.5" y="-104.8" font-family="Helvetica,sans-Serif" font-size="11.00" fill="#000000">name</text>
<polygon fill="#ffffff" stroke="transparent" points="8.5,-75.7 8.5,-97.7 221.5,-97.7 221.5,-75.7 8.5,-75.7"/>
<polygon fill="none" stroke="#000000" points="8.5,-75.7 8.5,-97.7 221.5,-97.7 221.5,-75.7 8.5,-75.7"/>
<text text-anchor="start" x="28.5" y="-82.8" font-family="Helvetica,sans-Serif" font-size="11.00" fill="#000000">master_admin_client</text>
<polygon fill="none" stroke="#000000" points="8.5,-56.7 8.5,-75.7 221.5,-75.7 221.5,-56.7 8.5,-56.7"/>
<text text-anchor="start" x="11.5" y="-62.8" font-family="Helvetica,sans-Serif" font-size="11.00" fill="#000000">...</text>
<polygon fill="#ffffff" stroke="transparent" points="8.5,-37.7 8.5,-56.7 91.5,-56.7 91.5,-37.7 8.5,-37.7"/>
<polygon fill="none" stroke="#000000" points="8.5,-37.7 8.5,-56.7 91.5,-56.7 91.5,-37.7 8.5,-37.7"/>
<text text-anchor="start" x="11.5" y="-43.8" font-family="Helvetica,sans-Serif" font-size="11.00" fill="#000000"> &#160;</text>
<polygon fill="#ffffff" stroke="transparent" points="91.5,-37.7 91.5,-56.7 158.5,-56.7 158.5,-37.7 91.5,-37.7"/>
<polygon fill="none" stroke="#000000" points="91.5,-37.7 91.5,-56.7 158.5,-56.7 158.5,-37.7 91.5,-37.7"/>
<text text-anchor="start" x="128.6105" y="-43.8" font-family="Helvetica,sans-Serif" font-size="11.00" fill="#000000">1 row</text>
<polygon fill="#ffffff" stroke="transparent" points="158.5,-37.7 158.5,-56.7 221.5,-56.7 221.5,-37.7 158.5,-37.7"/>
<polygon fill="none" stroke="#000000" points="158.5,-37.7 158.5,-56.7 221.5,-56.7 221.5,-37.7 158.5,-37.7"/>
<text text-anchor="start" x="196.7904" y="-43.8" font-family="Helvetica,sans-Serif" font-size="11.00" fill="#000000">23 &gt;</text>
</a>
</g>
</g>
<!-- component&#45;&gt;realm -->
<g id="edge1" class="edge">
<title>component:w&#45;&gt;realm:e</title>
<path fill="none" stroke="#000000" d="M257.776,-130.7C245.7815,-130.7 238.3229,-130.7 221.5,-130.7"/>
<polygon fill="#000000" stroke="#000000" points="264.5,-130.7001 272.5,-134.3 268.5,-130.7 272.5,-130.7 272.5,-130.7 272.5,-130.7 268.5,-130.7 272.5,-127.1 264.5,-130.7001 264.5,-130.7001"/>
<ellipse fill="none" stroke="#000000" cx="261.3" cy="-130.7001" rx="3.2" ry="3.2"/>
</g>
<!-- component_config -->
<g id="node3" class="node">
<title>component_config</title>
<g id="a_node3"><a xlink:href="../../tables/component_config.html" xlink:title="component_config" target="_top">
<polygon fill="#ffffff" stroke="transparent" points="490,-192.2 490,-297.2 622,-297.2 622,-192.2 490,-192.2"/>
<polygon fill="#f5f5f5" stroke="transparent" points="490,-273.7 490,-296.7 622,-296.7 622,-273.7 490,-273.7"/>
<polygon fill="none" stroke="#000000" points="490,-273.7 490,-296.7 622,-296.7 622,-273.7 490,-273.7"/>
<text text-anchor="start" x="494.5672" y="-282.8" font-family="Helvetica,sans-Serif" font-weight="bold" font-size="11.00" fill="#000000">component_config</text>
<text text-anchor="start" x="587.5219" y="-281.8" font-family="Helvetica,sans-Serif" font-size="11.00" fill="#000000">[table]</text>
<polygon fill="none" stroke="#000000" points="490,-251.7 490,-273.7 622,-273.7 622,-251.7 490,-251.7"/>
<image xlink:href="../../images/primaryKeys.png" width="11px" height="12px" preserveAspectRatio="xMinYMin meet" x="495" y="-268.7"/>
<text text-anchor="start" x="512" y="-258.8" font-family="Helvetica,sans-Serif" font-size="11.00" fill="#000000">id</text>
<polygon fill="#ffffff" stroke="transparent" points="490,-229.7 490,-251.7 622,-251.7 622,-229.7 490,-229.7"/>
<polygon fill="none" stroke="#000000" points="490,-229.7 490,-251.7 622,-251.7 622,-229.7 490,-229.7"/>
<image xlink:href="../../images/foreignKeys.png" width="11px" height="12px" preserveAspectRatio="xMinYMin meet" x="495" y="-246.7"/>
<text text-anchor="start" x="512" y="-236.8" font-family="Helvetica,sans-Serif" font-size="11.00" fill="#000000">component_id</text>
<polygon fill="none" stroke="#000000" points="490,-210.7 490,-229.7 622,-229.7 622,-210.7 490,-210.7"/>
<text text-anchor="start" x="493" y="-216.8" font-family="Helvetica,sans-Serif" font-size="11.00" fill="#000000">...</text>
<polygon fill="#ffffff" stroke="transparent" points="490,-191.7 490,-210.7 538,-210.7 538,-191.7 490,-191.7"/>
<polygon fill="none" stroke="#000000" points="490,-191.7 490,-210.7 538,-210.7 538,-191.7 490,-191.7"/>
<text text-anchor="start" x="493" y="-197.8" font-family="Helvetica,sans-Serif" font-size="11.00" fill="#000000">&lt; 1</text>
<polygon fill="#ffffff" stroke="transparent" points="538,-191.7 538,-210.7 596,-210.7 596,-191.7 538,-191.7"/>
<polygon fill="none" stroke="#000000" points="538,-191.7 538,-210.7 596,-210.7 596,-191.7 538,-191.7"/>
<text text-anchor="start" x="554.4956" y="-197.8" font-family="Helvetica,sans-Serif" font-size="11.00" fill="#000000">25 rows</text>
<polygon fill="#ffffff" stroke="transparent" points="596,-191.7 596,-210.7 622,-210.7 622,-191.7 596,-191.7"/>
<polygon fill="none" stroke="#000000" points="596,-191.7 596,-210.7 622,-210.7 622,-191.7 596,-191.7"/>
<text text-anchor="start" x="612.8862" y="-197.8" font-family="Helvetica,sans-Serif" font-size="11.00" fill="#000000"> &#160;</text>
</a>
</g>
</g>
<!-- component_config&#45;&gt;component -->
<g id="edge2" class="edge">
<title>component_config:w&#45;&gt;component:e</title>
<path fill="none" stroke="#000000" d="M475.4203,-240.7C463.5435,-240.7 456.158,-240.7 439.5,-240.7"/>
<polygon fill="#000000" stroke="#000000" points="482,-240.7001 490,-244.3 486,-240.7 490,-240.7 490,-240.7 490,-240.7 486,-240.7 490,-237.1 482,-240.7001 482,-240.7001"/>
<ellipse fill="none" stroke="#000000" cx="478.8" cy="-240.7001" rx="3.2" ry="3.2"/>
</g>
</g>
</svg>
