<?xml version="1.0" encoding="UTF-8" standalone="no"?>
<!DOCTYPE svg PUBLIC "-//W3C//DTD SVG 1.1//EN"
 "http://www.w3.org/Graphics/SVG/1.1/DTD/svg11.dtd">
<!-- Generated by graphviz version 2.40.1 (20161225.0304)
 -->
<!-- Title: twoDegreesRelationshipsDiagram Pages: 1 -->
<svg width="466pt" height="787pt"
 viewBox="0.00 0.00 466.00 786.70" xmlns="http://www.w3.org/2000/svg" xmlns:xlink="http://www.w3.org/1999/xlink">
<g id="graph0" class="graph" transform="scale(1 1) rotate(0) translate(4 782.7)">
<title>twoDegreesRelationshipsDiagram</title>
<polygon fill="#ffffff" stroke="transparent" points="-4,4 -4,-782.7 462,-782.7 462,4 -4,4"/>
<text text-anchor="middle" x="72.4936" y="-7.3" font-family="Helvetica,sans-Serif" font-size="11.00" fill="#000000">Generated by SchemaSpy</text>
<!-- credential -->
<g id="node1" class="node">
<title>credential</title>
<g id="a_node1"><a xlink:href="../../tables/credential.html" xlink:title="credential" target="_top">
<polygon fill="#ffffff" stroke="transparent" points="237,-530.7 237,-774.7 450,-774.7 450,-530.7 237,-530.7"/>
<polygon fill="#f5f5f5" stroke="transparent" points="239.5,-749.7 239.5,-772.7 448.5,-772.7 448.5,-749.7 239.5,-749.7"/>
<polygon fill="none" stroke="#000000" points="239.5,-749.7 239.5,-772.7 448.5,-772.7 448.5,-749.7 239.5,-749.7"/>
<text text-anchor="start" x="244.5" y="-758.8" font-family="Helvetica,sans-Serif" font-weight="bold" font-size="11.00" fill="#000000">credential</text>
<text text-anchor="start" x="413.5437" y="-757.8" font-family="Helvetica,sans-Serif" font-size="11.00" fill="#000000">[table]</text>
<polygon fill="none" stroke="#000000" points="239.5,-727.7 239.5,-749.7 348.5,-749.7 348.5,-727.7 239.5,-727.7"/>
<image xlink:href="../../images/primaryKeys.png" width="11px" height="12px" preserveAspectRatio="xMinYMin meet" x="244.5" y="-744.7"/>
<text text-anchor="start" x="259.5" y="-734.8" font-family="Helvetica,sans-Serif" font-size="11.00" fill="#000000">id</text>
<polygon fill="none" stroke="#000000" points="348.5,-727.7 348.5,-749.7 448.5,-749.7 448.5,-727.7 348.5,-727.7"/>
<text text-anchor="start" x="351.5" y="-735.4" font-family="Helvetica,sans-Serif" font-size="11.00" fill="#000000">varchar[36]</text>
<polygon fill="none" stroke="#000000" points="239.5,-705.7 239.5,-727.7 348.5,-727.7 348.5,-705.7 239.5,-705.7"/>
<text text-anchor="start" x="259.5" y="-712.8" font-family="Helvetica,sans-Serif" font-size="11.00" fill="#000000">salt</text>
<polygon fill="none" stroke="#000000" points="348.5,-705.7 348.5,-727.7 448.5,-727.7 448.5,-705.7 348.5,-705.7"/>
<text text-anchor="start" x="351.4178" y="-713.4" font-family="Helvetica,sans-Serif" font-size="11.00" fill="#000000">bytea[2147483647]</text>
<polygon fill="none" stroke="#000000" points="239.5,-683.7 239.5,-705.7 348.5,-705.7 348.5,-683.7 239.5,-683.7"/>
<text text-anchor="start" x="259.5" y="-690.8" font-family="Helvetica,sans-Serif" font-size="11.00" fill="#000000">type</text>
<polygon fill="none" stroke="#000000" points="348.5,-683.7 348.5,-705.7 448.5,-705.7 448.5,-683.7 348.5,-683.7"/>
<text text-anchor="start" x="351.5" y="-691.4" font-family="Helvetica,sans-Serif" font-size="11.00" fill="#000000">varchar[255]</text>
<polygon fill="#ffffff" stroke="transparent" points="239.5,-661.7 239.5,-683.7 348.5,-683.7 348.5,-661.7 239.5,-661.7"/>
<polygon fill="none" stroke="#000000" points="239.5,-661.7 239.5,-683.7 348.5,-683.7 348.5,-661.7 239.5,-661.7"/>
<image xlink:href="../../images/foreignKeys.png" width="11px" height="12px" preserveAspectRatio="xMinYMin meet" x="244.5" y="-678.7"/>
<text text-anchor="start" x="259.5" y="-668.8" font-family="Helvetica,sans-Serif" font-size="11.00" fill="#000000">user_id</text>
<polygon fill="none" stroke="#000000" points="348.5,-661.7 348.5,-683.7 448.5,-683.7 448.5,-661.7 348.5,-661.7"/>
<text text-anchor="start" x="351.5" y="-669.4" font-family="Helvetica,sans-Serif" font-size="11.00" fill="#000000">varchar[36]</text>
<polygon fill="none" stroke="#000000" points="239.5,-639.7 239.5,-661.7 348.5,-661.7 348.5,-639.7 239.5,-639.7"/>
<text text-anchor="start" x="259.5" y="-646.8" font-family="Helvetica,sans-Serif" font-size="11.00" fill="#000000">created_date</text>
<polygon fill="none" stroke="#000000" points="348.5,-639.7 348.5,-661.7 448.5,-661.7 448.5,-639.7 348.5,-639.7"/>
<text text-anchor="start" x="351.5" y="-647.4" font-family="Helvetica,sans-Serif" font-size="11.00" fill="#000000">int8[19]</text>
<polygon fill="none" stroke="#000000" points="239.5,-617.7 239.5,-639.7 348.5,-639.7 348.5,-617.7 239.5,-617.7"/>
<text text-anchor="start" x="259.5" y="-624.8" font-family="Helvetica,sans-Serif" font-size="11.00" fill="#000000">user_label</text>
<polygon fill="none" stroke="#000000" points="348.5,-617.7 348.5,-639.7 448.5,-639.7 448.5,-617.7 348.5,-617.7"/>
<text text-anchor="start" x="351.5" y="-625.4" font-family="Helvetica,sans-Serif" font-size="11.00" fill="#000000">varchar[255]</text>
<polygon fill="none" stroke="#000000" points="239.5,-595.7 239.5,-617.7 348.5,-617.7 348.5,-595.7 239.5,-595.7"/>
<text text-anchor="start" x="259.5" y="-602.8" font-family="Helvetica,sans-Serif" font-size="11.00" fill="#000000">secret_data</text>
<polygon fill="none" stroke="#000000" points="348.5,-595.7 348.5,-617.7 448.5,-617.7 448.5,-595.7 348.5,-595.7"/>
<text text-anchor="start" x="351.5" y="-603.4" font-family="Helvetica,sans-Serif" font-size="11.00" fill="#000000">text[2147483647]</text>
<polygon fill="none" stroke="#000000" points="239.5,-573.7 239.5,-595.7 348.5,-595.7 348.5,-573.7 239.5,-573.7"/>
<text text-anchor="start" x="259.5" y="-580.8" font-family="Helvetica,sans-Serif" font-size="11.00" fill="#000000">credential_data</text>
<polygon fill="none" stroke="#000000" points="348.5,-573.7 348.5,-595.7 448.5,-595.7 448.5,-573.7 348.5,-573.7"/>
<text text-anchor="start" x="351.5" y="-581.4" font-family="Helvetica,sans-Serif" font-size="11.00" fill="#000000">text[2147483647]</text>
<polygon fill="none" stroke="#000000" points="239.5,-551.7 239.5,-573.7 348.5,-573.7 348.5,-551.7 239.5,-551.7"/>
<text text-anchor="start" x="259.5" y="-558.8" font-family="Helvetica,sans-Serif" font-size="11.00" fill="#000000">priority</text>
<polygon fill="none" stroke="#000000" points="348.5,-551.7 348.5,-573.7 448.5,-573.7 448.5,-551.7 348.5,-551.7"/>
<text text-anchor="start" x="351.5" y="-559.4" font-family="Helvetica,sans-Serif" font-size="11.00" fill="#000000">int4[10]</text>
<polygon fill="#ffffff" stroke="transparent" points="239.5,-532.7 239.5,-551.7 288.5,-551.7 288.5,-532.7 239.5,-532.7"/>
<polygon fill="none" stroke="#000000" points="239.5,-532.7 239.5,-551.7 288.5,-551.7 288.5,-532.7 239.5,-532.7"/>
<text text-anchor="start" x="242.5" y="-538.8" font-family="Helvetica,sans-Serif" font-size="11.00" fill="#000000">&lt; 1</text>
<polygon fill="#ffffff" stroke="transparent" points="288.5,-532.7 288.5,-551.7 348.5,-551.7 348.5,-532.7 288.5,-532.7"/>
<polygon fill="none" stroke="#000000" points="288.5,-532.7 288.5,-551.7 348.5,-551.7 348.5,-532.7 288.5,-532.7"/>
<text text-anchor="start" x="318.6105" y="-538.8" font-family="Helvetica,sans-Serif" font-size="11.00" fill="#000000">1 row</text>
<polygon fill="#ffffff" stroke="transparent" points="348.5,-532.7 348.5,-551.7 448.5,-551.7 448.5,-532.7 348.5,-532.7"/>
<polygon fill="none" stroke="#000000" points="348.5,-532.7 348.5,-551.7 448.5,-551.7 448.5,-532.7 348.5,-532.7"/>
<text text-anchor="start" x="429.9053" y="-538.8" font-family="Helvetica,sans-Serif" font-size="11.00" fill="#000000">0 &gt;</text>
<polygon fill="none" stroke="#000000" stroke-width="2" points="238,-531.7 238,-773.7 449,-773.7 449,-531.7 238,-531.7"/>
</a>
</g>
</g>
<!-- user_entity -->
<g id="node2" class="node">
<title>user_entity</title>
<g id="a_node2"><a xlink:href="../../tables/user_entity.html" xlink:title="user_entity" target="_top">
<polygon fill="#ffffff" stroke="transparent" points="8,-175.2 8,-346.2 188,-346.2 188,-175.2 8,-175.2"/>
<polygon fill="#f5f5f5" stroke="transparent" points="8,-322.7 8,-345.7 188,-345.7 188,-322.7 8,-322.7"/>
<polygon fill="none" stroke="#000000" points="8,-322.7 8,-345.7 188,-345.7 188,-322.7 8,-322.7"/>
<text text-anchor="start" x="13" y="-331.8" font-family="Helvetica,sans-Serif" font-weight="bold" font-size="11.00" fill="#000000">user_entity</text>
<text text-anchor="start" x="153.0437" y="-330.8" font-family="Helvetica,sans-Serif" font-size="11.00" fill="#000000">[table]</text>
<polygon fill="none" stroke="#000000" points="8,-300.7 8,-322.7 188,-322.7 188,-300.7 8,-300.7"/>
<image xlink:href="../../images/primaryKeys.png" width="11px" height="12px" preserveAspectRatio="xMinYMin meet" x="13" y="-317.7"/>
<text text-anchor="start" x="28" y="-307.8" font-family="Helvetica,sans-Serif" font-size="11.00" fill="#000000">id</text>
<polygon fill="#ffffff" stroke="transparent" points="8,-278.7 8,-300.7 188,-300.7 188,-278.7 8,-278.7"/>
<polygon fill="none" stroke="#000000" points="8,-278.7 8,-300.7 188,-300.7 188,-278.7 8,-278.7"/>
<text text-anchor="start" x="28" y="-285.8" font-family="Helvetica,sans-Serif" font-size="11.00" fill="#000000">email</text>
<polygon fill="#ffffff" stroke="transparent" points="8,-256.7 8,-278.7 188,-278.7 188,-256.7 8,-256.7"/>
<polygon fill="none" stroke="#000000" points="8,-256.7 8,-278.7 188,-278.7 188,-256.7 8,-256.7"/>
<text text-anchor="start" x="28" y="-263.8" font-family="Helvetica,sans-Serif" font-size="11.00" fill="#000000">email_constraint</text>
<polygon fill="#ffffff" stroke="transparent" points="8,-234.7 8,-256.7 188,-256.7 188,-234.7 8,-234.7"/>
<polygon fill="none" stroke="#000000" points="8,-234.7 8,-256.7 188,-256.7 188,-234.7 8,-234.7"/>
<image xlink:href="../../images/foreignKeys.png" width="11px" height="12px" preserveAspectRatio="xMinYMin meet" x="13" y="-251.7"/>
<text text-anchor="start" x="28" y="-241.8" font-family="Helvetica,sans-Serif" font-size="11.00" fill="#000000">realm_id</text>
<polygon fill="#ffffff" stroke="transparent" points="8,-212.7 8,-234.7 188,-234.7 188,-212.7 8,-212.7"/>
<polygon fill="none" stroke="#000000" points="8,-212.7 8,-234.7 188,-234.7 188,-212.7 8,-212.7"/>
<text text-anchor="start" x="28" y="-219.8" font-family="Helvetica,sans-Serif" font-size="11.00" fill="#000000">username</text>
<polygon fill="none" stroke="#000000" points="8,-193.7 8,-212.7 188,-212.7 188,-193.7 8,-193.7"/>
<text text-anchor="start" x="11" y="-199.8" font-family="Helvetica,sans-Serif" font-size="11.00" fill="#000000">...</text>
<polygon fill="#ffffff" stroke="transparent" points="8,-174.7 8,-193.7 77,-193.7 77,-174.7 8,-174.7"/>
<polygon fill="none" stroke="#000000" points="8,-174.7 8,-193.7 77,-193.7 77,-174.7 8,-174.7"/>
<text text-anchor="start" x="11" y="-180.8" font-family="Helvetica,sans-Serif" font-size="11.00" fill="#000000"> &#160;</text>
<polygon fill="#ffffff" stroke="transparent" points="77,-174.7 77,-193.7 138,-193.7 138,-174.7 77,-174.7"/>
<polygon fill="none" stroke="#000000" points="77,-174.7 77,-193.7 138,-193.7 138,-174.7 77,-174.7"/>
<text text-anchor="start" x="108.1105" y="-180.8" font-family="Helvetica,sans-Serif" font-size="11.00" fill="#000000">1 row</text>
<polygon fill="#ffffff" stroke="transparent" points="138,-174.7 138,-193.7 188,-193.7 188,-174.7 138,-174.7"/>
<polygon fill="none" stroke="#000000" points="138,-174.7 138,-193.7 188,-193.7 188,-174.7 138,-174.7"/>
<text text-anchor="start" x="169.4053" y="-180.8" font-family="Helvetica,sans-Serif" font-size="11.00" fill="#000000">7 &gt;</text>
</a>
</g>
</g>
<!-- credential&#45;&gt;user_entity -->
<g id="edge1" class="edge">
<title>credential:w&#45;&gt;user_entity:e</title>
<path fill="none" stroke="#000000" d="M225.779,-668.1356C172.3056,-626.3466 263.6532,-311.7 188,-311.7"/>
<polygon fill="#000000" stroke="#000000" points="231.909,-670.1748 238.3636,-676.116 235.7045,-671.4374 239.5,-672.7 239.5,-672.7 239.5,-672.7 235.7045,-671.4374 240.6364,-669.284 231.909,-670.1748 231.909,-670.1748"/>
<ellipse fill="none" stroke="#000000" cx="228.8726" cy="-669.1647" rx="3.2" ry="3.2"/>
</g>
<!-- federated_identity -->
<g id="node3" class="node">
<title>federated_identity</title>
<g id="a_node3"><a xlink:href="../../tables/federated_identity.html" xlink:title="federated_identity" target="_top">
<polygon fill="#ffffff" stroke="transparent" points="278.5,-448.2 278.5,-509.2 408.5,-509.2 408.5,-448.2 278.5,-448.2"/>
<polygon fill="#f5f5f5" stroke="transparent" points="278.5,-485.7 278.5,-508.7 408.5,-508.7 408.5,-485.7 278.5,-485.7"/>
<polygon fill="none" stroke="#000000" points="278.5,-485.7 278.5,-508.7 408.5,-508.7 408.5,-485.7 278.5,-485.7"/>
<text text-anchor="start" x="283.2899" y="-494.8" font-family="Helvetica,sans-Serif" font-weight="bold" font-size="11.00" fill="#000000">federated_identity</text>
<text text-anchor="start" x="374.0219" y="-493.8" font-family="Helvetica,sans-Serif" font-size="11.00" fill="#000000">[table]</text>
<polygon fill="none" stroke="#000000" points="278.5,-466.7 278.5,-485.7 408.5,-485.7 408.5,-466.7 278.5,-466.7"/>
<text text-anchor="start" x="281.5" y="-472.8" font-family="Helvetica,sans-Serif" font-size="11.00" fill="#000000">...</text>
<polygon fill="#ffffff" stroke="transparent" points="278.5,-447.7 278.5,-466.7 328.5,-466.7 328.5,-447.7 278.5,-447.7"/>
<polygon fill="none" stroke="#000000" points="278.5,-447.7 278.5,-466.7 328.5,-466.7 328.5,-447.7 278.5,-447.7"/>
<text text-anchor="start" x="281.5" y="-453.8" font-family="Helvetica,sans-Serif" font-size="11.00" fill="#000000">&lt; 1</text>
<polygon fill="#ffffff" stroke="transparent" points="328.5,-447.7 328.5,-466.7 381.5,-466.7 381.5,-447.7 328.5,-447.7"/>
<polygon fill="none" stroke="#000000" points="328.5,-447.7 328.5,-466.7 381.5,-466.7 381.5,-447.7 328.5,-447.7"/>
<text text-anchor="start" x="346.1105" y="-453.8" font-family="Helvetica,sans-Serif" font-size="11.00" fill="#000000">0 rows</text>
<polygon fill="#ffffff" stroke="transparent" points="381.5,-447.7 381.5,-466.7 408.5,-466.7 408.5,-447.7 381.5,-447.7"/>
<polygon fill="none" stroke="#000000" points="381.5,-447.7 381.5,-466.7 408.5,-466.7 408.5,-447.7 381.5,-447.7"/>
<text text-anchor="start" x="399.3862" y="-453.8" font-family="Helvetica,sans-Serif" font-size="11.00" fill="#000000"> &#160;</text>
</a>
</g>
</g>
<!-- federated_identity&#45;&gt;user_entity -->
<g id="edge2" class="edge">
<title>federated_identity:w&#45;&gt;user_entity:e</title>
<path fill="none" stroke="#000000" d="M264.0494,-473.8672C248.0037,-469.1622 241.7576,-455.7476 229,-437.7 195.0068,-389.6115 246.8901,-311.7 188,-311.7"/>
<polygon fill="#000000" stroke="#000000" points="270.5636,-474.6934 278.047,-479.2714 274.5318,-475.1967 278.5,-475.7 278.5,-475.7 278.5,-475.7 274.5318,-475.1967 278.953,-472.1286 270.5636,-474.6934 270.5636,-474.6934"/>
<ellipse fill="none" stroke="#000000" cx="267.389" cy="-474.2907" rx="3.2" ry="3.2"/>
</g>
<!-- user_attribute -->
<g id="node4" class="node">
<title>user_attribute</title>
<g id="a_node4"><a xlink:href="../../tables/user_attribute.html" xlink:title="user_attribute" target="_top">
<polygon fill="#ffffff" stroke="transparent" points="288.5,-366.2 288.5,-427.2 398.5,-427.2 398.5,-366.2 288.5,-366.2"/>
<polygon fill="#f5f5f5" stroke="transparent" points="288.5,-403.7 288.5,-426.7 398.5,-426.7 398.5,-403.7 288.5,-403.7"/>
<polygon fill="none" stroke="#000000" points="288.5,-403.7 288.5,-426.7 398.5,-426.7 398.5,-403.7 288.5,-403.7"/>
<text text-anchor="start" x="293.3802" y="-412.8" font-family="Helvetica,sans-Serif" font-weight="bold" font-size="11.00" fill="#000000">user_attribute</text>
<text text-anchor="start" x="364.0219" y="-411.8" font-family="Helvetica,sans-Serif" font-size="11.00" fill="#000000">[table]</text>
<polygon fill="none" stroke="#000000" points="288.5,-384.7 288.5,-403.7 398.5,-403.7 398.5,-384.7 288.5,-384.7"/>
<text text-anchor="start" x="291.5" y="-390.8" font-family="Helvetica,sans-Serif" font-size="11.00" fill="#000000">...</text>
<polygon fill="#ffffff" stroke="transparent" points="288.5,-365.7 288.5,-384.7 328.5,-384.7 328.5,-365.7 288.5,-365.7"/>
<polygon fill="none" stroke="#000000" points="288.5,-365.7 288.5,-384.7 328.5,-384.7 328.5,-365.7 288.5,-365.7"/>
<text text-anchor="start" x="291.5" y="-371.8" font-family="Helvetica,sans-Serif" font-size="11.00" fill="#000000">&lt; 1</text>
<polygon fill="#ffffff" stroke="transparent" points="328.5,-365.7 328.5,-384.7 376.5,-384.7 376.5,-365.7 328.5,-365.7"/>
<polygon fill="none" stroke="#000000" points="328.5,-365.7 328.5,-384.7 376.5,-384.7 376.5,-365.7 328.5,-365.7"/>
<text text-anchor="start" x="341.1105" y="-371.8" font-family="Helvetica,sans-Serif" font-size="11.00" fill="#000000">0 rows</text>
<polygon fill="#ffffff" stroke="transparent" points="376.5,-365.7 376.5,-384.7 398.5,-384.7 398.5,-365.7 376.5,-365.7"/>
<polygon fill="none" stroke="#000000" points="376.5,-365.7 376.5,-384.7 398.5,-384.7 398.5,-365.7 376.5,-365.7"/>
<text text-anchor="start" x="389.3862" y="-371.8" font-family="Helvetica,sans-Serif" font-size="11.00" fill="#000000"> &#160;</text>
</a>
</g>
</g>
<!-- user_attribute&#45;&gt;user_entity -->
<g id="edge3" class="edge">
<title>user_attribute:w&#45;&gt;user_entity:e</title>
<path fill="none" stroke="#000000" d="M273.9608,-392.0558C255.0314,-387.1909 248.7771,-372.1735 229,-355.7 208.462,-338.5927 214.7296,-311.7 188,-311.7"/>
<polygon fill="#000000" stroke="#000000" points="280.5507,-392.801 288.0954,-397.2772 284.5253,-393.2505 288.5,-393.7 288.5,-393.7 288.5,-393.7 284.5253,-393.2505 288.9046,-390.1228 280.5507,-392.801 280.5507,-392.801"/>
<ellipse fill="none" stroke="#000000" cx="277.3709" cy="-392.4414" rx="3.2" ry="3.2"/>
</g>
<!-- user_consent -->
<g id="node5" class="node">
<title>user_consent</title>
<g id="a_node5"><a xlink:href="../../tables/user_consent.html" xlink:title="user_consent" target="_top">
<polygon fill="#ffffff" stroke="transparent" points="289,-284.2 289,-345.2 398,-345.2 398,-284.2 289,-284.2"/>
<polygon fill="#f5f5f5" stroke="transparent" points="289.5,-321.7 289.5,-344.7 398.5,-344.7 398.5,-321.7 289.5,-321.7"/>
<polygon fill="none" stroke="#000000" points="289.5,-321.7 289.5,-344.7 398.5,-344.7 398.5,-321.7 289.5,-321.7"/>
<text text-anchor="start" x="294.4885" y="-330.8" font-family="Helvetica,sans-Serif" font-weight="bold" font-size="11.00" fill="#000000">user_consent</text>
<text text-anchor="start" x="364.0219" y="-329.8" font-family="Helvetica,sans-Serif" font-size="11.00" fill="#000000">[table]</text>
<polygon fill="none" stroke="#000000" points="289.5,-302.7 289.5,-321.7 398.5,-321.7 398.5,-302.7 289.5,-302.7"/>
<text text-anchor="start" x="292.5" y="-308.8" font-family="Helvetica,sans-Serif" font-size="11.00" fill="#000000">...</text>
<polygon fill="#ffffff" stroke="transparent" points="289.5,-283.7 289.5,-302.7 324.5,-302.7 324.5,-283.7 289.5,-283.7"/>
<polygon fill="none" stroke="#000000" points="289.5,-283.7 289.5,-302.7 324.5,-302.7 324.5,-283.7 289.5,-283.7"/>
<text text-anchor="start" x="292.5" y="-289.8" font-family="Helvetica,sans-Serif" font-size="11.00" fill="#000000">&lt; 1</text>
<polygon fill="#ffffff" stroke="transparent" points="324.5,-283.7 324.5,-302.7 369.5,-302.7 369.5,-283.7 324.5,-283.7"/>
<polygon fill="none" stroke="#000000" points="324.5,-283.7 324.5,-302.7 369.5,-302.7 369.5,-283.7 324.5,-283.7"/>
<text text-anchor="start" x="334.1105" y="-289.8" font-family="Helvetica,sans-Serif" font-size="11.00" fill="#000000">0 rows</text>
<polygon fill="#ffffff" stroke="transparent" points="369.5,-283.7 369.5,-302.7 398.5,-302.7 398.5,-283.7 369.5,-283.7"/>
<polygon fill="none" stroke="#000000" points="369.5,-283.7 369.5,-302.7 398.5,-302.7 398.5,-283.7 369.5,-283.7"/>
<text text-anchor="start" x="379.9053" y="-289.8" font-family="Helvetica,sans-Serif" font-size="11.00" fill="#000000">1 &gt;</text>
</a>
</g>
</g>
<!-- user_consent&#45;&gt;user_entity -->
<g id="edge4" class="edge">
<title>user_consent:w&#45;&gt;user_entity:e</title>
<path fill="none" stroke="#000000" d="M274.9256,-311.7C241.281,-311.7 227.8247,-311.7 188,-311.7"/>
<polygon fill="#000000" stroke="#000000" points="281.5,-311.7001 289.5,-315.3 285.5,-311.7 289.5,-311.7 289.5,-311.7 289.5,-311.7 285.5,-311.7 289.5,-308.1 281.5,-311.7001 281.5,-311.7001"/>
<ellipse fill="none" stroke="#000000" cx="278.3" cy="-311.7001" rx="3.2" ry="3.2"/>
</g>
<!-- user_group_membership -->
<g id="node6" class="node">
<title>user_group_membership</title>
<g id="a_node6"><a xlink:href="../../tables/user_group_membership.html" xlink:title="user_group_membership" target="_top">
<polygon fill="#ffffff" stroke="transparent" points="261,-202.2 261,-263.2 426,-263.2 426,-202.2 261,-202.2"/>
<polygon fill="#f5f5f5" stroke="transparent" points="261.5,-239.7 261.5,-262.7 426.5,-262.7 426.5,-239.7 261.5,-239.7"/>
<polygon fill="none" stroke="#000000" points="261.5,-239.7 261.5,-262.7 426.5,-262.7 426.5,-239.7 261.5,-239.7"/>
<text text-anchor="start" x="266.378" y="-248.8" font-family="Helvetica,sans-Serif" font-weight="bold" font-size="11.00" fill="#000000">user_group_membership</text>
<text text-anchor="start" x="392.0219" y="-247.8" font-family="Helvetica,sans-Serif" font-size="11.00" fill="#000000">[table]</text>
<polygon fill="none" stroke="#000000" points="261.5,-220.7 261.5,-239.7 426.5,-239.7 426.5,-220.7 261.5,-220.7"/>
<text text-anchor="start" x="264.5" y="-226.8" font-family="Helvetica,sans-Serif" font-size="11.00" fill="#000000">...</text>
<polygon fill="#ffffff" stroke="transparent" points="261.5,-201.7 261.5,-220.7 329.5,-220.7 329.5,-201.7 261.5,-201.7"/>
<polygon fill="none" stroke="#000000" points="261.5,-201.7 261.5,-220.7 329.5,-220.7 329.5,-201.7 261.5,-201.7"/>
<text text-anchor="start" x="264.5" y="-207.8" font-family="Helvetica,sans-Serif" font-size="11.00" fill="#000000">&lt; 1</text>
<polygon fill="#ffffff" stroke="transparent" points="329.5,-201.7 329.5,-220.7 390.5,-220.7 390.5,-201.7 329.5,-201.7"/>
<polygon fill="none" stroke="#000000" points="329.5,-201.7 329.5,-220.7 390.5,-220.7 390.5,-201.7 329.5,-201.7"/>
<text text-anchor="start" x="355.1105" y="-207.8" font-family="Helvetica,sans-Serif" font-size="11.00" fill="#000000">0 rows</text>
<polygon fill="#ffffff" stroke="transparent" points="390.5,-201.7 390.5,-220.7 426.5,-220.7 426.5,-201.7 390.5,-201.7"/>
<polygon fill="none" stroke="#000000" points="390.5,-201.7 390.5,-220.7 426.5,-220.7 426.5,-201.7 390.5,-201.7"/>
<text text-anchor="start" x="417.3862" y="-207.8" font-family="Helvetica,sans-Serif" font-size="11.00" fill="#000000"> &#160;</text>
</a>
</g>
</g>
<!-- user_group_membership&#45;&gt;user_entity -->
<g id="edge5" class="edge">
<title>user_group_membership:w&#45;&gt;user_entity:e</title>
<path fill="none" stroke="#000000" d="M247.0788,-232.8144C217.2661,-247.7927 231.2065,-311.7 188,-311.7"/>
<polygon fill="#000000" stroke="#000000" points="253.6803,-231.3888 262.2599,-233.2189 257.5901,-230.5444 261.5,-229.7 261.5,-229.7 261.5,-229.7 257.5901,-230.5444 260.7401,-226.1811 253.6803,-231.3888 253.6803,-231.3888"/>
<ellipse fill="none" stroke="#000000" cx="250.5524" cy="-232.0643" rx="3.2" ry="3.2"/>
</g>
<!-- user_required_action -->
<g id="node7" class="node">
<title>user_required_action</title>
<g id="a_node7"><a xlink:href="../../tables/user_required_action.html" xlink:title="user_required_action" target="_top">
<polygon fill="#ffffff" stroke="transparent" points="270.5,-120.2 270.5,-181.2 416.5,-181.2 416.5,-120.2 270.5,-120.2"/>
<polygon fill="#f5f5f5" stroke="transparent" points="270.5,-157.7 270.5,-180.7 416.5,-180.7 416.5,-157.7 270.5,-157.7"/>
<polygon fill="none" stroke="#000000" points="270.5,-157.7 270.5,-180.7 416.5,-180.7 416.5,-157.7 270.5,-157.7"/>
<text text-anchor="start" x="275.3484" y="-166.8" font-family="Helvetica,sans-Serif" font-weight="bold" font-size="11.00" fill="#000000">user_required_action</text>
<text text-anchor="start" x="382.0219" y="-165.8" font-family="Helvetica,sans-Serif" font-size="11.00" fill="#000000">[table]</text>
<polygon fill="none" stroke="#000000" points="270.5,-138.7 270.5,-157.7 416.5,-157.7 416.5,-138.7 270.5,-138.7"/>
<text text-anchor="start" x="273.5" y="-144.8" font-family="Helvetica,sans-Serif" font-size="11.00" fill="#000000">...</text>
<polygon fill="#ffffff" stroke="transparent" points="270.5,-119.7 270.5,-138.7 328.5,-138.7 328.5,-119.7 270.5,-119.7"/>
<polygon fill="none" stroke="#000000" points="270.5,-119.7 270.5,-138.7 328.5,-138.7 328.5,-119.7 270.5,-119.7"/>
<text text-anchor="start" x="273.5" y="-125.8" font-family="Helvetica,sans-Serif" font-size="11.00" fill="#000000">&lt; 1</text>
<polygon fill="#ffffff" stroke="transparent" points="328.5,-119.7 328.5,-138.7 385.5,-138.7 385.5,-119.7 328.5,-119.7"/>
<polygon fill="none" stroke="#000000" points="328.5,-119.7 328.5,-138.7 385.5,-138.7 385.5,-119.7 328.5,-119.7"/>
<text text-anchor="start" x="350.1105" y="-125.8" font-family="Helvetica,sans-Serif" font-size="11.00" fill="#000000">0 rows</text>
<polygon fill="#ffffff" stroke="transparent" points="385.5,-119.7 385.5,-138.7 416.5,-138.7 416.5,-119.7 385.5,-119.7"/>
<polygon fill="none" stroke="#000000" points="385.5,-119.7 385.5,-138.7 416.5,-138.7 416.5,-119.7 385.5,-119.7"/>
<text text-anchor="start" x="407.3862" y="-125.8" font-family="Helvetica,sans-Serif" font-size="11.00" fill="#000000"> &#160;</text>
</a>
</g>
</g>
<!-- user_required_action&#45;&gt;user_entity -->
<g id="edge6" class="edge">
<title>user_required_action:w&#45;&gt;user_entity:e</title>
<path fill="none" stroke="#000000" d="M256.2011,-150.5136C242.6675,-156.9767 239.8461,-173.7163 229,-191.7 199.8927,-239.9624 244.3604,-311.7 188,-311.7"/>
<polygon fill="#000000" stroke="#000000" points="262.6505,-149.2446 271.1951,-151.2323 266.5753,-148.4723 270.5,-147.7 270.5,-147.7 270.5,-147.7 266.5753,-148.4723 269.8049,-144.1677 262.6505,-149.2446 262.6505,-149.2446"/>
<ellipse fill="none" stroke="#000000" cx="259.5107" cy="-149.8624" rx="3.2" ry="3.2"/>
</g>
<!-- user_role_mapping -->
<g id="node8" class="node">
<title>user_role_mapping</title>
<g id="a_node8"><a xlink:href="../../tables/user_role_mapping.html" xlink:title="user_role_mapping" target="_top">
<polygon fill="#ffffff" stroke="transparent" points="275,-38.2 275,-99.2 412,-99.2 412,-38.2 275,-38.2"/>
<polygon fill="#f5f5f5" stroke="transparent" points="275.5,-75.7 275.5,-98.7 412.5,-98.7 412.5,-75.7 275.5,-75.7"/>
<polygon fill="none" stroke="#000000" points="275.5,-75.7 275.5,-98.7 412.5,-98.7 412.5,-75.7 275.5,-75.7"/>
<text text-anchor="start" x="280.4343" y="-84.8" font-family="Helvetica,sans-Serif" font-weight="bold" font-size="11.00" fill="#000000">user_role_mapping</text>
<text text-anchor="start" x="378.0219" y="-83.8" font-family="Helvetica,sans-Serif" font-size="11.00" fill="#000000">[table]</text>
<polygon fill="none" stroke="#000000" points="275.5,-56.7 275.5,-75.7 412.5,-75.7 412.5,-56.7 275.5,-56.7"/>
<text text-anchor="start" x="278.5" y="-62.8" font-family="Helvetica,sans-Serif" font-size="11.00" fill="#000000">...</text>
<polygon fill="#ffffff" stroke="transparent" points="275.5,-37.7 275.5,-56.7 329.5,-56.7 329.5,-37.7 275.5,-37.7"/>
<polygon fill="none" stroke="#000000" points="275.5,-37.7 275.5,-56.7 329.5,-56.7 329.5,-37.7 275.5,-37.7"/>
<text text-anchor="start" x="278.5" y="-43.8" font-family="Helvetica,sans-Serif" font-size="11.00" fill="#000000">&lt; 1</text>
<polygon fill="#ffffff" stroke="transparent" points="329.5,-37.7 329.5,-56.7 383.5,-56.7 383.5,-37.7 329.5,-37.7"/>
<polygon fill="none" stroke="#000000" points="329.5,-37.7 329.5,-56.7 383.5,-56.7 383.5,-37.7 329.5,-37.7"/>
<text text-anchor="start" x="348.1105" y="-43.8" font-family="Helvetica,sans-Serif" font-size="11.00" fill="#000000">5 rows</text>
<polygon fill="#ffffff" stroke="transparent" points="383.5,-37.7 383.5,-56.7 412.5,-56.7 412.5,-37.7 383.5,-37.7"/>
<polygon fill="none" stroke="#000000" points="383.5,-37.7 383.5,-56.7 412.5,-56.7 412.5,-37.7 383.5,-37.7"/>
<text text-anchor="start" x="403.3862" y="-43.8" font-family="Helvetica,sans-Serif" font-size="11.00" fill="#000000"> &#160;</text>
</a>
</g>
</g>
<!-- user_role_mapping&#45;&gt;user_entity -->
<g id="edge7" class="edge">
<title>user_role_mapping:w&#45;&gt;user_entity:e</title>
<path fill="none" stroke="#000000" d="M260.8756,-67.9549C244.9299,-73.7057 240.0017,-89.8752 229,-109.7 206.7742,-149.7504 233.8042,-311.7 188,-311.7"/>
<polygon fill="#000000" stroke="#000000" points="267.5934,-66.9191 276.0486,-69.258 271.5467,-66.3096 275.5,-65.7 275.5,-65.7 275.5,-65.7 271.5467,-66.3096 274.9514,-62.142 267.5934,-66.9191 267.5934,-66.9191"/>
<ellipse fill="none" stroke="#000000" cx="264.4308" cy="-67.4068" rx="3.2" ry="3.2"/>
</g>
</g>
</svg>
