<?xml version="1.0" encoding="UTF-8" standalone="no"?>
<!DOCTYPE svg PUBLIC "-//W3C//DTD SVG 1.1//EN"
 "http://www.w3.org/Graphics/SVG/1.1/DTD/svg11.dtd">
<!-- Generated by graphviz version 2.40.1 (20161225.0304)
 -->
<!-- Title: twoDegreesRelationshipsDiagramImplied Pages: 1 -->
<svg width="631pt" height="795pt"
 viewBox="0.00 0.00 631.00 795.19" xmlns="http://www.w3.org/2000/svg" xmlns:xlink="http://www.w3.org/1999/xlink">
<g id="graph0" class="graph" transform="scale(1 1) rotate(0) translate(4 791.1941)">
<title>twoDegreesRelationshipsDiagramImplied</title>
<polygon fill="#ffffff" stroke="transparent" points="-4,4 -4,-791.1941 627,-791.1941 627,4 -4,4"/>
<text text-anchor="middle" x="72.4936" y="-7.3" font-family="Helvetica,sans-Serif" font-size="11.00" fill="#000000">Generated by SchemaSpy</text>
<!-- credential -->
<g id="node1" class="node">
<title>credential</title>
<g id="a_node1"><a xlink:href="../../tables/credential.html" xlink:title="credential" target="_top">
<polygon fill="#ffffff" stroke="transparent" points="402,-448.7 402,-692.7 615,-692.7 615,-448.7 402,-448.7"/>
<polygon fill="#f5f5f5" stroke="transparent" points="404.5,-667.7 404.5,-690.7 613.5,-690.7 613.5,-667.7 404.5,-667.7"/>
<polygon fill="none" stroke="#000000" points="404.5,-667.7 404.5,-690.7 613.5,-690.7 613.5,-667.7 404.5,-667.7"/>
<text text-anchor="start" x="409.5" y="-676.8" font-family="Helvetica,sans-Serif" font-weight="bold" font-size="11.00" fill="#000000">credential</text>
<text text-anchor="start" x="578.5437" y="-675.8" font-family="Helvetica,sans-Serif" font-size="11.00" fill="#000000">[table]</text>
<polygon fill="none" stroke="#000000" points="404.5,-645.7 404.5,-667.7 513.5,-667.7 513.5,-645.7 404.5,-645.7"/>
<image xlink:href="../../images/primaryKeys.png" width="11px" height="12px" preserveAspectRatio="xMinYMin meet" x="409.5" y="-662.7"/>
<text text-anchor="start" x="424.5" y="-652.8" font-family="Helvetica,sans-Serif" font-size="11.00" fill="#000000">id</text>
<polygon fill="none" stroke="#000000" points="513.5,-645.7 513.5,-667.7 613.5,-667.7 613.5,-645.7 513.5,-645.7"/>
<text text-anchor="start" x="516.5" y="-653.4" font-family="Helvetica,sans-Serif" font-size="11.00" fill="#000000">varchar[36]</text>
<polygon fill="none" stroke="#000000" points="404.5,-623.7 404.5,-645.7 513.5,-645.7 513.5,-623.7 404.5,-623.7"/>
<text text-anchor="start" x="424.5" y="-630.8" font-family="Helvetica,sans-Serif" font-size="11.00" fill="#000000">salt</text>
<polygon fill="none" stroke="#000000" points="513.5,-623.7 513.5,-645.7 613.5,-645.7 613.5,-623.7 513.5,-623.7"/>
<text text-anchor="start" x="516.4178" y="-631.4" font-family="Helvetica,sans-Serif" font-size="11.00" fill="#000000">bytea[2147483647]</text>
<polygon fill="none" stroke="#000000" points="404.5,-601.7 404.5,-623.7 513.5,-623.7 513.5,-601.7 404.5,-601.7"/>
<text text-anchor="start" x="424.5" y="-608.8" font-family="Helvetica,sans-Serif" font-size="11.00" fill="#000000">type</text>
<polygon fill="none" stroke="#000000" points="513.5,-601.7 513.5,-623.7 613.5,-623.7 613.5,-601.7 513.5,-601.7"/>
<text text-anchor="start" x="516.5" y="-609.4" font-family="Helvetica,sans-Serif" font-size="11.00" fill="#000000">varchar[255]</text>
<polygon fill="#ffffff" stroke="transparent" points="404.5,-579.7 404.5,-601.7 513.5,-601.7 513.5,-579.7 404.5,-579.7"/>
<polygon fill="none" stroke="#000000" points="404.5,-579.7 404.5,-601.7 513.5,-601.7 513.5,-579.7 404.5,-579.7"/>
<image xlink:href="../../images/foreignKeys.png" width="11px" height="12px" preserveAspectRatio="xMinYMin meet" x="409.5" y="-596.7"/>
<text text-anchor="start" x="424.5" y="-586.8" font-family="Helvetica,sans-Serif" font-size="11.00" fill="#000000">user_id</text>
<polygon fill="none" stroke="#000000" points="513.5,-579.7 513.5,-601.7 613.5,-601.7 613.5,-579.7 513.5,-579.7"/>
<text text-anchor="start" x="516.5" y="-587.4" font-family="Helvetica,sans-Serif" font-size="11.00" fill="#000000">varchar[36]</text>
<polygon fill="none" stroke="#000000" points="404.5,-557.7 404.5,-579.7 513.5,-579.7 513.5,-557.7 404.5,-557.7"/>
<text text-anchor="start" x="424.5" y="-564.8" font-family="Helvetica,sans-Serif" font-size="11.00" fill="#000000">created_date</text>
<polygon fill="none" stroke="#000000" points="513.5,-557.7 513.5,-579.7 613.5,-579.7 613.5,-557.7 513.5,-557.7"/>
<text text-anchor="start" x="516.5" y="-565.4" font-family="Helvetica,sans-Serif" font-size="11.00" fill="#000000">int8[19]</text>
<polygon fill="none" stroke="#000000" points="404.5,-535.7 404.5,-557.7 513.5,-557.7 513.5,-535.7 404.5,-535.7"/>
<text text-anchor="start" x="424.5" y="-542.8" font-family="Helvetica,sans-Serif" font-size="11.00" fill="#000000">user_label</text>
<polygon fill="none" stroke="#000000" points="513.5,-535.7 513.5,-557.7 613.5,-557.7 613.5,-535.7 513.5,-535.7"/>
<text text-anchor="start" x="516.5" y="-543.4" font-family="Helvetica,sans-Serif" font-size="11.00" fill="#000000">varchar[255]</text>
<polygon fill="none" stroke="#000000" points="404.5,-513.7 404.5,-535.7 513.5,-535.7 513.5,-513.7 404.5,-513.7"/>
<text text-anchor="start" x="424.5" y="-520.8" font-family="Helvetica,sans-Serif" font-size="11.00" fill="#000000">secret_data</text>
<polygon fill="none" stroke="#000000" points="513.5,-513.7 513.5,-535.7 613.5,-535.7 613.5,-513.7 513.5,-513.7"/>
<text text-anchor="start" x="516.5" y="-521.4" font-family="Helvetica,sans-Serif" font-size="11.00" fill="#000000">text[2147483647]</text>
<polygon fill="none" stroke="#000000" points="404.5,-491.7 404.5,-513.7 513.5,-513.7 513.5,-491.7 404.5,-491.7"/>
<text text-anchor="start" x="424.5" y="-498.8" font-family="Helvetica,sans-Serif" font-size="11.00" fill="#000000">credential_data</text>
<polygon fill="none" stroke="#000000" points="513.5,-491.7 513.5,-513.7 613.5,-513.7 613.5,-491.7 513.5,-491.7"/>
<text text-anchor="start" x="516.5" y="-499.4" font-family="Helvetica,sans-Serif" font-size="11.00" fill="#000000">text[2147483647]</text>
<polygon fill="none" stroke="#000000" points="404.5,-469.7 404.5,-491.7 513.5,-491.7 513.5,-469.7 404.5,-469.7"/>
<text text-anchor="start" x="424.5" y="-476.8" font-family="Helvetica,sans-Serif" font-size="11.00" fill="#000000">priority</text>
<polygon fill="none" stroke="#000000" points="513.5,-469.7 513.5,-491.7 613.5,-491.7 613.5,-469.7 513.5,-469.7"/>
<text text-anchor="start" x="516.5" y="-477.4" font-family="Helvetica,sans-Serif" font-size="11.00" fill="#000000">int4[10]</text>
<polygon fill="#ffffff" stroke="transparent" points="404.5,-450.7 404.5,-469.7 453.5,-469.7 453.5,-450.7 404.5,-450.7"/>
<polygon fill="none" stroke="#000000" points="404.5,-450.7 404.5,-469.7 453.5,-469.7 453.5,-450.7 404.5,-450.7"/>
<text text-anchor="start" x="407.5" y="-456.8" font-family="Helvetica,sans-Serif" font-size="11.00" fill="#000000">&lt; 1</text>
<polygon fill="#ffffff" stroke="transparent" points="453.5,-450.7 453.5,-469.7 513.5,-469.7 513.5,-450.7 453.5,-450.7"/>
<polygon fill="none" stroke="#000000" points="453.5,-450.7 453.5,-469.7 513.5,-469.7 513.5,-450.7 453.5,-450.7"/>
<text text-anchor="start" x="483.6105" y="-456.8" font-family="Helvetica,sans-Serif" font-size="11.00" fill="#000000">1 row</text>
<polygon fill="#ffffff" stroke="transparent" points="513.5,-450.7 513.5,-469.7 613.5,-469.7 613.5,-450.7 513.5,-450.7"/>
<polygon fill="none" stroke="#000000" points="513.5,-450.7 513.5,-469.7 613.5,-469.7 613.5,-450.7 513.5,-450.7"/>
<text text-anchor="start" x="594.9053" y="-456.8" font-family="Helvetica,sans-Serif" font-size="11.00" fill="#000000">0 &gt;</text>
<polygon fill="none" stroke="#000000" stroke-width="2" points="403,-449.7 403,-691.7 614,-691.7 614,-449.7 403,-449.7"/>
</a>
</g>
</g>
<!-- user_entity -->
<g id="node2" class="node">
<title>user_entity</title>
<g id="a_node2"><a xlink:href="../../tables/user_entity.html" xlink:title="user_entity" target="_top">
<polygon fill="#ffffff" stroke="transparent" points="173,-155.2 173,-326.2 353,-326.2 353,-155.2 173,-155.2"/>
<polygon fill="#f5f5f5" stroke="transparent" points="173,-302.7 173,-325.7 353,-325.7 353,-302.7 173,-302.7"/>
<polygon fill="none" stroke="#000000" points="173,-302.7 173,-325.7 353,-325.7 353,-302.7 173,-302.7"/>
<text text-anchor="start" x="178" y="-311.8" font-family="Helvetica,sans-Serif" font-weight="bold" font-size="11.00" fill="#000000">user_entity</text>
<text text-anchor="start" x="318.0437" y="-310.8" font-family="Helvetica,sans-Serif" font-size="11.00" fill="#000000">[table]</text>
<polygon fill="none" stroke="#000000" points="173,-280.7 173,-302.7 353,-302.7 353,-280.7 173,-280.7"/>
<image xlink:href="../../images/primaryKeys.png" width="11px" height="12px" preserveAspectRatio="xMinYMin meet" x="178" y="-297.7"/>
<text text-anchor="start" x="193" y="-287.8" font-family="Helvetica,sans-Serif" font-size="11.00" fill="#000000">id</text>
<polygon fill="#ffffff" stroke="transparent" points="173,-258.7 173,-280.7 353,-280.7 353,-258.7 173,-258.7"/>
<polygon fill="none" stroke="#000000" points="173,-258.7 173,-280.7 353,-280.7 353,-258.7 173,-258.7"/>
<text text-anchor="start" x="193" y="-265.8" font-family="Helvetica,sans-Serif" font-size="11.00" fill="#000000">email</text>
<polygon fill="#ffffff" stroke="transparent" points="173,-236.7 173,-258.7 353,-258.7 353,-236.7 173,-236.7"/>
<polygon fill="none" stroke="#000000" points="173,-236.7 173,-258.7 353,-258.7 353,-236.7 173,-236.7"/>
<text text-anchor="start" x="193" y="-243.8" font-family="Helvetica,sans-Serif" font-size="11.00" fill="#000000">email_constraint</text>
<polygon fill="#ffffff" stroke="transparent" points="173,-214.7 173,-236.7 353,-236.7 353,-214.7 173,-214.7"/>
<polygon fill="none" stroke="#000000" points="173,-214.7 173,-236.7 353,-236.7 353,-214.7 173,-214.7"/>
<image xlink:href="../../images/foreignKeys.png" width="11px" height="12px" preserveAspectRatio="xMinYMin meet" x="178" y="-231.7"/>
<text text-anchor="start" x="193" y="-221.8" font-family="Helvetica,sans-Serif" font-size="11.00" fill="#000000">realm_id</text>
<polygon fill="#ffffff" stroke="transparent" points="173,-192.7 173,-214.7 353,-214.7 353,-192.7 173,-192.7"/>
<polygon fill="none" stroke="#000000" points="173,-192.7 173,-214.7 353,-214.7 353,-192.7 173,-192.7"/>
<text text-anchor="start" x="193" y="-199.8" font-family="Helvetica,sans-Serif" font-size="11.00" fill="#000000">username</text>
<polygon fill="none" stroke="#000000" points="173,-173.7 173,-192.7 353,-192.7 353,-173.7 173,-173.7"/>
<text text-anchor="start" x="176" y="-179.8" font-family="Helvetica,sans-Serif" font-size="11.00" fill="#000000">...</text>
<polygon fill="#ffffff" stroke="transparent" points="173,-154.7 173,-173.7 247,-173.7 247,-154.7 173,-154.7"/>
<polygon fill="none" stroke="#000000" points="173,-154.7 173,-173.7 247,-173.7 247,-154.7 173,-154.7"/>
<text text-anchor="start" x="176" y="-160.8" font-family="Helvetica,sans-Serif" font-size="11.00" fill="#000000">&lt; 1</text>
<polygon fill="#ffffff" stroke="transparent" points="247,-154.7 247,-173.7 305,-173.7 305,-154.7 247,-154.7"/>
<polygon fill="none" stroke="#000000" points="247,-154.7 247,-173.7 305,-173.7 305,-154.7 247,-154.7"/>
<text text-anchor="start" x="275.1105" y="-160.8" font-family="Helvetica,sans-Serif" font-size="11.00" fill="#000000">1 row</text>
<polygon fill="#ffffff" stroke="transparent" points="305,-154.7 305,-173.7 353,-173.7 353,-154.7 305,-154.7"/>
<polygon fill="none" stroke="#000000" points="305,-154.7 305,-173.7 353,-173.7 353,-154.7 305,-154.7"/>
<text text-anchor="start" x="334.4053" y="-160.8" font-family="Helvetica,sans-Serif" font-size="11.00" fill="#000000">7 &gt;</text>
</a>
</g>
</g>
<!-- credential&#45;&gt;user_entity -->
<g id="edge1" class="edge">
<title>credential:w&#45;&gt;user_entity:e</title>
<path fill="none" stroke="#000000" d="M391.0483,-585.2551C349.4587,-544.7306 415.0237,-291.7 353,-291.7"/>
<polygon fill="#000000" stroke="#000000" points="397.0845,-587.6983 403.1492,-594.037 400.7922,-589.1992 404.5,-590.7 404.5,-590.7 404.5,-590.7 400.7922,-589.1992 405.8508,-587.363 397.0845,-587.6983 397.0845,-587.6983"/>
<ellipse fill="none" stroke="#000000" cx="394.1182" cy="-586.4977" rx="3.2" ry="3.2"/>
</g>
<!-- federated_user -->
<g id="node4" class="node">
<title>federated_user</title>
<g id="a_node4"><a xlink:href="../../tables/federated_user.html" xlink:title="federated_user" target="_top">
<polygon fill="#ffffff" stroke="transparent" points="8,-127.2 8,-188.2 124,-188.2 124,-127.2 8,-127.2"/>
<polygon fill="#f5f5f5" stroke="transparent" points="8,-164.7 8,-187.7 124,-187.7 124,-164.7 8,-164.7"/>
<polygon fill="none" stroke="#000000" points="8,-164.7 8,-187.7 124,-187.7 124,-164.7 8,-164.7"/>
<text text-anchor="start" x="12.5142" y="-173.8" font-family="Helvetica,sans-Serif" font-weight="bold" font-size="11.00" fill="#000000">federated_user</text>
<text text-anchor="start" x="89.5219" y="-172.8" font-family="Helvetica,sans-Serif" font-size="11.00" fill="#000000">[table]</text>
<polygon fill="none" stroke="#000000" points="8,-145.7 8,-164.7 124,-164.7 124,-145.7 8,-145.7"/>
<text text-anchor="start" x="11" y="-151.8" font-family="Helvetica,sans-Serif" font-size="11.00" fill="#000000">...</text>
<polygon fill="#ffffff" stroke="transparent" points="8,-126.7 8,-145.7 39,-145.7 39,-126.7 8,-126.7"/>
<polygon fill="none" stroke="#000000" points="8,-126.7 8,-145.7 39,-145.7 39,-126.7 8,-126.7"/>
<text text-anchor="start" x="11" y="-132.8" font-family="Helvetica,sans-Serif" font-size="11.00" fill="#000000"> &#160;</text>
<polygon fill="#ffffff" stroke="transparent" points="39,-126.7 39,-145.7 87,-145.7 87,-126.7 39,-126.7"/>
<polygon fill="none" stroke="#000000" points="39,-126.7 39,-145.7 87,-145.7 87,-126.7 39,-126.7"/>
<text text-anchor="start" x="51.6105" y="-132.8" font-family="Helvetica,sans-Serif" font-size="11.00" fill="#000000">0 rows</text>
<polygon fill="#ffffff" stroke="transparent" points="87,-126.7 87,-145.7 124,-145.7 124,-126.7 87,-126.7"/>
<polygon fill="none" stroke="#000000" points="87,-126.7 87,-145.7 124,-145.7 124,-126.7 87,-126.7"/>
<text text-anchor="start" x="99.2904" y="-132.8" font-family="Helvetica,sans-Serif" font-size="11.00" fill="#000000">30 &gt;</text>
</a>
</g>
</g>
<!-- user_entity&#45;&gt;federated_user -->
<g id="edge8" class="edge">
<title>user_entity:w&#45;&gt;federated_user:e</title>
<path fill="none" stroke="#000000" stroke-dasharray="5,2" d="M159.3596,-221.0415C141.6978,-205.2459 156.3501,-154.7 124,-154.7"/>
<polygon fill="#000000" stroke="#000000" points="165.4293,-223.1144 171.8365,-229.1068 169.2147,-224.4072 173,-225.7 173,-225.7 173,-225.7 169.2147,-224.4072 174.1635,-222.2932 165.4293,-223.1144 165.4293,-223.1144"/>
<ellipse fill="none" stroke="#000000" cx="162.4011" cy="-222.0802" rx="3.2" ry="3.2"/>
</g>
<!-- federated_identity -->
<g id="node3" class="node">
<title>federated_identity</title>
<g id="a_node3"><a xlink:href="../../tables/federated_identity.html" xlink:title="federated_identity" target="_top">
<polygon fill="#ffffff" stroke="transparent" points="443.5,-714.2 443.5,-775.2 573.5,-775.2 573.5,-714.2 443.5,-714.2"/>
<polygon fill="#f5f5f5" stroke="transparent" points="443.5,-751.7 443.5,-774.7 573.5,-774.7 573.5,-751.7 443.5,-751.7"/>
<polygon fill="none" stroke="#000000" points="443.5,-751.7 443.5,-774.7 573.5,-774.7 573.5,-751.7 443.5,-751.7"/>
<text text-anchor="start" x="448.2899" y="-760.8" font-family="Helvetica,sans-Serif" font-weight="bold" font-size="11.00" fill="#000000">federated_identity</text>
<text text-anchor="start" x="539.0219" y="-759.8" font-family="Helvetica,sans-Serif" font-size="11.00" fill="#000000">[table]</text>
<polygon fill="none" stroke="#000000" points="443.5,-732.7 443.5,-751.7 573.5,-751.7 573.5,-732.7 443.5,-732.7"/>
<text text-anchor="start" x="446.5" y="-738.8" font-family="Helvetica,sans-Serif" font-size="11.00" fill="#000000">...</text>
<polygon fill="#ffffff" stroke="transparent" points="443.5,-713.7 443.5,-732.7 493.5,-732.7 493.5,-713.7 443.5,-713.7"/>
<polygon fill="none" stroke="#000000" points="443.5,-713.7 443.5,-732.7 493.5,-732.7 493.5,-713.7 443.5,-713.7"/>
<text text-anchor="start" x="446.5" y="-719.8" font-family="Helvetica,sans-Serif" font-size="11.00" fill="#000000">&lt; 2</text>
<polygon fill="#ffffff" stroke="transparent" points="493.5,-713.7 493.5,-732.7 546.5,-732.7 546.5,-713.7 493.5,-713.7"/>
<polygon fill="none" stroke="#000000" points="493.5,-713.7 493.5,-732.7 546.5,-732.7 546.5,-713.7 493.5,-713.7"/>
<text text-anchor="start" x="511.1105" y="-719.8" font-family="Helvetica,sans-Serif" font-size="11.00" fill="#000000">0 rows</text>
<polygon fill="#ffffff" stroke="transparent" points="546.5,-713.7 546.5,-732.7 573.5,-732.7 573.5,-713.7 546.5,-713.7"/>
<polygon fill="none" stroke="#000000" points="546.5,-713.7 546.5,-732.7 573.5,-732.7 573.5,-713.7 546.5,-713.7"/>
<text text-anchor="start" x="564.3862" y="-719.8" font-family="Helvetica,sans-Serif" font-size="11.00" fill="#000000"> &#160;</text>
</a>
</g>
</g>
<!-- federated_identity&#45;&gt;user_entity -->
<g id="edge3" class="edge">
<title>federated_identity:w&#45;&gt;user_entity:e</title>
<path fill="none" stroke="#000000" d="M428.8001,-740.0241C412.1856,-735.6768 404.7437,-723.0144 394,-703.7 371.637,-663.4973 399.0039,-291.7 353,-291.7"/>
<polygon fill="#000000" stroke="#000000" points="435.5515,-740.7937 443.0922,-745.2768 439.5257,-741.2469 443.5,-741.7 443.5,-741.7 443.5,-741.7 439.5257,-741.2469 443.9078,-738.1232 435.5515,-740.7937 435.5515,-740.7937"/>
<ellipse fill="none" stroke="#000000" cx="432.3721" cy="-740.4312" rx="3.2" ry="3.2"/>
</g>
<!-- federated_identity&#45;&gt;federated_user -->
<g id="edge2" class="edge">
<title>federated_identity:w&#45;&gt;federated_user:e</title>
<path fill="none" stroke="#000000" stroke-dasharray="5,2" d="M428.9505,-742.7532C318.6272,-759.4689 421.5124,-961.2315 165,-336.7 149.2489,-298.3507 165.458,-154.7 124,-154.7"/>
<polygon fill="#000000" stroke="#000000" points="435.5209,-742.2776 443.7599,-745.2906 439.5104,-741.9888 443.5,-741.7 443.5,-741.7 443.5,-741.7 439.5104,-741.9888 443.2401,-738.1094 435.5209,-742.2776 435.5209,-742.2776"/>
<ellipse fill="none" stroke="#000000" cx="432.3292" cy="-742.5087" rx="3.2" ry="3.2"/>
</g>
<!-- user_attribute -->
<g id="node5" class="node">
<title>user_attribute</title>
<g id="a_node5"><a xlink:href="../../tables/user_attribute.html" xlink:title="user_attribute" target="_top">
<polygon fill="#ffffff" stroke="transparent" points="453.5,-366.2 453.5,-427.2 563.5,-427.2 563.5,-366.2 453.5,-366.2"/>
<polygon fill="#f5f5f5" stroke="transparent" points="453.5,-403.7 453.5,-426.7 563.5,-426.7 563.5,-403.7 453.5,-403.7"/>
<polygon fill="none" stroke="#000000" points="453.5,-403.7 453.5,-426.7 563.5,-426.7 563.5,-403.7 453.5,-403.7"/>
<text text-anchor="start" x="458.3802" y="-412.8" font-family="Helvetica,sans-Serif" font-weight="bold" font-size="11.00" fill="#000000">user_attribute</text>
<text text-anchor="start" x="529.0219" y="-411.8" font-family="Helvetica,sans-Serif" font-size="11.00" fill="#000000">[table]</text>
<polygon fill="none" stroke="#000000" points="453.5,-384.7 453.5,-403.7 563.5,-403.7 563.5,-384.7 453.5,-384.7"/>
<text text-anchor="start" x="456.5" y="-390.8" font-family="Helvetica,sans-Serif" font-size="11.00" fill="#000000">...</text>
<polygon fill="#ffffff" stroke="transparent" points="453.5,-365.7 453.5,-384.7 493.5,-384.7 493.5,-365.7 453.5,-365.7"/>
<polygon fill="none" stroke="#000000" points="453.5,-365.7 453.5,-384.7 493.5,-384.7 493.5,-365.7 453.5,-365.7"/>
<text text-anchor="start" x="456.5" y="-371.8" font-family="Helvetica,sans-Serif" font-size="11.00" fill="#000000">&lt; 1</text>
<polygon fill="#ffffff" stroke="transparent" points="493.5,-365.7 493.5,-384.7 541.5,-384.7 541.5,-365.7 493.5,-365.7"/>
<polygon fill="none" stroke="#000000" points="493.5,-365.7 493.5,-384.7 541.5,-384.7 541.5,-365.7 493.5,-365.7"/>
<text text-anchor="start" x="506.1105" y="-371.8" font-family="Helvetica,sans-Serif" font-size="11.00" fill="#000000">0 rows</text>
<polygon fill="#ffffff" stroke="transparent" points="541.5,-365.7 541.5,-384.7 563.5,-384.7 563.5,-365.7 541.5,-365.7"/>
<polygon fill="none" stroke="#000000" points="541.5,-365.7 541.5,-384.7 563.5,-384.7 563.5,-365.7 541.5,-365.7"/>
<text text-anchor="start" x="554.3862" y="-371.8" font-family="Helvetica,sans-Serif" font-size="11.00" fill="#000000"> &#160;</text>
</a>
</g>
</g>
<!-- user_attribute&#45;&gt;user_entity -->
<g id="edge4" class="edge">
<title>user_attribute:w&#45;&gt;user_entity:e</title>
<path fill="none" stroke="#000000" d="M439.0864,-392.2843C419.5382,-387.9394 412.2999,-373.9743 394,-355.7 370.0967,-331.8301 386.7807,-291.7 353,-291.7"/>
<polygon fill="#000000" stroke="#000000" points="445.5383,-392.9179 453.1481,-397.2828 449.5192,-393.309 453.5,-393.7 453.5,-393.7 453.5,-393.7 449.5192,-393.309 453.8519,-390.1172 445.5383,-392.9179 445.5383,-392.9179"/>
<ellipse fill="none" stroke="#000000" cx="442.3536" cy="-392.6051" rx="3.2" ry="3.2"/>
</g>
<!-- user_consent -->
<g id="node6" class="node">
<title>user_consent</title>
<g id="a_node6"><a xlink:href="../../tables/user_consent.html" xlink:title="user_consent" target="_top">
<polygon fill="#ffffff" stroke="transparent" points="454,-38.2 454,-99.2 563,-99.2 563,-38.2 454,-38.2"/>
<polygon fill="#f5f5f5" stroke="transparent" points="454.5,-75.7 454.5,-98.7 563.5,-98.7 563.5,-75.7 454.5,-75.7"/>
<polygon fill="none" stroke="#000000" points="454.5,-75.7 454.5,-98.7 563.5,-98.7 563.5,-75.7 454.5,-75.7"/>
<text text-anchor="start" x="459.4885" y="-84.8" font-family="Helvetica,sans-Serif" font-weight="bold" font-size="11.00" fill="#000000">user_consent</text>
<text text-anchor="start" x="529.0219" y="-83.8" font-family="Helvetica,sans-Serif" font-size="11.00" fill="#000000">[table]</text>
<polygon fill="none" stroke="#000000" points="454.5,-56.7 454.5,-75.7 563.5,-75.7 563.5,-56.7 454.5,-56.7"/>
<text text-anchor="start" x="457.5" y="-62.8" font-family="Helvetica,sans-Serif" font-size="11.00" fill="#000000">...</text>
<polygon fill="#ffffff" stroke="transparent" points="454.5,-37.7 454.5,-56.7 489.5,-56.7 489.5,-37.7 454.5,-37.7"/>
<polygon fill="none" stroke="#000000" points="454.5,-37.7 454.5,-56.7 489.5,-56.7 489.5,-37.7 454.5,-37.7"/>
<text text-anchor="start" x="457.5" y="-43.8" font-family="Helvetica,sans-Serif" font-size="11.00" fill="#000000">&lt; 3</text>
<polygon fill="#ffffff" stroke="transparent" points="489.5,-37.7 489.5,-56.7 534.5,-56.7 534.5,-37.7 489.5,-37.7"/>
<polygon fill="none" stroke="#000000" points="489.5,-37.7 489.5,-56.7 534.5,-56.7 534.5,-37.7 489.5,-37.7"/>
<text text-anchor="start" x="499.1105" y="-43.8" font-family="Helvetica,sans-Serif" font-size="11.00" fill="#000000">0 rows</text>
<polygon fill="#ffffff" stroke="transparent" points="534.5,-37.7 534.5,-56.7 563.5,-56.7 563.5,-37.7 534.5,-37.7"/>
<polygon fill="none" stroke="#000000" points="534.5,-37.7 534.5,-56.7 563.5,-56.7 563.5,-37.7 534.5,-37.7"/>
<text text-anchor="start" x="544.9053" y="-43.8" font-family="Helvetica,sans-Serif" font-size="11.00" fill="#000000">1 &gt;</text>
</a>
</g>
</g>
<!-- user_consent&#45;&gt;user_entity -->
<g id="edge7" class="edge">
<title>user_consent:w&#45;&gt;user_entity:e</title>
<path fill="none" stroke="#000000" d="M439.9471,-66.9893C418.0549,-71.3339 409.2729,-86.4792 394,-109.7 348.4361,-178.9748 435.916,-291.7 353,-291.7"/>
<polygon fill="#000000" stroke="#000000" points="446.5312,-66.406 454.8177,-69.286 450.5156,-66.053 454.5,-65.7 454.5,-65.7 454.5,-65.7 450.5156,-66.053 454.1823,-62.114 446.5312,-66.406 446.5312,-66.406"/>
<ellipse fill="none" stroke="#000000" cx="443.3437" cy="-66.6885" rx="3.2" ry="3.2"/>
</g>
<!-- user_consent&#45;&gt;federated_user -->
<g id="edge5" class="edge">
<title>user_consent:w&#45;&gt;federated_user:e</title>
<path fill="none" stroke="#000000" stroke-dasharray="5,2" d="M440.1075,-68.9731C377.2148,-85.0299 132.412,-154.7 124,-154.7"/>
<polygon fill="#000000" stroke="#000000" points="446.6992,-67.4741 455.2983,-69.2104 450.5996,-66.587 454.5,-65.7 454.5,-65.7 454.5,-65.7 450.5996,-66.587 453.7017,-62.1896 446.6992,-67.4741 446.6992,-67.4741"/>
<ellipse fill="none" stroke="#000000" cx="443.5789" cy="-68.1837" rx="3.2" ry="3.2"/>
</g>
<!-- user_consent&#45;&gt;federated_user -->
<g id="edge6" class="edge">
<title>user_consent:w&#45;&gt;federated_user:e</title>
<path fill="none" stroke="#000000" stroke-dasharray="5,2" d="M440.1753,-67.5589C374.3361,-80.3396 158.7622,-154.7 124,-154.7"/>
<polygon fill="#000000" stroke="#000000" points="446.5665,-66.7296 454.9633,-69.2701 450.5333,-66.2148 454.5,-65.7 454.5,-65.7 454.5,-65.7 450.5333,-66.2148 454.0367,-62.1299 446.5665,-66.7296 446.5665,-66.7296"/>
<ellipse fill="none" stroke="#000000" cx="443.3931" cy="-67.1414" rx="3.2" ry="3.2"/>
</g>
<!-- user_group_membership -->
<g id="node7" class="node">
<title>user_group_membership</title>
<g id="a_node7"><a xlink:href="../../tables/user_group_membership.html" xlink:title="user_group_membership" target="_top">
<polygon fill="#ffffff" stroke="transparent" points="426,-284.2 426,-345.2 591,-345.2 591,-284.2 426,-284.2"/>
<polygon fill="#f5f5f5" stroke="transparent" points="426.5,-321.7 426.5,-344.7 591.5,-344.7 591.5,-321.7 426.5,-321.7"/>
<polygon fill="none" stroke="#000000" points="426.5,-321.7 426.5,-344.7 591.5,-344.7 591.5,-321.7 426.5,-321.7"/>
<text text-anchor="start" x="431.378" y="-330.8" font-family="Helvetica,sans-Serif" font-weight="bold" font-size="11.00" fill="#000000">user_group_membership</text>
<text text-anchor="start" x="557.0219" y="-329.8" font-family="Helvetica,sans-Serif" font-size="11.00" fill="#000000">[table]</text>
<polygon fill="none" stroke="#000000" points="426.5,-302.7 426.5,-321.7 591.5,-321.7 591.5,-302.7 426.5,-302.7"/>
<text text-anchor="start" x="429.5" y="-308.8" font-family="Helvetica,sans-Serif" font-size="11.00" fill="#000000">...</text>
<polygon fill="#ffffff" stroke="transparent" points="426.5,-283.7 426.5,-302.7 494.5,-302.7 494.5,-283.7 426.5,-283.7"/>
<polygon fill="none" stroke="#000000" points="426.5,-283.7 426.5,-302.7 494.5,-302.7 494.5,-283.7 426.5,-283.7"/>
<text text-anchor="start" x="429.5" y="-289.8" font-family="Helvetica,sans-Serif" font-size="11.00" fill="#000000">&lt; 1</text>
<polygon fill="#ffffff" stroke="transparent" points="494.5,-283.7 494.5,-302.7 555.5,-302.7 555.5,-283.7 494.5,-283.7"/>
<polygon fill="none" stroke="#000000" points="494.5,-283.7 494.5,-302.7 555.5,-302.7 555.5,-283.7 494.5,-283.7"/>
<text text-anchor="start" x="520.1105" y="-289.8" font-family="Helvetica,sans-Serif" font-size="11.00" fill="#000000">0 rows</text>
<polygon fill="#ffffff" stroke="transparent" points="555.5,-283.7 555.5,-302.7 591.5,-302.7 591.5,-283.7 555.5,-283.7"/>
<polygon fill="none" stroke="#000000" points="555.5,-283.7 555.5,-302.7 591.5,-302.7 591.5,-283.7 555.5,-283.7"/>
<text text-anchor="start" x="582.3862" y="-289.8" font-family="Helvetica,sans-Serif" font-size="11.00" fill="#000000"> &#160;</text>
</a>
</g>
</g>
<!-- user_group_membership&#45;&gt;user_entity -->
<g id="edge9" class="edge">
<title>user_group_membership:w&#45;&gt;user_entity:e</title>
<path fill="none" stroke="#000000" d="M412.1629,-310.3253C390.0708,-305.8068 381.4324,-291.7 353,-291.7"/>
<polygon fill="#000000" stroke="#000000" points="418.5365,-310.9364 426.1564,-315.2836 422.5183,-311.3182 426.5,-311.7 426.5,-311.7 426.5,-311.7 422.5183,-311.3182 426.8436,-308.1164 418.5365,-310.9364 418.5365,-310.9364"/>
<ellipse fill="none" stroke="#000000" cx="415.3511" cy="-310.6309" rx="3.2" ry="3.2"/>
</g>
<!-- user_required_action -->
<g id="node8" class="node">
<title>user_required_action</title>
<g id="a_node8"><a xlink:href="../../tables/user_required_action.html" xlink:title="user_required_action" target="_top">
<polygon fill="#ffffff" stroke="transparent" points="435.5,-202.2 435.5,-263.2 581.5,-263.2 581.5,-202.2 435.5,-202.2"/>
<polygon fill="#f5f5f5" stroke="transparent" points="435.5,-239.7 435.5,-262.7 581.5,-262.7 581.5,-239.7 435.5,-239.7"/>
<polygon fill="none" stroke="#000000" points="435.5,-239.7 435.5,-262.7 581.5,-262.7 581.5,-239.7 435.5,-239.7"/>
<text text-anchor="start" x="440.3484" y="-248.8" font-family="Helvetica,sans-Serif" font-weight="bold" font-size="11.00" fill="#000000">user_required_action</text>
<text text-anchor="start" x="547.0219" y="-247.8" font-family="Helvetica,sans-Serif" font-size="11.00" fill="#000000">[table]</text>
<polygon fill="none" stroke="#000000" points="435.5,-220.7 435.5,-239.7 581.5,-239.7 581.5,-220.7 435.5,-220.7"/>
<text text-anchor="start" x="438.5" y="-226.8" font-family="Helvetica,sans-Serif" font-size="11.00" fill="#000000">...</text>
<polygon fill="#ffffff" stroke="transparent" points="435.5,-201.7 435.5,-220.7 493.5,-220.7 493.5,-201.7 435.5,-201.7"/>
<polygon fill="none" stroke="#000000" points="435.5,-201.7 435.5,-220.7 493.5,-220.7 493.5,-201.7 435.5,-201.7"/>
<text text-anchor="start" x="438.5" y="-207.8" font-family="Helvetica,sans-Serif" font-size="11.00" fill="#000000">&lt; 1</text>
<polygon fill="#ffffff" stroke="transparent" points="493.5,-201.7 493.5,-220.7 550.5,-220.7 550.5,-201.7 493.5,-201.7"/>
<polygon fill="none" stroke="#000000" points="493.5,-201.7 493.5,-220.7 550.5,-220.7 550.5,-201.7 493.5,-201.7"/>
<text text-anchor="start" x="515.1105" y="-207.8" font-family="Helvetica,sans-Serif" font-size="11.00" fill="#000000">0 rows</text>
<polygon fill="#ffffff" stroke="transparent" points="550.5,-201.7 550.5,-220.7 581.5,-220.7 581.5,-201.7 550.5,-201.7"/>
<polygon fill="none" stroke="#000000" points="550.5,-201.7 550.5,-220.7 581.5,-220.7 581.5,-201.7 550.5,-201.7"/>
<text text-anchor="start" x="572.3862" y="-207.8" font-family="Helvetica,sans-Serif" font-size="11.00" fill="#000000"> &#160;</text>
</a>
</g>
</g>
<!-- user_required_action&#45;&gt;user_entity -->
<g id="edge10" class="edge">
<title>user_required_action:w&#45;&gt;user_entity:e</title>
<path fill="none" stroke="#000000" d="M421.0657,-232.2073C391.0615,-243.8065 393.3125,-291.7 353,-291.7"/>
<polygon fill="#000000" stroke="#000000" points="427.618,-231.0692 436.1161,-233.2469 431.559,-230.3846 435.5,-229.7 435.5,-229.7 435.5,-229.7 431.559,-230.3846 434.8839,-226.1531 427.618,-231.0692 427.618,-231.0692"/>
<ellipse fill="none" stroke="#000000" cx="424.4652" cy="-231.6168" rx="3.2" ry="3.2"/>
</g>
<!-- user_role_mapping -->
<g id="node9" class="node">
<title>user_role_mapping</title>
<g id="a_node9"><a xlink:href="../../tables/user_role_mapping.html" xlink:title="user_role_mapping" target="_top">
<polygon fill="#ffffff" stroke="transparent" points="440,-120.2 440,-181.2 577,-181.2 577,-120.2 440,-120.2"/>
<polygon fill="#f5f5f5" stroke="transparent" points="440.5,-157.7 440.5,-180.7 577.5,-180.7 577.5,-157.7 440.5,-157.7"/>
<polygon fill="none" stroke="#000000" points="440.5,-157.7 440.5,-180.7 577.5,-180.7 577.5,-157.7 440.5,-157.7"/>
<text text-anchor="start" x="445.4343" y="-166.8" font-family="Helvetica,sans-Serif" font-weight="bold" font-size="11.00" fill="#000000">user_role_mapping</text>
<text text-anchor="start" x="543.0219" y="-165.8" font-family="Helvetica,sans-Serif" font-size="11.00" fill="#000000">[table]</text>
<polygon fill="none" stroke="#000000" points="440.5,-138.7 440.5,-157.7 577.5,-157.7 577.5,-138.7 440.5,-138.7"/>
<text text-anchor="start" x="443.5" y="-144.8" font-family="Helvetica,sans-Serif" font-size="11.00" fill="#000000">...</text>
<polygon fill="#ffffff" stroke="transparent" points="440.5,-119.7 440.5,-138.7 494.5,-138.7 494.5,-119.7 440.5,-119.7"/>
<polygon fill="none" stroke="#000000" points="440.5,-119.7 440.5,-138.7 494.5,-138.7 494.5,-119.7 440.5,-119.7"/>
<text text-anchor="start" x="443.5" y="-125.8" font-family="Helvetica,sans-Serif" font-size="11.00" fill="#000000">&lt; 1</text>
<polygon fill="#ffffff" stroke="transparent" points="494.5,-119.7 494.5,-138.7 548.5,-138.7 548.5,-119.7 494.5,-119.7"/>
<polygon fill="none" stroke="#000000" points="494.5,-119.7 494.5,-138.7 548.5,-138.7 548.5,-119.7 494.5,-119.7"/>
<text text-anchor="start" x="513.1105" y="-125.8" font-family="Helvetica,sans-Serif" font-size="11.00" fill="#000000">5 rows</text>
<polygon fill="#ffffff" stroke="transparent" points="548.5,-119.7 548.5,-138.7 577.5,-138.7 577.5,-119.7 548.5,-119.7"/>
<polygon fill="none" stroke="#000000" points="548.5,-119.7 548.5,-138.7 577.5,-138.7 577.5,-119.7 548.5,-119.7"/>
<text text-anchor="start" x="568.3862" y="-125.8" font-family="Helvetica,sans-Serif" font-size="11.00" fill="#000000"> &#160;</text>
</a>
</g>
</g>
<!-- user_role_mapping&#45;&gt;user_entity -->
<g id="edge11" class="edge">
<title>user_role_mapping:w&#45;&gt;user_entity:e</title>
<path fill="none" stroke="#000000" d="M426.1009,-150.0942C410.6694,-156.163 406.8218,-173.0008 394,-191.7 366.8356,-231.3163 401.035,-291.7 353,-291.7"/>
<polygon fill="#000000" stroke="#000000" points="432.6083,-149.0122 441.0905,-151.2512 436.5542,-148.3561 440.5,-147.7 440.5,-147.7 440.5,-147.7 436.5542,-148.3561 439.9095,-144.1488 432.6083,-149.0122 432.6083,-149.0122"/>
<ellipse fill="none" stroke="#000000" cx="429.4517" cy="-149.5371" rx="3.2" ry="3.2"/>
</g>
</g>
</svg>
