<?xml version="1.0" encoding="UTF-8" standalone="no"?>
<!DOCTYPE svg PUBLIC "-//W3C//DTD SVG 1.1//EN"
 "http://www.w3.org/Graphics/SVG/1.1/DTD/svg11.dtd">
<!-- Generated by graphviz version 2.40.1 (20161225.0304)
 -->
<!-- Title: oneDegreeRelationshipsDiagramImplied Pages: 1 -->
<svg width="430pt" height="404pt"
 viewBox="0.00 0.00 430.00 404.20" xmlns="http://www.w3.org/2000/svg" xmlns:xlink="http://www.w3.org/1999/xlink">
<g id="graph0" class="graph" transform="scale(1 1) rotate(0) translate(4 400.2)">
<title>oneDegreeRelationshipsDiagramImplied</title>
<polygon fill="#ffffff" stroke="transparent" points="-4,4 -4,-400.2 426,-400.2 426,4 -4,4"/>
<text text-anchor="middle" x="72.4936" y="-7.3" font-family="Helvetica,sans-Serif" font-size="11.00" fill="#000000">Generated by SchemaSpy</text>
<!-- databasechangelog -->
<g id="node1" class="node">
<title>databasechangelog</title>
<g id="a_node1"><a xlink:href="../../tables/databasechangelog.html" xlink:title="databasechangelog" target="_top">
<polygon fill="#ffffff" stroke="transparent" points="193,-38.2 193,-392.2 414,-392.2 414,-38.2 193,-38.2"/>
<polygon fill="#f5f5f5" stroke="transparent" points="195.5,-367.2 195.5,-390.2 412.5,-390.2 412.5,-367.2 195.5,-367.2"/>
<polygon fill="none" stroke="#000000" points="195.5,-367.2 195.5,-390.2 412.5,-390.2 412.5,-367.2 195.5,-367.2"/>
<text text-anchor="start" x="200.5" y="-376.3" font-family="Helvetica,sans-Serif" font-weight="bold" font-size="11.00" fill="#000000">databasechangelog</text>
<text text-anchor="start" x="377.5437" y="-375.3" font-family="Helvetica,sans-Serif" font-size="11.00" fill="#000000">[table]</text>
<polygon fill="none" stroke="#000000" points="195.5,-345.2 195.5,-367.2 328.5,-367.2 328.5,-345.2 195.5,-345.2"/>
<image xlink:href="../../images/foreignKeys.png" width="11px" height="12px" preserveAspectRatio="xMinYMin meet" x="200.5" y="-362.2"/>
<text text-anchor="start" x="215.5" y="-352.3" font-family="Helvetica,sans-Serif" font-size="11.00" fill="#000000">id</text>
<polygon fill="none" stroke="#000000" points="328.5,-345.2 328.5,-367.2 412.5,-367.2 412.5,-345.2 328.5,-345.2"/>
<text text-anchor="start" x="331.5" y="-352.9" font-family="Helvetica,sans-Serif" font-size="11.00" fill="#000000">varchar[255]</text>
<polygon fill="none" stroke="#000000" points="195.5,-323.2 195.5,-345.2 328.5,-345.2 328.5,-323.2 195.5,-323.2"/>
<text text-anchor="start" x="215.5" y="-330.3" font-family="Helvetica,sans-Serif" font-size="11.00" fill="#000000">author</text>
<polygon fill="none" stroke="#000000" points="328.5,-323.2 328.5,-345.2 412.5,-345.2 412.5,-323.2 328.5,-323.2"/>
<text text-anchor="start" x="331.5" y="-330.9" font-family="Helvetica,sans-Serif" font-size="11.00" fill="#000000">varchar[255]</text>
<polygon fill="none" stroke="#000000" points="195.5,-301.2 195.5,-323.2 328.5,-323.2 328.5,-301.2 195.5,-301.2"/>
<text text-anchor="start" x="215.5" y="-308.3" font-family="Helvetica,sans-Serif" font-size="11.00" fill="#000000">filename</text>
<polygon fill="none" stroke="#000000" points="328.5,-301.2 328.5,-323.2 412.5,-323.2 412.5,-301.2 328.5,-301.2"/>
<text text-anchor="start" x="331.5" y="-308.9" font-family="Helvetica,sans-Serif" font-size="11.00" fill="#000000">varchar[255]</text>
<polygon fill="none" stroke="#000000" points="195.5,-279.2 195.5,-301.2 328.5,-301.2 328.5,-279.2 195.5,-279.2"/>
<text text-anchor="start" x="215.5" y="-286.3" font-family="Helvetica,sans-Serif" font-size="11.00" fill="#000000">dateexecuted</text>
<polygon fill="none" stroke="#000000" points="328.5,-279.2 328.5,-301.2 412.5,-301.2 412.5,-279.2 328.5,-279.2"/>
<text text-anchor="start" x="331.3807" y="-286.9" font-family="Helvetica,sans-Serif" font-size="11.00" fill="#000000">timestamp[29,6]</text>
<polygon fill="none" stroke="#000000" points="195.5,-257.2 195.5,-279.2 328.5,-279.2 328.5,-257.2 195.5,-257.2"/>
<text text-anchor="start" x="215.5" y="-264.3" font-family="Helvetica,sans-Serif" font-size="11.00" fill="#000000">orderexecuted</text>
<polygon fill="none" stroke="#000000" points="328.5,-257.2 328.5,-279.2 412.5,-279.2 412.5,-257.2 328.5,-257.2"/>
<text text-anchor="start" x="331.5" y="-264.9" font-family="Helvetica,sans-Serif" font-size="11.00" fill="#000000">int4[10]</text>
<polygon fill="none" stroke="#000000" points="195.5,-235.2 195.5,-257.2 328.5,-257.2 328.5,-235.2 195.5,-235.2"/>
<text text-anchor="start" x="215.5" y="-242.3" font-family="Helvetica,sans-Serif" font-size="11.00" fill="#000000">exectype</text>
<polygon fill="none" stroke="#000000" points="328.5,-235.2 328.5,-257.2 412.5,-257.2 412.5,-235.2 328.5,-235.2"/>
<text text-anchor="start" x="331.5" y="-242.9" font-family="Helvetica,sans-Serif" font-size="11.00" fill="#000000">varchar[10]</text>
<polygon fill="none" stroke="#000000" points="195.5,-213.2 195.5,-235.2 328.5,-235.2 328.5,-213.2 195.5,-213.2"/>
<text text-anchor="start" x="215.5" y="-220.3" font-family="Helvetica,sans-Serif" font-size="11.00" fill="#000000">md5sum</text>
<polygon fill="none" stroke="#000000" points="328.5,-213.2 328.5,-235.2 412.5,-235.2 412.5,-213.2 328.5,-213.2"/>
<text text-anchor="start" x="331.5" y="-220.9" font-family="Helvetica,sans-Serif" font-size="11.00" fill="#000000">varchar[35]</text>
<polygon fill="none" stroke="#000000" points="195.5,-191.2 195.5,-213.2 328.5,-213.2 328.5,-191.2 195.5,-191.2"/>
<text text-anchor="start" x="215.5" y="-198.3" font-family="Helvetica,sans-Serif" font-size="11.00" fill="#000000">description</text>
<polygon fill="none" stroke="#000000" points="328.5,-191.2 328.5,-213.2 412.5,-213.2 412.5,-191.2 328.5,-191.2"/>
<text text-anchor="start" x="331.5" y="-198.9" font-family="Helvetica,sans-Serif" font-size="11.00" fill="#000000">varchar[255]</text>
<polygon fill="none" stroke="#000000" points="195.5,-169.2 195.5,-191.2 328.5,-191.2 328.5,-169.2 195.5,-169.2"/>
<text text-anchor="start" x="215.5" y="-176.3" font-family="Helvetica,sans-Serif" font-size="11.00" fill="#000000">comments</text>
<polygon fill="none" stroke="#000000" points="328.5,-169.2 328.5,-191.2 412.5,-191.2 412.5,-169.2 328.5,-169.2"/>
<text text-anchor="start" x="331.5" y="-176.9" font-family="Helvetica,sans-Serif" font-size="11.00" fill="#000000">varchar[255]</text>
<polygon fill="none" stroke="#000000" points="195.5,-147.2 195.5,-169.2 328.5,-169.2 328.5,-147.2 195.5,-147.2"/>
<text text-anchor="start" x="215.5" y="-154.3" font-family="Helvetica,sans-Serif" font-size="11.00" fill="#000000">tag</text>
<polygon fill="none" stroke="#000000" points="328.5,-147.2 328.5,-169.2 412.5,-169.2 412.5,-147.2 328.5,-147.2"/>
<text text-anchor="start" x="331.5" y="-154.9" font-family="Helvetica,sans-Serif" font-size="11.00" fill="#000000">varchar[255]</text>
<polygon fill="none" stroke="#000000" points="195.5,-125.2 195.5,-147.2 328.5,-147.2 328.5,-125.2 195.5,-125.2"/>
<text text-anchor="start" x="215.5" y="-132.3" font-family="Helvetica,sans-Serif" font-size="11.00" fill="#000000">liquibase</text>
<polygon fill="none" stroke="#000000" points="328.5,-125.2 328.5,-147.2 412.5,-147.2 412.5,-125.2 328.5,-125.2"/>
<text text-anchor="start" x="331.5" y="-132.9" font-family="Helvetica,sans-Serif" font-size="11.00" fill="#000000">varchar[20]</text>
<polygon fill="none" stroke="#000000" points="195.5,-103.2 195.5,-125.2 328.5,-125.2 328.5,-103.2 195.5,-103.2"/>
<text text-anchor="start" x="215.5" y="-110.3" font-family="Helvetica,sans-Serif" font-size="11.00" fill="#000000">contexts</text>
<polygon fill="none" stroke="#000000" points="328.5,-103.2 328.5,-125.2 412.5,-125.2 412.5,-103.2 328.5,-103.2"/>
<text text-anchor="start" x="331.5" y="-110.9" font-family="Helvetica,sans-Serif" font-size="11.00" fill="#000000">varchar[255]</text>
<polygon fill="none" stroke="#000000" points="195.5,-81.2 195.5,-103.2 328.5,-103.2 328.5,-81.2 195.5,-81.2"/>
<text text-anchor="start" x="215.5" y="-88.3" font-family="Helvetica,sans-Serif" font-size="11.00" fill="#000000">labels</text>
<polygon fill="none" stroke="#000000" points="328.5,-81.2 328.5,-103.2 412.5,-103.2 412.5,-81.2 328.5,-81.2"/>
<text text-anchor="start" x="331.5" y="-88.9" font-family="Helvetica,sans-Serif" font-size="11.00" fill="#000000">varchar[255]</text>
<polygon fill="none" stroke="#000000" points="195.5,-59.2 195.5,-81.2 328.5,-81.2 328.5,-59.2 195.5,-59.2"/>
<text text-anchor="start" x="215.5" y="-66.3" font-family="Helvetica,sans-Serif" font-size="11.00" fill="#000000">deployment_id</text>
<polygon fill="none" stroke="#000000" points="328.5,-59.2 328.5,-81.2 412.5,-81.2 412.5,-59.2 328.5,-59.2"/>
<text text-anchor="start" x="331.5" y="-66.9" font-family="Helvetica,sans-Serif" font-size="11.00" fill="#000000">varchar[10]</text>
<polygon fill="#ffffff" stroke="transparent" points="195.5,-40.2 195.5,-59.2 250.5,-59.2 250.5,-40.2 195.5,-40.2"/>
<polygon fill="none" stroke="#000000" points="195.5,-40.2 195.5,-59.2 250.5,-59.2 250.5,-40.2 195.5,-40.2"/>
<text text-anchor="start" x="198.5" y="-46.3" font-family="Helvetica,sans-Serif" font-size="11.00" fill="#000000">&lt; 1</text>
<polygon fill="#ffffff" stroke="transparent" points="250.5,-40.2 250.5,-59.2 328.5,-59.2 328.5,-40.2 250.5,-40.2"/>
<polygon fill="none" stroke="#000000" points="250.5,-40.2 250.5,-59.2 328.5,-59.2 328.5,-40.2 250.5,-40.2"/>
<text text-anchor="start" x="286.9956" y="-46.3" font-family="Helvetica,sans-Serif" font-size="11.00" fill="#000000">88 rows</text>
<polygon fill="#ffffff" stroke="transparent" points="328.5,-40.2 328.5,-59.2 412.5,-59.2 412.5,-40.2 328.5,-40.2"/>
<polygon fill="none" stroke="#000000" points="328.5,-40.2 328.5,-59.2 412.5,-59.2 412.5,-40.2 328.5,-40.2"/>
<text text-anchor="start" x="393.9053" y="-46.3" font-family="Helvetica,sans-Serif" font-size="11.00" fill="#000000">0 &gt;</text>
<polygon fill="none" stroke="#000000" stroke-width="2" points="194,-39.2 194,-391.2 413,-391.2 413,-39.2 194,-39.2"/>
</a>
</g>
</g>
<!-- federated_user -->
<g id="node2" class="node">
<title>federated_user</title>
<g id="a_node2"><a xlink:href="../../tables/federated_user.html" xlink:title="federated_user" target="_top">
<polygon fill="#ffffff" stroke="transparent" points="8,-307.7 8,-390.7 144,-390.7 144,-307.7 8,-307.7"/>
<polygon fill="#f5f5f5" stroke="transparent" points="8,-367.2 8,-390.2 144,-390.2 144,-367.2 8,-367.2"/>
<polygon fill="none" stroke="#000000" points="8,-367.2 8,-390.2 144,-390.2 144,-367.2 8,-367.2"/>
<text text-anchor="start" x="13" y="-376.3" font-family="Helvetica,sans-Serif" font-weight="bold" font-size="11.00" fill="#000000">federated_user</text>
<text text-anchor="start" x="109.0437" y="-375.3" font-family="Helvetica,sans-Serif" font-size="11.00" fill="#000000">[table]</text>
<polygon fill="none" stroke="#000000" points="8,-345.2 8,-367.2 144,-367.2 144,-345.2 8,-345.2"/>
<image xlink:href="../../images/primaryKeys.png" width="11px" height="12px" preserveAspectRatio="xMinYMin meet" x="13" y="-362.2"/>
<text text-anchor="start" x="28" y="-352.3" font-family="Helvetica,sans-Serif" font-size="11.00" fill="#000000">id</text>
<polygon fill="none" stroke="#000000" points="8,-326.2 8,-345.2 144,-345.2 144,-326.2 8,-326.2"/>
<text text-anchor="start" x="11" y="-332.3" font-family="Helvetica,sans-Serif" font-size="11.00" fill="#000000">...</text>
<polygon fill="#ffffff" stroke="transparent" points="8,-307.2 8,-326.2 49,-326.2 49,-307.2 8,-307.2"/>
<polygon fill="none" stroke="#000000" points="8,-307.2 8,-326.2 49,-326.2 49,-307.2 8,-307.2"/>
<text text-anchor="start" x="11" y="-313.3" font-family="Helvetica,sans-Serif" font-size="11.00" fill="#000000"> &#160;</text>
<polygon fill="#ffffff" stroke="transparent" points="49,-307.2 49,-326.2 102,-326.2 102,-307.2 49,-307.2"/>
<polygon fill="none" stroke="#000000" points="49,-307.2 49,-326.2 102,-326.2 102,-307.2 49,-307.2"/>
<text text-anchor="start" x="66.6105" y="-313.3" font-family="Helvetica,sans-Serif" font-size="11.00" fill="#000000">0 rows</text>
<polygon fill="#ffffff" stroke="transparent" points="102,-307.2 102,-326.2 144,-326.2 144,-307.2 102,-307.2"/>
<polygon fill="none" stroke="#000000" points="102,-307.2 102,-326.2 144,-326.2 144,-307.2 102,-307.2"/>
<text text-anchor="start" x="119.2904" y="-313.3" font-family="Helvetica,sans-Serif" font-size="11.00" fill="#000000">30 &gt;</text>
</a>
</g>
</g>
<!-- databasechangelog&#45;&gt;federated_user -->
<g id="edge1" class="edge">
<title>databasechangelog:w&#45;&gt;federated_user:e</title>
<path fill="none" stroke="#000000" stroke-dasharray="5,2" d="M181.0156,-356.2C168.6771,-356.2 161.1667,-356.2 144,-356.2"/>
<polygon fill="#000000" stroke="#000000" points="187.5,-356.2001 195.5,-359.8 191.5,-356.2 195.5,-356.2 195.5,-356.2 195.5,-356.2 191.5,-356.2 195.5,-352.6 187.5,-356.2001 187.5,-356.2001"/>
<ellipse fill="none" stroke="#000000" cx="184.3" cy="-356.2001" rx="3.2" ry="3.2"/>
</g>
</g>
</svg>
