<?xml version="1.0" encoding="UTF-8" standalone="no"?>
<!DOCTYPE svg PUBLIC "-//W3C//DTD SVG 1.1//EN"
 "http://www.w3.org/Graphics/SVG/1.1/DTD/svg11.dtd">
<!-- Generated by graphviz version 2.40.1 (20161225.0304)
 -->
<!-- Title: oneDegreeRelationshipsDiagram Pages: 1 -->
<svg width="264pt" height="338pt"
 viewBox="0.00 0.00 264.00 338.20" xmlns="http://www.w3.org/2000/svg" xmlns:xlink="http://www.w3.org/1999/xlink">
<g id="graph0" class="graph" transform="scale(1 1) rotate(0) translate(4 334.2)">
<title>oneDegreeRelationshipsDiagram</title>
<polygon fill="#ffffff" stroke="transparent" points="-4,4 -4,-334.2 260,-334.2 260,4 -4,4"/>
<text text-anchor="middle" x="72.4936" y="-7.3" font-family="Helvetica,sans-Serif" font-size="11.00" fill="#000000">Generated by SchemaSpy</text>
<!-- fed_user_credential -->
<g id="node1" class="node">
<title>fed_user_credential</title>
<g id="a_node1"><a xlink:href="../../tables/fed_user_credential.html" xlink:title="fed_user_credential" target="_top">
<polygon fill="#ffffff" stroke="transparent" points="8,-38.2 8,-326.2 248,-326.2 248,-38.2 8,-38.2"/>
<polygon fill="#f5f5f5" stroke="transparent" points="10,-301.2 10,-324.2 246,-324.2 246,-301.2 10,-301.2"/>
<polygon fill="none" stroke="#000000" points="10,-301.2 10,-324.2 246,-324.2 246,-301.2 10,-301.2"/>
<text text-anchor="start" x="15" y="-310.3" font-family="Helvetica,sans-Serif" font-weight="bold" font-size="11.00" fill="#000000">fed_user_credential</text>
<text text-anchor="start" x="211.0437" y="-309.3" font-family="Helvetica,sans-Serif" font-size="11.00" fill="#000000">[table]</text>
<polygon fill="none" stroke="#000000" points="10,-279.2 10,-301.2 146,-301.2 146,-279.2 10,-279.2"/>
<image xlink:href="../../images/primaryKeys.png" width="11px" height="12px" preserveAspectRatio="xMinYMin meet" x="15" y="-296.2"/>
<text text-anchor="start" x="30" y="-286.3" font-family="Helvetica,sans-Serif" font-size="11.00" fill="#000000">id</text>
<polygon fill="none" stroke="#000000" points="146,-279.2 146,-301.2 246,-301.2 246,-279.2 146,-279.2"/>
<text text-anchor="start" x="149" y="-286.9" font-family="Helvetica,sans-Serif" font-size="11.00" fill="#000000">varchar[36]</text>
<polygon fill="none" stroke="#000000" points="10,-257.2 10,-279.2 146,-279.2 146,-257.2 10,-257.2"/>
<text text-anchor="start" x="30" y="-264.3" font-family="Helvetica,sans-Serif" font-size="11.00" fill="#000000">salt</text>
<polygon fill="none" stroke="#000000" points="146,-257.2 146,-279.2 246,-279.2 246,-257.2 146,-257.2"/>
<text text-anchor="start" x="148.9178" y="-264.9" font-family="Helvetica,sans-Serif" font-size="11.00" fill="#000000">bytea[2147483647]</text>
<polygon fill="#ffffff" stroke="transparent" points="10,-235.2 10,-257.2 146,-257.2 146,-235.2 10,-235.2"/>
<polygon fill="none" stroke="#000000" points="10,-235.2 10,-257.2 146,-257.2 146,-235.2 10,-235.2"/>
<text text-anchor="start" x="30" y="-242.3" font-family="Helvetica,sans-Serif" font-size="11.00" fill="#000000">type</text>
<polygon fill="none" stroke="#000000" points="146,-235.2 146,-257.2 246,-257.2 246,-235.2 146,-235.2"/>
<text text-anchor="start" x="149" y="-242.9" font-family="Helvetica,sans-Serif" font-size="11.00" fill="#000000">varchar[255]</text>
<polygon fill="none" stroke="#000000" points="10,-213.2 10,-235.2 146,-235.2 146,-213.2 10,-213.2"/>
<text text-anchor="start" x="30" y="-220.3" font-family="Helvetica,sans-Serif" font-size="11.00" fill="#000000">created_date</text>
<polygon fill="none" stroke="#000000" points="146,-213.2 146,-235.2 246,-235.2 246,-213.2 146,-213.2"/>
<text text-anchor="start" x="149" y="-220.9" font-family="Helvetica,sans-Serif" font-size="11.00" fill="#000000">int8[19]</text>
<polygon fill="#ffffff" stroke="transparent" points="10,-191.2 10,-213.2 146,-213.2 146,-191.2 10,-191.2"/>
<polygon fill="none" stroke="#000000" points="10,-191.2 10,-213.2 146,-213.2 146,-191.2 10,-191.2"/>
<image xlink:href="../../images/foreignKeys.png" width="11px" height="12px" preserveAspectRatio="xMinYMin meet" x="15" y="-208.2"/>
<text text-anchor="start" x="30" y="-198.3" font-family="Helvetica,sans-Serif" font-size="11.00" fill="#000000">user_id</text>
<polygon fill="none" stroke="#000000" points="146,-191.2 146,-213.2 246,-213.2 246,-191.2 146,-191.2"/>
<text text-anchor="start" x="149" y="-198.9" font-family="Helvetica,sans-Serif" font-size="11.00" fill="#000000">varchar[255]</text>
<polygon fill="#ffffff" stroke="transparent" points="10,-169.2 10,-191.2 146,-191.2 146,-169.2 10,-169.2"/>
<polygon fill="none" stroke="#000000" points="10,-169.2 10,-191.2 146,-191.2 146,-169.2 10,-169.2"/>
<text text-anchor="start" x="30" y="-176.3" font-family="Helvetica,sans-Serif" font-size="11.00" fill="#000000">realm_id</text>
<polygon fill="none" stroke="#000000" points="146,-169.2 146,-191.2 246,-191.2 246,-169.2 146,-169.2"/>
<text text-anchor="start" x="149" y="-176.9" font-family="Helvetica,sans-Serif" font-size="11.00" fill="#000000">varchar[36]</text>
<polygon fill="none" stroke="#000000" points="10,-147.2 10,-169.2 146,-169.2 146,-147.2 10,-147.2"/>
<text text-anchor="start" x="30" y="-154.3" font-family="Helvetica,sans-Serif" font-size="11.00" fill="#000000">storage_provider_id</text>
<polygon fill="none" stroke="#000000" points="146,-147.2 146,-169.2 246,-169.2 246,-147.2 146,-147.2"/>
<text text-anchor="start" x="149" y="-154.9" font-family="Helvetica,sans-Serif" font-size="11.00" fill="#000000">varchar[36]</text>
<polygon fill="none" stroke="#000000" points="10,-125.2 10,-147.2 146,-147.2 146,-125.2 10,-125.2"/>
<text text-anchor="start" x="30" y="-132.3" font-family="Helvetica,sans-Serif" font-size="11.00" fill="#000000">user_label</text>
<polygon fill="none" stroke="#000000" points="146,-125.2 146,-147.2 246,-147.2 246,-125.2 146,-125.2"/>
<text text-anchor="start" x="149" y="-132.9" font-family="Helvetica,sans-Serif" font-size="11.00" fill="#000000">varchar[255]</text>
<polygon fill="none" stroke="#000000" points="10,-103.2 10,-125.2 146,-125.2 146,-103.2 10,-103.2"/>
<text text-anchor="start" x="30" y="-110.3" font-family="Helvetica,sans-Serif" font-size="11.00" fill="#000000">secret_data</text>
<polygon fill="none" stroke="#000000" points="146,-103.2 146,-125.2 246,-125.2 246,-103.2 146,-103.2"/>
<text text-anchor="start" x="149" y="-110.9" font-family="Helvetica,sans-Serif" font-size="11.00" fill="#000000">text[2147483647]</text>
<polygon fill="none" stroke="#000000" points="10,-81.2 10,-103.2 146,-103.2 146,-81.2 10,-81.2"/>
<text text-anchor="start" x="30" y="-88.3" font-family="Helvetica,sans-Serif" font-size="11.00" fill="#000000">credential_data</text>
<polygon fill="none" stroke="#000000" points="146,-81.2 146,-103.2 246,-103.2 246,-81.2 146,-81.2"/>
<text text-anchor="start" x="149" y="-88.9" font-family="Helvetica,sans-Serif" font-size="11.00" fill="#000000">text[2147483647]</text>
<polygon fill="none" stroke="#000000" points="10,-59.2 10,-81.2 146,-81.2 146,-59.2 10,-59.2"/>
<text text-anchor="start" x="30" y="-66.3" font-family="Helvetica,sans-Serif" font-size="11.00" fill="#000000">priority</text>
<polygon fill="none" stroke="#000000" points="146,-59.2 146,-81.2 246,-81.2 246,-59.2 146,-59.2"/>
<text text-anchor="start" x="149" y="-66.9" font-family="Helvetica,sans-Serif" font-size="11.00" fill="#000000">int4[10]</text>
<polygon fill="#ffffff" stroke="transparent" points="10,-40.2 10,-59.2 69,-59.2 69,-40.2 10,-40.2"/>
<polygon fill="none" stroke="#000000" points="10,-40.2 10,-59.2 69,-59.2 69,-40.2 10,-40.2"/>
<text text-anchor="start" x="13" y="-46.3" font-family="Helvetica,sans-Serif" font-size="11.00" fill="#000000">&lt; 0</text>
<polygon fill="#ffffff" stroke="transparent" points="69,-40.2 69,-59.2 146,-59.2 146,-40.2 69,-40.2"/>
<polygon fill="none" stroke="#000000" points="69,-40.2 69,-59.2 146,-59.2 146,-40.2 69,-40.2"/>
<text text-anchor="start" x="110.6105" y="-46.3" font-family="Helvetica,sans-Serif" font-size="11.00" fill="#000000">0 rows</text>
<polygon fill="#ffffff" stroke="transparent" points="146,-40.2 146,-59.2 246,-59.2 246,-40.2 146,-40.2"/>
<polygon fill="none" stroke="#000000" points="146,-40.2 146,-59.2 246,-59.2 246,-40.2 146,-40.2"/>
<text text-anchor="start" x="227.4053" y="-46.3" font-family="Helvetica,sans-Serif" font-size="11.00" fill="#000000">0 &gt;</text>
<polygon fill="none" stroke="#000000" stroke-width="2" points="9,-39.2 9,-325.2 247,-325.2 247,-39.2 9,-39.2"/>
</a>
</g>
</g>
</g>
</svg>
