<?xml version="1.0" encoding="UTF-8" standalone="no"?>
<!DOCTYPE svg PUBLIC "-//W3C//DTD SVG 1.1//EN"
 "http://www.w3.org/Graphics/SVG/1.1/DTD/svg11.dtd">
<!-- Generated by graphviz version 2.40.1 (20161225.0304)
 -->
<!-- Title: oneDegreeRelationshipsDiagramImplied Pages: 1 -->
<svg width="437pt" height="294pt"
 viewBox="0.00 0.00 437.00 294.20" xmlns="http://www.w3.org/2000/svg" xmlns:xlink="http://www.w3.org/1999/xlink">
<g id="graph0" class="graph" transform="scale(1 1) rotate(0) translate(4 290.2)">
<title>oneDegreeRelationshipsDiagramImplied</title>
<polygon fill="#ffffff" stroke="transparent" points="-4,4 -4,-290.2 433,-290.2 433,4 -4,4"/>
<text text-anchor="middle" x="72.4936" y="-7.3" font-family="Helvetica,sans-Serif" font-size="11.00" fill="#000000">Generated by SchemaSpy</text>
<!-- fed_user_consent -->
<g id="node1" class="node">
<title>fed_user_consent</title>
<g id="a_node1"><a xlink:href="../../tables/fed_user_consent.html" xlink:title="fed_user_consent" target="_top">
<polygon fill="#ffffff" stroke="transparent" points="193,-38.2 193,-282.2 421,-282.2 421,-38.2 193,-38.2"/>
<polygon fill="#f5f5f5" stroke="transparent" points="195,-257.2 195,-280.2 419,-280.2 419,-257.2 195,-257.2"/>
<polygon fill="none" stroke="#000000" points="195,-257.2 195,-280.2 419,-280.2 419,-257.2 195,-257.2"/>
<text text-anchor="start" x="200" y="-266.3" font-family="Helvetica,sans-Serif" font-weight="bold" font-size="11.00" fill="#000000">fed_user_consent</text>
<text text-anchor="start" x="384.0437" y="-265.3" font-family="Helvetica,sans-Serif" font-size="11.00" fill="#000000">[table]</text>
<polygon fill="none" stroke="#000000" points="195,-235.2 195,-257.2 352,-257.2 352,-235.2 195,-235.2"/>
<image xlink:href="../../images/primaryKeys.png" width="11px" height="12px" preserveAspectRatio="xMinYMin meet" x="200" y="-252.2"/>
<text text-anchor="start" x="215" y="-242.3" font-family="Helvetica,sans-Serif" font-size="11.00" fill="#000000">id</text>
<polygon fill="none" stroke="#000000" points="352,-235.2 352,-257.2 419,-257.2 419,-235.2 352,-235.2"/>
<text text-anchor="start" x="355" y="-242.9" font-family="Helvetica,sans-Serif" font-size="11.00" fill="#000000">varchar[36]</text>
<polygon fill="#ffffff" stroke="transparent" points="195,-213.2 195,-235.2 352,-235.2 352,-213.2 195,-213.2"/>
<polygon fill="none" stroke="#000000" points="195,-213.2 195,-235.2 352,-235.2 352,-213.2 195,-213.2"/>
<image xlink:href="../../images/foreignKeys.png" width="11px" height="12px" preserveAspectRatio="xMinYMin meet" x="200" y="-230.2"/>
<text text-anchor="start" x="215" y="-220.3" font-family="Helvetica,sans-Serif" font-size="11.00" fill="#000000">client_id</text>
<polygon fill="none" stroke="#000000" points="352,-213.2 352,-235.2 419,-235.2 419,-213.2 352,-213.2"/>
<text text-anchor="start" x="354.9365" y="-220.9" font-family="Helvetica,sans-Serif" font-size="11.00" fill="#000000">varchar[255]</text>
<polygon fill="#ffffff" stroke="transparent" points="195,-191.2 195,-213.2 352,-213.2 352,-191.2 195,-191.2"/>
<polygon fill="none" stroke="#000000" points="195,-191.2 195,-213.2 352,-213.2 352,-191.2 195,-191.2"/>
<image xlink:href="../../images/foreignKeys.png" width="11px" height="12px" preserveAspectRatio="xMinYMin meet" x="200" y="-208.2"/>
<text text-anchor="start" x="215" y="-198.3" font-family="Helvetica,sans-Serif" font-size="11.00" fill="#000000">user_id</text>
<polygon fill="none" stroke="#000000" points="352,-191.2 352,-213.2 419,-213.2 419,-191.2 352,-191.2"/>
<text text-anchor="start" x="354.9365" y="-198.9" font-family="Helvetica,sans-Serif" font-size="11.00" fill="#000000">varchar[255]</text>
<polygon fill="#ffffff" stroke="transparent" points="195,-169.2 195,-191.2 352,-191.2 352,-169.2 195,-169.2"/>
<polygon fill="none" stroke="#000000" points="195,-169.2 195,-191.2 352,-191.2 352,-169.2 195,-169.2"/>
<text text-anchor="start" x="215" y="-176.3" font-family="Helvetica,sans-Serif" font-size="11.00" fill="#000000">realm_id</text>
<polygon fill="none" stroke="#000000" points="352,-169.2 352,-191.2 419,-191.2 419,-169.2 352,-169.2"/>
<text text-anchor="start" x="355" y="-176.9" font-family="Helvetica,sans-Serif" font-size="11.00" fill="#000000">varchar[36]</text>
<polygon fill="none" stroke="#000000" points="195,-147.2 195,-169.2 352,-169.2 352,-147.2 195,-147.2"/>
<text text-anchor="start" x="215" y="-154.3" font-family="Helvetica,sans-Serif" font-size="11.00" fill="#000000">storage_provider_id</text>
<polygon fill="none" stroke="#000000" points="352,-147.2 352,-169.2 419,-169.2 419,-147.2 352,-147.2"/>
<text text-anchor="start" x="355" y="-154.9" font-family="Helvetica,sans-Serif" font-size="11.00" fill="#000000">varchar[36]</text>
<polygon fill="none" stroke="#000000" points="195,-125.2 195,-147.2 352,-147.2 352,-125.2 195,-125.2"/>
<text text-anchor="start" x="215" y="-132.3" font-family="Helvetica,sans-Serif" font-size="11.00" fill="#000000">created_date</text>
<polygon fill="none" stroke="#000000" points="352,-125.2 352,-147.2 419,-147.2 419,-125.2 352,-125.2"/>
<text text-anchor="start" x="355" y="-132.9" font-family="Helvetica,sans-Serif" font-size="11.00" fill="#000000">int8[19]</text>
<polygon fill="none" stroke="#000000" points="195,-103.2 195,-125.2 352,-125.2 352,-103.2 195,-103.2"/>
<text text-anchor="start" x="215" y="-110.3" font-family="Helvetica,sans-Serif" font-size="11.00" fill="#000000">last_updated_date</text>
<polygon fill="none" stroke="#000000" points="352,-103.2 352,-125.2 419,-125.2 419,-103.2 352,-103.2"/>
<text text-anchor="start" x="355" y="-110.9" font-family="Helvetica,sans-Serif" font-size="11.00" fill="#000000">int8[19]</text>
<polygon fill="#ffffff" stroke="transparent" points="195,-81.2 195,-103.2 352,-103.2 352,-81.2 195,-81.2"/>
<polygon fill="none" stroke="#000000" points="195,-81.2 195,-103.2 352,-103.2 352,-81.2 195,-81.2"/>
<text text-anchor="start" x="215" y="-88.3" font-family="Helvetica,sans-Serif" font-size="11.00" fill="#000000">client_storage_provider</text>
<polygon fill="none" stroke="#000000" points="352,-81.2 352,-103.2 419,-103.2 419,-81.2 352,-81.2"/>
<text text-anchor="start" x="355" y="-88.9" font-family="Helvetica,sans-Serif" font-size="11.00" fill="#000000">varchar[36]</text>
<polygon fill="#ffffff" stroke="transparent" points="195,-59.2 195,-81.2 352,-81.2 352,-59.2 195,-59.2"/>
<polygon fill="none" stroke="#000000" points="195,-59.2 195,-81.2 352,-81.2 352,-59.2 195,-59.2"/>
<image xlink:href="../../images/foreignKeys.png" width="11px" height="12px" preserveAspectRatio="xMinYMin meet" x="200" y="-76.2"/>
<text text-anchor="start" x="215" y="-66.3" font-family="Helvetica,sans-Serif" font-size="11.00" fill="#000000">external_client_id</text>
<polygon fill="none" stroke="#000000" points="352,-59.2 352,-81.2 419,-81.2 419,-59.2 352,-59.2"/>
<text text-anchor="start" x="354.9365" y="-66.9" font-family="Helvetica,sans-Serif" font-size="11.00" fill="#000000">varchar[255]</text>
<polygon fill="#ffffff" stroke="transparent" points="195,-40.2 195,-59.2 265,-59.2 265,-40.2 195,-40.2"/>
<polygon fill="none" stroke="#000000" points="195,-40.2 195,-59.2 265,-59.2 265,-40.2 195,-40.2"/>
<text text-anchor="start" x="198" y="-46.3" font-family="Helvetica,sans-Serif" font-size="11.00" fill="#000000">&lt; 3</text>
<polygon fill="#ffffff" stroke="transparent" points="265,-40.2 265,-59.2 352,-59.2 352,-40.2 265,-40.2"/>
<polygon fill="none" stroke="#000000" points="265,-40.2 265,-59.2 352,-59.2 352,-40.2 265,-40.2"/>
<text text-anchor="start" x="316.6105" y="-46.3" font-family="Helvetica,sans-Serif" font-size="11.00" fill="#000000">0 rows</text>
<polygon fill="#ffffff" stroke="transparent" points="352,-40.2 352,-59.2 419,-59.2 419,-40.2 352,-40.2"/>
<polygon fill="none" stroke="#000000" points="352,-40.2 352,-59.2 419,-59.2 419,-40.2 352,-40.2"/>
<text text-anchor="start" x="400.4053" y="-46.3" font-family="Helvetica,sans-Serif" font-size="11.00" fill="#000000">0 &gt;</text>
<polygon fill="none" stroke="#000000" stroke-width="2" points="194,-39.2 194,-281.2 420,-281.2 420,-39.2 194,-39.2"/>
</a>
</g>
</g>
<!-- federated_user -->
<g id="node2" class="node">
<title>federated_user</title>
<g id="a_node2"><a xlink:href="../../tables/federated_user.html" xlink:title="federated_user" target="_top">
<polygon fill="#ffffff" stroke="transparent" points="8,-153.7 8,-236.7 144,-236.7 144,-153.7 8,-153.7"/>
<polygon fill="#f5f5f5" stroke="transparent" points="8,-213.2 8,-236.2 144,-236.2 144,-213.2 8,-213.2"/>
<polygon fill="none" stroke="#000000" points="8,-213.2 8,-236.2 144,-236.2 144,-213.2 8,-213.2"/>
<text text-anchor="start" x="13" y="-222.3" font-family="Helvetica,sans-Serif" font-weight="bold" font-size="11.00" fill="#000000">federated_user</text>
<text text-anchor="start" x="109.0437" y="-221.3" font-family="Helvetica,sans-Serif" font-size="11.00" fill="#000000">[table]</text>
<polygon fill="none" stroke="#000000" points="8,-191.2 8,-213.2 144,-213.2 144,-191.2 8,-191.2"/>
<image xlink:href="../../images/primaryKeys.png" width="11px" height="12px" preserveAspectRatio="xMinYMin meet" x="13" y="-208.2"/>
<text text-anchor="start" x="28" y="-198.3" font-family="Helvetica,sans-Serif" font-size="11.00" fill="#000000">id</text>
<polygon fill="none" stroke="#000000" points="8,-172.2 8,-191.2 144,-191.2 144,-172.2 8,-172.2"/>
<text text-anchor="start" x="11" y="-178.3" font-family="Helvetica,sans-Serif" font-size="11.00" fill="#000000">...</text>
<polygon fill="#ffffff" stroke="transparent" points="8,-153.2 8,-172.2 49,-172.2 49,-153.2 8,-153.2"/>
<polygon fill="none" stroke="#000000" points="8,-153.2 8,-172.2 49,-172.2 49,-153.2 8,-153.2"/>
<text text-anchor="start" x="11" y="-159.3" font-family="Helvetica,sans-Serif" font-size="11.00" fill="#000000"> &#160;</text>
<polygon fill="#ffffff" stroke="transparent" points="49,-153.2 49,-172.2 102,-172.2 102,-153.2 49,-153.2"/>
<polygon fill="none" stroke="#000000" points="49,-153.2 49,-172.2 102,-172.2 102,-153.2 49,-153.2"/>
<text text-anchor="start" x="66.6105" y="-159.3" font-family="Helvetica,sans-Serif" font-size="11.00" fill="#000000">0 rows</text>
<polygon fill="#ffffff" stroke="transparent" points="102,-153.2 102,-172.2 144,-172.2 144,-153.2 102,-153.2"/>
<polygon fill="none" stroke="#000000" points="102,-153.2 102,-172.2 144,-172.2 144,-153.2 102,-153.2"/>
<text text-anchor="start" x="119.2904" y="-159.3" font-family="Helvetica,sans-Serif" font-size="11.00" fill="#000000">30 &gt;</text>
</a>
</g>
</g>
<!-- fed_user_consent&#45;&gt;federated_user -->
<g id="edge1" class="edge">
<title>fed_user_consent:w&#45;&gt;federated_user:e</title>
<path fill="none" stroke="#000000" stroke-dasharray="5,2" d="M180.8489,-221.141C168.2843,-215.096 162.9,-202.2 144,-202.2"/>
<polygon fill="#000000" stroke="#000000" points="187.1806,-222.5097 194.2393,-227.7187 191.0903,-223.3548 195,-224.2 195,-224.2 195,-224.2 191.0903,-223.3548 195.7607,-220.6813 187.1806,-222.5097 187.1806,-222.5097"/>
<ellipse fill="none" stroke="#000000" cx="184.0528" cy="-221.8335" rx="3.2" ry="3.2"/>
</g>
<!-- fed_user_consent&#45;&gt;federated_user -->
<g id="edge2" class="edge">
<title>fed_user_consent:w&#45;&gt;federated_user:e</title>
<path fill="none" stroke="#000000" stroke-dasharray="5,2" d="M180.7146,-73.4629C144.9192,-93.7898 200.997,-202.2 144,-202.2"/>
<polygon fill="#000000" stroke="#000000" points="187.2009,-71.9815 195.8017,-73.7096 191.1004,-71.0907 195,-70.2 195,-70.2 195,-70.2 191.1004,-71.0907 194.1983,-66.6904 187.2009,-71.9815 187.2009,-71.9815"/>
<ellipse fill="none" stroke="#000000" cx="184.0812" cy="-72.694" rx="3.2" ry="3.2"/>
</g>
<!-- fed_user_consent&#45;&gt;federated_user -->
<g id="edge3" class="edge">
<title>fed_user_consent:w&#45;&gt;federated_user:e</title>
<path fill="none" stroke="#000000" stroke-dasharray="5,2" d="M180.276,-202.2C168.2815,-202.2 160.8229,-202.2 144,-202.2"/>
<polygon fill="#000000" stroke="#000000" points="187,-202.2001 195,-205.8 191,-202.2 195,-202.2 195,-202.2 195,-202.2 191,-202.2 195,-198.6 187,-202.2001 187,-202.2001"/>
<ellipse fill="none" stroke="#000000" cx="183.8" cy="-202.2001" rx="3.2" ry="3.2"/>
</g>
</g>
</svg>
