<?xml version="1.0" encoding="UTF-8" standalone="no"?>
<!DOCTYPE svg PUBLIC "-//W3C//DTD SVG 1.1//EN"
 "http://www.w3.org/Graphics/SVG/1.1/DTD/svg11.dtd">
<!-- Generated by graphviz version 2.40.1 (20161225.0304)
 -->
<!-- Title: oneDegreeRelationshipsDiagramImplied Pages: 1 -->
<svg width="422pt" height="228pt"
 viewBox="0.00 0.00 422.00 228.20" xmlns="http://www.w3.org/2000/svg" xmlns:xlink="http://www.w3.org/1999/xlink">
<g id="graph0" class="graph" transform="scale(1 1) rotate(0) translate(4 224.2)">
<title>oneDegreeRelationshipsDiagramImplied</title>
<polygon fill="#ffffff" stroke="transparent" points="-4,4 -4,-224.2 418,-224.2 418,4 -4,4"/>
<text text-anchor="middle" x="72.4936" y="-7.3" font-family="Helvetica,sans-Serif" font-size="11.00" fill="#000000">Generated by SchemaSpy</text>
<!-- fed_user_attribute -->
<g id="node1" class="node">
<title>fed_user_attribute</title>
<g id="a_node1"><a xlink:href="../../tables/fed_user_attribute.html" xlink:title="fed_user_attribute" target="_top">
<polygon fill="#ffffff" stroke="transparent" points="193,-38.2 193,-216.2 406,-216.2 406,-38.2 193,-38.2"/>
<polygon fill="#f5f5f5" stroke="transparent" points="195.5,-191.2 195.5,-214.2 404.5,-214.2 404.5,-191.2 195.5,-191.2"/>
<polygon fill="none" stroke="#000000" points="195.5,-191.2 195.5,-214.2 404.5,-214.2 404.5,-191.2 195.5,-191.2"/>
<text text-anchor="start" x="200.5" y="-200.3" font-family="Helvetica,sans-Serif" font-weight="bold" font-size="11.00" fill="#000000">fed_user_attribute</text>
<text text-anchor="start" x="369.5437" y="-199.3" font-family="Helvetica,sans-Serif" font-size="11.00" fill="#000000">[table]</text>
<polygon fill="none" stroke="#000000" points="195.5,-169.2 195.5,-191.2 331.5,-191.2 331.5,-169.2 195.5,-169.2"/>
<image xlink:href="../../images/primaryKeys.png" width="11px" height="12px" preserveAspectRatio="xMinYMin meet" x="200.5" y="-186.2"/>
<text text-anchor="start" x="215.5" y="-176.3" font-family="Helvetica,sans-Serif" font-size="11.00" fill="#000000">id</text>
<polygon fill="none" stroke="#000000" points="331.5,-169.2 331.5,-191.2 404.5,-191.2 404.5,-169.2 331.5,-169.2"/>
<text text-anchor="start" x="334.5" y="-176.9" font-family="Helvetica,sans-Serif" font-size="11.00" fill="#000000">varchar[36]</text>
<polygon fill="#ffffff" stroke="transparent" points="195.5,-147.2 195.5,-169.2 331.5,-169.2 331.5,-147.2 195.5,-147.2"/>
<polygon fill="none" stroke="#000000" points="195.5,-147.2 195.5,-169.2 331.5,-169.2 331.5,-147.2 195.5,-147.2"/>
<text text-anchor="start" x="215.5" y="-154.3" font-family="Helvetica,sans-Serif" font-size="11.00" fill="#000000">name</text>
<polygon fill="none" stroke="#000000" points="331.5,-147.2 331.5,-169.2 404.5,-169.2 404.5,-147.2 331.5,-147.2"/>
<text text-anchor="start" x="334.5" y="-154.9" font-family="Helvetica,sans-Serif" font-size="11.00" fill="#000000">varchar[255]</text>
<polygon fill="#ffffff" stroke="transparent" points="195.5,-125.2 195.5,-147.2 331.5,-147.2 331.5,-125.2 195.5,-125.2"/>
<polygon fill="none" stroke="#000000" points="195.5,-125.2 195.5,-147.2 331.5,-147.2 331.5,-125.2 195.5,-125.2"/>
<image xlink:href="../../images/foreignKeys.png" width="11px" height="12px" preserveAspectRatio="xMinYMin meet" x="200.5" y="-142.2"/>
<text text-anchor="start" x="215.5" y="-132.3" font-family="Helvetica,sans-Serif" font-size="11.00" fill="#000000">user_id</text>
<polygon fill="none" stroke="#000000" points="331.5,-125.2 331.5,-147.2 404.5,-147.2 404.5,-125.2 331.5,-125.2"/>
<text text-anchor="start" x="334.5" y="-132.9" font-family="Helvetica,sans-Serif" font-size="11.00" fill="#000000">varchar[255]</text>
<polygon fill="#ffffff" stroke="transparent" points="195.5,-103.2 195.5,-125.2 331.5,-125.2 331.5,-103.2 195.5,-103.2"/>
<polygon fill="none" stroke="#000000" points="195.5,-103.2 195.5,-125.2 331.5,-125.2 331.5,-103.2 195.5,-103.2"/>
<text text-anchor="start" x="215.5" y="-110.3" font-family="Helvetica,sans-Serif" font-size="11.00" fill="#000000">realm_id</text>
<polygon fill="none" stroke="#000000" points="331.5,-103.2 331.5,-125.2 404.5,-125.2 404.5,-103.2 331.5,-103.2"/>
<text text-anchor="start" x="334.5" y="-110.9" font-family="Helvetica,sans-Serif" font-size="11.00" fill="#000000">varchar[36]</text>
<polygon fill="none" stroke="#000000" points="195.5,-81.2 195.5,-103.2 331.5,-103.2 331.5,-81.2 195.5,-81.2"/>
<text text-anchor="start" x="215.5" y="-88.3" font-family="Helvetica,sans-Serif" font-size="11.00" fill="#000000">storage_provider_id</text>
<polygon fill="none" stroke="#000000" points="331.5,-81.2 331.5,-103.2 404.5,-103.2 404.5,-81.2 331.5,-81.2"/>
<text text-anchor="start" x="334.5" y="-88.9" font-family="Helvetica,sans-Serif" font-size="11.00" fill="#000000">varchar[36]</text>
<polygon fill="none" stroke="#000000" points="195.5,-59.2 195.5,-81.2 331.5,-81.2 331.5,-59.2 195.5,-59.2"/>
<text text-anchor="start" x="215.5" y="-66.3" font-family="Helvetica,sans-Serif" font-size="11.00" fill="#000000">value</text>
<polygon fill="none" stroke="#000000" points="331.5,-59.2 331.5,-81.2 404.5,-81.2 404.5,-59.2 331.5,-59.2"/>
<text text-anchor="start" x="334.3791" y="-66.9" font-family="Helvetica,sans-Serif" font-size="11.00" fill="#000000">varchar[2024]</text>
<polygon fill="#ffffff" stroke="transparent" points="195.5,-40.2 195.5,-59.2 254.5,-59.2 254.5,-40.2 195.5,-40.2"/>
<polygon fill="none" stroke="#000000" points="195.5,-40.2 195.5,-59.2 254.5,-59.2 254.5,-40.2 195.5,-40.2"/>
<text text-anchor="start" x="198.5" y="-46.3" font-family="Helvetica,sans-Serif" font-size="11.00" fill="#000000">&lt; 1</text>
<polygon fill="#ffffff" stroke="transparent" points="254.5,-40.2 254.5,-59.2 331.5,-59.2 331.5,-40.2 254.5,-40.2"/>
<polygon fill="none" stroke="#000000" points="254.5,-40.2 254.5,-59.2 331.5,-59.2 331.5,-40.2 254.5,-40.2"/>
<text text-anchor="start" x="296.1105" y="-46.3" font-family="Helvetica,sans-Serif" font-size="11.00" fill="#000000">0 rows</text>
<polygon fill="#ffffff" stroke="transparent" points="331.5,-40.2 331.5,-59.2 404.5,-59.2 404.5,-40.2 331.5,-40.2"/>
<polygon fill="none" stroke="#000000" points="331.5,-40.2 331.5,-59.2 404.5,-59.2 404.5,-40.2 331.5,-40.2"/>
<text text-anchor="start" x="385.9053" y="-46.3" font-family="Helvetica,sans-Serif" font-size="11.00" fill="#000000">0 &gt;</text>
<polygon fill="none" stroke="#000000" stroke-width="2" points="194,-39.2 194,-215.2 405,-215.2 405,-39.2 194,-39.2"/>
</a>
</g>
</g>
<!-- federated_user -->
<g id="node2" class="node">
<title>federated_user</title>
<g id="a_node2"><a xlink:href="../../tables/federated_user.html" xlink:title="federated_user" target="_top">
<polygon fill="#ffffff" stroke="transparent" points="8,-87.7 8,-170.7 144,-170.7 144,-87.7 8,-87.7"/>
<polygon fill="#f5f5f5" stroke="transparent" points="8,-147.2 8,-170.2 144,-170.2 144,-147.2 8,-147.2"/>
<polygon fill="none" stroke="#000000" points="8,-147.2 8,-170.2 144,-170.2 144,-147.2 8,-147.2"/>
<text text-anchor="start" x="13" y="-156.3" font-family="Helvetica,sans-Serif" font-weight="bold" font-size="11.00" fill="#000000">federated_user</text>
<text text-anchor="start" x="109.0437" y="-155.3" font-family="Helvetica,sans-Serif" font-size="11.00" fill="#000000">[table]</text>
<polygon fill="none" stroke="#000000" points="8,-125.2 8,-147.2 144,-147.2 144,-125.2 8,-125.2"/>
<image xlink:href="../../images/primaryKeys.png" width="11px" height="12px" preserveAspectRatio="xMinYMin meet" x="13" y="-142.2"/>
<text text-anchor="start" x="28" y="-132.3" font-family="Helvetica,sans-Serif" font-size="11.00" fill="#000000">id</text>
<polygon fill="none" stroke="#000000" points="8,-106.2 8,-125.2 144,-125.2 144,-106.2 8,-106.2"/>
<text text-anchor="start" x="11" y="-112.3" font-family="Helvetica,sans-Serif" font-size="11.00" fill="#000000">...</text>
<polygon fill="#ffffff" stroke="transparent" points="8,-87.2 8,-106.2 49,-106.2 49,-87.2 8,-87.2"/>
<polygon fill="none" stroke="#000000" points="8,-87.2 8,-106.2 49,-106.2 49,-87.2 8,-87.2"/>
<text text-anchor="start" x="11" y="-93.3" font-family="Helvetica,sans-Serif" font-size="11.00" fill="#000000"> &#160;</text>
<polygon fill="#ffffff" stroke="transparent" points="49,-87.2 49,-106.2 102,-106.2 102,-87.2 49,-87.2"/>
<polygon fill="none" stroke="#000000" points="49,-87.2 49,-106.2 102,-106.2 102,-87.2 49,-87.2"/>
<text text-anchor="start" x="66.6105" y="-93.3" font-family="Helvetica,sans-Serif" font-size="11.00" fill="#000000">0 rows</text>
<polygon fill="#ffffff" stroke="transparent" points="102,-87.2 102,-106.2 144,-106.2 144,-87.2 102,-87.2"/>
<polygon fill="none" stroke="#000000" points="102,-87.2 102,-106.2 144,-106.2 144,-87.2 102,-87.2"/>
<text text-anchor="start" x="119.2904" y="-93.3" font-family="Helvetica,sans-Serif" font-size="11.00" fill="#000000">30 &gt;</text>
</a>
</g>
</g>
<!-- fed_user_attribute&#45;&gt;federated_user -->
<g id="edge1" class="edge">
<title>fed_user_attribute:w&#45;&gt;federated_user:e</title>
<path fill="none" stroke="#000000" stroke-dasharray="5,2" d="M181.0156,-136.2C168.6771,-136.2 161.1667,-136.2 144,-136.2"/>
<polygon fill="#000000" stroke="#000000" points="187.5,-136.2001 195.5,-139.8 191.5,-136.2 195.5,-136.2 195.5,-136.2 195.5,-136.2 191.5,-136.2 195.5,-132.6 187.5,-136.2001 187.5,-136.2001"/>
<ellipse fill="none" stroke="#000000" cx="184.3" cy="-136.2001" rx="3.2" ry="3.2"/>
</g>
</g>
</svg>
