<?xml version="1.0" encoding="UTF-8" standalone="no"?>
<!DOCTYPE svg PUBLIC "-//W3C//DTD SVG 1.1//EN"
 "http://www.w3.org/Graphics/SVG/1.1/DTD/svg11.dtd">
<!-- Generated by graphviz version 2.40.1 (20161225.0304)
 -->
<!-- Title: oneDegreeRelationshipsDiagram Pages: 1 -->
<svg width="252pt" height="294pt"
 viewBox="0.00 0.00 252.00 294.20" xmlns="http://www.w3.org/2000/svg" xmlns:xlink="http://www.w3.org/1999/xlink">
<g id="graph0" class="graph" transform="scale(1 1) rotate(0) translate(4 290.2)">
<title>oneDegreeRelationshipsDiagram</title>
<polygon fill="#ffffff" stroke="transparent" points="-4,4 -4,-290.2 248,-290.2 248,4 -4,4"/>
<text text-anchor="middle" x="72.4936" y="-7.3" font-family="Helvetica,sans-Serif" font-size="11.00" fill="#000000">Generated by SchemaSpy</text>
<!-- fed_user_consent -->
<g id="node1" class="node">
<title>fed_user_consent</title>
<g id="a_node1"><a xlink:href="../../tables/fed_user_consent.html" xlink:title="fed_user_consent" target="_top">
<polygon fill="#ffffff" stroke="transparent" points="8,-38.2 8,-282.2 236,-282.2 236,-38.2 8,-38.2"/>
<polygon fill="#f5f5f5" stroke="transparent" points="10,-257.2 10,-280.2 234,-280.2 234,-257.2 10,-257.2"/>
<polygon fill="none" stroke="#000000" points="10,-257.2 10,-280.2 234,-280.2 234,-257.2 10,-257.2"/>
<text text-anchor="start" x="15" y="-266.3" font-family="Helvetica,sans-Serif" font-weight="bold" font-size="11.00" fill="#000000">fed_user_consent</text>
<text text-anchor="start" x="199.0437" y="-265.3" font-family="Helvetica,sans-Serif" font-size="11.00" fill="#000000">[table]</text>
<polygon fill="none" stroke="#000000" points="10,-235.2 10,-257.2 167,-257.2 167,-235.2 10,-235.2"/>
<image xlink:href="../../images/primaryKeys.png" width="11px" height="12px" preserveAspectRatio="xMinYMin meet" x="15" y="-252.2"/>
<text text-anchor="start" x="30" y="-242.3" font-family="Helvetica,sans-Serif" font-size="11.00" fill="#000000">id</text>
<polygon fill="none" stroke="#000000" points="167,-235.2 167,-257.2 234,-257.2 234,-235.2 167,-235.2"/>
<text text-anchor="start" x="170" y="-242.9" font-family="Helvetica,sans-Serif" font-size="11.00" fill="#000000">varchar[36]</text>
<polygon fill="#ffffff" stroke="transparent" points="10,-213.2 10,-235.2 167,-235.2 167,-213.2 10,-213.2"/>
<polygon fill="none" stroke="#000000" points="10,-213.2 10,-235.2 167,-235.2 167,-213.2 10,-213.2"/>
<image xlink:href="../../images/foreignKeys.png" width="11px" height="12px" preserveAspectRatio="xMinYMin meet" x="15" y="-230.2"/>
<text text-anchor="start" x="30" y="-220.3" font-family="Helvetica,sans-Serif" font-size="11.00" fill="#000000">client_id</text>
<polygon fill="none" stroke="#000000" points="167,-213.2 167,-235.2 234,-235.2 234,-213.2 167,-213.2"/>
<text text-anchor="start" x="169.9365" y="-220.9" font-family="Helvetica,sans-Serif" font-size="11.00" fill="#000000">varchar[255]</text>
<polygon fill="#ffffff" stroke="transparent" points="10,-191.2 10,-213.2 167,-213.2 167,-191.2 10,-191.2"/>
<polygon fill="none" stroke="#000000" points="10,-191.2 10,-213.2 167,-213.2 167,-191.2 10,-191.2"/>
<image xlink:href="../../images/foreignKeys.png" width="11px" height="12px" preserveAspectRatio="xMinYMin meet" x="15" y="-208.2"/>
<text text-anchor="start" x="30" y="-198.3" font-family="Helvetica,sans-Serif" font-size="11.00" fill="#000000">user_id</text>
<polygon fill="none" stroke="#000000" points="167,-191.2 167,-213.2 234,-213.2 234,-191.2 167,-191.2"/>
<text text-anchor="start" x="169.9365" y="-198.9" font-family="Helvetica,sans-Serif" font-size="11.00" fill="#000000">varchar[255]</text>
<polygon fill="#ffffff" stroke="transparent" points="10,-169.2 10,-191.2 167,-191.2 167,-169.2 10,-169.2"/>
<polygon fill="none" stroke="#000000" points="10,-169.2 10,-191.2 167,-191.2 167,-169.2 10,-169.2"/>
<text text-anchor="start" x="30" y="-176.3" font-family="Helvetica,sans-Serif" font-size="11.00" fill="#000000">realm_id</text>
<polygon fill="none" stroke="#000000" points="167,-169.2 167,-191.2 234,-191.2 234,-169.2 167,-169.2"/>
<text text-anchor="start" x="170" y="-176.9" font-family="Helvetica,sans-Serif" font-size="11.00" fill="#000000">varchar[36]</text>
<polygon fill="none" stroke="#000000" points="10,-147.2 10,-169.2 167,-169.2 167,-147.2 10,-147.2"/>
<text text-anchor="start" x="30" y="-154.3" font-family="Helvetica,sans-Serif" font-size="11.00" fill="#000000">storage_provider_id</text>
<polygon fill="none" stroke="#000000" points="167,-147.2 167,-169.2 234,-169.2 234,-147.2 167,-147.2"/>
<text text-anchor="start" x="170" y="-154.9" font-family="Helvetica,sans-Serif" font-size="11.00" fill="#000000">varchar[36]</text>
<polygon fill="none" stroke="#000000" points="10,-125.2 10,-147.2 167,-147.2 167,-125.2 10,-125.2"/>
<text text-anchor="start" x="30" y="-132.3" font-family="Helvetica,sans-Serif" font-size="11.00" fill="#000000">created_date</text>
<polygon fill="none" stroke="#000000" points="167,-125.2 167,-147.2 234,-147.2 234,-125.2 167,-125.2"/>
<text text-anchor="start" x="170" y="-132.9" font-family="Helvetica,sans-Serif" font-size="11.00" fill="#000000">int8[19]</text>
<polygon fill="none" stroke="#000000" points="10,-103.2 10,-125.2 167,-125.2 167,-103.2 10,-103.2"/>
<text text-anchor="start" x="30" y="-110.3" font-family="Helvetica,sans-Serif" font-size="11.00" fill="#000000">last_updated_date</text>
<polygon fill="none" stroke="#000000" points="167,-103.2 167,-125.2 234,-125.2 234,-103.2 167,-103.2"/>
<text text-anchor="start" x="170" y="-110.9" font-family="Helvetica,sans-Serif" font-size="11.00" fill="#000000">int8[19]</text>
<polygon fill="#ffffff" stroke="transparent" points="10,-81.2 10,-103.2 167,-103.2 167,-81.2 10,-81.2"/>
<polygon fill="none" stroke="#000000" points="10,-81.2 10,-103.2 167,-103.2 167,-81.2 10,-81.2"/>
<text text-anchor="start" x="30" y="-88.3" font-family="Helvetica,sans-Serif" font-size="11.00" fill="#000000">client_storage_provider</text>
<polygon fill="none" stroke="#000000" points="167,-81.2 167,-103.2 234,-103.2 234,-81.2 167,-81.2"/>
<text text-anchor="start" x="170" y="-88.9" font-family="Helvetica,sans-Serif" font-size="11.00" fill="#000000">varchar[36]</text>
<polygon fill="#ffffff" stroke="transparent" points="10,-59.2 10,-81.2 167,-81.2 167,-59.2 10,-59.2"/>
<polygon fill="none" stroke="#000000" points="10,-59.2 10,-81.2 167,-81.2 167,-59.2 10,-59.2"/>
<image xlink:href="../../images/foreignKeys.png" width="11px" height="12px" preserveAspectRatio="xMinYMin meet" x="15" y="-76.2"/>
<text text-anchor="start" x="30" y="-66.3" font-family="Helvetica,sans-Serif" font-size="11.00" fill="#000000">external_client_id</text>
<polygon fill="none" stroke="#000000" points="167,-59.2 167,-81.2 234,-81.2 234,-59.2 167,-59.2"/>
<text text-anchor="start" x="169.9365" y="-66.9" font-family="Helvetica,sans-Serif" font-size="11.00" fill="#000000">varchar[255]</text>
<polygon fill="#ffffff" stroke="transparent" points="10,-40.2 10,-59.2 80,-59.2 80,-40.2 10,-40.2"/>
<polygon fill="none" stroke="#000000" points="10,-40.2 10,-59.2 80,-59.2 80,-40.2 10,-40.2"/>
<text text-anchor="start" x="13" y="-46.3" font-family="Helvetica,sans-Serif" font-size="11.00" fill="#000000">&lt; 0</text>
<polygon fill="#ffffff" stroke="transparent" points="80,-40.2 80,-59.2 167,-59.2 167,-40.2 80,-40.2"/>
<polygon fill="none" stroke="#000000" points="80,-40.2 80,-59.2 167,-59.2 167,-40.2 80,-40.2"/>
<text text-anchor="start" x="131.6105" y="-46.3" font-family="Helvetica,sans-Serif" font-size="11.00" fill="#000000">0 rows</text>
<polygon fill="#ffffff" stroke="transparent" points="167,-40.2 167,-59.2 234,-59.2 234,-40.2 167,-40.2"/>
<polygon fill="none" stroke="#000000" points="167,-40.2 167,-59.2 234,-59.2 234,-40.2 167,-40.2"/>
<text text-anchor="start" x="215.4053" y="-46.3" font-family="Helvetica,sans-Serif" font-size="11.00" fill="#000000">0 &gt;</text>
<polygon fill="none" stroke="#000000" stroke-width="2" points="9,-39.2 9,-281.2 235,-281.2 235,-39.2 9,-39.2"/>
</a>
</g>
</g>
</g>
</svg>
