<?xml version="1.0" encoding="UTF-8" standalone="no"?>
<!DOCTYPE svg PUBLIC "-//W3C//DTD SVG 1.1//EN"
 "http://www.w3.org/Graphics/SVG/1.1/DTD/svg11.dtd">
<!-- Generated by graphviz version 2.40.1 (20161225.0304)
 -->
<!-- Title: twoDegreesRelationshipsDiagram Pages: 1 -->
<svg width="485pt" height="721pt"
 viewBox="0.00 0.00 485.00 721.20" xmlns="http://www.w3.org/2000/svg" xmlns:xlink="http://www.w3.org/1999/xlink">
<g id="graph0" class="graph" transform="scale(1 1) rotate(0) translate(4 717.2)">
<title>twoDegreesRelationshipsDiagram</title>
<polygon fill="#ffffff" stroke="transparent" points="-4,4 -4,-717.2 481,-717.2 481,4 -4,4"/>
<text text-anchor="middle" x="72.4936" y="-7.3" font-family="Helvetica,sans-Serif" font-size="11.00" fill="#000000">Generated by SchemaSpy</text>
<!-- credential -->
<g id="node1" class="node">
<title>credential</title>
<g id="a_node1"><a xlink:href="../../tables/credential.html" xlink:title="credential" target="_top">
<polygon fill="#ffffff" stroke="transparent" points="308,-648.2 308,-709.2 398,-709.2 398,-648.2 308,-648.2"/>
<polygon fill="#f5f5f5" stroke="transparent" points="308,-685.7 308,-708.7 398,-708.7 398,-685.7 308,-685.7"/>
<polygon fill="none" stroke="#000000" points="308,-685.7 308,-708.7 398,-708.7 398,-685.7 308,-685.7"/>
<text text-anchor="start" x="312.6625" y="-694.8" font-family="Helvetica,sans-Serif" font-weight="bold" font-size="11.00" fill="#000000">credential</text>
<text text-anchor="start" x="363.5219" y="-693.8" font-family="Helvetica,sans-Serif" font-size="11.00" fill="#000000">[table]</text>
<polygon fill="none" stroke="#000000" points="308,-666.7 308,-685.7 398,-685.7 398,-666.7 308,-666.7"/>
<text text-anchor="start" x="311" y="-672.8" font-family="Helvetica,sans-Serif" font-size="11.00" fill="#000000">...</text>
<polygon fill="#ffffff" stroke="transparent" points="308,-647.7 308,-666.7 341,-666.7 341,-647.7 308,-647.7"/>
<polygon fill="none" stroke="#000000" points="308,-647.7 308,-666.7 341,-666.7 341,-647.7 308,-647.7"/>
<text text-anchor="start" x="311" y="-653.8" font-family="Helvetica,sans-Serif" font-size="11.00" fill="#000000">&lt; 1</text>
<polygon fill="#ffffff" stroke="transparent" points="341,-647.7 341,-666.7 379,-666.7 379,-647.7 341,-647.7"/>
<polygon fill="none" stroke="#000000" points="341,-647.7 341,-666.7 379,-666.7 379,-647.7 341,-647.7"/>
<text text-anchor="start" x="349.1105" y="-653.8" font-family="Helvetica,sans-Serif" font-size="11.00" fill="#000000">1 row</text>
<polygon fill="#ffffff" stroke="transparent" points="379,-647.7 379,-666.7 398,-666.7 398,-647.7 379,-647.7"/>
<polygon fill="none" stroke="#000000" points="379,-647.7 379,-666.7 398,-666.7 398,-647.7 379,-647.7"/>
<text text-anchor="start" x="388.8862" y="-653.8" font-family="Helvetica,sans-Serif" font-size="11.00" fill="#000000"> &#160;</text>
</a>
</g>
</g>
<!-- user_entity -->
<g id="node2" class="node">
<title>user_entity</title>
<g id="a_node2"><a xlink:href="../../tables/user_entity.html" xlink:title="user_entity" target="_top">
<polygon fill="#ffffff" stroke="transparent" points="8,-175.2 8,-346.2 188,-346.2 188,-175.2 8,-175.2"/>
<polygon fill="#f5f5f5" stroke="transparent" points="8,-322.7 8,-345.7 188,-345.7 188,-322.7 8,-322.7"/>
<polygon fill="none" stroke="#000000" points="8,-322.7 8,-345.7 188,-345.7 188,-322.7 8,-322.7"/>
<text text-anchor="start" x="13" y="-331.8" font-family="Helvetica,sans-Serif" font-weight="bold" font-size="11.00" fill="#000000">user_entity</text>
<text text-anchor="start" x="153.0437" y="-330.8" font-family="Helvetica,sans-Serif" font-size="11.00" fill="#000000">[table]</text>
<polygon fill="none" stroke="#000000" points="8,-300.7 8,-322.7 188,-322.7 188,-300.7 8,-300.7"/>
<image xlink:href="../../images/primaryKeys.png" width="11px" height="12px" preserveAspectRatio="xMinYMin meet" x="13" y="-317.7"/>
<text text-anchor="start" x="28" y="-307.8" font-family="Helvetica,sans-Serif" font-size="11.00" fill="#000000">id</text>
<polygon fill="#ffffff" stroke="transparent" points="8,-278.7 8,-300.7 188,-300.7 188,-278.7 8,-278.7"/>
<polygon fill="none" stroke="#000000" points="8,-278.7 8,-300.7 188,-300.7 188,-278.7 8,-278.7"/>
<text text-anchor="start" x="28" y="-285.8" font-family="Helvetica,sans-Serif" font-size="11.00" fill="#000000">email</text>
<polygon fill="#ffffff" stroke="transparent" points="8,-256.7 8,-278.7 188,-278.7 188,-256.7 8,-256.7"/>
<polygon fill="none" stroke="#000000" points="8,-256.7 8,-278.7 188,-278.7 188,-256.7 8,-256.7"/>
<text text-anchor="start" x="28" y="-263.8" font-family="Helvetica,sans-Serif" font-size="11.00" fill="#000000">email_constraint</text>
<polygon fill="#ffffff" stroke="transparent" points="8,-234.7 8,-256.7 188,-256.7 188,-234.7 8,-234.7"/>
<polygon fill="none" stroke="#000000" points="8,-234.7 8,-256.7 188,-256.7 188,-234.7 8,-234.7"/>
<image xlink:href="../../images/foreignKeys.png" width="11px" height="12px" preserveAspectRatio="xMinYMin meet" x="13" y="-251.7"/>
<text text-anchor="start" x="28" y="-241.8" font-family="Helvetica,sans-Serif" font-size="11.00" fill="#000000">realm_id</text>
<polygon fill="#ffffff" stroke="transparent" points="8,-212.7 8,-234.7 188,-234.7 188,-212.7 8,-212.7"/>
<polygon fill="none" stroke="#000000" points="8,-212.7 8,-234.7 188,-234.7 188,-212.7 8,-212.7"/>
<text text-anchor="start" x="28" y="-219.8" font-family="Helvetica,sans-Serif" font-size="11.00" fill="#000000">username</text>
<polygon fill="none" stroke="#000000" points="8,-193.7 8,-212.7 188,-212.7 188,-193.7 8,-193.7"/>
<text text-anchor="start" x="11" y="-199.8" font-family="Helvetica,sans-Serif" font-size="11.00" fill="#000000">...</text>
<polygon fill="#ffffff" stroke="transparent" points="8,-174.7 8,-193.7 77,-193.7 77,-174.7 8,-174.7"/>
<polygon fill="none" stroke="#000000" points="8,-174.7 8,-193.7 77,-193.7 77,-174.7 8,-174.7"/>
<text text-anchor="start" x="11" y="-180.8" font-family="Helvetica,sans-Serif" font-size="11.00" fill="#000000"> &#160;</text>
<polygon fill="#ffffff" stroke="transparent" points="77,-174.7 77,-193.7 138,-193.7 138,-174.7 77,-174.7"/>
<polygon fill="none" stroke="#000000" points="77,-174.7 77,-193.7 138,-193.7 138,-174.7 77,-174.7"/>
<text text-anchor="start" x="108.1105" y="-180.8" font-family="Helvetica,sans-Serif" font-size="11.00" fill="#000000">1 row</text>
<polygon fill="#ffffff" stroke="transparent" points="138,-174.7 138,-193.7 188,-193.7 188,-174.7 138,-174.7"/>
<polygon fill="none" stroke="#000000" points="138,-174.7 138,-193.7 188,-193.7 188,-174.7 138,-174.7"/>
<text text-anchor="start" x="169.4053" y="-180.8" font-family="Helvetica,sans-Serif" font-size="11.00" fill="#000000">7 &gt;</text>
</a>
</g>
</g>
<!-- credential&#45;&gt;user_entity -->
<g id="edge1" class="edge">
<title>credential:w&#45;&gt;user_entity:e</title>
<path fill="none" stroke="#000000" d="M293.5599,-675.3184C264.3515,-673.5611 248.7354,-665.1242 229,-637.7 186.3512,-578.4354 261.0151,-311.7 188,-311.7"/>
<polygon fill="#000000" stroke="#000000" points="300.0028,-675.4886 307.9049,-679.2987 304.0014,-675.5943 308,-675.7 308,-675.7 308,-675.7 304.0014,-675.5943 308.0951,-672.1013 300.0028,-675.4886 300.0028,-675.4886"/>
<ellipse fill="none" stroke="#000000" cx="296.8039" cy="-675.4041" rx="3.2" ry="3.2"/>
</g>
<!-- federated_identity -->
<g id="node3" class="node">
<title>federated_identity</title>
<g id="a_node3"><a xlink:href="../../tables/federated_identity.html" xlink:title="federated_identity" target="_top">
<polygon fill="#ffffff" stroke="transparent" points="237,-448.7 237,-626.7 469,-626.7 469,-448.7 237,-448.7"/>
<polygon fill="#f5f5f5" stroke="transparent" points="239,-601.7 239,-624.7 467,-624.7 467,-601.7 239,-601.7"/>
<polygon fill="none" stroke="#000000" points="239,-601.7 239,-624.7 467,-624.7 467,-601.7 239,-601.7"/>
<text text-anchor="start" x="244" y="-610.8" font-family="Helvetica,sans-Serif" font-weight="bold" font-size="11.00" fill="#000000">federated_identity</text>
<text text-anchor="start" x="432.0437" y="-609.8" font-family="Helvetica,sans-Serif" font-size="11.00" fill="#000000">[table]</text>
<polygon fill="none" stroke="#000000" points="239,-579.7 239,-601.7 377,-601.7 377,-579.7 239,-579.7"/>
<image xlink:href="../../images/primaryKeys.png" width="11px" height="12px" preserveAspectRatio="xMinYMin meet" x="244" y="-596.7"/>
<text text-anchor="start" x="259" y="-586.8" font-family="Helvetica,sans-Serif" font-size="11.00" fill="#000000">identity_provider</text>
<polygon fill="none" stroke="#000000" points="377,-579.7 377,-601.7 467,-601.7 467,-579.7 377,-579.7"/>
<text text-anchor="start" x="380" y="-587.4" font-family="Helvetica,sans-Serif" font-size="11.00" fill="#000000">varchar[255]</text>
<polygon fill="none" stroke="#000000" points="239,-557.7 239,-579.7 377,-579.7 377,-557.7 239,-557.7"/>
<text text-anchor="start" x="259" y="-564.8" font-family="Helvetica,sans-Serif" font-size="11.00" fill="#000000">realm_id</text>
<polygon fill="none" stroke="#000000" points="377,-557.7 377,-579.7 467,-579.7 467,-557.7 377,-557.7"/>
<text text-anchor="start" x="380" y="-565.4" font-family="Helvetica,sans-Serif" font-size="11.00" fill="#000000">varchar[36]</text>
<polygon fill="#ffffff" stroke="transparent" points="239,-535.7 239,-557.7 377,-557.7 377,-535.7 239,-535.7"/>
<polygon fill="none" stroke="#000000" points="239,-535.7 239,-557.7 377,-557.7 377,-535.7 239,-535.7"/>
<image xlink:href="../../images/foreignKeys.png" width="11px" height="12px" preserveAspectRatio="xMinYMin meet" x="244" y="-552.7"/>
<text text-anchor="start" x="259" y="-542.8" font-family="Helvetica,sans-Serif" font-size="11.00" fill="#000000">federated_user_id</text>
<polygon fill="none" stroke="#000000" points="377,-535.7 377,-557.7 467,-557.7 467,-535.7 377,-535.7"/>
<text text-anchor="start" x="380" y="-543.4" font-family="Helvetica,sans-Serif" font-size="11.00" fill="#000000">varchar[255]</text>
<polygon fill="none" stroke="#000000" points="239,-513.7 239,-535.7 377,-535.7 377,-513.7 239,-513.7"/>
<text text-anchor="start" x="259" y="-520.8" font-family="Helvetica,sans-Serif" font-size="11.00" fill="#000000">federated_username</text>
<polygon fill="none" stroke="#000000" points="377,-513.7 377,-535.7 467,-535.7 467,-513.7 377,-513.7"/>
<text text-anchor="start" x="380" y="-521.4" font-family="Helvetica,sans-Serif" font-size="11.00" fill="#000000">varchar[255]</text>
<polygon fill="none" stroke="#000000" points="239,-491.7 239,-513.7 377,-513.7 377,-491.7 239,-491.7"/>
<text text-anchor="start" x="259" y="-498.8" font-family="Helvetica,sans-Serif" font-size="11.00" fill="#000000">token</text>
<polygon fill="none" stroke="#000000" points="377,-491.7 377,-513.7 467,-513.7 467,-491.7 377,-491.7"/>
<text text-anchor="start" x="379.5043" y="-499.4" font-family="Helvetica,sans-Serif" font-size="11.00" fill="#000000">text[2147483647]</text>
<polygon fill="none" stroke="#000000" points="239,-469.7 239,-491.7 377,-491.7 377,-469.7 239,-469.7"/>
<image xlink:href="../../images/primaryKeys.png" width="11px" height="12px" preserveAspectRatio="xMinYMin meet" x="244" y="-486.7"/>
<text text-anchor="start" x="259" y="-476.8" font-family="Helvetica,sans-Serif" font-size="11.00" fill="#000000">user_id</text>
<polygon fill="none" stroke="#000000" points="377,-469.7 377,-491.7 467,-491.7 467,-469.7 377,-469.7"/>
<text text-anchor="start" x="380" y="-477.4" font-family="Helvetica,sans-Serif" font-size="11.00" fill="#000000">varchar[36]</text>
<polygon fill="#ffffff" stroke="transparent" points="239,-450.7 239,-469.7 299,-469.7 299,-450.7 239,-450.7"/>
<polygon fill="none" stroke="#000000" points="239,-450.7 239,-469.7 299,-469.7 299,-450.7 239,-450.7"/>
<text text-anchor="start" x="242" y="-456.8" font-family="Helvetica,sans-Serif" font-size="11.00" fill="#000000">&lt; 1</text>
<polygon fill="#ffffff" stroke="transparent" points="299,-450.7 299,-469.7 377,-469.7 377,-450.7 299,-450.7"/>
<polygon fill="none" stroke="#000000" points="299,-450.7 299,-469.7 377,-469.7 377,-450.7 299,-450.7"/>
<text text-anchor="start" x="341.6105" y="-456.8" font-family="Helvetica,sans-Serif" font-size="11.00" fill="#000000">0 rows</text>
<polygon fill="#ffffff" stroke="transparent" points="377,-450.7 377,-469.7 467,-469.7 467,-450.7 377,-450.7"/>
<polygon fill="none" stroke="#000000" points="377,-450.7 377,-469.7 467,-469.7 467,-450.7 377,-450.7"/>
<text text-anchor="start" x="448.4053" y="-456.8" font-family="Helvetica,sans-Serif" font-size="11.00" fill="#000000">0 &gt;</text>
<polygon fill="none" stroke="#000000" stroke-width="2" points="238,-449.7 238,-625.7 468,-625.7 468,-449.7 238,-449.7"/>
</a>
</g>
</g>
<!-- federated_identity&#45;&gt;user_entity -->
<g id="edge2" class="edge">
<title>federated_identity:w&#45;&gt;user_entity:e</title>
<path fill="none" stroke="#000000" d="M224.7402,-478.1798C174.8882,-457.1568 260.787,-311.7 188,-311.7"/>
<polygon fill="#000000" stroke="#000000" points="231.1221,-479.3077 238.3735,-484.2451 235.061,-480.0038 239,-480.7 239,-480.7 239,-480.7 235.061,-480.0038 239.6265,-477.1549 231.1221,-479.3077 231.1221,-479.3077"/>
<ellipse fill="none" stroke="#000000" cx="227.9709" cy="-478.7508" rx="3.2" ry="3.2"/>
</g>
<!-- user_attribute -->
<g id="node4" class="node">
<title>user_attribute</title>
<g id="a_node4"><a xlink:href="../../tables/user_attribute.html" xlink:title="user_attribute" target="_top">
<polygon fill="#ffffff" stroke="transparent" points="298,-366.2 298,-427.2 408,-427.2 408,-366.2 298,-366.2"/>
<polygon fill="#f5f5f5" stroke="transparent" points="298,-403.7 298,-426.7 408,-426.7 408,-403.7 298,-403.7"/>
<polygon fill="none" stroke="#000000" points="298,-403.7 298,-426.7 408,-426.7 408,-403.7 298,-403.7"/>
<text text-anchor="start" x="302.8802" y="-412.8" font-family="Helvetica,sans-Serif" font-weight="bold" font-size="11.00" fill="#000000">user_attribute</text>
<text text-anchor="start" x="373.5219" y="-411.8" font-family="Helvetica,sans-Serif" font-size="11.00" fill="#000000">[table]</text>
<polygon fill="none" stroke="#000000" points="298,-384.7 298,-403.7 408,-403.7 408,-384.7 298,-384.7"/>
<text text-anchor="start" x="301" y="-390.8" font-family="Helvetica,sans-Serif" font-size="11.00" fill="#000000">...</text>
<polygon fill="#ffffff" stroke="transparent" points="298,-365.7 298,-384.7 338,-384.7 338,-365.7 298,-365.7"/>
<polygon fill="none" stroke="#000000" points="298,-365.7 298,-384.7 338,-384.7 338,-365.7 298,-365.7"/>
<text text-anchor="start" x="301" y="-371.8" font-family="Helvetica,sans-Serif" font-size="11.00" fill="#000000">&lt; 1</text>
<polygon fill="#ffffff" stroke="transparent" points="338,-365.7 338,-384.7 386,-384.7 386,-365.7 338,-365.7"/>
<polygon fill="none" stroke="#000000" points="338,-365.7 338,-384.7 386,-384.7 386,-365.7 338,-365.7"/>
<text text-anchor="start" x="350.6105" y="-371.8" font-family="Helvetica,sans-Serif" font-size="11.00" fill="#000000">0 rows</text>
<polygon fill="#ffffff" stroke="transparent" points="386,-365.7 386,-384.7 408,-384.7 408,-365.7 386,-365.7"/>
<polygon fill="none" stroke="#000000" points="386,-365.7 386,-384.7 408,-384.7 408,-365.7 386,-365.7"/>
<text text-anchor="start" x="398.8862" y="-371.8" font-family="Helvetica,sans-Serif" font-size="11.00" fill="#000000"> &#160;</text>
</a>
</g>
</g>
<!-- user_attribute&#45;&gt;user_entity -->
<g id="edge3" class="edge">
<title>user_attribute:w&#45;&gt;user_entity:e</title>
<path fill="none" stroke="#000000" d="M283.4961,-392.5367C260.4791,-388.4273 252.299,-373.8587 229,-355.7 207.9173,-339.2686 214.7296,-311.7 188,-311.7"/>
<polygon fill="#000000" stroke="#000000" points="290.0256,-393.0604 297.7122,-397.2885 294.0128,-393.3802 298,-393.7 298,-393.7 298,-393.7 294.0128,-393.3802 298.2878,-390.1115 290.0256,-393.0604 290.0256,-393.0604"/>
<ellipse fill="none" stroke="#000000" cx="286.8359" cy="-392.8045" rx="3.2" ry="3.2"/>
</g>
<!-- user_consent -->
<g id="node5" class="node">
<title>user_consent</title>
<g id="a_node5"><a xlink:href="../../tables/user_consent.html" xlink:title="user_consent" target="_top">
<polygon fill="#ffffff" stroke="transparent" points="298.5,-284.2 298.5,-345.2 407.5,-345.2 407.5,-284.2 298.5,-284.2"/>
<polygon fill="#f5f5f5" stroke="transparent" points="299,-321.7 299,-344.7 408,-344.7 408,-321.7 299,-321.7"/>
<polygon fill="none" stroke="#000000" points="299,-321.7 299,-344.7 408,-344.7 408,-321.7 299,-321.7"/>
<text text-anchor="start" x="303.9885" y="-330.8" font-family="Helvetica,sans-Serif" font-weight="bold" font-size="11.00" fill="#000000">user_consent</text>
<text text-anchor="start" x="373.5219" y="-329.8" font-family="Helvetica,sans-Serif" font-size="11.00" fill="#000000">[table]</text>
<polygon fill="none" stroke="#000000" points="299,-302.7 299,-321.7 408,-321.7 408,-302.7 299,-302.7"/>
<text text-anchor="start" x="302" y="-308.8" font-family="Helvetica,sans-Serif" font-size="11.00" fill="#000000">...</text>
<polygon fill="#ffffff" stroke="transparent" points="299,-283.7 299,-302.7 334,-302.7 334,-283.7 299,-283.7"/>
<polygon fill="none" stroke="#000000" points="299,-283.7 299,-302.7 334,-302.7 334,-283.7 299,-283.7"/>
<text text-anchor="start" x="302" y="-289.8" font-family="Helvetica,sans-Serif" font-size="11.00" fill="#000000">&lt; 1</text>
<polygon fill="#ffffff" stroke="transparent" points="334,-283.7 334,-302.7 379,-302.7 379,-283.7 334,-283.7"/>
<polygon fill="none" stroke="#000000" points="334,-283.7 334,-302.7 379,-302.7 379,-283.7 334,-283.7"/>
<text text-anchor="start" x="343.6105" y="-289.8" font-family="Helvetica,sans-Serif" font-size="11.00" fill="#000000">0 rows</text>
<polygon fill="#ffffff" stroke="transparent" points="379,-283.7 379,-302.7 408,-302.7 408,-283.7 379,-283.7"/>
<polygon fill="none" stroke="#000000" points="379,-283.7 379,-302.7 408,-302.7 408,-283.7 379,-283.7"/>
<text text-anchor="start" x="389.4053" y="-289.8" font-family="Helvetica,sans-Serif" font-size="11.00" fill="#000000">1 &gt;</text>
</a>
</g>
</g>
<!-- user_consent&#45;&gt;user_entity -->
<g id="edge4" class="edge">
<title>user_consent:w&#45;&gt;user_entity:e</title>
<path fill="none" stroke="#000000" d="M284.5385,-311.7C246.6535,-311.7 232.1302,-311.7 188,-311.7"/>
<polygon fill="#000000" stroke="#000000" points="291,-311.7001 299,-315.3 295,-311.7 299,-311.7 299,-311.7 299,-311.7 295,-311.7 299,-308.1 291,-311.7001 291,-311.7001"/>
<ellipse fill="none" stroke="#000000" cx="287.8" cy="-311.7001" rx="3.2" ry="3.2"/>
</g>
<!-- user_group_membership -->
<g id="node6" class="node">
<title>user_group_membership</title>
<g id="a_node6"><a xlink:href="../../tables/user_group_membership.html" xlink:title="user_group_membership" target="_top">
<polygon fill="#ffffff" stroke="transparent" points="270.5,-202.2 270.5,-263.2 435.5,-263.2 435.5,-202.2 270.5,-202.2"/>
<polygon fill="#f5f5f5" stroke="transparent" points="271,-239.7 271,-262.7 436,-262.7 436,-239.7 271,-239.7"/>
<polygon fill="none" stroke="#000000" points="271,-239.7 271,-262.7 436,-262.7 436,-239.7 271,-239.7"/>
<text text-anchor="start" x="275.878" y="-248.8" font-family="Helvetica,sans-Serif" font-weight="bold" font-size="11.00" fill="#000000">user_group_membership</text>
<text text-anchor="start" x="401.5219" y="-247.8" font-family="Helvetica,sans-Serif" font-size="11.00" fill="#000000">[table]</text>
<polygon fill="none" stroke="#000000" points="271,-220.7 271,-239.7 436,-239.7 436,-220.7 271,-220.7"/>
<text text-anchor="start" x="274" y="-226.8" font-family="Helvetica,sans-Serif" font-size="11.00" fill="#000000">...</text>
<polygon fill="#ffffff" stroke="transparent" points="271,-201.7 271,-220.7 339,-220.7 339,-201.7 271,-201.7"/>
<polygon fill="none" stroke="#000000" points="271,-201.7 271,-220.7 339,-220.7 339,-201.7 271,-201.7"/>
<text text-anchor="start" x="274" y="-207.8" font-family="Helvetica,sans-Serif" font-size="11.00" fill="#000000">&lt; 1</text>
<polygon fill="#ffffff" stroke="transparent" points="339,-201.7 339,-220.7 400,-220.7 400,-201.7 339,-201.7"/>
<polygon fill="none" stroke="#000000" points="339,-201.7 339,-220.7 400,-220.7 400,-201.7 339,-201.7"/>
<text text-anchor="start" x="364.6105" y="-207.8" font-family="Helvetica,sans-Serif" font-size="11.00" fill="#000000">0 rows</text>
<polygon fill="#ffffff" stroke="transparent" points="400,-201.7 400,-220.7 436,-220.7 436,-201.7 400,-201.7"/>
<polygon fill="none" stroke="#000000" points="400,-201.7 400,-220.7 436,-220.7 436,-201.7 400,-201.7"/>
<text text-anchor="start" x="426.8862" y="-207.8" font-family="Helvetica,sans-Serif" font-size="11.00" fill="#000000"> &#160;</text>
</a>
</g>
</g>
<!-- user_group_membership&#45;&gt;user_entity -->
<g id="edge5" class="edge">
<title>user_group_membership:w&#45;&gt;user_entity:e</title>
<path fill="none" stroke="#000000" d="M256.3993,-232.4283C222.807,-246.6565 234.1838,-311.7 188,-311.7"/>
<polygon fill="#000000" stroke="#000000" points="263.1361,-231.1695 271.6613,-233.2387 267.0681,-230.4347 271,-229.7 271,-229.7 271,-229.7 267.0681,-230.4347 270.3387,-226.1613 263.1361,-231.1695 263.1361,-231.1695"/>
<ellipse fill="none" stroke="#000000" cx="259.9906" cy="-231.7573" rx="3.2" ry="3.2"/>
</g>
<!-- user_required_action -->
<g id="node7" class="node">
<title>user_required_action</title>
<g id="a_node7"><a xlink:href="../../tables/user_required_action.html" xlink:title="user_required_action" target="_top">
<polygon fill="#ffffff" stroke="transparent" points="280,-120.2 280,-181.2 426,-181.2 426,-120.2 280,-120.2"/>
<polygon fill="#f5f5f5" stroke="transparent" points="280,-157.7 280,-180.7 426,-180.7 426,-157.7 280,-157.7"/>
<polygon fill="none" stroke="#000000" points="280,-157.7 280,-180.7 426,-180.7 426,-157.7 280,-157.7"/>
<text text-anchor="start" x="284.8484" y="-166.8" font-family="Helvetica,sans-Serif" font-weight="bold" font-size="11.00" fill="#000000">user_required_action</text>
<text text-anchor="start" x="391.5219" y="-165.8" font-family="Helvetica,sans-Serif" font-size="11.00" fill="#000000">[table]</text>
<polygon fill="none" stroke="#000000" points="280,-138.7 280,-157.7 426,-157.7 426,-138.7 280,-138.7"/>
<text text-anchor="start" x="283" y="-144.8" font-family="Helvetica,sans-Serif" font-size="11.00" fill="#000000">...</text>
<polygon fill="#ffffff" stroke="transparent" points="280,-119.7 280,-138.7 338,-138.7 338,-119.7 280,-119.7"/>
<polygon fill="none" stroke="#000000" points="280,-119.7 280,-138.7 338,-138.7 338,-119.7 280,-119.7"/>
<text text-anchor="start" x="283" y="-125.8" font-family="Helvetica,sans-Serif" font-size="11.00" fill="#000000">&lt; 1</text>
<polygon fill="#ffffff" stroke="transparent" points="338,-119.7 338,-138.7 395,-138.7 395,-119.7 338,-119.7"/>
<polygon fill="none" stroke="#000000" points="338,-119.7 338,-138.7 395,-138.7 395,-119.7 338,-119.7"/>
<text text-anchor="start" x="359.6105" y="-125.8" font-family="Helvetica,sans-Serif" font-size="11.00" fill="#000000">0 rows</text>
<polygon fill="#ffffff" stroke="transparent" points="395,-119.7 395,-138.7 426,-138.7 426,-119.7 395,-119.7"/>
<polygon fill="none" stroke="#000000" points="395,-119.7 395,-138.7 426,-138.7 426,-119.7 395,-119.7"/>
<text text-anchor="start" x="416.8862" y="-125.8" font-family="Helvetica,sans-Serif" font-size="11.00" fill="#000000"> &#160;</text>
</a>
</g>
</g>
<!-- user_required_action&#45;&gt;user_entity -->
<g id="edge6" class="edge">
<title>user_required_action:w&#45;&gt;user_entity:e</title>
<path fill="none" stroke="#000000" d="M265.6129,-149.6347C248.0109,-155.0947 242.6152,-171.5442 229,-191.7 197.452,-238.4035 244.3604,-311.7 188,-311.7"/>
<polygon fill="#000000" stroke="#000000" points="272.0714,-148.7663 280.4798,-151.2679 276.0357,-148.2331 280,-147.7 280,-147.7 280,-147.7 276.0357,-148.2331 279.5202,-144.1321 272.0714,-148.7663 272.0714,-148.7663"/>
<ellipse fill="none" stroke="#000000" cx="268.8999" cy="-149.1928" rx="3.2" ry="3.2"/>
</g>
<!-- user_role_mapping -->
<g id="node8" class="node">
<title>user_role_mapping</title>
<g id="a_node8"><a xlink:href="../../tables/user_role_mapping.html" xlink:title="user_role_mapping" target="_top">
<polygon fill="#ffffff" stroke="transparent" points="284.5,-38.2 284.5,-99.2 421.5,-99.2 421.5,-38.2 284.5,-38.2"/>
<polygon fill="#f5f5f5" stroke="transparent" points="285,-75.7 285,-98.7 422,-98.7 422,-75.7 285,-75.7"/>
<polygon fill="none" stroke="#000000" points="285,-75.7 285,-98.7 422,-98.7 422,-75.7 285,-75.7"/>
<text text-anchor="start" x="289.9343" y="-84.8" font-family="Helvetica,sans-Serif" font-weight="bold" font-size="11.00" fill="#000000">user_role_mapping</text>
<text text-anchor="start" x="387.5219" y="-83.8" font-family="Helvetica,sans-Serif" font-size="11.00" fill="#000000">[table]</text>
<polygon fill="none" stroke="#000000" points="285,-56.7 285,-75.7 422,-75.7 422,-56.7 285,-56.7"/>
<text text-anchor="start" x="288" y="-62.8" font-family="Helvetica,sans-Serif" font-size="11.00" fill="#000000">...</text>
<polygon fill="#ffffff" stroke="transparent" points="285,-37.7 285,-56.7 339,-56.7 339,-37.7 285,-37.7"/>
<polygon fill="none" stroke="#000000" points="285,-37.7 285,-56.7 339,-56.7 339,-37.7 285,-37.7"/>
<text text-anchor="start" x="288" y="-43.8" font-family="Helvetica,sans-Serif" font-size="11.00" fill="#000000">&lt; 1</text>
<polygon fill="#ffffff" stroke="transparent" points="339,-37.7 339,-56.7 393,-56.7 393,-37.7 339,-37.7"/>
<polygon fill="none" stroke="#000000" points="339,-37.7 339,-56.7 393,-56.7 393,-37.7 339,-37.7"/>
<text text-anchor="start" x="357.6105" y="-43.8" font-family="Helvetica,sans-Serif" font-size="11.00" fill="#000000">5 rows</text>
<polygon fill="#ffffff" stroke="transparent" points="393,-37.7 393,-56.7 422,-56.7 422,-37.7 393,-37.7"/>
<polygon fill="none" stroke="#000000" points="393,-37.7 393,-56.7 422,-56.7 422,-37.7 393,-37.7"/>
<text text-anchor="start" x="412.8862" y="-43.8" font-family="Helvetica,sans-Serif" font-size="11.00" fill="#000000"> &#160;</text>
</a>
</g>
</g>
<!-- user_role_mapping&#45;&gt;user_entity -->
<g id="edge7" class="edge">
<title>user_role_mapping:w&#45;&gt;user_entity:e</title>
<path fill="none" stroke="#000000" d="M270.6324,-67.1753C250.4265,-71.8556 242.7575,-87.3883 229,-109.7 180.9194,-187.6766 279.6084,-311.7 188,-311.7"/>
<polygon fill="#000000" stroke="#000000" points="277.0418,-66.5172 285.3677,-69.2812 281.0209,-66.1086 285,-65.7 285,-65.7 285,-65.7 281.0209,-66.1086 284.6323,-62.1188 277.0418,-66.5172 277.0418,-66.5172"/>
<ellipse fill="none" stroke="#000000" cx="273.8586" cy="-66.8441" rx="3.2" ry="3.2"/>
</g>
</g>
</svg>
