<?xml version="1.0" encoding="UTF-8" standalone="no"?>
<!DOCTYPE svg PUBLIC "-//W3C//DTD SVG 1.1//EN"
 "http://www.w3.org/Graphics/SVG/1.1/DTD/svg11.dtd">
<!-- Generated by graphviz version 2.40.1 (20161225.0304)
 -->
<!-- Title: oneDegreeRelationshipsDiagramImplied Pages: 1 -->
<svg width="670pt" height="331pt"
 viewBox="0.00 0.00 670.00 330.70" xmlns="http://www.w3.org/2000/svg" xmlns:xlink="http://www.w3.org/1999/xlink">
<g id="graph0" class="graph" transform="scale(1 1) rotate(0) translate(4 326.7)">
<title>oneDegreeRelationshipsDiagramImplied</title>
<polygon fill="#ffffff" stroke="transparent" points="-4,4 -4,-326.7 666,-326.7 666,4 -4,4"/>
<text text-anchor="middle" x="72.4936" y="-7.3" font-family="Helvetica,sans-Serif" font-size="11.00" fill="#000000">Generated by SchemaSpy</text>
<!-- federated_identity -->
<g id="node1" class="node">
<title>federated_identity</title>
<g id="a_node1"><a xlink:href="../../tables/federated_identity.html" xlink:title="federated_identity" target="_top">
<polygon fill="#ffffff" stroke="transparent" points="422,-140.7 422,-318.7 654,-318.7 654,-140.7 422,-140.7"/>
<polygon fill="#f5f5f5" stroke="transparent" points="424,-293.7 424,-316.7 652,-316.7 652,-293.7 424,-293.7"/>
<polygon fill="none" stroke="#000000" points="424,-293.7 424,-316.7 652,-316.7 652,-293.7 424,-293.7"/>
<text text-anchor="start" x="429" y="-302.8" font-family="Helvetica,sans-Serif" font-weight="bold" font-size="11.00" fill="#000000">federated_identity</text>
<text text-anchor="start" x="617.0437" y="-301.8" font-family="Helvetica,sans-Serif" font-size="11.00" fill="#000000">[table]</text>
<polygon fill="none" stroke="#000000" points="424,-271.7 424,-293.7 562,-293.7 562,-271.7 424,-271.7"/>
<image xlink:href="../../images/primaryKeys.png" width="11px" height="12px" preserveAspectRatio="xMinYMin meet" x="429" y="-288.7"/>
<text text-anchor="start" x="444" y="-278.8" font-family="Helvetica,sans-Serif" font-size="11.00" fill="#000000">identity_provider</text>
<polygon fill="none" stroke="#000000" points="562,-271.7 562,-293.7 652,-293.7 652,-271.7 562,-271.7"/>
<text text-anchor="start" x="565" y="-279.4" font-family="Helvetica,sans-Serif" font-size="11.00" fill="#000000">varchar[255]</text>
<polygon fill="none" stroke="#000000" points="424,-249.7 424,-271.7 562,-271.7 562,-249.7 424,-249.7"/>
<text text-anchor="start" x="444" y="-256.8" font-family="Helvetica,sans-Serif" font-size="11.00" fill="#000000">realm_id</text>
<polygon fill="none" stroke="#000000" points="562,-249.7 562,-271.7 652,-271.7 652,-249.7 562,-249.7"/>
<text text-anchor="start" x="565" y="-257.4" font-family="Helvetica,sans-Serif" font-size="11.00" fill="#000000">varchar[36]</text>
<polygon fill="#ffffff" stroke="transparent" points="424,-227.7 424,-249.7 562,-249.7 562,-227.7 424,-227.7"/>
<polygon fill="none" stroke="#000000" points="424,-227.7 424,-249.7 562,-249.7 562,-227.7 424,-227.7"/>
<image xlink:href="../../images/foreignKeys.png" width="11px" height="12px" preserveAspectRatio="xMinYMin meet" x="429" y="-244.7"/>
<text text-anchor="start" x="444" y="-234.8" font-family="Helvetica,sans-Serif" font-size="11.00" fill="#000000">federated_user_id</text>
<polygon fill="none" stroke="#000000" points="562,-227.7 562,-249.7 652,-249.7 652,-227.7 562,-227.7"/>
<text text-anchor="start" x="565" y="-235.4" font-family="Helvetica,sans-Serif" font-size="11.00" fill="#000000">varchar[255]</text>
<polygon fill="none" stroke="#000000" points="424,-205.7 424,-227.7 562,-227.7 562,-205.7 424,-205.7"/>
<text text-anchor="start" x="444" y="-212.8" font-family="Helvetica,sans-Serif" font-size="11.00" fill="#000000">federated_username</text>
<polygon fill="none" stroke="#000000" points="562,-205.7 562,-227.7 652,-227.7 652,-205.7 562,-205.7"/>
<text text-anchor="start" x="565" y="-213.4" font-family="Helvetica,sans-Serif" font-size="11.00" fill="#000000">varchar[255]</text>
<polygon fill="none" stroke="#000000" points="424,-183.7 424,-205.7 562,-205.7 562,-183.7 424,-183.7"/>
<text text-anchor="start" x="444" y="-190.8" font-family="Helvetica,sans-Serif" font-size="11.00" fill="#000000">token</text>
<polygon fill="none" stroke="#000000" points="562,-183.7 562,-205.7 652,-205.7 652,-183.7 562,-183.7"/>
<text text-anchor="start" x="564.5043" y="-191.4" font-family="Helvetica,sans-Serif" font-size="11.00" fill="#000000">text[2147483647]</text>
<polygon fill="none" stroke="#000000" points="424,-161.7 424,-183.7 562,-183.7 562,-161.7 424,-161.7"/>
<image xlink:href="../../images/primaryKeys.png" width="11px" height="12px" preserveAspectRatio="xMinYMin meet" x="429" y="-178.7"/>
<text text-anchor="start" x="444" y="-168.8" font-family="Helvetica,sans-Serif" font-size="11.00" fill="#000000">user_id</text>
<polygon fill="none" stroke="#000000" points="562,-161.7 562,-183.7 652,-183.7 652,-161.7 562,-161.7"/>
<text text-anchor="start" x="565" y="-169.4" font-family="Helvetica,sans-Serif" font-size="11.00" fill="#000000">varchar[36]</text>
<polygon fill="#ffffff" stroke="transparent" points="424,-142.7 424,-161.7 484,-161.7 484,-142.7 424,-142.7"/>
<polygon fill="none" stroke="#000000" points="424,-142.7 424,-161.7 484,-161.7 484,-142.7 424,-142.7"/>
<text text-anchor="start" x="427" y="-148.8" font-family="Helvetica,sans-Serif" font-size="11.00" fill="#000000">&lt; 2</text>
<polygon fill="#ffffff" stroke="transparent" points="484,-142.7 484,-161.7 562,-161.7 562,-142.7 484,-142.7"/>
<polygon fill="none" stroke="#000000" points="484,-142.7 484,-161.7 562,-161.7 562,-142.7 484,-142.7"/>
<text text-anchor="start" x="526.6105" y="-148.8" font-family="Helvetica,sans-Serif" font-size="11.00" fill="#000000">0 rows</text>
<polygon fill="#ffffff" stroke="transparent" points="562,-142.7 562,-161.7 652,-161.7 652,-142.7 562,-142.7"/>
<polygon fill="none" stroke="#000000" points="562,-142.7 562,-161.7 652,-161.7 652,-142.7 562,-142.7"/>
<text text-anchor="start" x="633.4053" y="-148.8" font-family="Helvetica,sans-Serif" font-size="11.00" fill="#000000">0 &gt;</text>
<polygon fill="none" stroke="#000000" stroke-width="2" points="423,-141.7 423,-317.7 653,-317.7 653,-141.7 423,-141.7"/>
</a>
</g>
</g>
<!-- federated_user -->
<g id="node2" class="node">
<title>federated_user</title>
<g id="a_node2"><a xlink:href="../../tables/federated_user.html" xlink:title="federated_user" target="_top">
<polygon fill="#ffffff" stroke="transparent" points="8,-124.2 8,-207.2 144,-207.2 144,-124.2 8,-124.2"/>
<polygon fill="#f5f5f5" stroke="transparent" points="8,-183.7 8,-206.7 144,-206.7 144,-183.7 8,-183.7"/>
<polygon fill="none" stroke="#000000" points="8,-183.7 8,-206.7 144,-206.7 144,-183.7 8,-183.7"/>
<text text-anchor="start" x="13" y="-192.8" font-family="Helvetica,sans-Serif" font-weight="bold" font-size="11.00" fill="#000000">federated_user</text>
<text text-anchor="start" x="109.0437" y="-191.8" font-family="Helvetica,sans-Serif" font-size="11.00" fill="#000000">[table]</text>
<polygon fill="none" stroke="#000000" points="8,-161.7 8,-183.7 144,-183.7 144,-161.7 8,-161.7"/>
<image xlink:href="../../images/primaryKeys.png" width="11px" height="12px" preserveAspectRatio="xMinYMin meet" x="13" y="-178.7"/>
<text text-anchor="start" x="28" y="-168.8" font-family="Helvetica,sans-Serif" font-size="11.00" fill="#000000">id</text>
<polygon fill="none" stroke="#000000" points="8,-142.7 8,-161.7 144,-161.7 144,-142.7 8,-142.7"/>
<text text-anchor="start" x="11" y="-148.8" font-family="Helvetica,sans-Serif" font-size="11.00" fill="#000000">...</text>
<polygon fill="#ffffff" stroke="transparent" points="8,-123.7 8,-142.7 49,-142.7 49,-123.7 8,-123.7"/>
<polygon fill="none" stroke="#000000" points="8,-123.7 8,-142.7 49,-142.7 49,-123.7 8,-123.7"/>
<text text-anchor="start" x="11" y="-129.8" font-family="Helvetica,sans-Serif" font-size="11.00" fill="#000000"> &#160;</text>
<polygon fill="#ffffff" stroke="transparent" points="49,-123.7 49,-142.7 102,-142.7 102,-123.7 49,-123.7"/>
<polygon fill="none" stroke="#000000" points="49,-123.7 49,-142.7 102,-142.7 102,-123.7 49,-123.7"/>
<text text-anchor="start" x="66.6105" y="-129.8" font-family="Helvetica,sans-Serif" font-size="11.00" fill="#000000">0 rows</text>
<polygon fill="#ffffff" stroke="transparent" points="102,-123.7 102,-142.7 144,-142.7 144,-123.7 102,-123.7"/>
<polygon fill="none" stroke="#000000" points="102,-123.7 102,-142.7 144,-142.7 144,-123.7 102,-123.7"/>
<text text-anchor="start" x="119.2904" y="-129.8" font-family="Helvetica,sans-Serif" font-size="11.00" fill="#000000">30 &gt;</text>
</a>
</g>
</g>
<!-- federated_identity&#45;&gt;federated_user -->
<g id="edge1" class="edge">
<title>federated_identity:w&#45;&gt;federated_user:e</title>
<path fill="none" stroke="#000000" stroke-dasharray="5,2" d="M409.459,-238.8797C313.8217,-241.2421 275.7148,-265.3702 185,-219.7 160.2408,-207.235 171.7199,-172.7 144,-172.7"/>
<polygon fill="#000000" stroke="#000000" points="416.0006,-238.7989 424.0445,-242.2997 420.0003,-238.7495 424,-238.7 424,-238.7 424,-238.7 420.0003,-238.7495 423.9555,-235.1003 416.0006,-238.7989 416.0006,-238.7989"/>
<ellipse fill="none" stroke="#000000" cx="412.8009" cy="-238.8385" rx="3.2" ry="3.2"/>
</g>
<!-- user_entity -->
<g id="node3" class="node">
<title>user_entity</title>
<g id="a_node3"><a xlink:href="../../tables/user_entity.html" xlink:title="user_entity" target="_top">
<polygon fill="#ffffff" stroke="transparent" points="193,-38.2 193,-209.2 373,-209.2 373,-38.2 193,-38.2"/>
<polygon fill="#f5f5f5" stroke="transparent" points="193,-185.7 193,-208.7 373,-208.7 373,-185.7 193,-185.7"/>
<polygon fill="none" stroke="#000000" points="193,-185.7 193,-208.7 373,-208.7 373,-185.7 193,-185.7"/>
<text text-anchor="start" x="198" y="-194.8" font-family="Helvetica,sans-Serif" font-weight="bold" font-size="11.00" fill="#000000">user_entity</text>
<text text-anchor="start" x="338.0437" y="-193.8" font-family="Helvetica,sans-Serif" font-size="11.00" fill="#000000">[table]</text>
<polygon fill="none" stroke="#000000" points="193,-163.7 193,-185.7 373,-185.7 373,-163.7 193,-163.7"/>
<image xlink:href="../../images/primaryKeys.png" width="11px" height="12px" preserveAspectRatio="xMinYMin meet" x="198" y="-180.7"/>
<text text-anchor="start" x="213" y="-170.8" font-family="Helvetica,sans-Serif" font-size="11.00" fill="#000000">id</text>
<polygon fill="#ffffff" stroke="transparent" points="193,-141.7 193,-163.7 373,-163.7 373,-141.7 193,-141.7"/>
<polygon fill="none" stroke="#000000" points="193,-141.7 193,-163.7 373,-163.7 373,-141.7 193,-141.7"/>
<text text-anchor="start" x="213" y="-148.8" font-family="Helvetica,sans-Serif" font-size="11.00" fill="#000000">email</text>
<polygon fill="#ffffff" stroke="transparent" points="193,-119.7 193,-141.7 373,-141.7 373,-119.7 193,-119.7"/>
<polygon fill="none" stroke="#000000" points="193,-119.7 193,-141.7 373,-141.7 373,-119.7 193,-119.7"/>
<text text-anchor="start" x="213" y="-126.8" font-family="Helvetica,sans-Serif" font-size="11.00" fill="#000000">email_constraint</text>
<polygon fill="#ffffff" stroke="transparent" points="193,-97.7 193,-119.7 373,-119.7 373,-97.7 193,-97.7"/>
<polygon fill="none" stroke="#000000" points="193,-97.7 193,-119.7 373,-119.7 373,-97.7 193,-97.7"/>
<image xlink:href="../../images/foreignKeys.png" width="11px" height="12px" preserveAspectRatio="xMinYMin meet" x="198" y="-114.7"/>
<text text-anchor="start" x="213" y="-104.8" font-family="Helvetica,sans-Serif" font-size="11.00" fill="#000000">realm_id</text>
<polygon fill="#ffffff" stroke="transparent" points="193,-75.7 193,-97.7 373,-97.7 373,-75.7 193,-75.7"/>
<polygon fill="none" stroke="#000000" points="193,-75.7 193,-97.7 373,-97.7 373,-75.7 193,-75.7"/>
<text text-anchor="start" x="213" y="-82.8" font-family="Helvetica,sans-Serif" font-size="11.00" fill="#000000">username</text>
<polygon fill="none" stroke="#000000" points="193,-56.7 193,-75.7 373,-75.7 373,-56.7 193,-56.7"/>
<text text-anchor="start" x="196" y="-62.8" font-family="Helvetica,sans-Serif" font-size="11.00" fill="#000000">...</text>
<polygon fill="#ffffff" stroke="transparent" points="193,-37.7 193,-56.7 267,-56.7 267,-37.7 193,-37.7"/>
<polygon fill="none" stroke="#000000" points="193,-37.7 193,-56.7 267,-56.7 267,-37.7 193,-37.7"/>
<text text-anchor="start" x="196" y="-43.8" font-family="Helvetica,sans-Serif" font-size="11.00" fill="#000000">&lt; 1</text>
<polygon fill="#ffffff" stroke="transparent" points="267,-37.7 267,-56.7 325,-56.7 325,-37.7 267,-37.7"/>
<polygon fill="none" stroke="#000000" points="267,-37.7 267,-56.7 325,-56.7 325,-37.7 267,-37.7"/>
<text text-anchor="start" x="295.1105" y="-43.8" font-family="Helvetica,sans-Serif" font-size="11.00" fill="#000000">1 row</text>
<polygon fill="#ffffff" stroke="transparent" points="325,-37.7 325,-56.7 373,-56.7 373,-37.7 325,-37.7"/>
<polygon fill="none" stroke="#000000" points="325,-37.7 325,-56.7 373,-56.7 373,-37.7 325,-37.7"/>
<text text-anchor="start" x="354.4053" y="-43.8" font-family="Helvetica,sans-Serif" font-size="11.00" fill="#000000">7 &gt;</text>
</a>
</g>
</g>
<!-- federated_identity&#45;&gt;user_entity -->
<g id="edge2" class="edge">
<title>federated_identity:w&#45;&gt;user_entity:e</title>
<path fill="none" stroke="#000000" d="M409.2711,-173.0303C397.2786,-173.5983 389.8358,-174.7 373,-174.7"/>
<polygon fill="#000000" stroke="#000000" points="416.002,-172.8794 424.0807,-176.2991 420.001,-172.7897 424,-172.7 424,-172.7 424,-172.7 420.001,-172.7897 423.9193,-169.1009 416.002,-172.8794 416.002,-172.8794"/>
<ellipse fill="none" stroke="#000000" cx="412.8028" cy="-172.9511" rx="3.2" ry="3.2"/>
</g>
<!-- user_entity&#45;&gt;federated_user -->
<g id="edge3" class="edge">
<title>user_entity:w&#45;&gt;federated_user:e</title>
<path fill="none" stroke="#000000" stroke-dasharray="5,2" d="M179.1165,-113.722C163.2339,-128.8094 173.6667,-172.7 144,-172.7"/>
<polygon fill="#000000" stroke="#000000" points="185.477,-111.4213 194.2246,-112.0853 189.2385,-110.0606 193,-108.7 193,-108.7 193,-108.7 189.2385,-110.0606 191.7754,-105.3147 185.477,-111.4213 185.477,-111.4213"/>
<ellipse fill="none" stroke="#000000" cx="182.4678" cy="-112.5098" rx="3.2" ry="3.2"/>
</g>
</g>
</svg>
