<?xml version="1.0" encoding="UTF-8" standalone="no"?>
<!DOCTYPE svg PUBLIC "-//W3C//DTD SVG 1.1//EN"
 "http://www.w3.org/Graphics/SVG/1.1/DTD/svg11.dtd">
<!-- Generated by graphviz version 2.40.1 (20161225.0304)
 -->
<!-- Title: twoDegreesRelationshipsDiagram Pages: 1 -->
<svg width="493pt" height="292pt"
 viewBox="0.00 0.00 493.00 292.20" xmlns="http://www.w3.org/2000/svg" xmlns:xlink="http://www.w3.org/1999/xlink">
<g id="graph0" class="graph" transform="scale(1 1) rotate(0) translate(4 288.2)">
<title>twoDegreesRelationshipsDiagram</title>
<polygon fill="#ffffff" stroke="transparent" points="-4,4 -4,-288.2 489,-288.2 489,4 -4,4"/>
<text text-anchor="middle" x="72.4936" y="-7.3" font-family="Helvetica,sans-Serif" font-size="11.00" fill="#000000">Generated by SchemaSpy</text>
<!-- group_attribute -->
<g id="node1" class="node">
<title>group_attribute</title>
<g id="a_node1"><a xlink:href="../../tables/group_attribute.html" xlink:title="group_attribute" target="_top">
<polygon fill="#ffffff" stroke="transparent" points="297,-146.2 297,-280.2 477,-280.2 477,-146.2 297,-146.2"/>
<polygon fill="#f5f5f5" stroke="transparent" points="299,-255.2 299,-278.2 475,-278.2 475,-255.2 299,-255.2"/>
<polygon fill="none" stroke="#000000" points="299,-255.2 299,-278.2 475,-278.2 475,-255.2 299,-255.2"/>
<text text-anchor="start" x="304" y="-264.3" font-family="Helvetica,sans-Serif" font-weight="bold" font-size="11.00" fill="#000000">group_attribute</text>
<text text-anchor="start" x="440.0437" y="-263.3" font-family="Helvetica,sans-Serif" font-size="11.00" fill="#000000">[table]</text>
<polygon fill="none" stroke="#000000" points="299,-233.2 299,-255.2 408,-255.2 408,-233.2 299,-233.2"/>
<image xlink:href="../../images/primaryKeys.png" width="11px" height="12px" preserveAspectRatio="xMinYMin meet" x="304" y="-250.2"/>
<text text-anchor="start" x="319" y="-240.3" font-family="Helvetica,sans-Serif" font-size="11.00" fill="#000000">id</text>
<polygon fill="none" stroke="#000000" points="408,-233.2 408,-255.2 475,-255.2 475,-233.2 408,-233.2"/>
<text text-anchor="start" x="411" y="-240.9" font-family="Helvetica,sans-Serif" font-size="11.00" fill="#000000">varchar[36]</text>
<polygon fill="none" stroke="#000000" points="299,-211.2 299,-233.2 408,-233.2 408,-211.2 299,-211.2"/>
<text text-anchor="start" x="319" y="-218.3" font-family="Helvetica,sans-Serif" font-size="11.00" fill="#000000">name</text>
<polygon fill="none" stroke="#000000" points="408,-211.2 408,-233.2 475,-233.2 475,-211.2 408,-211.2"/>
<text text-anchor="start" x="410.9365" y="-218.9" font-family="Helvetica,sans-Serif" font-size="11.00" fill="#000000">varchar[255]</text>
<polygon fill="none" stroke="#000000" points="299,-189.2 299,-211.2 408,-211.2 408,-189.2 299,-189.2"/>
<text text-anchor="start" x="319" y="-196.3" font-family="Helvetica,sans-Serif" font-size="11.00" fill="#000000">value</text>
<polygon fill="none" stroke="#000000" points="408,-189.2 408,-211.2 475,-211.2 475,-189.2 408,-189.2"/>
<text text-anchor="start" x="410.9365" y="-196.9" font-family="Helvetica,sans-Serif" font-size="11.00" fill="#000000">varchar[255]</text>
<polygon fill="#ffffff" stroke="transparent" points="299,-167.2 299,-189.2 408,-189.2 408,-167.2 299,-167.2"/>
<polygon fill="none" stroke="#000000" points="299,-167.2 299,-189.2 408,-189.2 408,-167.2 299,-167.2"/>
<image xlink:href="../../images/foreignKeys.png" width="11px" height="12px" preserveAspectRatio="xMinYMin meet" x="304" y="-184.2"/>
<text text-anchor="start" x="319" y="-174.3" font-family="Helvetica,sans-Serif" font-size="11.00" fill="#000000">group_id</text>
<polygon fill="none" stroke="#000000" points="408,-167.2 408,-189.2 475,-189.2 475,-167.2 408,-167.2"/>
<text text-anchor="start" x="411" y="-174.9" font-family="Helvetica,sans-Serif" font-size="11.00" fill="#000000">varchar[36]</text>
<polygon fill="#ffffff" stroke="transparent" points="299,-148.2 299,-167.2 345,-167.2 345,-148.2 299,-148.2"/>
<polygon fill="none" stroke="#000000" points="299,-148.2 299,-167.2 345,-167.2 345,-148.2 299,-148.2"/>
<text text-anchor="start" x="302" y="-154.3" font-family="Helvetica,sans-Serif" font-size="11.00" fill="#000000">&lt; 1</text>
<polygon fill="#ffffff" stroke="transparent" points="345,-148.2 345,-167.2 408,-167.2 408,-148.2 345,-148.2"/>
<polygon fill="none" stroke="#000000" points="345,-148.2 345,-167.2 408,-167.2 408,-148.2 345,-148.2"/>
<text text-anchor="start" x="372.6105" y="-154.3" font-family="Helvetica,sans-Serif" font-size="11.00" fill="#000000">0 rows</text>
<polygon fill="#ffffff" stroke="transparent" points="408,-148.2 408,-167.2 475,-167.2 475,-148.2 408,-148.2"/>
<polygon fill="none" stroke="#000000" points="408,-148.2 408,-167.2 475,-167.2 475,-148.2 408,-148.2"/>
<text text-anchor="start" x="456.4053" y="-154.3" font-family="Helvetica,sans-Serif" font-size="11.00" fill="#000000">0 &gt;</text>
<polygon fill="none" stroke="#000000" stroke-width="2" points="298,-147.2 298,-279.2 476,-279.2 476,-147.2 298,-147.2"/>
</a>
</g>
</g>
<!-- keycloak_group -->
<g id="node2" class="node">
<title>keycloak_group</title>
<g id="a_node2"><a xlink:href="../../tables/keycloak_group.html" xlink:title="keycloak_group" target="_top">
<polygon fill="#ffffff" stroke="transparent" points="128,-38.2 128,-168.2 248,-168.2 248,-38.2 128,-38.2"/>
<polygon fill="#f5f5f5" stroke="transparent" points="128,-145.2 128,-168.2 248,-168.2 248,-145.2 128,-145.2"/>
<polygon fill="none" stroke="#000000" points="128,-145.2 128,-168.2 248,-168.2 248,-145.2 128,-145.2"/>
<text text-anchor="start" x="132.989" y="-154.3" font-family="Helvetica,sans-Serif" font-weight="bold" font-size="11.00" fill="#000000">keycloak_group</text>
<text text-anchor="start" x="213.5219" y="-153.3" font-family="Helvetica,sans-Serif" font-size="11.00" fill="#000000">[table]</text>
<polygon fill="none" stroke="#000000" points="128,-123.2 128,-145.2 248,-145.2 248,-123.2 128,-123.2"/>
<image xlink:href="../../images/primaryKeys.png" width="11px" height="12px" preserveAspectRatio="xMinYMin meet" x="133" y="-140.2"/>
<text text-anchor="start" x="152" y="-130.3" font-family="Helvetica,sans-Serif" font-size="11.00" fill="#000000">id</text>
<polygon fill="#ffffff" stroke="transparent" points="128,-101.2 128,-123.2 248,-123.2 248,-101.2 128,-101.2"/>
<polygon fill="none" stroke="#000000" points="128,-101.2 128,-123.2 248,-123.2 248,-101.2 128,-101.2"/>
<text text-anchor="start" x="152" y="-108.3" font-family="Helvetica,sans-Serif" font-size="11.00" fill="#000000">name</text>
<polygon fill="#ffffff" stroke="transparent" points="128,-79.2 128,-101.2 248,-101.2 248,-79.2 128,-79.2"/>
<polygon fill="none" stroke="#000000" points="128,-79.2 128,-101.2 248,-101.2 248,-79.2 128,-79.2"/>
<text text-anchor="start" x="152" y="-86.3" font-family="Helvetica,sans-Serif" font-size="11.00" fill="#000000">parent_group</text>
<polygon fill="#ffffff" stroke="transparent" points="128,-57.2 128,-79.2 248,-79.2 248,-57.2 128,-57.2"/>
<polygon fill="none" stroke="#000000" points="128,-57.2 128,-79.2 248,-79.2 248,-57.2 128,-57.2"/>
<image xlink:href="../../images/foreignKeys.png" width="11px" height="12px" preserveAspectRatio="xMinYMin meet" x="133" y="-74.2"/>
<text text-anchor="start" x="152" y="-64.3" font-family="Helvetica,sans-Serif" font-size="11.00" fill="#000000">realm_id</text>
<polygon fill="#ffffff" stroke="transparent" points="128,-38.2 128,-57.2 169,-57.2 169,-38.2 128,-38.2"/>
<polygon fill="none" stroke="#000000" points="128,-38.2 128,-57.2 169,-57.2 169,-38.2 128,-38.2"/>
<text text-anchor="start" x="131" y="-44.3" font-family="Helvetica,sans-Serif" font-size="11.00" fill="#000000">&lt; 1</text>
<polygon fill="#ffffff" stroke="transparent" points="169,-38.2 169,-57.2 217,-57.2 217,-38.2 169,-38.2"/>
<polygon fill="none" stroke="#000000" points="169,-38.2 169,-57.2 217,-57.2 217,-38.2 169,-38.2"/>
<text text-anchor="start" x="181.6105" y="-44.3" font-family="Helvetica,sans-Serif" font-size="11.00" fill="#000000">0 rows</text>
<polygon fill="#ffffff" stroke="transparent" points="217,-38.2 217,-57.2 248,-57.2 248,-38.2 217,-38.2"/>
<polygon fill="none" stroke="#000000" points="217,-38.2 217,-57.2 248,-57.2 248,-38.2 217,-38.2"/>
<text text-anchor="start" x="229.4053" y="-44.3" font-family="Helvetica,sans-Serif" font-size="11.00" fill="#000000">2 &gt;</text>
</a>
</g>
</g>
<!-- group_attribute&#45;&gt;keycloak_group -->
<g id="edge1" class="edge">
<title>group_attribute:w&#45;&gt;keycloak_group:e</title>
<path fill="none" stroke="#000000" d="M284.9107,-173.4912C271.0669,-162.1404 271.8557,-134.2 248,-134.2"/>
<polygon fill="#000000" stroke="#000000" points="291.4125,-175.6642 297.8589,-181.6144 295.2063,-176.9321 299,-178.2 299,-178.2 299,-178.2 295.2063,-176.9321 300.1411,-174.7856 291.4125,-175.6642 291.4125,-175.6642"/>
<ellipse fill="none" stroke="#000000" cx="288.3775" cy="-174.6498" rx="3.2" ry="3.2"/>
</g>
<!-- realm -->
<g id="node4" class="node">
<title>realm</title>
<g id="a_node4"><a xlink:href="../../tables/realm.html" xlink:title="realm" target="_top">
<polygon fill="#ffffff" stroke="transparent" points="8,-40.7 8,-101.7 79,-101.7 79,-40.7 8,-40.7"/>
<polygon fill="#f5f5f5" stroke="transparent" points="8.5,-78.2 8.5,-101.2 79.5,-101.2 79.5,-78.2 8.5,-78.2"/>
<polygon fill="none" stroke="#000000" points="8.5,-78.2 8.5,-101.2 79.5,-101.2 79.5,-78.2 8.5,-78.2"/>
<text text-anchor="start" x="13.5" y="-87.3" font-family="Helvetica,sans-Serif" font-weight="bold" font-size="11.00" fill="#000000">realm</text>
<text text-anchor="start" x="45.0219" y="-86.3" font-family="Helvetica,sans-Serif" font-size="11.00" fill="#000000">[table]</text>
<polygon fill="none" stroke="#000000" points="8.5,-59.2 8.5,-78.2 79.5,-78.2 79.5,-59.2 8.5,-59.2"/>
<text text-anchor="start" x="11.5" y="-65.3" font-family="Helvetica,sans-Serif" font-size="11.00" fill="#000000">...</text>
<polygon fill="#ffffff" stroke="transparent" points="8.5,-40.2 8.5,-59.2 20.5,-59.2 20.5,-40.2 8.5,-40.2"/>
<polygon fill="none" stroke="#000000" points="8.5,-40.2 8.5,-59.2 20.5,-59.2 20.5,-40.2 8.5,-40.2"/>
<text text-anchor="start" x="11.4431" y="-46.3" font-family="Helvetica,sans-Serif" font-size="11.00" fill="#000000"> &#160;</text>
<polygon fill="#ffffff" stroke="transparent" points="20.5,-40.2 20.5,-59.2 52.5,-59.2 52.5,-40.2 20.5,-40.2"/>
<polygon fill="none" stroke="#000000" points="20.5,-40.2 20.5,-59.2 52.5,-59.2 52.5,-40.2 20.5,-40.2"/>
<text text-anchor="start" x="23.0553" y="-46.3" font-family="Helvetica,sans-Serif" font-size="11.00" fill="#000000">1 row</text>
<polygon fill="#ffffff" stroke="transparent" points="52.5,-40.2 52.5,-59.2 79.5,-59.2 79.5,-40.2 52.5,-40.2"/>
<polygon fill="none" stroke="#000000" points="52.5,-40.2 52.5,-59.2 79.5,-59.2 79.5,-40.2 52.5,-40.2"/>
<text text-anchor="start" x="55.1452" y="-46.3" font-family="Helvetica,sans-Serif" font-size="11.00" fill="#000000">23 &gt;</text>
</a>
</g>
</g>
<!-- keycloak_group&#45;&gt;realm -->
<g id="edge3" class="edge">
<title>keycloak_group:w&#45;&gt;realm:e</title>
<path fill="none" stroke="#000000" d="M113.2829,-68.2C102.2886,-68.2 95.1615,-68.2 79.5,-68.2"/>
<polygon fill="#000000" stroke="#000000" points="120,-68.2001 128,-71.8 124,-68.2 128,-68.2 128,-68.2 128,-68.2 124,-68.2 128,-64.6 120,-68.2001 120,-68.2001"/>
<ellipse fill="none" stroke="#000000" cx="116.8" cy="-68.2001" rx="3.2" ry="3.2"/>
</g>
<!-- group_role_mapping -->
<g id="node3" class="node">
<title>group_role_mapping</title>
<g id="a_node3"><a xlink:href="../../tables/group_role_mapping.html" xlink:title="group_role_mapping" target="_top">
<polygon fill="#ffffff" stroke="transparent" points="315.5,-63.7 315.5,-124.7 458.5,-124.7 458.5,-63.7 315.5,-63.7"/>
<polygon fill="#f5f5f5" stroke="transparent" points="316,-101.2 316,-124.2 459,-124.2 459,-101.2 316,-101.2"/>
<polygon fill="none" stroke="#000000" points="316,-101.2 316,-124.2 459,-124.2 459,-101.2 316,-101.2"/>
<text text-anchor="start" x="320.5694" y="-110.3" font-family="Helvetica,sans-Serif" font-weight="bold" font-size="11.00" fill="#000000">group_role_mapping</text>
<text text-anchor="start" x="424.5219" y="-109.3" font-family="Helvetica,sans-Serif" font-size="11.00" fill="#000000">[table]</text>
<polygon fill="none" stroke="#000000" points="316,-82.2 316,-101.2 459,-101.2 459,-82.2 316,-82.2"/>
<text text-anchor="start" x="319" y="-88.3" font-family="Helvetica,sans-Serif" font-size="11.00" fill="#000000">...</text>
<polygon fill="#ffffff" stroke="transparent" points="316,-63.2 316,-82.2 373,-82.2 373,-63.2 316,-63.2"/>
<polygon fill="none" stroke="#000000" points="316,-63.2 316,-82.2 373,-82.2 373,-63.2 316,-63.2"/>
<text text-anchor="start" x="319" y="-69.3" font-family="Helvetica,sans-Serif" font-size="11.00" fill="#000000">&lt; 1</text>
<polygon fill="#ffffff" stroke="transparent" points="373,-63.2 373,-82.2 429,-82.2 429,-63.2 373,-63.2"/>
<polygon fill="none" stroke="#000000" points="373,-63.2 373,-82.2 429,-82.2 429,-63.2 373,-63.2"/>
<text text-anchor="start" x="393.6105" y="-69.3" font-family="Helvetica,sans-Serif" font-size="11.00" fill="#000000">0 rows</text>
<polygon fill="#ffffff" stroke="transparent" points="429,-63.2 429,-82.2 459,-82.2 459,-63.2 429,-63.2"/>
<polygon fill="none" stroke="#000000" points="429,-63.2 429,-82.2 459,-82.2 459,-63.2 429,-63.2"/>
<text text-anchor="start" x="449.8862" y="-69.3" font-family="Helvetica,sans-Serif" font-size="11.00" fill="#000000"> &#160;</text>
</a>
</g>
</g>
<!-- group_role_mapping&#45;&gt;keycloak_group -->
<g id="edge2" class="edge">
<title>group_role_mapping:w&#45;&gt;keycloak_group:e</title>
<path fill="none" stroke="#000000" d="M301.8154,-94.0214C280.382,-103.5877 278.1706,-134.2 248,-134.2"/>
<polygon fill="#000000" stroke="#000000" points="308.1537,-92.7607 316.7023,-94.7308 312.0769,-91.9803 316,-91.2 316,-91.2 316,-91.2 312.0769,-91.9803 315.2977,-87.6692 308.1537,-92.7607 308.1537,-92.7607"/>
<ellipse fill="none" stroke="#000000" cx="305.0152" cy="-93.385" rx="3.2" ry="3.2"/>
</g>
</g>
</svg>
