<?xml version="1.0" encoding="UTF-8" standalone="no"?>
<!DOCTYPE svg PUBLIC "-//W3C//DTD SVG 1.1//EN"
 "http://www.w3.org/Graphics/SVG/1.1/DTD/svg11.dtd">
<!-- Generated by graphviz version 2.40.1 (20161225.0304)
 -->
<!-- Title: twoDegreesRelationshipsDiagram Pages: 1 -->
<svg width="621pt" height="201pt"
 viewBox="0.00 0.00 621.00 200.70" xmlns="http://www.w3.org/2000/svg" xmlns:xlink="http://www.w3.org/1999/xlink">
<g id="graph0" class="graph" transform="scale(1 1) rotate(0) translate(4 196.7)">
<title>twoDegreesRelationshipsDiagram</title>
<polygon fill="#ffffff" stroke="transparent" points="-4,4 -4,-196.7 617,-196.7 617,4 -4,4"/>
<text text-anchor="middle" x="72.4936" y="-7.3" font-family="Helvetica,sans-Serif" font-size="11.00" fill="#000000">Generated by SchemaSpy</text>
<!-- identity_provider -->
<g id="node1" class="node">
<title>identity_provider</title>
<g id="a_node1"><a xlink:href="../../tables/identity_provider.html" xlink:title="identity_provider" target="_top">
<polygon fill="#ffffff" stroke="transparent" points="128,-38.2 128,-187.2 301,-187.2 301,-38.2 128,-38.2"/>
<polygon fill="#f5f5f5" stroke="transparent" points="128.5,-163.7 128.5,-186.7 301.5,-186.7 301.5,-163.7 128.5,-163.7"/>
<polygon fill="none" stroke="#000000" points="128.5,-163.7 128.5,-186.7 301.5,-186.7 301.5,-163.7 128.5,-163.7"/>
<text text-anchor="start" x="133.5" y="-172.8" font-family="Helvetica,sans-Serif" font-weight="bold" font-size="11.00" fill="#000000">identity_provider</text>
<text text-anchor="start" x="266.5437" y="-171.8" font-family="Helvetica,sans-Serif" font-size="11.00" fill="#000000">[table]</text>
<polygon fill="none" stroke="#000000" points="128.5,-141.7 128.5,-163.7 301.5,-163.7 301.5,-141.7 128.5,-141.7"/>
<image xlink:href="../../images/primaryKeys.png" width="11px" height="12px" preserveAspectRatio="xMinYMin meet" x="133.5" y="-158.7"/>
<text text-anchor="start" x="148.5" y="-148.8" font-family="Helvetica,sans-Serif" font-size="11.00" fill="#000000">internal_id</text>
<polygon fill="#ffffff" stroke="transparent" points="128.5,-119.7 128.5,-141.7 301.5,-141.7 301.5,-119.7 128.5,-119.7"/>
<polygon fill="none" stroke="#000000" points="128.5,-119.7 128.5,-141.7 301.5,-141.7 301.5,-119.7 128.5,-119.7"/>
<text text-anchor="start" x="148.5" y="-126.8" font-family="Helvetica,sans-Serif" font-size="11.00" fill="#000000">provider_alias</text>
<polygon fill="none" stroke="#000000" points="128.5,-97.7 128.5,-119.7 301.5,-119.7 301.5,-97.7 128.5,-97.7"/>
<image xlink:href="../../images/foreignKeys.png" width="11px" height="12px" preserveAspectRatio="xMinYMin meet" x="133.5" y="-114.7"/>
<text text-anchor="start" x="148.5" y="-104.8" font-family="Helvetica,sans-Serif" font-size="11.00" fill="#000000">provider_id</text>
<polygon fill="#ffffff" stroke="transparent" points="128.5,-75.7 128.5,-97.7 301.5,-97.7 301.5,-75.7 128.5,-75.7"/>
<polygon fill="none" stroke="#000000" points="128.5,-75.7 128.5,-97.7 301.5,-97.7 301.5,-75.7 128.5,-75.7"/>
<image xlink:href="../../images/foreignKeys.png" width="11px" height="12px" preserveAspectRatio="xMinYMin meet" x="133.5" y="-92.7"/>
<text text-anchor="start" x="148.5" y="-82.8" font-family="Helvetica,sans-Serif" font-size="11.00" fill="#000000">realm_id</text>
<polygon fill="none" stroke="#000000" points="128.5,-56.7 128.5,-75.7 301.5,-75.7 301.5,-56.7 128.5,-56.7"/>
<text text-anchor="start" x="131.5" y="-62.8" font-family="Helvetica,sans-Serif" font-size="11.00" fill="#000000">...</text>
<polygon fill="#ffffff" stroke="transparent" points="128.5,-37.7 128.5,-56.7 195.5,-56.7 195.5,-37.7 128.5,-37.7"/>
<polygon fill="none" stroke="#000000" points="128.5,-37.7 128.5,-56.7 195.5,-56.7 195.5,-37.7 128.5,-37.7"/>
<text text-anchor="start" x="131.5" y="-43.8" font-family="Helvetica,sans-Serif" font-size="11.00" fill="#000000">&lt; 1</text>
<polygon fill="#ffffff" stroke="transparent" points="195.5,-37.7 195.5,-56.7 256.5,-56.7 256.5,-37.7 195.5,-37.7"/>
<polygon fill="none" stroke="#000000" points="195.5,-37.7 195.5,-56.7 256.5,-56.7 256.5,-37.7 195.5,-37.7"/>
<text text-anchor="start" x="221.1105" y="-43.8" font-family="Helvetica,sans-Serif" font-size="11.00" fill="#000000">0 rows</text>
<polygon fill="#ffffff" stroke="transparent" points="256.5,-37.7 256.5,-56.7 301.5,-56.7 301.5,-37.7 256.5,-37.7"/>
<polygon fill="none" stroke="#000000" points="256.5,-37.7 256.5,-56.7 301.5,-56.7 301.5,-37.7 256.5,-37.7"/>
<text text-anchor="start" x="282.9053" y="-43.8" font-family="Helvetica,sans-Serif" font-size="11.00" fill="#000000">1 &gt;</text>
</a>
</g>
</g>
<!-- realm -->
<g id="node2" class="node">
<title>realm</title>
<g id="a_node2"><a xlink:href="../../tables/realm.html" xlink:title="realm" target="_top">
<polygon fill="#ffffff" stroke="transparent" points="8,-59.2 8,-120.2 79,-120.2 79,-59.2 8,-59.2"/>
<polygon fill="#f5f5f5" stroke="transparent" points="8.5,-96.7 8.5,-119.7 79.5,-119.7 79.5,-96.7 8.5,-96.7"/>
<polygon fill="none" stroke="#000000" points="8.5,-96.7 8.5,-119.7 79.5,-119.7 79.5,-96.7 8.5,-96.7"/>
<text text-anchor="start" x="13.5" y="-105.8" font-family="Helvetica,sans-Serif" font-weight="bold" font-size="11.00" fill="#000000">realm</text>
<text text-anchor="start" x="45.0219" y="-104.8" font-family="Helvetica,sans-Serif" font-size="11.00" fill="#000000">[table]</text>
<polygon fill="none" stroke="#000000" points="8.5,-77.7 8.5,-96.7 79.5,-96.7 79.5,-77.7 8.5,-77.7"/>
<text text-anchor="start" x="11.5" y="-83.8" font-family="Helvetica,sans-Serif" font-size="11.00" fill="#000000">...</text>
<polygon fill="#ffffff" stroke="transparent" points="8.5,-58.7 8.5,-77.7 20.5,-77.7 20.5,-58.7 8.5,-58.7"/>
<polygon fill="none" stroke="#000000" points="8.5,-58.7 8.5,-77.7 20.5,-77.7 20.5,-58.7 8.5,-58.7"/>
<text text-anchor="start" x="11.4431" y="-64.8" font-family="Helvetica,sans-Serif" font-size="11.00" fill="#000000"> &#160;</text>
<polygon fill="#ffffff" stroke="transparent" points="20.5,-58.7 20.5,-77.7 52.5,-77.7 52.5,-58.7 20.5,-58.7"/>
<polygon fill="none" stroke="#000000" points="20.5,-58.7 20.5,-77.7 52.5,-77.7 52.5,-58.7 20.5,-58.7"/>
<text text-anchor="start" x="23.0553" y="-64.8" font-family="Helvetica,sans-Serif" font-size="11.00" fill="#000000">1 row</text>
<polygon fill="#ffffff" stroke="transparent" points="52.5,-58.7 52.5,-77.7 79.5,-77.7 79.5,-58.7 52.5,-58.7"/>
<polygon fill="none" stroke="#000000" points="52.5,-58.7 52.5,-77.7 79.5,-77.7 79.5,-58.7 52.5,-58.7"/>
<text text-anchor="start" x="55.1452" y="-64.8" font-family="Helvetica,sans-Serif" font-size="11.00" fill="#000000">23 &gt;</text>
</a>
</g>
</g>
<!-- identity_provider&#45;&gt;realm -->
<g id="edge1" class="edge">
<title>identity_provider:w&#45;&gt;realm:e</title>
<path fill="none" stroke="#000000" d="M113.9909,-86.7C102.6774,-86.7 95.4931,-86.7 79.5,-86.7"/>
<polygon fill="#000000" stroke="#000000" points="120.5,-86.7001 128.5,-90.3 124.5,-86.7 128.5,-86.7 128.5,-86.7 128.5,-86.7 124.5,-86.7 128.5,-83.1 120.5,-86.7001 120.5,-86.7001"/>
<ellipse fill="none" stroke="#000000" cx="117.3" cy="-86.7001" rx="3.2" ry="3.2"/>
</g>
<!-- identity_provider_config -->
<g id="node3" class="node">
<title>identity_provider_config</title>
<g id="a_node3"><a xlink:href="../../tables/identity_provider_config.html" xlink:title="identity_provider_config" target="_top">
<polygon fill="#ffffff" stroke="transparent" points="350,-76.7 350,-188.7 605,-188.7 605,-76.7 350,-76.7"/>
<polygon fill="#f5f5f5" stroke="transparent" points="352.5,-163.7 352.5,-186.7 603.5,-186.7 603.5,-163.7 352.5,-163.7"/>
<polygon fill="none" stroke="#000000" points="352.5,-163.7 352.5,-186.7 603.5,-186.7 603.5,-163.7 352.5,-163.7"/>
<text text-anchor="start" x="357.5" y="-172.8" font-family="Helvetica,sans-Serif" font-weight="bold" font-size="11.00" fill="#000000">identity_provider_config</text>
<text text-anchor="start" x="568.5437" y="-171.8" font-family="Helvetica,sans-Serif" font-size="11.00" fill="#000000">[table]</text>
<polygon fill="none" stroke="#000000" points="352.5,-141.7 352.5,-163.7 513.5,-163.7 513.5,-141.7 352.5,-141.7"/>
<image xlink:href="../../images/primaryKeys.png" width="11px" height="12px" preserveAspectRatio="xMinYMin meet" x="357.5" y="-158.7"/>
<text text-anchor="start" x="372.5" y="-148.8" font-family="Helvetica,sans-Serif" font-size="11.00" fill="#000000">identity_provider_id</text>
<polygon fill="none" stroke="#000000" points="513.5,-141.7 513.5,-163.7 603.5,-163.7 603.5,-141.7 513.5,-141.7"/>
<text text-anchor="start" x="516.5" y="-149.4" font-family="Helvetica,sans-Serif" font-size="11.00" fill="#000000">varchar[36]</text>
<polygon fill="none" stroke="#000000" points="352.5,-119.7 352.5,-141.7 513.5,-141.7 513.5,-119.7 352.5,-119.7"/>
<text text-anchor="start" x="372.5" y="-126.8" font-family="Helvetica,sans-Serif" font-size="11.00" fill="#000000">value</text>
<polygon fill="none" stroke="#000000" points="513.5,-119.7 513.5,-141.7 603.5,-141.7 603.5,-119.7 513.5,-119.7"/>
<text text-anchor="start" x="516.0043" y="-127.4" font-family="Helvetica,sans-Serif" font-size="11.00" fill="#000000">text[2147483647]</text>
<polygon fill="none" stroke="#000000" points="352.5,-97.7 352.5,-119.7 513.5,-119.7 513.5,-97.7 352.5,-97.7"/>
<image xlink:href="../../images/primaryKeys.png" width="11px" height="12px" preserveAspectRatio="xMinYMin meet" x="357.5" y="-114.7"/>
<text text-anchor="start" x="372.5" y="-104.8" font-family="Helvetica,sans-Serif" font-size="11.00" fill="#000000">name</text>
<polygon fill="none" stroke="#000000" points="513.5,-97.7 513.5,-119.7 603.5,-119.7 603.5,-97.7 513.5,-97.7"/>
<text text-anchor="start" x="516.5" y="-105.4" font-family="Helvetica,sans-Serif" font-size="11.00" fill="#000000">varchar[255]</text>
<polygon fill="#ffffff" stroke="transparent" points="352.5,-78.7 352.5,-97.7 424.5,-97.7 424.5,-78.7 352.5,-78.7"/>
<polygon fill="none" stroke="#000000" points="352.5,-78.7 352.5,-97.7 424.5,-97.7 424.5,-78.7 352.5,-78.7"/>
<text text-anchor="start" x="355.5" y="-84.8" font-family="Helvetica,sans-Serif" font-size="11.00" fill="#000000">&lt; 1</text>
<polygon fill="#ffffff" stroke="transparent" points="424.5,-78.7 424.5,-97.7 513.5,-97.7 513.5,-78.7 424.5,-78.7"/>
<polygon fill="none" stroke="#000000" points="424.5,-78.7 424.5,-97.7 513.5,-97.7 513.5,-78.7 424.5,-78.7"/>
<text text-anchor="start" x="478.1105" y="-84.8" font-family="Helvetica,sans-Serif" font-size="11.00" fill="#000000">0 rows</text>
<polygon fill="#ffffff" stroke="transparent" points="513.5,-78.7 513.5,-97.7 603.5,-97.7 603.5,-78.7 513.5,-78.7"/>
<polygon fill="none" stroke="#000000" points="513.5,-78.7 513.5,-97.7 603.5,-97.7 603.5,-78.7 513.5,-78.7"/>
<text text-anchor="start" x="584.9053" y="-84.8" font-family="Helvetica,sans-Serif" font-size="11.00" fill="#000000">0 &gt;</text>
<polygon fill="none" stroke="#000000" stroke-width="2" points="351,-77.7 351,-187.7 604,-187.7 604,-77.7 351,-77.7"/>
</a>
</g>
</g>
<!-- identity_provider_config&#45;&gt;identity_provider -->
<g id="edge2" class="edge">
<title>identity_provider_config:w&#45;&gt;identity_provider:e</title>
<path fill="none" stroke="#000000" d="M337.776,-152.7C325.7815,-152.7 318.3229,-152.7 301.5,-152.7"/>
<polygon fill="#000000" stroke="#000000" points="344.5,-152.7001 352.5,-156.3 348.5,-152.7 352.5,-152.7 352.5,-152.7 352.5,-152.7 348.5,-152.7 352.5,-149.1 344.5,-152.7001 344.5,-152.7001"/>
<ellipse fill="none" stroke="#000000" cx="341.3" cy="-152.7001" rx="3.2" ry="3.2"/>
</g>
</g>
</svg>
