<?xml version="1.0" encoding="UTF-8" standalone="no"?>
<!DOCTYPE svg PUBLIC "-//W3C//DTD SVG 1.1//EN"
 "http://www.w3.org/Graphics/SVG/1.1/DTD/svg11.dtd">
<!-- Generated by graphviz version 2.40.1 (20161225.0304)
 -->
<!-- Title: oneDegreeRelationshipsDiagram Pages: 1 -->
<svg width="466pt" height="162pt"
 viewBox="0.00 0.00 466.00 162.20" xmlns="http://www.w3.org/2000/svg" xmlns:xlink="http://www.w3.org/1999/xlink">
<g id="graph0" class="graph" transform="scale(1 1) rotate(0) translate(4 158.2)">
<title>oneDegreeRelationshipsDiagram</title>
<polygon fill="#ffffff" stroke="transparent" points="-4,4 -4,-158.2 462,-158.2 462,4 -4,4"/>
<text text-anchor="middle" x="72.4936" y="-7.3" font-family="Helvetica,sans-Serif" font-size="11.00" fill="#000000">Generated by SchemaSpy</text>
<!-- idp_mapper_config -->
<g id="node1" class="node">
<title>idp_mapper_config</title>
<g id="a_node1"><a xlink:href="../../tables/idp_mapper_config.html" xlink:title="idp_mapper_config" target="_top">
<polygon fill="#ffffff" stroke="transparent" points="225,-38.2 225,-150.2 450,-150.2 450,-38.2 225,-38.2"/>
<polygon fill="#f5f5f5" stroke="transparent" points="227.5,-125.2 227.5,-148.2 448.5,-148.2 448.5,-125.2 227.5,-125.2"/>
<polygon fill="none" stroke="#000000" points="227.5,-125.2 227.5,-148.2 448.5,-148.2 448.5,-125.2 227.5,-125.2"/>
<text text-anchor="start" x="232.5" y="-134.3" font-family="Helvetica,sans-Serif" font-weight="bold" font-size="11.00" fill="#000000">idp_mapper_config</text>
<text text-anchor="start" x="413.5437" y="-133.3" font-family="Helvetica,sans-Serif" font-size="11.00" fill="#000000">[table]</text>
<polygon fill="none" stroke="#000000" points="227.5,-103.2 227.5,-125.2 358.5,-125.2 358.5,-103.2 227.5,-103.2"/>
<image xlink:href="../../images/primaryKeys.png" width="11px" height="12px" preserveAspectRatio="xMinYMin meet" x="232.5" y="-120.2"/>
<text text-anchor="start" x="247.5" y="-110.3" font-family="Helvetica,sans-Serif" font-size="11.00" fill="#000000">idp_mapper_id</text>
<polygon fill="none" stroke="#000000" points="358.5,-103.2 358.5,-125.2 448.5,-125.2 448.5,-103.2 358.5,-103.2"/>
<text text-anchor="start" x="361.5" y="-110.9" font-family="Helvetica,sans-Serif" font-size="11.00" fill="#000000">varchar[36]</text>
<polygon fill="none" stroke="#000000" points="227.5,-81.2 227.5,-103.2 358.5,-103.2 358.5,-81.2 227.5,-81.2"/>
<text text-anchor="start" x="247.5" y="-88.3" font-family="Helvetica,sans-Serif" font-size="11.00" fill="#000000">value</text>
<polygon fill="none" stroke="#000000" points="358.5,-81.2 358.5,-103.2 448.5,-103.2 448.5,-81.2 358.5,-81.2"/>
<text text-anchor="start" x="361.0043" y="-88.9" font-family="Helvetica,sans-Serif" font-size="11.00" fill="#000000">text[2147483647]</text>
<polygon fill="none" stroke="#000000" points="227.5,-59.2 227.5,-81.2 358.5,-81.2 358.5,-59.2 227.5,-59.2"/>
<image xlink:href="../../images/primaryKeys.png" width="11px" height="12px" preserveAspectRatio="xMinYMin meet" x="232.5" y="-76.2"/>
<text text-anchor="start" x="247.5" y="-66.3" font-family="Helvetica,sans-Serif" font-size="11.00" fill="#000000">name</text>
<polygon fill="none" stroke="#000000" points="358.5,-59.2 358.5,-81.2 448.5,-81.2 448.5,-59.2 358.5,-59.2"/>
<text text-anchor="start" x="361.5" y="-66.9" font-family="Helvetica,sans-Serif" font-size="11.00" fill="#000000">varchar[255]</text>
<polygon fill="#ffffff" stroke="transparent" points="227.5,-40.2 227.5,-59.2 284.5,-59.2 284.5,-40.2 227.5,-40.2"/>
<polygon fill="none" stroke="#000000" points="227.5,-40.2 227.5,-59.2 284.5,-59.2 284.5,-40.2 227.5,-40.2"/>
<text text-anchor="start" x="230.5" y="-46.3" font-family="Helvetica,sans-Serif" font-size="11.00" fill="#000000">&lt; 1</text>
<polygon fill="#ffffff" stroke="transparent" points="284.5,-40.2 284.5,-59.2 358.5,-59.2 358.5,-40.2 284.5,-40.2"/>
<polygon fill="none" stroke="#000000" points="284.5,-40.2 284.5,-59.2 358.5,-59.2 358.5,-40.2 284.5,-40.2"/>
<text text-anchor="start" x="323.1105" y="-46.3" font-family="Helvetica,sans-Serif" font-size="11.00" fill="#000000">0 rows</text>
<polygon fill="#ffffff" stroke="transparent" points="358.5,-40.2 358.5,-59.2 448.5,-59.2 448.5,-40.2 358.5,-40.2"/>
<polygon fill="none" stroke="#000000" points="358.5,-40.2 358.5,-59.2 448.5,-59.2 448.5,-40.2 358.5,-40.2"/>
<text text-anchor="start" x="429.9053" y="-46.3" font-family="Helvetica,sans-Serif" font-size="11.00" fill="#000000">0 &gt;</text>
<polygon fill="none" stroke="#000000" stroke-width="2" points="226,-39.2 226,-149.2 449,-149.2 449,-39.2 226,-39.2"/>
</a>
</g>
</g>
<!-- identity_provider_mapper -->
<g id="node2" class="node">
<title>identity_provider_mapper</title>
<g id="a_node2"><a xlink:href="../../tables/identity_provider_mapper.html" xlink:title="identity_provider_mapper" target="_top">
<polygon fill="#ffffff" stroke="transparent" points="8,-43.7 8,-148.7 176,-148.7 176,-43.7 8,-43.7"/>
<polygon fill="#f5f5f5" stroke="transparent" points="8,-125.2 8,-148.2 176,-148.2 176,-125.2 8,-125.2"/>
<polygon fill="none" stroke="#000000" points="8,-125.2 8,-148.2 176,-148.2 176,-125.2 8,-125.2"/>
<text text-anchor="start" x="13" y="-134.3" font-family="Helvetica,sans-Serif" font-weight="bold" font-size="11.00" fill="#000000">identity_provider_mapper</text>
<text text-anchor="start" x="141.5219" y="-133.3" font-family="Helvetica,sans-Serif" font-size="11.00" fill="#000000">[table]</text>
<polygon fill="none" stroke="#000000" points="8,-103.2 8,-125.2 176,-125.2 176,-103.2 8,-103.2"/>
<image xlink:href="../../images/primaryKeys.png" width="11px" height="12px" preserveAspectRatio="xMinYMin meet" x="13" y="-120.2"/>
<text text-anchor="start" x="28" y="-110.3" font-family="Helvetica,sans-Serif" font-size="11.00" fill="#000000">id</text>
<polygon fill="#ffffff" stroke="transparent" points="8,-81.2 8,-103.2 176,-103.2 176,-81.2 8,-81.2"/>
<polygon fill="none" stroke="#000000" points="8,-81.2 8,-103.2 176,-103.2 176,-81.2 8,-81.2"/>
<image xlink:href="../../images/foreignKeys.png" width="11px" height="12px" preserveAspectRatio="xMinYMin meet" x="13" y="-98.2"/>
<text text-anchor="start" x="28" y="-88.3" font-family="Helvetica,sans-Serif" font-size="11.00" fill="#000000">realm_id</text>
<polygon fill="none" stroke="#000000" points="8,-62.2 8,-81.2 176,-81.2 176,-62.2 8,-62.2"/>
<text text-anchor="start" x="11" y="-68.3" font-family="Helvetica,sans-Serif" font-size="11.00" fill="#000000">...</text>
<polygon fill="#ffffff" stroke="transparent" points="8,-43.2 8,-62.2 73,-62.2 73,-43.2 8,-43.2"/>
<polygon fill="none" stroke="#000000" points="8,-43.2 8,-62.2 73,-62.2 73,-43.2 8,-43.2"/>
<text text-anchor="start" x="11" y="-49.3" font-family="Helvetica,sans-Serif" font-size="11.00" fill="#000000">&lt; 1</text>
<polygon fill="#ffffff" stroke="transparent" points="73,-43.2 73,-62.2 133,-62.2 133,-43.2 73,-43.2"/>
<polygon fill="none" stroke="#000000" points="73,-43.2 73,-62.2 133,-62.2 133,-43.2 73,-43.2"/>
<text text-anchor="start" x="97.6105" y="-49.3" font-family="Helvetica,sans-Serif" font-size="11.00" fill="#000000">0 rows</text>
<polygon fill="#ffffff" stroke="transparent" points="133,-43.2 133,-62.2 176,-62.2 176,-43.2 133,-43.2"/>
<polygon fill="none" stroke="#000000" points="133,-43.2 133,-62.2 176,-62.2 176,-43.2 133,-43.2"/>
<text text-anchor="start" x="157.4053" y="-49.3" font-family="Helvetica,sans-Serif" font-size="11.00" fill="#000000">1 &gt;</text>
</a>
</g>
</g>
<!-- idp_mapper_config&#45;&gt;identity_provider_mapper -->
<g id="edge1" class="edge">
<title>idp_mapper_config:w&#45;&gt;identity_provider_mapper:e</title>
<path fill="none" stroke="#000000" d="M213.0156,-114.2C200.6771,-114.2 193.1667,-114.2 176,-114.2"/>
<polygon fill="#000000" stroke="#000000" points="219.5,-114.2001 227.5,-117.8 223.5,-114.2 227.5,-114.2 227.5,-114.2 227.5,-114.2 223.5,-114.2 227.5,-110.6 219.5,-114.2001 219.5,-114.2001"/>
<ellipse fill="none" stroke="#000000" cx="216.3" cy="-114.2001" rx="3.2" ry="3.2"/>
</g>
</g>
</svg>
