<?xml version="1.0" encoding="UTF-8" standalone="no"?>
<!DOCTYPE svg PUBLIC "-//W3C//DTD SVG 1.1//EN"
 "http://www.w3.org/Graphics/SVG/1.1/DTD/svg11.dtd">
<!-- Generated by graphviz version 2.40.1 (20161225.0304)
 -->
<!-- Title: oneDegreeRelationshipsDiagramImplied Pages: 1 -->
<svg width="678pt" height="383pt"
 viewBox="0.00 0.00 678.00 382.70" xmlns="http://www.w3.org/2000/svg" xmlns:xlink="http://www.w3.org/1999/xlink">
<g id="graph0" class="graph" transform="scale(1 1) rotate(0) translate(4 378.7)">
<title>oneDegreeRelationshipsDiagramImplied</title>
<polygon fill="#ffffff" stroke="transparent" points="-4,4 -4,-378.7 674,-378.7 674,4 -4,4"/>
<text text-anchor="middle" x="72.4936" y="-7.3" font-family="Helvetica,sans-Serif" font-size="11.00" fill="#000000">Generated by SchemaSpy</text>
<!-- composite_role -->
<g id="node1" class="node">
<title>composite_role</title>
<g id="a_node1"><a xlink:href="../../tables/composite_role.html" xlink:title="composite_role" target="_top">
<polygon fill="#ffffff" stroke="transparent" points="545,-284.7 545,-370.7 662,-370.7 662,-284.7 545,-284.7"/>
<polygon fill="#f5f5f5" stroke="transparent" points="545.5,-347.7 545.5,-370.7 662.5,-370.7 662.5,-347.7 545.5,-347.7"/>
<polygon fill="none" stroke="#000000" points="545.5,-347.7 545.5,-370.7 662.5,-370.7 662.5,-347.7 545.5,-347.7"/>
<text text-anchor="start" x="550.2166" y="-356.8" font-family="Helvetica,sans-Serif" font-weight="bold" font-size="11.00" fill="#000000">composite_role</text>
<text text-anchor="start" x="628.0219" y="-355.8" font-family="Helvetica,sans-Serif" font-size="11.00" fill="#000000">[table]</text>
<polygon fill="none" stroke="#000000" points="545.5,-325.7 545.5,-347.7 662.5,-347.7 662.5,-325.7 545.5,-325.7"/>
<image xlink:href="../../images/primaryKeys.png" width="11px" height="12px" preserveAspectRatio="xMinYMin meet" x="550.5" y="-342.7"/>
<text text-anchor="start" x="569.5" y="-332.8" font-family="Helvetica,sans-Serif" font-size="11.00" fill="#000000">composite</text>
<polygon fill="none" stroke="#000000" points="545.5,-303.7 545.5,-325.7 662.5,-325.7 662.5,-303.7 545.5,-303.7"/>
<image xlink:href="../../images/primaryKeys.png" width="11px" height="12px" preserveAspectRatio="xMinYMin meet" x="550.5" y="-320.7"/>
<text text-anchor="start" x="569.5" y="-310.8" font-family="Helvetica,sans-Serif" font-size="11.00" fill="#000000">child_role</text>
<polygon fill="#ffffff" stroke="transparent" points="545.5,-284.7 545.5,-303.7 586.5,-303.7 586.5,-284.7 545.5,-284.7"/>
<polygon fill="none" stroke="#000000" points="545.5,-284.7 545.5,-303.7 586.5,-303.7 586.5,-284.7 545.5,-284.7"/>
<text text-anchor="start" x="548.5" y="-290.8" font-family="Helvetica,sans-Serif" font-size="11.00" fill="#000000">&lt; 2</text>
<polygon fill="#ffffff" stroke="transparent" points="586.5,-284.7 586.5,-303.7 640.5,-303.7 640.5,-284.7 586.5,-284.7"/>
<polygon fill="none" stroke="#000000" points="586.5,-284.7 586.5,-303.7 640.5,-303.7 640.5,-284.7 586.5,-284.7"/>
<text text-anchor="start" x="598.9956" y="-290.8" font-family="Helvetica,sans-Serif" font-size="11.00" fill="#000000">24 rows</text>
<polygon fill="#ffffff" stroke="transparent" points="640.5,-284.7 640.5,-303.7 662.5,-303.7 662.5,-284.7 640.5,-284.7"/>
<polygon fill="none" stroke="#000000" points="640.5,-284.7 640.5,-303.7 662.5,-303.7 662.5,-284.7 640.5,-284.7"/>
<text text-anchor="start" x="653.3862" y="-290.8" font-family="Helvetica,sans-Serif" font-size="11.00" fill="#000000"> &#160;</text>
</a>
</g>
</g>
<!-- keycloak_role -->
<g id="node2" class="node">
<title>keycloak_role</title>
<g id="a_node2"><a xlink:href="../../tables/keycloak_role.html" xlink:title="keycloak_role" target="_top">
<polygon fill="#ffffff" stroke="transparent" points="270,-128.7 270,-350.7 496,-350.7 496,-128.7 270,-128.7"/>
<polygon fill="#f5f5f5" stroke="transparent" points="272,-325.7 272,-348.7 494,-348.7 494,-325.7 272,-325.7"/>
<polygon fill="none" stroke="#000000" points="272,-325.7 272,-348.7 494,-348.7 494,-325.7 272,-325.7"/>
<text text-anchor="start" x="277" y="-334.8" font-family="Helvetica,sans-Serif" font-weight="bold" font-size="11.00" fill="#000000">keycloak_role</text>
<text text-anchor="start" x="459.0437" y="-333.8" font-family="Helvetica,sans-Serif" font-size="11.00" fill="#000000">[table]</text>
<polygon fill="none" stroke="#000000" points="272,-303.7 272,-325.7 427,-325.7 427,-303.7 272,-303.7"/>
<image xlink:href="../../images/primaryKeys.png" width="11px" height="12px" preserveAspectRatio="xMinYMin meet" x="277" y="-320.7"/>
<text text-anchor="start" x="292" y="-310.8" font-family="Helvetica,sans-Serif" font-size="11.00" fill="#000000">id</text>
<polygon fill="none" stroke="#000000" points="427,-303.7 427,-325.7 494,-325.7 494,-303.7 427,-303.7"/>
<text text-anchor="start" x="430" y="-311.4" font-family="Helvetica,sans-Serif" font-size="11.00" fill="#000000">varchar[36]</text>
<polygon fill="#ffffff" stroke="transparent" points="272,-281.7 272,-303.7 427,-303.7 427,-281.7 272,-281.7"/>
<polygon fill="none" stroke="#000000" points="272,-281.7 272,-303.7 427,-303.7 427,-281.7 272,-281.7"/>
<text text-anchor="start" x="292" y="-288.8" font-family="Helvetica,sans-Serif" font-size="11.00" fill="#000000">client_realm_constraint</text>
<polygon fill="none" stroke="#000000" points="427,-281.7 427,-303.7 494,-303.7 494,-281.7 427,-281.7"/>
<text text-anchor="start" x="429.9365" y="-289.4" font-family="Helvetica,sans-Serif" font-size="11.00" fill="#000000">varchar[255]</text>
<polygon fill="none" stroke="#000000" points="272,-259.7 272,-281.7 427,-281.7 427,-259.7 272,-259.7"/>
<text text-anchor="start" x="292" y="-266.8" font-family="Helvetica,sans-Serif" font-size="11.00" fill="#000000">client_role</text>
<polygon fill="none" stroke="#000000" points="427,-259.7 427,-281.7 494,-281.7 494,-259.7 427,-259.7"/>
<text text-anchor="start" x="430" y="-267.4" font-family="Helvetica,sans-Serif" font-size="11.00" fill="#000000">bool[1]</text>
<polygon fill="none" stroke="#000000" points="272,-237.7 272,-259.7 427,-259.7 427,-237.7 272,-237.7"/>
<text text-anchor="start" x="292" y="-244.8" font-family="Helvetica,sans-Serif" font-size="11.00" fill="#000000">description</text>
<polygon fill="none" stroke="#000000" points="427,-237.7 427,-259.7 494,-259.7 494,-237.7 427,-237.7"/>
<text text-anchor="start" x="429.9365" y="-245.4" font-family="Helvetica,sans-Serif" font-size="11.00" fill="#000000">varchar[255]</text>
<polygon fill="#ffffff" stroke="transparent" points="272,-215.7 272,-237.7 427,-237.7 427,-215.7 272,-215.7"/>
<polygon fill="none" stroke="#000000" points="272,-215.7 272,-237.7 427,-237.7 427,-215.7 272,-215.7"/>
<text text-anchor="start" x="292" y="-222.8" font-family="Helvetica,sans-Serif" font-size="11.00" fill="#000000">name</text>
<polygon fill="none" stroke="#000000" points="427,-215.7 427,-237.7 494,-237.7 494,-215.7 427,-215.7"/>
<text text-anchor="start" x="429.9365" y="-223.4" font-family="Helvetica,sans-Serif" font-size="11.00" fill="#000000">varchar[255]</text>
<polygon fill="none" stroke="#000000" points="272,-193.7 272,-215.7 427,-215.7 427,-193.7 272,-193.7"/>
<image xlink:href="../../images/foreignKeys.png" width="11px" height="12px" preserveAspectRatio="xMinYMin meet" x="277" y="-210.7"/>
<text text-anchor="start" x="292" y="-200.8" font-family="Helvetica,sans-Serif" font-size="11.00" fill="#000000">realm_id</text>
<polygon fill="none" stroke="#000000" points="427,-193.7 427,-215.7 494,-215.7 494,-193.7 427,-193.7"/>
<text text-anchor="start" x="429.9365" y="-201.4" font-family="Helvetica,sans-Serif" font-size="11.00" fill="#000000">varchar[255]</text>
<polygon fill="#ffffff" stroke="transparent" points="272,-171.7 272,-193.7 427,-193.7 427,-171.7 272,-171.7"/>
<polygon fill="none" stroke="#000000" points="272,-171.7 272,-193.7 427,-193.7 427,-171.7 272,-171.7"/>
<text text-anchor="start" x="292" y="-178.8" font-family="Helvetica,sans-Serif" font-size="11.00" fill="#000000">client</text>
<polygon fill="none" stroke="#000000" points="427,-171.7 427,-193.7 494,-193.7 494,-171.7 427,-171.7"/>
<text text-anchor="start" x="430" y="-179.4" font-family="Helvetica,sans-Serif" font-size="11.00" fill="#000000">varchar[36]</text>
<polygon fill="#ffffff" stroke="transparent" points="272,-149.7 272,-171.7 427,-171.7 427,-149.7 272,-149.7"/>
<polygon fill="none" stroke="#000000" points="272,-149.7 272,-171.7 427,-171.7 427,-149.7 272,-149.7"/>
<image xlink:href="../../images/foreignKeys.png" width="11px" height="12px" preserveAspectRatio="xMinYMin meet" x="277" y="-166.7"/>
<text text-anchor="start" x="292" y="-156.8" font-family="Helvetica,sans-Serif" font-size="11.00" fill="#000000">realm</text>
<polygon fill="none" stroke="#000000" points="427,-149.7 427,-171.7 494,-171.7 494,-149.7 427,-149.7"/>
<text text-anchor="start" x="430" y="-157.4" font-family="Helvetica,sans-Serif" font-size="11.00" fill="#000000">varchar[36]</text>
<polygon fill="#ffffff" stroke="transparent" points="272,-130.7 272,-149.7 338,-149.7 338,-130.7 272,-130.7"/>
<polygon fill="none" stroke="#000000" points="272,-130.7 272,-149.7 338,-149.7 338,-130.7 272,-130.7"/>
<text text-anchor="start" x="275" y="-136.8" font-family="Helvetica,sans-Serif" font-size="11.00" fill="#000000">&lt; 2</text>
<polygon fill="#ffffff" stroke="transparent" points="338,-130.7 338,-149.7 427,-149.7 427,-130.7 338,-130.7"/>
<polygon fill="none" stroke="#000000" points="338,-130.7 338,-149.7 427,-149.7 427,-130.7 338,-130.7"/>
<text text-anchor="start" x="385.4956" y="-136.8" font-family="Helvetica,sans-Serif" font-size="11.00" fill="#000000">30 rows</text>
<polygon fill="#ffffff" stroke="transparent" points="427,-130.7 427,-149.7 494,-149.7 494,-130.7 427,-130.7"/>
<polygon fill="none" stroke="#000000" points="427,-130.7 427,-149.7 494,-149.7 494,-130.7 427,-130.7"/>
<text text-anchor="start" x="475.4053" y="-136.8" font-family="Helvetica,sans-Serif" font-size="11.00" fill="#000000">3 &gt;</text>
<polygon fill="none" stroke="#000000" stroke-width="2" points="271,-129.7 271,-349.7 495,-349.7 495,-129.7 271,-129.7"/>
</a>
</g>
</g>
<!-- composite_role&#45;&gt;keycloak_role -->
<g id="edge1" class="edge">
<title>composite_role:w&#45;&gt;keycloak_role:e</title>
<path fill="none" stroke="#000000" d="M531.0156,-314.7C518.6771,-314.7 511.1667,-314.7 494,-314.7"/>
<polygon fill="#000000" stroke="#000000" points="537.5,-314.7001 545.5,-318.3 541.5,-314.7 545.5,-314.7 545.5,-314.7 545.5,-314.7 541.5,-314.7 545.5,-311.1 537.5,-314.7001 537.5,-314.7001"/>
<ellipse fill="none" stroke="#000000" cx="534.3" cy="-314.7001" rx="3.2" ry="3.2"/>
</g>
<!-- composite_role&#45;&gt;keycloak_role -->
<g id="edge2" class="edge">
<title>composite_role:w&#45;&gt;keycloak_role:e</title>
<path fill="none" stroke="#000000" d="M531.2209,-333.641C518.531,-327.596 513.0563,-314.7 494,-314.7"/>
<polygon fill="#000000" stroke="#000000" points="537.6775,-335.0241 544.7459,-340.2201 541.5887,-335.8621 545.5,-336.7 545.5,-336.7 545.5,-336.7 541.5887,-335.8621 546.2541,-333.1799 537.6775,-335.0241 537.6775,-335.0241"/>
<ellipse fill="none" stroke="#000000" cx="534.5485" cy="-334.3538" rx="3.2" ry="3.2"/>
</g>
<!-- realm -->
<g id="node3" class="node">
<title>realm</title>
<g id="a_node3"><a xlink:href="../../tables/realm.html" xlink:title="realm" target="_top">
<polygon fill="#ffffff" stroke="transparent" points="8,-38.2 8,-165.2 221,-165.2 221,-38.2 8,-38.2"/>
<polygon fill="#f5f5f5" stroke="transparent" points="8.5,-141.7 8.5,-164.7 221.5,-164.7 221.5,-141.7 8.5,-141.7"/>
<polygon fill="none" stroke="#000000" points="8.5,-141.7 8.5,-164.7 221.5,-164.7 221.5,-141.7 8.5,-141.7"/>
<text text-anchor="start" x="13.5" y="-150.8" font-family="Helvetica,sans-Serif" font-weight="bold" font-size="11.00" fill="#000000">realm</text>
<text text-anchor="start" x="186.5437" y="-149.8" font-family="Helvetica,sans-Serif" font-size="11.00" fill="#000000">[table]</text>
<polygon fill="none" stroke="#000000" points="8.5,-119.7 8.5,-141.7 221.5,-141.7 221.5,-119.7 8.5,-119.7"/>
<image xlink:href="../../images/primaryKeys.png" width="11px" height="12px" preserveAspectRatio="xMinYMin meet" x="13.5" y="-136.7"/>
<text text-anchor="start" x="28.5" y="-126.8" font-family="Helvetica,sans-Serif" font-size="11.00" fill="#000000">id</text>
<polygon fill="#ffffff" stroke="transparent" points="8.5,-97.7 8.5,-119.7 221.5,-119.7 221.5,-97.7 8.5,-97.7"/>
<polygon fill="none" stroke="#000000" points="8.5,-97.7 8.5,-119.7 221.5,-119.7 221.5,-97.7 8.5,-97.7"/>
<text text-anchor="start" x="28.5" y="-104.8" font-family="Helvetica,sans-Serif" font-size="11.00" fill="#000000">name</text>
<polygon fill="#ffffff" stroke="transparent" points="8.5,-75.7 8.5,-97.7 221.5,-97.7 221.5,-75.7 8.5,-75.7"/>
<polygon fill="none" stroke="#000000" points="8.5,-75.7 8.5,-97.7 221.5,-97.7 221.5,-75.7 8.5,-75.7"/>
<text text-anchor="start" x="28.5" y="-82.8" font-family="Helvetica,sans-Serif" font-size="11.00" fill="#000000">master_admin_client</text>
<polygon fill="none" stroke="#000000" points="8.5,-56.7 8.5,-75.7 221.5,-75.7 221.5,-56.7 8.5,-56.7"/>
<text text-anchor="start" x="11.5" y="-62.8" font-family="Helvetica,sans-Serif" font-size="11.00" fill="#000000">...</text>
<polygon fill="#ffffff" stroke="transparent" points="8.5,-37.7 8.5,-56.7 91.5,-56.7 91.5,-37.7 8.5,-37.7"/>
<polygon fill="none" stroke="#000000" points="8.5,-37.7 8.5,-56.7 91.5,-56.7 91.5,-37.7 8.5,-37.7"/>
<text text-anchor="start" x="11.5" y="-43.8" font-family="Helvetica,sans-Serif" font-size="11.00" fill="#000000"> &#160;</text>
<polygon fill="#ffffff" stroke="transparent" points="91.5,-37.7 91.5,-56.7 158.5,-56.7 158.5,-37.7 91.5,-37.7"/>
<polygon fill="none" stroke="#000000" points="91.5,-37.7 91.5,-56.7 158.5,-56.7 158.5,-37.7 91.5,-37.7"/>
<text text-anchor="start" x="128.6105" y="-43.8" font-family="Helvetica,sans-Serif" font-size="11.00" fill="#000000">1 row</text>
<polygon fill="#ffffff" stroke="transparent" points="158.5,-37.7 158.5,-56.7 221.5,-56.7 221.5,-37.7 158.5,-37.7"/>
<polygon fill="none" stroke="#000000" points="158.5,-37.7 158.5,-56.7 221.5,-56.7 221.5,-37.7 158.5,-37.7"/>
<text text-anchor="start" x="196.7904" y="-43.8" font-family="Helvetica,sans-Serif" font-size="11.00" fill="#000000">23 &gt;</text>
</a>
</g>
</g>
<!-- keycloak_role&#45;&gt;realm -->
<g id="edge3" class="edge">
<title>keycloak_role:w&#45;&gt;realm:e</title>
<path fill="none" stroke="#000000" d="M257.8928,-156.778C245.2418,-148.6462 241.6915,-130.7 221.5,-130.7"/>
<polygon fill="#000000" stroke="#000000" points="264.2923,-158.5571 271.0357,-164.1685 268.1462,-159.6286 272,-160.7 272,-160.7 272,-160.7 268.1462,-159.6286 272.9643,-157.2315 264.2923,-158.5571 264.2923,-158.5571"/>
<ellipse fill="none" stroke="#000000" cx="261.2092" cy="-157.7" rx="3.2" ry="3.2"/>
</g>
<!-- federated_user -->
<g id="node4" class="node">
<title>federated_user</title>
<g id="a_node4"><a xlink:href="../../tables/federated_user.html" xlink:title="federated_user" target="_top">
<polygon fill="#ffffff" stroke="transparent" points="46.5,-186.2 46.5,-269.2 182.5,-269.2 182.5,-186.2 46.5,-186.2"/>
<polygon fill="#f5f5f5" stroke="transparent" points="46.5,-245.7 46.5,-268.7 182.5,-268.7 182.5,-245.7 46.5,-245.7"/>
<polygon fill="none" stroke="#000000" points="46.5,-245.7 46.5,-268.7 182.5,-268.7 182.5,-245.7 46.5,-245.7"/>
<text text-anchor="start" x="51.5" y="-254.8" font-family="Helvetica,sans-Serif" font-weight="bold" font-size="11.00" fill="#000000">federated_user</text>
<text text-anchor="start" x="147.5437" y="-253.8" font-family="Helvetica,sans-Serif" font-size="11.00" fill="#000000">[table]</text>
<polygon fill="none" stroke="#000000" points="46.5,-223.7 46.5,-245.7 182.5,-245.7 182.5,-223.7 46.5,-223.7"/>
<image xlink:href="../../images/primaryKeys.png" width="11px" height="12px" preserveAspectRatio="xMinYMin meet" x="51.5" y="-240.7"/>
<text text-anchor="start" x="66.5" y="-230.8" font-family="Helvetica,sans-Serif" font-size="11.00" fill="#000000">id</text>
<polygon fill="none" stroke="#000000" points="46.5,-204.7 46.5,-223.7 182.5,-223.7 182.5,-204.7 46.5,-204.7"/>
<text text-anchor="start" x="49.5" y="-210.8" font-family="Helvetica,sans-Serif" font-size="11.00" fill="#000000">...</text>
<polygon fill="#ffffff" stroke="transparent" points="46.5,-185.7 46.5,-204.7 87.5,-204.7 87.5,-185.7 46.5,-185.7"/>
<polygon fill="none" stroke="#000000" points="46.5,-185.7 46.5,-204.7 87.5,-204.7 87.5,-185.7 46.5,-185.7"/>
<text text-anchor="start" x="49.5" y="-191.8" font-family="Helvetica,sans-Serif" font-size="11.00" fill="#000000"> &#160;</text>
<polygon fill="#ffffff" stroke="transparent" points="87.5,-185.7 87.5,-204.7 140.5,-204.7 140.5,-185.7 87.5,-185.7"/>
<polygon fill="none" stroke="#000000" points="87.5,-185.7 87.5,-204.7 140.5,-204.7 140.5,-185.7 87.5,-185.7"/>
<text text-anchor="start" x="105.1105" y="-191.8" font-family="Helvetica,sans-Serif" font-size="11.00" fill="#000000">0 rows</text>
<polygon fill="#ffffff" stroke="transparent" points="140.5,-185.7 140.5,-204.7 182.5,-204.7 182.5,-185.7 140.5,-185.7"/>
<polygon fill="none" stroke="#000000" points="140.5,-185.7 140.5,-204.7 182.5,-204.7 182.5,-185.7 140.5,-185.7"/>
<text text-anchor="start" x="157.7904" y="-191.8" font-family="Helvetica,sans-Serif" font-size="11.00" fill="#000000">30 &gt;</text>
</a>
</g>
</g>
<!-- keycloak_role&#45;&gt;federated_user -->
<g id="edge4" class="edge">
<title>keycloak_role:w&#45;&gt;federated_user:e</title>
<path fill="none" stroke="#000000" stroke-dasharray="5,2" d="M257.4328,-206.067C228.0007,-211.9359 219.0449,-234.7 182.5,-234.7"/>
<polygon fill="#000000" stroke="#000000" points="264.035,-205.4475 272.3364,-208.2843 268.0175,-205.0737 272,-204.7 272,-204.7 272,-204.7 268.0175,-205.0737 271.6636,-201.1157 264.035,-205.4475 264.035,-205.4475"/>
<ellipse fill="none" stroke="#000000" cx="260.849" cy="-205.7465" rx="3.2" ry="3.2"/>
</g>
<!-- role_attribute -->
<g id="node5" class="node">
<title>role_attribute</title>
<g id="a_node5"><a xlink:href="../../tables/role_attribute.html" xlink:title="role_attribute" target="_top">
<polygon fill="#ffffff" stroke="transparent" points="550,-158.2 550,-263.2 657,-263.2 657,-158.2 550,-158.2"/>
<polygon fill="#f5f5f5" stroke="transparent" points="550.5,-239.7 550.5,-262.7 657.5,-262.7 657.5,-239.7 550.5,-239.7"/>
<polygon fill="none" stroke="#000000" points="550.5,-239.7 550.5,-262.7 657.5,-262.7 657.5,-239.7 550.5,-239.7"/>
<text text-anchor="start" x="555.4097" y="-248.8" font-family="Helvetica,sans-Serif" font-weight="bold" font-size="11.00" fill="#000000">role_attribute</text>
<text text-anchor="start" x="623.0219" y="-247.8" font-family="Helvetica,sans-Serif" font-size="11.00" fill="#000000">[table]</text>
<polygon fill="none" stroke="#000000" points="550.5,-217.7 550.5,-239.7 657.5,-239.7 657.5,-217.7 550.5,-217.7"/>
<image xlink:href="../../images/primaryKeys.png" width="11px" height="12px" preserveAspectRatio="xMinYMin meet" x="555.5" y="-234.7"/>
<text text-anchor="start" x="575.5" y="-224.8" font-family="Helvetica,sans-Serif" font-size="11.00" fill="#000000">id</text>
<polygon fill="#ffffff" stroke="transparent" points="550.5,-195.7 550.5,-217.7 657.5,-217.7 657.5,-195.7 550.5,-195.7"/>
<polygon fill="none" stroke="#000000" points="550.5,-195.7 550.5,-217.7 657.5,-217.7 657.5,-195.7 550.5,-195.7"/>
<image xlink:href="../../images/foreignKeys.png" width="11px" height="12px" preserveAspectRatio="xMinYMin meet" x="555.5" y="-212.7"/>
<text text-anchor="start" x="575.5" y="-202.8" font-family="Helvetica,sans-Serif" font-size="11.00" fill="#000000">role_id</text>
<polygon fill="none" stroke="#000000" points="550.5,-176.7 550.5,-195.7 657.5,-195.7 657.5,-176.7 550.5,-176.7"/>
<text text-anchor="start" x="553.5" y="-182.8" font-family="Helvetica,sans-Serif" font-size="11.00" fill="#000000">...</text>
<polygon fill="#ffffff" stroke="transparent" points="550.5,-157.7 550.5,-176.7 589.5,-176.7 589.5,-157.7 550.5,-157.7"/>
<polygon fill="none" stroke="#000000" points="550.5,-157.7 550.5,-176.7 589.5,-176.7 589.5,-157.7 550.5,-157.7"/>
<text text-anchor="start" x="553.5" y="-163.8" font-family="Helvetica,sans-Serif" font-size="11.00" fill="#000000">&lt; 1</text>
<polygon fill="#ffffff" stroke="transparent" points="589.5,-157.7 589.5,-176.7 636.5,-176.7 636.5,-157.7 589.5,-157.7"/>
<polygon fill="none" stroke="#000000" points="589.5,-157.7 589.5,-176.7 636.5,-176.7 636.5,-157.7 589.5,-157.7"/>
<text text-anchor="start" x="601.1105" y="-163.8" font-family="Helvetica,sans-Serif" font-size="11.00" fill="#000000">0 rows</text>
<polygon fill="#ffffff" stroke="transparent" points="636.5,-157.7 636.5,-176.7 657.5,-176.7 657.5,-157.7 636.5,-157.7"/>
<polygon fill="none" stroke="#000000" points="636.5,-157.7 636.5,-176.7 657.5,-176.7 657.5,-157.7 636.5,-157.7"/>
<text text-anchor="start" x="648.3862" y="-163.8" font-family="Helvetica,sans-Serif" font-size="11.00" fill="#000000"> &#160;</text>
</a>
</g>
</g>
<!-- role_attribute&#45;&gt;keycloak_role -->
<g id="edge5" class="edge">
<title>role_attribute:w&#45;&gt;keycloak_role:e</title>
<path fill="none" stroke="#000000" d="M536.2522,-210.2934C506.4008,-229.033 542.2466,-314.7 494,-314.7"/>
<polygon fill="#000000" stroke="#000000" points="542.7429,-208.6564 551.3804,-210.1907 546.6214,-207.6782 550.5,-206.7 550.5,-206.7 550.5,-206.7 546.6214,-207.6782 549.6196,-203.2093 542.7429,-208.6564 542.7429,-208.6564"/>
<ellipse fill="none" stroke="#000000" cx="539.6401" cy="-209.439" rx="3.2" ry="3.2"/>
</g>
</g>
</svg>
