<?xml version="1.0" encoding="UTF-8" standalone="no"?>
<!DOCTYPE svg PUBLIC "-//W3C//DTD SVG 1.1//EN"
 "http://www.w3.org/Graphics/SVG/1.1/DTD/svg11.dtd">
<!-- Generated by graphviz version 2.40.1 (20161225.0304)
 -->
<!-- Title: oneDegreeRelationshipsDiagram Pages: 1 -->
<svg width="661pt" height="328pt"
 viewBox="0.00 0.00 661.00 328.20" xmlns="http://www.w3.org/2000/svg" xmlns:xlink="http://www.w3.org/1999/xlink">
<g id="graph0" class="graph" transform="scale(1 1) rotate(0) translate(4 324.2)">
<title>oneDegreeRelationshipsDiagram</title>
<polygon fill="#ffffff" stroke="transparent" points="-4,4 -4,-324.2 657,-324.2 657,4 -4,4"/>
<text text-anchor="middle" x="72.4936" y="-7.3" font-family="Helvetica,sans-Serif" font-size="11.00" fill="#000000">Generated by SchemaSpy</text>
<!-- group_attribute -->
<g id="node1" class="node">
<title>group_attribute</title>
<g id="a_node1"><a xlink:href="../../tables/group_attribute.html" xlink:title="group_attribute" target="_top">
<polygon fill="#ffffff" stroke="transparent" points="515.5,-211.2 515.5,-316.2 631.5,-316.2 631.5,-211.2 515.5,-211.2"/>
<polygon fill="#f5f5f5" stroke="transparent" points="515.5,-292.7 515.5,-315.7 631.5,-315.7 631.5,-292.7 515.5,-292.7"/>
<polygon fill="none" stroke="#000000" points="515.5,-292.7 515.5,-315.7 631.5,-315.7 631.5,-292.7 515.5,-292.7"/>
<text text-anchor="start" x="520.0153" y="-301.8" font-family="Helvetica,sans-Serif" font-weight="bold" font-size="11.00" fill="#000000">group_attribute</text>
<text text-anchor="start" x="597.0219" y="-300.8" font-family="Helvetica,sans-Serif" font-size="11.00" fill="#000000">[table]</text>
<polygon fill="none" stroke="#000000" points="515.5,-270.7 515.5,-292.7 631.5,-292.7 631.5,-270.7 515.5,-270.7"/>
<image xlink:href="../../images/primaryKeys.png" width="11px" height="12px" preserveAspectRatio="xMinYMin meet" x="520.5" y="-287.7"/>
<text text-anchor="start" x="539.5" y="-277.8" font-family="Helvetica,sans-Serif" font-size="11.00" fill="#000000">id</text>
<polygon fill="#ffffff" stroke="transparent" points="515.5,-248.7 515.5,-270.7 631.5,-270.7 631.5,-248.7 515.5,-248.7"/>
<polygon fill="none" stroke="#000000" points="515.5,-248.7 515.5,-270.7 631.5,-270.7 631.5,-248.7 515.5,-248.7"/>
<image xlink:href="../../images/foreignKeys.png" width="11px" height="12px" preserveAspectRatio="xMinYMin meet" x="520.5" y="-265.7"/>
<text text-anchor="start" x="539.5" y="-255.8" font-family="Helvetica,sans-Serif" font-size="11.00" fill="#000000">group_id</text>
<polygon fill="none" stroke="#000000" points="515.5,-229.7 515.5,-248.7 631.5,-248.7 631.5,-229.7 515.5,-229.7"/>
<text text-anchor="start" x="518.5" y="-235.8" font-family="Helvetica,sans-Serif" font-size="11.00" fill="#000000">...</text>
<polygon fill="#ffffff" stroke="transparent" points="515.5,-210.7 515.5,-229.7 558.5,-229.7 558.5,-210.7 515.5,-210.7"/>
<polygon fill="none" stroke="#000000" points="515.5,-210.7 515.5,-229.7 558.5,-229.7 558.5,-210.7 515.5,-210.7"/>
<text text-anchor="start" x="518.5" y="-216.8" font-family="Helvetica,sans-Serif" font-size="11.00" fill="#000000">&lt; 1</text>
<polygon fill="#ffffff" stroke="transparent" points="558.5,-210.7 558.5,-229.7 607.5,-229.7 607.5,-210.7 558.5,-210.7"/>
<polygon fill="none" stroke="#000000" points="558.5,-210.7 558.5,-229.7 607.5,-229.7 607.5,-210.7 558.5,-210.7"/>
<text text-anchor="start" x="572.1105" y="-216.8" font-family="Helvetica,sans-Serif" font-size="11.00" fill="#000000">0 rows</text>
<polygon fill="#ffffff" stroke="transparent" points="607.5,-210.7 607.5,-229.7 631.5,-229.7 631.5,-210.7 607.5,-210.7"/>
<polygon fill="none" stroke="#000000" points="607.5,-210.7 607.5,-229.7 631.5,-229.7 631.5,-210.7 607.5,-210.7"/>
<text text-anchor="start" x="622.3862" y="-216.8" font-family="Helvetica,sans-Serif" font-size="11.00" fill="#000000"> &#160;</text>
</a>
</g>
</g>
<!-- keycloak_group -->
<g id="node2" class="node">
<title>keycloak_group</title>
<g id="a_node2"><a xlink:href="../../tables/keycloak_group.html" xlink:title="keycloak_group" target="_top">
<polygon fill="#ffffff" stroke="transparent" points="270,-98.7 270,-232.7 453,-232.7 453,-98.7 270,-98.7"/>
<polygon fill="#f5f5f5" stroke="transparent" points="272.5,-207.7 272.5,-230.7 451.5,-230.7 451.5,-207.7 272.5,-207.7"/>
<polygon fill="none" stroke="#000000" points="272.5,-207.7 272.5,-230.7 451.5,-230.7 451.5,-207.7 272.5,-207.7"/>
<text text-anchor="start" x="277.5" y="-216.8" font-family="Helvetica,sans-Serif" font-weight="bold" font-size="11.00" fill="#000000">keycloak_group</text>
<text text-anchor="start" x="416.5437" y="-215.8" font-family="Helvetica,sans-Serif" font-size="11.00" fill="#000000">[table]</text>
<polygon fill="none" stroke="#000000" points="272.5,-185.7 272.5,-207.7 384.5,-207.7 384.5,-185.7 272.5,-185.7"/>
<image xlink:href="../../images/primaryKeys.png" width="11px" height="12px" preserveAspectRatio="xMinYMin meet" x="277.5" y="-202.7"/>
<text text-anchor="start" x="292.5" y="-192.8" font-family="Helvetica,sans-Serif" font-size="11.00" fill="#000000">id</text>
<polygon fill="none" stroke="#000000" points="384.5,-185.7 384.5,-207.7 451.5,-207.7 451.5,-185.7 384.5,-185.7"/>
<text text-anchor="start" x="387.5" y="-193.4" font-family="Helvetica,sans-Serif" font-size="11.00" fill="#000000">varchar[36]</text>
<polygon fill="#ffffff" stroke="transparent" points="272.5,-163.7 272.5,-185.7 384.5,-185.7 384.5,-163.7 272.5,-163.7"/>
<polygon fill="none" stroke="#000000" points="272.5,-163.7 272.5,-185.7 384.5,-185.7 384.5,-163.7 272.5,-163.7"/>
<text text-anchor="start" x="292.5" y="-170.8" font-family="Helvetica,sans-Serif" font-size="11.00" fill="#000000">name</text>
<polygon fill="none" stroke="#000000" points="384.5,-163.7 384.5,-185.7 451.5,-185.7 451.5,-163.7 384.5,-163.7"/>
<text text-anchor="start" x="387.4365" y="-171.4" font-family="Helvetica,sans-Serif" font-size="11.00" fill="#000000">varchar[255]</text>
<polygon fill="#ffffff" stroke="transparent" points="272.5,-141.7 272.5,-163.7 384.5,-163.7 384.5,-141.7 272.5,-141.7"/>
<polygon fill="none" stroke="#000000" points="272.5,-141.7 272.5,-163.7 384.5,-163.7 384.5,-141.7 272.5,-141.7"/>
<text text-anchor="start" x="292.5" y="-148.8" font-family="Helvetica,sans-Serif" font-size="11.00" fill="#000000">parent_group</text>
<polygon fill="none" stroke="#000000" points="384.5,-141.7 384.5,-163.7 451.5,-163.7 451.5,-141.7 384.5,-141.7"/>
<text text-anchor="start" x="387.5" y="-149.4" font-family="Helvetica,sans-Serif" font-size="11.00" fill="#000000">varchar[36]</text>
<polygon fill="#ffffff" stroke="transparent" points="272.5,-119.7 272.5,-141.7 384.5,-141.7 384.5,-119.7 272.5,-119.7"/>
<polygon fill="none" stroke="#000000" points="272.5,-119.7 272.5,-141.7 384.5,-141.7 384.5,-119.7 272.5,-119.7"/>
<image xlink:href="../../images/foreignKeys.png" width="11px" height="12px" preserveAspectRatio="xMinYMin meet" x="277.5" y="-136.7"/>
<text text-anchor="start" x="292.5" y="-126.8" font-family="Helvetica,sans-Serif" font-size="11.00" fill="#000000">realm_id</text>
<polygon fill="none" stroke="#000000" points="384.5,-119.7 384.5,-141.7 451.5,-141.7 451.5,-119.7 384.5,-119.7"/>
<text text-anchor="start" x="387.5" y="-127.4" font-family="Helvetica,sans-Serif" font-size="11.00" fill="#000000">varchar[36]</text>
<polygon fill="#ffffff" stroke="transparent" points="272.5,-100.7 272.5,-119.7 319.5,-119.7 319.5,-100.7 272.5,-100.7"/>
<polygon fill="none" stroke="#000000" points="272.5,-100.7 272.5,-119.7 319.5,-119.7 319.5,-100.7 272.5,-100.7"/>
<text text-anchor="start" x="275.5" y="-106.8" font-family="Helvetica,sans-Serif" font-size="11.00" fill="#000000">&lt; 1</text>
<polygon fill="#ffffff" stroke="transparent" points="319.5,-100.7 319.5,-119.7 384.5,-119.7 384.5,-100.7 319.5,-100.7"/>
<polygon fill="none" stroke="#000000" points="319.5,-100.7 319.5,-119.7 384.5,-119.7 384.5,-100.7 319.5,-100.7"/>
<text text-anchor="start" x="349.1105" y="-106.8" font-family="Helvetica,sans-Serif" font-size="11.00" fill="#000000">0 rows</text>
<polygon fill="#ffffff" stroke="transparent" points="384.5,-100.7 384.5,-119.7 451.5,-119.7 451.5,-100.7 384.5,-100.7"/>
<polygon fill="none" stroke="#000000" points="384.5,-100.7 384.5,-119.7 451.5,-119.7 451.5,-100.7 384.5,-100.7"/>
<text text-anchor="start" x="432.9053" y="-106.8" font-family="Helvetica,sans-Serif" font-size="11.00" fill="#000000">2 &gt;</text>
<polygon fill="none" stroke="#000000" stroke-width="2" points="271,-99.7 271,-231.7 452,-231.7 452,-99.7 271,-99.7"/>
</a>
</g>
</g>
<!-- group_attribute&#45;&gt;keycloak_group -->
<g id="edge1" class="edge">
<title>group_attribute:w&#45;&gt;keycloak_group:e</title>
<path fill="none" stroke="#000000" d="M501.3503,-256.1323C478.9971,-242.8051 485.6447,-196.7 451.5,-196.7"/>
<polygon fill="#000000" stroke="#000000" points="507.7428,-257.7441 514.6198,-263.1908 511.6214,-258.722 515.5,-259.7 515.5,-259.7 515.5,-259.7 511.6214,-258.722 516.3802,-256.2092 507.7428,-257.7441 507.7428,-257.7441"/>
<ellipse fill="none" stroke="#000000" cx="504.6399" cy="-256.9617" rx="3.2" ry="3.2"/>
</g>
<!-- realm -->
<g id="node4" class="node">
<title>realm</title>
<g id="a_node4"><a xlink:href="../../tables/realm.html" xlink:title="realm" target="_top">
<polygon fill="#ffffff" stroke="transparent" points="8,-38.2 8,-165.2 221,-165.2 221,-38.2 8,-38.2"/>
<polygon fill="#f5f5f5" stroke="transparent" points="8.5,-141.7 8.5,-164.7 221.5,-164.7 221.5,-141.7 8.5,-141.7"/>
<polygon fill="none" stroke="#000000" points="8.5,-141.7 8.5,-164.7 221.5,-164.7 221.5,-141.7 8.5,-141.7"/>
<text text-anchor="start" x="13.5" y="-150.8" font-family="Helvetica,sans-Serif" font-weight="bold" font-size="11.00" fill="#000000">realm</text>
<text text-anchor="start" x="186.5437" y="-149.8" font-family="Helvetica,sans-Serif" font-size="11.00" fill="#000000">[table]</text>
<polygon fill="none" stroke="#000000" points="8.5,-119.7 8.5,-141.7 221.5,-141.7 221.5,-119.7 8.5,-119.7"/>
<image xlink:href="../../images/primaryKeys.png" width="11px" height="12px" preserveAspectRatio="xMinYMin meet" x="13.5" y="-136.7"/>
<text text-anchor="start" x="28.5" y="-126.8" font-family="Helvetica,sans-Serif" font-size="11.00" fill="#000000">id</text>
<polygon fill="#ffffff" stroke="transparent" points="8.5,-97.7 8.5,-119.7 221.5,-119.7 221.5,-97.7 8.5,-97.7"/>
<polygon fill="none" stroke="#000000" points="8.5,-97.7 8.5,-119.7 221.5,-119.7 221.5,-97.7 8.5,-97.7"/>
<text text-anchor="start" x="28.5" y="-104.8" font-family="Helvetica,sans-Serif" font-size="11.00" fill="#000000">name</text>
<polygon fill="#ffffff" stroke="transparent" points="8.5,-75.7 8.5,-97.7 221.5,-97.7 221.5,-75.7 8.5,-75.7"/>
<polygon fill="none" stroke="#000000" points="8.5,-75.7 8.5,-97.7 221.5,-97.7 221.5,-75.7 8.5,-75.7"/>
<text text-anchor="start" x="28.5" y="-82.8" font-family="Helvetica,sans-Serif" font-size="11.00" fill="#000000">master_admin_client</text>
<polygon fill="none" stroke="#000000" points="8.5,-56.7 8.5,-75.7 221.5,-75.7 221.5,-56.7 8.5,-56.7"/>
<text text-anchor="start" x="11.5" y="-62.8" font-family="Helvetica,sans-Serif" font-size="11.00" fill="#000000">...</text>
<polygon fill="#ffffff" stroke="transparent" points="8.5,-37.7 8.5,-56.7 91.5,-56.7 91.5,-37.7 8.5,-37.7"/>
<polygon fill="none" stroke="#000000" points="8.5,-37.7 8.5,-56.7 91.5,-56.7 91.5,-37.7 8.5,-37.7"/>
<text text-anchor="start" x="11.5" y="-43.8" font-family="Helvetica,sans-Serif" font-size="11.00" fill="#000000"> &#160;</text>
<polygon fill="#ffffff" stroke="transparent" points="91.5,-37.7 91.5,-56.7 158.5,-56.7 158.5,-37.7 91.5,-37.7"/>
<polygon fill="none" stroke="#000000" points="91.5,-37.7 91.5,-56.7 158.5,-56.7 158.5,-37.7 91.5,-37.7"/>
<text text-anchor="start" x="128.6105" y="-43.8" font-family="Helvetica,sans-Serif" font-size="11.00" fill="#000000">1 row</text>
<polygon fill="#ffffff" stroke="transparent" points="158.5,-37.7 158.5,-56.7 221.5,-56.7 221.5,-37.7 158.5,-37.7"/>
<polygon fill="none" stroke="#000000" points="158.5,-37.7 158.5,-56.7 221.5,-56.7 221.5,-37.7 158.5,-37.7"/>
<text text-anchor="start" x="196.7904" y="-43.8" font-family="Helvetica,sans-Serif" font-size="11.00" fill="#000000">23 &gt;</text>
</a>
</g>
</g>
<!-- keycloak_group&#45;&gt;realm -->
<g id="edge3" class="edge">
<title>keycloak_group:w&#45;&gt;realm:e</title>
<path fill="none" stroke="#000000" d="M257.776,-130.7C245.7815,-130.7 238.3229,-130.7 221.5,-130.7"/>
<polygon fill="#000000" stroke="#000000" points="264.5,-130.7001 272.5,-134.3 268.5,-130.7 272.5,-130.7 272.5,-130.7 272.5,-130.7 268.5,-130.7 272.5,-127.1 264.5,-130.7001 264.5,-130.7001"/>
<ellipse fill="none" stroke="#000000" cx="261.3" cy="-130.7001" rx="3.2" ry="3.2"/>
</g>
<!-- group_role_mapping -->
<g id="node3" class="node">
<title>group_role_mapping</title>
<g id="a_node3"><a xlink:href="../../tables/group_role_mapping.html" xlink:title="group_role_mapping" target="_top">
<polygon fill="#ffffff" stroke="transparent" points="502,-103.7 502,-189.7 645,-189.7 645,-103.7 502,-103.7"/>
<polygon fill="#f5f5f5" stroke="transparent" points="502.5,-166.7 502.5,-189.7 645.5,-189.7 645.5,-166.7 502.5,-166.7"/>
<polygon fill="none" stroke="#000000" points="502.5,-166.7 502.5,-189.7 645.5,-189.7 645.5,-166.7 502.5,-166.7"/>
<text text-anchor="start" x="507.0694" y="-175.8" font-family="Helvetica,sans-Serif" font-weight="bold" font-size="11.00" fill="#000000">group_role_mapping</text>
<text text-anchor="start" x="611.0219" y="-174.8" font-family="Helvetica,sans-Serif" font-size="11.00" fill="#000000">[table]</text>
<polygon fill="none" stroke="#000000" points="502.5,-144.7 502.5,-166.7 645.5,-166.7 645.5,-144.7 502.5,-144.7"/>
<image xlink:href="../../images/primaryKeys.png" width="11px" height="12px" preserveAspectRatio="xMinYMin meet" x="507.5" y="-161.7"/>
<text text-anchor="start" x="524.5" y="-151.8" font-family="Helvetica,sans-Serif" font-size="11.00" fill="#000000">role_id</text>
<polygon fill="none" stroke="#000000" points="502.5,-122.7 502.5,-144.7 645.5,-144.7 645.5,-122.7 502.5,-122.7"/>
<image xlink:href="../../images/primaryKeys.png" width="11px" height="12px" preserveAspectRatio="xMinYMin meet" x="507.5" y="-139.7"/>
<text text-anchor="start" x="524.5" y="-129.8" font-family="Helvetica,sans-Serif" font-size="11.00" fill="#000000">group_id</text>
<polygon fill="#ffffff" stroke="transparent" points="502.5,-103.7 502.5,-122.7 559.5,-122.7 559.5,-103.7 502.5,-103.7"/>
<polygon fill="none" stroke="#000000" points="502.5,-103.7 502.5,-122.7 559.5,-122.7 559.5,-103.7 502.5,-103.7"/>
<text text-anchor="start" x="505.5" y="-109.8" font-family="Helvetica,sans-Serif" font-size="11.00" fill="#000000">&lt; 1</text>
<polygon fill="#ffffff" stroke="transparent" points="559.5,-103.7 559.5,-122.7 615.5,-122.7 615.5,-103.7 559.5,-103.7"/>
<polygon fill="none" stroke="#000000" points="559.5,-103.7 559.5,-122.7 615.5,-122.7 615.5,-103.7 559.5,-103.7"/>
<text text-anchor="start" x="580.1105" y="-109.8" font-family="Helvetica,sans-Serif" font-size="11.00" fill="#000000">0 rows</text>
<polygon fill="#ffffff" stroke="transparent" points="615.5,-103.7 615.5,-122.7 645.5,-122.7 645.5,-103.7 615.5,-103.7"/>
<polygon fill="none" stroke="#000000" points="615.5,-103.7 615.5,-122.7 645.5,-122.7 645.5,-103.7 615.5,-103.7"/>
<text text-anchor="start" x="636.3862" y="-109.8" font-family="Helvetica,sans-Serif" font-size="11.00" fill="#000000"> &#160;</text>
</a>
</g>
</g>
<!-- group_role_mapping&#45;&gt;keycloak_group -->
<g id="edge2" class="edge">
<title>group_role_mapping:w&#45;&gt;keycloak_group:e</title>
<path fill="none" stroke="#000000" d="M488.4033,-138.6435C472.025,-153.4952 481.3329,-196.7 451.5,-196.7"/>
<polygon fill="#000000" stroke="#000000" points="494.9507,-136.3474 503.6913,-137.0972 498.7254,-135.0237 502.5,-133.7 502.5,-133.7 502.5,-133.7 498.7254,-135.0237 501.3087,-130.3028 494.9507,-136.3474 494.9507,-136.3474"/>
<ellipse fill="none" stroke="#000000" cx="491.931" cy="-137.4064" rx="3.2" ry="3.2"/>
</g>
</g>
</svg>
