<?xml version="1.0" encoding="UTF-8" standalone="no"?>
<!DOCTYPE svg PUBLIC "-//W3C//DTD SVG 1.1//EN"
 "http://www.w3.org/Graphics/SVG/1.1/DTD/svg11.dtd">
<!-- Generated by graphviz version 2.40.1 (20161225.0304)
 -->
<!-- Title: oneDegreeRelationshipsDiagram Pages: 1 -->
<svg width="678pt" height="353pt"
 viewBox="0.00 0.00 678.00 352.70" xmlns="http://www.w3.org/2000/svg" xmlns:xlink="http://www.w3.org/1999/xlink">
<g id="graph0" class="graph" transform="scale(1 1) rotate(0) translate(4 348.7)">
<title>oneDegreeRelationshipsDiagram</title>
<polygon fill="#ffffff" stroke="transparent" points="-4,4 -4,-348.7 674,-348.7 674,4 -4,4"/>
<text text-anchor="middle" x="72.4936" y="-7.3" font-family="Helvetica,sans-Serif" font-size="11.00" fill="#000000">Generated by SchemaSpy</text>
<!-- composite_role -->
<g id="node1" class="node">
<title>composite_role</title>
<g id="a_node1"><a xlink:href="../../tables/composite_role.html" xlink:title="composite_role" target="_top">
<polygon fill="#ffffff" stroke="transparent" points="545,-254.7 545,-340.7 662,-340.7 662,-254.7 545,-254.7"/>
<polygon fill="#f5f5f5" stroke="transparent" points="545.5,-317.7 545.5,-340.7 662.5,-340.7 662.5,-317.7 545.5,-317.7"/>
<polygon fill="none" stroke="#000000" points="545.5,-317.7 545.5,-340.7 662.5,-340.7 662.5,-317.7 545.5,-317.7"/>
<text text-anchor="start" x="550.2166" y="-326.8" font-family="Helvetica,sans-Serif" font-weight="bold" font-size="11.00" fill="#000000">composite_role</text>
<text text-anchor="start" x="628.0219" y="-325.8" font-family="Helvetica,sans-Serif" font-size="11.00" fill="#000000">[table]</text>
<polygon fill="none" stroke="#000000" points="545.5,-295.7 545.5,-317.7 662.5,-317.7 662.5,-295.7 545.5,-295.7"/>
<image xlink:href="../../images/primaryKeys.png" width="11px" height="12px" preserveAspectRatio="xMinYMin meet" x="550.5" y="-312.7"/>
<text text-anchor="start" x="569.5" y="-302.8" font-family="Helvetica,sans-Serif" font-size="11.00" fill="#000000">composite</text>
<polygon fill="none" stroke="#000000" points="545.5,-273.7 545.5,-295.7 662.5,-295.7 662.5,-273.7 545.5,-273.7"/>
<image xlink:href="../../images/primaryKeys.png" width="11px" height="12px" preserveAspectRatio="xMinYMin meet" x="550.5" y="-290.7"/>
<text text-anchor="start" x="569.5" y="-280.8" font-family="Helvetica,sans-Serif" font-size="11.00" fill="#000000">child_role</text>
<polygon fill="#ffffff" stroke="transparent" points="545.5,-254.7 545.5,-273.7 586.5,-273.7 586.5,-254.7 545.5,-254.7"/>
<polygon fill="none" stroke="#000000" points="545.5,-254.7 545.5,-273.7 586.5,-273.7 586.5,-254.7 545.5,-254.7"/>
<text text-anchor="start" x="548.5" y="-260.8" font-family="Helvetica,sans-Serif" font-size="11.00" fill="#000000">&lt; 2</text>
<polygon fill="#ffffff" stroke="transparent" points="586.5,-254.7 586.5,-273.7 640.5,-273.7 640.5,-254.7 586.5,-254.7"/>
<polygon fill="none" stroke="#000000" points="586.5,-254.7 586.5,-273.7 640.5,-273.7 640.5,-254.7 586.5,-254.7"/>
<text text-anchor="start" x="598.9956" y="-260.8" font-family="Helvetica,sans-Serif" font-size="11.00" fill="#000000">24 rows</text>
<polygon fill="#ffffff" stroke="transparent" points="640.5,-254.7 640.5,-273.7 662.5,-273.7 662.5,-254.7 640.5,-254.7"/>
<polygon fill="none" stroke="#000000" points="640.5,-254.7 640.5,-273.7 662.5,-273.7 662.5,-254.7 640.5,-254.7"/>
<text text-anchor="start" x="653.3862" y="-260.8" font-family="Helvetica,sans-Serif" font-size="11.00" fill="#000000"> &#160;</text>
</a>
</g>
</g>
<!-- keycloak_role -->
<g id="node2" class="node">
<title>keycloak_role</title>
<g id="a_node2"><a xlink:href="../../tables/keycloak_role.html" xlink:title="keycloak_role" target="_top">
<polygon fill="#ffffff" stroke="transparent" points="270,-98.7 270,-320.7 496,-320.7 496,-98.7 270,-98.7"/>
<polygon fill="#f5f5f5" stroke="transparent" points="272,-295.7 272,-318.7 494,-318.7 494,-295.7 272,-295.7"/>
<polygon fill="none" stroke="#000000" points="272,-295.7 272,-318.7 494,-318.7 494,-295.7 272,-295.7"/>
<text text-anchor="start" x="277" y="-304.8" font-family="Helvetica,sans-Serif" font-weight="bold" font-size="11.00" fill="#000000">keycloak_role</text>
<text text-anchor="start" x="459.0437" y="-303.8" font-family="Helvetica,sans-Serif" font-size="11.00" fill="#000000">[table]</text>
<polygon fill="none" stroke="#000000" points="272,-273.7 272,-295.7 427,-295.7 427,-273.7 272,-273.7"/>
<image xlink:href="../../images/primaryKeys.png" width="11px" height="12px" preserveAspectRatio="xMinYMin meet" x="277" y="-290.7"/>
<text text-anchor="start" x="292" y="-280.8" font-family="Helvetica,sans-Serif" font-size="11.00" fill="#000000">id</text>
<polygon fill="none" stroke="#000000" points="427,-273.7 427,-295.7 494,-295.7 494,-273.7 427,-273.7"/>
<text text-anchor="start" x="430" y="-281.4" font-family="Helvetica,sans-Serif" font-size="11.00" fill="#000000">varchar[36]</text>
<polygon fill="#ffffff" stroke="transparent" points="272,-251.7 272,-273.7 427,-273.7 427,-251.7 272,-251.7"/>
<polygon fill="none" stroke="#000000" points="272,-251.7 272,-273.7 427,-273.7 427,-251.7 272,-251.7"/>
<text text-anchor="start" x="292" y="-258.8" font-family="Helvetica,sans-Serif" font-size="11.00" fill="#000000">client_realm_constraint</text>
<polygon fill="none" stroke="#000000" points="427,-251.7 427,-273.7 494,-273.7 494,-251.7 427,-251.7"/>
<text text-anchor="start" x="429.9365" y="-259.4" font-family="Helvetica,sans-Serif" font-size="11.00" fill="#000000">varchar[255]</text>
<polygon fill="none" stroke="#000000" points="272,-229.7 272,-251.7 427,-251.7 427,-229.7 272,-229.7"/>
<text text-anchor="start" x="292" y="-236.8" font-family="Helvetica,sans-Serif" font-size="11.00" fill="#000000">client_role</text>
<polygon fill="none" stroke="#000000" points="427,-229.7 427,-251.7 494,-251.7 494,-229.7 427,-229.7"/>
<text text-anchor="start" x="430" y="-237.4" font-family="Helvetica,sans-Serif" font-size="11.00" fill="#000000">bool[1]</text>
<polygon fill="none" stroke="#000000" points="272,-207.7 272,-229.7 427,-229.7 427,-207.7 272,-207.7"/>
<text text-anchor="start" x="292" y="-214.8" font-family="Helvetica,sans-Serif" font-size="11.00" fill="#000000">description</text>
<polygon fill="none" stroke="#000000" points="427,-207.7 427,-229.7 494,-229.7 494,-207.7 427,-207.7"/>
<text text-anchor="start" x="429.9365" y="-215.4" font-family="Helvetica,sans-Serif" font-size="11.00" fill="#000000">varchar[255]</text>
<polygon fill="#ffffff" stroke="transparent" points="272,-185.7 272,-207.7 427,-207.7 427,-185.7 272,-185.7"/>
<polygon fill="none" stroke="#000000" points="272,-185.7 272,-207.7 427,-207.7 427,-185.7 272,-185.7"/>
<text text-anchor="start" x="292" y="-192.8" font-family="Helvetica,sans-Serif" font-size="11.00" fill="#000000">name</text>
<polygon fill="none" stroke="#000000" points="427,-185.7 427,-207.7 494,-207.7 494,-185.7 427,-185.7"/>
<text text-anchor="start" x="429.9365" y="-193.4" font-family="Helvetica,sans-Serif" font-size="11.00" fill="#000000">varchar[255]</text>
<polygon fill="none" stroke="#000000" points="272,-163.7 272,-185.7 427,-185.7 427,-163.7 272,-163.7"/>
<image xlink:href="../../images/foreignKeys.png" width="11px" height="12px" preserveAspectRatio="xMinYMin meet" x="277" y="-180.7"/>
<text text-anchor="start" x="292" y="-170.8" font-family="Helvetica,sans-Serif" font-size="11.00" fill="#000000">realm_id</text>
<polygon fill="none" stroke="#000000" points="427,-163.7 427,-185.7 494,-185.7 494,-163.7 427,-163.7"/>
<text text-anchor="start" x="429.9365" y="-171.4" font-family="Helvetica,sans-Serif" font-size="11.00" fill="#000000">varchar[255]</text>
<polygon fill="#ffffff" stroke="transparent" points="272,-141.7 272,-163.7 427,-163.7 427,-141.7 272,-141.7"/>
<polygon fill="none" stroke="#000000" points="272,-141.7 272,-163.7 427,-163.7 427,-141.7 272,-141.7"/>
<text text-anchor="start" x="292" y="-148.8" font-family="Helvetica,sans-Serif" font-size="11.00" fill="#000000">client</text>
<polygon fill="none" stroke="#000000" points="427,-141.7 427,-163.7 494,-163.7 494,-141.7 427,-141.7"/>
<text text-anchor="start" x="430" y="-149.4" font-family="Helvetica,sans-Serif" font-size="11.00" fill="#000000">varchar[36]</text>
<polygon fill="#ffffff" stroke="transparent" points="272,-119.7 272,-141.7 427,-141.7 427,-119.7 272,-119.7"/>
<polygon fill="none" stroke="#000000" points="272,-119.7 272,-141.7 427,-141.7 427,-119.7 272,-119.7"/>
<image xlink:href="../../images/foreignKeys.png" width="11px" height="12px" preserveAspectRatio="xMinYMin meet" x="277" y="-136.7"/>
<text text-anchor="start" x="292" y="-126.8" font-family="Helvetica,sans-Serif" font-size="11.00" fill="#000000">realm</text>
<polygon fill="none" stroke="#000000" points="427,-119.7 427,-141.7 494,-141.7 494,-119.7 427,-119.7"/>
<text text-anchor="start" x="430" y="-127.4" font-family="Helvetica,sans-Serif" font-size="11.00" fill="#000000">varchar[36]</text>
<polygon fill="#ffffff" stroke="transparent" points="272,-100.7 272,-119.7 338,-119.7 338,-100.7 272,-100.7"/>
<polygon fill="none" stroke="#000000" points="272,-100.7 272,-119.7 338,-119.7 338,-100.7 272,-100.7"/>
<text text-anchor="start" x="275" y="-106.8" font-family="Helvetica,sans-Serif" font-size="11.00" fill="#000000">&lt; 1</text>
<polygon fill="#ffffff" stroke="transparent" points="338,-100.7 338,-119.7 427,-119.7 427,-100.7 338,-100.7"/>
<polygon fill="none" stroke="#000000" points="338,-100.7 338,-119.7 427,-119.7 427,-100.7 338,-100.7"/>
<text text-anchor="start" x="385.4956" y="-106.8" font-family="Helvetica,sans-Serif" font-size="11.00" fill="#000000">30 rows</text>
<polygon fill="#ffffff" stroke="transparent" points="427,-100.7 427,-119.7 494,-119.7 494,-100.7 427,-100.7"/>
<polygon fill="none" stroke="#000000" points="427,-100.7 427,-119.7 494,-119.7 494,-100.7 427,-100.7"/>
<text text-anchor="start" x="475.4053" y="-106.8" font-family="Helvetica,sans-Serif" font-size="11.00" fill="#000000">3 &gt;</text>
<polygon fill="none" stroke="#000000" stroke-width="2" points="271,-99.7 271,-319.7 495,-319.7 495,-99.7 271,-99.7"/>
</a>
</g>
</g>
<!-- composite_role&#45;&gt;keycloak_role -->
<g id="edge1" class="edge">
<title>composite_role:w&#45;&gt;keycloak_role:e</title>
<path fill="none" stroke="#000000" d="M531.0156,-284.7C518.6771,-284.7 511.1667,-284.7 494,-284.7"/>
<polygon fill="#000000" stroke="#000000" points="537.5,-284.7001 545.5,-288.3 541.5,-284.7 545.5,-284.7 545.5,-284.7 545.5,-284.7 541.5,-284.7 545.5,-281.1 537.5,-284.7001 537.5,-284.7001"/>
<ellipse fill="none" stroke="#000000" cx="534.3" cy="-284.7001" rx="3.2" ry="3.2"/>
</g>
<!-- composite_role&#45;&gt;keycloak_role -->
<g id="edge2" class="edge">
<title>composite_role:w&#45;&gt;keycloak_role:e</title>
<path fill="none" stroke="#000000" d="M531.2209,-303.641C518.531,-297.596 513.0563,-284.7 494,-284.7"/>
<polygon fill="#000000" stroke="#000000" points="537.6775,-305.0241 544.7459,-310.2201 541.5887,-305.8621 545.5,-306.7 545.5,-306.7 545.5,-306.7 541.5887,-305.8621 546.2541,-303.1799 537.6775,-305.0241 537.6775,-305.0241"/>
<ellipse fill="none" stroke="#000000" cx="534.5485" cy="-304.3538" rx="3.2" ry="3.2"/>
</g>
<!-- realm -->
<g id="node3" class="node">
<title>realm</title>
<g id="a_node3"><a xlink:href="../../tables/realm.html" xlink:title="realm" target="_top">
<polygon fill="#ffffff" stroke="transparent" points="8,-38.2 8,-165.2 221,-165.2 221,-38.2 8,-38.2"/>
<polygon fill="#f5f5f5" stroke="transparent" points="8.5,-141.7 8.5,-164.7 221.5,-164.7 221.5,-141.7 8.5,-141.7"/>
<polygon fill="none" stroke="#000000" points="8.5,-141.7 8.5,-164.7 221.5,-164.7 221.5,-141.7 8.5,-141.7"/>
<text text-anchor="start" x="13.5" y="-150.8" font-family="Helvetica,sans-Serif" font-weight="bold" font-size="11.00" fill="#000000">realm</text>
<text text-anchor="start" x="186.5437" y="-149.8" font-family="Helvetica,sans-Serif" font-size="11.00" fill="#000000">[table]</text>
<polygon fill="none" stroke="#000000" points="8.5,-119.7 8.5,-141.7 221.5,-141.7 221.5,-119.7 8.5,-119.7"/>
<image xlink:href="../../images/primaryKeys.png" width="11px" height="12px" preserveAspectRatio="xMinYMin meet" x="13.5" y="-136.7"/>
<text text-anchor="start" x="28.5" y="-126.8" font-family="Helvetica,sans-Serif" font-size="11.00" fill="#000000">id</text>
<polygon fill="#ffffff" stroke="transparent" points="8.5,-97.7 8.5,-119.7 221.5,-119.7 221.5,-97.7 8.5,-97.7"/>
<polygon fill="none" stroke="#000000" points="8.5,-97.7 8.5,-119.7 221.5,-119.7 221.5,-97.7 8.5,-97.7"/>
<text text-anchor="start" x="28.5" y="-104.8" font-family="Helvetica,sans-Serif" font-size="11.00" fill="#000000">name</text>
<polygon fill="#ffffff" stroke="transparent" points="8.5,-75.7 8.5,-97.7 221.5,-97.7 221.5,-75.7 8.5,-75.7"/>
<polygon fill="none" stroke="#000000" points="8.5,-75.7 8.5,-97.7 221.5,-97.7 221.5,-75.7 8.5,-75.7"/>
<text text-anchor="start" x="28.5" y="-82.8" font-family="Helvetica,sans-Serif" font-size="11.00" fill="#000000">master_admin_client</text>
<polygon fill="none" stroke="#000000" points="8.5,-56.7 8.5,-75.7 221.5,-75.7 221.5,-56.7 8.5,-56.7"/>
<text text-anchor="start" x="11.5" y="-62.8" font-family="Helvetica,sans-Serif" font-size="11.00" fill="#000000">...</text>
<polygon fill="#ffffff" stroke="transparent" points="8.5,-37.7 8.5,-56.7 91.5,-56.7 91.5,-37.7 8.5,-37.7"/>
<polygon fill="none" stroke="#000000" points="8.5,-37.7 8.5,-56.7 91.5,-56.7 91.5,-37.7 8.5,-37.7"/>
<text text-anchor="start" x="11.5" y="-43.8" font-family="Helvetica,sans-Serif" font-size="11.00" fill="#000000"> &#160;</text>
<polygon fill="#ffffff" stroke="transparent" points="91.5,-37.7 91.5,-56.7 158.5,-56.7 158.5,-37.7 91.5,-37.7"/>
<polygon fill="none" stroke="#000000" points="91.5,-37.7 91.5,-56.7 158.5,-56.7 158.5,-37.7 91.5,-37.7"/>
<text text-anchor="start" x="128.6105" y="-43.8" font-family="Helvetica,sans-Serif" font-size="11.00" fill="#000000">1 row</text>
<polygon fill="#ffffff" stroke="transparent" points="158.5,-37.7 158.5,-56.7 221.5,-56.7 221.5,-37.7 158.5,-37.7"/>
<polygon fill="none" stroke="#000000" points="158.5,-37.7 158.5,-56.7 221.5,-56.7 221.5,-37.7 158.5,-37.7"/>
<text text-anchor="start" x="196.7904" y="-43.8" font-family="Helvetica,sans-Serif" font-size="11.00" fill="#000000">23 &gt;</text>
</a>
</g>
</g>
<!-- keycloak_role&#45;&gt;realm -->
<g id="edge3" class="edge">
<title>keycloak_role:w&#45;&gt;realm:e</title>
<path fill="none" stroke="#000000" d="M257.4203,-130.7C245.5435,-130.7 238.158,-130.7 221.5,-130.7"/>
<polygon fill="#000000" stroke="#000000" points="264,-130.7001 272,-134.3 268,-130.7 272,-130.7 272,-130.7 272,-130.7 268,-130.7 272,-127.1 264,-130.7001 264,-130.7001"/>
<ellipse fill="none" stroke="#000000" cx="260.8" cy="-130.7001" rx="3.2" ry="3.2"/>
</g>
<!-- role_attribute -->
<g id="node4" class="node">
<title>role_attribute</title>
<g id="a_node4"><a xlink:href="../../tables/role_attribute.html" xlink:title="role_attribute" target="_top">
<polygon fill="#ffffff" stroke="transparent" points="550,-128.2 550,-233.2 657,-233.2 657,-128.2 550,-128.2"/>
<polygon fill="#f5f5f5" stroke="transparent" points="550.5,-209.7 550.5,-232.7 657.5,-232.7 657.5,-209.7 550.5,-209.7"/>
<polygon fill="none" stroke="#000000" points="550.5,-209.7 550.5,-232.7 657.5,-232.7 657.5,-209.7 550.5,-209.7"/>
<text text-anchor="start" x="555.4097" y="-218.8" font-family="Helvetica,sans-Serif" font-weight="bold" font-size="11.00" fill="#000000">role_attribute</text>
<text text-anchor="start" x="623.0219" y="-217.8" font-family="Helvetica,sans-Serif" font-size="11.00" fill="#000000">[table]</text>
<polygon fill="none" stroke="#000000" points="550.5,-187.7 550.5,-209.7 657.5,-209.7 657.5,-187.7 550.5,-187.7"/>
<image xlink:href="../../images/primaryKeys.png" width="11px" height="12px" preserveAspectRatio="xMinYMin meet" x="555.5" y="-204.7"/>
<text text-anchor="start" x="575.5" y="-194.8" font-family="Helvetica,sans-Serif" font-size="11.00" fill="#000000">id</text>
<polygon fill="#ffffff" stroke="transparent" points="550.5,-165.7 550.5,-187.7 657.5,-187.7 657.5,-165.7 550.5,-165.7"/>
<polygon fill="none" stroke="#000000" points="550.5,-165.7 550.5,-187.7 657.5,-187.7 657.5,-165.7 550.5,-165.7"/>
<image xlink:href="../../images/foreignKeys.png" width="11px" height="12px" preserveAspectRatio="xMinYMin meet" x="555.5" y="-182.7"/>
<text text-anchor="start" x="575.5" y="-172.8" font-family="Helvetica,sans-Serif" font-size="11.00" fill="#000000">role_id</text>
<polygon fill="none" stroke="#000000" points="550.5,-146.7 550.5,-165.7 657.5,-165.7 657.5,-146.7 550.5,-146.7"/>
<text text-anchor="start" x="553.5" y="-152.8" font-family="Helvetica,sans-Serif" font-size="11.00" fill="#000000">...</text>
<polygon fill="#ffffff" stroke="transparent" points="550.5,-127.7 550.5,-146.7 589.5,-146.7 589.5,-127.7 550.5,-127.7"/>
<polygon fill="none" stroke="#000000" points="550.5,-127.7 550.5,-146.7 589.5,-146.7 589.5,-127.7 550.5,-127.7"/>
<text text-anchor="start" x="553.5" y="-133.8" font-family="Helvetica,sans-Serif" font-size="11.00" fill="#000000">&lt; 1</text>
<polygon fill="#ffffff" stroke="transparent" points="589.5,-127.7 589.5,-146.7 636.5,-146.7 636.5,-127.7 589.5,-127.7"/>
<polygon fill="none" stroke="#000000" points="589.5,-127.7 589.5,-146.7 636.5,-146.7 636.5,-127.7 589.5,-127.7"/>
<text text-anchor="start" x="601.1105" y="-133.8" font-family="Helvetica,sans-Serif" font-size="11.00" fill="#000000">0 rows</text>
<polygon fill="#ffffff" stroke="transparent" points="636.5,-127.7 636.5,-146.7 657.5,-146.7 657.5,-127.7 636.5,-127.7"/>
<polygon fill="none" stroke="#000000" points="636.5,-127.7 636.5,-146.7 657.5,-146.7 657.5,-127.7 636.5,-127.7"/>
<text text-anchor="start" x="648.3862" y="-133.8" font-family="Helvetica,sans-Serif" font-size="11.00" fill="#000000"> &#160;</text>
</a>
</g>
</g>
<!-- role_attribute&#45;&gt;keycloak_role -->
<g id="edge4" class="edge">
<title>role_attribute:w&#45;&gt;keycloak_role:e</title>
<path fill="none" stroke="#000000" d="M536.2522,-180.2934C506.4008,-199.033 542.2466,-284.7 494,-284.7"/>
<polygon fill="#000000" stroke="#000000" points="542.7429,-178.6564 551.3804,-180.1907 546.6214,-177.6782 550.5,-176.7 550.5,-176.7 550.5,-176.7 546.6214,-177.6782 549.6196,-173.2093 542.7429,-178.6564 542.7429,-178.6564"/>
<ellipse fill="none" stroke="#000000" cx="539.6401" cy="-179.439" rx="3.2" ry="3.2"/>
</g>
</g>
</svg>
