<?xml version="1.0" encoding="UTF-8" standalone="no"?>
<!DOCTYPE svg PUBLIC "-//W3C//DTD SVG 1.1//EN"
 "http://www.w3.org/Graphics/SVG/1.1/DTD/svg11.dtd">
<!-- Generated by graphviz version 2.40.1 (20161225.0304)
 -->
<!-- Title: twoDegreesRelationshipsDiagram Pages: 1 -->
<svg width="553pt" height="715pt"
 viewBox="0.00 0.00 553.00 715.20" xmlns="http://www.w3.org/2000/svg" xmlns:xlink="http://www.w3.org/1999/xlink">
<g id="graph0" class="graph" transform="scale(1 1) rotate(0) translate(4 711.2)">
<title>twoDegreesRelationshipsDiagram</title>
<polygon fill="#ffffff" stroke="transparent" points="-4,4 -4,-711.2 549,-711.2 549,4 -4,4"/>
<text text-anchor="middle" x="72.4936" y="-7.3" font-family="Helvetica,sans-Serif" font-size="11.00" fill="#000000">Generated by SchemaSpy</text>
<!-- client -->
<g id="node1" class="node">
<title>client</title>
<g id="a_node1"><a xlink:href="../../tables/client.html" xlink:title="client" target="_top">
<polygon fill="#ffffff" stroke="transparent" points="128,-290.2 128,-417.2 323,-417.2 323,-290.2 128,-290.2"/>
<polygon fill="#f5f5f5" stroke="transparent" points="128.5,-393.7 128.5,-416.7 323.5,-416.7 323.5,-393.7 128.5,-393.7"/>
<polygon fill="none" stroke="#000000" points="128.5,-393.7 128.5,-416.7 323.5,-416.7 323.5,-393.7 128.5,-393.7"/>
<text text-anchor="start" x="133.5" y="-402.8" font-family="Helvetica,sans-Serif" font-weight="bold" font-size="11.00" fill="#000000">client</text>
<text text-anchor="start" x="288.5437" y="-401.8" font-family="Helvetica,sans-Serif" font-size="11.00" fill="#000000">[table]</text>
<polygon fill="none" stroke="#000000" points="128.5,-371.7 128.5,-393.7 323.5,-393.7 323.5,-371.7 128.5,-371.7"/>
<image xlink:href="../../images/primaryKeys.png" width="11px" height="12px" preserveAspectRatio="xMinYMin meet" x="133.5" y="-388.7"/>
<text text-anchor="start" x="148.5" y="-378.8" font-family="Helvetica,sans-Serif" font-size="11.00" fill="#000000">id</text>
<polygon fill="#ffffff" stroke="transparent" points="128.5,-349.7 128.5,-371.7 323.5,-371.7 323.5,-349.7 128.5,-349.7"/>
<polygon fill="none" stroke="#000000" points="128.5,-349.7 128.5,-371.7 323.5,-371.7 323.5,-349.7 128.5,-349.7"/>
<image xlink:href="../../images/foreignKeys.png" width="11px" height="12px" preserveAspectRatio="xMinYMin meet" x="133.5" y="-366.7"/>
<text text-anchor="start" x="148.5" y="-356.8" font-family="Helvetica,sans-Serif" font-size="11.00" fill="#000000">client_id</text>
<polygon fill="#ffffff" stroke="transparent" points="128.5,-327.7 128.5,-349.7 323.5,-349.7 323.5,-327.7 128.5,-327.7"/>
<polygon fill="none" stroke="#000000" points="128.5,-327.7 128.5,-349.7 323.5,-349.7 323.5,-327.7 128.5,-327.7"/>
<image xlink:href="../../images/foreignKeys.png" width="11px" height="12px" preserveAspectRatio="xMinYMin meet" x="133.5" y="-344.7"/>
<text text-anchor="start" x="148.5" y="-334.8" font-family="Helvetica,sans-Serif" font-size="11.00" fill="#000000">realm_id</text>
<polygon fill="none" stroke="#000000" points="128.5,-308.7 128.5,-327.7 323.5,-327.7 323.5,-308.7 128.5,-308.7"/>
<text text-anchor="start" x="131.5" y="-314.8" font-family="Helvetica,sans-Serif" font-size="11.00" fill="#000000">...</text>
<polygon fill="#ffffff" stroke="transparent" points="128.5,-289.7 128.5,-308.7 206.5,-308.7 206.5,-289.7 128.5,-289.7"/>
<polygon fill="none" stroke="#000000" points="128.5,-289.7 128.5,-308.7 206.5,-308.7 206.5,-289.7 128.5,-289.7"/>
<text text-anchor="start" x="131.5" y="-295.8" font-family="Helvetica,sans-Serif" font-size="11.00" fill="#000000">&lt; 1</text>
<polygon fill="#ffffff" stroke="transparent" points="206.5,-289.7 206.5,-308.7 273.5,-308.7 273.5,-289.7 206.5,-289.7"/>
<polygon fill="none" stroke="#000000" points="206.5,-289.7 206.5,-308.7 273.5,-308.7 273.5,-289.7 206.5,-289.7"/>
<text text-anchor="start" x="238.1105" y="-295.8" font-family="Helvetica,sans-Serif" font-size="11.00" fill="#000000">6 rows</text>
<polygon fill="#ffffff" stroke="transparent" points="273.5,-289.7 273.5,-308.7 323.5,-308.7 323.5,-289.7 273.5,-289.7"/>
<polygon fill="none" stroke="#000000" points="273.5,-289.7 273.5,-308.7 323.5,-308.7 323.5,-289.7 273.5,-289.7"/>
<text text-anchor="start" x="304.9053" y="-295.8" font-family="Helvetica,sans-Serif" font-size="11.00" fill="#000000">8 &gt;</text>
</a>
</g>
</g>
<!-- realm -->
<g id="node2" class="node">
<title>realm</title>
<g id="a_node2"><a xlink:href="../../tables/realm.html" xlink:title="realm" target="_top">
<polygon fill="#ffffff" stroke="transparent" points="8,-311.2 8,-372.2 79,-372.2 79,-311.2 8,-311.2"/>
<polygon fill="#f5f5f5" stroke="transparent" points="8.5,-348.7 8.5,-371.7 79.5,-371.7 79.5,-348.7 8.5,-348.7"/>
<polygon fill="none" stroke="#000000" points="8.5,-348.7 8.5,-371.7 79.5,-371.7 79.5,-348.7 8.5,-348.7"/>
<text text-anchor="start" x="13.5" y="-357.8" font-family="Helvetica,sans-Serif" font-weight="bold" font-size="11.00" fill="#000000">realm</text>
<text text-anchor="start" x="45.0219" y="-356.8" font-family="Helvetica,sans-Serif" font-size="11.00" fill="#000000">[table]</text>
<polygon fill="none" stroke="#000000" points="8.5,-329.7 8.5,-348.7 79.5,-348.7 79.5,-329.7 8.5,-329.7"/>
<text text-anchor="start" x="11.5" y="-335.8" font-family="Helvetica,sans-Serif" font-size="11.00" fill="#000000">...</text>
<polygon fill="#ffffff" stroke="transparent" points="8.5,-310.7 8.5,-329.7 20.5,-329.7 20.5,-310.7 8.5,-310.7"/>
<polygon fill="none" stroke="#000000" points="8.5,-310.7 8.5,-329.7 20.5,-329.7 20.5,-310.7 8.5,-310.7"/>
<text text-anchor="start" x="11.4431" y="-316.8" font-family="Helvetica,sans-Serif" font-size="11.00" fill="#000000"> &#160;</text>
<polygon fill="#ffffff" stroke="transparent" points="20.5,-310.7 20.5,-329.7 52.5,-329.7 52.5,-310.7 20.5,-310.7"/>
<polygon fill="none" stroke="#000000" points="20.5,-310.7 20.5,-329.7 52.5,-329.7 52.5,-310.7 20.5,-310.7"/>
<text text-anchor="start" x="23.0553" y="-316.8" font-family="Helvetica,sans-Serif" font-size="11.00" fill="#000000">1 row</text>
<polygon fill="#ffffff" stroke="transparent" points="52.5,-310.7 52.5,-329.7 79.5,-329.7 79.5,-310.7 52.5,-310.7"/>
<polygon fill="none" stroke="#000000" points="52.5,-310.7 52.5,-329.7 79.5,-329.7 79.5,-310.7 52.5,-310.7"/>
<text text-anchor="start" x="55.1452" y="-316.8" font-family="Helvetica,sans-Serif" font-size="11.00" fill="#000000">23 &gt;</text>
</a>
</g>
</g>
<!-- client&#45;&gt;realm -->
<g id="edge1" class="edge">
<title>client:w&#45;&gt;realm:e</title>
<path fill="none" stroke="#000000" d="M113.9909,-338.7C102.6774,-338.7 95.4931,-338.7 79.5,-338.7"/>
<polygon fill="#000000" stroke="#000000" points="120.5,-338.7001 128.5,-342.3 124.5,-338.7 128.5,-338.7 128.5,-338.7 128.5,-338.7 124.5,-338.7 128.5,-335.1 120.5,-338.7001 120.5,-338.7001"/>
<ellipse fill="none" stroke="#000000" cx="117.3" cy="-338.7001" rx="3.2" ry="3.2"/>
</g>
<!-- client_attributes -->
<g id="node3" class="node">
<title>client_attributes</title>
<g id="a_node3"><a xlink:href="../../tables/client_attributes.html" xlink:title="client_attributes" target="_top">
<polygon fill="#ffffff" stroke="transparent" points="394.5,-642.2 394.5,-703.2 514.5,-703.2 514.5,-642.2 394.5,-642.2"/>
<polygon fill="#f5f5f5" stroke="transparent" points="394.5,-679.7 394.5,-702.7 514.5,-702.7 514.5,-679.7 394.5,-679.7"/>
<polygon fill="none" stroke="#000000" points="394.5,-679.7 394.5,-702.7 514.5,-702.7 514.5,-679.7 394.5,-679.7"/>
<text text-anchor="start" x="399.4918" y="-688.8" font-family="Helvetica,sans-Serif" font-weight="bold" font-size="11.00" fill="#000000">client_attributes</text>
<text text-anchor="start" x="480.0219" y="-687.8" font-family="Helvetica,sans-Serif" font-size="11.00" fill="#000000">[table]</text>
<polygon fill="none" stroke="#000000" points="394.5,-660.7 394.5,-679.7 514.5,-679.7 514.5,-660.7 394.5,-660.7"/>
<text text-anchor="start" x="397.5" y="-666.8" font-family="Helvetica,sans-Serif" font-size="11.00" fill="#000000">...</text>
<polygon fill="#ffffff" stroke="transparent" points="394.5,-641.7 394.5,-660.7 439.5,-660.7 439.5,-641.7 394.5,-641.7"/>
<polygon fill="none" stroke="#000000" points="394.5,-641.7 394.5,-660.7 439.5,-660.7 439.5,-641.7 394.5,-641.7"/>
<text text-anchor="start" x="397.5" y="-647.8" font-family="Helvetica,sans-Serif" font-size="11.00" fill="#000000">&lt; 1</text>
<polygon fill="#ffffff" stroke="transparent" points="439.5,-641.7 439.5,-660.7 489.5,-660.7 489.5,-641.7 439.5,-641.7"/>
<polygon fill="none" stroke="#000000" points="439.5,-641.7 439.5,-660.7 489.5,-660.7 489.5,-641.7 439.5,-641.7"/>
<text text-anchor="start" x="454.1105" y="-647.8" font-family="Helvetica,sans-Serif" font-size="11.00" fill="#000000">2 rows</text>
<polygon fill="#ffffff" stroke="transparent" points="489.5,-641.7 489.5,-660.7 514.5,-660.7 514.5,-641.7 489.5,-641.7"/>
<polygon fill="none" stroke="#000000" points="489.5,-641.7 489.5,-660.7 514.5,-660.7 514.5,-641.7 489.5,-641.7"/>
<text text-anchor="start" x="505.3862" y="-647.8" font-family="Helvetica,sans-Serif" font-size="11.00" fill="#000000"> &#160;</text>
</a>
</g>
</g>
<!-- client_attributes&#45;&gt;client -->
<g id="edge2" class="edge">
<title>client_attributes:w&#45;&gt;client:e</title>
<path fill="none" stroke="#000000" d="M380.4053,-665.536C372.0896,-659.0381 370.2609,-645.7656 364,-631.7 341.2027,-580.4842 379.5605,-382.7 323.5,-382.7"/>
<polygon fill="#000000" stroke="#000000" points="386.8278,-667.4334 393.48,-673.1525 390.6639,-668.5667 394.5,-669.7 394.5,-669.7 394.5,-669.7 390.6639,-668.5667 395.52,-666.2475 386.8278,-667.4334 386.8278,-667.4334"/>
<ellipse fill="none" stroke="#000000" cx="383.7589" cy="-666.5267" rx="3.2" ry="3.2"/>
</g>
<!-- client_default_roles -->
<g id="node4" class="node">
<title>client_default_roles</title>
<g id="a_node4"><a xlink:href="../../tables/client_default_roles.html" xlink:title="client_default_roles" target="_top">
<polygon fill="#ffffff" stroke="transparent" points="386,-560.2 386,-621.2 523,-621.2 523,-560.2 386,-560.2"/>
<polygon fill="#f5f5f5" stroke="transparent" points="386.5,-597.7 386.5,-620.7 523.5,-620.7 523.5,-597.7 386.5,-597.7"/>
<polygon fill="none" stroke="#000000" points="386.5,-597.7 386.5,-620.7 523.5,-620.7 523.5,-597.7 386.5,-597.7"/>
<text text-anchor="start" x="391.1274" y="-606.8" font-family="Helvetica,sans-Serif" font-weight="bold" font-size="11.00" fill="#000000">client_default_roles</text>
<text text-anchor="start" x="489.0219" y="-605.8" font-family="Helvetica,sans-Serif" font-size="11.00" fill="#000000">[table]</text>
<polygon fill="none" stroke="#000000" points="386.5,-578.7 386.5,-597.7 523.5,-597.7 523.5,-578.7 386.5,-578.7"/>
<text text-anchor="start" x="389.5" y="-584.8" font-family="Helvetica,sans-Serif" font-size="11.00" fill="#000000">...</text>
<polygon fill="#ffffff" stroke="transparent" points="386.5,-559.7 386.5,-578.7 440.5,-578.7 440.5,-559.7 386.5,-559.7"/>
<polygon fill="none" stroke="#000000" points="386.5,-559.7 386.5,-578.7 440.5,-578.7 440.5,-559.7 386.5,-559.7"/>
<text text-anchor="start" x="389.5" y="-565.8" font-family="Helvetica,sans-Serif" font-size="11.00" fill="#000000">&lt; 1</text>
<polygon fill="#ffffff" stroke="transparent" points="440.5,-559.7 440.5,-578.7 494.5,-578.7 494.5,-559.7 440.5,-559.7"/>
<polygon fill="none" stroke="#000000" points="440.5,-559.7 440.5,-578.7 494.5,-578.7 494.5,-559.7 440.5,-559.7"/>
<text text-anchor="start" x="459.1105" y="-565.8" font-family="Helvetica,sans-Serif" font-size="11.00" fill="#000000">2 rows</text>
<polygon fill="#ffffff" stroke="transparent" points="494.5,-559.7 494.5,-578.7 523.5,-578.7 523.5,-559.7 494.5,-559.7"/>
<polygon fill="none" stroke="#000000" points="494.5,-559.7 494.5,-578.7 523.5,-578.7 523.5,-559.7 494.5,-559.7"/>
<text text-anchor="start" x="514.3862" y="-565.8" font-family="Helvetica,sans-Serif" font-size="11.00" fill="#000000"> &#160;</text>
</a>
</g>
</g>
<!-- client_default_roles&#45;&gt;client -->
<g id="edge3" class="edge">
<title>client_default_roles:w&#45;&gt;client:e</title>
<path fill="none" stroke="#000000" d="M371.9518,-585.671C305.3751,-564.3804 413.2315,-382.7 323.5,-382.7"/>
<polygon fill="#000000" stroke="#000000" points="378.5767,-586.5949 386.0027,-591.2655 382.5383,-587.1475 386.5,-587.7 386.5,-587.7 386.5,-587.7 382.5383,-587.1475 386.9973,-584.1345 378.5767,-586.5949 378.5767,-586.5949"/>
<ellipse fill="none" stroke="#000000" cx="375.4074" cy="-586.1529" rx="3.2" ry="3.2"/>
</g>
<!-- client_node_registrations -->
<g id="node5" class="node">
<title>client_node_registrations</title>
<g id="a_node5"><a xlink:href="../../tables/client_node_registrations.html" xlink:title="client_node_registrations" target="_top">
<polygon fill="#ffffff" stroke="transparent" points="372,-478.2 372,-539.2 537,-539.2 537,-478.2 372,-478.2"/>
<polygon fill="#f5f5f5" stroke="transparent" points="372.5,-515.7 372.5,-538.7 537.5,-538.7 537.5,-515.7 372.5,-515.7"/>
<polygon fill="none" stroke="#000000" points="372.5,-515.7 372.5,-538.7 537.5,-538.7 537.5,-515.7 372.5,-515.7"/>
<text text-anchor="start" x="377.3741" y="-524.8" font-family="Helvetica,sans-Serif" font-weight="bold" font-size="11.00" fill="#000000">client_node_registrations</text>
<text text-anchor="start" x="503.0219" y="-523.8" font-family="Helvetica,sans-Serif" font-size="11.00" fill="#000000">[table]</text>
<polygon fill="none" stroke="#000000" points="372.5,-496.7 372.5,-515.7 537.5,-515.7 537.5,-496.7 372.5,-496.7"/>
<text text-anchor="start" x="375.5" y="-502.8" font-family="Helvetica,sans-Serif" font-size="11.00" fill="#000000">...</text>
<polygon fill="#ffffff" stroke="transparent" points="372.5,-477.7 372.5,-496.7 440.5,-496.7 440.5,-477.7 372.5,-477.7"/>
<polygon fill="none" stroke="#000000" points="372.5,-477.7 372.5,-496.7 440.5,-496.7 440.5,-477.7 372.5,-477.7"/>
<text text-anchor="start" x="375.5" y="-483.8" font-family="Helvetica,sans-Serif" font-size="11.00" fill="#000000">&lt; 1</text>
<polygon fill="#ffffff" stroke="transparent" points="440.5,-477.7 440.5,-496.7 501.5,-496.7 501.5,-477.7 440.5,-477.7"/>
<polygon fill="none" stroke="#000000" points="440.5,-477.7 440.5,-496.7 501.5,-496.7 501.5,-477.7 440.5,-477.7"/>
<text text-anchor="start" x="466.1105" y="-483.8" font-family="Helvetica,sans-Serif" font-size="11.00" fill="#000000">0 rows</text>
<polygon fill="#ffffff" stroke="transparent" points="501.5,-477.7 501.5,-496.7 537.5,-496.7 537.5,-477.7 501.5,-477.7"/>
<polygon fill="none" stroke="#000000" points="501.5,-477.7 501.5,-496.7 537.5,-496.7 537.5,-477.7 501.5,-477.7"/>
<text text-anchor="start" x="528.3862" y="-483.8" font-family="Helvetica,sans-Serif" font-size="11.00" fill="#000000"> &#160;</text>
</a>
</g>
</g>
<!-- client_node_registrations&#45;&gt;client -->
<g id="edge4" class="edge">
<title>client_node_registrations:w&#45;&gt;client:e</title>
<path fill="none" stroke="#000000" d="M358.25,-502.1515C326.2922,-481.9844 376.3684,-382.7 323.5,-382.7"/>
<polygon fill="#000000" stroke="#000000" points="364.7371,-503.7668 371.6301,-509.1933 368.6185,-504.7334 372.5,-505.7 372.5,-505.7 372.5,-505.7 368.6185,-504.7334 373.3699,-502.2067 364.7371,-503.7668 364.7371,-503.7668"/>
<ellipse fill="none" stroke="#000000" cx="361.6319" cy="-502.9936" rx="3.2" ry="3.2"/>
</g>
<!-- client_scope_client -->
<g id="node6" class="node">
<title>client_scope_client</title>
<g id="a_node6"><a xlink:href="../../tables/client_scope_client.html" xlink:title="client_scope_client" target="_top">
<polygon fill="#ffffff" stroke="transparent" points="387,-396.2 387,-457.2 522,-457.2 522,-396.2 387,-396.2"/>
<polygon fill="#f5f5f5" stroke="transparent" points="387.5,-433.7 387.5,-456.7 522.5,-456.7 522.5,-433.7 387.5,-433.7"/>
<polygon fill="none" stroke="#000000" points="387.5,-433.7 387.5,-456.7 522.5,-456.7 522.5,-433.7 387.5,-433.7"/>
<text text-anchor="start" x="392.0443" y="-442.8" font-family="Helvetica,sans-Serif" font-weight="bold" font-size="11.00" fill="#000000">client_scope_client</text>
<text text-anchor="start" x="488.0219" y="-441.8" font-family="Helvetica,sans-Serif" font-size="11.00" fill="#000000">[table]</text>
<polygon fill="none" stroke="#000000" points="387.5,-414.7 387.5,-433.7 522.5,-433.7 522.5,-414.7 387.5,-414.7"/>
<text text-anchor="start" x="390.5" y="-420.8" font-family="Helvetica,sans-Serif" font-size="11.00" fill="#000000">...</text>
<polygon fill="#ffffff" stroke="transparent" points="387.5,-395.7 387.5,-414.7 437.5,-414.7 437.5,-395.7 387.5,-395.7"/>
<polygon fill="none" stroke="#000000" points="387.5,-395.7 387.5,-414.7 437.5,-414.7 437.5,-395.7 387.5,-395.7"/>
<text text-anchor="start" x="390.5" y="-401.8" font-family="Helvetica,sans-Serif" font-size="11.00" fill="#000000">&lt; 2</text>
<polygon fill="#ffffff" stroke="transparent" points="437.5,-395.7 437.5,-414.7 495.5,-414.7 495.5,-395.7 437.5,-395.7"/>
<polygon fill="none" stroke="#000000" points="437.5,-395.7 437.5,-414.7 495.5,-414.7 495.5,-395.7 437.5,-395.7"/>
<text text-anchor="start" x="453.9956" y="-401.8" font-family="Helvetica,sans-Serif" font-size="11.00" fill="#000000">54 rows</text>
<polygon fill="#ffffff" stroke="transparent" points="495.5,-395.7 495.5,-414.7 522.5,-414.7 522.5,-395.7 495.5,-395.7"/>
<polygon fill="none" stroke="#000000" points="495.5,-395.7 495.5,-414.7 522.5,-414.7 522.5,-395.7 495.5,-395.7"/>
<text text-anchor="start" x="513.3862" y="-401.8" font-family="Helvetica,sans-Serif" font-size="11.00" fill="#000000"> &#160;</text>
</a>
</g>
</g>
<!-- client_scope_client&#45;&gt;client -->
<g id="edge5" class="edge">
<title>client_scope_client:w&#45;&gt;client:e</title>
<path fill="none" stroke="#000000" d="M373.2844,-420.6183C353.8622,-411.0833 351.6066,-382.7 323.5,-382.7"/>
<polygon fill="#000000" stroke="#000000" points="379.6816,-422.0051 386.7373,-427.2183 383.5908,-422.8525 387.5,-423.7 387.5,-423.7 387.5,-423.7 383.5908,-422.8525 388.2627,-420.1817 379.6816,-422.0051 379.6816,-422.0051"/>
<ellipse fill="none" stroke="#000000" cx="376.5542" cy="-421.3271" rx="3.2" ry="3.2"/>
</g>
<!-- protocol_mapper -->
<g id="node7" class="node">
<title>protocol_mapper</title>
<g id="a_node7"><a xlink:href="../../tables/protocol_mapper.html" xlink:title="protocol_mapper" target="_top">
<polygon fill="#ffffff" stroke="transparent" points="392,-314.2 392,-375.2 517,-375.2 517,-314.2 392,-314.2"/>
<polygon fill="#f5f5f5" stroke="transparent" points="392.5,-351.7 392.5,-374.7 517.5,-374.7 517.5,-351.7 392.5,-351.7"/>
<polygon fill="none" stroke="#000000" points="392.5,-351.7 392.5,-374.7 517.5,-374.7 517.5,-351.7 392.5,-351.7"/>
<text text-anchor="start" x="397.2412" y="-360.8" font-family="Helvetica,sans-Serif" font-weight="bold" font-size="11.00" fill="#000000">protocol_mapper</text>
<text text-anchor="start" x="483.0219" y="-359.8" font-family="Helvetica,sans-Serif" font-size="11.00" fill="#000000">[table]</text>
<polygon fill="none" stroke="#000000" points="392.5,-332.7 392.5,-351.7 517.5,-351.7 517.5,-332.7 392.5,-332.7"/>
<text text-anchor="start" x="395.5" y="-338.8" font-family="Helvetica,sans-Serif" font-size="11.00" fill="#000000">...</text>
<polygon fill="#ffffff" stroke="transparent" points="392.5,-313.7 392.5,-332.7 432.5,-332.7 432.5,-313.7 392.5,-313.7"/>
<polygon fill="none" stroke="#000000" points="392.5,-313.7 392.5,-332.7 432.5,-332.7 432.5,-313.7 392.5,-313.7"/>
<text text-anchor="start" x="395.5" y="-319.8" font-family="Helvetica,sans-Serif" font-size="11.00" fill="#000000">&lt; 2</text>
<polygon fill="#ffffff" stroke="transparent" points="432.5,-313.7 432.5,-332.7 486.5,-332.7 486.5,-313.7 432.5,-313.7"/>
<polygon fill="none" stroke="#000000" points="432.5,-313.7 432.5,-332.7 486.5,-332.7 486.5,-313.7 432.5,-313.7"/>
<text text-anchor="start" x="444.9956" y="-319.8" font-family="Helvetica,sans-Serif" font-size="11.00" fill="#000000">28 rows</text>
<polygon fill="#ffffff" stroke="transparent" points="486.5,-313.7 486.5,-332.7 517.5,-332.7 517.5,-313.7 486.5,-313.7"/>
<polygon fill="none" stroke="#000000" points="486.5,-313.7 486.5,-332.7 517.5,-332.7 517.5,-313.7 486.5,-313.7"/>
<text text-anchor="start" x="498.9053" y="-319.8" font-family="Helvetica,sans-Serif" font-size="11.00" fill="#000000">1 &gt;</text>
</a>
</g>
</g>
<!-- protocol_mapper&#45;&gt;client -->
<g id="edge6" class="edge">
<title>protocol_mapper:w&#45;&gt;client:e</title>
<path fill="none" stroke="#000000" d="M378.2731,-344.3901C356.6324,-353.5115 353.5983,-382.7 323.5,-382.7"/>
<polygon fill="#000000" stroke="#000000" points="384.6393,-343.1864 393.1689,-345.2373 388.5696,-342.4432 392.5,-341.7 392.5,-341.7 392.5,-341.7 388.5696,-342.4432 391.8311,-338.1627 384.6393,-343.1864 384.6393,-343.1864"/>
<ellipse fill="none" stroke="#000000" cx="381.495" cy="-343.781" rx="3.2" ry="3.2"/>
</g>
<!-- redirect_uris -->
<g id="node8" class="node">
<title>redirect_uris</title>
<g id="a_node8"><a xlink:href="../../tables/redirect_uris.html" xlink:title="redirect_uris" target="_top">
<polygon fill="#ffffff" stroke="transparent" points="372.5,-202.7 372.5,-292.7 536.5,-292.7 536.5,-202.7 372.5,-202.7"/>
<polygon fill="#f5f5f5" stroke="transparent" points="374.5,-267.7 374.5,-290.7 534.5,-290.7 534.5,-267.7 374.5,-267.7"/>
<polygon fill="none" stroke="#000000" points="374.5,-267.7 374.5,-290.7 534.5,-290.7 534.5,-267.7 374.5,-267.7"/>
<text text-anchor="start" x="379.5" y="-276.8" font-family="Helvetica,sans-Serif" font-weight="bold" font-size="11.00" fill="#000000">redirect_uris</text>
<text text-anchor="start" x="499.5437" y="-275.8" font-family="Helvetica,sans-Serif" font-size="11.00" fill="#000000">[table]</text>
<polygon fill="none" stroke="#000000" points="374.5,-245.7 374.5,-267.7 467.5,-267.7 467.5,-245.7 374.5,-245.7"/>
<image xlink:href="../../images/primaryKeys.png" width="11px" height="12px" preserveAspectRatio="xMinYMin meet" x="379.5" y="-262.7"/>
<text text-anchor="start" x="394.5" y="-252.8" font-family="Helvetica,sans-Serif" font-size="11.00" fill="#000000">client_id</text>
<polygon fill="none" stroke="#000000" points="467.5,-245.7 467.5,-267.7 534.5,-267.7 534.5,-245.7 467.5,-245.7"/>
<text text-anchor="start" x="470.5" y="-253.4" font-family="Helvetica,sans-Serif" font-size="11.00" fill="#000000">varchar[36]</text>
<polygon fill="none" stroke="#000000" points="374.5,-223.7 374.5,-245.7 467.5,-245.7 467.5,-223.7 374.5,-223.7"/>
<image xlink:href="../../images/primaryKeys.png" width="11px" height="12px" preserveAspectRatio="xMinYMin meet" x="379.5" y="-240.7"/>
<text text-anchor="start" x="394.5" y="-230.8" font-family="Helvetica,sans-Serif" font-size="11.00" fill="#000000">value</text>
<polygon fill="none" stroke="#000000" points="467.5,-223.7 467.5,-245.7 534.5,-245.7 534.5,-223.7 467.5,-223.7"/>
<text text-anchor="start" x="470.4365" y="-231.4" font-family="Helvetica,sans-Serif" font-size="11.00" fill="#000000">varchar[255]</text>
<polygon fill="#ffffff" stroke="transparent" points="374.5,-204.7 374.5,-223.7 412.5,-223.7 412.5,-204.7 374.5,-204.7"/>
<polygon fill="none" stroke="#000000" points="374.5,-204.7 374.5,-223.7 412.5,-223.7 412.5,-204.7 374.5,-204.7"/>
<text text-anchor="start" x="377.5" y="-210.8" font-family="Helvetica,sans-Serif" font-size="11.00" fill="#000000">&lt; 1</text>
<polygon fill="#ffffff" stroke="transparent" points="412.5,-204.7 412.5,-223.7 467.5,-223.7 467.5,-204.7 412.5,-204.7"/>
<polygon fill="none" stroke="#000000" points="412.5,-204.7 412.5,-223.7 467.5,-223.7 467.5,-204.7 412.5,-204.7"/>
<text text-anchor="start" x="432.1105" y="-210.8" font-family="Helvetica,sans-Serif" font-size="11.00" fill="#000000">3 rows</text>
<polygon fill="#ffffff" stroke="transparent" points="467.5,-204.7 467.5,-223.7 534.5,-223.7 534.5,-204.7 467.5,-204.7"/>
<polygon fill="none" stroke="#000000" points="467.5,-204.7 467.5,-223.7 534.5,-223.7 534.5,-204.7 467.5,-204.7"/>
<text text-anchor="start" x="515.9053" y="-210.8" font-family="Helvetica,sans-Serif" font-size="11.00" fill="#000000">0 &gt;</text>
<polygon fill="none" stroke="#000000" stroke-width="2" points="373.5,-203.7 373.5,-291.7 535.5,-291.7 535.5,-203.7 373.5,-203.7"/>
</a>
</g>
</g>
<!-- redirect_uris&#45;&gt;client -->
<g id="edge7" class="edge">
<title>redirect_uris:w&#45;&gt;client:e</title>
<path fill="none" stroke="#000000" d="M360.2844,-260.0702C326.4826,-280.1077 378.0136,-382.7 323.5,-382.7"/>
<polygon fill="#000000" stroke="#000000" points="366.7158,-258.5455 375.3305,-260.2029 370.6079,-257.6228 374.5,-256.7 374.5,-256.7 374.5,-256.7 370.6079,-257.6228 373.6695,-253.1971 366.7158,-258.5455 366.7158,-258.5455"/>
<ellipse fill="none" stroke="#000000" cx="363.6021" cy="-259.2837" rx="3.2" ry="3.2"/>
</g>
<!-- scope_mapping -->
<g id="node9" class="node">
<title>scope_mapping</title>
<g id="a_node9"><a xlink:href="../../tables/scope_mapping.html" xlink:title="scope_mapping" target="_top">
<polygon fill="#ffffff" stroke="transparent" points="394.5,-120.2 394.5,-181.2 514.5,-181.2 514.5,-120.2 394.5,-120.2"/>
<polygon fill="#f5f5f5" stroke="transparent" points="394.5,-157.7 394.5,-180.7 514.5,-180.7 514.5,-157.7 394.5,-157.7"/>
<polygon fill="none" stroke="#000000" points="394.5,-157.7 394.5,-180.7 514.5,-180.7 514.5,-157.7 394.5,-157.7"/>
<text text-anchor="start" x="399.1816" y="-166.8" font-family="Helvetica,sans-Serif" font-weight="bold" font-size="11.00" fill="#000000">scope_mapping</text>
<text text-anchor="start" x="480.0219" y="-165.8" font-family="Helvetica,sans-Serif" font-size="11.00" fill="#000000">[table]</text>
<polygon fill="none" stroke="#000000" points="394.5,-138.7 394.5,-157.7 514.5,-157.7 514.5,-138.7 394.5,-138.7"/>
<text text-anchor="start" x="397.5" y="-144.8" font-family="Helvetica,sans-Serif" font-size="11.00" fill="#000000">...</text>
<polygon fill="#ffffff" stroke="transparent" points="394.5,-119.7 394.5,-138.7 442.5,-138.7 442.5,-119.7 394.5,-119.7"/>
<polygon fill="none" stroke="#000000" points="394.5,-119.7 394.5,-138.7 442.5,-138.7 442.5,-119.7 394.5,-119.7"/>
<text text-anchor="start" x="397.5" y="-125.8" font-family="Helvetica,sans-Serif" font-size="11.00" fill="#000000">&lt; 1</text>
<polygon fill="#ffffff" stroke="transparent" points="442.5,-119.7 442.5,-138.7 488.5,-138.7 488.5,-119.7 442.5,-119.7"/>
<polygon fill="none" stroke="#000000" points="442.5,-119.7 442.5,-138.7 488.5,-138.7 488.5,-119.7 442.5,-119.7"/>
<text text-anchor="start" x="458.6105" y="-125.8" font-family="Helvetica,sans-Serif" font-size="11.00" fill="#000000">1 row</text>
<polygon fill="#ffffff" stroke="transparent" points="488.5,-119.7 488.5,-138.7 514.5,-138.7 514.5,-119.7 488.5,-119.7"/>
<polygon fill="none" stroke="#000000" points="488.5,-119.7 488.5,-138.7 514.5,-138.7 514.5,-119.7 488.5,-119.7"/>
<text text-anchor="start" x="505.3862" y="-125.8" font-family="Helvetica,sans-Serif" font-size="11.00" fill="#000000"> &#160;</text>
</a>
</g>
</g>
<!-- scope_mapping&#45;&gt;client -->
<g id="edge8" class="edge">
<title>scope_mapping:w&#45;&gt;client:e</title>
<path fill="none" stroke="#000000" d="M380.5717,-151.8414C371.1166,-159.406 371.0298,-176.2034 364,-192.7 347.0758,-232.4151 366.6708,-382.7 323.5,-382.7"/>
<polygon fill="#000000" stroke="#000000" points="386.8318,-149.9801 395.526,-151.1507 390.6659,-148.84 394.5,-147.7 394.5,-147.7 394.5,-147.7 390.6659,-148.84 393.474,-144.2493 386.8318,-149.9801 386.8318,-149.9801"/>
<ellipse fill="none" stroke="#000000" cx="383.7645" cy="-150.8921" rx="3.2" ry="3.2"/>
</g>
<!-- web_origins -->
<g id="node10" class="node">
<title>web_origins</title>
<g id="a_node10"><a xlink:href="../../tables/web_origins.html" xlink:title="web_origins" target="_top">
<polygon fill="#ffffff" stroke="transparent" points="404,-38.2 404,-99.2 505,-99.2 505,-38.2 404,-38.2"/>
<polygon fill="#f5f5f5" stroke="transparent" points="404.5,-75.7 404.5,-98.7 505.5,-98.7 505.5,-75.7 404.5,-75.7"/>
<polygon fill="none" stroke="#000000" points="404.5,-75.7 404.5,-98.7 505.5,-98.7 505.5,-75.7 404.5,-75.7"/>
<text text-anchor="start" x="409.163" y="-84.8" font-family="Helvetica,sans-Serif" font-weight="bold" font-size="11.00" fill="#000000">web_origins</text>
<text text-anchor="start" x="471.0219" y="-83.8" font-family="Helvetica,sans-Serif" font-size="11.00" fill="#000000">[table]</text>
<polygon fill="none" stroke="#000000" points="404.5,-56.7 404.5,-75.7 505.5,-75.7 505.5,-56.7 404.5,-56.7"/>
<text text-anchor="start" x="407.5" y="-62.8" font-family="Helvetica,sans-Serif" font-size="11.00" fill="#000000">...</text>
<polygon fill="#ffffff" stroke="transparent" points="404.5,-37.7 404.5,-56.7 443.5,-56.7 443.5,-37.7 404.5,-37.7"/>
<polygon fill="none" stroke="#000000" points="404.5,-37.7 404.5,-56.7 443.5,-56.7 443.5,-37.7 404.5,-37.7"/>
<text text-anchor="start" x="407.5" y="-43.8" font-family="Helvetica,sans-Serif" font-size="11.00" fill="#000000">&lt; 1</text>
<polygon fill="#ffffff" stroke="transparent" points="443.5,-37.7 443.5,-56.7 484.5,-56.7 484.5,-37.7 443.5,-37.7"/>
<polygon fill="none" stroke="#000000" points="443.5,-37.7 443.5,-56.7 484.5,-56.7 484.5,-37.7 443.5,-37.7"/>
<text text-anchor="start" x="454.6105" y="-43.8" font-family="Helvetica,sans-Serif" font-size="11.00" fill="#000000">1 row</text>
<polygon fill="#ffffff" stroke="transparent" points="484.5,-37.7 484.5,-56.7 505.5,-56.7 505.5,-37.7 484.5,-37.7"/>
<polygon fill="none" stroke="#000000" points="484.5,-37.7 484.5,-56.7 505.5,-56.7 505.5,-37.7 484.5,-37.7"/>
<text text-anchor="start" x="496.3862" y="-43.8" font-family="Helvetica,sans-Serif" font-size="11.00" fill="#000000"> &#160;</text>
</a>
</g>
</g>
<!-- web_origins&#45;&gt;client -->
<g id="edge9" class="edge">
<title>web_origins:w&#45;&gt;client:e</title>
<path fill="none" stroke="#000000" d="M390.1729,-68.4055C376.4127,-74.6473 372.9502,-90.9635 364,-109.7 337.5644,-165.0408 384.8306,-382.7 323.5,-382.7"/>
<polygon fill="#000000" stroke="#000000" points="396.6389,-67.1845 405.168,-69.2375 400.5695,-66.4423 404.5,-65.7 404.5,-65.7 404.5,-65.7 400.5695,-66.4423 403.832,-62.1625 396.6389,-67.1845 396.6389,-67.1845"/>
<ellipse fill="none" stroke="#000000" cx="393.4945" cy="-67.7783" rx="3.2" ry="3.2"/>
</g>
</g>
</svg>
