<?xml version="1.0" encoding="UTF-8" standalone="no"?>
<!DOCTYPE svg PUBLIC "-//W3C//DTD SVG 1.1//EN"
 "http://www.w3.org/Graphics/SVG/1.1/DTD/svg11.dtd">
<!-- Generated by graphviz version 2.40.1 (20161225.0304)
 -->
<!-- Title: oneDegreeRelationshipsDiagramImplied Pages: 1 -->
<svg width="522pt" height="308pt"
 viewBox="0.00 0.00 522.00 307.70" xmlns="http://www.w3.org/2000/svg" xmlns:xlink="http://www.w3.org/1999/xlink">
<g id="graph0" class="graph" transform="scale(1 1) rotate(0) translate(4 303.7)">
<title>oneDegreeRelationshipsDiagramImplied</title>
<polygon fill="#ffffff" stroke="transparent" points="-4,4 -4,-303.7 518,-303.7 518,4 -4,4"/>
<text text-anchor="middle" x="72.4936" y="-7.3" font-family="Helvetica,sans-Serif" font-size="11.00" fill="#000000">Generated by SchemaSpy</text>
<!-- required_action_provider -->
<g id="node1" class="node">
<title>required_action_provider</title>
<g id="a_node1"><a xlink:href="../../tables/required_action_provider.html" xlink:title="required_action_provider" target="_top">
<polygon fill="#ffffff" stroke="transparent" points="270,-73.7 270,-295.7 506,-295.7 506,-73.7 270,-73.7"/>
<polygon fill="#f5f5f5" stroke="transparent" points="272,-270.7 272,-293.7 504,-293.7 504,-270.7 272,-270.7"/>
<polygon fill="none" stroke="#000000" points="272,-270.7 272,-293.7 504,-293.7 504,-270.7 272,-270.7"/>
<text text-anchor="start" x="277" y="-279.8" font-family="Helvetica,sans-Serif" font-weight="bold" font-size="11.00" fill="#000000">required_action_provider</text>
<text text-anchor="start" x="469.0437" y="-278.8" font-family="Helvetica,sans-Serif" font-size="11.00" fill="#000000">[table]</text>
<polygon fill="none" stroke="#000000" points="272,-248.7 272,-270.7 437,-270.7 437,-248.7 272,-248.7"/>
<image xlink:href="../../images/primaryKeys.png" width="11px" height="12px" preserveAspectRatio="xMinYMin meet" x="277" y="-265.7"/>
<text text-anchor="start" x="292" y="-255.8" font-family="Helvetica,sans-Serif" font-size="11.00" fill="#000000">id</text>
<polygon fill="none" stroke="#000000" points="437,-248.7 437,-270.7 504,-270.7 504,-248.7 437,-248.7"/>
<text text-anchor="start" x="440" y="-256.4" font-family="Helvetica,sans-Serif" font-size="11.00" fill="#000000">varchar[36]</text>
<polygon fill="none" stroke="#000000" points="272,-226.7 272,-248.7 437,-248.7 437,-226.7 272,-226.7"/>
<text text-anchor="start" x="292" y="-233.8" font-family="Helvetica,sans-Serif" font-size="11.00" fill="#000000">alias</text>
<polygon fill="none" stroke="#000000" points="437,-226.7 437,-248.7 504,-248.7 504,-226.7 437,-226.7"/>
<text text-anchor="start" x="439.9365" y="-234.4" font-family="Helvetica,sans-Serif" font-size="11.00" fill="#000000">varchar[255]</text>
<polygon fill="none" stroke="#000000" points="272,-204.7 272,-226.7 437,-226.7 437,-204.7 272,-204.7"/>
<text text-anchor="start" x="292" y="-211.8" font-family="Helvetica,sans-Serif" font-size="11.00" fill="#000000">name</text>
<polygon fill="none" stroke="#000000" points="437,-204.7 437,-226.7 504,-226.7 504,-204.7 437,-204.7"/>
<text text-anchor="start" x="439.9365" y="-212.4" font-family="Helvetica,sans-Serif" font-size="11.00" fill="#000000">varchar[255]</text>
<polygon fill="#ffffff" stroke="transparent" points="272,-182.7 272,-204.7 437,-204.7 437,-182.7 272,-182.7"/>
<polygon fill="none" stroke="#000000" points="272,-182.7 272,-204.7 437,-204.7 437,-182.7 272,-182.7"/>
<image xlink:href="../../images/foreignKeys.png" width="11px" height="12px" preserveAspectRatio="xMinYMin meet" x="277" y="-199.7"/>
<text text-anchor="start" x="292" y="-189.8" font-family="Helvetica,sans-Serif" font-size="11.00" fill="#000000">realm_id</text>
<polygon fill="none" stroke="#000000" points="437,-182.7 437,-204.7 504,-204.7 504,-182.7 437,-182.7"/>
<text text-anchor="start" x="440" y="-190.4" font-family="Helvetica,sans-Serif" font-size="11.00" fill="#000000">varchar[36]</text>
<polygon fill="none" stroke="#000000" points="272,-160.7 272,-182.7 437,-182.7 437,-160.7 272,-160.7"/>
<text text-anchor="start" x="292" y="-167.8" font-family="Helvetica,sans-Serif" font-size="11.00" fill="#000000">enabled</text>
<polygon fill="none" stroke="#000000" points="437,-160.7 437,-182.7 504,-182.7 504,-160.7 437,-160.7"/>
<text text-anchor="start" x="440" y="-168.4" font-family="Helvetica,sans-Serif" font-size="11.00" fill="#000000">bool[1]</text>
<polygon fill="none" stroke="#000000" points="272,-138.7 272,-160.7 437,-160.7 437,-138.7 272,-138.7"/>
<text text-anchor="start" x="292" y="-145.8" font-family="Helvetica,sans-Serif" font-size="11.00" fill="#000000">default_action</text>
<polygon fill="none" stroke="#000000" points="437,-138.7 437,-160.7 504,-160.7 504,-138.7 437,-138.7"/>
<text text-anchor="start" x="440" y="-146.4" font-family="Helvetica,sans-Serif" font-size="11.00" fill="#000000">bool[1]</text>
<polygon fill="none" stroke="#000000" points="272,-116.7 272,-138.7 437,-138.7 437,-116.7 272,-116.7"/>
<image xlink:href="../../images/foreignKeys.png" width="11px" height="12px" preserveAspectRatio="xMinYMin meet" x="277" y="-133.7"/>
<text text-anchor="start" x="292" y="-123.8" font-family="Helvetica,sans-Serif" font-size="11.00" fill="#000000">provider_id</text>
<polygon fill="none" stroke="#000000" points="437,-116.7 437,-138.7 504,-138.7 504,-116.7 437,-116.7"/>
<text text-anchor="start" x="439.9365" y="-124.4" font-family="Helvetica,sans-Serif" font-size="11.00" fill="#000000">varchar[255]</text>
<polygon fill="none" stroke="#000000" points="272,-94.7 272,-116.7 437,-116.7 437,-94.7 272,-94.7"/>
<text text-anchor="start" x="292" y="-101.8" font-family="Helvetica,sans-Serif" font-size="11.00" fill="#000000">priority</text>
<polygon fill="none" stroke="#000000" points="437,-94.7 437,-116.7 504,-116.7 504,-94.7 437,-94.7"/>
<text text-anchor="start" x="440" y="-102.4" font-family="Helvetica,sans-Serif" font-size="11.00" fill="#000000">int4[10]</text>
<polygon fill="#ffffff" stroke="transparent" points="272,-75.7 272,-94.7 346,-94.7 346,-75.7 272,-75.7"/>
<polygon fill="none" stroke="#000000" points="272,-75.7 272,-94.7 346,-94.7 346,-75.7 272,-75.7"/>
<text text-anchor="start" x="275" y="-81.8" font-family="Helvetica,sans-Serif" font-size="11.00" fill="#000000">&lt; 2</text>
<polygon fill="#ffffff" stroke="transparent" points="346,-75.7 346,-94.7 437,-94.7 437,-75.7 346,-75.7"/>
<polygon fill="none" stroke="#000000" points="346,-75.7 346,-94.7 437,-94.7 437,-75.7 346,-75.7"/>
<text text-anchor="start" x="401.6105" y="-81.8" font-family="Helvetica,sans-Serif" font-size="11.00" fill="#000000">7 rows</text>
<polygon fill="#ffffff" stroke="transparent" points="437,-75.7 437,-94.7 504,-94.7 504,-75.7 437,-75.7"/>
<polygon fill="none" stroke="#000000" points="437,-75.7 437,-94.7 504,-94.7 504,-75.7 437,-75.7"/>
<text text-anchor="start" x="485.4053" y="-81.8" font-family="Helvetica,sans-Serif" font-size="11.00" fill="#000000">0 &gt;</text>
<polygon fill="none" stroke="#000000" stroke-width="2" points="271,-74.7 271,-294.7 505,-294.7 505,-74.7 271,-74.7"/>
</a>
</g>
</g>
<!-- federated_user -->
<g id="node2" class="node">
<title>federated_user</title>
<g id="a_node2"><a xlink:href="../../tables/federated_user.html" xlink:title="federated_user" target="_top">
<polygon fill="#ffffff" stroke="transparent" points="46.5,-38.2 46.5,-121.2 182.5,-121.2 182.5,-38.2 46.5,-38.2"/>
<polygon fill="#f5f5f5" stroke="transparent" points="46.5,-97.7 46.5,-120.7 182.5,-120.7 182.5,-97.7 46.5,-97.7"/>
<polygon fill="none" stroke="#000000" points="46.5,-97.7 46.5,-120.7 182.5,-120.7 182.5,-97.7 46.5,-97.7"/>
<text text-anchor="start" x="51.5" y="-106.8" font-family="Helvetica,sans-Serif" font-weight="bold" font-size="11.00" fill="#000000">federated_user</text>
<text text-anchor="start" x="147.5437" y="-105.8" font-family="Helvetica,sans-Serif" font-size="11.00" fill="#000000">[table]</text>
<polygon fill="none" stroke="#000000" points="46.5,-75.7 46.5,-97.7 182.5,-97.7 182.5,-75.7 46.5,-75.7"/>
<image xlink:href="../../images/primaryKeys.png" width="11px" height="12px" preserveAspectRatio="xMinYMin meet" x="51.5" y="-92.7"/>
<text text-anchor="start" x="66.5" y="-82.8" font-family="Helvetica,sans-Serif" font-size="11.00" fill="#000000">id</text>
<polygon fill="none" stroke="#000000" points="46.5,-56.7 46.5,-75.7 182.5,-75.7 182.5,-56.7 46.5,-56.7"/>
<text text-anchor="start" x="49.5" y="-62.8" font-family="Helvetica,sans-Serif" font-size="11.00" fill="#000000">...</text>
<polygon fill="#ffffff" stroke="transparent" points="46.5,-37.7 46.5,-56.7 87.5,-56.7 87.5,-37.7 46.5,-37.7"/>
<polygon fill="none" stroke="#000000" points="46.5,-37.7 46.5,-56.7 87.5,-56.7 87.5,-37.7 46.5,-37.7"/>
<text text-anchor="start" x="49.5" y="-43.8" font-family="Helvetica,sans-Serif" font-size="11.00" fill="#000000"> &#160;</text>
<polygon fill="#ffffff" stroke="transparent" points="87.5,-37.7 87.5,-56.7 140.5,-56.7 140.5,-37.7 87.5,-37.7"/>
<polygon fill="none" stroke="#000000" points="87.5,-37.7 87.5,-56.7 140.5,-56.7 140.5,-37.7 87.5,-37.7"/>
<text text-anchor="start" x="105.1105" y="-43.8" font-family="Helvetica,sans-Serif" font-size="11.00" fill="#000000">0 rows</text>
<polygon fill="#ffffff" stroke="transparent" points="140.5,-37.7 140.5,-56.7 182.5,-56.7 182.5,-37.7 140.5,-37.7"/>
<polygon fill="none" stroke="#000000" points="140.5,-37.7 140.5,-56.7 182.5,-56.7 182.5,-37.7 140.5,-37.7"/>
<text text-anchor="start" x="157.7904" y="-43.8" font-family="Helvetica,sans-Serif" font-size="11.00" fill="#000000">30 &gt;</text>
</a>
</g>
</g>
<!-- required_action_provider&#45;&gt;federated_user -->
<g id="edge1" class="edge">
<title>required_action_provider:w&#45;&gt;federated_user:e</title>
<path fill="none" stroke="#000000" stroke-dasharray="5,2" d="M257.387,-125.9383C227.096,-118.0906 220.7838,-86.7 182.5,-86.7"/>
<polygon fill="#000000" stroke="#000000" points="264.0575,-126.7424 271.5691,-131.2741 268.0288,-127.2212 272,-127.7 272,-127.7 272,-127.7 268.0288,-127.2212 272.4309,-124.1259 264.0575,-126.7424 264.0575,-126.7424"/>
<ellipse fill="none" stroke="#000000" cx="260.8805" cy="-126.3594" rx="3.2" ry="3.2"/>
</g>
<!-- realm -->
<g id="node3" class="node">
<title>realm</title>
<g id="a_node3"><a xlink:href="../../tables/realm.html" xlink:title="realm" target="_top">
<polygon fill="#ffffff" stroke="transparent" points="8,-142.2 8,-269.2 221,-269.2 221,-142.2 8,-142.2"/>
<polygon fill="#f5f5f5" stroke="transparent" points="8.5,-245.7 8.5,-268.7 221.5,-268.7 221.5,-245.7 8.5,-245.7"/>
<polygon fill="none" stroke="#000000" points="8.5,-245.7 8.5,-268.7 221.5,-268.7 221.5,-245.7 8.5,-245.7"/>
<text text-anchor="start" x="13.5" y="-254.8" font-family="Helvetica,sans-Serif" font-weight="bold" font-size="11.00" fill="#000000">realm</text>
<text text-anchor="start" x="186.5437" y="-253.8" font-family="Helvetica,sans-Serif" font-size="11.00" fill="#000000">[table]</text>
<polygon fill="none" stroke="#000000" points="8.5,-223.7 8.5,-245.7 221.5,-245.7 221.5,-223.7 8.5,-223.7"/>
<image xlink:href="../../images/primaryKeys.png" width="11px" height="12px" preserveAspectRatio="xMinYMin meet" x="13.5" y="-240.7"/>
<text text-anchor="start" x="28.5" y="-230.8" font-family="Helvetica,sans-Serif" font-size="11.00" fill="#000000">id</text>
<polygon fill="#ffffff" stroke="transparent" points="8.5,-201.7 8.5,-223.7 221.5,-223.7 221.5,-201.7 8.5,-201.7"/>
<polygon fill="none" stroke="#000000" points="8.5,-201.7 8.5,-223.7 221.5,-223.7 221.5,-201.7 8.5,-201.7"/>
<text text-anchor="start" x="28.5" y="-208.8" font-family="Helvetica,sans-Serif" font-size="11.00" fill="#000000">name</text>
<polygon fill="#ffffff" stroke="transparent" points="8.5,-179.7 8.5,-201.7 221.5,-201.7 221.5,-179.7 8.5,-179.7"/>
<polygon fill="none" stroke="#000000" points="8.5,-179.7 8.5,-201.7 221.5,-201.7 221.5,-179.7 8.5,-179.7"/>
<text text-anchor="start" x="28.5" y="-186.8" font-family="Helvetica,sans-Serif" font-size="11.00" fill="#000000">master_admin_client</text>
<polygon fill="none" stroke="#000000" points="8.5,-160.7 8.5,-179.7 221.5,-179.7 221.5,-160.7 8.5,-160.7"/>
<text text-anchor="start" x="11.5" y="-166.8" font-family="Helvetica,sans-Serif" font-size="11.00" fill="#000000">...</text>
<polygon fill="#ffffff" stroke="transparent" points="8.5,-141.7 8.5,-160.7 91.5,-160.7 91.5,-141.7 8.5,-141.7"/>
<polygon fill="none" stroke="#000000" points="8.5,-141.7 8.5,-160.7 91.5,-160.7 91.5,-141.7 8.5,-141.7"/>
<text text-anchor="start" x="11.5" y="-147.8" font-family="Helvetica,sans-Serif" font-size="11.00" fill="#000000"> &#160;</text>
<polygon fill="#ffffff" stroke="transparent" points="91.5,-141.7 91.5,-160.7 158.5,-160.7 158.5,-141.7 91.5,-141.7"/>
<polygon fill="none" stroke="#000000" points="91.5,-141.7 91.5,-160.7 158.5,-160.7 158.5,-141.7 91.5,-141.7"/>
<text text-anchor="start" x="128.6105" y="-147.8" font-family="Helvetica,sans-Serif" font-size="11.00" fill="#000000">1 row</text>
<polygon fill="#ffffff" stroke="transparent" points="158.5,-141.7 158.5,-160.7 221.5,-160.7 221.5,-141.7 158.5,-141.7"/>
<polygon fill="none" stroke="#000000" points="158.5,-141.7 158.5,-160.7 221.5,-160.7 221.5,-141.7 158.5,-141.7"/>
<text text-anchor="start" x="196.7904" y="-147.8" font-family="Helvetica,sans-Serif" font-size="11.00" fill="#000000">23 &gt;</text>
</a>
</g>
</g>
<!-- required_action_provider&#45;&gt;realm -->
<g id="edge2" class="edge">
<title>required_action_provider:w&#45;&gt;realm:e</title>
<path fill="none" stroke="#000000" d="M258.2601,-198.0877C244.5688,-208.6646 244.5379,-234.7 221.5,-234.7"/>
<polygon fill="#000000" stroke="#000000" points="264.3792,-196.1337 273.0952,-197.1294 268.1896,-194.9168 272,-193.7 272,-193.7 272,-193.7 268.1896,-194.9168 270.9048,-190.2706 264.3792,-196.1337 264.3792,-196.1337"/>
<ellipse fill="none" stroke="#000000" cx="261.3308" cy="-197.1072" rx="3.2" ry="3.2"/>
</g>
</g>
</svg>
