<?xml version="1.0" encoding="UTF-8" standalone="no"?>
<!DOCTYPE svg PUBLIC "-//W3C//DTD SVG 1.1//EN"
 "http://www.w3.org/Graphics/SVG/1.1/DTD/svg11.dtd">
<!-- Generated by graphviz version 2.40.1 (20161225.0304)
 -->
<!-- Title: twoDegreesRelationshipsDiagram Pages: 1 -->
<svg width="701pt" height="839pt"
 viewBox="0.00 0.00 701.00 839.20" xmlns="http://www.w3.org/2000/svg" xmlns:xlink="http://www.w3.org/1999/xlink">
<g id="graph0" class="graph" transform="scale(1 1) rotate(0) translate(4 835.2)">
<title>twoDegreesRelationshipsDiagram</title>
<polygon fill="#ffffff" stroke="transparent" points="-4,4 -4,-835.2 697,-835.2 697,4 -4,4"/>
<text text-anchor="middle" x="72.4936" y="-7.3" font-family="Helvetica,sans-Serif" font-size="11.00" fill="#000000">Generated by SchemaSpy</text>
<!-- associated_policy -->
<g id="node1" class="node">
<title>associated_policy</title>
<g id="a_node1"><a xlink:href="../../tables/associated_policy.html" xlink:title="associated_policy" target="_top">
<polygon fill="#ffffff" stroke="transparent" points="526.5,-766.2 526.5,-827.2 655.5,-827.2 655.5,-766.2 526.5,-766.2"/>
<polygon fill="#f5f5f5" stroke="transparent" points="527,-803.7 527,-826.7 656,-826.7 656,-803.7 527,-803.7"/>
<polygon fill="none" stroke="#000000" points="527,-803.7 527,-826.7 656,-826.7 656,-803.7 527,-803.7"/>
<text text-anchor="start" x="531.6006" y="-812.8" font-family="Helvetica,sans-Serif" font-weight="bold" font-size="11.00" fill="#000000">associated_policy</text>
<text text-anchor="start" x="621.5219" y="-811.8" font-family="Helvetica,sans-Serif" font-size="11.00" fill="#000000">[table]</text>
<polygon fill="none" stroke="#000000" points="527,-784.7 527,-803.7 656,-803.7 656,-784.7 527,-784.7"/>
<text text-anchor="start" x="530" y="-790.8" font-family="Helvetica,sans-Serif" font-size="11.00" fill="#000000">...</text>
<polygon fill="#ffffff" stroke="transparent" points="527,-765.7 527,-784.7 577,-784.7 577,-765.7 527,-765.7"/>
<polygon fill="none" stroke="#000000" points="527,-765.7 527,-784.7 577,-784.7 577,-765.7 527,-765.7"/>
<text text-anchor="start" x="530" y="-771.8" font-family="Helvetica,sans-Serif" font-size="11.00" fill="#000000">&lt; 2</text>
<polygon fill="#ffffff" stroke="transparent" points="577,-765.7 577,-784.7 629,-784.7 629,-765.7 577,-765.7"/>
<polygon fill="none" stroke="#000000" points="577,-765.7 577,-784.7 629,-784.7 629,-765.7 577,-765.7"/>
<text text-anchor="start" x="593.6105" y="-771.8" font-family="Helvetica,sans-Serif" font-size="11.00" fill="#000000">0 rows</text>
<polygon fill="#ffffff" stroke="transparent" points="629,-765.7 629,-784.7 656,-784.7 656,-765.7 629,-765.7"/>
<polygon fill="none" stroke="#000000" points="629,-765.7 629,-784.7 656,-784.7 656,-765.7 629,-765.7"/>
<text text-anchor="start" x="646.8862" y="-771.8" font-family="Helvetica,sans-Serif" font-size="11.00" fill="#000000"> &#160;</text>
</a>
</g>
</g>
<!-- resource_server_policy -->
<g id="node2" class="node">
<title>resource_server_policy</title>
<g id="a_node2"><a xlink:href="../../tables/resource_server_policy.html" xlink:title="resource_server_policy" target="_top">
<polygon fill="#ffffff" stroke="transparent" points="284.5,-537.2 284.5,-664.2 440.5,-664.2 440.5,-537.2 284.5,-537.2"/>
<polygon fill="#f5f5f5" stroke="transparent" points="284.5,-640.7 284.5,-663.7 440.5,-663.7 440.5,-640.7 284.5,-640.7"/>
<polygon fill="none" stroke="#000000" points="284.5,-640.7 284.5,-663.7 440.5,-663.7 440.5,-640.7 284.5,-640.7"/>
<text text-anchor="start" x="289.1608" y="-649.8" font-family="Helvetica,sans-Serif" font-weight="bold" font-size="11.00" fill="#000000">resource_server_policy</text>
<text text-anchor="start" x="406.0219" y="-648.8" font-family="Helvetica,sans-Serif" font-size="11.00" fill="#000000">[table]</text>
<polygon fill="none" stroke="#000000" points="284.5,-618.7 284.5,-640.7 440.5,-640.7 440.5,-618.7 284.5,-618.7"/>
<image xlink:href="../../images/primaryKeys.png" width="11px" height="12px" preserveAspectRatio="xMinYMin meet" x="289.5" y="-635.7"/>
<text text-anchor="start" x="305.5" y="-625.8" font-family="Helvetica,sans-Serif" font-size="11.00" fill="#000000">id</text>
<polygon fill="#ffffff" stroke="transparent" points="284.5,-596.7 284.5,-618.7 440.5,-618.7 440.5,-596.7 284.5,-596.7"/>
<polygon fill="none" stroke="#000000" points="284.5,-596.7 284.5,-618.7 440.5,-618.7 440.5,-596.7 284.5,-596.7"/>
<text text-anchor="start" x="305.5" y="-603.8" font-family="Helvetica,sans-Serif" font-size="11.00" fill="#000000">name</text>
<polygon fill="#ffffff" stroke="transparent" points="284.5,-574.7 284.5,-596.7 440.5,-596.7 440.5,-574.7 284.5,-574.7"/>
<polygon fill="none" stroke="#000000" points="284.5,-574.7 284.5,-596.7 440.5,-596.7 440.5,-574.7 284.5,-574.7"/>
<image xlink:href="../../images/foreignKeys.png" width="11px" height="12px" preserveAspectRatio="xMinYMin meet" x="289.5" y="-591.7"/>
<text text-anchor="start" x="305.5" y="-581.8" font-family="Helvetica,sans-Serif" font-size="11.00" fill="#000000">resource_server_id</text>
<polygon fill="none" stroke="#000000" points="284.5,-555.7 284.5,-574.7 440.5,-574.7 440.5,-555.7 284.5,-555.7"/>
<text text-anchor="start" x="287.5" y="-561.8" font-family="Helvetica,sans-Serif" font-size="11.00" fill="#000000">...</text>
<polygon fill="#ffffff" stroke="transparent" points="284.5,-536.7 284.5,-555.7 343.5,-555.7 343.5,-536.7 284.5,-536.7"/>
<polygon fill="none" stroke="#000000" points="284.5,-536.7 284.5,-555.7 343.5,-555.7 343.5,-536.7 284.5,-536.7"/>
<text text-anchor="start" x="287.5" y="-542.8" font-family="Helvetica,sans-Serif" font-size="11.00" fill="#000000">&lt; 1</text>
<polygon fill="#ffffff" stroke="transparent" points="343.5,-536.7 343.5,-555.7 400.5,-555.7 400.5,-536.7 343.5,-536.7"/>
<polygon fill="none" stroke="#000000" points="343.5,-536.7 343.5,-555.7 400.5,-555.7 400.5,-536.7 343.5,-536.7"/>
<text text-anchor="start" x="365.1105" y="-542.8" font-family="Helvetica,sans-Serif" font-size="11.00" fill="#000000">0 rows</text>
<polygon fill="#ffffff" stroke="transparent" points="400.5,-536.7 400.5,-555.7 440.5,-555.7 440.5,-536.7 400.5,-536.7"/>
<polygon fill="none" stroke="#000000" points="400.5,-536.7 400.5,-555.7 440.5,-555.7 440.5,-536.7 400.5,-536.7"/>
<text text-anchor="start" x="421.9053" y="-542.8" font-family="Helvetica,sans-Serif" font-size="11.00" fill="#000000">6 &gt;</text>
</a>
</g>
</g>
<!-- associated_policy&#45;&gt;resource_server_policy -->
<g id="edge1" class="edge">
<title>associated_policy:w&#45;&gt;resource_server_policy:e</title>
<path fill="none" stroke="#000000" d="M512.6152,-790.5105C454.286,-766.6684 517.4338,-624.0984 440.5,-629.7"/>
<polygon fill="#000000" stroke="#000000" points="519.1897,-791.9682 526.2207,-797.2146 523.0948,-792.8341 527,-793.7 527,-793.7 527,-793.7 523.0948,-792.8341 527.7793,-790.1854 519.1897,-791.9682 519.1897,-791.9682"/>
<ellipse fill="none" stroke="#000000" cx="516.0656" cy="-791.2755" rx="3.2" ry="3.2"/>
</g>
<!-- associated_policy&#45;&gt;resource_server_policy -->
<g id="edge2" class="edge">
<title>associated_policy:w&#45;&gt;resource_server_policy:e</title>
<path fill="none" stroke="#000000" d="M512.6152,-792.9284C454.286,-779.6111 517.4338,-636.2352 440.5,-629.7"/>
<polygon fill="#000000" stroke="#000000" points="519.0115,-793.2714 526.8071,-797.2948 523.0057,-793.4857 527,-793.7 527,-793.7 527,-793.7 523.0057,-793.4857 527.1929,-790.1052 519.0115,-793.2714 519.0115,-793.2714"/>
<ellipse fill="none" stroke="#000000" cx="515.8161" cy="-793.1" rx="3.2" ry="3.2"/>
</g>
<!-- resource_server -->
<g id="node10" class="node">
<title>resource_server</title>
<g id="a_node10"><a xlink:href="../../tables/resource_server.html" xlink:title="resource_server" target="_top">
<polygon fill="#ffffff" stroke="transparent" points="8,-195.7 8,-329.7 228,-329.7 228,-195.7 8,-195.7"/>
<polygon fill="#f5f5f5" stroke="transparent" points="10,-304.7 10,-327.7 226,-327.7 226,-304.7 10,-304.7"/>
<polygon fill="none" stroke="#000000" points="10,-304.7 10,-327.7 226,-327.7 226,-304.7 10,-304.7"/>
<text text-anchor="start" x="15" y="-313.8" font-family="Helvetica,sans-Serif" font-weight="bold" font-size="11.00" fill="#000000">resource_server</text>
<text text-anchor="start" x="191.0437" y="-312.8" font-family="Helvetica,sans-Serif" font-size="11.00" fill="#000000">[table]</text>
<polygon fill="none" stroke="#000000" points="10,-282.7 10,-304.7 165,-304.7 165,-282.7 10,-282.7"/>
<image xlink:href="../../images/primaryKeys.png" width="11px" height="12px" preserveAspectRatio="xMinYMin meet" x="15" y="-299.7"/>
<text text-anchor="start" x="30" y="-289.8" font-family="Helvetica,sans-Serif" font-size="11.00" fill="#000000">id</text>
<polygon fill="none" stroke="#000000" points="165,-282.7 165,-304.7 226,-304.7 226,-282.7 165,-282.7"/>
<text text-anchor="start" x="167.994" y="-290.4" font-family="Helvetica,sans-Serif" font-size="11.00" fill="#000000">varchar[36]</text>
<polygon fill="none" stroke="#000000" points="10,-260.7 10,-282.7 165,-282.7 165,-260.7 10,-260.7"/>
<text text-anchor="start" x="30" y="-267.8" font-family="Helvetica,sans-Serif" font-size="11.00" fill="#000000">allow_rs_remote_mgmt</text>
<polygon fill="none" stroke="#000000" points="165,-260.7 165,-282.7 226,-282.7 226,-260.7 165,-260.7"/>
<text text-anchor="start" x="168" y="-268.4" font-family="Helvetica,sans-Serif" font-size="11.00" fill="#000000">bool[1]</text>
<polygon fill="none" stroke="#000000" points="10,-238.7 10,-260.7 165,-260.7 165,-238.7 10,-238.7"/>
<text text-anchor="start" x="30" y="-245.8" font-family="Helvetica,sans-Serif" font-size="11.00" fill="#000000">policy_enforce_mode</text>
<polygon fill="none" stroke="#000000" points="165,-238.7 165,-260.7 226,-260.7 226,-238.7 165,-238.7"/>
<text text-anchor="start" x="167.994" y="-246.4" font-family="Helvetica,sans-Serif" font-size="11.00" fill="#000000">varchar[15]</text>
<polygon fill="none" stroke="#000000" points="10,-216.7 10,-238.7 165,-238.7 165,-216.7 10,-216.7"/>
<text text-anchor="start" x="30" y="-223.8" font-family="Helvetica,sans-Serif" font-size="11.00" fill="#000000">decision_strategy</text>
<polygon fill="none" stroke="#000000" points="165,-216.7 165,-238.7 226,-238.7 226,-216.7 165,-216.7"/>
<text text-anchor="start" x="168" y="-224.4" font-family="Helvetica,sans-Serif" font-size="11.00" fill="#000000">int2[5]</text>
<polygon fill="#ffffff" stroke="transparent" points="10,-197.7 10,-216.7 79,-216.7 79,-197.7 10,-197.7"/>
<polygon fill="none" stroke="#000000" points="10,-197.7 10,-216.7 79,-216.7 79,-197.7 10,-197.7"/>
<text text-anchor="start" x="13" y="-203.8" font-family="Helvetica,sans-Serif" font-size="11.00" fill="#000000">&lt; 0</text>
<polygon fill="#ffffff" stroke="transparent" points="79,-197.7 79,-216.7 165,-216.7 165,-197.7 79,-197.7"/>
<polygon fill="none" stroke="#000000" points="79,-197.7 79,-216.7 165,-216.7 165,-197.7 79,-197.7"/>
<text text-anchor="start" x="129.6105" y="-203.8" font-family="Helvetica,sans-Serif" font-size="11.00" fill="#000000">0 rows</text>
<polygon fill="#ffffff" stroke="transparent" points="165,-197.7 165,-216.7 226,-216.7 226,-197.7 165,-197.7"/>
<polygon fill="none" stroke="#000000" points="165,-197.7 165,-216.7 226,-216.7 226,-197.7 165,-197.7"/>
<text text-anchor="start" x="207.4053" y="-203.8" font-family="Helvetica,sans-Serif" font-size="11.00" fill="#000000">4 &gt;</text>
<polygon fill="none" stroke="#000000" stroke-width="2" points="9,-196.7 9,-328.7 227,-328.7 227,-196.7 9,-196.7"/>
</a>
</g>
</g>
<!-- resource_server_policy&#45;&gt;resource_server -->
<g id="edge13" class="edge">
<title>resource_server_policy:w&#45;&gt;resource_server:e</title>
<path fill="none" stroke="#000000" d="M270.8863,-580.1277C229.4965,-539.7587 286.7496,-293.7 226,-293.7"/>
<polygon fill="#000000" stroke="#000000" points="277.0962,-582.6695 283.1363,-589.0317 280.7981,-584.1847 284.5,-585.7 284.5,-585.7 284.5,-585.7 280.7981,-584.1847 285.8637,-582.3683 277.0962,-582.6695 277.0962,-582.6695"/>
<ellipse fill="none" stroke="#000000" cx="274.1347" cy="-581.4572" rx="3.2" ry="3.2"/>
</g>
<!-- policy_config -->
<g id="node3" class="node">
<title>policy_config</title>
<g id="a_node3"><a xlink:href="../../tables/policy_config.html" xlink:title="policy_config" target="_top">
<polygon fill="#ffffff" stroke="transparent" points="538,-684.2 538,-745.2 644,-745.2 644,-684.2 538,-684.2"/>
<polygon fill="#f5f5f5" stroke="transparent" points="538,-721.7 538,-744.7 644,-744.7 644,-721.7 538,-721.7"/>
<polygon fill="none" stroke="#000000" points="538,-721.7 538,-744.7 644,-744.7 644,-721.7 538,-721.7"/>
<text text-anchor="start" x="542.7155" y="-730.8" font-family="Helvetica,sans-Serif" font-weight="bold" font-size="11.00" fill="#000000">policy_config</text>
<text text-anchor="start" x="609.5219" y="-729.8" font-family="Helvetica,sans-Serif" font-size="11.00" fill="#000000">[table]</text>
<polygon fill="none" stroke="#000000" points="538,-702.7 538,-721.7 644,-721.7 644,-702.7 538,-702.7"/>
<text text-anchor="start" x="541" y="-708.8" font-family="Helvetica,sans-Serif" font-size="11.00" fill="#000000">...</text>
<polygon fill="#ffffff" stroke="transparent" points="538,-683.7 538,-702.7 576,-702.7 576,-683.7 538,-683.7"/>
<polygon fill="none" stroke="#000000" points="538,-683.7 538,-702.7 576,-702.7 576,-683.7 538,-683.7"/>
<text text-anchor="start" x="541" y="-689.8" font-family="Helvetica,sans-Serif" font-size="11.00" fill="#000000">&lt; 1</text>
<polygon fill="#ffffff" stroke="transparent" points="576,-683.7 576,-702.7 623,-702.7 623,-683.7 576,-683.7"/>
<polygon fill="none" stroke="#000000" points="576,-683.7 576,-702.7 623,-702.7 623,-683.7 576,-683.7"/>
<text text-anchor="start" x="587.6105" y="-689.8" font-family="Helvetica,sans-Serif" font-size="11.00" fill="#000000">0 rows</text>
<polygon fill="#ffffff" stroke="transparent" points="623,-683.7 623,-702.7 644,-702.7 644,-683.7 623,-683.7"/>
<polygon fill="none" stroke="#000000" points="623,-683.7 623,-702.7 644,-702.7 644,-683.7 623,-683.7"/>
<text text-anchor="start" x="634.8862" y="-689.8" font-family="Helvetica,sans-Serif" font-size="11.00" fill="#000000"> &#160;</text>
</a>
</g>
</g>
<!-- policy_config&#45;&gt;resource_server_policy -->
<g id="edge3" class="edge">
<title>policy_config:w&#45;&gt;resource_server_policy:e</title>
<path fill="none" stroke="#000000" d="M523.7442,-709.2069C509.3768,-703.257 505.6572,-687.6793 489,-673.7 466.7062,-654.9904 469.6043,-629.7 440.5,-629.7"/>
<polygon fill="#000000" stroke="#000000" points="530.1196,-710.3218 537.3798,-715.2462 534.0598,-711.0109 538,-711.7 538,-711.7 538,-711.7 534.0598,-711.0109 538.6202,-708.1538 530.1196,-710.3218 530.1196,-710.3218"/>
<ellipse fill="none" stroke="#000000" cx="526.9674" cy="-709.7705" rx="3.2" ry="3.2"/>
</g>
<!-- resource_attribute -->
<g id="node4" class="node">
<title>resource_attribute</title>
<g id="a_node4"><a xlink:href="../../tables/resource_attribute.html" xlink:title="resource_attribute" target="_top">
<polygon fill="#ffffff" stroke="transparent" points="525.5,-520.2 525.5,-581.2 656.5,-581.2 656.5,-520.2 525.5,-520.2"/>
<polygon fill="#f5f5f5" stroke="transparent" points="526,-557.7 526,-580.7 657,-580.7 657,-557.7 526,-557.7"/>
<polygon fill="none" stroke="#000000" points="526,-557.7 526,-580.7 657,-580.7 657,-557.7 526,-557.7"/>
<text text-anchor="start" x="530.6843" y="-566.8" font-family="Helvetica,sans-Serif" font-weight="bold" font-size="11.00" fill="#000000">resource_attribute</text>
<text text-anchor="start" x="622.5219" y="-565.8" font-family="Helvetica,sans-Serif" font-size="11.00" fill="#000000">[table]</text>
<polygon fill="none" stroke="#000000" points="526,-538.7 526,-557.7 657,-557.7 657,-538.7 526,-538.7"/>
<text text-anchor="start" x="529" y="-544.8" font-family="Helvetica,sans-Serif" font-size="11.00" fill="#000000">...</text>
<polygon fill="#ffffff" stroke="transparent" points="526,-519.7 526,-538.7 577,-538.7 577,-519.7 526,-519.7"/>
<polygon fill="none" stroke="#000000" points="526,-519.7 526,-538.7 577,-538.7 577,-519.7 526,-519.7"/>
<text text-anchor="start" x="529" y="-525.8" font-family="Helvetica,sans-Serif" font-size="11.00" fill="#000000">&lt; 1</text>
<polygon fill="#ffffff" stroke="transparent" points="577,-519.7 577,-538.7 630,-538.7 630,-519.7 577,-519.7"/>
<polygon fill="none" stroke="#000000" points="577,-519.7 577,-538.7 630,-538.7 630,-519.7 577,-519.7"/>
<text text-anchor="start" x="594.6105" y="-525.8" font-family="Helvetica,sans-Serif" font-size="11.00" fill="#000000">0 rows</text>
<polygon fill="#ffffff" stroke="transparent" points="630,-519.7 630,-538.7 657,-538.7 657,-519.7 630,-519.7"/>
<polygon fill="none" stroke="#000000" points="630,-519.7 630,-538.7 657,-538.7 657,-519.7 630,-519.7"/>
<text text-anchor="start" x="647.8862" y="-525.8" font-family="Helvetica,sans-Serif" font-size="11.00" fill="#000000"> &#160;</text>
</a>
</g>
</g>
<!-- resource_server_resource -->
<g id="node5" class="node">
<title>resource_server_resource</title>
<g id="a_node5"><a xlink:href="../../tables/resource_server_resource.html" xlink:title="resource_server_resource" target="_top">
<polygon fill="#ffffff" stroke="transparent" points="277,-319.2 277,-468.2 448,-468.2 448,-319.2 277,-319.2"/>
<polygon fill="#f5f5f5" stroke="transparent" points="277.5,-444.7 277.5,-467.7 448.5,-467.7 448.5,-444.7 277.5,-444.7"/>
<polygon fill="none" stroke="#000000" points="277.5,-444.7 277.5,-467.7 448.5,-467.7 448.5,-444.7 277.5,-444.7"/>
<text text-anchor="start" x="282.3249" y="-453.8" font-family="Helvetica,sans-Serif" font-weight="bold" font-size="11.00" fill="#000000">resource_server_resource</text>
<text text-anchor="start" x="414.0219" y="-452.8" font-family="Helvetica,sans-Serif" font-size="11.00" fill="#000000">[table]</text>
<polygon fill="none" stroke="#000000" points="277.5,-422.7 277.5,-444.7 448.5,-444.7 448.5,-422.7 277.5,-422.7"/>
<image xlink:href="../../images/primaryKeys.png" width="11px" height="12px" preserveAspectRatio="xMinYMin meet" x="282.5" y="-439.7"/>
<text text-anchor="start" x="297.5" y="-429.8" font-family="Helvetica,sans-Serif" font-size="11.00" fill="#000000">id</text>
<polygon fill="#ffffff" stroke="transparent" points="277.5,-400.7 277.5,-422.7 448.5,-422.7 448.5,-400.7 277.5,-400.7"/>
<polygon fill="none" stroke="#000000" points="277.5,-400.7 277.5,-422.7 448.5,-422.7 448.5,-400.7 277.5,-400.7"/>
<text text-anchor="start" x="297.5" y="-407.8" font-family="Helvetica,sans-Serif" font-size="11.00" fill="#000000">name</text>
<polygon fill="#ffffff" stroke="transparent" points="277.5,-378.7 277.5,-400.7 448.5,-400.7 448.5,-378.7 277.5,-378.7"/>
<polygon fill="none" stroke="#000000" points="277.5,-378.7 277.5,-400.7 448.5,-400.7 448.5,-378.7 277.5,-378.7"/>
<text text-anchor="start" x="297.5" y="-385.8" font-family="Helvetica,sans-Serif" font-size="11.00" fill="#000000">owner</text>
<polygon fill="#ffffff" stroke="transparent" points="277.5,-356.7 277.5,-378.7 448.5,-378.7 448.5,-356.7 277.5,-356.7"/>
<polygon fill="none" stroke="#000000" points="277.5,-356.7 277.5,-378.7 448.5,-378.7 448.5,-356.7 277.5,-356.7"/>
<image xlink:href="../../images/foreignKeys.png" width="11px" height="12px" preserveAspectRatio="xMinYMin meet" x="282.5" y="-373.7"/>
<text text-anchor="start" x="297.5" y="-363.8" font-family="Helvetica,sans-Serif" font-size="11.00" fill="#000000">resource_server_id</text>
<polygon fill="none" stroke="#000000" points="277.5,-337.7 277.5,-356.7 448.5,-356.7 448.5,-337.7 277.5,-337.7"/>
<text text-anchor="start" x="280.5" y="-343.8" font-family="Helvetica,sans-Serif" font-size="11.00" fill="#000000">...</text>
<polygon fill="#ffffff" stroke="transparent" points="277.5,-318.7 277.5,-337.7 343.5,-337.7 343.5,-318.7 277.5,-318.7"/>
<polygon fill="none" stroke="#000000" points="277.5,-318.7 277.5,-337.7 343.5,-337.7 343.5,-318.7 277.5,-318.7"/>
<text text-anchor="start" x="280.5" y="-324.8" font-family="Helvetica,sans-Serif" font-size="11.00" fill="#000000">&lt; 1</text>
<polygon fill="#ffffff" stroke="transparent" points="343.5,-318.7 343.5,-337.7 404.5,-337.7 404.5,-318.7 343.5,-318.7"/>
<polygon fill="none" stroke="#000000" points="343.5,-318.7 343.5,-337.7 404.5,-337.7 404.5,-318.7 343.5,-318.7"/>
<text text-anchor="start" x="369.1105" y="-324.8" font-family="Helvetica,sans-Serif" font-size="11.00" fill="#000000">0 rows</text>
<polygon fill="#ffffff" stroke="transparent" points="404.5,-318.7 404.5,-337.7 448.5,-337.7 448.5,-318.7 404.5,-318.7"/>
<polygon fill="none" stroke="#000000" points="404.5,-318.7 404.5,-337.7 448.5,-337.7 448.5,-318.7 404.5,-318.7"/>
<text text-anchor="start" x="429.9053" y="-324.8" font-family="Helvetica,sans-Serif" font-size="11.00" fill="#000000">5 &gt;</text>
</a>
</g>
</g>
<!-- resource_attribute&#45;&gt;resource_server_resource -->
<g id="edge4" class="edge">
<title>resource_attribute:w&#45;&gt;resource_server_resource:e</title>
<path fill="none" stroke="#000000" d="M511.905,-544.2422C501.7173,-537.9167 499.319,-523.8278 489,-509.7 466.4248,-478.7921 486.7745,-433.7 448.5,-433.7"/>
<polygon fill="#000000" stroke="#000000" points="518.2304,-545.7939 525.1423,-551.1963 522.1152,-546.7469 526,-547.7 526,-547.7 526,-547.7 522.1152,-546.7469 526.8577,-544.2037 518.2304,-545.7939 518.2304,-545.7939"/>
<ellipse fill="none" stroke="#000000" cx="515.1225" cy="-545.0315" rx="3.2" ry="3.2"/>
</g>
<!-- resource_server_resource&#45;&gt;resource_server -->
<g id="edge14" class="edge">
<title>resource_server_resource:w&#45;&gt;resource_server:e</title>
<path fill="none" stroke="#000000" d="M263.7488,-363.2926C244.4187,-347.3617 260.1218,-293.7 226,-293.7"/>
<polygon fill="#000000" stroke="#000000" points="269.8817,-365.2582 276.4012,-371.1282 273.6909,-366.4791 277.5,-367.7 277.5,-367.7 277.5,-367.7 273.6909,-366.4791 278.5988,-364.2718 269.8817,-365.2582 269.8817,-365.2582"/>
<ellipse fill="none" stroke="#000000" cx="266.8344" cy="-364.2815" rx="3.2" ry="3.2"/>
</g>
<!-- resource_policy -->
<g id="node6" class="node">
<title>resource_policy</title>
<g id="a_node6"><a xlink:href="../../tables/resource_policy.html" xlink:title="resource_policy" target="_top">
<polygon fill="#ffffff" stroke="transparent" points="531,-602.2 531,-663.2 651,-663.2 651,-602.2 531,-602.2"/>
<polygon fill="#f5f5f5" stroke="transparent" points="531,-639.7 531,-662.7 651,-662.7 651,-639.7 531,-639.7"/>
<polygon fill="none" stroke="#000000" points="531,-639.7 531,-662.7 651,-662.7 651,-639.7 531,-639.7"/>
<text text-anchor="start" x="535.9951" y="-648.8" font-family="Helvetica,sans-Serif" font-weight="bold" font-size="11.00" fill="#000000">resource_policy</text>
<text text-anchor="start" x="616.5219" y="-647.8" font-family="Helvetica,sans-Serif" font-size="11.00" fill="#000000">[table]</text>
<polygon fill="none" stroke="#000000" points="531,-620.7 531,-639.7 651,-639.7 651,-620.7 531,-620.7"/>
<text text-anchor="start" x="534" y="-626.8" font-family="Helvetica,sans-Serif" font-size="11.00" fill="#000000">...</text>
<polygon fill="#ffffff" stroke="transparent" points="531,-601.7 531,-620.7 576,-620.7 576,-601.7 531,-601.7"/>
<polygon fill="none" stroke="#000000" points="531,-601.7 531,-620.7 576,-620.7 576,-601.7 531,-601.7"/>
<text text-anchor="start" x="534" y="-607.8" font-family="Helvetica,sans-Serif" font-size="11.00" fill="#000000">&lt; 2</text>
<polygon fill="#ffffff" stroke="transparent" points="576,-601.7 576,-620.7 626,-620.7 626,-601.7 576,-601.7"/>
<polygon fill="none" stroke="#000000" points="576,-601.7 576,-620.7 626,-620.7 626,-601.7 576,-601.7"/>
<text text-anchor="start" x="590.6105" y="-607.8" font-family="Helvetica,sans-Serif" font-size="11.00" fill="#000000">0 rows</text>
<polygon fill="#ffffff" stroke="transparent" points="626,-601.7 626,-620.7 651,-620.7 651,-601.7 626,-601.7"/>
<polygon fill="none" stroke="#000000" points="626,-601.7 626,-620.7 651,-620.7 651,-601.7 626,-601.7"/>
<text text-anchor="start" x="641.8862" y="-607.8" font-family="Helvetica,sans-Serif" font-size="11.00" fill="#000000"> &#160;</text>
</a>
</g>
</g>
<!-- resource_policy&#45;&gt;resource_server_policy -->
<g id="edge5" class="edge">
<title>resource_policy:w&#45;&gt;resource_server_policy:e</title>
<path fill="none" stroke="#000000" d="M516.429,-629.7C487.5747,-629.7 475.3802,-629.7 440.5,-629.7"/>
<polygon fill="#000000" stroke="#000000" points="523,-629.7001 531,-633.3 527,-629.7 531,-629.7 531,-629.7 531,-629.7 527,-629.7 531,-626.1 523,-629.7001 523,-629.7001"/>
<ellipse fill="none" stroke="#000000" cx="519.8" cy="-629.7001" rx="3.2" ry="3.2"/>
</g>
<!-- resource_policy&#45;&gt;resource_server_resource -->
<g id="edge6" class="edge">
<title>resource_policy:w&#45;&gt;resource_server_resource:e</title>
<path fill="none" stroke="#000000" d="M516.4263,-627.1353C503.5328,-621.709 498.9609,-608.1995 489,-591.7 451.5339,-529.64 520.9925,-433.7 448.5,-433.7"/>
<polygon fill="#000000" stroke="#000000" points="523.1211,-628.3134 530.376,-633.2455 527.0605,-629.0067 531,-629.7 531,-629.7 531,-629.7 527.0605,-629.0067 531.624,-626.1545 523.1211,-628.3134 523.1211,-628.3134"/>
<ellipse fill="none" stroke="#000000" cx="519.9695" cy="-627.7588" rx="3.2" ry="3.2"/>
</g>
<!-- resource_scope -->
<g id="node7" class="node">
<title>resource_scope</title>
<g id="a_node7"><a xlink:href="../../tables/resource_scope.html" xlink:title="resource_scope" target="_top">
<polygon fill="#ffffff" stroke="transparent" points="530.5,-274.2 530.5,-335.2 651.5,-335.2 651.5,-274.2 530.5,-274.2"/>
<polygon fill="#f5f5f5" stroke="transparent" points="531,-311.7 531,-334.7 652,-334.7 652,-311.7 531,-311.7"/>
<polygon fill="none" stroke="#000000" points="531,-311.7 531,-334.7 652,-334.7 652,-311.7 531,-311.7"/>
<text text-anchor="start" x="535.8785" y="-320.8" font-family="Helvetica,sans-Serif" font-weight="bold" font-size="11.00" fill="#000000">resource_scope</text>
<text text-anchor="start" x="617.5219" y="-319.8" font-family="Helvetica,sans-Serif" font-size="11.00" fill="#000000">[table]</text>
<polygon fill="none" stroke="#000000" points="531,-292.7 531,-311.7 652,-311.7 652,-292.7 531,-292.7"/>
<text text-anchor="start" x="534" y="-298.8" font-family="Helvetica,sans-Serif" font-size="11.00" fill="#000000">...</text>
<polygon fill="#ffffff" stroke="transparent" points="531,-273.7 531,-292.7 577,-292.7 577,-273.7 531,-273.7"/>
<polygon fill="none" stroke="#000000" points="531,-273.7 531,-292.7 577,-292.7 577,-273.7 531,-273.7"/>
<text text-anchor="start" x="534" y="-279.8" font-family="Helvetica,sans-Serif" font-size="11.00" fill="#000000">&lt; 2</text>
<polygon fill="#ffffff" stroke="transparent" points="577,-273.7 577,-292.7 627,-292.7 627,-273.7 577,-273.7"/>
<polygon fill="none" stroke="#000000" points="577,-273.7 577,-292.7 627,-292.7 627,-273.7 577,-273.7"/>
<text text-anchor="start" x="591.6105" y="-279.8" font-family="Helvetica,sans-Serif" font-size="11.00" fill="#000000">0 rows</text>
<polygon fill="#ffffff" stroke="transparent" points="627,-273.7 627,-292.7 652,-292.7 652,-273.7 627,-273.7"/>
<polygon fill="none" stroke="#000000" points="627,-273.7 627,-292.7 652,-292.7 652,-273.7 627,-273.7"/>
<text text-anchor="start" x="642.8862" y="-279.8" font-family="Helvetica,sans-Serif" font-size="11.00" fill="#000000"> &#160;</text>
</a>
</g>
</g>
<!-- resource_scope&#45;&gt;resource_server_resource -->
<g id="edge7" class="edge">
<title>resource_scope:w&#45;&gt;resource_server_resource:e</title>
<path fill="none" stroke="#000000" d="M516.7253,-304.5873C503.3268,-311.2012 500.8687,-328.2295 489,-345.7 464.8058,-381.3135 491.5544,-433.7 448.5,-433.7"/>
<polygon fill="#000000" stroke="#000000" points="523.1588,-303.2861 531.7137,-305.2285 527.0794,-302.493 531,-301.7 531,-301.7 531,-301.7 527.0794,-302.493 530.2863,-298.1715 523.1588,-303.2861 523.1588,-303.2861"/>
<ellipse fill="none" stroke="#000000" cx="520.0223" cy="-303.9205" rx="3.2" ry="3.2"/>
</g>
<!-- resource_server_scope -->
<g id="node8" class="node">
<title>resource_server_scope</title>
<g id="a_node8"><a xlink:href="../../tables/resource_server_scope.html" xlink:title="resource_server_scope" target="_top">
<polygon fill="#ffffff" stroke="transparent" points="284,-171.2 284,-298.2 441,-298.2 441,-171.2 284,-171.2"/>
<polygon fill="#f5f5f5" stroke="transparent" points="284.5,-274.7 284.5,-297.7 441.5,-297.7 441.5,-274.7 284.5,-274.7"/>
<polygon fill="none" stroke="#000000" points="284.5,-274.7 284.5,-297.7 441.5,-297.7 441.5,-274.7 284.5,-274.7"/>
<text text-anchor="start" x="289.0443" y="-283.8" font-family="Helvetica,sans-Serif" font-weight="bold" font-size="11.00" fill="#000000">resource_server_scope</text>
<text text-anchor="start" x="407.0219" y="-282.8" font-family="Helvetica,sans-Serif" font-size="11.00" fill="#000000">[table]</text>
<polygon fill="none" stroke="#000000" points="284.5,-252.7 284.5,-274.7 441.5,-274.7 441.5,-252.7 284.5,-252.7"/>
<image xlink:href="../../images/primaryKeys.png" width="11px" height="12px" preserveAspectRatio="xMinYMin meet" x="289.5" y="-269.7"/>
<text text-anchor="start" x="305.5" y="-259.8" font-family="Helvetica,sans-Serif" font-size="11.00" fill="#000000">id</text>
<polygon fill="#ffffff" stroke="transparent" points="284.5,-230.7 284.5,-252.7 441.5,-252.7 441.5,-230.7 284.5,-230.7"/>
<polygon fill="none" stroke="#000000" points="284.5,-230.7 284.5,-252.7 441.5,-252.7 441.5,-230.7 284.5,-230.7"/>
<text text-anchor="start" x="305.5" y="-237.8" font-family="Helvetica,sans-Serif" font-size="11.00" fill="#000000">name</text>
<polygon fill="#ffffff" stroke="transparent" points="284.5,-208.7 284.5,-230.7 441.5,-230.7 441.5,-208.7 284.5,-208.7"/>
<polygon fill="none" stroke="#000000" points="284.5,-208.7 284.5,-230.7 441.5,-230.7 441.5,-208.7 284.5,-208.7"/>
<image xlink:href="../../images/foreignKeys.png" width="11px" height="12px" preserveAspectRatio="xMinYMin meet" x="289.5" y="-225.7"/>
<text text-anchor="start" x="305.5" y="-215.8" font-family="Helvetica,sans-Serif" font-size="11.00" fill="#000000">resource_server_id</text>
<polygon fill="none" stroke="#000000" points="284.5,-189.7 284.5,-208.7 441.5,-208.7 441.5,-189.7 284.5,-189.7"/>
<text text-anchor="start" x="287.5" y="-195.8" font-family="Helvetica,sans-Serif" font-size="11.00" fill="#000000">...</text>
<polygon fill="#ffffff" stroke="transparent" points="284.5,-170.7 284.5,-189.7 343.5,-189.7 343.5,-170.7 284.5,-170.7"/>
<polygon fill="none" stroke="#000000" points="284.5,-170.7 284.5,-189.7 343.5,-189.7 343.5,-170.7 284.5,-170.7"/>
<text text-anchor="start" x="287.5" y="-176.8" font-family="Helvetica,sans-Serif" font-size="11.00" fill="#000000">&lt; 1</text>
<polygon fill="#ffffff" stroke="transparent" points="343.5,-170.7 343.5,-189.7 400.5,-189.7 400.5,-170.7 343.5,-170.7"/>
<polygon fill="none" stroke="#000000" points="343.5,-170.7 343.5,-189.7 400.5,-189.7 400.5,-170.7 343.5,-170.7"/>
<text text-anchor="start" x="365.1105" y="-176.8" font-family="Helvetica,sans-Serif" font-size="11.00" fill="#000000">0 rows</text>
<polygon fill="#ffffff" stroke="transparent" points="400.5,-170.7 400.5,-189.7 441.5,-189.7 441.5,-170.7 400.5,-170.7"/>
<polygon fill="none" stroke="#000000" points="400.5,-170.7 400.5,-189.7 441.5,-189.7 441.5,-170.7 400.5,-170.7"/>
<text text-anchor="start" x="422.9053" y="-176.8" font-family="Helvetica,sans-Serif" font-size="11.00" fill="#000000">3 &gt;</text>
</a>
</g>
</g>
<!-- resource_scope&#45;&gt;resource_server_scope -->
<g id="edge8" class="edge">
<title>resource_scope:w&#45;&gt;resource_server_scope:e</title>
<path fill="none" stroke="#000000" d="M516.5194,-300.0672C486.3904,-292.7938 479.3128,-263.7 441.5,-263.7"/>
<polygon fill="#000000" stroke="#000000" points="523.0504,-300.8036 530.5966,-305.2773 527.0252,-301.2518 531,-301.7 531,-301.7 531,-301.7 527.0252,-301.2518 531.4034,-298.1227 523.0504,-300.8036 523.0504,-300.8036"/>
<ellipse fill="none" stroke="#000000" cx="519.8705" cy="-300.445" rx="3.2" ry="3.2"/>
</g>
<!-- resource_server_scope&#45;&gt;resource_server -->
<g id="edge15" class="edge">
<title>resource_server_scope:w&#45;&gt;resource_server:e</title>
<path fill="none" stroke="#000000" d="M270.43,-223.6786C248.3745,-239.0491 262.029,-293.7 226,-293.7"/>
<polygon fill="#000000" stroke="#000000" points="276.8018,-221.8768 285.4796,-223.1642 280.6509,-220.7884 284.5,-219.7 284.5,-219.7 284.5,-219.7 280.6509,-220.7884 283.5204,-216.2358 276.8018,-221.8768 276.8018,-221.8768"/>
<ellipse fill="none" stroke="#000000" cx="273.7226" cy="-222.7476" rx="3.2" ry="3.2"/>
</g>
<!-- resource_server_perm_ticket -->
<g id="node9" class="node">
<title>resource_server_perm_ticket</title>
<g id="a_node9"><a xlink:href="../../tables/resource_server_perm_ticket.html" xlink:title="resource_server_perm_ticket" target="_top">
<polygon fill="#ffffff" stroke="transparent" points="497,-38.2 497,-253.2 685,-253.2 685,-38.2 497,-38.2"/>
<polygon fill="#f5f5f5" stroke="transparent" points="497,-229.7 497,-252.7 685,-252.7 685,-229.7 497,-229.7"/>
<polygon fill="none" stroke="#000000" points="497,-229.7 497,-252.7 685,-252.7 685,-229.7 497,-229.7"/>
<text text-anchor="start" x="502" y="-238.8" font-family="Helvetica,sans-Serif" font-weight="bold" font-size="11.00" fill="#000000">resource_server_perm_ticket</text>
<text text-anchor="start" x="650.0437" y="-237.8" font-family="Helvetica,sans-Serif" font-size="11.00" fill="#000000">[table]</text>
<polygon fill="none" stroke="#000000" points="497,-207.7 497,-229.7 685,-229.7 685,-207.7 497,-207.7"/>
<image xlink:href="../../images/primaryKeys.png" width="11px" height="12px" preserveAspectRatio="xMinYMin meet" x="502" y="-224.7"/>
<text text-anchor="start" x="517" y="-214.8" font-family="Helvetica,sans-Serif" font-size="11.00" fill="#000000">id</text>
<polygon fill="#ffffff" stroke="transparent" points="497,-185.7 497,-207.7 685,-207.7 685,-185.7 497,-185.7"/>
<polygon fill="none" stroke="#000000" points="497,-185.7 497,-207.7 685,-207.7 685,-185.7 497,-185.7"/>
<text text-anchor="start" x="517" y="-192.8" font-family="Helvetica,sans-Serif" font-size="11.00" fill="#000000">owner</text>
<polygon fill="#ffffff" stroke="transparent" points="497,-163.7 497,-185.7 685,-185.7 685,-163.7 497,-163.7"/>
<polygon fill="none" stroke="#000000" points="497,-163.7 497,-185.7 685,-185.7 685,-163.7 497,-163.7"/>
<text text-anchor="start" x="517" y="-170.8" font-family="Helvetica,sans-Serif" font-size="11.00" fill="#000000">requester</text>
<polygon fill="#ffffff" stroke="transparent" points="497,-141.7 497,-163.7 685,-163.7 685,-141.7 497,-141.7"/>
<polygon fill="none" stroke="#000000" points="497,-141.7 497,-163.7 685,-163.7 685,-141.7 497,-141.7"/>
<image xlink:href="../../images/foreignKeys.png" width="11px" height="12px" preserveAspectRatio="xMinYMin meet" x="502" y="-158.7"/>
<text text-anchor="start" x="517" y="-148.8" font-family="Helvetica,sans-Serif" font-size="11.00" fill="#000000">resource_id</text>
<polygon fill="#ffffff" stroke="transparent" points="497,-119.7 497,-141.7 685,-141.7 685,-119.7 497,-119.7"/>
<polygon fill="none" stroke="#000000" points="497,-119.7 497,-141.7 685,-141.7 685,-119.7 497,-119.7"/>
<image xlink:href="../../images/foreignKeys.png" width="11px" height="12px" preserveAspectRatio="xMinYMin meet" x="502" y="-136.7"/>
<text text-anchor="start" x="517" y="-126.8" font-family="Helvetica,sans-Serif" font-size="11.00" fill="#000000">scope_id</text>
<polygon fill="#ffffff" stroke="transparent" points="497,-97.7 497,-119.7 685,-119.7 685,-97.7 497,-97.7"/>
<polygon fill="none" stroke="#000000" points="497,-97.7 497,-119.7 685,-119.7 685,-97.7 497,-97.7"/>
<image xlink:href="../../images/foreignKeys.png" width="11px" height="12px" preserveAspectRatio="xMinYMin meet" x="502" y="-114.7"/>
<text text-anchor="start" x="517" y="-104.8" font-family="Helvetica,sans-Serif" font-size="11.00" fill="#000000">resource_server_id</text>
<polygon fill="none" stroke="#000000" points="497,-75.7 497,-97.7 685,-97.7 685,-75.7 497,-75.7"/>
<image xlink:href="../../images/foreignKeys.png" width="11px" height="12px" preserveAspectRatio="xMinYMin meet" x="502" y="-92.7"/>
<text text-anchor="start" x="517" y="-82.8" font-family="Helvetica,sans-Serif" font-size="11.00" fill="#000000">policy_id</text>
<polygon fill="none" stroke="#000000" points="497,-56.7 497,-75.7 685,-75.7 685,-56.7 497,-56.7"/>
<text text-anchor="start" x="500" y="-62.8" font-family="Helvetica,sans-Serif" font-size="11.00" fill="#000000">...</text>
<polygon fill="#ffffff" stroke="transparent" points="497,-37.7 497,-56.7 576,-56.7 576,-37.7 497,-37.7"/>
<polygon fill="none" stroke="#000000" points="497,-37.7 497,-56.7 576,-56.7 576,-37.7 497,-37.7"/>
<text text-anchor="start" x="500" y="-43.8" font-family="Helvetica,sans-Serif" font-size="11.00" fill="#000000">&lt; 4</text>
<polygon fill="#ffffff" stroke="transparent" points="576,-37.7 576,-56.7 643,-56.7 643,-37.7 576,-37.7"/>
<polygon fill="none" stroke="#000000" points="576,-37.7 576,-56.7 643,-56.7 643,-37.7 576,-37.7"/>
<text text-anchor="start" x="607.6105" y="-43.8" font-family="Helvetica,sans-Serif" font-size="11.00" fill="#000000">0 rows</text>
<polygon fill="#ffffff" stroke="transparent" points="643,-37.7 643,-56.7 685,-56.7 685,-37.7 643,-37.7"/>
<polygon fill="none" stroke="#000000" points="643,-37.7 643,-56.7 685,-56.7 685,-37.7 643,-37.7"/>
<text text-anchor="start" x="675.8862" y="-43.8" font-family="Helvetica,sans-Serif" font-size="11.00" fill="#000000"> &#160;</text>
</a>
</g>
</g>
<!-- resource_server_perm_ticket&#45;&gt;resource_server_policy -->
<g id="edge9" class="edge">
<title>resource_server_perm_ticket:w&#45;&gt;resource_server_policy:e</title>
<path fill="none" stroke="#000000" d="M485.2117,-95.6717C445.4875,-166.2721 496.5385,-629.7 440.5,-629.7"/>
<polygon fill="#000000" stroke="#000000" points="490.634,-91.545 499.1802,-89.5647 493.817,-89.1225 497,-86.7 497,-86.7 497,-86.7 493.817,-89.1225 494.8198,-83.8353 490.634,-91.545 490.634,-91.545"/>
<ellipse fill="none" stroke="#000000" cx="488.0876" cy="-93.483" rx="3.2" ry="3.2"/>
</g>
<!-- resource_server_perm_ticket&#45;&gt;resource_server_resource -->
<g id="edge10" class="edge">
<title>resource_server_perm_ticket:w&#45;&gt;resource_server_resource:e</title>
<path fill="none" stroke="#000000" d="M483.6206,-158.5691C446.0332,-198.9216 506.4221,-433.7 448.5,-433.7"/>
<polygon fill="#000000" stroke="#000000" points="489.6739,-155.9137 498.4462,-155.9968 493.3369,-154.3069 497,-152.7 497,-152.7 497,-152.7 493.3369,-154.3069 495.5538,-149.4032 489.6739,-155.9137 489.6739,-155.9137"/>
<ellipse fill="none" stroke="#000000" cx="486.7434" cy="-157.1992" rx="3.2" ry="3.2"/>
</g>
<!-- resource_server_perm_ticket&#45;&gt;resource_server_scope -->
<g id="edge12" class="edge">
<title>resource_server_perm_ticket:w&#45;&gt;resource_server_scope:e</title>
<path fill="none" stroke="#000000" d="M482.8471,-133.7278C444.8914,-153.5249 499.7967,-263.7 441.5,-263.7"/>
<polygon fill="#000000" stroke="#000000" points="489.177,-132.3736 497.7531,-134.2203 493.0885,-131.5368 497,-130.7 497,-130.7 497,-130.7 493.0885,-131.5368 496.2469,-127.1797 489.177,-132.3736 489.177,-132.3736"/>
<ellipse fill="none" stroke="#000000" cx="486.0478" cy="-133.0431" rx="3.2" ry="3.2"/>
</g>
<!-- resource_server_perm_ticket&#45;&gt;resource_server -->
<g id="edge11" class="edge">
<title>resource_server_perm_ticket:w&#45;&gt;resource_server:e</title>
<path fill="none" stroke="#000000" d="M482.4586,-108.5868C388.4619,-107.1632 342.0025,-93.8861 269,-160.7 223.1724,-202.6427 288.1237,-293.7 226,-293.7"/>
<polygon fill="#000000" stroke="#000000" points="489.0002,-108.6377 496.972,-112.2999 493.0001,-108.6688 497,-108.7 497,-108.7 497,-108.7 493.0001,-108.6688 497.028,-105.1001 489.0002,-108.6377 489.0002,-108.6377"/>
<ellipse fill="none" stroke="#000000" cx="485.8003" cy="-108.6128" rx="3.2" ry="3.2"/>
</g>
<!-- resource_uris -->
<g id="node11" class="node">
<title>resource_uris</title>
<g id="a_node11"><a xlink:href="../../tables/resource_uris.html" xlink:title="resource_uris" target="_top">
<polygon fill="#ffffff" stroke="transparent" points="536.5,-356.2 536.5,-417.2 645.5,-417.2 645.5,-356.2 536.5,-356.2"/>
<polygon fill="#f5f5f5" stroke="transparent" points="537,-393.7 537,-416.7 646,-416.7 646,-393.7 537,-393.7"/>
<polygon fill="none" stroke="#000000" points="537,-393.7 537,-416.7 646,-416.7 646,-393.7 537,-393.7"/>
<text text-anchor="start" x="541.692" y="-402.8" font-family="Helvetica,sans-Serif" font-weight="bold" font-size="11.00" fill="#000000">resource_uris</text>
<text text-anchor="start" x="611.5219" y="-401.8" font-family="Helvetica,sans-Serif" font-size="11.00" fill="#000000">[table]</text>
<polygon fill="none" stroke="#000000" points="537,-374.7 537,-393.7 646,-393.7 646,-374.7 537,-374.7"/>
<text text-anchor="start" x="540" y="-380.8" font-family="Helvetica,sans-Serif" font-size="11.00" fill="#000000">...</text>
<polygon fill="#ffffff" stroke="transparent" points="537,-355.7 537,-374.7 577,-374.7 577,-355.7 537,-355.7"/>
<polygon fill="none" stroke="#000000" points="537,-355.7 537,-374.7 577,-374.7 577,-355.7 537,-355.7"/>
<text text-anchor="start" x="540" y="-361.8" font-family="Helvetica,sans-Serif" font-size="11.00" fill="#000000">&lt; 1</text>
<polygon fill="#ffffff" stroke="transparent" points="577,-355.7 577,-374.7 624,-374.7 624,-355.7 577,-355.7"/>
<polygon fill="none" stroke="#000000" points="577,-355.7 577,-374.7 624,-374.7 624,-355.7 577,-355.7"/>
<text text-anchor="start" x="588.6105" y="-361.8" font-family="Helvetica,sans-Serif" font-size="11.00" fill="#000000">0 rows</text>
<polygon fill="#ffffff" stroke="transparent" points="624,-355.7 624,-374.7 646,-374.7 646,-355.7 624,-355.7"/>
<polygon fill="none" stroke="#000000" points="624,-355.7 624,-374.7 646,-374.7 646,-355.7 624,-355.7"/>
<text text-anchor="start" x="636.8862" y="-361.8" font-family="Helvetica,sans-Serif" font-size="11.00" fill="#000000"> &#160;</text>
</a>
</g>
</g>
<!-- resource_uris&#45;&gt;resource_server_resource -->
<g id="edge16" class="edge">
<title>resource_uris:w&#45;&gt;resource_server_resource:e</title>
<path fill="none" stroke="#000000" d="M522.49,-385.722C491.5825,-395.0762 488.2061,-433.7 448.5,-433.7"/>
<polygon fill="#000000" stroke="#000000" points="529.0766,-384.8042 537.4969,-387.2655 533.0383,-384.2521 537,-383.7 537,-383.7 537,-383.7 533.0383,-384.2521 536.5031,-380.1345 529.0766,-384.8042 529.0766,-384.8042"/>
<ellipse fill="none" stroke="#000000" cx="525.9072" cy="-385.2459" rx="3.2" ry="3.2"/>
</g>
<!-- scope_policy -->
<g id="node12" class="node">
<title>scope_policy</title>
<g id="a_node12"><a xlink:href="../../tables/scope_policy.html" xlink:title="scope_policy" target="_top">
<polygon fill="#ffffff" stroke="transparent" points="538,-438.2 538,-499.2 644,-499.2 644,-438.2 538,-438.2"/>
<polygon fill="#f5f5f5" stroke="transparent" points="538,-475.7 538,-498.7 644,-498.7 644,-475.7 538,-475.7"/>
<polygon fill="none" stroke="#000000" points="538,-475.7 538,-498.7 644,-498.7 644,-475.7 538,-475.7"/>
<text text-anchor="start" x="542.7144" y="-484.8" font-family="Helvetica,sans-Serif" font-weight="bold" font-size="11.00" fill="#000000">scope_policy</text>
<text text-anchor="start" x="609.5219" y="-483.8" font-family="Helvetica,sans-Serif" font-size="11.00" fill="#000000">[table]</text>
<polygon fill="none" stroke="#000000" points="538,-456.7 538,-475.7 644,-475.7 644,-456.7 538,-456.7"/>
<text text-anchor="start" x="541" y="-462.8" font-family="Helvetica,sans-Serif" font-size="11.00" fill="#000000">...</text>
<polygon fill="#ffffff" stroke="transparent" points="538,-437.7 538,-456.7 576,-456.7 576,-437.7 538,-437.7"/>
<polygon fill="none" stroke="#000000" points="538,-437.7 538,-456.7 576,-456.7 576,-437.7 538,-437.7"/>
<text text-anchor="start" x="541" y="-443.8" font-family="Helvetica,sans-Serif" font-size="11.00" fill="#000000">&lt; 2</text>
<polygon fill="#ffffff" stroke="transparent" points="576,-437.7 576,-456.7 623,-456.7 623,-437.7 576,-437.7"/>
<polygon fill="none" stroke="#000000" points="576,-437.7 576,-456.7 623,-456.7 623,-437.7 576,-437.7"/>
<text text-anchor="start" x="587.6105" y="-443.8" font-family="Helvetica,sans-Serif" font-size="11.00" fill="#000000">0 rows</text>
<polygon fill="#ffffff" stroke="transparent" points="623,-437.7 623,-456.7 644,-456.7 644,-437.7 623,-437.7"/>
<polygon fill="none" stroke="#000000" points="623,-437.7 623,-456.7 644,-456.7 644,-437.7 623,-437.7"/>
<text text-anchor="start" x="634.8862" y="-443.8" font-family="Helvetica,sans-Serif" font-size="11.00" fill="#000000"> &#160;</text>
</a>
</g>
</g>
<!-- scope_policy&#45;&gt;resource_server_policy -->
<g id="edge17" class="edge">
<title>scope_policy:w&#45;&gt;resource_server_policy:e</title>
<path fill="none" stroke="#000000" d="M523.5652,-467.873C507.0587,-473.6765 502.5234,-490.4168 489,-509.7 455.9705,-556.7971 498.0247,-629.7 440.5,-629.7"/>
<polygon fill="#000000" stroke="#000000" points="530.0891,-466.8909 538.5359,-469.2599 534.0446,-466.2955 538,-465.7 538,-465.7 538,-465.7 534.0446,-466.2955 537.4641,-462.1401 530.0891,-466.8909 530.0891,-466.8909"/>
<ellipse fill="none" stroke="#000000" cx="526.9248" cy="-467.3673" rx="3.2" ry="3.2"/>
</g>
<!-- scope_policy&#45;&gt;resource_server_scope -->
<g id="edge18" class="edge">
<title>scope_policy:w&#45;&gt;resource_server_scope:e</title>
<path fill="none" stroke="#000000" d="M523.6062,-463.8908C507.5851,-459.2396 501.2337,-445.9382 489,-427.7 446.7278,-364.6799 517.3846,-263.7 441.5,-263.7"/>
<polygon fill="#000000" stroke="#000000" points="530.0625,-464.7023 537.551,-469.2719 534.0312,-465.2011 538,-465.7 538,-465.7 538,-465.7 534.0312,-465.2011 538.449,-462.1281 530.0625,-464.7023 530.0625,-464.7023"/>
<ellipse fill="none" stroke="#000000" cx="526.8874" cy="-464.3032" rx="3.2" ry="3.2"/>
</g>
</g>
</svg>
