<?xml version="1.0" encoding="UTF-8" standalone="no"?>
<!DOCTYPE svg PUBLIC "-//W3C//DTD SVG 1.1//EN"
 "http://www.w3.org/Graphics/SVG/1.1/DTD/svg11.dtd">
<!-- Generated by graphviz version 2.40.1 (20161225.0304)
 -->
<!-- Title: oneDegreeRelationshipsDiagram Pages: 1 -->
<svg width="415pt" height="201pt"
 viewBox="0.00 0.00 415.00 200.70" xmlns="http://www.w3.org/2000/svg" xmlns:xlink="http://www.w3.org/1999/xlink">
<g id="graph0" class="graph" transform="scale(1 1) rotate(0) translate(4 196.7)">
<title>oneDegreeRelationshipsDiagram</title>
<polygon fill="#ffffff" stroke="transparent" points="-4,4 -4,-196.7 411,-196.7 411,4 -4,4"/>
<text text-anchor="middle" x="72.4936" y="-7.3" font-family="Helvetica,sans-Serif" font-size="11.00" fill="#000000">Generated by SchemaSpy</text>
<!-- resource_uris -->
<g id="node1" class="node">
<title>resource_uris</title>
<g id="a_node1"><a xlink:href="../../tables/resource_uris.html" xlink:title="resource_uris" target="_top">
<polygon fill="#ffffff" stroke="transparent" points="228,-98.7 228,-188.7 399,-188.7 399,-98.7 228,-98.7"/>
<polygon fill="#f5f5f5" stroke="transparent" points="230.5,-163.7 230.5,-186.7 397.5,-186.7 397.5,-163.7 230.5,-163.7"/>
<polygon fill="none" stroke="#000000" points="230.5,-163.7 230.5,-186.7 397.5,-186.7 397.5,-163.7 230.5,-163.7"/>
<text text-anchor="start" x="235.5" y="-172.8" font-family="Helvetica,sans-Serif" font-weight="bold" font-size="11.00" fill="#000000">resource_uris</text>
<text text-anchor="start" x="362.5437" y="-171.8" font-family="Helvetica,sans-Serif" font-size="11.00" fill="#000000">[table]</text>
<polygon fill="none" stroke="#000000" points="230.5,-141.7 230.5,-163.7 330.5,-163.7 330.5,-141.7 230.5,-141.7"/>
<image xlink:href="../../images/primaryKeys.png" width="11px" height="12px" preserveAspectRatio="xMinYMin meet" x="235.5" y="-158.7"/>
<text text-anchor="start" x="250.5" y="-148.8" font-family="Helvetica,sans-Serif" font-size="11.00" fill="#000000">resource_id</text>
<polygon fill="none" stroke="#000000" points="330.5,-141.7 330.5,-163.7 397.5,-163.7 397.5,-141.7 330.5,-141.7"/>
<text text-anchor="start" x="333.5" y="-149.4" font-family="Helvetica,sans-Serif" font-size="11.00" fill="#000000">varchar[36]</text>
<polygon fill="none" stroke="#000000" points="230.5,-119.7 230.5,-141.7 330.5,-141.7 330.5,-119.7 230.5,-119.7"/>
<image xlink:href="../../images/primaryKeys.png" width="11px" height="12px" preserveAspectRatio="xMinYMin meet" x="235.5" y="-136.7"/>
<text text-anchor="start" x="250.5" y="-126.8" font-family="Helvetica,sans-Serif" font-size="11.00" fill="#000000">value</text>
<polygon fill="none" stroke="#000000" points="330.5,-119.7 330.5,-141.7 397.5,-141.7 397.5,-119.7 330.5,-119.7"/>
<text text-anchor="start" x="333.4365" y="-127.4" font-family="Helvetica,sans-Serif" font-size="11.00" fill="#000000">varchar[255]</text>
<polygon fill="#ffffff" stroke="transparent" points="230.5,-100.7 230.5,-119.7 271.5,-119.7 271.5,-100.7 230.5,-100.7"/>
<polygon fill="none" stroke="#000000" points="230.5,-100.7 230.5,-119.7 271.5,-119.7 271.5,-100.7 230.5,-100.7"/>
<text text-anchor="start" x="233.5" y="-106.8" font-family="Helvetica,sans-Serif" font-size="11.00" fill="#000000">&lt; 1</text>
<polygon fill="#ffffff" stroke="transparent" points="271.5,-100.7 271.5,-119.7 330.5,-119.7 330.5,-100.7 271.5,-100.7"/>
<polygon fill="none" stroke="#000000" points="271.5,-100.7 271.5,-119.7 330.5,-119.7 330.5,-100.7 271.5,-100.7"/>
<text text-anchor="start" x="295.1105" y="-106.8" font-family="Helvetica,sans-Serif" font-size="11.00" fill="#000000">0 rows</text>
<polygon fill="#ffffff" stroke="transparent" points="330.5,-100.7 330.5,-119.7 397.5,-119.7 397.5,-100.7 330.5,-100.7"/>
<polygon fill="none" stroke="#000000" points="330.5,-100.7 330.5,-119.7 397.5,-119.7 397.5,-100.7 330.5,-100.7"/>
<text text-anchor="start" x="378.9053" y="-106.8" font-family="Helvetica,sans-Serif" font-size="11.00" fill="#000000">0 &gt;</text>
<polygon fill="none" stroke="#000000" stroke-width="2" points="229,-99.7 229,-187.7 398,-187.7 398,-99.7 229,-99.7"/>
</a>
</g>
</g>
<!-- resource_server_resource -->
<g id="node2" class="node">
<title>resource_server_resource</title>
<g id="a_node2"><a xlink:href="../../tables/resource_server_resource.html" xlink:title="resource_server_resource" target="_top">
<polygon fill="#ffffff" stroke="transparent" points="8,-38.2 8,-187.2 179,-187.2 179,-38.2 8,-38.2"/>
<polygon fill="#f5f5f5" stroke="transparent" points="8.5,-163.7 8.5,-186.7 179.5,-186.7 179.5,-163.7 8.5,-163.7"/>
<polygon fill="none" stroke="#000000" points="8.5,-163.7 8.5,-186.7 179.5,-186.7 179.5,-163.7 8.5,-163.7"/>
<text text-anchor="start" x="13.3249" y="-172.8" font-family="Helvetica,sans-Serif" font-weight="bold" font-size="11.00" fill="#000000">resource_server_resource</text>
<text text-anchor="start" x="145.0219" y="-171.8" font-family="Helvetica,sans-Serif" font-size="11.00" fill="#000000">[table]</text>
<polygon fill="none" stroke="#000000" points="8.5,-141.7 8.5,-163.7 179.5,-163.7 179.5,-141.7 8.5,-141.7"/>
<image xlink:href="../../images/primaryKeys.png" width="11px" height="12px" preserveAspectRatio="xMinYMin meet" x="13.5" y="-158.7"/>
<text text-anchor="start" x="28.5" y="-148.8" font-family="Helvetica,sans-Serif" font-size="11.00" fill="#000000">id</text>
<polygon fill="#ffffff" stroke="transparent" points="8.5,-119.7 8.5,-141.7 179.5,-141.7 179.5,-119.7 8.5,-119.7"/>
<polygon fill="none" stroke="#000000" points="8.5,-119.7 8.5,-141.7 179.5,-141.7 179.5,-119.7 8.5,-119.7"/>
<text text-anchor="start" x="28.5" y="-126.8" font-family="Helvetica,sans-Serif" font-size="11.00" fill="#000000">name</text>
<polygon fill="#ffffff" stroke="transparent" points="8.5,-97.7 8.5,-119.7 179.5,-119.7 179.5,-97.7 8.5,-97.7"/>
<polygon fill="none" stroke="#000000" points="8.5,-97.7 8.5,-119.7 179.5,-119.7 179.5,-97.7 8.5,-97.7"/>
<text text-anchor="start" x="28.5" y="-104.8" font-family="Helvetica,sans-Serif" font-size="11.00" fill="#000000">owner</text>
<polygon fill="#ffffff" stroke="transparent" points="8.5,-75.7 8.5,-97.7 179.5,-97.7 179.5,-75.7 8.5,-75.7"/>
<polygon fill="none" stroke="#000000" points="8.5,-75.7 8.5,-97.7 179.5,-97.7 179.5,-75.7 8.5,-75.7"/>
<image xlink:href="../../images/foreignKeys.png" width="11px" height="12px" preserveAspectRatio="xMinYMin meet" x="13.5" y="-92.7"/>
<text text-anchor="start" x="28.5" y="-82.8" font-family="Helvetica,sans-Serif" font-size="11.00" fill="#000000">resource_server_id</text>
<polygon fill="none" stroke="#000000" points="8.5,-56.7 8.5,-75.7 179.5,-75.7 179.5,-56.7 8.5,-56.7"/>
<text text-anchor="start" x="11.5" y="-62.8" font-family="Helvetica,sans-Serif" font-size="11.00" fill="#000000">...</text>
<polygon fill="#ffffff" stroke="transparent" points="8.5,-37.7 8.5,-56.7 74.5,-56.7 74.5,-37.7 8.5,-37.7"/>
<polygon fill="none" stroke="#000000" points="8.5,-37.7 8.5,-56.7 74.5,-56.7 74.5,-37.7 8.5,-37.7"/>
<text text-anchor="start" x="11.5" y="-43.8" font-family="Helvetica,sans-Serif" font-size="11.00" fill="#000000">&lt; 1</text>
<polygon fill="#ffffff" stroke="transparent" points="74.5,-37.7 74.5,-56.7 135.5,-56.7 135.5,-37.7 74.5,-37.7"/>
<polygon fill="none" stroke="#000000" points="74.5,-37.7 74.5,-56.7 135.5,-56.7 135.5,-37.7 74.5,-37.7"/>
<text text-anchor="start" x="100.1105" y="-43.8" font-family="Helvetica,sans-Serif" font-size="11.00" fill="#000000">0 rows</text>
<polygon fill="#ffffff" stroke="transparent" points="135.5,-37.7 135.5,-56.7 179.5,-56.7 179.5,-37.7 135.5,-37.7"/>
<polygon fill="none" stroke="#000000" points="135.5,-37.7 135.5,-56.7 179.5,-56.7 179.5,-37.7 135.5,-37.7"/>
<text text-anchor="start" x="160.9053" y="-43.8" font-family="Helvetica,sans-Serif" font-size="11.00" fill="#000000">5 &gt;</text>
</a>
</g>
</g>
<!-- resource_uris&#45;&gt;resource_server_resource -->
<g id="edge1" class="edge">
<title>resource_uris:w&#45;&gt;resource_server_resource:e</title>
<path fill="none" stroke="#000000" d="M215.776,-152.7C203.7815,-152.7 196.3229,-152.7 179.5,-152.7"/>
<polygon fill="#000000" stroke="#000000" points="222.5,-152.7001 230.5,-156.3 226.5,-152.7 230.5,-152.7 230.5,-152.7 230.5,-152.7 226.5,-152.7 230.5,-149.1 222.5,-152.7001 222.5,-152.7001"/>
<ellipse fill="none" stroke="#000000" cx="219.3" cy="-152.7001" rx="3.2" ry="3.2"/>
</g>
</g>
</svg>
