<?xml version="1.0" encoding="UTF-8" standalone="no"?>
<!DOCTYPE svg PUBLIC "-//W3C//DTD SVG 1.1//EN"
 "http://www.w3.org/Graphics/SVG/1.1/DTD/svg11.dtd">
<!-- Generated by graphviz version 2.40.1 (20161225.0304)
 -->
<!-- Title: oneDegreeRelationshipsDiagram Pages: 1 -->
<svg width="707pt" height="713pt"
 viewBox="0.00 0.00 707.00 713.20" xmlns="http://www.w3.org/2000/svg" xmlns:xlink="http://www.w3.org/1999/xlink">
<g id="graph0" class="graph" transform="scale(1 1) rotate(0) translate(4 709.2)">
<title>oneDegreeRelationshipsDiagram</title>
<polygon fill="#ffffff" stroke="transparent" points="-4,4 -4,-709.2 703,-709.2 703,4 -4,4"/>
<text text-anchor="middle" x="72.4936" y="-7.3" font-family="Helvetica,sans-Serif" font-size="11.00" fill="#000000">Generated by SchemaSpy</text>
<!-- resource_attribute -->
<g id="node1" class="node">
<title>resource_attribute</title>
<g id="a_node1"><a xlink:href="../../tables/resource_attribute.html" xlink:title="resource_attribute" target="_top">
<polygon fill="#ffffff" stroke="transparent" points="531.5,-596.2 531.5,-701.2 662.5,-701.2 662.5,-596.2 531.5,-596.2"/>
<polygon fill="#f5f5f5" stroke="transparent" points="532,-677.7 532,-700.7 663,-700.7 663,-677.7 532,-677.7"/>
<polygon fill="none" stroke="#000000" points="532,-677.7 532,-700.7 663,-700.7 663,-677.7 532,-677.7"/>
<text text-anchor="start" x="536.6843" y="-686.8" font-family="Helvetica,sans-Serif" font-weight="bold" font-size="11.00" fill="#000000">resource_attribute</text>
<text text-anchor="start" x="628.5219" y="-685.8" font-family="Helvetica,sans-Serif" font-size="11.00" fill="#000000">[table]</text>
<polygon fill="none" stroke="#000000" points="532,-655.7 532,-677.7 663,-677.7 663,-655.7 532,-655.7"/>
<image xlink:href="../../images/primaryKeys.png" width="11px" height="12px" preserveAspectRatio="xMinYMin meet" x="537" y="-672.7"/>
<text text-anchor="start" x="555" y="-662.8" font-family="Helvetica,sans-Serif" font-size="11.00" fill="#000000">id</text>
<polygon fill="none" stroke="#000000" points="532,-633.7 532,-655.7 663,-655.7 663,-633.7 532,-633.7"/>
<image xlink:href="../../images/foreignKeys.png" width="11px" height="12px" preserveAspectRatio="xMinYMin meet" x="537" y="-650.7"/>
<text text-anchor="start" x="555" y="-640.8" font-family="Helvetica,sans-Serif" font-size="11.00" fill="#000000">resource_id</text>
<polygon fill="none" stroke="#000000" points="532,-614.7 532,-633.7 663,-633.7 663,-614.7 532,-614.7"/>
<text text-anchor="start" x="535" y="-620.8" font-family="Helvetica,sans-Serif" font-size="11.00" fill="#000000">...</text>
<polygon fill="#ffffff" stroke="transparent" points="532,-595.7 532,-614.7 583,-614.7 583,-595.7 532,-595.7"/>
<polygon fill="none" stroke="#000000" points="532,-595.7 532,-614.7 583,-614.7 583,-595.7 532,-595.7"/>
<text text-anchor="start" x="535" y="-601.8" font-family="Helvetica,sans-Serif" font-size="11.00" fill="#000000">&lt; 1</text>
<polygon fill="#ffffff" stroke="transparent" points="583,-595.7 583,-614.7 636,-614.7 636,-595.7 583,-595.7"/>
<polygon fill="none" stroke="#000000" points="583,-595.7 583,-614.7 636,-614.7 636,-595.7 583,-595.7"/>
<text text-anchor="start" x="600.6105" y="-601.8" font-family="Helvetica,sans-Serif" font-size="11.00" fill="#000000">0 rows</text>
<polygon fill="#ffffff" stroke="transparent" points="636,-595.7 636,-614.7 663,-614.7 663,-595.7 636,-595.7"/>
<polygon fill="none" stroke="#000000" points="636,-595.7 636,-614.7 663,-614.7 663,-595.7 636,-595.7"/>
<text text-anchor="start" x="653.8862" y="-601.8" font-family="Helvetica,sans-Serif" font-size="11.00" fill="#000000"> &#160;</text>
</a>
</g>
</g>
<!-- resource_server_resource -->
<g id="node2" class="node">
<title>resource_server_resource</title>
<g id="a_node2"><a xlink:href="../../tables/resource_server_resource.html" xlink:title="resource_server_resource" target="_top">
<polygon fill="#ffffff" stroke="transparent" points="212,-193.7 212,-415.7 454,-415.7 454,-193.7 212,-193.7"/>
<polygon fill="#f5f5f5" stroke="transparent" points="214,-390.7 214,-413.7 452,-413.7 452,-390.7 214,-390.7"/>
<polygon fill="none" stroke="#000000" points="214,-390.7 214,-413.7 452,-413.7 452,-390.7 214,-390.7"/>
<text text-anchor="start" x="219" y="-399.8" font-family="Helvetica,sans-Serif" font-weight="bold" font-size="11.00" fill="#000000">resource_server_resource</text>
<text text-anchor="start" x="417.0437" y="-398.8" font-family="Helvetica,sans-Serif" font-size="11.00" fill="#000000">[table]</text>
<polygon fill="none" stroke="#000000" points="214,-368.7 214,-390.7 385,-390.7 385,-368.7 214,-368.7"/>
<image xlink:href="../../images/primaryKeys.png" width="11px" height="12px" preserveAspectRatio="xMinYMin meet" x="219" y="-385.7"/>
<text text-anchor="start" x="234" y="-375.8" font-family="Helvetica,sans-Serif" font-size="11.00" fill="#000000">id</text>
<polygon fill="none" stroke="#000000" points="385,-368.7 385,-390.7 452,-390.7 452,-368.7 385,-368.7"/>
<text text-anchor="start" x="388" y="-376.4" font-family="Helvetica,sans-Serif" font-size="11.00" fill="#000000">varchar[36]</text>
<polygon fill="#ffffff" stroke="transparent" points="214,-346.7 214,-368.7 385,-368.7 385,-346.7 214,-346.7"/>
<polygon fill="none" stroke="#000000" points="214,-346.7 214,-368.7 385,-368.7 385,-346.7 214,-346.7"/>
<text text-anchor="start" x="234" y="-353.8" font-family="Helvetica,sans-Serif" font-size="11.00" fill="#000000">name</text>
<polygon fill="none" stroke="#000000" points="385,-346.7 385,-368.7 452,-368.7 452,-346.7 385,-346.7"/>
<text text-anchor="start" x="387.9365" y="-354.4" font-family="Helvetica,sans-Serif" font-size="11.00" fill="#000000">varchar[255]</text>
<polygon fill="none" stroke="#000000" points="214,-324.7 214,-346.7 385,-346.7 385,-324.7 214,-324.7"/>
<text text-anchor="start" x="234" y="-331.8" font-family="Helvetica,sans-Serif" font-size="11.00" fill="#000000">type</text>
<polygon fill="none" stroke="#000000" points="385,-324.7 385,-346.7 452,-346.7 452,-324.7 385,-324.7"/>
<text text-anchor="start" x="387.9365" y="-332.4" font-family="Helvetica,sans-Serif" font-size="11.00" fill="#000000">varchar[255]</text>
<polygon fill="none" stroke="#000000" points="214,-302.7 214,-324.7 385,-324.7 385,-302.7 214,-302.7"/>
<text text-anchor="start" x="234" y="-309.8" font-family="Helvetica,sans-Serif" font-size="11.00" fill="#000000">icon_uri</text>
<polygon fill="none" stroke="#000000" points="385,-302.7 385,-324.7 452,-324.7 452,-302.7 385,-302.7"/>
<text text-anchor="start" x="387.9365" y="-310.4" font-family="Helvetica,sans-Serif" font-size="11.00" fill="#000000">varchar[255]</text>
<polygon fill="#ffffff" stroke="transparent" points="214,-280.7 214,-302.7 385,-302.7 385,-280.7 214,-280.7"/>
<polygon fill="none" stroke="#000000" points="214,-280.7 214,-302.7 385,-302.7 385,-280.7 214,-280.7"/>
<text text-anchor="start" x="234" y="-287.8" font-family="Helvetica,sans-Serif" font-size="11.00" fill="#000000">owner</text>
<polygon fill="none" stroke="#000000" points="385,-280.7 385,-302.7 452,-302.7 452,-280.7 385,-280.7"/>
<text text-anchor="start" x="387.9365" y="-288.4" font-family="Helvetica,sans-Serif" font-size="11.00" fill="#000000">varchar[255]</text>
<polygon fill="#ffffff" stroke="transparent" points="214,-258.7 214,-280.7 385,-280.7 385,-258.7 214,-258.7"/>
<polygon fill="none" stroke="#000000" points="214,-258.7 214,-280.7 385,-280.7 385,-258.7 214,-258.7"/>
<image xlink:href="../../images/foreignKeys.png" width="11px" height="12px" preserveAspectRatio="xMinYMin meet" x="219" y="-275.7"/>
<text text-anchor="start" x="234" y="-265.8" font-family="Helvetica,sans-Serif" font-size="11.00" fill="#000000">resource_server_id</text>
<polygon fill="none" stroke="#000000" points="385,-258.7 385,-280.7 452,-280.7 452,-258.7 385,-258.7"/>
<text text-anchor="start" x="388" y="-266.4" font-family="Helvetica,sans-Serif" font-size="11.00" fill="#000000">varchar[36]</text>
<polygon fill="none" stroke="#000000" points="214,-236.7 214,-258.7 385,-258.7 385,-236.7 214,-236.7"/>
<text text-anchor="start" x="234" y="-243.8" font-family="Helvetica,sans-Serif" font-size="11.00" fill="#000000">owner_managed_access</text>
<polygon fill="none" stroke="#000000" points="385,-236.7 385,-258.7 452,-258.7 452,-236.7 385,-236.7"/>
<text text-anchor="start" x="388" y="-244.4" font-family="Helvetica,sans-Serif" font-size="11.00" fill="#000000">bool[1]</text>
<polygon fill="none" stroke="#000000" points="214,-214.7 214,-236.7 385,-236.7 385,-214.7 214,-214.7"/>
<text text-anchor="start" x="234" y="-221.8" font-family="Helvetica,sans-Serif" font-size="11.00" fill="#000000">display_name</text>
<polygon fill="none" stroke="#000000" points="385,-214.7 385,-236.7 452,-236.7 452,-214.7 385,-214.7"/>
<text text-anchor="start" x="387.9365" y="-222.4" font-family="Helvetica,sans-Serif" font-size="11.00" fill="#000000">varchar[255]</text>
<polygon fill="#ffffff" stroke="transparent" points="214,-195.7 214,-214.7 291,-214.7 291,-195.7 214,-195.7"/>
<polygon fill="none" stroke="#000000" points="214,-195.7 214,-214.7 291,-214.7 291,-195.7 214,-195.7"/>
<text text-anchor="start" x="217" y="-201.8" font-family="Helvetica,sans-Serif" font-size="11.00" fill="#000000">&lt; 1</text>
<polygon fill="#ffffff" stroke="transparent" points="291,-195.7 291,-214.7 385,-214.7 385,-195.7 291,-195.7"/>
<polygon fill="none" stroke="#000000" points="291,-195.7 291,-214.7 385,-214.7 385,-195.7 291,-195.7"/>
<text text-anchor="start" x="349.6105" y="-201.8" font-family="Helvetica,sans-Serif" font-size="11.00" fill="#000000">0 rows</text>
<polygon fill="#ffffff" stroke="transparent" points="385,-195.7 385,-214.7 452,-214.7 452,-195.7 385,-195.7"/>
<polygon fill="none" stroke="#000000" points="385,-195.7 385,-214.7 452,-214.7 452,-195.7 385,-195.7"/>
<text text-anchor="start" x="433.4053" y="-201.8" font-family="Helvetica,sans-Serif" font-size="11.00" fill="#000000">5 &gt;</text>
<polygon fill="none" stroke="#000000" stroke-width="2" points="213,-194.7 213,-414.7 453,-414.7 453,-194.7 213,-194.7"/>
</a>
</g>
</g>
<!-- resource_attribute&#45;&gt;resource_server_resource -->
<g id="edge1" class="edge">
<title>resource_attribute:w&#45;&gt;resource_server_resource:e</title>
<path fill="none" stroke="#000000" d="M517.6387,-641.471C502.5516,-632.9282 504.3066,-608.8026 495,-585.7 477.526,-542.3229 498.7644,-379.7 452,-379.7"/>
<polygon fill="#000000" stroke="#000000" points="524.1948,-642.9451 531.2103,-648.2123 528.0974,-643.8225 532,-644.7 532,-644.7 532,-644.7 528.0974,-643.8225 532.7897,-641.1877 524.1948,-642.9451 524.1948,-642.9451"/>
<ellipse fill="none" stroke="#000000" cx="521.0728" cy="-642.2431" rx="3.2" ry="3.2"/>
</g>
<!-- resource_server -->
<g id="node6" class="node">
<title>resource_server</title>
<g id="a_node6"><a xlink:href="../../tables/resource_server.html" xlink:title="resource_server" target="_top">
<polygon fill="#ffffff" stroke="transparent" points="8,-144.2 8,-227.2 163,-227.2 163,-144.2 8,-144.2"/>
<polygon fill="#f5f5f5" stroke="transparent" points="8.5,-203.7 8.5,-226.7 163.5,-226.7 163.5,-203.7 8.5,-203.7"/>
<polygon fill="none" stroke="#000000" points="8.5,-203.7 8.5,-226.7 163.5,-226.7 163.5,-203.7 8.5,-203.7"/>
<text text-anchor="start" x="13.5" y="-212.8" font-family="Helvetica,sans-Serif" font-weight="bold" font-size="11.00" fill="#000000">resource_server</text>
<text text-anchor="start" x="128.5437" y="-211.8" font-family="Helvetica,sans-Serif" font-size="11.00" fill="#000000">[table]</text>
<polygon fill="none" stroke="#000000" points="8.5,-181.7 8.5,-203.7 163.5,-203.7 163.5,-181.7 8.5,-181.7"/>
<image xlink:href="../../images/primaryKeys.png" width="11px" height="12px" preserveAspectRatio="xMinYMin meet" x="13.5" y="-198.7"/>
<text text-anchor="start" x="28.5" y="-188.8" font-family="Helvetica,sans-Serif" font-size="11.00" fill="#000000">id</text>
<polygon fill="none" stroke="#000000" points="8.5,-162.7 8.5,-181.7 163.5,-181.7 163.5,-162.7 8.5,-162.7"/>
<text text-anchor="start" x="11.5" y="-168.8" font-family="Helvetica,sans-Serif" font-size="11.00" fill="#000000">...</text>
<polygon fill="#ffffff" stroke="transparent" points="8.5,-143.7 8.5,-162.7 62.5,-162.7 62.5,-143.7 8.5,-143.7"/>
<polygon fill="none" stroke="#000000" points="8.5,-143.7 8.5,-162.7 62.5,-162.7 62.5,-143.7 8.5,-143.7"/>
<text text-anchor="start" x="11.5" y="-149.8" font-family="Helvetica,sans-Serif" font-size="11.00" fill="#000000"> &#160;</text>
<polygon fill="#ffffff" stroke="transparent" points="62.5,-143.7 62.5,-162.7 121.5,-162.7 121.5,-143.7 62.5,-143.7"/>
<polygon fill="none" stroke="#000000" points="62.5,-143.7 62.5,-162.7 121.5,-162.7 121.5,-143.7 62.5,-143.7"/>
<text text-anchor="start" x="86.1105" y="-149.8" font-family="Helvetica,sans-Serif" font-size="11.00" fill="#000000">0 rows</text>
<polygon fill="#ffffff" stroke="transparent" points="121.5,-143.7 121.5,-162.7 163.5,-162.7 163.5,-143.7 121.5,-143.7"/>
<polygon fill="none" stroke="#000000" points="121.5,-143.7 121.5,-162.7 163.5,-162.7 163.5,-143.7 121.5,-143.7"/>
<text text-anchor="start" x="144.9053" y="-149.8" font-family="Helvetica,sans-Serif" font-size="11.00" fill="#000000">4 &gt;</text>
</a>
</g>
</g>
<!-- resource_server_resource&#45;&gt;resource_server -->
<g id="edge6" class="edge">
<title>resource_server_resource:w&#45;&gt;resource_server:e</title>
<path fill="none" stroke="#000000" d="M200.0801,-265.1139C180.7892,-248.5372 198.3508,-192.7 163.5,-192.7"/>
<polygon fill="#000000" stroke="#000000" points="206.4018,-267.1966 212.8735,-273.1192 210.2009,-268.4483 214,-269.7 214,-269.7 214,-269.7 210.2009,-268.4483 215.1265,-266.2808 206.4018,-267.1966 206.4018,-267.1966"/>
<ellipse fill="none" stroke="#000000" cx="203.3625" cy="-266.1953" rx="3.2" ry="3.2"/>
</g>
<!-- resource_policy -->
<g id="node3" class="node">
<title>resource_policy</title>
<g id="a_node3"><a xlink:href="../../tables/resource_policy.html" xlink:title="resource_policy" target="_top">
<polygon fill="#ffffff" stroke="transparent" points="537,-488.7 537,-574.7 657,-574.7 657,-488.7 537,-488.7"/>
<polygon fill="#f5f5f5" stroke="transparent" points="537,-551.7 537,-574.7 657,-574.7 657,-551.7 537,-551.7"/>
<polygon fill="none" stroke="#000000" points="537,-551.7 537,-574.7 657,-574.7 657,-551.7 537,-551.7"/>
<text text-anchor="start" x="541.9951" y="-560.8" font-family="Helvetica,sans-Serif" font-weight="bold" font-size="11.00" fill="#000000">resource_policy</text>
<text text-anchor="start" x="622.5219" y="-559.8" font-family="Helvetica,sans-Serif" font-size="11.00" fill="#000000">[table]</text>
<polygon fill="none" stroke="#000000" points="537,-529.7 537,-551.7 657,-551.7 657,-529.7 537,-529.7"/>
<image xlink:href="../../images/primaryKeys.png" width="11px" height="12px" preserveAspectRatio="xMinYMin meet" x="542" y="-546.7"/>
<text text-anchor="start" x="561" y="-536.8" font-family="Helvetica,sans-Serif" font-size="11.00" fill="#000000">resource_id</text>
<polygon fill="none" stroke="#000000" points="537,-507.7 537,-529.7 657,-529.7 657,-507.7 537,-507.7"/>
<image xlink:href="../../images/primaryKeys.png" width="11px" height="12px" preserveAspectRatio="xMinYMin meet" x="542" y="-524.7"/>
<text text-anchor="start" x="561" y="-514.8" font-family="Helvetica,sans-Serif" font-size="11.00" fill="#000000">policy_id</text>
<polygon fill="#ffffff" stroke="transparent" points="537,-488.7 537,-507.7 582,-507.7 582,-488.7 537,-488.7"/>
<polygon fill="none" stroke="#000000" points="537,-488.7 537,-507.7 582,-507.7 582,-488.7 537,-488.7"/>
<text text-anchor="start" x="540" y="-494.8" font-family="Helvetica,sans-Serif" font-size="11.00" fill="#000000">&lt; 2</text>
<polygon fill="#ffffff" stroke="transparent" points="582,-488.7 582,-507.7 632,-507.7 632,-488.7 582,-488.7"/>
<polygon fill="none" stroke="#000000" points="582,-488.7 582,-507.7 632,-507.7 632,-488.7 582,-488.7"/>
<text text-anchor="start" x="596.6105" y="-494.8" font-family="Helvetica,sans-Serif" font-size="11.00" fill="#000000">0 rows</text>
<polygon fill="#ffffff" stroke="transparent" points="632,-488.7 632,-507.7 657,-507.7 657,-488.7 632,-488.7"/>
<polygon fill="none" stroke="#000000" points="632,-488.7 632,-507.7 657,-507.7 657,-488.7 632,-488.7"/>
<text text-anchor="start" x="647.8862" y="-494.8" font-family="Helvetica,sans-Serif" font-size="11.00" fill="#000000"> &#160;</text>
</a>
</g>
</g>
<!-- resource_policy&#45;&gt;resource_server_resource -->
<g id="edge2" class="edge">
<title>resource_policy:w&#45;&gt;resource_server_resource:e</title>
<path fill="none" stroke="#000000" d="M522.6199,-537.7315C505.5921,-529.0191 508.1513,-502.6262 495,-478.7 471.8927,-436.6609 499.9712,-379.7 452,-379.7"/>
<polygon fill="#000000" stroke="#000000" points="529.1652,-539.0826 536.2722,-544.2257 533.0826,-539.8913 537,-540.7 537,-540.7 537,-540.7 533.0826,-539.8913 537.7278,-537.1743 529.1652,-539.0826 529.1652,-539.0826"/>
<ellipse fill="none" stroke="#000000" cx="526.0313" cy="-538.4356" rx="3.2" ry="3.2"/>
</g>
<!-- resource_scope -->
<g id="node4" class="node">
<title>resource_scope</title>
<g id="a_node4"><a xlink:href="../../tables/resource_scope.html" xlink:title="resource_scope" target="_top">
<polygon fill="#ffffff" stroke="transparent" points="536.5,-381.7 536.5,-467.7 657.5,-467.7 657.5,-381.7 536.5,-381.7"/>
<polygon fill="#f5f5f5" stroke="transparent" points="537,-444.7 537,-467.7 658,-467.7 658,-444.7 537,-444.7"/>
<polygon fill="none" stroke="#000000" points="537,-444.7 537,-467.7 658,-467.7 658,-444.7 537,-444.7"/>
<text text-anchor="start" x="541.8785" y="-453.8" font-family="Helvetica,sans-Serif" font-weight="bold" font-size="11.00" fill="#000000">resource_scope</text>
<text text-anchor="start" x="623.5219" y="-452.8" font-family="Helvetica,sans-Serif" font-size="11.00" fill="#000000">[table]</text>
<polygon fill="none" stroke="#000000" points="537,-422.7 537,-444.7 658,-444.7 658,-422.7 537,-422.7"/>
<image xlink:href="../../images/primaryKeys.png" width="11px" height="12px" preserveAspectRatio="xMinYMin meet" x="542" y="-439.7"/>
<text text-anchor="start" x="561" y="-429.8" font-family="Helvetica,sans-Serif" font-size="11.00" fill="#000000">resource_id</text>
<polygon fill="none" stroke="#000000" points="537,-400.7 537,-422.7 658,-422.7 658,-400.7 537,-400.7"/>
<image xlink:href="../../images/primaryKeys.png" width="11px" height="12px" preserveAspectRatio="xMinYMin meet" x="542" y="-417.7"/>
<text text-anchor="start" x="561" y="-407.8" font-family="Helvetica,sans-Serif" font-size="11.00" fill="#000000">scope_id</text>
<polygon fill="#ffffff" stroke="transparent" points="537,-381.7 537,-400.7 583,-400.7 583,-381.7 537,-381.7"/>
<polygon fill="none" stroke="#000000" points="537,-381.7 537,-400.7 583,-400.7 583,-381.7 537,-381.7"/>
<text text-anchor="start" x="540" y="-387.8" font-family="Helvetica,sans-Serif" font-size="11.00" fill="#000000">&lt; 2</text>
<polygon fill="#ffffff" stroke="transparent" points="583,-381.7 583,-400.7 633,-400.7 633,-381.7 583,-381.7"/>
<polygon fill="none" stroke="#000000" points="583,-381.7 583,-400.7 633,-400.7 633,-381.7 583,-381.7"/>
<text text-anchor="start" x="597.6105" y="-387.8" font-family="Helvetica,sans-Serif" font-size="11.00" fill="#000000">0 rows</text>
<polygon fill="#ffffff" stroke="transparent" points="633,-381.7 633,-400.7 658,-400.7 658,-381.7 633,-381.7"/>
<polygon fill="none" stroke="#000000" points="633,-381.7 633,-400.7 658,-400.7 658,-381.7 633,-381.7"/>
<text text-anchor="start" x="648.8862" y="-387.8" font-family="Helvetica,sans-Serif" font-size="11.00" fill="#000000"> &#160;</text>
</a>
</g>
</g>
<!-- resource_scope&#45;&gt;resource_server_resource -->
<g id="edge3" class="edge">
<title>resource_scope:w&#45;&gt;resource_server_resource:e</title>
<path fill="none" stroke="#000000" d="M522.7332,-431.5163C492.6139,-421.4137 491.3369,-379.7 452,-379.7"/>
<polygon fill="#000000" stroke="#000000" points="529.0921,-432.4895 536.4553,-437.2586 533.046,-433.0948 537,-433.7 537,-433.7 537,-433.7 533.046,-433.0948 537.5447,-430.1414 529.0921,-432.4895 529.0921,-432.4895"/>
<ellipse fill="none" stroke="#000000" cx="525.9289" cy="-432.0053" rx="3.2" ry="3.2"/>
</g>
<!-- resource_server_perm_ticket -->
<g id="node5" class="node">
<title>resource_server_perm_ticket</title>
<g id="a_node5"><a xlink:href="../../tables/resource_server_perm_ticket.html" xlink:title="resource_server_perm_ticket" target="_top">
<polygon fill="#ffffff" stroke="transparent" points="503,-38.2 503,-253.2 691,-253.2 691,-38.2 503,-38.2"/>
<polygon fill="#f5f5f5" stroke="transparent" points="503,-229.7 503,-252.7 691,-252.7 691,-229.7 503,-229.7"/>
<polygon fill="none" stroke="#000000" points="503,-229.7 503,-252.7 691,-252.7 691,-229.7 503,-229.7"/>
<text text-anchor="start" x="508" y="-238.8" font-family="Helvetica,sans-Serif" font-weight="bold" font-size="11.00" fill="#000000">resource_server_perm_ticket</text>
<text text-anchor="start" x="656.0437" y="-237.8" font-family="Helvetica,sans-Serif" font-size="11.00" fill="#000000">[table]</text>
<polygon fill="none" stroke="#000000" points="503,-207.7 503,-229.7 691,-229.7 691,-207.7 503,-207.7"/>
<image xlink:href="../../images/primaryKeys.png" width="11px" height="12px" preserveAspectRatio="xMinYMin meet" x="508" y="-224.7"/>
<text text-anchor="start" x="523" y="-214.8" font-family="Helvetica,sans-Serif" font-size="11.00" fill="#000000">id</text>
<polygon fill="#ffffff" stroke="transparent" points="503,-185.7 503,-207.7 691,-207.7 691,-185.7 503,-185.7"/>
<polygon fill="none" stroke="#000000" points="503,-185.7 503,-207.7 691,-207.7 691,-185.7 503,-185.7"/>
<text text-anchor="start" x="523" y="-192.8" font-family="Helvetica,sans-Serif" font-size="11.00" fill="#000000">owner</text>
<polygon fill="#ffffff" stroke="transparent" points="503,-163.7 503,-185.7 691,-185.7 691,-163.7 503,-163.7"/>
<polygon fill="none" stroke="#000000" points="503,-163.7 503,-185.7 691,-185.7 691,-163.7 503,-163.7"/>
<text text-anchor="start" x="523" y="-170.8" font-family="Helvetica,sans-Serif" font-size="11.00" fill="#000000">requester</text>
<polygon fill="#ffffff" stroke="transparent" points="503,-141.7 503,-163.7 691,-163.7 691,-141.7 503,-141.7"/>
<polygon fill="none" stroke="#000000" points="503,-141.7 503,-163.7 691,-163.7 691,-141.7 503,-141.7"/>
<image xlink:href="../../images/foreignKeys.png" width="11px" height="12px" preserveAspectRatio="xMinYMin meet" x="508" y="-158.7"/>
<text text-anchor="start" x="523" y="-148.8" font-family="Helvetica,sans-Serif" font-size="11.00" fill="#000000">resource_id</text>
<polygon fill="#ffffff" stroke="transparent" points="503,-119.7 503,-141.7 691,-141.7 691,-119.7 503,-119.7"/>
<polygon fill="none" stroke="#000000" points="503,-119.7 503,-141.7 691,-141.7 691,-119.7 503,-119.7"/>
<image xlink:href="../../images/foreignKeys.png" width="11px" height="12px" preserveAspectRatio="xMinYMin meet" x="508" y="-136.7"/>
<text text-anchor="start" x="523" y="-126.8" font-family="Helvetica,sans-Serif" font-size="11.00" fill="#000000">scope_id</text>
<polygon fill="#ffffff" stroke="transparent" points="503,-97.7 503,-119.7 691,-119.7 691,-97.7 503,-97.7"/>
<polygon fill="none" stroke="#000000" points="503,-97.7 503,-119.7 691,-119.7 691,-97.7 503,-97.7"/>
<image xlink:href="../../images/foreignKeys.png" width="11px" height="12px" preserveAspectRatio="xMinYMin meet" x="508" y="-114.7"/>
<text text-anchor="start" x="523" y="-104.8" font-family="Helvetica,sans-Serif" font-size="11.00" fill="#000000">resource_server_id</text>
<polygon fill="none" stroke="#000000" points="503,-75.7 503,-97.7 691,-97.7 691,-75.7 503,-75.7"/>
<image xlink:href="../../images/foreignKeys.png" width="11px" height="12px" preserveAspectRatio="xMinYMin meet" x="508" y="-92.7"/>
<text text-anchor="start" x="523" y="-82.8" font-family="Helvetica,sans-Serif" font-size="11.00" fill="#000000">policy_id</text>
<polygon fill="none" stroke="#000000" points="503,-56.7 503,-75.7 691,-75.7 691,-56.7 503,-56.7"/>
<text text-anchor="start" x="506" y="-62.8" font-family="Helvetica,sans-Serif" font-size="11.00" fill="#000000">...</text>
<polygon fill="#ffffff" stroke="transparent" points="503,-37.7 503,-56.7 582,-56.7 582,-37.7 503,-37.7"/>
<polygon fill="none" stroke="#000000" points="503,-37.7 503,-56.7 582,-56.7 582,-37.7 503,-37.7"/>
<text text-anchor="start" x="506" y="-43.8" font-family="Helvetica,sans-Serif" font-size="11.00" fill="#000000">&lt; 4</text>
<polygon fill="#ffffff" stroke="transparent" points="582,-37.7 582,-56.7 649,-56.7 649,-37.7 582,-37.7"/>
<polygon fill="none" stroke="#000000" points="582,-37.7 582,-56.7 649,-56.7 649,-37.7 582,-37.7"/>
<text text-anchor="start" x="613.6105" y="-43.8" font-family="Helvetica,sans-Serif" font-size="11.00" fill="#000000">0 rows</text>
<polygon fill="#ffffff" stroke="transparent" points="649,-37.7 649,-56.7 691,-56.7 691,-37.7 649,-37.7"/>
<polygon fill="none" stroke="#000000" points="649,-37.7 649,-56.7 691,-56.7 691,-37.7 649,-37.7"/>
<text text-anchor="start" x="681.8862" y="-43.8" font-family="Helvetica,sans-Serif" font-size="11.00" fill="#000000"> &#160;</text>
</a>
</g>
</g>
<!-- resource_server_perm_ticket&#45;&gt;resource_server_resource -->
<g id="edge4" class="edge">
<title>resource_server_perm_ticket:w&#45;&gt;resource_server_resource:e</title>
<path fill="none" stroke="#000000" d="M488.2762,-154.6624C415.8624,-176.8492 549.7489,-379.7 452,-379.7"/>
<polygon fill="#000000" stroke="#000000" points="495.0701,-153.757 503.4756,-156.2684 499.0351,-153.2285 503,-152.7 503,-152.7 503,-152.7 499.0351,-153.2285 502.5244,-149.1316 495.0701,-153.757 495.0701,-153.757"/>
<ellipse fill="none" stroke="#000000" cx="491.8982" cy="-154.1797" rx="3.2" ry="3.2"/>
</g>
<!-- resource_server_perm_ticket&#45;&gt;resource_server -->
<g id="edge5" class="edge">
<title>resource_server_perm_ticket:w&#45;&gt;resource_server:e</title>
<path fill="none" stroke="#000000" d="M488.7702,-112.2024C424.4234,-128.1001 163.7662,-192.7 163.5,-192.7"/>
<polygon fill="#000000" stroke="#000000" points="495.2318,-110.6121 503.8604,-112.1957 499.1159,-109.656 503,-108.7 503,-108.7 503,-108.7 499.1159,-109.656 502.1396,-105.2043 495.2318,-110.6121 495.2318,-110.6121"/>
<ellipse fill="none" stroke="#000000" cx="492.1246" cy="-111.3769" rx="3.2" ry="3.2"/>
</g>
<!-- resource_uris -->
<g id="node7" class="node">
<title>resource_uris</title>
<g id="a_node7"><a xlink:href="../../tables/resource_uris.html" xlink:title="resource_uris" target="_top">
<polygon fill="#ffffff" stroke="transparent" points="542.5,-274.7 542.5,-360.7 651.5,-360.7 651.5,-274.7 542.5,-274.7"/>
<polygon fill="#f5f5f5" stroke="transparent" points="543,-337.7 543,-360.7 652,-360.7 652,-337.7 543,-337.7"/>
<polygon fill="none" stroke="#000000" points="543,-337.7 543,-360.7 652,-360.7 652,-337.7 543,-337.7"/>
<text text-anchor="start" x="547.692" y="-346.8" font-family="Helvetica,sans-Serif" font-weight="bold" font-size="11.00" fill="#000000">resource_uris</text>
<text text-anchor="start" x="617.5219" y="-345.8" font-family="Helvetica,sans-Serif" font-size="11.00" fill="#000000">[table]</text>
<polygon fill="none" stroke="#000000" points="543,-315.7 543,-337.7 652,-337.7 652,-315.7 543,-315.7"/>
<image xlink:href="../../images/primaryKeys.png" width="11px" height="12px" preserveAspectRatio="xMinYMin meet" x="548" y="-332.7"/>
<text text-anchor="start" x="568" y="-322.8" font-family="Helvetica,sans-Serif" font-size="11.00" fill="#000000">resource_id</text>
<polygon fill="none" stroke="#000000" points="543,-293.7 543,-315.7 652,-315.7 652,-293.7 543,-293.7"/>
<image xlink:href="../../images/primaryKeys.png" width="11px" height="12px" preserveAspectRatio="xMinYMin meet" x="548" y="-310.7"/>
<text text-anchor="start" x="568" y="-300.8" font-family="Helvetica,sans-Serif" font-size="11.00" fill="#000000">value</text>
<polygon fill="#ffffff" stroke="transparent" points="543,-274.7 543,-293.7 583,-293.7 583,-274.7 543,-274.7"/>
<polygon fill="none" stroke="#000000" points="543,-274.7 543,-293.7 583,-293.7 583,-274.7 543,-274.7"/>
<text text-anchor="start" x="546" y="-280.8" font-family="Helvetica,sans-Serif" font-size="11.00" fill="#000000">&lt; 1</text>
<polygon fill="#ffffff" stroke="transparent" points="583,-274.7 583,-293.7 630,-293.7 630,-274.7 583,-274.7"/>
<polygon fill="none" stroke="#000000" points="583,-274.7 583,-293.7 630,-293.7 630,-274.7 583,-274.7"/>
<text text-anchor="start" x="594.6105" y="-280.8" font-family="Helvetica,sans-Serif" font-size="11.00" fill="#000000">0 rows</text>
<polygon fill="#ffffff" stroke="transparent" points="630,-274.7 630,-293.7 652,-293.7 652,-274.7 630,-274.7"/>
<polygon fill="none" stroke="#000000" points="630,-274.7 630,-293.7 652,-293.7 652,-274.7 630,-274.7"/>
<text text-anchor="start" x="642.8862" y="-280.8" font-family="Helvetica,sans-Serif" font-size="11.00" fill="#000000"> &#160;</text>
</a>
</g>
</g>
<!-- resource_uris&#45;&gt;resource_server_resource -->
<g id="edge7" class="edge">
<title>resource_uris:w&#45;&gt;resource_server_resource:e</title>
<path fill="none" stroke="#000000" d="M528.4221,-328.7129C496.1287,-338.394 493.3192,-379.7 452,-379.7"/>
<polygon fill="#000000" stroke="#000000" points="535.0752,-327.7943 543.4924,-330.2662 539.0376,-327.2472 543,-326.7 543,-326.7 543,-326.7 539.0376,-327.2472 542.5076,-323.1338 535.0752,-327.7943 535.0752,-327.7943"/>
<ellipse fill="none" stroke="#000000" cx="531.9053" cy="-328.2321" rx="3.2" ry="3.2"/>
</g>
</g>
</svg>
