<?xml version="1.0" encoding="UTF-8" standalone="no"?>
<!DOCTYPE svg PUBLIC "-//W3C//DTD SVG 1.1//EN"
 "http://www.w3.org/Graphics/SVG/1.1/DTD/svg11.dtd">
<!-- Generated by graphviz version 2.40.1 (20161225.0304)
 -->
<!-- Title: twoDegreesRelationshipsDiagram Pages: 1 -->
<svg width="600pt" height="715pt"
 viewBox="0.00 0.00 600.00 715.20" xmlns="http://www.w3.org/2000/svg" xmlns:xlink="http://www.w3.org/1999/xlink">
<g id="graph0" class="graph" transform="scale(1 1) rotate(0) translate(4 711.2)">
<title>twoDegreesRelationshipsDiagram</title>
<polygon fill="#ffffff" stroke="transparent" points="-4,4 -4,-711.2 596,-711.2 596,4 -4,4"/>
<text text-anchor="middle" x="72.4936" y="-7.3" font-family="Helvetica,sans-Serif" font-size="11.00" fill="#000000">Generated by SchemaSpy</text>
<!-- associated_policy -->
<g id="node1" class="node">
<title>associated_policy</title>
<g id="a_node1"><a xlink:href="../../tables/associated_policy.html" xlink:title="associated_policy" target="_top">
<polygon fill="#ffffff" stroke="transparent" points="427,-642.2 427,-703.2 556,-703.2 556,-642.2 427,-642.2"/>
<polygon fill="#f5f5f5" stroke="transparent" points="427.5,-679.7 427.5,-702.7 556.5,-702.7 556.5,-679.7 427.5,-679.7"/>
<polygon fill="none" stroke="#000000" points="427.5,-679.7 427.5,-702.7 556.5,-702.7 556.5,-679.7 427.5,-679.7"/>
<text text-anchor="start" x="432.1006" y="-688.8" font-family="Helvetica,sans-Serif" font-weight="bold" font-size="11.00" fill="#000000">associated_policy</text>
<text text-anchor="start" x="522.0219" y="-687.8" font-family="Helvetica,sans-Serif" font-size="11.00" fill="#000000">[table]</text>
<polygon fill="none" stroke="#000000" points="427.5,-660.7 427.5,-679.7 556.5,-679.7 556.5,-660.7 427.5,-660.7"/>
<text text-anchor="start" x="430.5" y="-666.8" font-family="Helvetica,sans-Serif" font-size="11.00" fill="#000000">...</text>
<polygon fill="#ffffff" stroke="transparent" points="427.5,-641.7 427.5,-660.7 477.5,-660.7 477.5,-641.7 427.5,-641.7"/>
<polygon fill="none" stroke="#000000" points="427.5,-641.7 427.5,-660.7 477.5,-660.7 477.5,-641.7 427.5,-641.7"/>
<text text-anchor="start" x="430.5" y="-647.8" font-family="Helvetica,sans-Serif" font-size="11.00" fill="#000000">&lt; 2</text>
<polygon fill="#ffffff" stroke="transparent" points="477.5,-641.7 477.5,-660.7 529.5,-660.7 529.5,-641.7 477.5,-641.7"/>
<polygon fill="none" stroke="#000000" points="477.5,-641.7 477.5,-660.7 529.5,-660.7 529.5,-641.7 477.5,-641.7"/>
<text text-anchor="start" x="494.1105" y="-647.8" font-family="Helvetica,sans-Serif" font-size="11.00" fill="#000000">0 rows</text>
<polygon fill="#ffffff" stroke="transparent" points="529.5,-641.7 529.5,-660.7 556.5,-660.7 556.5,-641.7 529.5,-641.7"/>
<polygon fill="none" stroke="#000000" points="529.5,-641.7 529.5,-660.7 556.5,-660.7 556.5,-641.7 529.5,-641.7"/>
<text text-anchor="start" x="547.3862" y="-647.8" font-family="Helvetica,sans-Serif" font-size="11.00" fill="#000000"> &#160;</text>
</a>
</g>
</g>
<!-- resource_server_policy -->
<g id="node2" class="node">
<title>resource_server_policy</title>
<g id="a_node2"><a xlink:href="../../tables/resource_server_policy.html" xlink:title="resource_server_policy" target="_top">
<polygon fill="#ffffff" stroke="transparent" points="186.5,-430.2 186.5,-557.2 342.5,-557.2 342.5,-430.2 186.5,-430.2"/>
<polygon fill="#f5f5f5" stroke="transparent" points="186.5,-533.7 186.5,-556.7 342.5,-556.7 342.5,-533.7 186.5,-533.7"/>
<polygon fill="none" stroke="#000000" points="186.5,-533.7 186.5,-556.7 342.5,-556.7 342.5,-533.7 186.5,-533.7"/>
<text text-anchor="start" x="191.1608" y="-542.8" font-family="Helvetica,sans-Serif" font-weight="bold" font-size="11.00" fill="#000000">resource_server_policy</text>
<text text-anchor="start" x="308.0219" y="-541.8" font-family="Helvetica,sans-Serif" font-size="11.00" fill="#000000">[table]</text>
<polygon fill="none" stroke="#000000" points="186.5,-511.7 186.5,-533.7 342.5,-533.7 342.5,-511.7 186.5,-511.7"/>
<image xlink:href="../../images/primaryKeys.png" width="11px" height="12px" preserveAspectRatio="xMinYMin meet" x="191.5" y="-528.7"/>
<text text-anchor="start" x="207.5" y="-518.8" font-family="Helvetica,sans-Serif" font-size="11.00" fill="#000000">id</text>
<polygon fill="#ffffff" stroke="transparent" points="186.5,-489.7 186.5,-511.7 342.5,-511.7 342.5,-489.7 186.5,-489.7"/>
<polygon fill="none" stroke="#000000" points="186.5,-489.7 186.5,-511.7 342.5,-511.7 342.5,-489.7 186.5,-489.7"/>
<text text-anchor="start" x="207.5" y="-496.8" font-family="Helvetica,sans-Serif" font-size="11.00" fill="#000000">name</text>
<polygon fill="#ffffff" stroke="transparent" points="186.5,-467.7 186.5,-489.7 342.5,-489.7 342.5,-467.7 186.5,-467.7"/>
<polygon fill="none" stroke="#000000" points="186.5,-467.7 186.5,-489.7 342.5,-489.7 342.5,-467.7 186.5,-467.7"/>
<image xlink:href="../../images/foreignKeys.png" width="11px" height="12px" preserveAspectRatio="xMinYMin meet" x="191.5" y="-484.7"/>
<text text-anchor="start" x="207.5" y="-474.8" font-family="Helvetica,sans-Serif" font-size="11.00" fill="#000000">resource_server_id</text>
<polygon fill="none" stroke="#000000" points="186.5,-448.7 186.5,-467.7 342.5,-467.7 342.5,-448.7 186.5,-448.7"/>
<text text-anchor="start" x="189.5" y="-454.8" font-family="Helvetica,sans-Serif" font-size="11.00" fill="#000000">...</text>
<polygon fill="#ffffff" stroke="transparent" points="186.5,-429.7 186.5,-448.7 245.5,-448.7 245.5,-429.7 186.5,-429.7"/>
<polygon fill="none" stroke="#000000" points="186.5,-429.7 186.5,-448.7 245.5,-448.7 245.5,-429.7 186.5,-429.7"/>
<text text-anchor="start" x="189.5" y="-435.8" font-family="Helvetica,sans-Serif" font-size="11.00" fill="#000000">&lt; 1</text>
<polygon fill="#ffffff" stroke="transparent" points="245.5,-429.7 245.5,-448.7 302.5,-448.7 302.5,-429.7 245.5,-429.7"/>
<polygon fill="none" stroke="#000000" points="245.5,-429.7 245.5,-448.7 302.5,-448.7 302.5,-429.7 245.5,-429.7"/>
<text text-anchor="start" x="267.1105" y="-435.8" font-family="Helvetica,sans-Serif" font-size="11.00" fill="#000000">0 rows</text>
<polygon fill="#ffffff" stroke="transparent" points="302.5,-429.7 302.5,-448.7 342.5,-448.7 342.5,-429.7 302.5,-429.7"/>
<polygon fill="none" stroke="#000000" points="302.5,-429.7 302.5,-448.7 342.5,-448.7 342.5,-429.7 302.5,-429.7"/>
<text text-anchor="start" x="323.9053" y="-435.8" font-family="Helvetica,sans-Serif" font-size="11.00" fill="#000000">6 &gt;</text>
</a>
</g>
</g>
<!-- associated_policy&#45;&gt;resource_server_policy -->
<g id="edge1" class="edge">
<title>associated_policy:w&#45;&gt;resource_server_policy:e</title>
<path fill="none" stroke="#000000" d="M413.2472,-666.3011C360.8225,-643.2529 412.5154,-517.1336 342.5,-522.7"/>
<polygon fill="#000000" stroke="#000000" points="419.7182,-667.8442 426.6649,-673.2018 423.6091,-668.7721 427.5,-669.7 427.5,-669.7 427.5,-669.7 423.6091,-668.7721 428.3351,-666.1982 419.7182,-667.8442 419.7182,-667.8442"/>
<ellipse fill="none" stroke="#000000" cx="416.6055" cy="-667.1019" rx="3.2" ry="3.2"/>
</g>
<!-- associated_policy&#45;&gt;resource_server_policy -->
<g id="edge2" class="edge">
<title>associated_policy:w&#45;&gt;resource_server_policy:e</title>
<path fill="none" stroke="#000000" d="M412.9175,-668.8339C361.0396,-655.6509 412.368,-529.1805 342.5,-522.7"/>
<polygon fill="#000000" stroke="#000000" points="419.5141,-669.2256 427.2865,-673.2937 423.507,-669.4628 427.5,-669.7 427.5,-669.7 427.5,-669.7 423.507,-669.4628 427.7135,-666.1063 419.5141,-669.2256 419.5141,-669.2256"/>
<ellipse fill="none" stroke="#000000" cx="416.3197" cy="-669.0359" rx="3.2" ry="3.2"/>
</g>
<!-- resource_server -->
<g id="node9" class="node">
<title>resource_server</title>
<g id="a_node9"><a xlink:href="../../tables/resource_server.html" xlink:title="resource_server" target="_top">
<polygon fill="#ffffff" stroke="transparent" points="8,-378.2 8,-439.2 130,-439.2 130,-378.2 8,-378.2"/>
<polygon fill="#f5f5f5" stroke="transparent" points="8,-415.7 8,-438.7 130,-438.7 130,-415.7 8,-415.7"/>
<polygon fill="none" stroke="#000000" points="8,-415.7 8,-438.7 130,-438.7 130,-415.7 8,-415.7"/>
<text text-anchor="start" x="12.7741" y="-424.8" font-family="Helvetica,sans-Serif" font-weight="bold" font-size="11.00" fill="#000000">resource_server</text>
<text text-anchor="start" x="95.5219" y="-423.8" font-family="Helvetica,sans-Serif" font-size="11.00" fill="#000000">[table]</text>
<polygon fill="none" stroke="#000000" points="8,-396.7 8,-415.7 130,-415.7 130,-396.7 8,-396.7"/>
<text text-anchor="start" x="11" y="-402.8" font-family="Helvetica,sans-Serif" font-size="11.00" fill="#000000">...</text>
<polygon fill="#ffffff" stroke="transparent" points="8,-377.7 8,-396.7 45,-396.7 45,-377.7 8,-377.7"/>
<polygon fill="none" stroke="#000000" points="8,-377.7 8,-396.7 45,-396.7 45,-377.7 8,-377.7"/>
<text text-anchor="start" x="11" y="-383.8" font-family="Helvetica,sans-Serif" font-size="11.00" fill="#000000"> &#160;</text>
<polygon fill="#ffffff" stroke="transparent" points="45,-377.7 45,-396.7 96,-396.7 96,-377.7 45,-377.7"/>
<polygon fill="none" stroke="#000000" points="45,-377.7 45,-396.7 96,-396.7 96,-377.7 45,-377.7"/>
<text text-anchor="start" x="60.6105" y="-383.8" font-family="Helvetica,sans-Serif" font-size="11.00" fill="#000000">0 rows</text>
<polygon fill="#ffffff" stroke="transparent" points="96,-377.7 96,-396.7 130,-396.7 130,-377.7 96,-377.7"/>
<polygon fill="none" stroke="#000000" points="96,-377.7 96,-396.7 130,-396.7 130,-377.7 96,-377.7"/>
<text text-anchor="start" x="111.4053" y="-383.8" font-family="Helvetica,sans-Serif" font-size="11.00" fill="#000000">4 &gt;</text>
</a>
</g>
</g>
<!-- resource_server_policy&#45;&gt;resource_server -->
<g id="edge11" class="edge">
<title>resource_server_policy:w&#45;&gt;resource_server:e</title>
<path fill="none" stroke="#000000" d="M172.4814,-474.566C151.4689,-459.1234 165.0973,-405.7 130,-405.7"/>
<polygon fill="#000000" stroke="#000000" points="178.8267,-476.4372 185.4817,-482.153 182.6633,-477.5686 186.5,-478.7 186.5,-478.7 186.5,-478.7 182.6633,-477.5686 187.5183,-475.247 178.8267,-476.4372 178.8267,-476.4372"/>
<ellipse fill="none" stroke="#000000" cx="175.7574" cy="-475.532" rx="3.2" ry="3.2"/>
</g>
<!-- policy_config -->
<g id="node3" class="node">
<title>policy_config</title>
<g id="a_node3"><a xlink:href="../../tables/policy_config.html" xlink:title="policy_config" target="_top">
<polygon fill="#ffffff" stroke="transparent" points="438.5,-560.2 438.5,-621.2 544.5,-621.2 544.5,-560.2 438.5,-560.2"/>
<polygon fill="#f5f5f5" stroke="transparent" points="438.5,-597.7 438.5,-620.7 544.5,-620.7 544.5,-597.7 438.5,-597.7"/>
<polygon fill="none" stroke="#000000" points="438.5,-597.7 438.5,-620.7 544.5,-620.7 544.5,-597.7 438.5,-597.7"/>
<text text-anchor="start" x="443.2155" y="-606.8" font-family="Helvetica,sans-Serif" font-weight="bold" font-size="11.00" fill="#000000">policy_config</text>
<text text-anchor="start" x="510.0219" y="-605.8" font-family="Helvetica,sans-Serif" font-size="11.00" fill="#000000">[table]</text>
<polygon fill="none" stroke="#000000" points="438.5,-578.7 438.5,-597.7 544.5,-597.7 544.5,-578.7 438.5,-578.7"/>
<text text-anchor="start" x="441.5" y="-584.8" font-family="Helvetica,sans-Serif" font-size="11.00" fill="#000000">...</text>
<polygon fill="#ffffff" stroke="transparent" points="438.5,-559.7 438.5,-578.7 476.5,-578.7 476.5,-559.7 438.5,-559.7"/>
<polygon fill="none" stroke="#000000" points="438.5,-559.7 438.5,-578.7 476.5,-578.7 476.5,-559.7 438.5,-559.7"/>
<text text-anchor="start" x="441.5" y="-565.8" font-family="Helvetica,sans-Serif" font-size="11.00" fill="#000000">&lt; 1</text>
<polygon fill="#ffffff" stroke="transparent" points="476.5,-559.7 476.5,-578.7 523.5,-578.7 523.5,-559.7 476.5,-559.7"/>
<polygon fill="none" stroke="#000000" points="476.5,-559.7 476.5,-578.7 523.5,-578.7 523.5,-559.7 476.5,-559.7"/>
<text text-anchor="start" x="488.1105" y="-565.8" font-family="Helvetica,sans-Serif" font-size="11.00" fill="#000000">0 rows</text>
<polygon fill="#ffffff" stroke="transparent" points="523.5,-559.7 523.5,-578.7 544.5,-578.7 544.5,-559.7 523.5,-559.7"/>
<polygon fill="none" stroke="#000000" points="523.5,-559.7 523.5,-578.7 544.5,-578.7 544.5,-559.7 523.5,-559.7"/>
<text text-anchor="start" x="535.3862" y="-565.8" font-family="Helvetica,sans-Serif" font-size="11.00" fill="#000000"> &#160;</text>
</a>
</g>
</g>
<!-- policy_config&#45;&gt;resource_server_policy -->
<g id="edge3" class="edge">
<title>policy_config:w&#45;&gt;resource_server_policy:e</title>
<path fill="none" stroke="#000000" d="M424.014,-585.6834C387.8094,-574.7121 388.5923,-522.7 342.5,-522.7"/>
<polygon fill="#000000" stroke="#000000" points="430.5764,-586.5969 438.0036,-591.2656 434.5382,-587.1485 438.5,-587.7 438.5,-587.7 438.5,-587.7 434.5382,-587.1485 438.9964,-584.1344 430.5764,-586.5969 430.5764,-586.5969"/>
<ellipse fill="none" stroke="#000000" cx="427.407" cy="-586.1557" rx="3.2" ry="3.2"/>
</g>
<!-- resource_attribute -->
<g id="node4" class="node">
<title>resource_attribute</title>
<g id="a_node4"><a xlink:href="../../tables/resource_attribute.html" xlink:title="resource_attribute" target="_top">
<polygon fill="#ffffff" stroke="transparent" points="426,-202.2 426,-263.2 557,-263.2 557,-202.2 426,-202.2"/>
<polygon fill="#f5f5f5" stroke="transparent" points="426.5,-239.7 426.5,-262.7 557.5,-262.7 557.5,-239.7 426.5,-239.7"/>
<polygon fill="none" stroke="#000000" points="426.5,-239.7 426.5,-262.7 557.5,-262.7 557.5,-239.7 426.5,-239.7"/>
<text text-anchor="start" x="431.1843" y="-248.8" font-family="Helvetica,sans-Serif" font-weight="bold" font-size="11.00" fill="#000000">resource_attribute</text>
<text text-anchor="start" x="523.0219" y="-247.8" font-family="Helvetica,sans-Serif" font-size="11.00" fill="#000000">[table]</text>
<polygon fill="none" stroke="#000000" points="426.5,-220.7 426.5,-239.7 557.5,-239.7 557.5,-220.7 426.5,-220.7"/>
<text text-anchor="start" x="429.5" y="-226.8" font-family="Helvetica,sans-Serif" font-size="11.00" fill="#000000">...</text>
<polygon fill="#ffffff" stroke="transparent" points="426.5,-201.7 426.5,-220.7 477.5,-220.7 477.5,-201.7 426.5,-201.7"/>
<polygon fill="none" stroke="#000000" points="426.5,-201.7 426.5,-220.7 477.5,-220.7 477.5,-201.7 426.5,-201.7"/>
<text text-anchor="start" x="429.5" y="-207.8" font-family="Helvetica,sans-Serif" font-size="11.00" fill="#000000">&lt; 1</text>
<polygon fill="#ffffff" stroke="transparent" points="477.5,-201.7 477.5,-220.7 530.5,-220.7 530.5,-201.7 477.5,-201.7"/>
<polygon fill="none" stroke="#000000" points="477.5,-201.7 477.5,-220.7 530.5,-220.7 530.5,-201.7 477.5,-201.7"/>
<text text-anchor="start" x="495.1105" y="-207.8" font-family="Helvetica,sans-Serif" font-size="11.00" fill="#000000">0 rows</text>
<polygon fill="#ffffff" stroke="transparent" points="530.5,-201.7 530.5,-220.7 557.5,-220.7 557.5,-201.7 530.5,-201.7"/>
<polygon fill="none" stroke="#000000" points="530.5,-201.7 530.5,-220.7 557.5,-220.7 557.5,-201.7 530.5,-201.7"/>
<text text-anchor="start" x="548.3862" y="-207.8" font-family="Helvetica,sans-Serif" font-size="11.00" fill="#000000"> &#160;</text>
</a>
</g>
</g>
<!-- resource_server_resource -->
<g id="node5" class="node">
<title>resource_server_resource</title>
<g id="a_node5"><a xlink:href="../../tables/resource_server_resource.html" xlink:title="resource_server_resource" target="_top">
<polygon fill="#ffffff" stroke="transparent" points="179,-182.2 179,-331.2 350,-331.2 350,-182.2 179,-182.2"/>
<polygon fill="#f5f5f5" stroke="transparent" points="179.5,-307.7 179.5,-330.7 350.5,-330.7 350.5,-307.7 179.5,-307.7"/>
<polygon fill="none" stroke="#000000" points="179.5,-307.7 179.5,-330.7 350.5,-330.7 350.5,-307.7 179.5,-307.7"/>
<text text-anchor="start" x="184.3249" y="-316.8" font-family="Helvetica,sans-Serif" font-weight="bold" font-size="11.00" fill="#000000">resource_server_resource</text>
<text text-anchor="start" x="316.0219" y="-315.8" font-family="Helvetica,sans-Serif" font-size="11.00" fill="#000000">[table]</text>
<polygon fill="none" stroke="#000000" points="179.5,-285.7 179.5,-307.7 350.5,-307.7 350.5,-285.7 179.5,-285.7"/>
<image xlink:href="../../images/primaryKeys.png" width="11px" height="12px" preserveAspectRatio="xMinYMin meet" x="184.5" y="-302.7"/>
<text text-anchor="start" x="199.5" y="-292.8" font-family="Helvetica,sans-Serif" font-size="11.00" fill="#000000">id</text>
<polygon fill="#ffffff" stroke="transparent" points="179.5,-263.7 179.5,-285.7 350.5,-285.7 350.5,-263.7 179.5,-263.7"/>
<polygon fill="none" stroke="#000000" points="179.5,-263.7 179.5,-285.7 350.5,-285.7 350.5,-263.7 179.5,-263.7"/>
<text text-anchor="start" x="199.5" y="-270.8" font-family="Helvetica,sans-Serif" font-size="11.00" fill="#000000">name</text>
<polygon fill="#ffffff" stroke="transparent" points="179.5,-241.7 179.5,-263.7 350.5,-263.7 350.5,-241.7 179.5,-241.7"/>
<polygon fill="none" stroke="#000000" points="179.5,-241.7 179.5,-263.7 350.5,-263.7 350.5,-241.7 179.5,-241.7"/>
<text text-anchor="start" x="199.5" y="-248.8" font-family="Helvetica,sans-Serif" font-size="11.00" fill="#000000">owner</text>
<polygon fill="#ffffff" stroke="transparent" points="179.5,-219.7 179.5,-241.7 350.5,-241.7 350.5,-219.7 179.5,-219.7"/>
<polygon fill="none" stroke="#000000" points="179.5,-219.7 179.5,-241.7 350.5,-241.7 350.5,-219.7 179.5,-219.7"/>
<image xlink:href="../../images/foreignKeys.png" width="11px" height="12px" preserveAspectRatio="xMinYMin meet" x="184.5" y="-236.7"/>
<text text-anchor="start" x="199.5" y="-226.8" font-family="Helvetica,sans-Serif" font-size="11.00" fill="#000000">resource_server_id</text>
<polygon fill="none" stroke="#000000" points="179.5,-200.7 179.5,-219.7 350.5,-219.7 350.5,-200.7 179.5,-200.7"/>
<text text-anchor="start" x="182.5" y="-206.8" font-family="Helvetica,sans-Serif" font-size="11.00" fill="#000000">...</text>
<polygon fill="#ffffff" stroke="transparent" points="179.5,-181.7 179.5,-200.7 245.5,-200.7 245.5,-181.7 179.5,-181.7"/>
<polygon fill="none" stroke="#000000" points="179.5,-181.7 179.5,-200.7 245.5,-200.7 245.5,-181.7 179.5,-181.7"/>
<text text-anchor="start" x="182.5" y="-187.8" font-family="Helvetica,sans-Serif" font-size="11.00" fill="#000000">&lt; 1</text>
<polygon fill="#ffffff" stroke="transparent" points="245.5,-181.7 245.5,-200.7 306.5,-200.7 306.5,-181.7 245.5,-181.7"/>
<polygon fill="none" stroke="#000000" points="245.5,-181.7 245.5,-200.7 306.5,-200.7 306.5,-181.7 245.5,-181.7"/>
<text text-anchor="start" x="271.1105" y="-187.8" font-family="Helvetica,sans-Serif" font-size="11.00" fill="#000000">0 rows</text>
<polygon fill="#ffffff" stroke="transparent" points="306.5,-181.7 306.5,-200.7 350.5,-200.7 350.5,-181.7 306.5,-181.7"/>
<polygon fill="none" stroke="#000000" points="306.5,-181.7 306.5,-200.7 350.5,-200.7 350.5,-181.7 306.5,-181.7"/>
<text text-anchor="start" x="331.9053" y="-187.8" font-family="Helvetica,sans-Serif" font-size="11.00" fill="#000000">5 &gt;</text>
</a>
</g>
</g>
<!-- resource_attribute&#45;&gt;resource_server_resource -->
<g id="edge4" class="edge">
<title>resource_attribute:w&#45;&gt;resource_server_resource:e</title>
<path fill="none" stroke="#000000" d="M412.1529,-232.5789C384.062,-245.4031 389.9008,-296.7 350.5,-296.7"/>
<polygon fill="#000000" stroke="#000000" points="418.6564,-231.274 427.2083,-233.2296 422.5782,-230.487 426.5,-229.7 426.5,-229.7 426.5,-229.7 422.5782,-230.487 425.7917,-226.1704 418.6564,-231.274 418.6564,-231.274"/>
<ellipse fill="none" stroke="#000000" cx="415.5189" cy="-231.9035" rx="3.2" ry="3.2"/>
</g>
<!-- resource_server_resource&#45;&gt;resource_server -->
<g id="edge12" class="edge">
<title>resource_server_resource:w&#45;&gt;resource_server:e</title>
<path fill="none" stroke="#000000" d="M165.1782,-233.1739C113.4889,-254.4442 205.146,-405.7 130,-405.7"/>
<polygon fill="#000000" stroke="#000000" points="171.6167,-232.0617 180.1128,-234.2475 175.5584,-231.3809 179.5,-230.7 179.5,-230.7 179.5,-230.7 175.5584,-231.3809 178.8872,-227.1525 171.6167,-232.0617 171.6167,-232.0617"/>
<ellipse fill="none" stroke="#000000" cx="168.4634" cy="-232.6064" rx="3.2" ry="3.2"/>
</g>
<!-- resource_policy -->
<g id="node6" class="node">
<title>resource_policy</title>
<g id="a_node6"><a xlink:href="../../tables/resource_policy.html" xlink:title="resource_policy" target="_top">
<polygon fill="#ffffff" stroke="transparent" points="402.5,-284.7 402.5,-374.7 580.5,-374.7 580.5,-284.7 402.5,-284.7"/>
<polygon fill="#f5f5f5" stroke="transparent" points="404.5,-349.7 404.5,-372.7 578.5,-372.7 578.5,-349.7 404.5,-349.7"/>
<polygon fill="none" stroke="#000000" points="404.5,-349.7 404.5,-372.7 578.5,-372.7 578.5,-349.7 404.5,-349.7"/>
<text text-anchor="start" x="409.5" y="-358.8" font-family="Helvetica,sans-Serif" font-weight="bold" font-size="11.00" fill="#000000">resource_policy</text>
<text text-anchor="start" x="543.5437" y="-357.8" font-family="Helvetica,sans-Serif" font-size="11.00" fill="#000000">[table]</text>
<polygon fill="none" stroke="#000000" points="404.5,-327.7 404.5,-349.7 517.5,-349.7 517.5,-327.7 404.5,-327.7"/>
<image xlink:href="../../images/primaryKeys.png" width="11px" height="12px" preserveAspectRatio="xMinYMin meet" x="409.5" y="-344.7"/>
<text text-anchor="start" x="424.5" y="-334.8" font-family="Helvetica,sans-Serif" font-size="11.00" fill="#000000">resource_id</text>
<polygon fill="none" stroke="#000000" points="517.5,-327.7 517.5,-349.7 578.5,-349.7 578.5,-327.7 517.5,-327.7"/>
<text text-anchor="start" x="520.494" y="-335.4" font-family="Helvetica,sans-Serif" font-size="11.00" fill="#000000">varchar[36]</text>
<polygon fill="none" stroke="#000000" points="404.5,-305.7 404.5,-327.7 517.5,-327.7 517.5,-305.7 404.5,-305.7"/>
<image xlink:href="../../images/primaryKeys.png" width="11px" height="12px" preserveAspectRatio="xMinYMin meet" x="409.5" y="-322.7"/>
<text text-anchor="start" x="424.5" y="-312.8" font-family="Helvetica,sans-Serif" font-size="11.00" fill="#000000">policy_id</text>
<polygon fill="none" stroke="#000000" points="517.5,-305.7 517.5,-327.7 578.5,-327.7 578.5,-305.7 517.5,-305.7"/>
<text text-anchor="start" x="520.494" y="-313.4" font-family="Helvetica,sans-Serif" font-size="11.00" fill="#000000">varchar[36]</text>
<polygon fill="#ffffff" stroke="transparent" points="404.5,-286.7 404.5,-305.7 452.5,-305.7 452.5,-286.7 404.5,-286.7"/>
<polygon fill="none" stroke="#000000" points="404.5,-286.7 404.5,-305.7 452.5,-305.7 452.5,-286.7 404.5,-286.7"/>
<text text-anchor="start" x="407.5" y="-292.8" font-family="Helvetica,sans-Serif" font-size="11.00" fill="#000000">&lt; 2</text>
<polygon fill="#ffffff" stroke="transparent" points="452.5,-286.7 452.5,-305.7 517.5,-305.7 517.5,-286.7 452.5,-286.7"/>
<polygon fill="none" stroke="#000000" points="452.5,-286.7 452.5,-305.7 517.5,-305.7 517.5,-286.7 452.5,-286.7"/>
<text text-anchor="start" x="482.1105" y="-292.8" font-family="Helvetica,sans-Serif" font-size="11.00" fill="#000000">0 rows</text>
<polygon fill="#ffffff" stroke="transparent" points="517.5,-286.7 517.5,-305.7 578.5,-305.7 578.5,-286.7 517.5,-286.7"/>
<polygon fill="none" stroke="#000000" points="517.5,-286.7 517.5,-305.7 578.5,-305.7 578.5,-286.7 517.5,-286.7"/>
<text text-anchor="start" x="559.9053" y="-292.8" font-family="Helvetica,sans-Serif" font-size="11.00" fill="#000000">0 &gt;</text>
<polygon fill="none" stroke="#000000" stroke-width="2" points="403.5,-285.7 403.5,-373.7 579.5,-373.7 579.5,-285.7 403.5,-285.7"/>
</a>
</g>
</g>
<!-- resource_policy&#45;&gt;resource_server_policy -->
<g id="edge5" class="edge">
<title>resource_policy:w&#45;&gt;resource_server_policy:e</title>
<path fill="none" stroke="#000000" d="M389.9184,-318.7389C323.2592,-340.1334 432.5101,-522.7 342.5,-522.7"/>
<polygon fill="#000000" stroke="#000000" points="396.5771,-317.8079 404.9985,-320.2653 400.5385,-317.2539 404.5,-316.7 404.5,-316.7 404.5,-316.7 400.5385,-317.2539 404.0015,-313.1347 396.5771,-317.8079 396.5771,-317.8079"/>
<ellipse fill="none" stroke="#000000" cx="393.4079" cy="-318.251" rx="3.2" ry="3.2"/>
</g>
<!-- resource_policy&#45;&gt;resource_server_resource -->
<g id="edge6" class="edge">
<title>resource_policy:w&#45;&gt;resource_server_resource:e</title>
<path fill="none" stroke="#000000" d="M390.389,-334.5193C375.3356,-323.8959 374.9663,-296.7 350.5,-296.7"/>
<polygon fill="#000000" stroke="#000000" points="396.8296,-336.4274 403.4773,-342.1517 400.6648,-337.5637 404.5,-338.7 404.5,-338.7 404.5,-338.7 400.6648,-337.5637 405.5227,-335.2483 396.8296,-336.4274 396.8296,-336.4274"/>
<ellipse fill="none" stroke="#000000" cx="393.7614" cy="-335.5184" rx="3.2" ry="3.2"/>
</g>
<!-- resource_scope -->
<g id="node7" class="node">
<title>resource_scope</title>
<g id="a_node7"><a xlink:href="../../tables/resource_scope.html" xlink:title="resource_scope" target="_top">
<polygon fill="#ffffff" stroke="transparent" points="431,-120.2 431,-181.2 552,-181.2 552,-120.2 431,-120.2"/>
<polygon fill="#f5f5f5" stroke="transparent" points="431.5,-157.7 431.5,-180.7 552.5,-180.7 552.5,-157.7 431.5,-157.7"/>
<polygon fill="none" stroke="#000000" points="431.5,-157.7 431.5,-180.7 552.5,-180.7 552.5,-157.7 431.5,-157.7"/>
<text text-anchor="start" x="436.3785" y="-166.8" font-family="Helvetica,sans-Serif" font-weight="bold" font-size="11.00" fill="#000000">resource_scope</text>
<text text-anchor="start" x="518.0219" y="-165.8" font-family="Helvetica,sans-Serif" font-size="11.00" fill="#000000">[table]</text>
<polygon fill="none" stroke="#000000" points="431.5,-138.7 431.5,-157.7 552.5,-157.7 552.5,-138.7 431.5,-138.7"/>
<text text-anchor="start" x="434.5" y="-144.8" font-family="Helvetica,sans-Serif" font-size="11.00" fill="#000000">...</text>
<polygon fill="#ffffff" stroke="transparent" points="431.5,-119.7 431.5,-138.7 477.5,-138.7 477.5,-119.7 431.5,-119.7"/>
<polygon fill="none" stroke="#000000" points="431.5,-119.7 431.5,-138.7 477.5,-138.7 477.5,-119.7 431.5,-119.7"/>
<text text-anchor="start" x="434.5" y="-125.8" font-family="Helvetica,sans-Serif" font-size="11.00" fill="#000000">&lt; 2</text>
<polygon fill="#ffffff" stroke="transparent" points="477.5,-119.7 477.5,-138.7 527.5,-138.7 527.5,-119.7 477.5,-119.7"/>
<polygon fill="none" stroke="#000000" points="477.5,-119.7 477.5,-138.7 527.5,-138.7 527.5,-119.7 477.5,-119.7"/>
<text text-anchor="start" x="492.1105" y="-125.8" font-family="Helvetica,sans-Serif" font-size="11.00" fill="#000000">0 rows</text>
<polygon fill="#ffffff" stroke="transparent" points="527.5,-119.7 527.5,-138.7 552.5,-138.7 552.5,-119.7 527.5,-119.7"/>
<polygon fill="none" stroke="#000000" points="527.5,-119.7 527.5,-138.7 552.5,-138.7 552.5,-119.7 527.5,-119.7"/>
<text text-anchor="start" x="543.3862" y="-125.8" font-family="Helvetica,sans-Serif" font-size="11.00" fill="#000000"> &#160;</text>
</a>
</g>
</g>
<!-- resource_scope&#45;&gt;resource_server_resource -->
<g id="edge7" class="edge">
<title>resource_scope:w&#45;&gt;resource_server_resource:e</title>
<path fill="none" stroke="#000000" d="M417.0696,-150.7636C404.2447,-157.4675 401.8509,-174.2403 391,-191.7 364.5982,-234.182 400.5178,-296.7 350.5,-296.7"/>
<polygon fill="#000000" stroke="#000000" points="423.6744,-149.3614 432.2476,-151.2215 427.5872,-148.5307 431.5,-147.7 431.5,-147.7 431.5,-147.7 427.5872,-148.5307 430.7524,-144.1785 423.6744,-149.3614 423.6744,-149.3614"/>
<ellipse fill="none" stroke="#000000" cx="420.5442" cy="-150.026" rx="3.2" ry="3.2"/>
</g>
<!-- resource_server_perm_ticket -->
<g id="node8" class="node">
<title>resource_server_perm_ticket</title>
<g id="a_node8"><a xlink:href="../../tables/resource_server_perm_ticket.html" xlink:title="resource_server_perm_ticket" target="_top">
<polygon fill="#ffffff" stroke="transparent" points="399,-396.2 399,-457.2 584,-457.2 584,-396.2 399,-396.2"/>
<polygon fill="#f5f5f5" stroke="transparent" points="399.5,-433.7 399.5,-456.7 584.5,-456.7 584.5,-433.7 399.5,-433.7"/>
<polygon fill="none" stroke="#000000" points="399.5,-433.7 399.5,-456.7 584.5,-456.7 584.5,-433.7 399.5,-433.7"/>
<text text-anchor="start" x="404.2976" y="-442.8" font-family="Helvetica,sans-Serif" font-weight="bold" font-size="11.00" fill="#000000">resource_server_perm_ticket</text>
<text text-anchor="start" x="550.0219" y="-441.8" font-family="Helvetica,sans-Serif" font-size="11.00" fill="#000000">[table]</text>
<polygon fill="none" stroke="#000000" points="399.5,-414.7 399.5,-433.7 584.5,-433.7 584.5,-414.7 399.5,-414.7"/>
<text text-anchor="start" x="402.5" y="-420.8" font-family="Helvetica,sans-Serif" font-size="11.00" fill="#000000">...</text>
<polygon fill="#ffffff" stroke="transparent" points="399.5,-395.7 399.5,-414.7 477.5,-414.7 477.5,-395.7 399.5,-395.7"/>
<polygon fill="none" stroke="#000000" points="399.5,-395.7 399.5,-414.7 477.5,-414.7 477.5,-395.7 399.5,-395.7"/>
<text text-anchor="start" x="402.5" y="-401.8" font-family="Helvetica,sans-Serif" font-size="11.00" fill="#000000">&lt; 4</text>
<polygon fill="#ffffff" stroke="transparent" points="477.5,-395.7 477.5,-414.7 543.5,-414.7 543.5,-395.7 477.5,-395.7"/>
<polygon fill="none" stroke="#000000" points="477.5,-395.7 477.5,-414.7 543.5,-414.7 543.5,-395.7 477.5,-395.7"/>
<text text-anchor="start" x="508.1105" y="-401.8" font-family="Helvetica,sans-Serif" font-size="11.00" fill="#000000">0 rows</text>
<polygon fill="#ffffff" stroke="transparent" points="543.5,-395.7 543.5,-414.7 584.5,-414.7 584.5,-395.7 543.5,-395.7"/>
<polygon fill="none" stroke="#000000" points="543.5,-395.7 543.5,-414.7 584.5,-414.7 584.5,-395.7 543.5,-395.7"/>
<text text-anchor="start" x="575.3862" y="-401.8" font-family="Helvetica,sans-Serif" font-size="11.00" fill="#000000"> &#160;</text>
</a>
</g>
</g>
<!-- resource_server_perm_ticket&#45;&gt;resource_server_policy -->
<g id="edge8" class="edge">
<title>resource_server_perm_ticket:w&#45;&gt;resource_server_policy:e</title>
<path fill="none" stroke="#000000" d="M385.2706,-427.46C357.8591,-445.5436 387.322,-522.7 342.5,-522.7"/>
<polygon fill="#000000" stroke="#000000" points="391.7655,-425.7438 400.4197,-427.1805 395.6327,-424.7219 399.5,-423.7 399.5,-423.7 399.5,-423.7 395.6327,-424.7219 398.5803,-420.2195 391.7655,-425.7438 391.7655,-425.7438"/>
<ellipse fill="none" stroke="#000000" cx="388.6717" cy="-426.5614" rx="3.2" ry="3.2"/>
</g>
<!-- resource_server_perm_ticket&#45;&gt;resource_server_resource -->
<g id="edge9" class="edge">
<title>resource_server_perm_ticket:w&#45;&gt;resource_server_resource:e</title>
<path fill="none" stroke="#000000" d="M385.3195,-420.3031C351.7989,-400.1065 405.0918,-296.7 350.5,-296.7"/>
<polygon fill="#000000" stroke="#000000" points="391.7201,-421.8363 398.6613,-427.201 395.6101,-422.7681 399.5,-423.7 399.5,-423.7 399.5,-423.7 395.6101,-422.7681 400.3387,-420.199 391.7201,-421.8363 391.7201,-421.8363"/>
<ellipse fill="none" stroke="#000000" cx="388.6081" cy="-421.0908" rx="3.2" ry="3.2"/>
</g>
<!-- resource_server_perm_ticket&#45;&gt;resource_server -->
<g id="edge10" class="edge">
<title>resource_server_perm_ticket:w&#45;&gt;resource_server:e</title>
<path fill="none" stroke="#000000" d="M385.0926,-423.0365C376.655,-422.1823 370.5556,-420.6903 358,-419.7 256.7901,-411.7175 231.5242,-405.7 130,-405.7"/>
<polygon fill="#000000" stroke="#000000" points="391.5085,-423.3319 399.3344,-427.2962 395.5042,-423.516 399.5,-423.7 399.5,-423.7 399.5,-423.7 395.5042,-423.516 399.6656,-420.1038 391.5085,-423.3319 391.5085,-423.3319"/>
<ellipse fill="none" stroke="#000000" cx="388.3119" cy="-423.1847" rx="3.2" ry="3.2"/>
</g>
<!-- resource_uris -->
<g id="node10" class="node">
<title>resource_uris</title>
<g id="a_node10"><a xlink:href="../../tables/resource_uris.html" xlink:title="resource_uris" target="_top">
<polygon fill="#ffffff" stroke="transparent" points="437,-38.2 437,-99.2 546,-99.2 546,-38.2 437,-38.2"/>
<polygon fill="#f5f5f5" stroke="transparent" points="437.5,-75.7 437.5,-98.7 546.5,-98.7 546.5,-75.7 437.5,-75.7"/>
<polygon fill="none" stroke="#000000" points="437.5,-75.7 437.5,-98.7 546.5,-98.7 546.5,-75.7 437.5,-75.7"/>
<text text-anchor="start" x="442.192" y="-84.8" font-family="Helvetica,sans-Serif" font-weight="bold" font-size="11.00" fill="#000000">resource_uris</text>
<text text-anchor="start" x="512.0219" y="-83.8" font-family="Helvetica,sans-Serif" font-size="11.00" fill="#000000">[table]</text>
<polygon fill="none" stroke="#000000" points="437.5,-56.7 437.5,-75.7 546.5,-75.7 546.5,-56.7 437.5,-56.7"/>
<text text-anchor="start" x="440.5" y="-62.8" font-family="Helvetica,sans-Serif" font-size="11.00" fill="#000000">...</text>
<polygon fill="#ffffff" stroke="transparent" points="437.5,-37.7 437.5,-56.7 477.5,-56.7 477.5,-37.7 437.5,-37.7"/>
<polygon fill="none" stroke="#000000" points="437.5,-37.7 437.5,-56.7 477.5,-56.7 477.5,-37.7 437.5,-37.7"/>
<text text-anchor="start" x="440.5" y="-43.8" font-family="Helvetica,sans-Serif" font-size="11.00" fill="#000000">&lt; 1</text>
<polygon fill="#ffffff" stroke="transparent" points="477.5,-37.7 477.5,-56.7 524.5,-56.7 524.5,-37.7 477.5,-37.7"/>
<polygon fill="none" stroke="#000000" points="477.5,-37.7 477.5,-56.7 524.5,-56.7 524.5,-37.7 477.5,-37.7"/>
<text text-anchor="start" x="489.1105" y="-43.8" font-family="Helvetica,sans-Serif" font-size="11.00" fill="#000000">0 rows</text>
<polygon fill="#ffffff" stroke="transparent" points="524.5,-37.7 524.5,-56.7 546.5,-56.7 546.5,-37.7 524.5,-37.7"/>
<polygon fill="none" stroke="#000000" points="524.5,-37.7 524.5,-56.7 546.5,-56.7 546.5,-37.7 524.5,-37.7"/>
<text text-anchor="start" x="537.3862" y="-43.8" font-family="Helvetica,sans-Serif" font-size="11.00" fill="#000000"> &#160;</text>
</a>
</g>
</g>
<!-- resource_uris&#45;&gt;resource_server_resource -->
<g id="edge13" class="edge">
<title>resource_uris:w&#45;&gt;resource_server_resource:e</title>
<path fill="none" stroke="#000000" d="M422.8916,-67.9638C406.9823,-73.735 402.1307,-89.9473 391,-109.7 349.2529,-183.7853 435.538,-296.7 350.5,-296.7"/>
<polygon fill="#000000" stroke="#000000" points="429.5944,-66.9251 438.0513,-69.2575 433.5472,-66.3126 437.5,-65.7 437.5,-65.7 437.5,-65.7 433.5472,-66.3126 436.9487,-62.1425 429.5944,-66.9251 429.5944,-66.9251"/>
<ellipse fill="none" stroke="#000000" cx="426.4321" cy="-67.4152" rx="3.2" ry="3.2"/>
</g>
<!-- scope_policy -->
<g id="node11" class="node">
<title>scope_policy</title>
<g id="a_node11"><a xlink:href="../../tables/scope_policy.html" xlink:title="scope_policy" target="_top">
<polygon fill="#ffffff" stroke="transparent" points="438.5,-478.2 438.5,-539.2 544.5,-539.2 544.5,-478.2 438.5,-478.2"/>
<polygon fill="#f5f5f5" stroke="transparent" points="438.5,-515.7 438.5,-538.7 544.5,-538.7 544.5,-515.7 438.5,-515.7"/>
<polygon fill="none" stroke="#000000" points="438.5,-515.7 438.5,-538.7 544.5,-538.7 544.5,-515.7 438.5,-515.7"/>
<text text-anchor="start" x="443.2144" y="-524.8" font-family="Helvetica,sans-Serif" font-weight="bold" font-size="11.00" fill="#000000">scope_policy</text>
<text text-anchor="start" x="510.0219" y="-523.8" font-family="Helvetica,sans-Serif" font-size="11.00" fill="#000000">[table]</text>
<polygon fill="none" stroke="#000000" points="438.5,-496.7 438.5,-515.7 544.5,-515.7 544.5,-496.7 438.5,-496.7"/>
<text text-anchor="start" x="441.5" y="-502.8" font-family="Helvetica,sans-Serif" font-size="11.00" fill="#000000">...</text>
<polygon fill="#ffffff" stroke="transparent" points="438.5,-477.7 438.5,-496.7 476.5,-496.7 476.5,-477.7 438.5,-477.7"/>
<polygon fill="none" stroke="#000000" points="438.5,-477.7 438.5,-496.7 476.5,-496.7 476.5,-477.7 438.5,-477.7"/>
<text text-anchor="start" x="441.5" y="-483.8" font-family="Helvetica,sans-Serif" font-size="11.00" fill="#000000">&lt; 2</text>
<polygon fill="#ffffff" stroke="transparent" points="476.5,-477.7 476.5,-496.7 523.5,-496.7 523.5,-477.7 476.5,-477.7"/>
<polygon fill="none" stroke="#000000" points="476.5,-477.7 476.5,-496.7 523.5,-496.7 523.5,-477.7 476.5,-477.7"/>
<text text-anchor="start" x="488.1105" y="-483.8" font-family="Helvetica,sans-Serif" font-size="11.00" fill="#000000">0 rows</text>
<polygon fill="#ffffff" stroke="transparent" points="523.5,-477.7 523.5,-496.7 544.5,-496.7 544.5,-477.7 523.5,-477.7"/>
<polygon fill="none" stroke="#000000" points="523.5,-477.7 523.5,-496.7 544.5,-496.7 544.5,-477.7 523.5,-477.7"/>
<text text-anchor="start" x="535.3862" y="-483.8" font-family="Helvetica,sans-Serif" font-size="11.00" fill="#000000"> &#160;</text>
</a>
</g>
</g>
<!-- scope_policy&#45;&gt;resource_server_policy -->
<g id="edge14" class="edge">
<title>scope_policy:w&#45;&gt;resource_server_policy:e</title>
<path fill="none" stroke="#000000" d="M423.7116,-506.4305C392.3036,-509.6844 380.4142,-522.7 342.5,-522.7"/>
<polygon fill="#000000" stroke="#000000" points="430.5097,-506.0947 438.6776,-509.2956 434.5049,-505.8974 438.5,-505.7 438.5,-505.7 438.5,-505.7 434.5049,-505.8974 438.3224,-502.1044 430.5097,-506.0947 430.5097,-506.0947"/>
<ellipse fill="none" stroke="#000000" cx="427.3136" cy="-506.2526" rx="3.2" ry="3.2"/>
</g>
</g>
</svg>
