<?xml version="1.0" encoding="UTF-8" standalone="no"?>
<!DOCTYPE svg PUBLIC "-//W3C//DTD SVG 1.1//EN"
 "http://www.w3.org/Graphics/SVG/1.1/DTD/svg11.dtd">
<!-- Generated by graphviz version 2.40.1 (20161225.0304)
 -->
<!-- Title: oneDegreeRelationshipsDiagram Pages: 1 -->
<svg width="691pt" height="480pt"
 viewBox="0.00 0.00 691.00 479.70" xmlns="http://www.w3.org/2000/svg" xmlns:xlink="http://www.w3.org/1999/xlink">
<g id="graph0" class="graph" transform="scale(1 1) rotate(0) translate(4 475.7)">
<title>oneDegreeRelationshipsDiagram</title>
<polygon fill="#ffffff" stroke="transparent" points="-4,4 -4,-475.7 687,-475.7 687,4 -4,4"/>
<text text-anchor="middle" x="72.4936" y="-7.3" font-family="Helvetica,sans-Serif" font-size="11.00" fill="#000000">Generated by SchemaSpy</text>
<!-- resource_scope -->
<g id="node1" class="node">
<title>resource_scope</title>
<g id="a_node1"><a xlink:href="../../tables/resource_scope.html" xlink:title="resource_scope" target="_top">
<polygon fill="#ffffff" stroke="transparent" points="520.5,-381.7 520.5,-467.7 641.5,-467.7 641.5,-381.7 520.5,-381.7"/>
<polygon fill="#f5f5f5" stroke="transparent" points="521,-444.7 521,-467.7 642,-467.7 642,-444.7 521,-444.7"/>
<polygon fill="none" stroke="#000000" points="521,-444.7 521,-467.7 642,-467.7 642,-444.7 521,-444.7"/>
<text text-anchor="start" x="525.8785" y="-453.8" font-family="Helvetica,sans-Serif" font-weight="bold" font-size="11.00" fill="#000000">resource_scope</text>
<text text-anchor="start" x="607.5219" y="-452.8" font-family="Helvetica,sans-Serif" font-size="11.00" fill="#000000">[table]</text>
<polygon fill="none" stroke="#000000" points="521,-422.7 521,-444.7 642,-444.7 642,-422.7 521,-422.7"/>
<image xlink:href="../../images/primaryKeys.png" width="11px" height="12px" preserveAspectRatio="xMinYMin meet" x="526" y="-439.7"/>
<text text-anchor="start" x="545" y="-429.8" font-family="Helvetica,sans-Serif" font-size="11.00" fill="#000000">resource_id</text>
<polygon fill="none" stroke="#000000" points="521,-400.7 521,-422.7 642,-422.7 642,-400.7 521,-400.7"/>
<image xlink:href="../../images/primaryKeys.png" width="11px" height="12px" preserveAspectRatio="xMinYMin meet" x="526" y="-417.7"/>
<text text-anchor="start" x="545" y="-407.8" font-family="Helvetica,sans-Serif" font-size="11.00" fill="#000000">scope_id</text>
<polygon fill="#ffffff" stroke="transparent" points="521,-381.7 521,-400.7 567,-400.7 567,-381.7 521,-381.7"/>
<polygon fill="none" stroke="#000000" points="521,-381.7 521,-400.7 567,-400.7 567,-381.7 521,-381.7"/>
<text text-anchor="start" x="524" y="-387.8" font-family="Helvetica,sans-Serif" font-size="11.00" fill="#000000">&lt; 2</text>
<polygon fill="#ffffff" stroke="transparent" points="567,-381.7 567,-400.7 617,-400.7 617,-381.7 567,-381.7"/>
<polygon fill="none" stroke="#000000" points="567,-381.7 567,-400.7 617,-400.7 617,-381.7 567,-381.7"/>
<text text-anchor="start" x="581.6105" y="-387.8" font-family="Helvetica,sans-Serif" font-size="11.00" fill="#000000">0 rows</text>
<polygon fill="#ffffff" stroke="transparent" points="617,-381.7 617,-400.7 642,-400.7 642,-381.7 617,-381.7"/>
<polygon fill="none" stroke="#000000" points="617,-381.7 617,-400.7 642,-400.7 642,-381.7 617,-381.7"/>
<text text-anchor="start" x="632.8862" y="-387.8" font-family="Helvetica,sans-Serif" font-size="11.00" fill="#000000"> &#160;</text>
</a>
</g>
</g>
<!-- resource_server_scope -->
<g id="node2" class="node">
<title>resource_server_scope</title>
<g id="a_node2"><a xlink:href="../../tables/resource_server_scope.html" xlink:title="resource_server_scope" target="_top">
<polygon fill="#ffffff" stroke="transparent" points="212,-187.7 212,-343.7 438,-343.7 438,-187.7 212,-187.7"/>
<polygon fill="#f5f5f5" stroke="transparent" points="214,-318.7 214,-341.7 436,-341.7 436,-318.7 214,-318.7"/>
<polygon fill="none" stroke="#000000" points="214,-318.7 214,-341.7 436,-341.7 436,-318.7 214,-318.7"/>
<text text-anchor="start" x="219" y="-327.8" font-family="Helvetica,sans-Serif" font-weight="bold" font-size="11.00" fill="#000000">resource_server_scope</text>
<text text-anchor="start" x="401.0437" y="-326.8" font-family="Helvetica,sans-Serif" font-size="11.00" fill="#000000">[table]</text>
<polygon fill="none" stroke="#000000" points="214,-296.7 214,-318.7 369,-318.7 369,-296.7 214,-296.7"/>
<image xlink:href="../../images/primaryKeys.png" width="11px" height="12px" preserveAspectRatio="xMinYMin meet" x="219" y="-313.7"/>
<text text-anchor="start" x="234" y="-303.8" font-family="Helvetica,sans-Serif" font-size="11.00" fill="#000000">id</text>
<polygon fill="none" stroke="#000000" points="369,-296.7 369,-318.7 436,-318.7 436,-296.7 369,-296.7"/>
<text text-anchor="start" x="372" y="-304.4" font-family="Helvetica,sans-Serif" font-size="11.00" fill="#000000">varchar[36]</text>
<polygon fill="#ffffff" stroke="transparent" points="214,-274.7 214,-296.7 369,-296.7 369,-274.7 214,-274.7"/>
<polygon fill="none" stroke="#000000" points="214,-274.7 214,-296.7 369,-296.7 369,-274.7 214,-274.7"/>
<text text-anchor="start" x="234" y="-281.8" font-family="Helvetica,sans-Serif" font-size="11.00" fill="#000000">name</text>
<polygon fill="none" stroke="#000000" points="369,-274.7 369,-296.7 436,-296.7 436,-274.7 369,-274.7"/>
<text text-anchor="start" x="371.9365" y="-282.4" font-family="Helvetica,sans-Serif" font-size="11.00" fill="#000000">varchar[255]</text>
<polygon fill="none" stroke="#000000" points="214,-252.7 214,-274.7 369,-274.7 369,-252.7 214,-252.7"/>
<text text-anchor="start" x="234" y="-259.8" font-family="Helvetica,sans-Serif" font-size="11.00" fill="#000000">icon_uri</text>
<polygon fill="none" stroke="#000000" points="369,-252.7 369,-274.7 436,-274.7 436,-252.7 369,-252.7"/>
<text text-anchor="start" x="371.9365" y="-260.4" font-family="Helvetica,sans-Serif" font-size="11.00" fill="#000000">varchar[255]</text>
<polygon fill="#ffffff" stroke="transparent" points="214,-230.7 214,-252.7 369,-252.7 369,-230.7 214,-230.7"/>
<polygon fill="none" stroke="#000000" points="214,-230.7 214,-252.7 369,-252.7 369,-230.7 214,-230.7"/>
<image xlink:href="../../images/foreignKeys.png" width="11px" height="12px" preserveAspectRatio="xMinYMin meet" x="219" y="-247.7"/>
<text text-anchor="start" x="234" y="-237.8" font-family="Helvetica,sans-Serif" font-size="11.00" fill="#000000">resource_server_id</text>
<polygon fill="none" stroke="#000000" points="369,-230.7 369,-252.7 436,-252.7 436,-230.7 369,-230.7"/>
<text text-anchor="start" x="372" y="-238.4" font-family="Helvetica,sans-Serif" font-size="11.00" fill="#000000">varchar[36]</text>
<polygon fill="none" stroke="#000000" points="214,-208.7 214,-230.7 369,-230.7 369,-208.7 214,-208.7"/>
<text text-anchor="start" x="234" y="-215.8" font-family="Helvetica,sans-Serif" font-size="11.00" fill="#000000">display_name</text>
<polygon fill="none" stroke="#000000" points="369,-208.7 369,-230.7 436,-230.7 436,-208.7 369,-208.7"/>
<text text-anchor="start" x="371.9365" y="-216.4" font-family="Helvetica,sans-Serif" font-size="11.00" fill="#000000">varchar[255]</text>
<polygon fill="#ffffff" stroke="transparent" points="214,-189.7 214,-208.7 283,-208.7 283,-189.7 214,-189.7"/>
<polygon fill="none" stroke="#000000" points="214,-189.7 214,-208.7 283,-208.7 283,-189.7 214,-189.7"/>
<text text-anchor="start" x="217" y="-195.8" font-family="Helvetica,sans-Serif" font-size="11.00" fill="#000000">&lt; 1</text>
<polygon fill="#ffffff" stroke="transparent" points="283,-189.7 283,-208.7 369,-208.7 369,-189.7 283,-189.7"/>
<polygon fill="none" stroke="#000000" points="283,-189.7 283,-208.7 369,-208.7 369,-189.7 283,-189.7"/>
<text text-anchor="start" x="333.6105" y="-195.8" font-family="Helvetica,sans-Serif" font-size="11.00" fill="#000000">0 rows</text>
<polygon fill="#ffffff" stroke="transparent" points="369,-189.7 369,-208.7 436,-208.7 436,-189.7 369,-189.7"/>
<polygon fill="none" stroke="#000000" points="369,-189.7 369,-208.7 436,-208.7 436,-189.7 369,-189.7"/>
<text text-anchor="start" x="417.4053" y="-195.8" font-family="Helvetica,sans-Serif" font-size="11.00" fill="#000000">3 &gt;</text>
<polygon fill="none" stroke="#000000" stroke-width="2" points="213,-188.7 213,-342.7 437,-342.7 437,-188.7 213,-188.7"/>
</a>
</g>
</g>
<!-- resource_scope&#45;&gt;resource_server_scope -->
<g id="edge1" class="edge">
<title>resource_scope:w&#45;&gt;resource_server_scope:e</title>
<path fill="none" stroke="#000000" d="M506.6325,-408.6243C494.4739,-402.2189 491.7248,-386.7862 479,-371.7 456.9056,-345.5054 470.2684,-307.7 436,-307.7"/>
<polygon fill="#000000" stroke="#000000" points="513.1772,-410.0253 520.2464,-415.2202 517.0886,-410.8627 521,-411.7 521,-411.7 521,-411.7 517.0886,-410.8627 521.7536,-408.1798 513.1772,-410.0253 513.1772,-410.0253"/>
<ellipse fill="none" stroke="#000000" cx="510.0481" cy="-409.3554" rx="3.2" ry="3.2"/>
</g>
<!-- resource_server -->
<g id="node4" class="node">
<title>resource_server</title>
<g id="a_node4"><a xlink:href="../../tables/resource_server.html" xlink:title="resource_server" target="_top">
<polygon fill="#ffffff" stroke="transparent" points="8,-135.2 8,-218.2 163,-218.2 163,-135.2 8,-135.2"/>
<polygon fill="#f5f5f5" stroke="transparent" points="8.5,-194.7 8.5,-217.7 163.5,-217.7 163.5,-194.7 8.5,-194.7"/>
<polygon fill="none" stroke="#000000" points="8.5,-194.7 8.5,-217.7 163.5,-217.7 163.5,-194.7 8.5,-194.7"/>
<text text-anchor="start" x="13.5" y="-203.8" font-family="Helvetica,sans-Serif" font-weight="bold" font-size="11.00" fill="#000000">resource_server</text>
<text text-anchor="start" x="128.5437" y="-202.8" font-family="Helvetica,sans-Serif" font-size="11.00" fill="#000000">[table]</text>
<polygon fill="none" stroke="#000000" points="8.5,-172.7 8.5,-194.7 163.5,-194.7 163.5,-172.7 8.5,-172.7"/>
<image xlink:href="../../images/primaryKeys.png" width="11px" height="12px" preserveAspectRatio="xMinYMin meet" x="13.5" y="-189.7"/>
<text text-anchor="start" x="28.5" y="-179.8" font-family="Helvetica,sans-Serif" font-size="11.00" fill="#000000">id</text>
<polygon fill="none" stroke="#000000" points="8.5,-153.7 8.5,-172.7 163.5,-172.7 163.5,-153.7 8.5,-153.7"/>
<text text-anchor="start" x="11.5" y="-159.8" font-family="Helvetica,sans-Serif" font-size="11.00" fill="#000000">...</text>
<polygon fill="#ffffff" stroke="transparent" points="8.5,-134.7 8.5,-153.7 62.5,-153.7 62.5,-134.7 8.5,-134.7"/>
<polygon fill="none" stroke="#000000" points="8.5,-134.7 8.5,-153.7 62.5,-153.7 62.5,-134.7 8.5,-134.7"/>
<text text-anchor="start" x="11.5" y="-140.8" font-family="Helvetica,sans-Serif" font-size="11.00" fill="#000000"> &#160;</text>
<polygon fill="#ffffff" stroke="transparent" points="62.5,-134.7 62.5,-153.7 121.5,-153.7 121.5,-134.7 62.5,-134.7"/>
<polygon fill="none" stroke="#000000" points="62.5,-134.7 62.5,-153.7 121.5,-153.7 121.5,-134.7 62.5,-134.7"/>
<text text-anchor="start" x="86.1105" y="-140.8" font-family="Helvetica,sans-Serif" font-size="11.00" fill="#000000">0 rows</text>
<polygon fill="#ffffff" stroke="transparent" points="121.5,-134.7 121.5,-153.7 163.5,-153.7 163.5,-134.7 121.5,-134.7"/>
<polygon fill="none" stroke="#000000" points="121.5,-134.7 121.5,-153.7 163.5,-153.7 163.5,-134.7 121.5,-134.7"/>
<text text-anchor="start" x="144.9053" y="-140.8" font-family="Helvetica,sans-Serif" font-size="11.00" fill="#000000">4 &gt;</text>
</a>
</g>
</g>
<!-- resource_server_scope&#45;&gt;resource_server -->
<g id="edge4" class="edge">
<title>resource_server_scope:w&#45;&gt;resource_server:e</title>
<path fill="none" stroke="#000000" d="M200.0119,-236.755C184.5583,-222.7289 191.538,-183.7 163.5,-183.7"/>
<polygon fill="#000000" stroke="#000000" points="206.4574,-239.0335 212.8001,-245.0942 210.2287,-240.3668 214,-241.7 214,-241.7 214,-241.7 210.2287,-240.3668 215.1999,-238.3058 206.4574,-239.0335 206.4574,-239.0335"/>
<ellipse fill="none" stroke="#000000" cx="203.4404" cy="-237.967" rx="3.2" ry="3.2"/>
</g>
<!-- resource_server_perm_ticket -->
<g id="node3" class="node">
<title>resource_server_perm_ticket</title>
<g id="a_node3"><a xlink:href="../../tables/resource_server_perm_ticket.html" xlink:title="resource_server_perm_ticket" target="_top">
<polygon fill="#ffffff" stroke="transparent" points="487,-38.2 487,-253.2 675,-253.2 675,-38.2 487,-38.2"/>
<polygon fill="#f5f5f5" stroke="transparent" points="487,-229.7 487,-252.7 675,-252.7 675,-229.7 487,-229.7"/>
<polygon fill="none" stroke="#000000" points="487,-229.7 487,-252.7 675,-252.7 675,-229.7 487,-229.7"/>
<text text-anchor="start" x="492" y="-238.8" font-family="Helvetica,sans-Serif" font-weight="bold" font-size="11.00" fill="#000000">resource_server_perm_ticket</text>
<text text-anchor="start" x="640.0437" y="-237.8" font-family="Helvetica,sans-Serif" font-size="11.00" fill="#000000">[table]</text>
<polygon fill="none" stroke="#000000" points="487,-207.7 487,-229.7 675,-229.7 675,-207.7 487,-207.7"/>
<image xlink:href="../../images/primaryKeys.png" width="11px" height="12px" preserveAspectRatio="xMinYMin meet" x="492" y="-224.7"/>
<text text-anchor="start" x="507" y="-214.8" font-family="Helvetica,sans-Serif" font-size="11.00" fill="#000000">id</text>
<polygon fill="#ffffff" stroke="transparent" points="487,-185.7 487,-207.7 675,-207.7 675,-185.7 487,-185.7"/>
<polygon fill="none" stroke="#000000" points="487,-185.7 487,-207.7 675,-207.7 675,-185.7 487,-185.7"/>
<text text-anchor="start" x="507" y="-192.8" font-family="Helvetica,sans-Serif" font-size="11.00" fill="#000000">owner</text>
<polygon fill="#ffffff" stroke="transparent" points="487,-163.7 487,-185.7 675,-185.7 675,-163.7 487,-163.7"/>
<polygon fill="none" stroke="#000000" points="487,-163.7 487,-185.7 675,-185.7 675,-163.7 487,-163.7"/>
<text text-anchor="start" x="507" y="-170.8" font-family="Helvetica,sans-Serif" font-size="11.00" fill="#000000">requester</text>
<polygon fill="#ffffff" stroke="transparent" points="487,-141.7 487,-163.7 675,-163.7 675,-141.7 487,-141.7"/>
<polygon fill="none" stroke="#000000" points="487,-141.7 487,-163.7 675,-163.7 675,-141.7 487,-141.7"/>
<image xlink:href="../../images/foreignKeys.png" width="11px" height="12px" preserveAspectRatio="xMinYMin meet" x="492" y="-158.7"/>
<text text-anchor="start" x="507" y="-148.8" font-family="Helvetica,sans-Serif" font-size="11.00" fill="#000000">resource_id</text>
<polygon fill="#ffffff" stroke="transparent" points="487,-119.7 487,-141.7 675,-141.7 675,-119.7 487,-119.7"/>
<polygon fill="none" stroke="#000000" points="487,-119.7 487,-141.7 675,-141.7 675,-119.7 487,-119.7"/>
<image xlink:href="../../images/foreignKeys.png" width="11px" height="12px" preserveAspectRatio="xMinYMin meet" x="492" y="-136.7"/>
<text text-anchor="start" x="507" y="-126.8" font-family="Helvetica,sans-Serif" font-size="11.00" fill="#000000">scope_id</text>
<polygon fill="#ffffff" stroke="transparent" points="487,-97.7 487,-119.7 675,-119.7 675,-97.7 487,-97.7"/>
<polygon fill="none" stroke="#000000" points="487,-97.7 487,-119.7 675,-119.7 675,-97.7 487,-97.7"/>
<image xlink:href="../../images/foreignKeys.png" width="11px" height="12px" preserveAspectRatio="xMinYMin meet" x="492" y="-114.7"/>
<text text-anchor="start" x="507" y="-104.8" font-family="Helvetica,sans-Serif" font-size="11.00" fill="#000000">resource_server_id</text>
<polygon fill="none" stroke="#000000" points="487,-75.7 487,-97.7 675,-97.7 675,-75.7 487,-75.7"/>
<image xlink:href="../../images/foreignKeys.png" width="11px" height="12px" preserveAspectRatio="xMinYMin meet" x="492" y="-92.7"/>
<text text-anchor="start" x="507" y="-82.8" font-family="Helvetica,sans-Serif" font-size="11.00" fill="#000000">policy_id</text>
<polygon fill="none" stroke="#000000" points="487,-56.7 487,-75.7 675,-75.7 675,-56.7 487,-56.7"/>
<text text-anchor="start" x="490" y="-62.8" font-family="Helvetica,sans-Serif" font-size="11.00" fill="#000000">...</text>
<polygon fill="#ffffff" stroke="transparent" points="487,-37.7 487,-56.7 566,-56.7 566,-37.7 487,-37.7"/>
<polygon fill="none" stroke="#000000" points="487,-37.7 487,-56.7 566,-56.7 566,-37.7 487,-37.7"/>
<text text-anchor="start" x="490" y="-43.8" font-family="Helvetica,sans-Serif" font-size="11.00" fill="#000000">&lt; 4</text>
<polygon fill="#ffffff" stroke="transparent" points="566,-37.7 566,-56.7 633,-56.7 633,-37.7 566,-37.7"/>
<polygon fill="none" stroke="#000000" points="566,-37.7 566,-56.7 633,-56.7 633,-37.7 566,-37.7"/>
<text text-anchor="start" x="597.6105" y="-43.8" font-family="Helvetica,sans-Serif" font-size="11.00" fill="#000000">0 rows</text>
<polygon fill="#ffffff" stroke="transparent" points="633,-37.7 633,-56.7 675,-56.7 675,-37.7 633,-37.7"/>
<polygon fill="none" stroke="#000000" points="633,-37.7 633,-56.7 675,-56.7 675,-37.7 633,-37.7"/>
<text text-anchor="start" x="665.8862" y="-43.8" font-family="Helvetica,sans-Serif" font-size="11.00" fill="#000000"> &#160;</text>
</a>
</g>
</g>
<!-- resource_server_perm_ticket&#45;&gt;resource_server_scope -->
<g id="edge3" class="edge">
<title>resource_server_perm_ticket:w&#45;&gt;resource_server_scope:e</title>
<path fill="none" stroke="#000000" d="M472.4821,-133.2021C420.0241,-154.7156 512.1108,-307.7 436,-307.7"/>
<polygon fill="#000000" stroke="#000000" points="479.1162,-132.0588 487.6115,-134.2477 483.0581,-131.3794 487,-130.7 487,-130.7 487,-130.7 483.0581,-131.3794 486.3885,-127.1523 479.1162,-132.0588 479.1162,-132.0588"/>
<ellipse fill="none" stroke="#000000" cx="475.9627" cy="-132.6023" rx="3.2" ry="3.2"/>
</g>
<!-- resource_server_perm_ticket&#45;&gt;resource_server -->
<g id="edge2" class="edge">
<title>resource_server_perm_ticket:w&#45;&gt;resource_server:e</title>
<path fill="none" stroke="#000000" d="M472.6284,-110.3362C407.8527,-121.3042 197.1548,-183.7 163.5,-183.7"/>
<polygon fill="#000000" stroke="#000000" points="479.0513,-109.605 487.4073,-112.2769 483.0257,-109.1525 487,-108.7 487,-108.7 487,-108.7 483.0257,-109.1525 486.5927,-105.1231 479.0513,-109.605 479.0513,-109.605"/>
<ellipse fill="none" stroke="#000000" cx="475.8719" cy="-109.967" rx="3.2" ry="3.2"/>
</g>
<!-- scope_policy -->
<g id="node5" class="node">
<title>scope_policy</title>
<g id="a_node5"><a xlink:href="../../tables/scope_policy.html" xlink:title="scope_policy" target="_top">
<polygon fill="#ffffff" stroke="transparent" points="528,-274.7 528,-360.7 634,-360.7 634,-274.7 528,-274.7"/>
<polygon fill="#f5f5f5" stroke="transparent" points="528,-337.7 528,-360.7 634,-360.7 634,-337.7 528,-337.7"/>
<polygon fill="none" stroke="#000000" points="528,-337.7 528,-360.7 634,-360.7 634,-337.7 528,-337.7"/>
<text text-anchor="start" x="532.7144" y="-346.8" font-family="Helvetica,sans-Serif" font-weight="bold" font-size="11.00" fill="#000000">scope_policy</text>
<text text-anchor="start" x="599.5219" y="-345.8" font-family="Helvetica,sans-Serif" font-size="11.00" fill="#000000">[table]</text>
<polygon fill="none" stroke="#000000" points="528,-315.7 528,-337.7 634,-337.7 634,-315.7 528,-315.7"/>
<image xlink:href="../../images/primaryKeys.png" width="11px" height="12px" preserveAspectRatio="xMinYMin meet" x="533" y="-332.7"/>
<text text-anchor="start" x="553" y="-322.8" font-family="Helvetica,sans-Serif" font-size="11.00" fill="#000000">scope_id</text>
<polygon fill="none" stroke="#000000" points="528,-293.7 528,-315.7 634,-315.7 634,-293.7 528,-293.7"/>
<image xlink:href="../../images/primaryKeys.png" width="11px" height="12px" preserveAspectRatio="xMinYMin meet" x="533" y="-310.7"/>
<text text-anchor="start" x="553" y="-300.8" font-family="Helvetica,sans-Serif" font-size="11.00" fill="#000000">policy_id</text>
<polygon fill="#ffffff" stroke="transparent" points="528,-274.7 528,-293.7 566,-293.7 566,-274.7 528,-274.7"/>
<polygon fill="none" stroke="#000000" points="528,-274.7 528,-293.7 566,-293.7 566,-274.7 528,-274.7"/>
<text text-anchor="start" x="531" y="-280.8" font-family="Helvetica,sans-Serif" font-size="11.00" fill="#000000">&lt; 2</text>
<polygon fill="#ffffff" stroke="transparent" points="566,-274.7 566,-293.7 613,-293.7 613,-274.7 566,-274.7"/>
<polygon fill="none" stroke="#000000" points="566,-274.7 566,-293.7 613,-293.7 613,-274.7 566,-274.7"/>
<text text-anchor="start" x="577.6105" y="-280.8" font-family="Helvetica,sans-Serif" font-size="11.00" fill="#000000">0 rows</text>
<polygon fill="#ffffff" stroke="transparent" points="613,-274.7 613,-293.7 634,-293.7 634,-274.7 613,-274.7"/>
<polygon fill="none" stroke="#000000" points="613,-274.7 613,-293.7 634,-293.7 634,-274.7 613,-274.7"/>
<text text-anchor="start" x="624.8862" y="-280.8" font-family="Helvetica,sans-Serif" font-size="11.00" fill="#000000"> &#160;</text>
</a>
</g>
</g>
<!-- scope_policy&#45;&gt;resource_server_scope -->
<g id="edge5" class="edge">
<title>scope_policy:w&#45;&gt;resource_server_scope:e</title>
<path fill="none" stroke="#000000" d="M513.3691,-325.8342C483.5051,-322.1173 472.3697,-307.7 436,-307.7"/>
<polygon fill="#000000" stroke="#000000" points="520.014,-326.2274 527.7873,-330.2937 524.007,-326.4637 528,-326.7 528,-326.7 528,-326.7 524.007,-326.4637 528.2127,-323.1063 520.014,-326.2274 520.014,-326.2274"/>
<ellipse fill="none" stroke="#000000" cx="516.8196" cy="-326.0383" rx="3.2" ry="3.2"/>
</g>
</g>
</svg>
