<?xml version="1.0" encoding="UTF-8" standalone="no"?>
<!DOCTYPE svg PUBLIC "-//W3C//DTD SVG 1.1//EN"
 "http://www.w3.org/Graphics/SVG/1.1/DTD/svg11.dtd">
<!-- Generated by graphviz version 2.40.1 (20161225.0304)
 -->
<!-- Title: twoDegreesRelationshipsDiagram Pages: 1 -->
<svg width="691pt" height="713pt"
 viewBox="0.00 0.00 691.00 713.20" xmlns="http://www.w3.org/2000/svg" xmlns:xlink="http://www.w3.org/1999/xlink">
<g id="graph0" class="graph" transform="scale(1 1) rotate(0) translate(4 709.2)">
<title>twoDegreesRelationshipsDiagram</title>
<polygon fill="#ffffff" stroke="transparent" points="-4,4 -4,-709.2 687,-709.2 687,4 -4,4"/>
<text text-anchor="middle" x="72.4936" y="-7.3" font-family="Helvetica,sans-Serif" font-size="11.00" fill="#000000">Generated by SchemaSpy</text>
<!-- associated_policy -->
<g id="node1" class="node">
<title>associated_policy</title>
<g id="a_node1"><a xlink:href="../../tables/associated_policy.html" xlink:title="associated_policy" target="_top">
<polygon fill="#ffffff" stroke="transparent" points="510.5,-488.7 510.5,-574.7 651.5,-574.7 651.5,-488.7 510.5,-488.7"/>
<polygon fill="#f5f5f5" stroke="transparent" points="511,-551.7 511,-574.7 652,-574.7 652,-551.7 511,-551.7"/>
<polygon fill="none" stroke="#000000" points="511,-551.7 511,-574.7 652,-574.7 652,-551.7 511,-551.7"/>
<text text-anchor="start" x="516" y="-560.8" font-family="Helvetica,sans-Serif" font-weight="bold" font-size="11.00" fill="#000000">associated_policy</text>
<text text-anchor="start" x="617.0437" y="-559.8" font-family="Helvetica,sans-Serif" font-size="11.00" fill="#000000">[table]</text>
<polygon fill="none" stroke="#000000" points="511,-529.7 511,-551.7 652,-551.7 652,-529.7 511,-529.7"/>
<image xlink:href="../../images/primaryKeys.png" width="11px" height="12px" preserveAspectRatio="xMinYMin meet" x="516" y="-546.7"/>
<text text-anchor="start" x="531" y="-536.8" font-family="Helvetica,sans-Serif" font-size="11.00" fill="#000000">policy_id</text>
<polygon fill="none" stroke="#000000" points="511,-507.7 511,-529.7 652,-529.7 652,-507.7 511,-507.7"/>
<image xlink:href="../../images/primaryKeys.png" width="11px" height="12px" preserveAspectRatio="xMinYMin meet" x="516" y="-524.7"/>
<text text-anchor="start" x="531" y="-514.8" font-family="Helvetica,sans-Serif" font-size="11.00" fill="#000000">associated_policy_id</text>
<polygon fill="#ffffff" stroke="transparent" points="511,-488.7 511,-507.7 567,-507.7 567,-488.7 511,-488.7"/>
<polygon fill="none" stroke="#000000" points="511,-488.7 511,-507.7 567,-507.7 567,-488.7 511,-488.7"/>
<text text-anchor="start" x="514" y="-494.8" font-family="Helvetica,sans-Serif" font-size="11.00" fill="#000000">&lt; 2</text>
<polygon fill="#ffffff" stroke="transparent" points="567,-488.7 567,-507.7 622,-507.7 622,-488.7 567,-488.7"/>
<polygon fill="none" stroke="#000000" points="567,-488.7 567,-507.7 622,-507.7 622,-488.7 567,-488.7"/>
<text text-anchor="start" x="586.6105" y="-494.8" font-family="Helvetica,sans-Serif" font-size="11.00" fill="#000000">0 rows</text>
<polygon fill="#ffffff" stroke="transparent" points="622,-488.7 622,-507.7 652,-507.7 652,-488.7 622,-488.7"/>
<polygon fill="none" stroke="#000000" points="622,-488.7 622,-507.7 652,-507.7 652,-488.7 622,-488.7"/>
<text text-anchor="start" x="642.8862" y="-494.8" font-family="Helvetica,sans-Serif" font-size="11.00" fill="#000000"> &#160;</text>
</a>
</g>
</g>
<!-- resource_server_policy -->
<g id="node2" class="node">
<title>resource_server_policy</title>
<g id="a_node2"><a xlink:href="../../tables/resource_server_policy.html" xlink:title="resource_server_policy" target="_top">
<polygon fill="#ffffff" stroke="transparent" points="212,-297.7 212,-519.7 438,-519.7 438,-297.7 212,-297.7"/>
<polygon fill="#f5f5f5" stroke="transparent" points="214,-494.7 214,-517.7 436,-517.7 436,-494.7 214,-494.7"/>
<polygon fill="none" stroke="#000000" points="214,-494.7 214,-517.7 436,-517.7 436,-494.7 214,-494.7"/>
<text text-anchor="start" x="219" y="-503.8" font-family="Helvetica,sans-Serif" font-weight="bold" font-size="11.00" fill="#000000">resource_server_policy</text>
<text text-anchor="start" x="401.0437" y="-502.8" font-family="Helvetica,sans-Serif" font-size="11.00" fill="#000000">[table]</text>
<polygon fill="none" stroke="#000000" points="214,-472.7 214,-494.7 369,-494.7 369,-472.7 214,-472.7"/>
<image xlink:href="../../images/primaryKeys.png" width="11px" height="12px" preserveAspectRatio="xMinYMin meet" x="219" y="-489.7"/>
<text text-anchor="start" x="234" y="-479.8" font-family="Helvetica,sans-Serif" font-size="11.00" fill="#000000">id</text>
<polygon fill="none" stroke="#000000" points="369,-472.7 369,-494.7 436,-494.7 436,-472.7 369,-472.7"/>
<text text-anchor="start" x="372" y="-480.4" font-family="Helvetica,sans-Serif" font-size="11.00" fill="#000000">varchar[36]</text>
<polygon fill="#ffffff" stroke="transparent" points="214,-450.7 214,-472.7 369,-472.7 369,-450.7 214,-450.7"/>
<polygon fill="none" stroke="#000000" points="214,-450.7 214,-472.7 369,-472.7 369,-450.7 214,-450.7"/>
<text text-anchor="start" x="234" y="-457.8" font-family="Helvetica,sans-Serif" font-size="11.00" fill="#000000">name</text>
<polygon fill="none" stroke="#000000" points="369,-450.7 369,-472.7 436,-472.7 436,-450.7 369,-450.7"/>
<text text-anchor="start" x="371.9365" y="-458.4" font-family="Helvetica,sans-Serif" font-size="11.00" fill="#000000">varchar[255]</text>
<polygon fill="none" stroke="#000000" points="214,-428.7 214,-450.7 369,-450.7 369,-428.7 214,-428.7"/>
<text text-anchor="start" x="234" y="-435.8" font-family="Helvetica,sans-Serif" font-size="11.00" fill="#000000">description</text>
<polygon fill="none" stroke="#000000" points="369,-428.7 369,-450.7 436,-450.7 436,-428.7 369,-428.7"/>
<text text-anchor="start" x="371.9365" y="-436.4" font-family="Helvetica,sans-Serif" font-size="11.00" fill="#000000">varchar[255]</text>
<polygon fill="none" stroke="#000000" points="214,-406.7 214,-428.7 369,-428.7 369,-406.7 214,-406.7"/>
<text text-anchor="start" x="234" y="-413.8" font-family="Helvetica,sans-Serif" font-size="11.00" fill="#000000">type</text>
<polygon fill="none" stroke="#000000" points="369,-406.7 369,-428.7 436,-428.7 436,-406.7 369,-406.7"/>
<text text-anchor="start" x="371.9365" y="-414.4" font-family="Helvetica,sans-Serif" font-size="11.00" fill="#000000">varchar[255]</text>
<polygon fill="none" stroke="#000000" points="214,-384.7 214,-406.7 369,-406.7 369,-384.7 214,-384.7"/>
<text text-anchor="start" x="234" y="-391.8" font-family="Helvetica,sans-Serif" font-size="11.00" fill="#000000">decision_strategy</text>
<polygon fill="none" stroke="#000000" points="369,-384.7 369,-406.7 436,-406.7 436,-384.7 369,-384.7"/>
<text text-anchor="start" x="372" y="-392.4" font-family="Helvetica,sans-Serif" font-size="11.00" fill="#000000">varchar[20]</text>
<polygon fill="none" stroke="#000000" points="214,-362.7 214,-384.7 369,-384.7 369,-362.7 214,-362.7"/>
<text text-anchor="start" x="234" y="-369.8" font-family="Helvetica,sans-Serif" font-size="11.00" fill="#000000">logic</text>
<polygon fill="none" stroke="#000000" points="369,-362.7 369,-384.7 436,-384.7 436,-362.7 369,-362.7"/>
<text text-anchor="start" x="372" y="-370.4" font-family="Helvetica,sans-Serif" font-size="11.00" fill="#000000">varchar[20]</text>
<polygon fill="#ffffff" stroke="transparent" points="214,-340.7 214,-362.7 369,-362.7 369,-340.7 214,-340.7"/>
<polygon fill="none" stroke="#000000" points="214,-340.7 214,-362.7 369,-362.7 369,-340.7 214,-340.7"/>
<image xlink:href="../../images/foreignKeys.png" width="11px" height="12px" preserveAspectRatio="xMinYMin meet" x="219" y="-357.7"/>
<text text-anchor="start" x="234" y="-347.8" font-family="Helvetica,sans-Serif" font-size="11.00" fill="#000000">resource_server_id</text>
<polygon fill="none" stroke="#000000" points="369,-340.7 369,-362.7 436,-362.7 436,-340.7 369,-340.7"/>
<text text-anchor="start" x="372" y="-348.4" font-family="Helvetica,sans-Serif" font-size="11.00" fill="#000000">varchar[36]</text>
<polygon fill="none" stroke="#000000" points="214,-318.7 214,-340.7 369,-340.7 369,-318.7 214,-318.7"/>
<text text-anchor="start" x="234" y="-325.8" font-family="Helvetica,sans-Serif" font-size="11.00" fill="#000000">owner</text>
<polygon fill="none" stroke="#000000" points="369,-318.7 369,-340.7 436,-340.7 436,-318.7 369,-318.7"/>
<text text-anchor="start" x="371.9365" y="-326.4" font-family="Helvetica,sans-Serif" font-size="11.00" fill="#000000">varchar[255]</text>
<polygon fill="#ffffff" stroke="transparent" points="214,-299.7 214,-318.7 283,-318.7 283,-299.7 214,-299.7"/>
<polygon fill="none" stroke="#000000" points="214,-299.7 214,-318.7 283,-318.7 283,-299.7 214,-299.7"/>
<text text-anchor="start" x="217" y="-305.8" font-family="Helvetica,sans-Serif" font-size="11.00" fill="#000000">&lt; 1</text>
<polygon fill="#ffffff" stroke="transparent" points="283,-299.7 283,-318.7 369,-318.7 369,-299.7 283,-299.7"/>
<polygon fill="none" stroke="#000000" points="283,-299.7 283,-318.7 369,-318.7 369,-299.7 283,-299.7"/>
<text text-anchor="start" x="333.6105" y="-305.8" font-family="Helvetica,sans-Serif" font-size="11.00" fill="#000000">0 rows</text>
<polygon fill="#ffffff" stroke="transparent" points="369,-299.7 369,-318.7 436,-318.7 436,-299.7 369,-299.7"/>
<polygon fill="none" stroke="#000000" points="369,-299.7 369,-318.7 436,-318.7 436,-299.7 369,-299.7"/>
<text text-anchor="start" x="417.4053" y="-305.8" font-family="Helvetica,sans-Serif" font-size="11.00" fill="#000000">6 &gt;</text>
<polygon fill="none" stroke="#000000" stroke-width="2" points="213,-298.7 213,-518.7 437,-518.7 437,-298.7 213,-298.7"/>
</a>
</g>
</g>
<!-- associated_policy&#45;&gt;resource_server_policy -->
<g id="edge1" class="edge">
<title>associated_policy:w&#45;&gt;resource_server_policy:e</title>
<path fill="none" stroke="#000000" d="M496.7251,-516.6154C473.0118,-509.0806 467.3242,-483.7 436,-483.7"/>
<polygon fill="#000000" stroke="#000000" points="503.084,-517.544 510.4798,-522.2622 507.042,-518.122 511,-518.7 511,-518.7 511,-518.7 507.042,-518.122 511.5202,-515.1378 503.084,-517.544 503.084,-517.544"/>
<ellipse fill="none" stroke="#000000" cx="499.9175" cy="-517.0815" rx="3.2" ry="3.2"/>
</g>
<!-- associated_policy&#45;&gt;resource_server_policy -->
<g id="edge2" class="edge">
<title>associated_policy:w&#45;&gt;resource_server_policy:e</title>
<path fill="none" stroke="#000000" d="M496.7591,-537.9508C470.5601,-526.5648 472.307,-483.7 436,-483.7"/>
<polygon fill="#000000" stroke="#000000" points="503.145,-539.1835 510.3176,-544.2347 507.0725,-539.9418 511,-540.7 511,-540.7 511,-540.7 507.0725,-539.9418 511.6824,-537.1653 503.145,-539.1835 503.145,-539.1835"/>
<ellipse fill="none" stroke="#000000" cx="500.003" cy="-538.577" rx="3.2" ry="3.2"/>
</g>
<!-- resource_server -->
<g id="node7" class="node">
<title>resource_server</title>
<g id="a_node7"><a xlink:href="../../tables/resource_server.html" xlink:title="resource_server" target="_top">
<polygon fill="#ffffff" stroke="transparent" points="8,-153.2 8,-236.2 163,-236.2 163,-153.2 8,-153.2"/>
<polygon fill="#f5f5f5" stroke="transparent" points="8.5,-212.7 8.5,-235.7 163.5,-235.7 163.5,-212.7 8.5,-212.7"/>
<polygon fill="none" stroke="#000000" points="8.5,-212.7 8.5,-235.7 163.5,-235.7 163.5,-212.7 8.5,-212.7"/>
<text text-anchor="start" x="13.5" y="-221.8" font-family="Helvetica,sans-Serif" font-weight="bold" font-size="11.00" fill="#000000">resource_server</text>
<text text-anchor="start" x="128.5437" y="-220.8" font-family="Helvetica,sans-Serif" font-size="11.00" fill="#000000">[table]</text>
<polygon fill="none" stroke="#000000" points="8.5,-190.7 8.5,-212.7 163.5,-212.7 163.5,-190.7 8.5,-190.7"/>
<image xlink:href="../../images/primaryKeys.png" width="11px" height="12px" preserveAspectRatio="xMinYMin meet" x="13.5" y="-207.7"/>
<text text-anchor="start" x="28.5" y="-197.8" font-family="Helvetica,sans-Serif" font-size="11.00" fill="#000000">id</text>
<polygon fill="none" stroke="#000000" points="8.5,-171.7 8.5,-190.7 163.5,-190.7 163.5,-171.7 8.5,-171.7"/>
<text text-anchor="start" x="11.5" y="-177.8" font-family="Helvetica,sans-Serif" font-size="11.00" fill="#000000">...</text>
<polygon fill="#ffffff" stroke="transparent" points="8.5,-152.7 8.5,-171.7 62.5,-171.7 62.5,-152.7 8.5,-152.7"/>
<polygon fill="none" stroke="#000000" points="8.5,-152.7 8.5,-171.7 62.5,-171.7 62.5,-152.7 8.5,-152.7"/>
<text text-anchor="start" x="11.5" y="-158.8" font-family="Helvetica,sans-Serif" font-size="11.00" fill="#000000"> &#160;</text>
<polygon fill="#ffffff" stroke="transparent" points="62.5,-152.7 62.5,-171.7 121.5,-171.7 121.5,-152.7 62.5,-152.7"/>
<polygon fill="none" stroke="#000000" points="62.5,-152.7 62.5,-171.7 121.5,-171.7 121.5,-152.7 62.5,-152.7"/>
<text text-anchor="start" x="86.1105" y="-158.8" font-family="Helvetica,sans-Serif" font-size="11.00" fill="#000000">0 rows</text>
<polygon fill="#ffffff" stroke="transparent" points="121.5,-152.7 121.5,-171.7 163.5,-171.7 163.5,-152.7 121.5,-152.7"/>
<polygon fill="none" stroke="#000000" points="121.5,-152.7 121.5,-171.7 163.5,-171.7 163.5,-152.7 121.5,-152.7"/>
<text text-anchor="start" x="144.9053" y="-158.8" font-family="Helvetica,sans-Serif" font-size="11.00" fill="#000000">4 &gt;</text>
</a>
</g>
</g>
<!-- resource_server_policy&#45;&gt;resource_server -->
<g id="edge10" class="edge">
<title>resource_server_policy:w&#45;&gt;resource_server:e</title>
<path fill="none" stroke="#000000" d="M199.7524,-348.8375C157.3726,-328.1 228.0731,-201.7 163.5,-201.7"/>
<polygon fill="#000000" stroke="#000000" points="206.1567,-350.1242 213.2909,-355.2295 210.0784,-350.9121 214,-351.7 214,-351.7 214,-351.7 210.0784,-350.9121 214.7091,-348.1705 206.1567,-350.1242 206.1567,-350.1242"/>
<ellipse fill="none" stroke="#000000" cx="203.0194" cy="-349.4938" rx="3.2" ry="3.2"/>
</g>
<!-- policy_config -->
<g id="node3" class="node">
<title>policy_config</title>
<g id="a_node3"><a xlink:href="../../tables/policy_config.html" xlink:title="policy_config" target="_top">
<polygon fill="#ffffff" stroke="transparent" points="528,-596.2 528,-701.2 634,-701.2 634,-596.2 528,-596.2"/>
<polygon fill="#f5f5f5" stroke="transparent" points="528,-677.7 528,-700.7 634,-700.7 634,-677.7 528,-677.7"/>
<polygon fill="none" stroke="#000000" points="528,-677.7 528,-700.7 634,-700.7 634,-677.7 528,-677.7"/>
<text text-anchor="start" x="532.7155" y="-686.8" font-family="Helvetica,sans-Serif" font-weight="bold" font-size="11.00" fill="#000000">policy_config</text>
<text text-anchor="start" x="599.5219" y="-685.8" font-family="Helvetica,sans-Serif" font-size="11.00" fill="#000000">[table]</text>
<polygon fill="none" stroke="#000000" points="528,-655.7 528,-677.7 634,-677.7 634,-655.7 528,-655.7"/>
<image xlink:href="../../images/primaryKeys.png" width="11px" height="12px" preserveAspectRatio="xMinYMin meet" x="533" y="-672.7"/>
<text text-anchor="start" x="552" y="-662.8" font-family="Helvetica,sans-Serif" font-size="11.00" fill="#000000">policy_id</text>
<polygon fill="none" stroke="#000000" points="528,-633.7 528,-655.7 634,-655.7 634,-633.7 528,-633.7"/>
<image xlink:href="../../images/primaryKeys.png" width="11px" height="12px" preserveAspectRatio="xMinYMin meet" x="533" y="-650.7"/>
<text text-anchor="start" x="552" y="-640.8" font-family="Helvetica,sans-Serif" font-size="11.00" fill="#000000">name</text>
<polygon fill="none" stroke="#000000" points="528,-614.7 528,-633.7 634,-633.7 634,-614.7 528,-614.7"/>
<text text-anchor="start" x="531" y="-620.8" font-family="Helvetica,sans-Serif" font-size="11.00" fill="#000000">...</text>
<polygon fill="#ffffff" stroke="transparent" points="528,-595.7 528,-614.7 566,-614.7 566,-595.7 528,-595.7"/>
<polygon fill="none" stroke="#000000" points="528,-595.7 528,-614.7 566,-614.7 566,-595.7 528,-595.7"/>
<text text-anchor="start" x="531" y="-601.8" font-family="Helvetica,sans-Serif" font-size="11.00" fill="#000000">&lt; 1</text>
<polygon fill="#ffffff" stroke="transparent" points="566,-595.7 566,-614.7 613,-614.7 613,-595.7 566,-595.7"/>
<polygon fill="none" stroke="#000000" points="566,-595.7 566,-614.7 613,-614.7 613,-595.7 566,-595.7"/>
<text text-anchor="start" x="577.6105" y="-601.8" font-family="Helvetica,sans-Serif" font-size="11.00" fill="#000000">0 rows</text>
<polygon fill="#ffffff" stroke="transparent" points="613,-595.7 613,-614.7 634,-614.7 634,-595.7 613,-595.7"/>
<polygon fill="none" stroke="#000000" points="613,-595.7 613,-614.7 634,-614.7 634,-595.7 613,-595.7"/>
<text text-anchor="start" x="624.8862" y="-601.8" font-family="Helvetica,sans-Serif" font-size="11.00" fill="#000000"> &#160;</text>
</a>
</g>
</g>
<!-- policy_config&#45;&gt;resource_server_policy -->
<g id="edge3" class="edge">
<title>policy_config:w&#45;&gt;resource_server_policy:e</title>
<path fill="none" stroke="#000000" d="M513.5669,-664.3864C488.6725,-654.9138 495.4984,-618.059 479,-585.7 456.6535,-541.871 485.197,-483.7 436,-483.7"/>
<polygon fill="#000000" stroke="#000000" points="520.1008,-665.4337 527.4302,-670.2546 524.0504,-666.0669 528,-666.7 528,-666.7 528,-666.7 524.0504,-666.0669 528.5698,-663.1454 520.1008,-665.4337 520.1008,-665.4337"/>
<ellipse fill="none" stroke="#000000" cx="516.9412" cy="-664.9272" rx="3.2" ry="3.2"/>
</g>
<!-- resource_policy -->
<g id="node4" class="node">
<title>resource_policy</title>
<g id="a_node4"><a xlink:href="../../tables/resource_policy.html" xlink:title="resource_policy" target="_top">
<polygon fill="#ffffff" stroke="transparent" points="521,-381.7 521,-467.7 641,-467.7 641,-381.7 521,-381.7"/>
<polygon fill="#f5f5f5" stroke="transparent" points="521,-444.7 521,-467.7 641,-467.7 641,-444.7 521,-444.7"/>
<polygon fill="none" stroke="#000000" points="521,-444.7 521,-467.7 641,-467.7 641,-444.7 521,-444.7"/>
<text text-anchor="start" x="525.9951" y="-453.8" font-family="Helvetica,sans-Serif" font-weight="bold" font-size="11.00" fill="#000000">resource_policy</text>
<text text-anchor="start" x="606.5219" y="-452.8" font-family="Helvetica,sans-Serif" font-size="11.00" fill="#000000">[table]</text>
<polygon fill="none" stroke="#000000" points="521,-422.7 521,-444.7 641,-444.7 641,-422.7 521,-422.7"/>
<image xlink:href="../../images/primaryKeys.png" width="11px" height="12px" preserveAspectRatio="xMinYMin meet" x="526" y="-439.7"/>
<text text-anchor="start" x="545" y="-429.8" font-family="Helvetica,sans-Serif" font-size="11.00" fill="#000000">resource_id</text>
<polygon fill="none" stroke="#000000" points="521,-400.7 521,-422.7 641,-422.7 641,-400.7 521,-400.7"/>
<image xlink:href="../../images/primaryKeys.png" width="11px" height="12px" preserveAspectRatio="xMinYMin meet" x="526" y="-417.7"/>
<text text-anchor="start" x="545" y="-407.8" font-family="Helvetica,sans-Serif" font-size="11.00" fill="#000000">policy_id</text>
<polygon fill="#ffffff" stroke="transparent" points="521,-381.7 521,-400.7 566,-400.7 566,-381.7 521,-381.7"/>
<polygon fill="none" stroke="#000000" points="521,-381.7 521,-400.7 566,-400.7 566,-381.7 521,-381.7"/>
<text text-anchor="start" x="524" y="-387.8" font-family="Helvetica,sans-Serif" font-size="11.00" fill="#000000">&lt; 2</text>
<polygon fill="#ffffff" stroke="transparent" points="566,-381.7 566,-400.7 616,-400.7 616,-381.7 566,-381.7"/>
<polygon fill="none" stroke="#000000" points="566,-381.7 566,-400.7 616,-400.7 616,-381.7 566,-381.7"/>
<text text-anchor="start" x="580.6105" y="-387.8" font-family="Helvetica,sans-Serif" font-size="11.00" fill="#000000">0 rows</text>
<polygon fill="#ffffff" stroke="transparent" points="616,-381.7 616,-400.7 641,-400.7 641,-381.7 616,-381.7"/>
<polygon fill="none" stroke="#000000" points="616,-381.7 616,-400.7 641,-400.7 641,-381.7 616,-381.7"/>
<text text-anchor="start" x="631.8862" y="-387.8" font-family="Helvetica,sans-Serif" font-size="11.00" fill="#000000"> &#160;</text>
</a>
</g>
</g>
<!-- resource_policy&#45;&gt;resource_server_policy -->
<g id="edge4" class="edge">
<title>resource_policy:w&#45;&gt;resource_server_policy:e</title>
<path fill="none" stroke="#000000" d="M506.4356,-414.2625C473.8516,-427.0885 479.9007,-483.7 436,-483.7"/>
<polygon fill="#000000" stroke="#000000" points="513.121,-413.0863 521.6238,-415.2455 517.0605,-412.3932 521,-411.7 521,-411.7 521,-411.7 517.0605,-412.3932 520.3762,-408.1545 513.121,-413.0863 513.121,-413.0863"/>
<ellipse fill="none" stroke="#000000" cx="509.9694" cy="-413.6408" rx="3.2" ry="3.2"/>
</g>
<!-- resource_server_resource -->
<g id="node5" class="node">
<title>resource_server_resource</title>
<g id="a_node5"><a xlink:href="../../tables/resource_server_resource.html" xlink:title="resource_server_resource" target="_top">
<polygon fill="#ffffff" stroke="transparent" points="239.5,-215.2 239.5,-276.2 410.5,-276.2 410.5,-215.2 239.5,-215.2"/>
<polygon fill="#f5f5f5" stroke="transparent" points="240,-252.7 240,-275.7 411,-275.7 411,-252.7 240,-252.7"/>
<polygon fill="none" stroke="#000000" points="240,-252.7 240,-275.7 411,-275.7 411,-252.7 240,-252.7"/>
<text text-anchor="start" x="244.8249" y="-261.8" font-family="Helvetica,sans-Serif" font-weight="bold" font-size="11.00" fill="#000000">resource_server_resource</text>
<text text-anchor="start" x="376.5219" y="-260.8" font-family="Helvetica,sans-Serif" font-size="11.00" fill="#000000">[table]</text>
<polygon fill="none" stroke="#000000" points="240,-233.7 240,-252.7 411,-252.7 411,-233.7 240,-233.7"/>
<text text-anchor="start" x="243" y="-239.8" font-family="Helvetica,sans-Serif" font-size="11.00" fill="#000000">...</text>
<polygon fill="#ffffff" stroke="transparent" points="240,-214.7 240,-233.7 306,-233.7 306,-214.7 240,-214.7"/>
<polygon fill="none" stroke="#000000" points="240,-214.7 240,-233.7 306,-233.7 306,-214.7 240,-214.7"/>
<text text-anchor="start" x="243" y="-220.8" font-family="Helvetica,sans-Serif" font-size="11.00" fill="#000000">&lt; 1</text>
<polygon fill="#ffffff" stroke="transparent" points="306,-214.7 306,-233.7 367,-233.7 367,-214.7 306,-214.7"/>
<polygon fill="none" stroke="#000000" points="306,-214.7 306,-233.7 367,-233.7 367,-214.7 306,-214.7"/>
<text text-anchor="start" x="331.6105" y="-220.8" font-family="Helvetica,sans-Serif" font-size="11.00" fill="#000000">0 rows</text>
<polygon fill="#ffffff" stroke="transparent" points="367,-214.7 367,-233.7 411,-233.7 411,-214.7 367,-214.7"/>
<polygon fill="none" stroke="#000000" points="367,-214.7 367,-233.7 411,-233.7 411,-214.7 367,-214.7"/>
<text text-anchor="start" x="392.4053" y="-220.8" font-family="Helvetica,sans-Serif" font-size="11.00" fill="#000000">5 &gt;</text>
</a>
</g>
</g>
<!-- resource_policy&#45;&gt;resource_server_resource -->
<g id="edge5" class="edge">
<title>resource_policy:w&#45;&gt;resource_server_resource:e</title>
<path fill="none" stroke="#000000" d="M506.518,-432.0488C431.8872,-413.3806 503.6032,-242.7 411,-242.7"/>
<polygon fill="#000000" stroke="#000000" points="513.0515,-432.7937 520.5922,-437.2768 517.0257,-433.2468 521,-433.7 521,-433.7 521,-433.7 517.0257,-433.2468 521.4078,-430.1232 513.0515,-432.7937 513.0515,-432.7937"/>
<ellipse fill="none" stroke="#000000" cx="509.8721" cy="-432.4312" rx="3.2" ry="3.2"/>
</g>
<!-- resource_server_resource&#45;&gt;resource_server -->
<g id="edge11" class="edge">
<title>resource_server_resource:w&#45;&gt;resource_server:e</title>
<path fill="none" stroke="#000000" d="M225.4954,-240.3782C200.7934,-231.7049 196.4999,-201.7 163.5,-201.7"/>
<polygon fill="#000000" stroke="#000000" points="232.1006,-241.4355 239.431,-246.2547 236.0503,-242.0677 240,-242.7 240,-242.7 240,-242.7 236.0503,-242.0677 240.569,-239.1453 232.1006,-241.4355 232.1006,-241.4355"/>
<ellipse fill="none" stroke="#000000" cx="228.9408" cy="-240.9296" rx="3.2" ry="3.2"/>
</g>
<!-- resource_server_perm_ticket -->
<g id="node6" class="node">
<title>resource_server_perm_ticket</title>
<g id="a_node6"><a xlink:href="../../tables/resource_server_perm_ticket.html" xlink:title="resource_server_perm_ticket" target="_top">
<polygon fill="#ffffff" stroke="transparent" points="487,-38.2 487,-253.2 675,-253.2 675,-38.2 487,-38.2"/>
<polygon fill="#f5f5f5" stroke="transparent" points="487,-229.7 487,-252.7 675,-252.7 675,-229.7 487,-229.7"/>
<polygon fill="none" stroke="#000000" points="487,-229.7 487,-252.7 675,-252.7 675,-229.7 487,-229.7"/>
<text text-anchor="start" x="492" y="-238.8" font-family="Helvetica,sans-Serif" font-weight="bold" font-size="11.00" fill="#000000">resource_server_perm_ticket</text>
<text text-anchor="start" x="640.0437" y="-237.8" font-family="Helvetica,sans-Serif" font-size="11.00" fill="#000000">[table]</text>
<polygon fill="none" stroke="#000000" points="487,-207.7 487,-229.7 675,-229.7 675,-207.7 487,-207.7"/>
<image xlink:href="../../images/primaryKeys.png" width="11px" height="12px" preserveAspectRatio="xMinYMin meet" x="492" y="-224.7"/>
<text text-anchor="start" x="507" y="-214.8" font-family="Helvetica,sans-Serif" font-size="11.00" fill="#000000">id</text>
<polygon fill="#ffffff" stroke="transparent" points="487,-185.7 487,-207.7 675,-207.7 675,-185.7 487,-185.7"/>
<polygon fill="none" stroke="#000000" points="487,-185.7 487,-207.7 675,-207.7 675,-185.7 487,-185.7"/>
<text text-anchor="start" x="507" y="-192.8" font-family="Helvetica,sans-Serif" font-size="11.00" fill="#000000">owner</text>
<polygon fill="#ffffff" stroke="transparent" points="487,-163.7 487,-185.7 675,-185.7 675,-163.7 487,-163.7"/>
<polygon fill="none" stroke="#000000" points="487,-163.7 487,-185.7 675,-185.7 675,-163.7 487,-163.7"/>
<text text-anchor="start" x="507" y="-170.8" font-family="Helvetica,sans-Serif" font-size="11.00" fill="#000000">requester</text>
<polygon fill="#ffffff" stroke="transparent" points="487,-141.7 487,-163.7 675,-163.7 675,-141.7 487,-141.7"/>
<polygon fill="none" stroke="#000000" points="487,-141.7 487,-163.7 675,-163.7 675,-141.7 487,-141.7"/>
<image xlink:href="../../images/foreignKeys.png" width="11px" height="12px" preserveAspectRatio="xMinYMin meet" x="492" y="-158.7"/>
<text text-anchor="start" x="507" y="-148.8" font-family="Helvetica,sans-Serif" font-size="11.00" fill="#000000">resource_id</text>
<polygon fill="#ffffff" stroke="transparent" points="487,-119.7 487,-141.7 675,-141.7 675,-119.7 487,-119.7"/>
<polygon fill="none" stroke="#000000" points="487,-119.7 487,-141.7 675,-141.7 675,-119.7 487,-119.7"/>
<image xlink:href="../../images/foreignKeys.png" width="11px" height="12px" preserveAspectRatio="xMinYMin meet" x="492" y="-136.7"/>
<text text-anchor="start" x="507" y="-126.8" font-family="Helvetica,sans-Serif" font-size="11.00" fill="#000000">scope_id</text>
<polygon fill="#ffffff" stroke="transparent" points="487,-97.7 487,-119.7 675,-119.7 675,-97.7 487,-97.7"/>
<polygon fill="none" stroke="#000000" points="487,-97.7 487,-119.7 675,-119.7 675,-97.7 487,-97.7"/>
<image xlink:href="../../images/foreignKeys.png" width="11px" height="12px" preserveAspectRatio="xMinYMin meet" x="492" y="-114.7"/>
<text text-anchor="start" x="507" y="-104.8" font-family="Helvetica,sans-Serif" font-size="11.00" fill="#000000">resource_server_id</text>
<polygon fill="none" stroke="#000000" points="487,-75.7 487,-97.7 675,-97.7 675,-75.7 487,-75.7"/>
<image xlink:href="../../images/foreignKeys.png" width="11px" height="12px" preserveAspectRatio="xMinYMin meet" x="492" y="-92.7"/>
<text text-anchor="start" x="507" y="-82.8" font-family="Helvetica,sans-Serif" font-size="11.00" fill="#000000">policy_id</text>
<polygon fill="none" stroke="#000000" points="487,-56.7 487,-75.7 675,-75.7 675,-56.7 487,-56.7"/>
<text text-anchor="start" x="490" y="-62.8" font-family="Helvetica,sans-Serif" font-size="11.00" fill="#000000">...</text>
<polygon fill="#ffffff" stroke="transparent" points="487,-37.7 487,-56.7 566,-56.7 566,-37.7 487,-37.7"/>
<polygon fill="none" stroke="#000000" points="487,-37.7 487,-56.7 566,-56.7 566,-37.7 487,-37.7"/>
<text text-anchor="start" x="490" y="-43.8" font-family="Helvetica,sans-Serif" font-size="11.00" fill="#000000">&lt; 4</text>
<polygon fill="#ffffff" stroke="transparent" points="566,-37.7 566,-56.7 633,-56.7 633,-37.7 566,-37.7"/>
<polygon fill="none" stroke="#000000" points="566,-37.7 566,-56.7 633,-56.7 633,-37.7 566,-37.7"/>
<text text-anchor="start" x="597.6105" y="-43.8" font-family="Helvetica,sans-Serif" font-size="11.00" fill="#000000">0 rows</text>
<polygon fill="#ffffff" stroke="transparent" points="633,-37.7 633,-56.7 675,-56.7 675,-37.7 633,-37.7"/>
<polygon fill="none" stroke="#000000" points="633,-37.7 633,-56.7 675,-56.7 675,-37.7 633,-37.7"/>
<text text-anchor="start" x="665.8862" y="-43.8" font-family="Helvetica,sans-Serif" font-size="11.00" fill="#000000"> &#160;</text>
</a>
</g>
</g>
<!-- resource_server_perm_ticket&#45;&gt;resource_server_policy -->
<g id="edge6" class="edge">
<title>resource_server_perm_ticket:w&#45;&gt;resource_server_policy:e</title>
<path fill="none" stroke="#000000" d="M473.1215,-90.8899C412.6277,-133.3188 519.5617,-483.7 436,-483.7"/>
<polygon fill="#000000" stroke="#000000" points="479.3414,-89.0122 488.0405,-90.1464 483.1707,-87.8561 487,-86.7 487,-86.7 487,-86.7 483.1707,-87.8561 485.9595,-83.2536 479.3414,-89.0122 479.3414,-89.0122"/>
<ellipse fill="none" stroke="#000000" cx="476.278" cy="-89.937" rx="3.2" ry="3.2"/>
</g>
<!-- resource_server_perm_ticket&#45;&gt;resource_server_resource -->
<g id="edge7" class="edge">
<title>resource_server_perm_ticket:w&#45;&gt;resource_server_resource:e</title>
<path fill="none" stroke="#000000" d="M472.5184,-155.6945C439.9562,-171.3108 457.6278,-242.7 411,-242.7"/>
<polygon fill="#000000" stroke="#000000" points="479.1657,-154.32 487.729,-156.2254 483.0829,-153.51 487,-152.7 487,-152.7 487,-152.7 483.0829,-153.51 486.271,-149.1746 479.1657,-154.32 479.1657,-154.32"/>
<ellipse fill="none" stroke="#000000" cx="476.032" cy="-154.968" rx="3.2" ry="3.2"/>
</g>
<!-- resource_server_perm_ticket&#45;&gt;resource_server -->
<g id="edge8" class="edge">
<title>resource_server_perm_ticket:w&#45;&gt;resource_server:e</title>
<path fill="none" stroke="#000000" d="M472.5765,-108.462C356.9799,-104.6448 305.6676,-57.0669 204,-122.7 170.8512,-144.0997 202.9562,-201.7 163.5,-201.7"/>
<polygon fill="#000000" stroke="#000000" points="479.0011,-108.5679 486.9406,-112.2995 483.0005,-108.634 487,-108.7 487,-108.7 487,-108.7 483.0005,-108.634 487.0594,-105.1005 479.0011,-108.5679 479.0011,-108.5679"/>
<ellipse fill="none" stroke="#000000" cx="475.8015" cy="-108.5151" rx="3.2" ry="3.2"/>
</g>
<!-- resource_server_scope -->
<g id="node8" class="node">
<title>resource_server_scope</title>
<g id="a_node8"><a xlink:href="../../tables/resource_server_scope.html" xlink:title="resource_server_scope" target="_top">
<polygon fill="#ffffff" stroke="transparent" points="246.5,-133.2 246.5,-194.2 403.5,-194.2 403.5,-133.2 246.5,-133.2"/>
<polygon fill="#f5f5f5" stroke="transparent" points="247,-170.7 247,-193.7 404,-193.7 404,-170.7 247,-170.7"/>
<polygon fill="none" stroke="#000000" points="247,-170.7 247,-193.7 404,-193.7 404,-170.7 247,-170.7"/>
<text text-anchor="start" x="251.5443" y="-179.8" font-family="Helvetica,sans-Serif" font-weight="bold" font-size="11.00" fill="#000000">resource_server_scope</text>
<text text-anchor="start" x="369.5219" y="-178.8" font-family="Helvetica,sans-Serif" font-size="11.00" fill="#000000">[table]</text>
<polygon fill="none" stroke="#000000" points="247,-151.7 247,-170.7 404,-170.7 404,-151.7 247,-151.7"/>
<text text-anchor="start" x="250" y="-157.8" font-family="Helvetica,sans-Serif" font-size="11.00" fill="#000000">...</text>
<polygon fill="#ffffff" stroke="transparent" points="247,-132.7 247,-151.7 306,-151.7 306,-132.7 247,-132.7"/>
<polygon fill="none" stroke="#000000" points="247,-132.7 247,-151.7 306,-151.7 306,-132.7 247,-132.7"/>
<text text-anchor="start" x="250" y="-138.8" font-family="Helvetica,sans-Serif" font-size="11.00" fill="#000000">&lt; 1</text>
<polygon fill="#ffffff" stroke="transparent" points="306,-132.7 306,-151.7 363,-151.7 363,-132.7 306,-132.7"/>
<polygon fill="none" stroke="#000000" points="306,-132.7 306,-151.7 363,-151.7 363,-132.7 306,-132.7"/>
<text text-anchor="start" x="327.6105" y="-138.8" font-family="Helvetica,sans-Serif" font-size="11.00" fill="#000000">0 rows</text>
<polygon fill="#ffffff" stroke="transparent" points="363,-132.7 363,-151.7 404,-151.7 404,-132.7 363,-132.7"/>
<polygon fill="none" stroke="#000000" points="363,-132.7 363,-151.7 404,-151.7 404,-132.7 363,-132.7"/>
<text text-anchor="start" x="385.4053" y="-138.8" font-family="Helvetica,sans-Serif" font-size="11.00" fill="#000000">3 &gt;</text>
</a>
</g>
</g>
<!-- resource_server_perm_ticket&#45;&gt;resource_server_scope -->
<g id="edge9" class="edge">
<title>resource_server_perm_ticket:w&#45;&gt;resource_server_scope:e</title>
<path fill="none" stroke="#000000" d="M472.6789,-132.2289C445.8829,-138.3424 437.8618,-160.7 404,-160.7"/>
<polygon fill="#000000" stroke="#000000" points="479.0452,-131.5493 487.3822,-134.2797 483.0226,-131.1247 487,-130.7 487,-130.7 487,-130.7 483.0226,-131.1247 486.6178,-127.1203 479.0452,-131.5493 479.0452,-131.5493"/>
<ellipse fill="none" stroke="#000000" cx="475.8633" cy="-131.889" rx="3.2" ry="3.2"/>
</g>
<!-- resource_server_scope&#45;&gt;resource_server -->
<g id="edge12" class="edge">
<title>resource_server_scope:w&#45;&gt;resource_server:e</title>
<path fill="none" stroke="#000000" d="M232.4821,-162.6775C204.7256,-170.8674 199.3526,-201.7 163.5,-201.7"/>
<polygon fill="#000000" stroke="#000000" points="239.0732,-161.7798 247.4859,-164.2671 243.0366,-161.2399 247,-160.7 247,-160.7 247,-160.7 243.0366,-161.2399 246.5141,-157.1329 239.0732,-161.7798 239.0732,-161.7798"/>
<ellipse fill="none" stroke="#000000" cx="235.9025" cy="-162.2117" rx="3.2" ry="3.2"/>
</g>
<!-- scope_policy -->
<g id="node9" class="node">
<title>scope_policy</title>
<g id="a_node9"><a xlink:href="../../tables/scope_policy.html" xlink:title="scope_policy" target="_top">
<polygon fill="#ffffff" stroke="transparent" points="528,-274.7 528,-360.7 634,-360.7 634,-274.7 528,-274.7"/>
<polygon fill="#f5f5f5" stroke="transparent" points="528,-337.7 528,-360.7 634,-360.7 634,-337.7 528,-337.7"/>
<polygon fill="none" stroke="#000000" points="528,-337.7 528,-360.7 634,-360.7 634,-337.7 528,-337.7"/>
<text text-anchor="start" x="532.7144" y="-346.8" font-family="Helvetica,sans-Serif" font-weight="bold" font-size="11.00" fill="#000000">scope_policy</text>
<text text-anchor="start" x="599.5219" y="-345.8" font-family="Helvetica,sans-Serif" font-size="11.00" fill="#000000">[table]</text>
<polygon fill="none" stroke="#000000" points="528,-315.7 528,-337.7 634,-337.7 634,-315.7 528,-315.7"/>
<image xlink:href="../../images/primaryKeys.png" width="11px" height="12px" preserveAspectRatio="xMinYMin meet" x="533" y="-332.7"/>
<text text-anchor="start" x="553" y="-322.8" font-family="Helvetica,sans-Serif" font-size="11.00" fill="#000000">scope_id</text>
<polygon fill="none" stroke="#000000" points="528,-293.7 528,-315.7 634,-315.7 634,-293.7 528,-293.7"/>
<image xlink:href="../../images/primaryKeys.png" width="11px" height="12px" preserveAspectRatio="xMinYMin meet" x="533" y="-310.7"/>
<text text-anchor="start" x="553" y="-300.8" font-family="Helvetica,sans-Serif" font-size="11.00" fill="#000000">policy_id</text>
<polygon fill="#ffffff" stroke="transparent" points="528,-274.7 528,-293.7 566,-293.7 566,-274.7 528,-274.7"/>
<polygon fill="none" stroke="#000000" points="528,-274.7 528,-293.7 566,-293.7 566,-274.7 528,-274.7"/>
<text text-anchor="start" x="531" y="-280.8" font-family="Helvetica,sans-Serif" font-size="11.00" fill="#000000">&lt; 2</text>
<polygon fill="#ffffff" stroke="transparent" points="566,-274.7 566,-293.7 613,-293.7 613,-274.7 566,-274.7"/>
<polygon fill="none" stroke="#000000" points="566,-274.7 566,-293.7 613,-293.7 613,-274.7 566,-274.7"/>
<text text-anchor="start" x="577.6105" y="-280.8" font-family="Helvetica,sans-Serif" font-size="11.00" fill="#000000">0 rows</text>
<polygon fill="#ffffff" stroke="transparent" points="613,-274.7 613,-293.7 634,-293.7 634,-274.7 613,-274.7"/>
<polygon fill="none" stroke="#000000" points="613,-274.7 613,-293.7 634,-293.7 634,-274.7 613,-274.7"/>
<text text-anchor="start" x="624.8862" y="-280.8" font-family="Helvetica,sans-Serif" font-size="11.00" fill="#000000"> &#160;</text>
</a>
</g>
</g>
<!-- scope_policy&#45;&gt;resource_server_policy -->
<g id="edge13" class="edge">
<title>scope_policy:w&#45;&gt;resource_server_policy:e</title>
<path fill="none" stroke="#000000" d="M513.5649,-307.0942C492.2752,-315.4607 493.8963,-344.3686 479,-371.7 453.483,-418.5182 489.3204,-483.7 436,-483.7"/>
<polygon fill="#000000" stroke="#000000" points="520.1078,-306.0091 528.5891,-308.2515 524.0539,-305.3545 528,-304.7 528,-304.7 528,-304.7 524.0539,-305.3545 527.4109,-301.1485 520.1078,-306.0091 520.1078,-306.0091"/>
<ellipse fill="none" stroke="#000000" cx="516.951" cy="-306.5327" rx="3.2" ry="3.2"/>
</g>
<!-- scope_policy&#45;&gt;resource_server_scope -->
<g id="edge14" class="edge">
<title>scope_policy:w&#45;&gt;resource_server_scope:e</title>
<path fill="none" stroke="#000000" d="M513.3195,-325.057C442.4403,-307.8168 490.6932,-160.7 404,-160.7"/>
<polygon fill="#000000" stroke="#000000" points="520.0496,-325.8102 527.5996,-330.2777 524.0248,-326.2551 528,-326.7 528,-326.7 528,-326.7 524.0248,-326.2551 528.4004,-323.1223 520.0496,-325.8102 520.0496,-325.8102"/>
<ellipse fill="none" stroke="#000000" cx="516.8695" cy="-325.4543" rx="3.2" ry="3.2"/>
</g>
</g>
</svg>
