<?xml version="1.0" encoding="UTF-8" standalone="no"?>
<!DOCTYPE svg PUBLIC "-//W3C//DTD SVG 1.1//EN"
 "http://www.w3.org/Graphics/SVG/1.1/DTD/svg11.dtd">
<!-- Generated by graphviz version 2.40.1 (20161225.0304)
 -->
<!-- Title: oneDegreeRelationshipsDiagram Pages: 1 -->
<svg width="701pt" height="523pt"
 viewBox="0.00 0.00 701.00 523.20" xmlns="http://www.w3.org/2000/svg" xmlns:xlink="http://www.w3.org/1999/xlink">
<g id="graph0" class="graph" transform="scale(1 1) rotate(0) translate(4 519.2)">
<title>oneDegreeRelationshipsDiagram</title>
<polygon fill="#ffffff" stroke="transparent" points="-4,4 -4,-519.2 697,-519.2 697,4 -4,4"/>
<text text-anchor="middle" x="72.4936" y="-7.3" font-family="Helvetica,sans-Serif" font-size="11.00" fill="#000000">Generated by SchemaSpy</text>
<!-- resource_server_perm_ticket -->
<g id="node1" class="node">
<title>resource_server_perm_ticket</title>
<g id="a_node1"><a xlink:href="../../tables/resource_server_perm_ticket.html" xlink:title="resource_server_perm_ticket" target="_top">
<polygon fill="#ffffff" stroke="transparent" points="497,-166.2 497,-381.2 685,-381.2 685,-166.2 497,-166.2"/>
<polygon fill="#f5f5f5" stroke="transparent" points="497,-357.7 497,-380.7 685,-380.7 685,-357.7 497,-357.7"/>
<polygon fill="none" stroke="#000000" points="497,-357.7 497,-380.7 685,-380.7 685,-357.7 497,-357.7"/>
<text text-anchor="start" x="502" y="-366.8" font-family="Helvetica,sans-Serif" font-weight="bold" font-size="11.00" fill="#000000">resource_server_perm_ticket</text>
<text text-anchor="start" x="650.0437" y="-365.8" font-family="Helvetica,sans-Serif" font-size="11.00" fill="#000000">[table]</text>
<polygon fill="none" stroke="#000000" points="497,-335.7 497,-357.7 685,-357.7 685,-335.7 497,-335.7"/>
<image xlink:href="../../images/primaryKeys.png" width="11px" height="12px" preserveAspectRatio="xMinYMin meet" x="502" y="-352.7"/>
<text text-anchor="start" x="517" y="-342.8" font-family="Helvetica,sans-Serif" font-size="11.00" fill="#000000">id</text>
<polygon fill="#ffffff" stroke="transparent" points="497,-313.7 497,-335.7 685,-335.7 685,-313.7 497,-313.7"/>
<polygon fill="none" stroke="#000000" points="497,-313.7 497,-335.7 685,-335.7 685,-313.7 497,-313.7"/>
<text text-anchor="start" x="517" y="-320.8" font-family="Helvetica,sans-Serif" font-size="11.00" fill="#000000">owner</text>
<polygon fill="#ffffff" stroke="transparent" points="497,-291.7 497,-313.7 685,-313.7 685,-291.7 497,-291.7"/>
<polygon fill="none" stroke="#000000" points="497,-291.7 497,-313.7 685,-313.7 685,-291.7 497,-291.7"/>
<text text-anchor="start" x="517" y="-298.8" font-family="Helvetica,sans-Serif" font-size="11.00" fill="#000000">requester</text>
<polygon fill="#ffffff" stroke="transparent" points="497,-269.7 497,-291.7 685,-291.7 685,-269.7 497,-269.7"/>
<polygon fill="none" stroke="#000000" points="497,-269.7 497,-291.7 685,-291.7 685,-269.7 497,-269.7"/>
<image xlink:href="../../images/foreignKeys.png" width="11px" height="12px" preserveAspectRatio="xMinYMin meet" x="502" y="-286.7"/>
<text text-anchor="start" x="517" y="-276.8" font-family="Helvetica,sans-Serif" font-size="11.00" fill="#000000">resource_id</text>
<polygon fill="#ffffff" stroke="transparent" points="497,-247.7 497,-269.7 685,-269.7 685,-247.7 497,-247.7"/>
<polygon fill="none" stroke="#000000" points="497,-247.7 497,-269.7 685,-269.7 685,-247.7 497,-247.7"/>
<image xlink:href="../../images/foreignKeys.png" width="11px" height="12px" preserveAspectRatio="xMinYMin meet" x="502" y="-264.7"/>
<text text-anchor="start" x="517" y="-254.8" font-family="Helvetica,sans-Serif" font-size="11.00" fill="#000000">scope_id</text>
<polygon fill="#ffffff" stroke="transparent" points="497,-225.7 497,-247.7 685,-247.7 685,-225.7 497,-225.7"/>
<polygon fill="none" stroke="#000000" points="497,-225.7 497,-247.7 685,-247.7 685,-225.7 497,-225.7"/>
<image xlink:href="../../images/foreignKeys.png" width="11px" height="12px" preserveAspectRatio="xMinYMin meet" x="502" y="-242.7"/>
<text text-anchor="start" x="517" y="-232.8" font-family="Helvetica,sans-Serif" font-size="11.00" fill="#000000">resource_server_id</text>
<polygon fill="none" stroke="#000000" points="497,-203.7 497,-225.7 685,-225.7 685,-203.7 497,-203.7"/>
<image xlink:href="../../images/foreignKeys.png" width="11px" height="12px" preserveAspectRatio="xMinYMin meet" x="502" y="-220.7"/>
<text text-anchor="start" x="517" y="-210.8" font-family="Helvetica,sans-Serif" font-size="11.00" fill="#000000">policy_id</text>
<polygon fill="none" stroke="#000000" points="497,-184.7 497,-203.7 685,-203.7 685,-184.7 497,-184.7"/>
<text text-anchor="start" x="500" y="-190.8" font-family="Helvetica,sans-Serif" font-size="11.00" fill="#000000">...</text>
<polygon fill="#ffffff" stroke="transparent" points="497,-165.7 497,-184.7 576,-184.7 576,-165.7 497,-165.7"/>
<polygon fill="none" stroke="#000000" points="497,-165.7 497,-184.7 576,-184.7 576,-165.7 497,-165.7"/>
<text text-anchor="start" x="500" y="-171.8" font-family="Helvetica,sans-Serif" font-size="11.00" fill="#000000">&lt; 4</text>
<polygon fill="#ffffff" stroke="transparent" points="576,-165.7 576,-184.7 643,-184.7 643,-165.7 576,-165.7"/>
<polygon fill="none" stroke="#000000" points="576,-165.7 576,-184.7 643,-184.7 643,-165.7 576,-165.7"/>
<text text-anchor="start" x="607.6105" y="-171.8" font-family="Helvetica,sans-Serif" font-size="11.00" fill="#000000">0 rows</text>
<polygon fill="#ffffff" stroke="transparent" points="643,-165.7 643,-184.7 685,-184.7 685,-165.7 643,-165.7"/>
<polygon fill="none" stroke="#000000" points="643,-165.7 643,-184.7 685,-184.7 685,-165.7 643,-165.7"/>
<text text-anchor="start" x="675.8862" y="-171.8" font-family="Helvetica,sans-Serif" font-size="11.00" fill="#000000"> &#160;</text>
</a>
</g>
</g>
<!-- resource_server_policy -->
<g id="node2" class="node">
<title>resource_server_policy</title>
<g id="a_node2"><a xlink:href="../../tables/resource_server_policy.html" xlink:title="resource_server_policy" target="_top">
<polygon fill="#ffffff" stroke="transparent" points="284.5,-38.2 284.5,-165.2 440.5,-165.2 440.5,-38.2 284.5,-38.2"/>
<polygon fill="#f5f5f5" stroke="transparent" points="284.5,-141.7 284.5,-164.7 440.5,-164.7 440.5,-141.7 284.5,-141.7"/>
<polygon fill="none" stroke="#000000" points="284.5,-141.7 284.5,-164.7 440.5,-164.7 440.5,-141.7 284.5,-141.7"/>
<text text-anchor="start" x="289.1608" y="-150.8" font-family="Helvetica,sans-Serif" font-weight="bold" font-size="11.00" fill="#000000">resource_server_policy</text>
<text text-anchor="start" x="406.0219" y="-149.8" font-family="Helvetica,sans-Serif" font-size="11.00" fill="#000000">[table]</text>
<polygon fill="none" stroke="#000000" points="284.5,-119.7 284.5,-141.7 440.5,-141.7 440.5,-119.7 284.5,-119.7"/>
<image xlink:href="../../images/primaryKeys.png" width="11px" height="12px" preserveAspectRatio="xMinYMin meet" x="289.5" y="-136.7"/>
<text text-anchor="start" x="305.5" y="-126.8" font-family="Helvetica,sans-Serif" font-size="11.00" fill="#000000">id</text>
<polygon fill="#ffffff" stroke="transparent" points="284.5,-97.7 284.5,-119.7 440.5,-119.7 440.5,-97.7 284.5,-97.7"/>
<polygon fill="none" stroke="#000000" points="284.5,-97.7 284.5,-119.7 440.5,-119.7 440.5,-97.7 284.5,-97.7"/>
<text text-anchor="start" x="305.5" y="-104.8" font-family="Helvetica,sans-Serif" font-size="11.00" fill="#000000">name</text>
<polygon fill="#ffffff" stroke="transparent" points="284.5,-75.7 284.5,-97.7 440.5,-97.7 440.5,-75.7 284.5,-75.7"/>
<polygon fill="none" stroke="#000000" points="284.5,-75.7 284.5,-97.7 440.5,-97.7 440.5,-75.7 284.5,-75.7"/>
<image xlink:href="../../images/foreignKeys.png" width="11px" height="12px" preserveAspectRatio="xMinYMin meet" x="289.5" y="-92.7"/>
<text text-anchor="start" x="305.5" y="-82.8" font-family="Helvetica,sans-Serif" font-size="11.00" fill="#000000">resource_server_id</text>
<polygon fill="none" stroke="#000000" points="284.5,-56.7 284.5,-75.7 440.5,-75.7 440.5,-56.7 284.5,-56.7"/>
<text text-anchor="start" x="287.5" y="-62.8" font-family="Helvetica,sans-Serif" font-size="11.00" fill="#000000">...</text>
<polygon fill="#ffffff" stroke="transparent" points="284.5,-37.7 284.5,-56.7 343.5,-56.7 343.5,-37.7 284.5,-37.7"/>
<polygon fill="none" stroke="#000000" points="284.5,-37.7 284.5,-56.7 343.5,-56.7 343.5,-37.7 284.5,-37.7"/>
<text text-anchor="start" x="287.5" y="-43.8" font-family="Helvetica,sans-Serif" font-size="11.00" fill="#000000">&lt; 1</text>
<polygon fill="#ffffff" stroke="transparent" points="343.5,-37.7 343.5,-56.7 400.5,-56.7 400.5,-37.7 343.5,-37.7"/>
<polygon fill="none" stroke="#000000" points="343.5,-37.7 343.5,-56.7 400.5,-56.7 400.5,-37.7 343.5,-37.7"/>
<text text-anchor="start" x="365.1105" y="-43.8" font-family="Helvetica,sans-Serif" font-size="11.00" fill="#000000">0 rows</text>
<polygon fill="#ffffff" stroke="transparent" points="400.5,-37.7 400.5,-56.7 440.5,-56.7 440.5,-37.7 400.5,-37.7"/>
<polygon fill="none" stroke="#000000" points="400.5,-37.7 400.5,-56.7 440.5,-56.7 440.5,-37.7 400.5,-37.7"/>
<text text-anchor="start" x="421.9053" y="-43.8" font-family="Helvetica,sans-Serif" font-size="11.00" fill="#000000">6 &gt;</text>
</a>
</g>
</g>
<!-- resource_server_perm_ticket&#45;&gt;resource_server_policy -->
<g id="edge1" class="edge">
<title>resource_server_perm_ticket:w&#45;&gt;resource_server_policy:e</title>
<path fill="none" stroke="#000000" d="M482.8584,-210.6485C459.5176,-193.8692 479.5171,-130.7 440.5,-130.7"/>
<polygon fill="#000000" stroke="#000000" points="489.3094,-212.4966 496.0085,-218.1608 493.1547,-213.5983 497,-214.7 497,-214.7 497,-214.7 493.1547,-213.5983 497.9915,-211.2392 489.3094,-212.4966 489.3094,-212.4966"/>
<ellipse fill="none" stroke="#000000" cx="486.2332" cy="-211.6153" rx="3.2" ry="3.2"/>
</g>
<!-- resource_server_resource -->
<g id="node3" class="node">
<title>resource_server_resource</title>
<g id="a_node3"><a xlink:href="../../tables/resource_server_resource.html" xlink:title="resource_server_resource" target="_top">
<polygon fill="#ffffff" stroke="transparent" points="277,-362.2 277,-511.2 448,-511.2 448,-362.2 277,-362.2"/>
<polygon fill="#f5f5f5" stroke="transparent" points="277.5,-487.7 277.5,-510.7 448.5,-510.7 448.5,-487.7 277.5,-487.7"/>
<polygon fill="none" stroke="#000000" points="277.5,-487.7 277.5,-510.7 448.5,-510.7 448.5,-487.7 277.5,-487.7"/>
<text text-anchor="start" x="282.3249" y="-496.8" font-family="Helvetica,sans-Serif" font-weight="bold" font-size="11.00" fill="#000000">resource_server_resource</text>
<text text-anchor="start" x="414.0219" y="-495.8" font-family="Helvetica,sans-Serif" font-size="11.00" fill="#000000">[table]</text>
<polygon fill="none" stroke="#000000" points="277.5,-465.7 277.5,-487.7 448.5,-487.7 448.5,-465.7 277.5,-465.7"/>
<image xlink:href="../../images/primaryKeys.png" width="11px" height="12px" preserveAspectRatio="xMinYMin meet" x="282.5" y="-482.7"/>
<text text-anchor="start" x="297.5" y="-472.8" font-family="Helvetica,sans-Serif" font-size="11.00" fill="#000000">id</text>
<polygon fill="#ffffff" stroke="transparent" points="277.5,-443.7 277.5,-465.7 448.5,-465.7 448.5,-443.7 277.5,-443.7"/>
<polygon fill="none" stroke="#000000" points="277.5,-443.7 277.5,-465.7 448.5,-465.7 448.5,-443.7 277.5,-443.7"/>
<text text-anchor="start" x="297.5" y="-450.8" font-family="Helvetica,sans-Serif" font-size="11.00" fill="#000000">name</text>
<polygon fill="#ffffff" stroke="transparent" points="277.5,-421.7 277.5,-443.7 448.5,-443.7 448.5,-421.7 277.5,-421.7"/>
<polygon fill="none" stroke="#000000" points="277.5,-421.7 277.5,-443.7 448.5,-443.7 448.5,-421.7 277.5,-421.7"/>
<text text-anchor="start" x="297.5" y="-428.8" font-family="Helvetica,sans-Serif" font-size="11.00" fill="#000000">owner</text>
<polygon fill="#ffffff" stroke="transparent" points="277.5,-399.7 277.5,-421.7 448.5,-421.7 448.5,-399.7 277.5,-399.7"/>
<polygon fill="none" stroke="#000000" points="277.5,-399.7 277.5,-421.7 448.5,-421.7 448.5,-399.7 277.5,-399.7"/>
<image xlink:href="../../images/foreignKeys.png" width="11px" height="12px" preserveAspectRatio="xMinYMin meet" x="282.5" y="-416.7"/>
<text text-anchor="start" x="297.5" y="-406.8" font-family="Helvetica,sans-Serif" font-size="11.00" fill="#000000">resource_server_id</text>
<polygon fill="none" stroke="#000000" points="277.5,-380.7 277.5,-399.7 448.5,-399.7 448.5,-380.7 277.5,-380.7"/>
<text text-anchor="start" x="280.5" y="-386.8" font-family="Helvetica,sans-Serif" font-size="11.00" fill="#000000">...</text>
<polygon fill="#ffffff" stroke="transparent" points="277.5,-361.7 277.5,-380.7 343.5,-380.7 343.5,-361.7 277.5,-361.7"/>
<polygon fill="none" stroke="#000000" points="277.5,-361.7 277.5,-380.7 343.5,-380.7 343.5,-361.7 277.5,-361.7"/>
<text text-anchor="start" x="280.5" y="-367.8" font-family="Helvetica,sans-Serif" font-size="11.00" fill="#000000">&lt; 1</text>
<polygon fill="#ffffff" stroke="transparent" points="343.5,-361.7 343.5,-380.7 404.5,-380.7 404.5,-361.7 343.5,-361.7"/>
<polygon fill="none" stroke="#000000" points="343.5,-361.7 343.5,-380.7 404.5,-380.7 404.5,-361.7 343.5,-361.7"/>
<text text-anchor="start" x="369.1105" y="-367.8" font-family="Helvetica,sans-Serif" font-size="11.00" fill="#000000">0 rows</text>
<polygon fill="#ffffff" stroke="transparent" points="404.5,-361.7 404.5,-380.7 448.5,-380.7 448.5,-361.7 404.5,-361.7"/>
<polygon fill="none" stroke="#000000" points="404.5,-361.7 404.5,-380.7 448.5,-380.7 448.5,-361.7 404.5,-361.7"/>
<text text-anchor="start" x="429.9053" y="-367.8" font-family="Helvetica,sans-Serif" font-size="11.00" fill="#000000">5 &gt;</text>
</a>
</g>
</g>
<!-- resource_server_perm_ticket&#45;&gt;resource_server_resource -->
<g id="edge2" class="edge">
<title>resource_server_perm_ticket:w&#45;&gt;resource_server_resource:e</title>
<path fill="none" stroke="#000000" d="M482.6528,-282.9012C422.7715,-304.4344 532.6298,-476.7 448.5,-476.7"/>
<polygon fill="#000000" stroke="#000000" points="489.0925,-281.9132 497.546,-284.2584 493.0463,-281.3066 497,-280.7 497,-280.7 497,-280.7 493.0463,-281.3066 496.454,-277.1416 489.0925,-281.9132 489.0925,-281.9132"/>
<ellipse fill="none" stroke="#000000" cx="485.9295" cy="-282.3985" rx="3.2" ry="3.2"/>
</g>
<!-- resource_server -->
<g id="node4" class="node">
<title>resource_server</title>
<g id="a_node4"><a xlink:href="../../tables/resource_server.html" xlink:title="resource_server" target="_top">
<polygon fill="#ffffff" stroke="transparent" points="8,-127.7 8,-261.7 228,-261.7 228,-127.7 8,-127.7"/>
<polygon fill="#f5f5f5" stroke="transparent" points="10,-236.7 10,-259.7 226,-259.7 226,-236.7 10,-236.7"/>
<polygon fill="none" stroke="#000000" points="10,-236.7 10,-259.7 226,-259.7 226,-236.7 10,-236.7"/>
<text text-anchor="start" x="15" y="-245.8" font-family="Helvetica,sans-Serif" font-weight="bold" font-size="11.00" fill="#000000">resource_server</text>
<text text-anchor="start" x="191.0437" y="-244.8" font-family="Helvetica,sans-Serif" font-size="11.00" fill="#000000">[table]</text>
<polygon fill="none" stroke="#000000" points="10,-214.7 10,-236.7 165,-236.7 165,-214.7 10,-214.7"/>
<image xlink:href="../../images/primaryKeys.png" width="11px" height="12px" preserveAspectRatio="xMinYMin meet" x="15" y="-231.7"/>
<text text-anchor="start" x="30" y="-221.8" font-family="Helvetica,sans-Serif" font-size="11.00" fill="#000000">id</text>
<polygon fill="none" stroke="#000000" points="165,-214.7 165,-236.7 226,-236.7 226,-214.7 165,-214.7"/>
<text text-anchor="start" x="167.994" y="-222.4" font-family="Helvetica,sans-Serif" font-size="11.00" fill="#000000">varchar[36]</text>
<polygon fill="none" stroke="#000000" points="10,-192.7 10,-214.7 165,-214.7 165,-192.7 10,-192.7"/>
<text text-anchor="start" x="30" y="-199.8" font-family="Helvetica,sans-Serif" font-size="11.00" fill="#000000">allow_rs_remote_mgmt</text>
<polygon fill="none" stroke="#000000" points="165,-192.7 165,-214.7 226,-214.7 226,-192.7 165,-192.7"/>
<text text-anchor="start" x="168" y="-200.4" font-family="Helvetica,sans-Serif" font-size="11.00" fill="#000000">bool[1]</text>
<polygon fill="none" stroke="#000000" points="10,-170.7 10,-192.7 165,-192.7 165,-170.7 10,-170.7"/>
<text text-anchor="start" x="30" y="-177.8" font-family="Helvetica,sans-Serif" font-size="11.00" fill="#000000">policy_enforce_mode</text>
<polygon fill="none" stroke="#000000" points="165,-170.7 165,-192.7 226,-192.7 226,-170.7 165,-170.7"/>
<text text-anchor="start" x="167.994" y="-178.4" font-family="Helvetica,sans-Serif" font-size="11.00" fill="#000000">varchar[15]</text>
<polygon fill="none" stroke="#000000" points="10,-148.7 10,-170.7 165,-170.7 165,-148.7 10,-148.7"/>
<text text-anchor="start" x="30" y="-155.8" font-family="Helvetica,sans-Serif" font-size="11.00" fill="#000000">decision_strategy</text>
<polygon fill="none" stroke="#000000" points="165,-148.7 165,-170.7 226,-170.7 226,-148.7 165,-148.7"/>
<text text-anchor="start" x="168" y="-156.4" font-family="Helvetica,sans-Serif" font-size="11.00" fill="#000000">int2[5]</text>
<polygon fill="#ffffff" stroke="transparent" points="10,-129.7 10,-148.7 79,-148.7 79,-129.7 10,-129.7"/>
<polygon fill="none" stroke="#000000" points="10,-129.7 10,-148.7 79,-148.7 79,-129.7 10,-129.7"/>
<text text-anchor="start" x="13" y="-135.8" font-family="Helvetica,sans-Serif" font-size="11.00" fill="#000000">&lt; 0</text>
<polygon fill="#ffffff" stroke="transparent" points="79,-129.7 79,-148.7 165,-148.7 165,-129.7 79,-129.7"/>
<polygon fill="none" stroke="#000000" points="79,-129.7 79,-148.7 165,-148.7 165,-129.7 79,-129.7"/>
<text text-anchor="start" x="129.6105" y="-135.8" font-family="Helvetica,sans-Serif" font-size="11.00" fill="#000000">0 rows</text>
<polygon fill="#ffffff" stroke="transparent" points="165,-129.7 165,-148.7 226,-148.7 226,-129.7 165,-129.7"/>
<polygon fill="none" stroke="#000000" points="165,-129.7 165,-148.7 226,-148.7 226,-129.7 165,-129.7"/>
<text text-anchor="start" x="207.4053" y="-135.8" font-family="Helvetica,sans-Serif" font-size="11.00" fill="#000000">4 &gt;</text>
<polygon fill="none" stroke="#000000" stroke-width="2" points="9,-128.7 9,-260.7 227,-260.7 227,-128.7 9,-128.7"/>
</a>
</g>
</g>
<!-- resource_server_perm_ticket&#45;&gt;resource_server -->
<g id="edge3" class="edge">
<title>resource_server_perm_ticket:w&#45;&gt;resource_server:e</title>
<path fill="none" stroke="#000000" d="M483.235,-232.1605C474.1033,-224.5306 472.2013,-209.4101 456,-203.7 377.6149,-176.0733 349.7985,-184.2307 269,-203.7 248.1302,-208.7288 247.4672,-225.7 226,-225.7"/>
<polygon fill="#000000" stroke="#000000" points="489.4025,-234.1944 495.8725,-240.1189 493.2012,-235.4472 497,-236.7 497,-236.7 497,-236.7 493.2012,-235.4472 498.1275,-233.2811 489.4025,-234.1944 489.4025,-234.1944"/>
<ellipse fill="none" stroke="#000000" cx="486.3635" cy="-233.1922" rx="3.2" ry="3.2"/>
</g>
<!-- resource_server_scope -->
<g id="node5" class="node">
<title>resource_server_scope</title>
<g id="a_node5"><a xlink:href="../../tables/resource_server_scope.html" xlink:title="resource_server_scope" target="_top">
<polygon fill="#ffffff" stroke="transparent" points="284,-214.2 284,-341.2 441,-341.2 441,-214.2 284,-214.2"/>
<polygon fill="#f5f5f5" stroke="transparent" points="284.5,-317.7 284.5,-340.7 441.5,-340.7 441.5,-317.7 284.5,-317.7"/>
<polygon fill="none" stroke="#000000" points="284.5,-317.7 284.5,-340.7 441.5,-340.7 441.5,-317.7 284.5,-317.7"/>
<text text-anchor="start" x="289.0443" y="-326.8" font-family="Helvetica,sans-Serif" font-weight="bold" font-size="11.00" fill="#000000">resource_server_scope</text>
<text text-anchor="start" x="407.0219" y="-325.8" font-family="Helvetica,sans-Serif" font-size="11.00" fill="#000000">[table]</text>
<polygon fill="none" stroke="#000000" points="284.5,-295.7 284.5,-317.7 441.5,-317.7 441.5,-295.7 284.5,-295.7"/>
<image xlink:href="../../images/primaryKeys.png" width="11px" height="12px" preserveAspectRatio="xMinYMin meet" x="289.5" y="-312.7"/>
<text text-anchor="start" x="305.5" y="-302.8" font-family="Helvetica,sans-Serif" font-size="11.00" fill="#000000">id</text>
<polygon fill="#ffffff" stroke="transparent" points="284.5,-273.7 284.5,-295.7 441.5,-295.7 441.5,-273.7 284.5,-273.7"/>
<polygon fill="none" stroke="#000000" points="284.5,-273.7 284.5,-295.7 441.5,-295.7 441.5,-273.7 284.5,-273.7"/>
<text text-anchor="start" x="305.5" y="-280.8" font-family="Helvetica,sans-Serif" font-size="11.00" fill="#000000">name</text>
<polygon fill="#ffffff" stroke="transparent" points="284.5,-251.7 284.5,-273.7 441.5,-273.7 441.5,-251.7 284.5,-251.7"/>
<polygon fill="none" stroke="#000000" points="284.5,-251.7 284.5,-273.7 441.5,-273.7 441.5,-251.7 284.5,-251.7"/>
<image xlink:href="../../images/foreignKeys.png" width="11px" height="12px" preserveAspectRatio="xMinYMin meet" x="289.5" y="-268.7"/>
<text text-anchor="start" x="305.5" y="-258.8" font-family="Helvetica,sans-Serif" font-size="11.00" fill="#000000">resource_server_id</text>
<polygon fill="none" stroke="#000000" points="284.5,-232.7 284.5,-251.7 441.5,-251.7 441.5,-232.7 284.5,-232.7"/>
<text text-anchor="start" x="287.5" y="-238.8" font-family="Helvetica,sans-Serif" font-size="11.00" fill="#000000">...</text>
<polygon fill="#ffffff" stroke="transparent" points="284.5,-213.7 284.5,-232.7 343.5,-232.7 343.5,-213.7 284.5,-213.7"/>
<polygon fill="none" stroke="#000000" points="284.5,-213.7 284.5,-232.7 343.5,-232.7 343.5,-213.7 284.5,-213.7"/>
<text text-anchor="start" x="287.5" y="-219.8" font-family="Helvetica,sans-Serif" font-size="11.00" fill="#000000">&lt; 1</text>
<polygon fill="#ffffff" stroke="transparent" points="343.5,-213.7 343.5,-232.7 400.5,-232.7 400.5,-213.7 343.5,-213.7"/>
<polygon fill="none" stroke="#000000" points="343.5,-213.7 343.5,-232.7 400.5,-232.7 400.5,-213.7 343.5,-213.7"/>
<text text-anchor="start" x="365.1105" y="-219.8" font-family="Helvetica,sans-Serif" font-size="11.00" fill="#000000">0 rows</text>
<polygon fill="#ffffff" stroke="transparent" points="400.5,-213.7 400.5,-232.7 441.5,-232.7 441.5,-213.7 400.5,-213.7"/>
<polygon fill="none" stroke="#000000" points="400.5,-213.7 400.5,-232.7 441.5,-232.7 441.5,-213.7 400.5,-213.7"/>
<text text-anchor="start" x="422.9053" y="-219.8" font-family="Helvetica,sans-Serif" font-size="11.00" fill="#000000">3 &gt;</text>
</a>
</g>
</g>
<!-- resource_server_perm_ticket&#45;&gt;resource_server_scope -->
<g id="edge4" class="edge">
<title>resource_server_perm_ticket:w&#45;&gt;resource_server_scope:e</title>
<path fill="none" stroke="#000000" d="M483.0296,-262.7925C466.5156,-274.4002 468.2522,-306.7 441.5,-306.7"/>
<polygon fill="#000000" stroke="#000000" points="489.3226,-260.949 498.0121,-262.1548 493.1613,-259.8245 497,-258.7 497,-258.7 497,-258.7 493.1613,-259.8245 495.9879,-255.2452 489.3226,-260.949 489.3226,-260.949"/>
<ellipse fill="none" stroke="#000000" cx="486.2517" cy="-261.8486" rx="3.2" ry="3.2"/>
</g>
<!-- resource_server_policy&#45;&gt;resource_server -->
<g id="edge5" class="edge">
<title>resource_server_policy:w&#45;&gt;resource_server:e</title>
<path fill="none" stroke="#000000" d="M270.1978,-89.6032C229.4065,-109.5641 287.266,-225.7 226,-225.7"/>
<polygon fill="#000000" stroke="#000000" points="276.6599,-88.2915 285.2162,-90.228 280.5799,-87.4958 284.5,-86.7 284.5,-86.7 284.5,-86.7 280.5799,-87.4958 283.7838,-83.172 276.6599,-88.2915 276.6599,-88.2915"/>
<ellipse fill="none" stroke="#000000" cx="273.5239" cy="-88.9281" rx="3.2" ry="3.2"/>
</g>
<!-- resource_server_resource&#45;&gt;resource_server -->
<g id="edge6" class="edge">
<title>resource_server_resource:w&#45;&gt;resource_server:e</title>
<path fill="none" stroke="#000000" d="M263.0832,-408.3609C207.0802,-386.9455 305.681,-225.7 226,-225.7"/>
<polygon fill="#000000" stroke="#000000" points="269.6033,-409.4187 276.9234,-414.2535 273.5516,-410.0594 277.5,-410.7 277.5,-410.7 277.5,-410.7 273.5516,-410.0594 278.0766,-407.1465 269.6033,-409.4187 269.6033,-409.4187"/>
<ellipse fill="none" stroke="#000000" cx="266.4446" cy="-408.9062" rx="3.2" ry="3.2"/>
</g>
<!-- resource_server_scope&#45;&gt;resource_server -->
<g id="edge7" class="edge">
<title>resource_server_scope:w&#45;&gt;resource_server:e</title>
<path fill="none" stroke="#000000" d="M270.3138,-259.2854C253.6835,-250.1258 250.9957,-225.7 226,-225.7"/>
<polygon fill="#000000" stroke="#000000" points="276.7221,-260.8279 283.6575,-266.2 280.6111,-261.7639 284.5,-262.7 284.5,-262.7 284.5,-262.7 280.6111,-261.7639 285.3425,-259.2 276.7221,-260.8279 276.7221,-260.8279"/>
<ellipse fill="none" stroke="#000000" cx="273.611" cy="-260.079" rx="3.2" ry="3.2"/>
</g>
</g>
</svg>
