<?xml version="1.0" encoding="UTF-8" standalone="no"?>
<!DOCTYPE svg PUBLIC "-//W3C//DTD SVG 1.1//EN"
 "http://www.w3.org/Graphics/SVG/1.1/DTD/svg11.dtd">
<!-- Generated by graphviz version 2.40.1 (20161225.0304)
 -->
<!-- Title: twoDegreesRelationshipsDiagram Pages: 1 -->
<svg width="707pt" height="714pt"
 viewBox="0.00 0.00 707.00 714.20" xmlns="http://www.w3.org/2000/svg" xmlns:xlink="http://www.w3.org/1999/xlink">
<g id="graph0" class="graph" transform="scale(1 1) rotate(0) translate(4 710.2)">
<title>twoDegreesRelationshipsDiagram</title>
<polygon fill="#ffffff" stroke="transparent" points="-4,4 -4,-710.2 703,-710.2 703,4 -4,4"/>
<text text-anchor="middle" x="72.4936" y="-7.3" font-family="Helvetica,sans-Serif" font-size="11.00" fill="#000000">Generated by SchemaSpy</text>
<!-- resource_attribute -->
<g id="node1" class="node">
<title>resource_attribute</title>
<g id="a_node1"><a xlink:href="../../tables/resource_attribute.html" xlink:title="resource_attribute" target="_top">
<polygon fill="#ffffff" stroke="transparent" points="531.5,-489.7 531.5,-594.7 662.5,-594.7 662.5,-489.7 531.5,-489.7"/>
<polygon fill="#f5f5f5" stroke="transparent" points="532,-571.2 532,-594.2 663,-594.2 663,-571.2 532,-571.2"/>
<polygon fill="none" stroke="#000000" points="532,-571.2 532,-594.2 663,-594.2 663,-571.2 532,-571.2"/>
<text text-anchor="start" x="536.6843" y="-580.3" font-family="Helvetica,sans-Serif" font-weight="bold" font-size="11.00" fill="#000000">resource_attribute</text>
<text text-anchor="start" x="628.5219" y="-579.3" font-family="Helvetica,sans-Serif" font-size="11.00" fill="#000000">[table]</text>
<polygon fill="none" stroke="#000000" points="532,-549.2 532,-571.2 663,-571.2 663,-549.2 532,-549.2"/>
<image xlink:href="../../images/primaryKeys.png" width="11px" height="12px" preserveAspectRatio="xMinYMin meet" x="537" y="-566.2"/>
<text text-anchor="start" x="555" y="-556.3" font-family="Helvetica,sans-Serif" font-size="11.00" fill="#000000">id</text>
<polygon fill="none" stroke="#000000" points="532,-527.2 532,-549.2 663,-549.2 663,-527.2 532,-527.2"/>
<image xlink:href="../../images/foreignKeys.png" width="11px" height="12px" preserveAspectRatio="xMinYMin meet" x="537" y="-544.2"/>
<text text-anchor="start" x="555" y="-534.3" font-family="Helvetica,sans-Serif" font-size="11.00" fill="#000000">resource_id</text>
<polygon fill="none" stroke="#000000" points="532,-508.2 532,-527.2 663,-527.2 663,-508.2 532,-508.2"/>
<text text-anchor="start" x="535" y="-514.3" font-family="Helvetica,sans-Serif" font-size="11.00" fill="#000000">...</text>
<polygon fill="#ffffff" stroke="transparent" points="532,-489.2 532,-508.2 583,-508.2 583,-489.2 532,-489.2"/>
<polygon fill="none" stroke="#000000" points="532,-489.2 532,-508.2 583,-508.2 583,-489.2 532,-489.2"/>
<text text-anchor="start" x="535" y="-495.3" font-family="Helvetica,sans-Serif" font-size="11.00" fill="#000000">&lt; 1</text>
<polygon fill="#ffffff" stroke="transparent" points="583,-489.2 583,-508.2 636,-508.2 636,-489.2 583,-489.2"/>
<polygon fill="none" stroke="#000000" points="583,-489.2 583,-508.2 636,-508.2 636,-489.2 583,-489.2"/>
<text text-anchor="start" x="600.6105" y="-495.3" font-family="Helvetica,sans-Serif" font-size="11.00" fill="#000000">0 rows</text>
<polygon fill="#ffffff" stroke="transparent" points="636,-489.2 636,-508.2 663,-508.2 663,-489.2 636,-489.2"/>
<polygon fill="none" stroke="#000000" points="636,-489.2 636,-508.2 663,-508.2 663,-489.2 636,-489.2"/>
<text text-anchor="start" x="653.8862" y="-495.3" font-family="Helvetica,sans-Serif" font-size="11.00" fill="#000000"> &#160;</text>
</a>
</g>
</g>
<!-- resource_server_resource -->
<g id="node2" class="node">
<title>resource_server_resource</title>
<g id="a_node2"><a xlink:href="../../tables/resource_server_resource.html" xlink:title="resource_server_resource" target="_top">
<polygon fill="#ffffff" stroke="transparent" points="212,-308.2 212,-530.2 454,-530.2 454,-308.2 212,-308.2"/>
<polygon fill="#f5f5f5" stroke="transparent" points="214,-505.2 214,-528.2 452,-528.2 452,-505.2 214,-505.2"/>
<polygon fill="none" stroke="#000000" points="214,-505.2 214,-528.2 452,-528.2 452,-505.2 214,-505.2"/>
<text text-anchor="start" x="219" y="-514.3" font-family="Helvetica,sans-Serif" font-weight="bold" font-size="11.00" fill="#000000">resource_server_resource</text>
<text text-anchor="start" x="417.0437" y="-513.3" font-family="Helvetica,sans-Serif" font-size="11.00" fill="#000000">[table]</text>
<polygon fill="none" stroke="#000000" points="214,-483.2 214,-505.2 385,-505.2 385,-483.2 214,-483.2"/>
<image xlink:href="../../images/primaryKeys.png" width="11px" height="12px" preserveAspectRatio="xMinYMin meet" x="219" y="-500.2"/>
<text text-anchor="start" x="234" y="-490.3" font-family="Helvetica,sans-Serif" font-size="11.00" fill="#000000">id</text>
<polygon fill="none" stroke="#000000" points="385,-483.2 385,-505.2 452,-505.2 452,-483.2 385,-483.2"/>
<text text-anchor="start" x="388" y="-490.9" font-family="Helvetica,sans-Serif" font-size="11.00" fill="#000000">varchar[36]</text>
<polygon fill="#ffffff" stroke="transparent" points="214,-461.2 214,-483.2 385,-483.2 385,-461.2 214,-461.2"/>
<polygon fill="none" stroke="#000000" points="214,-461.2 214,-483.2 385,-483.2 385,-461.2 214,-461.2"/>
<text text-anchor="start" x="234" y="-468.3" font-family="Helvetica,sans-Serif" font-size="11.00" fill="#000000">name</text>
<polygon fill="none" stroke="#000000" points="385,-461.2 385,-483.2 452,-483.2 452,-461.2 385,-461.2"/>
<text text-anchor="start" x="387.9365" y="-468.9" font-family="Helvetica,sans-Serif" font-size="11.00" fill="#000000">varchar[255]</text>
<polygon fill="none" stroke="#000000" points="214,-439.2 214,-461.2 385,-461.2 385,-439.2 214,-439.2"/>
<text text-anchor="start" x="234" y="-446.3" font-family="Helvetica,sans-Serif" font-size="11.00" fill="#000000">type</text>
<polygon fill="none" stroke="#000000" points="385,-439.2 385,-461.2 452,-461.2 452,-439.2 385,-439.2"/>
<text text-anchor="start" x="387.9365" y="-446.9" font-family="Helvetica,sans-Serif" font-size="11.00" fill="#000000">varchar[255]</text>
<polygon fill="none" stroke="#000000" points="214,-417.2 214,-439.2 385,-439.2 385,-417.2 214,-417.2"/>
<text text-anchor="start" x="234" y="-424.3" font-family="Helvetica,sans-Serif" font-size="11.00" fill="#000000">icon_uri</text>
<polygon fill="none" stroke="#000000" points="385,-417.2 385,-439.2 452,-439.2 452,-417.2 385,-417.2"/>
<text text-anchor="start" x="387.9365" y="-424.9" font-family="Helvetica,sans-Serif" font-size="11.00" fill="#000000">varchar[255]</text>
<polygon fill="#ffffff" stroke="transparent" points="214,-395.2 214,-417.2 385,-417.2 385,-395.2 214,-395.2"/>
<polygon fill="none" stroke="#000000" points="214,-395.2 214,-417.2 385,-417.2 385,-395.2 214,-395.2"/>
<text text-anchor="start" x="234" y="-402.3" font-family="Helvetica,sans-Serif" font-size="11.00" fill="#000000">owner</text>
<polygon fill="none" stroke="#000000" points="385,-395.2 385,-417.2 452,-417.2 452,-395.2 385,-395.2"/>
<text text-anchor="start" x="387.9365" y="-402.9" font-family="Helvetica,sans-Serif" font-size="11.00" fill="#000000">varchar[255]</text>
<polygon fill="#ffffff" stroke="transparent" points="214,-373.2 214,-395.2 385,-395.2 385,-373.2 214,-373.2"/>
<polygon fill="none" stroke="#000000" points="214,-373.2 214,-395.2 385,-395.2 385,-373.2 214,-373.2"/>
<image xlink:href="../../images/foreignKeys.png" width="11px" height="12px" preserveAspectRatio="xMinYMin meet" x="219" y="-390.2"/>
<text text-anchor="start" x="234" y="-380.3" font-family="Helvetica,sans-Serif" font-size="11.00" fill="#000000">resource_server_id</text>
<polygon fill="none" stroke="#000000" points="385,-373.2 385,-395.2 452,-395.2 452,-373.2 385,-373.2"/>
<text text-anchor="start" x="388" y="-380.9" font-family="Helvetica,sans-Serif" font-size="11.00" fill="#000000">varchar[36]</text>
<polygon fill="none" stroke="#000000" points="214,-351.2 214,-373.2 385,-373.2 385,-351.2 214,-351.2"/>
<text text-anchor="start" x="234" y="-358.3" font-family="Helvetica,sans-Serif" font-size="11.00" fill="#000000">owner_managed_access</text>
<polygon fill="none" stroke="#000000" points="385,-351.2 385,-373.2 452,-373.2 452,-351.2 385,-351.2"/>
<text text-anchor="start" x="388" y="-358.9" font-family="Helvetica,sans-Serif" font-size="11.00" fill="#000000">bool[1]</text>
<polygon fill="none" stroke="#000000" points="214,-329.2 214,-351.2 385,-351.2 385,-329.2 214,-329.2"/>
<text text-anchor="start" x="234" y="-336.3" font-family="Helvetica,sans-Serif" font-size="11.00" fill="#000000">display_name</text>
<polygon fill="none" stroke="#000000" points="385,-329.2 385,-351.2 452,-351.2 452,-329.2 385,-329.2"/>
<text text-anchor="start" x="387.9365" y="-336.9" font-family="Helvetica,sans-Serif" font-size="11.00" fill="#000000">varchar[255]</text>
<polygon fill="#ffffff" stroke="transparent" points="214,-310.2 214,-329.2 291,-329.2 291,-310.2 214,-310.2"/>
<polygon fill="none" stroke="#000000" points="214,-310.2 214,-329.2 291,-329.2 291,-310.2 214,-310.2"/>
<text text-anchor="start" x="217" y="-316.3" font-family="Helvetica,sans-Serif" font-size="11.00" fill="#000000">&lt; 1</text>
<polygon fill="#ffffff" stroke="transparent" points="291,-310.2 291,-329.2 385,-329.2 385,-310.2 291,-310.2"/>
<polygon fill="none" stroke="#000000" points="291,-310.2 291,-329.2 385,-329.2 385,-310.2 291,-310.2"/>
<text text-anchor="start" x="349.6105" y="-316.3" font-family="Helvetica,sans-Serif" font-size="11.00" fill="#000000">0 rows</text>
<polygon fill="#ffffff" stroke="transparent" points="385,-310.2 385,-329.2 452,-329.2 452,-310.2 385,-310.2"/>
<polygon fill="none" stroke="#000000" points="385,-310.2 385,-329.2 452,-329.2 452,-310.2 385,-310.2"/>
<text text-anchor="start" x="433.4053" y="-316.3" font-family="Helvetica,sans-Serif" font-size="11.00" fill="#000000">5 &gt;</text>
<polygon fill="none" stroke="#000000" stroke-width="2" points="213,-309.2 213,-529.2 453,-529.2 453,-309.2 213,-309.2"/>
</a>
</g>
</g>
<!-- resource_attribute&#45;&gt;resource_server_resource -->
<g id="edge1" class="edge">
<title>resource_attribute:w&#45;&gt;resource_server_resource:e</title>
<path fill="none" stroke="#000000" d="M517.4835,-535.9575C490.9577,-526.9912 487.0307,-494.2 452,-494.2"/>
<polygon fill="#000000" stroke="#000000" points="524.0938,-536.9786 531.4504,-541.7578 528.0469,-537.5893 532,-538.2 532,-538.2 532,-538.2 528.0469,-537.5893 532.5496,-534.6422 524.0938,-536.9786 524.0938,-536.9786"/>
<ellipse fill="none" stroke="#000000" cx="520.9313" cy="-536.4901" rx="3.2" ry="3.2"/>
</g>
<!-- resource_server -->
<g id="node8" class="node">
<title>resource_server</title>
<g id="a_node8"><a xlink:href="../../tables/resource_server.html" xlink:title="resource_server" target="_top">
<polygon fill="#ffffff" stroke="transparent" points="8,-178.7 8,-261.7 163,-261.7 163,-178.7 8,-178.7"/>
<polygon fill="#f5f5f5" stroke="transparent" points="8.5,-238.2 8.5,-261.2 163.5,-261.2 163.5,-238.2 8.5,-238.2"/>
<polygon fill="none" stroke="#000000" points="8.5,-238.2 8.5,-261.2 163.5,-261.2 163.5,-238.2 8.5,-238.2"/>
<text text-anchor="start" x="13.5" y="-247.3" font-family="Helvetica,sans-Serif" font-weight="bold" font-size="11.00" fill="#000000">resource_server</text>
<text text-anchor="start" x="128.5437" y="-246.3" font-family="Helvetica,sans-Serif" font-size="11.00" fill="#000000">[table]</text>
<polygon fill="none" stroke="#000000" points="8.5,-216.2 8.5,-238.2 163.5,-238.2 163.5,-216.2 8.5,-216.2"/>
<image xlink:href="../../images/primaryKeys.png" width="11px" height="12px" preserveAspectRatio="xMinYMin meet" x="13.5" y="-233.2"/>
<text text-anchor="start" x="28.5" y="-223.3" font-family="Helvetica,sans-Serif" font-size="11.00" fill="#000000">id</text>
<polygon fill="none" stroke="#000000" points="8.5,-197.2 8.5,-216.2 163.5,-216.2 163.5,-197.2 8.5,-197.2"/>
<text text-anchor="start" x="11.5" y="-203.3" font-family="Helvetica,sans-Serif" font-size="11.00" fill="#000000">...</text>
<polygon fill="#ffffff" stroke="transparent" points="8.5,-178.2 8.5,-197.2 62.5,-197.2 62.5,-178.2 8.5,-178.2"/>
<polygon fill="none" stroke="#000000" points="8.5,-178.2 8.5,-197.2 62.5,-197.2 62.5,-178.2 8.5,-178.2"/>
<text text-anchor="start" x="11.5" y="-184.3" font-family="Helvetica,sans-Serif" font-size="11.00" fill="#000000"> &#160;</text>
<polygon fill="#ffffff" stroke="transparent" points="62.5,-178.2 62.5,-197.2 121.5,-197.2 121.5,-178.2 62.5,-178.2"/>
<polygon fill="none" stroke="#000000" points="62.5,-178.2 62.5,-197.2 121.5,-197.2 121.5,-178.2 62.5,-178.2"/>
<text text-anchor="start" x="86.1105" y="-184.3" font-family="Helvetica,sans-Serif" font-size="11.00" fill="#000000">0 rows</text>
<polygon fill="#ffffff" stroke="transparent" points="121.5,-178.2 121.5,-197.2 163.5,-197.2 163.5,-178.2 121.5,-178.2"/>
<polygon fill="none" stroke="#000000" points="121.5,-178.2 121.5,-197.2 163.5,-197.2 163.5,-178.2 121.5,-178.2"/>
<text text-anchor="start" x="144.9053" y="-184.3" font-family="Helvetica,sans-Serif" font-size="11.00" fill="#000000">4 &gt;</text>
</a>
</g>
</g>
<!-- resource_server_resource&#45;&gt;resource_server -->
<g id="edge11" class="edge">
<title>resource_server_resource:w&#45;&gt;resource_server:e</title>
<path fill="none" stroke="#000000" d="M199.7608,-381.475C154.6826,-360.627 231.0722,-227.2 163.5,-227.2"/>
<polygon fill="#000000" stroke="#000000" points="206.1426,-382.6962 213.3233,-387.7358 210.0713,-383.4481 214,-384.2 214,-384.2 214,-384.2 210.0713,-383.4481 214.6767,-380.6642 206.1426,-382.6962 206.1426,-382.6962"/>
<ellipse fill="none" stroke="#000000" cx="202.9996" cy="-382.0947" rx="3.2" ry="3.2"/>
</g>
<!-- resource_policy -->
<g id="node3" class="node">
<title>resource_policy</title>
<g id="a_node3"><a xlink:href="../../tables/resource_policy.html" xlink:title="resource_policy" target="_top">
<polygon fill="#ffffff" stroke="transparent" points="537,-38.2 537,-124.2 657,-124.2 657,-38.2 537,-38.2"/>
<polygon fill="#f5f5f5" stroke="transparent" points="537,-101.2 537,-124.2 657,-124.2 657,-101.2 537,-101.2"/>
<polygon fill="none" stroke="#000000" points="537,-101.2 537,-124.2 657,-124.2 657,-101.2 537,-101.2"/>
<text text-anchor="start" x="541.9951" y="-110.3" font-family="Helvetica,sans-Serif" font-weight="bold" font-size="11.00" fill="#000000">resource_policy</text>
<text text-anchor="start" x="622.5219" y="-109.3" font-family="Helvetica,sans-Serif" font-size="11.00" fill="#000000">[table]</text>
<polygon fill="none" stroke="#000000" points="537,-79.2 537,-101.2 657,-101.2 657,-79.2 537,-79.2"/>
<image xlink:href="../../images/primaryKeys.png" width="11px" height="12px" preserveAspectRatio="xMinYMin meet" x="542" y="-96.2"/>
<text text-anchor="start" x="561" y="-86.3" font-family="Helvetica,sans-Serif" font-size="11.00" fill="#000000">resource_id</text>
<polygon fill="none" stroke="#000000" points="537,-57.2 537,-79.2 657,-79.2 657,-57.2 537,-57.2"/>
<image xlink:href="../../images/primaryKeys.png" width="11px" height="12px" preserveAspectRatio="xMinYMin meet" x="542" y="-74.2"/>
<text text-anchor="start" x="561" y="-64.3" font-family="Helvetica,sans-Serif" font-size="11.00" fill="#000000">policy_id</text>
<polygon fill="#ffffff" stroke="transparent" points="537,-38.2 537,-57.2 582,-57.2 582,-38.2 537,-38.2"/>
<polygon fill="none" stroke="#000000" points="537,-38.2 537,-57.2 582,-57.2 582,-38.2 537,-38.2"/>
<text text-anchor="start" x="540" y="-44.3" font-family="Helvetica,sans-Serif" font-size="11.00" fill="#000000">&lt; 2</text>
<polygon fill="#ffffff" stroke="transparent" points="582,-38.2 582,-57.2 632,-57.2 632,-38.2 582,-38.2"/>
<polygon fill="none" stroke="#000000" points="582,-38.2 582,-57.2 632,-57.2 632,-38.2 582,-38.2"/>
<text text-anchor="start" x="596.6105" y="-44.3" font-family="Helvetica,sans-Serif" font-size="11.00" fill="#000000">0 rows</text>
<polygon fill="#ffffff" stroke="transparent" points="632,-38.2 632,-57.2 657,-57.2 657,-38.2 632,-38.2"/>
<polygon fill="none" stroke="#000000" points="632,-38.2 632,-57.2 657,-57.2 657,-38.2 632,-38.2"/>
<text text-anchor="start" x="647.8862" y="-44.3" font-family="Helvetica,sans-Serif" font-size="11.00" fill="#000000"> &#160;</text>
</a>
</g>
</g>
<!-- resource_policy&#45;&gt;resource_server_resource -->
<g id="edge3" class="edge">
<title>resource_policy:w&#45;&gt;resource_server_resource:e</title>
<path fill="none" stroke="#000000" d="M522.6176,-92.749C507.9549,-98.9235 504.0983,-115.6241 495,-135.2 461.1355,-208.0629 532.348,-494.2 452,-494.2"/>
<polygon fill="#000000" stroke="#000000" points="529.1228,-91.5961 537.6283,-93.7448 533.0614,-90.8981 537,-90.2 537,-90.2 537,-90.2 533.0614,-90.8981 536.3717,-86.6552 529.1228,-91.5961 529.1228,-91.5961"/>
<ellipse fill="none" stroke="#000000" cx="525.9719" cy="-92.1546" rx="3.2" ry="3.2"/>
</g>
<!-- resource_server_policy -->
<g id="node4" class="node">
<title>resource_server_policy</title>
<g id="a_node4"><a xlink:href="../../tables/resource_server_policy.html" xlink:title="resource_server_policy" target="_top">
<polygon fill="#ffffff" stroke="transparent" points="255,-115.7 255,-176.7 411,-176.7 411,-115.7 255,-115.7"/>
<polygon fill="#f5f5f5" stroke="transparent" points="255,-153.2 255,-176.2 411,-176.2 411,-153.2 255,-153.2"/>
<polygon fill="none" stroke="#000000" points="255,-153.2 255,-176.2 411,-176.2 411,-153.2 255,-153.2"/>
<text text-anchor="start" x="259.6608" y="-162.3" font-family="Helvetica,sans-Serif" font-weight="bold" font-size="11.00" fill="#000000">resource_server_policy</text>
<text text-anchor="start" x="376.5219" y="-161.3" font-family="Helvetica,sans-Serif" font-size="11.00" fill="#000000">[table]</text>
<polygon fill="none" stroke="#000000" points="255,-134.2 255,-153.2 411,-153.2 411,-134.2 255,-134.2"/>
<text text-anchor="start" x="258" y="-140.3" font-family="Helvetica,sans-Serif" font-size="11.00" fill="#000000">...</text>
<polygon fill="#ffffff" stroke="transparent" points="255,-115.2 255,-134.2 314,-134.2 314,-115.2 255,-115.2"/>
<polygon fill="none" stroke="#000000" points="255,-115.2 255,-134.2 314,-134.2 314,-115.2 255,-115.2"/>
<text text-anchor="start" x="258" y="-121.3" font-family="Helvetica,sans-Serif" font-size="11.00" fill="#000000">&lt; 1</text>
<polygon fill="#ffffff" stroke="transparent" points="314,-115.2 314,-134.2 371,-134.2 371,-115.2 314,-115.2"/>
<polygon fill="none" stroke="#000000" points="314,-115.2 314,-134.2 371,-134.2 371,-115.2 314,-115.2"/>
<text text-anchor="start" x="335.6105" y="-121.3" font-family="Helvetica,sans-Serif" font-size="11.00" fill="#000000">0 rows</text>
<polygon fill="#ffffff" stroke="transparent" points="371,-115.2 371,-134.2 411,-134.2 411,-115.2 371,-115.2"/>
<polygon fill="none" stroke="#000000" points="371,-115.2 371,-134.2 411,-134.2 411,-115.2 371,-115.2"/>
<text text-anchor="start" x="392.4053" y="-121.3" font-family="Helvetica,sans-Serif" font-size="11.00" fill="#000000">6 &gt;</text>
</a>
</g>
</g>
<!-- resource_policy&#45;&gt;resource_server_policy -->
<g id="edge2" class="edge">
<title>resource_policy:w&#45;&gt;resource_server_policy:e</title>
<path fill="none" stroke="#000000" d="M522.6098,-69.5658C472.0794,-79.7308 470.9512,-143.2 411,-143.2"/>
<polygon fill="#000000" stroke="#000000" points="529.0358,-68.9559 537.3402,-71.7839 533.0179,-68.578 537,-68.2 537,-68.2 537,-68.2 533.0179,-68.578 536.6598,-64.6161 529.0358,-68.9559 529.0358,-68.9559"/>
<ellipse fill="none" stroke="#000000" cx="525.8501" cy="-69.2583" rx="3.2" ry="3.2"/>
</g>
<!-- resource_server_policy&#45;&gt;resource_server -->
<g id="edge10" class="edge">
<title>resource_server_policy:w&#45;&gt;resource_server:e</title>
<path fill="none" stroke="#000000" d="M242.6137,-150.952C218.9984,-171.7469 174.7134,-227.2 163.5,-227.2"/>
<polygon fill="#000000" stroke="#000000" points="248.2186,-147.4442 256.9099,-146.2516 251.6093,-145.3221 255,-143.2 255,-143.2 255,-143.2 251.6093,-145.3221 253.0901,-140.1484 248.2186,-147.4442 248.2186,-147.4442"/>
<ellipse fill="none" stroke="#000000" cx="245.506" cy="-149.1418" rx="3.2" ry="3.2"/>
</g>
<!-- resource_scope -->
<g id="node5" class="node">
<title>resource_scope</title>
<g id="a_node5"><a xlink:href="../../tables/resource_scope.html" xlink:title="resource_scope" target="_top">
<polygon fill="#ffffff" stroke="transparent" points="536.5,-382.2 536.5,-468.2 657.5,-468.2 657.5,-382.2 536.5,-382.2"/>
<polygon fill="#f5f5f5" stroke="transparent" points="537,-445.2 537,-468.2 658,-468.2 658,-445.2 537,-445.2"/>
<polygon fill="none" stroke="#000000" points="537,-445.2 537,-468.2 658,-468.2 658,-445.2 537,-445.2"/>
<text text-anchor="start" x="541.8785" y="-454.3" font-family="Helvetica,sans-Serif" font-weight="bold" font-size="11.00" fill="#000000">resource_scope</text>
<text text-anchor="start" x="623.5219" y="-453.3" font-family="Helvetica,sans-Serif" font-size="11.00" fill="#000000">[table]</text>
<polygon fill="none" stroke="#000000" points="537,-423.2 537,-445.2 658,-445.2 658,-423.2 537,-423.2"/>
<image xlink:href="../../images/primaryKeys.png" width="11px" height="12px" preserveAspectRatio="xMinYMin meet" x="542" y="-440.2"/>
<text text-anchor="start" x="561" y="-430.3" font-family="Helvetica,sans-Serif" font-size="11.00" fill="#000000">resource_id</text>
<polygon fill="none" stroke="#000000" points="537,-401.2 537,-423.2 658,-423.2 658,-401.2 537,-401.2"/>
<image xlink:href="../../images/primaryKeys.png" width="11px" height="12px" preserveAspectRatio="xMinYMin meet" x="542" y="-418.2"/>
<text text-anchor="start" x="561" y="-408.3" font-family="Helvetica,sans-Serif" font-size="11.00" fill="#000000">scope_id</text>
<polygon fill="#ffffff" stroke="transparent" points="537,-382.2 537,-401.2 583,-401.2 583,-382.2 537,-382.2"/>
<polygon fill="none" stroke="#000000" points="537,-382.2 537,-401.2 583,-401.2 583,-382.2 537,-382.2"/>
<text text-anchor="start" x="540" y="-388.3" font-family="Helvetica,sans-Serif" font-size="11.00" fill="#000000">&lt; 2</text>
<polygon fill="#ffffff" stroke="transparent" points="583,-382.2 583,-401.2 633,-401.2 633,-382.2 583,-382.2"/>
<polygon fill="none" stroke="#000000" points="583,-382.2 583,-401.2 633,-401.2 633,-382.2 583,-382.2"/>
<text text-anchor="start" x="597.6105" y="-388.3" font-family="Helvetica,sans-Serif" font-size="11.00" fill="#000000">0 rows</text>
<polygon fill="#ffffff" stroke="transparent" points="633,-382.2 633,-401.2 658,-401.2 658,-382.2 633,-382.2"/>
<polygon fill="none" stroke="#000000" points="633,-382.2 633,-401.2 658,-401.2 658,-382.2 633,-382.2"/>
<text text-anchor="start" x="648.8862" y="-388.3" font-family="Helvetica,sans-Serif" font-size="11.00" fill="#000000"> &#160;</text>
</a>
</g>
</g>
<!-- resource_scope&#45;&gt;resource_server_resource -->
<g id="edge4" class="edge">
<title>resource_scope:w&#45;&gt;resource_server_resource:e</title>
<path fill="none" stroke="#000000" d="M522.3739,-436.6264C491.783,-447.8514 492.6419,-494.2 452,-494.2"/>
<polygon fill="#000000" stroke="#000000" points="529.1079,-435.5093 537.5892,-437.7515 533.0539,-434.8547 537,-434.2 537,-434.2 537,-434.2 533.0539,-434.8547 536.4108,-430.6485 529.1079,-435.5093 529.1079,-435.5093"/>
<ellipse fill="none" stroke="#000000" cx="525.951" cy="-436.033" rx="3.2" ry="3.2"/>
</g>
<!-- resource_server_scope -->
<g id="node6" class="node">
<title>resource_server_scope</title>
<g id="a_node6"><a xlink:href="../../tables/resource_server_scope.html" xlink:title="resource_server_scope" target="_top">
<polygon fill="#ffffff" stroke="transparent" points="254.5,-225.7 254.5,-286.7 411.5,-286.7 411.5,-225.7 254.5,-225.7"/>
<polygon fill="#f5f5f5" stroke="transparent" points="255,-263.2 255,-286.2 412,-286.2 412,-263.2 255,-263.2"/>
<polygon fill="none" stroke="#000000" points="255,-263.2 255,-286.2 412,-286.2 412,-263.2 255,-263.2"/>
<text text-anchor="start" x="259.5443" y="-272.3" font-family="Helvetica,sans-Serif" font-weight="bold" font-size="11.00" fill="#000000">resource_server_scope</text>
<text text-anchor="start" x="377.5219" y="-271.3" font-family="Helvetica,sans-Serif" font-size="11.00" fill="#000000">[table]</text>
<polygon fill="none" stroke="#000000" points="255,-244.2 255,-263.2 412,-263.2 412,-244.2 255,-244.2"/>
<text text-anchor="start" x="258" y="-250.3" font-family="Helvetica,sans-Serif" font-size="11.00" fill="#000000">...</text>
<polygon fill="#ffffff" stroke="transparent" points="255,-225.2 255,-244.2 314,-244.2 314,-225.2 255,-225.2"/>
<polygon fill="none" stroke="#000000" points="255,-225.2 255,-244.2 314,-244.2 314,-225.2 255,-225.2"/>
<text text-anchor="start" x="258" y="-231.3" font-family="Helvetica,sans-Serif" font-size="11.00" fill="#000000">&lt; 1</text>
<polygon fill="#ffffff" stroke="transparent" points="314,-225.2 314,-244.2 371,-244.2 371,-225.2 314,-225.2"/>
<polygon fill="none" stroke="#000000" points="314,-225.2 314,-244.2 371,-244.2 371,-225.2 314,-225.2"/>
<text text-anchor="start" x="335.6105" y="-231.3" font-family="Helvetica,sans-Serif" font-size="11.00" fill="#000000">0 rows</text>
<polygon fill="#ffffff" stroke="transparent" points="371,-225.2 371,-244.2 412,-244.2 412,-225.2 371,-225.2"/>
<polygon fill="none" stroke="#000000" points="371,-225.2 371,-244.2 412,-244.2 412,-225.2 371,-225.2"/>
<text text-anchor="start" x="393.4053" y="-231.3" font-family="Helvetica,sans-Serif" font-size="11.00" fill="#000000">3 &gt;</text>
</a>
</g>
</g>
<!-- resource_scope&#45;&gt;resource_server_scope -->
<g id="edge5" class="edge">
<title>resource_scope:w&#45;&gt;resource_server_scope:e</title>
<path fill="none" stroke="#000000" d="M522.6309,-410.6263C453.0329,-394.1131 496.6229,-253.2 412,-253.2"/>
<polygon fill="#000000" stroke="#000000" points="529.0475,-411.329 536.6081,-415.7786 533.0238,-411.7645 537,-412.2 537,-412.2 537,-412.2 533.0238,-411.7645 537.3919,-408.6214 529.0475,-411.329 529.0475,-411.329"/>
<ellipse fill="none" stroke="#000000" cx="525.8666" cy="-410.9806" rx="3.2" ry="3.2"/>
</g>
<!-- resource_server_scope&#45;&gt;resource_server -->
<g id="edge12" class="edge">
<title>resource_server_scope:w&#45;&gt;resource_server:e</title>
<path fill="none" stroke="#000000" d="M240.2607,-252.0153C210.3454,-246.9289 200.3269,-227.2 163.5,-227.2"/>
<polygon fill="#000000" stroke="#000000" points="247.0257,-252.559 254.7115,-256.7884 251.0129,-252.8795 255,-253.2 255,-253.2 255,-253.2 251.0129,-252.8795 255.2885,-249.6116 247.0257,-252.559 247.0257,-252.559"/>
<ellipse fill="none" stroke="#000000" cx="243.836" cy="-252.3026" rx="3.2" ry="3.2"/>
</g>
<!-- resource_server_perm_ticket -->
<g id="node7" class="node">
<title>resource_server_perm_ticket</title>
<g id="a_node7"><a xlink:href="../../tables/resource_server_perm_ticket.html" xlink:title="resource_server_perm_ticket" target="_top">
<polygon fill="#ffffff" stroke="transparent" points="503,-145.7 503,-360.7 691,-360.7 691,-145.7 503,-145.7"/>
<polygon fill="#f5f5f5" stroke="transparent" points="503,-337.2 503,-360.2 691,-360.2 691,-337.2 503,-337.2"/>
<polygon fill="none" stroke="#000000" points="503,-337.2 503,-360.2 691,-360.2 691,-337.2 503,-337.2"/>
<text text-anchor="start" x="508" y="-346.3" font-family="Helvetica,sans-Serif" font-weight="bold" font-size="11.00" fill="#000000">resource_server_perm_ticket</text>
<text text-anchor="start" x="656.0437" y="-345.3" font-family="Helvetica,sans-Serif" font-size="11.00" fill="#000000">[table]</text>
<polygon fill="none" stroke="#000000" points="503,-315.2 503,-337.2 691,-337.2 691,-315.2 503,-315.2"/>
<image xlink:href="../../images/primaryKeys.png" width="11px" height="12px" preserveAspectRatio="xMinYMin meet" x="508" y="-332.2"/>
<text text-anchor="start" x="523" y="-322.3" font-family="Helvetica,sans-Serif" font-size="11.00" fill="#000000">id</text>
<polygon fill="#ffffff" stroke="transparent" points="503,-293.2 503,-315.2 691,-315.2 691,-293.2 503,-293.2"/>
<polygon fill="none" stroke="#000000" points="503,-293.2 503,-315.2 691,-315.2 691,-293.2 503,-293.2"/>
<text text-anchor="start" x="523" y="-300.3" font-family="Helvetica,sans-Serif" font-size="11.00" fill="#000000">owner</text>
<polygon fill="#ffffff" stroke="transparent" points="503,-271.2 503,-293.2 691,-293.2 691,-271.2 503,-271.2"/>
<polygon fill="none" stroke="#000000" points="503,-271.2 503,-293.2 691,-293.2 691,-271.2 503,-271.2"/>
<text text-anchor="start" x="523" y="-278.3" font-family="Helvetica,sans-Serif" font-size="11.00" fill="#000000">requester</text>
<polygon fill="#ffffff" stroke="transparent" points="503,-249.2 503,-271.2 691,-271.2 691,-249.2 503,-249.2"/>
<polygon fill="none" stroke="#000000" points="503,-249.2 503,-271.2 691,-271.2 691,-249.2 503,-249.2"/>
<image xlink:href="../../images/foreignKeys.png" width="11px" height="12px" preserveAspectRatio="xMinYMin meet" x="508" y="-266.2"/>
<text text-anchor="start" x="523" y="-256.3" font-family="Helvetica,sans-Serif" font-size="11.00" fill="#000000">resource_id</text>
<polygon fill="#ffffff" stroke="transparent" points="503,-227.2 503,-249.2 691,-249.2 691,-227.2 503,-227.2"/>
<polygon fill="none" stroke="#000000" points="503,-227.2 503,-249.2 691,-249.2 691,-227.2 503,-227.2"/>
<image xlink:href="../../images/foreignKeys.png" width="11px" height="12px" preserveAspectRatio="xMinYMin meet" x="508" y="-244.2"/>
<text text-anchor="start" x="523" y="-234.3" font-family="Helvetica,sans-Serif" font-size="11.00" fill="#000000">scope_id</text>
<polygon fill="#ffffff" stroke="transparent" points="503,-205.2 503,-227.2 691,-227.2 691,-205.2 503,-205.2"/>
<polygon fill="none" stroke="#000000" points="503,-205.2 503,-227.2 691,-227.2 691,-205.2 503,-205.2"/>
<image xlink:href="../../images/foreignKeys.png" width="11px" height="12px" preserveAspectRatio="xMinYMin meet" x="508" y="-222.2"/>
<text text-anchor="start" x="523" y="-212.3" font-family="Helvetica,sans-Serif" font-size="11.00" fill="#000000">resource_server_id</text>
<polygon fill="none" stroke="#000000" points="503,-183.2 503,-205.2 691,-205.2 691,-183.2 503,-183.2"/>
<image xlink:href="../../images/foreignKeys.png" width="11px" height="12px" preserveAspectRatio="xMinYMin meet" x="508" y="-200.2"/>
<text text-anchor="start" x="523" y="-190.3" font-family="Helvetica,sans-Serif" font-size="11.00" fill="#000000">policy_id</text>
<polygon fill="none" stroke="#000000" points="503,-164.2 503,-183.2 691,-183.2 691,-164.2 503,-164.2"/>
<text text-anchor="start" x="506" y="-170.3" font-family="Helvetica,sans-Serif" font-size="11.00" fill="#000000">...</text>
<polygon fill="#ffffff" stroke="transparent" points="503,-145.2 503,-164.2 582,-164.2 582,-145.2 503,-145.2"/>
<polygon fill="none" stroke="#000000" points="503,-145.2 503,-164.2 582,-164.2 582,-145.2 503,-145.2"/>
<text text-anchor="start" x="506" y="-151.3" font-family="Helvetica,sans-Serif" font-size="11.00" fill="#000000">&lt; 4</text>
<polygon fill="#ffffff" stroke="transparent" points="582,-145.2 582,-164.2 649,-164.2 649,-145.2 582,-145.2"/>
<polygon fill="none" stroke="#000000" points="582,-145.2 582,-164.2 649,-164.2 649,-145.2 582,-145.2"/>
<text text-anchor="start" x="613.6105" y="-151.3" font-family="Helvetica,sans-Serif" font-size="11.00" fill="#000000">0 rows</text>
<polygon fill="#ffffff" stroke="transparent" points="649,-145.2 649,-164.2 691,-164.2 691,-145.2 649,-145.2"/>
<polygon fill="none" stroke="#000000" points="649,-145.2 649,-164.2 691,-164.2 691,-145.2 649,-145.2"/>
<text text-anchor="start" x="681.8862" y="-151.3" font-family="Helvetica,sans-Serif" font-size="11.00" fill="#000000"> &#160;</text>
</a>
</g>
</g>
<!-- resource_server_perm_ticket&#45;&gt;resource_server_resource -->
<g id="edge7" class="edge">
<title>resource_server_perm_ticket:w&#45;&gt;resource_server_resource:e</title>
<path fill="none" stroke="#000000" d="M488.3205,-262.0836C412.886,-284.229 552.8283,-494.2 452,-494.2"/>
<polygon fill="#000000" stroke="#000000" points="495.0651,-261.2182 503.4582,-263.7707 499.0325,-260.7091 503,-260.2 503,-260.2 503,-260.2 499.0325,-260.7091 502.5418,-256.6293 495.0651,-261.2182 495.0651,-261.2182"/>
<ellipse fill="none" stroke="#000000" cx="491.8911" cy="-261.6255" rx="3.2" ry="3.2"/>
</g>
<!-- resource_server_perm_ticket&#45;&gt;resource_server_policy -->
<g id="edge6" class="edge">
<title>resource_server_perm_ticket:w&#45;&gt;resource_server_policy:e</title>
<path fill="none" stroke="#000000" d="M488.3967,-192.263C455.9382,-182.9473 452.2726,-143.2 411,-143.2"/>
<polygon fill="#000000" stroke="#000000" points="495.0695,-193.148 502.5266,-197.7687 499.0347,-193.674 503,-194.2 503,-194.2 503,-194.2 499.0347,-193.674 503.4734,-190.6313 495.0695,-193.148 495.0695,-193.148"/>
<ellipse fill="none" stroke="#000000" cx="491.8972" cy="-192.7273" rx="3.2" ry="3.2"/>
</g>
<!-- resource_server_perm_ticket&#45;&gt;resource_server_scope -->
<g id="edge9" class="edge">
<title>resource_server_perm_ticket:w&#45;&gt;resource_server_scope:e</title>
<path fill="none" stroke="#000000" d="M488.6051,-238.8835C459.1532,-241.8179 447.7063,-253.2 412,-253.2"/>
<polygon fill="#000000" stroke="#000000" points="495.009,-238.5795 503.1708,-241.7959 499.0045,-238.3897 503,-238.2 503,-238.2 503,-238.2 499.0045,-238.3897 502.8292,-234.6041 495.009,-238.5795 495.009,-238.5795"/>
<ellipse fill="none" stroke="#000000" cx="491.8126" cy="-238.7313" rx="3.2" ry="3.2"/>
</g>
<!-- resource_server_perm_ticket&#45;&gt;resource_server -->
<g id="edge8" class="edge">
<title>resource_server_perm_ticket:w&#45;&gt;resource_server:e</title>
<path fill="none" stroke="#000000" d="M488.5097,-215.9959C480.3161,-215.7494 474.2458,-215.3493 462,-215.2 347.3419,-213.8019 317.4794,-198.7419 204,-215.2 185.4209,-217.8946 182.2735,-227.2 163.5,-227.2"/>
<polygon fill="#000000" stroke="#000000" points="495.0008,-216.0873 502.9493,-219.7996 499.0004,-216.1436 503,-216.2 503,-216.2 503,-216.2 499.0004,-216.1436 503.0507,-212.6004 495.0008,-216.0873 495.0008,-216.0873"/>
<ellipse fill="none" stroke="#000000" cx="491.8011" cy="-216.0422" rx="3.2" ry="3.2"/>
</g>
<!-- resource_uris -->
<g id="node9" class="node">
<title>resource_uris</title>
<g id="a_node9"><a xlink:href="../../tables/resource_uris.html" xlink:title="resource_uris" target="_top">
<polygon fill="#ffffff" stroke="transparent" points="542.5,-616.2 542.5,-702.2 651.5,-702.2 651.5,-616.2 542.5,-616.2"/>
<polygon fill="#f5f5f5" stroke="transparent" points="543,-679.2 543,-702.2 652,-702.2 652,-679.2 543,-679.2"/>
<polygon fill="none" stroke="#000000" points="543,-679.2 543,-702.2 652,-702.2 652,-679.2 543,-679.2"/>
<text text-anchor="start" x="547.692" y="-688.3" font-family="Helvetica,sans-Serif" font-weight="bold" font-size="11.00" fill="#000000">resource_uris</text>
<text text-anchor="start" x="617.5219" y="-687.3" font-family="Helvetica,sans-Serif" font-size="11.00" fill="#000000">[table]</text>
<polygon fill="none" stroke="#000000" points="543,-657.2 543,-679.2 652,-679.2 652,-657.2 543,-657.2"/>
<image xlink:href="../../images/primaryKeys.png" width="11px" height="12px" preserveAspectRatio="xMinYMin meet" x="548" y="-674.2"/>
<text text-anchor="start" x="568" y="-664.3" font-family="Helvetica,sans-Serif" font-size="11.00" fill="#000000">resource_id</text>
<polygon fill="none" stroke="#000000" points="543,-635.2 543,-657.2 652,-657.2 652,-635.2 543,-635.2"/>
<image xlink:href="../../images/primaryKeys.png" width="11px" height="12px" preserveAspectRatio="xMinYMin meet" x="548" y="-652.2"/>
<text text-anchor="start" x="568" y="-642.3" font-family="Helvetica,sans-Serif" font-size="11.00" fill="#000000">value</text>
<polygon fill="#ffffff" stroke="transparent" points="543,-616.2 543,-635.2 583,-635.2 583,-616.2 543,-616.2"/>
<polygon fill="none" stroke="#000000" points="543,-616.2 543,-635.2 583,-635.2 583,-616.2 543,-616.2"/>
<text text-anchor="start" x="546" y="-622.3" font-family="Helvetica,sans-Serif" font-size="11.00" fill="#000000">&lt; 1</text>
<polygon fill="#ffffff" stroke="transparent" points="583,-616.2 583,-635.2 630,-635.2 630,-616.2 583,-616.2"/>
<polygon fill="none" stroke="#000000" points="583,-616.2 583,-635.2 630,-635.2 630,-616.2 583,-616.2"/>
<text text-anchor="start" x="594.6105" y="-622.3" font-family="Helvetica,sans-Serif" font-size="11.00" fill="#000000">0 rows</text>
<polygon fill="#ffffff" stroke="transparent" points="630,-616.2 630,-635.2 652,-635.2 652,-616.2 630,-616.2"/>
<polygon fill="none" stroke="#000000" points="630,-616.2 630,-635.2 652,-635.2 652,-616.2 630,-616.2"/>
<text text-anchor="start" x="642.8862" y="-622.3" font-family="Helvetica,sans-Serif" font-size="11.00" fill="#000000"> &#160;</text>
</a>
</g>
</g>
<!-- resource_uris&#45;&gt;resource_server_resource -->
<g id="edge13" class="edge">
<title>resource_uris:w&#45;&gt;resource_server_resource:e</title>
<path fill="none" stroke="#000000" d="M528.6017,-665.7426C508.6601,-657.649 509.3735,-630.8765 495,-605.2 469.1573,-559.0354 504.9057,-494.2 452,-494.2"/>
<polygon fill="#000000" stroke="#000000" points="535.114,-666.854 542.3943,-671.7487 539.057,-667.527 543,-668.2 543,-668.2 543,-668.2 539.057,-667.527 543.6057,-664.6513 535.114,-666.854 535.114,-666.854"/>
<ellipse fill="none" stroke="#000000" cx="531.9596" cy="-666.3156" rx="3.2" ry="3.2"/>
</g>
</g>
</svg>
