<?xml version="1.0" encoding="UTF-8" standalone="no"?>
<!DOCTYPE svg PUBLIC "-//W3C//DTD SVG 1.1//EN"
 "http://www.w3.org/Graphics/SVG/1.1/DTD/svg11.dtd">
<!-- Generated by graphviz version 2.40.1 (20161225.0304)
 -->
<!-- Title: oneDegreeRelationshipsDiagram Pages: 1 -->
<svg width="396pt" height="267pt"
 viewBox="0.00 0.00 396.00 266.70" xmlns="http://www.w3.org/2000/svg" xmlns:xlink="http://www.w3.org/1999/xlink">
<g id="graph0" class="graph" transform="scale(1 1) rotate(0) translate(4 262.7)">
<title>oneDegreeRelationshipsDiagram</title>
<polygon fill="#ffffff" stroke="transparent" points="-4,4 -4,-262.7 392,-262.7 392,4 -4,4"/>
<text text-anchor="middle" x="72.4936" y="-7.3" font-family="Helvetica,sans-Serif" font-size="11.00" fill="#000000">Generated by SchemaSpy</text>
<!-- role_attribute -->
<g id="node1" class="node">
<title>role_attribute</title>
<g id="a_node1"><a xlink:href="../../tables/role_attribute.html" xlink:title="role_attribute" target="_top">
<polygon fill="#ffffff" stroke="transparent" points="212,-120.7 212,-254.7 380,-254.7 380,-120.7 212,-120.7"/>
<polygon fill="#f5f5f5" stroke="transparent" points="214,-229.7 214,-252.7 378,-252.7 378,-229.7 214,-229.7"/>
<polygon fill="none" stroke="#000000" points="214,-229.7 214,-252.7 378,-252.7 378,-229.7 214,-229.7"/>
<text text-anchor="start" x="219" y="-238.8" font-family="Helvetica,sans-Serif" font-weight="bold" font-size="11.00" fill="#000000">role_attribute</text>
<text text-anchor="start" x="343.0437" y="-237.8" font-family="Helvetica,sans-Serif" font-size="11.00" fill="#000000">[table]</text>
<polygon fill="none" stroke="#000000" points="214,-207.7 214,-229.7 311,-229.7 311,-207.7 214,-207.7"/>
<image xlink:href="../../images/primaryKeys.png" width="11px" height="12px" preserveAspectRatio="xMinYMin meet" x="219" y="-224.7"/>
<text text-anchor="start" x="234" y="-214.8" font-family="Helvetica,sans-Serif" font-size="11.00" fill="#000000">id</text>
<polygon fill="none" stroke="#000000" points="311,-207.7 311,-229.7 378,-229.7 378,-207.7 311,-207.7"/>
<text text-anchor="start" x="314" y="-215.4" font-family="Helvetica,sans-Serif" font-size="11.00" fill="#000000">varchar[36]</text>
<polygon fill="#ffffff" stroke="transparent" points="214,-185.7 214,-207.7 311,-207.7 311,-185.7 214,-185.7"/>
<polygon fill="none" stroke="#000000" points="214,-185.7 214,-207.7 311,-207.7 311,-185.7 214,-185.7"/>
<image xlink:href="../../images/foreignKeys.png" width="11px" height="12px" preserveAspectRatio="xMinYMin meet" x="219" y="-202.7"/>
<text text-anchor="start" x="234" y="-192.8" font-family="Helvetica,sans-Serif" font-size="11.00" fill="#000000">role_id</text>
<polygon fill="none" stroke="#000000" points="311,-185.7 311,-207.7 378,-207.7 378,-185.7 311,-185.7"/>
<text text-anchor="start" x="314" y="-193.4" font-family="Helvetica,sans-Serif" font-size="11.00" fill="#000000">varchar[36]</text>
<polygon fill="none" stroke="#000000" points="214,-163.7 214,-185.7 311,-185.7 311,-163.7 214,-163.7"/>
<text text-anchor="start" x="234" y="-170.8" font-family="Helvetica,sans-Serif" font-size="11.00" fill="#000000">name</text>
<polygon fill="none" stroke="#000000" points="311,-163.7 311,-185.7 378,-185.7 378,-163.7 311,-163.7"/>
<text text-anchor="start" x="313.9365" y="-171.4" font-family="Helvetica,sans-Serif" font-size="11.00" fill="#000000">varchar[255]</text>
<polygon fill="none" stroke="#000000" points="214,-141.7 214,-163.7 311,-163.7 311,-141.7 214,-141.7"/>
<text text-anchor="start" x="234" y="-148.8" font-family="Helvetica,sans-Serif" font-size="11.00" fill="#000000">value</text>
<polygon fill="none" stroke="#000000" points="311,-141.7 311,-163.7 378,-163.7 378,-141.7 311,-141.7"/>
<text text-anchor="start" x="313.9365" y="-149.4" font-family="Helvetica,sans-Serif" font-size="11.00" fill="#000000">varchar[255]</text>
<polygon fill="#ffffff" stroke="transparent" points="214,-122.7 214,-141.7 254,-141.7 254,-122.7 214,-122.7"/>
<polygon fill="none" stroke="#000000" points="214,-122.7 214,-141.7 254,-141.7 254,-122.7 214,-122.7"/>
<text text-anchor="start" x="217" y="-128.8" font-family="Helvetica,sans-Serif" font-size="11.00" fill="#000000">&lt; 1</text>
<polygon fill="#ffffff" stroke="transparent" points="254,-122.7 254,-141.7 311,-141.7 311,-122.7 254,-122.7"/>
<polygon fill="none" stroke="#000000" points="254,-122.7 254,-141.7 311,-141.7 311,-122.7 254,-122.7"/>
<text text-anchor="start" x="275.6105" y="-128.8" font-family="Helvetica,sans-Serif" font-size="11.00" fill="#000000">0 rows</text>
<polygon fill="#ffffff" stroke="transparent" points="311,-122.7 311,-141.7 378,-141.7 378,-122.7 311,-122.7"/>
<polygon fill="none" stroke="#000000" points="311,-122.7 311,-141.7 378,-141.7 378,-122.7 311,-122.7"/>
<text text-anchor="start" x="359.4053" y="-128.8" font-family="Helvetica,sans-Serif" font-size="11.00" fill="#000000">0 &gt;</text>
<polygon fill="none" stroke="#000000" stroke-width="2" points="213,-121.7 213,-253.7 379,-253.7 379,-121.7 213,-121.7"/>
</a>
</g>
</g>
<!-- keycloak_role -->
<g id="node2" class="node">
<title>keycloak_role</title>
<g id="a_node2"><a xlink:href="../../tables/keycloak_role.html" xlink:title="keycloak_role" target="_top">
<polygon fill="#ffffff" stroke="transparent" points="8,-38.2 8,-231.2 163,-231.2 163,-38.2 8,-38.2"/>
<polygon fill="#f5f5f5" stroke="transparent" points="8.5,-207.7 8.5,-230.7 163.5,-230.7 163.5,-207.7 8.5,-207.7"/>
<polygon fill="none" stroke="#000000" points="8.5,-207.7 8.5,-230.7 163.5,-230.7 163.5,-207.7 8.5,-207.7"/>
<text text-anchor="start" x="13.5" y="-216.8" font-family="Helvetica,sans-Serif" font-weight="bold" font-size="11.00" fill="#000000">keycloak_role</text>
<text text-anchor="start" x="128.5437" y="-215.8" font-family="Helvetica,sans-Serif" font-size="11.00" fill="#000000">[table]</text>
<polygon fill="none" stroke="#000000" points="8.5,-185.7 8.5,-207.7 163.5,-207.7 163.5,-185.7 8.5,-185.7"/>
<image xlink:href="../../images/primaryKeys.png" width="11px" height="12px" preserveAspectRatio="xMinYMin meet" x="13.5" y="-202.7"/>
<text text-anchor="start" x="28.5" y="-192.8" font-family="Helvetica,sans-Serif" font-size="11.00" fill="#000000">id</text>
<polygon fill="#ffffff" stroke="transparent" points="8.5,-163.7 8.5,-185.7 163.5,-185.7 163.5,-163.7 8.5,-163.7"/>
<polygon fill="none" stroke="#000000" points="8.5,-163.7 8.5,-185.7 163.5,-185.7 163.5,-163.7 8.5,-163.7"/>
<text text-anchor="start" x="28.5" y="-170.8" font-family="Helvetica,sans-Serif" font-size="11.00" fill="#000000">client_realm_constraint</text>
<polygon fill="#ffffff" stroke="transparent" points="8.5,-141.7 8.5,-163.7 163.5,-163.7 163.5,-141.7 8.5,-141.7"/>
<polygon fill="none" stroke="#000000" points="8.5,-141.7 8.5,-163.7 163.5,-163.7 163.5,-141.7 8.5,-141.7"/>
<text text-anchor="start" x="28.5" y="-148.8" font-family="Helvetica,sans-Serif" font-size="11.00" fill="#000000">name</text>
<polygon fill="none" stroke="#000000" points="8.5,-119.7 8.5,-141.7 163.5,-141.7 163.5,-119.7 8.5,-119.7"/>
<image xlink:href="../../images/foreignKeys.png" width="11px" height="12px" preserveAspectRatio="xMinYMin meet" x="13.5" y="-136.7"/>
<text text-anchor="start" x="28.5" y="-126.8" font-family="Helvetica,sans-Serif" font-size="11.00" fill="#000000">realm_id</text>
<polygon fill="#ffffff" stroke="transparent" points="8.5,-97.7 8.5,-119.7 163.5,-119.7 163.5,-97.7 8.5,-97.7"/>
<polygon fill="none" stroke="#000000" points="8.5,-97.7 8.5,-119.7 163.5,-119.7 163.5,-97.7 8.5,-97.7"/>
<text text-anchor="start" x="28.5" y="-104.8" font-family="Helvetica,sans-Serif" font-size="11.00" fill="#000000">client</text>
<polygon fill="#ffffff" stroke="transparent" points="8.5,-75.7 8.5,-97.7 163.5,-97.7 163.5,-75.7 8.5,-75.7"/>
<polygon fill="none" stroke="#000000" points="8.5,-75.7 8.5,-97.7 163.5,-97.7 163.5,-75.7 8.5,-75.7"/>
<image xlink:href="../../images/foreignKeys.png" width="11px" height="12px" preserveAspectRatio="xMinYMin meet" x="13.5" y="-92.7"/>
<text text-anchor="start" x="28.5" y="-82.8" font-family="Helvetica,sans-Serif" font-size="11.00" fill="#000000">realm</text>
<polygon fill="none" stroke="#000000" points="8.5,-56.7 8.5,-75.7 163.5,-75.7 163.5,-56.7 8.5,-56.7"/>
<text text-anchor="start" x="11.5" y="-62.8" font-family="Helvetica,sans-Serif" font-size="11.00" fill="#000000">...</text>
<polygon fill="#ffffff" stroke="transparent" points="8.5,-37.7 8.5,-56.7 63.5,-56.7 63.5,-37.7 8.5,-37.7"/>
<polygon fill="none" stroke="#000000" points="8.5,-37.7 8.5,-56.7 63.5,-56.7 63.5,-37.7 8.5,-37.7"/>
<text text-anchor="start" x="11.5" y="-43.8" font-family="Helvetica,sans-Serif" font-size="11.00" fill="#000000">&lt; 1</text>
<polygon fill="#ffffff" stroke="transparent" points="63.5,-37.7 63.5,-56.7 124.5,-56.7 124.5,-37.7 63.5,-37.7"/>
<polygon fill="none" stroke="#000000" points="63.5,-37.7 63.5,-56.7 124.5,-56.7 124.5,-37.7 63.5,-37.7"/>
<text text-anchor="start" x="82.9956" y="-43.8" font-family="Helvetica,sans-Serif" font-size="11.00" fill="#000000">30 rows</text>
<polygon fill="#ffffff" stroke="transparent" points="124.5,-37.7 124.5,-56.7 163.5,-56.7 163.5,-37.7 124.5,-37.7"/>
<polygon fill="none" stroke="#000000" points="124.5,-37.7 124.5,-56.7 163.5,-56.7 163.5,-37.7 124.5,-37.7"/>
<text text-anchor="start" x="144.9053" y="-43.8" font-family="Helvetica,sans-Serif" font-size="11.00" fill="#000000">3 &gt;</text>
</a>
</g>
</g>
<!-- role_attribute&#45;&gt;keycloak_role -->
<g id="edge1" class="edge">
<title>role_attribute:w&#45;&gt;keycloak_role:e</title>
<path fill="none" stroke="#000000" d="M199.4203,-196.7C187.5435,-196.7 180.158,-196.7 163.5,-196.7"/>
<polygon fill="#000000" stroke="#000000" points="206,-196.7001 214,-200.3 210,-196.7 214,-196.7 214,-196.7 214,-196.7 210,-196.7 214,-193.1 206,-196.7001 206,-196.7001"/>
<ellipse fill="none" stroke="#000000" cx="202.8" cy="-196.7001" rx="3.2" ry="3.2"/>
</g>
</g>
</svg>
