<?xml version="1.0" encoding="UTF-8" standalone="no"?>
<!DOCTYPE svg PUBLIC "-//W3C//DTD SVG 1.1//EN"
 "http://www.w3.org/Graphics/SVG/1.1/DTD/svg11.dtd">
<!-- Generated by graphviz version 2.40.1 (20161225.0304)
 -->
<!-- Title: twoDegreesRelationshipsDiagramImplied Pages: 1 -->
<svg width="561pt" height="268pt"
 viewBox="0.00 0.00 561.00 267.70" xmlns="http://www.w3.org/2000/svg" xmlns:xlink="http://www.w3.org/1999/xlink">
<g id="graph0" class="graph" transform="scale(1 1) rotate(0) translate(4 263.7)">
<title>twoDegreesRelationshipsDiagramImplied</title>
<polygon fill="#ffffff" stroke="transparent" points="-4,4 -4,-263.7 557,-263.7 557,4 -4,4"/>
<text text-anchor="middle" x="72.4936" y="-7.3" font-family="Helvetica,sans-Serif" font-size="11.00" fill="#000000">Generated by SchemaSpy</text>
<!-- composite_role -->
<g id="node1" class="node">
<title>composite_role</title>
<g id="a_node1"><a xlink:href="../../tables/composite_role.html" xlink:title="composite_role" target="_top">
<polygon fill="#ffffff" stroke="transparent" points="402.5,-193.7 402.5,-254.7 519.5,-254.7 519.5,-193.7 402.5,-193.7"/>
<polygon fill="#f5f5f5" stroke="transparent" points="403,-231.2 403,-254.2 520,-254.2 520,-231.2 403,-231.2"/>
<polygon fill="none" stroke="#000000" points="403,-231.2 403,-254.2 520,-254.2 520,-231.2 403,-231.2"/>
<text text-anchor="start" x="407.7166" y="-240.3" font-family="Helvetica,sans-Serif" font-weight="bold" font-size="11.00" fill="#000000">composite_role</text>
<text text-anchor="start" x="485.5219" y="-239.3" font-family="Helvetica,sans-Serif" font-size="11.00" fill="#000000">[table]</text>
<polygon fill="none" stroke="#000000" points="403,-212.2 403,-231.2 520,-231.2 520,-212.2 403,-212.2"/>
<text text-anchor="start" x="406" y="-218.3" font-family="Helvetica,sans-Serif" font-size="11.00" fill="#000000">...</text>
<polygon fill="#ffffff" stroke="transparent" points="403,-193.2 403,-212.2 444,-212.2 444,-193.2 403,-193.2"/>
<polygon fill="none" stroke="#000000" points="403,-193.2 403,-212.2 444,-212.2 444,-193.2 403,-193.2"/>
<text text-anchor="start" x="406" y="-199.3" font-family="Helvetica,sans-Serif" font-size="11.00" fill="#000000">&lt; 2</text>
<polygon fill="#ffffff" stroke="transparent" points="444,-193.2 444,-212.2 498,-212.2 498,-193.2 444,-193.2"/>
<polygon fill="none" stroke="#000000" points="444,-193.2 444,-212.2 498,-212.2 498,-193.2 444,-193.2"/>
<text text-anchor="start" x="456.4956" y="-199.3" font-family="Helvetica,sans-Serif" font-size="11.00" fill="#000000">24 rows</text>
<polygon fill="#ffffff" stroke="transparent" points="498,-193.2 498,-212.2 520,-212.2 520,-193.2 498,-193.2"/>
<polygon fill="none" stroke="#000000" points="498,-193.2 498,-212.2 520,-212.2 520,-193.2 498,-193.2"/>
<text text-anchor="start" x="510.8862" y="-199.3" font-family="Helvetica,sans-Serif" font-size="11.00" fill="#000000"> &#160;</text>
</a>
</g>
</g>
<!-- keycloak_role -->
<g id="node2" class="node">
<title>keycloak_role</title>
<g id="a_node2"><a xlink:href="../../tables/keycloak_role.html" xlink:title="keycloak_role" target="_top">
<polygon fill="#ffffff" stroke="transparent" points="173,-62.7 173,-255.7 328,-255.7 328,-62.7 173,-62.7"/>
<polygon fill="#f5f5f5" stroke="transparent" points="173.5,-232.2 173.5,-255.2 328.5,-255.2 328.5,-232.2 173.5,-232.2"/>
<polygon fill="none" stroke="#000000" points="173.5,-232.2 173.5,-255.2 328.5,-255.2 328.5,-232.2 173.5,-232.2"/>
<text text-anchor="start" x="178.5" y="-241.3" font-family="Helvetica,sans-Serif" font-weight="bold" font-size="11.00" fill="#000000">keycloak_role</text>
<text text-anchor="start" x="293.5437" y="-240.3" font-family="Helvetica,sans-Serif" font-size="11.00" fill="#000000">[table]</text>
<polygon fill="none" stroke="#000000" points="173.5,-210.2 173.5,-232.2 328.5,-232.2 328.5,-210.2 173.5,-210.2"/>
<image xlink:href="../../images/primaryKeys.png" width="11px" height="12px" preserveAspectRatio="xMinYMin meet" x="178.5" y="-227.2"/>
<text text-anchor="start" x="193.5" y="-217.3" font-family="Helvetica,sans-Serif" font-size="11.00" fill="#000000">id</text>
<polygon fill="#ffffff" stroke="transparent" points="173.5,-188.2 173.5,-210.2 328.5,-210.2 328.5,-188.2 173.5,-188.2"/>
<polygon fill="none" stroke="#000000" points="173.5,-188.2 173.5,-210.2 328.5,-210.2 328.5,-188.2 173.5,-188.2"/>
<text text-anchor="start" x="193.5" y="-195.3" font-family="Helvetica,sans-Serif" font-size="11.00" fill="#000000">client_realm_constraint</text>
<polygon fill="#ffffff" stroke="transparent" points="173.5,-166.2 173.5,-188.2 328.5,-188.2 328.5,-166.2 173.5,-166.2"/>
<polygon fill="none" stroke="#000000" points="173.5,-166.2 173.5,-188.2 328.5,-188.2 328.5,-166.2 173.5,-166.2"/>
<text text-anchor="start" x="193.5" y="-173.3" font-family="Helvetica,sans-Serif" font-size="11.00" fill="#000000">name</text>
<polygon fill="none" stroke="#000000" points="173.5,-144.2 173.5,-166.2 328.5,-166.2 328.5,-144.2 173.5,-144.2"/>
<image xlink:href="../../images/foreignKeys.png" width="11px" height="12px" preserveAspectRatio="xMinYMin meet" x="178.5" y="-161.2"/>
<text text-anchor="start" x="193.5" y="-151.3" font-family="Helvetica,sans-Serif" font-size="11.00" fill="#000000">realm_id</text>
<polygon fill="#ffffff" stroke="transparent" points="173.5,-122.2 173.5,-144.2 328.5,-144.2 328.5,-122.2 173.5,-122.2"/>
<polygon fill="none" stroke="#000000" points="173.5,-122.2 173.5,-144.2 328.5,-144.2 328.5,-122.2 173.5,-122.2"/>
<text text-anchor="start" x="193.5" y="-129.3" font-family="Helvetica,sans-Serif" font-size="11.00" fill="#000000">client</text>
<polygon fill="#ffffff" stroke="transparent" points="173.5,-100.2 173.5,-122.2 328.5,-122.2 328.5,-100.2 173.5,-100.2"/>
<polygon fill="none" stroke="#000000" points="173.5,-100.2 173.5,-122.2 328.5,-122.2 328.5,-100.2 173.5,-100.2"/>
<image xlink:href="../../images/foreignKeys.png" width="11px" height="12px" preserveAspectRatio="xMinYMin meet" x="178.5" y="-117.2"/>
<text text-anchor="start" x="193.5" y="-107.3" font-family="Helvetica,sans-Serif" font-size="11.00" fill="#000000">realm</text>
<polygon fill="none" stroke="#000000" points="173.5,-81.2 173.5,-100.2 328.5,-100.2 328.5,-81.2 173.5,-81.2"/>
<text text-anchor="start" x="176.5" y="-87.3" font-family="Helvetica,sans-Serif" font-size="11.00" fill="#000000">...</text>
<polygon fill="#ffffff" stroke="transparent" points="173.5,-62.2 173.5,-81.2 228.5,-81.2 228.5,-62.2 173.5,-62.2"/>
<polygon fill="none" stroke="#000000" points="173.5,-62.2 173.5,-81.2 228.5,-81.2 228.5,-62.2 173.5,-62.2"/>
<text text-anchor="start" x="176.5" y="-68.3" font-family="Helvetica,sans-Serif" font-size="11.00" fill="#000000">&lt; 2</text>
<polygon fill="#ffffff" stroke="transparent" points="228.5,-62.2 228.5,-81.2 289.5,-81.2 289.5,-62.2 228.5,-62.2"/>
<polygon fill="none" stroke="#000000" points="228.5,-62.2 228.5,-81.2 289.5,-81.2 289.5,-62.2 228.5,-62.2"/>
<text text-anchor="start" x="247.9956" y="-68.3" font-family="Helvetica,sans-Serif" font-size="11.00" fill="#000000">30 rows</text>
<polygon fill="#ffffff" stroke="transparent" points="289.5,-62.2 289.5,-81.2 328.5,-81.2 328.5,-62.2 289.5,-62.2"/>
<polygon fill="none" stroke="#000000" points="289.5,-62.2 289.5,-81.2 328.5,-81.2 328.5,-62.2 289.5,-62.2"/>
<text text-anchor="start" x="309.9053" y="-68.3" font-family="Helvetica,sans-Serif" font-size="11.00" fill="#000000">3 &gt;</text>
</a>
</g>
</g>
<!-- composite_role&#45;&gt;keycloak_role -->
<g id="edge1" class="edge">
<title>composite_role:w&#45;&gt;keycloak_role:e</title>
<path fill="none" stroke="#000000" d="M388.798,-218.7789C366.6004,-215.3539 356.3082,-216.1609 328.5,-221.2"/>
<polygon fill="#000000" stroke="#000000" points="395.1138,-219.8555 402.395,-224.7488 399.0569,-220.5278 403,-221.2 403,-221.2 403,-221.2 399.0569,-220.5278 403.605,-217.6512 395.1138,-219.8555 395.1138,-219.8555"/>
<ellipse fill="none" stroke="#000000" cx="391.9593" cy="-219.3177" rx="3.2" ry="3.2"/>
</g>
<!-- composite_role&#45;&gt;keycloak_role -->
<g id="edge2" class="edge">
<title>composite_role:w&#45;&gt;keycloak_role:e</title>
<path fill="none" stroke="#000000" d="M388.798,-224.0246C366.6004,-228.0204 356.3082,-227.0789 328.5,-221.2"/>
<polygon fill="#000000" stroke="#000000" points="395.1537,-222.7606 403.7023,-224.7308 399.0768,-221.9803 403,-221.2 403,-221.2 403,-221.2 399.0768,-221.9803 402.2977,-217.6692 395.1537,-222.7606 395.1537,-222.7606"/>
<ellipse fill="none" stroke="#000000" cx="392.0152" cy="-223.3848" rx="3.2" ry="3.2"/>
</g>
<!-- realm -->
<g id="node3" class="node">
<title>realm</title>
<g id="a_node3"><a xlink:href="../../tables/realm.html" xlink:title="realm" target="_top">
<polygon fill="#ffffff" stroke="transparent" points="30.5,-64.7 30.5,-125.7 101.5,-125.7 101.5,-64.7 30.5,-64.7"/>
<polygon fill="#f5f5f5" stroke="transparent" points="31,-102.2 31,-125.2 102,-125.2 102,-102.2 31,-102.2"/>
<polygon fill="none" stroke="#000000" points="31,-102.2 31,-125.2 102,-125.2 102,-102.2 31,-102.2"/>
<text text-anchor="start" x="36" y="-111.3" font-family="Helvetica,sans-Serif" font-weight="bold" font-size="11.00" fill="#000000">realm</text>
<text text-anchor="start" x="67.5219" y="-110.3" font-family="Helvetica,sans-Serif" font-size="11.00" fill="#000000">[table]</text>
<polygon fill="none" stroke="#000000" points="31,-83.2 31,-102.2 102,-102.2 102,-83.2 31,-83.2"/>
<text text-anchor="start" x="34" y="-89.3" font-family="Helvetica,sans-Serif" font-size="11.00" fill="#000000">...</text>
<polygon fill="#ffffff" stroke="transparent" points="31,-64.2 31,-83.2 43,-83.2 43,-64.2 31,-64.2"/>
<polygon fill="none" stroke="#000000" points="31,-64.2 31,-83.2 43,-83.2 43,-64.2 31,-64.2"/>
<text text-anchor="start" x="33.9431" y="-70.3" font-family="Helvetica,sans-Serif" font-size="11.00" fill="#000000"> &#160;</text>
<polygon fill="#ffffff" stroke="transparent" points="43,-64.2 43,-83.2 75,-83.2 75,-64.2 43,-64.2"/>
<polygon fill="none" stroke="#000000" points="43,-64.2 43,-83.2 75,-83.2 75,-64.2 43,-64.2"/>
<text text-anchor="start" x="45.5553" y="-70.3" font-family="Helvetica,sans-Serif" font-size="11.00" fill="#000000">1 row</text>
<polygon fill="#ffffff" stroke="transparent" points="75,-64.2 75,-83.2 102,-83.2 102,-64.2 75,-64.2"/>
<polygon fill="none" stroke="#000000" points="75,-64.2 75,-83.2 102,-83.2 102,-64.2 75,-64.2"/>
<text text-anchor="start" x="77.6452" y="-70.3" font-family="Helvetica,sans-Serif" font-size="11.00" fill="#000000">23 &gt;</text>
</a>
</g>
</g>
<!-- keycloak_role&#45;&gt;realm -->
<g id="edge3" class="edge">
<title>keycloak_role:w&#45;&gt;realm:e</title>
<path fill="none" stroke="#000000" d="M158.9713,-109.7719C137.9257,-105.3532 129.3577,-92.2 102,-92.2"/>
<polygon fill="#000000" stroke="#000000" points="165.5384,-110.4174 173.1478,-114.7827 169.5192,-110.8087 173.5,-111.2 173.5,-111.2 173.5,-111.2 169.5192,-110.8087 173.8522,-107.6173 165.5384,-110.4174 165.5384,-110.4174"/>
<ellipse fill="none" stroke="#000000" cx="162.3537" cy="-110.1043" rx="3.2" ry="3.2"/>
</g>
<!-- federated_user -->
<g id="node4" class="node">
<title>federated_user</title>
<g id="a_node4"><a xlink:href="../../tables/federated_user.html" xlink:title="federated_user" target="_top">
<polygon fill="#ffffff" stroke="transparent" points="8,-146.7 8,-207.7 124,-207.7 124,-146.7 8,-146.7"/>
<polygon fill="#f5f5f5" stroke="transparent" points="8,-184.2 8,-207.2 124,-207.2 124,-184.2 8,-184.2"/>
<polygon fill="none" stroke="#000000" points="8,-184.2 8,-207.2 124,-207.2 124,-184.2 8,-184.2"/>
<text text-anchor="start" x="12.5142" y="-193.3" font-family="Helvetica,sans-Serif" font-weight="bold" font-size="11.00" fill="#000000">federated_user</text>
<text text-anchor="start" x="89.5219" y="-192.3" font-family="Helvetica,sans-Serif" font-size="11.00" fill="#000000">[table]</text>
<polygon fill="none" stroke="#000000" points="8,-165.2 8,-184.2 124,-184.2 124,-165.2 8,-165.2"/>
<text text-anchor="start" x="11" y="-171.3" font-family="Helvetica,sans-Serif" font-size="11.00" fill="#000000">...</text>
<polygon fill="#ffffff" stroke="transparent" points="8,-146.2 8,-165.2 39,-165.2 39,-146.2 8,-146.2"/>
<polygon fill="none" stroke="#000000" points="8,-146.2 8,-165.2 39,-165.2 39,-146.2 8,-146.2"/>
<text text-anchor="start" x="11" y="-152.3" font-family="Helvetica,sans-Serif" font-size="11.00" fill="#000000"> &#160;</text>
<polygon fill="#ffffff" stroke="transparent" points="39,-146.2 39,-165.2 87,-165.2 87,-146.2 39,-146.2"/>
<polygon fill="none" stroke="#000000" points="39,-146.2 39,-165.2 87,-165.2 87,-146.2 39,-146.2"/>
<text text-anchor="start" x="51.6105" y="-152.3" font-family="Helvetica,sans-Serif" font-size="11.00" fill="#000000">0 rows</text>
<polygon fill="#ffffff" stroke="transparent" points="87,-146.2 87,-165.2 124,-165.2 124,-146.2 87,-146.2"/>
<polygon fill="none" stroke="#000000" points="87,-146.2 87,-165.2 124,-165.2 124,-146.2 87,-146.2"/>
<text text-anchor="start" x="99.2904" y="-152.3" font-family="Helvetica,sans-Serif" font-size="11.00" fill="#000000">30 &gt;</text>
</a>
</g>
</g>
<!-- keycloak_role&#45;&gt;federated_user -->
<g id="edge4" class="edge">
<title>keycloak_role:w&#45;&gt;federated_user:e</title>
<path fill="none" stroke="#000000" stroke-dasharray="5,2" d="M159.138,-158.1688C147.4253,-163.5125 141.6737,-174.2 124,-174.2"/>
<polygon fill="#000000" stroke="#000000" points="165.6656,-156.8195 174.2288,-158.7255 169.5828,-156.0097 173.5,-155.2 173.5,-155.2 173.5,-155.2 169.5828,-156.0097 172.7712,-151.6745 165.6656,-156.8195 165.6656,-156.8195"/>
<ellipse fill="none" stroke="#000000" cx="162.5319" cy="-157.4673" rx="3.2" ry="3.2"/>
</g>
<!-- role_attribute -->
<g id="node5" class="node">
<title>role_attribute</title>
<g id="a_node5"><a xlink:href="../../tables/role_attribute.html" xlink:title="role_attribute" target="_top">
<polygon fill="#ffffff" stroke="transparent" points="377,-38.2 377,-172.2 545,-172.2 545,-38.2 377,-38.2"/>
<polygon fill="#f5f5f5" stroke="transparent" points="379,-147.2 379,-170.2 543,-170.2 543,-147.2 379,-147.2"/>
<polygon fill="none" stroke="#000000" points="379,-147.2 379,-170.2 543,-170.2 543,-147.2 379,-147.2"/>
<text text-anchor="start" x="384" y="-156.3" font-family="Helvetica,sans-Serif" font-weight="bold" font-size="11.00" fill="#000000">role_attribute</text>
<text text-anchor="start" x="508.0437" y="-155.3" font-family="Helvetica,sans-Serif" font-size="11.00" fill="#000000">[table]</text>
<polygon fill="none" stroke="#000000" points="379,-125.2 379,-147.2 476,-147.2 476,-125.2 379,-125.2"/>
<image xlink:href="../../images/primaryKeys.png" width="11px" height="12px" preserveAspectRatio="xMinYMin meet" x="384" y="-142.2"/>
<text text-anchor="start" x="399" y="-132.3" font-family="Helvetica,sans-Serif" font-size="11.00" fill="#000000">id</text>
<polygon fill="none" stroke="#000000" points="476,-125.2 476,-147.2 543,-147.2 543,-125.2 476,-125.2"/>
<text text-anchor="start" x="479" y="-132.9" font-family="Helvetica,sans-Serif" font-size="11.00" fill="#000000">varchar[36]</text>
<polygon fill="#ffffff" stroke="transparent" points="379,-103.2 379,-125.2 476,-125.2 476,-103.2 379,-103.2"/>
<polygon fill="none" stroke="#000000" points="379,-103.2 379,-125.2 476,-125.2 476,-103.2 379,-103.2"/>
<image xlink:href="../../images/foreignKeys.png" width="11px" height="12px" preserveAspectRatio="xMinYMin meet" x="384" y="-120.2"/>
<text text-anchor="start" x="399" y="-110.3" font-family="Helvetica,sans-Serif" font-size="11.00" fill="#000000">role_id</text>
<polygon fill="none" stroke="#000000" points="476,-103.2 476,-125.2 543,-125.2 543,-103.2 476,-103.2"/>
<text text-anchor="start" x="479" y="-110.9" font-family="Helvetica,sans-Serif" font-size="11.00" fill="#000000">varchar[36]</text>
<polygon fill="none" stroke="#000000" points="379,-81.2 379,-103.2 476,-103.2 476,-81.2 379,-81.2"/>
<text text-anchor="start" x="399" y="-88.3" font-family="Helvetica,sans-Serif" font-size="11.00" fill="#000000">name</text>
<polygon fill="none" stroke="#000000" points="476,-81.2 476,-103.2 543,-103.2 543,-81.2 476,-81.2"/>
<text text-anchor="start" x="478.9365" y="-88.9" font-family="Helvetica,sans-Serif" font-size="11.00" fill="#000000">varchar[255]</text>
<polygon fill="none" stroke="#000000" points="379,-59.2 379,-81.2 476,-81.2 476,-59.2 379,-59.2"/>
<text text-anchor="start" x="399" y="-66.3" font-family="Helvetica,sans-Serif" font-size="11.00" fill="#000000">value</text>
<polygon fill="none" stroke="#000000" points="476,-59.2 476,-81.2 543,-81.2 543,-59.2 476,-59.2"/>
<text text-anchor="start" x="478.9365" y="-66.9" font-family="Helvetica,sans-Serif" font-size="11.00" fill="#000000">varchar[255]</text>
<polygon fill="#ffffff" stroke="transparent" points="379,-40.2 379,-59.2 419,-59.2 419,-40.2 379,-40.2"/>
<polygon fill="none" stroke="#000000" points="379,-40.2 379,-59.2 419,-59.2 419,-40.2 379,-40.2"/>
<text text-anchor="start" x="382" y="-46.3" font-family="Helvetica,sans-Serif" font-size="11.00" fill="#000000">&lt; 1</text>
<polygon fill="#ffffff" stroke="transparent" points="419,-40.2 419,-59.2 476,-59.2 476,-40.2 419,-40.2"/>
<polygon fill="none" stroke="#000000" points="419,-40.2 419,-59.2 476,-59.2 476,-40.2 419,-40.2"/>
<text text-anchor="start" x="440.6105" y="-46.3" font-family="Helvetica,sans-Serif" font-size="11.00" fill="#000000">0 rows</text>
<polygon fill="#ffffff" stroke="transparent" points="476,-40.2 476,-59.2 543,-59.2 543,-40.2 476,-40.2"/>
<polygon fill="none" stroke="#000000" points="476,-40.2 476,-59.2 543,-59.2 543,-40.2 476,-40.2"/>
<text text-anchor="start" x="524.4053" y="-46.3" font-family="Helvetica,sans-Serif" font-size="11.00" fill="#000000">0 &gt;</text>
<polygon fill="none" stroke="#000000" stroke-width="2" points="378,-39.2 378,-171.2 544,-171.2 544,-39.2 378,-39.2"/>
</a>
</g>
</g>
<!-- role_attribute&#45;&gt;keycloak_role -->
<g id="edge5" class="edge">
<title>role_attribute:w&#45;&gt;keycloak_role:e</title>
<path fill="none" stroke="#000000" d="M364.9464,-118.0082C337.4242,-137.0691 375.129,-221.2 328.5,-221.2"/>
<polygon fill="#000000" stroke="#000000" points="371.2785,-116.2924 379.9416,-117.6747 375.1392,-115.2462 379,-114.2 379,-114.2 379,-114.2 375.1392,-115.2462 378.0584,-110.7253 371.2785,-116.2924 371.2785,-116.2924"/>
<ellipse fill="none" stroke="#000000" cx="368.1898" cy="-117.1293" rx="3.2" ry="3.2"/>
</g>
</g>
</svg>
