<?xml version="1.0" encoding="UTF-8" standalone="no"?>
<!DOCTYPE svg PUBLIC "-//W3C//DTD SVG 1.1//EN"
 "http://www.w3.org/Graphics/SVG/1.1/DTD/svg11.dtd">
<!-- Generated by graphviz version 2.40.1 (20161225.0304)
 -->
<!-- Title: twoDegreesRelationshipsDiagramImplied Pages: 1 -->
<svg width="610pt" height="715pt"
 viewBox="0.00 0.00 610.00 715.20" xmlns="http://www.w3.org/2000/svg" xmlns:xlink="http://www.w3.org/1999/xlink">
<g id="graph0" class="graph" transform="scale(1 1) rotate(0) translate(4 711.2)">
<title>twoDegreesRelationshipsDiagramImplied</title>
<polygon fill="#ffffff" stroke="transparent" points="-4,4 -4,-711.2 606,-711.2 606,4 -4,4"/>
<text text-anchor="middle" x="72.4936" y="-7.3" font-family="Helvetica,sans-Serif" font-size="11.00" fill="#000000">Generated by SchemaSpy</text>
<!-- client -->
<g id="node1" class="node">
<title>client</title>
<g id="a_node1"><a xlink:href="../../tables/client.html" xlink:title="client" target="_top">
<polygon fill="#ffffff" stroke="transparent" points="173,-290.2 173,-417.2 368,-417.2 368,-290.2 173,-290.2"/>
<polygon fill="#f5f5f5" stroke="transparent" points="173.5,-393.7 173.5,-416.7 368.5,-416.7 368.5,-393.7 173.5,-393.7"/>
<polygon fill="none" stroke="#000000" points="173.5,-393.7 173.5,-416.7 368.5,-416.7 368.5,-393.7 173.5,-393.7"/>
<text text-anchor="start" x="178.5" y="-402.8" font-family="Helvetica,sans-Serif" font-weight="bold" font-size="11.00" fill="#000000">client</text>
<text text-anchor="start" x="333.5437" y="-401.8" font-family="Helvetica,sans-Serif" font-size="11.00" fill="#000000">[table]</text>
<polygon fill="none" stroke="#000000" points="173.5,-371.7 173.5,-393.7 368.5,-393.7 368.5,-371.7 173.5,-371.7"/>
<image xlink:href="../../images/primaryKeys.png" width="11px" height="12px" preserveAspectRatio="xMinYMin meet" x="178.5" y="-388.7"/>
<text text-anchor="start" x="193.5" y="-378.8" font-family="Helvetica,sans-Serif" font-size="11.00" fill="#000000">id</text>
<polygon fill="#ffffff" stroke="transparent" points="173.5,-349.7 173.5,-371.7 368.5,-371.7 368.5,-349.7 173.5,-349.7"/>
<polygon fill="none" stroke="#000000" points="173.5,-349.7 173.5,-371.7 368.5,-371.7 368.5,-349.7 173.5,-349.7"/>
<image xlink:href="../../images/foreignKeys.png" width="11px" height="12px" preserveAspectRatio="xMinYMin meet" x="178.5" y="-366.7"/>
<text text-anchor="start" x="193.5" y="-356.8" font-family="Helvetica,sans-Serif" font-size="11.00" fill="#000000">client_id</text>
<polygon fill="#ffffff" stroke="transparent" points="173.5,-327.7 173.5,-349.7 368.5,-349.7 368.5,-327.7 173.5,-327.7"/>
<polygon fill="none" stroke="#000000" points="173.5,-327.7 173.5,-349.7 368.5,-349.7 368.5,-327.7 173.5,-327.7"/>
<image xlink:href="../../images/foreignKeys.png" width="11px" height="12px" preserveAspectRatio="xMinYMin meet" x="178.5" y="-344.7"/>
<text text-anchor="start" x="193.5" y="-334.8" font-family="Helvetica,sans-Serif" font-size="11.00" fill="#000000">realm_id</text>
<polygon fill="none" stroke="#000000" points="173.5,-308.7 173.5,-327.7 368.5,-327.7 368.5,-308.7 173.5,-308.7"/>
<text text-anchor="start" x="176.5" y="-314.8" font-family="Helvetica,sans-Serif" font-size="11.00" fill="#000000">...</text>
<polygon fill="#ffffff" stroke="transparent" points="173.5,-289.7 173.5,-308.7 251.5,-308.7 251.5,-289.7 173.5,-289.7"/>
<polygon fill="none" stroke="#000000" points="173.5,-289.7 173.5,-308.7 251.5,-308.7 251.5,-289.7 173.5,-289.7"/>
<text text-anchor="start" x="176.5" y="-295.8" font-family="Helvetica,sans-Serif" font-size="11.00" fill="#000000">&lt; 2</text>
<polygon fill="#ffffff" stroke="transparent" points="251.5,-289.7 251.5,-308.7 318.5,-308.7 318.5,-289.7 251.5,-289.7"/>
<polygon fill="none" stroke="#000000" points="251.5,-289.7 251.5,-308.7 318.5,-308.7 318.5,-289.7 251.5,-289.7"/>
<text text-anchor="start" x="283.1105" y="-295.8" font-family="Helvetica,sans-Serif" font-size="11.00" fill="#000000">6 rows</text>
<polygon fill="#ffffff" stroke="transparent" points="318.5,-289.7 318.5,-308.7 368.5,-308.7 368.5,-289.7 318.5,-289.7"/>
<polygon fill="none" stroke="#000000" points="318.5,-289.7 318.5,-308.7 368.5,-308.7 368.5,-289.7 318.5,-289.7"/>
<text text-anchor="start" x="349.9053" y="-295.8" font-family="Helvetica,sans-Serif" font-size="11.00" fill="#000000">8 &gt;</text>
</a>
</g>
</g>
<!-- federated_user -->
<g id="node2" class="node">
<title>federated_user</title>
<g id="a_node2"><a xlink:href="../../tables/federated_user.html" xlink:title="federated_user" target="_top">
<polygon fill="#ffffff" stroke="transparent" points="8,-363.2 8,-424.2 124,-424.2 124,-363.2 8,-363.2"/>
<polygon fill="#f5f5f5" stroke="transparent" points="8,-400.7 8,-423.7 124,-423.7 124,-400.7 8,-400.7"/>
<polygon fill="none" stroke="#000000" points="8,-400.7 8,-423.7 124,-423.7 124,-400.7 8,-400.7"/>
<text text-anchor="start" x="12.5142" y="-409.8" font-family="Helvetica,sans-Serif" font-weight="bold" font-size="11.00" fill="#000000">federated_user</text>
<text text-anchor="start" x="89.5219" y="-408.8" font-family="Helvetica,sans-Serif" font-size="11.00" fill="#000000">[table]</text>
<polygon fill="none" stroke="#000000" points="8,-381.7 8,-400.7 124,-400.7 124,-381.7 8,-381.7"/>
<text text-anchor="start" x="11" y="-387.8" font-family="Helvetica,sans-Serif" font-size="11.00" fill="#000000">...</text>
<polygon fill="#ffffff" stroke="transparent" points="8,-362.7 8,-381.7 39,-381.7 39,-362.7 8,-362.7"/>
<polygon fill="none" stroke="#000000" points="8,-362.7 8,-381.7 39,-381.7 39,-362.7 8,-362.7"/>
<text text-anchor="start" x="11" y="-368.8" font-family="Helvetica,sans-Serif" font-size="11.00" fill="#000000"> &#160;</text>
<polygon fill="#ffffff" stroke="transparent" points="39,-362.7 39,-381.7 87,-381.7 87,-362.7 39,-362.7"/>
<polygon fill="none" stroke="#000000" points="39,-362.7 39,-381.7 87,-381.7 87,-362.7 39,-362.7"/>
<text text-anchor="start" x="51.6105" y="-368.8" font-family="Helvetica,sans-Serif" font-size="11.00" fill="#000000">0 rows</text>
<polygon fill="#ffffff" stroke="transparent" points="87,-362.7 87,-381.7 124,-381.7 124,-362.7 87,-362.7"/>
<polygon fill="none" stroke="#000000" points="87,-362.7 87,-381.7 124,-381.7 124,-362.7 87,-362.7"/>
<text text-anchor="start" x="99.2904" y="-368.8" font-family="Helvetica,sans-Serif" font-size="11.00" fill="#000000">30 &gt;</text>
</a>
</g>
</g>
<!-- client&#45;&gt;federated_user -->
<g id="edge1" class="edge">
<title>client:w&#45;&gt;federated_user:e</title>
<path fill="none" stroke="#000000" stroke-dasharray="5,2" d="M159.633,-364.622C147.238,-372.7538 143.8967,-390.7 124,-390.7"/>
<polygon fill="#000000" stroke="#000000" points="165.802,-362.8773 174.4798,-364.1641 169.651,-361.7886 173.5,-360.7 173.5,-360.7 173.5,-360.7 169.651,-361.7886 172.5202,-357.2359 165.802,-362.8773 165.802,-362.8773"/>
<ellipse fill="none" stroke="#000000" cx="162.7228" cy="-363.7482" rx="3.2" ry="3.2"/>
</g>
<!-- realm -->
<g id="node3" class="node">
<title>realm</title>
<g id="a_node3"><a xlink:href="../../tables/realm.html" xlink:title="realm" target="_top">
<polygon fill="#ffffff" stroke="transparent" points="30.5,-281.2 30.5,-342.2 101.5,-342.2 101.5,-281.2 30.5,-281.2"/>
<polygon fill="#f5f5f5" stroke="transparent" points="31,-318.7 31,-341.7 102,-341.7 102,-318.7 31,-318.7"/>
<polygon fill="none" stroke="#000000" points="31,-318.7 31,-341.7 102,-341.7 102,-318.7 31,-318.7"/>
<text text-anchor="start" x="36" y="-327.8" font-family="Helvetica,sans-Serif" font-weight="bold" font-size="11.00" fill="#000000">realm</text>
<text text-anchor="start" x="67.5219" y="-326.8" font-family="Helvetica,sans-Serif" font-size="11.00" fill="#000000">[table]</text>
<polygon fill="none" stroke="#000000" points="31,-299.7 31,-318.7 102,-318.7 102,-299.7 31,-299.7"/>
<text text-anchor="start" x="34" y="-305.8" font-family="Helvetica,sans-Serif" font-size="11.00" fill="#000000">...</text>
<polygon fill="#ffffff" stroke="transparent" points="31,-280.7 31,-299.7 43,-299.7 43,-280.7 31,-280.7"/>
<polygon fill="none" stroke="#000000" points="31,-280.7 31,-299.7 43,-299.7 43,-280.7 31,-280.7"/>
<text text-anchor="start" x="33.9431" y="-286.8" font-family="Helvetica,sans-Serif" font-size="11.00" fill="#000000"> &#160;</text>
<polygon fill="#ffffff" stroke="transparent" points="43,-280.7 43,-299.7 75,-299.7 75,-280.7 43,-280.7"/>
<polygon fill="none" stroke="#000000" points="43,-280.7 43,-299.7 75,-299.7 75,-280.7 43,-280.7"/>
<text text-anchor="start" x="45.5553" y="-286.8" font-family="Helvetica,sans-Serif" font-size="11.00" fill="#000000">1 row</text>
<polygon fill="#ffffff" stroke="transparent" points="75,-280.7 75,-299.7 102,-299.7 102,-280.7 75,-280.7"/>
<polygon fill="none" stroke="#000000" points="75,-280.7 75,-299.7 102,-299.7 102,-280.7 75,-280.7"/>
<text text-anchor="start" x="77.6452" y="-286.8" font-family="Helvetica,sans-Serif" font-size="11.00" fill="#000000">23 &gt;</text>
</a>
</g>
</g>
<!-- client&#45;&gt;realm -->
<g id="edge2" class="edge">
<title>client:w&#45;&gt;realm:e</title>
<path fill="none" stroke="#000000" d="M159.1338,-336.638C137.3952,-329.8601 130.9424,-308.7 102,-308.7"/>
<polygon fill="#000000" stroke="#000000" points="165.5812,-337.5633 172.9885,-342.2635 169.5406,-338.1317 173.5,-338.7 173.5,-338.7 173.5,-338.7 169.5406,-338.1317 174.0115,-335.1365 165.5812,-337.5633 165.5812,-337.5633"/>
<ellipse fill="none" stroke="#000000" cx="162.4136" cy="-337.1087" rx="3.2" ry="3.2"/>
</g>
<!-- client_attributes -->
<g id="node4" class="node">
<title>client_attributes</title>
<g id="a_node4"><a xlink:href="../../tables/client_attributes.html" xlink:title="client_attributes" target="_top">
<polygon fill="#ffffff" stroke="transparent" points="445.5,-642.2 445.5,-703.2 565.5,-703.2 565.5,-642.2 445.5,-642.2"/>
<polygon fill="#f5f5f5" stroke="transparent" points="445.5,-679.7 445.5,-702.7 565.5,-702.7 565.5,-679.7 445.5,-679.7"/>
<polygon fill="none" stroke="#000000" points="445.5,-679.7 445.5,-702.7 565.5,-702.7 565.5,-679.7 445.5,-679.7"/>
<text text-anchor="start" x="450.4918" y="-688.8" font-family="Helvetica,sans-Serif" font-weight="bold" font-size="11.00" fill="#000000">client_attributes</text>
<text text-anchor="start" x="531.0219" y="-687.8" font-family="Helvetica,sans-Serif" font-size="11.00" fill="#000000">[table]</text>
<polygon fill="none" stroke="#000000" points="445.5,-660.7 445.5,-679.7 565.5,-679.7 565.5,-660.7 445.5,-660.7"/>
<text text-anchor="start" x="448.5" y="-666.8" font-family="Helvetica,sans-Serif" font-size="11.00" fill="#000000">...</text>
<polygon fill="#ffffff" stroke="transparent" points="445.5,-641.7 445.5,-660.7 490.5,-660.7 490.5,-641.7 445.5,-641.7"/>
<polygon fill="none" stroke="#000000" points="445.5,-641.7 445.5,-660.7 490.5,-660.7 490.5,-641.7 445.5,-641.7"/>
<text text-anchor="start" x="448.5" y="-647.8" font-family="Helvetica,sans-Serif" font-size="11.00" fill="#000000">&lt; 1</text>
<polygon fill="#ffffff" stroke="transparent" points="490.5,-641.7 490.5,-660.7 540.5,-660.7 540.5,-641.7 490.5,-641.7"/>
<polygon fill="none" stroke="#000000" points="490.5,-641.7 490.5,-660.7 540.5,-660.7 540.5,-641.7 490.5,-641.7"/>
<text text-anchor="start" x="505.1105" y="-647.8" font-family="Helvetica,sans-Serif" font-size="11.00" fill="#000000">2 rows</text>
<polygon fill="#ffffff" stroke="transparent" points="540.5,-641.7 540.5,-660.7 565.5,-660.7 565.5,-641.7 540.5,-641.7"/>
<polygon fill="none" stroke="#000000" points="540.5,-641.7 540.5,-660.7 565.5,-660.7 565.5,-641.7 540.5,-641.7"/>
<text text-anchor="start" x="556.3862" y="-647.8" font-family="Helvetica,sans-Serif" font-size="11.00" fill="#000000"> &#160;</text>
</a>
</g>
</g>
<!-- client_attributes&#45;&gt;client -->
<g id="edge3" class="edge">
<title>client_attributes:w&#45;&gt;client:e</title>
<path fill="none" stroke="#000000" d="M431.389,-666.7085C420.2829,-660.9311 416.8484,-647.4123 409,-631.7 383.9488,-581.5481 424.5605,-382.7 368.5,-382.7"/>
<polygon fill="#000000" stroke="#000000" points="437.6739,-668.0409 444.7534,-673.2217 441.587,-668.8704 445.5,-669.7 445.5,-669.7 445.5,-669.7 441.587,-668.8704 446.2466,-666.1783 437.6739,-668.0409 437.6739,-668.0409"/>
<ellipse fill="none" stroke="#000000" cx="434.5435" cy="-667.3772" rx="3.2" ry="3.2"/>
</g>
<!-- client_default_roles -->
<g id="node5" class="node">
<title>client_default_roles</title>
<g id="a_node5"><a xlink:href="../../tables/client_default_roles.html" xlink:title="client_default_roles" target="_top">
<polygon fill="#ffffff" stroke="transparent" points="437,-560.2 437,-621.2 574,-621.2 574,-560.2 437,-560.2"/>
<polygon fill="#f5f5f5" stroke="transparent" points="437.5,-597.7 437.5,-620.7 574.5,-620.7 574.5,-597.7 437.5,-597.7"/>
<polygon fill="none" stroke="#000000" points="437.5,-597.7 437.5,-620.7 574.5,-620.7 574.5,-597.7 437.5,-597.7"/>
<text text-anchor="start" x="442.1274" y="-606.8" font-family="Helvetica,sans-Serif" font-weight="bold" font-size="11.00" fill="#000000">client_default_roles</text>
<text text-anchor="start" x="540.0219" y="-605.8" font-family="Helvetica,sans-Serif" font-size="11.00" fill="#000000">[table]</text>
<polygon fill="none" stroke="#000000" points="437.5,-578.7 437.5,-597.7 574.5,-597.7 574.5,-578.7 437.5,-578.7"/>
<text text-anchor="start" x="440.5" y="-584.8" font-family="Helvetica,sans-Serif" font-size="11.00" fill="#000000">...</text>
<polygon fill="#ffffff" stroke="transparent" points="437.5,-559.7 437.5,-578.7 491.5,-578.7 491.5,-559.7 437.5,-559.7"/>
<polygon fill="none" stroke="#000000" points="437.5,-559.7 437.5,-578.7 491.5,-578.7 491.5,-559.7 437.5,-559.7"/>
<text text-anchor="start" x="440.5" y="-565.8" font-family="Helvetica,sans-Serif" font-size="11.00" fill="#000000">&lt; 1</text>
<polygon fill="#ffffff" stroke="transparent" points="491.5,-559.7 491.5,-578.7 545.5,-578.7 545.5,-559.7 491.5,-559.7"/>
<polygon fill="none" stroke="#000000" points="491.5,-559.7 491.5,-578.7 545.5,-578.7 545.5,-559.7 491.5,-559.7"/>
<text text-anchor="start" x="510.1105" y="-565.8" font-family="Helvetica,sans-Serif" font-size="11.00" fill="#000000">2 rows</text>
<polygon fill="#ffffff" stroke="transparent" points="545.5,-559.7 545.5,-578.7 574.5,-578.7 574.5,-559.7 545.5,-559.7"/>
<polygon fill="none" stroke="#000000" points="545.5,-559.7 545.5,-578.7 574.5,-578.7 574.5,-559.7 545.5,-559.7"/>
<text text-anchor="start" x="565.3862" y="-565.8" font-family="Helvetica,sans-Serif" font-size="11.00" fill="#000000"> &#160;</text>
</a>
</g>
</g>
<!-- client_default_roles&#45;&gt;client -->
<g id="edge4" class="edge">
<title>client_default_roles:w&#45;&gt;client:e</title>
<path fill="none" stroke="#000000" d="M423.1967,-585.8015C354.6263,-565.135 459.1886,-382.7 368.5,-382.7"/>
<polygon fill="#000000" stroke="#000000" points="429.5696,-586.6473 437.0263,-591.2687 433.5348,-587.1737 437.5,-587.7 437.5,-587.7 437.5,-587.7 433.5348,-587.1737 437.9737,-584.1313 429.5696,-586.6473 429.5696,-586.6473"/>
<ellipse fill="none" stroke="#000000" cx="426.3974" cy="-586.2263" rx="3.2" ry="3.2"/>
</g>
<!-- client_node_registrations -->
<g id="node6" class="node">
<title>client_node_registrations</title>
<g id="a_node6"><a xlink:href="../../tables/client_node_registrations.html" xlink:title="client_node_registrations" target="_top">
<polygon fill="#ffffff" stroke="transparent" points="423,-478.2 423,-539.2 588,-539.2 588,-478.2 423,-478.2"/>
<polygon fill="#f5f5f5" stroke="transparent" points="423.5,-515.7 423.5,-538.7 588.5,-538.7 588.5,-515.7 423.5,-515.7"/>
<polygon fill="none" stroke="#000000" points="423.5,-515.7 423.5,-538.7 588.5,-538.7 588.5,-515.7 423.5,-515.7"/>
<text text-anchor="start" x="428.3741" y="-524.8" font-family="Helvetica,sans-Serif" font-weight="bold" font-size="11.00" fill="#000000">client_node_registrations</text>
<text text-anchor="start" x="554.0219" y="-523.8" font-family="Helvetica,sans-Serif" font-size="11.00" fill="#000000">[table]</text>
<polygon fill="none" stroke="#000000" points="423.5,-496.7 423.5,-515.7 588.5,-515.7 588.5,-496.7 423.5,-496.7"/>
<text text-anchor="start" x="426.5" y="-502.8" font-family="Helvetica,sans-Serif" font-size="11.00" fill="#000000">...</text>
<polygon fill="#ffffff" stroke="transparent" points="423.5,-477.7 423.5,-496.7 491.5,-496.7 491.5,-477.7 423.5,-477.7"/>
<polygon fill="none" stroke="#000000" points="423.5,-477.7 423.5,-496.7 491.5,-496.7 491.5,-477.7 423.5,-477.7"/>
<text text-anchor="start" x="426.5" y="-483.8" font-family="Helvetica,sans-Serif" font-size="11.00" fill="#000000">&lt; 1</text>
<polygon fill="#ffffff" stroke="transparent" points="491.5,-477.7 491.5,-496.7 552.5,-496.7 552.5,-477.7 491.5,-477.7"/>
<polygon fill="none" stroke="#000000" points="491.5,-477.7 491.5,-496.7 552.5,-496.7 552.5,-477.7 491.5,-477.7"/>
<text text-anchor="start" x="517.1105" y="-483.8" font-family="Helvetica,sans-Serif" font-size="11.00" fill="#000000">0 rows</text>
<polygon fill="#ffffff" stroke="transparent" points="552.5,-477.7 552.5,-496.7 588.5,-496.7 588.5,-477.7 552.5,-477.7"/>
<polygon fill="none" stroke="#000000" points="552.5,-477.7 552.5,-496.7 588.5,-496.7 588.5,-477.7 552.5,-477.7"/>
<text text-anchor="start" x="579.3862" y="-483.8" font-family="Helvetica,sans-Serif" font-size="11.00" fill="#000000"> &#160;</text>
</a>
</g>
</g>
<!-- client_node_registrations&#45;&gt;client -->
<g id="edge5" class="edge">
<title>client_node_registrations:w&#45;&gt;client:e</title>
<path fill="none" stroke="#000000" d="M409.2902,-502.41C375.0779,-482.8496 422.5351,-382.7 368.5,-382.7"/>
<polygon fill="#000000" stroke="#000000" points="415.7062,-503.8955 422.688,-509.2072 419.6031,-504.7977 423.5,-505.7 423.5,-505.7 423.5,-505.7 419.6031,-504.7977 424.312,-502.1928 415.7062,-503.8955 415.7062,-503.8955"/>
<ellipse fill="none" stroke="#000000" cx="412.5886" cy="-503.1737" rx="3.2" ry="3.2"/>
</g>
<!-- client_scope_client -->
<g id="node7" class="node">
<title>client_scope_client</title>
<g id="a_node7"><a xlink:href="../../tables/client_scope_client.html" xlink:title="client_scope_client" target="_top">
<polygon fill="#ffffff" stroke="transparent" points="438,-396.2 438,-457.2 573,-457.2 573,-396.2 438,-396.2"/>
<polygon fill="#f5f5f5" stroke="transparent" points="438.5,-433.7 438.5,-456.7 573.5,-456.7 573.5,-433.7 438.5,-433.7"/>
<polygon fill="none" stroke="#000000" points="438.5,-433.7 438.5,-456.7 573.5,-456.7 573.5,-433.7 438.5,-433.7"/>
<text text-anchor="start" x="443.0443" y="-442.8" font-family="Helvetica,sans-Serif" font-weight="bold" font-size="11.00" fill="#000000">client_scope_client</text>
<text text-anchor="start" x="539.0219" y="-441.8" font-family="Helvetica,sans-Serif" font-size="11.00" fill="#000000">[table]</text>
<polygon fill="none" stroke="#000000" points="438.5,-414.7 438.5,-433.7 573.5,-433.7 573.5,-414.7 438.5,-414.7"/>
<text text-anchor="start" x="441.5" y="-420.8" font-family="Helvetica,sans-Serif" font-size="11.00" fill="#000000">...</text>
<polygon fill="#ffffff" stroke="transparent" points="438.5,-395.7 438.5,-414.7 488.5,-414.7 488.5,-395.7 438.5,-395.7"/>
<polygon fill="none" stroke="#000000" points="438.5,-395.7 438.5,-414.7 488.5,-414.7 488.5,-395.7 438.5,-395.7"/>
<text text-anchor="start" x="441.5" y="-401.8" font-family="Helvetica,sans-Serif" font-size="11.00" fill="#000000">&lt; 2</text>
<polygon fill="#ffffff" stroke="transparent" points="488.5,-395.7 488.5,-414.7 546.5,-414.7 546.5,-395.7 488.5,-395.7"/>
<polygon fill="none" stroke="#000000" points="488.5,-395.7 488.5,-414.7 546.5,-414.7 546.5,-395.7 488.5,-395.7"/>
<text text-anchor="start" x="504.9956" y="-401.8" font-family="Helvetica,sans-Serif" font-size="11.00" fill="#000000">54 rows</text>
<polygon fill="#ffffff" stroke="transparent" points="546.5,-395.7 546.5,-414.7 573.5,-414.7 573.5,-395.7 546.5,-395.7"/>
<polygon fill="none" stroke="#000000" points="546.5,-395.7 546.5,-414.7 573.5,-414.7 573.5,-395.7 546.5,-395.7"/>
<text text-anchor="start" x="564.3862" y="-401.8" font-family="Helvetica,sans-Serif" font-size="11.00" fill="#000000"> &#160;</text>
</a>
</g>
</g>
<!-- client_scope_client&#45;&gt;client -->
<g id="edge6" class="edge">
<title>client_scope_client:w&#45;&gt;client:e</title>
<path fill="none" stroke="#000000" d="M424.1034,-421.0099C402.1727,-411.8885 398.9213,-382.7 368.5,-382.7"/>
<polygon fill="#000000" stroke="#000000" points="430.6361,-422.2305 437.8387,-427.2388 434.5681,-422.9653 438.5,-423.7 438.5,-423.7 438.5,-423.7 434.5681,-422.9653 439.1613,-420.1612 430.6361,-422.2305 430.6361,-422.2305"/>
<ellipse fill="none" stroke="#000000" cx="427.4906" cy="-421.6427" rx="3.2" ry="3.2"/>
</g>
<!-- protocol_mapper -->
<g id="node8" class="node">
<title>protocol_mapper</title>
<g id="a_node8"><a xlink:href="../../tables/protocol_mapper.html" xlink:title="protocol_mapper" target="_top">
<polygon fill="#ffffff" stroke="transparent" points="443,-314.2 443,-375.2 568,-375.2 568,-314.2 443,-314.2"/>
<polygon fill="#f5f5f5" stroke="transparent" points="443.5,-351.7 443.5,-374.7 568.5,-374.7 568.5,-351.7 443.5,-351.7"/>
<polygon fill="none" stroke="#000000" points="443.5,-351.7 443.5,-374.7 568.5,-374.7 568.5,-351.7 443.5,-351.7"/>
<text text-anchor="start" x="448.2412" y="-360.8" font-family="Helvetica,sans-Serif" font-weight="bold" font-size="11.00" fill="#000000">protocol_mapper</text>
<text text-anchor="start" x="534.0219" y="-359.8" font-family="Helvetica,sans-Serif" font-size="11.00" fill="#000000">[table]</text>
<polygon fill="none" stroke="#000000" points="443.5,-332.7 443.5,-351.7 568.5,-351.7 568.5,-332.7 443.5,-332.7"/>
<text text-anchor="start" x="446.5" y="-338.8" font-family="Helvetica,sans-Serif" font-size="11.00" fill="#000000">...</text>
<polygon fill="#ffffff" stroke="transparent" points="443.5,-313.7 443.5,-332.7 483.5,-332.7 483.5,-313.7 443.5,-313.7"/>
<polygon fill="none" stroke="#000000" points="443.5,-313.7 443.5,-332.7 483.5,-332.7 483.5,-313.7 443.5,-313.7"/>
<text text-anchor="start" x="446.5" y="-319.8" font-family="Helvetica,sans-Serif" font-size="11.00" fill="#000000">&lt; 2</text>
<polygon fill="#ffffff" stroke="transparent" points="483.5,-313.7 483.5,-332.7 537.5,-332.7 537.5,-313.7 483.5,-313.7"/>
<polygon fill="none" stroke="#000000" points="483.5,-313.7 483.5,-332.7 537.5,-332.7 537.5,-313.7 483.5,-313.7"/>
<text text-anchor="start" x="495.9956" y="-319.8" font-family="Helvetica,sans-Serif" font-size="11.00" fill="#000000">28 rows</text>
<polygon fill="#ffffff" stroke="transparent" points="537.5,-313.7 537.5,-332.7 568.5,-332.7 568.5,-313.7 537.5,-313.7"/>
<polygon fill="none" stroke="#000000" points="537.5,-313.7 537.5,-332.7 568.5,-332.7 568.5,-313.7 537.5,-313.7"/>
<text text-anchor="start" x="549.9053" y="-319.8" font-family="Helvetica,sans-Serif" font-size="11.00" fill="#000000">1 &gt;</text>
</a>
</g>
</g>
<!-- protocol_mapper&#45;&gt;client -->
<g id="edge7" class="edge">
<title>protocol_mapper:w&#45;&gt;client:e</title>
<path fill="none" stroke="#000000" d="M429.2349,-344.0218C404.9797,-352.6951 400.9984,-382.7 368.5,-382.7"/>
<polygon fill="#000000" stroke="#000000" points="435.6039,-342.9852 444.0784,-345.2532 439.552,-342.3426 443.5,-341.7 443.5,-341.7 443.5,-341.7 439.552,-342.3426 442.9216,-338.1468 435.6039,-342.9852 435.6039,-342.9852"/>
<ellipse fill="none" stroke="#000000" cx="432.4455" cy="-343.4993" rx="3.2" ry="3.2"/>
</g>
<!-- redirect_uris -->
<g id="node9" class="node">
<title>redirect_uris</title>
<g id="a_node9"><a xlink:href="../../tables/redirect_uris.html" xlink:title="redirect_uris" target="_top">
<polygon fill="#ffffff" stroke="transparent" points="454,-232.2 454,-293.2 557,-293.2 557,-232.2 454,-232.2"/>
<polygon fill="#f5f5f5" stroke="transparent" points="454.5,-269.7 454.5,-292.7 557.5,-292.7 557.5,-269.7 454.5,-269.7"/>
<polygon fill="none" stroke="#000000" points="454.5,-269.7 454.5,-292.7 557.5,-292.7 557.5,-269.7 454.5,-269.7"/>
<text text-anchor="start" x="459.2506" y="-278.8" font-family="Helvetica,sans-Serif" font-weight="bold" font-size="11.00" fill="#000000">redirect_uris</text>
<text text-anchor="start" x="523.0219" y="-277.8" font-family="Helvetica,sans-Serif" font-size="11.00" fill="#000000">[table]</text>
<polygon fill="none" stroke="#000000" points="454.5,-250.7 454.5,-269.7 557.5,-269.7 557.5,-250.7 454.5,-250.7"/>
<text text-anchor="start" x="457.5" y="-256.8" font-family="Helvetica,sans-Serif" font-size="11.00" fill="#000000">...</text>
<polygon fill="#ffffff" stroke="transparent" points="454.5,-231.7 454.5,-250.7 491.5,-250.7 491.5,-231.7 454.5,-231.7"/>
<polygon fill="none" stroke="#000000" points="454.5,-231.7 454.5,-250.7 491.5,-250.7 491.5,-231.7 454.5,-231.7"/>
<text text-anchor="start" x="457.5" y="-237.8" font-family="Helvetica,sans-Serif" font-size="11.00" fill="#000000">&lt; 1</text>
<polygon fill="#ffffff" stroke="transparent" points="491.5,-231.7 491.5,-250.7 537.5,-250.7 537.5,-231.7 491.5,-231.7"/>
<polygon fill="none" stroke="#000000" points="491.5,-231.7 491.5,-250.7 537.5,-250.7 537.5,-231.7 491.5,-231.7"/>
<text text-anchor="start" x="502.1105" y="-237.8" font-family="Helvetica,sans-Serif" font-size="11.00" fill="#000000">3 rows</text>
<polygon fill="#ffffff" stroke="transparent" points="537.5,-231.7 537.5,-250.7 557.5,-250.7 557.5,-231.7 537.5,-231.7"/>
<polygon fill="none" stroke="#000000" points="537.5,-231.7 537.5,-250.7 557.5,-250.7 557.5,-231.7 537.5,-231.7"/>
<text text-anchor="start" x="548.3862" y="-237.8" font-family="Helvetica,sans-Serif" font-size="11.00" fill="#000000"> &#160;</text>
</a>
</g>
</g>
<!-- redirect_uris&#45;&gt;client -->
<g id="edge8" class="edge">
<title>redirect_uris:w&#45;&gt;client:e</title>
<path fill="none" stroke="#000000" d="M439.9615,-262.3671C425.3911,-268.7821 422.2193,-285.8685 409,-303.7 385.5022,-335.3961 407.9562,-382.7 368.5,-382.7"/>
<polygon fill="#000000" stroke="#000000" points="446.6313,-261.1436 455.1496,-263.2409 450.5657,-260.4218 454.5,-259.7 454.5,-259.7 454.5,-259.7 450.5657,-260.4218 453.8504,-256.1591 446.6313,-261.1436 446.6313,-261.1436"/>
<ellipse fill="none" stroke="#000000" cx="443.4838" cy="-261.721" rx="3.2" ry="3.2"/>
</g>
<!-- scope_mapping -->
<g id="node10" class="node">
<title>scope_mapping</title>
<g id="a_node10"><a xlink:href="../../tables/scope_mapping.html" xlink:title="scope_mapping" target="_top">
<polygon fill="#ffffff" stroke="transparent" points="417,-120.7 417,-210.7 594,-210.7 594,-120.7 417,-120.7"/>
<polygon fill="#f5f5f5" stroke="transparent" points="419.5,-185.7 419.5,-208.7 592.5,-208.7 592.5,-185.7 419.5,-185.7"/>
<polygon fill="none" stroke="#000000" points="419.5,-185.7 419.5,-208.7 592.5,-208.7 592.5,-185.7 419.5,-185.7"/>
<text text-anchor="start" x="424.5" y="-194.8" font-family="Helvetica,sans-Serif" font-weight="bold" font-size="11.00" fill="#000000">scope_mapping</text>
<text text-anchor="start" x="557.5437" y="-193.8" font-family="Helvetica,sans-Serif" font-size="11.00" fill="#000000">[table]</text>
<polygon fill="none" stroke="#000000" points="419.5,-163.7 419.5,-185.7 531.5,-185.7 531.5,-163.7 419.5,-163.7"/>
<image xlink:href="../../images/primaryKeys.png" width="11px" height="12px" preserveAspectRatio="xMinYMin meet" x="424.5" y="-180.7"/>
<text text-anchor="start" x="439.5" y="-170.8" font-family="Helvetica,sans-Serif" font-size="11.00" fill="#000000">client_id</text>
<polygon fill="none" stroke="#000000" points="531.5,-163.7 531.5,-185.7 592.5,-185.7 592.5,-163.7 531.5,-163.7"/>
<text text-anchor="start" x="534.494" y="-171.4" font-family="Helvetica,sans-Serif" font-size="11.00" fill="#000000">varchar[36]</text>
<polygon fill="none" stroke="#000000" points="419.5,-141.7 419.5,-163.7 531.5,-163.7 531.5,-141.7 419.5,-141.7"/>
<image xlink:href="../../images/primaryKeys.png" width="11px" height="12px" preserveAspectRatio="xMinYMin meet" x="424.5" y="-158.7"/>
<text text-anchor="start" x="439.5" y="-148.8" font-family="Helvetica,sans-Serif" font-size="11.00" fill="#000000">role_id</text>
<polygon fill="none" stroke="#000000" points="531.5,-141.7 531.5,-163.7 592.5,-163.7 592.5,-141.7 531.5,-141.7"/>
<text text-anchor="start" x="534.494" y="-149.4" font-family="Helvetica,sans-Serif" font-size="11.00" fill="#000000">varchar[36]</text>
<polygon fill="#ffffff" stroke="transparent" points="419.5,-122.7 419.5,-141.7 469.5,-141.7 469.5,-122.7 419.5,-122.7"/>
<polygon fill="none" stroke="#000000" points="419.5,-122.7 419.5,-141.7 469.5,-141.7 469.5,-122.7 419.5,-122.7"/>
<text text-anchor="start" x="422.5" y="-128.8" font-family="Helvetica,sans-Serif" font-size="11.00" fill="#000000">&lt; 1</text>
<polygon fill="#ffffff" stroke="transparent" points="469.5,-122.7 469.5,-141.7 531.5,-141.7 531.5,-122.7 469.5,-122.7"/>
<polygon fill="none" stroke="#000000" points="469.5,-122.7 469.5,-141.7 531.5,-141.7 531.5,-122.7 469.5,-122.7"/>
<text text-anchor="start" x="501.6105" y="-128.8" font-family="Helvetica,sans-Serif" font-size="11.00" fill="#000000">1 row</text>
<polygon fill="#ffffff" stroke="transparent" points="531.5,-122.7 531.5,-141.7 592.5,-141.7 592.5,-122.7 531.5,-122.7"/>
<polygon fill="none" stroke="#000000" points="531.5,-122.7 531.5,-141.7 592.5,-141.7 592.5,-122.7 531.5,-122.7"/>
<text text-anchor="start" x="573.9053" y="-128.8" font-family="Helvetica,sans-Serif" font-size="11.00" fill="#000000">0 &gt;</text>
<polygon fill="none" stroke="#000000" stroke-width="2" points="418,-121.7 418,-209.7 593,-209.7 593,-121.7 418,-121.7"/>
</a>
</g>
</g>
<!-- scope_mapping&#45;&gt;client -->
<g id="edge9" class="edge">
<title>scope_mapping:w&#45;&gt;client:e</title>
<path fill="none" stroke="#000000" d="M405.0901,-176.7586C339.8439,-198.3609 458.1056,-382.7 368.5,-382.7"/>
<polygon fill="#000000" stroke="#000000" points="411.5804,-175.8315 420.0092,-178.2638 415.5402,-175.2657 419.5,-174.7 419.5,-174.7 419.5,-174.7 415.5402,-175.2657 418.9908,-171.1362 411.5804,-175.8315 411.5804,-175.8315"/>
<ellipse fill="none" stroke="#000000" cx="408.4126" cy="-176.2841" rx="3.2" ry="3.2"/>
</g>
<!-- web_origins -->
<g id="node11" class="node">
<title>web_origins</title>
<g id="a_node11"><a xlink:href="../../tables/web_origins.html" xlink:title="web_origins" target="_top">
<polygon fill="#ffffff" stroke="transparent" points="455,-38.2 455,-99.2 556,-99.2 556,-38.2 455,-38.2"/>
<polygon fill="#f5f5f5" stroke="transparent" points="455.5,-75.7 455.5,-98.7 556.5,-98.7 556.5,-75.7 455.5,-75.7"/>
<polygon fill="none" stroke="#000000" points="455.5,-75.7 455.5,-98.7 556.5,-98.7 556.5,-75.7 455.5,-75.7"/>
<text text-anchor="start" x="460.163" y="-84.8" font-family="Helvetica,sans-Serif" font-weight="bold" font-size="11.00" fill="#000000">web_origins</text>
<text text-anchor="start" x="522.0219" y="-83.8" font-family="Helvetica,sans-Serif" font-size="11.00" fill="#000000">[table]</text>
<polygon fill="none" stroke="#000000" points="455.5,-56.7 455.5,-75.7 556.5,-75.7 556.5,-56.7 455.5,-56.7"/>
<text text-anchor="start" x="458.5" y="-62.8" font-family="Helvetica,sans-Serif" font-size="11.00" fill="#000000">...</text>
<polygon fill="#ffffff" stroke="transparent" points="455.5,-37.7 455.5,-56.7 494.5,-56.7 494.5,-37.7 455.5,-37.7"/>
<polygon fill="none" stroke="#000000" points="455.5,-37.7 455.5,-56.7 494.5,-56.7 494.5,-37.7 455.5,-37.7"/>
<text text-anchor="start" x="458.5" y="-43.8" font-family="Helvetica,sans-Serif" font-size="11.00" fill="#000000">&lt; 1</text>
<polygon fill="#ffffff" stroke="transparent" points="494.5,-37.7 494.5,-56.7 535.5,-56.7 535.5,-37.7 494.5,-37.7"/>
<polygon fill="none" stroke="#000000" points="494.5,-37.7 494.5,-56.7 535.5,-56.7 535.5,-37.7 494.5,-37.7"/>
<text text-anchor="start" x="505.6105" y="-43.8" font-family="Helvetica,sans-Serif" font-size="11.00" fill="#000000">1 row</text>
<polygon fill="#ffffff" stroke="transparent" points="535.5,-37.7 535.5,-56.7 556.5,-56.7 556.5,-37.7 535.5,-37.7"/>
<polygon fill="none" stroke="#000000" points="535.5,-37.7 535.5,-56.7 556.5,-56.7 556.5,-37.7 535.5,-37.7"/>
<text text-anchor="start" x="547.3862" y="-43.8" font-family="Helvetica,sans-Serif" font-size="11.00" fill="#000000"> &#160;</text>
</a>
</g>
</g>
<!-- web_origins&#45;&gt;client -->
<g id="edge10" class="edge">
<title>web_origins:w&#45;&gt;client:e</title>
<path fill="none" stroke="#000000" d="M441.1706,-67.8238C424.6201,-73.5215 419.5798,-90.1175 409,-110.7 381.0625,-165.051 429.6108,-382.7 368.5,-382.7"/>
<polygon fill="#000000" stroke="#000000" points="447.5864,-66.8729 456.0278,-69.2611 451.5432,-66.2865 455.5,-65.7 455.5,-65.7 455.5,-65.7 451.5432,-66.2865 454.9722,-62.1389 447.5864,-66.8729 447.5864,-66.8729"/>
<ellipse fill="none" stroke="#000000" cx="444.421" cy="-67.3421" rx="3.2" ry="3.2"/>
</g>
</g>
</svg>
