<?xml version="1.0" encoding="UTF-8" standalone="no"?>
<!DOCTYPE svg PUBLIC "-//W3C//DTD SVG 1.1//EN"
 "http://www.w3.org/Graphics/SVG/1.1/DTD/svg11.dtd">
<!-- Generated by graphviz version 2.40.1 (20161225.0304)
 -->
<!-- Title: twoDegreesRelationshipsDiagramImplied Pages: 1 -->
<svg width="648pt" height="633pt"
 viewBox="0.00 0.00 648.00 633.20" xmlns="http://www.w3.org/2000/svg" xmlns:xlink="http://www.w3.org/1999/xlink">
<g id="graph0" class="graph" transform="scale(1 1) rotate(0) translate(4 629.2)">
<title>twoDegreesRelationshipsDiagramImplied</title>
<polygon fill="#ffffff" stroke="transparent" points="-4,4 -4,-629.2 644,-629.2 644,4 -4,4"/>
<text text-anchor="middle" x="72.4936" y="-7.3" font-family="Helvetica,sans-Serif" font-size="11.00" fill="#000000">Generated by SchemaSpy</text>
<!-- credential -->
<g id="node1" class="node">
<title>credential</title>
<g id="a_node1"><a xlink:href="../../tables/credential.html" xlink:title="credential" target="_top">
<polygon fill="#ffffff" stroke="transparent" points="472,-478.2 472,-539.2 562,-539.2 562,-478.2 472,-478.2"/>
<polygon fill="#f5f5f5" stroke="transparent" points="472,-515.7 472,-538.7 562,-538.7 562,-515.7 472,-515.7"/>
<polygon fill="none" stroke="#000000" points="472,-515.7 472,-538.7 562,-538.7 562,-515.7 472,-515.7"/>
<text text-anchor="start" x="476.6625" y="-524.8" font-family="Helvetica,sans-Serif" font-weight="bold" font-size="11.00" fill="#000000">credential</text>
<text text-anchor="start" x="527.5219" y="-523.8" font-family="Helvetica,sans-Serif" font-size="11.00" fill="#000000">[table]</text>
<polygon fill="none" stroke="#000000" points="472,-496.7 472,-515.7 562,-515.7 562,-496.7 472,-496.7"/>
<text text-anchor="start" x="475" y="-502.8" font-family="Helvetica,sans-Serif" font-size="11.00" fill="#000000">...</text>
<polygon fill="#ffffff" stroke="transparent" points="472,-477.7 472,-496.7 505,-496.7 505,-477.7 472,-477.7"/>
<polygon fill="none" stroke="#000000" points="472,-477.7 472,-496.7 505,-496.7 505,-477.7 472,-477.7"/>
<text text-anchor="start" x="475" y="-483.8" font-family="Helvetica,sans-Serif" font-size="11.00" fill="#000000">&lt; 1</text>
<polygon fill="#ffffff" stroke="transparent" points="505,-477.7 505,-496.7 543,-496.7 543,-477.7 505,-477.7"/>
<polygon fill="none" stroke="#000000" points="505,-477.7 505,-496.7 543,-496.7 543,-477.7 505,-477.7"/>
<text text-anchor="start" x="513.1105" y="-483.8" font-family="Helvetica,sans-Serif" font-size="11.00" fill="#000000">1 row</text>
<polygon fill="#ffffff" stroke="transparent" points="543,-477.7 543,-496.7 562,-496.7 562,-477.7 543,-477.7"/>
<polygon fill="none" stroke="#000000" points="543,-477.7 543,-496.7 562,-496.7 562,-477.7 543,-477.7"/>
<text text-anchor="start" x="552.8862" y="-483.8" font-family="Helvetica,sans-Serif" font-size="11.00" fill="#000000"> &#160;</text>
</a>
</g>
</g>
<!-- user_entity -->
<g id="node2" class="node">
<title>user_entity</title>
<g id="a_node2"><a xlink:href="../../tables/user_entity.html" xlink:title="user_entity" target="_top">
<polygon fill="#ffffff" stroke="transparent" points="173,-159.2 173,-330.2 353,-330.2 353,-159.2 173,-159.2"/>
<polygon fill="#f5f5f5" stroke="transparent" points="173,-306.7 173,-329.7 353,-329.7 353,-306.7 173,-306.7"/>
<polygon fill="none" stroke="#000000" points="173,-306.7 173,-329.7 353,-329.7 353,-306.7 173,-306.7"/>
<text text-anchor="start" x="178" y="-315.8" font-family="Helvetica,sans-Serif" font-weight="bold" font-size="11.00" fill="#000000">user_entity</text>
<text text-anchor="start" x="318.0437" y="-314.8" font-family="Helvetica,sans-Serif" font-size="11.00" fill="#000000">[table]</text>
<polygon fill="none" stroke="#000000" points="173,-284.7 173,-306.7 353,-306.7 353,-284.7 173,-284.7"/>
<image xlink:href="../../images/primaryKeys.png" width="11px" height="12px" preserveAspectRatio="xMinYMin meet" x="178" y="-301.7"/>
<text text-anchor="start" x="193" y="-291.8" font-family="Helvetica,sans-Serif" font-size="11.00" fill="#000000">id</text>
<polygon fill="#ffffff" stroke="transparent" points="173,-262.7 173,-284.7 353,-284.7 353,-262.7 173,-262.7"/>
<polygon fill="none" stroke="#000000" points="173,-262.7 173,-284.7 353,-284.7 353,-262.7 173,-262.7"/>
<text text-anchor="start" x="193" y="-269.8" font-family="Helvetica,sans-Serif" font-size="11.00" fill="#000000">email</text>
<polygon fill="#ffffff" stroke="transparent" points="173,-240.7 173,-262.7 353,-262.7 353,-240.7 173,-240.7"/>
<polygon fill="none" stroke="#000000" points="173,-240.7 173,-262.7 353,-262.7 353,-240.7 173,-240.7"/>
<text text-anchor="start" x="193" y="-247.8" font-family="Helvetica,sans-Serif" font-size="11.00" fill="#000000">email_constraint</text>
<polygon fill="#ffffff" stroke="transparent" points="173,-218.7 173,-240.7 353,-240.7 353,-218.7 173,-218.7"/>
<polygon fill="none" stroke="#000000" points="173,-218.7 173,-240.7 353,-240.7 353,-218.7 173,-218.7"/>
<image xlink:href="../../images/foreignKeys.png" width="11px" height="12px" preserveAspectRatio="xMinYMin meet" x="178" y="-235.7"/>
<text text-anchor="start" x="193" y="-225.8" font-family="Helvetica,sans-Serif" font-size="11.00" fill="#000000">realm_id</text>
<polygon fill="#ffffff" stroke="transparent" points="173,-196.7 173,-218.7 353,-218.7 353,-196.7 173,-196.7"/>
<polygon fill="none" stroke="#000000" points="173,-196.7 173,-218.7 353,-218.7 353,-196.7 173,-196.7"/>
<text text-anchor="start" x="193" y="-203.8" font-family="Helvetica,sans-Serif" font-size="11.00" fill="#000000">username</text>
<polygon fill="none" stroke="#000000" points="173,-177.7 173,-196.7 353,-196.7 353,-177.7 173,-177.7"/>
<text text-anchor="start" x="176" y="-183.8" font-family="Helvetica,sans-Serif" font-size="11.00" fill="#000000">...</text>
<polygon fill="#ffffff" stroke="transparent" points="173,-158.7 173,-177.7 247,-177.7 247,-158.7 173,-158.7"/>
<polygon fill="none" stroke="#000000" points="173,-158.7 173,-177.7 247,-177.7 247,-158.7 173,-158.7"/>
<text text-anchor="start" x="176" y="-164.8" font-family="Helvetica,sans-Serif" font-size="11.00" fill="#000000">&lt; 1</text>
<polygon fill="#ffffff" stroke="transparent" points="247,-158.7 247,-177.7 305,-177.7 305,-158.7 247,-158.7"/>
<polygon fill="none" stroke="#000000" points="247,-158.7 247,-177.7 305,-177.7 305,-158.7 247,-158.7"/>
<text text-anchor="start" x="275.1105" y="-164.8" font-family="Helvetica,sans-Serif" font-size="11.00" fill="#000000">1 row</text>
<polygon fill="#ffffff" stroke="transparent" points="305,-158.7 305,-177.7 353,-177.7 353,-158.7 305,-158.7"/>
<polygon fill="none" stroke="#000000" points="305,-158.7 305,-177.7 353,-177.7 353,-158.7 305,-158.7"/>
<text text-anchor="start" x="334.4053" y="-164.8" font-family="Helvetica,sans-Serif" font-size="11.00" fill="#000000">7 &gt;</text>
</a>
</g>
</g>
<!-- credential&#45;&gt;user_entity -->
<g id="edge1" class="edge">
<title>credential:w&#45;&gt;user_entity:e</title>
<path fill="none" stroke="#000000" d="M457.4051,-505.2199C429.0849,-503.122 414.8216,-493.6743 394,-467.7 344.8468,-406.3831 431.5863,-295.7 353,-295.7"/>
<polygon fill="#000000" stroke="#000000" points="464.0043,-505.4369 471.8816,-509.2981 468.0022,-505.5685 472,-505.7 472,-505.7 472,-505.7 468.0022,-505.5685 472.1184,-502.1019 464.0043,-505.4369 464.0043,-505.4369"/>
<ellipse fill="none" stroke="#000000" cx="460.8061" cy="-505.3317" rx="3.2" ry="3.2"/>
</g>
<!-- federated_user -->
<g id="node4" class="node">
<title>federated_user</title>
<g id="a_node4"><a xlink:href="../../tables/federated_user.html" xlink:title="federated_user" target="_top">
<polygon fill="#ffffff" stroke="transparent" points="8,-130.2 8,-191.2 124,-191.2 124,-130.2 8,-130.2"/>
<polygon fill="#f5f5f5" stroke="transparent" points="8,-167.7 8,-190.7 124,-190.7 124,-167.7 8,-167.7"/>
<polygon fill="none" stroke="#000000" points="8,-167.7 8,-190.7 124,-190.7 124,-167.7 8,-167.7"/>
<text text-anchor="start" x="12.5142" y="-176.8" font-family="Helvetica,sans-Serif" font-weight="bold" font-size="11.00" fill="#000000">federated_user</text>
<text text-anchor="start" x="89.5219" y="-175.8" font-family="Helvetica,sans-Serif" font-size="11.00" fill="#000000">[table]</text>
<polygon fill="none" stroke="#000000" points="8,-148.7 8,-167.7 124,-167.7 124,-148.7 8,-148.7"/>
<text text-anchor="start" x="11" y="-154.8" font-family="Helvetica,sans-Serif" font-size="11.00" fill="#000000">...</text>
<polygon fill="#ffffff" stroke="transparent" points="8,-129.7 8,-148.7 39,-148.7 39,-129.7 8,-129.7"/>
<polygon fill="none" stroke="#000000" points="8,-129.7 8,-148.7 39,-148.7 39,-129.7 8,-129.7"/>
<text text-anchor="start" x="11" y="-135.8" font-family="Helvetica,sans-Serif" font-size="11.00" fill="#000000"> &#160;</text>
<polygon fill="#ffffff" stroke="transparent" points="39,-129.7 39,-148.7 87,-148.7 87,-129.7 39,-129.7"/>
<polygon fill="none" stroke="#000000" points="39,-129.7 39,-148.7 87,-148.7 87,-129.7 39,-129.7"/>
<text text-anchor="start" x="51.6105" y="-135.8" font-family="Helvetica,sans-Serif" font-size="11.00" fill="#000000">0 rows</text>
<polygon fill="#ffffff" stroke="transparent" points="87,-129.7 87,-148.7 124,-148.7 124,-129.7 87,-129.7"/>
<polygon fill="none" stroke="#000000" points="87,-129.7 87,-148.7 124,-148.7 124,-129.7 87,-129.7"/>
<text text-anchor="start" x="99.2904" y="-135.8" font-family="Helvetica,sans-Serif" font-size="11.00" fill="#000000">30 &gt;</text>
</a>
</g>
</g>
<!-- user_entity&#45;&gt;federated_user -->
<g id="edge8" class="edge">
<title>user_entity:w&#45;&gt;federated_user:e</title>
<path fill="none" stroke="#000000" stroke-dasharray="5,2" d="M159.26,-224.9759C141.5334,-208.9578 156.6595,-157.7 124,-157.7"/>
<polygon fill="#000000" stroke="#000000" points="165.4347,-227.0988 171.8295,-233.1044 169.2173,-228.3994 173,-229.7 173,-229.7 173,-229.7 169.2173,-228.3994 174.1705,-226.2956 165.4347,-227.0988 165.4347,-227.0988"/>
<ellipse fill="none" stroke="#000000" cx="162.4085" cy="-226.0584" rx="3.2" ry="3.2"/>
</g>
<!-- federated_identity -->
<g id="node3" class="node">
<title>federated_identity</title>
<g id="a_node3"><a xlink:href="../../tables/federated_identity.html" xlink:title="federated_identity" target="_top">
<polygon fill="#ffffff" stroke="transparent" points="452,-560.2 452,-621.2 582,-621.2 582,-560.2 452,-560.2"/>
<polygon fill="#f5f5f5" stroke="transparent" points="452,-597.7 452,-620.7 582,-620.7 582,-597.7 452,-597.7"/>
<polygon fill="none" stroke="#000000" points="452,-597.7 452,-620.7 582,-620.7 582,-597.7 452,-597.7"/>
<text text-anchor="start" x="456.7899" y="-606.8" font-family="Helvetica,sans-Serif" font-weight="bold" font-size="11.00" fill="#000000">federated_identity</text>
<text text-anchor="start" x="547.5219" y="-605.8" font-family="Helvetica,sans-Serif" font-size="11.00" fill="#000000">[table]</text>
<polygon fill="none" stroke="#000000" points="452,-578.7 452,-597.7 582,-597.7 582,-578.7 452,-578.7"/>
<text text-anchor="start" x="455" y="-584.8" font-family="Helvetica,sans-Serif" font-size="11.00" fill="#000000">...</text>
<polygon fill="#ffffff" stroke="transparent" points="452,-559.7 452,-578.7 502,-578.7 502,-559.7 452,-559.7"/>
<polygon fill="none" stroke="#000000" points="452,-559.7 452,-578.7 502,-578.7 502,-559.7 452,-559.7"/>
<text text-anchor="start" x="455" y="-565.8" font-family="Helvetica,sans-Serif" font-size="11.00" fill="#000000">&lt; 2</text>
<polygon fill="#ffffff" stroke="transparent" points="502,-559.7 502,-578.7 555,-578.7 555,-559.7 502,-559.7"/>
<polygon fill="none" stroke="#000000" points="502,-559.7 502,-578.7 555,-578.7 555,-559.7 502,-559.7"/>
<text text-anchor="start" x="519.6105" y="-565.8" font-family="Helvetica,sans-Serif" font-size="11.00" fill="#000000">0 rows</text>
<polygon fill="#ffffff" stroke="transparent" points="555,-559.7 555,-578.7 582,-578.7 582,-559.7 555,-559.7"/>
<polygon fill="none" stroke="#000000" points="555,-559.7 555,-578.7 582,-578.7 582,-559.7 555,-559.7"/>
<text text-anchor="start" x="572.8862" y="-565.8" font-family="Helvetica,sans-Serif" font-size="11.00" fill="#000000"> &#160;</text>
</a>
</g>
</g>
<!-- federated_identity&#45;&gt;user_entity -->
<g id="edge3" class="edge">
<title>federated_identity:w&#45;&gt;user_entity:e</title>
<path fill="none" stroke="#000000" d="M437.4947,-586.5657C417.3254,-583.0066 407.8225,-571.0102 394,-549.7 362.8863,-501.732 410.1751,-295.7 353,-295.7"/>
<polygon fill="#000000" stroke="#000000" points="444.0243,-587.0763 451.7193,-591.289 448.0122,-587.3881 452,-587.7 452,-587.7 452,-587.7 448.0122,-587.3881 452.2807,-584.111 444.0243,-587.0763 444.0243,-587.0763"/>
<ellipse fill="none" stroke="#000000" cx="440.8341" cy="-586.8268" rx="3.2" ry="3.2"/>
</g>
<!-- federated_identity&#45;&gt;federated_user -->
<g id="edge2" class="edge">
<title>federated_identity:w&#45;&gt;federated_user:e</title>
<path fill="none" stroke="#000000" stroke-dasharray="5,2" d="M437.4288,-587.8224C361.0905,-588.8098 309.5998,-589.9339 165,-340.7 123.1724,-268.6055 207.3496,-157.7 124,-157.7"/>
<polygon fill="#000000" stroke="#000000" points="444.0003,-587.7672 452.0303,-591.2999 448.0001,-587.7336 452,-587.7 452,-587.7 452,-587.7 448.0001,-587.7336 451.9697,-584.1001 444.0003,-587.7672 444.0003,-587.7672"/>
<ellipse fill="none" stroke="#000000" cx="440.8004" cy="-587.7941" rx="3.2" ry="3.2"/>
</g>
<!-- user_attribute -->
<g id="node5" class="node">
<title>user_attribute</title>
<g id="a_node5"><a xlink:href="../../tables/user_attribute.html" xlink:title="user_attribute" target="_top">
<polygon fill="#ffffff" stroke="transparent" points="462,-396.2 462,-457.2 572,-457.2 572,-396.2 462,-396.2"/>
<polygon fill="#f5f5f5" stroke="transparent" points="462,-433.7 462,-456.7 572,-456.7 572,-433.7 462,-433.7"/>
<polygon fill="none" stroke="#000000" points="462,-433.7 462,-456.7 572,-456.7 572,-433.7 462,-433.7"/>
<text text-anchor="start" x="466.8802" y="-442.8" font-family="Helvetica,sans-Serif" font-weight="bold" font-size="11.00" fill="#000000">user_attribute</text>
<text text-anchor="start" x="537.5219" y="-441.8" font-family="Helvetica,sans-Serif" font-size="11.00" fill="#000000">[table]</text>
<polygon fill="none" stroke="#000000" points="462,-414.7 462,-433.7 572,-433.7 572,-414.7 462,-414.7"/>
<text text-anchor="start" x="465" y="-420.8" font-family="Helvetica,sans-Serif" font-size="11.00" fill="#000000">...</text>
<polygon fill="#ffffff" stroke="transparent" points="462,-395.7 462,-414.7 502,-414.7 502,-395.7 462,-395.7"/>
<polygon fill="none" stroke="#000000" points="462,-395.7 462,-414.7 502,-414.7 502,-395.7 462,-395.7"/>
<text text-anchor="start" x="465" y="-401.8" font-family="Helvetica,sans-Serif" font-size="11.00" fill="#000000">&lt; 1</text>
<polygon fill="#ffffff" stroke="transparent" points="502,-395.7 502,-414.7 550,-414.7 550,-395.7 502,-395.7"/>
<polygon fill="none" stroke="#000000" points="502,-395.7 502,-414.7 550,-414.7 550,-395.7 502,-395.7"/>
<text text-anchor="start" x="514.6105" y="-401.8" font-family="Helvetica,sans-Serif" font-size="11.00" fill="#000000">0 rows</text>
<polygon fill="#ffffff" stroke="transparent" points="550,-395.7 550,-414.7 572,-414.7 572,-395.7 550,-395.7"/>
<polygon fill="none" stroke="#000000" points="550,-395.7 550,-414.7 572,-414.7 572,-395.7 550,-395.7"/>
<text text-anchor="start" x="562.8862" y="-401.8" font-family="Helvetica,sans-Serif" font-size="11.00" fill="#000000"> &#160;</text>
</a>
</g>
</g>
<!-- user_attribute&#45;&gt;user_entity -->
<g id="edge4" class="edge">
<title>user_attribute:w&#45;&gt;user_entity:e</title>
<path fill="none" stroke="#000000" d="M447.4344,-422.7804C423.9474,-419.4672 413.7903,-407.1862 394,-385.7 364.2212,-353.3693 396.9551,-295.7 353,-295.7"/>
<polygon fill="#000000" stroke="#000000" points="454.0159,-423.1959 461.7731,-427.2928 458.0079,-423.4479 462,-423.7 462,-423.7 462,-423.7 458.0079,-423.4479 462.2269,-420.1072 454.0159,-423.1959 454.0159,-423.1959"/>
<ellipse fill="none" stroke="#000000" cx="450.8223" cy="-422.9942" rx="3.2" ry="3.2"/>
</g>
<!-- user_consent -->
<g id="node6" class="node">
<title>user_consent</title>
<g id="a_node6"><a xlink:href="../../tables/user_consent.html" xlink:title="user_consent" target="_top">
<polygon fill="#ffffff" stroke="transparent" points="462.5,-38.2 462.5,-99.2 571.5,-99.2 571.5,-38.2 462.5,-38.2"/>
<polygon fill="#f5f5f5" stroke="transparent" points="463,-75.7 463,-98.7 572,-98.7 572,-75.7 463,-75.7"/>
<polygon fill="none" stroke="#000000" points="463,-75.7 463,-98.7 572,-98.7 572,-75.7 463,-75.7"/>
<text text-anchor="start" x="467.9885" y="-84.8" font-family="Helvetica,sans-Serif" font-weight="bold" font-size="11.00" fill="#000000">user_consent</text>
<text text-anchor="start" x="537.5219" y="-83.8" font-family="Helvetica,sans-Serif" font-size="11.00" fill="#000000">[table]</text>
<polygon fill="none" stroke="#000000" points="463,-56.7 463,-75.7 572,-75.7 572,-56.7 463,-56.7"/>
<text text-anchor="start" x="466" y="-62.8" font-family="Helvetica,sans-Serif" font-size="11.00" fill="#000000">...</text>
<polygon fill="#ffffff" stroke="transparent" points="463,-37.7 463,-56.7 498,-56.7 498,-37.7 463,-37.7"/>
<polygon fill="none" stroke="#000000" points="463,-37.7 463,-56.7 498,-56.7 498,-37.7 463,-37.7"/>
<text text-anchor="start" x="466" y="-43.8" font-family="Helvetica,sans-Serif" font-size="11.00" fill="#000000">&lt; 3</text>
<polygon fill="#ffffff" stroke="transparent" points="498,-37.7 498,-56.7 543,-56.7 543,-37.7 498,-37.7"/>
<polygon fill="none" stroke="#000000" points="498,-37.7 498,-56.7 543,-56.7 543,-37.7 498,-37.7"/>
<text text-anchor="start" x="507.6105" y="-43.8" font-family="Helvetica,sans-Serif" font-size="11.00" fill="#000000">0 rows</text>
<polygon fill="#ffffff" stroke="transparent" points="543,-37.7 543,-56.7 572,-56.7 572,-37.7 543,-37.7"/>
<polygon fill="none" stroke="#000000" points="543,-37.7 543,-56.7 572,-56.7 572,-37.7 543,-37.7"/>
<text text-anchor="start" x="553.4053" y="-43.8" font-family="Helvetica,sans-Serif" font-size="11.00" fill="#000000">1 &gt;</text>
</a>
</g>
</g>
<!-- user_consent&#45;&gt;user_entity -->
<g id="edge7" class="edge">
<title>user_consent:w&#45;&gt;user_entity:e</title>
<path fill="none" stroke="#000000" d="M448.3182,-66.6426C422.9289,-70.2567 411.7442,-84.3144 394,-109.7 345.5029,-179.082 437.6512,-295.7 353,-295.7"/>
<polygon fill="#000000" stroke="#000000" points="455.0164,-66.2126 463.2307,-69.2926 459.0082,-65.9563 463,-65.7 463,-65.7 463,-65.7 459.0082,-65.9563 462.7693,-62.1074 455.0164,-66.2126 455.0164,-66.2126"/>
<ellipse fill="none" stroke="#000000" cx="451.823" cy="-66.4177" rx="3.2" ry="3.2"/>
</g>
<!-- user_consent&#45;&gt;federated_user -->
<g id="edge5" class="edge">
<title>user_consent:w&#45;&gt;federated_user:e</title>
<path fill="none" stroke="#000000" stroke-dasharray="5,2" d="M448.5463,-68.4534C384.3873,-83.7611 141.4945,-157.7 124,-157.7"/>
<polygon fill="#000000" stroke="#000000" points="455.1413,-67.1971 463.6737,-69.2364 459.0707,-66.4485 463,-65.7 463,-65.7 463,-65.7 459.0707,-66.4485 462.3263,-62.1636 455.1413,-67.1971 455.1413,-67.1971"/>
<ellipse fill="none" stroke="#000000" cx="451.9978" cy="-67.7959" rx="3.2" ry="3.2"/>
</g>
<!-- user_consent&#45;&gt;federated_user -->
<g id="edge6" class="edge">
<title>user_consent:w&#45;&gt;federated_user:e</title>
<path fill="none" stroke="#000000" stroke-dasharray="5,2" d="M448.3028,-67.6216C380.7604,-80.8331 159.675,-157.7 124,-157.7"/>
<polygon fill="#000000" stroke="#000000" points="455.0675,-66.7372 463.4667,-69.2696 459.0338,-66.2186 463,-65.7 463,-65.7 463,-65.7 459.0338,-66.2186 462.5333,-62.1304 455.0675,-66.7372 455.0675,-66.7372"/>
<ellipse fill="none" stroke="#000000" cx="451.8945" cy="-67.152" rx="3.2" ry="3.2"/>
</g>
<!-- user_group_membership -->
<g id="node7" class="node">
<title>user_group_membership</title>
<g id="a_node7"><a xlink:href="../../tables/user_group_membership.html" xlink:title="user_group_membership" target="_top">
<polygon fill="#ffffff" stroke="transparent" points="402,-284.7 402,-374.7 632,-374.7 632,-284.7 402,-284.7"/>
<polygon fill="#f5f5f5" stroke="transparent" points="404,-349.7 404,-372.7 630,-372.7 630,-349.7 404,-349.7"/>
<polygon fill="none" stroke="#000000" points="404,-349.7 404,-372.7 630,-372.7 630,-349.7 404,-349.7"/>
<text text-anchor="start" x="409" y="-358.8" font-family="Helvetica,sans-Serif" font-weight="bold" font-size="11.00" fill="#000000">user_group_membership</text>
<text text-anchor="start" x="595.0437" y="-357.8" font-family="Helvetica,sans-Serif" font-size="11.00" fill="#000000">[table]</text>
<polygon fill="none" stroke="#000000" points="404,-327.7 404,-349.7 569,-349.7 569,-327.7 404,-327.7"/>
<image xlink:href="../../images/primaryKeys.png" width="11px" height="12px" preserveAspectRatio="xMinYMin meet" x="409" y="-344.7"/>
<text text-anchor="start" x="424" y="-334.8" font-family="Helvetica,sans-Serif" font-size="11.00" fill="#000000">group_id</text>
<polygon fill="none" stroke="#000000" points="569,-327.7 569,-349.7 630,-349.7 630,-327.7 569,-327.7"/>
<text text-anchor="start" x="571.994" y="-335.4" font-family="Helvetica,sans-Serif" font-size="11.00" fill="#000000">varchar[36]</text>
<polygon fill="none" stroke="#000000" points="404,-305.7 404,-327.7 569,-327.7 569,-305.7 404,-305.7"/>
<image xlink:href="../../images/primaryKeys.png" width="11px" height="12px" preserveAspectRatio="xMinYMin meet" x="409" y="-322.7"/>
<text text-anchor="start" x="424" y="-312.8" font-family="Helvetica,sans-Serif" font-size="11.00" fill="#000000">user_id</text>
<polygon fill="none" stroke="#000000" points="569,-305.7 569,-327.7 630,-327.7 630,-305.7 569,-305.7"/>
<text text-anchor="start" x="571.994" y="-313.4" font-family="Helvetica,sans-Serif" font-size="11.00" fill="#000000">varchar[36]</text>
<polygon fill="#ffffff" stroke="transparent" points="404,-286.7 404,-305.7 478,-305.7 478,-286.7 404,-286.7"/>
<polygon fill="none" stroke="#000000" points="404,-286.7 404,-305.7 478,-305.7 478,-286.7 404,-286.7"/>
<text text-anchor="start" x="407" y="-292.8" font-family="Helvetica,sans-Serif" font-size="11.00" fill="#000000">&lt; 1</text>
<polygon fill="#ffffff" stroke="transparent" points="478,-286.7 478,-305.7 569,-305.7 569,-286.7 478,-286.7"/>
<polygon fill="none" stroke="#000000" points="478,-286.7 478,-305.7 569,-305.7 569,-286.7 478,-286.7"/>
<text text-anchor="start" x="533.6105" y="-292.8" font-family="Helvetica,sans-Serif" font-size="11.00" fill="#000000">0 rows</text>
<polygon fill="#ffffff" stroke="transparent" points="569,-286.7 569,-305.7 630,-305.7 630,-286.7 569,-286.7"/>
<polygon fill="none" stroke="#000000" points="569,-286.7 569,-305.7 630,-305.7 630,-286.7 569,-286.7"/>
<text text-anchor="start" x="611.4053" y="-292.8" font-family="Helvetica,sans-Serif" font-size="11.00" fill="#000000">0 &gt;</text>
<polygon fill="none" stroke="#000000" stroke-width="2" points="403,-285.7 403,-373.7 631,-373.7 631,-285.7 403,-285.7"/>
</a>
</g>
</g>
<!-- user_group_membership&#45;&gt;user_entity -->
<g id="edge9" class="edge">
<title>user_group_membership:w&#45;&gt;user_entity:e</title>
<path fill="none" stroke="#000000" d="M389.8982,-313.78C377.3236,-308.0098 371.7678,-295.7 353,-295.7"/>
<polygon fill="#000000" stroke="#000000" points="396.1662,-315.0779 403.27,-320.2252 400.0831,-315.8889 404,-316.7 404,-316.7 404,-316.7 400.0831,-315.8889 404.73,-313.1748 396.1662,-315.0779 396.1662,-315.0779"/>
<ellipse fill="none" stroke="#000000" cx="393.0326" cy="-314.429" rx="3.2" ry="3.2"/>
</g>
<!-- user_required_action -->
<g id="node8" class="node">
<title>user_required_action</title>
<g id="a_node8"><a xlink:href="../../tables/user_required_action.html" xlink:title="user_required_action" target="_top">
<polygon fill="#ffffff" stroke="transparent" points="444,-202.2 444,-263.2 590,-263.2 590,-202.2 444,-202.2"/>
<polygon fill="#f5f5f5" stroke="transparent" points="444,-239.7 444,-262.7 590,-262.7 590,-239.7 444,-239.7"/>
<polygon fill="none" stroke="#000000" points="444,-239.7 444,-262.7 590,-262.7 590,-239.7 444,-239.7"/>
<text text-anchor="start" x="448.8484" y="-248.8" font-family="Helvetica,sans-Serif" font-weight="bold" font-size="11.00" fill="#000000">user_required_action</text>
<text text-anchor="start" x="555.5219" y="-247.8" font-family="Helvetica,sans-Serif" font-size="11.00" fill="#000000">[table]</text>
<polygon fill="none" stroke="#000000" points="444,-220.7 444,-239.7 590,-239.7 590,-220.7 444,-220.7"/>
<text text-anchor="start" x="447" y="-226.8" font-family="Helvetica,sans-Serif" font-size="11.00" fill="#000000">...</text>
<polygon fill="#ffffff" stroke="transparent" points="444,-201.7 444,-220.7 502,-220.7 502,-201.7 444,-201.7"/>
<polygon fill="none" stroke="#000000" points="444,-201.7 444,-220.7 502,-220.7 502,-201.7 444,-201.7"/>
<text text-anchor="start" x="447" y="-207.8" font-family="Helvetica,sans-Serif" font-size="11.00" fill="#000000">&lt; 1</text>
<polygon fill="#ffffff" stroke="transparent" points="502,-201.7 502,-220.7 559,-220.7 559,-201.7 502,-201.7"/>
<polygon fill="none" stroke="#000000" points="502,-201.7 502,-220.7 559,-220.7 559,-201.7 502,-201.7"/>
<text text-anchor="start" x="523.6105" y="-207.8" font-family="Helvetica,sans-Serif" font-size="11.00" fill="#000000">0 rows</text>
<polygon fill="#ffffff" stroke="transparent" points="559,-201.7 559,-220.7 590,-220.7 590,-201.7 559,-201.7"/>
<polygon fill="none" stroke="#000000" points="559,-201.7 559,-220.7 590,-220.7 590,-201.7 559,-201.7"/>
<text text-anchor="start" x="580.8862" y="-207.8" font-family="Helvetica,sans-Serif" font-size="11.00" fill="#000000"> &#160;</text>
</a>
</g>
</g>
<!-- user_required_action&#45;&gt;user_entity -->
<g id="edge10" class="edge">
<title>user_required_action:w&#45;&gt;user_entity:e</title>
<path fill="none" stroke="#000000" d="M429.5655,-231.8959C395.2857,-243.3479 397.4974,-295.7 353,-295.7"/>
<polygon fill="#000000" stroke="#000000" points="436.091,-230.9033 444.5415,-233.2591 440.0455,-230.3016 444,-229.7 444,-229.7 444,-229.7 440.0455,-230.3016 443.4585,-226.1409 436.091,-230.9033 436.091,-230.9033"/>
<ellipse fill="none" stroke="#000000" cx="432.9274" cy="-231.3846" rx="3.2" ry="3.2"/>
</g>
<!-- user_role_mapping -->
<g id="node9" class="node">
<title>user_role_mapping</title>
<g id="a_node9"><a xlink:href="../../tables/user_role_mapping.html" xlink:title="user_role_mapping" target="_top">
<polygon fill="#ffffff" stroke="transparent" points="448.5,-120.2 448.5,-181.2 585.5,-181.2 585.5,-120.2 448.5,-120.2"/>
<polygon fill="#f5f5f5" stroke="transparent" points="449,-157.7 449,-180.7 586,-180.7 586,-157.7 449,-157.7"/>
<polygon fill="none" stroke="#000000" points="449,-157.7 449,-180.7 586,-180.7 586,-157.7 449,-157.7"/>
<text text-anchor="start" x="453.9343" y="-166.8" font-family="Helvetica,sans-Serif" font-weight="bold" font-size="11.00" fill="#000000">user_role_mapping</text>
<text text-anchor="start" x="551.5219" y="-165.8" font-family="Helvetica,sans-Serif" font-size="11.00" fill="#000000">[table]</text>
<polygon fill="none" stroke="#000000" points="449,-138.7 449,-157.7 586,-157.7 586,-138.7 449,-138.7"/>
<text text-anchor="start" x="452" y="-144.8" font-family="Helvetica,sans-Serif" font-size="11.00" fill="#000000">...</text>
<polygon fill="#ffffff" stroke="transparent" points="449,-119.7 449,-138.7 503,-138.7 503,-119.7 449,-119.7"/>
<polygon fill="none" stroke="#000000" points="449,-119.7 449,-138.7 503,-138.7 503,-119.7 449,-119.7"/>
<text text-anchor="start" x="452" y="-125.8" font-family="Helvetica,sans-Serif" font-size="11.00" fill="#000000">&lt; 1</text>
<polygon fill="#ffffff" stroke="transparent" points="503,-119.7 503,-138.7 557,-138.7 557,-119.7 503,-119.7"/>
<polygon fill="none" stroke="#000000" points="503,-119.7 503,-138.7 557,-138.7 557,-119.7 503,-119.7"/>
<text text-anchor="start" x="521.6105" y="-125.8" font-family="Helvetica,sans-Serif" font-size="11.00" fill="#000000">5 rows</text>
<polygon fill="#ffffff" stroke="transparent" points="557,-119.7 557,-138.7 586,-138.7 586,-119.7 557,-119.7"/>
<polygon fill="none" stroke="#000000" points="557,-119.7 557,-138.7 586,-138.7 586,-119.7 557,-119.7"/>
<text text-anchor="start" x="576.8862" y="-125.8" font-family="Helvetica,sans-Serif" font-size="11.00" fill="#000000"> &#160;</text>
</a>
</g>
</g>
<!-- user_role_mapping&#45;&gt;user_entity -->
<g id="edge11" class="edge">
<title>user_role_mapping:w&#45;&gt;user_entity:e</title>
<path fill="none" stroke="#000000" d="M434.4324,-149.4501C415.4252,-154.6666 409.2486,-171.0384 394,-191.7 364.4968,-231.6763 402.6844,-295.7 353,-295.7"/>
<polygon fill="#000000" stroke="#000000" points="441.0571,-148.6543 449.4294,-151.2743 445.0286,-148.1771 449,-147.7 449,-147.7 449,-147.7 445.0286,-148.1771 448.5706,-144.1257 441.0571,-148.6543 441.0571,-148.6543"/>
<ellipse fill="none" stroke="#000000" cx="437.88" cy="-149.036" rx="3.2" ry="3.2"/>
</g>
</g>
</svg>
