<?xml version="1.0" encoding="UTF-8" standalone="no"?>
<!DOCTYPE svg PUBLIC "-//W3C//DTD SVG 1.1//EN"
 "http://www.w3.org/Graphics/SVG/1.1/DTD/svg11.dtd">
<!-- Generated by graphviz version 2.40.1 (20161225.0304)
 -->
<!-- Title: twoDegreesRelationshipsDiagram Pages: 1 -->
<svg width="648pt" height="470pt"
 viewBox="0.00 0.00 648.00 469.70" xmlns="http://www.w3.org/2000/svg" xmlns:xlink="http://www.w3.org/1999/xlink">
<g id="graph0" class="graph" transform="scale(1 1) rotate(0) translate(4 465.7)">
<title>twoDegreesRelationshipsDiagram</title>
<polygon fill="#ffffff" stroke="transparent" points="-4,4 -4,-465.7 644,-465.7 644,4 -4,4"/>
<text text-anchor="middle" x="72.4936" y="-7.3" font-family="Helvetica,sans-Serif" font-size="11.00" fill="#000000">Generated by SchemaSpy</text>
<!-- client_session -->
<g id="node1" class="node">
<title>client_session</title>
<g id="a_node1"><a xlink:href="../../tables/client_session.html" xlink:title="client_session" target="_top">
<polygon fill="#ffffff" stroke="transparent" points="279.5,-167.7 279.5,-294.7 391.5,-294.7 391.5,-167.7 279.5,-167.7"/>
<polygon fill="#f5f5f5" stroke="transparent" points="279.5,-271.2 279.5,-294.2 391.5,-294.2 391.5,-271.2 279.5,-271.2"/>
<polygon fill="none" stroke="#000000" points="279.5,-271.2 279.5,-294.2 391.5,-294.2 391.5,-271.2 279.5,-271.2"/>
<text text-anchor="start" x="284.4655" y="-280.3" font-family="Helvetica,sans-Serif" font-weight="bold" font-size="11.00" fill="#000000">client_session</text>
<text text-anchor="start" x="357.0219" y="-279.3" font-family="Helvetica,sans-Serif" font-size="11.00" fill="#000000">[table]</text>
<polygon fill="none" stroke="#000000" points="279.5,-249.2 279.5,-271.2 391.5,-271.2 391.5,-249.2 279.5,-249.2"/>
<image xlink:href="../../images/primaryKeys.png" width="11px" height="12px" preserveAspectRatio="xMinYMin meet" x="284.5" y="-266.2"/>
<text text-anchor="start" x="303.5" y="-256.3" font-family="Helvetica,sans-Serif" font-size="11.00" fill="#000000">id</text>
<polygon fill="#ffffff" stroke="transparent" points="279.5,-227.2 279.5,-249.2 391.5,-249.2 391.5,-227.2 279.5,-227.2"/>
<polygon fill="none" stroke="#000000" points="279.5,-227.2 279.5,-249.2 391.5,-249.2 391.5,-227.2 279.5,-227.2"/>
<image xlink:href="../../images/foreignKeys.png" width="11px" height="12px" preserveAspectRatio="xMinYMin meet" x="284.5" y="-244.2"/>
<text text-anchor="start" x="303.5" y="-234.3" font-family="Helvetica,sans-Serif" font-size="11.00" fill="#000000">session_id</text>
<polygon fill="none" stroke="#000000" points="279.5,-205.2 279.5,-227.2 391.5,-227.2 391.5,-205.2 279.5,-205.2"/>
<image xlink:href="../../images/foreignKeys.png" width="11px" height="12px" preserveAspectRatio="xMinYMin meet" x="284.5" y="-222.2"/>
<text text-anchor="start" x="303.5" y="-212.3" font-family="Helvetica,sans-Serif" font-size="11.00" fill="#000000">realm_id</text>
<polygon fill="none" stroke="#000000" points="279.5,-186.2 279.5,-205.2 391.5,-205.2 391.5,-186.2 279.5,-186.2"/>
<text text-anchor="start" x="282.5" y="-192.3" font-family="Helvetica,sans-Serif" font-size="11.00" fill="#000000">...</text>
<polygon fill="#ffffff" stroke="transparent" points="279.5,-167.2 279.5,-186.2 316.5,-186.2 316.5,-167.2 279.5,-167.2"/>
<polygon fill="none" stroke="#000000" points="279.5,-167.2 279.5,-186.2 316.5,-186.2 316.5,-167.2 279.5,-167.2"/>
<text text-anchor="start" x="282.5" y="-173.3" font-family="Helvetica,sans-Serif" font-size="11.00" fill="#000000">&lt; 1</text>
<polygon fill="#ffffff" stroke="transparent" points="316.5,-167.2 316.5,-186.2 362.5,-186.2 362.5,-167.2 316.5,-167.2"/>
<polygon fill="none" stroke="#000000" points="316.5,-167.2 316.5,-186.2 362.5,-186.2 362.5,-167.2 316.5,-167.2"/>
<text text-anchor="start" x="327.1105" y="-173.3" font-family="Helvetica,sans-Serif" font-size="11.00" fill="#000000">0 rows</text>
<polygon fill="#ffffff" stroke="transparent" points="362.5,-167.2 362.5,-186.2 391.5,-186.2 391.5,-167.2 362.5,-167.2"/>
<polygon fill="none" stroke="#000000" points="362.5,-167.2 362.5,-186.2 391.5,-186.2 391.5,-167.2 362.5,-167.2"/>
<text text-anchor="start" x="372.9053" y="-173.3" font-family="Helvetica,sans-Serif" font-size="11.00" fill="#000000">5 &gt;</text>
</a>
</g>
</g>
<!-- user_session -->
<g id="node2" class="node">
<title>user_session</title>
<g id="a_node2"><a xlink:href="../../tables/user_session.html" xlink:title="user_session" target="_top">
<polygon fill="#ffffff" stroke="transparent" points="8,-38.2 8,-348.2 219,-348.2 219,-38.2 8,-38.2"/>
<polygon fill="#f5f5f5" stroke="transparent" points="10.5,-323.2 10.5,-346.2 217.5,-346.2 217.5,-323.2 10.5,-323.2"/>
<polygon fill="none" stroke="#000000" points="10.5,-323.2 10.5,-346.2 217.5,-346.2 217.5,-323.2 10.5,-323.2"/>
<text text-anchor="start" x="15.5" y="-332.3" font-family="Helvetica,sans-Serif" font-weight="bold" font-size="11.00" fill="#000000">user_session</text>
<text text-anchor="start" x="182.5437" y="-331.3" font-family="Helvetica,sans-Serif" font-size="11.00" fill="#000000">[table]</text>
<polygon fill="none" stroke="#000000" points="10.5,-301.2 10.5,-323.2 150.5,-323.2 150.5,-301.2 10.5,-301.2"/>
<image xlink:href="../../images/primaryKeys.png" width="11px" height="12px" preserveAspectRatio="xMinYMin meet" x="15.5" y="-318.2"/>
<text text-anchor="start" x="30.5" y="-308.3" font-family="Helvetica,sans-Serif" font-size="11.00" fill="#000000">id</text>
<polygon fill="none" stroke="#000000" points="150.5,-301.2 150.5,-323.2 217.5,-323.2 217.5,-301.2 150.5,-301.2"/>
<text text-anchor="start" x="153.5" y="-308.9" font-family="Helvetica,sans-Serif" font-size="11.00" fill="#000000">varchar[36]</text>
<polygon fill="none" stroke="#000000" points="10.5,-279.2 10.5,-301.2 150.5,-301.2 150.5,-279.2 10.5,-279.2"/>
<text text-anchor="start" x="30.5" y="-286.3" font-family="Helvetica,sans-Serif" font-size="11.00" fill="#000000">auth_method</text>
<polygon fill="none" stroke="#000000" points="150.5,-279.2 150.5,-301.2 217.5,-301.2 217.5,-279.2 150.5,-279.2"/>
<text text-anchor="start" x="153.4365" y="-286.9" font-family="Helvetica,sans-Serif" font-size="11.00" fill="#000000">varchar[255]</text>
<polygon fill="none" stroke="#000000" points="10.5,-257.2 10.5,-279.2 150.5,-279.2 150.5,-257.2 10.5,-257.2"/>
<text text-anchor="start" x="30.5" y="-264.3" font-family="Helvetica,sans-Serif" font-size="11.00" fill="#000000">ip_address</text>
<polygon fill="none" stroke="#000000" points="150.5,-257.2 150.5,-279.2 217.5,-279.2 217.5,-257.2 150.5,-257.2"/>
<text text-anchor="start" x="153.4365" y="-264.9" font-family="Helvetica,sans-Serif" font-size="11.00" fill="#000000">varchar[255]</text>
<polygon fill="none" stroke="#000000" points="10.5,-235.2 10.5,-257.2 150.5,-257.2 150.5,-235.2 10.5,-235.2"/>
<text text-anchor="start" x="30.5" y="-242.3" font-family="Helvetica,sans-Serif" font-size="11.00" fill="#000000">last_session_refresh</text>
<polygon fill="none" stroke="#000000" points="150.5,-235.2 150.5,-257.2 217.5,-257.2 217.5,-235.2 150.5,-235.2"/>
<text text-anchor="start" x="153.5" y="-242.9" font-family="Helvetica,sans-Serif" font-size="11.00" fill="#000000">int4[10]</text>
<polygon fill="none" stroke="#000000" points="10.5,-213.2 10.5,-235.2 150.5,-235.2 150.5,-213.2 10.5,-213.2"/>
<text text-anchor="start" x="30.5" y="-220.3" font-family="Helvetica,sans-Serif" font-size="11.00" fill="#000000">login_username</text>
<polygon fill="none" stroke="#000000" points="150.5,-213.2 150.5,-235.2 217.5,-235.2 217.5,-213.2 150.5,-213.2"/>
<text text-anchor="start" x="153.4365" y="-220.9" font-family="Helvetica,sans-Serif" font-size="11.00" fill="#000000">varchar[255]</text>
<polygon fill="none" stroke="#000000" points="10.5,-191.2 10.5,-213.2 150.5,-213.2 150.5,-191.2 10.5,-191.2"/>
<image xlink:href="../../images/foreignKeys.png" width="11px" height="12px" preserveAspectRatio="xMinYMin meet" x="15.5" y="-208.2"/>
<text text-anchor="start" x="30.5" y="-198.3" font-family="Helvetica,sans-Serif" font-size="11.00" fill="#000000">realm_id</text>
<polygon fill="none" stroke="#000000" points="150.5,-191.2 150.5,-213.2 217.5,-213.2 217.5,-191.2 150.5,-191.2"/>
<text text-anchor="start" x="153.4365" y="-198.9" font-family="Helvetica,sans-Serif" font-size="11.00" fill="#000000">varchar[255]</text>
<polygon fill="none" stroke="#000000" points="10.5,-169.2 10.5,-191.2 150.5,-191.2 150.5,-169.2 10.5,-169.2"/>
<text text-anchor="start" x="30.5" y="-176.3" font-family="Helvetica,sans-Serif" font-size="11.00" fill="#000000">remember_me</text>
<polygon fill="none" stroke="#000000" points="150.5,-169.2 150.5,-191.2 217.5,-191.2 217.5,-169.2 150.5,-169.2"/>
<text text-anchor="start" x="153.5" y="-176.9" font-family="Helvetica,sans-Serif" font-size="11.00" fill="#000000">bool[1]</text>
<polygon fill="none" stroke="#000000" points="10.5,-147.2 10.5,-169.2 150.5,-169.2 150.5,-147.2 10.5,-147.2"/>
<text text-anchor="start" x="30.5" y="-154.3" font-family="Helvetica,sans-Serif" font-size="11.00" fill="#000000">started</text>
<polygon fill="none" stroke="#000000" points="150.5,-147.2 150.5,-169.2 217.5,-169.2 217.5,-147.2 150.5,-147.2"/>
<text text-anchor="start" x="153.5" y="-154.9" font-family="Helvetica,sans-Serif" font-size="11.00" fill="#000000">int4[10]</text>
<polygon fill="none" stroke="#000000" points="10.5,-125.2 10.5,-147.2 150.5,-147.2 150.5,-125.2 10.5,-125.2"/>
<image xlink:href="../../images/foreignKeys.png" width="11px" height="12px" preserveAspectRatio="xMinYMin meet" x="15.5" y="-142.2"/>
<text text-anchor="start" x="30.5" y="-132.3" font-family="Helvetica,sans-Serif" font-size="11.00" fill="#000000">user_id</text>
<polygon fill="none" stroke="#000000" points="150.5,-125.2 150.5,-147.2 217.5,-147.2 217.5,-125.2 150.5,-125.2"/>
<text text-anchor="start" x="153.4365" y="-132.9" font-family="Helvetica,sans-Serif" font-size="11.00" fill="#000000">varchar[255]</text>
<polygon fill="none" stroke="#000000" points="10.5,-103.2 10.5,-125.2 150.5,-125.2 150.5,-103.2 10.5,-103.2"/>
<text text-anchor="start" x="30.5" y="-110.3" font-family="Helvetica,sans-Serif" font-size="11.00" fill="#000000">user_session_state</text>
<polygon fill="none" stroke="#000000" points="150.5,-103.2 150.5,-125.2 217.5,-125.2 217.5,-103.2 150.5,-103.2"/>
<text text-anchor="start" x="153.5" y="-110.9" font-family="Helvetica,sans-Serif" font-size="11.00" fill="#000000">int4[10]</text>
<polygon fill="none" stroke="#000000" points="10.5,-81.2 10.5,-103.2 150.5,-103.2 150.5,-81.2 10.5,-81.2"/>
<image xlink:href="../../images/foreignKeys.png" width="11px" height="12px" preserveAspectRatio="xMinYMin meet" x="15.5" y="-98.2"/>
<text text-anchor="start" x="30.5" y="-88.3" font-family="Helvetica,sans-Serif" font-size="11.00" fill="#000000">broker_session_id</text>
<polygon fill="none" stroke="#000000" points="150.5,-81.2 150.5,-103.2 217.5,-103.2 217.5,-81.2 150.5,-81.2"/>
<text text-anchor="start" x="153.4365" y="-88.9" font-family="Helvetica,sans-Serif" font-size="11.00" fill="#000000">varchar[255]</text>
<polygon fill="none" stroke="#000000" points="10.5,-59.2 10.5,-81.2 150.5,-81.2 150.5,-59.2 10.5,-59.2"/>
<image xlink:href="../../images/foreignKeys.png" width="11px" height="12px" preserveAspectRatio="xMinYMin meet" x="15.5" y="-76.2"/>
<text text-anchor="start" x="30.5" y="-66.3" font-family="Helvetica,sans-Serif" font-size="11.00" fill="#000000">broker_user_id</text>
<polygon fill="none" stroke="#000000" points="150.5,-59.2 150.5,-81.2 217.5,-81.2 217.5,-59.2 150.5,-59.2"/>
<text text-anchor="start" x="153.4365" y="-66.9" font-family="Helvetica,sans-Serif" font-size="11.00" fill="#000000">varchar[255]</text>
<polygon fill="#ffffff" stroke="transparent" points="10.5,-40.2 10.5,-59.2 71.5,-59.2 71.5,-40.2 10.5,-40.2"/>
<polygon fill="none" stroke="#000000" points="10.5,-40.2 10.5,-59.2 71.5,-59.2 71.5,-40.2 10.5,-40.2"/>
<text text-anchor="start" x="13.5" y="-46.3" font-family="Helvetica,sans-Serif" font-size="11.00" fill="#000000">&lt; 0</text>
<polygon fill="#ffffff" stroke="transparent" points="71.5,-40.2 71.5,-59.2 150.5,-59.2 150.5,-40.2 71.5,-40.2"/>
<polygon fill="none" stroke="#000000" points="71.5,-40.2 71.5,-59.2 150.5,-59.2 150.5,-40.2 71.5,-40.2"/>
<text text-anchor="start" x="115.1105" y="-46.3" font-family="Helvetica,sans-Serif" font-size="11.00" fill="#000000">0 rows</text>
<polygon fill="#ffffff" stroke="transparent" points="150.5,-40.2 150.5,-59.2 217.5,-59.2 217.5,-40.2 150.5,-40.2"/>
<polygon fill="none" stroke="#000000" points="150.5,-40.2 150.5,-59.2 217.5,-59.2 217.5,-40.2 150.5,-40.2"/>
<text text-anchor="start" x="198.9053" y="-46.3" font-family="Helvetica,sans-Serif" font-size="11.00" fill="#000000">2 &gt;</text>
<polygon fill="none" stroke="#000000" stroke-width="2" points="9,-39.2 9,-347.2 218,-347.2 218,-39.2 9,-39.2"/>
</a>
</g>
</g>
<!-- client_session&#45;&gt;user_session -->
<g id="edge1" class="edge">
<title>client_session:w&#45;&gt;user_session:e</title>
<path fill="none" stroke="#000000" d="M265.3019,-241.9714C241.8576,-257.0512 254.5406,-312.2 217.5,-312.2"/>
<polygon fill="#000000" stroke="#000000" points="271.7681,-240.2538 280.4242,-241.6793 275.6341,-239.2269 279.5,-238.2 279.5,-238.2 279.5,-238.2 275.6341,-239.2269 278.5758,-234.7207 271.7681,-240.2538 271.7681,-240.2538"/>
<ellipse fill="none" stroke="#000000" cx="268.6754" cy="-241.0754" rx="3.2" ry="3.2"/>
</g>
<!-- client_session_auth_status -->
<g id="node3" class="node">
<title>client_session_auth_status</title>
<g id="a_node3"><a xlink:href="../../tables/client_session_auth_status.html" xlink:title="client_session_auth_status" target="_top">
<polygon fill="#ffffff" stroke="transparent" points="454.5,-396.7 454.5,-457.7 629.5,-457.7 629.5,-396.7 454.5,-396.7"/>
<polygon fill="#f5f5f5" stroke="transparent" points="455,-434.2 455,-457.2 630,-457.2 630,-434.2 455,-434.2"/>
<polygon fill="none" stroke="#000000" points="455,-434.2 455,-457.2 630,-457.2 630,-434.2 455,-434.2"/>
<text text-anchor="start" x="459.978" y="-443.3" font-family="Helvetica,sans-Serif" font-weight="bold" font-size="11.00" fill="#000000">client_session_auth_status</text>
<text text-anchor="start" x="595.5219" y="-442.3" font-family="Helvetica,sans-Serif" font-size="11.00" fill="#000000">[table]</text>
<polygon fill="none" stroke="#000000" points="455,-415.2 455,-434.2 630,-434.2 630,-415.2 455,-415.2"/>
<text text-anchor="start" x="458" y="-421.3" font-family="Helvetica,sans-Serif" font-size="11.00" fill="#000000">...</text>
<polygon fill="#ffffff" stroke="transparent" points="455,-396.2 455,-415.2 528,-415.2 528,-396.2 455,-396.2"/>
<polygon fill="none" stroke="#000000" points="455,-396.2 455,-415.2 528,-415.2 528,-396.2 455,-396.2"/>
<text text-anchor="start" x="458" y="-402.3" font-family="Helvetica,sans-Serif" font-size="11.00" fill="#000000">&lt; 1</text>
<polygon fill="#ffffff" stroke="transparent" points="528,-396.2 528,-415.2 592,-415.2 592,-396.2 528,-396.2"/>
<polygon fill="none" stroke="#000000" points="528,-396.2 528,-415.2 592,-415.2 592,-396.2 528,-396.2"/>
<text text-anchor="start" x="556.6105" y="-402.3" font-family="Helvetica,sans-Serif" font-size="11.00" fill="#000000">0 rows</text>
<polygon fill="#ffffff" stroke="transparent" points="592,-396.2 592,-415.2 630,-415.2 630,-396.2 592,-396.2"/>
<polygon fill="none" stroke="#000000" points="592,-396.2 592,-415.2 630,-415.2 630,-396.2 592,-396.2"/>
<text text-anchor="start" x="620.8862" y="-402.3" font-family="Helvetica,sans-Serif" font-size="11.00" fill="#000000"> &#160;</text>
</a>
</g>
</g>
<!-- client_session_auth_status&#45;&gt;client_session -->
<g id="edge2" class="edge">
<title>client_session_auth_status:w&#45;&gt;client_session:e</title>
<path fill="none" stroke="#000000" d="M440.6045,-421.7544C389.3611,-401.3533 464.0135,-260.2 391.5,-260.2"/>
<polygon fill="#000000" stroke="#000000" points="447.113,-422.8601 454.397,-427.7491 451.0565,-423.53 455,-424.2 455,-424.2 455,-424.2 451.0565,-423.53 455.603,-420.6509 447.113,-422.8601 447.113,-422.8601"/>
<ellipse fill="none" stroke="#000000" cx="443.9582" cy="-422.3241" rx="3.2" ry="3.2"/>
</g>
<!-- client_session_note -->
<g id="node4" class="node">
<title>client_session_note</title>
<g id="a_node4"><a xlink:href="../../tables/client_session_note.html" xlink:title="client_session_note" target="_top">
<polygon fill="#ffffff" stroke="transparent" points="472.5,-314.7 472.5,-375.7 611.5,-375.7 611.5,-314.7 472.5,-314.7"/>
<polygon fill="#f5f5f5" stroke="transparent" points="473,-352.2 473,-375.2 612,-375.2 612,-352.2 473,-352.2"/>
<polygon fill="none" stroke="#000000" points="473,-352.2 473,-375.2 612,-375.2 612,-352.2 473,-352.2"/>
<text text-anchor="start" x="477.7073" y="-361.3" font-family="Helvetica,sans-Serif" font-weight="bold" font-size="11.00" fill="#000000">client_session_note</text>
<text text-anchor="start" x="577.5219" y="-360.3" font-family="Helvetica,sans-Serif" font-size="11.00" fill="#000000">[table]</text>
<polygon fill="none" stroke="#000000" points="473,-333.2 473,-352.2 612,-352.2 612,-333.2 473,-333.2"/>
<text text-anchor="start" x="476" y="-339.3" font-family="Helvetica,sans-Serif" font-size="11.00" fill="#000000">...</text>
<polygon fill="#ffffff" stroke="transparent" points="473,-314.2 473,-333.2 528,-333.2 528,-314.2 473,-314.2"/>
<polygon fill="none" stroke="#000000" points="473,-314.2 473,-333.2 528,-333.2 528,-314.2 473,-314.2"/>
<text text-anchor="start" x="476" y="-320.3" font-family="Helvetica,sans-Serif" font-size="11.00" fill="#000000">&lt; 1</text>
<polygon fill="#ffffff" stroke="transparent" points="528,-314.2 528,-333.2 583,-333.2 583,-314.2 528,-314.2"/>
<polygon fill="none" stroke="#000000" points="528,-314.2 528,-333.2 583,-333.2 583,-314.2 528,-314.2"/>
<text text-anchor="start" x="547.6105" y="-320.3" font-family="Helvetica,sans-Serif" font-size="11.00" fill="#000000">0 rows</text>
<polygon fill="#ffffff" stroke="transparent" points="583,-314.2 583,-333.2 612,-333.2 612,-314.2 583,-314.2"/>
<polygon fill="none" stroke="#000000" points="583,-314.2 583,-333.2 612,-333.2 612,-314.2 583,-314.2"/>
<text text-anchor="start" x="602.8862" y="-320.3" font-family="Helvetica,sans-Serif" font-size="11.00" fill="#000000"> &#160;</text>
</a>
</g>
</g>
<!-- client_session_note&#45;&gt;client_session -->
<g id="edge3" class="edge">
<title>client_session_note:w&#45;&gt;client_session:e</title>
<path fill="none" stroke="#000000" d="M458.557,-339.4717C425.3996,-325.2435 437.2633,-260.2 391.5,-260.2"/>
<polygon fill="#000000" stroke="#000000" points="465.139,-340.715 472.3318,-345.7374 469.0695,-341.4575 473,-342.2 473,-342.2 473,-342.2 469.0695,-341.4575 473.6682,-338.6626 465.139,-340.715 465.139,-340.715"/>
<ellipse fill="none" stroke="#000000" cx="461.9946" cy="-340.121" rx="3.2" ry="3.2"/>
</g>
<!-- client_session_prot_mapper -->
<g id="node5" class="node">
<title>client_session_prot_mapper</title>
<g id="a_node5"><a xlink:href="../../tables/client_session_prot_mapper.html" xlink:title="client_session_prot_mapper" target="_top">
<polygon fill="#ffffff" stroke="transparent" points="452,-232.7 452,-293.7 632,-293.7 632,-232.7 452,-232.7"/>
<polygon fill="#f5f5f5" stroke="transparent" points="452,-270.2 452,-293.2 632,-293.2 632,-270.2 452,-270.2"/>
<polygon fill="none" stroke="#000000" points="452,-270.2 452,-293.2 632,-293.2 632,-270.2 452,-270.2"/>
<text text-anchor="start" x="456.7346" y="-279.3" font-family="Helvetica,sans-Serif" font-weight="bold" font-size="11.00" fill="#000000">client_session_prot_mapper</text>
<text text-anchor="start" x="597.5219" y="-278.3" font-family="Helvetica,sans-Serif" font-size="11.00" fill="#000000">[table]</text>
<polygon fill="none" stroke="#000000" points="452,-251.2 452,-270.2 632,-270.2 632,-251.2 452,-251.2"/>
<text text-anchor="start" x="455" y="-257.3" font-family="Helvetica,sans-Serif" font-size="11.00" fill="#000000">...</text>
<polygon fill="#ffffff" stroke="transparent" points="452,-232.2 452,-251.2 527,-251.2 527,-232.2 452,-232.2"/>
<polygon fill="none" stroke="#000000" points="452,-232.2 452,-251.2 527,-251.2 527,-232.2 452,-232.2"/>
<text text-anchor="start" x="455" y="-238.3" font-family="Helvetica,sans-Serif" font-size="11.00" fill="#000000">&lt; 1</text>
<polygon fill="#ffffff" stroke="transparent" points="527,-232.2 527,-251.2 592,-251.2 592,-232.2 527,-232.2"/>
<polygon fill="none" stroke="#000000" points="527,-232.2 527,-251.2 592,-251.2 592,-232.2 527,-232.2"/>
<text text-anchor="start" x="556.6105" y="-238.3" font-family="Helvetica,sans-Serif" font-size="11.00" fill="#000000">0 rows</text>
<polygon fill="#ffffff" stroke="transparent" points="592,-232.2 592,-251.2 632,-251.2 632,-232.2 592,-232.2"/>
<polygon fill="none" stroke="#000000" points="592,-232.2 592,-251.2 632,-251.2 632,-232.2 592,-232.2"/>
<text text-anchor="start" x="622.8862" y="-238.3" font-family="Helvetica,sans-Serif" font-size="11.00" fill="#000000"> &#160;</text>
</a>
</g>
</g>
<!-- client_session_prot_mapper&#45;&gt;client_session -->
<g id="edge4" class="edge">
<title>client_session_prot_mapper:w&#45;&gt;client_session:e</title>
<path fill="none" stroke="#000000" d="M437.2977,-260.2C421.3779,-260.2 412.717,-260.2 391.5,-260.2"/>
<polygon fill="#000000" stroke="#000000" points="444,-260.2001 452,-263.8 448,-260.2 452,-260.2 452,-260.2 452,-260.2 448,-260.2 452,-256.6 444,-260.2001 444,-260.2001"/>
<ellipse fill="none" stroke="#000000" cx="440.8" cy="-260.2001" rx="3.2" ry="3.2"/>
</g>
<!-- client_session_role -->
<g id="node6" class="node">
<title>client_session_role</title>
<g id="a_node6"><a xlink:href="../../tables/client_session_role.html" xlink:title="client_session_role" target="_top">
<polygon fill="#ffffff" stroke="transparent" points="474,-150.7 474,-211.7 610,-211.7 610,-150.7 474,-150.7"/>
<polygon fill="#f5f5f5" stroke="transparent" points="474,-188.2 474,-211.2 610,-211.2 610,-188.2 474,-188.2"/>
<polygon fill="none" stroke="#000000" points="474,-188.2 474,-211.2 610,-211.2 610,-188.2 474,-188.2"/>
<text text-anchor="start" x="478.7418" y="-197.3" font-family="Helvetica,sans-Serif" font-weight="bold" font-size="11.00" fill="#000000">client_session_role</text>
<text text-anchor="start" x="575.5219" y="-196.3" font-family="Helvetica,sans-Serif" font-size="11.00" fill="#000000">[table]</text>
<polygon fill="none" stroke="#000000" points="474,-169.2 474,-188.2 610,-188.2 610,-169.2 474,-169.2"/>
<text text-anchor="start" x="477" y="-175.3" font-family="Helvetica,sans-Serif" font-size="11.00" fill="#000000">...</text>
<polygon fill="#ffffff" stroke="transparent" points="474,-150.2 474,-169.2 527,-169.2 527,-150.2 474,-150.2"/>
<polygon fill="none" stroke="#000000" points="474,-150.2 474,-169.2 527,-169.2 527,-150.2 474,-150.2"/>
<text text-anchor="start" x="477" y="-156.3" font-family="Helvetica,sans-Serif" font-size="11.00" fill="#000000">&lt; 1</text>
<polygon fill="#ffffff" stroke="transparent" points="527,-150.2 527,-169.2 581,-169.2 581,-150.2 527,-150.2"/>
<polygon fill="none" stroke="#000000" points="527,-150.2 527,-169.2 581,-169.2 581,-150.2 527,-150.2"/>
<text text-anchor="start" x="545.6105" y="-156.3" font-family="Helvetica,sans-Serif" font-size="11.00" fill="#000000">0 rows</text>
<polygon fill="#ffffff" stroke="transparent" points="581,-150.2 581,-169.2 610,-169.2 610,-150.2 581,-150.2"/>
<polygon fill="none" stroke="#000000" points="581,-150.2 581,-169.2 610,-169.2 610,-150.2 581,-150.2"/>
<text text-anchor="start" x="600.8862" y="-156.3" font-family="Helvetica,sans-Serif" font-size="11.00" fill="#000000"> &#160;</text>
</a>
</g>
</g>
<!-- client_session_role&#45;&gt;client_session -->
<g id="edge5" class="edge">
<title>client_session_role:w&#45;&gt;client_session:e</title>
<path fill="none" stroke="#000000" d="M459.452,-180.9283C426.0048,-195.1565 437.5432,-260.2 391.5,-260.2"/>
<polygon fill="#000000" stroke="#000000" points="466.1371,-179.6746 474.6636,-181.7383 470.0685,-178.9373 474,-178.2 474,-178.2 474,-178.2 470.0685,-178.9373 473.3364,-174.6617 466.1371,-179.6746 466.1371,-179.6746"/>
<ellipse fill="none" stroke="#000000" cx="462.9919" cy="-180.2645" rx="3.2" ry="3.2"/>
</g>
<!-- client_user_session_note -->
<g id="node7" class="node">
<title>client_user_session_note</title>
<g id="a_node7"><a xlink:href="../../tables/client_user_session_note.html" xlink:title="client_user_session_note" target="_top">
<polygon fill="#ffffff" stroke="transparent" points="458.5,-68.7 458.5,-129.7 625.5,-129.7 625.5,-68.7 458.5,-68.7"/>
<polygon fill="#f5f5f5" stroke="transparent" points="459,-106.2 459,-129.2 626,-129.2 626,-106.2 459,-106.2"/>
<polygon fill="none" stroke="#000000" points="459,-106.2 459,-129.2 626,-129.2 626,-106.2 459,-106.2"/>
<text text-anchor="start" x="463.954" y="-115.3" font-family="Helvetica,sans-Serif" font-weight="bold" font-size="11.00" fill="#000000">client_user_session_note</text>
<text text-anchor="start" x="591.5219" y="-114.3" font-family="Helvetica,sans-Serif" font-size="11.00" fill="#000000">[table]</text>
<polygon fill="none" stroke="#000000" points="459,-87.2 459,-106.2 626,-106.2 626,-87.2 459,-87.2"/>
<text text-anchor="start" x="462" y="-93.3" font-family="Helvetica,sans-Serif" font-size="11.00" fill="#000000">...</text>
<polygon fill="#ffffff" stroke="transparent" points="459,-68.2 459,-87.2 528,-87.2 528,-68.2 459,-68.2"/>
<polygon fill="none" stroke="#000000" points="459,-68.2 459,-87.2 528,-87.2 528,-68.2 459,-68.2"/>
<text text-anchor="start" x="462" y="-74.3" font-family="Helvetica,sans-Serif" font-size="11.00" fill="#000000">&lt; 1</text>
<polygon fill="#ffffff" stroke="transparent" points="528,-68.2 528,-87.2 590,-87.2 590,-68.2 528,-68.2"/>
<polygon fill="none" stroke="#000000" points="528,-68.2 528,-87.2 590,-87.2 590,-68.2 528,-68.2"/>
<text text-anchor="start" x="554.6105" y="-74.3" font-family="Helvetica,sans-Serif" font-size="11.00" fill="#000000">0 rows</text>
<polygon fill="#ffffff" stroke="transparent" points="590,-68.2 590,-87.2 626,-87.2 626,-68.2 590,-68.2"/>
<polygon fill="none" stroke="#000000" points="590,-68.2 590,-87.2 626,-87.2 626,-68.2 590,-68.2"/>
<text text-anchor="start" x="616.8862" y="-74.3" font-family="Helvetica,sans-Serif" font-size="11.00" fill="#000000"> &#160;</text>
</a>
</g>
</g>
<!-- client_user_session_note&#45;&gt;client_session -->
<g id="edge6" class="edge">
<title>client_user_session_note:w&#45;&gt;client_session:e</title>
<path fill="none" stroke="#000000" d="M444.7622,-98.5184C392.0197,-118.4517 464.7791,-260.2 391.5,-260.2"/>
<polygon fill="#000000" stroke="#000000" points="451.104,-97.4858 459.5786,-99.7532 455.052,-96.8429 459,-96.2 459,-96.2 459,-96.2 455.052,-96.8429 458.4214,-92.6468 451.104,-97.4858 451.104,-97.4858"/>
<ellipse fill="none" stroke="#000000" cx="447.9456" cy="-98.0001" rx="3.2" ry="3.2"/>
</g>
<!-- user_session_note -->
<g id="node8" class="node">
<title>user_session_note</title>
<g id="a_node8"><a xlink:href="../../tables/user_session_note.html" xlink:title="user_session_note" target="_top">
<polygon fill="#ffffff" stroke="transparent" points="268,-315.7 268,-420.7 403,-420.7 403,-315.7 268,-315.7"/>
<polygon fill="#f5f5f5" stroke="transparent" points="268.5,-397.2 268.5,-420.2 403.5,-420.2 403.5,-397.2 268.5,-397.2"/>
<polygon fill="none" stroke="#000000" points="268.5,-397.2 268.5,-420.2 403.5,-420.2 403.5,-397.2 268.5,-397.2"/>
<text text-anchor="start" x="273.3457" y="-406.3" font-family="Helvetica,sans-Serif" font-weight="bold" font-size="11.00" fill="#000000">user_session_note</text>
<text text-anchor="start" x="369.0219" y="-405.3" font-family="Helvetica,sans-Serif" font-size="11.00" fill="#000000">[table]</text>
<polygon fill="none" stroke="#000000" points="268.5,-375.2 268.5,-397.2 403.5,-397.2 403.5,-375.2 268.5,-375.2"/>
<image xlink:href="../../images/primaryKeys.png" width="11px" height="12px" preserveAspectRatio="xMinYMin meet" x="273.5" y="-392.2"/>
<text text-anchor="start" x="291.5" y="-382.3" font-family="Helvetica,sans-Serif" font-size="11.00" fill="#000000">user_session</text>
<polygon fill="none" stroke="#000000" points="268.5,-353.2 268.5,-375.2 403.5,-375.2 403.5,-353.2 268.5,-353.2"/>
<image xlink:href="../../images/primaryKeys.png" width="11px" height="12px" preserveAspectRatio="xMinYMin meet" x="273.5" y="-370.2"/>
<text text-anchor="start" x="291.5" y="-360.3" font-family="Helvetica,sans-Serif" font-size="11.00" fill="#000000">name</text>
<polygon fill="none" stroke="#000000" points="268.5,-334.2 268.5,-353.2 403.5,-353.2 403.5,-334.2 268.5,-334.2"/>
<text text-anchor="start" x="271.5" y="-340.3" font-family="Helvetica,sans-Serif" font-size="11.00" fill="#000000">...</text>
<polygon fill="#ffffff" stroke="transparent" points="268.5,-315.2 268.5,-334.2 321.5,-334.2 321.5,-315.2 268.5,-315.2"/>
<polygon fill="none" stroke="#000000" points="268.5,-315.2 268.5,-334.2 321.5,-334.2 321.5,-315.2 268.5,-315.2"/>
<text text-anchor="start" x="271.5" y="-321.3" font-family="Helvetica,sans-Serif" font-size="11.00" fill="#000000">&lt; 1</text>
<polygon fill="#ffffff" stroke="transparent" points="321.5,-315.2 321.5,-334.2 375.5,-334.2 375.5,-315.2 321.5,-315.2"/>
<polygon fill="none" stroke="#000000" points="321.5,-315.2 321.5,-334.2 375.5,-334.2 375.5,-315.2 321.5,-315.2"/>
<text text-anchor="start" x="340.1105" y="-321.3" font-family="Helvetica,sans-Serif" font-size="11.00" fill="#000000">0 rows</text>
<polygon fill="#ffffff" stroke="transparent" points="375.5,-315.2 375.5,-334.2 403.5,-334.2 403.5,-315.2 375.5,-315.2"/>
<polygon fill="none" stroke="#000000" points="375.5,-315.2 375.5,-334.2 403.5,-334.2 403.5,-315.2 375.5,-315.2"/>
<text text-anchor="start" x="394.3862" y="-321.3" font-family="Helvetica,sans-Serif" font-size="11.00" fill="#000000"> &#160;</text>
</a>
</g>
</g>
<!-- user_session_note&#45;&gt;user_session -->
<g id="edge7" class="edge">
<title>user_session_note:w&#45;&gt;user_session:e</title>
<path fill="none" stroke="#000000" d="M254.5503,-381.571C235.7607,-365.3706 251.3581,-312.2 217.5,-312.2"/>
<polygon fill="#000000" stroke="#000000" points="260.9071,-383.6804 267.3662,-389.6168 264.7036,-384.9402 268.5,-386.2 268.5,-386.2 268.5,-386.2 264.7036,-384.9402 269.6338,-382.7832 260.9071,-383.6804 260.9071,-383.6804"/>
<ellipse fill="none" stroke="#000000" cx="257.87" cy="-382.6725" rx="3.2" ry="3.2"/>
</g>
</g>
</svg>
