<?xml version="1.0" encoding="UTF-8" standalone="no"?>
<!DOCTYPE svg PUBLIC "-//W3C//DTD SVG 1.1//EN"
 "http://www.w3.org/Graphics/SVG/1.1/DTD/svg11.dtd">
<!-- Generated by graphviz version 2.40.1 (20161225.0304)
 -->
<!-- Title: twoDegreesRelationshipsDiagram Pages: 1 -->
<svg width="714pt" height="943pt"
 viewBox="0.00 0.00 714.00 942.70" xmlns="http://www.w3.org/2000/svg" xmlns:xlink="http://www.w3.org/1999/xlink">
<g id="graph0" class="graph" transform="scale(1 1) rotate(0) translate(4 938.7)">
<title>twoDegreesRelationshipsDiagram</title>
<polygon fill="#ffffff" stroke="transparent" points="-4,4 -4,-938.7 710,-938.7 710,4 -4,4"/>
<text text-anchor="middle" x="72.4936" y="-7.3" font-family="Helvetica,sans-Serif" font-size="11.00" fill="#000000">Generated by SchemaSpy</text>
<!-- credential -->
<g id="node1" class="node">
<title>credential</title>
<g id="a_node1"><a xlink:href="../../tables/credential.html" xlink:title="credential" target="_top">
<polygon fill="#ffffff" stroke="transparent" points="336,-825.7 336,-930.7 445,-930.7 445,-825.7 336,-825.7"/>
<polygon fill="#f5f5f5" stroke="transparent" points="336.5,-907.2 336.5,-930.2 445.5,-930.2 445.5,-907.2 336.5,-907.2"/>
<polygon fill="none" stroke="#000000" points="336.5,-907.2 336.5,-930.2 445.5,-930.2 445.5,-907.2 336.5,-907.2"/>
<text text-anchor="start" x="341.5" y="-916.3" font-family="Helvetica,sans-Serif" font-weight="bold" font-size="11.00" fill="#000000">credential</text>
<text text-anchor="start" x="410.5437" y="-915.3" font-family="Helvetica,sans-Serif" font-size="11.00" fill="#000000">[table]</text>
<polygon fill="none" stroke="#000000" points="336.5,-885.2 336.5,-907.2 445.5,-907.2 445.5,-885.2 336.5,-885.2"/>
<image xlink:href="../../images/primaryKeys.png" width="11px" height="12px" preserveAspectRatio="xMinYMin meet" x="341.5" y="-902.2"/>
<text text-anchor="start" x="356.5" y="-892.3" font-family="Helvetica,sans-Serif" font-size="11.00" fill="#000000">id</text>
<polygon fill="#ffffff" stroke="transparent" points="336.5,-863.2 336.5,-885.2 445.5,-885.2 445.5,-863.2 336.5,-863.2"/>
<polygon fill="none" stroke="#000000" points="336.5,-863.2 336.5,-885.2 445.5,-885.2 445.5,-863.2 336.5,-863.2"/>
<image xlink:href="../../images/foreignKeys.png" width="11px" height="12px" preserveAspectRatio="xMinYMin meet" x="341.5" y="-880.2"/>
<text text-anchor="start" x="356.5" y="-870.3" font-family="Helvetica,sans-Serif" font-size="11.00" fill="#000000">user_id</text>
<polygon fill="none" stroke="#000000" points="336.5,-844.2 336.5,-863.2 445.5,-863.2 445.5,-844.2 336.5,-844.2"/>
<text text-anchor="start" x="339.5" y="-850.3" font-family="Helvetica,sans-Serif" font-size="11.00" fill="#000000">...</text>
<polygon fill="#ffffff" stroke="transparent" points="336.5,-825.2 336.5,-844.2 379.5,-844.2 379.5,-825.2 336.5,-825.2"/>
<polygon fill="none" stroke="#000000" points="336.5,-825.2 336.5,-844.2 379.5,-844.2 379.5,-825.2 336.5,-825.2"/>
<text text-anchor="start" x="339.5" y="-831.3" font-family="Helvetica,sans-Serif" font-size="11.00" fill="#000000">&lt; 1</text>
<polygon fill="#ffffff" stroke="transparent" points="379.5,-825.2 379.5,-844.2 422.5,-844.2 422.5,-825.2 379.5,-825.2"/>
<polygon fill="none" stroke="#000000" points="379.5,-825.2 379.5,-844.2 422.5,-844.2 422.5,-825.2 379.5,-825.2"/>
<text text-anchor="start" x="392.6105" y="-831.3" font-family="Helvetica,sans-Serif" font-size="11.00" fill="#000000">1 row</text>
<polygon fill="#ffffff" stroke="transparent" points="422.5,-825.2 422.5,-844.2 445.5,-844.2 445.5,-825.2 422.5,-825.2"/>
<polygon fill="none" stroke="#000000" points="422.5,-825.2 422.5,-844.2 445.5,-844.2 445.5,-825.2 422.5,-825.2"/>
<text text-anchor="start" x="436.3862" y="-831.3" font-family="Helvetica,sans-Serif" font-size="11.00" fill="#000000"> &#160;</text>
</a>
</g>
</g>
<!-- user_entity -->
<g id="node2" class="node">
<title>user_entity</title>
<g id="a_node2"><a xlink:href="../../tables/user_entity.html" xlink:title="user_entity" target="_top">
<polygon fill="#ffffff" stroke="transparent" points="8,-156.2 8,-488.2 259,-488.2 259,-156.2 8,-156.2"/>
<polygon fill="#f5f5f5" stroke="transparent" points="10.5,-463.2 10.5,-486.2 257.5,-486.2 257.5,-463.2 10.5,-463.2"/>
<polygon fill="none" stroke="#000000" points="10.5,-463.2 10.5,-486.2 257.5,-486.2 257.5,-463.2 10.5,-463.2"/>
<text text-anchor="start" x="15.5" y="-472.3" font-family="Helvetica,sans-Serif" font-weight="bold" font-size="11.00" fill="#000000">user_entity</text>
<text text-anchor="start" x="222.5437" y="-471.3" font-family="Helvetica,sans-Serif" font-size="11.00" fill="#000000">[table]</text>
<polygon fill="none" stroke="#000000" points="10.5,-441.2 10.5,-463.2 190.5,-463.2 190.5,-441.2 10.5,-441.2"/>
<image xlink:href="../../images/primaryKeys.png" width="11px" height="12px" preserveAspectRatio="xMinYMin meet" x="15.5" y="-458.2"/>
<text text-anchor="start" x="30.5" y="-448.3" font-family="Helvetica,sans-Serif" font-size="11.00" fill="#000000">id</text>
<polygon fill="none" stroke="#000000" points="190.5,-441.2 190.5,-463.2 257.5,-463.2 257.5,-441.2 190.5,-441.2"/>
<text text-anchor="start" x="193.5" y="-448.9" font-family="Helvetica,sans-Serif" font-size="11.00" fill="#000000">varchar[36]</text>
<polygon fill="#ffffff" stroke="transparent" points="10.5,-419.2 10.5,-441.2 190.5,-441.2 190.5,-419.2 10.5,-419.2"/>
<polygon fill="none" stroke="#000000" points="10.5,-419.2 10.5,-441.2 190.5,-441.2 190.5,-419.2 10.5,-419.2"/>
<text text-anchor="start" x="30.5" y="-426.3" font-family="Helvetica,sans-Serif" font-size="11.00" fill="#000000">email</text>
<polygon fill="none" stroke="#000000" points="190.5,-419.2 190.5,-441.2 257.5,-441.2 257.5,-419.2 190.5,-419.2"/>
<text text-anchor="start" x="193.4365" y="-426.9" font-family="Helvetica,sans-Serif" font-size="11.00" fill="#000000">varchar[255]</text>
<polygon fill="#ffffff" stroke="transparent" points="10.5,-397.2 10.5,-419.2 190.5,-419.2 190.5,-397.2 10.5,-397.2"/>
<polygon fill="none" stroke="#000000" points="10.5,-397.2 10.5,-419.2 190.5,-419.2 190.5,-397.2 10.5,-397.2"/>
<text text-anchor="start" x="30.5" y="-404.3" font-family="Helvetica,sans-Serif" font-size="11.00" fill="#000000">email_constraint</text>
<polygon fill="none" stroke="#000000" points="190.5,-397.2 190.5,-419.2 257.5,-419.2 257.5,-397.2 190.5,-397.2"/>
<text text-anchor="start" x="193.4365" y="-404.9" font-family="Helvetica,sans-Serif" font-size="11.00" fill="#000000">varchar[255]</text>
<polygon fill="none" stroke="#000000" points="10.5,-375.2 10.5,-397.2 190.5,-397.2 190.5,-375.2 10.5,-375.2"/>
<text text-anchor="start" x="30.5" y="-382.3" font-family="Helvetica,sans-Serif" font-size="11.00" fill="#000000">email_verified</text>
<polygon fill="none" stroke="#000000" points="190.5,-375.2 190.5,-397.2 257.5,-397.2 257.5,-375.2 190.5,-375.2"/>
<text text-anchor="start" x="193.5" y="-382.9" font-family="Helvetica,sans-Serif" font-size="11.00" fill="#000000">bool[1]</text>
<polygon fill="none" stroke="#000000" points="10.5,-353.2 10.5,-375.2 190.5,-375.2 190.5,-353.2 10.5,-353.2"/>
<text text-anchor="start" x="30.5" y="-360.3" font-family="Helvetica,sans-Serif" font-size="11.00" fill="#000000">enabled</text>
<polygon fill="none" stroke="#000000" points="190.5,-353.2 190.5,-375.2 257.5,-375.2 257.5,-353.2 190.5,-353.2"/>
<text text-anchor="start" x="193.5" y="-360.9" font-family="Helvetica,sans-Serif" font-size="11.00" fill="#000000">bool[1]</text>
<polygon fill="none" stroke="#000000" points="10.5,-331.2 10.5,-353.2 190.5,-353.2 190.5,-331.2 10.5,-331.2"/>
<text text-anchor="start" x="30.5" y="-338.3" font-family="Helvetica,sans-Serif" font-size="11.00" fill="#000000">federation_link</text>
<polygon fill="none" stroke="#000000" points="190.5,-331.2 190.5,-353.2 257.5,-353.2 257.5,-331.2 190.5,-331.2"/>
<text text-anchor="start" x="193.4365" y="-338.9" font-family="Helvetica,sans-Serif" font-size="11.00" fill="#000000">varchar[255]</text>
<polygon fill="none" stroke="#000000" points="10.5,-309.2 10.5,-331.2 190.5,-331.2 190.5,-309.2 10.5,-309.2"/>
<text text-anchor="start" x="30.5" y="-316.3" font-family="Helvetica,sans-Serif" font-size="11.00" fill="#000000">first_name</text>
<polygon fill="none" stroke="#000000" points="190.5,-309.2 190.5,-331.2 257.5,-331.2 257.5,-309.2 190.5,-309.2"/>
<text text-anchor="start" x="193.4365" y="-316.9" font-family="Helvetica,sans-Serif" font-size="11.00" fill="#000000">varchar[255]</text>
<polygon fill="none" stroke="#000000" points="10.5,-287.2 10.5,-309.2 190.5,-309.2 190.5,-287.2 10.5,-287.2"/>
<text text-anchor="start" x="30.5" y="-294.3" font-family="Helvetica,sans-Serif" font-size="11.00" fill="#000000">last_name</text>
<polygon fill="none" stroke="#000000" points="190.5,-287.2 190.5,-309.2 257.5,-309.2 257.5,-287.2 190.5,-287.2"/>
<text text-anchor="start" x="193.4365" y="-294.9" font-family="Helvetica,sans-Serif" font-size="11.00" fill="#000000">varchar[255]</text>
<polygon fill="#ffffff" stroke="transparent" points="10.5,-265.2 10.5,-287.2 190.5,-287.2 190.5,-265.2 10.5,-265.2"/>
<polygon fill="none" stroke="#000000" points="10.5,-265.2 10.5,-287.2 190.5,-287.2 190.5,-265.2 10.5,-265.2"/>
<image xlink:href="../../images/foreignKeys.png" width="11px" height="12px" preserveAspectRatio="xMinYMin meet" x="15.5" y="-282.2"/>
<text text-anchor="start" x="30.5" y="-272.3" font-family="Helvetica,sans-Serif" font-size="11.00" fill="#000000">realm_id</text>
<polygon fill="none" stroke="#000000" points="190.5,-265.2 190.5,-287.2 257.5,-287.2 257.5,-265.2 190.5,-265.2"/>
<text text-anchor="start" x="193.4365" y="-272.9" font-family="Helvetica,sans-Serif" font-size="11.00" fill="#000000">varchar[255]</text>
<polygon fill="#ffffff" stroke="transparent" points="10.5,-243.2 10.5,-265.2 190.5,-265.2 190.5,-243.2 10.5,-243.2"/>
<polygon fill="none" stroke="#000000" points="10.5,-243.2 10.5,-265.2 190.5,-265.2 190.5,-243.2 10.5,-243.2"/>
<text text-anchor="start" x="30.5" y="-250.3" font-family="Helvetica,sans-Serif" font-size="11.00" fill="#000000">username</text>
<polygon fill="none" stroke="#000000" points="190.5,-243.2 190.5,-265.2 257.5,-265.2 257.5,-243.2 190.5,-243.2"/>
<text text-anchor="start" x="193.4365" y="-250.9" font-family="Helvetica,sans-Serif" font-size="11.00" fill="#000000">varchar[255]</text>
<polygon fill="none" stroke="#000000" points="10.5,-221.2 10.5,-243.2 190.5,-243.2 190.5,-221.2 10.5,-221.2"/>
<text text-anchor="start" x="30.5" y="-228.3" font-family="Helvetica,sans-Serif" font-size="11.00" fill="#000000">created_timestamp</text>
<polygon fill="none" stroke="#000000" points="190.5,-221.2 190.5,-243.2 257.5,-243.2 257.5,-221.2 190.5,-221.2"/>
<text text-anchor="start" x="193.5" y="-228.9" font-family="Helvetica,sans-Serif" font-size="11.00" fill="#000000">int8[19]</text>
<polygon fill="none" stroke="#000000" points="10.5,-199.2 10.5,-221.2 190.5,-221.2 190.5,-199.2 10.5,-199.2"/>
<text text-anchor="start" x="30.5" y="-206.3" font-family="Helvetica,sans-Serif" font-size="11.00" fill="#000000">service_account_client_link</text>
<polygon fill="none" stroke="#000000" points="190.5,-199.2 190.5,-221.2 257.5,-221.2 257.5,-199.2 190.5,-199.2"/>
<text text-anchor="start" x="193.4365" y="-206.9" font-family="Helvetica,sans-Serif" font-size="11.00" fill="#000000">varchar[255]</text>
<polygon fill="none" stroke="#000000" points="10.5,-177.2 10.5,-199.2 190.5,-199.2 190.5,-177.2 10.5,-177.2"/>
<text text-anchor="start" x="30.5" y="-184.3" font-family="Helvetica,sans-Serif" font-size="11.00" fill="#000000">not_before</text>
<polygon fill="none" stroke="#000000" points="190.5,-177.2 190.5,-199.2 257.5,-199.2 257.5,-177.2 190.5,-177.2"/>
<text text-anchor="start" x="193.5" y="-184.9" font-family="Helvetica,sans-Serif" font-size="11.00" fill="#000000">int4[10]</text>
<polygon fill="#ffffff" stroke="transparent" points="10.5,-158.2 10.5,-177.2 94.5,-177.2 94.5,-158.2 10.5,-158.2"/>
<polygon fill="none" stroke="#000000" points="10.5,-158.2 10.5,-177.2 94.5,-177.2 94.5,-158.2 10.5,-158.2"/>
<text text-anchor="start" x="13.5" y="-164.3" font-family="Helvetica,sans-Serif" font-size="11.00" fill="#000000">&lt; 0</text>
<polygon fill="#ffffff" stroke="transparent" points="94.5,-158.2 94.5,-177.2 190.5,-177.2 190.5,-158.2 94.5,-158.2"/>
<polygon fill="none" stroke="#000000" points="94.5,-158.2 94.5,-177.2 190.5,-177.2 190.5,-158.2 94.5,-158.2"/>
<text text-anchor="start" x="160.6105" y="-164.3" font-family="Helvetica,sans-Serif" font-size="11.00" fill="#000000">1 row</text>
<polygon fill="#ffffff" stroke="transparent" points="190.5,-158.2 190.5,-177.2 257.5,-177.2 257.5,-158.2 190.5,-158.2"/>
<polygon fill="none" stroke="#000000" points="190.5,-158.2 190.5,-177.2 257.5,-177.2 257.5,-158.2 190.5,-158.2"/>
<text text-anchor="start" x="238.9053" y="-164.3" font-family="Helvetica,sans-Serif" font-size="11.00" fill="#000000">7 &gt;</text>
<polygon fill="none" stroke="#000000" stroke-width="2" points="9,-157.2 9,-487.2 258,-487.2 258,-157.2 9,-157.2"/>
</a>
</g>
</g>
<!-- credential&#45;&gt;user_entity -->
<g id="edge1" class="edge">
<title>credential:w&#45;&gt;user_entity:e</title>
<path fill="none" stroke="#000000" d="M322.2074,-870.2918C253.0947,-827.7492 347.503,-452.2 257.5,-452.2"/>
<polygon fill="#000000" stroke="#000000" points="328.7833,-872.0899 335.5505,-877.6725 332.6416,-873.145 336.5,-874.2 336.5,-874.2 336.5,-874.2 332.6416,-873.145 337.4495,-870.7275 328.7833,-872.0899 328.7833,-872.0899"/>
<ellipse fill="none" stroke="#000000" cx="325.6966" cy="-871.2459" rx="3.2" ry="3.2"/>
</g>
<!-- federated_identity -->
<g id="node3" class="node">
<title>federated_identity</title>
<g id="a_node3"><a xlink:href="../../tables/federated_identity.html" xlink:title="federated_identity" target="_top">
<polygon fill="#ffffff" stroke="transparent" points="321.5,-677.7 321.5,-804.7 459.5,-804.7 459.5,-677.7 321.5,-677.7"/>
<polygon fill="#f5f5f5" stroke="transparent" points="321.5,-781.2 321.5,-804.2 459.5,-804.2 459.5,-781.2 321.5,-781.2"/>
<polygon fill="none" stroke="#000000" points="321.5,-781.2 321.5,-804.2 459.5,-804.2 459.5,-781.2 321.5,-781.2"/>
<text text-anchor="start" x="326.5" y="-790.3" font-family="Helvetica,sans-Serif" font-weight="bold" font-size="11.00" fill="#000000">federated_identity</text>
<text text-anchor="start" x="424.5437" y="-789.3" font-family="Helvetica,sans-Serif" font-size="11.00" fill="#000000">[table]</text>
<polygon fill="none" stroke="#000000" points="321.5,-759.2 321.5,-781.2 459.5,-781.2 459.5,-759.2 321.5,-759.2"/>
<image xlink:href="../../images/primaryKeys.png" width="11px" height="12px" preserveAspectRatio="xMinYMin meet" x="326.5" y="-776.2"/>
<text text-anchor="start" x="341.5" y="-766.3" font-family="Helvetica,sans-Serif" font-size="11.00" fill="#000000">identity_provider</text>
<polygon fill="#ffffff" stroke="transparent" points="321.5,-737.2 321.5,-759.2 459.5,-759.2 459.5,-737.2 321.5,-737.2"/>
<polygon fill="none" stroke="#000000" points="321.5,-737.2 321.5,-759.2 459.5,-759.2 459.5,-737.2 321.5,-737.2"/>
<image xlink:href="../../images/foreignKeys.png" width="11px" height="12px" preserveAspectRatio="xMinYMin meet" x="326.5" y="-754.2"/>
<text text-anchor="start" x="341.5" y="-744.3" font-family="Helvetica,sans-Serif" font-size="11.00" fill="#000000">federated_user_id</text>
<polygon fill="none" stroke="#000000" points="321.5,-715.2 321.5,-737.2 459.5,-737.2 459.5,-715.2 321.5,-715.2"/>
<image xlink:href="../../images/primaryKeys.png" width="11px" height="12px" preserveAspectRatio="xMinYMin meet" x="326.5" y="-732.2"/>
<text text-anchor="start" x="341.5" y="-722.3" font-family="Helvetica,sans-Serif" font-size="11.00" fill="#000000">user_id</text>
<polygon fill="none" stroke="#000000" points="321.5,-696.2 321.5,-715.2 459.5,-715.2 459.5,-696.2 321.5,-696.2"/>
<text text-anchor="start" x="324.5" y="-702.3" font-family="Helvetica,sans-Serif" font-size="11.00" fill="#000000">...</text>
<polygon fill="#ffffff" stroke="transparent" points="321.5,-677.2 321.5,-696.2 375.5,-696.2 375.5,-677.2 321.5,-677.2"/>
<polygon fill="none" stroke="#000000" points="321.5,-677.2 321.5,-696.2 375.5,-696.2 375.5,-677.2 321.5,-677.2"/>
<text text-anchor="start" x="324.5" y="-683.3" font-family="Helvetica,sans-Serif" font-size="11.00" fill="#000000">&lt; 1</text>
<polygon fill="#ffffff" stroke="transparent" points="375.5,-677.2 375.5,-696.2 430.5,-696.2 430.5,-677.2 375.5,-677.2"/>
<polygon fill="none" stroke="#000000" points="375.5,-677.2 375.5,-696.2 430.5,-696.2 430.5,-677.2 375.5,-677.2"/>
<text text-anchor="start" x="395.1105" y="-683.3" font-family="Helvetica,sans-Serif" font-size="11.00" fill="#000000">0 rows</text>
<polygon fill="#ffffff" stroke="transparent" points="430.5,-677.2 430.5,-696.2 459.5,-696.2 459.5,-677.2 430.5,-677.2"/>
<polygon fill="none" stroke="#000000" points="430.5,-677.2 430.5,-696.2 459.5,-696.2 459.5,-677.2 430.5,-677.2"/>
<text text-anchor="start" x="450.3862" y="-683.3" font-family="Helvetica,sans-Serif" font-size="11.00" fill="#000000"> &#160;</text>
</a>
</g>
</g>
<!-- federated_identity&#45;&gt;user_entity -->
<g id="edge2" class="edge">
<title>federated_identity:w&#45;&gt;user_entity:e</title>
<path fill="none" stroke="#000000" d="M307.9608,-720.4771C268.5534,-681.1298 314.6543,-452.2 257.5,-452.2"/>
<polygon fill="#000000" stroke="#000000" points="314.1312,-723.0853 320.0984,-729.5159 317.8156,-724.6426 321.5,-726.2 321.5,-726.2 321.5,-726.2 317.8156,-724.6426 322.9016,-722.8841 314.1312,-723.0853 314.1312,-723.0853"/>
<ellipse fill="none" stroke="#000000" cx="311.1837" cy="-721.8394" rx="3.2" ry="3.2"/>
</g>
<!-- user_attribute -->
<g id="node4" class="node">
<title>user_attribute</title>
<g id="a_node4"><a xlink:href="../../tables/user_attribute.html" xlink:title="user_attribute" target="_top">
<polygon fill="#ffffff" stroke="transparent" points="335.5,-551.7 335.5,-656.7 445.5,-656.7 445.5,-551.7 335.5,-551.7"/>
<polygon fill="#f5f5f5" stroke="transparent" points="335.5,-633.2 335.5,-656.2 445.5,-656.2 445.5,-633.2 335.5,-633.2"/>
<polygon fill="none" stroke="#000000" points="335.5,-633.2 335.5,-656.2 445.5,-656.2 445.5,-633.2 335.5,-633.2"/>
<text text-anchor="start" x="340.3802" y="-642.3" font-family="Helvetica,sans-Serif" font-weight="bold" font-size="11.00" fill="#000000">user_attribute</text>
<text text-anchor="start" x="411.0219" y="-641.3" font-family="Helvetica,sans-Serif" font-size="11.00" fill="#000000">[table]</text>
<polygon fill="#ffffff" stroke="transparent" points="335.5,-611.2 335.5,-633.2 445.5,-633.2 445.5,-611.2 335.5,-611.2"/>
<polygon fill="none" stroke="#000000" points="335.5,-611.2 335.5,-633.2 445.5,-633.2 445.5,-611.2 335.5,-611.2"/>
<image xlink:href="../../images/foreignKeys.png" width="11px" height="12px" preserveAspectRatio="xMinYMin meet" x="340.5" y="-628.2"/>
<text text-anchor="start" x="360.5" y="-618.3" font-family="Helvetica,sans-Serif" font-size="11.00" fill="#000000">user_id</text>
<polygon fill="none" stroke="#000000" points="335.5,-589.2 335.5,-611.2 445.5,-611.2 445.5,-589.2 335.5,-589.2"/>
<image xlink:href="../../images/primaryKeys.png" width="11px" height="12px" preserveAspectRatio="xMinYMin meet" x="340.5" y="-606.2"/>
<text text-anchor="start" x="360.5" y="-596.3" font-family="Helvetica,sans-Serif" font-size="11.00" fill="#000000">id</text>
<polygon fill="none" stroke="#000000" points="335.5,-570.2 335.5,-589.2 445.5,-589.2 445.5,-570.2 335.5,-570.2"/>
<text text-anchor="start" x="338.5" y="-576.3" font-family="Helvetica,sans-Serif" font-size="11.00" fill="#000000">...</text>
<polygon fill="#ffffff" stroke="transparent" points="335.5,-551.2 335.5,-570.2 375.5,-570.2 375.5,-551.2 335.5,-551.2"/>
<polygon fill="none" stroke="#000000" points="335.5,-551.2 335.5,-570.2 375.5,-570.2 375.5,-551.2 335.5,-551.2"/>
<text text-anchor="start" x="338.5" y="-557.3" font-family="Helvetica,sans-Serif" font-size="11.00" fill="#000000">&lt; 1</text>
<polygon fill="#ffffff" stroke="transparent" points="375.5,-551.2 375.5,-570.2 423.5,-570.2 423.5,-551.2 375.5,-551.2"/>
<polygon fill="none" stroke="#000000" points="375.5,-551.2 375.5,-570.2 423.5,-570.2 423.5,-551.2 375.5,-551.2"/>
<text text-anchor="start" x="388.1105" y="-557.3" font-family="Helvetica,sans-Serif" font-size="11.00" fill="#000000">0 rows</text>
<polygon fill="#ffffff" stroke="transparent" points="423.5,-551.2 423.5,-570.2 445.5,-570.2 445.5,-551.2 423.5,-551.2"/>
<polygon fill="none" stroke="#000000" points="423.5,-551.2 423.5,-570.2 445.5,-570.2 445.5,-551.2 423.5,-551.2"/>
<text text-anchor="start" x="436.3862" y="-557.3" font-family="Helvetica,sans-Serif" font-size="11.00" fill="#000000"> &#160;</text>
</a>
</g>
</g>
<!-- user_attribute&#45;&gt;user_entity -->
<g id="edge3" class="edge">
<title>user_attribute:w&#45;&gt;user_entity:e</title>
<path fill="none" stroke="#000000" d="M321.1061,-620.0506C263.337,-600.3715 335.1087,-452.2 257.5,-452.2"/>
<polygon fill="#000000" stroke="#000000" points="327.5877,-621.0184 334.9683,-625.7605 331.5439,-621.6092 335.5,-622.2 335.5,-622.2 335.5,-622.2 331.5439,-621.6092 336.0317,-618.6395 327.5877,-621.0184 327.5877,-621.0184"/>
<ellipse fill="none" stroke="#000000" cx="324.4228" cy="-620.5458" rx="3.2" ry="3.2"/>
</g>
<!-- user_consent -->
<g id="node5" class="node">
<title>user_consent</title>
<g id="a_node5"><a xlink:href="../../tables/user_consent.html" xlink:title="user_consent" target="_top">
<polygon fill="#ffffff" stroke="transparent" points="312,-359.7 312,-530.7 469,-530.7 469,-359.7 312,-359.7"/>
<polygon fill="#f5f5f5" stroke="transparent" points="312.5,-507.2 312.5,-530.2 469.5,-530.2 469.5,-507.2 312.5,-507.2"/>
<polygon fill="none" stroke="#000000" points="312.5,-507.2 312.5,-530.2 469.5,-530.2 469.5,-507.2 312.5,-507.2"/>
<text text-anchor="start" x="317.5" y="-516.3" font-family="Helvetica,sans-Serif" font-weight="bold" font-size="11.00" fill="#000000">user_consent</text>
<text text-anchor="start" x="434.5437" y="-515.3" font-family="Helvetica,sans-Serif" font-size="11.00" fill="#000000">[table]</text>
<polygon fill="none" stroke="#000000" points="312.5,-485.2 312.5,-507.2 469.5,-507.2 469.5,-485.2 312.5,-485.2"/>
<image xlink:href="../../images/primaryKeys.png" width="11px" height="12px" preserveAspectRatio="xMinYMin meet" x="317.5" y="-502.2"/>
<text text-anchor="start" x="332.5" y="-492.3" font-family="Helvetica,sans-Serif" font-size="11.00" fill="#000000">id</text>
<polygon fill="#ffffff" stroke="transparent" points="312.5,-463.2 312.5,-485.2 469.5,-485.2 469.5,-463.2 312.5,-463.2"/>
<polygon fill="none" stroke="#000000" points="312.5,-463.2 312.5,-485.2 469.5,-485.2 469.5,-463.2 312.5,-463.2"/>
<image xlink:href="../../images/foreignKeys.png" width="11px" height="12px" preserveAspectRatio="xMinYMin meet" x="317.5" y="-480.2"/>
<text text-anchor="start" x="332.5" y="-470.3" font-family="Helvetica,sans-Serif" font-size="11.00" fill="#000000">client_id</text>
<polygon fill="#ffffff" stroke="transparent" points="312.5,-441.2 312.5,-463.2 469.5,-463.2 469.5,-441.2 312.5,-441.2"/>
<polygon fill="none" stroke="#000000" points="312.5,-441.2 312.5,-463.2 469.5,-463.2 469.5,-441.2 312.5,-441.2"/>
<image xlink:href="../../images/foreignKeys.png" width="11px" height="12px" preserveAspectRatio="xMinYMin meet" x="317.5" y="-458.2"/>
<text text-anchor="start" x="332.5" y="-448.3" font-family="Helvetica,sans-Serif" font-size="11.00" fill="#000000">user_id</text>
<polygon fill="#ffffff" stroke="transparent" points="312.5,-419.2 312.5,-441.2 469.5,-441.2 469.5,-419.2 312.5,-419.2"/>
<polygon fill="none" stroke="#000000" points="312.5,-419.2 312.5,-441.2 469.5,-441.2 469.5,-419.2 312.5,-419.2"/>
<text text-anchor="start" x="332.5" y="-426.3" font-family="Helvetica,sans-Serif" font-size="11.00" fill="#000000">client_storage_provider</text>
<polygon fill="#ffffff" stroke="transparent" points="312.5,-397.2 312.5,-419.2 469.5,-419.2 469.5,-397.2 312.5,-397.2"/>
<polygon fill="none" stroke="#000000" points="312.5,-397.2 312.5,-419.2 469.5,-419.2 469.5,-397.2 312.5,-397.2"/>
<image xlink:href="../../images/foreignKeys.png" width="11px" height="12px" preserveAspectRatio="xMinYMin meet" x="317.5" y="-414.2"/>
<text text-anchor="start" x="332.5" y="-404.3" font-family="Helvetica,sans-Serif" font-size="11.00" fill="#000000">external_client_id</text>
<polygon fill="none" stroke="#000000" points="312.5,-378.2 312.5,-397.2 469.5,-397.2 469.5,-378.2 312.5,-378.2"/>
<text text-anchor="start" x="315.5" y="-384.3" font-family="Helvetica,sans-Serif" font-size="11.00" fill="#000000">...</text>
<polygon fill="#ffffff" stroke="transparent" points="312.5,-359.2 312.5,-378.2 371.5,-378.2 371.5,-359.2 312.5,-359.2"/>
<polygon fill="none" stroke="#000000" points="312.5,-359.2 312.5,-378.2 371.5,-378.2 371.5,-359.2 312.5,-359.2"/>
<text text-anchor="start" x="315.5" y="-365.3" font-family="Helvetica,sans-Serif" font-size="11.00" fill="#000000">&lt; 1</text>
<polygon fill="#ffffff" stroke="transparent" points="371.5,-359.2 371.5,-378.2 428.5,-378.2 428.5,-359.2 371.5,-359.2"/>
<polygon fill="none" stroke="#000000" points="371.5,-359.2 371.5,-378.2 428.5,-378.2 428.5,-359.2 371.5,-359.2"/>
<text text-anchor="start" x="393.1105" y="-365.3" font-family="Helvetica,sans-Serif" font-size="11.00" fill="#000000">0 rows</text>
<polygon fill="#ffffff" stroke="transparent" points="428.5,-359.2 428.5,-378.2 469.5,-378.2 469.5,-359.2 428.5,-359.2"/>
<polygon fill="none" stroke="#000000" points="428.5,-359.2 428.5,-378.2 469.5,-378.2 469.5,-359.2 428.5,-359.2"/>
<text text-anchor="start" x="450.9053" y="-365.3" font-family="Helvetica,sans-Serif" font-size="11.00" fill="#000000">1 &gt;</text>
</a>
</g>
</g>
<!-- user_consent&#45;&gt;user_entity -->
<g id="edge4" class="edge">
<title>user_consent:w&#45;&gt;user_entity:e</title>
<path fill="none" stroke="#000000" d="M297.8617,-452.2C284.1839,-452.2 276.2153,-452.2 257.5,-452.2"/>
<polygon fill="#000000" stroke="#000000" points="304.5,-452.2001 312.5,-455.8 308.5,-452.2 312.5,-452.2 312.5,-452.2 312.5,-452.2 308.5,-452.2 312.5,-448.6 304.5,-452.2001 304.5,-452.2001"/>
<ellipse fill="none" stroke="#000000" cx="301.3" cy="-452.2001" rx="3.2" ry="3.2"/>
</g>
<!-- user_consent_client_scope -->
<g id="node6" class="node">
<title>user_consent_client_scope</title>
<g id="a_node6"><a xlink:href="../../tables/user_consent_client_scope.html" xlink:title="user_consent_client_scope" target="_top">
<polygon fill="#ffffff" stroke="transparent" points="522,-468.7 522,-529.7 698,-529.7 698,-468.7 522,-468.7"/>
<polygon fill="#f5f5f5" stroke="transparent" points="522,-506.2 522,-529.2 698,-529.2 698,-506.2 522,-506.2"/>
<polygon fill="none" stroke="#000000" points="522,-506.2 522,-529.2 698,-529.2 698,-506.2 522,-506.2"/>
<text text-anchor="start" x="526.867" y="-515.3" font-family="Helvetica,sans-Serif" font-weight="bold" font-size="11.00" fill="#000000">user_consent_client_scope</text>
<text text-anchor="start" x="663.5219" y="-514.3" font-family="Helvetica,sans-Serif" font-size="11.00" fill="#000000">[table]</text>
<polygon fill="none" stroke="#000000" points="522,-487.2 522,-506.2 698,-506.2 698,-487.2 522,-487.2"/>
<text text-anchor="start" x="525" y="-493.3" font-family="Helvetica,sans-Serif" font-size="11.00" fill="#000000">...</text>
<polygon fill="#ffffff" stroke="transparent" points="522,-468.2 522,-487.2 595,-487.2 595,-468.2 522,-468.2"/>
<polygon fill="none" stroke="#000000" points="522,-468.2 522,-487.2 595,-487.2 595,-468.2 522,-468.2"/>
<text text-anchor="start" x="525" y="-474.3" font-family="Helvetica,sans-Serif" font-size="11.00" fill="#000000">&lt; 1</text>
<polygon fill="#ffffff" stroke="transparent" points="595,-468.2 595,-487.2 659,-487.2 659,-468.2 595,-468.2"/>
<polygon fill="none" stroke="#000000" points="595,-468.2 595,-487.2 659,-487.2 659,-468.2 595,-468.2"/>
<text text-anchor="start" x="623.6105" y="-474.3" font-family="Helvetica,sans-Serif" font-size="11.00" fill="#000000">0 rows</text>
<polygon fill="#ffffff" stroke="transparent" points="659,-468.2 659,-487.2 698,-487.2 698,-468.2 659,-468.2"/>
<polygon fill="none" stroke="#000000" points="659,-468.2 659,-487.2 698,-487.2 698,-468.2 659,-468.2"/>
<text text-anchor="start" x="688.8862" y="-474.3" font-family="Helvetica,sans-Serif" font-size="11.00" fill="#000000"> &#160;</text>
</a>
</g>
</g>
<!-- user_consent_client_scope&#45;&gt;user_consent -->
<g id="edge5" class="edge">
<title>user_consent_client_scope:w&#45;&gt;user_consent:e</title>
<path fill="none" stroke="#000000" d="M507.2344,-496.2C494.6563,-496.2 487,-496.2 469.5,-496.2"/>
<polygon fill="#000000" stroke="#000000" points="514,-496.2001 522,-499.8 518,-496.2 522,-496.2 522,-496.2 522,-496.2 518,-496.2 522,-492.6 514,-496.2001 514,-496.2001"/>
<ellipse fill="none" stroke="#000000" cx="510.8" cy="-496.2001" rx="3.2" ry="3.2"/>
</g>
<!-- user_group_membership -->
<g id="node7" class="node">
<title>user_group_membership</title>
<g id="a_node7"><a xlink:href="../../tables/user_group_membership.html" xlink:title="user_group_membership" target="_top">
<polygon fill="#ffffff" stroke="transparent" points="308,-252.2 308,-338.2 473,-338.2 473,-252.2 308,-252.2"/>
<polygon fill="#f5f5f5" stroke="transparent" points="308.5,-315.2 308.5,-338.2 473.5,-338.2 473.5,-315.2 308.5,-315.2"/>
<polygon fill="none" stroke="#000000" points="308.5,-315.2 308.5,-338.2 473.5,-338.2 473.5,-315.2 308.5,-315.2"/>
<text text-anchor="start" x="313.378" y="-324.3" font-family="Helvetica,sans-Serif" font-weight="bold" font-size="11.00" fill="#000000">user_group_membership</text>
<text text-anchor="start" x="439.0219" y="-323.3" font-family="Helvetica,sans-Serif" font-size="11.00" fill="#000000">[table]</text>
<polygon fill="none" stroke="#000000" points="308.5,-293.2 308.5,-315.2 473.5,-315.2 473.5,-293.2 308.5,-293.2"/>
<image xlink:href="../../images/primaryKeys.png" width="11px" height="12px" preserveAspectRatio="xMinYMin meet" x="313.5" y="-310.2"/>
<text text-anchor="start" x="328.5" y="-300.3" font-family="Helvetica,sans-Serif" font-size="11.00" fill="#000000">group_id</text>
<polygon fill="none" stroke="#000000" points="308.5,-271.2 308.5,-293.2 473.5,-293.2 473.5,-271.2 308.5,-271.2"/>
<image xlink:href="../../images/primaryKeys.png" width="11px" height="12px" preserveAspectRatio="xMinYMin meet" x="313.5" y="-288.2"/>
<text text-anchor="start" x="328.5" y="-278.3" font-family="Helvetica,sans-Serif" font-size="11.00" fill="#000000">user_id</text>
<polygon fill="#ffffff" stroke="transparent" points="308.5,-252.2 308.5,-271.2 376.5,-271.2 376.5,-252.2 308.5,-252.2"/>
<polygon fill="none" stroke="#000000" points="308.5,-252.2 308.5,-271.2 376.5,-271.2 376.5,-252.2 308.5,-252.2"/>
<text text-anchor="start" x="311.5" y="-258.3" font-family="Helvetica,sans-Serif" font-size="11.00" fill="#000000">&lt; 1</text>
<polygon fill="#ffffff" stroke="transparent" points="376.5,-252.2 376.5,-271.2 437.5,-271.2 437.5,-252.2 376.5,-252.2"/>
<polygon fill="none" stroke="#000000" points="376.5,-252.2 376.5,-271.2 437.5,-271.2 437.5,-252.2 376.5,-252.2"/>
<text text-anchor="start" x="402.1105" y="-258.3" font-family="Helvetica,sans-Serif" font-size="11.00" fill="#000000">0 rows</text>
<polygon fill="#ffffff" stroke="transparent" points="437.5,-252.2 437.5,-271.2 473.5,-271.2 473.5,-252.2 437.5,-252.2"/>
<polygon fill="none" stroke="#000000" points="437.5,-252.2 437.5,-271.2 473.5,-271.2 473.5,-252.2 437.5,-252.2"/>
<text text-anchor="start" x="464.3862" y="-258.3" font-family="Helvetica,sans-Serif" font-size="11.00" fill="#000000"> &#160;</text>
</a>
</g>
</g>
<!-- user_group_membership&#45;&gt;user_entity -->
<g id="edge6" class="edge">
<title>user_group_membership:w&#45;&gt;user_entity:e</title>
<path fill="none" stroke="#000000" d="M294.167,-284.7351C244.079,-305.8825 330.6818,-452.2 257.5,-452.2"/>
<polygon fill="#000000" stroke="#000000" points="300.6223,-283.5934 309.127,-285.745 304.5611,-282.8967 308.5,-282.2 308.5,-282.2 308.5,-282.2 304.5611,-282.8967 307.873,-278.655 300.6223,-283.5934 300.6223,-283.5934"/>
<ellipse fill="none" stroke="#000000" cx="297.4712" cy="-284.1507" rx="3.2" ry="3.2"/>
</g>
<!-- user_required_action -->
<g id="node8" class="node">
<title>user_required_action</title>
<g id="a_node8"><a xlink:href="../../tables/user_required_action.html" xlink:title="user_required_action" target="_top">
<polygon fill="#ffffff" stroke="transparent" points="317.5,-145.2 317.5,-231.2 463.5,-231.2 463.5,-145.2 317.5,-145.2"/>
<polygon fill="#f5f5f5" stroke="transparent" points="317.5,-208.2 317.5,-231.2 463.5,-231.2 463.5,-208.2 317.5,-208.2"/>
<polygon fill="none" stroke="#000000" points="317.5,-208.2 317.5,-231.2 463.5,-231.2 463.5,-208.2 317.5,-208.2"/>
<text text-anchor="start" x="322.3484" y="-217.3" font-family="Helvetica,sans-Serif" font-weight="bold" font-size="11.00" fill="#000000">user_required_action</text>
<text text-anchor="start" x="429.0219" y="-216.3" font-family="Helvetica,sans-Serif" font-size="11.00" fill="#000000">[table]</text>
<polygon fill="none" stroke="#000000" points="317.5,-186.2 317.5,-208.2 463.5,-208.2 463.5,-186.2 317.5,-186.2"/>
<image xlink:href="../../images/primaryKeys.png" width="11px" height="12px" preserveAspectRatio="xMinYMin meet" x="322.5" y="-203.2"/>
<text text-anchor="start" x="339.5" y="-193.3" font-family="Helvetica,sans-Serif" font-size="11.00" fill="#000000">user_id</text>
<polygon fill="none" stroke="#000000" points="317.5,-164.2 317.5,-186.2 463.5,-186.2 463.5,-164.2 317.5,-164.2"/>
<image xlink:href="../../images/primaryKeys.png" width="11px" height="12px" preserveAspectRatio="xMinYMin meet" x="322.5" y="-181.2"/>
<text text-anchor="start" x="339.5" y="-171.3" font-family="Helvetica,sans-Serif" font-size="11.00" fill="#000000">required_action</text>
<polygon fill="#ffffff" stroke="transparent" points="317.5,-145.2 317.5,-164.2 375.5,-164.2 375.5,-145.2 317.5,-145.2"/>
<polygon fill="none" stroke="#000000" points="317.5,-145.2 317.5,-164.2 375.5,-164.2 375.5,-145.2 317.5,-145.2"/>
<text text-anchor="start" x="320.5" y="-151.3" font-family="Helvetica,sans-Serif" font-size="11.00" fill="#000000">&lt; 1</text>
<polygon fill="#ffffff" stroke="transparent" points="375.5,-145.2 375.5,-164.2 432.5,-164.2 432.5,-145.2 375.5,-145.2"/>
<polygon fill="none" stroke="#000000" points="375.5,-145.2 375.5,-164.2 432.5,-164.2 432.5,-145.2 375.5,-145.2"/>
<text text-anchor="start" x="397.1105" y="-151.3" font-family="Helvetica,sans-Serif" font-size="11.00" fill="#000000">0 rows</text>
<polygon fill="#ffffff" stroke="transparent" points="432.5,-145.2 432.5,-164.2 463.5,-164.2 463.5,-145.2 432.5,-145.2"/>
<polygon fill="none" stroke="#000000" points="432.5,-145.2 432.5,-164.2 463.5,-164.2 463.5,-145.2 432.5,-145.2"/>
<text text-anchor="start" x="454.3862" y="-151.3" font-family="Helvetica,sans-Serif" font-size="11.00" fill="#000000"> &#160;</text>
</a>
</g>
</g>
<!-- user_required_action&#45;&gt;user_entity -->
<g id="edge7" class="edge">
<title>user_required_action:w&#45;&gt;user_entity:e</title>
<path fill="none" stroke="#000000" d="M302.9746,-198.8284C216.6413,-220.5459 368.4708,-452.2 257.5,-452.2"/>
<polygon fill="#000000" stroke="#000000" points="309.5498,-198.0913 317.9011,-200.7776 313.5249,-197.6457 317.5,-197.2 317.5,-197.2 317.5,-197.2 313.5249,-197.6457 317.0989,-193.6224 309.5498,-198.0913 309.5498,-198.0913"/>
<ellipse fill="none" stroke="#000000" cx="306.3697" cy="-198.4478" rx="3.2" ry="3.2"/>
</g>
<!-- user_role_mapping -->
<g id="node9" class="node">
<title>user_role_mapping</title>
<g id="a_node9"><a xlink:href="../../tables/user_role_mapping.html" xlink:title="user_role_mapping" target="_top">
<polygon fill="#ffffff" stroke="transparent" points="322,-38.2 322,-124.2 459,-124.2 459,-38.2 322,-38.2"/>
<polygon fill="#f5f5f5" stroke="transparent" points="322.5,-101.2 322.5,-124.2 459.5,-124.2 459.5,-101.2 322.5,-101.2"/>
<polygon fill="none" stroke="#000000" points="322.5,-101.2 322.5,-124.2 459.5,-124.2 459.5,-101.2 322.5,-101.2"/>
<text text-anchor="start" x="327.4343" y="-110.3" font-family="Helvetica,sans-Serif" font-weight="bold" font-size="11.00" fill="#000000">user_role_mapping</text>
<text text-anchor="start" x="425.0219" y="-109.3" font-family="Helvetica,sans-Serif" font-size="11.00" fill="#000000">[table]</text>
<polygon fill="none" stroke="#000000" points="322.5,-79.2 322.5,-101.2 459.5,-101.2 459.5,-79.2 322.5,-79.2"/>
<image xlink:href="../../images/primaryKeys.png" width="11px" height="12px" preserveAspectRatio="xMinYMin meet" x="327.5" y="-96.2"/>
<text text-anchor="start" x="345.5" y="-86.3" font-family="Helvetica,sans-Serif" font-size="11.00" fill="#000000">role_id</text>
<polygon fill="none" stroke="#000000" points="322.5,-57.2 322.5,-79.2 459.5,-79.2 459.5,-57.2 322.5,-57.2"/>
<image xlink:href="../../images/primaryKeys.png" width="11px" height="12px" preserveAspectRatio="xMinYMin meet" x="327.5" y="-74.2"/>
<text text-anchor="start" x="345.5" y="-64.3" font-family="Helvetica,sans-Serif" font-size="11.00" fill="#000000">user_id</text>
<polygon fill="#ffffff" stroke="transparent" points="322.5,-38.2 322.5,-57.2 376.5,-57.2 376.5,-38.2 322.5,-38.2"/>
<polygon fill="none" stroke="#000000" points="322.5,-38.2 322.5,-57.2 376.5,-57.2 376.5,-38.2 322.5,-38.2"/>
<text text-anchor="start" x="325.5" y="-44.3" font-family="Helvetica,sans-Serif" font-size="11.00" fill="#000000">&lt; 1</text>
<polygon fill="#ffffff" stroke="transparent" points="376.5,-38.2 376.5,-57.2 430.5,-57.2 430.5,-38.2 376.5,-38.2"/>
<polygon fill="none" stroke="#000000" points="376.5,-38.2 376.5,-57.2 430.5,-57.2 430.5,-38.2 376.5,-38.2"/>
<text text-anchor="start" x="395.1105" y="-44.3" font-family="Helvetica,sans-Serif" font-size="11.00" fill="#000000">5 rows</text>
<polygon fill="#ffffff" stroke="transparent" points="430.5,-38.2 430.5,-57.2 459.5,-57.2 459.5,-38.2 430.5,-38.2"/>
<polygon fill="none" stroke="#000000" points="430.5,-38.2 430.5,-57.2 459.5,-57.2 459.5,-38.2 430.5,-38.2"/>
<text text-anchor="start" x="450.3862" y="-44.3" font-family="Helvetica,sans-Serif" font-size="11.00" fill="#000000"> &#160;</text>
</a>
</g>
</g>
<!-- user_role_mapping&#45;&gt;user_entity -->
<g id="edge8" class="edge">
<title>user_role_mapping:w&#45;&gt;user_entity:e</title>
<path fill="none" stroke="#000000" d="M308.4583,-72.5125C248.7043,-114.7 338.638,-452.2 257.5,-452.2"/>
<polygon fill="#000000" stroke="#000000" points="314.8525,-70.5487 323.5569,-71.6414 318.6763,-69.3744 322.5,-68.2 322.5,-68.2 322.5,-68.2 318.6763,-69.3744 321.4431,-64.7586 314.8525,-70.5487 314.8525,-70.5487"/>
<ellipse fill="none" stroke="#000000" cx="311.7936" cy="-71.4882" rx="3.2" ry="3.2"/>
</g>
</g>
</svg>
