<?xml version="1.0" encoding="UTF-8" standalone="no"?>
<!DOCTYPE svg PUBLIC "-//W3C//DTD SVG 1.1//EN"
 "http://www.w3.org/Graphics/SVG/1.1/DTD/svg11.dtd">
<!-- Generated by graphviz version 2.40.1 (20161225.0304)
 -->
<!-- Title: twoDegreesRelationshipsDiagram Pages: 1 -->
<svg width="455pt" height="633pt"
 viewBox="0.00 0.00 455.00 632.70" xmlns="http://www.w3.org/2000/svg" xmlns:xlink="http://www.w3.org/1999/xlink">
<g id="graph0" class="graph" transform="scale(1 1) rotate(0) translate(4 628.7)">
<title>twoDegreesRelationshipsDiagram</title>
<polygon fill="#ffffff" stroke="transparent" points="-4,4 -4,-628.7 451,-628.7 451,4 -4,4"/>
<text text-anchor="middle" x="72.4936" y="-7.3" font-family="Helvetica,sans-Serif" font-size="11.00" fill="#000000">Generated by SchemaSpy</text>
<!-- credential -->
<g id="node1" class="node">
<title>credential</title>
<g id="a_node1"><a xlink:href="../../tables/credential.html" xlink:title="credential" target="_top">
<polygon fill="#ffffff" stroke="transparent" points="293,-559.7 293,-620.7 383,-620.7 383,-559.7 293,-559.7"/>
<polygon fill="#f5f5f5" stroke="transparent" points="293,-597.2 293,-620.2 383,-620.2 383,-597.2 293,-597.2"/>
<polygon fill="none" stroke="#000000" points="293,-597.2 293,-620.2 383,-620.2 383,-597.2 293,-597.2"/>
<text text-anchor="start" x="297.6625" y="-606.3" font-family="Helvetica,sans-Serif" font-weight="bold" font-size="11.00" fill="#000000">credential</text>
<text text-anchor="start" x="348.5219" y="-605.3" font-family="Helvetica,sans-Serif" font-size="11.00" fill="#000000">[table]</text>
<polygon fill="none" stroke="#000000" points="293,-578.2 293,-597.2 383,-597.2 383,-578.2 293,-578.2"/>
<text text-anchor="start" x="296" y="-584.3" font-family="Helvetica,sans-Serif" font-size="11.00" fill="#000000">...</text>
<polygon fill="#ffffff" stroke="transparent" points="293,-559.2 293,-578.2 326,-578.2 326,-559.2 293,-559.2"/>
<polygon fill="none" stroke="#000000" points="293,-559.2 293,-578.2 326,-578.2 326,-559.2 293,-559.2"/>
<text text-anchor="start" x="296" y="-565.3" font-family="Helvetica,sans-Serif" font-size="11.00" fill="#000000">&lt; 1</text>
<polygon fill="#ffffff" stroke="transparent" points="326,-559.2 326,-578.2 364,-578.2 364,-559.2 326,-559.2"/>
<polygon fill="none" stroke="#000000" points="326,-559.2 326,-578.2 364,-578.2 364,-559.2 326,-559.2"/>
<text text-anchor="start" x="334.1105" y="-565.3" font-family="Helvetica,sans-Serif" font-size="11.00" fill="#000000">1 row</text>
<polygon fill="#ffffff" stroke="transparent" points="364,-559.2 364,-578.2 383,-578.2 383,-559.2 364,-559.2"/>
<polygon fill="none" stroke="#000000" points="364,-559.2 364,-578.2 383,-578.2 383,-559.2 364,-559.2"/>
<text text-anchor="start" x="373.8862" y="-565.3" font-family="Helvetica,sans-Serif" font-size="11.00" fill="#000000"> &#160;</text>
</a>
</g>
</g>
<!-- user_entity -->
<g id="node2" class="node">
<title>user_entity</title>
<g id="a_node2"><a xlink:href="../../tables/user_entity.html" xlink:title="user_entity" target="_top">
<polygon fill="#ffffff" stroke="transparent" points="8,-204.7 8,-375.7 188,-375.7 188,-204.7 8,-204.7"/>
<polygon fill="#f5f5f5" stroke="transparent" points="8,-352.2 8,-375.2 188,-375.2 188,-352.2 8,-352.2"/>
<polygon fill="none" stroke="#000000" points="8,-352.2 8,-375.2 188,-375.2 188,-352.2 8,-352.2"/>
<text text-anchor="start" x="13" y="-361.3" font-family="Helvetica,sans-Serif" font-weight="bold" font-size="11.00" fill="#000000">user_entity</text>
<text text-anchor="start" x="153.0437" y="-360.3" font-family="Helvetica,sans-Serif" font-size="11.00" fill="#000000">[table]</text>
<polygon fill="none" stroke="#000000" points="8,-330.2 8,-352.2 188,-352.2 188,-330.2 8,-330.2"/>
<image xlink:href="../../images/primaryKeys.png" width="11px" height="12px" preserveAspectRatio="xMinYMin meet" x="13" y="-347.2"/>
<text text-anchor="start" x="28" y="-337.3" font-family="Helvetica,sans-Serif" font-size="11.00" fill="#000000">id</text>
<polygon fill="#ffffff" stroke="transparent" points="8,-308.2 8,-330.2 188,-330.2 188,-308.2 8,-308.2"/>
<polygon fill="none" stroke="#000000" points="8,-308.2 8,-330.2 188,-330.2 188,-308.2 8,-308.2"/>
<text text-anchor="start" x="28" y="-315.3" font-family="Helvetica,sans-Serif" font-size="11.00" fill="#000000">email</text>
<polygon fill="#ffffff" stroke="transparent" points="8,-286.2 8,-308.2 188,-308.2 188,-286.2 8,-286.2"/>
<polygon fill="none" stroke="#000000" points="8,-286.2 8,-308.2 188,-308.2 188,-286.2 8,-286.2"/>
<text text-anchor="start" x="28" y="-293.3" font-family="Helvetica,sans-Serif" font-size="11.00" fill="#000000">email_constraint</text>
<polygon fill="#ffffff" stroke="transparent" points="8,-264.2 8,-286.2 188,-286.2 188,-264.2 8,-264.2"/>
<polygon fill="none" stroke="#000000" points="8,-264.2 8,-286.2 188,-286.2 188,-264.2 8,-264.2"/>
<image xlink:href="../../images/foreignKeys.png" width="11px" height="12px" preserveAspectRatio="xMinYMin meet" x="13" y="-281.2"/>
<text text-anchor="start" x="28" y="-271.3" font-family="Helvetica,sans-Serif" font-size="11.00" fill="#000000">realm_id</text>
<polygon fill="#ffffff" stroke="transparent" points="8,-242.2 8,-264.2 188,-264.2 188,-242.2 8,-242.2"/>
<polygon fill="none" stroke="#000000" points="8,-242.2 8,-264.2 188,-264.2 188,-242.2 8,-242.2"/>
<text text-anchor="start" x="28" y="-249.3" font-family="Helvetica,sans-Serif" font-size="11.00" fill="#000000">username</text>
<polygon fill="none" stroke="#000000" points="8,-223.2 8,-242.2 188,-242.2 188,-223.2 8,-223.2"/>
<text text-anchor="start" x="11" y="-229.3" font-family="Helvetica,sans-Serif" font-size="11.00" fill="#000000">...</text>
<polygon fill="#ffffff" stroke="transparent" points="8,-204.2 8,-223.2 77,-223.2 77,-204.2 8,-204.2"/>
<polygon fill="none" stroke="#000000" points="8,-204.2 8,-223.2 77,-223.2 77,-204.2 8,-204.2"/>
<text text-anchor="start" x="11" y="-210.3" font-family="Helvetica,sans-Serif" font-size="11.00" fill="#000000"> &#160;</text>
<polygon fill="#ffffff" stroke="transparent" points="77,-204.2 77,-223.2 138,-223.2 138,-204.2 77,-204.2"/>
<polygon fill="none" stroke="#000000" points="77,-204.2 77,-223.2 138,-223.2 138,-204.2 77,-204.2"/>
<text text-anchor="start" x="108.1105" y="-210.3" font-family="Helvetica,sans-Serif" font-size="11.00" fill="#000000">1 row</text>
<polygon fill="#ffffff" stroke="transparent" points="138,-204.2 138,-223.2 188,-223.2 188,-204.2 138,-204.2"/>
<polygon fill="none" stroke="#000000" points="138,-204.2 138,-223.2 188,-223.2 188,-204.2 138,-204.2"/>
<text text-anchor="start" x="169.4053" y="-210.3" font-family="Helvetica,sans-Serif" font-size="11.00" fill="#000000">7 &gt;</text>
</a>
</g>
</g>
<!-- credential&#45;&gt;user_entity -->
<g id="edge1" class="edge">
<title>credential:w&#45;&gt;user_entity:e</title>
<path fill="none" stroke="#000000" d="M278.6234,-586.3345C255.9416,-583.2724 245.0249,-571.8951 229,-549.2 174.6523,-472.2302 282.2233,-341.2 188,-341.2"/>
<polygon fill="#000000" stroke="#000000" points="285.0145,-586.7192 292.7836,-590.7935 289.0072,-586.9596 293,-587.2 293,-587.2 293,-587.2 289.0072,-586.9596 293.2164,-583.6065 285.0145,-586.7192 285.0145,-586.7192"/>
<ellipse fill="none" stroke="#000000" cx="281.8202" cy="-586.5269" rx="3.2" ry="3.2"/>
</g>
<!-- federated_identity -->
<g id="node3" class="node">
<title>federated_identity</title>
<g id="a_node3"><a xlink:href="../../tables/federated_identity.html" xlink:title="federated_identity" target="_top">
<polygon fill="#ffffff" stroke="transparent" points="273,-477.7 273,-538.7 403,-538.7 403,-477.7 273,-477.7"/>
<polygon fill="#f5f5f5" stroke="transparent" points="273,-515.2 273,-538.2 403,-538.2 403,-515.2 273,-515.2"/>
<polygon fill="none" stroke="#000000" points="273,-515.2 273,-538.2 403,-538.2 403,-515.2 273,-515.2"/>
<text text-anchor="start" x="277.7899" y="-524.3" font-family="Helvetica,sans-Serif" font-weight="bold" font-size="11.00" fill="#000000">federated_identity</text>
<text text-anchor="start" x="368.5219" y="-523.3" font-family="Helvetica,sans-Serif" font-size="11.00" fill="#000000">[table]</text>
<polygon fill="none" stroke="#000000" points="273,-496.2 273,-515.2 403,-515.2 403,-496.2 273,-496.2"/>
<text text-anchor="start" x="276" y="-502.3" font-family="Helvetica,sans-Serif" font-size="11.00" fill="#000000">...</text>
<polygon fill="#ffffff" stroke="transparent" points="273,-477.2 273,-496.2 323,-496.2 323,-477.2 273,-477.2"/>
<polygon fill="none" stroke="#000000" points="273,-477.2 273,-496.2 323,-496.2 323,-477.2 273,-477.2"/>
<text text-anchor="start" x="276" y="-483.3" font-family="Helvetica,sans-Serif" font-size="11.00" fill="#000000">&lt; 1</text>
<polygon fill="#ffffff" stroke="transparent" points="323,-477.2 323,-496.2 376,-496.2 376,-477.2 323,-477.2"/>
<polygon fill="none" stroke="#000000" points="323,-477.2 323,-496.2 376,-496.2 376,-477.2 323,-477.2"/>
<text text-anchor="start" x="340.6105" y="-483.3" font-family="Helvetica,sans-Serif" font-size="11.00" fill="#000000">0 rows</text>
<polygon fill="#ffffff" stroke="transparent" points="376,-477.2 376,-496.2 403,-496.2 403,-477.2 376,-477.2"/>
<polygon fill="none" stroke="#000000" points="376,-477.2 376,-496.2 403,-496.2 403,-477.2 376,-477.2"/>
<text text-anchor="start" x="393.8862" y="-483.3" font-family="Helvetica,sans-Serif" font-size="11.00" fill="#000000"> &#160;</text>
</a>
</g>
</g>
<!-- federated_identity&#45;&gt;user_entity -->
<g id="edge2" class="edge">
<title>federated_identity:w&#45;&gt;user_entity:e</title>
<path fill="none" stroke="#000000" d="M258.4451,-502.7953C244.876,-497.474 240.0609,-483.8449 229,-467.2 196.4066,-418.1519 246.8901,-341.2 188,-341.2"/>
<polygon fill="#000000" stroke="#000000" points="265.107,-503.8959 272.4132,-508.7519 269.0535,-504.548 273,-505.2 273,-505.2 273,-505.2 269.0535,-504.548 273.5868,-501.6481 265.107,-503.8959 265.107,-503.8959"/>
<ellipse fill="none" stroke="#000000" cx="261.9498" cy="-503.3743" rx="3.2" ry="3.2"/>
</g>
<!-- user_attribute -->
<g id="node4" class="node">
<title>user_attribute</title>
<g id="a_node4"><a xlink:href="../../tables/user_attribute.html" xlink:title="user_attribute" target="_top">
<polygon fill="#ffffff" stroke="transparent" points="283,-395.7 283,-456.7 393,-456.7 393,-395.7 283,-395.7"/>
<polygon fill="#f5f5f5" stroke="transparent" points="283,-433.2 283,-456.2 393,-456.2 393,-433.2 283,-433.2"/>
<polygon fill="none" stroke="#000000" points="283,-433.2 283,-456.2 393,-456.2 393,-433.2 283,-433.2"/>
<text text-anchor="start" x="287.8802" y="-442.3" font-family="Helvetica,sans-Serif" font-weight="bold" font-size="11.00" fill="#000000">user_attribute</text>
<text text-anchor="start" x="358.5219" y="-441.3" font-family="Helvetica,sans-Serif" font-size="11.00" fill="#000000">[table]</text>
<polygon fill="none" stroke="#000000" points="283,-414.2 283,-433.2 393,-433.2 393,-414.2 283,-414.2"/>
<text text-anchor="start" x="286" y="-420.3" font-family="Helvetica,sans-Serif" font-size="11.00" fill="#000000">...</text>
<polygon fill="#ffffff" stroke="transparent" points="283,-395.2 283,-414.2 323,-414.2 323,-395.2 283,-395.2"/>
<polygon fill="none" stroke="#000000" points="283,-395.2 283,-414.2 323,-414.2 323,-395.2 283,-395.2"/>
<text text-anchor="start" x="286" y="-401.3" font-family="Helvetica,sans-Serif" font-size="11.00" fill="#000000">&lt; 1</text>
<polygon fill="#ffffff" stroke="transparent" points="323,-395.2 323,-414.2 371,-414.2 371,-395.2 323,-395.2"/>
<polygon fill="none" stroke="#000000" points="323,-395.2 323,-414.2 371,-414.2 371,-395.2 323,-395.2"/>
<text text-anchor="start" x="335.6105" y="-401.3" font-family="Helvetica,sans-Serif" font-size="11.00" fill="#000000">0 rows</text>
<polygon fill="#ffffff" stroke="transparent" points="371,-395.2 371,-414.2 393,-414.2 393,-395.2 371,-395.2"/>
<polygon fill="none" stroke="#000000" points="371,-395.2 371,-414.2 393,-414.2 393,-395.2 371,-395.2"/>
<text text-anchor="start" x="383.8862" y="-401.3" font-family="Helvetica,sans-Serif" font-size="11.00" fill="#000000"> &#160;</text>
</a>
</g>
</g>
<!-- user_attribute&#45;&gt;user_entity -->
<g id="edge3" class="edge">
<title>user_attribute:w&#45;&gt;user_entity:e</title>
<path fill="none" stroke="#000000" d="M268.5277,-421.1933C251.9172,-415.8672 246.8014,-400.717 229,-385.2 208.8508,-367.6365 214.7296,-341.2 188,-341.2"/>
<polygon fill="#000000" stroke="#000000" points="275.0758,-422.1012 282.5055,-426.7659 279.0379,-422.6506 283,-423.2 283,-423.2 283,-423.2 279.0379,-422.6506 283.4945,-419.6341 275.0758,-422.1012 275.0758,-422.1012"/>
<ellipse fill="none" stroke="#000000" cx="271.9061" cy="-421.6617" rx="3.2" ry="3.2"/>
</g>
<!-- user_consent -->
<g id="node5" class="node">
<title>user_consent</title>
<g id="a_node5"><a xlink:href="../../tables/user_consent.html" xlink:title="user_consent" target="_top">
<polygon fill="#ffffff" stroke="transparent" points="283.5,-313.7 283.5,-374.7 392.5,-374.7 392.5,-313.7 283.5,-313.7"/>
<polygon fill="#f5f5f5" stroke="transparent" points="284,-351.2 284,-374.2 393,-374.2 393,-351.2 284,-351.2"/>
<polygon fill="none" stroke="#000000" points="284,-351.2 284,-374.2 393,-374.2 393,-351.2 284,-351.2"/>
<text text-anchor="start" x="288.9885" y="-360.3" font-family="Helvetica,sans-Serif" font-weight="bold" font-size="11.00" fill="#000000">user_consent</text>
<text text-anchor="start" x="358.5219" y="-359.3" font-family="Helvetica,sans-Serif" font-size="11.00" fill="#000000">[table]</text>
<polygon fill="none" stroke="#000000" points="284,-332.2 284,-351.2 393,-351.2 393,-332.2 284,-332.2"/>
<text text-anchor="start" x="287" y="-338.3" font-family="Helvetica,sans-Serif" font-size="11.00" fill="#000000">...</text>
<polygon fill="#ffffff" stroke="transparent" points="284,-313.2 284,-332.2 319,-332.2 319,-313.2 284,-313.2"/>
<polygon fill="none" stroke="#000000" points="284,-313.2 284,-332.2 319,-332.2 319,-313.2 284,-313.2"/>
<text text-anchor="start" x="287" y="-319.3" font-family="Helvetica,sans-Serif" font-size="11.00" fill="#000000">&lt; 1</text>
<polygon fill="#ffffff" stroke="transparent" points="319,-313.2 319,-332.2 364,-332.2 364,-313.2 319,-313.2"/>
<polygon fill="none" stroke="#000000" points="319,-313.2 319,-332.2 364,-332.2 364,-313.2 319,-313.2"/>
<text text-anchor="start" x="328.6105" y="-319.3" font-family="Helvetica,sans-Serif" font-size="11.00" fill="#000000">0 rows</text>
<polygon fill="#ffffff" stroke="transparent" points="364,-313.2 364,-332.2 393,-332.2 393,-313.2 364,-313.2"/>
<polygon fill="none" stroke="#000000" points="364,-313.2 364,-332.2 393,-332.2 393,-313.2 364,-313.2"/>
<text text-anchor="start" x="374.4053" y="-319.3" font-family="Helvetica,sans-Serif" font-size="11.00" fill="#000000">1 &gt;</text>
</a>
</g>
</g>
<!-- user_consent&#45;&gt;user_entity -->
<g id="edge4" class="edge">
<title>user_consent:w&#45;&gt;user_entity:e</title>
<path fill="none" stroke="#000000" d="M269.375,-341.2C238.1667,-341.2 225.3333,-341.2 188,-341.2"/>
<polygon fill="#000000" stroke="#000000" points="276,-341.2001 284,-344.8 280,-341.2 284,-341.2 284,-341.2 284,-341.2 280,-341.2 284,-337.6 276,-341.2001 276,-341.2001"/>
<ellipse fill="none" stroke="#000000" cx="272.8" cy="-341.2001" rx="3.2" ry="3.2"/>
</g>
<!-- user_group_membership -->
<g id="node6" class="node">
<title>user_group_membership</title>
<g id="a_node6"><a xlink:href="../../tables/user_group_membership.html" xlink:title="user_group_membership" target="_top">
<polygon fill="#ffffff" stroke="transparent" points="255.5,-231.7 255.5,-292.7 420.5,-292.7 420.5,-231.7 255.5,-231.7"/>
<polygon fill="#f5f5f5" stroke="transparent" points="256,-269.2 256,-292.2 421,-292.2 421,-269.2 256,-269.2"/>
<polygon fill="none" stroke="#000000" points="256,-269.2 256,-292.2 421,-292.2 421,-269.2 256,-269.2"/>
<text text-anchor="start" x="260.878" y="-278.3" font-family="Helvetica,sans-Serif" font-weight="bold" font-size="11.00" fill="#000000">user_group_membership</text>
<text text-anchor="start" x="386.5219" y="-277.3" font-family="Helvetica,sans-Serif" font-size="11.00" fill="#000000">[table]</text>
<polygon fill="none" stroke="#000000" points="256,-250.2 256,-269.2 421,-269.2 421,-250.2 256,-250.2"/>
<text text-anchor="start" x="259" y="-256.3" font-family="Helvetica,sans-Serif" font-size="11.00" fill="#000000">...</text>
<polygon fill="#ffffff" stroke="transparent" points="256,-231.2 256,-250.2 324,-250.2 324,-231.2 256,-231.2"/>
<polygon fill="none" stroke="#000000" points="256,-231.2 256,-250.2 324,-250.2 324,-231.2 256,-231.2"/>
<text text-anchor="start" x="259" y="-237.3" font-family="Helvetica,sans-Serif" font-size="11.00" fill="#000000">&lt; 1</text>
<polygon fill="#ffffff" stroke="transparent" points="324,-231.2 324,-250.2 385,-250.2 385,-231.2 324,-231.2"/>
<polygon fill="none" stroke="#000000" points="324,-231.2 324,-250.2 385,-250.2 385,-231.2 324,-231.2"/>
<text text-anchor="start" x="349.6105" y="-237.3" font-family="Helvetica,sans-Serif" font-size="11.00" fill="#000000">0 rows</text>
<polygon fill="#ffffff" stroke="transparent" points="385,-231.2 385,-250.2 421,-250.2 421,-231.2 385,-231.2"/>
<polygon fill="none" stroke="#000000" points="385,-231.2 385,-250.2 421,-250.2 421,-231.2 385,-231.2"/>
<text text-anchor="start" x="411.8862" y="-237.3" font-family="Helvetica,sans-Serif" font-size="11.00" fill="#000000"> &#160;</text>
</a>
</g>
</g>
<!-- user_group_membership&#45;&gt;user_entity -->
<g id="edge5" class="edge">
<title>user_group_membership:w&#45;&gt;user_entity:e</title>
<path fill="none" stroke="#000000" d="M241.7943,-262.5161C214.0332,-277.857 229.6121,-341.2 188,-341.2"/>
<polygon fill="#000000" stroke="#000000" points="248.2094,-261.0186 256.8184,-262.7058 252.1047,-260.1093 256,-259.2 256,-259.2 256,-259.2 252.1047,-260.1093 255.1816,-255.6942 248.2094,-261.0186 248.2094,-261.0186"/>
<ellipse fill="none" stroke="#000000" cx="245.0932" cy="-261.7461" rx="3.2" ry="3.2"/>
</g>
<!-- user_required_action -->
<g id="node7" class="node">
<title>user_required_action</title>
<g id="a_node7"><a xlink:href="../../tables/user_required_action.html" xlink:title="user_required_action" target="_top">
<polygon fill="#ffffff" stroke="transparent" points="265,-149.7 265,-210.7 411,-210.7 411,-149.7 265,-149.7"/>
<polygon fill="#f5f5f5" stroke="transparent" points="265,-187.2 265,-210.2 411,-210.2 411,-187.2 265,-187.2"/>
<polygon fill="none" stroke="#000000" points="265,-187.2 265,-210.2 411,-210.2 411,-187.2 265,-187.2"/>
<text text-anchor="start" x="269.8484" y="-196.3" font-family="Helvetica,sans-Serif" font-weight="bold" font-size="11.00" fill="#000000">user_required_action</text>
<text text-anchor="start" x="376.5219" y="-195.3" font-family="Helvetica,sans-Serif" font-size="11.00" fill="#000000">[table]</text>
<polygon fill="none" stroke="#000000" points="265,-168.2 265,-187.2 411,-187.2 411,-168.2 265,-168.2"/>
<text text-anchor="start" x="268" y="-174.3" font-family="Helvetica,sans-Serif" font-size="11.00" fill="#000000">...</text>
<polygon fill="#ffffff" stroke="transparent" points="265,-149.2 265,-168.2 323,-168.2 323,-149.2 265,-149.2"/>
<polygon fill="none" stroke="#000000" points="265,-149.2 265,-168.2 323,-168.2 323,-149.2 265,-149.2"/>
<text text-anchor="start" x="268" y="-155.3" font-family="Helvetica,sans-Serif" font-size="11.00" fill="#000000">&lt; 1</text>
<polygon fill="#ffffff" stroke="transparent" points="323,-149.2 323,-168.2 380,-168.2 380,-149.2 323,-149.2"/>
<polygon fill="none" stroke="#000000" points="323,-149.2 323,-168.2 380,-168.2 380,-149.2 323,-149.2"/>
<text text-anchor="start" x="344.6105" y="-155.3" font-family="Helvetica,sans-Serif" font-size="11.00" fill="#000000">0 rows</text>
<polygon fill="#ffffff" stroke="transparent" points="380,-149.2 380,-168.2 411,-168.2 411,-149.2 380,-149.2"/>
<polygon fill="none" stroke="#000000" points="380,-149.2 380,-168.2 411,-168.2 411,-149.2 380,-149.2"/>
<text text-anchor="start" x="401.8862" y="-155.3" font-family="Helvetica,sans-Serif" font-size="11.00" fill="#000000"> &#160;</text>
</a>
</g>
</g>
<!-- user_required_action&#45;&gt;user_entity -->
<g id="edge6" class="edge">
<title>user_required_action:w&#45;&gt;user_entity:e</title>
<path fill="none" stroke="#000000" d="M250.6885,-179.3943C195.1986,-198.8555 263.0185,-341.2 188,-341.2"/>
<polygon fill="#000000" stroke="#000000" points="257.0924,-178.4125 265.5456,-180.7584 261.0462,-177.8062 265,-177.2 265,-177.2 265,-177.2 261.0462,-177.8062 264.4544,-173.6416 257.0924,-178.4125 257.0924,-178.4125"/>
<ellipse fill="none" stroke="#000000" cx="253.9294" cy="-178.8975" rx="3.2" ry="3.2"/>
</g>
<!-- user_role_mapping -->
<g id="node8" class="node">
<title>user_role_mapping</title>
<g id="a_node8"><a xlink:href="../../tables/user_role_mapping.html" xlink:title="user_role_mapping" target="_top">
<polygon fill="#ffffff" stroke="transparent" points="237,-38.2 237,-128.2 439,-128.2 439,-38.2 237,-38.2"/>
<polygon fill="#f5f5f5" stroke="transparent" points="239,-103.2 239,-126.2 437,-126.2 437,-103.2 239,-103.2"/>
<polygon fill="none" stroke="#000000" points="239,-103.2 239,-126.2 437,-126.2 437,-103.2 239,-103.2"/>
<text text-anchor="start" x="244" y="-112.3" font-family="Helvetica,sans-Serif" font-weight="bold" font-size="11.00" fill="#000000">user_role_mapping</text>
<text text-anchor="start" x="402.0437" y="-111.3" font-family="Helvetica,sans-Serif" font-size="11.00" fill="#000000">[table]</text>
<polygon fill="none" stroke="#000000" points="239,-81.2 239,-103.2 370,-103.2 370,-81.2 239,-81.2"/>
<image xlink:href="../../images/primaryKeys.png" width="11px" height="12px" preserveAspectRatio="xMinYMin meet" x="244" y="-98.2"/>
<text text-anchor="start" x="259" y="-88.3" font-family="Helvetica,sans-Serif" font-size="11.00" fill="#000000">role_id</text>
<polygon fill="none" stroke="#000000" points="370,-81.2 370,-103.2 437,-103.2 437,-81.2 370,-81.2"/>
<text text-anchor="start" x="372.9365" y="-88.9" font-family="Helvetica,sans-Serif" font-size="11.00" fill="#000000">varchar[255]</text>
<polygon fill="none" stroke="#000000" points="239,-59.2 239,-81.2 370,-81.2 370,-59.2 239,-59.2"/>
<image xlink:href="../../images/primaryKeys.png" width="11px" height="12px" preserveAspectRatio="xMinYMin meet" x="244" y="-76.2"/>
<text text-anchor="start" x="259" y="-66.3" font-family="Helvetica,sans-Serif" font-size="11.00" fill="#000000">user_id</text>
<polygon fill="none" stroke="#000000" points="370,-59.2 370,-81.2 437,-81.2 437,-59.2 370,-59.2"/>
<text text-anchor="start" x="373" y="-66.9" font-family="Helvetica,sans-Serif" font-size="11.00" fill="#000000">varchar[36]</text>
<polygon fill="#ffffff" stroke="transparent" points="239,-40.2 239,-59.2 296,-59.2 296,-40.2 239,-40.2"/>
<polygon fill="none" stroke="#000000" points="239,-40.2 239,-59.2 296,-59.2 296,-40.2 239,-40.2"/>
<text text-anchor="start" x="242" y="-46.3" font-family="Helvetica,sans-Serif" font-size="11.00" fill="#000000">&lt; 1</text>
<polygon fill="#ffffff" stroke="transparent" points="296,-40.2 296,-59.2 370,-59.2 370,-40.2 296,-40.2"/>
<polygon fill="none" stroke="#000000" points="296,-40.2 296,-59.2 370,-59.2 370,-40.2 296,-40.2"/>
<text text-anchor="start" x="334.6105" y="-46.3" font-family="Helvetica,sans-Serif" font-size="11.00" fill="#000000">5 rows</text>
<polygon fill="#ffffff" stroke="transparent" points="370,-40.2 370,-59.2 437,-59.2 437,-40.2 370,-40.2"/>
<polygon fill="none" stroke="#000000" points="370,-40.2 370,-59.2 437,-59.2 437,-40.2 370,-40.2"/>
<text text-anchor="start" x="418.4053" y="-46.3" font-family="Helvetica,sans-Serif" font-size="11.00" fill="#000000">0 &gt;</text>
<polygon fill="none" stroke="#000000" stroke-width="2" points="238,-39.2 238,-127.2 438,-127.2 438,-39.2 238,-39.2"/>
</a>
</g>
</g>
<!-- user_role_mapping&#45;&gt;user_entity -->
<g id="edge7" class="edge">
<title>user_role_mapping:w&#45;&gt;user_entity:e</title>
<path fill="none" stroke="#000000" d="M225.7404,-76.1122C189.2732,-115.7433 243.8935,-341.2 188,-341.2"/>
<polygon fill="#000000" stroke="#000000" points="231.6934,-73.4579 240.4661,-73.488 235.3467,-71.829 239,-70.2 239,-70.2 239,-70.2 235.3467,-71.829 237.5339,-66.912 231.6934,-73.4579 231.6934,-73.4579"/>
<ellipse fill="none" stroke="#000000" cx="228.7708" cy="-74.7611" rx="3.2" ry="3.2"/>
</g>
</g>
</svg>
