<?xml version="1.0" encoding="UTF-8" standalone="no"?>
<!DOCTYPE svg PUBLIC "-//W3C//DTD SVG 1.1//EN"
 "http://www.w3.org/Graphics/SVG/1.1/DTD/svg11.dtd">
<!-- Generated by graphviz version 2.40.1 (20161225.0304)
 -->
<!-- Title: twoDegreesRelationshipsDiagramImplied Pages: 1 -->
<svg width="584pt" height="279pt"
 viewBox="0.00 0.00 584.00 279.20" xmlns="http://www.w3.org/2000/svg" xmlns:xlink="http://www.w3.org/1999/xlink">
<g id="graph0" class="graph" transform="scale(1 1) rotate(0) translate(4 275.2)">
<title>twoDegreesRelationshipsDiagramImplied</title>
<polygon fill="#ffffff" stroke="transparent" points="-4,4 -4,-275.2 580,-275.2 580,4 -4,4"/>
<text text-anchor="middle" x="72.4936" y="-7.3" font-family="Helvetica,sans-Serif" font-size="11.00" fill="#000000">Generated by SchemaSpy</text>
<!-- client_session -->
<g id="node1" class="node">
<title>client_session</title>
<g id="a_node1"><a xlink:href="../../tables/client_session.html" xlink:title="client_session" target="_top">
<polygon fill="#ffffff" stroke="transparent" points="409,-206.2 409,-267.2 521,-267.2 521,-206.2 409,-206.2"/>
<polygon fill="#f5f5f5" stroke="transparent" points="409,-243.7 409,-266.7 521,-266.7 521,-243.7 409,-243.7"/>
<polygon fill="none" stroke="#000000" points="409,-243.7 409,-266.7 521,-266.7 521,-243.7 409,-243.7"/>
<text text-anchor="start" x="413.9655" y="-252.8" font-family="Helvetica,sans-Serif" font-weight="bold" font-size="11.00" fill="#000000">client_session</text>
<text text-anchor="start" x="486.5219" y="-251.8" font-family="Helvetica,sans-Serif" font-size="11.00" fill="#000000">[table]</text>
<polygon fill="none" stroke="#000000" points="409,-224.7 409,-243.7 521,-243.7 521,-224.7 409,-224.7"/>
<text text-anchor="start" x="412" y="-230.8" font-family="Helvetica,sans-Serif" font-size="11.00" fill="#000000">...</text>
<polygon fill="#ffffff" stroke="transparent" points="409,-205.7 409,-224.7 446,-224.7 446,-205.7 409,-205.7"/>
<polygon fill="none" stroke="#000000" points="409,-205.7 409,-224.7 446,-224.7 446,-205.7 409,-205.7"/>
<text text-anchor="start" x="412" y="-211.8" font-family="Helvetica,sans-Serif" font-size="11.00" fill="#000000">&lt; 2</text>
<polygon fill="#ffffff" stroke="transparent" points="446,-205.7 446,-224.7 492,-224.7 492,-205.7 446,-205.7"/>
<polygon fill="none" stroke="#000000" points="446,-205.7 446,-224.7 492,-224.7 492,-205.7 446,-205.7"/>
<text text-anchor="start" x="456.6105" y="-211.8" font-family="Helvetica,sans-Serif" font-size="11.00" fill="#000000">0 rows</text>
<polygon fill="#ffffff" stroke="transparent" points="492,-205.7 492,-224.7 521,-224.7 521,-205.7 492,-205.7"/>
<polygon fill="none" stroke="#000000" points="492,-205.7 492,-224.7 521,-224.7 521,-205.7 492,-205.7"/>
<text text-anchor="start" x="502.4053" y="-211.8" font-family="Helvetica,sans-Serif" font-size="11.00" fill="#000000">5 &gt;</text>
</a>
</g>
</g>
<!-- federated_user -->
<g id="node2" class="node">
<title>federated_user</title>
<g id="a_node2"><a xlink:href="../../tables/federated_user.html" xlink:title="federated_user" target="_top">
<polygon fill="#ffffff" stroke="transparent" points="8,-103.2 8,-164.2 124,-164.2 124,-103.2 8,-103.2"/>
<polygon fill="#f5f5f5" stroke="transparent" points="8,-140.7 8,-163.7 124,-163.7 124,-140.7 8,-140.7"/>
<polygon fill="none" stroke="#000000" points="8,-140.7 8,-163.7 124,-163.7 124,-140.7 8,-140.7"/>
<text text-anchor="start" x="12.5142" y="-149.8" font-family="Helvetica,sans-Serif" font-weight="bold" font-size="11.00" fill="#000000">federated_user</text>
<text text-anchor="start" x="89.5219" y="-148.8" font-family="Helvetica,sans-Serif" font-size="11.00" fill="#000000">[table]</text>
<polygon fill="none" stroke="#000000" points="8,-121.7 8,-140.7 124,-140.7 124,-121.7 8,-121.7"/>
<text text-anchor="start" x="11" y="-127.8" font-family="Helvetica,sans-Serif" font-size="11.00" fill="#000000">...</text>
<polygon fill="#ffffff" stroke="transparent" points="8,-102.7 8,-121.7 39,-121.7 39,-102.7 8,-102.7"/>
<polygon fill="none" stroke="#000000" points="8,-102.7 8,-121.7 39,-121.7 39,-102.7 8,-102.7"/>
<text text-anchor="start" x="11" y="-108.8" font-family="Helvetica,sans-Serif" font-size="11.00" fill="#000000"> &#160;</text>
<polygon fill="#ffffff" stroke="transparent" points="39,-102.7 39,-121.7 87,-121.7 87,-102.7 39,-102.7"/>
<polygon fill="none" stroke="#000000" points="39,-102.7 39,-121.7 87,-121.7 87,-102.7 39,-102.7"/>
<text text-anchor="start" x="51.6105" y="-108.8" font-family="Helvetica,sans-Serif" font-size="11.00" fill="#000000">0 rows</text>
<polygon fill="#ffffff" stroke="transparent" points="87,-102.7 87,-121.7 124,-121.7 124,-102.7 87,-102.7"/>
<polygon fill="none" stroke="#000000" points="87,-102.7 87,-121.7 124,-121.7 124,-102.7 87,-102.7"/>
<text text-anchor="start" x="99.2904" y="-108.8" font-family="Helvetica,sans-Serif" font-size="11.00" fill="#000000">30 &gt;</text>
</a>
</g>
</g>
<!-- client_session&#45;&gt;federated_user -->
<g id="edge1" class="edge">
<title>client_session:w&#45;&gt;federated_user:e</title>
<path fill="none" stroke="#000000" stroke-dasharray="5,2" d="M394.431,-233.9831C296.0967,-237.802 250.6402,-278.0646 165,-219.7 129.0118,-195.1737 167.551,-130.7 124,-130.7"/>
<polygon fill="#000000" stroke="#000000" points="401.0015,-233.8555 409.07,-237.2993 405.0008,-233.7777 409,-233.7 409,-233.7 409,-233.7 405.0008,-233.7777 408.93,-230.1007 401.0015,-233.8555 401.0015,-233.8555"/>
<ellipse fill="none" stroke="#000000" cx="397.8021" cy="-233.9177" rx="3.2" ry="3.2"/>
</g>
<!-- user_session -->
<g id="node3" class="node">
<title>user_session</title>
<g id="a_node3"><a xlink:href="../../tables/user_session.html" xlink:title="user_session" target="_top">
<polygon fill="#ffffff" stroke="transparent" points="173,-38.2 173,-209.2 313,-209.2 313,-38.2 173,-38.2"/>
<polygon fill="#f5f5f5" stroke="transparent" points="173,-185.7 173,-208.7 313,-208.7 313,-185.7 173,-185.7"/>
<polygon fill="none" stroke="#000000" points="173,-185.7 173,-208.7 313,-208.7 313,-185.7 173,-185.7"/>
<text text-anchor="start" x="178" y="-194.8" font-family="Helvetica,sans-Serif" font-weight="bold" font-size="11.00" fill="#000000">user_session</text>
<text text-anchor="start" x="278.0437" y="-193.8" font-family="Helvetica,sans-Serif" font-size="11.00" fill="#000000">[table]</text>
<polygon fill="none" stroke="#000000" points="173,-163.7 173,-185.7 313,-185.7 313,-163.7 173,-163.7"/>
<image xlink:href="../../images/primaryKeys.png" width="11px" height="12px" preserveAspectRatio="xMinYMin meet" x="178" y="-180.7"/>
<text text-anchor="start" x="193" y="-170.8" font-family="Helvetica,sans-Serif" font-size="11.00" fill="#000000">id</text>
<polygon fill="none" stroke="#000000" points="173,-141.7 173,-163.7 313,-163.7 313,-141.7 173,-141.7"/>
<image xlink:href="../../images/foreignKeys.png" width="11px" height="12px" preserveAspectRatio="xMinYMin meet" x="178" y="-158.7"/>
<text text-anchor="start" x="193" y="-148.8" font-family="Helvetica,sans-Serif" font-size="11.00" fill="#000000">realm_id</text>
<polygon fill="none" stroke="#000000" points="173,-119.7 173,-141.7 313,-141.7 313,-119.7 173,-119.7"/>
<image xlink:href="../../images/foreignKeys.png" width="11px" height="12px" preserveAspectRatio="xMinYMin meet" x="178" y="-136.7"/>
<text text-anchor="start" x="193" y="-126.8" font-family="Helvetica,sans-Serif" font-size="11.00" fill="#000000">user_id</text>
<polygon fill="none" stroke="#000000" points="173,-97.7 173,-119.7 313,-119.7 313,-97.7 173,-97.7"/>
<image xlink:href="../../images/foreignKeys.png" width="11px" height="12px" preserveAspectRatio="xMinYMin meet" x="178" y="-114.7"/>
<text text-anchor="start" x="193" y="-104.8" font-family="Helvetica,sans-Serif" font-size="11.00" fill="#000000">broker_session_id</text>
<polygon fill="none" stroke="#000000" points="173,-75.7 173,-97.7 313,-97.7 313,-75.7 173,-75.7"/>
<image xlink:href="../../images/foreignKeys.png" width="11px" height="12px" preserveAspectRatio="xMinYMin meet" x="178" y="-92.7"/>
<text text-anchor="start" x="193" y="-82.8" font-family="Helvetica,sans-Serif" font-size="11.00" fill="#000000">broker_user_id</text>
<polygon fill="none" stroke="#000000" points="173,-56.7 173,-75.7 313,-75.7 313,-56.7 173,-56.7"/>
<text text-anchor="start" x="176" y="-62.8" font-family="Helvetica,sans-Serif" font-size="11.00" fill="#000000">...</text>
<polygon fill="#ffffff" stroke="transparent" points="173,-37.7 173,-56.7 224,-56.7 224,-37.7 173,-37.7"/>
<polygon fill="none" stroke="#000000" points="173,-37.7 173,-56.7 224,-56.7 224,-37.7 173,-37.7"/>
<text text-anchor="start" x="176" y="-43.8" font-family="Helvetica,sans-Serif" font-size="11.00" fill="#000000">&lt; 4</text>
<polygon fill="#ffffff" stroke="transparent" points="224,-37.7 224,-56.7 277,-56.7 277,-37.7 224,-37.7"/>
<polygon fill="none" stroke="#000000" points="224,-37.7 224,-56.7 277,-56.7 277,-37.7 224,-37.7"/>
<text text-anchor="start" x="241.6105" y="-43.8" font-family="Helvetica,sans-Serif" font-size="11.00" fill="#000000">0 rows</text>
<polygon fill="#ffffff" stroke="transparent" points="277,-37.7 277,-56.7 313,-56.7 313,-37.7 277,-37.7"/>
<polygon fill="none" stroke="#000000" points="277,-37.7 277,-56.7 313,-56.7 313,-37.7 277,-37.7"/>
<text text-anchor="start" x="294.4053" y="-43.8" font-family="Helvetica,sans-Serif" font-size="11.00" fill="#000000">2 &gt;</text>
</a>
</g>
</g>
<!-- client_session&#45;&gt;user_session -->
<g id="edge2" class="edge">
<title>client_session:w&#45;&gt;user_session:e</title>
<path fill="none" stroke="#000000" d="M395.1739,-229.4569C369.4544,-215.9287 333.9321,-174.7 313,-174.7"/>
<polygon fill="#000000" stroke="#000000" points="401.3521,-231.3529 407.9438,-237.1416 405.176,-232.5264 409,-233.7 409,-233.7 409,-233.7 405.176,-232.5264 410.0562,-230.2584 401.3521,-231.3529 401.3521,-231.3529"/>
<ellipse fill="none" stroke="#000000" cx="398.2929" cy="-230.414" rx="3.2" ry="3.2"/>
</g>
<!-- user_session&#45;&gt;federated_user -->
<g id="edge3" class="edge">
<title>user_session:w&#45;&gt;federated_user:e</title>
<path fill="none" stroke="#000000" stroke-dasharray="5,2" d="M158.6297,-112.1375C147.0865,-118.325 141.9041,-130.7 124,-130.7"/>
<polygon fill="#000000" stroke="#000000" points="165.2195,-110.5612 173.8375,-112.2012 169.1098,-109.6306 173,-108.7 173,-108.7 173,-108.7 169.1098,-109.6306 172.1625,-105.1988 165.2195,-110.5612 165.2195,-110.5612"/>
<ellipse fill="none" stroke="#000000" cx="162.1073" cy="-111.3057" rx="3.2" ry="3.2"/>
</g>
<!-- user_session&#45;&gt;federated_user -->
<g id="edge4" class="edge">
<title>user_session:w&#45;&gt;federated_user:e</title>
<path fill="none" stroke="#000000" stroke-dasharray="5,2" d="M159.3171,-91.4088C146.0046,-102.7596 147.324,-130.7 124,-130.7"/>
<polygon fill="#000000" stroke="#000000" points="165.4354,-89.3033 174.1715,-90.1041 169.2177,-88.0016 173,-86.7 173,-86.7 173,-86.7 169.2177,-88.0016 171.8285,-83.2959 165.4354,-89.3033 165.4354,-89.3033"/>
<ellipse fill="none" stroke="#000000" cx="162.4096" cy="-90.3446" rx="3.2" ry="3.2"/>
</g>
<!-- user_session&#45;&gt;federated_user -->
<g id="edge5" class="edge">
<title>user_session:w&#45;&gt;federated_user:e</title>
<path fill="none" stroke="#000000" stroke-dasharray="5,2" d="M158.6297,-149.2625C147.0865,-143.075 141.9041,-130.7 124,-130.7"/>
<polygon fill="#000000" stroke="#000000" points="165.2195,-150.8388 172.1625,-156.2012 169.1098,-151.7694 173,-152.7 173,-152.7 173,-152.7 169.1098,-151.7694 173.8375,-149.1988 165.2195,-150.8388 165.2195,-150.8388"/>
<ellipse fill="none" stroke="#000000" cx="162.1073" cy="-150.0943" rx="3.2" ry="3.2"/>
</g>
<!-- user_session&#45;&gt;federated_user -->
<g id="edge6" class="edge">
<title>user_session:w&#45;&gt;federated_user:e</title>
<path fill="none" stroke="#000000" stroke-dasharray="5,2" d="M158.4909,-130.7C147.1774,-130.7 139.9931,-130.7 124,-130.7"/>
<polygon fill="#000000" stroke="#000000" points="165,-130.7001 173,-134.3 169,-130.7 173,-130.7 173,-130.7 173,-130.7 169,-130.7 173,-127.1 165,-130.7001 165,-130.7001"/>
<ellipse fill="none" stroke="#000000" cx="161.8" cy="-130.7001" rx="3.2" ry="3.2"/>
</g>
<!-- user_session_note -->
<g id="node4" class="node">
<title>user_session_note</title>
<g id="a_node4"><a xlink:href="../../tables/user_session_note.html" xlink:title="user_session_note" target="_top">
<polygon fill="#ffffff" stroke="transparent" points="362,-72.7 362,-184.7 568,-184.7 568,-72.7 362,-72.7"/>
<polygon fill="#f5f5f5" stroke="transparent" points="364,-159.7 364,-182.7 566,-182.7 566,-159.7 364,-159.7"/>
<polygon fill="none" stroke="#000000" points="364,-159.7 364,-182.7 566,-182.7 566,-159.7 364,-159.7"/>
<text text-anchor="start" x="369" y="-168.8" font-family="Helvetica,sans-Serif" font-weight="bold" font-size="11.00" fill="#000000">user_session_note</text>
<text text-anchor="start" x="531.0437" y="-167.8" font-family="Helvetica,sans-Serif" font-size="11.00" fill="#000000">[table]</text>
<polygon fill="none" stroke="#000000" points="364,-137.7 364,-159.7 493,-159.7 493,-137.7 364,-137.7"/>
<image xlink:href="../../images/primaryKeys.png" width="11px" height="12px" preserveAspectRatio="xMinYMin meet" x="369" y="-154.7"/>
<text text-anchor="start" x="384" y="-144.8" font-family="Helvetica,sans-Serif" font-size="11.00" fill="#000000">user_session</text>
<polygon fill="none" stroke="#000000" points="493,-137.7 493,-159.7 566,-159.7 566,-137.7 493,-137.7"/>
<text text-anchor="start" x="496" y="-145.4" font-family="Helvetica,sans-Serif" font-size="11.00" fill="#000000">varchar[36]</text>
<polygon fill="none" stroke="#000000" points="364,-115.7 364,-137.7 493,-137.7 493,-115.7 364,-115.7"/>
<image xlink:href="../../images/primaryKeys.png" width="11px" height="12px" preserveAspectRatio="xMinYMin meet" x="369" y="-132.7"/>
<text text-anchor="start" x="384" y="-122.8" font-family="Helvetica,sans-Serif" font-size="11.00" fill="#000000">name</text>
<polygon fill="none" stroke="#000000" points="493,-115.7 493,-137.7 566,-137.7 566,-115.7 493,-115.7"/>
<text text-anchor="start" x="496" y="-123.4" font-family="Helvetica,sans-Serif" font-size="11.00" fill="#000000">varchar[255]</text>
<polygon fill="none" stroke="#000000" points="364,-93.7 364,-115.7 493,-115.7 493,-93.7 364,-93.7"/>
<text text-anchor="start" x="384" y="-100.8" font-family="Helvetica,sans-Serif" font-size="11.00" fill="#000000">value</text>
<polygon fill="none" stroke="#000000" points="493,-93.7 493,-115.7 566,-115.7 566,-93.7 493,-93.7"/>
<text text-anchor="start" x="495.8791" y="-101.4" font-family="Helvetica,sans-Serif" font-size="11.00" fill="#000000">varchar[2048]</text>
<polygon fill="#ffffff" stroke="transparent" points="364,-74.7 364,-93.7 420,-93.7 420,-74.7 364,-74.7"/>
<polygon fill="none" stroke="#000000" points="364,-74.7 364,-93.7 420,-93.7 420,-74.7 364,-74.7"/>
<text text-anchor="start" x="367" y="-80.8" font-family="Helvetica,sans-Serif" font-size="11.00" fill="#000000">&lt; 1</text>
<polygon fill="#ffffff" stroke="transparent" points="420,-74.7 420,-93.7 493,-93.7 493,-74.7 420,-74.7"/>
<polygon fill="none" stroke="#000000" points="420,-74.7 420,-93.7 493,-93.7 493,-74.7 420,-74.7"/>
<text text-anchor="start" x="457.6105" y="-80.8" font-family="Helvetica,sans-Serif" font-size="11.00" fill="#000000">0 rows</text>
<polygon fill="#ffffff" stroke="transparent" points="493,-74.7 493,-93.7 566,-93.7 566,-74.7 493,-74.7"/>
<polygon fill="none" stroke="#000000" points="493,-74.7 493,-93.7 566,-93.7 566,-74.7 493,-74.7"/>
<text text-anchor="start" x="547.4053" y="-80.8" font-family="Helvetica,sans-Serif" font-size="11.00" fill="#000000">0 &gt;</text>
<polygon fill="none" stroke="#000000" stroke-width="2" points="363,-73.7 363,-183.7 567,-183.7 567,-73.7 363,-73.7"/>
</a>
</g>
</g>
<!-- user_session_note&#45;&gt;user_session -->
<g id="edge7" class="edge">
<title>user_session_note:w&#45;&gt;user_session:e</title>
<path fill="none" stroke="#000000" d="M349.6325,-152.3152C337.1124,-159.4593 332.4792,-174.7 313,-174.7"/>
<polygon fill="#000000" stroke="#000000" points="356.2418,-150.6522 364.8785,-152.1912 360.1209,-149.6761 364,-148.7 364,-148.7 364,-148.7 360.1209,-149.6761 363.1215,-145.2088 356.2418,-150.6522 356.2418,-150.6522"/>
<ellipse fill="none" stroke="#000000" cx="353.1386" cy="-151.433" rx="3.2" ry="3.2"/>
</g>
</g>
</svg>
