<?xml version="1.0" encoding="UTF-8" standalone="no"?>
<!DOCTYPE svg PUBLIC "-//W3C//DTD SVG 1.1//EN"
 "http://www.w3.org/Graphics/SVG/1.1/DTD/svg11.dtd">
<!-- Generated by graphviz version 2.40.1 (20161225.0304)
 -->
<!-- Title: oneDegreeRelationshipsDiagramImplied Pages: 1 -->
<svg width="473pt" height="223pt"
 viewBox="0.00 0.00 473.00 222.70" xmlns="http://www.w3.org/2000/svg" xmlns:xlink="http://www.w3.org/1999/xlink">
<g id="graph0" class="graph" transform="scale(1 1) rotate(0) translate(4 218.7)">
<title>oneDegreeRelationshipsDiagramImplied</title>
<polygon fill="#ffffff" stroke="transparent" points="-4,4 -4,-218.7 469,-218.7 469,4 -4,4"/>
<text text-anchor="middle" x="72.4936" y="-7.3" font-family="Helvetica,sans-Serif" font-size="11.00" fill="#000000">Generated by SchemaSpy</text>
<!-- user_consent_client_scope -->
<g id="node1" class="node">
<title>user_consent_client_scope</title>
<g id="a_node1"><a xlink:href="../../tables/user_consent_client_scope.html" xlink:title="user_consent_client_scope" target="_top">
<polygon fill="#ffffff" stroke="transparent" points="214,-120.7 214,-210.7 457,-210.7 457,-120.7 214,-120.7"/>
<polygon fill="#f5f5f5" stroke="transparent" points="216.5,-185.7 216.5,-208.7 455.5,-208.7 455.5,-185.7 216.5,-185.7"/>
<polygon fill="none" stroke="#000000" points="216.5,-185.7 216.5,-208.7 455.5,-208.7 455.5,-185.7 216.5,-185.7"/>
<text text-anchor="start" x="221.5" y="-194.8" font-family="Helvetica,sans-Serif" font-weight="bold" font-size="11.00" fill="#000000">user_consent_client_scope</text>
<text text-anchor="start" x="420.5437" y="-193.8" font-family="Helvetica,sans-Serif" font-size="11.00" fill="#000000">[table]</text>
<polygon fill="none" stroke="#000000" points="216.5,-163.7 216.5,-185.7 394.5,-185.7 394.5,-163.7 216.5,-163.7"/>
<image xlink:href="../../images/primaryKeys.png" width="11px" height="12px" preserveAspectRatio="xMinYMin meet" x="221.5" y="-180.7"/>
<text text-anchor="start" x="236.5" y="-170.8" font-family="Helvetica,sans-Serif" font-size="11.00" fill="#000000">user_consent_id</text>
<polygon fill="none" stroke="#000000" points="394.5,-163.7 394.5,-185.7 455.5,-185.7 455.5,-163.7 394.5,-163.7"/>
<text text-anchor="start" x="397.494" y="-171.4" font-family="Helvetica,sans-Serif" font-size="11.00" fill="#000000">varchar[36]</text>
<polygon fill="none" stroke="#000000" points="216.5,-141.7 216.5,-163.7 394.5,-163.7 394.5,-141.7 216.5,-141.7"/>
<image xlink:href="../../images/primaryKeys.png" width="11px" height="12px" preserveAspectRatio="xMinYMin meet" x="221.5" y="-158.7"/>
<text text-anchor="start" x="236.5" y="-148.8" font-family="Helvetica,sans-Serif" font-size="11.00" fill="#000000">scope_id</text>
<polygon fill="none" stroke="#000000" points="394.5,-141.7 394.5,-163.7 455.5,-163.7 455.5,-141.7 394.5,-141.7"/>
<text text-anchor="start" x="397.494" y="-149.4" font-family="Helvetica,sans-Serif" font-size="11.00" fill="#000000">varchar[36]</text>
<polygon fill="#ffffff" stroke="transparent" points="216.5,-122.7 216.5,-141.7 296.5,-141.7 296.5,-122.7 216.5,-122.7"/>
<polygon fill="none" stroke="#000000" points="216.5,-122.7 216.5,-141.7 296.5,-141.7 296.5,-122.7 216.5,-122.7"/>
<text text-anchor="start" x="219.5" y="-128.8" font-family="Helvetica,sans-Serif" font-size="11.00" fill="#000000">&lt; 1</text>
<polygon fill="#ffffff" stroke="transparent" points="296.5,-122.7 296.5,-141.7 394.5,-141.7 394.5,-122.7 296.5,-122.7"/>
<polygon fill="none" stroke="#000000" points="296.5,-122.7 296.5,-141.7 394.5,-141.7 394.5,-122.7 296.5,-122.7"/>
<text text-anchor="start" x="359.1105" y="-128.8" font-family="Helvetica,sans-Serif" font-size="11.00" fill="#000000">0 rows</text>
<polygon fill="#ffffff" stroke="transparent" points="394.5,-122.7 394.5,-141.7 455.5,-141.7 455.5,-122.7 394.5,-122.7"/>
<polygon fill="none" stroke="#000000" points="394.5,-122.7 394.5,-141.7 455.5,-141.7 455.5,-122.7 394.5,-122.7"/>
<text text-anchor="start" x="436.9053" y="-128.8" font-family="Helvetica,sans-Serif" font-size="11.00" fill="#000000">0 &gt;</text>
<polygon fill="none" stroke="#000000" stroke-width="2" points="215,-121.7 215,-209.7 456,-209.7 456,-121.7 215,-121.7"/>
</a>
</g>
</g>
<!-- user_consent -->
<g id="node2" class="node">
<title>user_consent</title>
<g id="a_node2"><a xlink:href="../../tables/user_consent.html" xlink:title="user_consent" target="_top">
<polygon fill="#ffffff" stroke="transparent" points="8,-38.2 8,-209.2 165,-209.2 165,-38.2 8,-38.2"/>
<polygon fill="#f5f5f5" stroke="transparent" points="8.5,-185.7 8.5,-208.7 165.5,-208.7 165.5,-185.7 8.5,-185.7"/>
<polygon fill="none" stroke="#000000" points="8.5,-185.7 8.5,-208.7 165.5,-208.7 165.5,-185.7 8.5,-185.7"/>
<text text-anchor="start" x="13.5" y="-194.8" font-family="Helvetica,sans-Serif" font-weight="bold" font-size="11.00" fill="#000000">user_consent</text>
<text text-anchor="start" x="130.5437" y="-193.8" font-family="Helvetica,sans-Serif" font-size="11.00" fill="#000000">[table]</text>
<polygon fill="none" stroke="#000000" points="8.5,-163.7 8.5,-185.7 165.5,-185.7 165.5,-163.7 8.5,-163.7"/>
<image xlink:href="../../images/primaryKeys.png" width="11px" height="12px" preserveAspectRatio="xMinYMin meet" x="13.5" y="-180.7"/>
<text text-anchor="start" x="28.5" y="-170.8" font-family="Helvetica,sans-Serif" font-size="11.00" fill="#000000">id</text>
<polygon fill="#ffffff" stroke="transparent" points="8.5,-141.7 8.5,-163.7 165.5,-163.7 165.5,-141.7 8.5,-141.7"/>
<polygon fill="none" stroke="#000000" points="8.5,-141.7 8.5,-163.7 165.5,-163.7 165.5,-141.7 8.5,-141.7"/>
<image xlink:href="../../images/foreignKeys.png" width="11px" height="12px" preserveAspectRatio="xMinYMin meet" x="13.5" y="-158.7"/>
<text text-anchor="start" x="28.5" y="-148.8" font-family="Helvetica,sans-Serif" font-size="11.00" fill="#000000">client_id</text>
<polygon fill="#ffffff" stroke="transparent" points="8.5,-119.7 8.5,-141.7 165.5,-141.7 165.5,-119.7 8.5,-119.7"/>
<polygon fill="none" stroke="#000000" points="8.5,-119.7 8.5,-141.7 165.5,-141.7 165.5,-119.7 8.5,-119.7"/>
<image xlink:href="../../images/foreignKeys.png" width="11px" height="12px" preserveAspectRatio="xMinYMin meet" x="13.5" y="-136.7"/>
<text text-anchor="start" x="28.5" y="-126.8" font-family="Helvetica,sans-Serif" font-size="11.00" fill="#000000">user_id</text>
<polygon fill="#ffffff" stroke="transparent" points="8.5,-97.7 8.5,-119.7 165.5,-119.7 165.5,-97.7 8.5,-97.7"/>
<polygon fill="none" stroke="#000000" points="8.5,-97.7 8.5,-119.7 165.5,-119.7 165.5,-97.7 8.5,-97.7"/>
<text text-anchor="start" x="28.5" y="-104.8" font-family="Helvetica,sans-Serif" font-size="11.00" fill="#000000">client_storage_provider</text>
<polygon fill="#ffffff" stroke="transparent" points="8.5,-75.7 8.5,-97.7 165.5,-97.7 165.5,-75.7 8.5,-75.7"/>
<polygon fill="none" stroke="#000000" points="8.5,-75.7 8.5,-97.7 165.5,-97.7 165.5,-75.7 8.5,-75.7"/>
<image xlink:href="../../images/foreignKeys.png" width="11px" height="12px" preserveAspectRatio="xMinYMin meet" x="13.5" y="-92.7"/>
<text text-anchor="start" x="28.5" y="-82.8" font-family="Helvetica,sans-Serif" font-size="11.00" fill="#000000">external_client_id</text>
<polygon fill="none" stroke="#000000" points="8.5,-56.7 8.5,-75.7 165.5,-75.7 165.5,-56.7 8.5,-56.7"/>
<text text-anchor="start" x="11.5" y="-62.8" font-family="Helvetica,sans-Serif" font-size="11.00" fill="#000000">...</text>
<polygon fill="#ffffff" stroke="transparent" points="8.5,-37.7 8.5,-56.7 67.5,-56.7 67.5,-37.7 8.5,-37.7"/>
<polygon fill="none" stroke="#000000" points="8.5,-37.7 8.5,-56.7 67.5,-56.7 67.5,-37.7 8.5,-37.7"/>
<text text-anchor="start" x="11.5" y="-43.8" font-family="Helvetica,sans-Serif" font-size="11.00" fill="#000000">&lt; 1</text>
<polygon fill="#ffffff" stroke="transparent" points="67.5,-37.7 67.5,-56.7 124.5,-56.7 124.5,-37.7 67.5,-37.7"/>
<polygon fill="none" stroke="#000000" points="67.5,-37.7 67.5,-56.7 124.5,-56.7 124.5,-37.7 67.5,-37.7"/>
<text text-anchor="start" x="89.1105" y="-43.8" font-family="Helvetica,sans-Serif" font-size="11.00" fill="#000000">0 rows</text>
<polygon fill="#ffffff" stroke="transparent" points="124.5,-37.7 124.5,-56.7 165.5,-56.7 165.5,-37.7 124.5,-37.7"/>
<polygon fill="none" stroke="#000000" points="124.5,-37.7 124.5,-56.7 165.5,-56.7 165.5,-37.7 124.5,-37.7"/>
<text text-anchor="start" x="146.9053" y="-43.8" font-family="Helvetica,sans-Serif" font-size="11.00" fill="#000000">1 &gt;</text>
</a>
</g>
</g>
<!-- user_consent_client_scope&#45;&gt;user_consent -->
<g id="edge1" class="edge">
<title>user_consent_client_scope:w&#45;&gt;user_consent:e</title>
<path fill="none" stroke="#000000" d="M201.776,-174.7C189.7815,-174.7 182.3229,-174.7 165.5,-174.7"/>
<polygon fill="#000000" stroke="#000000" points="208.5,-174.7001 216.5,-178.3 212.5,-174.7 216.5,-174.7 216.5,-174.7 216.5,-174.7 212.5,-174.7 216.5,-171.1 208.5,-174.7001 208.5,-174.7001"/>
<ellipse fill="none" stroke="#000000" cx="205.3" cy="-174.7001" rx="3.2" ry="3.2"/>
</g>
</g>
</svg>
