<?xml version="1.0" encoding="UTF-8" standalone="no"?>
<!DOCTYPE svg PUBLIC "-//W3C//DTD SVG 1.1//EN"
 "http://www.w3.org/Graphics/SVG/1.1/DTD/svg11.dtd">
<!-- Generated by graphviz version 2.40.1 (20161225.0304)
 -->
<!-- Title: oneDegreeRelationshipsDiagram Pages: 1 -->
<svg width="708pt" height="267pt"
 viewBox="0.00 0.00 708.00 266.70" xmlns="http://www.w3.org/2000/svg" xmlns:xlink="http://www.w3.org/1999/xlink">
<g id="graph0" class="graph" transform="scale(1 1) rotate(0) translate(4 262.7)">
<title>oneDegreeRelationshipsDiagram</title>
<polygon fill="#ffffff" stroke="transparent" points="-4,4 -4,-262.7 704,-262.7 704,4 -4,4"/>
<text text-anchor="middle" x="72.4936" y="-7.3" font-family="Helvetica,sans-Serif" font-size="11.00" fill="#000000">Generated by SchemaSpy</text>
<!-- user_consent -->
<g id="node1" class="node">
<title>user_consent</title>
<g id="a_node1"><a xlink:href="../../tables/user_consent.html" xlink:title="user_consent" target="_top">
<polygon fill="#ffffff" stroke="transparent" points="237,-54.7 237,-254.7 465,-254.7 465,-54.7 237,-54.7"/>
<polygon fill="#f5f5f5" stroke="transparent" points="239,-229.7 239,-252.7 463,-252.7 463,-229.7 239,-229.7"/>
<polygon fill="none" stroke="#000000" points="239,-229.7 239,-252.7 463,-252.7 463,-229.7 239,-229.7"/>
<text text-anchor="start" x="244" y="-238.8" font-family="Helvetica,sans-Serif" font-weight="bold" font-size="11.00" fill="#000000">user_consent</text>
<text text-anchor="start" x="428.0437" y="-237.8" font-family="Helvetica,sans-Serif" font-size="11.00" fill="#000000">[table]</text>
<polygon fill="none" stroke="#000000" points="239,-207.7 239,-229.7 396,-229.7 396,-207.7 239,-207.7"/>
<image xlink:href="../../images/primaryKeys.png" width="11px" height="12px" preserveAspectRatio="xMinYMin meet" x="244" y="-224.7"/>
<text text-anchor="start" x="259" y="-214.8" font-family="Helvetica,sans-Serif" font-size="11.00" fill="#000000">id</text>
<polygon fill="none" stroke="#000000" points="396,-207.7 396,-229.7 463,-229.7 463,-207.7 396,-207.7"/>
<text text-anchor="start" x="399" y="-215.4" font-family="Helvetica,sans-Serif" font-size="11.00" fill="#000000">varchar[36]</text>
<polygon fill="#ffffff" stroke="transparent" points="239,-185.7 239,-207.7 396,-207.7 396,-185.7 239,-185.7"/>
<polygon fill="none" stroke="#000000" points="239,-185.7 239,-207.7 396,-207.7 396,-185.7 239,-185.7"/>
<image xlink:href="../../images/foreignKeys.png" width="11px" height="12px" preserveAspectRatio="xMinYMin meet" x="244" y="-202.7"/>
<text text-anchor="start" x="259" y="-192.8" font-family="Helvetica,sans-Serif" font-size="11.00" fill="#000000">client_id</text>
<polygon fill="none" stroke="#000000" points="396,-185.7 396,-207.7 463,-207.7 463,-185.7 396,-185.7"/>
<text text-anchor="start" x="398.9365" y="-193.4" font-family="Helvetica,sans-Serif" font-size="11.00" fill="#000000">varchar[255]</text>
<polygon fill="#ffffff" stroke="transparent" points="239,-163.7 239,-185.7 396,-185.7 396,-163.7 239,-163.7"/>
<polygon fill="none" stroke="#000000" points="239,-163.7 239,-185.7 396,-185.7 396,-163.7 239,-163.7"/>
<image xlink:href="../../images/foreignKeys.png" width="11px" height="12px" preserveAspectRatio="xMinYMin meet" x="244" y="-180.7"/>
<text text-anchor="start" x="259" y="-170.8" font-family="Helvetica,sans-Serif" font-size="11.00" fill="#000000">user_id</text>
<polygon fill="none" stroke="#000000" points="396,-163.7 396,-185.7 463,-185.7 463,-163.7 396,-163.7"/>
<text text-anchor="start" x="399" y="-171.4" font-family="Helvetica,sans-Serif" font-size="11.00" fill="#000000">varchar[36]</text>
<polygon fill="none" stroke="#000000" points="239,-141.7 239,-163.7 396,-163.7 396,-141.7 239,-141.7"/>
<text text-anchor="start" x="259" y="-148.8" font-family="Helvetica,sans-Serif" font-size="11.00" fill="#000000">created_date</text>
<polygon fill="none" stroke="#000000" points="396,-141.7 396,-163.7 463,-163.7 463,-141.7 396,-141.7"/>
<text text-anchor="start" x="399" y="-149.4" font-family="Helvetica,sans-Serif" font-size="11.00" fill="#000000">int8[19]</text>
<polygon fill="none" stroke="#000000" points="239,-119.7 239,-141.7 396,-141.7 396,-119.7 239,-119.7"/>
<text text-anchor="start" x="259" y="-126.8" font-family="Helvetica,sans-Serif" font-size="11.00" fill="#000000">last_updated_date</text>
<polygon fill="none" stroke="#000000" points="396,-119.7 396,-141.7 463,-141.7 463,-119.7 396,-119.7"/>
<text text-anchor="start" x="399" y="-127.4" font-family="Helvetica,sans-Serif" font-size="11.00" fill="#000000">int8[19]</text>
<polygon fill="#ffffff" stroke="transparent" points="239,-97.7 239,-119.7 396,-119.7 396,-97.7 239,-97.7"/>
<polygon fill="none" stroke="#000000" points="239,-97.7 239,-119.7 396,-119.7 396,-97.7 239,-97.7"/>
<text text-anchor="start" x="259" y="-104.8" font-family="Helvetica,sans-Serif" font-size="11.00" fill="#000000">client_storage_provider</text>
<polygon fill="none" stroke="#000000" points="396,-97.7 396,-119.7 463,-119.7 463,-97.7 396,-97.7"/>
<text text-anchor="start" x="399" y="-105.4" font-family="Helvetica,sans-Serif" font-size="11.00" fill="#000000">varchar[36]</text>
<polygon fill="#ffffff" stroke="transparent" points="239,-75.7 239,-97.7 396,-97.7 396,-75.7 239,-75.7"/>
<polygon fill="none" stroke="#000000" points="239,-75.7 239,-97.7 396,-97.7 396,-75.7 239,-75.7"/>
<image xlink:href="../../images/foreignKeys.png" width="11px" height="12px" preserveAspectRatio="xMinYMin meet" x="244" y="-92.7"/>
<text text-anchor="start" x="259" y="-82.8" font-family="Helvetica,sans-Serif" font-size="11.00" fill="#000000">external_client_id</text>
<polygon fill="none" stroke="#000000" points="396,-75.7 396,-97.7 463,-97.7 463,-75.7 396,-75.7"/>
<text text-anchor="start" x="398.9365" y="-83.4" font-family="Helvetica,sans-Serif" font-size="11.00" fill="#000000">varchar[255]</text>
<polygon fill="#ffffff" stroke="transparent" points="239,-56.7 239,-75.7 309,-75.7 309,-56.7 239,-56.7"/>
<polygon fill="none" stroke="#000000" points="239,-56.7 239,-75.7 309,-75.7 309,-56.7 239,-56.7"/>
<text text-anchor="start" x="242" y="-62.8" font-family="Helvetica,sans-Serif" font-size="11.00" fill="#000000">&lt; 1</text>
<polygon fill="#ffffff" stroke="transparent" points="309,-56.7 309,-75.7 396,-75.7 396,-56.7 309,-56.7"/>
<polygon fill="none" stroke="#000000" points="309,-56.7 309,-75.7 396,-75.7 396,-56.7 309,-56.7"/>
<text text-anchor="start" x="360.6105" y="-62.8" font-family="Helvetica,sans-Serif" font-size="11.00" fill="#000000">0 rows</text>
<polygon fill="#ffffff" stroke="transparent" points="396,-56.7 396,-75.7 463,-75.7 463,-56.7 396,-56.7"/>
<polygon fill="none" stroke="#000000" points="396,-56.7 396,-75.7 463,-75.7 463,-56.7 396,-56.7"/>
<text text-anchor="start" x="444.4053" y="-62.8" font-family="Helvetica,sans-Serif" font-size="11.00" fill="#000000">1 &gt;</text>
<polygon fill="none" stroke="#000000" stroke-width="2" points="238,-55.7 238,-253.7 464,-253.7 464,-55.7 238,-55.7"/>
</a>
</g>
</g>
<!-- user_entity -->
<g id="node2" class="node">
<title>user_entity</title>
<g id="a_node2"><a xlink:href="../../tables/user_entity.html" xlink:title="user_entity" target="_top">
<polygon fill="#ffffff" stroke="transparent" points="8,-38.2 8,-209.2 188,-209.2 188,-38.2 8,-38.2"/>
<polygon fill="#f5f5f5" stroke="transparent" points="8,-185.7 8,-208.7 188,-208.7 188,-185.7 8,-185.7"/>
<polygon fill="none" stroke="#000000" points="8,-185.7 8,-208.7 188,-208.7 188,-185.7 8,-185.7"/>
<text text-anchor="start" x="13" y="-194.8" font-family="Helvetica,sans-Serif" font-weight="bold" font-size="11.00" fill="#000000">user_entity</text>
<text text-anchor="start" x="153.0437" y="-193.8" font-family="Helvetica,sans-Serif" font-size="11.00" fill="#000000">[table]</text>
<polygon fill="none" stroke="#000000" points="8,-163.7 8,-185.7 188,-185.7 188,-163.7 8,-163.7"/>
<image xlink:href="../../images/primaryKeys.png" width="11px" height="12px" preserveAspectRatio="xMinYMin meet" x="13" y="-180.7"/>
<text text-anchor="start" x="28" y="-170.8" font-family="Helvetica,sans-Serif" font-size="11.00" fill="#000000">id</text>
<polygon fill="#ffffff" stroke="transparent" points="8,-141.7 8,-163.7 188,-163.7 188,-141.7 8,-141.7"/>
<polygon fill="none" stroke="#000000" points="8,-141.7 8,-163.7 188,-163.7 188,-141.7 8,-141.7"/>
<text text-anchor="start" x="28" y="-148.8" font-family="Helvetica,sans-Serif" font-size="11.00" fill="#000000">email</text>
<polygon fill="#ffffff" stroke="transparent" points="8,-119.7 8,-141.7 188,-141.7 188,-119.7 8,-119.7"/>
<polygon fill="none" stroke="#000000" points="8,-119.7 8,-141.7 188,-141.7 188,-119.7 8,-119.7"/>
<text text-anchor="start" x="28" y="-126.8" font-family="Helvetica,sans-Serif" font-size="11.00" fill="#000000">email_constraint</text>
<polygon fill="#ffffff" stroke="transparent" points="8,-97.7 8,-119.7 188,-119.7 188,-97.7 8,-97.7"/>
<polygon fill="none" stroke="#000000" points="8,-97.7 8,-119.7 188,-119.7 188,-97.7 8,-97.7"/>
<image xlink:href="../../images/foreignKeys.png" width="11px" height="12px" preserveAspectRatio="xMinYMin meet" x="13" y="-114.7"/>
<text text-anchor="start" x="28" y="-104.8" font-family="Helvetica,sans-Serif" font-size="11.00" fill="#000000">realm_id</text>
<polygon fill="#ffffff" stroke="transparent" points="8,-75.7 8,-97.7 188,-97.7 188,-75.7 8,-75.7"/>
<polygon fill="none" stroke="#000000" points="8,-75.7 8,-97.7 188,-97.7 188,-75.7 8,-75.7"/>
<text text-anchor="start" x="28" y="-82.8" font-family="Helvetica,sans-Serif" font-size="11.00" fill="#000000">username</text>
<polygon fill="none" stroke="#000000" points="8,-56.7 8,-75.7 188,-75.7 188,-56.7 8,-56.7"/>
<text text-anchor="start" x="11" y="-62.8" font-family="Helvetica,sans-Serif" font-size="11.00" fill="#000000">...</text>
<polygon fill="#ffffff" stroke="transparent" points="8,-37.7 8,-56.7 77,-56.7 77,-37.7 8,-37.7"/>
<polygon fill="none" stroke="#000000" points="8,-37.7 8,-56.7 77,-56.7 77,-37.7 8,-37.7"/>
<text text-anchor="start" x="11" y="-43.8" font-family="Helvetica,sans-Serif" font-size="11.00" fill="#000000"> &#160;</text>
<polygon fill="#ffffff" stroke="transparent" points="77,-37.7 77,-56.7 138,-56.7 138,-37.7 77,-37.7"/>
<polygon fill="none" stroke="#000000" points="77,-37.7 77,-56.7 138,-56.7 138,-37.7 77,-37.7"/>
<text text-anchor="start" x="108.1105" y="-43.8" font-family="Helvetica,sans-Serif" font-size="11.00" fill="#000000">1 row</text>
<polygon fill="#ffffff" stroke="transparent" points="138,-37.7 138,-56.7 188,-56.7 188,-37.7 138,-37.7"/>
<polygon fill="none" stroke="#000000" points="138,-37.7 138,-56.7 188,-56.7 188,-37.7 138,-37.7"/>
<text text-anchor="start" x="169.4053" y="-43.8" font-family="Helvetica,sans-Serif" font-size="11.00" fill="#000000">7 &gt;</text>
</a>
</g>
</g>
<!-- user_consent&#45;&gt;user_entity -->
<g id="edge1" class="edge">
<title>user_consent:w&#45;&gt;user_entity:e</title>
<path fill="none" stroke="#000000" d="M224.276,-174.7C212.2815,-174.7 204.8229,-174.7 188,-174.7"/>
<polygon fill="#000000" stroke="#000000" points="231,-174.7001 239,-178.3 235,-174.7 239,-174.7 239,-174.7 239,-174.7 235,-174.7 239,-171.1 231,-174.7001 231,-174.7001"/>
<ellipse fill="none" stroke="#000000" cx="227.8" cy="-174.7001" rx="3.2" ry="3.2"/>
</g>
<!-- user_consent_client_scope -->
<g id="node3" class="node">
<title>user_consent_client_scope</title>
<g id="a_node3"><a xlink:href="../../tables/user_consent_client_scope.html" xlink:title="user_consent_client_scope" target="_top">
<polygon fill="#ffffff" stroke="transparent" points="514,-166.7 514,-252.7 692,-252.7 692,-166.7 514,-166.7"/>
<polygon fill="#f5f5f5" stroke="transparent" points="514,-229.7 514,-252.7 692,-252.7 692,-229.7 514,-229.7"/>
<polygon fill="none" stroke="#000000" points="514,-229.7 514,-252.7 692,-252.7 692,-229.7 514,-229.7"/>
<text text-anchor="start" x="519" y="-238.8" font-family="Helvetica,sans-Serif" font-weight="bold" font-size="11.00" fill="#000000">user_consent_client_scope</text>
<text text-anchor="start" x="657.0437" y="-237.8" font-family="Helvetica,sans-Serif" font-size="11.00" fill="#000000">[table]</text>
<polygon fill="none" stroke="#000000" points="514,-207.7 514,-229.7 692,-229.7 692,-207.7 514,-207.7"/>
<image xlink:href="../../images/primaryKeys.png" width="11px" height="12px" preserveAspectRatio="xMinYMin meet" x="519" y="-224.7"/>
<text text-anchor="start" x="534" y="-214.8" font-family="Helvetica,sans-Serif" font-size="11.00" fill="#000000">user_consent_id</text>
<polygon fill="none" stroke="#000000" points="514,-185.7 514,-207.7 692,-207.7 692,-185.7 514,-185.7"/>
<image xlink:href="../../images/primaryKeys.png" width="11px" height="12px" preserveAspectRatio="xMinYMin meet" x="519" y="-202.7"/>
<text text-anchor="start" x="534" y="-192.8" font-family="Helvetica,sans-Serif" font-size="11.00" fill="#000000">scope_id</text>
<polygon fill="#ffffff" stroke="transparent" points="514,-166.7 514,-185.7 588,-185.7 588,-166.7 514,-166.7"/>
<polygon fill="none" stroke="#000000" points="514,-166.7 514,-185.7 588,-185.7 588,-166.7 514,-166.7"/>
<text text-anchor="start" x="517" y="-172.8" font-family="Helvetica,sans-Serif" font-size="11.00" fill="#000000">&lt; 1</text>
<polygon fill="#ffffff" stroke="transparent" points="588,-166.7 588,-185.7 653,-185.7 653,-166.7 588,-166.7"/>
<polygon fill="none" stroke="#000000" points="588,-166.7 588,-185.7 653,-185.7 653,-166.7 588,-166.7"/>
<text text-anchor="start" x="617.6105" y="-172.8" font-family="Helvetica,sans-Serif" font-size="11.00" fill="#000000">0 rows</text>
<polygon fill="#ffffff" stroke="transparent" points="653,-166.7 653,-185.7 692,-185.7 692,-166.7 653,-166.7"/>
<polygon fill="none" stroke="#000000" points="653,-166.7 653,-185.7 692,-185.7 692,-166.7 653,-166.7"/>
<text text-anchor="start" x="682.8862" y="-172.8" font-family="Helvetica,sans-Serif" font-size="11.00" fill="#000000"> &#160;</text>
</a>
</g>
</g>
<!-- user_consent_client_scope&#45;&gt;user_consent -->
<g id="edge2" class="edge">
<title>user_consent_client_scope:w&#45;&gt;user_consent:e</title>
<path fill="none" stroke="#000000" d="M499.276,-218.7C487.2815,-218.7 479.8229,-218.7 463,-218.7"/>
<polygon fill="#000000" stroke="#000000" points="506,-218.7001 514,-222.3 510,-218.7 514,-218.7 514,-218.7 514,-218.7 510,-218.7 514,-215.1 506,-218.7001 506,-218.7001"/>
<ellipse fill="none" stroke="#000000" cx="502.8" cy="-218.7001" rx="3.2" ry="3.2"/>
</g>
</g>
</svg>
