<?xml version="1.0" encoding="UTF-8" standalone="no"?>
<!DOCTYPE svg PUBLIC "-//W3C//DTD SVG 1.1//EN"
 "http://www.w3.org/Graphics/SVG/1.1/DTD/svg11.dtd">
<!-- Generated by graphviz version 2.40.1 (20161225.0304)
 -->
<!-- Title: twoDegreesRelationshipsDiagram Pages: 1 -->
<svg width="425pt" height="677pt"
 viewBox="0.00 0.00 425.00 677.20" xmlns="http://www.w3.org/2000/svg" xmlns:xlink="http://www.w3.org/1999/xlink">
<g id="graph0" class="graph" transform="scale(1 1) rotate(0) translate(4 673.2)">
<title>twoDegreesRelationshipsDiagram</title>
<polygon fill="#ffffff" stroke="transparent" points="-4,4 -4,-673.2 421,-673.2 421,4 -4,4"/>
<text text-anchor="middle" x="72.4936" y="-7.3" font-family="Helvetica,sans-Serif" font-size="11.00" fill="#000000">Generated by SchemaSpy</text>
<!-- credential -->
<g id="node1" class="node">
<title>credential</title>
<g id="a_node1"><a xlink:href="../../tables/credential.html" xlink:title="credential" target="_top">
<polygon fill="#ffffff" stroke="transparent" points="278,-604.2 278,-665.2 368,-665.2 368,-604.2 278,-604.2"/>
<polygon fill="#f5f5f5" stroke="transparent" points="278,-641.7 278,-664.7 368,-664.7 368,-641.7 278,-641.7"/>
<polygon fill="none" stroke="#000000" points="278,-641.7 278,-664.7 368,-664.7 368,-641.7 278,-641.7"/>
<text text-anchor="start" x="282.6625" y="-650.8" font-family="Helvetica,sans-Serif" font-weight="bold" font-size="11.00" fill="#000000">credential</text>
<text text-anchor="start" x="333.5219" y="-649.8" font-family="Helvetica,sans-Serif" font-size="11.00" fill="#000000">[table]</text>
<polygon fill="none" stroke="#000000" points="278,-622.7 278,-641.7 368,-641.7 368,-622.7 278,-622.7"/>
<text text-anchor="start" x="281" y="-628.8" font-family="Helvetica,sans-Serif" font-size="11.00" fill="#000000">...</text>
<polygon fill="#ffffff" stroke="transparent" points="278,-603.7 278,-622.7 311,-622.7 311,-603.7 278,-603.7"/>
<polygon fill="none" stroke="#000000" points="278,-603.7 278,-622.7 311,-622.7 311,-603.7 278,-603.7"/>
<text text-anchor="start" x="281" y="-609.8" font-family="Helvetica,sans-Serif" font-size="11.00" fill="#000000">&lt; 1</text>
<polygon fill="#ffffff" stroke="transparent" points="311,-603.7 311,-622.7 349,-622.7 349,-603.7 311,-603.7"/>
<polygon fill="none" stroke="#000000" points="311,-603.7 311,-622.7 349,-622.7 349,-603.7 311,-603.7"/>
<text text-anchor="start" x="319.1105" y="-609.8" font-family="Helvetica,sans-Serif" font-size="11.00" fill="#000000">1 row</text>
<polygon fill="#ffffff" stroke="transparent" points="349,-603.7 349,-622.7 368,-622.7 368,-603.7 349,-603.7"/>
<polygon fill="none" stroke="#000000" points="349,-603.7 349,-622.7 368,-622.7 368,-603.7 349,-603.7"/>
<text text-anchor="start" x="358.8862" y="-609.8" font-family="Helvetica,sans-Serif" font-size="11.00" fill="#000000"> &#160;</text>
</a>
</g>
</g>
<!-- user_entity -->
<g id="node2" class="node">
<title>user_entity</title>
<g id="a_node2"><a xlink:href="../../tables/user_entity.html" xlink:title="user_entity" target="_top">
<polygon fill="#ffffff" stroke="transparent" points="8,-175.2 8,-346.2 188,-346.2 188,-175.2 8,-175.2"/>
<polygon fill="#f5f5f5" stroke="transparent" points="8,-322.7 8,-345.7 188,-345.7 188,-322.7 8,-322.7"/>
<polygon fill="none" stroke="#000000" points="8,-322.7 8,-345.7 188,-345.7 188,-322.7 8,-322.7"/>
<text text-anchor="start" x="13" y="-331.8" font-family="Helvetica,sans-Serif" font-weight="bold" font-size="11.00" fill="#000000">user_entity</text>
<text text-anchor="start" x="153.0437" y="-330.8" font-family="Helvetica,sans-Serif" font-size="11.00" fill="#000000">[table]</text>
<polygon fill="none" stroke="#000000" points="8,-300.7 8,-322.7 188,-322.7 188,-300.7 8,-300.7"/>
<image xlink:href="../../images/primaryKeys.png" width="11px" height="12px" preserveAspectRatio="xMinYMin meet" x="13" y="-317.7"/>
<text text-anchor="start" x="28" y="-307.8" font-family="Helvetica,sans-Serif" font-size="11.00" fill="#000000">id</text>
<polygon fill="#ffffff" stroke="transparent" points="8,-278.7 8,-300.7 188,-300.7 188,-278.7 8,-278.7"/>
<polygon fill="none" stroke="#000000" points="8,-278.7 8,-300.7 188,-300.7 188,-278.7 8,-278.7"/>
<text text-anchor="start" x="28" y="-285.8" font-family="Helvetica,sans-Serif" font-size="11.00" fill="#000000">email</text>
<polygon fill="#ffffff" stroke="transparent" points="8,-256.7 8,-278.7 188,-278.7 188,-256.7 8,-256.7"/>
<polygon fill="none" stroke="#000000" points="8,-256.7 8,-278.7 188,-278.7 188,-256.7 8,-256.7"/>
<text text-anchor="start" x="28" y="-263.8" font-family="Helvetica,sans-Serif" font-size="11.00" fill="#000000">email_constraint</text>
<polygon fill="#ffffff" stroke="transparent" points="8,-234.7 8,-256.7 188,-256.7 188,-234.7 8,-234.7"/>
<polygon fill="none" stroke="#000000" points="8,-234.7 8,-256.7 188,-256.7 188,-234.7 8,-234.7"/>
<image xlink:href="../../images/foreignKeys.png" width="11px" height="12px" preserveAspectRatio="xMinYMin meet" x="13" y="-251.7"/>
<text text-anchor="start" x="28" y="-241.8" font-family="Helvetica,sans-Serif" font-size="11.00" fill="#000000">realm_id</text>
<polygon fill="#ffffff" stroke="transparent" points="8,-212.7 8,-234.7 188,-234.7 188,-212.7 8,-212.7"/>
<polygon fill="none" stroke="#000000" points="8,-212.7 8,-234.7 188,-234.7 188,-212.7 8,-212.7"/>
<text text-anchor="start" x="28" y="-219.8" font-family="Helvetica,sans-Serif" font-size="11.00" fill="#000000">username</text>
<polygon fill="none" stroke="#000000" points="8,-193.7 8,-212.7 188,-212.7 188,-193.7 8,-193.7"/>
<text text-anchor="start" x="11" y="-199.8" font-family="Helvetica,sans-Serif" font-size="11.00" fill="#000000">...</text>
<polygon fill="#ffffff" stroke="transparent" points="8,-174.7 8,-193.7 77,-193.7 77,-174.7 8,-174.7"/>
<polygon fill="none" stroke="#000000" points="8,-174.7 8,-193.7 77,-193.7 77,-174.7 8,-174.7"/>
<text text-anchor="start" x="11" y="-180.8" font-family="Helvetica,sans-Serif" font-size="11.00" fill="#000000"> &#160;</text>
<polygon fill="#ffffff" stroke="transparent" points="77,-174.7 77,-193.7 138,-193.7 138,-174.7 77,-174.7"/>
<polygon fill="none" stroke="#000000" points="77,-174.7 77,-193.7 138,-193.7 138,-174.7 77,-174.7"/>
<text text-anchor="start" x="108.1105" y="-180.8" font-family="Helvetica,sans-Serif" font-size="11.00" fill="#000000">1 row</text>
<polygon fill="#ffffff" stroke="transparent" points="138,-174.7 138,-193.7 188,-193.7 188,-174.7 138,-174.7"/>
<polygon fill="none" stroke="#000000" points="138,-174.7 138,-193.7 188,-193.7 188,-174.7 138,-174.7"/>
<text text-anchor="start" x="169.4053" y="-180.8" font-family="Helvetica,sans-Serif" font-size="11.00" fill="#000000">7 &gt;</text>
</a>
</g>
</g>
<!-- credential&#45;&gt;user_entity -->
<g id="edge1" class="edge">
<title>credential:w&#45;&gt;user_entity:e</title>
<path fill="none" stroke="#000000" d="M263.4609,-629.9818C247.1082,-625.5381 240.0599,-612.6729 229,-593.7 197.1086,-538.9911 251.3255,-311.7 188,-311.7"/>
<polygon fill="#000000" stroke="#000000" points="270.0553,-630.7611 277.5775,-635.2751 274.0276,-631.2305 278,-631.7 278,-631.7 278,-631.7 274.0276,-631.2305 278.4225,-628.1249 270.0553,-630.7611 270.0553,-630.7611"/>
<ellipse fill="none" stroke="#000000" cx="266.8774" cy="-630.3855" rx="3.2" ry="3.2"/>
</g>
<!-- federated_identity -->
<g id="node3" class="node">
<title>federated_identity</title>
<g id="a_node3"><a xlink:href="../../tables/federated_identity.html" xlink:title="federated_identity" target="_top">
<polygon fill="#ffffff" stroke="transparent" points="258,-522.2 258,-583.2 388,-583.2 388,-522.2 258,-522.2"/>
<polygon fill="#f5f5f5" stroke="transparent" points="258,-559.7 258,-582.7 388,-582.7 388,-559.7 258,-559.7"/>
<polygon fill="none" stroke="#000000" points="258,-559.7 258,-582.7 388,-582.7 388,-559.7 258,-559.7"/>
<text text-anchor="start" x="262.7899" y="-568.8" font-family="Helvetica,sans-Serif" font-weight="bold" font-size="11.00" fill="#000000">federated_identity</text>
<text text-anchor="start" x="353.5219" y="-567.8" font-family="Helvetica,sans-Serif" font-size="11.00" fill="#000000">[table]</text>
<polygon fill="none" stroke="#000000" points="258,-540.7 258,-559.7 388,-559.7 388,-540.7 258,-540.7"/>
<text text-anchor="start" x="261" y="-546.8" font-family="Helvetica,sans-Serif" font-size="11.00" fill="#000000">...</text>
<polygon fill="#ffffff" stroke="transparent" points="258,-521.7 258,-540.7 308,-540.7 308,-521.7 258,-521.7"/>
<polygon fill="none" stroke="#000000" points="258,-521.7 258,-540.7 308,-540.7 308,-521.7 258,-521.7"/>
<text text-anchor="start" x="261" y="-527.8" font-family="Helvetica,sans-Serif" font-size="11.00" fill="#000000">&lt; 1</text>
<polygon fill="#ffffff" stroke="transparent" points="308,-521.7 308,-540.7 361,-540.7 361,-521.7 308,-521.7"/>
<polygon fill="none" stroke="#000000" points="308,-521.7 308,-540.7 361,-540.7 361,-521.7 308,-521.7"/>
<text text-anchor="start" x="325.6105" y="-527.8" font-family="Helvetica,sans-Serif" font-size="11.00" fill="#000000">0 rows</text>
<polygon fill="#ffffff" stroke="transparent" points="361,-521.7 361,-540.7 388,-540.7 388,-521.7 361,-521.7"/>
<polygon fill="none" stroke="#000000" points="361,-521.7 361,-540.7 388,-540.7 388,-521.7 361,-521.7"/>
<text text-anchor="start" x="378.8862" y="-527.8" font-family="Helvetica,sans-Serif" font-size="11.00" fill="#000000"> &#160;</text>
</a>
</g>
</g>
<!-- federated_identity&#45;&gt;user_entity -->
<g id="edge2" class="edge">
<title>federated_identity:w&#45;&gt;user_entity:e</title>
<path fill="none" stroke="#000000" d="M244.1312,-545.2362C236.5073,-538.5596 235.1869,-525.2966 229,-511.7 210.2095,-470.4055 233.3687,-311.7 188,-311.7"/>
<polygon fill="#000000" stroke="#000000" points="250.3847,-547.2489 256.897,-553.1269 254.1924,-548.4745 258,-549.7 258,-549.7 258,-549.7 254.1924,-548.4745 259.103,-546.2731 250.3847,-547.2489 250.3847,-547.2489"/>
<ellipse fill="none" stroke="#000000" cx="247.3386" cy="-546.2685" rx="3.2" ry="3.2"/>
</g>
<!-- user_attribute -->
<g id="node4" class="node">
<title>user_attribute</title>
<g id="a_node4"><a xlink:href="../../tables/user_attribute.html" xlink:title="user_attribute" target="_top">
<polygon fill="#ffffff" stroke="transparent" points="237,-366.7 237,-500.7 409,-500.7 409,-366.7 237,-366.7"/>
<polygon fill="#f5f5f5" stroke="transparent" points="239,-475.7 239,-498.7 407,-498.7 407,-475.7 239,-475.7"/>
<polygon fill="none" stroke="#000000" points="239,-475.7 239,-498.7 407,-498.7 407,-475.7 239,-475.7"/>
<text text-anchor="start" x="244" y="-484.8" font-family="Helvetica,sans-Serif" font-weight="bold" font-size="11.00" fill="#000000">user_attribute</text>
<text text-anchor="start" x="372.0437" y="-483.8" font-family="Helvetica,sans-Serif" font-size="11.00" fill="#000000">[table]</text>
<polygon fill="none" stroke="#000000" points="239,-453.7 239,-475.7 340,-475.7 340,-453.7 239,-453.7"/>
<text text-anchor="start" x="259" y="-460.8" font-family="Helvetica,sans-Serif" font-size="11.00" fill="#000000">name</text>
<polygon fill="none" stroke="#000000" points="340,-453.7 340,-475.7 407,-475.7 407,-453.7 340,-453.7"/>
<text text-anchor="start" x="342.9365" y="-461.4" font-family="Helvetica,sans-Serif" font-size="11.00" fill="#000000">varchar[255]</text>
<polygon fill="none" stroke="#000000" points="239,-431.7 239,-453.7 340,-453.7 340,-431.7 239,-431.7"/>
<text text-anchor="start" x="259" y="-438.8" font-family="Helvetica,sans-Serif" font-size="11.00" fill="#000000">value</text>
<polygon fill="none" stroke="#000000" points="340,-431.7 340,-453.7 407,-453.7 407,-431.7 340,-431.7"/>
<text text-anchor="start" x="342.9365" y="-439.4" font-family="Helvetica,sans-Serif" font-size="11.00" fill="#000000">varchar[255]</text>
<polygon fill="#ffffff" stroke="transparent" points="239,-409.7 239,-431.7 340,-431.7 340,-409.7 239,-409.7"/>
<polygon fill="none" stroke="#000000" points="239,-409.7 239,-431.7 340,-431.7 340,-409.7 239,-409.7"/>
<image xlink:href="../../images/foreignKeys.png" width="11px" height="12px" preserveAspectRatio="xMinYMin meet" x="244" y="-426.7"/>
<text text-anchor="start" x="259" y="-416.8" font-family="Helvetica,sans-Serif" font-size="11.00" fill="#000000">user_id</text>
<polygon fill="none" stroke="#000000" points="340,-409.7 340,-431.7 407,-431.7 407,-409.7 340,-409.7"/>
<text text-anchor="start" x="343" y="-417.4" font-family="Helvetica,sans-Serif" font-size="11.00" fill="#000000">varchar[36]</text>
<polygon fill="none" stroke="#000000" points="239,-387.7 239,-409.7 340,-409.7 340,-387.7 239,-387.7"/>
<image xlink:href="../../images/primaryKeys.png" width="11px" height="12px" preserveAspectRatio="xMinYMin meet" x="244" y="-404.7"/>
<text text-anchor="start" x="259" y="-394.8" font-family="Helvetica,sans-Serif" font-size="11.00" fill="#000000">id</text>
<polygon fill="none" stroke="#000000" points="340,-387.7 340,-409.7 407,-409.7 407,-387.7 340,-387.7"/>
<text text-anchor="start" x="343" y="-395.4" font-family="Helvetica,sans-Serif" font-size="11.00" fill="#000000">varchar[36]</text>
<polygon fill="#ffffff" stroke="transparent" points="239,-368.7 239,-387.7 281,-387.7 281,-368.7 239,-368.7"/>
<polygon fill="none" stroke="#000000" points="239,-368.7 239,-387.7 281,-387.7 281,-368.7 239,-368.7"/>
<text text-anchor="start" x="242" y="-374.8" font-family="Helvetica,sans-Serif" font-size="11.00" fill="#000000">&lt; 1</text>
<polygon fill="#ffffff" stroke="transparent" points="281,-368.7 281,-387.7 340,-387.7 340,-368.7 281,-368.7"/>
<polygon fill="none" stroke="#000000" points="281,-368.7 281,-387.7 340,-387.7 340,-368.7 281,-368.7"/>
<text text-anchor="start" x="304.6105" y="-374.8" font-family="Helvetica,sans-Serif" font-size="11.00" fill="#000000">0 rows</text>
<polygon fill="#ffffff" stroke="transparent" points="340,-368.7 340,-387.7 407,-387.7 407,-368.7 340,-368.7"/>
<polygon fill="none" stroke="#000000" points="340,-368.7 340,-387.7 407,-387.7 407,-368.7 340,-368.7"/>
<text text-anchor="start" x="388.4053" y="-374.8" font-family="Helvetica,sans-Serif" font-size="11.00" fill="#000000">0 &gt;</text>
<polygon fill="none" stroke="#000000" stroke-width="2" points="238,-367.7 238,-499.7 408,-499.7 408,-367.7 238,-367.7"/>
</a>
</g>
</g>
<!-- user_attribute&#45;&gt;user_entity -->
<g id="edge3" class="edge">
<title>user_attribute:w&#45;&gt;user_entity:e</title>
<path fill="none" stroke="#000000" d="M224.719,-416.8206C196.7911,-397.4034 235.4261,-311.7 188,-311.7"/>
<polygon fill="#000000" stroke="#000000" points="231.2798,-418.6028 238.0563,-424.1741 235.1399,-419.6514 239,-420.7 239,-420.7 239,-420.7 235.1399,-419.6514 239.9437,-417.2259 231.2798,-418.6028 231.2798,-418.6028"/>
<ellipse fill="none" stroke="#000000" cx="228.1917" cy="-417.7639" rx="3.2" ry="3.2"/>
</g>
<!-- user_consent -->
<g id="node5" class="node">
<title>user_consent</title>
<g id="a_node5"><a xlink:href="../../tables/user_consent.html" xlink:title="user_consent" target="_top">
<polygon fill="#ffffff" stroke="transparent" points="268.5,-284.2 268.5,-345.2 377.5,-345.2 377.5,-284.2 268.5,-284.2"/>
<polygon fill="#f5f5f5" stroke="transparent" points="269,-321.7 269,-344.7 378,-344.7 378,-321.7 269,-321.7"/>
<polygon fill="none" stroke="#000000" points="269,-321.7 269,-344.7 378,-344.7 378,-321.7 269,-321.7"/>
<text text-anchor="start" x="273.9885" y="-330.8" font-family="Helvetica,sans-Serif" font-weight="bold" font-size="11.00" fill="#000000">user_consent</text>
<text text-anchor="start" x="343.5219" y="-329.8" font-family="Helvetica,sans-Serif" font-size="11.00" fill="#000000">[table]</text>
<polygon fill="none" stroke="#000000" points="269,-302.7 269,-321.7 378,-321.7 378,-302.7 269,-302.7"/>
<text text-anchor="start" x="272" y="-308.8" font-family="Helvetica,sans-Serif" font-size="11.00" fill="#000000">...</text>
<polygon fill="#ffffff" stroke="transparent" points="269,-283.7 269,-302.7 304,-302.7 304,-283.7 269,-283.7"/>
<polygon fill="none" stroke="#000000" points="269,-283.7 269,-302.7 304,-302.7 304,-283.7 269,-283.7"/>
<text text-anchor="start" x="272" y="-289.8" font-family="Helvetica,sans-Serif" font-size="11.00" fill="#000000">&lt; 1</text>
<polygon fill="#ffffff" stroke="transparent" points="304,-283.7 304,-302.7 349,-302.7 349,-283.7 304,-283.7"/>
<polygon fill="none" stroke="#000000" points="304,-283.7 304,-302.7 349,-302.7 349,-283.7 304,-283.7"/>
<text text-anchor="start" x="313.6105" y="-289.8" font-family="Helvetica,sans-Serif" font-size="11.00" fill="#000000">0 rows</text>
<polygon fill="#ffffff" stroke="transparent" points="349,-283.7 349,-302.7 378,-302.7 378,-283.7 349,-283.7"/>
<polygon fill="none" stroke="#000000" points="349,-283.7 349,-302.7 378,-302.7 378,-283.7 349,-283.7"/>
<text text-anchor="start" x="359.4053" y="-289.8" font-family="Helvetica,sans-Serif" font-size="11.00" fill="#000000">1 &gt;</text>
</a>
</g>
</g>
<!-- user_consent&#45;&gt;user_entity -->
<g id="edge4" class="edge">
<title>user_consent:w&#45;&gt;user_entity:e</title>
<path fill="none" stroke="#000000" d="M254.5769,-311.7C229.7332,-311.7 218.6563,-311.7 188,-311.7"/>
<polygon fill="#000000" stroke="#000000" points="261,-311.7001 269,-315.3 265,-311.7 269,-311.7 269,-311.7 269,-311.7 265,-311.7 269,-308.1 261,-311.7001 261,-311.7001"/>
<ellipse fill="none" stroke="#000000" cx="257.8" cy="-311.7001" rx="3.2" ry="3.2"/>
</g>
<!-- user_group_membership -->
<g id="node6" class="node">
<title>user_group_membership</title>
<g id="a_node6"><a xlink:href="../../tables/user_group_membership.html" xlink:title="user_group_membership" target="_top">
<polygon fill="#ffffff" stroke="transparent" points="240.5,-202.2 240.5,-263.2 405.5,-263.2 405.5,-202.2 240.5,-202.2"/>
<polygon fill="#f5f5f5" stroke="transparent" points="241,-239.7 241,-262.7 406,-262.7 406,-239.7 241,-239.7"/>
<polygon fill="none" stroke="#000000" points="241,-239.7 241,-262.7 406,-262.7 406,-239.7 241,-239.7"/>
<text text-anchor="start" x="245.878" y="-248.8" font-family="Helvetica,sans-Serif" font-weight="bold" font-size="11.00" fill="#000000">user_group_membership</text>
<text text-anchor="start" x="371.5219" y="-247.8" font-family="Helvetica,sans-Serif" font-size="11.00" fill="#000000">[table]</text>
<polygon fill="none" stroke="#000000" points="241,-220.7 241,-239.7 406,-239.7 406,-220.7 241,-220.7"/>
<text text-anchor="start" x="244" y="-226.8" font-family="Helvetica,sans-Serif" font-size="11.00" fill="#000000">...</text>
<polygon fill="#ffffff" stroke="transparent" points="241,-201.7 241,-220.7 309,-220.7 309,-201.7 241,-201.7"/>
<polygon fill="none" stroke="#000000" points="241,-201.7 241,-220.7 309,-220.7 309,-201.7 241,-201.7"/>
<text text-anchor="start" x="244" y="-207.8" font-family="Helvetica,sans-Serif" font-size="11.00" fill="#000000">&lt; 1</text>
<polygon fill="#ffffff" stroke="transparent" points="309,-201.7 309,-220.7 370,-220.7 370,-201.7 309,-201.7"/>
<polygon fill="none" stroke="#000000" points="309,-201.7 309,-220.7 370,-220.7 370,-201.7 309,-201.7"/>
<text text-anchor="start" x="334.6105" y="-207.8" font-family="Helvetica,sans-Serif" font-size="11.00" fill="#000000">0 rows</text>
<polygon fill="#ffffff" stroke="transparent" points="370,-201.7 370,-220.7 406,-220.7 406,-201.7 370,-201.7"/>
<polygon fill="none" stroke="#000000" points="370,-201.7 370,-220.7 406,-220.7 406,-201.7 370,-201.7"/>
<text text-anchor="start" x="396.8862" y="-207.8" font-family="Helvetica,sans-Serif" font-size="11.00" fill="#000000"> &#160;</text>
</a>
</g>
</g>
<!-- user_group_membership&#45;&gt;user_entity -->
<g id="edge5" class="edge">
<title>user_group_membership:w&#45;&gt;user_entity:e</title>
<path fill="none" stroke="#000000" d="M227.1352,-233.8791C205.4021,-250.5891 225.4615,-311.7 188,-311.7"/>
<polygon fill="#000000" stroke="#000000" points="233.3404,-232.0088 242.039,-233.1468 237.1702,-230.8544 241,-229.7 241,-229.7 241,-229.7 237.1702,-230.8544 239.961,-226.2532 233.3404,-232.0088 233.3404,-232.0088"/>
<ellipse fill="none" stroke="#000000" cx="230.2765" cy="-232.9323" rx="3.2" ry="3.2"/>
</g>
<!-- user_required_action -->
<g id="node7" class="node">
<title>user_required_action</title>
<g id="a_node7"><a xlink:href="../../tables/user_required_action.html" xlink:title="user_required_action" target="_top">
<polygon fill="#ffffff" stroke="transparent" points="250,-120.2 250,-181.2 396,-181.2 396,-120.2 250,-120.2"/>
<polygon fill="#f5f5f5" stroke="transparent" points="250,-157.7 250,-180.7 396,-180.7 396,-157.7 250,-157.7"/>
<polygon fill="none" stroke="#000000" points="250,-157.7 250,-180.7 396,-180.7 396,-157.7 250,-157.7"/>
<text text-anchor="start" x="254.8484" y="-166.8" font-family="Helvetica,sans-Serif" font-weight="bold" font-size="11.00" fill="#000000">user_required_action</text>
<text text-anchor="start" x="361.5219" y="-165.8" font-family="Helvetica,sans-Serif" font-size="11.00" fill="#000000">[table]</text>
<polygon fill="none" stroke="#000000" points="250,-138.7 250,-157.7 396,-157.7 396,-138.7 250,-138.7"/>
<text text-anchor="start" x="253" y="-144.8" font-family="Helvetica,sans-Serif" font-size="11.00" fill="#000000">...</text>
<polygon fill="#ffffff" stroke="transparent" points="250,-119.7 250,-138.7 308,-138.7 308,-119.7 250,-119.7"/>
<polygon fill="none" stroke="#000000" points="250,-119.7 250,-138.7 308,-138.7 308,-119.7 250,-119.7"/>
<text text-anchor="start" x="253" y="-125.8" font-family="Helvetica,sans-Serif" font-size="11.00" fill="#000000">&lt; 1</text>
<polygon fill="#ffffff" stroke="transparent" points="308,-119.7 308,-138.7 365,-138.7 365,-119.7 308,-119.7"/>
<polygon fill="none" stroke="#000000" points="308,-119.7 308,-138.7 365,-138.7 365,-119.7 308,-119.7"/>
<text text-anchor="start" x="329.6105" y="-125.8" font-family="Helvetica,sans-Serif" font-size="11.00" fill="#000000">0 rows</text>
<polygon fill="#ffffff" stroke="transparent" points="365,-119.7 365,-138.7 396,-138.7 396,-119.7 365,-119.7"/>
<polygon fill="none" stroke="#000000" points="365,-119.7 365,-138.7 396,-138.7 396,-119.7 365,-119.7"/>
<text text-anchor="start" x="386.8862" y="-125.8" font-family="Helvetica,sans-Serif" font-size="11.00" fill="#000000"> &#160;</text>
</a>
</g>
</g>
<!-- user_required_action&#45;&gt;user_entity -->
<g id="edge6" class="edge">
<title>user_required_action:w&#45;&gt;user_entity:e</title>
<path fill="none" stroke="#000000" d="M235.6679,-150.1456C184.7432,-170.5467 260.2925,-311.7 188,-311.7"/>
<polygon fill="#000000" stroke="#000000" points="242.114,-149.0457 250.6056,-151.2487 246.057,-148.3728 250,-147.7 250,-147.7 250,-147.7 246.057,-148.3728 249.3944,-144.1513 242.114,-149.0457 242.114,-149.0457"/>
<ellipse fill="none" stroke="#000000" cx="238.9596" cy="-149.584" rx="3.2" ry="3.2"/>
</g>
<!-- user_role_mapping -->
<g id="node8" class="node">
<title>user_role_mapping</title>
<g id="a_node8"><a xlink:href="../../tables/user_role_mapping.html" xlink:title="user_role_mapping" target="_top">
<polygon fill="#ffffff" stroke="transparent" points="254.5,-38.2 254.5,-99.2 391.5,-99.2 391.5,-38.2 254.5,-38.2"/>
<polygon fill="#f5f5f5" stroke="transparent" points="255,-75.7 255,-98.7 392,-98.7 392,-75.7 255,-75.7"/>
<polygon fill="none" stroke="#000000" points="255,-75.7 255,-98.7 392,-98.7 392,-75.7 255,-75.7"/>
<text text-anchor="start" x="259.9343" y="-84.8" font-family="Helvetica,sans-Serif" font-weight="bold" font-size="11.00" fill="#000000">user_role_mapping</text>
<text text-anchor="start" x="357.5219" y="-83.8" font-family="Helvetica,sans-Serif" font-size="11.00" fill="#000000">[table]</text>
<polygon fill="none" stroke="#000000" points="255,-56.7 255,-75.7 392,-75.7 392,-56.7 255,-56.7"/>
<text text-anchor="start" x="258" y="-62.8" font-family="Helvetica,sans-Serif" font-size="11.00" fill="#000000">...</text>
<polygon fill="#ffffff" stroke="transparent" points="255,-37.7 255,-56.7 309,-56.7 309,-37.7 255,-37.7"/>
<polygon fill="none" stroke="#000000" points="255,-37.7 255,-56.7 309,-56.7 309,-37.7 255,-37.7"/>
<text text-anchor="start" x="258" y="-43.8" font-family="Helvetica,sans-Serif" font-size="11.00" fill="#000000">&lt; 1</text>
<polygon fill="#ffffff" stroke="transparent" points="309,-37.7 309,-56.7 363,-56.7 363,-37.7 309,-37.7"/>
<polygon fill="none" stroke="#000000" points="309,-37.7 309,-56.7 363,-56.7 363,-37.7 309,-37.7"/>
<text text-anchor="start" x="327.6105" y="-43.8" font-family="Helvetica,sans-Serif" font-size="11.00" fill="#000000">5 rows</text>
<polygon fill="#ffffff" stroke="transparent" points="363,-37.7 363,-56.7 392,-56.7 392,-37.7 363,-37.7"/>
<polygon fill="none" stroke="#000000" points="363,-37.7 363,-56.7 392,-56.7 392,-37.7 363,-37.7"/>
<text text-anchor="start" x="382.8862" y="-43.8" font-family="Helvetica,sans-Serif" font-size="11.00" fill="#000000"> &#160;</text>
</a>
</g>
</g>
<!-- user_role_mapping&#45;&gt;user_entity -->
<g id="edge7" class="edge">
<title>user_role_mapping:w&#45;&gt;user_entity:e</title>
<path fill="none" stroke="#000000" d="M241.6104,-71.7809C206.1212,-109.6629 239.3463,-311.7 188,-311.7"/>
<polygon fill="#000000" stroke="#000000" points="247.716,-69.0081 256.4886,-68.9778 251.358,-67.354 255,-65.7 255,-65.7 255,-65.7 251.358,-67.354 253.5114,-62.4222 247.716,-69.0081 247.716,-69.0081"/>
<ellipse fill="none" stroke="#000000" cx="244.8024" cy="-70.3313" rx="3.2" ry="3.2"/>
</g>
</g>
</svg>
