<?xml version="1.0" encoding="UTF-8" standalone="no"?>
<!DOCTYPE svg PUBLIC "-//W3C//DTD SVG 1.1//EN"
 "http://www.w3.org/Graphics/SVG/1.1/DTD/svg11.dtd">
<!-- Generated by graphviz version 2.40.1 (20161225.0304)
 -->
<!-- Title: twoDegreesRelationshipsDiagram Pages: 1 -->
<svg width="618pt" height="223pt"
 viewBox="0.00 0.00 618.00 222.70" xmlns="http://www.w3.org/2000/svg" xmlns:xlink="http://www.w3.org/1999/xlink">
<g id="graph0" class="graph" transform="scale(1 1) rotate(0) translate(4 218.7)">
<title>twoDegreesRelationshipsDiagram</title>
<polygon fill="#ffffff" stroke="transparent" points="-4,4 -4,-218.7 614,-218.7 614,4 -4,4"/>
<text text-anchor="middle" x="72.4936" y="-7.3" font-family="Helvetica,sans-Serif" font-size="11.00" fill="#000000">Generated by SchemaSpy</text>
<!-- user_consent -->
<g id="node1" class="node">
<title>user_consent</title>
<g id="a_node1"><a xlink:href="../../tables/user_consent.html" xlink:title="user_consent" target="_top">
<polygon fill="#ffffff" stroke="transparent" points="153,-38.2 153,-209.2 310,-209.2 310,-38.2 153,-38.2"/>
<polygon fill="#f5f5f5" stroke="transparent" points="153.5,-185.7 153.5,-208.7 310.5,-208.7 310.5,-185.7 153.5,-185.7"/>
<polygon fill="none" stroke="#000000" points="153.5,-185.7 153.5,-208.7 310.5,-208.7 310.5,-185.7 153.5,-185.7"/>
<text text-anchor="start" x="158.5" y="-194.8" font-family="Helvetica,sans-Serif" font-weight="bold" font-size="11.00" fill="#000000">user_consent</text>
<text text-anchor="start" x="275.5437" y="-193.8" font-family="Helvetica,sans-Serif" font-size="11.00" fill="#000000">[table]</text>
<polygon fill="none" stroke="#000000" points="153.5,-163.7 153.5,-185.7 310.5,-185.7 310.5,-163.7 153.5,-163.7"/>
<image xlink:href="../../images/primaryKeys.png" width="11px" height="12px" preserveAspectRatio="xMinYMin meet" x="158.5" y="-180.7"/>
<text text-anchor="start" x="173.5" y="-170.8" font-family="Helvetica,sans-Serif" font-size="11.00" fill="#000000">id</text>
<polygon fill="#ffffff" stroke="transparent" points="153.5,-141.7 153.5,-163.7 310.5,-163.7 310.5,-141.7 153.5,-141.7"/>
<polygon fill="none" stroke="#000000" points="153.5,-141.7 153.5,-163.7 310.5,-163.7 310.5,-141.7 153.5,-141.7"/>
<image xlink:href="../../images/foreignKeys.png" width="11px" height="12px" preserveAspectRatio="xMinYMin meet" x="158.5" y="-158.7"/>
<text text-anchor="start" x="173.5" y="-148.8" font-family="Helvetica,sans-Serif" font-size="11.00" fill="#000000">client_id</text>
<polygon fill="#ffffff" stroke="transparent" points="153.5,-119.7 153.5,-141.7 310.5,-141.7 310.5,-119.7 153.5,-119.7"/>
<polygon fill="none" stroke="#000000" points="153.5,-119.7 153.5,-141.7 310.5,-141.7 310.5,-119.7 153.5,-119.7"/>
<image xlink:href="../../images/foreignKeys.png" width="11px" height="12px" preserveAspectRatio="xMinYMin meet" x="158.5" y="-136.7"/>
<text text-anchor="start" x="173.5" y="-126.8" font-family="Helvetica,sans-Serif" font-size="11.00" fill="#000000">user_id</text>
<polygon fill="#ffffff" stroke="transparent" points="153.5,-97.7 153.5,-119.7 310.5,-119.7 310.5,-97.7 153.5,-97.7"/>
<polygon fill="none" stroke="#000000" points="153.5,-97.7 153.5,-119.7 310.5,-119.7 310.5,-97.7 153.5,-97.7"/>
<text text-anchor="start" x="173.5" y="-104.8" font-family="Helvetica,sans-Serif" font-size="11.00" fill="#000000">client_storage_provider</text>
<polygon fill="#ffffff" stroke="transparent" points="153.5,-75.7 153.5,-97.7 310.5,-97.7 310.5,-75.7 153.5,-75.7"/>
<polygon fill="none" stroke="#000000" points="153.5,-75.7 153.5,-97.7 310.5,-97.7 310.5,-75.7 153.5,-75.7"/>
<image xlink:href="../../images/foreignKeys.png" width="11px" height="12px" preserveAspectRatio="xMinYMin meet" x="158.5" y="-92.7"/>
<text text-anchor="start" x="173.5" y="-82.8" font-family="Helvetica,sans-Serif" font-size="11.00" fill="#000000">external_client_id</text>
<polygon fill="none" stroke="#000000" points="153.5,-56.7 153.5,-75.7 310.5,-75.7 310.5,-56.7 153.5,-56.7"/>
<text text-anchor="start" x="156.5" y="-62.8" font-family="Helvetica,sans-Serif" font-size="11.00" fill="#000000">...</text>
<polygon fill="#ffffff" stroke="transparent" points="153.5,-37.7 153.5,-56.7 212.5,-56.7 212.5,-37.7 153.5,-37.7"/>
<polygon fill="none" stroke="#000000" points="153.5,-37.7 153.5,-56.7 212.5,-56.7 212.5,-37.7 153.5,-37.7"/>
<text text-anchor="start" x="156.5" y="-43.8" font-family="Helvetica,sans-Serif" font-size="11.00" fill="#000000">&lt; 1</text>
<polygon fill="#ffffff" stroke="transparent" points="212.5,-37.7 212.5,-56.7 269.5,-56.7 269.5,-37.7 212.5,-37.7"/>
<polygon fill="none" stroke="#000000" points="212.5,-37.7 212.5,-56.7 269.5,-56.7 269.5,-37.7 212.5,-37.7"/>
<text text-anchor="start" x="234.1105" y="-43.8" font-family="Helvetica,sans-Serif" font-size="11.00" fill="#000000">0 rows</text>
<polygon fill="#ffffff" stroke="transparent" points="269.5,-37.7 269.5,-56.7 310.5,-56.7 310.5,-37.7 269.5,-37.7"/>
<polygon fill="none" stroke="#000000" points="269.5,-37.7 269.5,-56.7 310.5,-56.7 310.5,-37.7 269.5,-37.7"/>
<text text-anchor="start" x="291.9053" y="-43.8" font-family="Helvetica,sans-Serif" font-size="11.00" fill="#000000">1 &gt;</text>
</a>
</g>
</g>
<!-- user_entity -->
<g id="node2" class="node">
<title>user_entity</title>
<g id="a_node2"><a xlink:href="../../tables/user_entity.html" xlink:title="user_entity" target="_top">
<polygon fill="#ffffff" stroke="transparent" points="8,-103.2 8,-164.2 104,-164.2 104,-103.2 8,-103.2"/>
<polygon fill="#f5f5f5" stroke="transparent" points="8,-140.7 8,-163.7 104,-163.7 104,-140.7 8,-140.7"/>
<polygon fill="none" stroke="#000000" points="8,-140.7 8,-163.7 104,-163.7 104,-140.7 8,-140.7"/>
<text text-anchor="start" x="12.6045" y="-149.8" font-family="Helvetica,sans-Serif" font-weight="bold" font-size="11.00" fill="#000000">user_entity</text>
<text text-anchor="start" x="69.5219" y="-148.8" font-family="Helvetica,sans-Serif" font-size="11.00" fill="#000000">[table]</text>
<polygon fill="none" stroke="#000000" points="8,-121.7 8,-140.7 104,-140.7 104,-121.7 8,-121.7"/>
<text text-anchor="start" x="11" y="-127.8" font-family="Helvetica,sans-Serif" font-size="11.00" fill="#000000">...</text>
<polygon fill="#ffffff" stroke="transparent" points="8,-102.7 8,-121.7 35,-121.7 35,-102.7 8,-102.7"/>
<polygon fill="none" stroke="#000000" points="8,-102.7 8,-121.7 35,-121.7 35,-102.7 8,-102.7"/>
<text text-anchor="start" x="11" y="-108.8" font-family="Helvetica,sans-Serif" font-size="11.00" fill="#000000"> &#160;</text>
<polygon fill="#ffffff" stroke="transparent" points="35,-102.7 35,-121.7 75,-121.7 75,-102.7 35,-102.7"/>
<polygon fill="none" stroke="#000000" points="35,-102.7 35,-121.7 75,-121.7 75,-102.7 35,-102.7"/>
<text text-anchor="start" x="45.1105" y="-108.8" font-family="Helvetica,sans-Serif" font-size="11.00" fill="#000000">1 row</text>
<polygon fill="#ffffff" stroke="transparent" points="75,-102.7 75,-121.7 104,-121.7 104,-102.7 75,-102.7"/>
<polygon fill="none" stroke="#000000" points="75,-102.7 75,-121.7 104,-121.7 104,-102.7 75,-102.7"/>
<text text-anchor="start" x="85.4053" y="-108.8" font-family="Helvetica,sans-Serif" font-size="11.00" fill="#000000">7 &gt;</text>
</a>
</g>
</g>
<!-- user_consent&#45;&gt;user_entity -->
<g id="edge1" class="edge">
<title>user_consent:w&#45;&gt;user_entity:e</title>
<path fill="none" stroke="#000000" d="M138.8428,-130.7C127.4139,-130.7 120.1563,-130.7 104,-130.7"/>
<polygon fill="#000000" stroke="#000000" points="145.5,-130.7001 153.5,-134.3 149.5,-130.7 153.5,-130.7 153.5,-130.7 153.5,-130.7 149.5,-130.7 153.5,-127.1 145.5,-130.7001 145.5,-130.7001"/>
<ellipse fill="none" stroke="#000000" cx="142.3" cy="-130.7001" rx="3.2" ry="3.2"/>
</g>
<!-- user_consent_client_scope -->
<g id="node3" class="node">
<title>user_consent_client_scope</title>
<g id="a_node3"><a xlink:href="../../tables/user_consent_client_scope.html" xlink:title="user_consent_client_scope" target="_top">
<polygon fill="#ffffff" stroke="transparent" points="359,-120.7 359,-210.7 602,-210.7 602,-120.7 359,-120.7"/>
<polygon fill="#f5f5f5" stroke="transparent" points="361.5,-185.7 361.5,-208.7 600.5,-208.7 600.5,-185.7 361.5,-185.7"/>
<polygon fill="none" stroke="#000000" points="361.5,-185.7 361.5,-208.7 600.5,-208.7 600.5,-185.7 361.5,-185.7"/>
<text text-anchor="start" x="366.5" y="-194.8" font-family="Helvetica,sans-Serif" font-weight="bold" font-size="11.00" fill="#000000">user_consent_client_scope</text>
<text text-anchor="start" x="565.5437" y="-193.8" font-family="Helvetica,sans-Serif" font-size="11.00" fill="#000000">[table]</text>
<polygon fill="none" stroke="#000000" points="361.5,-163.7 361.5,-185.7 539.5,-185.7 539.5,-163.7 361.5,-163.7"/>
<image xlink:href="../../images/primaryKeys.png" width="11px" height="12px" preserveAspectRatio="xMinYMin meet" x="366.5" y="-180.7"/>
<text text-anchor="start" x="381.5" y="-170.8" font-family="Helvetica,sans-Serif" font-size="11.00" fill="#000000">user_consent_id</text>
<polygon fill="none" stroke="#000000" points="539.5,-163.7 539.5,-185.7 600.5,-185.7 600.5,-163.7 539.5,-163.7"/>
<text text-anchor="start" x="542.494" y="-171.4" font-family="Helvetica,sans-Serif" font-size="11.00" fill="#000000">varchar[36]</text>
<polygon fill="none" stroke="#000000" points="361.5,-141.7 361.5,-163.7 539.5,-163.7 539.5,-141.7 361.5,-141.7"/>
<image xlink:href="../../images/primaryKeys.png" width="11px" height="12px" preserveAspectRatio="xMinYMin meet" x="366.5" y="-158.7"/>
<text text-anchor="start" x="381.5" y="-148.8" font-family="Helvetica,sans-Serif" font-size="11.00" fill="#000000">scope_id</text>
<polygon fill="none" stroke="#000000" points="539.5,-141.7 539.5,-163.7 600.5,-163.7 600.5,-141.7 539.5,-141.7"/>
<text text-anchor="start" x="542.494" y="-149.4" font-family="Helvetica,sans-Serif" font-size="11.00" fill="#000000">varchar[36]</text>
<polygon fill="#ffffff" stroke="transparent" points="361.5,-122.7 361.5,-141.7 441.5,-141.7 441.5,-122.7 361.5,-122.7"/>
<polygon fill="none" stroke="#000000" points="361.5,-122.7 361.5,-141.7 441.5,-141.7 441.5,-122.7 361.5,-122.7"/>
<text text-anchor="start" x="364.5" y="-128.8" font-family="Helvetica,sans-Serif" font-size="11.00" fill="#000000">&lt; 1</text>
<polygon fill="#ffffff" stroke="transparent" points="441.5,-122.7 441.5,-141.7 539.5,-141.7 539.5,-122.7 441.5,-122.7"/>
<polygon fill="none" stroke="#000000" points="441.5,-122.7 441.5,-141.7 539.5,-141.7 539.5,-122.7 441.5,-122.7"/>
<text text-anchor="start" x="504.1105" y="-128.8" font-family="Helvetica,sans-Serif" font-size="11.00" fill="#000000">0 rows</text>
<polygon fill="#ffffff" stroke="transparent" points="539.5,-122.7 539.5,-141.7 600.5,-141.7 600.5,-122.7 539.5,-122.7"/>
<polygon fill="none" stroke="#000000" points="539.5,-122.7 539.5,-141.7 600.5,-141.7 600.5,-122.7 539.5,-122.7"/>
<text text-anchor="start" x="581.9053" y="-128.8" font-family="Helvetica,sans-Serif" font-size="11.00" fill="#000000">0 &gt;</text>
<polygon fill="none" stroke="#000000" stroke-width="2" points="360,-121.7 360,-209.7 601,-209.7 601,-121.7 360,-121.7"/>
</a>
</g>
</g>
<!-- user_consent_client_scope&#45;&gt;user_consent -->
<g id="edge2" class="edge">
<title>user_consent_client_scope:w&#45;&gt;user_consent:e</title>
<path fill="none" stroke="#000000" d="M346.776,-174.7C334.7815,-174.7 327.3229,-174.7 310.5,-174.7"/>
<polygon fill="#000000" stroke="#000000" points="353.5,-174.7001 361.5,-178.3 357.5,-174.7 361.5,-174.7 361.5,-174.7 361.5,-174.7 357.5,-174.7 361.5,-171.1 353.5,-174.7001 353.5,-174.7001"/>
<ellipse fill="none" stroke="#000000" cx="350.3" cy="-174.7001" rx="3.2" ry="3.2"/>
</g>
</g>
</svg>
