<?xml version="1.0" encoding="UTF-8" standalone="no"?>
<!DOCTYPE svg PUBLIC "-//W3C//DTD SVG 1.1//EN"
 "http://www.w3.org/Graphics/SVG/1.1/DTD/svg11.dtd">
<!-- Generated by graphviz version 2.40.1 (20161225.0304)
 -->
<!-- Title: twoDegreesRelationshipsDiagramImplied Pages: 1 -->
<svg width="590pt" height="677pt"
 viewBox="0.00 0.00 590.00 677.20" xmlns="http://www.w3.org/2000/svg" xmlns:xlink="http://www.w3.org/1999/xlink">
<g id="graph0" class="graph" transform="scale(1 1) rotate(0) translate(4 673.2)">
<title>twoDegreesRelationshipsDiagramImplied</title>
<polygon fill="#ffffff" stroke="transparent" points="-4,4 -4,-673.2 586,-673.2 586,4 -4,4"/>
<text text-anchor="middle" x="72.4936" y="-7.3" font-family="Helvetica,sans-Serif" font-size="11.00" fill="#000000">Generated by SchemaSpy</text>
<!-- credential -->
<g id="node1" class="node">
<title>credential</title>
<g id="a_node1"><a xlink:href="../../tables/credential.html" xlink:title="credential" target="_top">
<polygon fill="#ffffff" stroke="transparent" points="443,-522.2 443,-583.2 533,-583.2 533,-522.2 443,-522.2"/>
<polygon fill="#f5f5f5" stroke="transparent" points="443,-559.7 443,-582.7 533,-582.7 533,-559.7 443,-559.7"/>
<polygon fill="none" stroke="#000000" points="443,-559.7 443,-582.7 533,-582.7 533,-559.7 443,-559.7"/>
<text text-anchor="start" x="447.6625" y="-568.8" font-family="Helvetica,sans-Serif" font-weight="bold" font-size="11.00" fill="#000000">credential</text>
<text text-anchor="start" x="498.5219" y="-567.8" font-family="Helvetica,sans-Serif" font-size="11.00" fill="#000000">[table]</text>
<polygon fill="none" stroke="#000000" points="443,-540.7 443,-559.7 533,-559.7 533,-540.7 443,-540.7"/>
<text text-anchor="start" x="446" y="-546.8" font-family="Helvetica,sans-Serif" font-size="11.00" fill="#000000">...</text>
<polygon fill="#ffffff" stroke="transparent" points="443,-521.7 443,-540.7 476,-540.7 476,-521.7 443,-521.7"/>
<polygon fill="none" stroke="#000000" points="443,-521.7 443,-540.7 476,-540.7 476,-521.7 443,-521.7"/>
<text text-anchor="start" x="446" y="-527.8" font-family="Helvetica,sans-Serif" font-size="11.00" fill="#000000">&lt; 1</text>
<polygon fill="#ffffff" stroke="transparent" points="476,-521.7 476,-540.7 514,-540.7 514,-521.7 476,-521.7"/>
<polygon fill="none" stroke="#000000" points="476,-521.7 476,-540.7 514,-540.7 514,-521.7 476,-521.7"/>
<text text-anchor="start" x="484.1105" y="-527.8" font-family="Helvetica,sans-Serif" font-size="11.00" fill="#000000">1 row</text>
<polygon fill="#ffffff" stroke="transparent" points="514,-521.7 514,-540.7 533,-540.7 533,-521.7 514,-521.7"/>
<polygon fill="none" stroke="#000000" points="514,-521.7 514,-540.7 533,-540.7 533,-521.7 514,-521.7"/>
<text text-anchor="start" x="523.8862" y="-527.8" font-family="Helvetica,sans-Serif" font-size="11.00" fill="#000000"> &#160;</text>
</a>
</g>
</g>
<!-- user_entity -->
<g id="node2" class="node">
<title>user_entity</title>
<g id="a_node2"><a xlink:href="../../tables/user_entity.html" xlink:title="user_entity" target="_top">
<polygon fill="#ffffff" stroke="transparent" points="173,-155.2 173,-326.2 353,-326.2 353,-155.2 173,-155.2"/>
<polygon fill="#f5f5f5" stroke="transparent" points="173,-302.7 173,-325.7 353,-325.7 353,-302.7 173,-302.7"/>
<polygon fill="none" stroke="#000000" points="173,-302.7 173,-325.7 353,-325.7 353,-302.7 173,-302.7"/>
<text text-anchor="start" x="178" y="-311.8" font-family="Helvetica,sans-Serif" font-weight="bold" font-size="11.00" fill="#000000">user_entity</text>
<text text-anchor="start" x="318.0437" y="-310.8" font-family="Helvetica,sans-Serif" font-size="11.00" fill="#000000">[table]</text>
<polygon fill="none" stroke="#000000" points="173,-280.7 173,-302.7 353,-302.7 353,-280.7 173,-280.7"/>
<image xlink:href="../../images/primaryKeys.png" width="11px" height="12px" preserveAspectRatio="xMinYMin meet" x="178" y="-297.7"/>
<text text-anchor="start" x="193" y="-287.8" font-family="Helvetica,sans-Serif" font-size="11.00" fill="#000000">id</text>
<polygon fill="#ffffff" stroke="transparent" points="173,-258.7 173,-280.7 353,-280.7 353,-258.7 173,-258.7"/>
<polygon fill="none" stroke="#000000" points="173,-258.7 173,-280.7 353,-280.7 353,-258.7 173,-258.7"/>
<text text-anchor="start" x="193" y="-265.8" font-family="Helvetica,sans-Serif" font-size="11.00" fill="#000000">email</text>
<polygon fill="#ffffff" stroke="transparent" points="173,-236.7 173,-258.7 353,-258.7 353,-236.7 173,-236.7"/>
<polygon fill="none" stroke="#000000" points="173,-236.7 173,-258.7 353,-258.7 353,-236.7 173,-236.7"/>
<text text-anchor="start" x="193" y="-243.8" font-family="Helvetica,sans-Serif" font-size="11.00" fill="#000000">email_constraint</text>
<polygon fill="#ffffff" stroke="transparent" points="173,-214.7 173,-236.7 353,-236.7 353,-214.7 173,-214.7"/>
<polygon fill="none" stroke="#000000" points="173,-214.7 173,-236.7 353,-236.7 353,-214.7 173,-214.7"/>
<image xlink:href="../../images/foreignKeys.png" width="11px" height="12px" preserveAspectRatio="xMinYMin meet" x="178" y="-231.7"/>
<text text-anchor="start" x="193" y="-221.8" font-family="Helvetica,sans-Serif" font-size="11.00" fill="#000000">realm_id</text>
<polygon fill="#ffffff" stroke="transparent" points="173,-192.7 173,-214.7 353,-214.7 353,-192.7 173,-192.7"/>
<polygon fill="none" stroke="#000000" points="173,-192.7 173,-214.7 353,-214.7 353,-192.7 173,-192.7"/>
<text text-anchor="start" x="193" y="-199.8" font-family="Helvetica,sans-Serif" font-size="11.00" fill="#000000">username</text>
<polygon fill="none" stroke="#000000" points="173,-173.7 173,-192.7 353,-192.7 353,-173.7 173,-173.7"/>
<text text-anchor="start" x="176" y="-179.8" font-family="Helvetica,sans-Serif" font-size="11.00" fill="#000000">...</text>
<polygon fill="#ffffff" stroke="transparent" points="173,-154.7 173,-173.7 247,-173.7 247,-154.7 173,-154.7"/>
<polygon fill="none" stroke="#000000" points="173,-154.7 173,-173.7 247,-173.7 247,-154.7 173,-154.7"/>
<text text-anchor="start" x="176" y="-160.8" font-family="Helvetica,sans-Serif" font-size="11.00" fill="#000000">&lt; 1</text>
<polygon fill="#ffffff" stroke="transparent" points="247,-154.7 247,-173.7 305,-173.7 305,-154.7 247,-154.7"/>
<polygon fill="none" stroke="#000000" points="247,-154.7 247,-173.7 305,-173.7 305,-154.7 247,-154.7"/>
<text text-anchor="start" x="275.1105" y="-160.8" font-family="Helvetica,sans-Serif" font-size="11.00" fill="#000000">1 row</text>
<polygon fill="#ffffff" stroke="transparent" points="305,-154.7 305,-173.7 353,-173.7 353,-154.7 305,-154.7"/>
<polygon fill="none" stroke="#000000" points="305,-154.7 305,-173.7 353,-173.7 353,-154.7 305,-154.7"/>
<text text-anchor="start" x="334.4053" y="-160.8" font-family="Helvetica,sans-Serif" font-size="11.00" fill="#000000">7 &gt;</text>
</a>
</g>
</g>
<!-- credential&#45;&gt;user_entity -->
<g id="edge1" class="edge">
<title>credential:w&#45;&gt;user_entity:e</title>
<path fill="none" stroke="#000000" d="M428.5074,-547.954C412.261,-543.447 405.4359,-530.4487 394,-511.7 368.1036,-469.244 402.7306,-291.7 353,-291.7"/>
<polygon fill="#000000" stroke="#000000" points="435.0574,-548.7431 442.5694,-553.2742 439.0287,-549.2215 443,-549.7 443,-549.7 443,-549.7 439.0287,-549.2215 443.4306,-546.1258 435.0574,-548.7431 435.0574,-548.7431"/>
<ellipse fill="none" stroke="#000000" cx="431.8804" cy="-548.3603" rx="3.2" ry="3.2"/>
</g>
<!-- federated_user -->
<g id="node4" class="node">
<title>federated_user</title>
<g id="a_node4"><a xlink:href="../../tables/federated_user.html" xlink:title="federated_user" target="_top">
<polygon fill="#ffffff" stroke="transparent" points="8,-127.2 8,-188.2 124,-188.2 124,-127.2 8,-127.2"/>
<polygon fill="#f5f5f5" stroke="transparent" points="8,-164.7 8,-187.7 124,-187.7 124,-164.7 8,-164.7"/>
<polygon fill="none" stroke="#000000" points="8,-164.7 8,-187.7 124,-187.7 124,-164.7 8,-164.7"/>
<text text-anchor="start" x="12.5142" y="-173.8" font-family="Helvetica,sans-Serif" font-weight="bold" font-size="11.00" fill="#000000">federated_user</text>
<text text-anchor="start" x="89.5219" y="-172.8" font-family="Helvetica,sans-Serif" font-size="11.00" fill="#000000">[table]</text>
<polygon fill="none" stroke="#000000" points="8,-145.7 8,-164.7 124,-164.7 124,-145.7 8,-145.7"/>
<text text-anchor="start" x="11" y="-151.8" font-family="Helvetica,sans-Serif" font-size="11.00" fill="#000000">...</text>
<polygon fill="#ffffff" stroke="transparent" points="8,-126.7 8,-145.7 39,-145.7 39,-126.7 8,-126.7"/>
<polygon fill="none" stroke="#000000" points="8,-126.7 8,-145.7 39,-145.7 39,-126.7 8,-126.7"/>
<text text-anchor="start" x="11" y="-132.8" font-family="Helvetica,sans-Serif" font-size="11.00" fill="#000000"> &#160;</text>
<polygon fill="#ffffff" stroke="transparent" points="39,-126.7 39,-145.7 87,-145.7 87,-126.7 39,-126.7"/>
<polygon fill="none" stroke="#000000" points="39,-126.7 39,-145.7 87,-145.7 87,-126.7 39,-126.7"/>
<text text-anchor="start" x="51.6105" y="-132.8" font-family="Helvetica,sans-Serif" font-size="11.00" fill="#000000">0 rows</text>
<polygon fill="#ffffff" stroke="transparent" points="87,-126.7 87,-145.7 124,-145.7 124,-126.7 87,-126.7"/>
<polygon fill="none" stroke="#000000" points="87,-126.7 87,-145.7 124,-145.7 124,-126.7 87,-126.7"/>
<text text-anchor="start" x="99.2904" y="-132.8" font-family="Helvetica,sans-Serif" font-size="11.00" fill="#000000">30 &gt;</text>
</a>
</g>
</g>
<!-- user_entity&#45;&gt;federated_user -->
<g id="edge8" class="edge">
<title>user_entity:w&#45;&gt;federated_user:e</title>
<path fill="none" stroke="#000000" stroke-dasharray="5,2" d="M159.3596,-221.0415C141.6978,-205.2459 156.3501,-154.7 124,-154.7"/>
<polygon fill="#000000" stroke="#000000" points="165.4293,-223.1144 171.8365,-229.1068 169.2147,-224.4072 173,-225.7 173,-225.7 173,-225.7 169.2147,-224.4072 174.1635,-222.2932 165.4293,-223.1144 165.4293,-223.1144"/>
<ellipse fill="none" stroke="#000000" cx="162.4011" cy="-222.0802" rx="3.2" ry="3.2"/>
</g>
<!-- federated_identity -->
<g id="node3" class="node">
<title>federated_identity</title>
<g id="a_node3"><a xlink:href="../../tables/federated_identity.html" xlink:title="federated_identity" target="_top">
<polygon fill="#ffffff" stroke="transparent" points="423,-604.2 423,-665.2 553,-665.2 553,-604.2 423,-604.2"/>
<polygon fill="#f5f5f5" stroke="transparent" points="423,-641.7 423,-664.7 553,-664.7 553,-641.7 423,-641.7"/>
<polygon fill="none" stroke="#000000" points="423,-641.7 423,-664.7 553,-664.7 553,-641.7 423,-641.7"/>
<text text-anchor="start" x="427.7899" y="-650.8" font-family="Helvetica,sans-Serif" font-weight="bold" font-size="11.00" fill="#000000">federated_identity</text>
<text text-anchor="start" x="518.5219" y="-649.8" font-family="Helvetica,sans-Serif" font-size="11.00" fill="#000000">[table]</text>
<polygon fill="none" stroke="#000000" points="423,-622.7 423,-641.7 553,-641.7 553,-622.7 423,-622.7"/>
<text text-anchor="start" x="426" y="-628.8" font-family="Helvetica,sans-Serif" font-size="11.00" fill="#000000">...</text>
<polygon fill="#ffffff" stroke="transparent" points="423,-603.7 423,-622.7 473,-622.7 473,-603.7 423,-603.7"/>
<polygon fill="none" stroke="#000000" points="423,-603.7 423,-622.7 473,-622.7 473,-603.7 423,-603.7"/>
<text text-anchor="start" x="426" y="-609.8" font-family="Helvetica,sans-Serif" font-size="11.00" fill="#000000">&lt; 2</text>
<polygon fill="#ffffff" stroke="transparent" points="473,-603.7 473,-622.7 526,-622.7 526,-603.7 473,-603.7"/>
<polygon fill="none" stroke="#000000" points="473,-603.7 473,-622.7 526,-622.7 526,-603.7 473,-603.7"/>
<text text-anchor="start" x="490.6105" y="-609.8" font-family="Helvetica,sans-Serif" font-size="11.00" fill="#000000">0 rows</text>
<polygon fill="#ffffff" stroke="transparent" points="526,-603.7 526,-622.7 553,-622.7 553,-603.7 526,-603.7"/>
<polygon fill="none" stroke="#000000" points="526,-603.7 526,-622.7 553,-622.7 553,-603.7 526,-603.7"/>
<text text-anchor="start" x="543.8862" y="-609.8" font-family="Helvetica,sans-Serif" font-size="11.00" fill="#000000"> &#160;</text>
</a>
</g>
</g>
<!-- federated_identity&#45;&gt;user_entity -->
<g id="edge3" class="edge">
<title>federated_identity:w&#45;&gt;user_entity:e</title>
<path fill="none" stroke="#000000" d="M409.0101,-626.8937C356.9137,-585.5684 424.7163,-291.7 353,-291.7"/>
<polygon fill="#000000" stroke="#000000" points="415.4341,-629.1006 421.8303,-635.1047 419.217,-630.4003 423,-631.7 423,-631.7 423,-631.7 419.217,-630.4003 424.1697,-628.2953 415.4341,-629.1006 415.4341,-629.1006"/>
<ellipse fill="none" stroke="#000000" cx="412.4077" cy="-628.0609" rx="3.2" ry="3.2"/>
</g>
<!-- federated_identity&#45;&gt;federated_user -->
<g id="edge2" class="edge">
<title>federated_identity:w&#45;&gt;federated_user:e</title>
<path fill="none" stroke="#000000" stroke-dasharray="5,2" d="M408.6033,-631.3667C248.4821,-623.7741 241.6621,-487.5888 165,-336.7 127.4424,-262.7778 206.916,-154.7 124,-154.7"/>
<polygon fill="#000000" stroke="#000000" points="415.0021,-631.5148 422.9166,-635.299 419.0011,-631.6074 423,-631.7 423,-631.7 423,-631.7 419.0011,-631.6074 423.0834,-628.101 415.0021,-631.5148 415.0021,-631.5148"/>
<ellipse fill="none" stroke="#000000" cx="411.803" cy="-631.4407" rx="3.2" ry="3.2"/>
</g>
<!-- user_attribute -->
<g id="node5" class="node">
<title>user_attribute</title>
<g id="a_node5"><a xlink:href="../../tables/user_attribute.html" xlink:title="user_attribute" target="_top">
<polygon fill="#ffffff" stroke="transparent" points="402,-366.7 402,-500.7 574,-500.7 574,-366.7 402,-366.7"/>
<polygon fill="#f5f5f5" stroke="transparent" points="404,-475.7 404,-498.7 572,-498.7 572,-475.7 404,-475.7"/>
<polygon fill="none" stroke="#000000" points="404,-475.7 404,-498.7 572,-498.7 572,-475.7 404,-475.7"/>
<text text-anchor="start" x="409" y="-484.8" font-family="Helvetica,sans-Serif" font-weight="bold" font-size="11.00" fill="#000000">user_attribute</text>
<text text-anchor="start" x="537.0437" y="-483.8" font-family="Helvetica,sans-Serif" font-size="11.00" fill="#000000">[table]</text>
<polygon fill="none" stroke="#000000" points="404,-453.7 404,-475.7 505,-475.7 505,-453.7 404,-453.7"/>
<text text-anchor="start" x="424" y="-460.8" font-family="Helvetica,sans-Serif" font-size="11.00" fill="#000000">name</text>
<polygon fill="none" stroke="#000000" points="505,-453.7 505,-475.7 572,-475.7 572,-453.7 505,-453.7"/>
<text text-anchor="start" x="507.9365" y="-461.4" font-family="Helvetica,sans-Serif" font-size="11.00" fill="#000000">varchar[255]</text>
<polygon fill="none" stroke="#000000" points="404,-431.7 404,-453.7 505,-453.7 505,-431.7 404,-431.7"/>
<text text-anchor="start" x="424" y="-438.8" font-family="Helvetica,sans-Serif" font-size="11.00" fill="#000000">value</text>
<polygon fill="none" stroke="#000000" points="505,-431.7 505,-453.7 572,-453.7 572,-431.7 505,-431.7"/>
<text text-anchor="start" x="507.9365" y="-439.4" font-family="Helvetica,sans-Serif" font-size="11.00" fill="#000000">varchar[255]</text>
<polygon fill="#ffffff" stroke="transparent" points="404,-409.7 404,-431.7 505,-431.7 505,-409.7 404,-409.7"/>
<polygon fill="none" stroke="#000000" points="404,-409.7 404,-431.7 505,-431.7 505,-409.7 404,-409.7"/>
<image xlink:href="../../images/foreignKeys.png" width="11px" height="12px" preserveAspectRatio="xMinYMin meet" x="409" y="-426.7"/>
<text text-anchor="start" x="424" y="-416.8" font-family="Helvetica,sans-Serif" font-size="11.00" fill="#000000">user_id</text>
<polygon fill="none" stroke="#000000" points="505,-409.7 505,-431.7 572,-431.7 572,-409.7 505,-409.7"/>
<text text-anchor="start" x="508" y="-417.4" font-family="Helvetica,sans-Serif" font-size="11.00" fill="#000000">varchar[36]</text>
<polygon fill="none" stroke="#000000" points="404,-387.7 404,-409.7 505,-409.7 505,-387.7 404,-387.7"/>
<image xlink:href="../../images/primaryKeys.png" width="11px" height="12px" preserveAspectRatio="xMinYMin meet" x="409" y="-404.7"/>
<text text-anchor="start" x="424" y="-394.8" font-family="Helvetica,sans-Serif" font-size="11.00" fill="#000000">id</text>
<polygon fill="none" stroke="#000000" points="505,-387.7 505,-409.7 572,-409.7 572,-387.7 505,-387.7"/>
<text text-anchor="start" x="508" y="-395.4" font-family="Helvetica,sans-Serif" font-size="11.00" fill="#000000">varchar[36]</text>
<polygon fill="#ffffff" stroke="transparent" points="404,-368.7 404,-387.7 446,-387.7 446,-368.7 404,-368.7"/>
<polygon fill="none" stroke="#000000" points="404,-368.7 404,-387.7 446,-387.7 446,-368.7 404,-368.7"/>
<text text-anchor="start" x="407" y="-374.8" font-family="Helvetica,sans-Serif" font-size="11.00" fill="#000000">&lt; 1</text>
<polygon fill="#ffffff" stroke="transparent" points="446,-368.7 446,-387.7 505,-387.7 505,-368.7 446,-368.7"/>
<polygon fill="none" stroke="#000000" points="446,-368.7 446,-387.7 505,-387.7 505,-368.7 446,-368.7"/>
<text text-anchor="start" x="469.6105" y="-374.8" font-family="Helvetica,sans-Serif" font-size="11.00" fill="#000000">0 rows</text>
<polygon fill="#ffffff" stroke="transparent" points="505,-368.7 505,-387.7 572,-387.7 572,-368.7 505,-368.7"/>
<polygon fill="none" stroke="#000000" points="505,-368.7 505,-387.7 572,-387.7 572,-368.7 505,-368.7"/>
<text text-anchor="start" x="553.4053" y="-374.8" font-family="Helvetica,sans-Serif" font-size="11.00" fill="#000000">0 &gt;</text>
<polygon fill="none" stroke="#000000" stroke-width="2" points="403,-367.7 403,-499.7 573,-499.7 573,-367.7 403,-367.7"/>
</a>
</g>
</g>
<!-- user_attribute&#45;&gt;user_entity -->
<g id="edge4" class="edge">
<title>user_attribute:w&#45;&gt;user_entity:e</title>
<path fill="none" stroke="#000000" d="M389.521,-417.2496C355.1928,-396.7349 408.6307,-291.7 353,-291.7"/>
<polygon fill="#000000" stroke="#000000" points="396.2179,-418.8454 403.1654,-424.2019 400.109,-419.7727 404,-420.7 404,-420.7 404,-420.7 400.109,-419.7727 404.8346,-417.1981 396.2179,-418.8454 396.2179,-418.8454"/>
<ellipse fill="none" stroke="#000000" cx="393.1051" cy="-418.1036" rx="3.2" ry="3.2"/>
</g>
<!-- user_consent -->
<g id="node6" class="node">
<title>user_consent</title>
<g id="a_node6"><a xlink:href="../../tables/user_consent.html" xlink:title="user_consent" target="_top">
<polygon fill="#ffffff" stroke="transparent" points="433.5,-38.2 433.5,-99.2 542.5,-99.2 542.5,-38.2 433.5,-38.2"/>
<polygon fill="#f5f5f5" stroke="transparent" points="434,-75.7 434,-98.7 543,-98.7 543,-75.7 434,-75.7"/>
<polygon fill="none" stroke="#000000" points="434,-75.7 434,-98.7 543,-98.7 543,-75.7 434,-75.7"/>
<text text-anchor="start" x="438.9885" y="-84.8" font-family="Helvetica,sans-Serif" font-weight="bold" font-size="11.00" fill="#000000">user_consent</text>
<text text-anchor="start" x="508.5219" y="-83.8" font-family="Helvetica,sans-Serif" font-size="11.00" fill="#000000">[table]</text>
<polygon fill="none" stroke="#000000" points="434,-56.7 434,-75.7 543,-75.7 543,-56.7 434,-56.7"/>
<text text-anchor="start" x="437" y="-62.8" font-family="Helvetica,sans-Serif" font-size="11.00" fill="#000000">...</text>
<polygon fill="#ffffff" stroke="transparent" points="434,-37.7 434,-56.7 469,-56.7 469,-37.7 434,-37.7"/>
<polygon fill="none" stroke="#000000" points="434,-37.7 434,-56.7 469,-56.7 469,-37.7 434,-37.7"/>
<text text-anchor="start" x="437" y="-43.8" font-family="Helvetica,sans-Serif" font-size="11.00" fill="#000000">&lt; 3</text>
<polygon fill="#ffffff" stroke="transparent" points="469,-37.7 469,-56.7 514,-56.7 514,-37.7 469,-37.7"/>
<polygon fill="none" stroke="#000000" points="469,-37.7 469,-56.7 514,-56.7 514,-37.7 469,-37.7"/>
<text text-anchor="start" x="478.6105" y="-43.8" font-family="Helvetica,sans-Serif" font-size="11.00" fill="#000000">0 rows</text>
<polygon fill="#ffffff" stroke="transparent" points="514,-37.7 514,-56.7 543,-56.7 543,-37.7 514,-37.7"/>
<polygon fill="none" stroke="#000000" points="514,-37.7 514,-56.7 543,-56.7 543,-37.7 514,-37.7"/>
<text text-anchor="start" x="524.4053" y="-43.8" font-family="Helvetica,sans-Serif" font-size="11.00" fill="#000000">1 &gt;</text>
</a>
</g>
</g>
<!-- user_consent&#45;&gt;user_entity -->
<g id="edge7" class="edge">
<title>user_consent:w&#45;&gt;user_entity:e</title>
<path fill="none" stroke="#000000" d="M419.4777,-68.6598C406.3931,-75.1621 403.4336,-91.5662 394,-109.7 355.7335,-183.2577 435.916,-291.7 353,-291.7"/>
<polygon fill="#000000" stroke="#000000" points="426.1611,-67.2977 434.719,-69.2275 430.0806,-66.4988 434,-65.7 434,-65.7 434,-65.7 430.0806,-66.4988 433.281,-62.1725 426.1611,-67.2977 426.1611,-67.2977"/>
<ellipse fill="none" stroke="#000000" cx="423.0256" cy="-67.9367" rx="3.2" ry="3.2"/>
</g>
<!-- user_consent&#45;&gt;federated_user -->
<g id="edge5" class="edge">
<title>user_consent:w&#45;&gt;federated_user:e</title>
<path fill="none" stroke="#000000" stroke-dasharray="5,2" d="M419.5949,-68.6612C359.1741,-84.1041 139.9582,-154.7 124,-154.7"/>
<polygon fill="#000000" stroke="#000000" points="426.1639,-67.3109 434.7249,-69.2263 430.0819,-66.5054 434,-65.7 434,-65.7 434,-65.7 430.0819,-66.5054 433.2751,-62.1737 426.1639,-67.3109 426.1639,-67.3109"/>
<ellipse fill="none" stroke="#000000" cx="423.0294" cy="-67.9552" rx="3.2" ry="3.2"/>
</g>
<!-- user_consent&#45;&gt;federated_user -->
<g id="edge6" class="edge">
<title>user_consent:w&#45;&gt;federated_user:e</title>
<path fill="none" stroke="#000000" stroke-dasharray="5,2" d="M419.7313,-67.7261C356.974,-80.9738 156.6162,-154.7 124,-154.7"/>
<polygon fill="#000000" stroke="#000000" points="426.0795,-66.8247 434.5061,-69.2642 430.0397,-66.2624 434,-65.7 434,-65.7 434,-65.7 430.0397,-66.2624 433.4939,-62.1358 426.0795,-66.8247 426.0795,-66.8247"/>
<ellipse fill="none" stroke="#000000" cx="422.9112" cy="-67.2746" rx="3.2" ry="3.2"/>
</g>
<!-- user_group_membership -->
<g id="node7" class="node">
<title>user_group_membership</title>
<g id="a_node7"><a xlink:href="../../tables/user_group_membership.html" xlink:title="user_group_membership" target="_top">
<polygon fill="#ffffff" stroke="transparent" points="405.5,-284.2 405.5,-345.2 570.5,-345.2 570.5,-284.2 405.5,-284.2"/>
<polygon fill="#f5f5f5" stroke="transparent" points="406,-321.7 406,-344.7 571,-344.7 571,-321.7 406,-321.7"/>
<polygon fill="none" stroke="#000000" points="406,-321.7 406,-344.7 571,-344.7 571,-321.7 406,-321.7"/>
<text text-anchor="start" x="410.878" y="-330.8" font-family="Helvetica,sans-Serif" font-weight="bold" font-size="11.00" fill="#000000">user_group_membership</text>
<text text-anchor="start" x="536.5219" y="-329.8" font-family="Helvetica,sans-Serif" font-size="11.00" fill="#000000">[table]</text>
<polygon fill="none" stroke="#000000" points="406,-302.7 406,-321.7 571,-321.7 571,-302.7 406,-302.7"/>
<text text-anchor="start" x="409" y="-308.8" font-family="Helvetica,sans-Serif" font-size="11.00" fill="#000000">...</text>
<polygon fill="#ffffff" stroke="transparent" points="406,-283.7 406,-302.7 474,-302.7 474,-283.7 406,-283.7"/>
<polygon fill="none" stroke="#000000" points="406,-283.7 406,-302.7 474,-302.7 474,-283.7 406,-283.7"/>
<text text-anchor="start" x="409" y="-289.8" font-family="Helvetica,sans-Serif" font-size="11.00" fill="#000000">&lt; 1</text>
<polygon fill="#ffffff" stroke="transparent" points="474,-283.7 474,-302.7 535,-302.7 535,-283.7 474,-283.7"/>
<polygon fill="none" stroke="#000000" points="474,-283.7 474,-302.7 535,-302.7 535,-283.7 474,-283.7"/>
<text text-anchor="start" x="499.6105" y="-289.8" font-family="Helvetica,sans-Serif" font-size="11.00" fill="#000000">0 rows</text>
<polygon fill="#ffffff" stroke="transparent" points="535,-283.7 535,-302.7 571,-302.7 571,-283.7 535,-283.7"/>
<polygon fill="none" stroke="#000000" points="535,-283.7 535,-302.7 571,-302.7 571,-283.7 535,-283.7"/>
<text text-anchor="start" x="561.8862" y="-289.8" font-family="Helvetica,sans-Serif" font-size="11.00" fill="#000000"> &#160;</text>
</a>
</g>
</g>
<!-- user_group_membership&#45;&gt;user_entity -->
<g id="edge9" class="edge">
<title>user_group_membership:w&#45;&gt;user_entity:e</title>
<path fill="none" stroke="#000000" d="M391.8331,-309.0853C378.4675,-303.6641 372.4728,-291.7 353,-291.7"/>
<polygon fill="#000000" stroke="#000000" points="398.1329,-310.248 405.3466,-315.2402 402.0664,-310.974 406,-311.7 406,-311.7 406,-311.7 402.0664,-310.974 406.6534,-308.1598 398.1329,-310.248 398.1329,-310.248"/>
<ellipse fill="none" stroke="#000000" cx="394.986" cy="-309.6672" rx="3.2" ry="3.2"/>
</g>
<!-- user_required_action -->
<g id="node8" class="node">
<title>user_required_action</title>
<g id="a_node8"><a xlink:href="../../tables/user_required_action.html" xlink:title="user_required_action" target="_top">
<polygon fill="#ffffff" stroke="transparent" points="415,-202.2 415,-263.2 561,-263.2 561,-202.2 415,-202.2"/>
<polygon fill="#f5f5f5" stroke="transparent" points="415,-239.7 415,-262.7 561,-262.7 561,-239.7 415,-239.7"/>
<polygon fill="none" stroke="#000000" points="415,-239.7 415,-262.7 561,-262.7 561,-239.7 415,-239.7"/>
<text text-anchor="start" x="419.8484" y="-248.8" font-family="Helvetica,sans-Serif" font-weight="bold" font-size="11.00" fill="#000000">user_required_action</text>
<text text-anchor="start" x="526.5219" y="-247.8" font-family="Helvetica,sans-Serif" font-size="11.00" fill="#000000">[table]</text>
<polygon fill="none" stroke="#000000" points="415,-220.7 415,-239.7 561,-239.7 561,-220.7 415,-220.7"/>
<text text-anchor="start" x="418" y="-226.8" font-family="Helvetica,sans-Serif" font-size="11.00" fill="#000000">...</text>
<polygon fill="#ffffff" stroke="transparent" points="415,-201.7 415,-220.7 473,-220.7 473,-201.7 415,-201.7"/>
<polygon fill="none" stroke="#000000" points="415,-201.7 415,-220.7 473,-220.7 473,-201.7 415,-201.7"/>
<text text-anchor="start" x="418" y="-207.8" font-family="Helvetica,sans-Serif" font-size="11.00" fill="#000000">&lt; 1</text>
<polygon fill="#ffffff" stroke="transparent" points="473,-201.7 473,-220.7 530,-220.7 530,-201.7 473,-201.7"/>
<polygon fill="none" stroke="#000000" points="473,-201.7 473,-220.7 530,-220.7 530,-201.7 473,-201.7"/>
<text text-anchor="start" x="494.6105" y="-207.8" font-family="Helvetica,sans-Serif" font-size="11.00" fill="#000000">0 rows</text>
<polygon fill="#ffffff" stroke="transparent" points="530,-201.7 530,-220.7 561,-220.7 561,-201.7 530,-201.7"/>
<polygon fill="none" stroke="#000000" points="530,-201.7 530,-220.7 561,-220.7 561,-201.7 530,-201.7"/>
<text text-anchor="start" x="551.8862" y="-207.8" font-family="Helvetica,sans-Serif" font-size="11.00" fill="#000000"> &#160;</text>
</a>
</g>
</g>
<!-- user_required_action&#45;&gt;user_entity -->
<g id="edge10" class="edge">
<title>user_required_action:w&#45;&gt;user_entity:e</title>
<path fill="none" stroke="#000000" d="M400.9168,-233.3927C379.5526,-246.7402 386.1849,-291.7 353,-291.7"/>
<polygon fill="#000000" stroke="#000000" points="407.2616,-231.7291 415.9131,-233.1823 411.1308,-230.7145 415,-229.7 415,-229.7 415,-229.7 411.1308,-230.7145 414.0869,-226.2177 407.2616,-231.7291 407.2616,-231.7291"/>
<ellipse fill="none" stroke="#000000" cx="404.1662" cy="-232.5407" rx="3.2" ry="3.2"/>
</g>
<!-- user_role_mapping -->
<g id="node9" class="node">
<title>user_role_mapping</title>
<g id="a_node9"><a xlink:href="../../tables/user_role_mapping.html" xlink:title="user_role_mapping" target="_top">
<polygon fill="#ffffff" stroke="transparent" points="419.5,-120.2 419.5,-181.2 556.5,-181.2 556.5,-120.2 419.5,-120.2"/>
<polygon fill="#f5f5f5" stroke="transparent" points="420,-157.7 420,-180.7 557,-180.7 557,-157.7 420,-157.7"/>
<polygon fill="none" stroke="#000000" points="420,-157.7 420,-180.7 557,-180.7 557,-157.7 420,-157.7"/>
<text text-anchor="start" x="424.9343" y="-166.8" font-family="Helvetica,sans-Serif" font-weight="bold" font-size="11.00" fill="#000000">user_role_mapping</text>
<text text-anchor="start" x="522.5219" y="-165.8" font-family="Helvetica,sans-Serif" font-size="11.00" fill="#000000">[table]</text>
<polygon fill="none" stroke="#000000" points="420,-138.7 420,-157.7 557,-157.7 557,-138.7 420,-138.7"/>
<text text-anchor="start" x="423" y="-144.8" font-family="Helvetica,sans-Serif" font-size="11.00" fill="#000000">...</text>
<polygon fill="#ffffff" stroke="transparent" points="420,-119.7 420,-138.7 474,-138.7 474,-119.7 420,-119.7"/>
<polygon fill="none" stroke="#000000" points="420,-119.7 420,-138.7 474,-138.7 474,-119.7 420,-119.7"/>
<text text-anchor="start" x="423" y="-125.8" font-family="Helvetica,sans-Serif" font-size="11.00" fill="#000000">&lt; 1</text>
<polygon fill="#ffffff" stroke="transparent" points="474,-119.7 474,-138.7 528,-138.7 528,-119.7 474,-119.7"/>
<polygon fill="none" stroke="#000000" points="474,-119.7 474,-138.7 528,-138.7 528,-119.7 474,-119.7"/>
<text text-anchor="start" x="492.6105" y="-125.8" font-family="Helvetica,sans-Serif" font-size="11.00" fill="#000000">5 rows</text>
<polygon fill="#ffffff" stroke="transparent" points="528,-119.7 528,-138.7 557,-138.7 557,-119.7 528,-119.7"/>
<polygon fill="none" stroke="#000000" points="528,-119.7 528,-138.7 557,-138.7 557,-119.7 528,-119.7"/>
<text text-anchor="start" x="547.8862" y="-125.8" font-family="Helvetica,sans-Serif" font-size="11.00" fill="#000000"> &#160;</text>
</a>
</g>
</g>
<!-- user_role_mapping&#45;&gt;user_entity -->
<g id="edge11" class="edge">
<title>user_role_mapping:w&#45;&gt;user_entity:e</title>
<path fill="none" stroke="#000000" d="M405.6785,-150.3223C360.3632,-169.8391 417.9358,-291.7 353,-291.7"/>
<polygon fill="#000000" stroke="#000000" points="412.1308,-149.1409 420.6484,-151.2411 416.0654,-148.4205 420,-147.7 420,-147.7 420,-147.7 416.0654,-148.4205 419.3516,-144.1589 412.1308,-149.1409 412.1308,-149.1409"/>
<ellipse fill="none" stroke="#000000" cx="408.9832" cy="-149.7173" rx="3.2" ry="3.2"/>
</g>
</g>
</svg>
