<?xml version="1.0" encoding="UTF-8" standalone="no"?>
<!DOCTYPE svg PUBLIC "-//W3C//DTD SVG 1.1//EN"
 "http://www.w3.org/Graphics/SVG/1.1/DTD/svg11.dtd">
<!-- Generated by graphviz version 2.40.1 (20161225.0304)
 -->
<!-- Title: twoDegreesRelationshipsDiagramImplied Pages: 1 -->
<svg width="632pt" height="633pt"
 viewBox="0.00 0.00 632.00 633.20" xmlns="http://www.w3.org/2000/svg" xmlns:xlink="http://www.w3.org/1999/xlink">
<g id="graph0" class="graph" transform="scale(1 1) rotate(0) translate(4 629.2)">
<title>twoDegreesRelationshipsDiagramImplied</title>
<polygon fill="#ffffff" stroke="transparent" points="-4,4 -4,-629.2 628,-629.2 628,4 -4,4"/>
<text text-anchor="middle" x="72.4936" y="-7.3" font-family="Helvetica,sans-Serif" font-size="11.00" fill="#000000">Generated by SchemaSpy</text>
<!-- credential -->
<g id="node1" class="node">
<title>credential</title>
<g id="a_node1"><a xlink:href="../../tables/credential.html" xlink:title="credential" target="_top">
<polygon fill="#ffffff" stroke="transparent" points="464,-478.2 464,-539.2 554,-539.2 554,-478.2 464,-478.2"/>
<polygon fill="#f5f5f5" stroke="transparent" points="464,-515.7 464,-538.7 554,-538.7 554,-515.7 464,-515.7"/>
<polygon fill="none" stroke="#000000" points="464,-515.7 464,-538.7 554,-538.7 554,-515.7 464,-515.7"/>
<text text-anchor="start" x="468.6625" y="-524.8" font-family="Helvetica,sans-Serif" font-weight="bold" font-size="11.00" fill="#000000">credential</text>
<text text-anchor="start" x="519.5219" y="-523.8" font-family="Helvetica,sans-Serif" font-size="11.00" fill="#000000">[table]</text>
<polygon fill="none" stroke="#000000" points="464,-496.7 464,-515.7 554,-515.7 554,-496.7 464,-496.7"/>
<text text-anchor="start" x="467" y="-502.8" font-family="Helvetica,sans-Serif" font-size="11.00" fill="#000000">...</text>
<polygon fill="#ffffff" stroke="transparent" points="464,-477.7 464,-496.7 497,-496.7 497,-477.7 464,-477.7"/>
<polygon fill="none" stroke="#000000" points="464,-477.7 464,-496.7 497,-496.7 497,-477.7 464,-477.7"/>
<text text-anchor="start" x="467" y="-483.8" font-family="Helvetica,sans-Serif" font-size="11.00" fill="#000000">&lt; 1</text>
<polygon fill="#ffffff" stroke="transparent" points="497,-477.7 497,-496.7 535,-496.7 535,-477.7 497,-477.7"/>
<polygon fill="none" stroke="#000000" points="497,-477.7 497,-496.7 535,-496.7 535,-477.7 497,-477.7"/>
<text text-anchor="start" x="505.1105" y="-483.8" font-family="Helvetica,sans-Serif" font-size="11.00" fill="#000000">1 row</text>
<polygon fill="#ffffff" stroke="transparent" points="535,-477.7 535,-496.7 554,-496.7 554,-477.7 535,-477.7"/>
<polygon fill="none" stroke="#000000" points="535,-477.7 535,-496.7 554,-496.7 554,-477.7 535,-477.7"/>
<text text-anchor="start" x="544.8862" y="-483.8" font-family="Helvetica,sans-Serif" font-size="11.00" fill="#000000"> &#160;</text>
</a>
</g>
</g>
<!-- user_entity -->
<g id="node2" class="node">
<title>user_entity</title>
<g id="a_node2"><a xlink:href="../../tables/user_entity.html" xlink:title="user_entity" target="_top">
<polygon fill="#ffffff" stroke="transparent" points="173,-162.2 173,-333.2 353,-333.2 353,-162.2 173,-162.2"/>
<polygon fill="#f5f5f5" stroke="transparent" points="173,-309.7 173,-332.7 353,-332.7 353,-309.7 173,-309.7"/>
<polygon fill="none" stroke="#000000" points="173,-309.7 173,-332.7 353,-332.7 353,-309.7 173,-309.7"/>
<text text-anchor="start" x="178" y="-318.8" font-family="Helvetica,sans-Serif" font-weight="bold" font-size="11.00" fill="#000000">user_entity</text>
<text text-anchor="start" x="318.0437" y="-317.8" font-family="Helvetica,sans-Serif" font-size="11.00" fill="#000000">[table]</text>
<polygon fill="none" stroke="#000000" points="173,-287.7 173,-309.7 353,-309.7 353,-287.7 173,-287.7"/>
<image xlink:href="../../images/primaryKeys.png" width="11px" height="12px" preserveAspectRatio="xMinYMin meet" x="178" y="-304.7"/>
<text text-anchor="start" x="193" y="-294.8" font-family="Helvetica,sans-Serif" font-size="11.00" fill="#000000">id</text>
<polygon fill="#ffffff" stroke="transparent" points="173,-265.7 173,-287.7 353,-287.7 353,-265.7 173,-265.7"/>
<polygon fill="none" stroke="#000000" points="173,-265.7 173,-287.7 353,-287.7 353,-265.7 173,-265.7"/>
<text text-anchor="start" x="193" y="-272.8" font-family="Helvetica,sans-Serif" font-size="11.00" fill="#000000">email</text>
<polygon fill="#ffffff" stroke="transparent" points="173,-243.7 173,-265.7 353,-265.7 353,-243.7 173,-243.7"/>
<polygon fill="none" stroke="#000000" points="173,-243.7 173,-265.7 353,-265.7 353,-243.7 173,-243.7"/>
<text text-anchor="start" x="193" y="-250.8" font-family="Helvetica,sans-Serif" font-size="11.00" fill="#000000">email_constraint</text>
<polygon fill="#ffffff" stroke="transparent" points="173,-221.7 173,-243.7 353,-243.7 353,-221.7 173,-221.7"/>
<polygon fill="none" stroke="#000000" points="173,-221.7 173,-243.7 353,-243.7 353,-221.7 173,-221.7"/>
<image xlink:href="../../images/foreignKeys.png" width="11px" height="12px" preserveAspectRatio="xMinYMin meet" x="178" y="-238.7"/>
<text text-anchor="start" x="193" y="-228.8" font-family="Helvetica,sans-Serif" font-size="11.00" fill="#000000">realm_id</text>
<polygon fill="#ffffff" stroke="transparent" points="173,-199.7 173,-221.7 353,-221.7 353,-199.7 173,-199.7"/>
<polygon fill="none" stroke="#000000" points="173,-199.7 173,-221.7 353,-221.7 353,-199.7 173,-199.7"/>
<text text-anchor="start" x="193" y="-206.8" font-family="Helvetica,sans-Serif" font-size="11.00" fill="#000000">username</text>
<polygon fill="none" stroke="#000000" points="173,-180.7 173,-199.7 353,-199.7 353,-180.7 173,-180.7"/>
<text text-anchor="start" x="176" y="-186.8" font-family="Helvetica,sans-Serif" font-size="11.00" fill="#000000">...</text>
<polygon fill="#ffffff" stroke="transparent" points="173,-161.7 173,-180.7 247,-180.7 247,-161.7 173,-161.7"/>
<polygon fill="none" stroke="#000000" points="173,-161.7 173,-180.7 247,-180.7 247,-161.7 173,-161.7"/>
<text text-anchor="start" x="176" y="-167.8" font-family="Helvetica,sans-Serif" font-size="11.00" fill="#000000">&lt; 1</text>
<polygon fill="#ffffff" stroke="transparent" points="247,-161.7 247,-180.7 305,-180.7 305,-161.7 247,-161.7"/>
<polygon fill="none" stroke="#000000" points="247,-161.7 247,-180.7 305,-180.7 305,-161.7 247,-161.7"/>
<text text-anchor="start" x="275.1105" y="-167.8" font-family="Helvetica,sans-Serif" font-size="11.00" fill="#000000">1 row</text>
<polygon fill="#ffffff" stroke="transparent" points="305,-161.7 305,-180.7 353,-180.7 353,-161.7 305,-161.7"/>
<polygon fill="none" stroke="#000000" points="305,-161.7 305,-180.7 353,-180.7 353,-161.7 305,-161.7"/>
<text text-anchor="start" x="334.4053" y="-167.8" font-family="Helvetica,sans-Serif" font-size="11.00" fill="#000000">7 &gt;</text>
</a>
</g>
</g>
<!-- credential&#45;&gt;user_entity -->
<g id="edge1" class="edge">
<title>credential:w&#45;&gt;user_entity:e</title>
<path fill="none" stroke="#000000" d="M449.6145,-505.0161C424.5475,-502.3493 412.3806,-491.593 394,-467.7 346.8734,-406.4398 430.2899,-298.7 353,-298.7"/>
<polygon fill="#000000" stroke="#000000" points="456.009,-505.32 463.829,-509.2959 460.0045,-505.51 464,-505.7 464,-505.7 464,-505.7 460.0045,-505.51 464.171,-502.1041 456.009,-505.32 456.009,-505.32"/>
<ellipse fill="none" stroke="#000000" cx="452.8126" cy="-505.1681" rx="3.2" ry="3.2"/>
</g>
<!-- federated_user -->
<g id="node4" class="node">
<title>federated_user</title>
<g id="a_node4"><a xlink:href="../../tables/federated_user.html" xlink:title="federated_user" target="_top">
<polygon fill="#ffffff" stroke="transparent" points="8,-142.2 8,-203.2 124,-203.2 124,-142.2 8,-142.2"/>
<polygon fill="#f5f5f5" stroke="transparent" points="8,-179.7 8,-202.7 124,-202.7 124,-179.7 8,-179.7"/>
<polygon fill="none" stroke="#000000" points="8,-179.7 8,-202.7 124,-202.7 124,-179.7 8,-179.7"/>
<text text-anchor="start" x="12.5142" y="-188.8" font-family="Helvetica,sans-Serif" font-weight="bold" font-size="11.00" fill="#000000">federated_user</text>
<text text-anchor="start" x="89.5219" y="-187.8" font-family="Helvetica,sans-Serif" font-size="11.00" fill="#000000">[table]</text>
<polygon fill="none" stroke="#000000" points="8,-160.7 8,-179.7 124,-179.7 124,-160.7 8,-160.7"/>
<text text-anchor="start" x="11" y="-166.8" font-family="Helvetica,sans-Serif" font-size="11.00" fill="#000000">...</text>
<polygon fill="#ffffff" stroke="transparent" points="8,-141.7 8,-160.7 39,-160.7 39,-141.7 8,-141.7"/>
<polygon fill="none" stroke="#000000" points="8,-141.7 8,-160.7 39,-160.7 39,-141.7 8,-141.7"/>
<text text-anchor="start" x="11" y="-147.8" font-family="Helvetica,sans-Serif" font-size="11.00" fill="#000000"> &#160;</text>
<polygon fill="#ffffff" stroke="transparent" points="39,-141.7 39,-160.7 87,-160.7 87,-141.7 39,-141.7"/>
<polygon fill="none" stroke="#000000" points="39,-141.7 39,-160.7 87,-160.7 87,-141.7 39,-141.7"/>
<text text-anchor="start" x="51.6105" y="-147.8" font-family="Helvetica,sans-Serif" font-size="11.00" fill="#000000">0 rows</text>
<polygon fill="#ffffff" stroke="transparent" points="87,-141.7 87,-160.7 124,-160.7 124,-141.7 87,-141.7"/>
<polygon fill="none" stroke="#000000" points="87,-141.7 87,-160.7 124,-160.7 124,-141.7 87,-141.7"/>
<text text-anchor="start" x="99.2904" y="-147.8" font-family="Helvetica,sans-Serif" font-size="11.00" fill="#000000">30 &gt;</text>
</a>
</g>
</g>
<!-- user_entity&#45;&gt;federated_user -->
<g id="edge8" class="edge">
<title>user_entity:w&#45;&gt;federated_user:e</title>
<path fill="none" stroke="#000000" stroke-dasharray="5,2" d="M159.2151,-227.7565C143.3751,-212.9048 153.3754,-169.7 124,-169.7"/>
<polygon fill="#000000" stroke="#000000" points="165.4696,-229.9994 171.7847,-236.0887 169.2348,-231.3497 173,-232.7 173,-232.7 173,-232.7 169.2348,-231.3497 174.2153,-229.3113 165.4696,-229.9994 165.4696,-229.9994"/>
<ellipse fill="none" stroke="#000000" cx="162.4574" cy="-228.9192" rx="3.2" ry="3.2"/>
</g>
<!-- federated_identity -->
<g id="node3" class="node">
<title>federated_identity</title>
<g id="a_node3"><a xlink:href="../../tables/federated_identity.html" xlink:title="federated_identity" target="_top">
<polygon fill="#ffffff" stroke="transparent" points="444,-560.2 444,-621.2 574,-621.2 574,-560.2 444,-560.2"/>
<polygon fill="#f5f5f5" stroke="transparent" points="444,-597.7 444,-620.7 574,-620.7 574,-597.7 444,-597.7"/>
<polygon fill="none" stroke="#000000" points="444,-597.7 444,-620.7 574,-620.7 574,-597.7 444,-597.7"/>
<text text-anchor="start" x="448.7899" y="-606.8" font-family="Helvetica,sans-Serif" font-weight="bold" font-size="11.00" fill="#000000">federated_identity</text>
<text text-anchor="start" x="539.5219" y="-605.8" font-family="Helvetica,sans-Serif" font-size="11.00" fill="#000000">[table]</text>
<polygon fill="none" stroke="#000000" points="444,-578.7 444,-597.7 574,-597.7 574,-578.7 444,-578.7"/>
<text text-anchor="start" x="447" y="-584.8" font-family="Helvetica,sans-Serif" font-size="11.00" fill="#000000">...</text>
<polygon fill="#ffffff" stroke="transparent" points="444,-559.7 444,-578.7 494,-578.7 494,-559.7 444,-559.7"/>
<polygon fill="none" stroke="#000000" points="444,-559.7 444,-578.7 494,-578.7 494,-559.7 444,-559.7"/>
<text text-anchor="start" x="447" y="-565.8" font-family="Helvetica,sans-Serif" font-size="11.00" fill="#000000">&lt; 2</text>
<polygon fill="#ffffff" stroke="transparent" points="494,-559.7 494,-578.7 547,-578.7 547,-559.7 494,-559.7"/>
<polygon fill="none" stroke="#000000" points="494,-559.7 494,-578.7 547,-578.7 547,-559.7 494,-559.7"/>
<text text-anchor="start" x="511.6105" y="-565.8" font-family="Helvetica,sans-Serif" font-size="11.00" fill="#000000">0 rows</text>
<polygon fill="#ffffff" stroke="transparent" points="547,-559.7 547,-578.7 574,-578.7 574,-559.7 547,-559.7"/>
<polygon fill="none" stroke="#000000" points="547,-559.7 547,-578.7 574,-578.7 574,-559.7 547,-559.7"/>
<text text-anchor="start" x="564.8862" y="-565.8" font-family="Helvetica,sans-Serif" font-size="11.00" fill="#000000"> &#160;</text>
</a>
</g>
</g>
<!-- federated_identity&#45;&gt;user_entity -->
<g id="edge3" class="edge">
<title>federated_identity:w&#45;&gt;user_entity:e</title>
<path fill="none" stroke="#000000" d="M429.2673,-585.9927C412.683,-581.5739 405.4626,-568.761 394,-549.7 364.8737,-501.2662 409.517,-298.7 353,-298.7"/>
<polygon fill="#000000" stroke="#000000" points="436.0532,-586.779 443.5856,-591.2761 440.0266,-587.2395 444,-587.7 444,-587.7 444,-587.7 440.0266,-587.2395 444.4144,-584.1239 436.0532,-586.779 436.0532,-586.779"/>
<ellipse fill="none" stroke="#000000" cx="432.8745" cy="-586.4106" rx="3.2" ry="3.2"/>
</g>
<!-- federated_identity&#45;&gt;federated_user -->
<g id="edge2" class="edge">
<title>federated_identity:w&#45;&gt;federated_user:e</title>
<path fill="none" stroke="#000000" stroke-dasharray="5,2" d="M429.3887,-589.6532C377.2074,-603.4395 361.9787,-676.2064 165,-343.7 124.505,-275.3432 203.4512,-169.7 124,-169.7"/>
<polygon fill="#000000" stroke="#000000" points="436.0705,-588.7601 444.477,-591.2683 440.0353,-588.23 444,-587.7 444,-587.7 444,-587.7 440.0353,-588.23 443.523,-584.1317 436.0705,-588.7601 436.0705,-588.7601"/>
<ellipse fill="none" stroke="#000000" cx="432.8988" cy="-589.1841" rx="3.2" ry="3.2"/>
</g>
<!-- user_attribute -->
<g id="node5" class="node">
<title>user_attribute</title>
<g id="a_node5"><a xlink:href="../../tables/user_attribute.html" xlink:title="user_attribute" target="_top">
<polygon fill="#ffffff" stroke="transparent" points="454,-396.2 454,-457.2 564,-457.2 564,-396.2 454,-396.2"/>
<polygon fill="#f5f5f5" stroke="transparent" points="454,-433.7 454,-456.7 564,-456.7 564,-433.7 454,-433.7"/>
<polygon fill="none" stroke="#000000" points="454,-433.7 454,-456.7 564,-456.7 564,-433.7 454,-433.7"/>
<text text-anchor="start" x="458.8802" y="-442.8" font-family="Helvetica,sans-Serif" font-weight="bold" font-size="11.00" fill="#000000">user_attribute</text>
<text text-anchor="start" x="529.5219" y="-441.8" font-family="Helvetica,sans-Serif" font-size="11.00" fill="#000000">[table]</text>
<polygon fill="none" stroke="#000000" points="454,-414.7 454,-433.7 564,-433.7 564,-414.7 454,-414.7"/>
<text text-anchor="start" x="457" y="-420.8" font-family="Helvetica,sans-Serif" font-size="11.00" fill="#000000">...</text>
<polygon fill="#ffffff" stroke="transparent" points="454,-395.7 454,-414.7 494,-414.7 494,-395.7 454,-395.7"/>
<polygon fill="none" stroke="#000000" points="454,-395.7 454,-414.7 494,-414.7 494,-395.7 454,-395.7"/>
<text text-anchor="start" x="457" y="-401.8" font-family="Helvetica,sans-Serif" font-size="11.00" fill="#000000">&lt; 1</text>
<polygon fill="#ffffff" stroke="transparent" points="494,-395.7 494,-414.7 542,-414.7 542,-395.7 494,-395.7"/>
<polygon fill="none" stroke="#000000" points="494,-395.7 494,-414.7 542,-414.7 542,-395.7 494,-395.7"/>
<text text-anchor="start" x="506.6105" y="-401.8" font-family="Helvetica,sans-Serif" font-size="11.00" fill="#000000">0 rows</text>
<polygon fill="#ffffff" stroke="transparent" points="542,-395.7 542,-414.7 564,-414.7 564,-395.7 542,-395.7"/>
<polygon fill="none" stroke="#000000" points="542,-395.7 542,-414.7 564,-414.7 564,-395.7 542,-395.7"/>
<text text-anchor="start" x="554.8862" y="-401.8" font-family="Helvetica,sans-Serif" font-size="11.00" fill="#000000"> &#160;</text>
</a>
</g>
</g>
<!-- user_attribute&#45;&gt;user_entity -->
<g id="edge4" class="edge">
<title>user_attribute:w&#45;&gt;user_entity:e</title>
<path fill="none" stroke="#000000" d="M439.3782,-422.3981C419.3707,-418.3711 411.2195,-405.2024 394,-385.7 365.7081,-353.6574 395.7453,-298.7 353,-298.7"/>
<polygon fill="#000000" stroke="#000000" points="446.0315,-422.9905 453.6807,-427.2858 450.0158,-423.3452 454,-423.7 454,-423.7 454,-423.7 450.0158,-423.3452 454.3193,-420.1142 446.0315,-422.9905 446.0315,-422.9905"/>
<ellipse fill="none" stroke="#000000" cx="442.8441" cy="-422.7066" rx="3.2" ry="3.2"/>
</g>
<!-- user_consent -->
<g id="node6" class="node">
<title>user_consent</title>
<g id="a_node6"><a xlink:href="../../tables/user_consent.html" xlink:title="user_consent" target="_top">
<polygon fill="#ffffff" stroke="transparent" points="454.5,-38.2 454.5,-99.2 563.5,-99.2 563.5,-38.2 454.5,-38.2"/>
<polygon fill="#f5f5f5" stroke="transparent" points="455,-75.7 455,-98.7 564,-98.7 564,-75.7 455,-75.7"/>
<polygon fill="none" stroke="#000000" points="455,-75.7 455,-98.7 564,-98.7 564,-75.7 455,-75.7"/>
<text text-anchor="start" x="459.9885" y="-84.8" font-family="Helvetica,sans-Serif" font-weight="bold" font-size="11.00" fill="#000000">user_consent</text>
<text text-anchor="start" x="529.5219" y="-83.8" font-family="Helvetica,sans-Serif" font-size="11.00" fill="#000000">[table]</text>
<polygon fill="none" stroke="#000000" points="455,-56.7 455,-75.7 564,-75.7 564,-56.7 455,-56.7"/>
<text text-anchor="start" x="458" y="-62.8" font-family="Helvetica,sans-Serif" font-size="11.00" fill="#000000">...</text>
<polygon fill="#ffffff" stroke="transparent" points="455,-37.7 455,-56.7 490,-56.7 490,-37.7 455,-37.7"/>
<polygon fill="none" stroke="#000000" points="455,-37.7 455,-56.7 490,-56.7 490,-37.7 455,-37.7"/>
<text text-anchor="start" x="458" y="-43.8" font-family="Helvetica,sans-Serif" font-size="11.00" fill="#000000">&lt; 3</text>
<polygon fill="#ffffff" stroke="transparent" points="490,-37.7 490,-56.7 535,-56.7 535,-37.7 490,-37.7"/>
<polygon fill="none" stroke="#000000" points="490,-37.7 490,-56.7 535,-56.7 535,-37.7 490,-37.7"/>
<text text-anchor="start" x="499.6105" y="-43.8" font-family="Helvetica,sans-Serif" font-size="11.00" fill="#000000">0 rows</text>
<polygon fill="#ffffff" stroke="transparent" points="535,-37.7 535,-56.7 564,-56.7 564,-37.7 535,-37.7"/>
<polygon fill="none" stroke="#000000" points="535,-37.7 535,-56.7 564,-56.7 564,-37.7 535,-37.7"/>
<text text-anchor="start" x="545.4053" y="-43.8" font-family="Helvetica,sans-Serif" font-size="11.00" fill="#000000">1 &gt;</text>
</a>
</g>
</g>
<!-- user_consent&#45;&gt;user_entity -->
<g id="edge7" class="edge">
<title>user_consent:w&#45;&gt;user_entity:e</title>
<path fill="none" stroke="#000000" d="M440.3521,-66.9767C418.2901,-71.2824 409.3084,-86.3225 394,-109.7 346.9121,-181.6081 438.9538,-298.7 353,-298.7"/>
<polygon fill="#000000" stroke="#000000" points="447.0302,-66.3947 455.3126,-69.2864 451.0151,-66.0473 455,-65.7 455,-65.7 455,-65.7 451.0151,-66.0473 454.6874,-62.1136 447.0302,-66.3947 447.0302,-66.3947"/>
<ellipse fill="none" stroke="#000000" cx="443.8423" cy="-66.6725" rx="3.2" ry="3.2"/>
</g>
<!-- user_consent&#45;&gt;federated_user -->
<g id="edge5" class="edge">
<title>user_consent:w&#45;&gt;federated_user:e</title>
<path fill="none" stroke="#000000" stroke-dasharray="5,2" d="M440.4573,-65.8626C318.2533,-68.6611 286.556,-107.1922 165,-151.7 146.3123,-158.5425 143.901,-169.7 124,-169.7"/>
<polygon fill="#000000" stroke="#000000" points="447.0005,-65.7895 455.0403,-69.2998 451.0003,-65.7448 455,-65.7 455,-65.7 455,-65.7 451.0003,-65.7448 454.9597,-62.1002 447.0005,-65.7895 447.0005,-65.7895"/>
<ellipse fill="none" stroke="#000000" cx="443.8007" cy="-65.8253" rx="3.2" ry="3.2"/>
</g>
<!-- user_consent&#45;&gt;federated_user -->
<g id="edge6" class="edge">
<title>user_consent:w&#45;&gt;federated_user:e</title>
<path fill="none" stroke="#000000" stroke-dasharray="5,2" d="M440.4123,-65.8963C317.9229,-69.2679 288.5519,-115.4427 165,-155.7 146.6921,-161.6653 143.2553,-169.7 124,-169.7"/>
<polygon fill="#000000" stroke="#000000" points="447.0007,-65.8077 455.0485,-69.2997 451.0004,-65.7538 455,-65.7 455,-65.7 455,-65.7 451.0004,-65.7538 454.9515,-62.1003 447.0007,-65.8077 447.0007,-65.8077"/>
<ellipse fill="none" stroke="#000000" cx="443.801" cy="-65.8508" rx="3.2" ry="3.2"/>
</g>
<!-- user_group_membership -->
<g id="node7" class="node">
<title>user_group_membership</title>
<g id="a_node7"><a xlink:href="../../tables/user_group_membership.html" xlink:title="user_group_membership" target="_top">
<polygon fill="#ffffff" stroke="transparent" points="426.5,-314.2 426.5,-375.2 591.5,-375.2 591.5,-314.2 426.5,-314.2"/>
<polygon fill="#f5f5f5" stroke="transparent" points="427,-351.7 427,-374.7 592,-374.7 592,-351.7 427,-351.7"/>
<polygon fill="none" stroke="#000000" points="427,-351.7 427,-374.7 592,-374.7 592,-351.7 427,-351.7"/>
<text text-anchor="start" x="431.878" y="-360.8" font-family="Helvetica,sans-Serif" font-weight="bold" font-size="11.00" fill="#000000">user_group_membership</text>
<text text-anchor="start" x="557.5219" y="-359.8" font-family="Helvetica,sans-Serif" font-size="11.00" fill="#000000">[table]</text>
<polygon fill="none" stroke="#000000" points="427,-332.7 427,-351.7 592,-351.7 592,-332.7 427,-332.7"/>
<text text-anchor="start" x="430" y="-338.8" font-family="Helvetica,sans-Serif" font-size="11.00" fill="#000000">...</text>
<polygon fill="#ffffff" stroke="transparent" points="427,-313.7 427,-332.7 495,-332.7 495,-313.7 427,-313.7"/>
<polygon fill="none" stroke="#000000" points="427,-313.7 427,-332.7 495,-332.7 495,-313.7 427,-313.7"/>
<text text-anchor="start" x="430" y="-319.8" font-family="Helvetica,sans-Serif" font-size="11.00" fill="#000000">&lt; 1</text>
<polygon fill="#ffffff" stroke="transparent" points="495,-313.7 495,-332.7 556,-332.7 556,-313.7 495,-313.7"/>
<polygon fill="none" stroke="#000000" points="495,-313.7 495,-332.7 556,-332.7 556,-313.7 495,-313.7"/>
<text text-anchor="start" x="520.6105" y="-319.8" font-family="Helvetica,sans-Serif" font-size="11.00" fill="#000000">0 rows</text>
<polygon fill="#ffffff" stroke="transparent" points="556,-313.7 556,-332.7 592,-332.7 592,-313.7 556,-313.7"/>
<polygon fill="none" stroke="#000000" points="556,-313.7 556,-332.7 592,-332.7 592,-313.7 556,-313.7"/>
<text text-anchor="start" x="582.8862" y="-319.8" font-family="Helvetica,sans-Serif" font-size="11.00" fill="#000000"> &#160;</text>
</a>
</g>
</g>
<!-- user_group_membership&#45;&gt;user_entity -->
<g id="edge9" class="edge">
<title>user_group_membership:w&#45;&gt;user_entity:e</title>
<path fill="none" stroke="#000000" d="M412.7785,-339.2649C388.724,-330.1686 385.5406,-298.7 353,-298.7"/>
<polygon fill="#000000" stroke="#000000" points="419.1148,-340.3498 426.3924,-345.2484 423.0574,-341.0249 427,-341.7 427,-341.7 427,-341.7 423.0574,-341.0249 427.6076,-338.1516 419.1148,-340.3498 419.1148,-340.3498"/>
<ellipse fill="none" stroke="#000000" cx="415.9607" cy="-339.8097" rx="3.2" ry="3.2"/>
</g>
<!-- user_required_action -->
<g id="node8" class="node">
<title>user_required_action</title>
<g id="a_node8"><a xlink:href="../../tables/user_required_action.html" xlink:title="user_required_action" target="_top">
<polygon fill="#ffffff" stroke="transparent" points="402,-202.7 402,-292.7 616,-292.7 616,-202.7 402,-202.7"/>
<polygon fill="#f5f5f5" stroke="transparent" points="404,-267.7 404,-290.7 614,-290.7 614,-267.7 404,-267.7"/>
<polygon fill="none" stroke="#000000" points="404,-267.7 404,-290.7 614,-290.7 614,-267.7 404,-267.7"/>
<text text-anchor="start" x="409" y="-276.8" font-family="Helvetica,sans-Serif" font-weight="bold" font-size="11.00" fill="#000000">user_required_action</text>
<text text-anchor="start" x="579.0437" y="-275.8" font-family="Helvetica,sans-Serif" font-size="11.00" fill="#000000">[table]</text>
<polygon fill="none" stroke="#000000" points="404,-245.7 404,-267.7 547,-267.7 547,-245.7 404,-245.7"/>
<image xlink:href="../../images/primaryKeys.png" width="11px" height="12px" preserveAspectRatio="xMinYMin meet" x="409" y="-262.7"/>
<text text-anchor="start" x="424" y="-252.8" font-family="Helvetica,sans-Serif" font-size="11.00" fill="#000000">user_id</text>
<polygon fill="none" stroke="#000000" points="547,-245.7 547,-267.7 614,-267.7 614,-245.7 547,-245.7"/>
<text text-anchor="start" x="550" y="-253.4" font-family="Helvetica,sans-Serif" font-size="11.00" fill="#000000">varchar[36]</text>
<polygon fill="none" stroke="#000000" points="404,-223.7 404,-245.7 547,-245.7 547,-223.7 404,-223.7"/>
<image xlink:href="../../images/primaryKeys.png" width="11px" height="12px" preserveAspectRatio="xMinYMin meet" x="409" y="-240.7"/>
<text text-anchor="start" x="424" y="-230.8" font-family="Helvetica,sans-Serif" font-size="11.00" fill="#000000">required_action</text>
<polygon fill="none" stroke="#000000" points="547,-223.7 547,-245.7 614,-245.7 614,-223.7 547,-223.7"/>
<text text-anchor="start" x="549.9365" y="-231.4" font-family="Helvetica,sans-Serif" font-size="11.00" fill="#000000">varchar[255]</text>
<polygon fill="#ffffff" stroke="transparent" points="404,-204.7 404,-223.7 467,-223.7 467,-204.7 404,-204.7"/>
<polygon fill="none" stroke="#000000" points="404,-204.7 404,-223.7 467,-223.7 467,-204.7 404,-204.7"/>
<text text-anchor="start" x="407" y="-210.8" font-family="Helvetica,sans-Serif" font-size="11.00" fill="#000000">&lt; 1</text>
<polygon fill="#ffffff" stroke="transparent" points="467,-204.7 467,-223.7 547,-223.7 547,-204.7 467,-204.7"/>
<polygon fill="none" stroke="#000000" points="467,-204.7 467,-223.7 547,-223.7 547,-204.7 467,-204.7"/>
<text text-anchor="start" x="511.6105" y="-210.8" font-family="Helvetica,sans-Serif" font-size="11.00" fill="#000000">0 rows</text>
<polygon fill="#ffffff" stroke="transparent" points="547,-204.7 547,-223.7 614,-223.7 614,-204.7 547,-204.7"/>
<polygon fill="none" stroke="#000000" points="547,-204.7 547,-223.7 614,-223.7 614,-204.7 547,-204.7"/>
<text text-anchor="start" x="595.4053" y="-210.8" font-family="Helvetica,sans-Serif" font-size="11.00" fill="#000000">0 &gt;</text>
<polygon fill="none" stroke="#000000" stroke-width="2" points="403,-203.7 403,-291.7 615,-291.7 615,-203.7 403,-203.7"/>
</a>
</g>
</g>
<!-- user_required_action&#45;&gt;user_entity -->
<g id="edge10" class="edge">
<title>user_required_action:w&#45;&gt;user_entity:e</title>
<path fill="none" stroke="#000000" d="M390.0759,-261.1947C376.2452,-272.0296 376.3991,-298.7 353,-298.7"/>
<polygon fill="#000000" stroke="#000000" points="396.3868,-259.1576 405.1059,-260.1259 400.1934,-257.9288 404,-256.7 404,-256.7 404,-256.7 400.1934,-257.9288 402.8941,-253.2741 396.3868,-259.1576 396.3868,-259.1576"/>
<ellipse fill="none" stroke="#000000" cx="393.3416" cy="-260.1406" rx="3.2" ry="3.2"/>
</g>
<!-- user_role_mapping -->
<g id="node9" class="node">
<title>user_role_mapping</title>
<g id="a_node9"><a xlink:href="../../tables/user_role_mapping.html" xlink:title="user_role_mapping" target="_top">
<polygon fill="#ffffff" stroke="transparent" points="440.5,-120.2 440.5,-181.2 577.5,-181.2 577.5,-120.2 440.5,-120.2"/>
<polygon fill="#f5f5f5" stroke="transparent" points="441,-157.7 441,-180.7 578,-180.7 578,-157.7 441,-157.7"/>
<polygon fill="none" stroke="#000000" points="441,-157.7 441,-180.7 578,-180.7 578,-157.7 441,-157.7"/>
<text text-anchor="start" x="445.9343" y="-166.8" font-family="Helvetica,sans-Serif" font-weight="bold" font-size="11.00" fill="#000000">user_role_mapping</text>
<text text-anchor="start" x="543.5219" y="-165.8" font-family="Helvetica,sans-Serif" font-size="11.00" fill="#000000">[table]</text>
<polygon fill="none" stroke="#000000" points="441,-138.7 441,-157.7 578,-157.7 578,-138.7 441,-138.7"/>
<text text-anchor="start" x="444" y="-144.8" font-family="Helvetica,sans-Serif" font-size="11.00" fill="#000000">...</text>
<polygon fill="#ffffff" stroke="transparent" points="441,-119.7 441,-138.7 495,-138.7 495,-119.7 441,-119.7"/>
<polygon fill="none" stroke="#000000" points="441,-119.7 441,-138.7 495,-138.7 495,-119.7 441,-119.7"/>
<text text-anchor="start" x="444" y="-125.8" font-family="Helvetica,sans-Serif" font-size="11.00" fill="#000000">&lt; 1</text>
<polygon fill="#ffffff" stroke="transparent" points="495,-119.7 495,-138.7 549,-138.7 549,-119.7 495,-119.7"/>
<polygon fill="none" stroke="#000000" points="495,-119.7 495,-138.7 549,-138.7 549,-119.7 495,-119.7"/>
<text text-anchor="start" x="513.6105" y="-125.8" font-family="Helvetica,sans-Serif" font-size="11.00" fill="#000000">5 rows</text>
<polygon fill="#ffffff" stroke="transparent" points="549,-119.7 549,-138.7 578,-138.7 578,-119.7 549,-119.7"/>
<polygon fill="none" stroke="#000000" points="549,-119.7 549,-138.7 578,-138.7 578,-119.7 549,-119.7"/>
<text text-anchor="start" x="568.8862" y="-125.8" font-family="Helvetica,sans-Serif" font-size="11.00" fill="#000000"> &#160;</text>
</a>
</g>
</g>
<!-- user_role_mapping&#45;&gt;user_entity -->
<g id="edge11" class="edge">
<title>user_role_mapping:w&#45;&gt;user_entity:e</title>
<path fill="none" stroke="#000000" d="M426.362,-150.1425C410.6752,-156.3353 406.7851,-173.5264 394,-192.7 365.9766,-234.7261 403.5124,-298.7 353,-298.7"/>
<polygon fill="#000000" stroke="#000000" points="433.1091,-149.0167 441.5925,-151.2509 437.0545,-148.3584 441,-147.7 441,-147.7 441,-147.7 437.0545,-148.3584 440.4075,-144.1491 433.1091,-149.0167 433.1091,-149.0167"/>
<ellipse fill="none" stroke="#000000" cx="429.9527" cy="-149.5434" rx="3.2" ry="3.2"/>
</g>
</g>
</svg>
