<?xml version="1.0" encoding="UTF-8" standalone="no"?>
<!DOCTYPE svg PUBLIC "-//W3C//DTD SVG 1.1//EN"
 "http://www.w3.org/Graphics/SVG/1.1/DTD/svg11.dtd">
<!-- Generated by graphviz version 2.40.1 (20161225.0304)
 -->
<!-- Title: twoDegreesRelationshipsDiagram Pages: 1 -->
<svg width="467pt" height="633pt"
 viewBox="0.00 0.00 467.00 633.20" xmlns="http://www.w3.org/2000/svg" xmlns:xlink="http://www.w3.org/1999/xlink">
<g id="graph0" class="graph" transform="scale(1 1) rotate(0) translate(4 629.2)">
<title>twoDegreesRelationshipsDiagram</title>
<polygon fill="#ffffff" stroke="transparent" points="-4,4 -4,-629.2 463,-629.2 463,4 -4,4"/>
<text text-anchor="middle" x="72.4936" y="-7.3" font-family="Helvetica,sans-Serif" font-size="11.00" fill="#000000">Generated by SchemaSpy</text>
<!-- credential -->
<g id="node1" class="node">
<title>credential</title>
<g id="a_node1"><a xlink:href="../../tables/credential.html" xlink:title="credential" target="_top">
<polygon fill="#ffffff" stroke="transparent" points="299,-560.2 299,-621.2 389,-621.2 389,-560.2 299,-560.2"/>
<polygon fill="#f5f5f5" stroke="transparent" points="299,-597.7 299,-620.7 389,-620.7 389,-597.7 299,-597.7"/>
<polygon fill="none" stroke="#000000" points="299,-597.7 299,-620.7 389,-620.7 389,-597.7 299,-597.7"/>
<text text-anchor="start" x="303.6625" y="-606.8" font-family="Helvetica,sans-Serif" font-weight="bold" font-size="11.00" fill="#000000">credential</text>
<text text-anchor="start" x="354.5219" y="-605.8" font-family="Helvetica,sans-Serif" font-size="11.00" fill="#000000">[table]</text>
<polygon fill="none" stroke="#000000" points="299,-578.7 299,-597.7 389,-597.7 389,-578.7 299,-578.7"/>
<text text-anchor="start" x="302" y="-584.8" font-family="Helvetica,sans-Serif" font-size="11.00" fill="#000000">...</text>
<polygon fill="#ffffff" stroke="transparent" points="299,-559.7 299,-578.7 332,-578.7 332,-559.7 299,-559.7"/>
<polygon fill="none" stroke="#000000" points="299,-559.7 299,-578.7 332,-578.7 332,-559.7 299,-559.7"/>
<text text-anchor="start" x="302" y="-565.8" font-family="Helvetica,sans-Serif" font-size="11.00" fill="#000000">&lt; 1</text>
<polygon fill="#ffffff" stroke="transparent" points="332,-559.7 332,-578.7 370,-578.7 370,-559.7 332,-559.7"/>
<polygon fill="none" stroke="#000000" points="332,-559.7 332,-578.7 370,-578.7 370,-559.7 332,-559.7"/>
<text text-anchor="start" x="340.1105" y="-565.8" font-family="Helvetica,sans-Serif" font-size="11.00" fill="#000000">1 row</text>
<polygon fill="#ffffff" stroke="transparent" points="370,-559.7 370,-578.7 389,-578.7 389,-559.7 370,-559.7"/>
<polygon fill="none" stroke="#000000" points="370,-559.7 370,-578.7 389,-578.7 389,-559.7 370,-559.7"/>
<text text-anchor="start" x="379.8862" y="-565.8" font-family="Helvetica,sans-Serif" font-size="11.00" fill="#000000"> &#160;</text>
</a>
</g>
</g>
<!-- user_entity -->
<g id="node2" class="node">
<title>user_entity</title>
<g id="a_node2"><a xlink:href="../../tables/user_entity.html" xlink:title="user_entity" target="_top">
<polygon fill="#ffffff" stroke="transparent" points="8,-205.2 8,-376.2 188,-376.2 188,-205.2 8,-205.2"/>
<polygon fill="#f5f5f5" stroke="transparent" points="8,-352.7 8,-375.7 188,-375.7 188,-352.7 8,-352.7"/>
<polygon fill="none" stroke="#000000" points="8,-352.7 8,-375.7 188,-375.7 188,-352.7 8,-352.7"/>
<text text-anchor="start" x="13" y="-361.8" font-family="Helvetica,sans-Serif" font-weight="bold" font-size="11.00" fill="#000000">user_entity</text>
<text text-anchor="start" x="153.0437" y="-360.8" font-family="Helvetica,sans-Serif" font-size="11.00" fill="#000000">[table]</text>
<polygon fill="none" stroke="#000000" points="8,-330.7 8,-352.7 188,-352.7 188,-330.7 8,-330.7"/>
<image xlink:href="../../images/primaryKeys.png" width="11px" height="12px" preserveAspectRatio="xMinYMin meet" x="13" y="-347.7"/>
<text text-anchor="start" x="28" y="-337.8" font-family="Helvetica,sans-Serif" font-size="11.00" fill="#000000">id</text>
<polygon fill="#ffffff" stroke="transparent" points="8,-308.7 8,-330.7 188,-330.7 188,-308.7 8,-308.7"/>
<polygon fill="none" stroke="#000000" points="8,-308.7 8,-330.7 188,-330.7 188,-308.7 8,-308.7"/>
<text text-anchor="start" x="28" y="-315.8" font-family="Helvetica,sans-Serif" font-size="11.00" fill="#000000">email</text>
<polygon fill="#ffffff" stroke="transparent" points="8,-286.7 8,-308.7 188,-308.7 188,-286.7 8,-286.7"/>
<polygon fill="none" stroke="#000000" points="8,-286.7 8,-308.7 188,-308.7 188,-286.7 8,-286.7"/>
<text text-anchor="start" x="28" y="-293.8" font-family="Helvetica,sans-Serif" font-size="11.00" fill="#000000">email_constraint</text>
<polygon fill="#ffffff" stroke="transparent" points="8,-264.7 8,-286.7 188,-286.7 188,-264.7 8,-264.7"/>
<polygon fill="none" stroke="#000000" points="8,-264.7 8,-286.7 188,-286.7 188,-264.7 8,-264.7"/>
<image xlink:href="../../images/foreignKeys.png" width="11px" height="12px" preserveAspectRatio="xMinYMin meet" x="13" y="-281.7"/>
<text text-anchor="start" x="28" y="-271.8" font-family="Helvetica,sans-Serif" font-size="11.00" fill="#000000">realm_id</text>
<polygon fill="#ffffff" stroke="transparent" points="8,-242.7 8,-264.7 188,-264.7 188,-242.7 8,-242.7"/>
<polygon fill="none" stroke="#000000" points="8,-242.7 8,-264.7 188,-264.7 188,-242.7 8,-242.7"/>
<text text-anchor="start" x="28" y="-249.8" font-family="Helvetica,sans-Serif" font-size="11.00" fill="#000000">username</text>
<polygon fill="none" stroke="#000000" points="8,-223.7 8,-242.7 188,-242.7 188,-223.7 8,-223.7"/>
<text text-anchor="start" x="11" y="-229.8" font-family="Helvetica,sans-Serif" font-size="11.00" fill="#000000">...</text>
<polygon fill="#ffffff" stroke="transparent" points="8,-204.7 8,-223.7 77,-223.7 77,-204.7 8,-204.7"/>
<polygon fill="none" stroke="#000000" points="8,-204.7 8,-223.7 77,-223.7 77,-204.7 8,-204.7"/>
<text text-anchor="start" x="11" y="-210.8" font-family="Helvetica,sans-Serif" font-size="11.00" fill="#000000"> &#160;</text>
<polygon fill="#ffffff" stroke="transparent" points="77,-204.7 77,-223.7 138,-223.7 138,-204.7 77,-204.7"/>
<polygon fill="none" stroke="#000000" points="77,-204.7 77,-223.7 138,-223.7 138,-204.7 77,-204.7"/>
<text text-anchor="start" x="108.1105" y="-210.8" font-family="Helvetica,sans-Serif" font-size="11.00" fill="#000000">1 row</text>
<polygon fill="#ffffff" stroke="transparent" points="138,-204.7 138,-223.7 188,-223.7 188,-204.7 138,-204.7"/>
<polygon fill="none" stroke="#000000" points="138,-204.7 138,-223.7 188,-223.7 188,-204.7 138,-204.7"/>
<text text-anchor="start" x="169.4053" y="-210.8" font-family="Helvetica,sans-Serif" font-size="11.00" fill="#000000">7 &gt;</text>
</a>
</g>
</g>
<!-- credential&#45;&gt;user_entity -->
<g id="edge1" class="edge">
<title>credential:w&#45;&gt;user_entity:e</title>
<path fill="none" stroke="#000000" d="M284.5799,-587.0421C259.3923,-584.466 246.858,-573.9861 229,-549.7 173.182,-473.7897 282.2233,-341.7 188,-341.7"/>
<polygon fill="#000000" stroke="#000000" points="291.0083,-587.3353 298.8359,-591.2963 295.0042,-587.5177 299,-587.7 299,-587.7 299,-587.7 295.0042,-587.5177 299.1641,-584.1037 291.0083,-587.3353 291.0083,-587.3353"/>
<ellipse fill="none" stroke="#000000" cx="287.8116" cy="-587.1894" rx="3.2" ry="3.2"/>
</g>
<!-- federated_identity -->
<g id="node3" class="node">
<title>federated_identity</title>
<g id="a_node3"><a xlink:href="../../tables/federated_identity.html" xlink:title="federated_identity" target="_top">
<polygon fill="#ffffff" stroke="transparent" points="279,-478.2 279,-539.2 409,-539.2 409,-478.2 279,-478.2"/>
<polygon fill="#f5f5f5" stroke="transparent" points="279,-515.7 279,-538.7 409,-538.7 409,-515.7 279,-515.7"/>
<polygon fill="none" stroke="#000000" points="279,-515.7 279,-538.7 409,-538.7 409,-515.7 279,-515.7"/>
<text text-anchor="start" x="283.7899" y="-524.8" font-family="Helvetica,sans-Serif" font-weight="bold" font-size="11.00" fill="#000000">federated_identity</text>
<text text-anchor="start" x="374.5219" y="-523.8" font-family="Helvetica,sans-Serif" font-size="11.00" fill="#000000">[table]</text>
<polygon fill="none" stroke="#000000" points="279,-496.7 279,-515.7 409,-515.7 409,-496.7 279,-496.7"/>
<text text-anchor="start" x="282" y="-502.8" font-family="Helvetica,sans-Serif" font-size="11.00" fill="#000000">...</text>
<polygon fill="#ffffff" stroke="transparent" points="279,-477.7 279,-496.7 329,-496.7 329,-477.7 279,-477.7"/>
<polygon fill="none" stroke="#000000" points="279,-477.7 279,-496.7 329,-496.7 329,-477.7 279,-477.7"/>
<text text-anchor="start" x="282" y="-483.8" font-family="Helvetica,sans-Serif" font-size="11.00" fill="#000000">&lt; 1</text>
<polygon fill="#ffffff" stroke="transparent" points="329,-477.7 329,-496.7 382,-496.7 382,-477.7 329,-477.7"/>
<polygon fill="none" stroke="#000000" points="329,-477.7 329,-496.7 382,-496.7 382,-477.7 329,-477.7"/>
<text text-anchor="start" x="346.6105" y="-483.8" font-family="Helvetica,sans-Serif" font-size="11.00" fill="#000000">0 rows</text>
<polygon fill="#ffffff" stroke="transparent" points="382,-477.7 382,-496.7 409,-496.7 409,-477.7 382,-477.7"/>
<polygon fill="none" stroke="#000000" points="382,-477.7 382,-496.7 409,-496.7 409,-477.7 382,-477.7"/>
<text text-anchor="start" x="399.8862" y="-483.8" font-family="Helvetica,sans-Serif" font-size="11.00" fill="#000000"> &#160;</text>
</a>
</g>
</g>
<!-- federated_identity&#45;&gt;user_entity -->
<g id="edge2" class="edge">
<title>federated_identity:w&#45;&gt;user_entity:e</title>
<path fill="none" stroke="#000000" d="M264.4431,-503.8776C248.26,-499.1962 241.8828,-485.8313 229,-467.7 194.8903,-419.694 246.8901,-341.7 188,-341.7"/>
<polygon fill="#000000" stroke="#000000" points="271.062,-504.7062 278.5528,-509.2721 275.031,-505.2031 279,-505.7 279,-505.7 279,-505.7 275.031,-505.2031 279.4472,-502.1279 271.062,-504.7062 271.062,-504.7062"/>
<ellipse fill="none" stroke="#000000" cx="267.8867" cy="-504.3087" rx="3.2" ry="3.2"/>
</g>
<!-- user_attribute -->
<g id="node4" class="node">
<title>user_attribute</title>
<g id="a_node4"><a xlink:href="../../tables/user_attribute.html" xlink:title="user_attribute" target="_top">
<polygon fill="#ffffff" stroke="transparent" points="289,-396.2 289,-457.2 399,-457.2 399,-396.2 289,-396.2"/>
<polygon fill="#f5f5f5" stroke="transparent" points="289,-433.7 289,-456.7 399,-456.7 399,-433.7 289,-433.7"/>
<polygon fill="none" stroke="#000000" points="289,-433.7 289,-456.7 399,-456.7 399,-433.7 289,-433.7"/>
<text text-anchor="start" x="293.8802" y="-442.8" font-family="Helvetica,sans-Serif" font-weight="bold" font-size="11.00" fill="#000000">user_attribute</text>
<text text-anchor="start" x="364.5219" y="-441.8" font-family="Helvetica,sans-Serif" font-size="11.00" fill="#000000">[table]</text>
<polygon fill="none" stroke="#000000" points="289,-414.7 289,-433.7 399,-433.7 399,-414.7 289,-414.7"/>
<text text-anchor="start" x="292" y="-420.8" font-family="Helvetica,sans-Serif" font-size="11.00" fill="#000000">...</text>
<polygon fill="#ffffff" stroke="transparent" points="289,-395.7 289,-414.7 329,-414.7 329,-395.7 289,-395.7"/>
<polygon fill="none" stroke="#000000" points="289,-395.7 289,-414.7 329,-414.7 329,-395.7 289,-395.7"/>
<text text-anchor="start" x="292" y="-401.8" font-family="Helvetica,sans-Serif" font-size="11.00" fill="#000000">&lt; 1</text>
<polygon fill="#ffffff" stroke="transparent" points="329,-395.7 329,-414.7 377,-414.7 377,-395.7 329,-395.7"/>
<polygon fill="none" stroke="#000000" points="329,-395.7 329,-414.7 377,-414.7 377,-395.7 329,-395.7"/>
<text text-anchor="start" x="341.6105" y="-401.8" font-family="Helvetica,sans-Serif" font-size="11.00" fill="#000000">0 rows</text>
<polygon fill="#ffffff" stroke="transparent" points="377,-395.7 377,-414.7 399,-414.7 399,-395.7 377,-395.7"/>
<polygon fill="none" stroke="#000000" points="377,-395.7 377,-414.7 399,-414.7 399,-395.7 377,-395.7"/>
<text text-anchor="start" x="389.8862" y="-401.8" font-family="Helvetica,sans-Serif" font-size="11.00" fill="#000000"> &#160;</text>
</a>
</g>
</g>
<!-- user_attribute&#45;&gt;user_entity -->
<g id="edge3" class="edge">
<title>user_attribute:w&#45;&gt;user_entity:e</title>
<path fill="none" stroke="#000000" d="M274.6379,-422.1303C255.3558,-417.3553 249.0215,-402.313 229,-385.7 208.4296,-368.6316 214.7296,-341.7 188,-341.7"/>
<polygon fill="#000000" stroke="#000000" points="281.0474,-422.8308 288.6088,-427.2787 285.0237,-423.2654 289,-423.7 289,-423.7 289,-423.7 285.0237,-423.2654 289.3912,-420.1213 281.0474,-422.8308 281.0474,-422.8308"/>
<ellipse fill="none" stroke="#000000" cx="277.8663" cy="-422.4831" rx="3.2" ry="3.2"/>
</g>
<!-- user_consent -->
<g id="node5" class="node">
<title>user_consent</title>
<g id="a_node5"><a xlink:href="../../tables/user_consent.html" xlink:title="user_consent" target="_top">
<polygon fill="#ffffff" stroke="transparent" points="289.5,-314.2 289.5,-375.2 398.5,-375.2 398.5,-314.2 289.5,-314.2"/>
<polygon fill="#f5f5f5" stroke="transparent" points="290,-351.7 290,-374.7 399,-374.7 399,-351.7 290,-351.7"/>
<polygon fill="none" stroke="#000000" points="290,-351.7 290,-374.7 399,-374.7 399,-351.7 290,-351.7"/>
<text text-anchor="start" x="294.9885" y="-360.8" font-family="Helvetica,sans-Serif" font-weight="bold" font-size="11.00" fill="#000000">user_consent</text>
<text text-anchor="start" x="364.5219" y="-359.8" font-family="Helvetica,sans-Serif" font-size="11.00" fill="#000000">[table]</text>
<polygon fill="none" stroke="#000000" points="290,-332.7 290,-351.7 399,-351.7 399,-332.7 290,-332.7"/>
<text text-anchor="start" x="293" y="-338.8" font-family="Helvetica,sans-Serif" font-size="11.00" fill="#000000">...</text>
<polygon fill="#ffffff" stroke="transparent" points="290,-313.7 290,-332.7 325,-332.7 325,-313.7 290,-313.7"/>
<polygon fill="none" stroke="#000000" points="290,-313.7 290,-332.7 325,-332.7 325,-313.7 290,-313.7"/>
<text text-anchor="start" x="293" y="-319.8" font-family="Helvetica,sans-Serif" font-size="11.00" fill="#000000">&lt; 1</text>
<polygon fill="#ffffff" stroke="transparent" points="325,-313.7 325,-332.7 370,-332.7 370,-313.7 325,-313.7"/>
<polygon fill="none" stroke="#000000" points="325,-313.7 325,-332.7 370,-332.7 370,-313.7 325,-313.7"/>
<text text-anchor="start" x="334.6105" y="-319.8" font-family="Helvetica,sans-Serif" font-size="11.00" fill="#000000">0 rows</text>
<polygon fill="#ffffff" stroke="transparent" points="370,-313.7 370,-332.7 399,-332.7 399,-313.7 370,-313.7"/>
<polygon fill="none" stroke="#000000" points="370,-313.7 370,-332.7 399,-332.7 399,-313.7 370,-313.7"/>
<text text-anchor="start" x="380.4053" y="-319.8" font-family="Helvetica,sans-Serif" font-size="11.00" fill="#000000">1 &gt;</text>
</a>
</g>
</g>
<!-- user_consent&#45;&gt;user_entity -->
<g id="edge4" class="edge">
<title>user_consent:w&#45;&gt;user_entity:e</title>
<path fill="none" stroke="#000000" d="M275.3538,-341.7C241.5435,-341.7 228.0208,-341.7 188,-341.7"/>
<polygon fill="#000000" stroke="#000000" points="282,-341.7001 290,-345.3 286,-341.7 290,-341.7 290,-341.7 290,-341.7 286,-341.7 290,-338.1 282,-341.7001 282,-341.7001"/>
<ellipse fill="none" stroke="#000000" cx="278.8" cy="-341.7001" rx="3.2" ry="3.2"/>
</g>
<!-- user_group_membership -->
<g id="node6" class="node">
<title>user_group_membership</title>
<g id="a_node6"><a xlink:href="../../tables/user_group_membership.html" xlink:title="user_group_membership" target="_top">
<polygon fill="#ffffff" stroke="transparent" points="261.5,-232.2 261.5,-293.2 426.5,-293.2 426.5,-232.2 261.5,-232.2"/>
<polygon fill="#f5f5f5" stroke="transparent" points="262,-269.7 262,-292.7 427,-292.7 427,-269.7 262,-269.7"/>
<polygon fill="none" stroke="#000000" points="262,-269.7 262,-292.7 427,-292.7 427,-269.7 262,-269.7"/>
<text text-anchor="start" x="266.878" y="-278.8" font-family="Helvetica,sans-Serif" font-weight="bold" font-size="11.00" fill="#000000">user_group_membership</text>
<text text-anchor="start" x="392.5219" y="-277.8" font-family="Helvetica,sans-Serif" font-size="11.00" fill="#000000">[table]</text>
<polygon fill="none" stroke="#000000" points="262,-250.7 262,-269.7 427,-269.7 427,-250.7 262,-250.7"/>
<text text-anchor="start" x="265" y="-256.8" font-family="Helvetica,sans-Serif" font-size="11.00" fill="#000000">...</text>
<polygon fill="#ffffff" stroke="transparent" points="262,-231.7 262,-250.7 330,-250.7 330,-231.7 262,-231.7"/>
<polygon fill="none" stroke="#000000" points="262,-231.7 262,-250.7 330,-250.7 330,-231.7 262,-231.7"/>
<text text-anchor="start" x="265" y="-237.8" font-family="Helvetica,sans-Serif" font-size="11.00" fill="#000000">&lt; 1</text>
<polygon fill="#ffffff" stroke="transparent" points="330,-231.7 330,-250.7 391,-250.7 391,-231.7 330,-231.7"/>
<polygon fill="none" stroke="#000000" points="330,-231.7 330,-250.7 391,-250.7 391,-231.7 330,-231.7"/>
<text text-anchor="start" x="355.6105" y="-237.8" font-family="Helvetica,sans-Serif" font-size="11.00" fill="#000000">0 rows</text>
<polygon fill="#ffffff" stroke="transparent" points="391,-231.7 391,-250.7 427,-250.7 427,-231.7 391,-231.7"/>
<polygon fill="none" stroke="#000000" points="391,-231.7 391,-250.7 427,-250.7 427,-231.7 391,-231.7"/>
<text text-anchor="start" x="417.8862" y="-237.8" font-family="Helvetica,sans-Serif" font-size="11.00" fill="#000000"> &#160;</text>
</a>
</g>
</g>
<!-- user_group_membership&#45;&gt;user_entity -->
<g id="edge5" class="edge">
<title>user_group_membership:w&#45;&gt;user_entity:e</title>
<path fill="none" stroke="#000000" d="M247.5245,-262.8144C217.5707,-277.7927 231.3377,-341.7 188,-341.7"/>
<polygon fill="#000000" stroke="#000000" points="254.179,-261.3827 262.7572,-263.2195 258.0895,-260.5414 262,-259.7 262,-259.7 262,-259.7 258.0895,-260.5414 261.2428,-256.1805 254.179,-261.3827 254.179,-261.3827"/>
<ellipse fill="none" stroke="#000000" cx="251.0505" cy="-262.0558" rx="3.2" ry="3.2"/>
</g>
<!-- user_required_action -->
<g id="node7" class="node">
<title>user_required_action</title>
<g id="a_node7"><a xlink:href="../../tables/user_required_action.html" xlink:title="user_required_action" target="_top">
<polygon fill="#ffffff" stroke="transparent" points="237,-120.7 237,-210.7 451,-210.7 451,-120.7 237,-120.7"/>
<polygon fill="#f5f5f5" stroke="transparent" points="239,-185.7 239,-208.7 449,-208.7 449,-185.7 239,-185.7"/>
<polygon fill="none" stroke="#000000" points="239,-185.7 239,-208.7 449,-208.7 449,-185.7 239,-185.7"/>
<text text-anchor="start" x="244" y="-194.8" font-family="Helvetica,sans-Serif" font-weight="bold" font-size="11.00" fill="#000000">user_required_action</text>
<text text-anchor="start" x="414.0437" y="-193.8" font-family="Helvetica,sans-Serif" font-size="11.00" fill="#000000">[table]</text>
<polygon fill="none" stroke="#000000" points="239,-163.7 239,-185.7 382,-185.7 382,-163.7 239,-163.7"/>
<image xlink:href="../../images/primaryKeys.png" width="11px" height="12px" preserveAspectRatio="xMinYMin meet" x="244" y="-180.7"/>
<text text-anchor="start" x="259" y="-170.8" font-family="Helvetica,sans-Serif" font-size="11.00" fill="#000000">user_id</text>
<polygon fill="none" stroke="#000000" points="382,-163.7 382,-185.7 449,-185.7 449,-163.7 382,-163.7"/>
<text text-anchor="start" x="385" y="-171.4" font-family="Helvetica,sans-Serif" font-size="11.00" fill="#000000">varchar[36]</text>
<polygon fill="none" stroke="#000000" points="239,-141.7 239,-163.7 382,-163.7 382,-141.7 239,-141.7"/>
<image xlink:href="../../images/primaryKeys.png" width="11px" height="12px" preserveAspectRatio="xMinYMin meet" x="244" y="-158.7"/>
<text text-anchor="start" x="259" y="-148.8" font-family="Helvetica,sans-Serif" font-size="11.00" fill="#000000">required_action</text>
<polygon fill="none" stroke="#000000" points="382,-141.7 382,-163.7 449,-163.7 449,-141.7 382,-141.7"/>
<text text-anchor="start" x="384.9365" y="-149.4" font-family="Helvetica,sans-Serif" font-size="11.00" fill="#000000">varchar[255]</text>
<polygon fill="#ffffff" stroke="transparent" points="239,-122.7 239,-141.7 302,-141.7 302,-122.7 239,-122.7"/>
<polygon fill="none" stroke="#000000" points="239,-122.7 239,-141.7 302,-141.7 302,-122.7 239,-122.7"/>
<text text-anchor="start" x="242" y="-128.8" font-family="Helvetica,sans-Serif" font-size="11.00" fill="#000000">&lt; 1</text>
<polygon fill="#ffffff" stroke="transparent" points="302,-122.7 302,-141.7 382,-141.7 382,-122.7 302,-122.7"/>
<polygon fill="none" stroke="#000000" points="302,-122.7 302,-141.7 382,-141.7 382,-122.7 302,-122.7"/>
<text text-anchor="start" x="346.6105" y="-128.8" font-family="Helvetica,sans-Serif" font-size="11.00" fill="#000000">0 rows</text>
<polygon fill="#ffffff" stroke="transparent" points="382,-122.7 382,-141.7 449,-141.7 449,-122.7 382,-122.7"/>
<polygon fill="none" stroke="#000000" points="382,-122.7 382,-141.7 449,-141.7 449,-122.7 382,-122.7"/>
<text text-anchor="start" x="430.4053" y="-128.8" font-family="Helvetica,sans-Serif" font-size="11.00" fill="#000000">0 &gt;</text>
<polygon fill="none" stroke="#000000" stroke-width="2" points="238,-121.7 238,-209.7 450,-209.7 450,-121.7 238,-121.7"/>
</a>
</g>
</g>
<!-- user_required_action&#45;&gt;user_entity -->
<g id="edge6" class="edge">
<title>user_required_action:w&#45;&gt;user_entity:e</title>
<path fill="none" stroke="#000000" d="M224.5764,-177.3232C175.8613,-198.5692 259.8463,-341.7 188,-341.7"/>
<polygon fill="#000000" stroke="#000000" points="231.1291,-176.1315 239.6442,-178.2419 235.0646,-175.4158 239,-174.7 239,-174.7 239,-174.7 235.0646,-175.4158 238.3558,-171.1581 231.1291,-176.1315 231.1291,-176.1315"/>
<ellipse fill="none" stroke="#000000" cx="227.9808" cy="-176.7041" rx="3.2" ry="3.2"/>
</g>
<!-- user_role_mapping -->
<g id="node8" class="node">
<title>user_role_mapping</title>
<g id="a_node8"><a xlink:href="../../tables/user_role_mapping.html" xlink:title="user_role_mapping" target="_top">
<polygon fill="#ffffff" stroke="transparent" points="275.5,-38.2 275.5,-99.2 412.5,-99.2 412.5,-38.2 275.5,-38.2"/>
<polygon fill="#f5f5f5" stroke="transparent" points="276,-75.7 276,-98.7 413,-98.7 413,-75.7 276,-75.7"/>
<polygon fill="none" stroke="#000000" points="276,-75.7 276,-98.7 413,-98.7 413,-75.7 276,-75.7"/>
<text text-anchor="start" x="280.9343" y="-84.8" font-family="Helvetica,sans-Serif" font-weight="bold" font-size="11.00" fill="#000000">user_role_mapping</text>
<text text-anchor="start" x="378.5219" y="-83.8" font-family="Helvetica,sans-Serif" font-size="11.00" fill="#000000">[table]</text>
<polygon fill="none" stroke="#000000" points="276,-56.7 276,-75.7 413,-75.7 413,-56.7 276,-56.7"/>
<text text-anchor="start" x="279" y="-62.8" font-family="Helvetica,sans-Serif" font-size="11.00" fill="#000000">...</text>
<polygon fill="#ffffff" stroke="transparent" points="276,-37.7 276,-56.7 330,-56.7 330,-37.7 276,-37.7"/>
<polygon fill="none" stroke="#000000" points="276,-37.7 276,-56.7 330,-56.7 330,-37.7 276,-37.7"/>
<text text-anchor="start" x="279" y="-43.8" font-family="Helvetica,sans-Serif" font-size="11.00" fill="#000000">&lt; 1</text>
<polygon fill="#ffffff" stroke="transparent" points="330,-37.7 330,-56.7 384,-56.7 384,-37.7 330,-37.7"/>
<polygon fill="none" stroke="#000000" points="330,-37.7 330,-56.7 384,-56.7 384,-37.7 330,-37.7"/>
<text text-anchor="start" x="348.6105" y="-43.8" font-family="Helvetica,sans-Serif" font-size="11.00" fill="#000000">5 rows</text>
<polygon fill="#ffffff" stroke="transparent" points="384,-37.7 384,-56.7 413,-56.7 413,-37.7 384,-37.7"/>
<polygon fill="none" stroke="#000000" points="384,-37.7 384,-56.7 413,-56.7 413,-37.7 384,-37.7"/>
<text text-anchor="start" x="403.8862" y="-43.8" font-family="Helvetica,sans-Serif" font-size="11.00" fill="#000000"> &#160;</text>
</a>
</g>
</g>
<!-- user_role_mapping&#45;&gt;user_entity -->
<g id="edge7" class="edge">
<title>user_role_mapping:w&#45;&gt;user_entity:e</title>
<path fill="none" stroke="#000000" d="M261.606,-67.8312C244.9968,-73.5468 239.9807,-90.1823 229,-110.7 204.3994,-156.6667 240.1356,-341.7 188,-341.7"/>
<polygon fill="#000000" stroke="#000000" points="268.0863,-66.8718 276.5273,-69.2612 272.0431,-66.2859 276,-65.7 276,-65.7 276,-65.7 272.0431,-66.2859 275.4727,-62.1388 268.0863,-66.8718 268.0863,-66.8718"/>
<ellipse fill="none" stroke="#000000" cx="264.9208" cy="-67.3405" rx="3.2" ry="3.2"/>
</g>
</g>
</svg>
