<?xml version="1.0" encoding="UTF-8" standalone="no"?>
<!DOCTYPE svg PUBLIC "-//W3C//DTD SVG 1.1//EN"
 "http://www.w3.org/Graphics/SVG/1.1/DTD/svg11.dtd">
<!-- Generated by graphviz version 2.40.1 (20161225.0304)
 -->
<!-- Title: twoDegreesRelationshipsDiagram Pages: 1 -->
<svg width="612pt" height="245pt"
 viewBox="0.00 0.00 612.00 244.70" xmlns="http://www.w3.org/2000/svg" xmlns:xlink="http://www.w3.org/1999/xlink">
<g id="graph0" class="graph" transform="scale(1 1) rotate(0) translate(4 240.7)">
<title>twoDegreesRelationshipsDiagram</title>
<polygon fill="#ffffff" stroke="transparent" points="-4,4 -4,-240.7 608,-240.7 608,4 -4,4"/>
<text text-anchor="middle" x="72.4936" y="-7.3" font-family="Helvetica,sans-Serif" font-size="11.00" fill="#000000">Generated by SchemaSpy</text>
<!-- user_federation_config -->
<g id="node1" class="node">
<title>user_federation_config</title>
<g id="a_node1"><a xlink:href="../../tables/user_federation_config.html" xlink:title="user_federation_config" target="_top">
<polygon fill="#ffffff" stroke="transparent" points="342,-120.7 342,-232.7 596,-232.7 596,-120.7 342,-120.7"/>
<polygon fill="#f5f5f5" stroke="transparent" points="344,-207.7 344,-230.7 594,-230.7 594,-207.7 344,-207.7"/>
<polygon fill="none" stroke="#000000" points="344,-207.7 344,-230.7 594,-230.7 594,-207.7 344,-207.7"/>
<text text-anchor="start" x="349" y="-216.8" font-family="Helvetica,sans-Serif" font-weight="bold" font-size="11.00" fill="#000000">user_federation_config</text>
<text text-anchor="start" x="559.0437" y="-215.8" font-family="Helvetica,sans-Serif" font-size="11.00" fill="#000000">[table]</text>
<polygon fill="none" stroke="#000000" points="344,-185.7 344,-207.7 527,-207.7 527,-185.7 344,-185.7"/>
<image xlink:href="../../images/primaryKeys.png" width="11px" height="12px" preserveAspectRatio="xMinYMin meet" x="349" y="-202.7"/>
<text text-anchor="start" x="364" y="-192.8" font-family="Helvetica,sans-Serif" font-size="11.00" fill="#000000">user_federation_provider_id</text>
<polygon fill="none" stroke="#000000" points="527,-185.7 527,-207.7 594,-207.7 594,-185.7 527,-185.7"/>
<text text-anchor="start" x="530" y="-193.4" font-family="Helvetica,sans-Serif" font-size="11.00" fill="#000000">varchar[36]</text>
<polygon fill="none" stroke="#000000" points="344,-163.7 344,-185.7 527,-185.7 527,-163.7 344,-163.7"/>
<text text-anchor="start" x="364" y="-170.8" font-family="Helvetica,sans-Serif" font-size="11.00" fill="#000000">value</text>
<polygon fill="none" stroke="#000000" points="527,-163.7 527,-185.7 594,-185.7 594,-163.7 527,-163.7"/>
<text text-anchor="start" x="529.9365" y="-171.4" font-family="Helvetica,sans-Serif" font-size="11.00" fill="#000000">varchar[255]</text>
<polygon fill="none" stroke="#000000" points="344,-141.7 344,-163.7 527,-163.7 527,-141.7 344,-141.7"/>
<image xlink:href="../../images/primaryKeys.png" width="11px" height="12px" preserveAspectRatio="xMinYMin meet" x="349" y="-158.7"/>
<text text-anchor="start" x="364" y="-148.8" font-family="Helvetica,sans-Serif" font-size="11.00" fill="#000000">name</text>
<polygon fill="none" stroke="#000000" points="527,-141.7 527,-163.7 594,-163.7 594,-141.7 527,-141.7"/>
<text text-anchor="start" x="529.9365" y="-149.4" font-family="Helvetica,sans-Serif" font-size="11.00" fill="#000000">varchar[255]</text>
<polygon fill="#ffffff" stroke="transparent" points="344,-122.7 344,-141.7 427,-141.7 427,-122.7 344,-122.7"/>
<polygon fill="none" stroke="#000000" points="344,-122.7 344,-141.7 427,-141.7 427,-122.7 344,-122.7"/>
<text text-anchor="start" x="347" y="-128.8" font-family="Helvetica,sans-Serif" font-size="11.00" fill="#000000">&lt; 1</text>
<polygon fill="#ffffff" stroke="transparent" points="427,-122.7 427,-141.7 527,-141.7 527,-122.7 427,-122.7"/>
<polygon fill="none" stroke="#000000" points="427,-122.7 427,-141.7 527,-141.7 527,-122.7 427,-122.7"/>
<text text-anchor="start" x="491.6105" y="-128.8" font-family="Helvetica,sans-Serif" font-size="11.00" fill="#000000">0 rows</text>
<polygon fill="#ffffff" stroke="transparent" points="527,-122.7 527,-141.7 594,-141.7 594,-122.7 527,-122.7"/>
<polygon fill="none" stroke="#000000" points="527,-122.7 527,-141.7 594,-141.7 594,-122.7 527,-122.7"/>
<text text-anchor="start" x="575.4053" y="-128.8" font-family="Helvetica,sans-Serif" font-size="11.00" fill="#000000">0 &gt;</text>
<polygon fill="none" stroke="#000000" stroke-width="2" points="343,-121.7 343,-231.7 595,-231.7 595,-121.7 343,-121.7"/>
</a>
</g>
</g>
<!-- user_federation_provider -->
<g id="node2" class="node">
<title>user_federation_provider</title>
<g id="a_node2"><a xlink:href="../../tables/user_federation_provider.html" xlink:title="user_federation_provider" target="_top">
<polygon fill="#ffffff" stroke="transparent" points="128,-90.2 128,-195.2 293,-195.2 293,-90.2 128,-90.2"/>
<polygon fill="#f5f5f5" stroke="transparent" points="128.5,-171.7 128.5,-194.7 293.5,-194.7 293.5,-171.7 128.5,-171.7"/>
<polygon fill="none" stroke="#000000" points="128.5,-171.7 128.5,-194.7 293.5,-194.7 293.5,-171.7 128.5,-171.7"/>
<text text-anchor="start" x="133.3741" y="-180.8" font-family="Helvetica,sans-Serif" font-weight="bold" font-size="11.00" fill="#000000">user_federation_provider</text>
<text text-anchor="start" x="259.0219" y="-179.8" font-family="Helvetica,sans-Serif" font-size="11.00" fill="#000000">[table]</text>
<polygon fill="none" stroke="#000000" points="128.5,-149.7 128.5,-171.7 293.5,-171.7 293.5,-149.7 128.5,-149.7"/>
<image xlink:href="../../images/primaryKeys.png" width="11px" height="12px" preserveAspectRatio="xMinYMin meet" x="133.5" y="-166.7"/>
<text text-anchor="start" x="148.5" y="-156.8" font-family="Helvetica,sans-Serif" font-size="11.00" fill="#000000">id</text>
<polygon fill="#ffffff" stroke="transparent" points="128.5,-127.7 128.5,-149.7 293.5,-149.7 293.5,-127.7 128.5,-127.7"/>
<polygon fill="none" stroke="#000000" points="128.5,-127.7 128.5,-149.7 293.5,-149.7 293.5,-127.7 128.5,-127.7"/>
<image xlink:href="../../images/foreignKeys.png" width="11px" height="12px" preserveAspectRatio="xMinYMin meet" x="133.5" y="-144.7"/>
<text text-anchor="start" x="148.5" y="-134.8" font-family="Helvetica,sans-Serif" font-size="11.00" fill="#000000">realm_id</text>
<polygon fill="none" stroke="#000000" points="128.5,-108.7 128.5,-127.7 293.5,-127.7 293.5,-108.7 128.5,-108.7"/>
<text text-anchor="start" x="131.5" y="-114.8" font-family="Helvetica,sans-Serif" font-size="11.00" fill="#000000">...</text>
<polygon fill="#ffffff" stroke="transparent" points="128.5,-89.7 128.5,-108.7 191.5,-108.7 191.5,-89.7 128.5,-89.7"/>
<polygon fill="none" stroke="#000000" points="128.5,-89.7 128.5,-108.7 191.5,-108.7 191.5,-89.7 128.5,-89.7"/>
<text text-anchor="start" x="131.5" y="-95.8" font-family="Helvetica,sans-Serif" font-size="11.00" fill="#000000">&lt; 1</text>
<polygon fill="#ffffff" stroke="transparent" points="191.5,-89.7 191.5,-108.7 250.5,-108.7 250.5,-89.7 191.5,-89.7"/>
<polygon fill="none" stroke="#000000" points="191.5,-89.7 191.5,-108.7 250.5,-108.7 250.5,-89.7 191.5,-89.7"/>
<text text-anchor="start" x="215.1105" y="-95.8" font-family="Helvetica,sans-Serif" font-size="11.00" fill="#000000">0 rows</text>
<polygon fill="#ffffff" stroke="transparent" points="250.5,-89.7 250.5,-108.7 293.5,-108.7 293.5,-89.7 250.5,-89.7"/>
<polygon fill="none" stroke="#000000" points="250.5,-89.7 250.5,-108.7 293.5,-108.7 293.5,-89.7 250.5,-89.7"/>
<text text-anchor="start" x="274.9053" y="-95.8" font-family="Helvetica,sans-Serif" font-size="11.00" fill="#000000">2 &gt;</text>
</a>
</g>
</g>
<!-- user_federation_config&#45;&gt;user_federation_provider -->
<g id="edge1" class="edge">
<title>user_federation_config:w&#45;&gt;user_federation_provider:e</title>
<path fill="none" stroke="#000000" d="M329.8586,-192.2857C316.9204,-182.6727 315.0341,-160.7 293.5,-160.7"/>
<polygon fill="#000000" stroke="#000000" points="336.3634,-194.3162 342.9273,-200.1365 340.1817,-195.5081 344,-196.7 344,-196.7 344,-196.7 340.1817,-195.5081 345.0727,-193.2635 336.3634,-194.3162 336.3634,-194.3162"/>
<ellipse fill="none" stroke="#000000" cx="333.3088" cy="-193.3626" rx="3.2" ry="3.2"/>
</g>
<!-- realm -->
<g id="node4" class="node">
<title>realm</title>
<g id="a_node4"><a xlink:href="../../tables/realm.html" xlink:title="realm" target="_top">
<polygon fill="#ffffff" stroke="transparent" points="8,-74.2 8,-135.2 79,-135.2 79,-74.2 8,-74.2"/>
<polygon fill="#f5f5f5" stroke="transparent" points="8.5,-111.7 8.5,-134.7 79.5,-134.7 79.5,-111.7 8.5,-111.7"/>
<polygon fill="none" stroke="#000000" points="8.5,-111.7 8.5,-134.7 79.5,-134.7 79.5,-111.7 8.5,-111.7"/>
<text text-anchor="start" x="13.5" y="-120.8" font-family="Helvetica,sans-Serif" font-weight="bold" font-size="11.00" fill="#000000">realm</text>
<text text-anchor="start" x="45.0219" y="-119.8" font-family="Helvetica,sans-Serif" font-size="11.00" fill="#000000">[table]</text>
<polygon fill="none" stroke="#000000" points="8.5,-92.7 8.5,-111.7 79.5,-111.7 79.5,-92.7 8.5,-92.7"/>
<text text-anchor="start" x="11.5" y="-98.8" font-family="Helvetica,sans-Serif" font-size="11.00" fill="#000000">...</text>
<polygon fill="#ffffff" stroke="transparent" points="8.5,-73.7 8.5,-92.7 20.5,-92.7 20.5,-73.7 8.5,-73.7"/>
<polygon fill="none" stroke="#000000" points="8.5,-73.7 8.5,-92.7 20.5,-92.7 20.5,-73.7 8.5,-73.7"/>
<text text-anchor="start" x="11.4431" y="-79.8" font-family="Helvetica,sans-Serif" font-size="11.00" fill="#000000"> &#160;</text>
<polygon fill="#ffffff" stroke="transparent" points="20.5,-73.7 20.5,-92.7 52.5,-92.7 52.5,-73.7 20.5,-73.7"/>
<polygon fill="none" stroke="#000000" points="20.5,-73.7 20.5,-92.7 52.5,-92.7 52.5,-73.7 20.5,-73.7"/>
<text text-anchor="start" x="23.0553" y="-79.8" font-family="Helvetica,sans-Serif" font-size="11.00" fill="#000000">1 row</text>
<polygon fill="#ffffff" stroke="transparent" points="52.5,-73.7 52.5,-92.7 79.5,-92.7 79.5,-73.7 52.5,-73.7"/>
<polygon fill="none" stroke="#000000" points="52.5,-73.7 52.5,-92.7 79.5,-92.7 79.5,-73.7 52.5,-73.7"/>
<text text-anchor="start" x="55.1452" y="-79.8" font-family="Helvetica,sans-Serif" font-size="11.00" fill="#000000">23 &gt;</text>
</a>
</g>
</g>
<!-- user_federation_provider&#45;&gt;realm -->
<g id="edge4" class="edge">
<title>user_federation_provider:w&#45;&gt;realm:e</title>
<path fill="none" stroke="#000000" d="M114.6217,-134.1631C102.0786,-124.283 100.8196,-101.7 79.5,-101.7"/>
<polygon fill="#000000" stroke="#000000" points="120.896,-136.2142 127.3814,-142.1218 124.698,-137.4571 128.5,-138.7 128.5,-138.7 128.5,-138.7 124.698,-137.4571 129.6186,-135.2782 120.896,-136.2142 120.896,-136.2142"/>
<ellipse fill="none" stroke="#000000" cx="117.8544" cy="-135.2198" rx="3.2" ry="3.2"/>
</g>
<!-- user_federation_mapper -->
<g id="node3" class="node">
<title>user_federation_mapper</title>
<g id="a_node3"><a xlink:href="../../tables/user_federation_mapper.html" xlink:title="user_federation_mapper" target="_top">
<polygon fill="#ffffff" stroke="transparent" points="388,-38.2 388,-99.2 550,-99.2 550,-38.2 388,-38.2"/>
<polygon fill="#f5f5f5" stroke="transparent" points="388,-75.7 388,-98.7 550,-98.7 550,-75.7 388,-75.7"/>
<polygon fill="none" stroke="#000000" points="388,-75.7 388,-98.7 550,-98.7 550,-75.7 388,-75.7"/>
<text text-anchor="start" x="392.5946" y="-84.8" font-family="Helvetica,sans-Serif" font-weight="bold" font-size="11.00" fill="#000000">user_federation_mapper</text>
<text text-anchor="start" x="515.5219" y="-83.8" font-family="Helvetica,sans-Serif" font-size="11.00" fill="#000000">[table]</text>
<polygon fill="none" stroke="#000000" points="388,-56.7 388,-75.7 550,-75.7 550,-56.7 388,-56.7"/>
<text text-anchor="start" x="391" y="-62.8" font-family="Helvetica,sans-Serif" font-size="11.00" fill="#000000">...</text>
<polygon fill="#ffffff" stroke="transparent" points="388,-37.7 388,-56.7 450,-56.7 450,-37.7 388,-37.7"/>
<polygon fill="none" stroke="#000000" points="388,-37.7 388,-56.7 450,-56.7 450,-37.7 388,-37.7"/>
<text text-anchor="start" x="391" y="-43.8" font-family="Helvetica,sans-Serif" font-size="11.00" fill="#000000">&lt; 2</text>
<polygon fill="#ffffff" stroke="transparent" points="450,-37.7 450,-56.7 508,-56.7 508,-37.7 450,-37.7"/>
<polygon fill="none" stroke="#000000" points="450,-37.7 450,-56.7 508,-56.7 508,-37.7 450,-37.7"/>
<text text-anchor="start" x="472.6105" y="-43.8" font-family="Helvetica,sans-Serif" font-size="11.00" fill="#000000">0 rows</text>
<polygon fill="#ffffff" stroke="transparent" points="508,-37.7 508,-56.7 550,-56.7 550,-37.7 508,-37.7"/>
<polygon fill="none" stroke="#000000" points="508,-37.7 508,-56.7 550,-56.7 550,-37.7 508,-37.7"/>
<text text-anchor="start" x="531.4053" y="-43.8" font-family="Helvetica,sans-Serif" font-size="11.00" fill="#000000">1 &gt;</text>
</a>
</g>
</g>
<!-- user_federation_mapper&#45;&gt;user_federation_provider -->
<g id="edge2" class="edge">
<title>user_federation_mapper:w&#45;&gt;user_federation_provider:e</title>
<path fill="none" stroke="#000000" d="M373.55,-67.8571C355.7453,-74.0384 351.909,-92.5398 334,-110.7 313.9197,-131.062 322.0977,-160.7 293.5,-160.7"/>
<polygon fill="#000000" stroke="#000000" points="380.0877,-66.8812 388.5315,-69.2605 384.0438,-66.2906 388,-65.7 388,-65.7 388,-65.7 384.0438,-66.2906 387.4685,-62.1395 380.0877,-66.8812 380.0877,-66.8812"/>
<ellipse fill="none" stroke="#000000" cx="376.9227" cy="-67.3537" rx="3.2" ry="3.2"/>
</g>
<!-- user_federation_mapper&#45;&gt;realm -->
<g id="edge3" class="edge">
<title>user_federation_mapper:w&#45;&gt;realm:e</title>
<path fill="none" stroke="#000000" d="M373.4135,-65.6079C265.7342,-64.2461 229.9745,-48.6823 120,-79.7 100.2849,-85.2605 99.9843,-101.7 79.5,-101.7"/>
<polygon fill="#000000" stroke="#000000" points="380.0002,-65.6494 387.9772,-69.2999 384.0001,-65.6747 388,-65.7 388,-65.7 388,-65.7 384.0001,-65.6747 388.0228,-62.1001 380.0002,-65.6494 380.0002,-65.6494"/>
<ellipse fill="none" stroke="#000000" cx="376.8002" cy="-65.6292" rx="3.2" ry="3.2"/>
</g>
</g>
</svg>
