<?xml version="1.0" encoding="UTF-8" standalone="no"?>
<!DOCTYPE svg PUBLIC "-//W3C//DTD SVG 1.1//EN"
 "http://www.w3.org/Graphics/SVG/1.1/DTD/svg11.dtd">
<!-- Generated by graphviz version 2.40.1 (20161225.0304)
 -->
<!-- Title: twoDegreesRelationshipsDiagram Pages: 1 -->
<svg width="483pt" height="633pt"
 viewBox="0.00 0.00 483.00 633.20" xmlns="http://www.w3.org/2000/svg" xmlns:xlink="http://www.w3.org/1999/xlink">
<g id="graph0" class="graph" transform="scale(1 1) rotate(0) translate(4 629.2)">
<title>twoDegreesRelationshipsDiagram</title>
<polygon fill="#ffffff" stroke="transparent" points="-4,4 -4,-629.2 479,-629.2 479,4 -4,4"/>
<text text-anchor="middle" x="72.4936" y="-7.3" font-family="Helvetica,sans-Serif" font-size="11.00" fill="#000000">Generated by SchemaSpy</text>
<!-- credential -->
<g id="node1" class="node">
<title>credential</title>
<g id="a_node1"><a xlink:href="../../tables/credential.html" xlink:title="credential" target="_top">
<polygon fill="#ffffff" stroke="transparent" points="307,-560.2 307,-621.2 397,-621.2 397,-560.2 307,-560.2"/>
<polygon fill="#f5f5f5" stroke="transparent" points="307,-597.7 307,-620.7 397,-620.7 397,-597.7 307,-597.7"/>
<polygon fill="none" stroke="#000000" points="307,-597.7 307,-620.7 397,-620.7 397,-597.7 307,-597.7"/>
<text text-anchor="start" x="311.6625" y="-606.8" font-family="Helvetica,sans-Serif" font-weight="bold" font-size="11.00" fill="#000000">credential</text>
<text text-anchor="start" x="362.5219" y="-605.8" font-family="Helvetica,sans-Serif" font-size="11.00" fill="#000000">[table]</text>
<polygon fill="none" stroke="#000000" points="307,-578.7 307,-597.7 397,-597.7 397,-578.7 307,-578.7"/>
<text text-anchor="start" x="310" y="-584.8" font-family="Helvetica,sans-Serif" font-size="11.00" fill="#000000">...</text>
<polygon fill="#ffffff" stroke="transparent" points="307,-559.7 307,-578.7 340,-578.7 340,-559.7 307,-559.7"/>
<polygon fill="none" stroke="#000000" points="307,-559.7 307,-578.7 340,-578.7 340,-559.7 307,-559.7"/>
<text text-anchor="start" x="310" y="-565.8" font-family="Helvetica,sans-Serif" font-size="11.00" fill="#000000">&lt; 1</text>
<polygon fill="#ffffff" stroke="transparent" points="340,-559.7 340,-578.7 378,-578.7 378,-559.7 340,-559.7"/>
<polygon fill="none" stroke="#000000" points="340,-559.7 340,-578.7 378,-578.7 378,-559.7 340,-559.7"/>
<text text-anchor="start" x="348.1105" y="-565.8" font-family="Helvetica,sans-Serif" font-size="11.00" fill="#000000">1 row</text>
<polygon fill="#ffffff" stroke="transparent" points="378,-559.7 378,-578.7 397,-578.7 397,-559.7 378,-559.7"/>
<polygon fill="none" stroke="#000000" points="378,-559.7 378,-578.7 397,-578.7 397,-559.7 378,-559.7"/>
<text text-anchor="start" x="387.8862" y="-565.8" font-family="Helvetica,sans-Serif" font-size="11.00" fill="#000000"> &#160;</text>
</a>
</g>
</g>
<!-- user_entity -->
<g id="node2" class="node">
<title>user_entity</title>
<g id="a_node2"><a xlink:href="../../tables/user_entity.html" xlink:title="user_entity" target="_top">
<polygon fill="#ffffff" stroke="transparent" points="8,-205.2 8,-376.2 188,-376.2 188,-205.2 8,-205.2"/>
<polygon fill="#f5f5f5" stroke="transparent" points="8,-352.7 8,-375.7 188,-375.7 188,-352.7 8,-352.7"/>
<polygon fill="none" stroke="#000000" points="8,-352.7 8,-375.7 188,-375.7 188,-352.7 8,-352.7"/>
<text text-anchor="start" x="13" y="-361.8" font-family="Helvetica,sans-Serif" font-weight="bold" font-size="11.00" fill="#000000">user_entity</text>
<text text-anchor="start" x="153.0437" y="-360.8" font-family="Helvetica,sans-Serif" font-size="11.00" fill="#000000">[table]</text>
<polygon fill="none" stroke="#000000" points="8,-330.7 8,-352.7 188,-352.7 188,-330.7 8,-330.7"/>
<image xlink:href="../../images/primaryKeys.png" width="11px" height="12px" preserveAspectRatio="xMinYMin meet" x="13" y="-347.7"/>
<text text-anchor="start" x="28" y="-337.8" font-family="Helvetica,sans-Serif" font-size="11.00" fill="#000000">id</text>
<polygon fill="#ffffff" stroke="transparent" points="8,-308.7 8,-330.7 188,-330.7 188,-308.7 8,-308.7"/>
<polygon fill="none" stroke="#000000" points="8,-308.7 8,-330.7 188,-330.7 188,-308.7 8,-308.7"/>
<text text-anchor="start" x="28" y="-315.8" font-family="Helvetica,sans-Serif" font-size="11.00" fill="#000000">email</text>
<polygon fill="#ffffff" stroke="transparent" points="8,-286.7 8,-308.7 188,-308.7 188,-286.7 8,-286.7"/>
<polygon fill="none" stroke="#000000" points="8,-286.7 8,-308.7 188,-308.7 188,-286.7 8,-286.7"/>
<text text-anchor="start" x="28" y="-293.8" font-family="Helvetica,sans-Serif" font-size="11.00" fill="#000000">email_constraint</text>
<polygon fill="#ffffff" stroke="transparent" points="8,-264.7 8,-286.7 188,-286.7 188,-264.7 8,-264.7"/>
<polygon fill="none" stroke="#000000" points="8,-264.7 8,-286.7 188,-286.7 188,-264.7 8,-264.7"/>
<image xlink:href="../../images/foreignKeys.png" width="11px" height="12px" preserveAspectRatio="xMinYMin meet" x="13" y="-281.7"/>
<text text-anchor="start" x="28" y="-271.8" font-family="Helvetica,sans-Serif" font-size="11.00" fill="#000000">realm_id</text>
<polygon fill="#ffffff" stroke="transparent" points="8,-242.7 8,-264.7 188,-264.7 188,-242.7 8,-242.7"/>
<polygon fill="none" stroke="#000000" points="8,-242.7 8,-264.7 188,-264.7 188,-242.7 8,-242.7"/>
<text text-anchor="start" x="28" y="-249.8" font-family="Helvetica,sans-Serif" font-size="11.00" fill="#000000">username</text>
<polygon fill="none" stroke="#000000" points="8,-223.7 8,-242.7 188,-242.7 188,-223.7 8,-223.7"/>
<text text-anchor="start" x="11" y="-229.8" font-family="Helvetica,sans-Serif" font-size="11.00" fill="#000000">...</text>
<polygon fill="#ffffff" stroke="transparent" points="8,-204.7 8,-223.7 77,-223.7 77,-204.7 8,-204.7"/>
<polygon fill="none" stroke="#000000" points="8,-204.7 8,-223.7 77,-223.7 77,-204.7 8,-204.7"/>
<text text-anchor="start" x="11" y="-210.8" font-family="Helvetica,sans-Serif" font-size="11.00" fill="#000000"> &#160;</text>
<polygon fill="#ffffff" stroke="transparent" points="77,-204.7 77,-223.7 138,-223.7 138,-204.7 77,-204.7"/>
<polygon fill="none" stroke="#000000" points="77,-204.7 77,-223.7 138,-223.7 138,-204.7 77,-204.7"/>
<text text-anchor="start" x="108.1105" y="-210.8" font-family="Helvetica,sans-Serif" font-size="11.00" fill="#000000">1 row</text>
<polygon fill="#ffffff" stroke="transparent" points="138,-204.7 138,-223.7 188,-223.7 188,-204.7 138,-204.7"/>
<polygon fill="none" stroke="#000000" points="138,-204.7 138,-223.7 188,-223.7 188,-204.7 138,-204.7"/>
<text text-anchor="start" x="169.4053" y="-210.8" font-family="Helvetica,sans-Serif" font-size="11.00" fill="#000000">7 &gt;</text>
</a>
</g>
</g>
<!-- credential&#45;&gt;user_entity -->
<g id="edge1" class="edge">
<title>credential:w&#45;&gt;user_entity:e</title>
<path fill="none" stroke="#000000" d="M292.3762,-587.2426C263.944,-585.2327 249.3061,-576.0792 229,-549.7 171.5254,-475.0361 282.2233,-341.7 188,-341.7"/>
<polygon fill="#000000" stroke="#000000" points="299.0039,-587.4498 306.8874,-591.2982 303.002,-587.5749 307,-587.7 307,-587.7 307,-587.7 303.002,-587.5749 307.1126,-584.1018 299.0039,-587.4498 299.0039,-587.4498"/>
<ellipse fill="none" stroke="#000000" cx="295.8055" cy="-587.3498" rx="3.2" ry="3.2"/>
</g>
<!-- federated_identity -->
<g id="node3" class="node">
<title>federated_identity</title>
<g id="a_node3"><a xlink:href="../../tables/federated_identity.html" xlink:title="federated_identity" target="_top">
<polygon fill="#ffffff" stroke="transparent" points="287,-478.2 287,-539.2 417,-539.2 417,-478.2 287,-478.2"/>
<polygon fill="#f5f5f5" stroke="transparent" points="287,-515.7 287,-538.7 417,-538.7 417,-515.7 287,-515.7"/>
<polygon fill="none" stroke="#000000" points="287,-515.7 287,-538.7 417,-538.7 417,-515.7 287,-515.7"/>
<text text-anchor="start" x="291.7899" y="-524.8" font-family="Helvetica,sans-Serif" font-weight="bold" font-size="11.00" fill="#000000">federated_identity</text>
<text text-anchor="start" x="382.5219" y="-523.8" font-family="Helvetica,sans-Serif" font-size="11.00" fill="#000000">[table]</text>
<polygon fill="none" stroke="#000000" points="287,-496.7 287,-515.7 417,-515.7 417,-496.7 287,-496.7"/>
<text text-anchor="start" x="290" y="-502.8" font-family="Helvetica,sans-Serif" font-size="11.00" fill="#000000">...</text>
<polygon fill="#ffffff" stroke="transparent" points="287,-477.7 287,-496.7 337,-496.7 337,-477.7 287,-477.7"/>
<polygon fill="none" stroke="#000000" points="287,-477.7 287,-496.7 337,-496.7 337,-477.7 287,-477.7"/>
<text text-anchor="start" x="290" y="-483.8" font-family="Helvetica,sans-Serif" font-size="11.00" fill="#000000">&lt; 1</text>
<polygon fill="#ffffff" stroke="transparent" points="337,-477.7 337,-496.7 390,-496.7 390,-477.7 337,-477.7"/>
<polygon fill="none" stroke="#000000" points="337,-477.7 337,-496.7 390,-496.7 390,-477.7 337,-477.7"/>
<text text-anchor="start" x="354.6105" y="-483.8" font-family="Helvetica,sans-Serif" font-size="11.00" fill="#000000">0 rows</text>
<polygon fill="#ffffff" stroke="transparent" points="390,-477.7 390,-496.7 417,-496.7 417,-477.7 390,-477.7"/>
<polygon fill="none" stroke="#000000" points="390,-477.7 390,-496.7 417,-496.7 417,-477.7 390,-477.7"/>
<text text-anchor="start" x="407.8862" y="-483.8" font-family="Helvetica,sans-Serif" font-size="11.00" fill="#000000"> &#160;</text>
</a>
</g>
</g>
<!-- federated_identity&#45;&gt;user_entity -->
<g id="edge2" class="edge">
<title>federated_identity:w&#45;&gt;user_entity:e</title>
<path fill="none" stroke="#000000" d="M272.6434,-504.4609C252.8893,-500.6091 244.4264,-487.8795 229,-467.7 193.2344,-420.9146 246.8901,-341.7 188,-341.7"/>
<polygon fill="#000000" stroke="#000000" points="279.0296,-505.012 286.6904,-509.2867 283.0148,-505.356 287,-505.7 287,-505.7 287,-505.7 283.0148,-505.356 287.3096,-502.1133 279.0296,-505.012 279.0296,-505.012"/>
<ellipse fill="none" stroke="#000000" cx="275.8415" cy="-504.7368" rx="3.2" ry="3.2"/>
</g>
<!-- user_attribute -->
<g id="node4" class="node">
<title>user_attribute</title>
<g id="a_node4"><a xlink:href="../../tables/user_attribute.html" xlink:title="user_attribute" target="_top">
<polygon fill="#ffffff" stroke="transparent" points="297,-396.2 297,-457.2 407,-457.2 407,-396.2 297,-396.2"/>
<polygon fill="#f5f5f5" stroke="transparent" points="297,-433.7 297,-456.7 407,-456.7 407,-433.7 297,-433.7"/>
<polygon fill="none" stroke="#000000" points="297,-433.7 297,-456.7 407,-456.7 407,-433.7 297,-433.7"/>
<text text-anchor="start" x="301.8802" y="-442.8" font-family="Helvetica,sans-Serif" font-weight="bold" font-size="11.00" fill="#000000">user_attribute</text>
<text text-anchor="start" x="372.5219" y="-441.8" font-family="Helvetica,sans-Serif" font-size="11.00" fill="#000000">[table]</text>
<polygon fill="none" stroke="#000000" points="297,-414.7 297,-433.7 407,-433.7 407,-414.7 297,-414.7"/>
<text text-anchor="start" x="300" y="-420.8" font-family="Helvetica,sans-Serif" font-size="11.00" fill="#000000">...</text>
<polygon fill="#ffffff" stroke="transparent" points="297,-395.7 297,-414.7 337,-414.7 337,-395.7 297,-395.7"/>
<polygon fill="none" stroke="#000000" points="297,-395.7 297,-414.7 337,-414.7 337,-395.7 297,-395.7"/>
<text text-anchor="start" x="300" y="-401.8" font-family="Helvetica,sans-Serif" font-size="11.00" fill="#000000">&lt; 1</text>
<polygon fill="#ffffff" stroke="transparent" points="337,-395.7 337,-414.7 385,-414.7 385,-395.7 337,-395.7"/>
<polygon fill="none" stroke="#000000" points="337,-395.7 337,-414.7 385,-414.7 385,-395.7 337,-395.7"/>
<text text-anchor="start" x="349.6105" y="-401.8" font-family="Helvetica,sans-Serif" font-size="11.00" fill="#000000">0 rows</text>
<polygon fill="#ffffff" stroke="transparent" points="385,-395.7 385,-414.7 407,-414.7 407,-395.7 385,-395.7"/>
<polygon fill="none" stroke="#000000" points="385,-395.7 385,-414.7 407,-414.7 407,-395.7 385,-395.7"/>
<text text-anchor="start" x="397.8862" y="-401.8" font-family="Helvetica,sans-Serif" font-size="11.00" fill="#000000"> &#160;</text>
</a>
</g>
</g>
<!-- user_attribute&#45;&gt;user_entity -->
<g id="edge3" class="edge">
<title>user_attribute:w&#45;&gt;user_entity:e</title>
<path fill="none" stroke="#000000" d="M282.3537,-422.469C259.8716,-418.2508 251.8782,-403.6449 229,-385.7 207.9683,-369.2034 214.7296,-341.7 188,-341.7"/>
<polygon fill="#000000" stroke="#000000" points="289.0281,-423.0299 296.6985,-427.2874 293.0141,-423.365 297,-423.7 297,-423.7 297,-423.7 293.0141,-423.365 297.3015,-420.1126 289.0281,-423.0299 289.0281,-423.0299"/>
<ellipse fill="none" stroke="#000000" cx="285.8394" cy="-422.7619" rx="3.2" ry="3.2"/>
</g>
<!-- user_consent -->
<g id="node5" class="node">
<title>user_consent</title>
<g id="a_node5"><a xlink:href="../../tables/user_consent.html" xlink:title="user_consent" target="_top">
<polygon fill="#ffffff" stroke="transparent" points="297.5,-314.2 297.5,-375.2 406.5,-375.2 406.5,-314.2 297.5,-314.2"/>
<polygon fill="#f5f5f5" stroke="transparent" points="298,-351.7 298,-374.7 407,-374.7 407,-351.7 298,-351.7"/>
<polygon fill="none" stroke="#000000" points="298,-351.7 298,-374.7 407,-374.7 407,-351.7 298,-351.7"/>
<text text-anchor="start" x="302.9885" y="-360.8" font-family="Helvetica,sans-Serif" font-weight="bold" font-size="11.00" fill="#000000">user_consent</text>
<text text-anchor="start" x="372.5219" y="-359.8" font-family="Helvetica,sans-Serif" font-size="11.00" fill="#000000">[table]</text>
<polygon fill="none" stroke="#000000" points="298,-332.7 298,-351.7 407,-351.7 407,-332.7 298,-332.7"/>
<text text-anchor="start" x="301" y="-338.8" font-family="Helvetica,sans-Serif" font-size="11.00" fill="#000000">...</text>
<polygon fill="#ffffff" stroke="transparent" points="298,-313.7 298,-332.7 333,-332.7 333,-313.7 298,-313.7"/>
<polygon fill="none" stroke="#000000" points="298,-313.7 298,-332.7 333,-332.7 333,-313.7 298,-313.7"/>
<text text-anchor="start" x="301" y="-319.8" font-family="Helvetica,sans-Serif" font-size="11.00" fill="#000000">&lt; 1</text>
<polygon fill="#ffffff" stroke="transparent" points="333,-313.7 333,-332.7 378,-332.7 378,-313.7 333,-313.7"/>
<polygon fill="none" stroke="#000000" points="333,-313.7 333,-332.7 378,-332.7 378,-313.7 333,-313.7"/>
<text text-anchor="start" x="342.6105" y="-319.8" font-family="Helvetica,sans-Serif" font-size="11.00" fill="#000000">0 rows</text>
<polygon fill="#ffffff" stroke="transparent" points="378,-313.7 378,-332.7 407,-332.7 407,-313.7 378,-313.7"/>
<polygon fill="none" stroke="#000000" points="378,-313.7 378,-332.7 407,-332.7 407,-313.7 378,-313.7"/>
<text text-anchor="start" x="388.4053" y="-319.8" font-family="Helvetica,sans-Serif" font-size="11.00" fill="#000000">1 &gt;</text>
</a>
</g>
</g>
<!-- user_consent&#45;&gt;user_entity -->
<g id="edge4" class="edge">
<title>user_consent:w&#45;&gt;user_entity:e</title>
<path fill="none" stroke="#000000" d="M283.1783,-341.7C245.9989,-341.7 231.5417,-341.7 188,-341.7"/>
<polygon fill="#000000" stroke="#000000" points="290,-341.7001 298,-345.3 294,-341.7 298,-341.7 298,-341.7 298,-341.7 294,-341.7 298,-338.1 290,-341.7001 290,-341.7001"/>
<ellipse fill="none" stroke="#000000" cx="286.8" cy="-341.7001" rx="3.2" ry="3.2"/>
</g>
<!-- user_group_membership -->
<g id="node6" class="node">
<title>user_group_membership</title>
<g id="a_node6"><a xlink:href="../../tables/user_group_membership.html" xlink:title="user_group_membership" target="_top">
<polygon fill="#ffffff" stroke="transparent" points="237,-202.7 237,-292.7 467,-292.7 467,-202.7 237,-202.7"/>
<polygon fill="#f5f5f5" stroke="transparent" points="239,-267.7 239,-290.7 465,-290.7 465,-267.7 239,-267.7"/>
<polygon fill="none" stroke="#000000" points="239,-267.7 239,-290.7 465,-290.7 465,-267.7 239,-267.7"/>
<text text-anchor="start" x="244" y="-276.8" font-family="Helvetica,sans-Serif" font-weight="bold" font-size="11.00" fill="#000000">user_group_membership</text>
<text text-anchor="start" x="430.0437" y="-275.8" font-family="Helvetica,sans-Serif" font-size="11.00" fill="#000000">[table]</text>
<polygon fill="none" stroke="#000000" points="239,-245.7 239,-267.7 404,-267.7 404,-245.7 239,-245.7"/>
<image xlink:href="../../images/primaryKeys.png" width="11px" height="12px" preserveAspectRatio="xMinYMin meet" x="244" y="-262.7"/>
<text text-anchor="start" x="259" y="-252.8" font-family="Helvetica,sans-Serif" font-size="11.00" fill="#000000">group_id</text>
<polygon fill="none" stroke="#000000" points="404,-245.7 404,-267.7 465,-267.7 465,-245.7 404,-245.7"/>
<text text-anchor="start" x="406.994" y="-253.4" font-family="Helvetica,sans-Serif" font-size="11.00" fill="#000000">varchar[36]</text>
<polygon fill="none" stroke="#000000" points="239,-223.7 239,-245.7 404,-245.7 404,-223.7 239,-223.7"/>
<image xlink:href="../../images/primaryKeys.png" width="11px" height="12px" preserveAspectRatio="xMinYMin meet" x="244" y="-240.7"/>
<text text-anchor="start" x="259" y="-230.8" font-family="Helvetica,sans-Serif" font-size="11.00" fill="#000000">user_id</text>
<polygon fill="none" stroke="#000000" points="404,-223.7 404,-245.7 465,-245.7 465,-223.7 404,-223.7"/>
<text text-anchor="start" x="406.994" y="-231.4" font-family="Helvetica,sans-Serif" font-size="11.00" fill="#000000">varchar[36]</text>
<polygon fill="#ffffff" stroke="transparent" points="239,-204.7 239,-223.7 313,-223.7 313,-204.7 239,-204.7"/>
<polygon fill="none" stroke="#000000" points="239,-204.7 239,-223.7 313,-223.7 313,-204.7 239,-204.7"/>
<text text-anchor="start" x="242" y="-210.8" font-family="Helvetica,sans-Serif" font-size="11.00" fill="#000000">&lt; 1</text>
<polygon fill="#ffffff" stroke="transparent" points="313,-204.7 313,-223.7 404,-223.7 404,-204.7 313,-204.7"/>
<polygon fill="none" stroke="#000000" points="313,-204.7 313,-223.7 404,-223.7 404,-204.7 313,-204.7"/>
<text text-anchor="start" x="368.6105" y="-210.8" font-family="Helvetica,sans-Serif" font-size="11.00" fill="#000000">0 rows</text>
<polygon fill="#ffffff" stroke="transparent" points="404,-204.7 404,-223.7 465,-223.7 465,-204.7 404,-204.7"/>
<polygon fill="none" stroke="#000000" points="404,-204.7 404,-223.7 465,-223.7 465,-204.7 404,-204.7"/>
<text text-anchor="start" x="446.4053" y="-210.8" font-family="Helvetica,sans-Serif" font-size="11.00" fill="#000000">0 &gt;</text>
<polygon fill="none" stroke="#000000" stroke-width="2" points="238,-203.7 238,-291.7 466,-291.7 466,-203.7 238,-203.7"/>
</a>
</g>
</g>
<!-- user_group_membership&#45;&gt;user_entity -->
<g id="edge5" class="edge">
<title>user_group_membership:w&#45;&gt;user_entity:e</title>
<path fill="none" stroke="#000000" d="M224.9064,-238.5082C197.2616,-257.5691 234.7134,-341.7 188,-341.7"/>
<polygon fill="#000000" stroke="#000000" points="231.277,-236.7869 239.9391,-238.1754 235.1385,-235.7434 239,-234.7 239,-234.7 239,-234.7 235.1385,-235.7434 238.0609,-231.2246 231.277,-236.7869 231.277,-236.7869"/>
<ellipse fill="none" stroke="#000000" cx="228.1878" cy="-237.6216" rx="3.2" ry="3.2"/>
</g>
<!-- user_required_action -->
<g id="node7" class="node">
<title>user_required_action</title>
<g id="a_node7"><a xlink:href="../../tables/user_required_action.html" xlink:title="user_required_action" target="_top">
<polygon fill="#ffffff" stroke="transparent" points="279,-120.2 279,-181.2 425,-181.2 425,-120.2 279,-120.2"/>
<polygon fill="#f5f5f5" stroke="transparent" points="279,-157.7 279,-180.7 425,-180.7 425,-157.7 279,-157.7"/>
<polygon fill="none" stroke="#000000" points="279,-157.7 279,-180.7 425,-180.7 425,-157.7 279,-157.7"/>
<text text-anchor="start" x="283.8484" y="-166.8" font-family="Helvetica,sans-Serif" font-weight="bold" font-size="11.00" fill="#000000">user_required_action</text>
<text text-anchor="start" x="390.5219" y="-165.8" font-family="Helvetica,sans-Serif" font-size="11.00" fill="#000000">[table]</text>
<polygon fill="none" stroke="#000000" points="279,-138.7 279,-157.7 425,-157.7 425,-138.7 279,-138.7"/>
<text text-anchor="start" x="282" y="-144.8" font-family="Helvetica,sans-Serif" font-size="11.00" fill="#000000">...</text>
<polygon fill="#ffffff" stroke="transparent" points="279,-119.7 279,-138.7 337,-138.7 337,-119.7 279,-119.7"/>
<polygon fill="none" stroke="#000000" points="279,-119.7 279,-138.7 337,-138.7 337,-119.7 279,-119.7"/>
<text text-anchor="start" x="282" y="-125.8" font-family="Helvetica,sans-Serif" font-size="11.00" fill="#000000">&lt; 1</text>
<polygon fill="#ffffff" stroke="transparent" points="337,-119.7 337,-138.7 394,-138.7 394,-119.7 337,-119.7"/>
<polygon fill="none" stroke="#000000" points="337,-119.7 337,-138.7 394,-138.7 394,-119.7 337,-119.7"/>
<text text-anchor="start" x="358.6105" y="-125.8" font-family="Helvetica,sans-Serif" font-size="11.00" fill="#000000">0 rows</text>
<polygon fill="#ffffff" stroke="transparent" points="394,-119.7 394,-138.7 425,-138.7 425,-119.7 394,-119.7"/>
<polygon fill="none" stroke="#000000" points="394,-119.7 394,-138.7 425,-138.7 425,-119.7 394,-119.7"/>
<text text-anchor="start" x="415.8862" y="-125.8" font-family="Helvetica,sans-Serif" font-size="11.00" fill="#000000"> &#160;</text>
</a>
</g>
</g>
<!-- user_required_action&#45;&gt;user_entity -->
<g id="edge6" class="edge">
<title>user_required_action:w&#45;&gt;user_entity:e</title>
<path fill="none" stroke="#000000" d="M264.6301,-149.6731C247.0577,-155.2427 241.764,-172.0325 229,-192.7 192.9098,-251.1374 256.6836,-341.7 188,-341.7"/>
<polygon fill="#000000" stroke="#000000" points="271.0744,-148.7883 279.4897,-151.2665 275.0372,-148.2441 279,-147.7 279,-147.7 279,-147.7 275.0372,-148.2441 278.5103,-144.1335 271.0744,-148.7883 271.0744,-148.7883"/>
<ellipse fill="none" stroke="#000000" cx="267.9041" cy="-149.2236" rx="3.2" ry="3.2"/>
</g>
<!-- user_role_mapping -->
<g id="node8" class="node">
<title>user_role_mapping</title>
<g id="a_node8"><a xlink:href="../../tables/user_role_mapping.html" xlink:title="user_role_mapping" target="_top">
<polygon fill="#ffffff" stroke="transparent" points="283.5,-38.2 283.5,-99.2 420.5,-99.2 420.5,-38.2 283.5,-38.2"/>
<polygon fill="#f5f5f5" stroke="transparent" points="284,-75.7 284,-98.7 421,-98.7 421,-75.7 284,-75.7"/>
<polygon fill="none" stroke="#000000" points="284,-75.7 284,-98.7 421,-98.7 421,-75.7 284,-75.7"/>
<text text-anchor="start" x="288.9343" y="-84.8" font-family="Helvetica,sans-Serif" font-weight="bold" font-size="11.00" fill="#000000">user_role_mapping</text>
<text text-anchor="start" x="386.5219" y="-83.8" font-family="Helvetica,sans-Serif" font-size="11.00" fill="#000000">[table]</text>
<polygon fill="none" stroke="#000000" points="284,-56.7 284,-75.7 421,-75.7 421,-56.7 284,-56.7"/>
<text text-anchor="start" x="287" y="-62.8" font-family="Helvetica,sans-Serif" font-size="11.00" fill="#000000">...</text>
<polygon fill="#ffffff" stroke="transparent" points="284,-37.7 284,-56.7 338,-56.7 338,-37.7 284,-37.7"/>
<polygon fill="none" stroke="#000000" points="284,-37.7 284,-56.7 338,-56.7 338,-37.7 284,-37.7"/>
<text text-anchor="start" x="287" y="-43.8" font-family="Helvetica,sans-Serif" font-size="11.00" fill="#000000">&lt; 1</text>
<polygon fill="#ffffff" stroke="transparent" points="338,-37.7 338,-56.7 392,-56.7 392,-37.7 338,-37.7"/>
<polygon fill="none" stroke="#000000" points="338,-37.7 338,-56.7 392,-56.7 392,-37.7 338,-37.7"/>
<text text-anchor="start" x="356.6105" y="-43.8" font-family="Helvetica,sans-Serif" font-size="11.00" fill="#000000">5 rows</text>
<polygon fill="#ffffff" stroke="transparent" points="392,-37.7 392,-56.7 421,-56.7 421,-37.7 392,-37.7"/>
<polygon fill="none" stroke="#000000" points="392,-37.7 392,-56.7 421,-56.7 421,-37.7 392,-37.7"/>
<text text-anchor="start" x="411.8862" y="-43.8" font-family="Helvetica,sans-Serif" font-size="11.00" fill="#000000"> &#160;</text>
</a>
</g>
</g>
<!-- user_role_mapping&#45;&gt;user_entity -->
<g id="edge7" class="edge">
<title>user_role_mapping:w&#45;&gt;user_entity:e</title>
<path fill="none" stroke="#000000" d="M269.505,-67.2438C249.7259,-72.0081 242.1655,-87.5102 229,-109.7 202.2856,-154.7259 240.3544,-341.7 188,-341.7"/>
<polygon fill="#000000" stroke="#000000" points="276.045,-66.5473 284.3813,-69.2798 280.0225,-66.1236 284,-65.7 284,-65.7 284,-65.7 280.0225,-66.1236 283.6187,-62.1202 276.045,-66.5473 276.045,-66.5473"/>
<ellipse fill="none" stroke="#000000" cx="272.863" cy="-66.8862" rx="3.2" ry="3.2"/>
</g>
</g>
</svg>
