<?xml version="1.0" encoding="UTF-8" standalone="no"?>
<!DOCTYPE svg PUBLIC "-//W3C//DTD SVG 1.1//EN"
 "http://www.w3.org/Graphics/SVG/1.1/DTD/svg11.dtd">
<!-- Generated by graphviz version 2.40.1 (20161225.0304)
 -->
<!-- Title: twoDegreesRelationshipsDiagramImplied Pages: 1 -->
<svg width="598pt" height="715pt"
 viewBox="0.00 0.00 598.00 714.70" xmlns="http://www.w3.org/2000/svg" xmlns:xlink="http://www.w3.org/1999/xlink">
<g id="graph0" class="graph" transform="scale(1 1) rotate(0) translate(4 710.7)">
<title>twoDegreesRelationshipsDiagramImplied</title>
<polygon fill="#ffffff" stroke="transparent" points="-4,4 -4,-710.7 594,-710.7 594,4 -4,4"/>
<text text-anchor="middle" x="72.4936" y="-7.3" font-family="Helvetica,sans-Serif" font-size="11.00" fill="#000000">Generated by SchemaSpy</text>
<!-- client -->
<g id="node1" class="node">
<title>client</title>
<g id="a_node1"><a xlink:href="../../tables/client.html" xlink:title="client" target="_top">
<polygon fill="#ffffff" stroke="transparent" points="173,-289.7 173,-416.7 368,-416.7 368,-289.7 173,-289.7"/>
<polygon fill="#f5f5f5" stroke="transparent" points="173.5,-393.2 173.5,-416.2 368.5,-416.2 368.5,-393.2 173.5,-393.2"/>
<polygon fill="none" stroke="#000000" points="173.5,-393.2 173.5,-416.2 368.5,-416.2 368.5,-393.2 173.5,-393.2"/>
<text text-anchor="start" x="178.5" y="-402.3" font-family="Helvetica,sans-Serif" font-weight="bold" font-size="11.00" fill="#000000">client</text>
<text text-anchor="start" x="333.5437" y="-401.3" font-family="Helvetica,sans-Serif" font-size="11.00" fill="#000000">[table]</text>
<polygon fill="none" stroke="#000000" points="173.5,-371.2 173.5,-393.2 368.5,-393.2 368.5,-371.2 173.5,-371.2"/>
<image xlink:href="../../images/primaryKeys.png" width="11px" height="12px" preserveAspectRatio="xMinYMin meet" x="178.5" y="-388.2"/>
<text text-anchor="start" x="193.5" y="-378.3" font-family="Helvetica,sans-Serif" font-size="11.00" fill="#000000">id</text>
<polygon fill="#ffffff" stroke="transparent" points="173.5,-349.2 173.5,-371.2 368.5,-371.2 368.5,-349.2 173.5,-349.2"/>
<polygon fill="none" stroke="#000000" points="173.5,-349.2 173.5,-371.2 368.5,-371.2 368.5,-349.2 173.5,-349.2"/>
<image xlink:href="../../images/foreignKeys.png" width="11px" height="12px" preserveAspectRatio="xMinYMin meet" x="178.5" y="-366.2"/>
<text text-anchor="start" x="193.5" y="-356.3" font-family="Helvetica,sans-Serif" font-size="11.00" fill="#000000">client_id</text>
<polygon fill="#ffffff" stroke="transparent" points="173.5,-327.2 173.5,-349.2 368.5,-349.2 368.5,-327.2 173.5,-327.2"/>
<polygon fill="none" stroke="#000000" points="173.5,-327.2 173.5,-349.2 368.5,-349.2 368.5,-327.2 173.5,-327.2"/>
<image xlink:href="../../images/foreignKeys.png" width="11px" height="12px" preserveAspectRatio="xMinYMin meet" x="178.5" y="-344.2"/>
<text text-anchor="start" x="193.5" y="-334.3" font-family="Helvetica,sans-Serif" font-size="11.00" fill="#000000">realm_id</text>
<polygon fill="none" stroke="#000000" points="173.5,-308.2 173.5,-327.2 368.5,-327.2 368.5,-308.2 173.5,-308.2"/>
<text text-anchor="start" x="176.5" y="-314.3" font-family="Helvetica,sans-Serif" font-size="11.00" fill="#000000">...</text>
<polygon fill="#ffffff" stroke="transparent" points="173.5,-289.2 173.5,-308.2 251.5,-308.2 251.5,-289.2 173.5,-289.2"/>
<polygon fill="none" stroke="#000000" points="173.5,-289.2 173.5,-308.2 251.5,-308.2 251.5,-289.2 173.5,-289.2"/>
<text text-anchor="start" x="176.5" y="-295.3" font-family="Helvetica,sans-Serif" font-size="11.00" fill="#000000">&lt; 2</text>
<polygon fill="#ffffff" stroke="transparent" points="251.5,-289.2 251.5,-308.2 318.5,-308.2 318.5,-289.2 251.5,-289.2"/>
<polygon fill="none" stroke="#000000" points="251.5,-289.2 251.5,-308.2 318.5,-308.2 318.5,-289.2 251.5,-289.2"/>
<text text-anchor="start" x="283.1105" y="-295.3" font-family="Helvetica,sans-Serif" font-size="11.00" fill="#000000">6 rows</text>
<polygon fill="#ffffff" stroke="transparent" points="318.5,-289.2 318.5,-308.2 368.5,-308.2 368.5,-289.2 318.5,-289.2"/>
<polygon fill="none" stroke="#000000" points="318.5,-289.2 318.5,-308.2 368.5,-308.2 368.5,-289.2 318.5,-289.2"/>
<text text-anchor="start" x="349.9053" y="-295.3" font-family="Helvetica,sans-Serif" font-size="11.00" fill="#000000">8 &gt;</text>
</a>
</g>
</g>
<!-- federated_user -->
<g id="node2" class="node">
<title>federated_user</title>
<g id="a_node2"><a xlink:href="../../tables/federated_user.html" xlink:title="federated_user" target="_top">
<polygon fill="#ffffff" stroke="transparent" points="8,-362.7 8,-423.7 124,-423.7 124,-362.7 8,-362.7"/>
<polygon fill="#f5f5f5" stroke="transparent" points="8,-400.2 8,-423.2 124,-423.2 124,-400.2 8,-400.2"/>
<polygon fill="none" stroke="#000000" points="8,-400.2 8,-423.2 124,-423.2 124,-400.2 8,-400.2"/>
<text text-anchor="start" x="12.5142" y="-409.3" font-family="Helvetica,sans-Serif" font-weight="bold" font-size="11.00" fill="#000000">federated_user</text>
<text text-anchor="start" x="89.5219" y="-408.3" font-family="Helvetica,sans-Serif" font-size="11.00" fill="#000000">[table]</text>
<polygon fill="none" stroke="#000000" points="8,-381.2 8,-400.2 124,-400.2 124,-381.2 8,-381.2"/>
<text text-anchor="start" x="11" y="-387.3" font-family="Helvetica,sans-Serif" font-size="11.00" fill="#000000">...</text>
<polygon fill="#ffffff" stroke="transparent" points="8,-362.2 8,-381.2 39,-381.2 39,-362.2 8,-362.2"/>
<polygon fill="none" stroke="#000000" points="8,-362.2 8,-381.2 39,-381.2 39,-362.2 8,-362.2"/>
<text text-anchor="start" x="11" y="-368.3" font-family="Helvetica,sans-Serif" font-size="11.00" fill="#000000"> &#160;</text>
<polygon fill="#ffffff" stroke="transparent" points="39,-362.2 39,-381.2 87,-381.2 87,-362.2 39,-362.2"/>
<polygon fill="none" stroke="#000000" points="39,-362.2 39,-381.2 87,-381.2 87,-362.2 39,-362.2"/>
<text text-anchor="start" x="51.6105" y="-368.3" font-family="Helvetica,sans-Serif" font-size="11.00" fill="#000000">0 rows</text>
<polygon fill="#ffffff" stroke="transparent" points="87,-362.2 87,-381.2 124,-381.2 124,-362.2 87,-362.2"/>
<polygon fill="none" stroke="#000000" points="87,-362.2 87,-381.2 124,-381.2 124,-362.2 87,-362.2"/>
<text text-anchor="start" x="99.2904" y="-368.3" font-family="Helvetica,sans-Serif" font-size="11.00" fill="#000000">30 &gt;</text>
</a>
</g>
</g>
<!-- client&#45;&gt;federated_user -->
<g id="edge1" class="edge">
<title>client:w&#45;&gt;federated_user:e</title>
<path fill="none" stroke="#000000" stroke-dasharray="5,2" d="M159.633,-364.122C147.238,-372.2538 143.8967,-390.2 124,-390.2"/>
<polygon fill="#000000" stroke="#000000" points="165.802,-362.3773 174.4798,-363.6641 169.651,-361.2886 173.5,-360.2 173.5,-360.2 173.5,-360.2 169.651,-361.2886 172.5202,-356.7359 165.802,-362.3773 165.802,-362.3773"/>
<ellipse fill="none" stroke="#000000" cx="162.7228" cy="-363.2482" rx="3.2" ry="3.2"/>
</g>
<!-- realm -->
<g id="node3" class="node">
<title>realm</title>
<g id="a_node3"><a xlink:href="../../tables/realm.html" xlink:title="realm" target="_top">
<polygon fill="#ffffff" stroke="transparent" points="30.5,-280.7 30.5,-341.7 101.5,-341.7 101.5,-280.7 30.5,-280.7"/>
<polygon fill="#f5f5f5" stroke="transparent" points="31,-318.2 31,-341.2 102,-341.2 102,-318.2 31,-318.2"/>
<polygon fill="none" stroke="#000000" points="31,-318.2 31,-341.2 102,-341.2 102,-318.2 31,-318.2"/>
<text text-anchor="start" x="36" y="-327.3" font-family="Helvetica,sans-Serif" font-weight="bold" font-size="11.00" fill="#000000">realm</text>
<text text-anchor="start" x="67.5219" y="-326.3" font-family="Helvetica,sans-Serif" font-size="11.00" fill="#000000">[table]</text>
<polygon fill="none" stroke="#000000" points="31,-299.2 31,-318.2 102,-318.2 102,-299.2 31,-299.2"/>
<text text-anchor="start" x="34" y="-305.3" font-family="Helvetica,sans-Serif" font-size="11.00" fill="#000000">...</text>
<polygon fill="#ffffff" stroke="transparent" points="31,-280.2 31,-299.2 43,-299.2 43,-280.2 31,-280.2"/>
<polygon fill="none" stroke="#000000" points="31,-280.2 31,-299.2 43,-299.2 43,-280.2 31,-280.2"/>
<text text-anchor="start" x="33.9431" y="-286.3" font-family="Helvetica,sans-Serif" font-size="11.00" fill="#000000"> &#160;</text>
<polygon fill="#ffffff" stroke="transparent" points="43,-280.2 43,-299.2 75,-299.2 75,-280.2 43,-280.2"/>
<polygon fill="none" stroke="#000000" points="43,-280.2 43,-299.2 75,-299.2 75,-280.2 43,-280.2"/>
<text text-anchor="start" x="45.5553" y="-286.3" font-family="Helvetica,sans-Serif" font-size="11.00" fill="#000000">1 row</text>
<polygon fill="#ffffff" stroke="transparent" points="75,-280.2 75,-299.2 102,-299.2 102,-280.2 75,-280.2"/>
<polygon fill="none" stroke="#000000" points="75,-280.2 75,-299.2 102,-299.2 102,-280.2 75,-280.2"/>
<text text-anchor="start" x="77.6452" y="-286.3" font-family="Helvetica,sans-Serif" font-size="11.00" fill="#000000">23 &gt;</text>
</a>
</g>
</g>
<!-- client&#45;&gt;realm -->
<g id="edge2" class="edge">
<title>client:w&#45;&gt;realm:e</title>
<path fill="none" stroke="#000000" d="M159.1338,-336.138C137.3952,-329.3601 130.9424,-308.2 102,-308.2"/>
<polygon fill="#000000" stroke="#000000" points="165.5812,-337.0633 172.9885,-341.7635 169.5406,-337.6317 173.5,-338.2 173.5,-338.2 173.5,-338.2 169.5406,-337.6317 174.0115,-334.6365 165.5812,-337.0633 165.5812,-337.0633"/>
<ellipse fill="none" stroke="#000000" cx="162.4136" cy="-336.6087" rx="3.2" ry="3.2"/>
</g>
<!-- client_attributes -->
<g id="node4" class="node">
<title>client_attributes</title>
<g id="a_node4"><a xlink:href="../../tables/client_attributes.html" xlink:title="client_attributes" target="_top">
<polygon fill="#ffffff" stroke="transparent" points="439.5,-641.7 439.5,-702.7 559.5,-702.7 559.5,-641.7 439.5,-641.7"/>
<polygon fill="#f5f5f5" stroke="transparent" points="439.5,-679.2 439.5,-702.2 559.5,-702.2 559.5,-679.2 439.5,-679.2"/>
<polygon fill="none" stroke="#000000" points="439.5,-679.2 439.5,-702.2 559.5,-702.2 559.5,-679.2 439.5,-679.2"/>
<text text-anchor="start" x="444.4918" y="-688.3" font-family="Helvetica,sans-Serif" font-weight="bold" font-size="11.00" fill="#000000">client_attributes</text>
<text text-anchor="start" x="525.0219" y="-687.3" font-family="Helvetica,sans-Serif" font-size="11.00" fill="#000000">[table]</text>
<polygon fill="none" stroke="#000000" points="439.5,-660.2 439.5,-679.2 559.5,-679.2 559.5,-660.2 439.5,-660.2"/>
<text text-anchor="start" x="442.5" y="-666.3" font-family="Helvetica,sans-Serif" font-size="11.00" fill="#000000">...</text>
<polygon fill="#ffffff" stroke="transparent" points="439.5,-641.2 439.5,-660.2 484.5,-660.2 484.5,-641.2 439.5,-641.2"/>
<polygon fill="none" stroke="#000000" points="439.5,-641.2 439.5,-660.2 484.5,-660.2 484.5,-641.2 439.5,-641.2"/>
<text text-anchor="start" x="442.5" y="-647.3" font-family="Helvetica,sans-Serif" font-size="11.00" fill="#000000">&lt; 1</text>
<polygon fill="#ffffff" stroke="transparent" points="484.5,-641.2 484.5,-660.2 534.5,-660.2 534.5,-641.2 484.5,-641.2"/>
<polygon fill="none" stroke="#000000" points="484.5,-641.2 484.5,-660.2 534.5,-660.2 534.5,-641.2 484.5,-641.2"/>
<text text-anchor="start" x="499.1105" y="-647.3" font-family="Helvetica,sans-Serif" font-size="11.00" fill="#000000">2 rows</text>
<polygon fill="#ffffff" stroke="transparent" points="534.5,-641.2 534.5,-660.2 559.5,-660.2 559.5,-641.2 534.5,-641.2"/>
<polygon fill="none" stroke="#000000" points="534.5,-641.2 534.5,-660.2 559.5,-660.2 559.5,-641.2 534.5,-641.2"/>
<text text-anchor="start" x="550.3862" y="-647.3" font-family="Helvetica,sans-Serif" font-size="11.00" fill="#000000"> &#160;</text>
</a>
</g>
</g>
<!-- client_attributes&#45;&gt;client -->
<g id="edge3" class="edge">
<title>client_attributes:w&#45;&gt;client:e</title>
<path fill="none" stroke="#000000" d="M425.4053,-665.036C417.0896,-658.5381 415.2609,-645.2656 409,-631.2 386.2027,-579.9842 424.5605,-382.2 368.5,-382.2"/>
<polygon fill="#000000" stroke="#000000" points="431.8278,-666.9334 438.48,-672.6525 435.6639,-668.0667 439.5,-669.2 439.5,-669.2 439.5,-669.2 435.6639,-668.0667 440.52,-665.7475 431.8278,-666.9334 431.8278,-666.9334"/>
<ellipse fill="none" stroke="#000000" cx="428.7589" cy="-666.0267" rx="3.2" ry="3.2"/>
</g>
<!-- client_default_roles -->
<g id="node5" class="node">
<title>client_default_roles</title>
<g id="a_node5"><a xlink:href="../../tables/client_default_roles.html" xlink:title="client_default_roles" target="_top">
<polygon fill="#ffffff" stroke="transparent" points="431,-559.7 431,-620.7 568,-620.7 568,-559.7 431,-559.7"/>
<polygon fill="#f5f5f5" stroke="transparent" points="431.5,-597.2 431.5,-620.2 568.5,-620.2 568.5,-597.2 431.5,-597.2"/>
<polygon fill="none" stroke="#000000" points="431.5,-597.2 431.5,-620.2 568.5,-620.2 568.5,-597.2 431.5,-597.2"/>
<text text-anchor="start" x="436.1274" y="-606.3" font-family="Helvetica,sans-Serif" font-weight="bold" font-size="11.00" fill="#000000">client_default_roles</text>
<text text-anchor="start" x="534.0219" y="-605.3" font-family="Helvetica,sans-Serif" font-size="11.00" fill="#000000">[table]</text>
<polygon fill="none" stroke="#000000" points="431.5,-578.2 431.5,-597.2 568.5,-597.2 568.5,-578.2 431.5,-578.2"/>
<text text-anchor="start" x="434.5" y="-584.3" font-family="Helvetica,sans-Serif" font-size="11.00" fill="#000000">...</text>
<polygon fill="#ffffff" stroke="transparent" points="431.5,-559.2 431.5,-578.2 485.5,-578.2 485.5,-559.2 431.5,-559.2"/>
<polygon fill="none" stroke="#000000" points="431.5,-559.2 431.5,-578.2 485.5,-578.2 485.5,-559.2 431.5,-559.2"/>
<text text-anchor="start" x="434.5" y="-565.3" font-family="Helvetica,sans-Serif" font-size="11.00" fill="#000000">&lt; 1</text>
<polygon fill="#ffffff" stroke="transparent" points="485.5,-559.2 485.5,-578.2 539.5,-578.2 539.5,-559.2 485.5,-559.2"/>
<polygon fill="none" stroke="#000000" points="485.5,-559.2 485.5,-578.2 539.5,-578.2 539.5,-559.2 485.5,-559.2"/>
<text text-anchor="start" x="504.1105" y="-565.3" font-family="Helvetica,sans-Serif" font-size="11.00" fill="#000000">2 rows</text>
<polygon fill="#ffffff" stroke="transparent" points="539.5,-559.2 539.5,-578.2 568.5,-578.2 568.5,-559.2 539.5,-559.2"/>
<polygon fill="none" stroke="#000000" points="539.5,-559.2 539.5,-578.2 568.5,-578.2 568.5,-559.2 539.5,-559.2"/>
<text text-anchor="start" x="559.3862" y="-565.3" font-family="Helvetica,sans-Serif" font-size="11.00" fill="#000000"> &#160;</text>
</a>
</g>
</g>
<!-- client_default_roles&#45;&gt;client -->
<g id="edge4" class="edge">
<title>client_default_roles:w&#45;&gt;client:e</title>
<path fill="none" stroke="#000000" d="M416.9518,-585.171C350.3751,-563.8804 458.2315,-382.2 368.5,-382.2"/>
<polygon fill="#000000" stroke="#000000" points="423.5767,-586.0949 431.0027,-590.7655 427.5383,-586.6475 431.5,-587.2 431.5,-587.2 431.5,-587.2 427.5383,-586.6475 431.9973,-583.6345 423.5767,-586.0949 423.5767,-586.0949"/>
<ellipse fill="none" stroke="#000000" cx="420.4074" cy="-585.6529" rx="3.2" ry="3.2"/>
</g>
<!-- client_node_registrations -->
<g id="node6" class="node">
<title>client_node_registrations</title>
<g id="a_node6"><a xlink:href="../../tables/client_node_registrations.html" xlink:title="client_node_registrations" target="_top">
<polygon fill="#ffffff" stroke="transparent" points="417,-477.7 417,-538.7 582,-538.7 582,-477.7 417,-477.7"/>
<polygon fill="#f5f5f5" stroke="transparent" points="417.5,-515.2 417.5,-538.2 582.5,-538.2 582.5,-515.2 417.5,-515.2"/>
<polygon fill="none" stroke="#000000" points="417.5,-515.2 417.5,-538.2 582.5,-538.2 582.5,-515.2 417.5,-515.2"/>
<text text-anchor="start" x="422.3741" y="-524.3" font-family="Helvetica,sans-Serif" font-weight="bold" font-size="11.00" fill="#000000">client_node_registrations</text>
<text text-anchor="start" x="548.0219" y="-523.3" font-family="Helvetica,sans-Serif" font-size="11.00" fill="#000000">[table]</text>
<polygon fill="none" stroke="#000000" points="417.5,-496.2 417.5,-515.2 582.5,-515.2 582.5,-496.2 417.5,-496.2"/>
<text text-anchor="start" x="420.5" y="-502.3" font-family="Helvetica,sans-Serif" font-size="11.00" fill="#000000">...</text>
<polygon fill="#ffffff" stroke="transparent" points="417.5,-477.2 417.5,-496.2 485.5,-496.2 485.5,-477.2 417.5,-477.2"/>
<polygon fill="none" stroke="#000000" points="417.5,-477.2 417.5,-496.2 485.5,-496.2 485.5,-477.2 417.5,-477.2"/>
<text text-anchor="start" x="420.5" y="-483.3" font-family="Helvetica,sans-Serif" font-size="11.00" fill="#000000">&lt; 1</text>
<polygon fill="#ffffff" stroke="transparent" points="485.5,-477.2 485.5,-496.2 546.5,-496.2 546.5,-477.2 485.5,-477.2"/>
<polygon fill="none" stroke="#000000" points="485.5,-477.2 485.5,-496.2 546.5,-496.2 546.5,-477.2 485.5,-477.2"/>
<text text-anchor="start" x="511.1105" y="-483.3" font-family="Helvetica,sans-Serif" font-size="11.00" fill="#000000">0 rows</text>
<polygon fill="#ffffff" stroke="transparent" points="546.5,-477.2 546.5,-496.2 582.5,-496.2 582.5,-477.2 546.5,-477.2"/>
<polygon fill="none" stroke="#000000" points="546.5,-477.2 546.5,-496.2 582.5,-496.2 582.5,-477.2 546.5,-477.2"/>
<text text-anchor="start" x="573.3862" y="-483.3" font-family="Helvetica,sans-Serif" font-size="11.00" fill="#000000"> &#160;</text>
</a>
</g>
</g>
<!-- client_node_registrations&#45;&gt;client -->
<g id="edge5" class="edge">
<title>client_node_registrations:w&#45;&gt;client:e</title>
<path fill="none" stroke="#000000" d="M403.25,-501.6515C371.2922,-481.4844 421.3684,-382.2 368.5,-382.2"/>
<polygon fill="#000000" stroke="#000000" points="409.7371,-503.2668 416.6301,-508.6933 413.6185,-504.2334 417.5,-505.2 417.5,-505.2 417.5,-505.2 413.6185,-504.2334 418.3699,-501.7067 409.7371,-503.2668 409.7371,-503.2668"/>
<ellipse fill="none" stroke="#000000" cx="406.6319" cy="-502.4936" rx="3.2" ry="3.2"/>
</g>
<!-- client_scope_client -->
<g id="node7" class="node">
<title>client_scope_client</title>
<g id="a_node7"><a xlink:href="../../tables/client_scope_client.html" xlink:title="client_scope_client" target="_top">
<polygon fill="#ffffff" stroke="transparent" points="432,-395.7 432,-456.7 567,-456.7 567,-395.7 432,-395.7"/>
<polygon fill="#f5f5f5" stroke="transparent" points="432.5,-433.2 432.5,-456.2 567.5,-456.2 567.5,-433.2 432.5,-433.2"/>
<polygon fill="none" stroke="#000000" points="432.5,-433.2 432.5,-456.2 567.5,-456.2 567.5,-433.2 432.5,-433.2"/>
<text text-anchor="start" x="437.0443" y="-442.3" font-family="Helvetica,sans-Serif" font-weight="bold" font-size="11.00" fill="#000000">client_scope_client</text>
<text text-anchor="start" x="533.0219" y="-441.3" font-family="Helvetica,sans-Serif" font-size="11.00" fill="#000000">[table]</text>
<polygon fill="none" stroke="#000000" points="432.5,-414.2 432.5,-433.2 567.5,-433.2 567.5,-414.2 432.5,-414.2"/>
<text text-anchor="start" x="435.5" y="-420.3" font-family="Helvetica,sans-Serif" font-size="11.00" fill="#000000">...</text>
<polygon fill="#ffffff" stroke="transparent" points="432.5,-395.2 432.5,-414.2 482.5,-414.2 482.5,-395.2 432.5,-395.2"/>
<polygon fill="none" stroke="#000000" points="432.5,-395.2 432.5,-414.2 482.5,-414.2 482.5,-395.2 432.5,-395.2"/>
<text text-anchor="start" x="435.5" y="-401.3" font-family="Helvetica,sans-Serif" font-size="11.00" fill="#000000">&lt; 2</text>
<polygon fill="#ffffff" stroke="transparent" points="482.5,-395.2 482.5,-414.2 540.5,-414.2 540.5,-395.2 482.5,-395.2"/>
<polygon fill="none" stroke="#000000" points="482.5,-395.2 482.5,-414.2 540.5,-414.2 540.5,-395.2 482.5,-395.2"/>
<text text-anchor="start" x="498.9956" y="-401.3" font-family="Helvetica,sans-Serif" font-size="11.00" fill="#000000">54 rows</text>
<polygon fill="#ffffff" stroke="transparent" points="540.5,-395.2 540.5,-414.2 567.5,-414.2 567.5,-395.2 540.5,-395.2"/>
<polygon fill="none" stroke="#000000" points="540.5,-395.2 540.5,-414.2 567.5,-414.2 567.5,-395.2 540.5,-395.2"/>
<text text-anchor="start" x="558.3862" y="-401.3" font-family="Helvetica,sans-Serif" font-size="11.00" fill="#000000"> &#160;</text>
</a>
</g>
</g>
<!-- client_scope_client&#45;&gt;client -->
<g id="edge6" class="edge">
<title>client_scope_client:w&#45;&gt;client:e</title>
<path fill="none" stroke="#000000" d="M418.2844,-420.1183C398.8622,-410.5833 396.6066,-382.2 368.5,-382.2"/>
<polygon fill="#000000" stroke="#000000" points="424.6816,-421.5051 431.7373,-426.7183 428.5908,-422.3525 432.5,-423.2 432.5,-423.2 432.5,-423.2 428.5908,-422.3525 433.2627,-419.6817 424.6816,-421.5051 424.6816,-421.5051"/>
<ellipse fill="none" stroke="#000000" cx="421.5542" cy="-420.8271" rx="3.2" ry="3.2"/>
</g>
<!-- protocol_mapper -->
<g id="node8" class="node">
<title>protocol_mapper</title>
<g id="a_node8"><a xlink:href="../../tables/protocol_mapper.html" xlink:title="protocol_mapper" target="_top">
<polygon fill="#ffffff" stroke="transparent" points="437,-313.7 437,-374.7 562,-374.7 562,-313.7 437,-313.7"/>
<polygon fill="#f5f5f5" stroke="transparent" points="437.5,-351.2 437.5,-374.2 562.5,-374.2 562.5,-351.2 437.5,-351.2"/>
<polygon fill="none" stroke="#000000" points="437.5,-351.2 437.5,-374.2 562.5,-374.2 562.5,-351.2 437.5,-351.2"/>
<text text-anchor="start" x="442.2412" y="-360.3" font-family="Helvetica,sans-Serif" font-weight="bold" font-size="11.00" fill="#000000">protocol_mapper</text>
<text text-anchor="start" x="528.0219" y="-359.3" font-family="Helvetica,sans-Serif" font-size="11.00" fill="#000000">[table]</text>
<polygon fill="none" stroke="#000000" points="437.5,-332.2 437.5,-351.2 562.5,-351.2 562.5,-332.2 437.5,-332.2"/>
<text text-anchor="start" x="440.5" y="-338.3" font-family="Helvetica,sans-Serif" font-size="11.00" fill="#000000">...</text>
<polygon fill="#ffffff" stroke="transparent" points="437.5,-313.2 437.5,-332.2 477.5,-332.2 477.5,-313.2 437.5,-313.2"/>
<polygon fill="none" stroke="#000000" points="437.5,-313.2 437.5,-332.2 477.5,-332.2 477.5,-313.2 437.5,-313.2"/>
<text text-anchor="start" x="440.5" y="-319.3" font-family="Helvetica,sans-Serif" font-size="11.00" fill="#000000">&lt; 2</text>
<polygon fill="#ffffff" stroke="transparent" points="477.5,-313.2 477.5,-332.2 531.5,-332.2 531.5,-313.2 477.5,-313.2"/>
<polygon fill="none" stroke="#000000" points="477.5,-313.2 477.5,-332.2 531.5,-332.2 531.5,-313.2 477.5,-313.2"/>
<text text-anchor="start" x="489.9956" y="-319.3" font-family="Helvetica,sans-Serif" font-size="11.00" fill="#000000">28 rows</text>
<polygon fill="#ffffff" stroke="transparent" points="531.5,-313.2 531.5,-332.2 562.5,-332.2 562.5,-313.2 531.5,-313.2"/>
<polygon fill="none" stroke="#000000" points="531.5,-313.2 531.5,-332.2 562.5,-332.2 562.5,-313.2 531.5,-313.2"/>
<text text-anchor="start" x="543.9053" y="-319.3" font-family="Helvetica,sans-Serif" font-size="11.00" fill="#000000">1 &gt;</text>
</a>
</g>
</g>
<!-- protocol_mapper&#45;&gt;client -->
<g id="edge7" class="edge">
<title>protocol_mapper:w&#45;&gt;client:e</title>
<path fill="none" stroke="#000000" d="M423.2731,-343.8901C401.6324,-353.0115 398.5983,-382.2 368.5,-382.2"/>
<polygon fill="#000000" stroke="#000000" points="429.6393,-342.6864 438.1689,-344.7373 433.5696,-341.9432 437.5,-341.2 437.5,-341.2 437.5,-341.2 433.5696,-341.9432 436.8311,-337.6627 429.6393,-342.6864 429.6393,-342.6864"/>
<ellipse fill="none" stroke="#000000" cx="426.495" cy="-343.281" rx="3.2" ry="3.2"/>
</g>
<!-- redirect_uris -->
<g id="node9" class="node">
<title>redirect_uris</title>
<g id="a_node9"><a xlink:href="../../tables/redirect_uris.html" xlink:title="redirect_uris" target="_top">
<polygon fill="#ffffff" stroke="transparent" points="448,-231.7 448,-292.7 551,-292.7 551,-231.7 448,-231.7"/>
<polygon fill="#f5f5f5" stroke="transparent" points="448.5,-269.2 448.5,-292.2 551.5,-292.2 551.5,-269.2 448.5,-269.2"/>
<polygon fill="none" stroke="#000000" points="448.5,-269.2 448.5,-292.2 551.5,-292.2 551.5,-269.2 448.5,-269.2"/>
<text text-anchor="start" x="453.2506" y="-278.3" font-family="Helvetica,sans-Serif" font-weight="bold" font-size="11.00" fill="#000000">redirect_uris</text>
<text text-anchor="start" x="517.0219" y="-277.3" font-family="Helvetica,sans-Serif" font-size="11.00" fill="#000000">[table]</text>
<polygon fill="none" stroke="#000000" points="448.5,-250.2 448.5,-269.2 551.5,-269.2 551.5,-250.2 448.5,-250.2"/>
<text text-anchor="start" x="451.5" y="-256.3" font-family="Helvetica,sans-Serif" font-size="11.00" fill="#000000">...</text>
<polygon fill="#ffffff" stroke="transparent" points="448.5,-231.2 448.5,-250.2 485.5,-250.2 485.5,-231.2 448.5,-231.2"/>
<polygon fill="none" stroke="#000000" points="448.5,-231.2 448.5,-250.2 485.5,-250.2 485.5,-231.2 448.5,-231.2"/>
<text text-anchor="start" x="451.5" y="-237.3" font-family="Helvetica,sans-Serif" font-size="11.00" fill="#000000">&lt; 1</text>
<polygon fill="#ffffff" stroke="transparent" points="485.5,-231.2 485.5,-250.2 531.5,-250.2 531.5,-231.2 485.5,-231.2"/>
<polygon fill="none" stroke="#000000" points="485.5,-231.2 485.5,-250.2 531.5,-250.2 531.5,-231.2 485.5,-231.2"/>
<text text-anchor="start" x="496.1105" y="-237.3" font-family="Helvetica,sans-Serif" font-size="11.00" fill="#000000">3 rows</text>
<polygon fill="#ffffff" stroke="transparent" points="531.5,-231.2 531.5,-250.2 551.5,-250.2 551.5,-231.2 531.5,-231.2"/>
<polygon fill="none" stroke="#000000" points="531.5,-231.2 531.5,-250.2 551.5,-250.2 551.5,-231.2 531.5,-231.2"/>
<text text-anchor="start" x="542.3862" y="-237.3" font-family="Helvetica,sans-Serif" font-size="11.00" fill="#000000"> &#160;</text>
</a>
</g>
</g>
<!-- redirect_uris&#45;&gt;client -->
<g id="edge8" class="edge">
<title>redirect_uris:w&#45;&gt;client:e</title>
<path fill="none" stroke="#000000" d="M434.4251,-262.3736C422.129,-269.2913 420.521,-286.4549 409,-303.2 386.6355,-335.7057 407.9562,-382.2 368.5,-382.2"/>
<polygon fill="#000000" stroke="#000000" points="440.6959,-260.9597 449.2919,-262.7118 444.598,-260.0799 448.5,-259.2 448.5,-259.2 448.5,-259.2 444.598,-260.0799 447.7081,-255.6882 440.6959,-260.9597 440.6959,-260.9597"/>
<ellipse fill="none" stroke="#000000" cx="437.5743" cy="-261.6636" rx="3.2" ry="3.2"/>
</g>
<!-- scope_mapping -->
<g id="node10" class="node">
<title>scope_mapping</title>
<g id="a_node10"><a xlink:href="../../tables/scope_mapping.html" xlink:title="scope_mapping" target="_top">
<polygon fill="#ffffff" stroke="transparent" points="439.5,-149.7 439.5,-210.7 559.5,-210.7 559.5,-149.7 439.5,-149.7"/>
<polygon fill="#f5f5f5" stroke="transparent" points="439.5,-187.2 439.5,-210.2 559.5,-210.2 559.5,-187.2 439.5,-187.2"/>
<polygon fill="none" stroke="#000000" points="439.5,-187.2 439.5,-210.2 559.5,-210.2 559.5,-187.2 439.5,-187.2"/>
<text text-anchor="start" x="444.1816" y="-196.3" font-family="Helvetica,sans-Serif" font-weight="bold" font-size="11.00" fill="#000000">scope_mapping</text>
<text text-anchor="start" x="525.0219" y="-195.3" font-family="Helvetica,sans-Serif" font-size="11.00" fill="#000000">[table]</text>
<polygon fill="none" stroke="#000000" points="439.5,-168.2 439.5,-187.2 559.5,-187.2 559.5,-168.2 439.5,-168.2"/>
<text text-anchor="start" x="442.5" y="-174.3" font-family="Helvetica,sans-Serif" font-size="11.00" fill="#000000">...</text>
<polygon fill="#ffffff" stroke="transparent" points="439.5,-149.2 439.5,-168.2 487.5,-168.2 487.5,-149.2 439.5,-149.2"/>
<polygon fill="none" stroke="#000000" points="439.5,-149.2 439.5,-168.2 487.5,-168.2 487.5,-149.2 439.5,-149.2"/>
<text text-anchor="start" x="442.5" y="-155.3" font-family="Helvetica,sans-Serif" font-size="11.00" fill="#000000">&lt; 1</text>
<polygon fill="#ffffff" stroke="transparent" points="487.5,-149.2 487.5,-168.2 533.5,-168.2 533.5,-149.2 487.5,-149.2"/>
<polygon fill="none" stroke="#000000" points="487.5,-149.2 487.5,-168.2 533.5,-168.2 533.5,-149.2 487.5,-149.2"/>
<text text-anchor="start" x="503.6105" y="-155.3" font-family="Helvetica,sans-Serif" font-size="11.00" fill="#000000">1 row</text>
<polygon fill="#ffffff" stroke="transparent" points="533.5,-149.2 533.5,-168.2 559.5,-168.2 559.5,-149.2 533.5,-149.2"/>
<polygon fill="none" stroke="#000000" points="533.5,-149.2 533.5,-168.2 559.5,-168.2 559.5,-149.2 533.5,-149.2"/>
<text text-anchor="start" x="550.3862" y="-155.3" font-family="Helvetica,sans-Serif" font-size="11.00" fill="#000000"> &#160;</text>
</a>
</g>
</g>
<!-- scope_mapping&#45;&gt;client -->
<g id="edge9" class="edge">
<title>scope_mapping:w&#45;&gt;client:e</title>
<path fill="none" stroke="#000000" d="M425.1373,-179.0985C356.1813,-199.765 459.4595,-382.2 368.5,-382.2"/>
<polygon fill="#000000" stroke="#000000" points="431.569,-178.2484 439.9718,-180.769 435.5345,-177.7242 439.5,-177.2 439.5,-177.2 439.5,-177.2 435.5345,-177.7242 439.0282,-173.631 431.569,-178.2484 431.569,-178.2484"/>
<ellipse fill="none" stroke="#000000" cx="428.3966" cy="-178.6678" rx="3.2" ry="3.2"/>
</g>
<!-- web_origins -->
<g id="node11" class="node">
<title>web_origins</title>
<g id="a_node11"><a xlink:href="../../tables/web_origins.html" xlink:title="web_origins" target="_top">
<polygon fill="#ffffff" stroke="transparent" points="418.5,-38.2 418.5,-128.2 580.5,-128.2 580.5,-38.2 418.5,-38.2"/>
<polygon fill="#f5f5f5" stroke="transparent" points="420.5,-103.2 420.5,-126.2 578.5,-126.2 578.5,-103.2 420.5,-103.2"/>
<polygon fill="none" stroke="#000000" points="420.5,-103.2 420.5,-126.2 578.5,-126.2 578.5,-103.2 420.5,-103.2"/>
<text text-anchor="start" x="425.5" y="-112.3" font-family="Helvetica,sans-Serif" font-weight="bold" font-size="11.00" fill="#000000">web_origins</text>
<text text-anchor="start" x="543.5437" y="-111.3" font-family="Helvetica,sans-Serif" font-size="11.00" fill="#000000">[table]</text>
<polygon fill="none" stroke="#000000" points="420.5,-81.2 420.5,-103.2 511.5,-103.2 511.5,-81.2 420.5,-81.2"/>
<image xlink:href="../../images/primaryKeys.png" width="11px" height="12px" preserveAspectRatio="xMinYMin meet" x="425.5" y="-98.2"/>
<text text-anchor="start" x="440.5" y="-88.3" font-family="Helvetica,sans-Serif" font-size="11.00" fill="#000000">client_id</text>
<polygon fill="none" stroke="#000000" points="511.5,-81.2 511.5,-103.2 578.5,-103.2 578.5,-81.2 511.5,-81.2"/>
<text text-anchor="start" x="514.5" y="-88.9" font-family="Helvetica,sans-Serif" font-size="11.00" fill="#000000">varchar[36]</text>
<polygon fill="none" stroke="#000000" points="420.5,-59.2 420.5,-81.2 511.5,-81.2 511.5,-59.2 420.5,-59.2"/>
<image xlink:href="../../images/primaryKeys.png" width="11px" height="12px" preserveAspectRatio="xMinYMin meet" x="425.5" y="-76.2"/>
<text text-anchor="start" x="440.5" y="-66.3" font-family="Helvetica,sans-Serif" font-size="11.00" fill="#000000">value</text>
<polygon fill="none" stroke="#000000" points="511.5,-59.2 511.5,-81.2 578.5,-81.2 578.5,-59.2 511.5,-59.2"/>
<text text-anchor="start" x="514.4365" y="-66.9" font-family="Helvetica,sans-Serif" font-size="11.00" fill="#000000">varchar[255]</text>
<polygon fill="#ffffff" stroke="transparent" points="420.5,-40.2 420.5,-59.2 460.5,-59.2 460.5,-40.2 420.5,-40.2"/>
<polygon fill="none" stroke="#000000" points="420.5,-40.2 420.5,-59.2 460.5,-59.2 460.5,-40.2 420.5,-40.2"/>
<text text-anchor="start" x="423.5" y="-46.3" font-family="Helvetica,sans-Serif" font-size="11.00" fill="#000000">&lt; 1</text>
<polygon fill="#ffffff" stroke="transparent" points="460.5,-40.2 460.5,-59.2 511.5,-59.2 511.5,-40.2 460.5,-40.2"/>
<polygon fill="none" stroke="#000000" points="460.5,-40.2 460.5,-59.2 511.5,-59.2 511.5,-40.2 460.5,-40.2"/>
<text text-anchor="start" x="481.6105" y="-46.3" font-family="Helvetica,sans-Serif" font-size="11.00" fill="#000000">1 row</text>
<polygon fill="#ffffff" stroke="transparent" points="511.5,-40.2 511.5,-59.2 578.5,-59.2 578.5,-40.2 511.5,-40.2"/>
<polygon fill="none" stroke="#000000" points="511.5,-40.2 511.5,-59.2 578.5,-59.2 578.5,-40.2 511.5,-40.2"/>
<text text-anchor="start" x="559.9053" y="-46.3" font-family="Helvetica,sans-Serif" font-size="11.00" fill="#000000">0 &gt;</text>
<polygon fill="none" stroke="#000000" stroke-width="2" points="419.5,-39.2 419.5,-127.2 579.5,-127.2 579.5,-39.2 419.5,-39.2"/>
</a>
</g>
</g>
<!-- web_origins&#45;&gt;client -->
<g id="edge10" class="edge">
<title>web_origins:w&#45;&gt;client:e</title>
<path fill="none" stroke="#000000" d="M407.1436,-97.7342C367.0078,-137.8267 428.6015,-382.2 368.5,-382.2"/>
<polygon fill="#000000" stroke="#000000" points="413.1093,-95.2624 421.8781,-95.5258 416.8047,-93.7312 420.5,-92.2 420.5,-92.2 420.5,-92.2 416.8047,-93.7312 419.1219,-88.8742 413.1093,-95.2624 413.1093,-95.2624"/>
<ellipse fill="none" stroke="#000000" cx="410.153" cy="-96.4873" rx="3.2" ry="3.2"/>
</g>
</g>
</svg>
