<?xml version="1.0" encoding="UTF-8" standalone="no"?>
<!DOCTYPE svg PUBLIC "-//W3C//DTD SVG 1.1//EN"
 "http://www.w3.org/Graphics/SVG/1.1/DTD/svg11.dtd">
<!-- Generated by graphviz version 2.40.1 (20161225.0304)
 -->
<!-- Title: broker_link Pages: 1 -->
<svg width="254pt" height="216pt"
 viewBox="0.00 0.00 254.00 216.00" xmlns="http://www.w3.org/2000/svg" xmlns:xlink="http://www.w3.org/1999/xlink">
<g id="graph0" class="graph" transform="scale(1 1) rotate(0) translate(4 212)">
<title>broker_link</title>
<polygon fill="#ffffff" stroke="transparent" points="-4,4 -4,-212 250,-212 250,4 -4,4"/>
<!-- broker_link -->
<g id="node1" class="node">
<title>broker_link</title>
<g id="a_node1"><a xlink:href="../../tables/broker_link.html" xlink:title="broker_link" target="_top">
<polygon fill="#ffffff" stroke="transparent" points="8,-4 8,-204 238,-204 238,-4 8,-4"/>
<polygon fill="#f5f5f5" stroke="transparent" points="10,-179 10,-202 236,-202 236,-179 10,-179"/>
<polygon fill="none" stroke="#000000" points="10,-179 10,-202 236,-202 236,-179 10,-179"/>
<text text-anchor="start" x="15" y="-188.1" font-family="Helvetica,sans-Serif" font-weight="bold" font-size="11.00" fill="#000000">broker_link</text>
<text text-anchor="start" x="201.0437" y="-187.1" font-family="Helvetica,sans-Serif" font-size="11.00" fill="#000000">[table]</text>
<polygon fill="none" stroke="#000000" points="10,-157 10,-179 146,-179 146,-157 10,-157"/>
<image xlink:href="../../images/primaryKeys.png" width="11px" height="12px" preserveAspectRatio="xMinYMin meet" x="15" y="-174"/>
<text text-anchor="start" x="30" y="-164.1" font-family="Helvetica,sans-Serif" font-size="11.00" fill="#000000">identity_provider</text>
<polygon fill="none" stroke="#000000" points="146,-157 146,-179 236,-179 236,-157 146,-157"/>
<text text-anchor="start" x="149" y="-164.7" font-family="Helvetica,sans-Serif" font-size="11.00" fill="#000000">varchar[255]</text>
<polygon fill="none" stroke="#000000" points="10,-135 10,-157 146,-157 146,-135 10,-135"/>
<image xlink:href="../../images/foreignKeys.png" width="11px" height="12px" preserveAspectRatio="xMinYMin meet" x="15" y="-152"/>
<text text-anchor="start" x="30" y="-142.1" font-family="Helvetica,sans-Serif" font-size="11.00" fill="#000000">storage_provider_id</text>
<polygon fill="none" stroke="#000000" points="146,-135 146,-157 236,-157 236,-135 146,-135"/>
<text text-anchor="start" x="149" y="-142.7" font-family="Helvetica,sans-Serif" font-size="11.00" fill="#000000">varchar[255]</text>
<polygon fill="none" stroke="#000000" points="10,-113 10,-135 146,-135 146,-113 10,-113"/>
<text text-anchor="start" x="30" y="-120.1" font-family="Helvetica,sans-Serif" font-size="11.00" fill="#000000">realm_id</text>
<polygon fill="none" stroke="#000000" points="146,-113 146,-135 236,-135 236,-113 146,-113"/>
<text text-anchor="start" x="149" y="-120.7" font-family="Helvetica,sans-Serif" font-size="11.00" fill="#000000">varchar[36]</text>
<polygon fill="none" stroke="#000000" points="10,-91 10,-113 146,-113 146,-91 10,-91"/>
<image xlink:href="../../images/foreignKeys.png" width="11px" height="12px" preserveAspectRatio="xMinYMin meet" x="15" y="-108"/>
<text text-anchor="start" x="30" y="-98.1" font-family="Helvetica,sans-Serif" font-size="11.00" fill="#000000">broker_user_id</text>
<polygon fill="none" stroke="#000000" points="146,-91 146,-113 236,-113 236,-91 146,-91"/>
<text text-anchor="start" x="149" y="-98.7" font-family="Helvetica,sans-Serif" font-size="11.00" fill="#000000">varchar[255]</text>
<polygon fill="none" stroke="#000000" points="10,-69 10,-91 146,-91 146,-69 10,-69"/>
<text text-anchor="start" x="30" y="-76.1" font-family="Helvetica,sans-Serif" font-size="11.00" fill="#000000">broker_username</text>
<polygon fill="none" stroke="#000000" points="146,-69 146,-91 236,-91 236,-69 146,-69"/>
<text text-anchor="start" x="149" y="-76.7" font-family="Helvetica,sans-Serif" font-size="11.00" fill="#000000">varchar[255]</text>
<polygon fill="none" stroke="#000000" points="10,-47 10,-69 146,-69 146,-47 10,-47"/>
<text text-anchor="start" x="30" y="-54.1" font-family="Helvetica,sans-Serif" font-size="11.00" fill="#000000">token</text>
<polygon fill="none" stroke="#000000" points="146,-47 146,-69 236,-69 236,-47 146,-47"/>
<text text-anchor="start" x="148.5042" y="-54.7" font-family="Helvetica,sans-Serif" font-size="11.00" fill="#000000">text[2147483647]</text>
<polygon fill="none" stroke="#000000" points="10,-25 10,-47 146,-47 146,-25 10,-25"/>
<image xlink:href="../../images/primaryKeys.png" width="11px" height="12px" preserveAspectRatio="xMinYMin meet" x="15" y="-42"/>
<text text-anchor="start" x="30" y="-32.1" font-family="Helvetica,sans-Serif" font-size="11.00" fill="#000000">user_id</text>
<polygon fill="none" stroke="#000000" points="146,-25 146,-47 236,-47 236,-25 146,-25"/>
<text text-anchor="start" x="149" y="-32.7" font-family="Helvetica,sans-Serif" font-size="11.00" fill="#000000">varchar[255]</text>
<polygon fill="#ffffff" stroke="transparent" points="10,-6 10,-25 69,-25 69,-6 10,-6"/>
<polygon fill="none" stroke="#000000" points="10,-6 10,-25 69,-25 69,-6 10,-6"/>
<text text-anchor="start" x="13" y="-12.1" font-family="Helvetica,sans-Serif" font-size="11.00" fill="#000000">&lt; 0</text>
<polygon fill="#ffffff" stroke="transparent" points="69,-6 69,-25 146,-25 146,-6 69,-6"/>
<polygon fill="none" stroke="#000000" points="69,-6 69,-25 146,-25 146,-6 69,-6"/>
<text text-anchor="start" x="110.6105" y="-12.1" font-family="Helvetica,sans-Serif" font-size="11.00" fill="#000000">0 rows</text>
<polygon fill="#ffffff" stroke="transparent" points="146,-6 146,-25 236,-25 236,-6 146,-6"/>
<polygon fill="none" stroke="#000000" points="146,-6 146,-25 236,-25 236,-6 146,-6"/>
<text text-anchor="start" x="217.4053" y="-12.1" font-family="Helvetica,sans-Serif" font-size="11.00" fill="#000000">0 &gt;</text>
<polygon fill="none" stroke="#000000" stroke-width="2" points="9,-5 9,-203 237,-203 237,-5 9,-5"/>
</a>
</g>
</g>
</g>
</svg>
