<?xml version="1.0" encoding="UTF-8" standalone="no"?>
<!DOCTYPE svg PUBLIC "-//W3C//DTD SVG 1.1//EN"
 "http://www.w3.org/Graphics/SVG/1.1/DTD/svg11.dtd">
<!-- Generated by graphviz version 2.40.1 (20161225.0304)
 -->
<!-- Title: databasechangeloglock Pages: 1 -->
<svg width="269pt" height="150pt"
 viewBox="0.00 0.00 269.00 150.00" xmlns="http://www.w3.org/2000/svg" xmlns:xlink="http://www.w3.org/1999/xlink">
<g id="graph0" class="graph" transform="scale(1 1) rotate(0) translate(4 146)">
<title>databasechangeloglock</title>
<polygon fill="#ffffff" stroke="transparent" points="-4,4 -4,-146 265,-146 265,4 -4,4"/>
<!-- databasechangeloglock -->
<g id="node1" class="node">
<title>databasechangeloglock</title>
<g id="a_node1"><a xlink:href="../../tables/databasechangeloglock.html" xlink:title="databasechangeloglock" target="_top">
<polygon fill="#ffffff" stroke="transparent" points="8,-4 8,-138 253,-138 253,-4 8,-4"/>
<polygon fill="#f5f5f5" stroke="transparent" points="10.5,-113 10.5,-136 251.5,-136 251.5,-113 10.5,-113"/>
<polygon fill="none" stroke="#000000" points="10.5,-113 10.5,-136 251.5,-136 251.5,-113 10.5,-113"/>
<text text-anchor="start" x="15.5" y="-122.1" font-family="Helvetica,sans-Serif" font-weight="bold" font-size="11.00" fill="#000000">databasechangeloglock</text>
<text text-anchor="start" x="216.5437" y="-121.1" font-family="Helvetica,sans-Serif" font-size="11.00" fill="#000000">[table]</text>
<polygon fill="none" stroke="#000000" points="10.5,-91 10.5,-113 167.5,-113 167.5,-91 10.5,-91"/>
<image xlink:href="../../images/primaryKeys.png" width="11px" height="12px" preserveAspectRatio="xMinYMin meet" x="15.5" y="-108"/>
<text text-anchor="start" x="30.5" y="-98.1" font-family="Helvetica,sans-Serif" font-size="11.00" fill="#000000">id</text>
<polygon fill="none" stroke="#000000" points="167.5,-91 167.5,-113 251.5,-113 251.5,-91 167.5,-91"/>
<text text-anchor="start" x="170.5" y="-98.7" font-family="Helvetica,sans-Serif" font-size="11.00" fill="#000000">int4[10]</text>
<polygon fill="none" stroke="#000000" points="10.5,-69 10.5,-91 167.5,-91 167.5,-69 10.5,-69"/>
<text text-anchor="start" x="30.5" y="-76.1" font-family="Helvetica,sans-Serif" font-size="11.00" fill="#000000">locked</text>
<polygon fill="none" stroke="#000000" points="167.5,-69 167.5,-91 251.5,-91 251.5,-69 167.5,-69"/>
<text text-anchor="start" x="170.5" y="-76.7" font-family="Helvetica,sans-Serif" font-size="11.00" fill="#000000">bool[1]</text>
<polygon fill="none" stroke="#000000" points="10.5,-47 10.5,-69 167.5,-69 167.5,-47 10.5,-47"/>
<text text-anchor="start" x="30.5" y="-54.1" font-family="Helvetica,sans-Serif" font-size="11.00" fill="#000000">lockgranted</text>
<polygon fill="none" stroke="#000000" points="167.5,-47 167.5,-69 251.5,-69 251.5,-47 167.5,-47"/>
<text text-anchor="start" x="170.3807" y="-54.7" font-family="Helvetica,sans-Serif" font-size="11.00" fill="#000000">timestamp[29,6]</text>
<polygon fill="none" stroke="#000000" points="10.5,-25 10.5,-47 167.5,-47 167.5,-25 10.5,-25"/>
<text text-anchor="start" x="30.5" y="-32.1" font-family="Helvetica,sans-Serif" font-size="11.00" fill="#000000">lockedby</text>
<polygon fill="none" stroke="#000000" points="167.5,-25 167.5,-47 251.5,-47 251.5,-25 167.5,-25"/>
<text text-anchor="start" x="170.5" y="-32.7" font-family="Helvetica,sans-Serif" font-size="11.00" fill="#000000">varchar[255]</text>
<polygon fill="#ffffff" stroke="transparent" points="10.5,-6 10.5,-25 80.5,-25 80.5,-6 10.5,-6"/>
<polygon fill="none" stroke="#000000" points="10.5,-6 10.5,-25 80.5,-25 80.5,-6 10.5,-6"/>
<text text-anchor="start" x="13.5" y="-12.1" font-family="Helvetica,sans-Serif" font-size="11.00" fill="#000000">&lt; 0</text>
<polygon fill="#ffffff" stroke="transparent" points="80.5,-6 80.5,-25 167.5,-25 167.5,-6 80.5,-6"/>
<polygon fill="none" stroke="#000000" points="80.5,-6 80.5,-25 167.5,-25 167.5,-6 80.5,-6"/>
<text text-anchor="start" x="132.1105" y="-12.1" font-family="Helvetica,sans-Serif" font-size="11.00" fill="#000000">3 rows</text>
<polygon fill="#ffffff" stroke="transparent" points="167.5,-6 167.5,-25 251.5,-25 251.5,-6 167.5,-6"/>
<polygon fill="none" stroke="#000000" points="167.5,-6 167.5,-25 251.5,-25 251.5,-6 167.5,-6"/>
<text text-anchor="start" x="232.9053" y="-12.1" font-family="Helvetica,sans-Serif" font-size="11.00" fill="#000000">0 &gt;</text>
<polygon fill="none" stroke="#000000" stroke-width="2" points="9,-5 9,-137 252,-137 252,-5 9,-5"/>
</a>
</g>
</g>
</g>
</svg>
