<?xml version="1.0" encoding="UTF-8" standalone="no"?>
<!DOCTYPE svg PUBLIC "-//W3C//DTD SVG 1.1//EN"
 "http://www.w3.org/Graphics/SVG/1.1/DTD/svg11.dtd">
<!-- Generated by graphviz version 2.40.1 (20161225.0304)
 -->
<!-- Title: event_entity Pages: 1 -->
<svg width="192pt" height="282pt"
 viewBox="0.00 0.00 192.00 282.00" xmlns="http://www.w3.org/2000/svg" xmlns:xlink="http://www.w3.org/1999/xlink">
<g id="graph0" class="graph" transform="scale(1 1) rotate(0) translate(4 278)">
<title>event_entity</title>
<polygon fill="#ffffff" stroke="transparent" points="-4,4 -4,-278 188,-278 188,4 -4,4"/>
<!-- event_entity -->
<g id="node1" class="node">
<title>event_entity</title>
<g id="a_node1"><a xlink:href="../../tables/event_entity.html" xlink:title="event_entity" target="_top">
<polygon fill="#ffffff" stroke="transparent" points="8,-4 8,-270 176,-270 176,-4 8,-4"/>
<polygon fill="#f5f5f5" stroke="transparent" points="10,-245 10,-268 174,-268 174,-245 10,-245"/>
<polygon fill="none" stroke="#000000" points="10,-245 10,-268 174,-268 174,-245 10,-245"/>
<text text-anchor="start" x="15" y="-254.1" font-family="Helvetica,sans-Serif" font-weight="bold" font-size="11.00" fill="#000000">event_entity</text>
<text text-anchor="start" x="139.0437" y="-253.1" font-family="Helvetica,sans-Serif" font-size="11.00" fill="#000000">[table]</text>
<polygon fill="none" stroke="#000000" points="10,-223 10,-245 101,-245 101,-223 10,-223"/>
<image xlink:href="../../images/primaryKeys.png" width="11px" height="12px" preserveAspectRatio="xMinYMin meet" x="15" y="-240"/>
<text text-anchor="start" x="30" y="-230.1" font-family="Helvetica,sans-Serif" font-size="11.00" fill="#000000">id</text>
<polygon fill="none" stroke="#000000" points="101,-223 101,-245 174,-245 174,-223 101,-223"/>
<text text-anchor="start" x="104" y="-230.7" font-family="Helvetica,sans-Serif" font-size="11.00" fill="#000000">varchar[36]</text>
<polygon fill="none" stroke="#000000" points="10,-201 10,-223 101,-223 101,-201 10,-201"/>
<image xlink:href="../../images/foreignKeys.png" width="11px" height="12px" preserveAspectRatio="xMinYMin meet" x="15" y="-218"/>
<text text-anchor="start" x="30" y="-208.1" font-family="Helvetica,sans-Serif" font-size="11.00" fill="#000000">client_id</text>
<polygon fill="none" stroke="#000000" points="101,-201 101,-223 174,-223 174,-201 101,-201"/>
<text text-anchor="start" x="104" y="-208.7" font-family="Helvetica,sans-Serif" font-size="11.00" fill="#000000">varchar[255]</text>
<polygon fill="none" stroke="#000000" points="10,-179 10,-201 101,-201 101,-179 10,-179"/>
<text text-anchor="start" x="30" y="-186.1" font-family="Helvetica,sans-Serif" font-size="11.00" fill="#000000">details_json</text>
<polygon fill="none" stroke="#000000" points="101,-179 101,-201 174,-201 174,-179 101,-179"/>
<text text-anchor="start" x="103.8791" y="-186.7" font-family="Helvetica,sans-Serif" font-size="11.00" fill="#000000">varchar[2550]</text>
<polygon fill="none" stroke="#000000" points="10,-157 10,-179 101,-179 101,-157 10,-157"/>
<text text-anchor="start" x="30" y="-164.1" font-family="Helvetica,sans-Serif" font-size="11.00" fill="#000000">error</text>
<polygon fill="none" stroke="#000000" points="101,-157 101,-179 174,-179 174,-157 101,-157"/>
<text text-anchor="start" x="104" y="-164.7" font-family="Helvetica,sans-Serif" font-size="11.00" fill="#000000">varchar[255]</text>
<polygon fill="none" stroke="#000000" points="10,-135 10,-157 101,-157 101,-135 10,-135"/>
<text text-anchor="start" x="30" y="-142.1" font-family="Helvetica,sans-Serif" font-size="11.00" fill="#000000">ip_address</text>
<polygon fill="none" stroke="#000000" points="101,-135 101,-157 174,-157 174,-135 101,-135"/>
<text text-anchor="start" x="104" y="-142.7" font-family="Helvetica,sans-Serif" font-size="11.00" fill="#000000">varchar[255]</text>
<polygon fill="#ffffff" stroke="transparent" points="10,-113 10,-135 101,-135 101,-113 10,-113"/>
<polygon fill="none" stroke="#000000" points="10,-113 10,-135 101,-135 101,-113 10,-113"/>
<image xlink:href="../../images/foreignKeys.png" width="11px" height="12px" preserveAspectRatio="xMinYMin meet" x="15" y="-130"/>
<text text-anchor="start" x="30" y="-120.1" font-family="Helvetica,sans-Serif" font-size="11.00" fill="#000000">realm_id</text>
<polygon fill="none" stroke="#000000" points="101,-113 101,-135 174,-135 174,-113 101,-113"/>
<text text-anchor="start" x="104" y="-120.7" font-family="Helvetica,sans-Serif" font-size="11.00" fill="#000000">varchar[255]</text>
<polygon fill="none" stroke="#000000" points="10,-91 10,-113 101,-113 101,-91 10,-91"/>
<image xlink:href="../../images/foreignKeys.png" width="11px" height="12px" preserveAspectRatio="xMinYMin meet" x="15" y="-108"/>
<text text-anchor="start" x="30" y="-98.1" font-family="Helvetica,sans-Serif" font-size="11.00" fill="#000000">session_id</text>
<polygon fill="none" stroke="#000000" points="101,-91 101,-113 174,-113 174,-91 101,-91"/>
<text text-anchor="start" x="104" y="-98.7" font-family="Helvetica,sans-Serif" font-size="11.00" fill="#000000">varchar[255]</text>
<polygon fill="#ffffff" stroke="transparent" points="10,-69 10,-91 101,-91 101,-69 10,-69"/>
<polygon fill="none" stroke="#000000" points="10,-69 10,-91 101,-91 101,-69 10,-69"/>
<text text-anchor="start" x="30" y="-76.1" font-family="Helvetica,sans-Serif" font-size="11.00" fill="#000000">event_time</text>
<polygon fill="none" stroke="#000000" points="101,-69 101,-91 174,-91 174,-69 101,-69"/>
<text text-anchor="start" x="104" y="-76.7" font-family="Helvetica,sans-Serif" font-size="11.00" fill="#000000">int8[19]</text>
<polygon fill="none" stroke="#000000" points="10,-47 10,-69 101,-69 101,-47 10,-47"/>
<text text-anchor="start" x="30" y="-54.1" font-family="Helvetica,sans-Serif" font-size="11.00" fill="#000000">type</text>
<polygon fill="none" stroke="#000000" points="101,-47 101,-69 174,-69 174,-47 101,-47"/>
<text text-anchor="start" x="104" y="-54.7" font-family="Helvetica,sans-Serif" font-size="11.00" fill="#000000">varchar[255]</text>
<polygon fill="none" stroke="#000000" points="10,-25 10,-47 101,-47 101,-25 10,-25"/>
<image xlink:href="../../images/foreignKeys.png" width="11px" height="12px" preserveAspectRatio="xMinYMin meet" x="15" y="-42"/>
<text text-anchor="start" x="30" y="-32.1" font-family="Helvetica,sans-Serif" font-size="11.00" fill="#000000">user_id</text>
<polygon fill="none" stroke="#000000" points="101,-25 101,-47 174,-47 174,-25 101,-25"/>
<text text-anchor="start" x="104" y="-32.7" font-family="Helvetica,sans-Serif" font-size="11.00" fill="#000000">varchar[255]</text>
<polygon fill="#ffffff" stroke="transparent" points="10,-6 10,-25 47,-25 47,-6 10,-6"/>
<polygon fill="none" stroke="#000000" points="10,-6 10,-25 47,-25 47,-6 10,-6"/>
<text text-anchor="start" x="13" y="-12.1" font-family="Helvetica,sans-Serif" font-size="11.00" fill="#000000">&lt; 0</text>
<polygon fill="#ffffff" stroke="transparent" points="47,-6 47,-25 101,-25 101,-6 47,-6"/>
<polygon fill="none" stroke="#000000" points="47,-6 47,-25 101,-25 101,-6 47,-6"/>
<text text-anchor="start" x="65.6105" y="-12.1" font-family="Helvetica,sans-Serif" font-size="11.00" fill="#000000">0 rows</text>
<polygon fill="#ffffff" stroke="transparent" points="101,-6 101,-25 174,-25 174,-6 101,-6"/>
<polygon fill="none" stroke="#000000" points="101,-6 101,-25 174,-25 174,-6 101,-6"/>
<text text-anchor="start" x="155.4053" y="-12.1" font-family="Helvetica,sans-Serif" font-size="11.00" fill="#000000">0 &gt;</text>
<polygon fill="none" stroke="#000000" stroke-width="2" points="9,-5 9,-269 175,-269 175,-5 9,-5"/>
</a>
</g>
</g>
</g>
</svg>
