<?xml version="1.0" encoding="UTF-8" standalone="no"?>
<!DOCTYPE svg PUBLIC "-//W3C//DTD SVG 1.1//EN"
 "http://www.w3.org/Graphics/SVG/1.1/DTD/svg11.dtd">
<!-- Generated by graphviz version 2.40.1 (20161225.0304)
 -->
<!-- Title: fed_user_role_mapping Pages: 1 -->
<svg width="251pt" height="150pt"
 viewBox="0.00 0.00 251.00 150.00" xmlns="http://www.w3.org/2000/svg" xmlns:xlink="http://www.w3.org/1999/xlink">
<g id="graph0" class="graph" transform="scale(1 1) rotate(0) translate(4 146)">
<title>fed_user_role_mapping</title>
<polygon fill="#ffffff" stroke="transparent" points="-4,4 -4,-146 247,-146 247,4 -4,4"/>
<!-- fed_user_role_mapping -->
<g id="node1" class="node">
<title>fed_user_role_mapping</title>
<g id="a_node1"><a xlink:href="../../tables/fed_user_role_mapping.html" xlink:title="fed_user_role_mapping" target="_top">
<polygon fill="#ffffff" stroke="transparent" points="8,-4 8,-138 235,-138 235,-4 8,-4"/>
<polygon fill="#f5f5f5" stroke="transparent" points="10.5,-113 10.5,-136 233.5,-136 233.5,-113 10.5,-113"/>
<polygon fill="none" stroke="#000000" points="10.5,-113 10.5,-136 233.5,-136 233.5,-113 10.5,-113"/>
<text text-anchor="start" x="15.5" y="-122.1" font-family="Helvetica,sans-Serif" font-weight="bold" font-size="11.00" fill="#000000">fed_user_role_mapping</text>
<text text-anchor="start" x="198.5437" y="-121.1" font-family="Helvetica,sans-Serif" font-size="11.00" fill="#000000">[table]</text>
<polygon fill="none" stroke="#000000" points="10.5,-91 10.5,-113 166.5,-113 166.5,-91 10.5,-91"/>
<image xlink:href="../../images/primaryKeys.png" width="11px" height="12px" preserveAspectRatio="xMinYMin meet" x="15.5" y="-108"/>
<text text-anchor="start" x="30.5" y="-98.1" font-family="Helvetica,sans-Serif" font-size="11.00" fill="#000000">role_id</text>
<polygon fill="none" stroke="#000000" points="166.5,-91 166.5,-113 233.5,-113 233.5,-91 166.5,-91"/>
<text text-anchor="start" x="169.5" y="-98.7" font-family="Helvetica,sans-Serif" font-size="11.00" fill="#000000">varchar[36]</text>
<polygon fill="none" stroke="#000000" points="10.5,-69 10.5,-91 166.5,-91 166.5,-69 10.5,-69"/>
<image xlink:href="../../images/primaryKeys.png" width="11px" height="12px" preserveAspectRatio="xMinYMin meet" x="15.5" y="-86"/>
<text text-anchor="start" x="30.5" y="-76.1" font-family="Helvetica,sans-Serif" font-size="11.00" fill="#000000">user_id</text>
<polygon fill="none" stroke="#000000" points="166.5,-69 166.5,-91 233.5,-91 233.5,-69 166.5,-69"/>
<text text-anchor="start" x="169.4365" y="-76.7" font-family="Helvetica,sans-Serif" font-size="11.00" fill="#000000">varchar[255]</text>
<polygon fill="#ffffff" stroke="transparent" points="10.5,-47 10.5,-69 166.5,-69 166.5,-47 10.5,-47"/>
<polygon fill="none" stroke="#000000" points="10.5,-47 10.5,-69 166.5,-69 166.5,-47 10.5,-47"/>
<text text-anchor="start" x="30.5" y="-54.1" font-family="Helvetica,sans-Serif" font-size="11.00" fill="#000000">realm_id</text>
<polygon fill="none" stroke="#000000" points="166.5,-47 166.5,-69 233.5,-69 233.5,-47 166.5,-47"/>
<text text-anchor="start" x="169.5" y="-54.7" font-family="Helvetica,sans-Serif" font-size="11.00" fill="#000000">varchar[36]</text>
<polygon fill="none" stroke="#000000" points="10.5,-25 10.5,-47 166.5,-47 166.5,-25 10.5,-25"/>
<text text-anchor="start" x="30.5" y="-32.1" font-family="Helvetica,sans-Serif" font-size="11.00" fill="#000000">storage_provider_id</text>
<polygon fill="none" stroke="#000000" points="166.5,-25 166.5,-47 233.5,-47 233.5,-25 166.5,-25"/>
<text text-anchor="start" x="169.5" y="-32.7" font-family="Helvetica,sans-Serif" font-size="11.00" fill="#000000">varchar[36]</text>
<polygon fill="#ffffff" stroke="transparent" points="10.5,-6 10.5,-25 79.5,-25 79.5,-6 10.5,-6"/>
<polygon fill="none" stroke="#000000" points="10.5,-6 10.5,-25 79.5,-25 79.5,-6 10.5,-6"/>
<text text-anchor="start" x="13.5" y="-12.1" font-family="Helvetica,sans-Serif" font-size="11.00" fill="#000000">&lt; 0</text>
<polygon fill="#ffffff" stroke="transparent" points="79.5,-6 79.5,-25 166.5,-25 166.5,-6 79.5,-6"/>
<polygon fill="none" stroke="#000000" points="79.5,-6 79.5,-25 166.5,-25 166.5,-6 79.5,-6"/>
<text text-anchor="start" x="131.1105" y="-12.1" font-family="Helvetica,sans-Serif" font-size="11.00" fill="#000000">0 rows</text>
<polygon fill="#ffffff" stroke="transparent" points="166.5,-6 166.5,-25 233.5,-25 233.5,-6 166.5,-6"/>
<polygon fill="none" stroke="#000000" points="166.5,-6 166.5,-25 233.5,-25 233.5,-6 166.5,-6"/>
<text text-anchor="start" x="214.9053" y="-12.1" font-family="Helvetica,sans-Serif" font-size="11.00" fill="#000000">0 &gt;</text>
<polygon fill="none" stroke="#000000" stroke-width="2" points="9,-5 9,-137 234,-137 234,-5 9,-5"/>
</a>
</g>
</g>
</g>
</svg>
