<?xml version="1.0" encoding="UTF-8" standalone="no"?>
<!DOCTYPE svg PUBLIC "-//W3C//DTD SVG 1.1//EN"
 "http://www.w3.org/Graphics/SVG/1.1/DTD/svg11.dtd">
<!-- Generated by graphviz version 2.40.1 (20161225.0304)
 -->
<!-- Title: fed_user_consent Pages: 1 -->
<svg width="252pt" height="260pt"
 viewBox="0.00 0.00 252.00 260.00" xmlns="http://www.w3.org/2000/svg" xmlns:xlink="http://www.w3.org/1999/xlink">
<g id="graph0" class="graph" transform="scale(1 1) rotate(0) translate(4 256)">
<title>fed_user_consent</title>
<polygon fill="#ffffff" stroke="transparent" points="-4,4 -4,-256 248,-256 248,4 -4,4"/>
<!-- fed_user_consent -->
<g id="node1" class="node">
<title>fed_user_consent</title>
<g id="a_node1"><a xlink:href="../../tables/fed_user_consent.html" xlink:title="fed_user_consent" target="_top">
<polygon fill="#ffffff" stroke="transparent" points="8,-4 8,-248 236,-248 236,-4 8,-4"/>
<polygon fill="#f5f5f5" stroke="transparent" points="10,-223 10,-246 234,-246 234,-223 10,-223"/>
<polygon fill="none" stroke="#000000" points="10,-223 10,-246 234,-246 234,-223 10,-223"/>
<text text-anchor="start" x="15" y="-232.1" font-family="Helvetica,sans-Serif" font-weight="bold" font-size="11.00" fill="#000000">fed_user_consent</text>
<text text-anchor="start" x="199.0437" y="-231.1" font-family="Helvetica,sans-Serif" font-size="11.00" fill="#000000">[table]</text>
<polygon fill="none" stroke="#000000" points="10,-201 10,-223 167,-223 167,-201 10,-201"/>
<image xlink:href="../../images/primaryKeys.png" width="11px" height="12px" preserveAspectRatio="xMinYMin meet" x="15" y="-218"/>
<text text-anchor="start" x="30" y="-208.1" font-family="Helvetica,sans-Serif" font-size="11.00" fill="#000000">id</text>
<polygon fill="none" stroke="#000000" points="167,-201 167,-223 234,-223 234,-201 167,-201"/>
<text text-anchor="start" x="170" y="-208.7" font-family="Helvetica,sans-Serif" font-size="11.00" fill="#000000">varchar[36]</text>
<polygon fill="#ffffff" stroke="transparent" points="10,-179 10,-201 167,-201 167,-179 10,-179"/>
<polygon fill="none" stroke="#000000" points="10,-179 10,-201 167,-201 167,-179 10,-179"/>
<image xlink:href="../../images/foreignKeys.png" width="11px" height="12px" preserveAspectRatio="xMinYMin meet" x="15" y="-196"/>
<text text-anchor="start" x="30" y="-186.1" font-family="Helvetica,sans-Serif" font-size="11.00" fill="#000000">client_id</text>
<polygon fill="none" stroke="#000000" points="167,-179 167,-201 234,-201 234,-179 167,-179"/>
<text text-anchor="start" x="169.9365" y="-186.7" font-family="Helvetica,sans-Serif" font-size="11.00" fill="#000000">varchar[255]</text>
<polygon fill="#ffffff" stroke="transparent" points="10,-157 10,-179 167,-179 167,-157 10,-157"/>
<polygon fill="none" stroke="#000000" points="10,-157 10,-179 167,-179 167,-157 10,-157"/>
<image xlink:href="../../images/foreignKeys.png" width="11px" height="12px" preserveAspectRatio="xMinYMin meet" x="15" y="-174"/>
<text text-anchor="start" x="30" y="-164.1" font-family="Helvetica,sans-Serif" font-size="11.00" fill="#000000">user_id</text>
<polygon fill="none" stroke="#000000" points="167,-157 167,-179 234,-179 234,-157 167,-157"/>
<text text-anchor="start" x="169.9365" y="-164.7" font-family="Helvetica,sans-Serif" font-size="11.00" fill="#000000">varchar[255]</text>
<polygon fill="#ffffff" stroke="transparent" points="10,-135 10,-157 167,-157 167,-135 10,-135"/>
<polygon fill="none" stroke="#000000" points="10,-135 10,-157 167,-157 167,-135 10,-135"/>
<text text-anchor="start" x="30" y="-142.1" font-family="Helvetica,sans-Serif" font-size="11.00" fill="#000000">realm_id</text>
<polygon fill="none" stroke="#000000" points="167,-135 167,-157 234,-157 234,-135 167,-135"/>
<text text-anchor="start" x="170" y="-142.7" font-family="Helvetica,sans-Serif" font-size="11.00" fill="#000000">varchar[36]</text>
<polygon fill="none" stroke="#000000" points="10,-113 10,-135 167,-135 167,-113 10,-113"/>
<text text-anchor="start" x="30" y="-120.1" font-family="Helvetica,sans-Serif" font-size="11.00" fill="#000000">storage_provider_id</text>
<polygon fill="none" stroke="#000000" points="167,-113 167,-135 234,-135 234,-113 167,-113"/>
<text text-anchor="start" x="170" y="-120.7" font-family="Helvetica,sans-Serif" font-size="11.00" fill="#000000">varchar[36]</text>
<polygon fill="none" stroke="#000000" points="10,-91 10,-113 167,-113 167,-91 10,-91"/>
<text text-anchor="start" x="30" y="-98.1" font-family="Helvetica,sans-Serif" font-size="11.00" fill="#000000">created_date</text>
<polygon fill="none" stroke="#000000" points="167,-91 167,-113 234,-113 234,-91 167,-91"/>
<text text-anchor="start" x="170" y="-98.7" font-family="Helvetica,sans-Serif" font-size="11.00" fill="#000000">int8[19]</text>
<polygon fill="none" stroke="#000000" points="10,-69 10,-91 167,-91 167,-69 10,-69"/>
<text text-anchor="start" x="30" y="-76.1" font-family="Helvetica,sans-Serif" font-size="11.00" fill="#000000">last_updated_date</text>
<polygon fill="none" stroke="#000000" points="167,-69 167,-91 234,-91 234,-69 167,-69"/>
<text text-anchor="start" x="170" y="-76.7" font-family="Helvetica,sans-Serif" font-size="11.00" fill="#000000">int8[19]</text>
<polygon fill="#ffffff" stroke="transparent" points="10,-47 10,-69 167,-69 167,-47 10,-47"/>
<polygon fill="none" stroke="#000000" points="10,-47 10,-69 167,-69 167,-47 10,-47"/>
<text text-anchor="start" x="30" y="-54.1" font-family="Helvetica,sans-Serif" font-size="11.00" fill="#000000">client_storage_provider</text>
<polygon fill="none" stroke="#000000" points="167,-47 167,-69 234,-69 234,-47 167,-47"/>
<text text-anchor="start" x="170" y="-54.7" font-family="Helvetica,sans-Serif" font-size="11.00" fill="#000000">varchar[36]</text>
<polygon fill="#ffffff" stroke="transparent" points="10,-25 10,-47 167,-47 167,-25 10,-25"/>
<polygon fill="none" stroke="#000000" points="10,-25 10,-47 167,-47 167,-25 10,-25"/>
<image xlink:href="../../images/foreignKeys.png" width="11px" height="12px" preserveAspectRatio="xMinYMin meet" x="15" y="-42"/>
<text text-anchor="start" x="30" y="-32.1" font-family="Helvetica,sans-Serif" font-size="11.00" fill="#000000">external_client_id</text>
<polygon fill="none" stroke="#000000" points="167,-25 167,-47 234,-47 234,-25 167,-25"/>
<text text-anchor="start" x="169.9365" y="-32.7" font-family="Helvetica,sans-Serif" font-size="11.00" fill="#000000">varchar[255]</text>
<polygon fill="#ffffff" stroke="transparent" points="10,-6 10,-25 80,-25 80,-6 10,-6"/>
<polygon fill="none" stroke="#000000" points="10,-6 10,-25 80,-25 80,-6 10,-6"/>
<text text-anchor="start" x="13" y="-12.1" font-family="Helvetica,sans-Serif" font-size="11.00" fill="#000000">&lt; 0</text>
<polygon fill="#ffffff" stroke="transparent" points="80,-6 80,-25 167,-25 167,-6 80,-6"/>
<polygon fill="none" stroke="#000000" points="80,-6 80,-25 167,-25 167,-6 80,-6"/>
<text text-anchor="start" x="131.6105" y="-12.1" font-family="Helvetica,sans-Serif" font-size="11.00" fill="#000000">0 rows</text>
<polygon fill="#ffffff" stroke="transparent" points="167,-6 167,-25 234,-25 234,-6 167,-6"/>
<polygon fill="none" stroke="#000000" points="167,-6 167,-25 234,-25 234,-6 167,-6"/>
<text text-anchor="start" x="215.4053" y="-12.1" font-family="Helvetica,sans-Serif" font-size="11.00" fill="#000000">0 &gt;</text>
<polygon fill="none" stroke="#000000" stroke-width="2" points="9,-5 9,-247 235,-247 235,-5 9,-5"/>
</a>
</g>
</g>
</g>
</svg>
