<?xml version="1.0" encoding="UTF-8" standalone="no"?>
<!DOCTYPE svg PUBLIC "-//W3C//DTD SVG 1.1//EN"
 "http://www.w3.org/Graphics/SVG/1.1/DTD/svg11.dtd">
<!-- Generated by graphviz version 2.40.1 (20161225.0304)
 -->
<!-- Title: fed_user_group_membership Pages: 1 -->
<svg width="284pt" height="150pt"
 viewBox="0.00 0.00 284.00 150.00" xmlns="http://www.w3.org/2000/svg" xmlns:xlink="http://www.w3.org/1999/xlink">
<g id="graph0" class="graph" transform="scale(1 1) rotate(0) translate(4 146)">
<title>fed_user_group_membership</title>
<polygon fill="#ffffff" stroke="transparent" points="-4,4 -4,-146 280,-146 280,4 -4,4"/>
<!-- fed_user_group_membership -->
<g id="node1" class="node">
<title>fed_user_group_membership</title>
<g id="a_node1"><a xlink:href="../../tables/fed_user_group_membership.html" xlink:title="fed_user_group_membership" target="_top">
<polygon fill="#ffffff" stroke="transparent" points="8,-4 8,-138 268,-138 268,-4 8,-4"/>
<polygon fill="#f5f5f5" stroke="transparent" points="10,-113 10,-136 266,-136 266,-113 10,-113"/>
<polygon fill="none" stroke="#000000" points="10,-113 10,-136 266,-136 266,-113 10,-113"/>
<text text-anchor="start" x="15" y="-122.1" font-family="Helvetica,sans-Serif" font-weight="bold" font-size="11.00" fill="#000000">fed_user_group_membership</text>
<text text-anchor="start" x="231.0437" y="-121.1" font-family="Helvetica,sans-Serif" font-size="11.00" fill="#000000">[table]</text>
<polygon fill="none" stroke="#000000" points="10,-91 10,-113 199,-113 199,-91 10,-91"/>
<image xlink:href="../../images/primaryKeys.png" width="11px" height="12px" preserveAspectRatio="xMinYMin meet" x="15" y="-108"/>
<text text-anchor="start" x="30" y="-98.1" font-family="Helvetica,sans-Serif" font-size="11.00" fill="#000000">group_id</text>
<polygon fill="none" stroke="#000000" points="199,-91 199,-113 266,-113 266,-91 199,-91"/>
<text text-anchor="start" x="202" y="-98.7" font-family="Helvetica,sans-Serif" font-size="11.00" fill="#000000">varchar[36]</text>
<polygon fill="none" stroke="#000000" points="10,-69 10,-91 199,-91 199,-69 10,-69"/>
<image xlink:href="../../images/primaryKeys.png" width="11px" height="12px" preserveAspectRatio="xMinYMin meet" x="15" y="-86"/>
<text text-anchor="start" x="30" y="-76.1" font-family="Helvetica,sans-Serif" font-size="11.00" fill="#000000">user_id</text>
<polygon fill="none" stroke="#000000" points="199,-69 199,-91 266,-91 266,-69 199,-69"/>
<text text-anchor="start" x="201.9365" y="-76.7" font-family="Helvetica,sans-Serif" font-size="11.00" fill="#000000">varchar[255]</text>
<polygon fill="#ffffff" stroke="transparent" points="10,-47 10,-69 199,-69 199,-47 10,-47"/>
<polygon fill="none" stroke="#000000" points="10,-47 10,-69 199,-69 199,-47 10,-47"/>
<text text-anchor="start" x="30" y="-54.1" font-family="Helvetica,sans-Serif" font-size="11.00" fill="#000000">realm_id</text>
<polygon fill="none" stroke="#000000" points="199,-47 199,-69 266,-69 266,-47 199,-47"/>
<text text-anchor="start" x="202" y="-54.7" font-family="Helvetica,sans-Serif" font-size="11.00" fill="#000000">varchar[36]</text>
<polygon fill="none" stroke="#000000" points="10,-25 10,-47 199,-47 199,-25 10,-25"/>
<text text-anchor="start" x="30" y="-32.1" font-family="Helvetica,sans-Serif" font-size="11.00" fill="#000000">storage_provider_id</text>
<polygon fill="none" stroke="#000000" points="199,-25 199,-47 266,-47 266,-25 199,-25"/>
<text text-anchor="start" x="202" y="-32.7" font-family="Helvetica,sans-Serif" font-size="11.00" fill="#000000">varchar[36]</text>
<polygon fill="#ffffff" stroke="transparent" points="10,-6 10,-25 96,-25 96,-6 10,-6"/>
<polygon fill="none" stroke="#000000" points="10,-6 10,-25 96,-25 96,-6 10,-6"/>
<text text-anchor="start" x="13" y="-12.1" font-family="Helvetica,sans-Serif" font-size="11.00" fill="#000000">&lt; 0</text>
<polygon fill="#ffffff" stroke="transparent" points="96,-6 96,-25 199,-25 199,-6 96,-6"/>
<polygon fill="none" stroke="#000000" points="96,-6 96,-25 199,-25 199,-6 96,-6"/>
<text text-anchor="start" x="163.6105" y="-12.1" font-family="Helvetica,sans-Serif" font-size="11.00" fill="#000000">0 rows</text>
<polygon fill="#ffffff" stroke="transparent" points="199,-6 199,-25 266,-25 266,-6 199,-6"/>
<polygon fill="none" stroke="#000000" points="199,-6 199,-25 266,-25 266,-6 199,-6"/>
<text text-anchor="start" x="247.4053" y="-12.1" font-family="Helvetica,sans-Serif" font-size="11.00" fill="#000000">0 &gt;</text>
<polygon fill="none" stroke="#000000" stroke-width="2" points="9,-5 9,-137 267,-137 267,-5 9,-5"/>
</a>
</g>
</g>
</g>
</svg>
