<?xml version="1.0" encoding="UTF-8" standalone="no"?>
<!DOCTYPE svg PUBLIC "-//W3C//DTD SVG 1.1//EN"
 "http://www.w3.org/Graphics/SVG/1.1/DTD/svg11.dtd">
<!-- Generated by graphviz version 2.40.1 (20161225.0304)
 -->
<!-- Title: fed_user_consent_cl_scope Pages: 1 -->
<svg width="270pt" height="106pt"
 viewBox="0.00 0.00 270.00 106.00" xmlns="http://www.w3.org/2000/svg" xmlns:xlink="http://www.w3.org/1999/xlink">
<g id="graph0" class="graph" transform="scale(1 1) rotate(0) translate(4 102)">
<title>fed_user_consent_cl_scope</title>
<polygon fill="#ffffff" stroke="transparent" points="-4,4 -4,-102 266,-102 266,4 -4,4"/>
<!-- fed_user_consent_cl_scope -->
<g id="node1" class="node">
<title>fed_user_consent_cl_scope</title>
<g id="a_node1"><a xlink:href="../../tables/fed_user_consent_cl_scope.html" xlink:title="fed_user_consent_cl_scope" target="_top">
<polygon fill="#ffffff" stroke="transparent" points="8,-4 8,-94 254,-94 254,-4 8,-4"/>
<polygon fill="#f5f5f5" stroke="transparent" points="10,-69 10,-92 252,-92 252,-69 10,-69"/>
<polygon fill="none" stroke="#000000" points="10,-69 10,-92 252,-92 252,-69 10,-69"/>
<text text-anchor="start" x="15" y="-78.1" font-family="Helvetica,sans-Serif" font-weight="bold" font-size="11.00" fill="#000000">fed_user_consent_cl_scope</text>
<text text-anchor="start" x="217.0437" y="-77.1" font-family="Helvetica,sans-Serif" font-size="11.00" fill="#000000">[table]</text>
<polygon fill="none" stroke="#000000" points="10,-47 10,-69 191,-69 191,-47 10,-47"/>
<image xlink:href="../../images/primaryKeys.png" width="11px" height="12px" preserveAspectRatio="xMinYMin meet" x="15" y="-64"/>
<text text-anchor="start" x="30" y="-54.1" font-family="Helvetica,sans-Serif" font-size="11.00" fill="#000000">user_consent_id</text>
<polygon fill="none" stroke="#000000" points="191,-47 191,-69 252,-69 252,-47 191,-47"/>
<text text-anchor="start" x="193.994" y="-54.7" font-family="Helvetica,sans-Serif" font-size="11.00" fill="#000000">varchar[36]</text>
<polygon fill="none" stroke="#000000" points="10,-25 10,-47 191,-47 191,-25 10,-25"/>
<image xlink:href="../../images/primaryKeys.png" width="11px" height="12px" preserveAspectRatio="xMinYMin meet" x="15" y="-42"/>
<text text-anchor="start" x="30" y="-32.1" font-family="Helvetica,sans-Serif" font-size="11.00" fill="#000000">scope_id</text>
<polygon fill="none" stroke="#000000" points="191,-25 191,-47 252,-47 252,-25 191,-25"/>
<text text-anchor="start" x="193.994" y="-32.7" font-family="Helvetica,sans-Serif" font-size="11.00" fill="#000000">varchar[36]</text>
<polygon fill="#ffffff" stroke="transparent" points="10,-6 10,-25 92,-25 92,-6 10,-6"/>
<polygon fill="none" stroke="#000000" points="10,-6 10,-25 92,-25 92,-6 10,-6"/>
<text text-anchor="start" x="13" y="-12.1" font-family="Helvetica,sans-Serif" font-size="11.00" fill="#000000">&lt; 0</text>
<polygon fill="#ffffff" stroke="transparent" points="92,-6 92,-25 191,-25 191,-6 92,-6"/>
<polygon fill="none" stroke="#000000" points="92,-6 92,-25 191,-25 191,-6 92,-6"/>
<text text-anchor="start" x="155.6105" y="-12.1" font-family="Helvetica,sans-Serif" font-size="11.00" fill="#000000">0 rows</text>
<polygon fill="#ffffff" stroke="transparent" points="191,-6 191,-25 252,-25 252,-6 191,-6"/>
<polygon fill="none" stroke="#000000" points="191,-6 191,-25 252,-25 252,-6 191,-6"/>
<text text-anchor="start" x="233.4053" y="-12.1" font-family="Helvetica,sans-Serif" font-size="11.00" fill="#000000">0 &gt;</text>
<polygon fill="none" stroke="#000000" stroke-width="2" points="9,-5 9,-93 253,-93 253,-5 9,-5"/>
</a>
</g>
</g>
</g>
</svg>
