<?xml version="1.0" encoding="UTF-8" standalone="no"?>
<!DOCTYPE svg PUBLIC "-//W3C//DTD SVG 1.1//EN"
 "http://www.w3.org/Graphics/SVG/1.1/DTD/svg11.dtd">
<!-- Generated by graphviz version 2.40.1 (20161225.0304)
 -->
<!-- Title: fed_user_credential Pages: 1 -->
<svg width="264pt" height="304pt"
 viewBox="0.00 0.00 264.00 304.00" xmlns="http://www.w3.org/2000/svg" xmlns:xlink="http://www.w3.org/1999/xlink">
<g id="graph0" class="graph" transform="scale(1 1) rotate(0) translate(4 300)">
<title>fed_user_credential</title>
<polygon fill="#ffffff" stroke="transparent" points="-4,4 -4,-300 260,-300 260,4 -4,4"/>
<!-- fed_user_credential -->
<g id="node1" class="node">
<title>fed_user_credential</title>
<g id="a_node1"><a xlink:href="../../tables/fed_user_credential.html" xlink:title="fed_user_credential" target="_top">
<polygon fill="#ffffff" stroke="transparent" points="8,-4 8,-292 248,-292 248,-4 8,-4"/>
<polygon fill="#f5f5f5" stroke="transparent" points="10,-267 10,-290 246,-290 246,-267 10,-267"/>
<polygon fill="none" stroke="#000000" points="10,-267 10,-290 246,-290 246,-267 10,-267"/>
<text text-anchor="start" x="15" y="-276.1" font-family="Helvetica,sans-Serif" font-weight="bold" font-size="11.00" fill="#000000">fed_user_credential</text>
<text text-anchor="start" x="211.0437" y="-275.1" font-family="Helvetica,sans-Serif" font-size="11.00" fill="#000000">[table]</text>
<polygon fill="none" stroke="#000000" points="10,-245 10,-267 146,-267 146,-245 10,-245"/>
<image xlink:href="../../images/primaryKeys.png" width="11px" height="12px" preserveAspectRatio="xMinYMin meet" x="15" y="-262"/>
<text text-anchor="start" x="30" y="-252.1" font-family="Helvetica,sans-Serif" font-size="11.00" fill="#000000">id</text>
<polygon fill="none" stroke="#000000" points="146,-245 146,-267 246,-267 246,-245 146,-245"/>
<text text-anchor="start" x="149" y="-252.7" font-family="Helvetica,sans-Serif" font-size="11.00" fill="#000000">varchar[36]</text>
<polygon fill="none" stroke="#000000" points="10,-223 10,-245 146,-245 146,-223 10,-223"/>
<text text-anchor="start" x="30" y="-230.1" font-family="Helvetica,sans-Serif" font-size="11.00" fill="#000000">salt</text>
<polygon fill="none" stroke="#000000" points="146,-223 146,-245 246,-245 246,-223 146,-223"/>
<text text-anchor="start" x="148.9178" y="-230.7" font-family="Helvetica,sans-Serif" font-size="11.00" fill="#000000">bytea[2147483647]</text>
<polygon fill="#ffffff" stroke="transparent" points="10,-201 10,-223 146,-223 146,-201 10,-201"/>
<polygon fill="none" stroke="#000000" points="10,-201 10,-223 146,-223 146,-201 10,-201"/>
<text text-anchor="start" x="30" y="-208.1" font-family="Helvetica,sans-Serif" font-size="11.00" fill="#000000">type</text>
<polygon fill="none" stroke="#000000" points="146,-201 146,-223 246,-223 246,-201 146,-201"/>
<text text-anchor="start" x="149" y="-208.7" font-family="Helvetica,sans-Serif" font-size="11.00" fill="#000000">varchar[255]</text>
<polygon fill="none" stroke="#000000" points="10,-179 10,-201 146,-201 146,-179 10,-179"/>
<text text-anchor="start" x="30" y="-186.1" font-family="Helvetica,sans-Serif" font-size="11.00" fill="#000000">created_date</text>
<polygon fill="none" stroke="#000000" points="146,-179 146,-201 246,-201 246,-179 146,-179"/>
<text text-anchor="start" x="149" y="-186.7" font-family="Helvetica,sans-Serif" font-size="11.00" fill="#000000">int8[19]</text>
<polygon fill="#ffffff" stroke="transparent" points="10,-157 10,-179 146,-179 146,-157 10,-157"/>
<polygon fill="none" stroke="#000000" points="10,-157 10,-179 146,-179 146,-157 10,-157"/>
<image xlink:href="../../images/foreignKeys.png" width="11px" height="12px" preserveAspectRatio="xMinYMin meet" x="15" y="-174"/>
<text text-anchor="start" x="30" y="-164.1" font-family="Helvetica,sans-Serif" font-size="11.00" fill="#000000">user_id</text>
<polygon fill="none" stroke="#000000" points="146,-157 146,-179 246,-179 246,-157 146,-157"/>
<text text-anchor="start" x="149" y="-164.7" font-family="Helvetica,sans-Serif" font-size="11.00" fill="#000000">varchar[255]</text>
<polygon fill="#ffffff" stroke="transparent" points="10,-135 10,-157 146,-157 146,-135 10,-135"/>
<polygon fill="none" stroke="#000000" points="10,-135 10,-157 146,-157 146,-135 10,-135"/>
<text text-anchor="start" x="30" y="-142.1" font-family="Helvetica,sans-Serif" font-size="11.00" fill="#000000">realm_id</text>
<polygon fill="none" stroke="#000000" points="146,-135 146,-157 246,-157 246,-135 146,-135"/>
<text text-anchor="start" x="149" y="-142.7" font-family="Helvetica,sans-Serif" font-size="11.00" fill="#000000">varchar[36]</text>
<polygon fill="none" stroke="#000000" points="10,-113 10,-135 146,-135 146,-113 10,-113"/>
<text text-anchor="start" x="30" y="-120.1" font-family="Helvetica,sans-Serif" font-size="11.00" fill="#000000">storage_provider_id</text>
<polygon fill="none" stroke="#000000" points="146,-113 146,-135 246,-135 246,-113 146,-113"/>
<text text-anchor="start" x="149" y="-120.7" font-family="Helvetica,sans-Serif" font-size="11.00" fill="#000000">varchar[36]</text>
<polygon fill="none" stroke="#000000" points="10,-91 10,-113 146,-113 146,-91 10,-91"/>
<text text-anchor="start" x="30" y="-98.1" font-family="Helvetica,sans-Serif" font-size="11.00" fill="#000000">user_label</text>
<polygon fill="none" stroke="#000000" points="146,-91 146,-113 246,-113 246,-91 146,-91"/>
<text text-anchor="start" x="149" y="-98.7" font-family="Helvetica,sans-Serif" font-size="11.00" fill="#000000">varchar[255]</text>
<polygon fill="none" stroke="#000000" points="10,-69 10,-91 146,-91 146,-69 10,-69"/>
<text text-anchor="start" x="30" y="-76.1" font-family="Helvetica,sans-Serif" font-size="11.00" fill="#000000">secret_data</text>
<polygon fill="none" stroke="#000000" points="146,-69 146,-91 246,-91 246,-69 146,-69"/>
<text text-anchor="start" x="149" y="-76.7" font-family="Helvetica,sans-Serif" font-size="11.00" fill="#000000">text[2147483647]</text>
<polygon fill="none" stroke="#000000" points="10,-47 10,-69 146,-69 146,-47 10,-47"/>
<text text-anchor="start" x="30" y="-54.1" font-family="Helvetica,sans-Serif" font-size="11.00" fill="#000000">credential_data</text>
<polygon fill="none" stroke="#000000" points="146,-47 146,-69 246,-69 246,-47 146,-47"/>
<text text-anchor="start" x="149" y="-54.7" font-family="Helvetica,sans-Serif" font-size="11.00" fill="#000000">text[2147483647]</text>
<polygon fill="none" stroke="#000000" points="10,-25 10,-47 146,-47 146,-25 10,-25"/>
<text text-anchor="start" x="30" y="-32.1" font-family="Helvetica,sans-Serif" font-size="11.00" fill="#000000">priority</text>
<polygon fill="none" stroke="#000000" points="146,-25 146,-47 246,-47 246,-25 146,-25"/>
<text text-anchor="start" x="149" y="-32.7" font-family="Helvetica,sans-Serif" font-size="11.00" fill="#000000">int4[10]</text>
<polygon fill="#ffffff" stroke="transparent" points="10,-6 10,-25 69,-25 69,-6 10,-6"/>
<polygon fill="none" stroke="#000000" points="10,-6 10,-25 69,-25 69,-6 10,-6"/>
<text text-anchor="start" x="13" y="-12.1" font-family="Helvetica,sans-Serif" font-size="11.00" fill="#000000">&lt; 0</text>
<polygon fill="#ffffff" stroke="transparent" points="69,-6 69,-25 146,-25 146,-6 69,-6"/>
<polygon fill="none" stroke="#000000" points="69,-6 69,-25 146,-25 146,-6 69,-6"/>
<text text-anchor="start" x="110.6105" y="-12.1" font-family="Helvetica,sans-Serif" font-size="11.00" fill="#000000">0 rows</text>
<polygon fill="#ffffff" stroke="transparent" points="146,-6 146,-25 246,-25 246,-6 146,-6"/>
<polygon fill="none" stroke="#000000" points="146,-6 146,-25 246,-25 246,-6 146,-6"/>
<text text-anchor="start" x="227.4053" y="-12.1" font-family="Helvetica,sans-Serif" font-size="11.00" fill="#000000">0 &gt;</text>
<polygon fill="none" stroke="#000000" stroke-width="2" points="9,-5 9,-291 247,-291 247,-5 9,-5"/>
</a>
</g>
</g>
</g>
</svg>
