<?xml version="1.0" encoding="UTF-8" standalone="no"?>
<!DOCTYPE svg PUBLIC "-//W3C//DTD SVG 1.1//EN"
 "http://www.w3.org/Graphics/SVG/1.1/DTD/svg11.dtd">
<!-- Generated by graphviz version 2.40.1 (20161225.0304)
 -->
<!-- Title: offline_client_session Pages: 1 -->
<svg width="275pt" height="216pt"
 viewBox="0.00 0.00 275.00 216.00" xmlns="http://www.w3.org/2000/svg" xmlns:xlink="http://www.w3.org/1999/xlink">
<g id="graph0" class="graph" transform="scale(1 1) rotate(0) translate(4 212)">
<title>offline_client_session</title>
<polygon fill="#ffffff" stroke="transparent" points="-4,4 -4,-212 271,-212 271,4 -4,4"/>
<!-- offline_client_session -->
<g id="node1" class="node">
<title>offline_client_session</title>
<g id="a_node1"><a xlink:href="../../tables/offline_client_session.html" xlink:title="offline_client_session" target="_top">
<polygon fill="#ffffff" stroke="transparent" points="8,-4 8,-204 259,-204 259,-4 8,-4"/>
<polygon fill="#f5f5f5" stroke="transparent" points="10.5,-179 10.5,-202 257.5,-202 257.5,-179 10.5,-179"/>
<polygon fill="none" stroke="#000000" points="10.5,-179 10.5,-202 257.5,-202 257.5,-179 10.5,-179"/>
<text text-anchor="start" x="15.5" y="-188.1" font-family="Helvetica,sans-Serif" font-weight="bold" font-size="11.00" fill="#000000">offline_client_session</text>
<text text-anchor="start" x="222.5437" y="-187.1" font-family="Helvetica,sans-Serif" font-size="11.00" fill="#000000">[table]</text>
<polygon fill="none" stroke="#000000" points="10.5,-157 10.5,-179 167.5,-179 167.5,-157 10.5,-157"/>
<image xlink:href="../../images/primaryKeys.png" width="11px" height="12px" preserveAspectRatio="xMinYMin meet" x="15.5" y="-174"/>
<text text-anchor="start" x="30.5" y="-164.1" font-family="Helvetica,sans-Serif" font-size="11.00" fill="#000000">user_session_id</text>
<polygon fill="none" stroke="#000000" points="167.5,-157 167.5,-179 257.5,-179 257.5,-157 167.5,-157"/>
<text text-anchor="start" x="170.5" y="-164.7" font-family="Helvetica,sans-Serif" font-size="11.00" fill="#000000">varchar[36]</text>
<polygon fill="none" stroke="#000000" points="10.5,-135 10.5,-157 167.5,-157 167.5,-135 10.5,-135"/>
<image xlink:href="../../images/primaryKeys.png" width="11px" height="12px" preserveAspectRatio="xMinYMin meet" x="15.5" y="-152"/>
<text text-anchor="start" x="30.5" y="-142.1" font-family="Helvetica,sans-Serif" font-size="11.00" fill="#000000">client_id</text>
<polygon fill="none" stroke="#000000" points="167.5,-135 167.5,-157 257.5,-157 257.5,-135 167.5,-135"/>
<text text-anchor="start" x="170.5" y="-142.7" font-family="Helvetica,sans-Serif" font-size="11.00" fill="#000000">varchar[255]</text>
<polygon fill="none" stroke="#000000" points="10.5,-113 10.5,-135 167.5,-135 167.5,-113 10.5,-113"/>
<image xlink:href="../../images/primaryKeys.png" width="11px" height="12px" preserveAspectRatio="xMinYMin meet" x="15.5" y="-130"/>
<text text-anchor="start" x="30.5" y="-120.1" font-family="Helvetica,sans-Serif" font-size="11.00" fill="#000000">offline_flag</text>
<polygon fill="none" stroke="#000000" points="167.5,-113 167.5,-135 257.5,-135 257.5,-113 167.5,-113"/>
<text text-anchor="start" x="170.5" y="-120.7" font-family="Helvetica,sans-Serif" font-size="11.00" fill="#000000">varchar[4]</text>
<polygon fill="none" stroke="#000000" points="10.5,-91 10.5,-113 167.5,-113 167.5,-91 10.5,-91"/>
<text text-anchor="start" x="30.5" y="-98.1" font-family="Helvetica,sans-Serif" font-size="11.00" fill="#000000">timestamp</text>
<polygon fill="none" stroke="#000000" points="167.5,-91 167.5,-113 257.5,-113 257.5,-91 167.5,-91"/>
<text text-anchor="start" x="170.5" y="-98.7" font-family="Helvetica,sans-Serif" font-size="11.00" fill="#000000">int4[10]</text>
<polygon fill="none" stroke="#000000" points="10.5,-69 10.5,-91 167.5,-91 167.5,-69 10.5,-69"/>
<text text-anchor="start" x="30.5" y="-76.1" font-family="Helvetica,sans-Serif" font-size="11.00" fill="#000000">data</text>
<polygon fill="none" stroke="#000000" points="167.5,-69 167.5,-91 257.5,-91 257.5,-69 167.5,-69"/>
<text text-anchor="start" x="170.0042" y="-76.7" font-family="Helvetica,sans-Serif" font-size="11.00" fill="#000000">text[2147483647]</text>
<polygon fill="none" stroke="#000000" points="10.5,-47 10.5,-69 167.5,-69 167.5,-47 10.5,-47"/>
<image xlink:href="../../images/primaryKeys.png" width="11px" height="12px" preserveAspectRatio="xMinYMin meet" x="15.5" y="-64"/>
<text text-anchor="start" x="30.5" y="-54.1" font-family="Helvetica,sans-Serif" font-size="11.00" fill="#000000">client_storage_provider</text>
<polygon fill="none" stroke="#000000" points="167.5,-47 167.5,-69 257.5,-69 257.5,-47 167.5,-47"/>
<text text-anchor="start" x="170.5" y="-54.7" font-family="Helvetica,sans-Serif" font-size="11.00" fill="#000000">varchar[36]</text>
<polygon fill="none" stroke="#000000" points="10.5,-25 10.5,-47 167.5,-47 167.5,-25 10.5,-25"/>
<image xlink:href="../../images/primaryKeys.png" width="11px" height="12px" preserveAspectRatio="xMinYMin meet" x="15.5" y="-42"/>
<text text-anchor="start" x="30.5" y="-32.1" font-family="Helvetica,sans-Serif" font-size="11.00" fill="#000000">external_client_id</text>
<polygon fill="none" stroke="#000000" points="167.5,-25 167.5,-47 257.5,-47 257.5,-25 167.5,-25"/>
<text text-anchor="start" x="170.5" y="-32.7" font-family="Helvetica,sans-Serif" font-size="11.00" fill="#000000">varchar[255]</text>
<polygon fill="#ffffff" stroke="transparent" points="10.5,-6 10.5,-25 80.5,-25 80.5,-6 10.5,-6"/>
<polygon fill="none" stroke="#000000" points="10.5,-6 10.5,-25 80.5,-25 80.5,-6 10.5,-6"/>
<text text-anchor="start" x="13.5" y="-12.1" font-family="Helvetica,sans-Serif" font-size="11.00" fill="#000000">&lt; 0</text>
<polygon fill="#ffffff" stroke="transparent" points="80.5,-6 80.5,-25 167.5,-25 167.5,-6 80.5,-6"/>
<polygon fill="none" stroke="#000000" points="80.5,-6 80.5,-25 167.5,-25 167.5,-6 80.5,-6"/>
<text text-anchor="start" x="132.1105" y="-12.1" font-family="Helvetica,sans-Serif" font-size="11.00" fill="#000000">0 rows</text>
<polygon fill="#ffffff" stroke="transparent" points="167.5,-6 167.5,-25 257.5,-25 257.5,-6 167.5,-6"/>
<polygon fill="none" stroke="#000000" points="167.5,-6 167.5,-25 257.5,-25 257.5,-6 167.5,-6"/>
<text text-anchor="start" x="238.9053" y="-12.1" font-family="Helvetica,sans-Serif" font-size="11.00" fill="#000000">0 &gt;</text>
<polygon fill="none" stroke="#000000" stroke-width="2" points="9,-5 9,-203 258,-203 258,-5 9,-5"/>
</a>
</g>
</g>
</g>
</svg>
