<?xml version="1.0" encoding="UTF-8" standalone="no"?>
<!DOCTYPE svg PUBLIC "-//W3C//DTD SVG 1.1//EN"
 "http://www.w3.org/Graphics/SVG/1.1/DTD/svg11.dtd">
<!-- Generated by graphviz version 2.40.1 (20161225.0304)
 -->
<!-- Title: required_action_config Pages: 1 -->
<svg width="271pt" height="128pt"
 viewBox="0.00 0.00 271.00 128.00" xmlns="http://www.w3.org/2000/svg" xmlns:xlink="http://www.w3.org/1999/xlink">
<g id="graph0" class="graph" transform="scale(1 1) rotate(0) translate(4 124)">
<title>required_action_config</title>
<polygon fill="#ffffff" stroke="transparent" points="-4,4 -4,-124 267,-124 267,4 -4,4"/>
<!-- required_action_config -->
<g id="node1" class="node">
<title>required_action_config</title>
<g id="a_node1"><a xlink:href="../../tables/required_action_config.html" xlink:title="required_action_config" target="_top">
<polygon fill="#ffffff" stroke="transparent" points="8,-4 8,-116 255,-116 255,-4 8,-4"/>
<polygon fill="#f5f5f5" stroke="transparent" points="10.5,-91 10.5,-114 253.5,-114 253.5,-91 10.5,-91"/>
<polygon fill="none" stroke="#000000" points="10.5,-91 10.5,-114 253.5,-114 253.5,-91 10.5,-91"/>
<text text-anchor="start" x="15.5" y="-100.1" font-family="Helvetica,sans-Serif" font-weight="bold" font-size="11.00" fill="#000000">required_action_config</text>
<text text-anchor="start" x="218.5437" y="-99.1" font-family="Helvetica,sans-Serif" font-size="11.00" fill="#000000">[table]</text>
<polygon fill="none" stroke="#000000" points="10.5,-69 10.5,-91 163.5,-91 163.5,-69 10.5,-69"/>
<image xlink:href="../../images/primaryKeys.png" width="11px" height="12px" preserveAspectRatio="xMinYMin meet" x="15.5" y="-86"/>
<text text-anchor="start" x="30.5" y="-76.1" font-family="Helvetica,sans-Serif" font-size="11.00" fill="#000000">required_action_id</text>
<polygon fill="none" stroke="#000000" points="163.5,-69 163.5,-91 253.5,-91 253.5,-69 163.5,-69"/>
<text text-anchor="start" x="166.5" y="-76.7" font-family="Helvetica,sans-Serif" font-size="11.00" fill="#000000">varchar[36]</text>
<polygon fill="none" stroke="#000000" points="10.5,-47 10.5,-69 163.5,-69 163.5,-47 10.5,-47"/>
<text text-anchor="start" x="30.5" y="-54.1" font-family="Helvetica,sans-Serif" font-size="11.00" fill="#000000">value</text>
<polygon fill="none" stroke="#000000" points="163.5,-47 163.5,-69 253.5,-69 253.5,-47 163.5,-47"/>
<text text-anchor="start" x="166.0042" y="-54.7" font-family="Helvetica,sans-Serif" font-size="11.00" fill="#000000">text[2147483647]</text>
<polygon fill="none" stroke="#000000" points="10.5,-25 10.5,-47 163.5,-47 163.5,-25 10.5,-25"/>
<image xlink:href="../../images/primaryKeys.png" width="11px" height="12px" preserveAspectRatio="xMinYMin meet" x="15.5" y="-42"/>
<text text-anchor="start" x="30.5" y="-32.1" font-family="Helvetica,sans-Serif" font-size="11.00" fill="#000000">name</text>
<polygon fill="none" stroke="#000000" points="163.5,-25 163.5,-47 253.5,-47 253.5,-25 163.5,-25"/>
<text text-anchor="start" x="166.5" y="-32.7" font-family="Helvetica,sans-Serif" font-size="11.00" fill="#000000">varchar[255]</text>
<polygon fill="#ffffff" stroke="transparent" points="10.5,-6 10.5,-25 78.5,-25 78.5,-6 10.5,-6"/>
<polygon fill="none" stroke="#000000" points="10.5,-6 10.5,-25 78.5,-25 78.5,-6 10.5,-6"/>
<text text-anchor="start" x="13.5" y="-12.1" font-family="Helvetica,sans-Serif" font-size="11.00" fill="#000000">&lt; 0</text>
<polygon fill="#ffffff" stroke="transparent" points="78.5,-6 78.5,-25 163.5,-25 163.5,-6 78.5,-6"/>
<polygon fill="none" stroke="#000000" points="78.5,-6 78.5,-25 163.5,-25 163.5,-6 78.5,-6"/>
<text text-anchor="start" x="128.1105" y="-12.1" font-family="Helvetica,sans-Serif" font-size="11.00" fill="#000000">0 rows</text>
<polygon fill="#ffffff" stroke="transparent" points="163.5,-6 163.5,-25 253.5,-25 253.5,-6 163.5,-6"/>
<polygon fill="none" stroke="#000000" points="163.5,-6 163.5,-25 253.5,-25 253.5,-6 163.5,-6"/>
<text text-anchor="start" x="234.9053" y="-12.1" font-family="Helvetica,sans-Serif" font-size="11.00" fill="#000000">0 &gt;</text>
<polygon fill="none" stroke="#000000" stroke-width="2" points="9,-5 9,-115 254,-115 254,-5 9,-5"/>
</a>
</g>
</g>
</g>
</svg>
