<?xml version="1.0" encoding="UTF-8" standalone="no"?>
<!DOCTYPE svg PUBLIC "-//W3C//DTD SVG 1.1//EN"
 "http://www.w3.org/Graphics/SVG/1.1/DTD/svg11.dtd">
<!-- Generated by graphviz version 2.40.1 (20161225.0304)
 -->
<!-- Title: username_login_failure Pages: 1 -->
<svg width="251pt" height="194pt"
 viewBox="0.00 0.00 251.00 194.00" xmlns="http://www.w3.org/2000/svg" xmlns:xlink="http://www.w3.org/1999/xlink">
<g id="graph0" class="graph" transform="scale(1 1) rotate(0) translate(4 190)">
<title>username_login_failure</title>
<polygon fill="#ffffff" stroke="transparent" points="-4,4 -4,-190 247,-190 247,4 -4,4"/>
<!-- username_login_failure -->
<g id="node1" class="node">
<title>username_login_failure</title>
<g id="a_node1"><a xlink:href="../../tables/username_login_failure.html" xlink:title="username_login_failure" target="_top">
<polygon fill="#ffffff" stroke="transparent" points="8,-4 8,-182 235,-182 235,-4 8,-4"/>
<polygon fill="#f5f5f5" stroke="transparent" points="10.5,-157 10.5,-180 233.5,-180 233.5,-157 10.5,-157"/>
<polygon fill="none" stroke="#000000" points="10.5,-157 10.5,-180 233.5,-180 233.5,-157 10.5,-157"/>
<text text-anchor="start" x="15.5" y="-166.1" font-family="Helvetica,sans-Serif" font-weight="bold" font-size="11.00" fill="#000000">username_login_failure</text>
<text text-anchor="start" x="198.5437" y="-165.1" font-family="Helvetica,sans-Serif" font-size="11.00" fill="#000000">[table]</text>
<polygon fill="none" stroke="#000000" points="10.5,-135 10.5,-157 166.5,-157 166.5,-135 10.5,-135"/>
<image xlink:href="../../images/primaryKeys.png" width="11px" height="12px" preserveAspectRatio="xMinYMin meet" x="15.5" y="-152"/>
<text text-anchor="start" x="30.5" y="-142.1" font-family="Helvetica,sans-Serif" font-size="11.00" fill="#000000">realm_id</text>
<polygon fill="none" stroke="#000000" points="166.5,-135 166.5,-157 233.5,-157 233.5,-135 166.5,-135"/>
<text text-anchor="start" x="169.5" y="-142.7" font-family="Helvetica,sans-Serif" font-size="11.00" fill="#000000">varchar[36]</text>
<polygon fill="none" stroke="#000000" points="10.5,-113 10.5,-135 166.5,-135 166.5,-113 10.5,-113"/>
<image xlink:href="../../images/primaryKeys.png" width="11px" height="12px" preserveAspectRatio="xMinYMin meet" x="15.5" y="-130"/>
<text text-anchor="start" x="30.5" y="-120.1" font-family="Helvetica,sans-Serif" font-size="11.00" fill="#000000">username</text>
<polygon fill="none" stroke="#000000" points="166.5,-113 166.5,-135 233.5,-135 233.5,-113 166.5,-113"/>
<text text-anchor="start" x="169.4365" y="-120.7" font-family="Helvetica,sans-Serif" font-size="11.00" fill="#000000">varchar[255]</text>
<polygon fill="none" stroke="#000000" points="10.5,-91 10.5,-113 166.5,-113 166.5,-91 10.5,-91"/>
<text text-anchor="start" x="30.5" y="-98.1" font-family="Helvetica,sans-Serif" font-size="11.00" fill="#000000">failed_login_not_before</text>
<polygon fill="none" stroke="#000000" points="166.5,-91 166.5,-113 233.5,-113 233.5,-91 166.5,-91"/>
<text text-anchor="start" x="169.5" y="-98.7" font-family="Helvetica,sans-Serif" font-size="11.00" fill="#000000">int4[10]</text>
<polygon fill="none" stroke="#000000" points="10.5,-69 10.5,-91 166.5,-91 166.5,-69 10.5,-69"/>
<text text-anchor="start" x="30.5" y="-76.1" font-family="Helvetica,sans-Serif" font-size="11.00" fill="#000000">last_failure</text>
<polygon fill="none" stroke="#000000" points="166.5,-69 166.5,-91 233.5,-91 233.5,-69 166.5,-69"/>
<text text-anchor="start" x="169.5" y="-76.7" font-family="Helvetica,sans-Serif" font-size="11.00" fill="#000000">int8[19]</text>
<polygon fill="none" stroke="#000000" points="10.5,-47 10.5,-69 166.5,-69 166.5,-47 10.5,-47"/>
<text text-anchor="start" x="30.5" y="-54.1" font-family="Helvetica,sans-Serif" font-size="11.00" fill="#000000">last_ip_failure</text>
<polygon fill="none" stroke="#000000" points="166.5,-47 166.5,-69 233.5,-69 233.5,-47 166.5,-47"/>
<text text-anchor="start" x="169.4365" y="-54.7" font-family="Helvetica,sans-Serif" font-size="11.00" fill="#000000">varchar[255]</text>
<polygon fill="none" stroke="#000000" points="10.5,-25 10.5,-47 166.5,-47 166.5,-25 10.5,-25"/>
<text text-anchor="start" x="30.5" y="-32.1" font-family="Helvetica,sans-Serif" font-size="11.00" fill="#000000">num_failures</text>
<polygon fill="none" stroke="#000000" points="166.5,-25 166.5,-47 233.5,-47 233.5,-25 166.5,-25"/>
<text text-anchor="start" x="169.5" y="-32.7" font-family="Helvetica,sans-Serif" font-size="11.00" fill="#000000">int4[10]</text>
<polygon fill="#ffffff" stroke="transparent" points="10.5,-6 10.5,-25 79.5,-25 79.5,-6 10.5,-6"/>
<polygon fill="none" stroke="#000000" points="10.5,-6 10.5,-25 79.5,-25 79.5,-6 10.5,-6"/>
<text text-anchor="start" x="13.5" y="-12.1" font-family="Helvetica,sans-Serif" font-size="11.00" fill="#000000">&lt; 0</text>
<polygon fill="#ffffff" stroke="transparent" points="79.5,-6 79.5,-25 166.5,-25 166.5,-6 79.5,-6"/>
<polygon fill="none" stroke="#000000" points="79.5,-6 79.5,-25 166.5,-25 166.5,-6 79.5,-6"/>
<text text-anchor="start" x="131.1105" y="-12.1" font-family="Helvetica,sans-Serif" font-size="11.00" fill="#000000">0 rows</text>
<polygon fill="#ffffff" stroke="transparent" points="166.5,-6 166.5,-25 233.5,-25 233.5,-6 166.5,-6"/>
<polygon fill="none" stroke="#000000" points="166.5,-6 166.5,-25 233.5,-25 233.5,-6 166.5,-6"/>
<text text-anchor="start" x="214.9053" y="-12.1" font-family="Helvetica,sans-Serif" font-size="11.00" fill="#000000">0 &gt;</text>
<polygon fill="none" stroke="#000000" stroke-width="2" points="9,-5 9,-181 234,-181 234,-5 9,-5"/>
</a>
</g>
</g>
</g>
</svg>
